<?xml version="1.0" encoding="utf-8"?>
<svg xmlns="http://www.w3.org/2000/svg" version="1.1" viewBox="0 0 2239 802">
	<title>Twenty measures of musical notation on the treble clef, with a 6/8 time signature, in the key of G.</title>
	<path d="M0 35v2h2239v-2zm0 24v3h2239v-3zm0 25v3h2239v-3zm0 25v3h2239v-3zm0 25v2h2239v-2zm0 196v3h2239v-3zm0 25v3h2239v-3zm0 25v3h2239v-3zm0 25v3h2239v-3zm0 25v2h2239v-2zm0 196v3h2239v-3zm0 25v3h2239v-3zm0 25v3h2239v-3zm0 25v3h2239v-3zm0 25v2h2239v-2z"/>
	<path d="M2081 723c13 12 52 12 65 0-13 20-52 20-65 0"/>
	<path d="M2081 722a1 1 0 0 0 0 1c6 10 19 15 32 15s27-5 33-15a1 1 0 0 0-1-1c-6 6-19 9-32 9s-25-3-31-9a1 1 0 0 0-1 0zm3 4c7 4 18 6 29 6s22-2 29-6c-6 7-17 11-29 11-11 0-22-4-29-11z"/>
	<path d="M328 35v101m-2-101v101h5V35zm1702 591v102m-2-102v102h5V626zm-277 0v102m-3-102v102h5V626zM618 35v101m-2-101v101h4V35zm579 591v102m-2-102v102h4V626zM2237 35v101m-2-101v101h4V35zM1227 330v102m-3-102v102h5V330zm1013 0v102m-2-102v102h4V330z"/>
	<path d="M1410 665c0-3-3-5-6-5s-5 2-5 5 2 5 5 5 6-2 6-5m0 25c0-3-3-5-6-5s-5 2-5 5 2 5 5 5 6-2 6-5"/>
	<path d="M1421 626v102m-2-102v102h4V626zm20 0v102m-7-102v102h14V626zM1253 35v101m-2-101v101h4V35zm651 295v102m-2-102v102h4V330zm-1129 0v102m-6-102v102h13V330zm25 0v102m-3-102v102h5V330z"/>
	<path d="M811 369c0-3-2-5-5-5s-5 2-5 5 2 5 5 5 5-2 5-5m0 25c0-3-2-5-5-5s-5 2-5 5 2 5 5 5 5-2 5-5"/>
	<path d="M1558 35v101m-2-101v101h4V35zm328 0v101m-2-101v101h4V35zM851 626v102m-2-102v102h5V626zm729-296v102m-2-102v102h4V330zm-1062 0v102m-2-102v102h4V330zm1698 296v102m-7-102v102h14V626zm30 0v102m-7-102v102h13V626zm-1744 0v102m-3-102v102h5V626zM971 35v101m-2-101v101h4V35zm146 717h49m-49-2v4h49v-4zm0 27h49m-49-2v4h49v-4zm-398-23h48m-48-2v4h48v-4zm343 2h49m-49-2v4h49v-4zm0 27h49m-49-2v4h49v-4zm-128-23h49m-49-2v4h49v-4zm674 2h49m-49-2v4h49v-4zm-889 27h48m-48-2v4h48v-4zm288-23h49m-49-2v4h49v-4zm-234 27h49m-49-2v4h49v-4zm234 2h49m-49-2v4h49v-4zm-127-23h48m-48-2v4h48v-4zm343 2h49m-49-2v4h49v-4zm0 27h49m-49-2v4h49v-4zm-450-23h49m-49-2v4h49v-4zm-127 2h48m-48-2v4h48v-4zm779-323v-83m-1 0v83h2v-83zm-949 95V338m-1 0v101h2V338zm1022 89v-70m-1 0v70h2v-70zm44 70v-70m-1 0v70h3v-70zM274 144V61m-1 0v83h2V61zm1371 329v-64m-2 0v64h3v-64zM394 82V17m-1 0v65h2V17zm1294 373v-64m-1 0v64h2v-64zm45 64v-64m-2 0v64h3v-64zM431 82V17m-2 0v65h3V17zm1345 373v-64m-1 0v64h2v-64zM467 82V17m-1 0v65h2V17zm1352 398v-83m-1 0v83h2v-83zM504 119V42m-1 0v77h2V42zm1359 385v-89m-2 0v89h3v-89zm108 101v-82m-2 0v82h3v-82zM541 119V42m-2 0v77h3V42zm1472 397v-82m-1 0v82h2v-82zM577 119V42m-1 0v77h2V42zm1506 397v-82m-1 0v82h2v-82zM683 131V61m-1 0v70h3V61zm1471 366v-71m-1 0v71h2v-71zm45 59v-64m-2 0v64h3v-64zM727 131V61m-1 0v70h3V61zM224 698v-70m-1 0v70h2v-70zm548-497V61m-1 0v70h3V61zM267 698v-70m-1 0v70h3v-70zm45 70v-70m-1 0v70h2v-70zm505-484V61m-1 0v83h3V61zM354 723v-70m-1 0v70h2v-70zm533-509V67m-1 0v77h2V67zM398 723v-70m-2 0v70h3v-70zm45 70v-70m-1 0v70h2v-70zm490-509V67m-1 0v77h2V67zM547 735v-76m-1 0v76h2v-76zm490-553V24m-1 0v82h2V24zM591 735v-76m-2 0v76h3v-76zm45 76v-76m-1 0v76h2v-76zm447-553V24m-1 0v82h2V24zM683 760v-82"/>
	<path d="M682 678v82h2v-82zm442-547V61m-1 0v70h2V61zM756 785V683m-1 0v102h2V683zm56 90v-96m-2 0v96h3v-96zm359-546V64m-1 0v67h2V64zM917 760v-83m-1 0v83h2v-83zm296-533V67m-1 0v77h2V67zM972 760v-82m-2 0v82h3v-82zm348-572V24m-1 0v82h2V24zm-273 749v-89m-1 0v89h3v-89zm56 89v-89m-1 0v89h2v-89zm56 89v-89m-1 0v89h2v-89zm107 101V677m-1 0v108h2V677zm174-533V61m-1 0v83h2V61zm-85 674v-82m-1 0v82h2v-82zm163 82v-76m-1 0v76h2v-76zm-4-515V61m-1 0v83h2V61zm50 674v-76m-2 0v76h3v-76zm73-553V36m-1 0v70h2V36zm-27 699v-76m-1 0v76h2v-76zm50 101v-83m-1 0v83h2v-83zm24-571V36m-2 0v70h3V36zm28 699v-82m-1 0v82h2v-82zm19-547V36m-2 0v70h3V36zm104 687v-83m-1 0v83h2v-83zm-57-521V42m-2 0v77h3V42zm104 644v-77m-2 0v77h3v-77zm45 102v-77m-1 0v77h2v-77zm-100-515V42m-2 0v77h3V42zm146 681v-89m-1 0v89h2v-89zm-99-515V42m-2 0v77h3V42zm146 669v-77m-2 0v77h3v-77zm108 64v-83m-1 0v83h2v-83zm-143-484V61m-1 0v70h2V61zm216 637v-83m-2 0v83h3v-83zm-169-484V61m-1 0v70h2V61zm45 70V61m-2 0v70h3V61zm46 83V61m-2 0v83h3V61zm73 83V67m-2 0v77h3V67zm46 77V67m-2 0v77h3V67zM224 390v-77m-1 0v77h2v-77zm63 77v-77m-1 0v77h3v-77zm64 102v-83m-2 0v83h3v-83zm64 83v-80m-1 0v80h2v-80zm169 55v-77m-1 0v77h3v-77zm134 126v-82m-1 0v82h3v-82zm164 20v-64m-2 0v64h3v-64zm64 64v-64m-1 0v64h2v-64zm63 64v-64m-1 0v64h2v-64zm63 64v-70m-1 0v70h3v-70zm64 83v-80m-1 0v80h2v-80zm63 92v-89m-1 0v89h2v-89zm107 114v-70m-1 0v70h2v-70zm45 70v-70m-1 0v70h2v-70zm44 70v-70m-1 0v70h3v-70z"/>
	<path d="M855 152c0 4 3 9 11 9 11 0 21-9 21-17 0-6-5-10-11-10-9 0-21 9-21 18m374 641c0 4 3 9 11 9 11 0 21-8 21-17 0-6-5-9-11-9-9 0-21 8-21 17m822-345c0 4 3 9 11 9 10 0 21-9 21-18 0-5-5-9-11-9-9 0-21 8-21 18m-735 296c0 4 3 9 11 9 10 0 21-9 21-18 0-5-5-9-11-9-9 0-21 8-21 18M243 152c0 4 3 9 11 9 10 0 21-9 21-17 0-6-5-10-11-10-9 0-21 9-21 18m120-62c0 4 3 9 11 9 10 0 21-9 21-17 0-6-5-10-11-10-10 0-21 9-21 18m1803 62c0 4 3 9 11 9 10 0 21-9 21-17 0-6-5-10-11-10-10 0-22 9-22 18M400 90c0 4 3 9 11 9 10 0 21-9 21-17 0-6-5-10-11-10-10 0-21 9-21 18m36 0c0 4 3 9 11 9 11 0 21-9 21-17 0-6-4-10-11-10-9 0-21 9-21 18m37 37c0 4 3 9 11 9 10 0 21-9 21-17 0-6-5-9-11-9-10 0-21 8-21 17m1183 271c0 4 3 9 11 9 11 0 21-8 21-17 0-6-5-9-11-9-9 0-21 8-21 17M510 127c0 4 3 9 11 9 10 0 21-9 21-17 0-6-5-9-11-9-10 0-21 8-21 17m36 0c0 4 3 9 11 9 11 0 21-9 21-17 0-6-5-9-11-9-9 0-21 8-21 17m106 12c0 5 3 9 11 9 11 0 22-8 22-17 0-6-5-9-12-9-9 0-21 8-21 17m826 605c0 4 3 9 11 9 11 0 21-9 21-18 0-5-5-9-11-9-9 0-21 8-21 18M696 139c0 5 3 9 11 9 11 0 22-8 22-17 0-6-5-9-12-9-9 0-21 8-21 17m44 0c0 5 3 9 11 9 11 0 22-8 22-17 0-6-5-9-12-9-9 0-21 8-21 17m1382 296c0 4 3 9 11 9 10 0 21-8 21-17 0-6-5-9-11-9-10 0-21 8-21 17M784 152c0 4 3 9 11 9 11 0 22-9 22-17 0-6-5-10-12-10-9 0-21 9-21 18m853-37c0 4 3 9 11 9 10 0 21-9 21-18 0-5-5-9-11-9-10 0-21 8-21 17m-115 630c0 4 3 9 11 9 10 0 21-9 21-18 0-5-5-9-11-9-10 0-21 8-21 18M899 152c0 4 3 9 11 9 10 0 21-9 21-17 0-6-5-10-11-10-9 0-21 9-21 18m106-37c0 4 3 9 11 9 11 0 21-9 21-18 0-5-5-9-11-9-9 0-21 8-21 17m560 630c0 4 3 9 11 9 10 0 21-9 21-18 0-5-5-9-11-9-9 0-21 8-21 18m-516-629c0 4 3 9 11 9 11 0 21-9 21-18 0-5-5-9-11-9-9 0-21 8-21 17m44 25c0 5 3 9 11 9 11 0 21-8 21-17 0-6-5-9-11-9-9 0-21 8-21 17m413 296c0 4 3 9 11 9 11 0 22-8 22-17 0-6-5-9-12-9-9 0-21 8-21 17m-369-296c0 5 3 9 11 9 11 0 21-8 21-17 0-6-5-9-11-9-9 0-21 8-21 17m44 13c0 4 3 9 11 9 11 0 21-9 21-17 0-6-5-10-11-10-9 0-21 9-21 18m106-37c0 4 3 9 11 9 11 0 22-9 22-18 0-5-5-9-12-9-9 0-21 8-21 17m327 654c0 5 3 9 11 9 11 0 21-8 21-17 0-6-5-9-11-9-9 0-21 8-21 17m552-345c0 4 3 9 11 9 10 0 21-9 21-17 0-6-5-9-11-9-10 0-22 8-22 17m-502 321c0 4 3 9 11 9 11 0 21-9 21-18 0-5-5-9-11-9-9 0-21 8-21 18m-261-592c0 4 3 9 11 9 10 0 21-9 21-17 0-6-5-10-11-10-10 0-21 9-21 18m720 0c0 4 3 9 11 9 10 0 21-9 21-17 0-6-5-10-11-10-10 0-22 9-22 18m-648 0c0 4 3 9 11 9 10 0 21-9 21-17 0-6-5-10-11-10-10 0-21 9-21 18m120-37c0 4 3 9 11 9 10 0 21-9 21-18 0-5-5-9-11-9-10 0-21 8-21 17m458 38c0 4 3 9 11 9 10 0 21-9 21-17 0-6-5-10-11-10-10 0-21 9-21 18m-659 283c0 4 3 9 11 9 10 0 21-8 21-17 0-6-5-9-11-9-10 0-21 8-21 17m289-320c0 4 3 9 11 9 10 0 21-9 21-18 0-5-5-9-11-9-10 0-21 8-21 17m44 13c0 4 3 9 11 9 10 0 21-9 21-17 0-6-5-9-11-9-10 0-21 8-21 17m58 604c0 4 3 9 11 9 11 0 21-8 21-17 0-6-5-9-11-9-9 0-21 8-21 17m-14-604c0 4 3 9 11 9 10 0 21-9 21-17 0-6-5-9-11-9-10 0-21 8-21 17m44 0c0 4 3 9 11 9 10 0 21-9 21-17 0-6-5-9-11-9-10 0-21 8-21 17m-552 308c0 4 3 9 11 9 11 0 21-8 21-17 0-6-5-9-11-9-9 0-21 8-21 17m658-296c0 5 3 9 11 9 10 0 21-8 21-17 0-6-5-9-11-9-10 0-21 8-21 17m-92 555c0 4 3 9 11 9 10 0 21-8 21-17 0-6-5-9-11-9-10 0-22 8-22 17M236 706c0 5 4 9 12 9 10 0 21-8 21-17 0-6-5-9-11-9-10 0-22 8-22 17m1507-308c0 4 3 9 11 9 11 0 22-8 22-17 0-6-5-9-12-9-9 0-21 8-21 17M280 706c0 5 3 9 11 9 10 0 21-8 21-17 0-6-5-9-11-9-10 0-21 8-21 17m1590 13c0 4 3 9 11 9 10 0 21-9 21-17 0-6-5-10-11-10-10 0-21 9-21 18M323 731c0 4 3 9 11 9 11 0 21-8 21-17 0-6-4-9-11-9-9 0-21 8-21 17m1590 0c0 4 3 9 11 9 11 0 22-8 22-17 0-6-5-9-12-9-9 0-21 8-21 17m-565-296c0 4 3 9 11 9 11 0 22-8 22-17 0-6-5-9-12-9-9 0-21 8-21 17M367 731c0 4 3 9 11 9 10 0 21-8 21-17 0-6-5-9-11-9-10 0-21 8-21 17m1420-308c0 4 3 9 11 9 10 0 21-9 21-17 0-6-5-9-11-9-10 0-21 8-21 17M410 731c0 4 3 9 11 9 10 0 21-8 21-17 0-6-5-9-11-9-9 0-21 8-21 17m745-321c0 5 3 9 11 9 10 0 21-8 21-17 0-6-5-9-11-9-9 0-21 8-21 17m-62-12c0 4 3 9 11 9 10 0 21-8 21-17 0-6-5-9-11-9-10 0-21 8-21 17m607 0c0 4 3 9 11 9 10 0 21-8 21-17 0-6-5-9-11-9-10 0-21 8-21 17M516 744c0 4 3 9 11 9 11 0 21-9 21-18 0-5-5-9-11-9-9 0-21 8-21 18m1441-25c0 4 3 9 11 9 10 0 21-9 21-17 0-6-5-10-11-10-10 0-21 9-21 18m-126-284c0 4 3 9 11 9 10 0 21-8 21-17 0-6-5-9-11-9-10 0-22 8-22 17M560 744c0 4 3 9 11 9 10 0 21-9 21-18 0-5-5-9-11-9-10 0-21 8-21 18m745-309c0 4 3 9 11 9 10 0 21-8 21-17 0-6-5-9-11-9-10 0-21 8-21 17M603 744c0 4 3 9 11 9 10 0 21-9 21-18 0-5-5-9-11-9-10 0-21 8-21 18m1404-605c0 5 3 9 11 9 10 0 21-8 21-17 0-6-5-9-11-9-10 0-21 8-21 17M193 706c0 5 3 9 11 9 11 0 21-8 21-17 0-6-5-9-11-9-9 0-21 8-21 17m1870 0c0 5 3 9 11 9 10 0 21-8 21-17 0-6-5-9-11-9-10 0-21 8-21 17M652 768c0 5 3 9 11 9 10 0 21-8 21-17 0-6-5-9-11-9-9 0-21 8-21 17m1482-62c0 5 3 9 11 9 10 0 21-8 21-17 0-6-5-9-11-9-10 0-22 8-22 17M1030 386c0 4 3 9 12 9 10 0 21-9 21-18 0-5-5-9-11-9-10 0-22 8-22 18m-62 0c0 4 3 9 11 9 11 0 21-9 21-18 0-5-5-9-11-9-9 0-21 8-21 18M725 793c0 4 3 9 11 9 10 0 21-8 21-17 0-6-5-9-11-9-10 0-21 8-21 17m1238-654c0 5 3 9 11 9 10 0 21-8 21-17 0-6-5-9-11-9-10 0-21 8-21 17m-350 259c0 4 3 9 11 9 10 0 21-8 21-17 0-6-5-9-11-9-10 0-22 8-22 17m-706-12c0 4 3 9 11 9 10 0 21-9 21-18 0-5-5-9-11-9-10 0-21 8-21 18M780 781c0 4 3 9 11 9 10 0 21-9 21-17 0-6-5-10-11-10-10 0-21 9-21 18m64-395c0 4 3 9 11 9 10 0 21-9 21-18 0-5-5-9-11-9-10 0-21 8-21 18m-163 62c0 4 3 9 11 9 11 0 22-9 22-18 0-5-5-9-12-9-9 0-21 8-21 18m1256 0c0 4 3 9 11 9 10 0 21-9 21-18 0-5-5-9-11-9-10 0-21 8-21 18M886 768c0 5 3 9 11 9 10 0 21-8 21-17 0-6-5-9-11-9-10 0-21 8-21 17m55 0c0 5 3 9 11 9 10 0 21-8 21-17 0-6-5-9-11-9-10 0-21 8-21 17M548 398c0 4 3 9 11 9 11 0 22-8 22-17 0-6-5-9-11-9-10 0-22 8-22 17m465 383c0 4 3 9 12 9 10 0 21-9 21-17 0-6-5-10-11-10-10 0-22 9-22 18m967-333c0 4 3 9 11 9 11 0 21-9 21-18 0-5-5-9-11-9-9 0-21 8-21 18m-1538 0c0 4 3 9 11 9 11 0 21-9 21-18 0-5-4-9-11-9-9 0-21 8-21 18m-62-25c0 4 3 9 11 9 10 0 21-9 21-17 0-6-5-9-11-9-10 0-21 8-21 17m688 358c0 4 3 9 11 9 11 0 21-9 21-17 0-6-5-10-11-10-9 0-21 9-21 18M318 423c0 4 3 9 11 9 10 0 21-9 21-17 0-6-5-9-11-9-10 0-21 8-21 17m805 358c0 4 3 9 11 9 10 0 21-9 21-17 0-6-5-10-11-10-9 0-21 9-21 18M255 398c0 4 3 9 12 9 10 0 21-8 21-17 0-6-5-9-11-9-10 0-22 8-22 17m1208 37c0 4 3 9 11 9 10 0 21-8 21-17 0-6-5-9-11-9-10 0-21 8-21 17M193 398c0 4 3 9 11 9 11 0 21-8 21-17 0-6-5-9-11-9-9 0-21 8-21 17"/>
	<path d="M31 457c0 7 5 15 18 15 5 0 9-1 12-3 6-4 7-10 7-17l-1-14-2-8c10-4 17-14 17-24 0-15-11-25-25-25l-3-17c11-11 18-24 18-40 0-9-3-16-4-20-3-5-6-8-8-8l-7 5c-6 8-8 20-8 29l2 21-7 7c-9 8-21 20-21 40 0 19 16 33 34 33h8l3 21c0 11-5 16-15 16h-5v-1c5-1 10-5 10-11 0-5-4-11-12-11-7 0-11 6-11 12m21-132c0-4 5-15 10-15 2 0 4 5 4 12 0 10-8 18-14 25l-2-12 2-10m8 102h-5c-15 0-27-10-27-25 0-12 9-23 17-30l5-4 3 14c-10 2-16 12-16 21 0 7 6 17 14 17l1-2-2-2c-4-2-6-5-6-10 0-6 5-11 11-12l5 33m14-19c0 7-3 15-10 18l-5-33c9 0 15 7 15 15M31 753c0 7 5 15 18 15 5 0 9-1 12-3 6-4 7-10 7-17l-1-14-2-9c10-3 17-13 17-23 0-15-11-25-25-25l-3-18c11-11 18-23 18-39 0-9-3-16-4-20-3-5-6-8-8-8l-7 5c-6 7-8 20-8 28l2 22-7 7c-9 8-21 20-21 40 0 19 16 33 34 33h8l3 21c0 11-5 16-15 16h-5v-1c5-1 10-5 10-11 0-5-4-11-12-11-7 0-11 6-11 12m21-132c0-4 5-15 10-15 2 0 4 5 4 12 0 10-8 18-14 25l-2-12 2-10m8 102h-5c-15 0-27-10-27-25 0-12 9-23 17-30l5-5 3 15c-10 2-16 12-16 21 0 7 6 17 14 17l1-2-2-2c-4-2-6-5-6-10 0-6 5-11 11-12l5 33m14-19c0 7-3 15-10 17l-5-32c9 0 15 6 15 15M31 161c0 7 5 15 18 15 5 0 9-1 12-3 6-4 7-10 7-17l-1-14-2-8c10-4 17-14 17-24 0-15-11-25-25-25l-3-17c11-11 18-24 18-40 0-9-3-16-4-19-3-6-6-9-8-9l-7 5c-6 8-8 20-8 29l2 21-7 7c-9 8-21 20-21 40 0 19 16 33 34 33h8l3 21c0 11-5 16-15 16h-5v-1c5-1 10-5 10-11 0-5-4-11-12-11-7 0-11 6-11 12M52 29c0-4 5-15 10-15 2 0 4 5 4 12 0 10-8 18-14 25l-2-12 2-10m8 102h-5c-15 0-27-10-27-25 0-12 9-22 17-30l5-4 3 14c-10 2-16 12-16 21 0 7 6 17 14 17l1-2-2-2c-4-2-6-5-6-10 0-6 5-10 11-12l5 33m14-19c0 7-3 15-10 18l-5-32c9 0 15 6 15 14"/>
	<path d="m130 26 1-2v-6l-1-1-4 1V3h-3v15l-8 2V6h-3v15h-4l-1 2v5c0 2 1 2 2 2l3-1v17h-4l-1 2v5c0 2 1 2 2 2l3-1v15h3V54l8-2v14h3V51h4l1-2v-6l-1-1-4 1V26l4-1m-15 4 8-2v16l-8 2V29m15 292 1-1v-6l-1-1h-4v-14h-3v15l-8 2v-14h-3v14l-4 1-1 2v5l2 2 3-1v16l-4 1-1 2v5l2 2 3-1v15h3v-16l8-1v14h3v-15l4-1 1-1v-6l-1-1h-4v-16l4-1m-15 3 8-1v16l-8 2v-17m15 293 1-1v-6l-1-1h-4v-14h-3v15l-8 2v-14h-3v14l-4 1-1 2v5l2 2 3-1v16l-4 1-1 2v5l2 2 3-1v15h3v-16l8-1v14h3v-15l4-1 1-1v-6l-1-1h-4v-16l4-1m-15 3 8-1v16l-8 2v-17"/>
	<path d="M179 56c-6 0-8 2-9 4l-1-6c0-5 2-13 9-13 3 0 4 1 5 2-2 1-4 4-4 6 0 4 3 7 7 7 3 0 6-3 6-7l-1-3c-1-4-5-9-15-9-9 0-15 8-17 13-1 2-3 7-3 13s2 13 8 18c6 4 9 4 13 4 3 0 16-4 16-15 0-10-8-14-14-14m-3 25c-4 0-6-4-6-10 0-5 2-10 6-10s6 5 6 10c0 6-3 10-6 10m11 27c3-2 5-5 5-9 0-7-8-13-17-13-10 0-18 6-18 13 0 4 1 7 6 10-5 3-7 6-7 11 0 8 8 15 19 15 10 0 18-7 18-15 0-5-1-9-6-12m-6-2c-7-3-14-6-14-10s3-6 8-6c6 0 10 3 10 8 0 4-2 7-4 8m-6 23c-7 0-12-3-12-9 0-7 5-8 5-8 7 2 16 6 16 11 0 3-3 6-9 6"/>
	<path d="m642 398-1-1-11-14v-1l10-16v-2l-16-22h-2v2l7 10 1 2-1 1-10 15v2l12 14h-3c-5 0-9 4-9 9l1 4 10 13h1l1-1v-1l-4-6v-3c0-4 2-6 5-6l3 1 4 2h2v-2m653 296v-1l-12-14v-1l11-16v-1l-1-1-16-22h-1l-1 1v1l8 10v3l-10 15v2l11 14h-2c-5 0-9 4-9 9l1 4 9 13h2l1-1-1-1-3-6-1-4c0-3 3-5 6-5l3 1 4 2h2v-2h-1m89-629-1 1c-3 5-7 11-13 12l2-5a7 7 0 0 0-14 0c0 5 5 8 10 8s9-3 12-6l-11 35 2 1 14-44-1-2"/>
	<path d="M546 653h89v12h-89v-12M393 11h75v13h-75V11m110 25h75v12h-75V36m179 19h91v12h-91V55m1469 6h47v12h-47V61M885 61h46v12h-46V61m238-6 90 6v12l-90-6V55m-63 246 127 6v12l-127-6v-12M755 677l57-6v13l-57 6v-13m1018-358 90 13v12l-90-12v-13M353 646h89v13h-89v-13m1140-296h46v13h-47v-13m150-31h90v13h-90v-13m112-283h91v12h-91V36m-131-6h90v12h-90V30m277 598h89v12h-89v-12m-609-278h90v13h-90v-13m-944-24 127 6v12l-127-6v-12m1161 327h89v12h-89v-12M873 307h127v12H873v-12m1279 43 46-6v13l-46 6v-13M223 622h89v12h-89v-12m820 55h112v13h-112v-13m906-622h90v12h-90V55"/>
	<path d="m273 83 1 1c4 2 12 7 19 18 2 3 4 7 4 16a63 63 0 0 1-4 23l1 1 1-1c5-8 6-17 6-27 0-12-7-22-7-22l-12-16-6-12-1-4h-1l-1 1v22m541 0 1 1c4 2 13 7 19 18 2 3 5 7 5 16a63 63 0 0 1-5 23l1 1 2-1c4-8 6-17 6-27-1-12-8-22-8-22l-12-16c-4-6-5-11-5-12l-1-4h-2l-1 1v22m265-37 1 1c4 2 13 7 19 18 2 3 5 7 5 15a63 63 0 0 1-5 24l1 1 2-2c4-7 6-17 6-26-1-13-8-22-8-22l-12-16-6-12-1-4-1-1-1 2v22m1002 333 1 1c4 2 12 7 19 18 2 3 5 7 5 16a63 63 0 0 1-5 23l1 1 1-1c5-8 6-18 6-27 0-12-7-22-7-22l-12-16-6-12-1-4-1-1-1 2v22M1432 83v1c5 2 13 7 20 18 2 3 4 7 4 16a63 63 0 0 1-4 23l1 1 1-1c5-8 6-17 6-27 0-12-7-22-7-22l-12-16-6-12-1-4h-1l-1 1v22m71 0v1c5 2 13 7 20 18 1 3 4 7 4 16a63 63 0 0 1-5 23l2 1 1-1c4-8 6-17 6-27 0-12-8-22-8-22l-11-16-6-12-1-4h-1l-1 1v22m-81 284v1c5 1 13 7 20 18 2 3 4 7 4 15a63 63 0 0 1-4 23l1 1 1-1c5-8 6-17 6-26 0-13-7-22-7-22s-10-12-12-17c-4-5-6-11-6-11l-1-4-1-1-1 1v23M682 700l1 1c4 1 12 7 19 18 2 3 4 7 4 15a63 63 0 0 1-4 23l1 1 1-1c5-8 6-17 6-26 0-13-7-22-7-22l-12-16-6-12-1-4-1-1-1 1v23M2080 83l1 1c4 2 13 7 19 18 2 3 5 7 5 16a63 63 0 0 1-5 23l1 1 2-1c4-8 6-17 6-27 0-12-8-22-8-22l-12-16-5-12-1-4h-1l-2 1v22m-70 296 1 1c4 2 13 7 19 18 2 3 5 7 5 16a63 63 0 0 1-5 23l1 1 2-1c4-8 6-18 6-27-1-12-8-22-8-22l-12-16-6-12-1-4-1-1-1 2v22M970 700l1 1c4 1 13 7 19 18 2 3 5 7 5 15a63 63 0 0 1-5 23l1 1 2-1c4-8 6-17 6-26 0-13-8-22-8-22l-12-16-5-12-1-4-1-1-2 1v23m723-25 1 1c4 2 12 7 19 18 2 3 5 7 5 16a63 63 0 0 1-5 23l1 1 1-1c5-8 7-18 7-27-1-12-8-22-8-22l-12-16-6-12-1-4-1-1-1 2v22m-347 0v1c5 2 13 7 20 18 2 3 4 7 4 16a63 63 0 0 1-4 23l1 1 1-1c5-8 6-18 6-27 0-12-7-22-7-22l-12-16-6-12-1-4-1-1-1 2v22M285 336l1 1c4 1 13 7 19 18 2 3 5 7 5 15a63 63 0 0 1-5 23l1 1 2-1c4-8 6-17 6-26-1-13-8-22-8-22l-12-17-5-11-1-4-2-1-1 1v23m426 43 1 1c4 2 13 7 19 18 2 3 5 7 5 16a63 63 0 0 1-5 23l1 1 2-1c4-8 6-18 6-27-1-12-8-22-8-22l-12-16c-4-6-5-11-5-12l-1-4-2-1-1 2v22m1145 253 1 1c4 1 13 7 19 18 2 3 5 7 5 15a63 63 0 0 1-5 23l1 1 2-1c4-8 6-17 6-26-1-13-8-22-8-22l-12-17-5-11-1-4-1-1-2 1v23"/>
	<path d="m499 599 2 1h17l2-1c0-2-7-1-8-4l-1-3v-1l1-8v-3c0-8 1-7 4-7l2-1-2-1h-16l1 1c5 1 5 1 5 7v16c-1 4-7 2-7 4m26-3 2 2 2 3 3-3 2-2-2-3-2-2c-2 0-2 1-3 2l-2 3"/>
	<path d="M483 544v56h2v-54h935v54h2v-56z"/>
	<path d="m1461 599 2 1h22l1-1 4-7-1-1c-1 0-2 3-4 3l-10 1h-3l4-4c4-3 9-9 9-13 0-5-4-8-9-8-9 0-12 6-12 8l5 2h1l-1-4c0-2 1-3 4-3s7 2 7 6c0 5-4 11-15 17l-4 3m34-3 2 2 2 3 3-3 2-2-2-3-2-2c-2 0-2 1-3 2l-2 3"/>
	<path d="M1445 544v56h2v-54h757v54h2v-56z"/>
	<path d="M593 394c0 3 2 5 5 5s5-2 5-5-2-5-5-5-5 2-5 5m1514 296c0 3 3 5 5 5 3 0 5-2 5-5s-2-5-5-5c-2 0-5 2-5 5m-833 99c0 3 2 5 5 5s5-2 5-5-2-5-5-5-5 2-5 5m58-691c0 3 2 5 5 5s5-2 5-5-2-5-5-5-5 2-5 5"/>
</svg>
