<?xml version="1.0" encoding="utf-8"?>
<svg xmlns="http://www.w3.org/2000/svg" version="1.1" viewBox="0 0 1275 1196">
	<title>Map titled “The Battle of Battle 1st Position. About 7:30.” A railway is drawn and labeled horizontally at the top. A road crosses the railway, labeled “level crossing,” and turns southwest. An “Inn: with the King of Kent and his Staff” is marked along the road. Military formations are drawn, labeled “Men of Kent” and “Men of Sussex.” The “Men of Sussex” are at the south of the map, on top of a hill marked with elevation lines, and the “Men of Kent” are north below the hill, in front of the road and railway.</title>
	<path d="m426 1194-6-13-3-12c0-4-2-10-4-13-2-6-4-12-1-8 2 3 3 1 3-6s-2-8-7-6c-3 1-4 2-3 3l-1 2c-3-1-4-5-4-11s1-10 3-9c9 2 9 2 9-4 0-7 4-15 8-15 6-1 11 7 7 11l-3 9c0 7 0 11 3 21l5 18c1 6 6 19 10 23 1 2 1 3-2 7s-4 5-7 5l-7-2zm706-13c-5-5-5-6-6-15l1-14c6-23 9-32 14-38 4-7 4-10-2-14l-7-3-7 6c-4 4-6 6-8 6-8 0-2-12 11-23 7-6 10-7 10-1 0 3 2 5 5 7 5 4 9 5 13 3 1-1 4-2 6-1 6 2 4 8-6 13-5 3-10 14-15 29-3 9-3 12-3 23l1 12 6-1c4 0 5 1 5 3 1 3-9 12-12 12l-6-4zm-565-6c-3-4-4-13-2-18 2-2 2-2 4-1 4 2 6 1 4-2l-2-18c0-8-3-19-4-24-4-13-3-21 1-17 2 1 4 0 7-2 10-7 19-4 25 6 2 5 1 15-4 22-6 8-11 9-16 4l-3-2 1 7a167 167 0 0 1 3 23c2 12 1 20-2 23-5 4-9 3-12-1zm23-59c3-4 3-11-1-15l-4-2c-2 0-6 2-9 5-2 3-3 3-1 9 1 6 1 6 7 6 5 0 6-1 8-3zm325 60-5-12c-3-8-4-12-4-25l2-17 1-6c0-2 1-2 2-2 1 1 1 0 1-1-1-5 8-16 15-16 8 1 12 9 13 37 1 17 1 18 4 21l5 2 8-8 5-8v-25c-1-24-1-25 3-28 4-5 6-5 9 1 4 7 4 28 0 37-2 6-2 8-1 16 2 10 8 20 12 20 5-1 7-5 7-13l1-8-4-1c-5 0-9-3-9-6 0-2 8-5 11-4 2 1 5 0 7-1l11-2c6 0 7 0 10 3 2 4 3 4 7 2l7-2 4 2c3 3 3 4 2 13-1 11 1 15 4 11l2-6c0-3 4-7 7-7l1 7c0 9 3 11 7 6 4-3 5-3 5 1 0 6-5 11-12 11l-11 1c-6 1-8-2-9-17-1-9-2-11-4-11-3 0-3 5-1 6l1 10c0 6 0 9-2 12-11 13-22-4-16-26v-7h-3l-5 1c-2 0-3 1-3 2l-1 10c0 18-13 31-22 22-3-3-8-13-10-19l-2-4-5 7c-4 7-11 14-14 14-2 0-7-4-7-5l-3-5-4-3-1 4c-1 2-2 5-1 6 0 2-1 4-5 8-6 5-8 6-10 2zm12-22 2-9 2-15v-15c0-6-3-11-6-9s-6 13-8 26c-1 15 0 24 3 27 2 2 2 2 4 0 2-1 3-3 3-5zm96 2c0-7-2-11-4-11-3 0-3 11 0 15 2 2 4 1 4-4zm-215 18c0-2 1-4 3-5l4-4 3-4c3-2 3-2 6 1 4 3 3 6-1 7l-4 3c-1 3-4 4-4 1 0-2-3-1-3 2-1 3-4 3-4-1zm-199-3c-6-6-7-13-6-25 1-8 5-13 9-12 2 1 3 0 5-1 2-3 6-2 6 1s3 2 8-2l6-4c3 0 9 8 12 14 4 7 4 22 1 27-2 4-7 7-10 7-2 0-7-8-7-11s4-4 6-2c2 4 6 2 7-2 0-6-1-9-4-16l-4-6-5 2c-2 1-5 2-6 1s-1 6-2 14c-1 21-6 25-16 15zm10-13c1-3 0-13-1-15s-5 0-6 3c-2 5 1 15 4 15 2 0 3-1 3-3zm43 12-3-18c0-11 0-13 2-15 2-1 2-1 4 2 2 2 3 5 3 13s0 10 3 14c4 4 5 7 1 9-5 3-8 1-10-5zm117 2-2-9c0-7-3-7-5-1-2 7-5 8-8 6-2-2-2-5-3-13-1-11-2-14-5-10-1 1-2 6-2 13 0 10-1 11-4 14l-4 3-3-4c-6-5-9-15-8-25 2-12 2-12 12-12l10 2 6 2 5 1v6c-1 6 2 10 4 5 1-5 6-9 9-8s8 8 6 11l2 9c2 9 2 9 0 12-4 4-9 3-10-2zm-31-23 2-10-1-2c-2-1-6 8-6 13 0 4 2 9 4 9l1-10zm-57 22c-8-6-10-8-10-10s5-8 11-12c3-2 3-2 1-10l-6-40c0-2 0-3 3-3 8 0 9 2 9 17 0 17 2 30 5 30l5-2c6-5 12-1 12 9l2 10c1 3 0 7-4 7-3 0-6-8-6-14s0-7-3-6c-7 2-7 3-7 14 1 10 1 11-1 12-4 2-6 2-11-2zm6-12c0-3-1-5-4-3-3 1-3 3 0 6s4 2 4-3zm375-6c-3-7-5-12-5-19l-1-10h-7l-8-1c-1-2 7-10 10-10l8-4 5-5c3 0 6 4 5 8 0 2 0 3 2 3l4-2c2-2 8 0 9 3s-5 8-11 8h-5c-5 3-2 19 4 27 5 6 4 11-1 11-4 1-5 0-9-9zm117 7c-3-3-3-13 0-15 4-1 4-1 7 4l5 4c5 0 14-14 12-18-1-1-4-2-8-1-9 0-10-3-2-10 7-7 8-11 7-18-2-9-10-9-13 0-4 8-8 6-8-4 0-5 1-5 10-9 11-6 15-5 19 1 5 7 5 9 2 19-2 4-3 9-2 10l3 5c3 5 2 11-3 20-5 11-9 14-19 14-6 1-8 1-10-2zm55-3c-6-9-9-32-5-42l2-8c0-4 3-5 11-3s18 8 21 13c2 5 2 13 0 16v8c1 5 1 6-2 9-8 8-13 11-19 11-5 0-6 0-8-4zm18-10 2-13c1-11 1-12-2-16-2-2-5-3-7-3l-4-2c-1-2-4-1-6 2v11c3 14 6 22 8 23 3 2 6 1 9-2zm-97-3c-2-5 0-11 3-11s8 5 8 7c0 7-8 9-11 4zm-716-1c-3-3-6-9-7-14-1-3 0-3 4-3 3 0 4 0 4-2l-5-7c-4-4-5-6-2-10 5-6 16 7 18 22 1 9 0 13-4 15-5 2-6 2-8-1zm26-5c-2-3-3-10-4-17l-4-16c-3-10-5-17-3-21 2-5 5-5 9-1 3 3 3 5 4 19l2 16c1 1 3-1 5-3 5-5 10-4 18 2 7 6 8 8 5 11-4 4-5 3-10-2l-6-5c-2 0-4 7-4 12s-3 10-7 10l-5-5zm186-15c-2-6-1-8 5-8 3 0 4 1 4 4 1 3 0 5-1 6-4 3-6 2-8-2zm55-3c-2-4-2-6 1-8 3-1 4-1 6 1 3 3 3 5 0 8-3 2-5 2-7-1zm114-58c-8-13-10-26-9-58 0-20 0-21-2-21l-3 1c0 9-3 21-5 24-3 3-4 4-9 4-6 0-8-3-11-13-2-5-2-6 2-11 3-7 8-9 11-6 1 1 2 1 3-1l1-3 4-4c7-4 10-10 12-20 2-11 3-12 7-11 6 2 7 8 4 19l-3 11-2 12c-1 11-1 11 2 11l4 2c2 2 1 3-1 5-4 3-4 6 0 7 2 0 4 3 7 8l5 7-1 13-1 13-6 6c-6 6-8 7-9 5zm7-26c0-6-3-18-6-20-1-1-2-1-2 1 0 7 1 17 3 23 1 7 2 7 3 5l2-9zm-30-36c3-9 2-12-3-11-2 1-3 2-3 6l1 6c2 1 5 1 5-1zm-276 18c-3-3-3-3-1-9 3-8 3-22 1-33-2-8-2-10-1-14l2-11 1-7 12-2 11-1 2 4c3 5 3 15 0 21s-1 8 5 6c7-2 10-2 13 3 6 8 5 21-3 36-3 7-7 9-12 6l-4-3-2-3c-2-2-4-10-2-14 1-5 5-5 6 0 3 14 10 12 12-3 2-12-3-17-13-13-10 3-11 3-9-8 3-11 4-17 1-20-3-4-8-2-9 2-1 8-1 22 1 31 2 7 2 12 1 20-1 9-1 10-4 13-5 3-5 3-8-1zm-174-4-4-13a25525 25525 0 0 0-8-42c-2-3-2-4 3-7 5-4 5-4 9-2 3 2 5 4 7 10l2 9 1 8 2 16 2 14c1 4-3 9-8 10-3 0-4 0-6-3zm80 2c-3-2-4-4-4-13 0-6-1-7-3-8-4-2-6-8-5-14 1-7 3-10 7-8 2 1 3 3 2 5a12451 12451 0 0 1 1 9l4 2c3 2 5 5 5 7s1 3 3 3c4 0 9 3 9 7 0 3-6 7-11 7-4 0-5 2-1 3 3 1 3 1 0 1l-7-1zm153-2c-4-6-4-17-1-28 4-11 5-14 8-14s10 7 10 9l3 4c3 3 3 5 3 11s1 8 2 8c4 0 6-2 11-9 4-8 4-4 3-44v-9h6c8 0 8 0 6 14-1 8-1 8 2 8 6 0 8-2 8-9 0-9 1-13 5-13 4-1 6 3 4 8l-3 15c-1 18 2 29 11 37 7 7 6 10-1 10-5 0-6-1-9-6-5-7-7-14-8-27-1-8-2-9-4-9-2-1-4 0-6 3-2 4-2 6-1 11 2 12 3 14 7 16s5 8 0 11c-6 5-8 2-11-8l-2-6-2 3-7 9c-4 6-4 6-10 5l-10 2c-7 3-12 2-14-2zm13-9c4-6 1-22-4-22-3 0-5 4-5 13 0 11 5 16 9 9zm-208 7a512 512 0 0 1-13-85c-1-3 3-5 7-2 3 2 4 5 6 27 2 35 3 39 4 39l4-6c2-4 4-6 7-6 4 0 5 2 7 10l3 9c3 4 3 7 0 10l-3 3-2-4-4-10-3-6c-2 0-5 8-5 14s-5 11-8 7zm301-1-7-4-8-5-4-3v-22c0-23 1-30 5-34 3-3 8-4 12-1 3 2 3 3 3 10-1 5-2 10-4 13-7 11-8 23-3 29l3 4 4 2c3 0 3 0 3-5-2-7 0-12 4-15s4-3 9 0l8 6c3 4 4 10 2 10l-2 2c0 2 1 2 4 1 5-1 10 4 8 7-2 4-17 7-21 5-2-2-4-2-7 0l-4 1-5-1zm19-17c0-3-5-8-7-6-2 0-2 6 0 7l4 1c2 0 3-1 3-2zm-26-34c2-8 2-11 0-11-3 0-5 6-5 14s2 7 5-3zm364 45c-3-2-3-5-3-20 0-20-2-25-8-26-6 0-7 2-6 14 0 13 1 14 5 13 3 0 4 1 4 2 1 4-6 12-9 12s-7-4-7-8c0-6-2-6-8 1-5 5-6 6-8 4l-5-3c-1-2-2-2-5 2-5 5-9 5-12 1-8-7-9-19-3-29 4-8 6-9 11-11 3-1 4 0 7 3 4 5 6 12 6 19 0 6 2 9 5 7 7-4 12-18 8-25v-10l1-15c1-12 1-14 6-16 4-1 5-1 7 1v8l-2 14c-1 7 0 9 6 9 3 0 4 0 4-5 0-13 2-28 4-28l5 1c3 1 4 2 3 4l-1 8-3 17 2 13 2 22v9c3 0 8-6 8-10 0-2 1-7 3-9 3-4 4-9 5-21 3-19 4-23 9-26 5-4 9-4 12 1 3 4 3 7 1 7l-1 1c1 1 0 3-1 4l-2 5-2 6c-5 7-8 16-8 20 0 5 4 12 9 16 4 3 6 2 3-1-5-4 5-19 11-19 7 0 13 8 13 16 0 3 1 4 6 4l16 2c14 0 18 5 9 10-3 2-5 2-11 2l-25-1h-19l-8-6c-6-3-9-6-11-9l-3-5c-2 0-4 4-3 9 1 6-2 12-9 16-5 4-5 4-8 0zm-51-22 2-10c-1-5-1-6-4-6-3-1-7 4-8 12-1 10 5 12 10 4zm107-1c0-3-3-6-6-5-2 1-2 5 0 7 3 3 6 2 6-2zm-22-40c0-3-2-2-3 0 0 2 0 2 2 2l1-2zm-160 56-5-9c-4-6-7-16-8-26l-1-9 6-8c6-8 6-8 3-16-4-9 0-14 7-12 3 1 4 3 4 5 1 6 4 6 10 2l9-5c4 0 5 0 8 4 2 3 3 5 2 11l-3 12c-3 5-3 7 2 7l5 1c2 0 5 1 7 3 3 3 3 5 3 13 0 10 0 10-5 16-6 6-13 10-17 8l-5-7c-4-5-4-6-2-8 2-1 3-2 5 0 8 6 12 5 14-3s-1-12-10-13c-4-1-8-2-10-4s-2-3-1-6c7-10 9-20 5-21-3-2-12 5-13 9-1 2 0 11 1 21 3 23 3 34 0 36l-5 2c-3 0-4 0-6-3zm4-23c-1-19-2-24-4-24-1 0-3 3-5 10-1 5 6 23 9 23v-9zm-595-21c-2-2-1-4 1-4l3 3c-1 1-3 2-4 1zm-7-2h-3l-3-5c-2-6-1-6 2-9l8-4 9-3 12-2 15-3c6-2 9-2 8-1v3c2 2 1 4-1 7-3 4-6 5-13 7l-12 3c-12 1-19 4-20 6s-2 2-2 1zm422-115-5-5 1-14c2-20 2-20-2-19-3 0-3 1-3 7-1 5-2 7-6 12l-7 5c-3 0-7-6-8-10-1-5 0-7 10-19l5-1c8 2 12 0 15-10 2-5 4-8 6-8 5-1 6 7 1 15-4 6-3 10 1 11 1 0 4 2 6 5 3 4 3 5 3 16-1 11-1 12-5 16l-6 3-6-4zm10-15c1-5-1-11-5-12-2-1-3 7-1 12 2 6 5 6 6 0zm-25-14-1-6c-2-2-6 2-6 6s1 4 3 4c3 0 3-2 4-4zm-159 14-3-13-1-16c-1-7-1-9 2-11 2-2 3-2 4 0 2 1 3 4 3 7 1 6 3 8 7 6 5-5 11 1 14 16 1 7 1 8-1 11-3 2-4 2-5 1l-1-8-1-10c-2-4-6-5-9-3-2 1-2 3 0 11 1 11 1 14-4 14-2 0-3-2-5-5zm35 1c-2-1-3-3-3-8l-1-9c-2-3-1-4 1-6 5-5 8-2 8 6l2 10c2 3 2 4 1 5-3 2-6 3-8 2zm26-1-6-4c-4-2-4-3-4-10 1-9 3-13 8-11 5 1 6 6 3 12-2 2-2 5-2 5l6 1c6 0 8 3 3 6-3 2-3 2-8 1zm-1-18-1-2-1 1 1 2 1-1zm19 17-1-4-3-6-3-3 3-5 4-6c4 0 5 2 5 6 0 6 2 9 4 9 1 0 2-1 1-4-2-8 7-10 9-2l4 7c3 4 2 7-2 8-3 1-5 0-7-3-3-4-4-3-6 2-1 3-5 4-8 1zm149-7c-5-8-1-12 6-8 3 2 4 2 7 0l3-4c0-2-5-5-10-5-6 0-10-3-10-9 0-5 1-7 5-11 6-6 9-7 13-5s3 5-2 5c-4 0-8 4-8 9 0 4 2 5 9 5s11 4 11 9c0 6-1 9-9 13-8 5-11 6-15 1zm33-2c-3-5-4-19-1-22 1-2 2-2 3-1l1 5c0 5 3 6 5 2 3-4 6-3 7 1l4 10c3 4 3 6 2 7-3 3-10 3-10 0 0-2-1-2-6 0-4 2-4 2-5-2zm31-2-5-3c-3 2-1-3 3-7 3-4 5-6 7-14 2-4 5-4 9 1 5 6 6 12 2 20-2 4-4 6-8 7-3 0-5 0-8-4zm12-5c1-3-1-9-3-9-5 0-8 8-4 10 3 1 6 1 7-1zm13 6c-1-3 0-6 3-5 3 2 9 1 10-1 2-3 1-7-2-9-3-1-6-1-7 2l-2 2c-4 0-4-3-1-6l4-7c1-4 2-4 4-3l4 1 5 5c3 2 6 5 6 7 1 4-4 15-7 15a627 627 0 0 0-17-1zm65 0 3-6c4-5 4-9 1-10s-5-8-3-11 3-3 8 1c5 3 5 3 8 0 5-3 7-3 10 1s3 5 0 5c-4 0-4 4 0 8 5 4 6 6 2 9-3 3-9 4-13 3-2-2-4-2-6-1-5 3-10 3-10 1zm-28-3c-2-3-3-4-2-7s1-4-1-7-2-4 0-8c5-9 16-11 18-3 1 5 0 6-5 6s-7 3-3 5c2 1 2 2 2 5-1 4 0 4 2 5 8 1 5 8-3 8-4 0-6-1-8-4zm-553-33c-4-4-4-8-1-9h16c11 1 14 2 16 4 1 2 0 3-2 5s-5 2-14 3c-13 1-13 1-15-3zm132 0-3-15c-1-13-1-14 1-16 2-1 10-2 34-2h14l-1-6 1-7c2-2 8 4 8 8l1 5 7-1c15-4 35-5 40-2 2 1 3 3 3 13 0 9-1 12-2 13-2 2-6 2-14 2-10 0-20 1-39 5l-10 1c-4-1-30 1-36 3l-4-1zm47-11a303 303 0 0 0 43-5h7v-7c0-4-1-7-2-7l-15 1-17 1-8 2c-3 1-4 2-6 0h-13l-20 1-11 1v4c-1 12-1 12 16 11l26-2zm122 6c-2-1-3-3-3-5l-1-3c-2-1-2-10 1-15 3-6 9-10 15-8h12l8-1 1-5c0-6 2-8 7-7 3 0 3 0 3 7l-1 6 9-1c5 0 12-1 15-3 11-3 14-1 13 9-1 5-1 6 3 11s6 10 3 11h-15c-18 0-39 2-47 3-15 3-20 3-23 1zm45-9 27-2c1-1 0-4-1-8l-3-7-10 1a1946 1946 0 0 1-44 2l-9 1v6c0 8 2 10 8 9l32-2zm115 3-28-1v-5l-2-15-1-10 5-2c4-2 13-2 29 0 3 0 4 0 4-3 1-8 9-8 10 0l1 3 15 1c13 0 15 0 18 3 3 2 3 4 3 11l1 12c1 2 0 4-1 5-1 2-4 2-54 1zm42-9c1-1 2-4 1-8v-6l-12-1h-51c-1 2-2 13-1 15 0 2 5 2 31 2 19 0 32-1 32-2zm-483-2-7-1-6-1c-1-1-3-2-7-1-6 1-8-1-6-7 0-5 3-5 17-4 8 1 11 2 16 5 8 6 8 10-1 10l-6-1zm26-34c-2-2-10-5-19-6-4 0-6-7-3-10 2-2 3-3 10-1l15 6 11 7c7 3 8 5 1 5l-9 1c-3 0-5 0-6-2zm519-17c-2-2-2-2 0-5l5-2c2 0 13-3 20-7 5-2 6-2 8 1 3 3 3 3 1 5a102 102 0 0 1-30 9c-2 1-3 1-4-1zm-499-3-14-9-11-6 2-4 3-4 10 7 15 11c5 3 6 7 2 8-3 1-4 1-7-3zm469-5c-6-5-2-8 14-13l24-6c17-5 22-6 22-2 0 2-1 3-4 4l-7 2c-4 0-26 7-37 12-8 4-9 4-12 3zm-435-12-9-10c-10-12-11-16-7-16 2 0 11 10 16 18l8 9 3 5c-2 3-6 1-11-6zm-36-5-9-8-2-3c0-2 5-6 7-5 3 1 15 18 15 20-1 4-4 3-11-4zm48-1c-8-9-20-28-19-31s5-3 6 1 9 18 15 26c4 5 5 7 4 8s-3 0-6-4zm410 2c-1-2 3-6 8-8a750 750 0 0 1 52-17c2 4 1 5-10 9a683 683 0 0 0-50 16zm-398-11-13-21-4-8c-1-1-1-2 1-4s2-2 6 4l5 9 8 14 6 11c-1 3-5 1-9-5zm386-10c-1-2 4-6 6-6l13-6c6-4 13-6 14-6l6-3c4-3 14-4 16-2 2 3-1 6-9 7l-8 3-4 2-17 7-16 6-1-2zm-373-9-12-20c-4-8-4-10-1-11 3-2 5 1 11 14 2 7 6 14 8 16s3 5 3 7c0 4-4 2-9-6zm20 2-5-12-5-13-2-5-2-4-3-5c0-3 1-4 3-4 4 0 4 1 10 18a124 124 0 0 0 12 27c0 3-6 1-8-2zm329-4c1-2 22-16 40-24l12-6c4-2 9-2 9 1 0 2-6 7-9 7a96 96 0 0 0-31 16c-3 3-7 5-10 6l-7 2c-4 0-4 0-4-2zm-311-1-1-4-3-11-4-10c0-2-1-7-4-11-4-10-4-11-2-13 4-3 8 2 10 15l4 13 2 5 2 8c2 4 2 5 0 6-1 3-3 3-4 2zm15-23-5-19c-3-9-2-11 2-11 4 1 4 1 5 11 2 16 4 25 6 27s1 5-2 5-3-1-6-13zm-287 7-2-11c0-7-2-8-6-5-3 2-4 2-9 0-5-1-6-1-8 1l-3 4c0 2-1 2-4 2s-4-1-4-3c0-4-4-4-5 0 0 3-3 3-11 2-4 0-5-1-7-9-3-10-3-23-1-32 3-7 5-8 7-2 0 3 2 5 3 5 9 0 9 0 9 3l-3 2-5 1c-4 0-4 0-4 4 0 8 3 20 5 20 3 0 10-6 10-8 0-4 8-12 11-12 5 0 10 5 11 11 1 5 1 5 7 6h5v-11l1-12 3-7c2-6 6-10 8-8l-2 7c-2 8-2 18 2 19 3 0 14-9 14-12 0-4 4-12 6-12 3 0 4 4 2 7-2 5-4 13-4 18s0 5 3 3a401 401 0 0 0 19-4c2-1 3-1 4 1 1 3-2 6-9 6l-7 1 2 7c2 3 2 7 2 9-1 4-8 11-11 11-4 0-8-12-9-25v-11l-5 2c-5 3-6 5-2 16 3 8 2 12-3 17-4 5-8 5-10-1zm11-8-1-10c-2-5-3-8-5-8s-2 0-2 7l2 11c1 2 4 2 6 0zm24-2c1-3-3-13-6-14-5-2-5 1 0 15 1 2 5 2 6-1zm-58-15c0-5 0-6-2-7-4-3-9 3-6 10 1 5 6 3 8-3zm600 27c-1-2 2-6 8-10a960 960 0 0 0 31-21c7-4 15-5 16-2s-3 6-7 6c-6 0-32 16-41 25-5 5-6 5-7 2zm-268-4c-3-4-6-21-7-28 0-6 1-8 2-8 2 0 3 2 3 6 2 11 4 21 6 25l1 6c-1 2-4 2-5-1zm246-2a174 174 0 0 1 43-38c5-2 5-2 7 0s2 3 1 3c-8 3-29 19-38 28-8 8-13 11-13 7zm-230-1-2-15 1-16c3-2 4 0 4 9l2 15 2 7c-1 2-6 2-7 0zm177-3c0-1 1-4 4-6l7-9 5-5 7-5c8-7 19-13 21-11s0 4-5 7l-9 6-9 4c-3 0-3 1-4 4 0 4-13 18-15 18-1 0-2-1-2-3zm-648-1 1-4v-1h-10l-3-3-3-1c-3 0-3 0-1 2v1c-2-1-9 2-10 5-2 7-8-4-8-15 0-7 0-8-2-8-4 0-9 7-8 11 1 3 0 5-2 8-5 5-6 5-11 1-3-3-3-4-2-9l3-7v-1l-3-6c0-3-1-6-3-7v-3l2-5c0-3 2-6 5-6s5 5 6 15l2 10c1 0 4-2 6-5s6-5 8-5c3 0 6 4 5 8v7c1 3 2 4 5 3 4 0 5-1 6-5 2-5 4-7 7-6 2 1 2 2 1 6s0 5 2 6c4 1 11-3 14-8 2-2 4-4 6-4 3-1 4 0 7 5s3 6 2 10c-2 3-2 6-2 8s-2 4-3 4c-3 2-11 2-13 0h-3c-1 2-1 2-1-1zm16-13c0-5-4-7-6-3v5c3 3 6 2 6-2zm39 13c-4-1-4-2-5-7-1-4-1-5 2-6 1 0 3 0 5 2 3 2 5 2 8-1 4-4 3-8-3-11-4-1-7-2-8-1-3 1-5-7-4-11 1-5 9-14 13-14 2 0 3 3 1 7 0 2-1 2-3 1-2-2-4 0-4 5 0 3 1 5 4 6l6 2c3 0 7 6 7 10 0 5-2 8-8 14s-7 6-11 4zm440-2c-2-6-1-23 1-25 4-3 6 0 6 6l-1 13c-1 7-1 9-3 9l-3-3zm179 2c0-2 2-3 3-5l14-12c11-10 28-22 30-21 4 2 1 5-19 16l-14 13c-11 10-14 12-14 9zm-148-2c-3-5 4-30 8-30 3 0 3 2 1 9l-3 14c-1 5-2 7-3 7h-3zm20-2 7-22 3-3c3 0 4 4 2 6s-3 7-3 11c-1 8-2 9-5 9l-4-1zm28-2 3-10 4-11c1-4 5-6 7-4 1 1 0 4-2 8s-5 10-5 13c-2 6-7 9-7 4zm26 0c-2-1-1-3 2-8 4-8 12-15 15-15 4 0 3 1-2 7l-8 11c-3 7-5 8-7 5zm-411-32 1-5a646 646 0 0 1 115-104c3-3 12-8 20-12a114 114 0 0 0 19-13l11-6c12-8 20-13 22-13 1 0 3 0 4-2l7-3 8-4 4-3a693 693 0 0 0 101-53c2 0 11-6 18-11l12-7 5-2a185 185 0 0 1 26-16c3-3 3-3 5-1 3 2 2 3 0 5l-7 4a31973 31973 0 0 1-93 56c-4 4-18 10-23 10-3 0-4 1-5 2 0 2-4 4-8 6a275 275 0 0 0-46 24 182 182 0 0 0-32 18l-3 3-10 6-9 6-8 4-12 7-15 12c-7 4-15 11-19 15l-17 13a559 559 0 0 0-69 66l-2-2zm-196-3-1-4c0-4 3-8 5-6 3 1 4 7 3 9-2 2-6 3-7 1zm637-4v-11c1-1 0-4-1-8l-3-5 3-3 6-3c4 0 18 9 21 13 2 3 1 4-2 7-4 3-8 4-10 2-2-3-7 0-8 4s-4 6-6 4zm-95-8c-3-2-6-3-10-3-4-1-6-1-8-4-2-4-2-4 3-9 9-9 24-14 29-9 2 2 2 8-2 11-4 4-4 7-2 11v5c-2 3-4 2-10-2zm56-1-2-5c0-7-2-8-7-6-3 1-4 1-7-1-6-4-7-7-4-9 4-5 28-7 35-3 6 4 4 12-4 12-4 0-4 0-5 6 0 6-4 9-6 6zm-712-9a373 373 0 0 1-4-43c-1-10 3-18 8-14 2 1 3 4 3 30s0 29-3 30c-3 2-3 2-4-3zm43 0c-3-3-4-4-4-15 0-10 1-11 4-15 4-5 7-5 10-2 5 5 5 13-1 18-5 5-4 8 3 8 9 0 6 6-5 9-3 0-5 0-7-3zm5-16c2-1 3-6 1-7-3-2-5 0-5 4 1 4 1 4 4 3zm196 15-3-5c0-2-5-2-8 1-3 2-4 2-6 1l-5-2-2-6c-1-3 0-5 3-8 3-2 5-4 6-3 3 1 3 5 0 5s-4 2-4 6c0 3 5 3 9 1 5-2 5-4 5-13 0-7 3-17 5-20 3-2 7 0 7 4l-3 12c-2 7-3 10-2 13 2 5 5 9 8 9l5 2c2 1 2 2 0 4-1 1-3 2-5 1l-5 1c-1 2-2 1-5-3zm781 1c-1-3-2-6-1-16l1-19c1-6 1-6-3-6-3 1-3 1-4 9-1 11-5 15-12 15-4-1-5-1-7-6-2-4-2-5-1-9l3-7c1-4 8-10 13-11l6-3c2-1 2-1 3 1 1 3 4 1 4-3 0-3 2-5 5-8 8-6 11-1 5 11-4 8-4 11 1 17 6 7 7 11 5 17l-4 11c-2 9-10 13-14 7zm10-23c0-3 0-5-1-4l-2 6c0 4 0 5 2 4l1-6zm-23-8c1-7-3-9-5-4-1 5-1 7 1 9s4 1 4-5zM38 558l-2-3-1-3c-2-1-8-10-10-15s-2-5 2-15c7-13 11-17 12-12 1 1-1 5-4 8l-4 8 7 9c4 4 8 10 9 13 2 5 2 6 0 8-2 3-6 3-9 2zm46-2-1-7-2-11v-9c0-2 1-2 3 0 2 1 3 5 3 10l2 11c1 3 1 4-1 7-3 2-3 2-4-1zm12-1c-2-2-2-4-2-8 1-5 1-5-2-6s-4-3-1-4c7-2 9 0 9 9l3 6 2 4c0 4-6 3-9-1zm18-3c-4-6-5-19-4-34 1-8 2-9 4-9s3 1 3 6c1 7 1 6 13 3 9-2 12-2 13 0 1 3-4 6-12 6-12 0-12 0-12 11 0 10 1 13 8 13l5 3c0 3-3 5-9 6-5 1-5 0-9-5zm55 2-4-6c-1-4-1-5 1-9l7-8c4-4 5-4 8-2 3 1 5 3 6 7 2 11 3 12 7 12 3 0 7-5 9-10s5-5 8 0l4 5 5-4c3-3 5-3 6-2 5 3 6 17 2 16-1 0-3-2-4-5-2-6-4-6-7 1s-7 8-9 2c-1-6-2-6-8-1-4 4-5 4-12 4l-12 1c-4 1-6 1-7-1zm12-13c0-6 0-8-2-8-4 0-6 2-7 7 0 4 0 6 2 8 5 5 7 2 7-7zm363 2c-2-1-1-8 1-9l5 1h5l1-12 1-12-7-1c-6-1-7-1-7-5s0-5 3-7c6-4 11-10 11-13 0-2-1-4-4-5s-4-2-4-9c0-8 2-10 10-9 10 2 15 10 9 14-3 3-5 8-3 11h6c8-1 11-7 10-19s0-22 3-22c1 0 2 3 4 13l1 16v9l2 16v22c1 7 1 7-3 10l-6 3c-3 0-9-7-11-14-3-7-7-10-7-5l-3 26c-1 2-16 3-17 1zm40-29-1-17c-2-5-2-5-7-5-10 0-14 3-8 7 3 2 4 4 4 9 1 7 7 17 10 17 1 0 2-2 2-11zm-26-9c3-2 3-6-1-6s-5 1-4 4c2 3 2 3 5 2zm578 35-2-6c-1-6-4-6-3 1 0 4 0 5-2 5-4 0-6-5-5-11l1-11c-1-7 1-11 4-8 2 0 3 2 3 3l3 3c4 1 7 6 6 8-1 1 0 4 1 7 3 5 3 5-1 8-3 3-5 3-5 1zm12 0v-27c0-20 0-26 2-29l3-3c2 0 12 9 11 10l-1 3-2 2-2 2c0 1 1 2 4 2l6 1h3l1 4c0 5-1 5-12 6h-6v8c-1 10 1 14 6 12 3 0 7 2 7 4l-3 4c-3 3-15 4-17 1zm-252-1c-2-1-2-45 0-49 4-5 8 0 7 8a377 377 0 0 0-1 39c-1 2-3 3-6 2zm210-2c-4-4-5-20-3-27 3-5 8-7 11-5 3 3 2 6-1 7-4 2-5 5-2 6 2 1 2 2 2 6-1 3-1 4 1 4l4 2c2 2 2 2-1 6-3 5-7 5-11 1zm-166-2c-2-2-3-4-2-7l2-10c0-8 4-13 9-12 5 0 5 4 0 5l-4 3c-1 2-1 3 1 5 3 2 3 2 2 5-2 4-2 5 1 5s8-3 10-7c3-8 8-13 11-13 2 0 3 1 3 4 1 5 2 5 6 1 5-6 11-3 9 5 0 3 1 5 4 8 4 4 4 5 3 7-3 3-9 3-12-1-4-5-6-4-9 1-1 3-3 4-5 3-3 0-3-1-3-6-1-11-1-11-5-4-4 9-6 11-13 11-4 1-5 1-8-3zm151 1-5-7-3-5-5 4c-3 3-4 3-6 2-2-2-2-4 1-14l3-18c1-11 4-16 9-15 2 1 2 2 2 7 0 3-2 7-3 8l-1 8v4l4-6 6-6c3-1 4 3 1 6-3 4-4 10-1 14 6 9 7 15 3 18-2 2-2 2-5 0zm-291-2v-6c0-3 0-4-3-4l-2-2c1-1 0-2-1-1-2 1-2-1-2-9 0-9 0-9 4-13 5-5 5-5 13-2l7 3c6 2 17 8 18 10v4c-1 2-1 3 1 5 3 3 2 12-3 13-2 2-5 1-13-2-9-3-10-3-11-1-2 7-6 9-8 5zm-177-4c-4-4-5-5-9-3-6 2-7 1-9-3l-3-6c-1-1-1-3 3-6 3-4 8-6 17-9l14-4 3 7 2 7-5 4c-5 5-5 5-5 10 2 8-2 9-8 3zm288 3c-2-2-2-4 0-9 1-9 0-14-4-15s-4-2-1-6 8-3 10 2c2 3 2 3 7 2 4 0 5 0 6 2v9c-1 5-1 7 1 10l2 3c-1 1-5 2-8 1-3-2-4-6-2-11 2-6 2-8 0-8s-5 8-7 15c-1 6-2 8-4 5zm-164-10-1-7v-5h-9c-7 0-8 0-9-3-2-4 1-19 4-22a23424 23424 0 0 0 29 0c14 2 17 4 18 11 1 5-2 17-4 17h-9c-8-2-11-1-12 5-2 5-6 7-7 4zm-70-8c-2-4-3-4-10-4l-10-1c-2-2-4-16-3-20 1-1 2-2 8-2s10-1 21-6c5-3 7-3 16 0 4 2 6 3 7 5 1 6-6 16-15 18-5 1-7 3-6 6s-1 8-3 8l-5-4zm-363-3c-2-3-1-4 17-22 20-19 33-30 36-30l5-4 7-6 9-6 11-8c8-4 10-5 17-12 3-4 8-7 9-7 2 0 3-1 5-4 1-4 5-6 8-4 1 1 3 0 7-2l8-3c3 0 3-4 0-8l-4-7-1-4c-2-2-14-26-13-28s14-9 17-9l9-5 14-7 17-10 11-8 5 2c4 1 6 3 7 5 5 13 10 22 13 22 2 1 3 2 3 4 0 4 2 10 4 10l7-2c3-2 9-4 13-4l10-3a415 415 0 0 1 51-23c9-3 25-11 30-15l6-3 8-4 9-6 8-7 9-10c6-5 5-8-1-8l-7-2a568 568 0 0 1-50 0 25774 25774 0 0 1-187-6 695 695 0 0 0-124-9l-2-4c-3-5 1-6 13-5 13 1 17 0 20-6 2-6 2-9 0-16-2-5-2-5-9-5l-7 1c0 2-9 1-13-1-5-3-6-9-1-11 3-2 32-1 44 2l23 1 17 1c2 2 3 2 3 0 1-2 5-2 6 0 1 3 26 4 66 5a1895 1895 0 0 1 135 4c8 1 11 0 11-1l3-8 3-8-6-3c-6-3-8-4-9-8-1-3 0-4 2-5 3-2 7-1 11 3 5 5 8 5 10 0 1-2 2-3 5-3 4 1 4 1 1 10-2 6-3 8-6 9s-10 14-9 15h34c5-1 13 2 16 7 3 4 3 6-1 6-2 0-2 1-2 8l-1 12c-1 4 0 9 3 9l1-4c-1-3 0-5 2-7l6-11c4-7 4-8 1-9l-4-3v-3c2-2 4-2 12-3h10v-7c0-5 1-8 3-11s3-7 3-10c-1-7 2-22 5-28l1-8 1-16 3-26A1024 1024 0 0 1 736 3c2-3 8-4 9-1 0 1 0 3-2 5l-3 13-8 55c-2 11-4 29-4 41a322 322 0 0 1-9 74l-2 11c-6 20-8 28-6 29l29 1h27l1-4a476 476 0 0 0 12-130l1-10c1 0 2-10 2-22l1-22V33l-1-15c0-7 0-7 8-13l9-5-2 7-3 32a716 716 0 0 1-6 90 314 314 0 0 1-6 47l-4 25c-3 11-4 20-3 21s5-2 10-6a2227 2227 0 0 1 34-25c3 0 16-10 17-12 0-1-1-2-5-1l-7 2h-4c-3-3 5-7 19-9l9-2c2-1 4 0 5 2l3 2-7 15-9 16c-1 0-2 0-3-2-2-1-2-2 0-5l5-7c2-2 2-4 1-5-2-2-2-1-16 8-37 24-52 35-51 37l10 2 16 3a1833 1833 0 0 0 230 3l31-2 1-5 2-3c2-1 2-1 2 3-1 4-1 5 2 6 1 0 4 0 7-2s5-3 6-2l15 1 17 1c9 3 7 17-1 15l-6-3-2-1c1 1 0 2-1 2l-2-1c1-3 0-3-2-1-3 3-6 3-12 0l-4-1v6c1 4 2 8 1 10-1 4 0 4 3 3l6-2c2-2 10 0 12 4 1 3 1 4-2 6l-7 4c-3 4 3 3-110 5a4661 4661 0 0 1-221 2l-8 10-7 7-6 6-14 11c-5 4-9 6-11 6-2-1-3 0-6 10l-3 14-3 9-3 11-3 9-3 8c0 2 5 2 10-2l11-5c5-2 6-2 9 1l3 2-3 3-5 2c-3 0-23 10-26 13l-6 8c-4 6-5 7-7 5l-1-13c1-12 0-17-6-34-3-9-3-15 1-12l2 5 4 10c3 4 5 9 5 12l1 3a1549 1549 0 0 1 30-94c3 0 3 0-1 14-3 12-3 14 1 14l10-7 9-8c3 0 21-18 20-20l-24-1-30-1-8-2-6 7-12 14c-3 4-8 9-11 10a283 283 0 0 1-75 37c-4 1-7 3-7 5-1 2-1 2-2 1-1-2-9 0-15 3a186 186 0 0 1-23 10l-7 3-5 4c-3 4-3 4-7 2-3-1-7 1-27 11a2261 2261 0 0 1-56 30l-11 7-13 8c-6 5-15 11-22 14l-9 7-24 18c-9 6-23 18-38 33-14 13-14 14-16 11zm159-119 1-7 2-19c2-18 2-21-1-22s-6 3-6 9c1 9-1 33-2 37 0 3 0 4 2 4l4-2zm-9-13c2-15 2-23 1-27s-4-5-4-2l-1 3c-1 0-2 4-2 11l-1 15c-1 3 2 11 5 10 1 0 2-4 2-10zm232 9-1-1-1 1 1 2 1-2zm-210-2 2-11 1-17c3-17 1-26-5-19-2 2-3 6-4 24l-1 23c1 2 6 1 7 0zm12-7c3-4 5-46 3-49h-3c-3 1-3 3-4 15a339 339 0 0 1-2 33c0 3 4 3 6 1zm14-5-1-6c-2-5-1-13 1-13l2 7c1 6 1 6 4 6 4 0 4 0 3-9 0-8-1-10-6-18l-7-9-1 7a494 494 0 0 1-1 34c1 2 6 3 6 1zm-58-2 1-6c0-6-2-8-5-8-5 0-5 2-2 10 3 6 4 7 6 4zm75-9c0-2-2-3-4 0-2 4-1 4 2 3l2-3zm-3-8c0-1-1-1-1 1l1 1v-2zm300-79c1-2 3-2 10-2 9 0 9 0 8-3v-16c1-10-1-12-10-12l-7 1v13c0 11 0 14-2 16-3 3-3 5-1 5l2-2zm-17-1 10-2 1-15 1-14-4-2c-8-3-21-2-23 1l-2 17c-2 15-1 17 5 16l12-1zm-105-2h-3c-1 0-1 1 1 1l2-1zm169-1c2 0 2-4 3-13l-1-13-12-2h-10l-1 13v15c0 2 18 2 21 0zm-128-5 3-6 3-5c4-3 13-16 13-17l-4-2c-6-1-12 2-15 7l-7 10c-5 6-9 14-8 16 0 2 2 2 6 2 5 0 6 0 9-5zm12 3 7-10c12-17 14-24 8-24-3 0-6 4-16 18-9 14-10 18-4 18 3 0 4 0 5-2zm17-3c5-6 6-7 5-1s2 8 5 4 3-8 0-9-3-1 0-6l4-9c3-4 3-7 2-9-3-4-9 1-12 8l-9 14c-7 8-8 12-3 12 4 1 5 1 8-4zm137 4-1-17c-1-9-1-9-6-10h-12l-8 1v13l1 14h13l13-1zm30-1 2-8 1-13v-6h-13l-13 1v8l1 14v6h10l12-2zm-247-3 4-5 8-13c7-10 7-13 2-13-3 0-4 2-8 7l-9 14c-5 8-6 16-2 13 1-2 3-3 5-3zm31 0 8-10c6-7 11-16 10-18-1-1-6-2-9 0-3 1-23 26-23 28s5 4 9 4c3 0 4-1 5-4zm257 3c3-1 3-3 1-13-3-13-3-13-14-13l-11-1c-5-2-6 0-6 9 0 11 1 18 4 18h26zm73-2c1-2 0-13-2-19l-1-4h-13c-9-1-13 0-13 1v13l1 10 9 1c11 1 18 0 19-2zm-344-7c10-12 16-21 14-22-3-3-9 0-15 9l-7 12-2 5c-2 1-2 2-1 3 3 3 5 2 11-7zm302 8c2-2 4-21 2-24-2-2-21-2-25 0l-4 2 4 4c3 3 5 11 5 15l-1 3h19zm64-1 1-7c-1-3 0-7 1-11l1-6h-8l-8 1v24c1 2 10 1 13-1zm-466-3c0-2-2-4-3-5-3-2-3-2-1-6 3-6 6-15 6-19s-1-5-12-4l-9 2c-2 2-5 28-4 32 1 2 3 2 12 2 10 0 11 0 11-2zm28 1c2-2 4-19 4-27v-5l-11-1c-10-1-11 0-11 2l-2 20-1 12h10l11-1zm28-14c1-17 1-18-9-18h-7l-1 10-2 14c-2 7 0 9 10 9l8-1zm-86-2c3-21 3-20-12-20l-14 1c-2 1-2 5-2 17v16l5 1h21l2-15zm102 15 3-6c5-5 13-22 11-23-1-1-2 1-3 4l-3 5c-4 2-12 21-10 21l2-1zm-137-16 1-18c1-3 1-3-13-3-8 0-14 1-15 2l-1 16v16h7a1276 1276 0 0 0 18 2c2 0 2-2 3-15zm-36 11c1-1 3-29 2-31l-10-2c-13-1-13-1-15 13-2 20-2 20 4 21 5 1 18 0 19-1zm-32-1c2-2 5-23 4-29 0-3 0-4-7-3l-9 1-4 23c-1 8-1 8 2 8 7 2 13 1 14 0zm-23-10a7674 7674 0 0 0 3-22l-10-2c-11-1-12 0-12 17v14l4 1 8 1h5zm-26 0c2-6 1-22-2-24l-8-1c-6 0-7 1-8 4-2 4-2 21 0 24 1 2 3 3 9 3h8zm-28 0v-14l1-10-5-1c-7-1-10 1-10 6l-2 12v9c1 1 10 3 13 2 2 0 3-1 3-4zm-24-3 1-11c1-6 0-8-2-9-3-2-14-2-16 0-3 2-3 8-3 19v6h10c10-1 10-1 10-5zM229 509c-1-2-1-3 1-5 2-1 3-4 4-7 0-9-1-17-2-17s-4 6-4 10-4 6-5 2c0-2 1-6 4-11s5-10 4-11c-1-2-1-2-7 1-5 2-5 2-12 1l-9-4h-5c-5 2-9 2-9 0l-2-8c0-5 0-7 2-7 2-1 4 1 4 6 0 4 4 5 7 2 2-3 4-3 8 1l3 4 2-4 2-7c0-3 6-6 9-4 1 1 1 2-3 5-3 3-4 4-3 7 0 5 3 6 9 4 3-2 4-3 4-7l1-6c3-3 7 2 6 8 0 4 1 5 6 3 3-1 2 5-1 6-4 2-5 7-3 12 3 9-2 28-7 28l-4-2zm73-19c-3-4-3-11-1-30l2-18-6 2c-4 2-5 4-4 5l2 7c1 5 1 6-3 9-3 3-8 6-11 6s-8-8-8-12c0-6 7-14 10-13 2 1 2 1 0 5-3 4-3 5-2 8l5 5c6 1 8-7 4-15l-2-5 8-4c7-3 9-4 10-8 2-5 5-7 8-6s3 4-2 11l-4 8c0 1 2 4 5 6 8 8 9 12 5 30-3 9-11 14-16 9zm12-18c1-6 0-8-2-11-3-4-3-4-4-1-2 3-2 18 0 21 1 3 2 3 4 1l2-10zm599 11c-2-2-1-5 3-10 3-3 4-6 4-9 0-5-5-15-7-14l-3 7c0 7-3 16-5 19-3 4-11 0-14-7-1-4 3-7 5-5l5 1c2 0 3 0 3-3l1-9 1-6-8-5c-9-6-11-10-5-15 14-11 16-14 12-18-5-4 0-13 7-13s10 8 5 15c-1 3-2 5-1 7s9 5 13 5c3 0 16-14 18-18 5-13 10-20 15-20 4 0 5 4 2 9-7 14-12 24-12 27s-9 21-13 26c-5 6-10 15-10 19 0 3 2 4 10 5 4 1 5 6 2 9-2 1-4 1-7-1-6-2-11-1-15 3-2 2-5 3-6 1zm20-42 2-10-9-2c-9-1-9-1-9 2 0 4 5 18 7 21 2 2 4 0 9-11zm-24-7c1-6-1-8-5-7-4 2-5 6-2 9 4 4 7 3 7-2zM14 478c-1-2-2-4-1-6s0-3-2-3c-5 1-6 0-8-4-2-3-3-7-3-11 0-5 1-6 4-9l5-4c1 0 2-2 1-7 0-6 0-7 4-7 7-1 8 1 7 18-1 18-1 20 9 14 8-6 10-10 11-20 1-6 1-8 4-8s6 4 5 9c-1 4 2 20 4 21l5-1c5-2 7-1 9 5 1 4 3 6 4 6 7 2 7 2 6-7-1-7-1-8 2-10 7-6 13-2 12 9 0 5 1 6 3 6 3 0 4 3 2 6-3 3-12 3-14 1h-4c-4 2-11 2-13 0l-2-4-2-5c-2-2-2-2-3 0-6 10-10 10-12-1-3-13-3-13-13-4-6 6-9 10-9 12 0 7-7 10-11 4zm74-15c1-4 0-6-3-6-2 0-2 1-2 4 0 5 4 7 5 2zm-75-8c0-4-4-5-4-2s1 4 3 4l1-2zm825 24v-5c1-6-2-9-10-8-6 1-7 1-7-2-2-5 4-20 8-20l20 4 7 1c7 0 14 3 18 7 2 2 2 4 1 9-1 11-8 14-21 8l-5-2-3 4c-2 5-6 7-8 4zm-707-8-2-19c0-18 2-23 6-21 2 1 2 2 1 13-1 17-1 18 2 18 1 1 2 0 3-1l2-6a1342 1342 0 0 0 8-18c4-2 4 2 1 8s-4 11-1 11c2 0 13 12 12 14s-11 0-14-2l-4-3-4 4c-6 5-8 5-10 2zm37-2-2-9c-1-4 0-6 1-8 2-1 2-1 4 2l1 8c0 4 2 5 5 1 4-3 5 1 1 5-4 5-8 5-10 1zm592 0-1-8c1-5 0-5-3-6l-8-1c-7 0-10-6-6-16 3-6 6-7 29-5s24 3 24 14c0 10-1 11-14 10h-13l-1 5c0 8-4 11-7 7zm-135-3-1-7c0-4-4-5-10-2l-6 3c-3 0-6-17-4-23 1-3 2-3 10-4l15-2c10-3 16-3 18-2l2 10c1 7 1 9-1 12s-3 3-7 3c-5-1-7 0-8 8 0 4-1 6-3 6l-5-2zm63-4-1-5-3-9c0 2-9 0-12-2-3-3-2-11 1-14s37-5 41-2c2 3 3 15 1 20-2 2-6 3-8 1l-5-2c-5 0-6 2-6 8 0 4-2 7-5 7l-3-1zm-496-21c-2-2-1-5 1-5s3 1 3 2c-1 3-3 4-4 3zM92 412l-2-8c0-5 0-6 3-6 1-1 3 0 4 1 4 7 6-6 2-24-1-10-2-11-8-16l-7-6 2-7c3-8 6-10 11-7 3 1 3 2 3 7v6c1 0 4 4 7 11l1 18c0 21-5 34-12 34-2 0-3-1-4-3zm98-5c-6-2-8-6-7-12 2-7-2-7-8-1-4 4-4 5-3 7 2 2 1 3 0 5-3 4-7 3-9-2-2-6-1-14 2-13s2-1-1-3c-2-1-3-1-5 3l-4 5c-2 1-4 3-4 5-2 4-5 5-8 3-1-1-2-3-1-7 1-7-1-15-4-14s-4 5-5 13c0 6-1 9-3 9s-3-3-3-9c0-7-3-13-7-17-3-4-4-8-1-9 3-2 11 0 13 2l4 1 8 4c4 3 5 5 6 9 0 3 1 4 3 5 2 0 3-1 5-6 1-5 2-6 7-6 4 0 5 1 6 4 0 2 1 3 1 1l6-3c5-2 5-2 9 2 3 3 4 5 4 10s0 6 4 8c7 4 3 10-5 6zm81-6-4-4-5 2c-2 2-5 3-7 2-4-1-8-9-8-15 0-11 8-11 9-1 1 7 5 12 7 8l1-5c0-2 1-5 3-7s2-3 4-1l2 6 3 8c2 3 3 3 5 2s3-3 3-7l-2-7c-2-3 1-4 9-4 9 0 12 2 12 10l2 7c2 2 1 6-1 6-4 0-7-3-7-8 0-3 0-5-2-5-4-2-5-1-6 4-1 4-3 7-6 9-2 3-5 4-6 4l-6-4zm-60 1 1-4h3c2 1 2 3 2 4-1 3-5 3-6 0zm102-4c-3-4-3-6 2-9 4-2 5-3 4-7-1-9-1-20 1-23 2-4 6 0 6 6 0 5 0 5 4 6 7 0 10-2 10-8 0-5 0-6 3-5 2 0 3 1 4 5 0 4 1 4 5 5 7 0 6 3 0 5-4 1-5 2-6 7-1 9-1 10 2 7 4-4 9-4 11 1l4 5c2 2 2 2 1 4-2 3-8 2-10-1-3-3-7-3-8-1l-3 1c-1 0-2-2-2-6l-1-6c-1-1-3 1-5 4-6 7-14 13-18 13l-4-3zm21-15c5-8 3-10-5-7-3 1-4 2-4 6 0 10 4 11 9 1zm-123 5 1-6c2-2 3-2 5 1 4 4 3 8-1 9-3 0-4 0-5-4zm96-24 1-3h3c1 2 0 4-2 4l-2-1zm430-144c-2-2-2-14 0-27 2-7 2-9 0-11-1-1-1-2 1-3 2-2 3-15 4-33l1-14c1-2 0-3-1-5-2-1-2-2 0-4v-4c-3-1-2-4 0-8 2-3 2-3 0-4-4-1-4-6-1-12 5-7 7-15 8-33l3-18 2-1c2 0 7 8 5 10l-2 13-2 14-1 12a1044 1044 0 0 1-11 120c-1 10-3 13-6 8zm162-3c-5-1-8-8-8-18 0-6 0-8 3-10 5-5 7-3 5 3-4 9 3 19 11 17 3-1 6-7 6-15 0-9 5-11 12-5l4 3 6-6c5-5 7-6 10-6 5 0 11-3 17-10 3-4 4-4 9-1 8 5 10 17 3 23l-5 4c-4 0-7-3-8-8v-4l4 1c6 1 8-1 5-6-3-4-5-4-12 1-5 4-5 5-4 9 0 3 0 5-4 9-4 5-5 5-7 4s-3-3-3-5c-1-3-2-3-6-2l-1 4c0 4-3 9-5 7l-2-4c0-4-5-11-7-9l-2 6c0 9-2 13-10 17l-6 3-5-2zm52-23c3-3 1-6-3-6-3 0-4 4-1 7 2 1 2 2 4-1zm22-22c-3-2-4-3-5-2s-1 2 2 4c5 4 7 3 3-2zm-396 40c-3-3-3-10 0-16 2-6 3-6 10-6 6 1 7 5 1 5-8 0-10 9-3 11 4 1 7-2 7-6-1-3 0-4 1-4l2-1c0-3 4-1 6 3l5 7c4 3 4 3 2 5s-3 2-7 1c-4-2-5-2-10 1-7 3-10 4-14 0zm-26-2-7-2c-6-1-9-5-7-14 2-8 3-11 6-9 2 0 2 2 2 8-1 6 0 10 2 7 1-1 3 0 6 1 9 4 15-1 9-8-3-3-2-5 3-5 3 0 7 5 7 9s-9 13-14 14c-2 1-5 0-7-1zm-54-4-2-5c0-1-5-1-7 1l-8 2-11 1c-5 1-7-1-8-8-1-8 1-16 5-18 6-3 13 5 14 14 1 7 11 4 11-3l2-4c3 0 5 1 7 7l3 7c5 6-1 11-6 6zm-25-11v-7c-2-3-3-3-6 0-2 2-2 1-1 7 2 5 5 5 7 0zm-46 8c-3-3-2-4 0-9 1-2 2-4 1-5l-1-16c0-10-1-16-2-19-3-5-1-7 4-7 3 0 4 1 5 2 0 2 2 3 3 3 2 0 2 0 0-1s-2-2 1-2c6 0 9 7 10 19 1 16 3 27 7 30 3 3 2 6-3 6-6 0-8-4-8-12 0-5-1-7-4-9-3-3-4-3-1-5 2-3 3-8 1-13-2-4-2-4-4-2l-1 16c0 20-3 29-8 24zm90-2c-4-6-3-35 2-39 4-3 6-2 8 1 3 6 4 14 1 20-4 7-4 10 0 12 5 2 5 5 0 5l-6 2c-2 1-4 0-5-1zm8-26c0-2-2-3-3-1-1 1 0 2 1 2l2-1zm551 26-3-5-1-3-3-2c-1-3-1-3 6-14s6-18-4-16c-4 1-5 0-7-2-6-4-2-16 5-19 5-3 5-2 10 0 4 3 5 4 5 8 0 6 2 12 5 12l11-10c0-2 8-9 11-9 2-1 3 0 5 2 2 4-2 9-18 20-7 5-8 6-7 9 2 7 3 19 2 22-2 3-10 9-12 9l-5-2zm9-14c1-7-4-13-6-7l-5 14 5-1c4-1 5-3 6-6zm-12-34c-1-4-4-4-4-1 0 2 1 3 2 3l2-2zm0-8h-3 3zm-77 38c-3-4-1-7 3-6 5 1 9-1 9-3 0-3-7-10-9-10-3 0-9 4-9 7s-3 6-5 4 1-8 7-15c5-5 5-6 9-4 4 1 13 13 13 17s-8 12-12 12l-6-2zm-494-9c0-2 6-6 7-5l-1 3c-1 2-6 4-6 2zm381-1c-1 0-3-3-3-6-2-6 0-11 5-12 4-1 4-4-1-12-3-5-3-7-3-14 1-8 4-13 7-11l1 5c0 6 6 26 9 27 2 1 2 1 5-9s9-12 13-4c2 4 2 5-2 10-4 7-5 8-1 8 3 0 3 1 1 4-2 1-3 1-7-1-6-4-10-2-10 3s-6 14-9 14l-5-2zm7-10-2-2-3 2c0 2 1 2 3 2s2 0 2-2zm22-18 1-4c-2-3-5-1-5 3 0 3 1 4 4 1zm110 29c-2-2-5-10-6-17-1-6 0-6 2-6s3 3 5 11c0 2 2 3 2 3l5 3c2 2 2 3 0 5-3 2-7 2-8 1zm14-7-2-6-2-4c-2-2-2-7 1-8 2-1 5 2 7 6 1 1 2 1 3-1s3-3 5-3c3 0 12 5 12 7 0 3-4 5-8 5s-5 1-7 4c-3 5-6 5-9 0zm-110-16c-4-5-6-18-2-20 2-2 4 0 4 4 0 5 2 11 5 12 1 0 2-1 1-8-1-8-1-9 2-13 4-4 19-10 22-8s2 4-3 9-6 7-2 8c2 1 3 2 2 4-1 4 2 4 7 1 6-3 6-3 6 0s-4 6-10 9c-5 2-5 2-8-1l-2-5c0-2-4-5-7-6l-1 5c0 12-8 16-14 9zm17-18-1-1-2 1 2 2 1-2zm183 16c-2-3-1-7 1-7 2-1 6 3 6 6-1 3-6 4-7 1zm-146-11c-4-2-10-18-8-22v-12c-1-8 0-9 3-13 3-6 8-7 12-3 3 2 3 3 2 11s-1 9-7 11c-2 1-3 6-1 6l1 4c-2 6 7 12 14 8h4c4 3-7 12-14 12l-6-2zm49-4 1-3v-3c-2-6 5-9 8-4 2 3 1 3-2 7-4 4-7 5-7 3z"/>
</svg>
