<?xml version="1.0" encoding="utf-8"?>
<svg xmlns="http://www.w3.org/2000/svg" version="1.1" viewBox="0 0 570 779">
	<title>Sketch of a walled garden, with a small tree on the left, a two story building with a steep roof to the right, and three puffy clouds over hills beyond the wall in the distance. The words “Time grows young in a garden” in small capital letters surround the drawing, and both the sketch and words are framed in a decorated border.</title>
	<path d="m65 779 1-1v1h-1zm4-1 1-2 1-2-2-1-5-2-2-1-2-1-1 2v3h-2l-4-2-5-2h-4l-4-1-5-2-5-2h-3l-2-1-2 1-2 1-4-1-1-4v-3l1 1h2v-2l-2-1h-1c-1 2-2 1-3 0l-1-1-1-1 3-2 4 1 2 1 1-1v-31a528 528 0 0 1 0-41 2198 2198 0 0 1 0-123v-6l-1-6v-8l1-2v-7a1001 1001 0 0 0-1-118 4075 4075 0 0 0 1-118v-1l-1-11a612 612 0 0 1 0-65 12058 12058 0 0 1 2-189l-2-16V7l11-1 5-1h5a1216 1216 0 0 0 123 0 1269 1269 0 0 1 112 1 2312 2312 0 0 0 135 0h11a352 352 0 0 1 48-2 12705 12705 0 0 0 81-2l5-1 3-1h3l3 2-1 1v2l2 3v4l1 2-1 2-1 7 1 8v2a569 569 0 0 0-1 85 2827 2827 0 0 1-1 136 3210 3210 0 0 0 2 104 32516 32516 0 0 0 3 392v7h-13l-88 1h-61a10918 10918 0 0 0-320 0 2487 2487 0 0 1-62 1h-1c0 2 3 4 5 4l10-2 3-1v5l-1 2c1 1 4-1 6-2l2-2 2 1 3 1 2 1c0 2 0 2 7 2 7-1 7-1 9 1l2 3 1 3c1 1 1 1-2 2l-3 2-1-1zm-50-16-2-1 1 2 1-1zm223-16a1401 1401 0 0 0 119-1h5a367 367 0 0 1 32 0 398 398 0 0 1 40-1l14-1a1331 1331 0 0 1 100-1v-7a3143 3143 0 0 0 0-176 2499 2499 0 0 1-2-68 165 165 0 0 1 0-29v-13l1-15v-22a654 654 0 0 1-1-71 205 205 0 0 0-1-44v-24l-2 1-2 1c-2 0-2-1-1-5l1-5 1-9 2-7 1-6-1-4-3 3c-2 3-3 3-4 3l-1-3 2-4 3-6 2-3 1-2-1-6-1-4-2 3c-1 2-1 2-3 2l-3 1-2 3c0 2-2 3-3 2-1 0-1-3 1-5l3-2 2-3 2-3 1-1h-6l-1-1 3-3 4-2 3-5v-5l1-2 1-4-1-3-1 1-5 8h-3v-4l1-4 3-1 5-2v-3l-1-2c-2 0-2 0-2-2l1-4c1-1 2-3 2-13v-12h-1c0 2-5 7-5 7l-1-2a38 38 0 0 1 4-14l1-4v-5l-1-6-1-5v-7l2-7v-8c0-5-1-9-2-9l-1 2-1 4-3 3h-2c-2-1-3-3-3-5l4-5 3-6 3-6 2-6v-4l-3 1c-2 2-3 2-4 1l-1-3c0-3 1-6 3-7s4-4 3-5l-3-1c-2 0-5-2-5-3v-2l2-3 3-5 1-2v-2l-2-1c-2-1-2 0-9 7s-7 7-7 10l-2 5-3 3h-2l-2-2 1-3 3-4c1-1 2-2 1-3h-3l-4 2-4 3c-2 1-5 0-5-2l2-3 1-2h-6l-6 1-3 2-8-4 2-4 2-4v1c0 2 1 2 2 3l5 2 3-2c0-1 0-2 2-2l3-1 4 3 4 3 5 1h4l-1-1-1-3 1-3h5l7-1 4-2v-3l-2-4-1-1 3-2 2-1-5-1a567 567 0 0 1-34 1h-8a381 381 0 0 0-61 0 675 675 0 0 0-33 1c-4-2-10-2-40-1a1287 1287 0 0 1-128-1l-2 1-1 2-2-1-9-1h-33a203 203 0 0 0-36 0 631 631 0 0 0-71 0 683 683 0 0 1-33 3l-1 30v54a4042 4042 0 0 0-1 195 227 227 0 0 0 2 28 20383 20383 0 0 0 1 325 673 673 0 0 1-1 62l2-2a1590 1590 0 0 1 2-6l-1-3c0-2 3-5 4-5l1 4 1 4 2-1h4l2 1-2 2-2 1-7 3-1 1 1 3-1 1v2l-1 2v3c1 1 1 2 2 1v-2l1-2h4l1-2v-3c-1-2-1-2 1-3l3-1 4-5 3-5 2-1 1 2-2 4-3 3 3 1 4-1h3l1 1-2 2h-3l-5 1-4 1-2 1-1 4c0 2 0 2 2 3l1-1c0-1 3-5 5-5h2c2 1 1 3 0 4l-3 1-3 2h-3l-3 2-1 1-4 2-4 3v2l4 1 4-1-2-2-1-2 4-1 7 2h3l3-3 3-2 2-2c1-1 3-3 5-3l1 1v3c-1 2-2 2-4 2l-3 1v2l2-1 4-1c2 0 4 1 4 3l-3 1-4 1-5 1h2l3 2 3 1 3-1 1-2h5l1 2 5 1a333 333 0 0 0 44 0 2596 2596 0 0 1 108 1zm-143-3-1-1 6-2c1 0 2 1 1 2l-6 1zm-12-2 1-3h3l3 1-1 2-4 1-3 1zm98-2-3-3-3-4-2-1h-5l-3-1-5 4-6 4-1-1-2-2 2-4 3-4 4-5 2-4 3-8h5c3 0 4 0 6 3 3 1 4 3 4 4l1 2v2l2 3 1 3 1 3 3 2c2 0 3 0 3 2l-2 4-4 2-4-1zm-17-14h-2 2zm8-2h1l-2-3-2 2-1 2 1-1h3zm27 16c-1-2 0-4 2-6l2-3v-13l-1-7 3-2 5-1 6 1 2 6v3l1 5 2 5c0 2 1 5 2 4l1-2 3-4 2 1 1 4-1 4c-1 2-2 3-4 3l-8-4c-2-2-3-5-3-7 1-2 1-2-1-3h-3v4l-1 5-3 5-4 3-3-1zm14-22v-3l-2-3h-2v6l1 1 3-1zm95 21-2-2 1-1 2-5 2-2 2-3-1-4v-1l-1-3 1-5v-3l1-1 2 1h2l4 1 3 6 3 5 2 1 1-4 2-6 4-4 3-2 1-1 2 1-1 5-3 5-2 4 1 7 1 7-3 6-6-6-4-3-2-3c0-2-2-4-3-4l-3 5-3 9-3 1-3-1zm-229 1c-1-1 0-4 1-5l2-2c2 0 2 2 1 4l-4 3zm14 0-1-2a499 499 0 0 0 0-6h2l3 1v3l-4 4zm183-1v-5l1-7-3-5-2-5 2-7 3-2 3-1 4-1h4c1 0 2 0 4 3l3 3-2 2-3 1h-4c-1-1-2 0-3 1l-2 2 1 2 6 2c3 0 6 1 6 3 0 1-3 4-5 4-1 0-1 2 1 4h5l2 1-1 3c-1 3-3 3-6 3h-10l-4-1zm-151 0-6-2-6-4-3-7c-2-3-1-10 0-13l8-9 7-1 7 1 2 1 3 2h2v4l-1 6h-1l-2-1-4-2h-9l-3 2-2 5-1 4 1 1 3 2 4 2c6 2 6 2 6 0v-5h-1l-3-3c-1-1-1-1 1-2s2-1 5 1c4 2 4 2 6 1h6v4l-3 2-3 1-1 4-1 4c-1 2-2 2-4 2h-7zm-12-20v-1h-1l1 1zm125 20c-1-2 1-4 3-6l2-2v-4l-2-6-2-3-2-2 4-4h6l6 2c6 4 6 5 7 7v6c0 4 0 5-2 8l-4 3c-1 1-5 0-6-1l-3-1-3 2-3 1h-1zm17-7v-6l-1-2-2-3c-2-2-3-2-3-1l-2 2v6c0 3 0 3 2 4l3 1 3-1zm168 5-6-2-4-1v-2l2-3h3l1 3 1 1 2 1 2-1 3-1 3 3-4 4-3-2zm-20-4-6-3c-3-1-4-2-5-4s-2-2-3-2l-7 1-4 1 2 1h5l3 1v2l-6 1c-4 0-5 0-7-2l-4-2h-4l-4 1-5 1-1-1h-2l-1 3-2 1-3-1-1-4v-5l2-2 3 1 1 3 1 1 2-1 4-1h5l5-3 3-1 1 3c-1 3 2 3 5 0l7-7 2 1 2 2c1 1 2 0 3-1l4-3h3v2l-3 3-1 3 2 1 3-3c1-2 2-3 4-3s2 3 0 4v2h2l4-2 2-2 4 1 3 2c2 0 3-1 5-3l4-2 1 1 6 2c2 0 2 0 3-2 1-3 3-4 6-3l1 1v4h2l2-1 2-2h3l3 2 2 1 2-1 4-1 2 2-2 2h-3l-4 1-4 1-3-1-4-1-4 1-2 1c0 2-1 3-3 3l-6-4-2-1-4 1-10 1-8 1h-10l1 2c1 2 2 2 6 3 2 0 3 1 3 2v2l-4 2-3-3zm-10-11c1-1 0-3-1-3l-1 3 2 1v-1zm117 11-2-1-2-1-1-3 4-3 4 8h-3zm-2-4-1-1-1 1h2zm18 4h1v1l-1-1zm4 0-1-2v-3l2-2 1 3 1 4-1 1-2-1zm7-2-2-3-1-3h4l3-3c1 0 1 2-1 2v2c1 2 1 3-1 2h-1v2l-1 2v-1zm-23-5-2-2 1-2 1-1h2l3 1 2 1-4 2-1 1c0 1-1 2-2 0zm-10-11-1-2c0-1 1-3 3-3s2 0 2 2-1 3-2 3h-2zm2-2-1-1v1h1zm8 0-2-3 1-3 2-1 4 5-3 2h-2zm3-2-1-1-1 1h2zm6 1-2-6 1-2h1l1 2v6h-1zm-474-3c-2-2-1-7 1-8h2l1 4-3 5-1-1zm478-4v-3l2-1 3 3c2 1 3 3 2 3h-3c-3 0-3 0-4-2zm-445-7-1-2a405 405 0 0 1 1-49l1 1 1-2 1-3 1-2 1 2v1l1-1 1-3 2-1 1-3c1-1 1-2 2-1l1-1 1 1 1 1 1 1 1 1 1-1 1-1 1 2v2l2-1h2l-1 2c-2 1-2 2-2 3l-1 2v4l2 10v-1l1-5c0-3 0-3 2-2l1 4-1 3-1 2-1 3-3 1 2 3 2 11c0 2 1 3 2 3l1-2c0-2 0-2 2-2l2 2 2 2-1-2v-5l2 3v3l2-1h1v6l-1-1-2 1v1c1 1 0 5-1 4v-2l-2-4-2-1-2-1h-3l-2 2 2 2 1 3v4h2v-2l1 1 2 1a77 77 0 0 0 13 0l-1-1v-1h-2l-2 1-1-3 1-3 2-2 1-2v2l-1 3 2 1 2 2 1 3 7 1 9-1c1 0 2-1 1-2h2l1 2h2l-1-9h1l1 1c-1 1 0 5 1 5v-12h2v5c-1 4 0 5 1 4l1 1c0 2 0 2 2 2l3-1 1-1h-1l-2 1v-4l1-4h2l1-4v-8l1-2 1-2 1 5-1 5c-1 0-2 0-1 1v7l-1 2v3l1 3c1 2 1 2 1-1 1-3 2-4 2-2l3 4v-1c-1-2 0-4 1-4l1-2 1-5-1 8-1 4 2 1 1-1 1-3 2-1v1c-1 4 0 4 1 4h5a141 141 0 0 0 26 0h14l-1-3v-2c-1-1-2-4-1-5 0-1 1-1 1 1l2 4 1 1v-1l-1-5 1-4c1-1 1 0 1 1l1 3v4l2 4 1-1 1-1v2l1 2c2 1 4 0 4-2l1-1 1 1 1 2h2l2-1-2-3-1-1-1-2-1-3-1-3-1-2-1-2h-1l2-1h2v2l1 6 1-1c1-1 2-1 2 2l1 3h1l-1-3 1-1 1 5v4l3 1 6-1 3-2 1-4v-4l1 1 1 2v2l-1 2-1 2 1 1 1-1 1-1 2 1c2 1 2 2 3 1l1-5 1-2 1-1v2l-1 3v2h1l1-1v-2l2 1h1l2-2 1 2-1 2c1 2 2 1 3 0l1-3-1-3 1-1c1-2 0-4-1-4v-3c1-1 2 1 3 4l1 7 1 2 1-4-1-5v-5h1v2l1 1 1-1 1-1-1-1v-3l1-2h2v1l-1 3v6l-1 2c-1 1 0 1 1 3l3 2 3-1v1l1 2c1 2 7 2 9 1l1-1 1-2h1l1 1 1-2v-2l3 2h2l2-1 1 1h1l1-1h2v3l2 2 3-1c1 0 1 0 0 0s-2-1-2-3l-1-3 4 5h4l1-2 2-1h2c0 2-1 3-2 3v1l2 1 5-1 3-1 1-1h2l3 1h3l2 1 2 1 5-5 3 3 2 1 2-1 1-2 1 1 1 2 7-1 1-2v-3l1-1 2-1 1 1v-3l3 3v2h-3l-1-1-2 3v2l2 1h6c2 0 2 0 1-2 0-2 0-2 1-1h2l2 1 1 2h7c4 0 5-1 4-2l-1-3v-4l1-3v-2l1 2c0 2 1 2 2 2l2-1 2-5 1 3c0 3-1 4-4 5l-1 3 1 3 2 1 1-1 2-1h1v2h3a235 235 0 0 0 5 0c1 0 2-2 2-7l1-3 1 4v5l6 1h4l1-4 1-5v-5l1-4v2l1 3 4-6c0-2 1-3 2-3l1 1v2l-1 3-1 4-1-1c-1-1-1 0-3 1-2 2-2 3-1 4l1 5 2 3c1 0 2-1 2-3l1-4v2c0 1 0 2 2 3l1 2v-2l1-3h1l2 2v-1l1-2 2 1v2l1-3v-2c1 0 2 2 1 4v3h2v-1l1-9v4c0 4 0 4 2 5l2 1 1-2 1 1c1 1 2 0 2-1l1-1c1 1 2 0 2-1l1-1c2 0 3-2 2-3h-1l-2 1 1-2 2-1c2 0 2 0 2 2s1 3 2 1h1l2-1h3l2-1 2 1 1-5v-6c-1-2-3-2-4-1l-1 1-1 3c-1 4-2 4-2 0l-1-3v-2c1 1 3-1 2-2l1-3 1 1v2l4-3 1-1h1l1 1 1-3 1-2h1l1-1c-1-1 0-1 1-2l1-3-1-2-1 4-3 3-2 1h-1v-2l-1-3-1 1h-2l-1-1-1 2 1 1c1 1 0 2-1 2l-2 1c-1 1-1 1-1-1l1-3 1-3 1-2 1 1h2l1-1v-4c2 0 3 2 3 4 0 3 1 4 2 3v-3l1-1v-4l-1-1c1-1 0-2-2-2l-1-1 1-1h3v1l1 2v-3l-1-4h-3v1l-1 1v-2l-1-1-1 1c0 2-1 3-2 3l-2-2-1-1v1l-5 1h-1l1 1 1 4v2l-1-2-1-2c-2 0-2-1-1-2 0-1 0-2-2-2l-1-4 2-2 1-1c1-1 1-1 1 1v2c-2 2-1 3 1 3l1-2 1-3 2 1c0 1 0 1 0 0l1-1 2 2 1 1 1-1 2-1 6-5-2-1-1-3v-3l1-1 3-1c2 0 2-1 2-3v-3l1 1a142 142 0 0 1 0 9l-2 1-2 1v1h2v2l-3 7 1 1 2-2 1-2 2 9 1 6v5l-1 7-1 5 1 2 1 8v16c1 1 1 1-1 3l-3 1a63 63 0 0 0-22-1 2244 2244 0 0 1-145 2 422 422 0 0 0-47 1 1476 1476 0 0 0-69 1 393 393 0 0 0-43 1h-19a3747 3747 0 0 1-72 1zm10-3 1-4 1-2 1 2 1 1 1-4-1-6v-1l-3 1c-2 1-3-1-1-3l1-3-1-3-1-2-1-3a361 361 0 0 0-4-4l2-1c1-1 2-1 1-2v-2l1 3 2 5v-5l1-7 2-3h1c0 2 1 2 2 3l1 1c0 2-1 2-1 1l-2-1-2 3v9l1 3 1 1 1-1 1 3v5c1 0 2 1 2 3v3c-2 0-3 1-1 2l1 1h1l-1 3-1 3 3 1c2 0 3-1 3-2l-1-2c-1-1-2-2-2-6l-1-5v-3h1l1 1 1-2-1-1-2-1 1-2v-2l-2-3-2-3-1-2v-2c1-1 1-1 2 1 2 2 3 3 3 1l-1-7c-2-4-3-6-2-8v-5c-1-1-1-2-2-1l-2-1-2-1-3 3v2c1 2 1 2-1 4l-3 2c-1 0-4 5-4 8l2 4 1 3v2l1 1 1 1v2l2 3c0 2 1 2 2 2l1 1-1 1-2 2v3l2 2 1 3c0 3-1 5-2 5v-4l-1-1c-1 0-2 6-1 7h4zm-8-36v-2l2-1-1 4-1-1zm4-5 1-1v4l-1-3zm4-3v-2h1v1l-1 1zm3-5v-2l1 2v1l-1-1zm62 48-3-2-1 1v1h4zm-74-6a312 312 0 0 0-1-6v11l1 1v-6zm203 3-1 1h1v-1zm4 0h-2l1 1 1-1zm-137-1v1-1zm346-3c0-2-1-3-2-2l-1 1c-2 0-2 2 0 2 3 1 3 1 3-1zm-19 0v-1l-2-1c-1-1-1-1-1 1l-1 2c1 1 3 1 4-1zm12 0-1-2v-1l-2-2v6h1l2-1zm-406-2h-1l1 1v-1zm322 0-1-1-1 1h2zm79-2h-1v1s0 1 0 0l1-1zm9-3-1-2h-1v3l1 1 1-2zm-410-2 1-7-3-1-2 1v7h4zm-2-4v-2l1 1-1 1c0 1 0 0 0 0zm417-1-5-7-2 1v2h1l1 2 1 1 1 2 2 1 1-2zm-3-13-1 2v2l1-2v-2zm-394 2v-1 1c-1 0-1 0 0 0zm396-22-1 1h1v-1zm-16-5-1-1v1l1 2v-2zm-355 57-1-2v-2l-1-2 1-2v-7h-2l-1 1-1 1v1l-1 2-1-2 1-5v-1l1 1 4-3-2-3-2-2 2-1h2v-4h2l1 1c1-1 1 0 1 3 0 2 0 2-1 1s-1-1-1 1v14l1 2 2 1c1 1 2 2 1 3l1 1h2l1-2 1-1 2 3c0 2 0 2-2 2h-6l-1-1-1 2-1 1-1-1zm2-5-1-1c-1 1 0 2 1 2v-1zm61 6 2-2 1-4 1-3v6l-1 2-3 1zm23-2-1-2-2-1 1-1 3-2 1-1v7l-1 1-1-1zm-31 0-1-1-1-2h-3l-1-4v-4l2-1h2l-1 2-1 3 2 1 3-1v-2l-1-2 1-1 1 1 1 1 2 1v2l-2 1-1 2v4l-1 1-1-1zm5 0 2-3 1 2-1 2-2-1zm10 0-1-3 1-2 1 1v5l-1-1zm6 0-1-3-1-1v-3l1 2 3 2c2 0 3 1 3 2v1l-2 1-3-1zm-138-1-2-3v-4l2-3h4l2 7-1 3h-5zm43 0v-1c0-1 0 0 0 0v2-1zm34 0v-2h-1l-1-1v-8c0-3 1-3 2-3l2 1v4l-1 2v7h-1zm118-1 1-1v2l-1-1zm111-1v-2l2 1v3l-2-2zm27 2c-1-1 0-2 1-2h1l-2 2zm19-2-1-2h1v3-1zm2 0v-2l-1-6-2-3c-1 1-1 0-1-1 0-2 1-4 2-2l1-2h-2v-1l5-1-1 2v6l1 5v4l-1 2-1-1zm-69-1-1-2v-3l1-1 1 2 1 3-1 2-1-1zm-244 0-1-1 2-1 1 1-1 2-1-1zm17 0v-3l1 1c0 2 0 3-1 2zm214-1 1-1v2l-1-1zm8 0-1-2-2-3-1-1-1-1 1-2v-1h1l1 2 2 4 1 1 2 3-1 1-2-1zm21 1v-1c2-1 2 0 2 1h-2zm-106-1 1-2v-3c1-2 1-2 2 0l2 1c0-1 0-1 0 0v1l-1 1-2 1-2 1zm140 0 1-2 1 1-1 1h-1zm-172-2v-1l1 1-1 2v-2zm66 1v-4c2 0 2 0 1 2l-1 2zm61 0c-1 0 0 0 0 0h1l-1 1v-1zm-221 0v-3c1-1 0-1-1-2l-2-1-1-8v-2l1 3 1 2 1 2 4 4c1-1 1 1-1 3-1 2-1 3-2 2zm169-1v-1h1c1 1 0 2-1 2v-1zm28 1-2-1h-1l-1-3c0-3 0-3 1-2l1 1 1-2 1-2 1 5v4h-1zm28-1c-1-1 0-2 2-1l1 1-2 1-1-1zm-194-1v-3l-1-2c-1-1-1-2 1-2 1 0 2 2 2 5v4l-2-2zm146 1-1-1 3-1v2l-1 1-1-1zm76 0v-1l1 1h-1zm142 0-2-1 2-3h2l1 3-1 2-2-1zm-332-2 3-2 1-4 1-4c1 0 2 0 2-2l2-4 1 3-1 4-1 1a136 136 0 0 1-1 9v-2c0-2 0-2-2-1l-3 2-1 2h-1v-2zm157 2v-1h1l-1 1zm111-1v-1l1 1-1 1v-1zm-131 0v-4l1-2c2-1 2 3 1 5l-1 2-1-1zm-90-1h-2l-1-1 1-2 3-1h1l-1 5-1-1zm72 1v-1l1-3v-3l1 3-1 4h-1zm-48-4v-2 5-3zm95 3 1-1v1h-1zm36 0-1-1 2-2 1-1a1156 1156 0 0 1-1 4h-1zm-186-1-1-7 1-6v5l1 5c2 1 2 4 1 4l-2-1zm-22-1-1-3 1-2h1l1 1 1-1c0-2 3-2 3-1v3l-2 2-2 1h-2zm258 0v-4c0-1 0-2 2-3 1-2 2-2 3-2s3-1 2-3h2l-3 6-1 2-1 2-1-2-1-1-1 3v2l1 1-2-1zm31 0 1-2 1 1-1 2-1-1zm-253 0-1-1v-8 2l1 4 2 2-1 1h-1zm72 0a205 205 0 0 0-4-13l1 1 1 2 1 2 1 2 1-1v-1 7c0 2 0 2-1 1zm224-1-1-3 1-1 1 3-1 2v-1zm-228-1-1-2c-1-2 0-4 1-3l1 6-1-1zm193 1v-1 1c1 0 1 0 0 0zm-320-1v-5l1 2 1 1v2h-2zm86 0v-3l1-3 2-1v4c-1 4-1 5-3 3zm202 0v-1h1v1h-1zm7 0-1-4 2-7 1-1v-2l2-1 3-1c2-1 2 0 2 2l-1 2h-4l-1 5v3l-1 1-1 3h-1zm-309 0a196 196 0 0 1 0-10l1 6v4h-1zm3-1v-1 1c0 2 0 2 0 0zm17 0 1-3 2-3h1l-1 4c0 2-1 3-2 3l-1-1zm130-1v-1 3-2zm68 2v-1l1 1h-1zm58 0v-3l-1-1-1 1-1 1-1-1v-1h-1v2c-1 1-1 0-1-2v-3h9l1 4c0 2 0 2-1 1v-1l-1-1-1 2-1 2zm-212-2c0-2 0-2 1-1l1 2c-1 1-2 1-2-1zm92 0c1-3 1-4 2-2 1 1 0 4-1 4l-1-2zm3 0 1-2 1-1v3l-2 2v-2zm155 1v-2l1-2 1-2 1-1 1-2 1-1h2c1-1 2-1 2 1l1 6v2l-3-3-1-1-1 2-1 2-2 1h-2zm46-2-2-4c0-2 1-3 2-3v2c0 2 3 5 4 4v-5h2l1 4-2 4-2 1-3-3zm-250 1v-1l1 1v1l-1-1zm82 0 2-2c1 1-1 3-2 3v-1zm43 0 4-1v1l-3 1-1-1zm8 1v-3l1 3h-1zm90 0-1-2h1l1 1-1 1zm-371-1 1-1v1h-1zm66 0c-1-2 0-4 1-4l2-1v3l-1 1c0 2-1 2-2 1zm57-1v-6l2-1 3 1c1 1 1 2-1 2l-2 1-1 3c0 2 0 2-1 0zm117 1v-2h1v2h-1zm-207-2-2-2-1-1c1-1 1-2 2-1l1 1 1-4c0-4 1-7 2-7v1l-1 3 1 4-1 3v3l-1 2-1-2zm58 1v-2l2 1v1h-2zm121 0 1-1 1 1h-2zm43-1-1-1c-1-1 0-3 1-2v4-1zm-309 0-2-2c-1-2-2-6-1-8 1-3 2-14 1-15l-2-1h-3c-2-1-5 0-5 1l-4 5-4 5h-3c-3-1-4-2-3-7 1-3 1-3 3-3 1 0 2 0 3-2 2-1 2-2 2-6l2-8a416 416 0 0 0 6-14l4-1 4 2c3 3 6 9 8 14 1 5 3 13 2 16l-2 6-1 7v6c1 4 0 6-3 6l-2-1zm-3-29v-1l-1 1 1 1v-1zm-1-6v-1l1-2c1-1 1-2-1-3l-2-1-1 1-1 1-1 2 3 4 2-1zm77 34-2-1v-2l2-8 1 1 1 2c1 0 2 1 1 2l-1-1-1-1v2l1 1 1 1h-1v3l-1 3-1-2zm201 1 2-3v3h-2zm24 0 1-1 2-1-1 2-1 1-1-1zm-130 0h1-1c-1 0-1 0 0 0zm41-2 1-9 1 2 1 3 1 3c0 3 0 3-2 3-1 0-2 0-2-2zm-155-2v-8l-1 1-1 1-2-5-1-1v3l-1 2c-1-2 0-6 1-6l1-1v-3l-1-2v-3l2-2v5c-1 2 2 7 3 6l1-4v-3l1 1a155 155 0 0 0 1 4v6l-1 8-1 4c-1 1-1 0-1-3zm43 2v-1l1 1-1 2v-2zm131 1v-5l1-1v2l1 3 1 1h-3zm58-1v-1l1 1-1 1v-1zm138 0v-1l1 2c0 1-1 1-1-1zm-315 0v-2c1-1 1 0 1 1l-1 2v-1zm131 0v-3l1-1 1 3-1 2-1-1zm51 0 2-2 2 1v1l-2 1-2-1zm-136-1v-1 2-1zm169 0-1-2 2-6 1 1v1l-1 3v4l-1-1zm-246 0v-1c1-1 1 0 1 1h-1zm220-1 1-2 2-1v2l-1 2-2-1zm17 1v-8l1 2v6h-1zm72 0 1-2v1l-1 1zm-306-1v-2l1 2h-1zm51 0v-4l1 2v3l-1-1zm83 0v-1h1l-1 2v-1zm-111-1v-2h2l-1 3-1-1zm215 0 1-3c0-2 0-2 1 1 0 2-1 4-2 2zm10 0v-7l1-2 1 4-1 6-1-1zm7 0 1-2 1-1v4l-2-1zm-294 0 1-2v-2l1-2h1v5l-2 1h-1zm74-1c0-2-1-3-2-3l-1-3v-2l2 3c2 3 2 3 1 5v2zm7 0 1-2 1 2-1 1-1-1zm14 0v-4l1 1v3c0 2 0 2-1 0zm85 1-1-2c1 0 2 0 1 2 0 1 0 1 0 0zm119-1-1-2-1-2c0-2 0-3 2-3 2-2 3-1 3 1s0 3-1 2l-2 2h3l1-2 3-6v1l-1 3a10248 10248 0 0 0-3 6l-2 1-1-1zm-181 0 1-2c0-1 1-1 0 0v2l-1 1v-1zm86 0h1l-1 1v-1zm5 0v-2l1 1v1h-1zm-167-1 1-2v3l-1-1zm141 0s0-1 0 0c2 0 2 1 1 1l-1-1zm37-2v-4c1-1 1-1 1 1l1 2-1 3c-1 2-1 1-1-2zm8 3 1-1 2-1 2 1-1 1h-4zm-104-1v-3l2 3h-2zm114 0 1-1c1-1 1 1 1 1h-2zm6-1 1-2v-1l1-1 1 2-1 3-1 1-1-2zm18 1 1-2 1-1v3h-2zm-102-1 1-1v2l-1-1zm14-1 1-2v3c-1 2-2 1-1-1zm-89 1 1-2h2l1 2h-4zm223-1 1-3v4l-1-1zm27 1v-4l-1-4-2-2-1-1v-3c0-4 1-5 1-2s3 8 5 8c1 0 2 1 2 3l1 4 1 1h-6zm-81-2v-5l1 2 1 5-2-2zm71-2c1-4 1-5 2-4l-1 4-1 4v-4zm22 3-1-4c0-2 0-2 2-3l3 1 1 2-1 2-2 1-1 2-1-1zm-268-1v-7h-1l-1-1 1-1 1 1c0 2 2 1 2-2l1-2 1-1v6l-2 1-1 3v4l-1-1zm61-1 1-3v3l-1 3zm-36 1v-1c1 0 0 0 0 0l-2-2-1-2 1-1 1 1 1 3 1 2h-1zm79-1h1v2l-1-2zm138 1c0-1 0-5 1-4v5l-1-1zm32 0 2-5 1-2c0-2-1-2-2-1l-1-3v-4h-3v3l-1 1-2 1-1 1-1-3-1-3-1 7v4l-1-3v-7l1-5-1-2-1-4v-3a565 565 0 0 1 6 14l1 2 1-2 1-4c1-2 1-2 2-1l1 2c2 0 2 0 2 3v3l1 1 1 1v3l1 3-1 1-2 1-1 2-1-1zm-300-1v-4c-1-1 0-4 1-4l1 1v6l1 2-3-1zm163 1v-2l1 1-1 1zm61-1v-1c1-1 2 0 2 1h-2zm53 0v-4l1 1 1 3v1l-2-1zm-295 0c0-2 1-2 2-1v1h-2zm4 0v-2l1-1 1 2-1 1h-1zm22 0 1-2c1 0 2 1 1 2h-2zm88 0v-1c1-1 1 0 1 1h-1zm168-3 1-3 2-1-1 3v3l1 1h-2l-1-3zm-109 2v-2 3-1zm31 0 2-1h1l-2 1h-1zm-195-2zm66 2v-2l-1-2 2-2 1 2v3l-2 1zm11-2v-10l1 1v11l-1-2zm90 1v-3l1 2v2l-1-1zm14 0v-1l1 1-1 1v-1zm-196 0 2-2 1 1-1 2-2-1zm99 0 1-1v2l-1-1zm8 0 1-2c1-1 1-1 1 1l-2 2v-1zm148 0 1-1v2l-1-1zm28-2 1-2v4c-1 1-1 0-1-2zm62 2v-2h1v2h-1zm-285-1v-4 2l1 1v2l-1-1zm79 0 1-2c0-2 0-2 0 0v2h-1zm23-1h1v1c-1 1-1 0-1-1zm8 1 1-3 1 3h-2zm4 0v-3c0-3 0-4 1-3l1-1 1-1v3l1 4-2 1h-2zm59 0 1-1v1h-1zm104 0v-2l1 1v1h-1zm-306-1v-2h-2v-4l1-2 1 1 1-3v-1l1 6-1 6-1-1zm72 0v-1h1l-1 2v-1zm108 0 1-1v2l-1-1zm-94 0 1-1 1 1h-2zm14 0 1-2c0-1 0-1 0 0v2c1 0 0 0 0 0h-1zm3 0 1-2h1l-1 2h-1zm-124-1v-5l2 1-1 5-1-1zm243 0v-5c0-3 1-3 2-3l2-1 2-2 1 1 2 1v1l-2 3-2 1v-2l1-1-2 2-2 4v2l-2-1zm82 0-1-3c0-3 1-2 1 1v3-1zm-334 0v-2c-1-1-1 0-2 1h-2v-3l1-1v1l2-2h1l1 3v3h-1zm18-1h2l-1 1-1-1zm134-1 2-7v2a128 128 0 0 0-1 7l-1-2zm40 1s0-1 0 0l1 1-1-1zm29 0 1-1 1-2h1l2-2h1l1 5-1-1v-1l-3 1-2 2-1-1zm-152-1v-1 2-1zm148 1-1-3v-1l2 2 2 1-1 1h-2zm15 0h1v1l-1-1zm11-1v-2l1 1-1 2v-1zm19 0 1-1 1 1-1 1-1-1zm-257-1v-1l1 1-1 2v-2zm51 1v-1h1l-1 2v-1zm42 0 2-7v2l-1 4c0 2-1 3-1 1zm104 0v-6h1v6h-1zm47-1v-3l1 3-1 2v-2zm-211 1v-1l1 1h-1zm7-1v-1 2-1zm62 1v-3l1 1 1 1h1c0 1-2 2-3 1zm41-1 1-7h1v2l-1 4c0 2-1 3-1 1zm41 0v-5l1 2v1l1 1-1 1c-1 2-1 2-1 0zm83 1 1-9h1v6c0 2-1 4-2 3zm-279-1-1-2h-1l-1-1h1l1-2 1-1 1 1v6l-1-1zm86 0 1-1v1h-1zm56-1v-2l1 1-1 2v-1zm6-1 1-2v2c0 4-1 4-1 0zm69 2v-2l1-2 1 2-1 3-1-1zm119 0v-6l1 3c0 4-1 5-1 3zm15 0-1-2h1l1 2h-1zm-152-1 1-1 1 1-1 1-1-1zm44 0s0-1 0 0v1-1zm61 0v-6c0-3 1-2 1 2v5l-1-1zm-159 0v-2h1v2h-1zm129-1c0-2 0-2-1-1h-2l1-3 1-2v2l1 2 2 1v1l-2 2v-2zm40 1v-10c1 0 2 6 1 8 0 3-1 3-1 2zm-319-1v-1 2-1zm48 0c0-1 1-2 1 0v1c-1 0-2 0-1-1zm48 0-1-1-1-2 1-3 1-3v-2l1 1c1 1 2 0 2-1l1-1c1 0 0 3-2 5l-1 5-1 2zm76 0v-1l1 1-1 1v-1zm81 0c0-1 0-1 0 0v1-1zm-221 0v-2l1-1 1 1v2h-2zm111 0v-1h1l-1 1zm54-2-1-4 1-1v7-2zm76 2 1-1v1h-1zm-97-1 1-1v1l-1 1v-1zm4-1v-1c1-1 1 0 1 1l-1 2v-2zm78 0 1-4v6zm31 0 1-2-1-4-2-7h1l3 9-1 6-1-2zm-156 0s0-1 0 0v1-1zm160 1 1-5 1 2c0 2-1 4-2 3zm5-1v-1l1-1 2 1v2l-3-1zm47 0 1-4c0-2 0-2 2-2 1 0 1 0 0 0l-1 3 1 1 1 2h-4zm-285 0 1-1 1 1-1 1-1-1zm243-1v-5l1 5v2l-1-2zm-222 0v-2l-1-1 2 3h-1zm174 1v-2l1-2v4h-1zm-228-1 1-1v1h-1zm45-2v-3c-1-1-1-1 0 0l1 3-1 2v-2zm37 2c-1-1 0-3 1-3v3h-1zm48 0 1-1v1h-1zm194-2v-4l2-1-1 3v4l-1-2zm-357 1v-2l1-2v5l-1-1zm24-1 1-1 1 1-1 2-1-2zm104 1 1-3v3h-1zm6-1v-1 1c0 1 0 1 0 0zm227 0 1-1 3-1h1l-1 2-2 1-2-1zm-375-1v-1l1 1-1 2v-2zm111 1 1-1c0-1 0 0 0 0v1h-1zm-34-2-2-2 2 1 2 2v1l-2-2zm126 1v-1 2-1zm45-2 1-4v6c-1 1-1 1-1-2zm-177 2 1-1v1h-1zm36 0-1-3 1-2 1 1v4h-1zm88 0 1-1 1 1h-2zm18 0 1-1v1h-1zm68 0-1-8 1-2 1 2-1 2 1 3 1 3h-2zm36 0c-1-1 0-4 1-5l1 3v1l1-1c0-1 0-1 0 0l-1 2h-2zm-312-1 1-2v3l-1-1zm185 0 2-2v3l-2-1zm33-1v-4h-2l-2-1 1-2c1-1 4 1 4 3 1 3 1 5-1 6v-2zm-17 1-1-2-1-3-1-1h2v1c1-1 1 0 2 1l1 3v1h-2zm59-1v-2c0-2 1-3 2-3l2-3c0-2 0-2 1 1v4h-1l-2 2-1 2-1-1zm-236-1a83 83 0 0 0-3-5l2-2c1 0 1 0 0 0l1 3 2 3 1 2c-1 1-2 1-3-1zm233 0 1-7c0-4 1-2 1 3l-1 5c-1 1-1 1-1-1zm36 1 3-2 1 1-1 1h-3zm-275 0-1-3 1-2v-2l1 2v5h-1zm20-1 1-1 1 1-1 1-1-1zm21 0c-1 0-1 0 0 0v1-1zm169-1 1-2 1 2-1 2-1-2zm-225 1v-5l1 2v3h-1zm144 0 1-2-1-2-1-1v-2l2 2c1 3 1 4 2 3l1 1-1 1h-3zm10 0-1-3c1-1 1-2 2-1l1 2c0 2-1 3-2 2zm218 0 1-2h1l-2 2zm57-1-1-2-1-2v-3h1c2 2 2 3 2 5v3l-1-1zm-325 0v-1l1 1-1 1v-1zm18 1v-6l2 2 2 2-1 1-3 1zm6-1 1-1h1l2 1-2 1-2-1zm148 0-1-4 1-4 1 2v3l1-2 1-2 1 2v3l1-3 1-4h1l1 2v7c-1-2-1-2-2-1h-2l-2 1h-2zm-270-1v-4l-1-1 1-1 2 1v5l-1 1-1-1zm73 0 1-2v3l-1-1zm166-1 2-6h2l1 1c0 3-1 5-2 5-1-1-1 0-2 1v1l-1-2zm85 0v-5c2-1 2 1 2 4l-1 4-1-3zm21-1v-6c1-1 0-2-1-3l-2-3v-1l-2 1-2 2 1-3 1-3-3-2-3 1-2 1v-5l-2 3-4 2h-2l-2-2v-2l-1-2v-3c0-1-1-1-2 1l-1 1v-4l1-3v-4l-1-1-1 2-1 2-1 1c-1 0-2-1-1-2v-2l-3-3-2-1 1-2 1-1-1-3-1-1h-2c-2 0-2-2-1-3v-7l1-1h1l-3-1-1-2 3-3c1 0 1-1-1-3l-2-3c-1-2 0-2 1-3l2-2-1-2c-1-2-2-2-2-1h-1l-2 1v28c0 1 1 7 3 9l1 2v4l-1 2-2-2-1-2-2-1c-1-1-1-1-1 1l1 3v1l-2-1-2-1c-1 0-2 1-2 3v2c-1-1-2-3-1-5v-2l-2-2v4l-1 4v-3l-1-2c0-2-2-4-3-4l-2-1-1-3-1-3-1 2c0 2-1 3-3 4s-3 1-3 3v4c2 1 1 5 0 5l-3 1c-1 1-1 2-2 1l-1-2v-7l1 2c0 1 0 2 1 1v-1c0-2 0-2 1-1l1-2c0-2 0-2-2-3l-3-3-1-4v-29l1-2v-10a661 661 0 0 1 0-16l1 3v4l1 3v2-2l1-6 1-5 1-2-3-1a108 108 0 0 1-6 0c-2 1-3 0-3-1l-1-2 1-2v-1l3-2 3-3 3-5 5-7 6-12 1-4 1-9-1-8-3-1-3-1-2-1v1l-1 2h-4l-2 1v2l-2 4c-2 4-3 4-11 3h-7c-1 1 0 1 3 2l1 1h-3c-2 0-2 0-3 2l-1 3 9 1 9-1v-3c1-2 3-3 3-1l-1 4c0 2-1 2-2 3h-6l-21 1h-24l1 3 2 4h1c1 2 4 2 10 1l7-2v-2l2-2 2 1 2 1 2 1c0 1 1 2 4 1h4l1-2 1-2 1 5-1 1-19 1c-4 0-6 1-6 2l1 4 2 1v2h12l2-2 1-4c0-2 0-2 1-1l1 2c0 3-1 6-3 7h-12l-7 1-4 1-2-1c-2-1-6 1-6 4-1 2 0 2 1 4l3 3h6l4-1 2 1 3-1c2-2 2-2 2-5l1-3 1 1 2 2v2l2 1v4l2-1 1-1 3 1 4 1 2-3v-6l1-1 3 3 4 2c3 1 1 4-3 4l-4 2-4 1h-2l-3-1h-29l-2-1-1 1-3 1-4 1h-5l-3-1-3 1-4-1-3-2-3 2-2 1-3-1-4-1-1 2 2 2 1 2-1 2-2 1 2 5 1-1h16c3 0 3 0 5-2v-4c0-3 1-4 3-1l2 4-1 3c0 2-3 2-9 3h-17l-11 1h-9l1-3h1-1l-1 1-1-1 1-2h2l2 2 3 1h3l3 1 2-2 1-3 1-3v-4c-1-2-1-2-3-2l-4-1-1-1h3l6-1h6l2 1 2-2c1-2 2-3 1-4v-2l1-1 1-2-2-1h-5a4888 4888 0 0 1-7-2l2-2v-3l-3-3-1-2h1l4-1 6-1c3 0 3-1 4-2l1-3-2-2a18 18 0 0 0-11-1l-6 1h-2l-1 4v4l-4 1-15 1-5-1c-2-2-3-2-4-1l-1 2-5-1c-3-1-3-1-5 1l-4 1h-9l-4 1h-24l-3 1-4 4h-1l-1 1-1 1-1-1 2-1c1 0 4-3 3-4l-8 1-6 3-4 2-6 4c-3 1-4 2-5 4l-1 4v5c0 3 0 3 2 3h3l4-1c1-2 2-6 1-7v-2h2c2 0 2 1 2 3l-1 4c0 1 0 2 3 3l5-1h11l1-1 1-2 2-1h2l4 2h5l3-1 2-5 1-3 1 2v3c-1 2-1 2 1 2h3l3 1 4-1 5-1h2v-3l-1-4c0-2 0-2-3-3-2-1-3-2 0-2l8-1 1-2v-3l1-1 2 1 1 3 3 3h8l-4 2h-5l-8 1c-2 0-2 1-2 3l1 2 1 3v2h7c7 1 8 1 9-1v-4l1-4h1l1 3a33 33 0 0 0 0 5h7l3-1 3 1 2 1 2-1 1-5c0-4 0-6 2-5l1 2-1 1v4c0 3-1 4-2 5-2 2-2 2-6 1h-30a44 44 0 0 0-11 1l-7-1-7 1-5 1c-3 1-4 0-5-1h-4l-2 1-2 2-1 3-2 1v-1c0-2-1-2-2-3l-4-1-4 1-4 1-9-1-6 1-1 3 1 4 2 8 1 7c2 2 2 2 1 7l1 7c0 2 0 3 2 3h2l1-4v-3l1 1 1 3 5 1 8-1c3-2 3-2 3-4l-2-3-4-1-3-1-3 1-3 2h-4l-1-1 2-1 4-1 1-2-1-4-1-4 2-2c2-1 2-1 4 1l1 2h-4l1 2v3l-1 1 3 1c1-1 3 0 4 1 3 2 3 2 6 1l4-1 2-2 9-1h10v-6c0-4 0-5-2-5l-6-1c-4 0-5 0-6 2h-5l2 2 1 3-1 1-1-1-1-3-1-2c1 0 1-1-1-2h-3l-3 1-4 1h-5l2-1 2-4 1-5 1-1c2 0 3 2 3 3l-2 1h-1l1 3 5 1h9l3-3a318 318 0 0 1 2-7l1 2 2 7h6l7 1 2-1v-10l2 5 1 2c1 2 4 3 6 2h3l3 1 3-2 2-5v-3l2 4 2 3 3 1 3 1c1 2 3 1 4 0l3-2c2-1 2-1 1-5l1-3 1 4-1 6h-1l-3 1c-2 2-2 2-10 0-4-1-4-1-6 1l-5 1h-9l-6 1c-1-1-4 0-4 1l-1 4 1 4 4 1 5 1h4l4-2-1-2 1-4 1 3 2 3 7 1h7l1-4 1-4 1 2 1 3c1 2 2 2 7 2h7l2-2v-5l1-1 2 2v1l1-1 1-2h3l-1 1c-1 1-2 3-1 4s1 3-1 3l-1-1-1-1-1 1-2 2c-2 1-2 2-10 2h-10l-5 4 2 1 1 2 2 2 4 1 5-1 2-4c0-3 0-3 2-3h3l-2 4-3 4-2 1-3 1-5-1-7-1-4 1-5 1-5 1 1 3v5h-1v-3l-1-3-1-3 1-2c1-1 0-2-1-2l-4 2-3 2h-2l2-2 1-1 1-3 1-3 1-1-1-1h-6c-5 0-5 0-7 2l-2 3c0 1 0 2-1 1-1 0-2 0-2 2l-1 3 3-1h5l2 1-1 2-3 2-2-1-2-1-2-1c0-1-2-1-3 1l-4 1-2 1h-2l1-2 3-1 4-2c2-1 2-2 2-4v-3h1l2 1 1-2-2-2h-4l-5 1-3 1-3 1-2 1v5l-1 1 2 1c3 0 2 2-2 3h-7l-3 1-1 2-1-2-2-1-4 1-2 1 1 2v4l1 3 2 2 1 1 2 3 3 3-1 1h-2l-2 2h-3a741 741 0 0 0-6-6l1-1 2 1v-2l-1-10c-1-3-2-3-3-3l-1-1v-5l-2-1v-6l-2-16-1-5-1-3c0-3-1-5-2-5l-1 2v13l-2-2v-6c-1-6-1-5 2-8 2-2 2-3 1-6l-1-3v-3c1-1 1-3-1-4l-1-1 1-1 1-2 1-2 1-1-2-2-2-1c0-2 0-4 2-4l1-4v-3l1-1 2-2v7a126 126 0 0 0-1 13h1l3-8-1-7-1-7v-5h-1l-1 3-1 1-2-1-1-6 1-8 1-5 1-4 1-1c0 2 1 1 1-1v-3c-1 0-1-1 1-1l5-5v-2l-4 3-5 3-1 2-2 2-1 2h2l-1 2c-2 2-2 2-2 7l-1 5c-1 1 0 10 2 14 1 1 0 3-1 3l-1-2-2-4-1-4v-4l-1-3c1-1 0-2-1-3s-2-4-1-8a1317 1317 0 0 1 2-16l1 1 1 1-1 1-1 6-1 6-1 3 1 2c1 1 1 1 3-5l2-5 3-8-1-2-1-4 3-3 2-4 2-5c1-3 1-3 3-3l3-1 2-5 1-2h18l1-2 2-2 1-3 2-3h-3l-7 4h-1v1h1l-2 1-5 1h-8l-1 2-2 2-2 3-3 2-4 2-1 4-2 4-2 6-1 3h-1l1-5 1-4 1-4 1-3v-2l1-1-2-2c-1 0-2 0-1-1l2-2v-8l-1-8-2-2-1-2c0-1 3-6 5-7l2-3v-1l1-2h-1l-1 1 1-4v-3l-1-6v-5l1-1-1-2v-2l-1-2 1-2h4l-1-2-2-2h2c1 0 3-1 3-3l2-2 2-3 3-3 3-3c0-3 0-3 2-3s4 0 5-2l2-2-1-2-1-3-2-1-2 2 1 2h2l1 2h-3l-7 1-3 2v4c0 3 0 4-2 6l-2 3-2 1h-3l-1 3-2 3-1 3-3 4-1-2-1-3-4-1-2-1h1l2-1 4-1 3-2v-2l1-1 1-3c1-2 2-2 2-1h3l4-1 2-1-2-2c-1-2-2-2-2-1l-2 1-2 1-2 1-5 2-4 1v-6l3-2 9-7h3l1 1 1 3v2l2-1 1-2 1-2 1-2-3-1h-3l-3-1h-1l1-2 3 1h2l1-1-5-2c-2 1-3 1-3 3l-3 1-3 1h-2l-2-1 2-3 2-4 1-1h1-5l-1 1-1 3v2h-1l-2-1 4 6v2l-2 6-1 4-1-1-3 2-2 1-2-1c-1-1-1-1 1-2l2-1-1-2c-1-2-4-2-4-1v1-3c1-2 2-2 5-2h4l1-2v-2l-3 1c-1 2-1 2-2 1 0-1-1-2-2-1l-2 1-1-3-2-2-1 1 3 4-1 1h-3v-2l-2-3 2-3v-2l-2-1v4l-6-1 1-1 1-1h-1l-1-1h-1l-3 2v2l1 2 4 1c3 0 3 0 3 2v2l2 2c2-1 3 0 3 3l-1 2c-1 1-2 0-3-1l-2-2-3-1-3-3-3-1 1 4 3 2 2 1c0 2-1 3-2 3v2c1 2 2 2 4 2 1 1 2 0 3-1v-3h3l2 3 2 3 1 2-3 1-4 1-1 2-3 2-4 1-2-2h-4l-2 1 5 1h1l-1 2h-3l-2 1v1h4c2 1 5 1 7-1l3 1 1 2c0 1 0 2-2 2l-1 1 1 3 1 2h2l2-4 1-1-2-3-2-3 2-2 2 1 1 1c1 0 3-4 2-5 0-1 2-1 3 1l2 3 1 2 1-1 3 1c1 1 2 6 1 8v2h1c1 0 4-4 4-6v-1c1-1 3 1 4 3v2h-1l-2-1c-2 0-2 1 0 2l1 3-1 3 2 2c1 2 2 2 1 5v4c1 1 1 1-1 2l-3 1h-2v15l-1-1-2-2-2 1h-1c-1-3-1-4-3-5l-6-4-2-1-4-2h-3l-3 1h-6l-3-1-1-3v-3l1-3v-3l-1-2-1-1-2-2-2-3-2 1-3 2v1c1 2 1 2 3 2h2l1 2 2 4c1 1 1 1-2 1l-3 1c-2 2-2 4-1 4l2 1h3c3 0 3 1 4 2v2l-2 1-3 1c0 1-1 2-3 2l-2-2c-1-3-4-4-6-3l-2 3 2 2 3 2h7l4-1 2-1 3-1 3-2h4c1 1 2 1 2 3-1 3 0 4 2 4l3-3-2-1-1-2c0-1 2-1 4 1l3 2 1 1 2 2c2 0 4 3 5 6l1 4 2 4c0 1 1 2 2 1v-3c1-2 0-3-1-4l-1-2 1-1 3 4c0 2 1 2 1 0l1-1c1 2 0 4-1 4l-1 1v3l1 2 1 2 1 1-1 1-1 8-1 7-2 1-2-3c-1-3-3-4-3-2l1 2v2c0 2 0 3 2 4 1 2 2 2 1 3h-2l-2-2-2 4-1 2-1-2-2-3-3-1-2-1c-1-1-5-1-8 1-2 1-3 1-3 3l2 2 3 1h3l-1-3v-3h2l3 3 5 4 3 2c1 2 1 2 2 1v-4l2 2v3l-1 3-1 3 2 2 1 3-1 2v5l1 3 1 1 1 2c2 0 3 4 3 5l1 3 2 8h-2v11l1 4-1 3-2 4v3h-2l-1-4c-1-3-3-4-4-3l-1 1 2 2 3 2-1 3-2 5v4l1 3v1l-1 1 1 1c0 2 2 3 2 1l1-1 2 3 1 3 1 1v3l1 2h2l1 1-1 2c-2 0-2 0-1 1l1 2-1 1-1 4a28 28 0 0 1-5 12l-1 1-2 2-2 1-2 1-3 3-3 3-4 2-1 3-1 3h2l1-2v-2l1 2v3l-1 4v4l-2 1-1-1 1-2 1-2-1-2h-3l1-1v-5l1-3 1-2 4-2 3-3 2-3h1l2-1v-2h-1l-3 1-4 1-5 1c-2 0-2 0-3-2l-2-1v2l-1 2v-4l-1-3-1-2-1 2-2 1 1 1 1 2v2h-2c-1-1-1-2-2-1l-1 2-2 2v-2l1-2 1-2 1-3v-2l-4-1-3-1-2 3v4l1 2h-3l-2-1-2-1h-3l-2 1v2l-1-1-1-3h2l3-1 3-1h2l2-2v-1l-2-1c-1 0-2 0-1 1v1l-7-3h-3l-2 1v1l-2 1h-2l-1 2v1l-2-1-2-1v5l1 5v-1l2-1v2l-1 3c-2 1-2 1-1 5v20a412 412 0 0 1-3-67 433 433 0 0 0-1-70v-16l-2-1h-1l1-1 2-2v-5c0-3 0-3 2-4 1-1 2-1 0-2l-1-1c-1 0-3-2-2-3h1l3 1h5l9-1 2 1 3 1h2v-1l-3-2-6-3h-5l-2 2-3-1-3-2c-1 0-2 0-3-2-1-1-1-1 1-3v-8l-1-5v-5l1-3a59 59 0 0 0-2-15l2-4 2-2-2-1-1-7v-17l3-2 3-2-2-1-3-1v-8a538 538 0 0 0-2-53 549 549 0 0 1 1-65 3779 3779 0 0 0-1-54 129 129 0 0 1-1-33 278 278 0 0 0 0-38V98l-1-15 2-1 2-2 7 1a199 199 0 0 0 40 1 26941 26941 0 0 1 68 0l39-1a6370 6370 0 0 1 201 2 647 647 0 0 1 65 3 143 143 0 0 0 0 38 842 842 0 0 1 0 37l-2 9-3 7-4 7 6-6h2a34 34 0 0 1-7 10l-1-1v-1l-1 2v4l4-5 1-2 1 2c0 2-2 6-4 7v2l-1 1-1 1-1-1c-1-1-1-2-2-1l-3 4-2 6v2l-1 4-2 3-2 2-1 4-3 4-1 4 1 1v2l-1 2c-1 0-6 5-7 8l-3 4-1 4c0 2 0 2 1 1h4a40 40 0 0 0 7-8h-1v-2l2-3 1-4 1-3c-1-1 1-1 2-1l2 1h1l-1 3-3 2-1 2v2l3-1 2-1v2l-4 2-4 3a96 96 0 0 1-5 6l-3 4-5 3-3 2a54 54 0 0 0-10 12l-1 2-3 8-1 2v2l-4 7-6 13-1 1v4l-2 6-1 6-1 5-3 4-7 6-1 4h2l1 1a1231 1231 0 0 0-3 0l-5 5-4 7-1 3-3 5a251 251 0 0 1-5 9c-1 2-1 2-4 2l-6-1-6 1c-3 1-4 2-5 1l-3-1-4-1-2-2-2 1h-1v-2l-3 1-2 1-1 1-1-2c0-1 1-1-6-2l-3-1-3-1-6 4-5 4c-1 1-1 1-1-1l-1-1-3 1c-2 1-2 1-1 2v2l-2 1-2 1h-9l-2-1-1 1-1 2-3 1c-1-1-2 0-2 1l-6 3a1084 1084 0 0 1-6 4v2h4l6 1c1 1 2 2 1 4h-1l-8-3-3-1h-4c-1-1-1-1 1-1l2-1-1-1-5 1-2 2 3 1h3v5l-2-1-4-3c-3-3-3-3-6-2h-4l-1 1-2 1h-1l2 2 1 2-3-1h-2l-3 1 1-1c2-1 2-2 1-2l-4 3 1 1h-2l-2-1-1-2-3 2-3 1h-1l-3 1-2 1v2l-2-1h-4l3 2h3l2-1 1 1c-1 2 0 2 1 1l4 1 4-1 3-1c2 0 2 0 1-2 0-1 0-2 2-2h2l1 2-1 1c-2 1-2 2-1 2v1c-1 1-1 2 1 1v-2l1-1h2v2l-2 3h-4l-4 1-2 2-2-1-5-1-2-1-2-2h-6l6 3h1l-2 1-4 1h-3l-5-2-2-1h-1v1h1c0 1-1 2-3 2h-4l2-1 1-1-3-2h-4l-1 2v1l-1 1 1 2h-4c-4 0-5 0-8 2l-4 1-2 2-3 1-2 1-1 3-2 3-1 3 2 1h2l1-1 1-1 2-2 3-3 2-1-2-1-2-3 3 1c2 1 2 1 4-1s3-2 3 1l1 3h3l1-1 2-2 2 1-1 3c-1 4-4 7-6 7h-1v1h2l4 1 4-1h2l2 1h6l3 1-2 1h-7l-3 1-3 3-2 3-5 1c-3 0-4 1-5 2l-3 4 4-1 4-2 2-1 1 1-1 1-2 1 3 1 4 2 2 1c1-1-1-3-2-3l-2-1-1-1h2l2-2h2l-1 1c-1 1-1 1 2 4l3 2v-4l-1-3c-2-1-2-2-1-3h2l1 1v2l1 1h2l3-1 2 1c1 1-1 2-3 3l-3 2v3l2 1 6-1a166 166 0 0 1 7-2l-1-1-3-2-1-3-4-7-1-1 2-1 2 1 4 1 4-1h3l2 1v4l-1 2-1 1h-2v3l1 2-1 1c-1 1-2 2-1 4s3 2 5 1l2-1 1-1v-2l3-2 2 1v2l-2 2-1 1 7-3 2-2 1 1h2l-1-1-1-1 2-2h4v-2l-2-1h-2l1-2h2l2 2 1 1 2-2 3-1s3 3 3 5l-2 2-4 1h-3l-1 1h-2v2h-2c-1 0-3 1-2 2h2a1557 1557 0 0 1 18 2l-3 2-4 3-7 2-8 2h-6l11-3 8-2 3-1-3-1-7-1-4-1c-2-1-4-2-6-1l-1 1c2 1 1 3-1 4l-3 1c-1 0-4-1-5-3l-1-1h-7l-1 2 5 1 4 1h-10l-2-1-2-1-1-2-2-3-6 1-1-2-3-2-5-2-4-1h-4c-3-1-3-1-3 1l2 1 3 1-2 2h-2l-1-1h-2l-4 1-4 1h-5l-5-1-3-1h-2c-2 2-1 4 1 6 3 3 3 4 0 6l-2 3c-1 2-2 2-4 1l-1-4v-3h-2l-5 2-4 2v4l-1 6 1 3v7l2 7 3 4h4l7-1 1-3v-3l4 1-1 2v2l6 1h7l4 1 3 1 3-1 3-1 2-1c1 0 2-1 2-3l-1-3c-1-1-8 0-10 1l-6 1-5 1-2 1-1-1-5-4-15 1h-3l-1-2 1-1 6-1 6-1 2-1 2-2-2-3c-1-2-2-2-5-2h-8l-2-1 2-1 8-1 7 1h5l8-1 5 2h4l5-1 5 1 3-1h4l7-1 8-1 7 1 2 2 4-1c3-2 4-2 5-1l13 1h3l2-1h9a41 41 0 0 1 17 0h4c2-1 8-2 11-1h11l9-1 9 1h3l3-1 3-1h17c3-1 4 0 7 1l5 1 6-2 5-2 2 2 2 1 1-1v-7l-1-5a362 362 0 0 0-2-29l-2-1v3h-1l-2-1-3-1h-2l-2 1-1-2 1-2h1l1-1 1-2-1-1-1 1-2 3-3 1-5 1-1-1c1-1 0-1-1-1-2 1-2 0-2-2l-1-3v-1h4l2-1 1-1 4-3 3-3c0-2 2-2 2 0l-2 2c-2 1-4 3-2 3v1l1 2 1-1v-1l1-2 2-2 1 3c1 3 1 3 2 2s-1-5-2-5-2-4-1-7c0-2 0-2-1-1l-2 1v-1l1-1 2-1 1-2v-1l4-2 1-1v1l-2 3-3 4v2l5 1h3l1 2h2l-2-4c-1-1-2-2-1-3h1c1 1 1 0 2-1l1-3h-5l1-2 3-2 3-2-1-1v-2l3-6 1-1 3-6 2 1h1l-1 2-5 6v5l-1 1-1 2-1 1 2 1 2 1-1 1 1 1v1l2-2 5-7 5-6 1-2 2-4 6-7 3-3 1-5 1-6 2-6 2-5 4-5 2-2 3-6h1l-1 3v5c0 1-1 2-2 1-3 0-4 1-5 4l-2 6-1 3-1 2v3l-1 4-1 2-1 2-2 4-5 5-1 4-1 1-3 6 1 1 1-1 2-1 1-1 2-1c2-1 2-1 2-3l1-3 2-2 2-1-1-2c-1 0-1-2 1-4l1-2 4-6-4 10v2l1 1 3 1 2-1 1-2 1-2 1-2 1-2v3l-1 3 2-1 1 1 4-5-1-2v-1l5-2 3-1h2l1-2 1-1 1 1 1 1 1-2 1-7v-2c0-1 0-2 2-3l2-3 1-2c1-1 2-1 2-3v-3l1-3v-3l-1-1 1-3 1-3 3-4h1l-2 4-1 7c-1 12 0 11-3 14-2 1-3 3-3 5l-1 3-3 6v3h1l2-4c0-2 3-6 5-6v-1c-1 0-1-4 1-4v2h1v-6l1-1 1 1c2 1 2 1 1 3 0 3-1 3-2 4l-2 1 1 1h6v1l-1 2 1 1 1-1 1-2 2 2 1 1 2-3 1-1v-2l-2 1h-2l2-2v-5l2-1 1-2 2-4 1 2 1 2c0 1 0 0 0 0l1-2 2-2-2-1-2-2 1-2 1-2v-2l1-1 1-3c-1-1-1-1-2 1l-2 5c0 1 0 1 0 0-1-1 0-2 1-3l1-3v-2l2-4c0-2 1-3 2-3v1l-2 5 1 2h2l-3 5-2 6h1l2-1 1-2 1 2v4a102 102 0 0 0 0 16c1 1 2 7 1 9l-1 1-1-3-1-3c-1 0-8 3-9 5l-1 5v4h2l4-2h7a66 66 0 0 1 0 25c0 4-1 4-2 6l-4 2-3-1-2-1-2 5 3 1 3 1c1 0 2-1 1-2v-2l1-1 3 2 1 5c0 2 0 3-2 5s-2 2-2 5l2 4v4l-1 5 2 1 1 2-1 1-1 2-1 3-2 2 2 1 2 1-2 1-3 2-2 1-2 1-1 2v1l3-1c2-1 2-2 3-1v2l-1 1c0 1 2 0 3-2l1-1 2 1c2 1 2 3 0 4h-3l-2 1v4h-2l-2 4 1 1 3-1v-3h2l2 2-1 1v2h1c1 1 0 2-2 3l-4 2-4 1-1 4c0 2 0 2 3 3h3l1-2 2-1 1 1-3 3c-2 2-2 2-4 1s-4 0-4 1v2l-2 1-2-1-2-1-1 2 1 2h10l-1 2-1 2h2l1 1 3 1 2 1-3 2h-8l-6 1-5 1-2 2 1 3-1 3c-2 1-2 2-4 1l-1 1 3 2 2 1 2 1h1v-2l1-3 2 2c2 1 2 2 2 3l1 4 5 1 5-1 1-4-1-3h-6l-3-1c1-1-1-1-3-1l-2-1c0-1 5-2 6-1v-1l-3-2h-2v-2h8l3 1v2l1 3 4-1 5-1c1 1 0 4-1 4l-3 1-1 2 1 4c0 2 0 2 2 2l2 1-2 2-4-1h-9l-3 1v8l3-1 5 1 2 1-2 2h-11v1l2 2 8 1 3 1v2l-3 1c-2 0-3 0-2 1v5l-2 1 2 2 2 2 1 2c0 2 1 2 6 3l2 1v-4l1-4c1 0 2 0 2 3l1 6v2h-7l-4-1-5-1-2-1-2 1-2 3c2 4 2 4 5 5h10l2 1h3l1 2-1 2h-3l-3-1c-2 0-4 1-4 3l2 2v3c1-1 6 2 6 4l-1 2h-2l-6-2h-5l-1 2-2 3v4c0 1 0 2 2 1l2 1 2 2 2 1h4l4-1 1 2v1l2-2v-3l-1-4c1-6 3-2 3 6l-1 6h-7l-2 2-1 1v-2l-3-4-3-1h-2l-3-2-3-1-1 1v7c0 3 1 3 2 4h3l1-1-1-4v-2l1 3 2 3 2 1 3 1h4c0 1 0 2-2 2l-4-1h-9v3l1 5c1 1 1 1-1 3l-2 2v-9l-1-1-2 4c0 5-1 6-3 5l-1-2 2-3 1-3 2-2 1-3-4-3c-3-1-4-2-5-1h-1l2 1c2-1 2 0 2 1l-2 1-2-1-3-1c-2 0-2 0-1 1v11l-1 1 1 2h1l1-2 1-2v3l1 6v6c0 1 1 1 2-1l2-2v3l-1 5-2 2c-2 0-2 0-2-3zm-18-22 2-1-1-2v-3l1-3h-3l-2-2-1-1v1l-1 2v2l1 2 1 3 1 3h1l1-1zm13 0-1-2-1-3-1-4v-2l1 2 2 1h1v-2h2l4-1 2-2-3-1-8-1-7-1-3-1-3-1-5-1-2-1 8-2 3-1-3-2c-3-1-3-1-6 1-3 1-3 2-3 3l2 7h4l2-1 3 2c1 2 2 3 3 2l2 1 1 5 1 5 1 1 2 1 2-2zm-45-16-1-1v4h1v-3zm20 1h-1v1l1-1zm-254-1c1-1 0-2-1-2l-1 2 1 1 1-1zm290 0 1-3v-5l-2-3-1-7-1-10-1-3 1-2 1-1v1l1 2 1-5-1-5c-1 1-1 0-1-2l-3-13-1 1a305 305 0 0 0 3 52c-2 0-2 1-1 2l2 1h2zm-7-2-1-2-5-1c-2-1-4-2-5-1h-1l1 1 2 1h-2c-2 0-2 0-1 1l5 1a226 226 0 0 1 7 0zm-48-1 1-1 2 1v-3l-1-14c-1-3-1-4-2-3l1 12-1 4-1 2v-2l-1-2c-1 0-3 2-3 4l-1 1 4 2 2-1zm64-3v-3l-1-3-1-2h-2v3l1 3v3l3-1zm-84-2-1-2-1 2v2l2-2zm-5-1-1-3v-5l1-4-1-3-2 3 1 6 1 5 1 1zm39 0-1-1v1l1 1v-1zm20 0v-1l-1 1 1 1v-1zm-39-1 2-1h1v-7h-4v2l1 2-3 3-1-2-1-1-1 3 2 1 2 1 2-1zm-9-1-1-2-1 2 2 1v-1zm33-1-1-3-2-2-1 2 1 3c1 1 3 2 3 0zm3 0 2-1v-10a246 246 0 0 0-4-39l1-6 1-3h15l4-1h-8c-9 0-10-1-8-3l2-1h-4l-3 1-2-1v-1l2-1 4-1h-4l-5-1v-1l1-1c-1-1-7 0-8 1v2l-1 1-1-1-2-1-1 2v8l1 1 4 3-2 1-2-1-2 1c0 1 1 2 2 1h4c2 0 3-1 3-2l1-2c0-2-2-4-4-3l-2 1v-6h5v-2h2l2 3c0 3 0 3 2 3 1-1 2 0 2 1l-2 13v5c0 3 0 4 1 3l2 1v3l1 5-1 4-1 2c0 2 0 3 2 3l1 7-1 6-1 3v4h2zm-307-2-1 1c1 1 1 0 1-1zm264-2v-3l-1-2v-1l-1 2v3l1 2v2l1-3zm-254-4 1-11-6-1h-4l-4 1-1 2 1 3c0 2 1 3 2 3l7 4v2l1 2h2l1-5zm-6-8-2-2h1l2 1 2 2v1l-3-2zm1 13v-2l-2-2v5l2-1zm7-1h-1l1 1v-1zm312 0v-1l-1 1h1s1 0 0 0zm-323-2v-3l-3-1c-2 0-2 0-3 2l1 3 3 1 2-2zm271 0-1-2-5-1 2 1 1 2 1 1 1 1 1-2zm4 0c0-2 0-2-1-1v2c0 1 1 1 1-1zm81-3c1-3 0-3-1-5l-4-1h-7c-2 1-2 1-1 4l1 4h2l2 1 5 1h3v-4zm-400 0 5-3 1-1 2 1c2 2 3 2 6 2l4-1v-2l-1-4c0-1 1-2 2-1h1c1-2 0-2-4-2l-7 1-3 1-2-1h-9v6c0 4 0 5 2 5l3-1zm5-5-1-1c-1 0-2-1-1-2h2v3zm340 6-1-1v1h1s1 0 0 0zm-213-2h-1v1h1v-1zm-94-2v-3l-1-3h-3l-3-1h-2l-2 1 1-3 2-1 3 1h8l3-1 4 1c1-1 2-1 2-4 0-5-1-7-4-9l-3-1-2 1-1 1h-2l-3 1-1 2-5 6-6 4c-1 1-2 3-1 4v1l-2 1c-1 0-2 1-1 2l11 1 8-1zm5-21 1-1 1 1-1 1-1-1zm302 19c-1-1-1 0-1 1l1 1v-2zm-185 0v-4c0-3 0-3 2-3l2-1-6-1-8 1-2 2 1 2c-1 1 1 3 3 3l2 2c2 1 5 0 6-1zm216-1-2-1v1c2 2 3 2 2 0zm-317 0-1-3-1 3c0 2 1 1 2 0zm105-1c0-2 0-3-1-2l-1 3 2-1zm140 0 1-3-1-1-1-1v3l-1 3 2-1zm98 1c0-1-1-2-2-1v1h2zm-339-11-2-5v1c0 2-1 3-2 2l-1 1-1 3 1 2 1-1c1-1 1 0 2 3l1 4 1-3v-7zm267 9v-1l-2-1v3l2-1zm35 0v-2c-1 0-2 1-1 2h1zm-40-2c2-2 2-3 1-3-1-1-1 0-1 1h-2v4l2-2zm65 0 2-3-1-3c0-2-1-2-2-2l-1 3-1 4c-2 1-1 2 0 2l3-1zm-45-2-1-5-1-3c-1 1 0 10 1 10l1-2zm22 0h-1v1l1 1v-2zm-360 0 1-3v-3l-2-3-3-1-3-1-3-1c-1 0-2 1-2 3v6c0 2 0 2 5 2l2 2h3l2-1zm303-1-1-1-1 1 1 1 1-1zm-285-1 2-3c1 0 1-1-1-3l-3-3-4-1-2-2h4l3 1 5-1 5-1h6l1-3-1-4-1-2h1l3 7 3 2 4 1h2l-1 2v7l1 3h1l1-19-1-6-3-2-5-1-4 1h-1v-1c0-1-1-2-4-2-2 0-3 0-2 1 0 2 2 3 3 3 2 0 4 1 3 2l-3 1h-3l-1-3c-2-2-2-2-1-3l2-2v-7l-5 1c-2 1-3 2-5 1l-3 1h-3l3-1v-3l2 1 2 1 4-2h9c2 0 2 1 6 5l3 1 3 2c2 1 4 1 4-1v-15l-2-2-2-2-2-1-2 1c-1 2-3 3-5 3l-4-5-1-1-2-1-2-1c-2 0-1-5 2-6l1-3-1-6-1-4h-6l-3 1c-2 1-2 1 0 1l3 1c3 0 3 0 2 1h-4c-4 0-4-1-4-2l-2-1h-2l-3-1c-2 0-3 0-5 2s-2 2-6 2l-3-1-2-1-3-1h-1v10h14l3-2v-4l2-1 2-1 2-1 3 3-2 1-2 1-1 2v2l3 1h9l-1 1h-6a1411 1411 0 0 0-15 1l1 5c0 3 0 4 2 5l4 1 5-1h6l1-2v-2l2 2c1 2 1 2 4 2h3l-3 2h-13v1l2 5v4l-2 2-5 1c-2-1-6-1-7 1h-9v2l2 2h-2l-1 2v2l5 1 7-1c3-1 3-1 2-3v-3l2 3v2l3 1h9l4-1c1-2 1-2 2-1l-2 3c-3 2-3 2-5 1h-5l-3 1 2 1 2 1v3l-2 6-4 3h-5l-1 1 3 2 2 3 1 2 1 1-1 2h6l7-1zm20-24c0-1 2-2 3-1l1 1h-4zm-45-7 1-1v2l-1-1zm46-7c-1-1-1-2 1-2s3 1 1 2h-2zm-8-2v-5h1v5h-1zm266 37-1-7-1-2v-2l-1-1 1 11v3l1 2 1-4zm15-4v-7l-1-1-1 2v7l1 5 1 1v-7zm52 5-2-1-1 1v1l2 1 1-2zm-36-4 1-2-1-1v-2l1-3v-1l2-1 1-1-1-1-2-1-1-1-1-1-1-2-1-1h3c3 0 3-1 2-1l-1-1-4 1-2 1v4l1 7 1 4v4l1 1 2-2zm33 0c-1 0-2 0-1 1h1v-1zm-336-1 1-3-2-1c-3 1-4 2-3 4l2 2 2-2zm339-1h-1l1 2h1l-1-2zm26 0 1-2-1-2c-1-4-2-5-3-5l-4-1 4-1 4-1-2-1h-3l-2-1-3 1-1 6 1 6 2 1h1v1h-1c1 1 5 1 7-1zm-67-2-2-6-3 3v4c0 2 0 2 2 2l3-3zm35 2c0-2-1-2-2-1l1 2 1-1zm18 0-1-1v2l1-1zm-69-2v-1l-5 1 4 2 1-2zm-310-1 4-1 7-2-1-8-1-2-2-2-3 1-6 1-6 1v11h2l2 1h4zm2-8h1-1zm302 4c0-2-1-2-2-1l1 4 1-3zm6 2c0-1-1-2-2-1l1 1h1zm39-3v-1l-1 1h1zm-47-4v-1l-2 1h2zm9-3-2 2h1l1-2zm12-2v-6l-1 1v3c0 2-1 2-2 2v-4a95 95 0 0 0-1-24l-1 3c0 4-2 4-3-1 0-3 0-3-1-2l-1 8 1 10c0 2 0 3 2 3l1-4 1-4v4l1 14 3 1 1-4zm54-2-1-8-2-1-2 2 1 4 2 2 1 3v3l1 1v-6zm-40 5-1-1v2l1-1zm11-2h-1v2h1v-2zm26-3h-1v4c1 1 1 1 1-1v-3zm-37 2c2 0 1-1 0-1l-2 1h2zm-27-3c1 0 1-1-1-1l-2-1-3-1h-2l2 2c2 2 4 2 6 1zm-267-1-1-1-1 1h2zm298-3-1-4-2 4 2 2 1-2zm45-4v-3l-1-2c-1 1 0 5 1 8 0 2 0 2 1 1l-1-4zm-155 3 4-1 1-2-1-4v-2h-4l-4-2-3-1-5 2-4 1-2 1v3l2 4 5 1h11zm-6-1v-1h8-1l-2 1h-5zm-189 0-2-1 2 2v-1zm37-1-1-1h-1l1 1h1zm208-1 1-2-1-1-2 3h2zm14-2 3-3 2-4-1-1-2 1-1 2-2 3-2 3 1 1 2-2zm88 1-1-3-1-2v-4c-1-1-1-2-3-2h-6l-5 1-5 1-11 1 8 1 12-1h2l-1 2-4 4-2 2h1l3-1 3-1c2 0 2 0 2-2l1-1 1 2c0 2 1 2 2 3l3 1 1-1zm-386-1-2-2 1-1 2 1 7 1h6l1-3c1-5-1-6-8-6a236 236 0 0 0-13 1v4c0 3 0 3 2 4l2 1 2 1h2l-2-1zm-1-4v-4h1v2l-1 2zm63 4v-2c-1-2-2-2-2-1v2l1 2 1-1zm265-3c-1-1-2 0-1 1h1v-1zm35 0c1-1 0-1-2-1l-3 1 2 1 3-1zm-286 0 2-1v-1h-2c-2 1-3 3-2 3l2-1zm235-1 1-2h-1c-2 0-2-3 0-4l2-5h-1l-1-1v-1 4l-1 2-2 3-2 4 1 1h2c0 1 1 1 2-1zm57 0h-1l1 1v-1zm-307-5 1-5v-2l-1-1-1-2-2-2-1 1-2 2-1-2h-2v1h-3l-3-2-1 1 2 1 2 1 2 1 3 2h2l1-2v-1h2v5l1 5c1 2 1 1 1-1zm161 1 5-1 4 1c2 1 4 2 5 1h4l3-2h4l2 1 6-3c0-1 0-3-2-3l-1-2 1-1h-8l-1-3h-2c-2 2-6 3-7 2s1-2 3-2l3-3-2-2c-1-1-2-2-5-2l-4-1-7-1-7 1v3c1 3 1 4-1 5-2 2-2 2-7 2l-4 2 1 2v2l1 2 3 1 5 1 4 1 4-1zm12-2v-1l1 1v1l-1-1zm-5-4-2-3-2-1-4 1h-4c-2-1-1-2 3-2 4-1 14 0 14 1l-2 1-1 2-1 3-1-2zm-20 0c0-2 1-2 1-1l1 2c-1 1-2 1-2-1zm118 6 1-6-1-6h-2v11l1 2 1-1zm-170 0h-1v1l1-1zm-93-1-1-1-1 1 1 1 1-1zm22-1 1-3 1-4 2-3h1v3c0 2 0 3 2 3l1 1v-4h5l7 1h4l3-1v-6h1l1 2 2 3c2 2 2 2 4 1l10 1 3-1 4-1c1 1 2 1 2-1l1-1 1 1 6 1 5-1h6c4 0 4 0 6-2l2-5h-9l-11 1c-3 1-3 1-5-1l-4-1a4496 4496 0 0 0-19 3l-4-2h-11a225 225 0 0 0-19 1v2l-2 5c-3 2-3 3-3 8v1l6-1zm54-12v-2l2 2h-2zm214 12 12-2 7-1v-1h-5l-9 1h-7l-5 2-2 1c-1 0-1 0 0 0l2 1 7-1zm-21-1 1-3c0-3 0-3-2-3l-2 2c0 3 1 5 2 5l1-1zm-332-1c1-1 2-1 2-3v-4l-1-3-4-2-4 1v8l2 3 2 1 3-1zm307 0h-1v1l1-1zm29-2-1-1-1 1 1 1c1 0 2 0 1-1zm-294 0v-2l-1-1-2-1-1-2c1-1 0-1-1-1h-2l-1 1 1 1c-1 1 0 1 1 1l2 2c0 2 3 4 4 2zm305 0 2-1 9-1h7l2-2-2-2-5 1-6 1h-4l-5 4h2zm-259 0v-1 1zm255-1-1-1-1-1h-4l1 1 5 2v-1zm57-1-2-1v1h2zm-78-5-1-4v8l1-4zm61 3-1-2c0-2 0-2-5-2h-8l-3 1 3 1h9l2 1c0 1 1 2 3 2v-1zm-63-2-1-1v3l1-2zm-133 0 3-1v-5h-2c-3 1-4 1-7-1l-2-1-4 1-4 2-2 1h-1l1 3c1 2 1 2 7 2l11-1zm147 0h3c5 1 6-1 1-5-2-3-3-4-5-3l-2 1-1 3c0 3 1 5 2 5l2-1zm-22-1v-1 1c0 1 0 1 0 0zm-252-5c-1-1-1-1-1 1l1 3 1 1v-2l-1-3zm257 3h-1v2l1-2zm31 2-1-1-1 1h2zm-28-1-1-1v1h1zm38 0 5-1c1-1-3-2-6-2h-3c0-1 3-3 5-2l3-1 3-2 2 1 3 1 1-2c-2 0-2-2-1-3h3l2-1h-7l-7 1-4 1 1 2 1 1-2 1-5 1-4 2v3h10zm-301-1v-1 2-1zm24 0-1-2v-3l-1 2 2 4v-1zm-30-1-1-2-1-1c1-1 2 1 3 2v2c1 0 2-4 1-6l-3-2-2-2-3-1-4-2-2-1v12l3 1 5 1 4-1zm-7-2-1-1c0-2 1-2 3 0 2 1 2 1 1 2h-1l-2-1zm282 0-1-5v-7c0-2-1-2-2-2h-1l-1 1c-1 1 0 4 1 5l1 4v6l2 1 1-3zm-291 1v-1h-1l1 1zm338-1c2 0 6-3 6-5h-3l-4 1 1 1-1 2-1 2 2-1zm15 0 7-2-1-2-3 1-3 1-9 2h9zm-69-2c1-2 0-5-1-5s-2 2-1 3v2l1 2 1-2zm-171 0 4-1 1-2v-2l-1-2h-4l-3 1h-2l-9-2c-5 1-5 1-5 4l1 4h11l3 1 4-1zm-14-3 4-4h1l-4 5-1-1zm60 2h5l3-2 1-3v-2h-9l2 1 1 1h-9c-3 1-4 0-2-1l2-1h-7v2l1 1c1 0 2 0 1 1l1 1c1 1 0 2-1 1l1 2h4l6-1zm-22 1 3-1h3l1-3-1-3h-10l-2 2-2 1h-2c0-1 1-2 3-2l1-1c0-2-5-2-10-1l-1 2 1 1h2l-1 2-1 2h6l4 1 3 1 3-1zm-113-2c0 2 0 2 1 1l-1-1zm-3 0c0-1 0-1 0 0v1-1zm182 0h7l6-1v-2l1-2 1-1v-1h-3l-3 1h-4l-4-1-4 2-4 2-2 1v2l3 1 6-1zm109 1 1-1h-2c-2 0-2 0-1 1h2zm6-2-1-1-2 2h2l1-1zm-317-3c0-2-1-2-2-2v6l2-1v-3zm350 4-2-1-2 1h4zm-162-1 2-2 1-3-2-1-3 1-1 1c-2 0-2-1-1-2l1-1h-3l-3 1-2 2-2-1-3-1-2 1 1 3 1 3h7l9-1zm43 0 3-3 2-3h-1l-5-2h-3l-3 1-1 1-2 1c-2 0-4 2-3 4 0 2 0 2 6 2l7-1zm69-1h6l7-2 4-1c3 0 3 0 3-2l-1-3h-1l-1 2-3 1c-4-1-4 0-5 1h-1l-2-1-4 1h-8c-1-1 1-2 4-2l7-2c5-2 7-2 11-2l5-1 5-2h4v-1h-12l6-4h3l3 1 2-1h3l3 1-3 1-2 1v1h2l6-2 8-2 5-1h3l4-2 1-1 2-2-10 3-10 3-1-1 5-2 5-2-5 1h-12l-2 1h-4l-15 5-1 2h3l-3 2-9 1a32 32 0 0 0-12 3l-1 2v2l1 3 1 2 6-1zm-230-2-1-2h-1v1l1 1h1zm283-1h-1l-3-2-3-1-1 1h-2v2l6 1 4-1zm-386 0-1-1-2 1 1 1 2-1zm48-1-1-2h-2l3 4v-2zm267-2v-3l-2 2-1 2 1 2c1 1 2-1 2-3zm-243-2zm301 2v-2l-1-3c0-1 0-2-1-1l-11 2-6 1 1 2 10 1h8zm-198-1 4-1 2-2-1-3-1-3h-7l-7 1h-1l-1-1-3 1-2 1c-1 1 0 2 1 4l4 2 2-1c0-1 1-1 1 1l5 2 4-1zm-175 0 7-1 1-3c0-2-2-6-4-7h-5l-3 1-2 1v1c-1 1-2 0-3-1 0-1-2-2-2 0v2l1 2c0 1 0 2-1 1v4h11zm127-1 3-1c2 0 3-1 2-3s-4-3-9-3l-7 1c-2 0-2 1-2 4l1 3 2-1 1-2 2 2h2l2 1h2l1-1zm25 1 3-2 1-2-6-6-2 1h-7l-1 1-1 2-2-2-2-1v4l2 1 1 2v2h5a255 255 0 0 1 9 0zm-131-1 4-1c1-1 2-2 1-3 0-2-3-5-5-5h-1l-2-1h-2l-1-1-2 1v3h-3v6l2 1h9zm11 0c1-1 2-2 3-1h4c3 0 3 0 4-2l1-2 1 2 1 2c1 2 1 2 2 1l1-6-1-7c0-2 0-3-3-5l-2-2h-8l-9 1h-4l-4 1-3 1-2-1c-2-1-2-2-2-4v-2h-3l-3 1v-3l-1-4-1-3-6 2h-8v18l2 1c3 1 9 0 12-2l7-1h-1l-4 2 9 1a469 469 0 0 1 31 1l-2 2v3l-2-2-4-1h-4v-1l-2 2-1 1v-3l-2-1-3 1 1 3c2 1 2 3 2 4v2l-1 1h5zm-37-21 6-3h2c0 1-3 3-6 3h-2zm113 21 3-1v-2l-1-3h-1l-3-2h-4l-4 1h-2l-1 1 1 3c0 2 1 3 3 3l4 1 5-1zm100-1 2-1-1-3c-1-3-2-3-4-4l-4-1-5 1h-4l-7 1-1 3 1 2 2 2h2l5 1 14-1zm25-1c2-1 2-1 1-2l-1-2-1-2-5-1h-8l-3 3v1l-1-1c-1-1-2-2-3-1l-1 1 3 3 3 1 5 2h6l5-2zm22 0 1-4-3-3-4-2-3 1-2 1-4 1-4 2c0 2 1 2 2 3l2 2 7 1h7zm125 1 4-1h9v-2l-2-2-3-1-2-2-4 1-5 2-3 1 1 3c2 3 3 3 5 1zm-111 0 2-1c2 0 4-2 4-3v-1l-2-3c-2-2-2-2-5-2h-3l-3 2-1 1v1l-1-1-1-1h-2l1 3 2 2 2 1 3 1 1 2 3-1zm18-1 2-4-1-3c-1-2-2-2-3-2h-3l-2-1v3h-4l1 2 2 4 3 2h3l2-1zm32 0v-9l-1-3-1-3-1 1v8c0 4 1 6 2 6h1zm9-1h-2l1 1 1-1zm3-2h-2l1 1 1-1zm-8-1-1-2v3l1-1zm22 1-1-1-4 1h5zm-17-2 2-1 3 1h2l5-2-1-1v-4c-1 0-2 1-1 3l-2 2v-4l-1-4h-4l-4 1-2 1v8l1 1 2-1zm65-2h-1l1 1v-1zm-383-1-1-1v2h1v-1zm339-2 2-2v-1l-5 2 1 1h2zm42-5v-2c0-2 0-2 3-2l4-2 1-2-2 1-5 2c-4 0-5 0-6 2l-2 2 3 1h2l-1 1c-2 1-2 1 0 0l3-1zm-51 0-1-1v1h1zm18 0 1-2-3 1-1 1h3zm-268 0c1-1-1-3-1-3l-1 1c0 2 1 3 2 2zm228-5 1-1c2-1 1-5 0-5l-2-2-1-4-1 3 1 4v2l1-2 1-1v2l-1 3-1 4 1 2v-3l1-2zm9 3 1-6-1-4-2 1v10l2-1zm68 1v-1l-1 1h1zm-58-4-1-3v-4c-1-2-1-2-3-2l-2-1 2-1 2-1c1-1 0-4-1-4l-5 2-5 4 1 1h3l2 1-1 1 1 1 1 3v4l2 1 4-2zm44 1v-1l-2 1v2l2-2zm-363-1c1-2 1-4-1-4l-3 4 1 2c1 0 2 0 3-2zm350 1h-2l1 1 1-1zm-57-10c1-10 0-18-1-19l-1-4v-3l-1 2 1 3-1 5 1 6v15l1 5 1-10zm-285 9h-2c-1 1-1 1 1 1 1 0 2 0 1-1zm67 0-1-2h-2v1l3 1zm263-1c-1-1-1 0-1 1h1v-1zm6 0 1-2-2-1h-1v4l2-1zm14 0 2-1-2-1-3 2v1l3-1zm-295-1 3-1 2-1 2-2 1-2 1-2 1-2 2-2c7-8 8-9 10-9l2-1-2-1h-4l-5 4-5 3c-1-1-1-1 0 0l1 2-2 1v-2h-1v1l-1 2-2 3-3 3v2l3 1-3 1-3 1 1 2h1l1-1zm-57 0 2-2-1-2-1-1h-3l-2 1 1 2 2 2h2zm144-1v-1h-6c-1 1 1 2 3 2l3-1zm223-1 1-1 1-1 1-2 1-3-1-3-4 1c-3 0-3-1-3 5v3c-1 1-1 2 1 2h2l1-1zm-378-2c0-1-5-3-6-2-2 0-2 2 0 3l6-1zm66-3v-3h1l3-3 3-5 3-2 4-1-4-2-4-2c-1-2-2-2-3-2-2 0-2 0-3 3l-1 6-2 7-3 1c-2 0-3 1-3 3l-1 3 5-1 5-2zm260-2-1-2v7c0 1 1 1 1-1v-4zm20 5h-1l1 1v-1zm26-1-1-14-1 13 1 3 1-2zm-18 0-2-2 1 2h1zm-347-2 1-1-2-1-3-2-1 2 1 3 2 1 2-2zm135 1-2-2-2 1-1 1 3 1 2-1zm-127-1c1-1 0-1-1-1v1h1zm13-1 1 1-1-1zm9 1c0-2-1-2-2-2v2h2zm56 0v-1l-1-1c-1-1-1-1 0 0h5c3 0 3 0 3-2v-2h-2l-3 1c-1 2-2 2-4 2l-5-2-5 1v2l4 1 5 1h4zm-59-3 1-2c0-2 0-2-2-2-1 0-2 0-2 2-2 2-2 3-1 4s1 1 2-1l2-1zm-10 1-2-1-4-1h-1v1l6 2 1-1zm130 1v-1l-1 1h1zm-157-1c1-1-5-4-5-3l4 4 1-1zm-14-1v-1h-2l1 2 1-1zm30-1-1-2-1 1 2 2v-1zm-24-1-2-1-1 1 2 1 1-1zm20 0-1-1v2l1-1zm-4 0v-1h-3l3 1zm382-1v-4l-1-1v6l1-1zm-358-1-1-3-3-1-3-1-2-1v-1l-2 1-3 2-2-1-1-3c1-2 1-2-2-1-2 0-3 0-4-2l-1-2 1-2 2-1 1 1 1-1-1-1c-2 0-3 0-2-1 0-2-5-1-6 1l1 2 1 1v2c2 1 2 1 1 4l-2 1h-2c0 1 0 2 2 2 1 0 1 1-1 2l-3-1v-2l1-2 2-1 1-1-2-1-2-1h-3l-2 2 2 1h2l-1 1-2 2v1c2 2 7 3 14 3l7 1 7 2a595 595 0 0 1 7-1zm32 1 1-2v-1l-3 1-1 2h3zm34-1c2-2 2-2 1-3l-1-1-1-2h-2l-3 1-2 2v3l4 1 4-1zm31 1h-1s0 1 0 0h1zm255-2 2-3 2-4-2 1-4 1-3 1-2 2v3l3 1c3 0 3 0 4-2zm-206 1c1-1 0-2-1-1v1h1zm142-1 1-5v-4h-2l-3 1v3l-1 2-3 1-2-1-1-1v2c0 2 0 2 4 2l4 1c1 1 3 0 3-1zm12 0-1-2-1 3c1 1 2 0 2-1zm-294-1-1-1c-1 0-2-2-1-3h-1l-2 1 2 2 2 2 1-1zm267 0c1-1 0-4-1-3v4l1-1zm-242-3v-1l-1 1c-1 2-1 3 1 2v-2zm261 1 1-2 1 1 1 2h1v-3l-1-2c-1 0-2-1-2-4-1-2-1-3-2-2v11l1 1v-2zm-178 0 1-1h-6l3 2 2-1zm-40-1c2-2 3-2 5-1 3 0 3 0 5-2l2-3 2-1 2-2-2 1-5 2-4 2-2 1h-4c-2-1-4 0-5 1v2l2 2 4-2zm-59-1-1-5-2 4 2 2 1-1zm-19 0-1-1v1h1zm118-1 3-1h-12a3772 3772 0 0 1 8 1zm-104-2v-2l-1-2-1-4-1-2-4-2-3 1 1 1 2 5-1 2-1 1 2 2 4 2 2 1 1-3zm328 1-1-2h-3l3 4 1-2zm-378 0h-3l2 1 1-1zm388 0 5-6-4-1h-5v4l1 4h1l2-1zm-399-1h-2l3 1-1-1zm328-2-1-3-1 4 1 2 1-3zm66-16v-12l2 1 3 1c3-1 3 0 0 1h-3v9l-1 10h2l3-1 1-4 1-4-2-1h-2l3-2 3-2 2-1 2 1 2-1v-2l-2-1h-2l-4 2h-2l2-2 2-2-1-2v-5l1-4-2-1h-3c-1 2-1 2-2 1l-2-2-5 2h5v3l-2 5-3 1c-1 0-2 1-1 2s2 8 2 19l1 10c1 1 2-7 2-19zm5-17-1-1 3 2-1 1-1-2zM93 440h4l3 1c1-1 1-1-1-3l-3-1-1-2-2-1-7 4 1 1 3 2h1l2-1zm43 0s-1-2-2-1l1 2 1-1zm68 0-1-3-2 2-1 2h2l2-1zm-76-1-2-1c-1 0-2 1-1 2l3-1zm67 0v-3l-1-2-3 1c-2 1-7 2-7 0h-3l1 2 4 2 5 1 4-1zm224-4-1-6h-1v10c1 2 2 0 2-4zm73 4c0-1-1-2-1 0l1 1v-1zm-360-2v-4l-1-1c-2 1-3-1-3-2 1-1 0-1-2-1h-5l-2 2h3l4 1 2 1h-3l-4 1v3l2-1 5 1 3 1h1v-1zm366-1 1-3c0-2 0-2-3-2s-5 1-5 2l4 6c1 0 3-1 3-3zm-283 1-1-2-3-1 2-1 2-1 1-1-2-1-3 2-1 1c2 1 1 2-1 2l-3 1 1 1 3 1 5-1zm-106-1-1-1v1l1 1v-1zm301-2v-3h-2l1 5c0 1 1 1 1-2zm-306 1-1-3-3-4-1-2-2 1-4 3-2 1 1 1h9v2c0 2 1 2 2 2l1-1zm34 0v-2l-2 1v2h1l1-1zm27 0 2-1 3-2c2-1 2-2 2-5v-4l1-2c0-1-1-2-2-1l-1 1-1 2v4l-2 3-4 2v3h2zm259-4 1-4 1-7 1-3 1-1h-1c-1-1-1-1 1-4l3-3 2-1v-5c-1-1-1-3-2-2l-4 3-4 3c-3 1-7 5-7 6l1 4 1 5c-1 1 0 2 1 1l1-1 1-1c-1-2 1-4 2-4l1 3-1 2-2 3v6l2 3 2 1-1-4zm-4-16v-3l1 1v3l-1-1zm4-3c-1-1-1-1 1-1l1 1h-2zm-11 18v-7l-1 1v10l1-4zm17-1 1-5c1-2 6-5 8-5l6-3a513 513 0 0 1 43-20c1-2 0-5-1-5l-11 5a39 39 0 0 1-8 5 1868 1868 0 0 1-39 20l-1 4-1 5c0 2 1 4 2 3l1-4zm45 3v-3l-2 1-1 1 1 2 1 1 1-2zm-387-1-1-1-1 1 1 1 1-1zm121 0v-2h-2l-1 2 1 1 2-1zm-102-2c-1-1-3-2-4-1l1 2h3v-1zm331 0 3-3 3-2-1-2h-5l-4 2-2 4c1 2 1 2 3 2l3-1zm-316-2c1 0 1-2-1-3l-3 4h2l2-1zm10 2h-1c-1 0 0 0 0 0h1zm277-5-1-5-5 3 2 3 2 2 2 2v-5zm-223 1 1-2v-1l-2 1-4 4c0 1 3 0 5-2zm28 2v-1l-2-1v1l1 2 1-1zm-121-3 2-1-1-2-3-3h-2v4l-1 3-2-2h-4l1 3h6c4 0 4 0 4-2zm14 2-1-1-1 1 1 1 1-1zm58-1 1-2 2-1 1-1v-1l-1-2-1-2 2-1 3-1h2l1-2v-1l3-3 2-3c2-2 4-2 5-1s2-2 2-4 0-2-2-2h-2l3-2 1-1-3-1h-2l-1-1 2-2c2-1 3-2 1-2l-3 1c-1 0-1 0 0 0l1-1v-3h-3l-2 3-2 2 1-3 1-2h-2l-1 3-1 1v4l1 1 2-2c1-1 1-1 3 1l2 2 1 2-2 4-3 2-4 4-5 5c-1 2-2 2-3 2-2 0-2 1-3 2l-1 4v2l1 3c1 1 2 1 3-1zm331 0v-3c0-1-2-1-2 1v3c1 1 1 1 2-1zm-364-1-1-1-2 2 2 1 1-2zm48 1 1-3-1-2-3 2-2 2-1 1 3 1 3-1zm-76-2 2-3c0-2 0-2-2-2l-3-1h-2c-1 1 0 2 1 3l1 2 1 3 2-2zm14 1v-2l-2-1s-2 0-3-2l-3-1-2 1 1 1 3 3c1 2 1 2 3 2l3-1zm22 0 2-2-4-3-2 2 1 3v1l3-1zm54-2-1-1h-3v2h2l2-1zm205 0-1-1-2 1 2 1 1 1v-2zm-270 0 2-1-2-1c-2 0-2 0-2 2v1l2-1zm-5 0v-1h-1l-1 1h2zm351-1v-1h-1l1 1zm-387-2-1-2v2h1zm31 0 1-2-2-1-3 1v2h4zm83-1 6-2c1 1 2 0 3-1l4-2c1 0 2 0 2-2l1-4h4l6-1 3-1c0-1-2-2-5-2a125 125 0 0 1-12 0l1 1v1l1 2-2 1-1 2-1 4-3 1-2-2-1-1h-1l-1 2c0 1 0 2-2 3l-4 1c-2 0-2 0-1 1l5-1zm213-1-1-2-2 1v2l2 1 1-2zm44 1 2-2 2-1 3-2a510 510 0 0 0 13-9h-3c-2 0-3 1-5 3a47 47 0 0 1-16 10l-1 2h2l3-1zm-63 0 1-2-1-2h-3v3l2 2 1-1zm56-2 2-1c2-1 2-2 1-2l-7 4v1l2-1 2-1zm-268 0-1-1v1l-1 1c0 1 1 1 2-1zm217 1v-1l-1 1 1 1v-1zm34-2c4-1 7-3 7-4l-1-2c-1-1-3 0-4 2l-4 4-3 2 5-2zm-285-1-1-2v-2l-1-2c-1-1 0-2 1-2h2l-1-1-4-1c-2 0-3-1-3-2l-2-2c-2 0-2-1-2-2l1-2v-1l-2-2h-1l-2-2-3-1-2-1-1-1c-1-2-2-1-1 0 0 2 0 2 2 3l1 2 2 3h2c1-1 1-1 1 1l-1 2c-1 1-2 1-1 2l3 1 4 2h-1c-1 1-1 2 1 2l2 3 2 3 3 2 1 2 1-2zm51 1v-1l-1 1h1zm-107-3 2-3 1-1 1-1-1-3-1-2v2c0 2 0 2-2 2l-2 2-1 1-4-1-3-1 1 3 7 5 2-3zm30 2-1-1c-2 0-2 0-1 1h2zm66-2h-2l1 1 1-1zm22 0v-1c-1-2-4-2-4-1-1 2 3 4 4 2zm33 0c0-1-1-2-3-2l-1 2 3 1 1-1zm216 0c2-1 2-1 0-1l-1 1v1l1-1zm-295 0 1-3c0-2-2-3-4-2l-2 2 1 3h4zm29 0-1-2v-1h4l5-1h-1l-4-1-5-2c-2 0-2 0-1-1s1-1-1-1h-2c-1 1 0 3 1 3 1 1 3 4 2 5v1h3zm69-3v-1l-2 1-2 1-2-1h-4l2 2h4c1 1 2 0 4-2zm-76 1 2-1-1-2-1-1c-2 0-4 2-4 3l2 2 2-1zm280-2v-2l-5 4 5-2zm-227 0h-6l3 1 3-1zm-59-2h-1l1 1v-1zm-56 0c2-1 2-1 0-4l-2-2-2-1-1-2v-1l-2 1h-1l1 2c2 2 2 2 1 3v2l2 2h4zm83-2 2-2-2-1-5 1-3 1v2l5 1c1 0 2 0 3-2zm33 2-1-1c-1-1-3 0-3 1h4zm-153-1 2-2-2-2c-2-1-4-2-6 0l-1 1 2 3 2 1 3-1zm15 0v-1l-1-2-4-4-1 1 5 7 1-1zm335 0 1-4 1-2v1l1 2 1-1 3-1c2-1 6-4 6-6l-1-2-1-1-5 3-6 4-3 2-1 3 2 3 2-1zm-200-1 3-1-3-2h-4c-3 2-3 4 0 4l4-1zm-109-1-2-2c-1 0-1 2 1 3l2 1-1-2zm369 0v-1l-1-2v-2l-2 1 1 3c0 2 2 2 2 1zm-349-1v-2l-2-2-2 1 1 2c1 2 3 2 3 1zm21-1 1-1 1-2-1-2c-2-2-2-2-3-1l-3 3-1 3 3 1 3-1zm86-3h-2l-2 1-1 1h3l2-2zm161 2-1-1-1 1 1 1 1-1zm-214-1v-1h-4l-1 2h2l3-1zm18 0 2-1s1 0 0 0l-2-1-4 2-1 2 2-1 3-1zm-90 0-1-1c-1-1-2-2-1-3 0-2 0-2-2-3l-2-2-3-1-5-2h-3l1 2c2 3 5 3 6 2l1-1 1 2c0 2 0 3 2 4l2 1v1l2 2 2-1zm59 0h-1v1l1-1zm53 0v-1l-3-1-4 1 2 1h2l1 1 2-1zm-151-2h-1v1l1 1v-2zm401 0c0-3-2-5-2-5-1 1 1 7 1 7l1-2zm-406 1c0-2-2-4-3-4h-1v3l3 2 1-1zm145 0 2-2-2-2-2 1-3 2v1l1 1 4-1zm15 0h-1v1l1-1zm-139-1v-2l-2-1-1 2 1 2 2-1zm44-1 2-3-1-2-1-2-2 2c0 2 0 2-1 1l-1-2-1-1-1 1c-1 1 0 3 4 7l2 1v-2zm6 1-1-1c-1 0-2 1-1 2h1l1-1zm19 0-1-1-1 2 2-1zm20 1a649 649 0 0 0 6-5h-2l-1-1v1l-1 1-4 4h2zm267-2 3-1 2 1 3-1 3-3 2-2h3l4-1 2-1 3-1 3-4 1-2h-1l-8 4-4 2-5 2-5 3-4 2-3 2-2 1c-2 2 0 1 3-1zm-212 1-1-1-2-1v2l2 1 1-1zm204-1v-2l-1-2-1-1-1 3v3c0 1 2 1 3-1zm-37 0-1-1-1 1 1 1 1-1zm-328 0-1-1-1 1h2zm54 0-2-3-2-2-1-1-1 1 5 5h1zm63 0v-1h-2l1 1h1zm15-2h3l2-1-8 1h-2l-4 2c0 1 7 0 9-2zm83 2-1-1v1h1zm-111-1 1-2-3 1-1 1 1 1 2-1zm60 0-1-1h-1l1 1h1zm-157 0 1-2c0-2-2-3-4-3l-6 1-1 2 2 1h3l5 1zm147 0-2-1-1 1h3zm27 0-1-1v1h1zm229-2-1-5-2-3c0-1 0-2 2-2l1-2-1-3-1-1c-2 0-5 1-5 3h1v7l1 6 2 1h1l1 1 1-2zm-261 0-2-1h-3v1l3 2 2-2zm199 0c0-1-1-2-2-1v1h2zm-192-1-1-1v2l1-1zm8 0 1-1c-1-1 2-2 4-1l5-1c0-1-6-3-8-2l-3 1v2c1 0 1 0 0 0l-3 1v1h4zm13 0-2-1-3 1 2 1 3-1zm-99-2 1-3-2-2-2-1-2 1v6l2 1 3-2zm23 0-2-1-3-1-1 1 5 3 1-2zm21-1c0-2 0-2 2-2 2 1 5 0 5-1l-3-1-2-1-1-1-2 2-2 3-3 2-3-5 2-1 3-1 1-1h2l-1-2-1-2 1-2c0-1 0-2-1-1l-2-1v-3l2-1 2-3c1-2 2-2 3-2l3-1h3l2 1 1-2h4v-1l1-3 1-1v-2l-1-2v-2h3l3-1c1-1 0-3-1-3-1-1-2 0-6 4s-5 4-7 4l-3 1v1l1 1 3-1 1 1v2h-2c-1-1-5 0-7 2l-3 1-3-1 3-1c2 1 2 1 3-1v-2l-2-1-7 4 1 1 2 1-2 2c-2 1-2 1-2-1l-2-2 1 3v3l-1 2h4l-1 1v1l1 2v1c-1 1 0 2 2 3l1 1-5 3c-3 4-3 4-4 3h-4l-1-2-1-1c-1 0-2 2 0 2l-1 2-1 2 3 1h4l3-1 1 1c-1 1 0 1 3 1h6l1-2zm-16-1 1-1 1 1-1 1-1-1zm264 3 2-1 3-1h2l1-4v-4c0-2 1 0 2 2l1 3 1-2 1-2 1 1h4l3-1h4c1-1 1-1-1-1h-2l2-2 2-3v-2c0-2-1-2-2-2h-3c-1-1-2 0-4 2l-5 2h-1c0 2-3 4-6 4-1 0-3 1-5 4l-4 4v2l3 2 1-1zm-25-2-1-3v4l1 1v-2zm-297 0v-2l-1-1-1 1h-1v3c1 1 2 0 3-1zm5 0 2-2h1l-1-2-3-1-1 3v3h1l1-1zm80 1 4-1 2-1h2l1 2 3-3-2-1h-1l-2-1h-5v2l-2 1-2 2h2zm17 0-1-1h-4l4 1h1zm8-2h-1v1l1 1v-2zm36 2 1-2h-2l-2 1 2 1h1zm-182-1-2-2-2-1v2c0 1 1 2 3 2l1-1zm144-1h-2l1 1 1-1zm21 0c1-2 1-3-1-3l-2 1 1 1 2 2v-1zm9 0-2-2-2 1v1l2 1 2-1zm-34-1v-1l-2 1 1 1 1-1zm-117-2-1-3-2-2v1l-1-1h-2l-2 1-2 1c-1 2 1 3 3 3l4 1 2 1 1-2zm-3-3h1s1 0 0 0v1l-1-1zm-26 3v-1l-1-2v-3l-1-2-1-1-2-2h-1v2l-1 5c-2 1-1 1 1 2l2 1c0 2 0 2 2 2l2-1zm129-1 1-4-2-2-2 1-1 1 2 6 2-2zm33 1v-1l-2-1v2h2zm22-1 1-1h-5l3 3 1-2zm158 1v-2c-1 0-2 1-1 2h1zm-328-1c1-1 0-2-2-1l-2 1 3 1 1-1zm144 0 2-3-2-2h-3l-3-1-3-1-1 2 2 1h2l1 1h1l1 2 2 2 1-1zm-168 0 1-2-2-2-4-1-1 2 2 2 3 2 1-1zm99-2 3-2 2-1 2-1 3-2h2l2-2 1-2c-1-1-2 0-3 1l-2 1c-1 0-1-2 1-3 1 0 2-1 2-3v-6l1-1 3-2 3-2 1-1v-1l-2-2-3 1-2 1-1 1h3l-1 2-2 2-3-1c-2 0-3 1-4 3l-1 1h-2l-1 3c-1 2-1 2 1 2l2-1c1 0 1 0 0 0v-3l1 1 2-1c2-2 4-2 4-1l-1 1-4 3-3 5h2l2-1 1 1a2035 2035 0 0 1-7 3l-1-2c-1 0-4 2-4 4l-1 1v-1l-1-1h-2l-1 5v3h3l5-2zm16 2-1-1-1 1 1 1 1-1zm48 0v-1l-1-1-1 1v1h2zm15 0-3-2v2h3zm-89-1-1-1-1-2 1-2-2-1-2 1-1 2 2 2 2 1h2zm-35-2 2-2h-2l-2-1h-2v1l1 2 2 2 1-2zm52 1 2-1 1-1 2 1 1 1 1-1 2-2 1-2c1-1 0-1-2-1l-2 1-2 1-3 1-2 2c-1-1-3 1-2 1h3zm50-1h-2l1 2 1-2zm29 0v-1h2l2-1 3-1 1-1c0-2 0-3-1-1l-3 1c-2 0-3 0-4 2l-3 2 1 1 1 1 1-2zm186 1v-1l-1 1h1zm-356-1 2-1 2-1-3-2-3-1-2 3c-1 1-1 1 1 2l2 1 1-1zm134 0 3-1v-1l-1-2 1-4c2-4 2-7 0-7v2l-1 2h-1v-1h-2l-4 1-1-1h-1l-2 1 2 2h3l3-1h2l-2 1-2 3v6l1 1 2-1zm31-1v-1h-1l-1 1 1 1 1-1zm37 0h-2 2zm-191-1c-2 0-3-3-2-4l-1-2-2-1s-1 0 0 0l1 1h-5l-1 1 1 2 3 2 1 1h5zm149 1-2-1-1 1h3zm-95-2 5-2h2l2 1v-1l-1-1-2-1h-4l-2-2-1 2v2l-2 2-1 1c0 1 2 1 4-1zm127 0h-1v1l1-1zm170 0v-2h-2v1c-1 2 0 2 1 2l1-1zm-203 0 2-1-1-1h-3c-2 2-2 3 0 3l2-1zm-43-1c2-2 3-3 1-3h-2c-1-1 0-3 1-3v1l1 1h3v4l4-1c2-1 2-2 2-3l-3-1-2-1 2-2 1-2v-1l-2 1h-2l-1 1-2 1h-3l-1 1-3 1v7h2l4-1zm12 0c1-1 1-2-1-1l-1 1 1 1 1-1zm15 0 2-1 3-2 2-4v-2l-2 1-3 1c-2 0-3 1-3 2v3c0 1 0 1 0 0l-1 1-1 1 1 1 2-1zm11 0h-2l1 1 1-1zm32 0 3-1v-1h-8v1c0 2 2 2 5 1zm12-1v-3l-1-2-4 2-1 2 2 1c0 2 1 2 3 2 1-1 2-1 1-2zm-30 0 2-1 1-1c1-1 1-2-1-2l-2 1-3 2c-1 0-1 2 1 2l2-1zm50 0-1-3-2 3h3zm-13-1a1 1 0 0 0-2 0 1 1 0 0 0 2 0zm5-1h-2l-1 1 1 1c2 0 3-1 2-2zm16 0v-1l-1 1-1 1c-1 1-1 1 1 1 1-1 2-1 1-2zm-73 0h-1c0-1 0 0 0 0v1l1-1zm11 0h-1c0-1 0 0 0 0v1l1-1zm-6 0-1-1-2-1v1l3 1zm27-1 4-2v-1h-3l-3 1c-3 2-4 3-2 3l4-1zm177 0v-2h-2l-1 2 2 1 1-1zm7 0c1-1 0-3-1-3l-1 4 2-1zm-374-1h3l1-1-2-1-3-1c0-1-1-2-2-1l-1 1v3l2 1 2-1zm82 0-1-1-1 1 1 1 1-1zm-89-1v-2l-2 2h2zm175 0-1-1-1 1 1 1 1-1zm-151 0 1-1v-2l-3-3-3-1-2 1 2 2 1 2 3 2h1zm13 0-1-2h-2l2 2h1zm42-1v-3l-1 1c-2 0-2 3 0 3l1-1zm15 0-2-1-1 1h3zm73 0-1-1 1 2v-1zm53-2h-1v2h1v-2zm6 1h-1v1h1v-1zm-212 0 1-4-1-2-2-1c-1-2-1-2-3-2l-2 2c0 2 1 2 3 3l2 2 1 2 1 1v-1zm70 0v-2l-2-1-1 2c0 1 0 2 2 2l1-1zm6-2-1-1c-1 0-2 2-1 3h1l1-2zm119 2v-2h-1l-1 2 1 1 1-1zm4 0h-1v1l1-1zm-180-2h-2c-1 1-2 1-1 2l1-1 2-1zm92 2-1-1v1h1zm42-1v-3l1-2 3-1 3-1 1-1-1-2-2 1-2 1-2 1c-1 2-3 3-3 1l2-2 2-1-1-2-2-1v1l-1 2-1 3-1 3 1 2 2 2 1-1zm218-4c-1-1-2-1-3 1v3l1-2 2-2zm-290 0-1 1v2l1-1v-2zm62 3h1c0-1-3-3-4-2v3h1l2-1zm19 0 2-1-1-2-2-1-2 1-1 2c-1 1 0 2 2 2l2-1zm212 0c0-1 0-2 2-2h1l-1-1-2-1-1 1v2l-1 1 1 1 1-1zm8-1-1-2-1 1 2 3v-2zm-394-2-1-4-5 1 1 2c2 2 2 2 1 3s-1 1 1 1h3zm8 3-1-1-1 1h2zm186-3h-1v2c1 2 1 2 1 0v-2zm-55 1c0-1-2-1-2 1h1l1-1zm-114 0-1-1v2l1-1zm165 0-1-1-1 1h2zm-147 0-2-2c-1 1 1 3 1 3l1-1zm47-2v-2h4l-2-1-2-2 2-1 4-1 1-1-1-1-1-3 1-2-1 2-5 4-4 1c-2 0-2 1-1 2v2c0 2-1 2-2 2h-1v2l2 1h4l2-2zm69 2v-3l-2 1v2h2zm-11-1 2-2c1 0 2-4 1-5h-1c-1 1-1 1-2-1l-3-2h-2l-2 2v3c1 1 1 2-1 2h-2l3 2 1-1c0-1 2-1 3 1l2 2 1-1zm31-1 2-2 1-1-7-2 1 2c1 1 2 2 1 3l1 1 1-1zm218 0-3-1 2 2 1-1zm-369-1 2-4-3 1-3 1-2 1v1l3 1 3-1zm160 0-1-1-1-1v-1c-1-1-3 0-3 1l1 2c2 1 4 2 4 0zm4 0-1-2v3h1v-1zm-188-3h-3l1 2h1l1-2zm381 1v-1 3-2zm-367-3c1 0 2 0 3-2v-2l-2-1-6 4 2 2 1 1h1l1-2zm84 0c1 1 2 0 1-2-1-1-1-2 1-2l3-3c3-2 3-2 2-3l-2-1-2 1-3 1h-2l2 2 1 1-3 2-3 6h2c1-2 2-2 3-2zm96 2-1-1v1h1zm-137 0h-1v1l1-1zm100-1 2-3v-2c-2-1-5 0-7 2l-2 1v1l1 2 3 1c2 0 2-1 3-2zm-167-3-1-1-1 1 1 2h2l-1-2zm14 1 1-1v-3l1-3c1-2 1-2-1-2l-2-1-2-2-3 1c-2 2-3 3-1 3l2 1 2 1 2-1 1 1-3 2-2 2 1 2 2 2 2-2zm183 1v-1c-1-1-3 0-3 1h3zm-65-1 3-2h1l-1-3-1-3-2-1h-3v2l1 1 1 1v2l-2 4 3-1zm58-1 1-1-2-1-3 1-1 2 2 1c2 0 3-1 3-2zm-10 0v-3l-2 1-1 2c0 2 2 1 3 0zm-174 0-1-1v1h1zm55-1 1-2-1-1-3 1 2 3 1-1zm112 0h-2l1 1 1-1zm-46-3h-6l-2-1c-1 1 0 2 1 2l2 1c0 1 4 0 5-2zm30 1 3-1 3-1c2-1 2-1 2-3v-1h1l2-1 4 1h3l1-2h-5l1-1h-5l-3 1-2 2v1l-1 2-4 1-3 1 1 2 2-1zm-125-1v-2c0-2-5-1-5 1l3 2 2-1zm-30-1-1-2-1 1 2 3v-2zm174 0-1-2-1 1 2 3v-2zm-153 1v-2l-1-1-1 1-1 1 1 1h2zm116-1h-2c-1 1 0 1 1 1l1-1zm32 0 1-2-2-1-3 1c-2 2-2 2-1 3h2l3-1zm-46 0 1-3h-4v2l2 2 1-1zm284-1-1-1-1 2h1l1-1zm-367-1-1-1-2-1v2l2 1 1-1zm210 1h-1 1s1 0 0 0zm15-1h-4 4zm13-1h-1l1 1v-1zm-160 0-2-3c-2-2-4-2-4-1l1 2c2 2 4 3 5 2zm-15-1 5-1 3-2 1-2-1-1-2 1h-7l-2 2v3l2 1 1-1zm39 0v-1h-2l1 2 1-1zm-116-1a1003 1003 0 0 0 1-2l4-2 2-1h-2l-2-2h2l3-1 1-1 2-1v-2l-2-1-3 2c-2 1-3 1-3-1l-1-1c-3-1-8 0-9 1-1 0-2 0-3-2l-4-2-3-2h2l4 1h2c2 0 2 0 1-1l-1-2c-1-2-1-2-2-1l-2 1h-2l1-1v-1l-1-1-2-2-2-1c-2 1-2 2 0 4l1 3h-7l-1 2-1 2-1 1h2l4-1 2-1 1 2c0 1 1 2 4 2l4 2h3l-2 2-5 1-2 2v1l4 2c3 2 3 2 4 1l2-1 4 1 2 2 1-1zm-5-6v-2l1-1h1l2-1v3l-2 2-1 1-1-2zm36 5-1-1-1-2-1-3v-2l2-2 3-1 3-1-1-1-2-3 1-1 1-1-1-1-3 1-3 1v-2l-1-4h-3l-1-1 2-1 1-3-1-2 2-1 2-1-1-2v-5h-4v2l-1 3h-1l-1-2-1-4v-3l2-2 2-3c2 0 2 0 0 0l-1-1c-1-1-2-1-3 1s-2 2-1 3v1l-2 1-2 2 2 4 1 1h-1l-2 2 2 2 1 3v3l-2-2-2-1-2 1v1c-2 1-6-3-6-5l1-2 1-2 1-1-1-2-2-2-1-3c-3-1-6-2-7-1v1l1 4c0 1 0 2 2 3l3 1h2l-2 2c-3 0-3 0-5-2l-2-3-3-1c-2 0-3 0-3-2l-3-2h-2l-1 2-1 1-3-1-2-1 1-1h-6v1l3 2 3 2 1 1h9l-1 1v2l2 1 3-1 2-1 1 2v3l1 2 2-2 2-1a529 529 0 0 1 3 7l2-1 1-1v5l-1 1-2-1-2-1-1-1v2c0 2 0 2-2 2l-2-1-2-1-2 3 1 3h3l4-2 1-1h1l2 1c2 0 2 1 2 2v1l-1 1 1 1 1-1 1-2 2 1v3l1 2 2 3 2 1 3-1h1l-2-4-3-4-1-1-2-2-2-2-1-2h2l3 1 2 1 1-2 1 1 1 2 1-2h1l2 1v1l-1 2 2 3v2l1 2v2l-1 1-2 1v3l2 1 2 3h3l1-1zm-21-18h1l-1 1v-1zm272 19h-2l1 1 1-1zm-187 0 1-1c0-2 1-3 3-4l3-2c2-2 2-4 1-4l-3 2c-2 3-6 5-8 5l-2 1 2 3h3zm8-1h-1l-1-1-2-2-2 2v1h2l2 1c1 1 2 1 2-1zm-126 0 2-1-2-2-3-1h-2v1l1 3 3 1 1-1zm134-1v-1l-1-1-2-1c-1 1 1 4 2 4l1-1zm67 1h-2 2zm33 0h-1c-1 0-1 0 0 0h1zm45 0v-1h-9c-2 0-2 0-1 1h10zm21-1 2-1 1-1h-2l-2 1-1 1v1l2-1zm-83 0 1-1v-1h-2l1-1h4l5-1h5l4-1-1-2v-2c0-1 2 0 2 2l2 2 1-1v-2l1-1v1l2 1 1-1 1-1v1l2 1h10l-2-1-2-2h5l2 1h8l1 1c1 0 1 0 0 0l-1 1 3 2 7 1 3-1-6-2-4-2v-2l2 1 3 1 3-1 2-1 1 3 1 3h6a124 124 0 0 1 15 0h-1l-1-1-1-2h-8l-2-2-1-3-3 1h-3v-3l-2-2h-5l-4 1 1-1 1-2-1-2h-6l-2 2-2 2-2-1-4-1c-3-1-4 0-5 2s-2 1-2-1l-2-2-4 1-3 1v6l-1-1-5-1-3 1-1 1c0 2-1 2-2 2l-2 1-5 1-6 2-1 1-3 1-3 1h3l2 1 1 3 2-1zm9-5 1-1v1h-1zm2 4v-1h-2c-1 0-2 0-1 1l1 1 2-1zm20-1v-1l-1-1-2 1v2h2l1-1zm-84 0h-1v1l1-1zm-161-1v-2 3-1zm128-1 4-2h8l3-1c2-1 2-1 1-2h-5c-4 1-4 1-4-1l3-2 3-1c1-1 1-3-1-3l-5 4-2 1v-1l-1-2-3 3-2 4c0 2-1 3-2 2h-1l-1 1 1 2 4-2zm-75 0h-1 1zm116-1-2-1-1-1-2-1-1 2v2h3l3-1zm95 1h-3 3zm-152-1c1 0 1 0 0 0h-2 2zm5-1c1-1 2-1 1-2-2-2-3-1-4 2v2l3-2zm-43-1v-2h-4l-1-1v4l-1 1h3l3-2zm17 0 2-2h-5l-2-1 3-2c6-2 7-3 7-4l-2-2-2-2h-1l-2 3-2 4-2 2c-1 2-2 2-3 2v-1l-1-2h-1c-2 0-3 1-3 3l1 2 2-1 1 1h2l1-1 3 1 2 2 2-2zm17-1-1-1-2 1-1 3 2-1 2-2zm51 2-2-1h-4v1h6zm-61-1 1-2-1-1-2 3h2zm-99 0 1-1-2-3-3 3 4 1zm152-1v-2l-4 1v1h4zm110 0h-2l1 1 1-1zm-268-2h-1l-1 1c1 1 2 0 2-1zm165 1 2-1v-3l-3 2c-2 2-2 3-1 3l2-1zm-97 0 1-4c-1-2 0-2 1-3l1-1-1-2-1-2 4-2 1-1 2-4v-2l5-2c3 0 3-1 3-2l-1-2v-2c3-3 3-4 3-5l-1-1-2 2-2 2c0 1 0 3-2 4l-2 3-1-1v-2c-1 0-3 1-3 3v5l-1 1-1-1v-1l-1 2-1 3h-1l-1-2 1-3v-3l-1-2c-2-1-2-1-3 1l-1 1-1-1-3-2-2 1 1 2 1 2v2l2 3 3 3c1 0 2 1 2 3v5l-1 3 2 2h1zm-18-1-1-1c-1 0-2 0-1 1h2zm77-2-1-2-2 1v2l2 1 1-2zm-19 0-1-1v1h1zm-61-1h-1l1 1v-1zm66 1 2-1 2-2 3-1 3-1c2-1 1-3 0-3l-3 2h-3l-2 1-1 1c-1 0-2-5-1-6v-1l-3 1v3l1 4 1 1v1l1 1zm66-1 1-1h-4l-1 1h4zm-99 0v-4l-1-2-2 1v4l2 2 1-1zm77-1h-1l1 1v-1zm16-1h-2c-1 1-1 2 1 1l1-1zm17 1h-2v1l2-1zm-4-2 1-1h-3l-1 2 3-1zm-110-1-1-1-1 1h2zm12-1 3-1v-3l-2-2-1-4v-2l-1 3-3 6-1 4 5-1zm45 0 2-3-1-2-1-2h3l2-1 2-4v-3c-1-1-2 0-3 2l-2 2h-4l-1 2-1 2-2 1-3 1-2 1 3 1h4c2 0 2 0 1 2l1 2 2-1zm26-1h-1l-1 2h1l1-2zm-158 0v-4l-1-2-1 1-1 1-1 2 1 2c0 2 2 1 3 0zm168-1v-2l-4 3h2l2-1zm-23-1-1-1h-1l-1 1h3zm-72 0-1-1-1 1h2zm34 0v-1c-1 0-2 0-1 1h1zm13-1v-2c-1-1-2 0-3 1v2h1l2-1zm-42-1h-1v1l1-1zm25 0 2-1 2-1-3-2h-2l-3-1-1-1c0-1 2-4 4-4l1-1v-2h-3l-2 2-2-1c0-2 0-2-1-1l-1 3v3l-1 3v2h9l-1 1v1h2zm63-2 2-3-3 1-1 3v1l2-2zm-50-1v-2h-2l-1 1 1 1 2 1v-1zm-98-1 1-3-2-1-3 2-2 2 3 1 3-1zm156 0v-2l-2 2h2zm-176-3v-1l1-2h4l3-1-1-2-3-1c-2-2-2-2-4-1l-2 2-1 3 2 4 1-1zm107 0v-2l-1 1-2 1h3zm20-1-1-2-1 1c-1 1 0 2 1 2l1-1zm26-1-2-1c-2-1-5-1-5 1l3 1h3l1-1zm-112-4-2-1v3h2v-2zm108-1v-1l-2 1 1 1 1-1zm10 0-1-1-2 1 2 1c1 0 2 0 1-1zm-92-2h-1v2h1v-2zm6 1-2-1-1 2 3-1zm41 0v-3l-4 2v2c1 1 4 0 4-1zm-115-1-1-1-1 1 1 1 1-1zm52-1v-2l-1 2h1zm-7-4h-1l-1 1h1l1-1zm-1-2h-2l2 1v-1zm-8-2-2-1-1 2 2 1 1-2zm8-2-2-4c-1-1-3-3-4-2l-1 2 2 4c1 2 2 2 4 2h2zm5-9-2-4-3 5v3l1 1 2-1 2-4zm207 0h1l-11-1 2 1h8zm-89-1c0-1-1-1 0 0l1 1-1-1zm77 0h-1c-1 0-1 0 0 0l1 1v-1zm38-1-4 1h3c1 0 2 0 1-1zm5 1h-2 2zm-133-3-1-2-4-4-1-2v-4l-4-1-5 1h-2c-2 1-2 1-2-1l-1-2-2 1-3 1-2 1-1 2h17l2 1c0 1-1 2-3 2l-5 2 2 1 4-1 4 2 3 4c-1 1 0 2 1 2l3-3zm-10 1c-1-1-3-2-4-1-1 0 1 2 3 2l1-1zm62 0h1c0-1-8-2-10-1l1 1 5 1 3-1zm5 0h-1 1s1 0 0 0zm34 0v-3l-2 1v1l-1 1h3zm7-1h2l2 1h3l5-1h2l-6-1-8-1-4 1 1 2c0 1 2 1 3-1zm-68 0 1-3v-2l-1 1-3 1-2 1 2 2h3zm103 0h-2c-1 1-1 1 1 1s2 0 1-1zm31 0h-3 3zm-18 0h-10 10zm-134-2-1-2h-2v2l1 2c2 0 2-1 2-2zm4 1-1-1v2l1-1zm2-1-1-2v3h1v-1zm42 0-5-1a50 50 0 0 0-16 1h10a725 725 0 0 1 11 0zm27 1 1-1h-4v1h3zm41-1c2 0 2 0 1-1h-3l-6-1h-5c0 2 3 2 7 2h6zm33 0-2-1h-6l1 1h7zm-137-1 1-2-2-1-3 2 3 2 1-1zm56 0-1-1-5-1h-12c-3 0-3 0-2 1l9 1h11zm-98-1-1-2-3-1v1l2 3 2-1zm25 1h-1c-1 0 0 0 0 0h1zm9-2c2-1 2-1 0-1l-2-1-2-1v3l1 2 3-2zm23 0v-1l-1 1v1l1-1zm-37 0c2 0 3-2 1-3h-6l-1 1 1 1 3 1h2zm44 0-3-1c-2 0-3 0-2 1h5zm10 0-2-1-2 1h4zm45 0 5-1 8-1c2-1 1-1-7-1h-24l9-1 8-1c1-1-3-1-9-1h-11l-19 1-6-1-4-1-4 1-3 1 4 1h15c6 0 7 1 9 2l6 2a85 85 0 0 0 23 0zm-127-2-4-1 1 1 2 1 1-1zm53 0 3-2h4c1 1 3 0 4-1v-2h4l7-1 3-1 4 1 5 2 5-1 5-1h6c5 0 6 0 5-1h-11l-13-1-3-1h3l4 1 1-1v-1h-9c-1 1-8 2-10 1h-3l-3-1-1-1h13-2l-15-4-3-1h-2l2 1 1 1h-1l-3-1c-3-2-6-2-7 0l-2 1v-1l1-2-1-2-3-2c-1 0-4 3-4 5l-1 1v-5l-3-4-3-4-6-2h-4l1-1 1-2-6-1-3 1h-1l-2-1-3-4h-7l-1 1-1-1h-4l-4 1-1 3v5l-1 2 1 1h8l-3-1c-3 0-4 0-2-1h3l3-1 4-2 3 1v1h-1l-3 1h2l1 1 7 1 14 2h-24c-1 1 1 4 2 4l1 1 8 1h10l-2-1-2-1 3-2 4 5-2 1-2 1 1 1 1 1c1 0 0 0 0 0h-2l-3 1h-6c-2-1-4 0-4 1l1 2h2l2 1h3l4-1 5-1h3l1-3 3-2 3 2h-2c-1-1-2 0-2 1v2h2l3-1 1 1h6v1h-5c-4 0-5 1-4 2v1h2l2 1 4 2 5-1-1-1h-3l-3-1-1-1h10l7 1c1 1 0 1-2 1-3 0-3 0-2 2l1 2h-2l-2 1h4zm-39-20-5-1h-6l7-1 7 1c1 0 1 0 0 0l-3 1zm138 20h-2l1 1 1-1zm5 0h-2l1 1 1-1zm-164-4v-1h-5l-4 1 1 1h7l1-1zm43 1c1-1-1-2-3-2l-2-1h-2c-1 1-1 1 1 2l6 1zm-58-1-4-5-2 1c-1 0 0 3 2 4h4zm72 0-1-1-1 1 1 1 1-1zm82 0-1-1-2 1v1l3-1zm-106-1-1-1v2l1-1zm-58-1h-2l1 1 1-1zm29-1v-1l-1 1 1 1v-1zm29-1h-2v1h2v-1zm-43-1c1-1 1-1-3-3l-4-1-1 1h-2c0-1 0-1 0 0v1l2 1 3 1 2 1 2 1 1-2zm8 1c0-2 2-4 3-4l1 1-1 1h9l-3-2-3-1 1-1 2-1 1-2h-5c-5 0-5 0-4 1l1 2c1 1 0 2-1 1l-2-1-2 2-2 2c-2 1-2 1-1 2l4 1 2-1zm-29-1c1 0 1-1-1-1s-3 1-1 1l1 1 1-1zm132 0h-2c-1 1 0 1 1 1l1-1zm-134-4c3 1 3 1 3-1l1-3 1 1 2 1 2-1v-1l1-1v-2l1 1 1 2c1 1 1 2 4 2l4 1h3l1 2c2 0 3-2 3-3s0-2-1-1c-2 0-4 0-6-2l-3-1h-1l4-1h2l-2-1-3-1-2-1-1-2 5-2c2 0 2 1 0 2l-2 1 1 1a145 145 0 0 0 18 0c0-1-3-2-8-1l-5-1 2-1 1-1 1-2-1-8-2-3-4-1-4 1h-6l-2 1-4 3-3 1v-2l-1-2h-3l-2 2-1 1-4-1-3 1-2 2-1-2-6-1-5 1-1 3-2 4c-2 1-4 4-4 6l3 2 4 2 4-3h2l-2 3h-1v1h7l-1-3v-4l1-1v2l1 3h5l1 1 2 1-2 3-1-1-1-1-3 3 1 2c1 1 1 0 2-1h2l3 2h4l3-1zm-2-1v-3l1-1 1 2-1 2h-1zm3-5v-1l1 1h-1zm4-1v-1h1v2l-1-1zm5-2v-2l1-1v1l-1 2zm-5-1-2-1 1-1c1-1 3 0 3 1v1h-2zm15-5c0-2 2-3 3-3l3 2h-2l-2 1h-2zm-25-2 2-2h2l2 1-3 1-2 1-1-1zm51 18h-3l2 1 1-1zm-33-2-1-2h-2v2h3zm38-1v-1c-1 0-3 0-2 1h2zm-10-4-2-2h-4l-1 2h7zm-11-1c2-1 0-1-2-1h-6l1 1h7zm241-17c0-2-4-3-18-3-11 0-14 0-10 1l7 1h19l2 1zm-31-2v-1h-2l-3 1h5zm-77-2-3-3-3-2-1-2-1-2 1-1 1-1-2-2-1-3 2 1c2 1 4 2 9 2l6 1 2 1c2 0 2 0 1-1l-2-1v-2h8l2 1-2 1-3 2 2 1 1 1 1 1v3h3l-1-1v-3l1-1 2 2v1l2-1 2-1v-1l-2-2 1-2v-2l1-2 2 3 2 3 2-1 2-1h10l3 1-1-4 2-1 8 1 6 1-1 1c-1 1-1 2-3 2h6v-1h2l3 1 3-1 1-1-1-3-3-2-2 1h-3l-1 1c-2 0-2-1-3-3v-3h-2l-2 1v-3l-1-3h-3l-2-1-3-1-3 2-4 1-2-2 1-3 1-2-5-3h-2l-3-3c-2-3-3-3-5-4l-5-1-1-2-4-5-2-1c-2-1-2-2-4-1l-3 1h-2l-4-2h-4l-3-1h-1l-3 1h-2l-2-1-5 6-1 1-1-1-2-2c-4-1-6 0-8 2-2 1-3 2-3 4v3h-2l1-4 1-5-3-1-4 2-2 2v-1l1-2v-1h-5c-2 1-2 1-4-1l-3-1-2 1-1 4v3c-1 1 0 1 1 2l2 2-1 2-1 1 1 2 1 2h-1l-2-2v-5h-8l-3 1-3-1-4-1-2 2c-2 1-2 2-1 3 0 2 1 2 3 2h4v2h-3c-1 0-2 1-1 2l1 2 2 1 1 1 1 2h2l2 1 2-1 1-1h1v2l-2 1 1 2v4c1 0 2 0 2-2l2-1 1 1 3 2h4l1 2 1 1v1h-4l1 1 2 1 3-2 3-2c2 1 3-1 3-1v-2l2-1 2-1 3 1 3 3h-4l1 1 1 1h-3c-3 0-4 0-4 2l3 2c3 0 3 1 6 6 1 2 4 4 5 3l1-2 2-2v-1l-1-2h3l-1-2-2-4c0-2 0-2 2-2l6 1-3 1c-3-1-5 0-3 1l5 1 4-1 2 1-1 2-1 1 1 1 2 1h-2l-2-1-5 2 3 1 3 2 2 2 5 1 2 2-1 1h5zm-28-8h2-2zm2-5 1-1 1 1-1 1-1-1zm56-2v-2h1v3l-1-1zm-27-2v-2l1 1v3l-1-2zm-10-1v-2l-1-1-2 1-2 2v-2c1 0 1-1-1-1-7 1-7 0-8-1s0-3 1-3l1 1h2l1-2c0-2 1-3 2-2 2 0 5 2 5 3h-3v1h5v1c0 2 0 2 3 4l1 1-2 1-2-1zm26 0c-3 0-6-2-6-3h3l5 1h2v2h-4zm7-1c1-2 2-2 2-1l-1 1h-1zm7 0 1-1h2v-1h5l8-1h1c-1 1-1 1 2 1l3 1h-4a157 157 0 0 0-13 0l1 1h-6zm24 0h2-2zm-104-1-1-2 4 2h-3zm22 0v-2l2-1-2 3zm27-1-3-2v-2l2-1h2l1 1-1 1-1 1 2-1h3l3 1 1 1c0 1-2 2-3 1h-2l-1 1-3-1zm-46-3-1-3v-1l1 1 1 2 2 2-3-1zm12 0 1-1 1 1h-2zm57 0-8-4h2l3 1 4 2 3 1h-4zm-78-1h-5l2-2 3-2v1l1 1 1 2h-2zm3-2 1-1v2l-1-1zm26-1h-2l-1 1-1-1 1-1h1l-3-1c-3 0-4-1-5-2l-1-3v-5l2-2v3l1 5 2 2 2-1-1-1h1l3 2h2l1 1 2-2 1-2h1l-1 3-4 6-1-2zm35-1-1-2 2 1 1 1h-2zm-61 0v-1c1-1 2 0 2 1h-2zm50-1-2-2h1l3 1 1 2h-1l-2-1zm-43 0 1-1 1 1-1 1-1-1zm59 0 2-4v1l-2 3zm-69-1h-2l-2-1h4l1 1h-1zm-9-2 2-1v1h-2zm72-2 2-1v1l-2 1v-1zm5 0-1-1c0-1 2-2 3-1 2 0 2 0 1 1l-3 1zm-24-8-2-2 4-6 1 1-1 2-2 2 1 2 1 2-2-1zm37 41h-2c-1 1-1 1 1 1s2 0 1-1zm45 0h-2 2zm34 0-1-1h-10l3 1h8zm5 0h-1c-1 0 0 0 0 0h1zm-56-1c1-1 1-1-2-1l-3 1h5zm11 0 1-2-1-2-2-1-1-1-4 1-2 1c-2 0-2 0 0 1h5c3 0 5 1 3 2l-1 1h2zm-39-2h1l2-1-5-1c-2 0-2 1-2 2l1 1c1 1 3 0 3-1zm12 1h-6l3 1 3-1zm5 0h-3 3zm16 0h-3l2 1 1-1zm-30 0h-1 1s1 0 0 0zm51-1h-6l2 1a224 224 0 0 1 4-1zm38 0-1-1-1 1h2zm-139-1-2-1v1l2 1h1Zm21 0-1-1v1h1zm42 0-9-2h-3l8 2h4zm57-2v-1h-5l-6-1h-5l-4 1h-5c-1 1-1 1 1 1h9l9 1 6-1zm14 1-3-1-3 1h6zm-58-1-3-1-5-1 1 1h2l3 1h2zm18 0-1-1-1 1h2zm-67-1-1-1h-2l1 2 2-1zm6 0h-3c-1 0-1 0 0 0l3 1v-1zm31 1-2-1h-2l2 1h2zm-41-3c1-1-1-1-2-1v2l2-1zm41 0-3-1-3 1 3 1h2l1-1zm21 0h-4l2 1 2-1zm-13-3h-1 1c0 1 1 0 0 0zm31-1h-5l-2 1h3l4-1zm-140-1-1-2-1-2c-1 0-2 2-1 3l2 2 1-1zm110 0h-4l2 1 2-1zm-123-9v-1c-2 0-4-1-5-3v-1h-1a358 358 0 0 1 1 5h5zm223-13v-1l-1 1 1 1v-1zm-16 446 1-2 1 1v3h-1l-1-2zm-321 0v-2l-1-2 2-2v7c-1 1-1 0-1-1zm170 0 1-4v-1 6c-1 1-1 0-1-1zm-182-1v-2h1l-1 4v-2zm108 2 1-1h1l-2 1zm44-2-1-3v-1l2 2h1c0-2 1-2 2-1v3l-2 2c-2 0-2 0-2-2zm87 2-1-1 2-1 2-2 2-1-1 3c0 2-1 2-2 2h-2zm-268-1v-1l1 1h-1zm54-1 1-2 1-2v3l-1 2-1-1zm110 0-1-1h1l2-1c0-2 1-1 1 1v1h-1c0 2-1 2-2 0zm24 1v-2l1 1-1 2v-1zm45 0 1-1v1h-1zm56 0v-4l2-2 1-1h2c2 0 2 1 1 2l-1 2v1l-1 1-3 1h-1zm-255-1v-3l1-1h1a20 20 0 0 1-2 4zm39 1v-2l-1-1-1-1 4-5v2l-1 2v2l1 2-2 1zm6-1v-1 1c0 1 0 1 0 0zm40 0v-2l1-2v5l-1-1zm230-1v-4l1-2c1 0 2 6 1 7l-1 1-1-2zm-257 0c0-2 0-2 1-1v2l-1-1zm12 1v-2c0-1 1-1 1 1l-1 1zm103-1 1-3v-5l1-3h1l1 2v2l-2 4-1 4-1-1zm94 1-2-1-1-1-1-3v-1l1-3-1-3-5 1c-2 2-3 2-5 1l-4-1h-3l-1 1-2-1-2-3 2-2 1-2c-1-2-3-1-3 0l-1 5v-8l3-1 2 1v4h1l2-3 1 1 2 2v-2l3-1 3-1v-2l-2-1-1-1v-5c-1-2 0-6 1-6l1 2 1 2 1 1v-3h2v5l-1 3 2 1 1 1v2h2v-3l1-1 1 2v1l2-1 2-1 2 1 3 2 1 2-1 3-3-1h-2l-1 1 1 3 1 2c0 2 1 3 2 3h2v-1l1 1 1-1v-2l1 5v6l-2-1-1-1v1l-1 2h-1l-3-4h-2l-1 2v2zm1-6c2-2 2-2 1-4l-1-4-1-2-1 1-1 3v5l1 3 2-2zm8-1h-2v1l2-1zm-19-9v-1h-1l-1 1h2zm11-3v-2 4-2zm-3 0-1-1v1l1 1v-1zm-6-2-1-2v4l1-2zm-1-8h-1l1 1v-1zm38 29v-3c0-2 0-3-2-3h-2v2l-1 1v-1l-1-4-2-3-1 3v3l-1-1h-1l-1 2 2 2 1 2-1-1h-5c-1-2-2-4-1-5l1 1 1 1 1-2 1-1 1-2-1-3-2-2 1-3v-2 2l1 3h4l1 3 1 1 2-1c2-1 3-3 3-6v-1l1 4 1 12c1 1 0 3-1 2zm12 0v-2c1-1 0-6-1-8l1-1 2 2v5c-1 4-1 5-2 4zm-275-1c0-2 0-2 1-1v1h-1zm64 0c0-2 0-2 1-1v1h-1zm8-1 1-1v3l-1-2zm37 1v-4c1-1 2 4 1 4h-1zm-113-1-1-4 2 2v3l-1-1zm80 0v-1 2-1zm77 1v-1 1s-1 0 0 0zm35-3v-2 5zm-105 1-2-3 1-2h1l1 3 1 3-2-1zm197-1v-3 6zm-268 1 1-4 1-2v3l-1 4-1-1zm109 1v-4h1l1 1 2 2-2 1h-2zm6-1v-2h-2l-1-1v-1l3-1 1-3h1v3l-1 4v2l-1-1zm32 0c-2-3-2-4-1-5l1 2v3c0 1 0 1 0 0zm34 0v-2l1-2c0-1 2-3 3-2l-1 2-1 3-1 2-1-1zm-200 0v-1l1 1h-1zm96 0v-7l1-1 1 2-1 4-1 2zm-130-1 1-1v2l-1-1zm90 0v-1 2-1zm-140 0-1-4v-5l2-1v10h-1zm73 0v-3l1-2 1 2c0 2-1 3-2 3zm39-2 1-1v3-2zm82-1 1-3 2-2-1-3-1-3v-3l2 3c2 2 2 4 2 8l-2 2h-1l-1 3c-1 1-1 1-1-2zm31 2-1-2-2-1c1-1 4 0 4 2v2l-1-1zm-198-1-1-2v-2l-1-2c0-1-2-1-3 1l-1 1v-2l1-5 1-4c1 0 2 2 1 4l1 1 1-1v-2l2 1v5l-1 3 1 4v2l-1-2zm28 0 1-1 1 1-1 2c-1 0-2-1-1-2zm-34-1 1-2v4l-1-2zm23 0 1-2v-4l1-1 1-1v-3c0-3 1-3 1 1l1 3-1 1-1 4-2 3c-1 1-1 1-1-1zm66 1v-1l1 1h-1zm25 0 1-2v3l-1-1zm13 0-1-3v-1l-1 1h-2c-1 0-2 0-2-2v-2l1 1 3 1 1-1h1l1 2v5zm42 1v-6l1 3-1 3zm76-1-1-2 1-2 1 3c0 2 0 3-1 1zm-217-1 1-2 1 1h2c1 0 2 1 0 2h-2l-2-1zm11 1 2-2-2 2zm72 0v-1l1 1h-1zm77 0v-1l1-3 1-1 1 2-1 3h-2zm-193-2 1-4 1-1v4l-2 3v-2zm61 1c-1-1 0-2 1-2s1-1-1-1-1-2 1-2h2v3c1 2 0 2-1 2h-2zm46 0c0-1 0-2 1-1v1h-1zm44 0v-2h1l-1 3v-1zm75 0v-2h1c1 1 0 3-1 3v-1zm10-3v-4l1 3-1 4v-3zm-247 2-2-3v-1l-1-2-1-1-2-9v-3h1l2 3 1 3v2h1v-4c0-4 1-5 2-3v7l1 6 1 1 1-2 1-2h2l1 1v2l1 1c0 1-1 2-3 2l-3 1-2 2-1-1zm180 0v-1 2-1zm154 1v-1 1zm19-2v-3 4-1zm-129 1v-3l1 2v2l-1-1zm27 0v-4c-1-3-1-4 1-5l1-1-1 2v9l-1-1zm129 0-3-1c-1-1 0-2 1-1h3l1 1v1h-2zm-330 0-1-2-1-2c-1 1-2 0 0-2l2-5 1-3a289 289 0 0 1 0 14h-1zm15-1v-2 3-1zm20 0 1-1v1h-1zm124 0 1-3v4l-1-1zm57-1-1-2v-3h-1l2-1h2l-1 2v2l1-1 1-2h3l1 2v2l-1-2c0-2-1-2-3 2l-2 2-1-1zm-241 0v-2a372 372 0 0 0 2-3c1 1 0 6-1 6l-1-1zm99 0 3-3 2-1v2c-1-1-2 0-2 1-1 1-2 2-3 1zm29-1v-4l1-3 2-1h1c1-1 1 0 1 2v5h-1l-1-1-1 2-1 1-1-1zm89 1v-4c1-3 1-3 3-3h1l-1 3-2 2-1 2zm36-2c-2-1-2-2-2-3v-3l-1-2v-4l1 1h1v-5l1 2v5c0 4 0 5 1 4h2l-1 2v3c1 2 0 2-2 0zm6-1 1-6 1-2 2 2 2 1-1 3c0 1 0 1 0 0l-1-1-1 3c-1 4-2 4-3 0zm-186 1v-3l1-1c1-1 1-1 1 1l-1 4-1 1zm35 1 4-5 1 1-1 1-1 2-2 2-1-1zm14-1v-1l1-1v4l-1-2zm90 0 1-1v2l-1-1zm158 1h-1l-2-1v-1h4l2-1 2-2 1-1 1 2c0 2-1 3-2 3l-3 1-1 1-1-1zm-313-1-1-2-2-3v-5l2-2 1 2-1 2-1 1 1 2 1-1 1-2v2l1 4v2l-1 1-1-1zm177 0-1-1-1-1 2-1 2 1-1 3-1-1zm186 0-1-3 1-2 1 1v3c2 1 0 3-1 1zm-357 0v-1l1 1h-1zm-55-1 1-2c1-2 2-2 2-1v2c-2 2-3 2-3 1zm-4 0v-4l1-2 1 3-1 3h-1zm142-1v-1h2v1l-1 1-1-1zm-67-2 1-2v3l-1 2zm10 2v-6l1-1 1 4c0 3-1 4-2 3zm61 0a30 30 0 0 1-1-9l1 2 1 4v4l-1-1zm22-2v-1 3-2zm56 2 1-2h1l-1 2h-1zm91 0v-6l1 7-1-1zm-284-1c-1-2-1-2-3-1l-1-2v-1h2l1 1v-3l1-3h1l2 1 2-2v3l-1 1v4l-3 3-1-1zm15-1-2-3-3-1-1-2 1-2 2 1 1 1v2l3 5-1-1zm33 1 1-1v2l-1-1zm21-1c0-1 0-1 0 0v1-1zm40 0v-6l1 1 1 2-1 2-1 1zm40-1-2-6c0-3 0-5 1-4v3l2 3 1 3-1 3-1-2zm16 0c0-2 0-2-2-1l-1-1v-3l2 1h4v-3l1-6 1 8v1l3-1 1-1v2l-1 2-2 1-2-1h-2v2l-2 2v-2zm56 1v-2h1v2h-1zm95 1h2-2zm-282-3 1-4v2l-1 4v-2zm88 1v-3h1v3l-1 2zm-5-1 1-1 1 2c-1 1-2 1-2-1zm219 1v-6l1 4v3l-1-1zm-66-1v-3l1-2 3-2 2-1 1-3-1-4c-1 0-1-1 0 0h2l1 4-1 6-1-1h-2l-1 3-1 3-1-1c0-1 0-2 0 0l-2 1zm45 0v-4l1-2c1-1 2 5 1 6h-2zm-343-1 1-1c0-1 0-1 0 0v2l-1-1zm183 0v-1h1v1h-1zm-90-1c-2-3-2-7-1-7l1 2 1 3v-3l1-2 1 1v4l-1 3-2-1zm16-1-1-2h1v2l1 2-1-2zm2 2v-4c0-2 1-2 1-1l1 2 1 2-1 1h-2zm77-1h1l-1 1v-1zm119 0 1-2 1 1 2-3 1-3v3l-2 4-2 1-1-1zm-330-1-3-5 1-1-1-1v-3l2-1 1 1 2 2h2l1-1v6h-3l-2 4v-1zm77 0v-2c0-2 0-2 1-1v3h-1zm-64-1-1-2-1 1-1-2h-1l-1 1-1-2 1-2h1l1 1 1 1h2v-3l2-1c1-1 2 0 2 1l-2 2v4l-1 3-1-2zm181 0-1-3v-2l1-2 1-1v10l-1-2zm34 0s0-1 0 0l1 1-1 1v-2zm-102 1 1-2h1l-2 2zm109-1-1-5h1l1 6-1-1zm-208 0-1-3v-3l1 3v3h1-1zm127 0-1-2c0-2 0-2 1-1l1 2v1h-1zm29-1-1-2h-1c-1 1-1 1-2-2l2-2 1 2v1l2-1 1-3v-2 10h-1l-1-1zm49 1v-1l1 1h-1zm6 0v-1h1v1h-1zm11-1v-6l1 5c0 2-1 3-1 1zm8 1-1-1c-2 0-4-4-3-6h3c3 0 4 0 4 2l1 3h2c1-1 1-1 1 1l-2 1-3-1c0-1 0-1 0 0 0 2-1 2-2 1zm0-4h-1v1l1 1v-2zm-263 3h2l-1 1-1-1zm129 0v-1l1 1-1 1v-1zm25-1 1-5v-2l1 2v3c-1 4-2 5-2 2zm63 1h1l-1 1v-1zm-68-1 1-2c1 1 0 3-1 3v-1zm102 0-1-2 1 1 1 2-1-1zm29-3v-4h1a537 537 0 0 1-1 4zm6-2c0-5 0-5 2-6l2 1 1 3-1 3-2 3-2 2v-6zm143 6-1-1 1-2h3l1 2-4 1zm-341-1v-1l1 1-1 1v-1zm24 0v-2c-1-2 0-2 1-1h2l1-1 1 1-3 3h-2zm100 0 1-1 1 1-1 1-1-1zm-170-1v-3h1c1 0 2 0 2 2l-1 2-2-1zm139 0 1-2v3l-1-1zm28 0v-1 2-1zm230 0-1-3 2-2c1-1 3 0 3 2l-2 4-2-1zm-333 0-1-3v-2h2l2 1-1 1c-1-1-1 0-1 1l-1 2c0 1 0 1 0 0zm38-1v-1 2-1zm182 0v-3c2-1 3 0 3 1 1 1 0 3-1 3l-2-1zm-190 0 1-2v3l-1-1zm98-2v-1 3-2zm-206 1 1-2v-2l1 1v2l1 1c-1 2-3 2-3 0zm65 1v-4h1l1 1h1c1 1 1 3-1 3h-2zm9-1c0-2 1-2 2-1l-1 2-1-1zm70-1v-3l1 2v3l-1-2zm151 1 1-1v1h-1zm-241 0-1-2v-3l2 2v3h-1zm4-1v-1 2-1zm73 1 1-1v1l-1 1v-1zm60-1-1-2-1-3-2-1c-2 0-3-1-1-1l1-1-1-2c-1-2 0-3 1-2l2 4 3 4 1 5-2-1zm-221 0v-3l1-1 1 1 1 3c0 2-2 1-3 0zm167 0c-2-1-2-2-1-2l1 1v2-1zm30-1 1-3v2l-1 3v-2zm42 0v-3l1 3v2zm8 1c-1-2 0-3 1-2v2h-1zm38-1v-4l1 2 1 3-1 1-1-2zm-215 1-1-4 3 3c0 1-1 2-2 1zm80 0-1-2v-1l1 1 1 2h-1zm153 0v-5h1l1 3-1 2h-1zm-240-1v-3l1-2 2-2 1-1 1 3-1 3-2 2-1 1zm210 0h1v1l-1-1zm-149-1h1v1l-1-1zm155 0c0-2 1-3 1-1v2l-1-1zm-205-1c-2-2-2-4-1-5l2 1 1 5-2-1zm38 1h1l-1 1v-1zm120 0 1-3v3h-1zm-186 0v-2h2v2h-2zm136 0v-1l1 1h-1zm-128-1-1-2h1v2zm25 0 1-1v1h-1zm50 0v-2 2c0 1 0 0 0 0zm-72 0v-3l1 2-1 1zm43-1 2-4v4h-2zm37 0-1-2h1l1 3-1-1zm-86-1v-1 2-1zm156-1v-2l2 1 1 2-1 1-2-2zm-74-1c0-2 0-2 1 0 1 1 0 2-1 2v-2zm9 1v-3l-1-3v-2l1 3 1 4v2l-1-1zm93 0v-1l1 1-1 1v-1zm-241-1c-1 0 0 0 0 0h1v1l-1-1zm8-2-1-3 1-1v1l2 2 1 1-1 1-2 1v-2zm144 1-2-5v-3l1 2 2 6v1l-1-1zm41 1 2-4 2-3 1 2c0 1 0 2-2 3l-2 2h-1zm82 0v-2h1l1 2h-2zm-273-1v-2c-1-2-2-7-1-8 1-2 2-2 2 1v7l-1 2zm165 0-1-2h1l1 2-1 1zm12 0c0-1 0-2 1-1v2l-1-1zm27-2 2-4 2-1v2c0 2 0 3-1 2l-1 2-1 2-1-3zm-192 1v-6l2-1v5l-1 3-1-1zm146 1-1-3v-3l1 3 1 3h-1zm103-1v-4l1 5-1-1zm-233 0 1-1 1 1h-2zm46 0v-1h1l-1 1zm88 0zm70-1c-1-2 0-5 1-5v2l1 3-1 2-1-2zm7 1 3-2v1l-1 1h-2zm-221-2v-1h1v3l-1-2zm31 2 1-3 2-2 1 2c-1 1-1 1 0 0l3-1h1c0-2 1-2 2-1h2l1-4 1-3c2 0 2 0 2-2l-1-3c-2 0-2-1-1-3h2l1 1 1-2 1-3 2-4 1-6v-3h1l1 5 1 4-1 2-2 2 1 1 2-1h3l-1 2-1 2 1 2v1l-3-2-2-2v4l2 3 2 3 2-1v-3h2c1 1 1 1 2-1 0-1 0-1 0 0l2 3v4l-1 3h-1l-2 1 1 1 2 2h-2l-2-2c0-2 0-2-2-2l-1 1c-1 1-3 4-4 3l1-4 1-2c0-2-1-3-4-2l-2 1 2 1v1l-1 3v2l-2-1-1-2-1 1-2 1-2 1h-2l-3 1-2 1-2-1-2 1zm17-8c1-1 0-2-1-1v2l1-1zm16-2-1-2h-1v2l1 1 1-1zm42 9h1l-1 1v-1zm-161-1-1-4c0-2 0-4 2-7a2331 2331 0 0 0 5-14v-3l-1-1-3 1-1-1v-5l1-3 4-7c2-4 3-6 2-7v-9c-1-1-1-1-3 3l-4 5-2-1v-3l2-5c2-2 3-5 3-7l-1-4-1-5-1-6-1-5 1-5 3-2c2 0 3 2 1 3l-1 3 1 5 1 6 1 6 2 4v3l1 4c0 2 0 3 3 6l3 5v4c0 2 0 2-3 1l-3 1-1 6-1 6c0 3 0 3 3 4l3 2 1 5-1 4-2-1-3-1-1 3c1 4 1 4 4 7l3 3v4l-1 3-3-1-2-4-1-2-3 4-2 3-3-1zm69 1v-5l3 4c0 1-1 2-3 1zm158-1-2-2 1-2 2-2v7l-1-1zm-166 0-2-1v-3l1-2 1 2 2 1h1v2c1 2 1 2-3 1zm86 0-2-2v-1h1l2 2h3l1 1-2 1-3-1zm58 0 1-3c1-1 5 0 5 2h-1l-2 1h-3zm57 0v-1l1 1h-1zm217 0-1-2 1-3 1 2 2 1 1 2-2 1-2-1zm-342 0v-2l1-1 2 2-3 1zm29-1v-1l2-1 1 1-2 2-1-1zm165 0v-2c0-2 0-2 1 0v2h-1zm-82-2 1-3v6l-1-3zm-204 1h1v1l-1-1zm30 0v-2h1v3l-1-1zm162 0v-5 2l1 2 1 2-2-1zm76 1 3-5v4l-1 1h-2zm-261-1 1-4v3c0 1 0 2-1 1zm242 0-1-1h1v1zm-13-2 1-1 1 1-1 1-1-1zm8 0v-3c1-1 1-1 1 1v2h-1zm35 0v-1l1 1h-1zm-284-1v-2l1 1h1l-1 1h-1zm159 0-1-1h1l1 1h-1zm121 0-1-2 1-2 2 4h-2zm-183-1 1-2c0-1 1-1 1 1l-1 2-1-1zm34 0c-2-2-3-4-2-5h2l1-1 1 1 1 2 1 1-1 2h-3zm157 0 1-1v2l-1-1zm-140 0 1-1 1 1h-2zm21 0v-1h1c0 1 0 2-1 1zm22-1c-1-2 0-3 1-3v4l-1-1zm11 0 1-1v2l-1-1zm59 0 1-1v2l-1-1zm-85 0h1l-1 1v-1zm-173-1 1-1v2l-1-1zm51 1v-2h1v2h-1zm70 0v-4c0-4 1-5 2-5l-1 8-1 1zm90-1 1-2v-2l1-1 2 5-1 1v-1h-3zm17 1-1-3-1-3c1-2 0-2-1-3l-2-1-1-2-1-2 2 1 2 3 2 2c0 2 2 4 3 4l1 1-1 2-2 1zm-204-1 1-1v1l-1 1v-1zm-7-2-1-3v-1l2-1h3l-2 1c-1 1-2 1-2 4v2zm98 1 2-1c1 1 0 2-1 2l-1-1zm66 0c-1-1-2-6-1-7v-2 2l2 2 1 2v2c1 2-1 2-2 1zm72-1c-1-1-1-2-2-1h-2l2-1 1-1 1-1 1 5-1-1zm12-2c-3-3-4-5-3-6h1l1 2c1 1 2 0 1-3l1-3 1 3 1 6-1 3-2-2zm-260 1v-1 2-1zm152 1v-3l1 2c1 1 0 1-1 1zm82 0v-2h1v1l-1 1zm-104-1v-2l1 1-1 2v-1zm15-1c-1-1 0-2 1-1v2l-1-1zm52 1c0-2 1-2 2-1v1h-2zm15-1-1-2h1l1 2-1 2zm54-1c-2-3-2-5-1-5v2l2 1 1 1v3c-1 1-1 1-2-2zm136-2c0-4 1-6 2-5v5l-1 4c-2 1-2 0-1-4zm-412 4v-2l2-1 1 1-1 2h-2zm159 0v-3l1 1v2h-1zm281 0-2-1-1-4 1-2 1 2 2 2 2 2-3 1zm-326-1c-1-2 0-3 1-2v2h-1zm38-1v-2l1 2v1l-1-1zm83 1v-2h2l1-1h1v2l-2 1h-2zm-127-1c-1-1 0-1 2-2l2 1c0 2 0 2-2 2l-2-1zm58 0v-1l1 1-1 1v-1zm26 0v-5 1l1 3v1h-1zm89 0 1-3c1-1 1-1 1 2l-1 2-1-1zm-85-1-1-2c-1-1 1-3 2-2v1c0 1 1 1 1-1l2-3-1-2h-4l-6 1h-4v3a21 21 0 0 1-5-5h11c2 1 3 1 4-1l1-1h1v-5c1-1 1-1 3 1l1 1 2-1 3-1v1l-3 4c0 2-1 2-2 0h-1l3 3h5l4-1 3-1-2 2-2 1-2 1h-5c-1 1-2 1-1 4 0 2 0 3-1 2s-2 0-3 1l-2 1-1-1zm51 1v-7h7l1-2v-2l-1-2-1-2h11l1-2 1-3 2-1 1 3v3l-1 1-2 1-5 1-5 1 1 1 1 3-2 1c-3 0-3 1-3 3 1 3 0 4-1 2l-1-3-2-1-1 2v3h-1zm-77-2v-2l1 1c2 0 2 1 1 2l-1 1-1-2zm94-2-1-3 2-1 1 1-1 1v6l-1-4zm23 2v-1c0-1-3-2-4-1l-1-1v-2l4-1 1-1 2-1c2 0 2 0 3 2v3l-2-2c1-2 0-2-1-2s-2 2-1 5l1 2h-2zm-125-1v1-1zm14 0v-3l1 1 1 2 1 1-1-1h-1c-1 2-1 1-1 0zm51 1v-1h1l-1 1zm33 0 1-1v1h-1zm-122-1 1-1v2l-1-1zm27-1 1-1v3l-1-2zm46 1 1-2 1 1c0 1-1 2-2 1zm66-2v-4c0-1 0-2-3-4l-2-2 2-1a284 284 0 0 0 7 2l-1 2c-1 2-2 2-1 5l-1 3-1-1zm-41-1h1v1l-1-1zm6-1 1-1c2 0 2 2 0 2l-1-1zm-66 0-1-1h-1v-1c2 0 4 1 3 2h-1zm53-2-1-1c-3-1-3-2 0-3h4l3 1h7c1 1 0 2-3 2h-6l-2 1-1 1-1-1zm-11-2v-1l2-1v-7h2l1 4-1 5-3 1-1-1zm64-2 4-2v2h-4zm-173 0c-1-1 1-3 2-3v1l-1 2h-1zm327-4-1-5h3l1 3 1 4 1 1-1 1c-1 0-2 0-4-4zm-192 3 1-1 1-2 1-4 1-2c3-1 3 1 1 5l-2 4h-3zm-20-5 2-2 1-1v-2l-9 1h-2v-1l4-1 7-1h5l2-1 1 1-2 2-2 2c1 1 0 1-1 1l-2 1c-1 1-3 2-4 1zm-27-3c-2-1-2-2-1-2l2-1h3c3 2 3 2 5 1l4-2c2 0 2-1 1-4l1-3c1 0 2 2 2 5l-1 3-5 3h-11zm81-2v-1h2c0 1-1 2-2 1zm-209-1 1-2v1l-1 2v-1zm-2 0v-1 1zm171-1-1-2 1-4v-2l2 3c1 3 1 3 4 3l2 1-6 2-2-1zm19 0h-6l-4-1v-1h3l4-1h3l3 1 4-1 1-3v-4l1 2 2 3c2 2 6 2 7 1l2-1 2 1v3l-3 1-5-1h-5l-3 1a319 319 0 0 0-6 0zm25-1c-1-1-1-1 1-1l4-1 4-1-1 2-6 2-2-1zm-86 0 1-1 1 1-1 1-1-1zm238-1 2-2 1-1-2-2-1-2-1-1-1 2v3l-3-7v-2h2l3 1 1 2v2l2 1 1 3-1 3h-3zm-371-2v-2l-1-3-1-2 3 5c0 2 0 3-1 2zm179-2 1-3 1 2-1 1h-1zm-155 0-3-1c-2 0-2 0-1-1h10l-4 2h-2zm183-1v-2l2 2h-2zm138-2-4-1h-3v-1l2-1 5-1 4 1v2c-1 1-2 2-4 1zm-167-3-5-1h-4c-1-1 1-2 2-1h13l2-2 4-1-1 2-1 2-8 2-2-1zm-179 0-1-2h-3v-1c-1-2 0-2 1-3l2-2v-2l1 1 1 1 2-2 1-1-1 3-3 6v2zm63 0 1-1v1h-1zm137-2-7-1-1-6-1-4 2 2 1 3v3l2 1 1-1 4 1 6 1 4-1 5-1 8-1 6 1 1 2-3 1-2-1h-1l-1 1h-4l-4-1-2-1-2 1c-1 2-1 2-4 2l-8-1zm145-3h3l-2 1-1-1zm-133-4-1-2h2v3l-1-1zm134-3-2-2v-2h4l-1 1v2l1 1-1 1-1-1zm-297-4-1-2-1-3-6-1h-6l-2 2-1 1-1-3c-1-1 0-1 1-2 2-1 2-2 2-3 0-2 1-2 1-1l1 1 1 2 9 1 9-1v-6l1-1 1 3 2 3 7 1 6-1 1-3v-1c1-1 3 1 3 2l-2 2c-2 2-4 2-7 3l-7-1-3 1-4 1c-3 0-3 1-2 2l-1 4h-1zm336-2-2-5-2-6c-2-1-2-2-2-4v-2l1 2 3 3c2 2 2 2 2 5-1 3-1 3 1 5l1 2h-2zm-362-3-2-1 4-1 5 1-1 1h-6zm87-4-3-2h2c7 1 8 1 8-4l-1-4v-1c1-1 2 0 4 2v3l-1 1-1 3-5 3-3-1zm11-3 1-2 3 2-2 1-2-1zm109-1v-1l1-1v-4l1 1 2 2v1l-1 2-1 1-2-1zm-14 0c-1 0 0-2 2-2l7-2 1-1 2-1c1 1-1 4-3 5l-5 2-4-1zm106-4 1-1v2l-1-1zm-96-4v-1l1 1v1l-1-1zm-4-4 2-1h13c0 1-4 2-9 2l-6-1zm-217-1v-1h1l1 1h-2zm374-2-1-4 1-4h2v3l1 4v2l-1 1-2-2zm-40 0 1-1h1c1 1 0 2-1 2l-1-1zm-331-5v-2l1 2h-1zm225 0-1-2 4-1 6 1c3 1 3 2 1 2l-3-1h-4l-3 1zm-325-9-4-2v-6l3-2 3-1 3 1 2 4-1 7-2 1-4-2zm313 0 1-1 1 1h-2zm118-1v-1c2 0 4 0 3 1h-3zm-106-2c0-2 1-2 2-2l6-1h5c1 1 0 2-3 2l-3 1-4 1-3 1v-2zm144 0c-2-1-2-1-2-3l1-3 3 2 2 4-1 1-3-1zm-272-16h-3l-2-1 2-1 7-1-2 2c-1 2-2 2-2 1zm273-1v-2l1-1v4l-1-1zm-324-1-3-3h-4c-2 0-4-1-3-2h4l5-2 3-3 1-1 4 2 2 2c0 2 1 2 3 2l3 1h-2l-6 2-4 2h-3zm6-4 1-2-2-2-3 2-1 3c0 1 3 1 5-1zm69 4 3-1 4-1 14-3 7-1h1v1l-7 1-5 1-7 2-8 1h-2zm-236-2a21 21 0 0 1 1-13c2-3 2-5 2-10l1-7h9l1 2 3 6 2-2c2-2 2-5 1-6v-2l3-5 2-2 3 2 2 2-2 4a2991 2991 0 0 0-3 18l1 1-1 2-1 2-2 2-3 2-4-2-1-4-1-4h-2l-1 1v2c0 1 0 2-2 3-1 2-2 3-1 5l-1 3-3 1-3-1zm12-20-1-1-1 1h2zm134 21 1-1v1h-1zm126 0c-1-1 0-2 1-2l5-1a422 422 0 0 1-6 3zm76 0 1-1 2-1 1 1-4 1zm-161-1h5l-3 1-2-1zm75 0zm35 0 3-1 4-2 1 1-7 3-1-1zm-8-1 12-4-4 2-7 3-1-1zm45 1-2-1-1-1h7c3 0 3 0 2 1l-6 1zm-150-3-2-2h-2l-1-1 3-1 2 1c1 2 3 2 4 0h1c1 1-1 4-2 4-1 1-2 0-3-1zm-157 0-1-1h1l1 1h-1zm283-1s3-2 4-1l-3 2-1-1zm28-2 1-1h2l-2 1h-1zm-5-1 1-1 1 1-1 1-1-1zm-2-3 2-1h1l-1 1-2 1v-1zm-49 0h9-9zm23-1 1-1 1 1-2 1v-1zm32 0h5-5zm146-2v-3l1-3 3 3 1 4-2 1c-2 0-3 0-3-2zm-174 0h4l-3 1c-2 0-2 0-1-1zm-47-1v-1c2-1 4 0 4 1h-4zm54 0 1-1h1l-1 1h-1zm8 0 1-1v1h-1zm3-1c2-2 4-2 4-1l-4 2v-1zm-1-3 4-1-4 2v-1zm17 0-1-2 1-1 1 2 1 2-2-1zm-95 0v-1c1-1 6 0 8 1 1 1 0 1-3 1l-5-1zm16 0 10-4 2-2 4-2v1c-1 1-12 7-15 7h-1zm-56-1 2-2 2-4 1-3-1-1 2-1h3l-1-1-1-1-1-1c-1-1-1-1 1-3 1-2 2-2 3-2h2v-2c-2-1-2-1 0-1h1l1 3-2 3-1 2 3-1v-1c-1-1-1-1 1-1h2c0 1 0 2-2 3-2 0-5 3-5 3l1 2 1 3v3l-2 2-4 1h-6zm10-3v-4l-2-1-2 4c0 1 2 2 4 1zm83 3 9-2v1l-9 1zm22-1-2-1h5l1 1h-4zm-43-1s3-3 5-3 1 2-1 2l-2 1h-2zm36-2 1-1 3-1 2 1-3 1h-3zm11-1c-1-1 0-1 1-1l2 1h-3zm-29-1v-1h7l-3 1h-4zm39 0h4l-2 1-2-1zm-153 0 1-2 1-1h-2l-1-1 1-1 6 1-2 3-2 1h-2zm295-1-1-2v-2l2 2 2 2-1 1-2-1zm-243 0v-1c1-1-1-1-3-1l-3 1h-8v-2c1-2 4-3 8-2 3 0 3 0 5-2l2-1 1 1v3l1 2-1 2-1 1-1-1zm-29-4 3-3 2 1v1h-2l-1 1-1 1-1-1zm46 0 6-3 2 1-3 2h-5zm-9-1-3-2 6 1 2 1h-5zm-48-1c-2 0-3 0-2-2l3-2h2v3l2-1v-3l1 1 3 2v-1l-2-3c0-2-1-3-2-3-1-1-5-2-7-1-3 0-2 1 1 1l3 1-1 1h-7l-8 2h-2v-2l2-1c2 0 2-2-1-2l-2-2 1-3c1-2 1-2 5-2 4 1 4 1 5-1l3-2 1 3h-2l-3 1-2 1-3 1c-2 0-2 1-2 2 0 2 0 2 1 0 0-1 1-1 1 1v1a22 22 0 0 0 7-4h1v1c-1 1-1 1 1 1h1l2-1c1 0 2 0 3-2l3-2 2 1-1 2-1 1h4l-1 1-2 1 2 1 1 1 2 3 3 1-1 1-3 2-5 2h-6zm-7-8 1-2-1-1-4 4 1 1 3-2zm11-4h-1s-1 0 0 0v1l1-1zm30 10 1-1 1 1-1 1-1-1zm28 0 4-2h1l-4 3-1-1zm-25-1v-1l5-1 8-1h3l1 1-11 2h-6zm20-1 7-2-2 1-4 2-1-1zm225-3-1-2h1l1 2v2l-1-2zm-477 0v-2c0-3 2-6 3-6h1l1-5 1-7-1-2-3 1-2 1-3-5c0-2 1-3 3-5 2 0 3-2 4-4l5-4c2-2 3-2 5-2l4 1v3l-1 3-4 2-1 8 1 7 4 1 4 4v2l-4 1c-2 0-2 0-6 4-3 3-5 4-7 4l-2 1-2-1zm318 0-2-1 1-2 9-10 3-3 2-3 4-5 2-2 1-2 1-1-3 6-1 2-3 4-4 4v2c-2 0-4 4-4 5l-1 2-2 2 1 1v1h-4zm-48 0 4-3c3-1 5-2 6-1l-2 1-8 4v-1zm-61-1v-1c1-1 3 0 3 1h-3zm21-1c-2-1-4-3-3-5l-1-4-1-2 1 1 1 1 3-1v-5c-2-1-2 0-2 1l-1 2v-2c-1-2 0-2 1-4 2-2 3-2 2-4l1-2h1l-1-2v-6l2 1v2h-1l1 1 4 1h4l-2 2-2 4 1 1 4-1c3 0 3 0 3-2v-1l3 2-3 2-3 1-2 2-2 2-2-1-1-1-2-2c-1 0-2 1-1 3v3h2l2 1v2l1 4-1 4c-2 2-3 2-6 2zm4-3 2-2-4-3-2 1h-1l-1 1c-1 1 2 4 4 4l2-1zm3-20v-3l-3 2 1 1h2zm27 22 2-1 8-4 3-2-1 2-3 2-8 4-1-1zm-20-2-2-4 2-1 1-1-1-1h-2l-4-1v-2h1l2 2 4-1 2-2v-1c2 0 2-1 1-2v-1c0-1 1-1 3 1 2 1 2 2 2 3l-1 4v6l-2 2-3 1-3-2zm6-3-1-2-4 2c0 1 3 3 4 2l1-2zm1-7h-1v1l1-1zm34 11 2-1h3-2l-3 1s-1 0 0 0zm185 0v-3l-2-3v-4l2 1 2 2h2v3l-1 3-1 1h-2zm-261-2v-2l1-2c1 0 2 0 2-2v-2l1 1c1 1 1 2 3 2h2l-3 2-3 2-3 1zm119-3 1-2h2l-1 2c-1 1-2 2-2 0zm-132-1 1-1h1v1l-1 1-1-1zm94 0 1-1h4l-2 1-2 1-1-1zm9 0 1-1 1-2 2-1 3 1-6 4-1-1zm-15-1 2-1-1-1-1-1h7l-6 4-1-1zm-81 0v-3l2 1c0 2-1 2-2 2zm4-2 3-1-3 3v-2zm124 0 2-2v2h-2zm4-1-1-1 2-2c1 0 2 1 1 2l-2 1zm-39-3 7-2-2 1-4 2-1-1zm8-2 3-1 4-2h1c0 2-2 3-5 3h-3zm-55-4 1-1 1-1-1-2c-1-1-2-1-1-2l-1-3-2-1h2l2 1 1 3 1 2c2 1 0 5-2 5l-1-1zm37 0v-1h1v1h-1zm8 0h6-6zm-68-1 2-1 1 1h-3zm35 0-2-2v-1l4 1 2 2h-4zm10-1c2-2 5-2 9-1l3 2h-13l1-1zm40 0c-1-1 1-2 2-2l-1 2h-1zm-100 0c-2-1-2-1 1-1l2-1v1l-1 1h-2zm14-2h3l-2 1c-2 0-2 0-1-1zm38 0c-1 0 2-2 4-1l1 1-2 1-3-1zm53 0h1s1 0 0 0l-1 1v-1zm27-2 2-4 1 1-2 4-1-1zm-68 0 4-1c3 0 2 1-1 1h-3zm18-1h2l-1 1-1-1zm31 0c-1-2 0-3 2-3l2 1-2 1-2 1zm-26-2h-7l11-3h4c1 1-1 2-4 3l-2 1h-1l-1-1zm64 0v-2l1-2 2-2 4-2 1-3h2l-1 2-1 1-3 5-4 4-1-1zm-78 0 5-3-1 2-2 1h-2zm65-3 1-2 1-2 3-7c3-3 4 0 1 4a398 398 0 0 0-6 7zm-22-1h2-2zm-51 0 3-2v1l-3 1zm102-1c1 0 1 0 0 0v1-1zm-118-2-1-2 1 1h2c1 0 2 0 2 2l-1 1-3-2zm86 1c0-3 1-5 2-5v1l-1 2-1 2c-1 1-1 1 0 0zm-94-1-1-1h3v2l-2-1zm44 0 2-1c2 0 2 0 1 1h-3zm70-1 1-3v-6h-1c-1 0-2 0-1-1v-1l1-3c0-3 2-4 4-4h1l-1-1 1-3c0-2 1-2 2-3l1 3-4 9h-1c-2 1-2 2 0 4l1 2-2 4-2 3zm-85-2 2-1-2 1c-2 1-2 0 0 0zm-14-1 1-1h2v1l-2 1-1-1zm54 0 1-1h5l-2 1-3 1-1-1zm-36 0 2-1 2-1c1 1-1 2-3 2h-1zm25-1h4l-4 1v-1zm38-1 1-3c2-2 4-2 2 0l-2 3-1 2v-2zm-72 0h2l-1 1-1-1zm17 0h2l-1 1-1-1zm38 0 2-1h1l-1 1h-2zm42-2 1-1v1h-1zm-50-2h1c1 0 1 0 0 0v1l-1-1zm16-1h2c1 0 1 0 0 0h-2zm-31 0 2-1 1 1h-3zm50-1 1-3 1-2 1-2 3-4c1 1-5 12-5 12l-1-1zm-344 0-1-3c0-2 0-2-2-1h-2c-2 0-2-4 0-7l1-3-1-1-1-2 1-6 1-6-1-2h-1l-3-2-1-3 2-5 2-4v-6l-1-7h-2l-3 1-1-2c-2-3 0-7 4-12l1-3c0-2 0-3 3-7v-3l-1-7v-5l2-3 4-4h2l1 2-3 4-3 4 1 6 2 5c0 1 0 2 2 2l2 4 1 3-2 2-4-2h-3l-1 5v6l1 2 3 2 4 4v3c0 2-3 2-4 1h-2c-1 1 0 4 2 7l2 6 2 2c3 2 4 3 4 5l-1 2h-3l-3-3h-2v4l1 5 3 3 3 2 3 1-1 3-1 5c0 3 0 4-2 5l-1 2-1 1-1 1-1-1zm1-14v-1l-1 1v1l1-1zm280 14 5-2v1c-1 1-4 2-5 1zm80-1 1-2 2-2-2 5-1-1zm-71-1h3c1 1 1 1-1 1l-2-1zm53-4 1-7 3-3-1 3-1 2v5l-2 2v-2zm38 1 1-1v2l-1-1zm-16-2c-1-1 1-4 2-4l-1 3-1 1zm-280-2-1-1 1-1 4-2 4-1 1 1-2 1-4 2-3 1zm16-1v-1c1-1 2 0 1 1h-1zm282 0v-2h1l-1 2zm-303-1v-2l1 1v2l-1-1zm307 0v-2h1c0 2 0 3-1 2zm-39-1 3-5-1 2-1 2-1 1c0 1 0 0 0 0zm45-1 1-3 1-4 3-7v2l-1 4-1 3-1 1c1 1-1 5-1 5l-1-1zm5-2 1-3 2-1-2 3-1 1zm-38-1c-1-1 0-6 2-8l1-2 3-6 2-6 1-1a115 115 0 0 1-5 13l-1 3-1 1v5l-1 1h-1zm9-1 1-1 1-1v-1l-1 3h-1zm-3-1 2-3-1 3h-1zm24 0 1-3h1l-1 1-1 2v1-1zm-7-3 1-3v-3l2 2 1 1-1 3-2 2-1-2zm-307 0c0-2 1-2 1-1l-1 1s-1 0 0 0zm277 0v-3l2-3h2v3l-1 1-2 1-1 1zm18 0 1-1v1h-1zm-22-2 1-2h1l-1 2h-1zm53-1 1-1v1l-1 1v-1zm-33 0v-1h1l-1 1zm25-1 1-3 2-5 2-4-1 5-1 2-1 3-2 2zm-43-2h1v1l-1-1zm36 1 3-8 2-5v3l-2 5-3 5zm-16-2c0-1 2-4 3-3l-2 4-1-1zm53-1c0-1 0-1 0 0v1-1zm-65-1v-1l1 1-1 1v-1zm51-2-1-1c1-1 2 0 1 1 0 1 0 1 0 0zm-32-1v-2c1-1 2 0 1 2l-1 1v-1zm47 0c0-2 1-3 2-3h1v3l-2 1-1-1zm-20-1 1-3c0-1 0-2 1-1l-1 3-1 1zm14-1v-2l2 3-1 1-1-2zm-57-1 2-1-2 3v-2zm48-1c0-1 0-1 0 0v1-1zm-51 0 1-1 1 1h-2zm70-1c-1-1-1-1 1-2h1v1l-1 2-1-1zm-49-1v-2h1v2l-2 1zm30 0 2-3-1 3h-1zm-16-1h1v1l-1-1zm-25-1 2-2-2 3v-1zm38 0 1-2v3l-1-1zm-21 0v-1 2-1zm-9-1c1 0 1 0 0 0v1-1zm19-1-1-2 1-2v-2l2-1 2-1 2-2 1-3 1-1-3 6-2 5-1 3h-2zm9 0 1-3 2-3 1-1v-1l1-2 1-2c1-2 1-2 2-1s1 1-1 3l-2 4-3 4-1 2h-1zm23-2 1-5 1-1 1 2v3h-1l-1 2-2 2zm-41-1 2-5 3-5h1l-1 1v1l-1 5-3 5c-1 1-1 1-1-2zm-11 1c-1-1 0-2 1-2s2-2 1-3v-2l1 1h1c2-1 2 0 1 1l-2 4-2 1v1l-1-1zm25 1 1-2c1-1 2-1 1 1l-2 1zm21-3a321 321 0 0 1 0-3h-2l2-4 2-2v2l1 2-1 3-1 3-1-1zm-52-5h2l-1 1-1-1zm64-1v1-1zm-60-2 2-3 1-1h-5l3-5 3-7 2-4 3-4 2-3 2-3c0-1 0-2 1-1l-1 3-1 3c0 2-2 4-4 6l-2 4-1 2-3 6 2 1 5-2c3 0 4-1 4-2l2-2 1-5 3-7v-1l2-2-1 2-1 3-1 2v3l-1 3v2h3l3-2 1-2h2l1 1 7-6 3-4 3-3 1-1 3-1 6-1-3 2-6 3c-3 2-5 4-5 6h3a100 100 0 0 0-3 5v-4l-3 2-2 1-2 2-2 1c-2 0-2 0-2 3v3l1-1 1 1-1 4c-1 1-1 1-1-1l-1-1-2 1-3 1 2-3 2-3h-3l-5 1c-1 1-2 1-1 2l-3 3c-1 0-2-1-1-2 1 0 1 0 0 0s-3 1-3 3c0 1 0 2-1 1l-3 1-3 2v-2zm44 0v-3l2-4 3-5c0-1 1-2 2-1l-4 8c-2 2-2 3-1 5l-1 2-1-2zm14-3v-1h1l-1 1zm3-1 2-8h-1l-1 2-1 3v-1l-1-13-1-1c1-1 1-2 2-1l2-1v-1l-1-1h-1l1-1c1 0 2 0 3-2l1-3v2l-2 7-2 5 1 1 1 2 1 1 1 3-1 5c-2 2-3 4-3 2zm-31 0 1-1h1l-1 1h-1zm21-1 2-4c1 1 1 2-1 4l-1 1zm6-2c-1-1 0-3 1-3v2l-1 1zm-25-2 1-2h1l-1 2h-1zm7 0a824 824 0 0 0 5-10l3-2-3 3-3 6-2 4v-1zm16-7 1-2h1l-1 2h-1zm-29-4 1-3 1-4 1-2 1 1-1 4-3 5v-1zm25 0 3-7 2-4 2-3c1-1 1 0 1 1v1h1l1-1c1 1-1 3-2 2l-3 4-1 4-2 3-1 1-1-1zm13 0h1l-1 1v-1zm-46-10v-1l1 1-1 1v-1zm-10-1 1-1 1-1-1 2-1 1v-1zm22-3 3-12 1-4 2-2c1 0 2-1 2-4l1-4 1-2 2-3 1-2v-2l2-3 2-4c0-2 0-2 1-1v2l-1 2-1 1v2l-2 4-2 4-2 4v2l-2 4-2 4c-2 2-3 5-3 9l-3 7v-2zm21 1h1l1-2 1-2h2v2l-1 1-3 1h-1zm-32-1 1-1c0-1 0 0 0 0v1h-1zm43-1c-1-1 0-4 1-4v2l-1 3v-1zm-46 0v-2h1l-1 2zm22-1 1-1-1 1c0 1 0 1 0 0zm6-2 1-1 1 1-1 2-1-2zm2-2c-1-1 0-2 1-2l1 3-2-1zm14-1v-2c1 1 2 2 1 3s-1 0-1-1zm3-2-1-3 2-3c1-2 2-2 3-2l-1 5-2 4-1-1zm24 1v-2l1-3 3-1 2 1 1 3-2 1c-2 1-4 2-5 1zm-68-2v-1h1l-1 2v-1zm9 0v-1 1c0 1-1 0 0 0zm20-2v-2l1-1 1 1-1 2h-1zm7-1 1-2-1 2-1 2zm-443-2-1-2v-3l1-3 4 3v3l-1 2-1 1-2 1v-2zm430 1 2-3 2-2-3 5h-1zm-22-1v-1l1 1h-1zm39-1 1-1 1 1-1 1-1-1zm-9-3 1-2h1c1 1 1 3-1 3l-1-1zm13-1v-2h2v2h-2zm-41-1 1-1v1h-1zm7-2 1-2v2h-1zm31-1v-4l1-2h2l1 1-3 7-1-2zm-6-1 1-1v1c-1 2-1 2-1 0zm-19 0 1-2v2h-1zm-404-2-1-4 1-4h7v6c0 2-2 4-4 4l-3-2zm415-3 1-1v1l-1 1v-1zm-433-1-4-2-2-5v-7l2-11 2-2h10l2 2 1 3v4h-2l-4-2-4-1-2 3v4a1008 1008 0 0 1 3 8l2-1c2-1 2-2 0-2h-2v-4l2-2c2-1 2-1 4 1l4 1 3 1-1 2-3 5c-2 5-3 6-6 6l-5-1zm448-1 1-2v2h-1zm-8-3c0-2 1-3 1-1l-1 2v-1zm-4-1 1-2v2l-1 2v-2zm-13 0 1-1v1l-1 1v-1zm26 1 2-7h1v2l-1 3c0 2-1 3-2 2zm-2-4s0-1 0 0v1-1zm-8 0-1-1 1-2 1-2 1-1c1 0 2 1 1 2l-1 1v3h-2zm9-2 1-1v2l-1-1zm2-3v-1 1c0 1 0 0 0 0zm-7-2v-2l2 1-1 1h-1zm-6-5v-5l1-1 1 2 1 1 1 4v3h-2c-1 1-1 1-2-4zm3 3v-1l-1 1 1 1v-1zm6 0 1-1 1-5 1-5-2-1v-1c0-1 0-1 0 0h-2v-2l2-2c2 0 3-1 3-3 1-2 2-3 2-1l-2 6-2 2 2-1c2 0 2 0 3 2l1 2-3 3-2 5-2 3-1-1zm5-2c0-1 0-1 0 0v1-1zm-10-7h2l-1 1-1-1zm-1-3 2 1h-1l-1-1zm-8-1 3-6v2l-1 2-1 2h-1zm9-3c-1-1 0-3 1-5l1-4 1-4 1-3c1-1 1-2 2-1 1 0 2 0 0-1-1-1-1-1 1-3 2-1 2-2 2-3v-3h2l-1 2 1 2-1 2c-1 1-2 2-1 3h1l1 1-2 3c-2 2-2 3-1 3l2-1h2l-1 2-1 2-2 2-2 2v-2h-1l-3 3-1 3h-1zm-11-2 3-4v1l-1 3h-2zm16 1c-1-1 0-2 1-2v2h-1zm-425-4-1-2-1-3-2-3v-6l-1-1-2 6-4 7c-2 1-5 2-7 1s-1-3 1-5l4-3 1-4-1-5c1-4 2-9 4-9 1-1 2-1 3 1l4 3 1 3 2-3 2-4v-3h2l2 3v5l-1 3-1 7v8l-1 3-4 1zm413-4c0-1 0-2 1-1v2h-1v-1zm4-5 3-7h1l-2 3-2 4zm5-6 1-1v2l-1-1zm2-5 1-2 5-11 2-1c1 1 0 2-1 3l-2 3-3 5-1 2-1 2v-1zM46 188c-3-1-5-3-5-6v-5c-1-4-2-9-1-11l2-1h3l1 6c0 6 0 10 2 11h3l3-1 1-6c1-5 3-9 4-9h2l1 2v4l-1 3a17 17 0 0 1-3 11l-8 3-4-1zm17-31c-3-1-3-2-3-4l-1-5 1-4 3-4 4-2 4 3 4 8-2 3-4 4-2 2-1 1-3-2zm5-8 1-2-1-2-2-1-1 4 1 2 2-1zm-17-11-1-2c-1-2 0-3 1-4v-6l-3-11-2-3-3-6c-2-5-2-6-1-8 0-2 2-3 4-2l3 6 2 8h2l2-2 2-6c0-4 1-6 3-6l3 1v6l-2 7c-3 7-4 9-4 13l1 5 2 1c2-1 2 0 2 1 1 2 1 2-3 5-4 4-6 5-8 3zm34-63c-2-1-3-3-2-5l2-1 4-3 4-2 1-1 1-3V47l-1-2c-2-1-3 0-5 1s-2 1-1 3l-1 9-2 1-1-2-3-6c-2 0-3-2-3-6l1-4 3-2h7l3-2 5-3c4-3 6-2 7 0l2 1 1-1 2-2 1-3 2-2h4l2 2 1 5 1 5v2c0 2-2 2-3 2l-2-3-2-2-2 2-3 2c-2 0-5 3-4 3l-1 2-1 12 2 1 1-1 2-2h3c1 1-1 6-3 10-1 2-2 2-6 3h-6l-4 3-3 3-3-1zm334-1-1-3V61h3l4-1-1-2-3-7 1-5 2-2 2-1h3l4 1 2-2 1-2c2-2 2 0 3 6l-1 7h-3l-4-1c-1-1-3 0-3 1l2 2 4 1 4 1 1 2 1 2 1 4-2 4-3 2-3 1-3 1-3-1h-2l-2 1c-1 2-3 3-4 1zm14-9c1-2-3-5-5-5l-1 1 1 4h5zm-54 9-1-4-2-4-1-5c0-2 0-3-3-5l-2-4 1-2 4-1 5 3 2 4 1 2 2-2 1-1 2-1 3-1 2 1 1 5 2 2 1 1c1 1 2 0 2-3l1-5 1-3v-4l2-2h8v3l-2 4c-1 1-3 3-3 5-3 4-3 7-4 10l-2 4-1 1-4-3-4-3-1-1-2-1-2 4-3 5c-2 2-4 2-4 1zm-71-1-1-2 1-4c2-2 2-3 0-14 0-3 0-3 2-5 1-2 4-3 8-3l4 2 3 4 1 4-1 3v1l3 4c0 2 1 3 2 3l2 1 2 2-2 3-3 1-4-1-3-5-3-3-2 2c0 2-5 7-6 8l-3-1zM53 73l-4-1-1-3 3-3 4-2 3 2 2 3-1 3-2 1h-4zm291-2-2-4-2-4-2-3-1-1-1-2c0-2 5-7 8-9l4-2 2 1 4 2 4 4 1 7c0 3 0 4-2 5l-3 4-2 2-2 1-3 1c-1 0-2 0-3-2zm8-10c2-1 2-2 2-3l-2-3c-2-2-4-2-5-1l-1 3c0 3 2 7 4 7l2-3zm-76 11h-2l-4-3-4-5-1-7c0-5 2-10 4-14l4-4c2-2 3-2 5-2l10 3 4 7-1 3-4 1c-2 0-3 0-5-3l-5-2-2 1-2 3 1 11 3 2 4 1c2 0 2 0 2-2l-2-2-2-2c0-1 0-2 2-3 2-2 2-2 4-1h6l5-1 1 2v4l-3 3-2 1v2l-1 3-2 2-5 2h-8zm-88-2-1-3 1-6v-4l-2-5c-2-4-2-5-1-6l3-1h13l1 1v3l-3 3-2 2 2 1 1 2-1 3 2 1 4 2v3c0 2-1 2-2 3l-3-1-4-1-3 2-4 2-1-1zm41-1c-1-1-2-2-1-4 0-4 3-6 6-5l3 6c0 2 0 2-2 3l-3 1-3-1zm-83 0-1-3 2-3 2-3-2-3c-1-3-2-4-1-6l2-4c2-2 5-2 8 1 4 3 6 3 8 0l3-2 2 1 1 7 1 5 3 1 3 1v3l-1 3-5 1h-4l-2-3-2-3h-2c-2 1-3 1-4-1l-2-1v2l-2 5-3 2h-4zm308 0-1-4 1-3 5-1 4-1c2 0 4 3 4 5l-4 3-6 2-3-1zm-327-1-1-1c-1 0-2-2-2-5v-9l1-3 2-1 2 1 2 2v6l1 6-1 4-2 1-2-1zm331-13-2-4 2-3c1-2 2-2 4-2s4 2 4 4l-2 4-3 2-3-1zM126 44l-2-2v-3l3-2 3 1c2 2 2 4 1 6l-3 1-2-1zM61 746l4-1-5-1-7 1-1 1h9zm3-5h-2l1 1 1-1zm-23-3 1-6c-1-4-1-5-2-4l-1 4 1 8 1-2zm13 1h-1c-1 0-1 0 0 0h1zm-3-23v-1l-2 1h2zm497-481-1-1-1 2 1 1 1-2zm0-30-1-1-1 1v2l-1 1h1l2-3zm-2-120-1-6v1c0 1-1 2-2 1s-1 0-1 1v1l2 3 1 3v2h1v-6zm-5 3h-1v1l1-1zM57 777h2l-1 1-1-1zm-15-1h-2c-1-1 3-2 4-1l1 2-3-1zm36-3 1-1v2l-1-1zm-2-2h1c1 0 0 0 0 0h-1zM8 750l-1-2 2-2 1 2v2c1 2-1 2-2 0zm2-10 1-1-2 2 1-1zm-4-1v-2l1-4c1-1 2-2 2-5v-5l3 2-1 5-1 7v1l-2 1H6zm-5-3v-3 1h3v2l-1 1-2-1zm11 0 1-1h1c0 2-1 2-2 1zm-6-6v-2l-1-2H4c-1-2-2-6-1-7 2 0 2-2 2-6v-4l1 2 3 2 2 1-2 1-1 1-1 2v12H6z"/>
</svg>
