<?xml version="1.0" encoding="utf-8"?>
<svg xmlns="http://www.w3.org/2000/svg" viewBox="0 0 938 937">
	<title>Map titled “The Battle of Battle 2nd Position: About ten minutes later.” The military formations from the previous illustration have been changed, showing the “Men of Sussex” to have routed the “Men of Kent” across the railway track, and two units of the “Men of Sussex” are approaching the Inn.</title>
	<path d="M883 936c-3-2-3-3-2-15 1-5 1-7-1-9-2-3-4-3-4-1s-5 7-11 10c-6 4-24 6-26 3l-4-1c-2 1-4 0-6-2l-3-3-5 3c-2 3-6 4-8 4l-5 2h-2c-1-1 0-3 1-3l2-3c0-2-3-1-6 2l-8 3-8 1c-2 1-6 0-11-3l-11-5c-5 0-13-2-13-3l2-1c2 0 9-10 9-14 0-6 3-23 7-32 3-8 3-8 7-8 7 0 8 3 8 12 1 5 0 9-2 13l-3 7-2 5c-3 4-2 9 2 13 3 3 4 3 8 2 3-1 4-2 4-6 0-6 3-11 8-15 4-4 4-4 8-2 5 3 8 7 8 10-1 10 1 11 7 7 4-3 4-4 3-16 0-18 3-31 7-36 5-4 10-3 13 2 1 3 1 3 13 3 12-1 18 1 18 4 0 4-3 5-8 5l-15 1-9 1v5l-5 17c-4 10-4 10-1 15 2 4 4 5 6 5 3 0 3 0 3-4 0-6 2-10 6-15 4-3 4-3 7-1 6 3 8 6 6 11l-1 5c1 1 7-4 8-6 1-4 7-7 10-5 6 5 7 5 14 0 5-4 7-5 12-5l13-1c9-2 14-1 15 5 2 8-4 14-9 11l-2-3c0-3-1-3-6 0h-6l-4 1-4 2-6 4c-4 2-5 4-5 7l-1 4c-1 1-2 2-1 3 1 3-3 11-6 11l-5-1zm-54-21-1-2-1 2 1 1 1-1zm-23-7 3-6c0-2-2-5-4-5s-6 11-6 14c0 2 4 1 7-3zm53-3-1-2-2 2 2 3 1-3zm-82-26c2-7 2-11 1-11-2 0-6 13-6 18 0 3 0 4 1 2l4-9zm59-1v-7c-1 0-3 6-3 13s3 3 3-6zm-623 53c-7-4-9-8-11-15-1-5-2-9-1-14l2-21c1-9 2-18 4-22l2-12v-5h7c8 0 14 3 20 9 4 4 4 5 4 10v18c-2 14 0 32 3 34 4 3 11-8 11-16v-12c0-15 0-16-3-17-3-2-2-5 1-5 2 0 3-1 3-4 0-4 5-10 10-10l8 3c5 1 6 3 8 8 5 9 4 14-3 21-3 3-7 7-10 8s-4 2-4 6c0 10 7 22 12 22 1 0 2-1 1-10l-1-11 4-1c6-2 10-2 24-1 13 1 15 3 14 14 0 9 3 10 6 2 1-5 2-6 4-6 3 1 3 2 3 7l2 6 5-7c3-7 4-8 2-15v-18c1-10 1-11 4-13 2-2 4-3 5-2 3 2 4 7 3 11-2 5-3 30-1 34l6 10 5 5-4 3c-5 4-9 4-12-2-1-2-2-5-1-6l-1-2-3 3c-1 5-8 13-10 13l-3-2c-2-3-7-3-7-1 0 1-1 2-3 2-4 1-9-5-8-11v-3l-2 6c0 2-2 5-4 6-4 2-4 2-9-2l-5-4 1-10c1-11 0-13-4-11-3 2-3 3-3 12 0 12-1 13-6 16-3 2-4 2-8-1l-7-8c-3-8-7-7-10 2-1 2-3 5-5 5-3 1-8-2-11-8-2-5-5-6-5-2 1 4-3 10-7 13-6 4-7 4-12 1zm9-14c1-2 0-3-1-4s0-3 4-9l5-9v-16c0-11 0-17-1-16l-2 3-1 3c-1-1-3 0-6 2-4 3-5 6-6 24l-1 15c-1 2 0 4 2 6 3 3 6 3 7 1zm82-6c1-6 0-10-2-10s-4 7-4 13c1 4 5 1 6-3zm-30-37c2-5 2-6 1-8-3-3-7-3-7 1l-1 8c-1 7 3 7 7-1zm143 52c-2-2-6-6-7-9-3-4-3-6-2-7v-15l1-20c0-16 0-18 2-20 4-3 8 0 7 5-1 6 1 7 12 8 19 1 25 6 14 11-4 2-6 2-9 1h-7c-4 2-5 2-7-1-3-2-3-2-2 8l1 18c0 5 1 8 3 10 4 4 5 2 4-8-1-14 4-22 12-17 4 3 5 10 3 17-2 5-1 6 1 6l6-7c9-11 10-11 16-6 3 4 4 5 7 4 4-2 6-1 9 5l3 4 4 2v6c-2 4-5 5-10 2-4-2-8-1-12 3-5 4-8 2-8-8l-2-7-8 6c-3 4-6 6-8 6s-5 1-6 3l-8 3c-5 1-5 1-9-3zm51-17-2-2-2 2 2 3c1 0 2-1 2-3zm-31-7-1-3c-2 0-2 4 0 5 1 2 1 1 1-2zm279 26c-3-2-4-3-9-1-5 1-7 0-10-1-3-2-4-2-6-1-3 2-8 2-8 0l-3-2c-2 0-3-2-3-4s0-3-2-3c-3 0-3 1-2 2 1 3-3 7-8 8-4 1-8-1-8-5 0-3-2-4-5-1-3 5-12 3-12-3l-1-4-2 2-4 4c-4 3-4 3-6 0-2-2-3-6-4-9 0-5-1-5-2-3l-3 7c-1 6-4 10-8 10s-5-4-4-15-1-14-5-7l-3 10c-1 4-7 9-10 9s-8-4-8-6c0-3-2-2-3 1-2 6-16 2-16-5 0-6-4-4-6 3-1 3-2 4-4 4-4 1-6-3-6-11l-1-8c-2-1-5 5-5 12 0 8-3 13-7 13-3 0-5-2-4-7l-1-4v-3c2-2 1-19-2-29-2-7 0-10 5-9 3 1 6 7 6 14 1 5 1 6 4 3 3-5 11-1 11 5 0 8 4 10 7 3 2-4 3-5 5-5 3 0 4 1 4 6l1 7c3 3 7 2 9-2 4-8 6-10 8-8 3 1 3 2 2 8l1 7c2 1 5-2 6-6 0-2 2-5 3-5l2-4c0-3 7-10 10-9 2 1 4 8 4 12 0 5 2 5 6 1 6-7 9-6 11 5 0 5 3 5 7-2l5-6c2 0 3 4 3 11 0 10 6 10 9 0 2-6 3-8 5-8s2 2 3 8c0 5 1 8 2 9l5-4c3-3 3-4 3-17 0-21 2-27 11-27 4 0 6 4 5 9 0 4 0 4 3 3 5-1 5 2 0 7l-6 7-2 5c-2 4-2 9 1 13s7 2 9-4c1-6 6-10 10-9 5 1 5 5 2 11-3 4-4 5-1 5l11-6c12-8 15-9 18-6 6 6 5 14-3 22-6 5-10 6-14 3zm9-12c3-3 4-7 1-7-2 0-10 6-10 8 0 3 6 2 9-1zm-42-33c0-7-1-7-2-6-1 2-3 6-3 11l-1 9 3-3c2-3 3-5 3-11zm233 36c-2-4 0-7 3-7 4 0 7 4 5 6-2 4-6 4-8 1zm-562-21c-3-2-2-4 1-6s9-1 9 2c0 5-7 8-10 4zm234-22c-2-1-1-6 1-8 3-3 7-3 10 0 1 1 1 2-3 6-5 3-7 4-8 2zm-20-73c-5-4-7-7-5-11 2-3 6-3 10 0 2 2 3 3 6 1 4-2 3-6-5-11l-5-6c-2-4-2-5 0-11 2-7 6-11 11-10s5 5 1 9c-6 5-5 9 3 14s9 8 6 16c-3 5-5 6-9 9-8 3-7 3-13 0zm-239 0-10-5c-9-7-17-9-24-7-10 2-11 2-14-2-2-4-2-4 2-6 1-2 5-3 8-4s5-3 6-5l4-2c4 0 4-1 4-2 0-4 2-11 4-13 3-3 1-22-3-27-3-2-11-4-13-2-1 1-1 2 1 5s2 3 0 6c-2 4-7 5-10 2-3-4-4-12-2-16 4-9 14-11 26-5 9 5 13 12 14 29 0 10 0 11-3 15s-4 6-4 12v7l11 5c9 5 11 5 15 4 9-4 15 3 7 9-3 3-12 4-19 2zm151-2c-3-3-5-6-6-11l-2-8 3-3c3-3 4-3 7-2 6 3 9 1 9-6 0-8-3-11-8-10-3 0-4 0-6-3-3-4-3-4 1-6s6-10 3-20c-3-15-1-23 6-21h4c2-2 8-1 8 1l-4 5c-3 2-4 5-4 7 0 9 6 13 19 13 7 0 7 0 8-3 1-5-1-9-10-16l-7-7 4-3c2-1 4-1 9 2l6 5 5 6c5 5 6 6 5 10-1 6-5 13-7 13l-11 4-9 3v7l-2 9-2 10c0 13-2 17-7 22-2 3-5 5-6 5l-6-3zm48-5c-7-3-10-8-11-19-1-8 0-10 2-12l3-4c2-4 14-5 20-3 12 5 17 14 12 22a69 69 0 0 1-18 17c-2 2-2 2-8-1zm12-14c4-3 5-5 5-8 0-5-1-7-7-8-7-1-11 2-11 8 0 5 4 11 7 11l6-3zm72 15c-3-1-4-3-5-19-1-13 1-18 5-18s5 3 5 16 1 15 4 12c2-2 7 0 7 2 0 5-9 10-16 7zm153-3c-3-3-4-5-4-12v-8c-1-2-5 6-6 13s-3 10-7 8c-3-1-4-7-3-14 0-3 0-6-2-10-4-8-4-12 2-12 2 0 5 0 6 2 2 1 4 2 9 1 6-1 7-1 10 2s5 10 2 11l-1 7c0 6 0 7 5 7 4 1 5 2 2 7-3 4-9 4-13-2zm-116-4-6-6v-16c1-32 3-39 10-39 3 0 4 3 4 12 0 5 0 6 2 6 6-2 8-2 10 0l2 2c0 2-6 5-11 6h-5v12c-1 16 0 17 8 17 6 1 7 1 7 3 0 3-8 9-12 9-2 0-6-2-9-6zm63 2c-10-10-11-28-2-32 8-3 11-2 18 12l5 8-2 5c-3 6-8 11-12 11l-7-4zm11-11c0-6-8-14-10-10v3l1 6c1 4 3 5 6 5 2 0 3-1 3-4zm-35 11c-5-7-7-10-7-17 1-10 2-13 6-13 3-1 3 0 4 7 0 4 2 11 4 15s4 8 3 9c-1 3-7 2-10-1zm109-1c-3-4-4-6-2-8 3-6 11-2 10 4-1 5-5 7-8 4zm-2-19c-7-1-5-11 2-11s12 11 4 12l-6-1zm-372-21-6-5c-4-4-7-4-13-1-7 4-8 4-13-1-5-4-6-10-2-18 4-9 18-8 15 1 0 1-1 2-3 2-3 0-5 3-5 7 0 3 4 4 8 0 3-2 3-2 3-17-1-7 2-24 3-26 2-2 5-2 15-2 16 0 18 3 4 4h-10l-1 5c-2 7-1 27 3 33 2 5 7 9 11 8 3-1 7 2 7 5 0 2-7 7-10 7l-6-2zm264 0c-1-2 2-6 4-6l3 2c2 2 2 2 1 4-2 3-7 3-8 0zm-333-2-2-7-2-10-2-5-2 4c-2 4-2 4-5 2-3-4-3-10 1-14l5-3c2 0 7 3 10 6 3 4 3 4 7 2 8-5 13-3 13 5 0 2 1 7 3 10 1 5 2 7 0 8-2 2-5 0-9-8l-4-6-2 3-2 8c0 8-5 11-9 5zm259-3c-3-2-2-6 1-7s6 3 5 5c-1 3-4 4-6 2zm-83-41c-6-6-7-10-7-19l2-10 3-6c0-1 2-3 5-4 4-2 5-3 5-7a591 591 0 0 1-3-17c-2-1-4 7-4 12 0 9-9 18-16 16-2 0-2-1-3-9 0-9 0-10 3-14l6-4 7-5c4-3 5-5 6-12 1-10 4-14 8-12 2 1 3 4 2 16l1 21c2 7 2 8 5 8l7-2c5-3 12-3 13 0l-1 5c-2 3-3 4-9 3-4-1-7 0-8 1-2 2-2 3 2 3s4 3 1 6l-2 3-2 7c-2 3-3 6-2 8 1 6-6 16-12 16l-7-4zm12-26c-1-4-3-3-6 3-2 5-2 6 0 10l2 3 2-6c2-4 2-8 2-10zm-18-23c0-3 0-4-2-4s-4 3-2 6c1 3 3 2 4-2zm-203 12c-4-4-6-10-2-13 2-2 3-3 8-2l5 1v-6l-2-9c-2-3-3-3-15-1-3 1-5 0-5-1v-4c3-3 4-12 1-14-1-2-2-1-6 1-4 3-4 3-3 11l3 16c3 16 4 18 1 19-6 2-8-4-12-29l-3-19c-2-9 0-10 13-11 11 0 12 0 15 3 3 2 4 4 4 9s0 6 5 6l8 3c3 2 4 4 4 12 1 13-1 22-7 27-5 4-7 5-12 1zm105-1c-2-2-4-7-5-12-3-8-3-13 0-26 3-11 3-16 2-16-3 0-6 2-8 6-2 5-2 27 0 35 3 7 2 10-3 10-4 0-5-3-6-16-1-14-2-15-5-13-1 1-2 4-2 16 0 13 0 14-2 14-5 0-6-4-5-22v-17l-6 1c-13 2-15 5-11 13 2 3 2 6 2 7-1 3 0 5 2 9l3 7c-1 2-5 1-8-1-2-2-3-1-7 1-5 4-6 4-12 2-5-2-7-6-6-14l4-14c1 0 2-1 2-3l2-3 7-5c4-4 7-5 15-7l12-3v-6c-2-8-2-18 1-19 3-2 7 0 7 3l1 10c1 7 1 7 4 8 3 0 3 0 3-5-1-8 0-9 2-10 3-2 7 1 7 5-1 3 1 4 3 2l10-4 16-7c3-2 11-5 17-6 11-4 15-3 15 2s-10 10-23 14l-11 4h-2v1c1 3-8 30-11 32s-3-2-1-10c3-10 4-11 2-11-5 0-8 31-4 34l2 4c0 2 4 3 6 2 2 0 2-3 2-8 0-11 6-16 13-9 3 2 3 3 2 6-3 7-2 8 5 7 5-1 6 0 6 2 0 4-5 7-13 8l-9 3c-6 4-11 3-15-1zm-61-12 3-9c0-8-5-8-10 1-2 4-2 6-1 9 2 4 3 3 8-1zm82-7-2-1-1 1 1 1 2-1zm-41-21c1-3-1-6-4-5-3 0-4 4-1 5h5zm-179 34-2-4c2 0 2 0 0-2-2-3-4-2-3 1 1 4-6 5-8 2s-3-3-5 1c-1 3-2 4-5 4-7 0-9-3-12-22-3-20-3-35-1-38 2-2 7-2 8 0l2 12 1 17 1 7h5l9 2c3 2 3 2 3 0s6-6 9-6 8 3 8 5l-2 4c-3 2-3 2-1 5l4 3c2 0 5 6 4 9 0 3-1 4-6 4s-6 0-9-4zm-58-3c-2-5-4-31-3-35s0-4-3-5c-11-2-11-7 1-14 11-7 20-8 21-4s-3 8-9 10-8 6-4 6l4 2c2 4 4 16 4 24l2 12c2 4 2 5-1 6l-6 1c-4 0-5 0-6-3zm422-3c0-1 1-2 3-2l7-1 5-1v-29l1-30c2-2 6-2 6 1s2 2 4-2c3-4 8-4 10 1 4 7 4 13 1 18-3 6-3 8 0 7 5-2 9-1 13 1 3 2 3 3 3 15 0 13 0 13-4 17-8 8-12 8-18 2-3-3-3-4-2-8 2-5 6-5 8-1s5 5 7 1 1-17-2-19l-9-1c-9 1-10-1-5-8 2-3 3-7 3-12 1-7 0-8-6-2-3 2-3 4-3 21v27c-1 4-8 7-16 7-5 0-6 0-6-2zm136 0c-6-2-9-5-10-10-2-5-6-7-5-2 1 2 1 4-1 5-4 4-8-4-8-17 0-8 0-10-2-11-1 0-2 1-3 6v24c0 4 0 4-4 4-4 1-5 0-5-2-2-6-1-16 0-30v-22c-1-10-1-12 4-13 2 0 4 0 7 3s4 3 7 3c2-1 3 0 5 1 3 3 3 6 1 6s-2 1-2 5l2 6c1 1 4-4 4-7s7-11 10-11c7 0 11 7 9 14l-2 9c0 3-3 8-7 13-6 7-7 11-2 16 3 3 4 2 4-2 0-5 4-9 9-10 4-1 11 4 11 8s3 4 8 3c3-2 4-1 5 1 3 3 2 4-1 7-2 2-5 3-15 3l-14 1c-1 1-3 0-5-1zm13-13-2-2c-2 0-4 2-2 3 1 2 4 1 4-1zm-24-17c-1-5-1-7-3-7-1 0-2 2-2 7-1 9-1 10 2 8 3-1 3-2 3-8zm9-9c3-9 3-12 1-12s-5 9-5 14c0 3 3 2 4-2zm-21-15c0-5-1-6-3-5-2 0-3 9-1 13 0 2 1 2 2 0l2-8zm-48 50c-3-3-3-4-2-12 0-10 5-16 10-16 3 0 6 5 2 5-3 0-6 5-6 11 0 5 0 5 3 5 2-1 3-2 5-8 1-6 2-8 4-8 3 0 5 2 6 8l4 8 2 5c-1 2-2 2-9 2l-13 2c-2 0-4 0-6-2zm-361-98c-8-4-24-9-29-9l-9-2-11-3c-21-2-36-5-38-8l-4-2-6-3-5-3c-2 0-10-7-10-9l-6-8c-4-3-7-8-8-11-3-6-6-4-4 2l-1 10c0 3-1 4-4 4s-4-1-4-4v-6l1-4c1-3-1-3-4 0l-10 6-11 6c-6 5-19 10-22 9-5-1-13-12-13-16s4-7 26-19c5-2 10-6 12-8l5-3 11-5 12-6 2-1 4-3 6-3 7-3c5-2 6-2 8 0s10 15 10 18c0 2-8 8-13 9-7 1-13 5-12 6 0 1 3 3 7 4 8 3 9 7 2 8l-4 2 11 8 16 10c7 5 15 8 26 9a237 237 0 0 1 65 17c6 2 12 8 10 11-1 2-7 2-13 0zm-170-50c6-5 15-10 18-10l8-4 28-15c7-3 8-4 7-8 0-7-3-7-14-1-10 4-12 6-29 16-8 6-15 9-25 14-5 2-7 4-7 5l1 3 2 2c1 4 5 4 11-2zm212-1-6-14-4-8-6-13c-6-12-23-39-28-45-14-14-29-26-33-26l-2 7c0 8-3 10-5 3l-2-5c-1 0-5 11-4 13 1 6-5 10-12 11l-10 1c-6 1-9-1-9-5 0-3 6-26 11-38l3-20c1-20 3-21 20-17l8 3v7l-3 16c-1 5-2 9-1 10l-1 3v2c1 1 2 0 3-1l3-2 7-3c3-1 7-2 8-1 4 0 4 3 0 4-7 1-8 6-2 9 4 2 10 7 24 20l5 4a150 150 0 0 1 23 36c7 8 15 22 17 30l7 14c5 8 5 9 1 12-6 3-7 2-12-7zm-99-88 2-5 1-6c2-3 6-26 8-41l1-8h-5c-5 1-6 2-7 11l-8 30c-3 8-5 17-3 19s9 3 11 0zM77 448c-3-2-9-12-10-16l-2-5-1-2-5-10-4-10c0-3 10-11 15-13 3-1 12-5 21-11a382 382 0 0 1 29-18l14-8c2 0 9 7 9 8l7 12c4 5 7 13 8 16 2 5 2 5-2 10a92 92 0 0 1-29 20l-8 4-6 4-5 3-5 3c-1 1-6 5-12 7-11 7-13 7-14 6zm16-18c2-6 3-14 2-14-2 0-4 3-5 10-1 8 1 10 3 4zm-10-4 2-12 1-13c1-4 1-5-2-5-5 0-7 5-7 18 0 11 2 17 4 17 1 0 2-2 2-5zm24-4c3-4 4-14 1-15s-7 5-7 12 3 9 6 3zm13-5 2-9c1-5 1-7-1-7-3 0-4 3-5 8-1 4 0 10 1 10l3-2zm-47-7c1-4 0-6-4-6-3 0-3 1-1 6 2 4 4 4 5 0zm59-7c2-9 1-11-2-8l-2 9c0 9 3 8 4-1zm12-1c4-3 5-8 3-15-3-5-5-4-7 5-3 14-2 16 4 10zm-48-6c3-2 3-8 1-8-3 0-7 7-6 9s2 2 5-1zm14-8 2-5c0-4-5-4-7 0-2 7 0 10 5 5zm15-12c1-7 0-8-4-4-3 3-3 9 0 9 2 0 3-1 4-5zm12-1c0-4-3-7-5-4s-2 7 0 8c3 1 5-1 5-4zm226 49-3-39-2-23a208 208 0 0 1-3-39l-1-6-16-2-26-1c-8 0-13 0-17 2-6 1-18 2-103 2a2964 2964 0 0 0-180 4c-7 1-12-2-12-7s3-9 6-7l6 2h5l-1-5v-17l-1-10h-4c-7 1-11-1-11-5 0-6 1-6 28-7 39 0 68 1 76 2a1637 1637 0 0 0 115 3 347 347 0 0 1 58 4c7 1 9 0 11-2s3-2 6-1l16 3c10 2 12 2 15 0 4-2 7-2 9 0l9 2c8 1 9 0 6-6-1-3-2-3-7-3l-15 3c-7 2-9 3-12 1-3-1-7-9-7-14 0-4 7-9 13-9 5 0 7-2 6-7-1-6 3-7 7-2 3 5 4 5 11 1 4-2 5-2 10-1 4 1 5 2 6 7l4 6c6 4 2 11-6 11l-5 1 2 7c3 8 2 8 35 9h37l1-10 3-15 1-6c-1-2-4 2-10 13-6 10-8 11-10 9s5-13 15-24l2-4h-13c-15 2-16 1-15-13 1-16 2-17 21-15 13 1 14 1 15-3 0-3 2-4 4-4 3 0 3 1 3 4v4h10c11 0 15 1 18 7 2 3 3 6 2 11-1 12 0 11-16 11-14-1-15-1-15 2l4 8c3 4 3 5 2 6-1 2-3 1-7-3l-6-3c-1 4-4 23-3 24l28 1c18-1 31 0 42 1 18 2 19 2 22-6 3-6 3-6-2-5-8 0-9 0-9-3 0-2 1-2 7-3 7-1 13-3 13-6l-7-6c-9-7-13-11-13-13l3-11c4-8 6-10 12-10l8 7c7 7 10 8 12 4 1-2 5-3 7-1 0 1 0 3-2 4l-2 4c0 2 7 8 14 12 5 3 6 5 6 10 0 3-1 6-6 11l-8 6-7-6c-4-4-6-5-7-4v6c2 6 2 8-1 8-1 0-3-3-4-7l-3-7c-1 0-4 4-7 12-2 4-2 5-1 6a1282 1282 0 0 1 154 5l54 3c2 2 2 7 0 9-3 2-20 3-27 1-4-1-5 0-5 1-1 1 0 3 1 4 2 2 5 17 4 20-1 2 6 4 10 3 3-1 10 2 11 5v4c-2 2-3 2-22 2a696 696 0 0 1-60-2l-13-2c-5-2-13-3-18-3l-11-1h-3a242 242 0 0 1-67-2c-2 1-4 0-8-2l-10-2-7-2c-4-1-4 0-6 6l-3 12-4 9c-2 2-3 7-4 11l-3 9c-2 2-11 29-13 39-3 9-6 13-9 11-4-2-3-12 1-24a380 380 0 0 1 20-50c0-3 4-13 7-17l2-4c0-2-2-3-12-4s-12-1-13-3v-3l-3 3c-2 2-4 2-20 2l-21-1c-4 0-4 0-5 7a304 304 0 0 1-5 34c-1 14-2 17-5 26l-3 9c0 2 0 3-2 3-2-1-2-2-2-13 0-14 3-26 10-53l2-12c0-1-3-2-14-2l-16-1h-12l-10-2c-2-2-6-1-7 1-1 1 0 4 1 6l2 14 1 14 2 17 3 54c0 4-6 5-8 1zm331-104-1-15v-6h-28v10l-1 13c-3 4 0 6 14 6l15 1c2 0 2-1 1-9zm-40 2v-9l1-8c4-7 4-8-12-8h-14l1 14v14l8 1h12c3 1 3 0 4-4zm-64-13 1-14-11-1h-11l-1 13v13l5 1c5 2 12 3 15 2 2 0 2-2 2-14zm28 1c1-14 2-13-10-15-7-1-8 0-8 13 0 16 0 16 10 16l8-1zm-61 11c2-1 3-3 3-14 0-15 0-15-13-15h-7l1 6 1 13v8l5 2c7 2 7 2 10 0zm-23-8c1-3 0-9-2-14-2-6-3-8-5-8s-4 2-5 3l-4 8c-4 5-4 13-2 15 1 1 5 2 10 1h8zm-29 3c2-1 4-13 2-20 0-6-1-7-5-7-7-2-8 0-6 10l2 13c-1 5 0 5 2 5l5-1zm-15-4-1-10-3-11c0-4-2-5-6-2-3 2-3 4-3 15l-1 12h7c5 0 6-1 7-4zm-66-1-1-3c-2 0-6 4-5 5 1 2 6 0 6-2zm28-5c3-7 5-9 9-12 7-4 7-6 0-6-5 0-7 1-7 2l-11 17c-4 4-4 8 1 8 3 0 4-1 8-9zm16 0v-9c-1-2-6 2-9 8-6 9-6 10 2 9h6zm-33 3 4-5 1-2 4-9 4-7c-1-1-9 4-13 8s-7 11-7 17c0 4 4 3 7-2zm-20-1c4-4 12-15 12-17s-5-3-11-3c-3 0-4 1-5 3l-9 11-7 9 8 1c8 0 9 0 12-4zm-24-3 8-11 3-5-4-1c-6-2-9-2-15 4-17 18-17 19-5 19 8 0 8 0 13-6zm-348-2-1-16-1-10h-7l-7 1 1 14c1 15 2 18 11 17 4 0 4 0 4-6zm100-8c0-12-1-14-3-15h-21l-1 15-1 13h8l13 1h5zm145 10a844 844 0 0 1-2-22l-10-1-10 1 1 3 2 13 2 9 10 1c7 0 8 0 7-4zm65 2-2-3c-1 0-2 1-2 3s1 2 2 2l2-2zm11-2 7-10 5-7-5-1c-3 0-5 1-9 5-3 5-4 6-4 11 1 7 3 8 6 2zm-289 2-1-9c-1-4-2-10-1-13l-1-6c-1-2-15-3-18-2-2 0-2 3-2 14 0 12 0 14 2 16 3 1 20 2 21 0zm34-13v-15l-15-1-13-1 1 12c0 8 1 13 3 15 2 4 2 4 13 4l11-1zm73 10-1-14c0-10 0-10-3-10h-21c-2-1-3-1-4 1-1 3-2 25 0 26l15 1h15zm45-8-1-13-15-2h-17l-2 12 1 13c0 2 4 2 17 2l17-1zm31-1c1-15 0-16-12-14l-7 1v8l-1 13-1 5 21-1zm68 6 3-7c-1-1 0-2 2-3l6-4c2-3 3-4 1-5-4-2-8-1-18 10l-11 13c0 1 9 3 12 2l5-6zm20 1c5-5 6-6 5-11v-6c0-3-5 0-10 7l-10 11-3 4 7 1c6 0 7 0 11-6zm-41 0c5-4 16-19 16-21-2-3-13 2-13 6l-4 7c-6 7-5 13 1 8zm213-10c1-2 0-3-1-2l-2 3 1 3 2-4zm-217-3c3-5 2-8-1-7-3 0-3 1-4 6 0 6 2 7 5 1zm33-28a835 835 0 0 1 18-7l-5-2-11 3c-11 2-18 4-18 7-1 3 1 3 16-1zm228 0c2-2 2-3-3-8l-12-10-12-8c-5-4-8-4-10 1-1 3-1 4 1 5l17 12 15 11 4-3zm-97-29v-5l-10-1-27-1h-16l-1 4c-1 2-2 4-1 5 1 2 14 3 41 3h14v-5zm-194 14-4-7c0-3 6-8 11-10l2-4c0-6 5-8 9-3l13 6c8 3 9 4 10 6l-2 6c-2 3-11 7-15 7l-9 2c-7 3-10 2-15-3zm314-18c-9-4-11-6-22-19-6-8-8-12-8-15 0-4 0-4 9-5 7-1 7-1 13 5l7 6 7-3c10-3 12-3 12 0s-3 7-7 9-5 7-2 8c4 2 5 3 5 9 0 4-1 5-4 6-4 2-2 2-10-1zm-240-10c-11-2-11-5-4-13 5-5 6-6 11-5 3 0 5-1 5-2-1-1 0-3 1-4 2-4 8-1 7 4 0 5 1 7 6 7 7 0 10 2 10 7 0 7-3 8-18 8l-18-2zm167-17c-11-6-14-8-22-10-5-2-9-4-10-6l-3-4 3-3c2-4 3-4 23-3 7 0 8 0 8 4 0 2 1 3 3 3 6 1 10 4 12 7 3 5 2 6 0 9-5 6-8 6-14 3zm-111-23-12-3c-4 0-9-4-9-8 0-3 7-9 11-10l7-1c3 1 4 0 5-4 1-6 3-7 7-6s5 5 3 9c-2 5 0 8 5 8 9 1 16 9 12 14-5 6-18 7-29 1zm152-18-9-1c-2 1-7 0-13-2l-14-4c-12-2-16-9-10-18l6-6c1-1 6 0 11 2l9 2 1-4c2-5 6-6 7-2 2 8 4 11 15 16l12 5c2 1 3 10 1 13-2 2-8 2-16-1zm-228-18c-4-4-10-16-9-17l9-2c6 0 9-1 10-2 3-3 6-4 9-2 2 2 3 2 7 0l6-2c6 0 13 14 9 18l-16 5-17 4c-3 2-4 2-8-2zm123-2c-15-1-24-3-25-5-2-3 0-11 2-14s9-3 14-1 7 0 5-6c0-4 1-6 6-6 4 0 8 7 6 11s-2 4 5 6 15 9 14 12c-1 2-6 4-10 4l-17-1zm91-43c-8-4-10-6-9-11l4-5 2-3c0-1 2-5 5-7 7-7 7-10 1-10-3 0-5 0-5-2-1-3-3-2-7 2-3 4-4 7-2 7s1 4-1 5c-5 3-7 2-15-7-8-8-8-8-11-5s-7 1-9-3l3-8 4-8 2-3c3-2 4-1 6 1l4 7c0 2 1 5 4 8 3 4 4 5 6 3l2-6c0-4 0-5-3-4-3 0-5-3-5-8 0-2 1-4 7-6l7-3v-7c0-8 3-11 10-11s9 3 9 11l2 8h2c0-2 5-7 8-7 4 0 6 12 2 15l-5 1c-4-1-4 0-2 4 2 3 2 6-1 6l-2 1 3 1c2-1 4 0 6 1 2 2 2 2 0 6-7 10-15 21-18 23-4 4-3 6 2 7 3 0 5 2 6 4 2 7-1 8-12 3zm4-47h-4 4zm-1-7c3-1 1-3-3-3s-7 2-4 3h7zm3-12-1-2-1 2 2 1v-1zM308 86c-3-4-2-7 3-8 3-1 3-4-2-9-11-10-13-18-6-20 6-2 7-4 3-6-5-2-4-2-5 1-1 4-10 4-11 0-2-3-1-5 4-8l4-2-4-2c-4-2-10-9-8-10 1-1 11-2 12-1 1 2 9 2 9 0l-3-2-5-7c-3-5-4-5-6-5h-4l16-7 8 4c7 4 9 8 6 10-3 1-1 3 3 2l7 3c4 5 4 8-1 10l-4 2 4 4c4 5 5 9 2 11-2 3 3 3 8 1 2-2 4-1 8 0 5 2 5 2 5 9 0 11-7 19-12 13-2-2-1-9 1-9l1-2c0-2-2-3-3-1s-7 2-10 0l-4-5c-2-5-5-5-9-1-4 5-4 8 4 16l8 9c0 2-12 13-15 13l-4-3zm10-47c-1-2-7 2-7 4l4-1 3-3zm146 27-9-3-10-2-1-12-1-11h6l10-2h8c4 1 4 2 4 7 0 2 1 3 5 3 7 1 10 4 9 12-1 5-2 6-5 8-5 3-14 3-16 0z"/>
</svg>
