<?xml version="1.0" encoding="utf-8"?>
<svg xmlns="http://www.w3.org/2000/svg" viewBox="0 0 1000 749">
	<title>Sketch of a large tree trunk that splits into a Y shape about three quarters of the way up, fading at the top before most of the smaller branches. A small forest is behind to the left, and open fields to the right.</title>
	<path d="M316 749c0-1 1-2 3-2 4-1 4-1 2 1-2 1-4 2-5 1zm140-3c-5-5-11-7-26-7-10 0-12 1-16 3l-5 3-3-3c-2-2-2-3-2-8 0-6 0-6 2-8h5c2 2 2 1 0-4-3-6 0-5 5 2s7 8 14 8c6 0 18 4 22 6l8 7c3 4 3 4 1 4l-5-3zm-25-10-3-1-4 1 4 1c3 0 4 0 3-1zm-19-5v-1l-1 1v1l1-1zm-109 14 1-1 1-3 2-4 3-2-3-2-1-3 5-3v15l-3 2c-5 3-5 3-5 1zm283-1-8-6-4-3-4-3c-4-3-16-7-18-6h-2l-6-2c-5-2-6-2-9-1-3 2-3 3 0 4l22 5c3 0 3 1 2 2-1 2-7 2-15-1s-22-4-23-2c-1 1 1 1 3 1l18 3-12 1c-13-1-13-1-21 3-9 4-19 5-22 2-2-2 2-4 9-4 4 0 5 0 4-1l-5-1c-3 0-3 0-1-1l9-3c8-1 9-2 5-5h-5l-11 3c-10 2-14 4-14 8l-2 2c-3 1-2-2 0-4s2-3 1-4-6 1-6 3-8 1-10-2c-5-5-8-7-15-7-9 0-17-2-20-4l-3-3 5-15-3-6c-5-10-11-15-15-15h-8l-4-1c1-1 0-4-1-7l-3-9-4-6c-4-4-5-10-5-17 0-4-1-6-2-7h-2c0 2-1 1-3-2l-2-4 1 1 1 1c3 0-3-14-7-18-3-3-4-5-6-13-2-10-3-14-1-14l1 2c0 7 10 18 16 19l8 3c4 2 6 3 8 7l6 9c5 8 8 15 8 19s4 12 12 20l9 11 5 5c2 0 9 4 14 9 3 4 4 4 9 4l8 2c3 1 7 5 9 10 1 2 2 2 5 2s3 1 2 2 0 1 1 3c2 2 2 2 2 0-1-1 0-2 1-1 3 2 10 2 11 0s3-1 12 5c5 4 10 6 11 6l5-2c5-2 12-2 24 0 9 2 14 4 18 8l7 5 9 5 5 3 2 2c0 3-1 3-6 0zm-71-11 2-4-4 3-5 3-1 1c1 2 4 0 8-3zm-27-8 3-3-3 1c-5 1-7 2-6 3 1 2 3 1 6-1zm35 1-6-3c-4-2-5-2-6-1-1 2 4 5 8 5l4-1zm-64-6c2 0 3 1 4 3s2 2 8 2 6 0 4-1l-6-3-4-3-1-2-3-6c-4-5-3-5 6 0 7 3 9 3 4-1s-9-6-12-6l-6-3c-2-2-3-3-2-1l1 4c0 3 0 2-4-1l-3-3 2 4c2 4 3 5 4 4s1 0 1 2l3 12v1c-2 1-6-1-6-3l-2-8c-2-7-2-8-6-9-4-2-4-2-2-3 3-2 2-4-2-7l-4 1-1 1c2 0 1 2-1 2l-1 3c0 3 2 6 4 6l3 6 2 7c2 2 9 5 12 5l4 1c1 1 2 1 2-1s1-3 2-3zm39 4-1-1h-1l1 1h1zm-68-4c0-2-3-5-4-5l4 7v-2zm44 1-1-1-1 1 1 1 1-1zm24-1c-2-2-7-4-8-3l9 5-1-2zm-20-1-2-1v1c2 2 2 2 2 0zm26-3-2-1v1l1 1 1-1zm-28-7-6-6c-4-3-3-2 2 3l6 6-2-3zm-46-2v-1l-2 1 1 1 1-1zm17-15-7-4 6 5 1-1zm-17-1 2-2-12-17c-2-2-2-2-2 1 0 4 0 4-8-1l-8-8c-2-4-2-4 0-3l3 4c1 2 7 6 9 6 3 0-9-14-14-17-3-1-6-5-5-6l3 1h3c0-3-6-6-11-6h-4c0 2 4 12 7 16l4 9c3 6 5 9 11 10 6 2 12 5 16 10 4 3 4 4 6 3zm-17-29-1-1h-1l1 1h1zm-80 83 1-4c1-1 2-4 1-5h3l7 1 4 1c1 1-1 1-2 1l-9 3-5 3zm-74-3 2-4c2-1 2-2 2-3 0-5 5-10 10-10l1-1h-1l1-1c1-2 4-3 8-4l6-2-2-2c-1-2-3-3-8-4-9-1-11 0-16 8l-8 11c-4 5-5 5-8 5s-4 0-3-1c0-1 1-3 3-3 7-2 8-3 9-6 0-2 3-5 5-8l4-4-6 5c-3 3-6 4-7 4l-1-2c3-5 7-10 11-12l3-5c0-1 0-2-1-1l-4 1c-1 0-3 1-3 3-2 3-7 7-12 8-5 2-5 2-1-2 3-3 10-16 10-19l2-2 1-4 2-5 1-2v2c0 4 3 9 5 10s8 2 12 1c2 0 3 0 4 3s4 5 8 5c3 0 9 3 9 4l-2 2c-2 1-3 1-5-1-3-4-9-3-6 1 1 2 11 4 18 4 5 0 7 1 10 3l3 3-8 4-10 5c-2 1-2 1 0 6 3 5 3 12 1 10l-4-6-3-6-3 3c-2 2-4 2-7 2-4 0-5 1-6 6-1 3-1 3-1-2l-1-4-2 3-10 6-2-2zm32-16-2-1v1l1 1 1-1zm-11-3-1-1h-1l1 1h1zm-3-18-1-1v1l1 1v-1zm-7-8v-1l-2 1 1 1 1-1zm-4-2-1-1c-2 0-2 0-1 1h2zm115 46c-5-5-5-6-3-6l2-1h-2l-1-3c0-5-2-4-5 0-1 3-2 3-4 3l-6-1c-4-1-4-1-5-4l-1-3v3l-1 4-4-5 2-6 4-8c5-4 6-7 5-14l-1-6h-14l5 3 5 3c1 1-3 3-8 6-5 2-10 6-12 8-4 3-4 3-2 5l4 3c2 1 5 5 5 9s-2 2-3-3l-4-4c-4-1-9 0-11 3s-1 4 2 2l2-1-3 2c-4 3-6 2-8-2-1-1-2-2-4-1-2 0 0-1 3-2l7-4c2-2 2-3 0-6l-2-3-7-5c-5-4-13-8-17-8l-1-3c0-3-1-5-4-7-4-5-10-10-13-10-2 0-3-1-4-3l-5-6-4-5 5-18 4-18s6-13 8-14c1 0 1 4-1 8v5l4-2c4-2 5-2 5-7l2-8c1 1 2-1 2-3l3-4c2 1 3 0 4-4l3-6c1 0 5-6 5-11 1-7 2-8 3-9 3-1 5 2 5 9 0 4 0 7 1 6l1-11c0-11 0-11 1-10 3 3 4 2 3-1-2-5-2-11 0-12 1-1 1-7-1-13s-2-14 0-14l2 2 2 10 3 7-2 20-1 29c0 7-1 11-3 19l-3 10-4 6c-4 5-4 7-1 5 4-2 3 0-2 2-5 3-11 4-10 2 2-4-3-2-8 3-14 17-23 25-22 20l1-7 1-7-3 5c-4 8-4 12-1 14l3 4c1 2 10 8 11 7l5-10c4-8 5-9 8-10l5-1 4-2 9-7c7-4 22-15 23-17v-2c-1-1 0-4 1-10l2-9-1-7-2-12v-9c1-1 1-1 2 2 1 2 2 3 4 3h3l-2 3-1 4c1 0 3 10 2 15s-1 6 1 10l3 9c1 4 1 5-2 14l-5 10c-2 2-5 8-6 15l-2 7 3 5 4 4v-3l-1-7c-2-5 0-12 3-16l2-2 1 6 1 9c1 1 1 1-1 1-2-1-2 0-2 1l1 5c1 5 2 6 6 6l5 3 4 2c2 0 5 4 5 7v4l-2-4-4-5c-2 0-2 5 0 9l1 3h8c6 0 9 1 11 2l5 4c2 1 3 2 3 5l-2 5-1 4-2 5c-3 2-3 5 0 8l2 3-3-1-3-3-1-1c-1 1 2 7 4 9 2 1 2 1 0 1l-5-3zm-11-13-1-1-1 3c0 2 0 3 1 1l1-3zm6-7v-3c-4-3-3-3 2 0 6 3 6 3 4-2l3-1c5 1 5-1 1-5-4-3-7-4-11-3l-5 1-2 1 7 13 1-1zm-43-9 4-6c2-1 4-2 3-3l-4 3-8 2-4 1 2 6c3 5 3 5 5 3l2-6zm33 0c-1-1-1-1-1 1s0 2 1 1v-2zm-45-7c1-2 0-2-3-2s-3 0-1 2 2 2 4 0zm25 0 1-2-3 2-2 1 4-1zm6-4-6-4-7-6-4-7c-3-4-3-5-2-8l1-6c0-2-1-1-3 3-3 5-3 5-4 3l1-6c1-5 1-7-1-3-3 5-6 6-3 1v-2l-2 4c-3 4-3 4-1 7 2 1 3 3 3 5s1 3 5 6c5 3 7 7 5 10l-1 3h19zm-35-4c2-3 2-3 0-7-3-2-3-3 0-2 2 1 5 6 4 7l-1 2c0 2 0 2 4 2s8-2 8-4-3-5-8-7c-2-2-4-3-5-6-1-2-1-3-3-3s-2-4 0-6l2-5 4-5c4-3 15-13 15-15l2-3c6-3 10-7 10-10l-1-3c-2 0-7 6-7 9l-3 2c-1 0-3 1-3 3-1 2-6 5-11 8-7 5-9 7-12 11-3 5-3 8-1 8v4l-1 9c-1 5-1 5-3 5-3 0-6 4-5 5l11 4 4-3zm-11-16 1-8c1-5 1-6-1-6-3-1-4 2-5 7l-2 6-1 5v3l3-2c3-1 4-2 5-5zm38 4-2-1c-1 0-2 1-1 2s3 0 3-1zm-51-5-2-1v1l1 1 1-1zm13-19v-1l-1 1v1l1-1zm34-2c-1-1-1-1-1 1s0 2 1 1v-2zm-57-11 1-3s-2 1-2 3l-1 3 2-3zm14-7c1-3-1-2-4 0l-2 5 2-1 4-4zm-11 0-1-1h-1l1 1h1zm64-17c-1-1-1 1-1 3h2l-1-3zm-48-10c1-1 0-2-1-2l-1 2c0 2 2 2 2 0zm6-11 1-4c-2-2-2-1-3 3-1 5 0 5 2 1zm8-14c-1-1-1-1-1 2s0 3 1 1v-3zm1-11-1-1-1 3c0 2 0 2 1 1l1-3zm288 164-6-4c-4-1-10-5-13-8-6-6-15-11-25-14-6-2-9-3-17-3l-13 1c-2 1-3 1-7-1l-12-5c-13-4-20-7-23-10s-6-5-7-4-1 2 3 3c3 1 3 2 2 3l-2 1c-3 0-15-14-15-17 0-1 2 0 3 2 4 3 5 4 5 2 0-3-13-13-21-15-3-1-5-3-10-9-2-4-6-7-7-8l-2-3c0-2-1-5-3-7l-3-9-2-3c-1 0-2-3-2-8 0-3-1-6-4-10l-3-9c0-3-5-8-12-12-9-5-14-9-19-16-4-4-5-6-4-7l2 1c1 1 1-1 1-6l1-7 2 3c1 4 5 8 7 8s2-1 0-4c-1-2-1-2 4 0l7 6c1 3 4 3 3 1 0-2 1-1 5 2s3 1-3-5l-2-4c2 0 10 8 11 12l4 8a133 133 0 0 1 9 43c0 8 0 11 2 13 2 3 3 2 3-4 0-5 0-5 2-4l1 6c0 7 2 12 10 22 5 7 7 9 9 9s2 0 1-1l-1-4c0-3-3-9-7-14-2-2-3-4-3-7l-3-19a224 224 0 0 1-5-27l-4-7h1c1 1 1 0 1-5l-9-23a1696 1696 0 0 1-28-56l-3-22c2-1 3 1 5 10 2 10 3 9 1-1l-1-9c0-6 2 0 4 15 4 17 4 19 5 17l-2-11a374 374 0 0 1-7-53l-5 13-1 5-1-5 1-9-1-11-1-29 1-22c2 0 2 3 2 21l1 21a521 521 0 0 0-1-90c-1-13-1-14-4-20-4-7-4-13-1-20 2-2 3-7 4-9a722 722 0 0 0 8-91 438 438 0 0 0 3-10c3-3 14-31 15-38l2-18c1-9 2-12 4-15s3-6 3-10l4-13 3-13c0-5 3-13 6-14 2 0 1 4-2 14l-5 20-2 11 2 4 16 19 2-1c1-3-2-15-5-25-2-3-3-8-3-11l-3-10v-5l1 2c1 4 2 2 2-5l2-8c1-2 1-1 1 6l2 12v3c-2-1-2 0-2 2l2 8c2 4 2 5 4 3 1-2 1-1 1 9s0 12 4 21l3 14 2 8c2 5 5 7 10 6 2 0 3 0 3-3 0-4-1-5-3-1s-3 2-3-6l-5-23c-4-17-5-22-2-24v-3c-1-1 0-5 3-7l2-2-1 3-1 14v12l2-6 3-7v47l3-5 5-14c2-11 3-12 11-16 6-3 6 1-1 5-4 2-5 4-3 4s9-7 11-11c1-3 3-5 5-5v3l-11 13-11 11-1 7c-1 6-1 7 2 11 2 5 3 6 5 6l5-2v-13c2 0 7-7 9-13l4-9 3-7c0-7 4 0 5 10 2 9 2 10 5 7l2-2-3-6-4-9-1-3v-3l1-4 2-6c2-2 2-2 1-5-2-2-6-7-10-9-2-1-2-2 1-2s13 5 10 5c-2 0-2 0 0 2l2 3h2c3 0 4 0 5-2s2-3 4-3l3-2v-1c-3 1-3-2 0-3l5-3v-4c-1-1-2 0-6 1-7 4-13 2-17-3l-5-6-2-4c0-2 6 3 8 8 2 4 8 6 13 4l5-4c2-3 3-5 3-3l3 4c2 2 4 2 4-2 1-2 1-2 1 0l2 6c2 5 4 7 4 4l2 2 2 4h-4c-3 0-5 0-8-3l-4-4-1 3-1 3-4 4c-4 3-14 14-17 19-1 2 0 2 3 3l6 1c2 0 2 2-1 4l-3 1h4c8 0 10-3 3-6-4-2-4-3-1-3 2 0 2 0 2-2l-1-4c-1-1 0-2 1-2l2-1c0-2 1-1 3 2 2 4 3 4 7 3h2l-1 6 1 5-8 7-8 9 3 3 2 6 2 3c1 1 21-9 21-11l-2-1c-4 0-4-1 1-4 5-2 6-3 3-4l-3-2-4-2c-2 0-4 0-5-2-1-1 0-2 4-2h5l-2-2c-2-1-3-4-4-6-1-4-1-5 1-9s4-5 6-6c3-1 3-2 3-3 0-2 7-10 10-10 2 0 8 4 9 6 0 2-4 1-7-1l-4-3-2 5c-2 4-3 5-2 7s2 2 3 1h2l-5 4c-5 2-6 2-5 0 2-2 2-6 0-6-1 0-3 7-3 11l1 6c1 3 2 4 5 5s4 1 7-1c2-2 3-3 3-5 0-3-1-3-5 0l-3 4 1-4c0-2 2-3 4-4l7-3c4-2 4-2 3 0l-1 3c0 2 5 4 7 4l3 1-4 1c-6 0-12 3-17 7-4 3-4 4-2 9l-2 3-2 2 8-5 7-5c-1 2 3 2 6 0 2-1 2-1-1-2h-3l4-2c4-2 7-2 10 1 1 1 2 1 3-1l3-2 6-5 3-4-1 5c2 0 14-10 14-11 1-2 0-2-4 0-3 1-3 1-2-1l5-7 4-5-4-1c-6 0-13-2-16-3-2-2-4-8-3-10 1-1 1-1 9 6 4 4 5 4 7 3h10l8 1h7l5-1h4l4 1 4 2c1 1-1 1-9 2-16 1-22 2-25 4l-2 2 11 4 11 5 5 1c3 0 4 0 3 1-2 2-9 2-10 0h-3c-2 0-3 0-4-2l-5-2c-4 0-13 5-17 9l-3 3 5 3 3 2c-3-2-8-1-12 1l-5 3 3-3c2-3 2-3 0-3l-3 2-3 2-6 3c-2 2-5 3-7 3s-3 0-1-1l3-2c3 0 3 0 1-1s-2-1-5 1l-7 3c-2 0-4 2-6 4l-13 10-22 23c-6 6-6 6-3 7 2 1 3 1 3-2l12-14c11-10 13-12 16-12 2 0 4 0 7-4l6-5 1-2c0-2 0-2 11-2l12-2c1-1 2 0 2 1 0 2-1 2-6 2l-11 3-7 2-7 6-10 7c-6 2-8 4-12 10l-6 8-4 3 7 2 12 2c2 0 7 2 9 4l15 7c2 0 6 3 8 5l6 4 4 5c3 4 4 5 7 5s4-1 3-2l-1-2c0-1 16-1 18 1l-5 1-7 1c-2 2 1 6 6 8 6 3 2 3-6 0l-7-2 5 7 8 9 10 1 14 1c2 1 3 1 3-2s5-6 10-6c3 0 4-1 5-3s1-2 3-1l3 1-2 2c-2 2-4 3-7 3-4 0-5 0-7 2l-3 5-2 3 1 1h4c4-3 11-4 16-3 4 1 4 1 2 3l-18 3-4 2c-2 2-2 2 11 4 10 1 13 2 9 3l-2 2c0 2 4 4 7 4s4 1 2 2c-3 1 0 3 3 3h3l-7 3h3c4 1 3 3-2 4-6 0-5 2 1 2l8 1c2 1 2 0 1-3 0-3 0-5 2-8l3-3c1 0 3 4 3 7s2 2 6-2c2-4 2-5 2-15 0-8 1-10 2-11l4-2c2-2 5-11 5-16 0-3 0-3 4-3 7 0 9 1 3 2h-5v6c-1 9-3 13-8 16l-4 2 4 1c2 0 5 1 7 3 4 4 8 6 10 6l2-8a167 167 0 0 1 4-21l-4 3-3 3 1-3c1-3 5-5 10-5s12-5 15-9l8-7-4 6-4 6c0 2-3 7-7 9l-6 8-2 5 3 3 3 3 4-3c1-2 4-4 6-4l3-1-2-1c-2-1-3-1-6 1-4 2-4 3-4 1s3-6 6-7c2 0 4-4 4-7l5-2h3l-3 2-2 3c0 3 0 3 1 2l3-1c2 0 2 0 0 3l-1 4 8-5 13-7c4-2 5-3 6-6v-4c-3-2-2-6 1-9l2-3v3l-1 3c-1 2 0 4 2 4l6-1c4-1 5-2 4-3v-12c-2-6 0-15 3-15 2 0 2 3 0 7v7a2156 2156 0 0 1 4 5c1-2 1-2 1 0l-3 6c-3 4-4 7-1 8s5 1 7-1l2-2 4-1c6-2 11-3 10-1l1 1c2 0 2-1 1-2l4-2 9-1c3 0 13-4 20-8l5-1c2 1 1 1-2 3l-6 3-5 4-4 3 2 1c3 2 4 2 18-4-1 3 6 0 9-3 2-2 5-3 5-2l-4 5-3 4 6 1 8 3c3 3 3 3 14 2a1080 1080 0 0 0 22 1c-6 0-20 2-25 4s-4 2-4 0c0-3-7-3-14 0-6 3-25 8-30 8l-4-1 7-4h-3l-9 3c-5 4-5 4-4 7 1 2 3 2 17 2l27-2c11-2 14-3 14-1l-8 1c-9 1-19 4-19 6l1 5c1 3 1 3 6 3 6 0 7-1 13-5l9-4c2 0 5-5 5-8 0-2 4-6 9-8l4-1-5 4c-4 5-7 9-6 10s9-6 13-12c3-4 4-4 4-2l-5 7c-3 3-6 6-6 8-1 2-1 2 3 2l12-3 7-2-2 2c-3 3-12 5-25 5-8 0-9 0-13 3l-8 7c-4 4-5 5-4 7 2 3 0 5-6 8l-5 4c-2 2-7 2-12 1-2-1-1-1 3-1s6-1 7-2l6-4c3-2 4-4 4-7 0-4-2-4-8-2l-7 4-6 3-6 4c-1 1-1 2 2 2l3 1-4 1c-6 1-7 2-2 2l8 2c5 4 9 4 18 0 8-2 13-5 9-4l-6 1-4 1 3-2c4-2 6-2 25-1 11 1 12 1 16-2l10-2c5 0 5 0-3 2s-9 3-9 5c0 1 0 2 1 1l3 1 8 1c6 0 8 0 9 2l1 2-10-1-17-3c-5 0-7-1-7-2 0-2-2-2-3 0s-4 2-4 1c0-2-4-4-6-4l-1 2c-1 2-2 3-4 3l-3 1-4 1c-5 1-10 3-12 5s-2 2 0 1l20-3c6 0 5 2 0 2-4 0-10 2-7 2l-1 1c-3 3-12 2-16-1l-3-2-3 3c-3 3-2 4 5 4 5 0 16 5 12 5l-4-1h-8l-13-1a3584 3584 0 0 1-36 4c-3 0-3 0 0 5 2 4 4 5 7 5l3-1c-1-1 0-1 2-1l4-1c1-2 5-4 8-4 4 0 4 1 1 4l-2 3h4c3 0 4 0 4-3 2-3 2-7 0-7v-2l2 1 5 3 3 3c-1 2 0 2 6 1h6c1 1 0 1-1 2-2 2-2 2 2 2l7-1c2-2 12-4 12-4 1 1-4 3-7 3l-2 1 2 1 4 2c4 3 5 3 18 3l15 1c1 1-2 1-10 1-13 0-16 1-16 5v2l-3-2-2-4-3-2c-4-2-5-1-2 1l3 2-3-1-9-3-20-5c-3 0-5 0-8 2s-5 3-9 3l-5 1 2 4c2 4 1 5-1 2-1-2-7-6-7-4l-5 2-5 1 3 3c1 2 4 3 8 4l8 4c2 2 5 4 8 4l8 5c5 5 16 8 19 6s19-1 21 1c3 2 1 3-4 2-5-2-10-2-15 0-4 1-4 3 0 6 6 2 6 3 3 3l-6-2-3-3-2 2v3c10 8 11 9 19 11l9 3c1 2 0 6-1 6l-1-2c0-3-4-4-15-4-10 0-11 0-13 2-1 3-2 3-2 1 0-3 3-6 7-6h3l-3-2-4-4c-2-1-3-2-3-4s-3-8-7-13c-3-2-4-3-8-3h-5l6-5h-5l-6-1-2-2-9-4c-7-3-9-4-10-7s-1-3-7-3c-4 0-6 0-5-1l3-1c3 0 4-2 2-4h-5c-4 1-5 1-14-3l-9-5v5c0 6 1 7 5 6h5l5 1 4 1-8 1h-8l4 3 5 3h-2c-8-3-13-4-15-3l-4 3c-3 1-4 1-8-1-3-2-5-2-8-2l-3 1 4 3c6 4 11 5 12 4s6 0 6 1l-2 2c-3 2-2 3 3 3l6-2-2-1c-2 0-3-2-1-5h8l10 4 9 5 5 1h-4c-6 2-7 3-4 5l2 2h-7c-5 0-6-1-9-4s-4-3-9-3h-6l5 3c5 2 6 3 6 5s0 2-2 0l-4-2c-3-1-13 3-17 6l-3 3h2c5 0 9 4 13 10l5 7 2 1c0 2-2 1-6-1-3-2-4-4-5-7-1-5-1-5-6-6l-6-2 1-5c3-8 2-18-1-12-1 2-2 2-3 2-2-1-2-1-3 1 0 2 0 2-4-1l-6-2c-2 0-4-1-7-5-4-6-5-7-6-5l1 2-5 1-7 1-2 1-12 6 2 4c3 4 2 5-2 1-2-2-3-3-7-3-5 0-5 0-2-1 6-2 6-3 0-6l-6-3-1 2-1 5v3l-2-3c-3-3-3-5 0-6 4 0 4-2 0-3h-2l2-2 6-1c3 0 4 1 8 5 4 5 5 5 7 4l6-5-2-1-11-5-7-4a1422 1422 0 0 0 9 0c0-3-10-4-15-2l-7 6c-5 5-5 8-1 9 2 0 3 2 0 2l-4-3c-4-3-4-3-10-2l-3 1 3 3 3 4-7 2-8 1 5 2c6 2 6 4 0 5-3 0-4 0-6-2-5-8-5-7-8-5l-7 2-9 3-3 1 5-3 9-4c4-2 6-6 4-8s-2-5 0-7l-5 1-6 2-7-6c-5-5-7-8-7-10s-1-3-14-3a247 247 0 0 1-17-1l-3 1-7 2c-4 3-4 3-1 3l6 2c3 1 3 1 5-3l2-3 2 2 8 5 6 4 6 2c9 2 9 3-1 3-9 0-9 0-9-2 0-3-2-5-5-5l-3 1h-1c0-2-5-1-6 2-1 2-1 2 3 2s5 0 3 2l-5 4c-5 3-6 4-2 4l2 2c0 2-1 2-2 2l-5 1-3 2 2 1c3 1 7 1 18-1l6-1c1-1 1 0 1 1a2454 2454 0 0 0 6 1l2 1c3 0 8 2 8 3 0 2-2 2-6 1l-12-2-9-1c-1-1-2-1-3 2-1 2-1 2-3 2h-12l-3-1c0-2-3-6-6-6-2 0-3 3-1 4h3c2-1 2-1 2 2-1 3 0 3 2 3s2 1 2 2 2 2 5 2c3 1 4 2 3 3-1 2-7 1-9 0-1-2-6-2-14 0-6 1-7 2-9 5l-2 3h4l9 4 10 3 4 1c1 2-9 1-12 0-2 0-4-2-5-3-2-2-4-2-6-2l-6-1-8-2h-5l-1-6c-1-5-1-6-3-4v6c0 1-2 1-4-2-4-3-4-4-8-2-4 1-6 4-6 10v4h9c11 0 21 1 18 2l-6 1-8 2h-4c-1-2-8-2-10 0l-3 1c-5 0-8 2-8 5l-4 8-6 10-4 8c-2 5-2 8 0 9s2 1 2 8l-1 11v3l18-4c9-1 12-2 14-6 1-4 1-4 7-4 5 0 6 1 8 2l6 5 4 2 8-6-7-3-8-4c-2 0-5-4-4-5l3 2c3 2 4 2 5 1l5-1c2 0 2 1 1 2-1 2 2 3 9 3l6 1 4 1 7 2c4 1 8-1 8-4 0-2-1-3-6-5-6-3-6-3-7-7 0-3 1-4 7-10 8-8 11-8 11-3 0 3-1 3-2 2s-1 0-1 3c0 4-1 4-3 2-2-1-3-1-5 1s-2 2-3 1-2 0-2 3c0 4 2 5 10 5l7 2c2 3 15 0 15-4l-1-1-1-4c0-4-1-5-3-5l-4-1c-2 0-1-1 1-1l5-1h1l1 2c1 1 2 1 5-1s3-2 1-3c-4-1-3-2 2-2 4 0 5 1 4 2v2c1 1 1 1-1 1l-3 4-2 4c-2 1-2 2 1 2 4 0 6 1 6 3-1 3 5 1 9-3 2-2 4-3 7-3l4 1 3 1 2 1h5c7-2 11-3 12-2s0 1-1 1c-2 0-5 3-5 5s-2 3-4 1l-5 2-3 2-2-2c-1-1-3-3-5-3-2-2-3-2-3-1l-1 4c1 2-3 5-9 7l-5 2h4l8-1 10 1a411 411 0 0 0 15 5l2 2h-3c-2 0-4 2-6 4-5 4-7 4-3-1l3-4c0-1-10-1-16 1-3 0-5 1-5 2l7 4c4 2 10 5 11 7 4 3 3 3 21 1h6l5-2c6-4 15-7 15-6 1 1-1 2-4 3-4 2-6 5-6 11l-2 5c-3 3-1 4 3 2l4-4 1-2 4-7 9-11c6-5 6-5 5-9 0-5 1-6 3-2l1 2 2-3 1-7c0-4 1-7 4-7 2 0 1 4-1 7l-2 2h3c5 0 7-3 4-7v-8c2-1 2-1 2 1s0 3 4 2l6-1h1l-4 1c-2 0-2 1-2 6s0 6-2 6l-6 3-5 2h7c6 0 8 1 10 3l2 2-3 1c-3 1-7 0-5-2 1-2-3-2-9 0-7 3-12 8-15 16l-3 5v-7l-2 3c-1 4-2 8 0 8s0 3-5 5-7 4-4 4l4-2 7-4c4-1 5-2 5-3l5-4 9-7c3-3 6-5 6-3l-4 5-6 7-1 2h3c3 0 4 0 4-2s7-10 9-10c3 0 0 4-5 7-1 1-1 1 1 3 3 2 8 3 16 4l5 1-5 2c-6 2-7 4-5 6 1 1 1 1-3 1-10 0-19-3-16-6h5c3-3 1-4-6-4s-11 1-21 5v2c2 2-10 4-12 2l-5-2c-5 0-4 4 1 7 4 2 4 4 0 4l-4-4-2-4h-10c-10 0-11 1-15 4-7 5-10 6-17 7l-7 2-4-4c-2-3-6-5-8-6l-4-1 2-2 1-3-6 7-8 3c-6 3-8 3-12 2l-10-5-5-4-3-1-3-2-7-3-9-6-8-5c-6-4-8-5-10-3l-4 5c0 2-2 4-4 4l-21 9c-8 3-8 3-6 15l3 40v3l4-4 6-3h3l-3 2c-2 3-1 4 1 1l4 2c3 3 3 3 0 4l-3 2v3l-3-2c-5-4-6-3-6 11 0 10 0 13-2 16l-3 3-3 2c-3 3-2 1 1-4l2-6-1-7c-1-6-3-7-4-2l-3 4-5 4-2 3-1-4-2-2v2c1 1 0 2-2 4l-4 4-6-5-7-6-2-3-5-1h-5l-4-1-3-1-1-2c-1-2-1-1-3 1-4 3-4 6-1 9 2 1 3 3 3 5l5 13c5 10 5 11 12 48 4 17 5 20 9 29l5 12 7 9 8 11c3 3 4 4 8 2 3-2 11 0 16 5l5 3 6-2c8-3 15-2 21 3l3 4-9-3c-9-5-9-5-19 1l-9 4c-4 0-3 3 1 4s5 1 10-1l8-3c2-1 4-1 10 1 8 3 9 3 10 0 0-2 0-2 3 2 5 6 5 7 15 7 6 1 7 1 6 2-2 0-2 1-2 2h17c8-1 9-1 11 2l5 3c2 1 2 1 0 2-3 2-10 0-9-2v-3l-4 2-4 2c-3 0 12 15 18 18 5 2 6 3 11 2 6-1 6 1 1 4-4 2-4 2-5 0zm-28-25c0-1-2-3-3-2-3 1-2 3 1 3l2-1zm-41-10-3-4-6 3c-4 2-5 3-4 4l8 1h7zm14 3-1-1-1 1 1 1 1-1zm-5-2-1-1h-1l1 1h1zm-26-4-1-1-1 1 1 1 1-1zm-12-9c0-1-2-3-6-5-5-3-6-3-9-2h-4c-2-1-2-1-2 1s1 3 5 5c6 2 16 3 16 1zm-78-82c-1-1-1-1-1 1 0 3 1 5 2 2l-1-3zm-3-18-4-8-3-4c-1 0-1 2 5 13l4 6-2-7zm-9-7-5-6 4 9c2 2 2 0 1-3zm52-30-1-1v1l1 1v-1zm7-11-1-2-1 1c0 2 1 2 2 1zm-45-5 5-3 4-2-1-23c0-24 0-40 2-37l3 34v3l1-3c2-4 3-36 1-37l-8-2-7-2 4 4-2 14a136 136 0 0 0-2 43c2-1 2-5 2-18l1-16 1 12 1 17c2 6 0 10-3 10-4 0-5 1-5 4s1 4 3 2zm50-17-2-1 1 7 1 6v-12zm-54 2c1-2 1-2-1-2-3 0-3 0-3 3l1 5 1 3 1-3 1-6zm63-17c-1-28-3-35-7-25-2 6-2 8 0 6l2-1 1 13c1 14 3 34 4 30v-23zm-45 12c0-3 0-4-1-2-2 1-2 2-1 4 2 4 2 3 2-2zm-17-6v-5l-1 4c-2 4-2 7-1 6 1 0 2-2 2-5zm53 5-1-3c-2-2-2-2-2 1s1 4 3 2zm3-2c-1-3-1-3-1-1l1 3v-2zm-61-6-1-5v9c1 3 1 2 1-4zm-1-9v-12l1-2h-1c-1 1-1-3-1-12l-1-14c-2 0-7 3-7 5a571 571 0 0 0 9 37v-2zm55-14 1-2c0-2-4-2-6 0s1 3 5 2zm-48-5v-2l-1 1c0 2 1 2 1 1zm196-3v-2l-4-5c-2-2-2-4-1-4v-3c-1-1-2 0-4 1l-2 4 10 11 1-2zm-144-2-1-2c-1-1 0-2 2-3l7-6c4-4 5-5 10-5s6 0 4-1l-1-2c1-2 0-2-6 1-5 2-7 3-7 1l6-4 12-5 7-3-6-4h3c5 0 8-1 12-5l4-2-8 8-7 8 3-1c2-2 13-10 15-10l1-1 3-1h5l-4-4-6-4c-3 0-7 3-8 5s-5 4-11 6l-11 4-9 6-8 5 5-6c4-2 6-5 6-6 0-2-3-1-5 2-4 5-8 8-9 8l-1-4c0-10-3-15-10-15-3 0-3 1-1 2l5 4c4 3 4 4 4 8l1 5v3c-1 3 1 8 3 6h4c2 0 2 0-1 2h-9c-1 2-5-3-5-7v-3l3 2c2 3 2 3 2 1 0-4-3-13-5-15-1-2-4-3-6-4-4-1-4-1-6 1l-3 4-2 1c-2 0-2 0-1-1v-2c-1-1 0-2 3-4l4-2-10-5c-6-3-11-6-15-11l-10-7c-4-1-5-2-2-4 2 0 2-1-3-5l-5-5-2 10c-2 9-2 12-2 19l2 11c0 3 0 3 1-1l3-3v-5l-1-3 4 5 6 10c4 4 4 4 9 4 6-1 6-1 9 3l7 3 4 2c1 1 2 0 5-1l6-3c3 0 3-3 0-4v-2c3-1 7 3 7 6 0 2-3 4-5 3l-6 2c-3 2-4 2-14 2l-9 1 11 1c10 0 11 1 13 3l5 3c2 1 3 3 4 6s2 5 3 4l2 1c1 1 6 1 6-1zm-47-33c-5-3-5-4-3-4 3 0 10 4 11 6s-2 2-8-2zm-2-7c-5-3-9-6-9-8 0-1 2-1 6 3l7 5c4 2 0 2-4 0zm2-7-10-5-6-2c-3-3 8-1 13 2l10 9-7-4zm202 48v-1l-2 1 1 1 1-1zm-40-5 6-3 2-1h-3l-3-1c1-2 8-4 14-4l4-1c0-1-1-2-4-2l-4-1c-2-1-2-8 0-10 3-3 4-2 4 2s0 4 5 6l9 4 8 1c5-1 7-2 5-6v-3l1-1h-2c-1 1-3 1-9-1-6-1-8-3-11-6-4-3-4-4-2-4s3 0 2-1c0-2-16-2-21 0s-5 2-3 0c2-1 2-2 0-2l-2 2-3 3c-2 1-10 0-14-2-5-2-5-2-12 2-2 2-7 4-9 4-4 1-5 0-9-2-6-4-7-4-7-3l7 6 8 6 6 3 12 8c14 12 17 13 25 8zm-21-9-7-7 4 1c5 1 5 1 5 4 0 2 2 3 7 5 10 4 11 4 4 4h-6zm-15-11c-2-1-2-3-1-3l3 2c3 2 3 2 1 2l-3-1zm78 21c5-1 9-4 10-6 1-1 0-3-1-4-1-2-2-2-4-1l-4 3c-2 1-3 2-5 1l-6 1-2 1 1 3c1 3 1 4 4 3l7-1zm-152-2v-1l-1 1v2l1-2zm-36-5-5 1h2l3-1zm215-2 7-5c5-4 6-6 1-5l-12 1h-9l4 4c2 3 3 4 1 3l-5-1c-3-1-3 2 0 3l3 3c0 1 7 0 10-3zm62 2v-2c-1-1-4 1-5 2 0 2 4 2 5 0zm-300-1-1-1h-1l1 1h1zm14-1-1-1-1 1 1 1 1-1zm17 0-1-1-1 1 1 1 1-1zm35 0v-1l-1 1v1l1-1zm66-2-3-2c-2 1-2 1 0 3 3 2 4 2 3-1zm-133-3v-1l-1 1v1l1-1zm84-2-1-1-1 1 1 1 1-1zm138 0-1-1h-1l1 1h1zm-129-3h-1l-2 1h2l1-1zm-89-3-3-3c-1 1 5 6 6 6l-3-3zm-22-7c-2-3-2-2-1 3 1 3 1 3 2 2l-1-5zm30 6-1-1h-1l1 1h1zm100-1c0-1-3-3-5-3l1 2c2 3 3 3 4 1zm13-8-1-2-2 2c-1 2 0 2 1 2 2 0 2 0 2-2zm21-4v-1l-2 1 1 1 1-1zm12 0 3-1c2 0 2 0 0-1s-2-2-2-3c0-2-1-2-2 0l-5 2-3 1 3 2c3 2 5 2 6 0zm42-4h-3l-1 2h2l2-2zm-23-3 11-5 2-1-2-2c-3-2-3-3-6-1-6 3-13 9-13 11v1l8-3zm-133-2c-1-1-1-1-1 1l1 2v-3zm8 1-1-5c-1-1-1 0-1 3l1 4 1-2zm112 1-2-1v1l1 1 1-1zm-139-8c2-15 1-32-3-32l-1 2-1 2c-2 1-1-6 2-16 2-6 2-7 1-10-2-4-4 0-6 14-3 19-4 31-2 30 1-1 1 0 1 1 0 2-1 3-3 3-2-1-2 0-1 2 2 8 2 8 4 0l3-13c1-10 2-5 2 9l1 15c1 1 2 0 3-7zm143 4v-1l-1 1v1l1-1zm-111-4c-1-2-1-2-1 0v3c0 2 0 2 1 0v-3zm141-2h-2v3c1 1 1 1 2-1v-2zm-144 1-1-1-1 1 1 1 1-1zm-5-5c-1-2-1-2-1 1s0 4 1 2v-3zm7-12c2-7 1-29-3-60l-1-38c0-28 0-28-2-25s-7 16-7 21c-1 6-2 5-3-1-3-7-2-9 2-13l3-7 2-9c2-11 1-22-5-33-3-7-4-7-26-24-5-4-19-22-19-24l6 8c5 7 7 9 14 13l8 5v-3l-2-9c-2-13-3-17-6-21l-4-6c-1-2-10-7-11-6l-3 7-5 14c-4 8-4 8-2 8s4 0 6 4l4 6 5 6 6 9c0 2 2 5 4 6l3 3-3-5c-3-5-3-6 1-4 2 2 3 1 0-2v-2c1 0 12 16 14 22 1 5 3 6 3 3s5 11 6 16c0 5 0 9-2 9l-1-3c0-3 0-4-1-2l-2 16-1 22c-1 9 0 16 3 15 1-1 1 0 1 2l1 3c1-1 1 0 1 2l1 6 4 15 4 17 6 39c-1 1-2-1-4-9l-2-8v4c-1 4-1 7 1 10l2 9c0 4 0 4 2 2l2-8zm-22-162v-3l1 4c0 2-1 1-1-1zm-22-45-7-11c-3-3-3-3-2-4l5 1 4 3c1 0 2 0 3 2s1 3-1 2c-2-2-3-2-3 1l3 3c2 1 2 2 2 5l-1 5-3-7zm35 208c-1-3-2-4-2-2 0 3 2 9 3 7l-1-5zm-45 2c0-3-5-16-8-19l-6-9-4-6v18c1 6 2 8 3 8l3 1c2 3 10 9 11 9l1-2zm38-8-2-8v6l2 8c2 5 2 3 0-6zm-27-5c0-3 0-3-1-1l-1 6c0 3 0 3 1 0l1-5zm22-4-1-2-1 2c0 3 2 7 3 4l-1-4zm39-4-2 1c-2 0-4 5-3 7 0 1 1 1 3-3l2-5zm-10-2c0-4-1-8-3-8l-1 7c0 6 0 6 2 5s2-2 2-4zm3 3 3-3c2-1 3-3 1-3l-4 3c-2 3-2 4-1 4l1-1zm-56-1c2-3 1-8-2-17l-1-6 1 14c0 10 1 12 2 9zm19-1-1-2-1 2 1 2 1-2zm15-4-3-6c-1-3-1-4-2-3s-2 0-2-5c-2-10-3-10-3 2l1 11 2-3c1-2 1-2 3 2l3 4 1 1h1c1-1 1-1-1-3zm5-2-1-1v1l1 1v-1zm21-2-1-4-1-3c1-1 4 1 5 3 2 3 2 2 2-2l2-8c2-3 2-8-1-8l-16 8c-1 1-2 1-2-1l-2-2v2l4 5 4 3c2 7 4 10 6 7zm10 0-1-1-1 1 1 1 1-1zm-78-10-1-12c0-10-3-17-6-17l-1 13c0 13 0 14 2 16l5 6c1 5 1 5 2 2l-1-8zm-7 5-11-15c-3 1-2 4 5 11l7 7-1-3zm23-9 1-9c-1 0-4 6-4 9l-2 6c-2 4-2 6 1 4l4-10zm11 4c-1-2-2-3-3-2v5c2 2 4 0 3-3zm14-14-3-14-3-9-1-4c-1 0-1 14 1 27 1 6 2 7 2 5 1-3 1-3 3 3l2 7v-4l-1-11zm-5-5v-8c1-1 1 1 1 8v7zm86 17-2-1-2 1c-1 1 0 1 2 1l2-1zm-2-4c4-2 4-2 4-6l2-7-1-5-3-2c-1 0-1 4 1 5l1 3c0 1-9 5-12 5-2 0-2-1 2-2l3-3c0-2-1-1-4 1l-5 5 1 5c1 4 1 4 4 4l7-3zm-110-12-2-9-2-4v9l1 14 1 5 2-5v-10zm87 7c9-3 10-4 7-6s-5-2-7 0l-5 2c-3 0-7 3-7 5s1 2 2 2l10-3zm41 1c3-1 3-3 1-3l-3-2-2-2-4 2c-3 2-3 3-2 5s1 2 4 2l6-2zm-149-7c0-9-1-10-4-4l-2 3c-1-1 1-4 3-7l3-6c0-2-12-14-13-14-2 0-1 4 1 17l3 12 4 4 5 3v-8zm-8-16c-1-4-1-5 2-3v6l-2-3zm47 19c0-2 0-3-1-2v3c0 3 1 3 1-1zm5 0-1-1v1l1 1v-1zm31-3 2-2-7 4c0 1 3 0 5-2zm-5-2 6-4c4-1 6-4 4-5l-5-4c-4-4-4-4-2-5 2-2 7-3 7-1s7 4 12 4h5l-3 2-2 5v2l3-2 5-6c4-5 4-7-1-10-4-2-4-2-2-3 3-2 1-3-3-3l-9 1c-3 1-5 1-11 7-5 6-7 8-8 12v13l4-3zm-43-4-2-9-3-4v6c0 6 2 14 4 13l1-6zm60 4-2-1c-3 0-3 0-2 2 2 1 3 1 4-1zm13 1c1-2 9-5 15-5l5-2-2-2-3-2h3c4 0 4-1 0-2-3-1-19 8-20 12-2 2-2 2 0 2l2-1zm-6-1-1-1-1 1c0 1 1 2 2 0zm29 0c0-1-4-3-5-2l2 2h3zm-87-3-1-3c-1-1-1-1-1 2l1 3 1-2zm320-1c-2-3-3-4-2-6 1-3-2-3-3 0v8l4 1h5zm-197 0v-1l-1 1v1l1-1zm-128-6c-2-2-2-2-2 0l1 4c1 2 2 2 2 1l-1-5zm99 2c2-4 5-7 4-4-1 2 0 2 4 2h4v-7c0-8 1-8 3-9s2-2 1-3l-2-1c-1 0-2-2-2-6l2-6c2 0 4 3 4 8-1 5 1 5 5 0l6-3c2 0 2-1-4-7l-5-5-8 3c-5 3-7 4-6 5l1 8 2 9c1 2 0 3-4 6-2 3-5 4-6 4-1-1-2 0-2 4-2 7 0 9 3 2zm8-8v-1h2l-1 1h-1zm245 11c1-2-6-8-8-8l-3-1-3-1c-2 1-2 1 2 3l7 5c3 3 4 4 5 2zm-233-3c4-5 2-5-4-1l-5 3h4l5-2zm99 1-2-1-2-3c0-3 7-7 12-7 3 0 4 0 4-2s-1-3-3-4l-6-6c-3-4-5-6-9-7-5-2-6-2-13-1-9 1-10 2-11 7s1 5 10 3c8-2 12-2 17 1 2 1 2 1 0 3-2 1-2 2-1 2 1 1-1 2-6 3l-8 2c-2 1-3 1-1 3h3c3-2 3 0 1 3-2 2-2 3-1 4h16zm-87-4c5-3 6-4 2-4l-4 3c-4 5-3 5 2 1zm179 1c4-2 3-5-3-8-4-2-5-2-4-4 1-1 1-1-2-1s-4 1-7 4l-4 4 3 2 5 4c2 2 9 1 12-1zm6 0-1-1-1 1 1 1 1-1zm-340-6c-1-5-4-8-7-12l-9-11c-3-6-5-7-5-1 0 2 1 5 4 9l19 21-2-6zm80 4-3-2-3-1 2 2c3 2 4 3 4 1zm19-2v-1l-1 1v1l1-1zm17 0-1-1v1l1 1v-1zm-111-4c-2-1-2 1-1 3h1v-3zm53 1c0-2 0-2-1-1v3l1-2zm89 1 2-2c2 0 6-2 6-4l-2-2c-2-1-3-1-8 2-6 3-10 7-5 6l6-1v2l1-1zm154-1-2-1c-1 0-2 1 0 2l2-1zm-6 0-5-3c-4-2-5-2-3 1s8 4 8 2zm-273-2-2-5-2-4-1 4c0 2 0 4 2 5h3zm84 0c1-1-1-4-5-6l-3-2h3c2 0 7 4 7 6l2 1 1 1 2 1 1-1 3-1 3-1c1-1 1-1 1 1s1 2 4 1l4-3c1-3 0-5-3-5-1 1-1 0-1-2s-1-2-3-2l-4-2-5-3c-4-1-4-1-8 2l-8 5-5 2 3 2 10 7 1-1zm10-10h5c2 2 2 2-1 2s-4 0-4-2zm-111 0-4-5 5 13 1 3 1-3-3-8zm8 5c-3-1-4 0-2 3h3c1-1 1-2-1-3zm286-2 1-4c1-2 2-2 7-2 7 0 7 0 7-2 0-3-2-8-3-8l-4 1-14 5-13 5c-2 2-2 2 1 3l4 2 4 3c3 2 4 3 6 1l4-4zm12 4 8-2h11v-3l-3-3-4 2-7 2-4 2v-3c-1-5-8-3-12 3l-2 4h4l9-2zm39 2-1-1h-1l1 1h1zm-210-3-1-1-1 1 1 1 1-1zm73-1-2-3c0-3-3-8-4-8l-1 6v7h9l-2-2zm45 1v-1l-1 1v1l1-1zm-27-1c3 0 3-2 1-3-2 0-11 2-9 3h8zm119 0c6-3 7-5 7-10l-1-6c-1-2-1-2 1-2s3 0 1-3c-1-2-2-2-5-2-5 0-5 0-4 2 3 4-1 6-6 4-2-1-8 0-9 2-2 2 2 5 8 7l7 1-4 1c-5 1-6 3-2 4l2 2h5zm-95-2v-1l-1 1v1l1-1zm-235-21c-1-3-3-4-14-10l-16-10c-4-3-6-4-6-2 0 4 3 8 6 11a186 186 0 0 1 27 25l4 6 1-7c0-7 0-10-2-13zm-18-4c-5-3-7-5-5-5s9 4 11 7-1 3-6-2zm201 22c0-2-1-2-2-1v2c1 3 2 2 2-1zm-135 1 8-2 9-3 4-1-7-1c-13-1-14-2-14-4l-2-7-3-5v4l3 8 2 5-2 3c-3 5-3 5 2 3zm81 0h-3c-1 1 0 1 1 1s3 0 2-1zm-88-3v-1l-1 1v1l1-1zm261-1 1-2c-1-1-6 2-7 3 0 2 6 1 6-1zm13 1h-4c-1 1-1 1 1 1l3-1zm-274-5c2-1 2-1 1-4s0-19 1-21c1-1 1 0 3 5 1 4 2 6 3 5l1 4c0 5 0 5 5 7 8 4 10 4 12-2l1-5 2 4c2 3 2 3 2 1 1-4 0-8-4-15-6-9-6-10-2-8l2 2c-1 1 1 4 3 6l3 5 4-2 5-4 1-2 3-2c5-1 4-1 4 1s-2 4-6 7c-4 4-6 6-7 9l-2 6v1l-1 1-2 2 4-2 6-4 1 2 2-1c3-2 6-6 5-6l-4 2-3 1c-1-1 11-10 14-10l-2 8c-2 2-3 4-2 5 0 2 8 6 11 6 3-1 4-4 3-6-2-3-1-4 3-5l4-3-1-1v-7l-4-4c-3-3-7-7-13-17-10-15-11-15-17-11l-4 7-2 2-1 1-1 4v2l1-2h2l4 13c1 3-2 2-3 0l-5-4-4-6c-1-3-2-4-4-4l-4-2-1-2c2 1 2 0 2-2 0-3 0-3 2-2l4 5 3 4 2-7c2-7 2-9-2-12-4-2-4-2-4-10v-9l-2 3c-3 2-10 15-12 24l-2 12v6l5 2c5 2 7 3 9 6 4 7 3 8-3 3l-7-6c-2 0-3 0-3 2 0 3-1 6-2 4l-1-6c-1-6-1-6-3-4s-8 17-9 22l1 9c0 4 1 4 1 2l4-3zm61-18c6-5 9-5 4 0l-5 3c-2 0-2 0 1-3zm6 1 1-1 1 1-1 1-1-1zm141 20h-2c-1 1-1 1 1 1s2 0 1-1zm112 0c0-2-4-5-8-6l-5-2c-1-1-5-2-5 0l5 3c2 0 5 2 6 4 3 2 7 3 7 1zm15-1c0-3-4-7-7-9-4-2-5 2-4 6 1 2 4 4 11 5v-2zm-420-1-1-1-1 2c1 1 2 1 2-1zm21 2-3-3c-2-3-3-1 0 1 1 2 3 3 3 2zm11-1c0-3-6-10-9-12l-4-4c-1-2-3-4-6-5l-5-4c0-2-1-2-2-1s-2 6 0 6v-1c-2-3 9 3 12 7h-1l-3-1 3 5c2 3 2 4 3 3s2 0 6 3c5 5 6 6 6 4zm320 0-1-1-1 1v1l2-1zm-69-2-2-4c-2-4-5-4-12-4h-6l3 2 16 7 1-1zm161-5-2-1c-3 0-3 2-1 4 1 1 3 0 3-3zm-40 1h-1c0 1 1 2 2 1l-1-1zm-167 1-1-2-1 1 1 1h1zm74-3 4-2h-6c-11 1-18 3-20 4-1 1 0 1 8 1s10 0 14-3zm46 0 10-2c4 0 4 0 3-2l-3-1-8-2c-6-2-10-2-17 0-3 2-3 2-2 5l1 4c1 2 9 0 16-2zm-166 1-3-1c-2 0-2 0-1 1h4zm16 0-1-2c-1-1-3 0-2 2h3zm12-2 3-1 10-3 9-2c2 0 2 0 1-1h-12l-4 1c-5 0-9 2-7 4 1 1 0 1-4 1l-4 1 4 1 4-1zm26 0h-3c-2 1-1 1 1 1s3 0 2-1zm52-3c14-5 18-7 18-9l-2-2c-2-1-5 0-16 5a138 138 0 0 1-16 8l4 2 12-4zm-92 0c6 0 3-2-5-3l-8-2c-3-1-3 0 2 4 3 2 4 3 6 2l5-1zm204 1h-5c-2 1-2 1 1 1l4-1zm-234-2-1-1v1l1 1v-1zm14-1-2-1-1 2h1l2-1zm76 1v-1l-1 1v1l1-1zm64-3c11-4 23-6 26-5l7 1h4l-2-3c-2-2-3-2-14-2h-11l-9 5c-8 5-11 7-8 7l7-3zm64 2c3-1 8-6 8-7l2-4 2-3c-1-2-13-1-20 1l-10 2-4 1 1 1 6 4 6 4 3 1h6zm-103-2-1-1-1 1 1 1 1-1zm120 0v-1l-1 1v1l1-1zm9 0-2-1c-3 0-3 0-2 1h4zm-192-3 4-2-12-4-4 2c-3 2-5 3-9 3l-5 1c0 2 2 2 11 2 10 0 12 0 15-2zm35 1c3-2 7-6 5-6l-9 3c-6 4-7 4-3 4l7-1zm-79-1c0-1-3-3-6-3-2 0-2 0 1 2 4 2 5 2 5 1zm166 0-1-1-2 1 2 1 1-1zm-112-2-1-1-1 1 1 1 1-1zm10 0-1-1-1 1 2 1v-1zm42 0-1-3c-1-2-3-2-3 0 0 1-1 2-3 2h-3l3 1h7zm123 0-1-2c-1-1-1-1-3 1l-2 2h2l4-1zm39 0c1-1-3-1-11-1l-13 1h24zm-177-4-3 3 2-1 1-2zm-237-7-5-4-8-7c-5-6-7-8-11-8-3 0-3 0-3 4l-1 6c-1 2 5 6 20 14l10 5v-4c0-2 0-4-2-6zm170 8 5-2-2-4c-1-2-2-4-1-5l4-2c4-1 4-1 2-2-2 0-2-1-2-3 0-1-1-3-3-3-3-2-4-6-4-11s-4-11-9-14l-8-4c-3-1-3-1-5 1l-6 4c-4 1-4 2-2 2 2 1 2 2 2 3 0 2 0 2-1 0-3-2-3-2-8 2-5 3-7 3-7 2 0-2 8-10 10-10 3 0 6-3 6-4 0-6-4-8-7-5l-10 5c-8 3-9 3-12 2-3-2-4-1-3 2l1 5c0 6 4 11 11 15l6 4v-3c0-3 1-3 2-3h4c2-2 2-1 0 10-1 3 0 3 3 6 1 2 5 4 7 5 3 1 4 1 7-2l3-3-1 4-1 3 7-2h11l-6 1-7 1-1 2c2 0 2 2 0 2-3 0-3 1-2 2s11 0 17-1zm-32-19-3-1 2-1c2-1 3-1 6 1l4 2c0 1-7 1-9-1zm19-3v-1l1 1-1 2v-2zm-9-4 1-1 1 1-1 1-1-1zm3-14-3-6c2 0 6 5 6 6h-3zm81 35c4-2 4-3 4-8l-1-6c-1-1-5 0-12 1l-14 3c-2 0-2 0-1 2l5 5c3 3 4 3 3 5l-1 4c0 1 13-3 17-6zm25 5-2-1c-2 0-2 0-1 1 1 2 3 2 3 0zm24 0-2-1v1c2 2 4 2 2 0zm15-2c7-3 7-3 5-5h-5c-4 2-4 2-4 0 1-1 0-1-1-1-2 0-2 0-1 1 1 2 1 2-3 2-7 0-8 1-3 4l5 3 7-4zm125 2-1-1-1 1 1 2 1-2zm-160 0v-1l-1 1v1l1-1zm-216-2-1-1-1 1 1 1 1-1zm142 0c-2-4-6-8-7-8l-1 1-1 2c-4 2-3 4 1 4l6 1h2zm27 0c0-2-9-10-11-11l-5-2c-2 0-2 0-1 2l1 5c0 2 0 3 7 5l9 1zm172-1c2-2 5-3 6-1 1 1 4-1 10-6l7-6 3-1-3-2-5-4c-2-3-6-3-8-1-1 1 0 2 2 3 5 3 4 4-2 4-5 0-7 0-13 5-8 5-9 6-6 7l1 2c0 3 5 3 8 0zm40 1-1-1v1l1 1v-1zm-287-2h-3l3 1c2 0 2 0 0-1zm127 0 5-3c2-2-3-1-10 1-6 3-6 3-2 3l7-1zm69-2c-1-3-3-5-6-3l-3 1 4 2c5 3 5 3 5 0zm17-1c8-3 9-3 13-2s12 0 15-4l5-3 5-5 4-4 2-1h-4l-6 1c-3 0-3 0 2-2 7-3 8-3 15 1 7 3 17 5 17 3l-2-2c-3-1 0-2 5-2 2 0 5-1 7-3l6-2c3 0 3-2 0-9l-2-5h-8c-12 0-13 1-10 11 1 2 0 3-1 2l-5-1-3-1 3-1c4-2 3-4-3-11l-5-7-2-2-6 3c-5 3-9 4-14 5l-3 1-3 1c-2 0-5 1-7 3l-6 4c-4 0-10 2-11 4-1 3-1 3 2 3l11-5 10-4v3c0 2 1 5 4 8l3 5h-2c-2 0-3-1-3-2-1-4-6-5-10-4-5 1-5 4 0 5 3 1 8 6 7 7l-5-3c-4-3-4-3-7-2s-6 4-6 7c0 1 1 2 4 2 4 0 4 0 3 1-2 1-7 1-9-1l-6-2c-5-1-5 1-1 5l1 3-5 1c-4 2-4 3-2 4 4 1 3 1 13-3zm13-7c-1-1 1-1 3-1l4 1-3 1-4-1zm10 0c-1-1 0-1 2-1l3 1h-5zm25-24 4-1c2 0 3 0 1 1l-4 1c-2 0-2 0-1-1zm-17-6v-1l2 1 1 1-3-1zm30 38v-4l1-2c-1 0-6 2-7 4l-4 3-3 2h14l-1-3zm22 2-1-1-1 1 1 1 1-1zm-308-6c-1-4-2-5-3-4s-1 2 2 5l3 5-2-6zm123 3c-1-1-3 0-5 1l2 1c2 0 3-1 3-2zm172 0 3-1 1-1-5-1c-6 0-6 0-5 3 1 2 5 2 6 0zm-147 0-1-1v1h1zm-261-2-1-1-2 1 2 1 1-1zm100 0-2-1v1l2 1v-1zm194 0v-1l-1 1v1l1-1zm98 0-1-1-1 1 1 1 1-1zm-385-7c0-4 0-5-1-4v10l1-6zm302 5-1-1-1 1 1 1 1-1zm-47-2-2-3c-2-1-2-1-3 1s-1 2 2 2h3zm14-1h-3c-1 1-1 1 1 1 3 0 3 0 2-1zm15-1 7-3h4l2 1c2 0 2 0 1-2-1-1 0-1 3-3l5-3-6-2-8-3c-2 0-2 0-2 2l-1 4-3 4c-1 2-2 3-6 4l-3 2h2l5-1zm12 1-2-1c-1 0-2 0-1 1l1 1 2-1zm-268-11 6-11c1 1 6-6 10-13l4-7c2-1 2-1-2-5-5-5-7-5-7-1l-2 8-3 6c0 3 2 2 3-1l3-2c2 0 0 2-6 10l-6 8c-1 4-4 5-4 2 0-2-1-2-3 1s-2 4-1 5l1 6c-1 8 1 6 7-6zm-35 7c0-3 0-3-1-2l-1 3c1 3 2 2 2-1zm38-1-1-2-1 3 1 2 1-3zm62 2-8-14-2-3 1 5c1 4 3 9 6 12h3zm8-1v-1l-1 1v1l1-1zm-133-3-2-1 1 2c1 1 1 2 2 1l-1-2zm234 2 6-4 4-4-7-1 7-4h-16l1 2 3 4c1 2 0 4-2 4s-2-1-2-3l-3-4c-2-3-3-5-1-7s0-5-3-6l-9-2-8-2-1 3c0 3 1 5 5 12 3 3 4 5 3 6 0 3 1 3 5 1l4-1c2 0 3 0 3 2 0 3 0 3 2 2l2 1c0 2 0 2 3 1h4zm81-3c3-5 1-6-4-3-4 3-5 4-2 6 2 1 3 1 6-3zm39 2c2 0 3-1 2-2l-8 3c0 1 2 1 6-1zm-349-4c-3-4-4-4-1 1 1 2 2 4 3 3l-2-4zm46 3-1-1-1 1 1 1 1-1zm158 0-2-2c-2-2-4 0-3 2h5zm91 0h-3c-1 1-1 1 1 1l2-1zm40 0-1-1c-1-1-1 0-1 1l1 1 1-1zm-43-2c5-2 4-6-2-10l-6-3v5c2 1 1 4-1 6l-2 3h4l7-1zm68-2 3-2h-3c-5 1-5 2-4 3 2 2 1 2 4-1zm-331-7c-1-6-1-6-2-2 0 5 1 9 2 8v-6zm32 3c0-2-2-1-3 2 0 2 0 2 2 1l1-3zm-39-18c-5-8-7-7-2 2l2 9 1 8c1 2 2 1 2-5 0-8 0-9-3-14zm-2 17c0-4-2-4-3 0l1 3c2 0 2-1 2-3zm326 2c3-2 3-3-1-3h-7c-1 1 2 4 4 4l4-1zm-362-3-3-1-2 1 2 2c2 0 3-1 3-2zm197 0v-1l-1 1v1l1-1zm18 0-1-1-1 1 1 1 1-1zm127-1c0-2-2-2-4-2-2 1-3 2 0 3s4 1 4-1zm-331-6-4-5c-6-4-9-8-8-8l1-3c-1-2-1-2-2 0l-2 1v10c1 3 2 4 7 6l7 3c2 3 2 1 1-4zm96 2c1-3 1-4-1-6l-4-6-4-6c-2-2-2-1-2 3l1 5c2 0 1 4 0 4-2 1 1 4 4 5 2 0 2 0 2 2 0 3 2 3 4-1zm214 2c0-3-2-2-3 0l1 2 2-2zm34-4c2-1 2-1 1-4l-1-4-10 6c-1 1 0 2 3 4 3 4 4 4 4 1l3-3zm35 5-1-1-1 1 1 1 1-1zm-393-2c1-2-1-2-3-1-1 2-1 2 1 2l2-1zm65-15 2-14h-2l-3 3v24c0 3 0 3 1 1l2-14zm273 14-1-1-1 1 1 2 1-2zm-303 0c2-1 2-2 2-5 0-5-1-5-3 2-2 4-2 4 1 3zm98 0-1-2h-2l1 2h2zm76-5c1-3 1-4-1-8l-2-7c0-2-1-2-3-2s-6-5-8-12c-1-2-3-5-7-8l-7-4c-4 0-18-8-22-11-5-5-7-6-23-8h-26l-9-1c-4 0-13-4-22-9l-9-5-7-2h-3l-9-8-12-10c-2-2-2-2 0 1a556 556 0 0 0 16 24l8 8a2469 2469 0 0 1 33 30l6 3c2 2 2 2 3 0v-4l-3-2-5-4-6-4-1-2-8-6c-10-6-9-5-8-7 1-1 0-2-5-7l-4-5 6 3c2 0 4 2 5 3 0 2 2 3 5 4h2c-1-1 0-2 1-2 1-2 7 0 10 3 4 3 15 5 30 6 11 0 14 1 14 3l1 2c1 1 4 0 3-1-1-2-1-2 8 1l10 2c3 0 14 6 17 10 1 1 2 3 3 2l5 3c3 4 2 6-1 3-5-3-5-1 0 4 1 2 5 4 8 5l5 3-2 1c-3-1-2 2 2 6l7 10 3 4 2-5zm-71-55c-7-4-7-4 1-1l9 3 5 1h-4l-11-3zm-87-21v-1l2 3-2-2zm321 76c1-1 1-1-2-1l-5-1c-3-1-3-1-3 3l1 4 4-2 5-3zm2 4v-1l-3 1-2 2 2-1 3-1zm-299-5v-2l-2 3c-2 3-2 4 0 3l2-4zm139 4v-1l-1 1v1l1-1zm182 0v-1l-1 1v1l1-1zm-54-3-1-1c-2 0-2 1-1 2l2-1zm-224-3c-1-1-2 0-1 2s1 2 1 0v-2zm262 2-1-1-1 1v1l2-1zm-356-1-1-2c-1-1-1-2-2 0v2h3zm366 0-1-1-2 1 2 1 1-1zm-260-2-1-1v1l1 2v-2zm-62-1-1-2v3c1 1 1 1 1-1zm9 1-1-1-1 1 1 1 1-1zm45-9-6-9-4-2c-2-2-3-3-3-1 0 1 0 2-1 1h-2l20 20-4-9zm-6-5 1-1 1 1-1 1-1-1zm275 10c4-2 8-2 13-2 6 0 7-1 10-3 3-3 11-6 25-10l10-4 2-2h-4l-8 1-4 1 3-3 3-2-5-1h-8c-3 1-4 2-4 4v3l-3-3c-5-5-9-5-14 0-3 4-3 4-10 4-6 0-8 0-12 3-5 3-9 9-7 11h3l4-1c3 0 2 0-1 2a7408 7408 0 0 1 6 2zm12-11-8-1-5-1 14-1c13 0 14 0 5 3h-6zm-212 11-1-1-1 2c1 1 2 1 2-1zm34 1-1-1-1 1 1 1 1-1zm-209-6c-1-2-1-1-1 1l1 3v-4zm12 3 3-2c0-1-2-2-5-2-4-1-6-3-9-6-7-8-6-4 1 4l7 8 3-2zm51-7 3-8-3-2c-3-2-4-2-6-1-2 0-3 1-3 5l1 10c2 6 3 5 8-4zm63 8h-3c-1 1 0 1 1 1l2-1zm217 0-1-1-1 1 1 1 1-1zm-225-3-1-1c-2 0-2 1-1 2s2 0 2-1zm39 0v-1l-1 1v1l1-1zm-24-1c2-1 1-2-1-2l-3 1c-2 2-2 2 0 2l4-1zm-138-5-6-13-5-11-1 4c-2 5-1 14 1 14 1 1 1 0 1-3l1-3 5 8 5 8-1-4zm160 2c1-2-3-4-7-4-2 0-2 0 0 3 3 3 7 4 7 1zm-167-3v2c0 1 0 2 1 1l-1-3zm34 3-1-1c-1-1-1 0-1 1l1 1 1-1zm108-3c2-4 4-5 11-7l3-1c-5 0-10-3-12-5-1-2-1-2-6-2l-9 1h-6c-10-5-12-5-13-5l-1 4c0 4 1 4 5 7l18 9 2 1c2 3 5 2 8-2zm8 0-2-1c-2 0-1 0-1 1l1 1 2-1zm181-2h-2v1l2-1zm134-1c2 0 4-2 5-4 3-3 3-3-7-5-6-1-6-1-11 1-4 2-8 6-6 7l12 3 7-2zm-448-4c-1-1-1 0-1 1l1 3 1-1-1-3zm156 1-3-1 1 2 3 1c1-1 0-2-1-2zm-114-4-1-3-1 3 1 3 1-3zm-49 1-1-1-1 1 1 1 1-1zm53 0-1-1-1 1 1 1 1-1zm25 0-2-1v1h2zm-48-20-5-5c-2-3-2-3-1 0l3 6 4 10 1 5v-7c0-5 0-7-2-9zm24 15-1-1v1l1 1v-1zm-12-3c0-2-4-4-4-3v3c0 2 4 2 4 0zm30 1-3-1c-2-1-2-1 0 0l3 1zm23-4-2-1v3h1l1-2zm-10-1-1-1v1l1 1v-1zm43-1h-3c-1 1 0 2 1 2s3-1 2-2zm22 1c-2-2-4-2-3 0l3 1c2 0 2-1 0-1zm-126-6c-2-4-2-2-1 2 1 3 2 4 2 2l-1-4zm40 2-1-1c-1 0-2 0-1 1h2zm59-3c-1-2-7-3-9-3-2 1-2 2-1 3h10zm-21-4h-1l-1 2h1l1-2zm-48 1-1-1v1l1 1v-1zm28-4-3-1c-2-1-2-1 0 1 1 2 2 2 3 2v-2zm-48-6c-2-3-2-2-1 2l2 2-1-4zm17 3-3-1c-2 0-2 0 0 1h3zm-26-9v-1l-1 1v1l1-1zm76-6c4-7 4-6 2-10l-1-3-2 3h-3l1-2 1-2-3 2-3 1c-1 0-3 2-5 6-1 3-3 7-5 8l-2 3 8 1h8zm-72 2-4-5-2-2 2 4c1 3 4 7 5 6l-1-3zm55-3c2-4-1-3-4 1l-2 3 3-1 3-3zm33-6c2-2 1-6-1-5l-1 7 2-2zm-23-9-4-8-7 15 11-7zm28 4 1-2-3 2v1l2-1zm-84-7-6-8c-2-1-2-2-2-3 0-3-4-9-8-12-5-3-7-3-7-1 0 3-1 3-4-1l-3-3-1 3v6c1 3 1 4 1 1 0-4 2-3 6 1l11 9 8 6c1 2 7 10 8 9l-3-7zm44 1c0-1-4 3-4 5l2-2 2-3zm30-2c-1-5-2-6-7-9l-3-2v3c0 2 8 11 10 11v-3zm-15-1c0-2-2-3-3-2l3 4v-2zm28 1v-1l-1 1v1l1-1zm-83-4-1-3c-2-1-2 0-2 2l2 2 1-1zm48-8 2-5c-2 0-5 3-5 5l-1 5c-1 3 1 0 4-5zm4 2v-1l-1 1v1l1-1zm22-14-4 1c-2 2-3 3-2 4 2 1 2 1 4-1l2-4zm-15 2-1-1v2l2 2-1-3zm39-2-1-1-1 1 1 1 1-1zm-41-3-1-1v1c1 2 1 2 1 0zm21-6-1 1c0 4 2 5 2 2l-1-3zm-18-9h-1l-1 1 1 1 1-2zm114-17c-2 0-3 1-2 2h2c2-1 2-1 0-2zm-28-3h-2v2c2 1 4 0 2-2zM282 741c-2-2-2-4 1-4 2 0 3 1 3 3 0 3-2 3-4 1zm9 0 1-1 1 1-2 1v-1zm104 0 2-1 1 1-2 1-1-1zm180-11c-3-3-2-4 1-2l2 3-3-1zm-410-9c-3-4-4-5-3-7 0-4-1-8-3-8l-4 6-2 5 1-5v-8c0-4 2-4 9 1l6 3-1-4c-1-3-2-4-5-5l-4-2-4-1c-4 0-5-2-1-2s5-3 2-3l-4-2c-3-3-4-2-7 2l-5 8-3 5h-2c-1-1-1-2 1-5l2-4-3 3-4 5-1 1-1-4c0-3 0-3-1-1l-3 2v-4c2-4 6-7 14-10 7-3 22-4 25-2 1 1 2 1 6-1l8-2 7-2 4-2 2 1c1 0 2-2 0-3l4-6 6-8c3-4 5-11 4-12l-7 5c-5 5-6 6-7 5-1-2-2-1-4 2-2 5-18 21-19 21l-1-2c0-2 0-2-3-2l-5-1c-1-1-4 0-10 3l-12 5c-3 0-3 0-2-2l4-4c4-2 5-3 3-5s-2-2 0-2l6-1c5-1 5-2-1-3-5-1-6-2-6-4 0-3 0-3 3-3l3-1-5-1-6-1c-2-1-2-1-2 1s-1 2-2 2c-4 0-18 5-18 6l4 2c7 1 5 2-4 2s-10 0-13 3-4 5-1 3 5-1 2 1c-2 1-3 3-2 4l-1 1-1-1h-2c-1 1-1 1-1-3 0-3 0-4 3-6l3-2 2-1-10 4-8 2-6 2-4 2 7 2-4 3c-3 3-7 4-8 2l2-2 2-5c1-4 3-5 7-5 5-1 4-3-1-4-4 0-5 0-7 3l-5 2c-1 0-1-1 1-2l5-5c2-1 5-3 8-3 6-2 6-2 10 0l3 2c1 0 3-6 2-7h-6l-5-1 1-2c1 1 12-4 14-6 2-3 3-3 11-3l12 2c4 2 7 1 9-3l6-6 7-5c3-2 3-2 11-2 13 2 22 1 26-2s9-12 10-18c1-4 6-10 10-13 2-1 5-4 8-10l4-9v-12l2-19c1-7 0-11-2-11l1-3c2-2 2-2 1-5l-2-3h-3c-1-2-4-1-3 2 0 1 0 2-3 2l-3-1-2-1-2-2-1-1-2 1 1 2 1 1h-7l2-5 1-19a143 143 0 0 1 2-26c-1-1-4 6-4 13l-2 8v-1l1-12-1-12c-1-1-2-1-3 2l-1 10-1 11c-1 5-1 7 2 17a131 131 0 0 1 3 16c3 2 1 4-2 4-4 0-5-2-3-4v-3c-3-3-3-3-6 2-2 4-2 6-2 17l-1 11-1-8-2-30c-2-19-2-30-2-61a314 314 0 0 1 6-84l-5 1c-3 1-5 2-6 4v2c2 0 0 9-3 15-2 5-3 7-3 20a1901 1901 0 0 1-4 89c2 8 2 18-1 25l-2 6 1-50a548 548 0 0 1 2-73c-2 4-6 63-8 114 0 22 0 25-3 29l-2 5v-8l-2 3c-3 5-5 6-12 9-5 1-9 3-11 6-4 3-6 3-6 0 0-1 8-7 12-8s9-7 11-12c1-5 1-6-1-4h-3c-2-1 2-3 4-3 2 1 3-2 3-5s-9 1-11 5c-1 1-3 3-5 3l-6 2-4 2 3-2 6-4 3-2-3-2-2-4c0-2-5-2-6 0l-5 1h-5l2-3c3-3 12-9 12-7l2 1 3 1-3 1-5 1v1l7 3 4 2 4-2 5-2 4-2c2-2 2-4-3-9-4-3-4-5-1-4 4 0 3 4 7-50a309 309 0 0 0 0-63c0-1-2-1-5 2l-2 2v-3c0-2 1-3 2-3l3-1c2 0 6-11 6-22l3-11 1-4c-3 2-3 1-2-2 2-3 2-4-2-1h-2l-6 3c-6 3-9 8-9 13 0 3 0 3-2 2-2-2-2-2-6 1-4 5-6 13-5 16 2 3 2 3 3-1l1-7a476 476 0 0 1 0 51c-2 1-2 6-1 11 1 3 1 4 2 2 2-3 3 8 4 41l1 29c2 0 4-5 4-8 0-2 0-3 1-1l1 4 2 6c3 4 4 6 2 7h-1l-7-3-6-4-4-4-3 3c-6 6-9 7-15 7s-6 0-5 2l2 3v2c-2 4-3 17-3 21l3 6 2 5c0 2 3 5 5 5a70 70 0 0 1 38 30h-14l-5-3c0-1-4-3-7-3-2 0-2-1-2-2v-1l-1 1c0 2-1 2-4 0l-6-4-10-7c-6-6-6-6-10-6-3 1-4 2-2 3l1 3c0 2 2 3 6 4 3 0 6 2 7 3l6 4c4 2 4 2 2 2l-5-1c-3-2-8 0-9 3-1 2-1 2-4-2l-5-9c-3-5-7-10-9-10l-4 2-2 2 2 3 1 2-1 2 1 3 2-2v-2l2 2 4 2 1 3v4l-4-3-7-2-5-1c-2-2-2-8 0-11l2-7c0-3 0-4 2-4l2-4c0-4-2-8-3-5l-2 3c-2 2-2 2-3 1-2-3-1-5 1-5l3-3c2-2 2-2 0-5-2-5-4-5-6-1-1 2-3 4-5 4-2 1-2 1 1 2l4 2-6 7a71 71 0 0 0-15 21c-3 6-4 7-8 5h-2l-3 3c-1 2-2 3-3 2v-7l-1 2-1 2v3c1 1 1 1-1 1l-2-2-3-2c-3 0-3-4-1-5l4-2c2-2-2-1-5 1-4 4-6 4-4 0 1-1 3-3 8-4 6-2 7-3 11-9l12-13 9-12c4-9 5-24 1-29-1-2-1-2 1-3 3 0 5-7 5-19 0-9-1-13-4-15l3-2c3-2 3-2 3-6-1-5-1-5-6-8l-4-1-5 5 1-5 2-4-3-3-6-4c-4-1-4-1-2-3 1-1 1-1 4 1 3 4 7 5 11 3l3-1h-3l-8-5-3-4 2 1c1 2 3 2 5 2 4 0 10 3 10 5h1c2-2-1-10-4-14l-5-6-4-5c-2 0-2-1-1-2l1-3 1-2c2 0 4 3 4 7l2 3 3 4c1 4 4 7 5 5 2-1 2-4 0-4l-3-2c0-2-2-4-3-5l-2-3-6-15-1-3c0-2-2-3-4-5-5-3-4-4 1-1 6 3 7 5 8 11l2 7c2 2 2 2 4 1 3-1 3-1 1-3l-2-1 2-3c4-3 3-5-1-7-2-1-5-3-11-11-8-10-10-16-10-22 0-3 0-3-3-2l-4-1c0-2 2-4 5-4 1 0 2 0 1-2l-1-5-5-12-2-6 2-1c1-2 2 0 7 17 5 18 6 20 8 20 1 0 1-5-1-11-4-10-5-23-2-23l1 2v1c-3 0 0 12 3 14l1-4-1-4 3 3c3 3 5 4 8 2h2c0 2-3 3-7 4-3 1-3 1-3 6s0 6 2 8c3 4 7 5 9 4v-11c-1-2-1-2-5 0l-4 3 3-4c2-4 5-6 8-6 1 0 2-1 2-4 0-5-1-6-3-4s-3 0-1-2l1-5 1-6v-8l-1-11c0-5 0-5 1-3 2 1 2 1 2-4 0-8-2-9-12-9-6 0-8 0-17 4-14 6-12 3 2-5l7-4 2-2c1-2 2-2 9 0 8 3 11 4 11 1l-3-1-9-2c-9-3-10-3-14 1-3 3-4 3-6 2-2 0-3 0-1-1l5-3c4-4 6-4 11-3l7 3c4 1 4 1 4-2 0-4-2-9-8-16-4-6-13-23-12-24s9 2 14 5l6 4 2-3c1-2 2-2 5-2 2 1 3 1 5-1 10-8 13-8 16 1 2 5 3 8 4 7l-2-11-2-10-5 4v-3c-1-3-3-4-3-1 0 6-1 7-11 7-9 0-12-1-12-4 0-2 0-2 4 0 2 2 3 2 4 0 3-3-4-7-10-4h-5c2-2 6-4 18-4l15-2c3 0 4 0 7 2 5 4 5 2 0-3l-5-4-6 2c-6 2-8 3-16 3-9 0-10 0-12 2l-8 5c-7 4-8 4-1 3 4-1 8 0 11 4l2 2-2-1-12-1-10-1-3-1c-4 0-10-3-10-4h1l7 1c5 0 8-1 12-3 3-1 5-3 5-4l-9-4-9-5c0-1 12 0 15 2 2 0 3 2 3 3l4 2c3 0 5-3 3-5-2-1-2-2 0-2l3-2h5l8 2c3 0 4 0 3 1-4 4 3 2 7-2 2-2 2-2 0-3l-5-2-2-2c0-2-1-2-2-2l-10 1 3-2 3-2h-3c-2-1-3-1-3-4l-1-3-2 4-2 5-1 1v1c2 2 1 3-2 0l-6-3c-3 0-3-1-3-3 0-3-1-3-5-1-2 1-3 0-6-1l-9-9 3 1 5 5c4 2 4 2 8 1l5-5 1-5 3 6 2 8 1 3 1-3c0-5 2-11 3-11 2 0 9 6 9 7l1 2c2 0 7-3 7-5 1-2 2-2 5-2s4-1 4-3c0-3 2-3 4 0 3 2 7 5 10 5 2 0 2 0 0 1h-7c-7-2-13 0-16 4l-1 3 4-1c3-1 3 0 2 2v3c1 2 2 2 3 0v-4c-2-2-2-2 4-3 4 0 5 0 5 2l5 5 3 3-4 4 2 3 4 2c1-1 9 6 13 12 2 3 3 6 3 10l3 13c2 5 3 6 3 4 2-6 1-13-4-26-3-11-4-14-3-16s0-2-1-3h-1c0 2 0 2-1 0-1-1-1-1-1 2v3l-4-4c-4-4-4-5-1-6h3v-1c0-2 0-3 2-5 1 0 2-1 1-2s-7 0-8 1l-1 1 2-3c3-2 4-2 6-1 4 2 6 2 9-1s3-3 2-4h-6c-1-2-7-1-12 1-4 1-5 0-2-2l2-3-2-8a5525 5525 0 0 1-11-38c-2 0-6-4-6-6h-2v4l2 2c2 0 7 11 7 13l-2 4v8c1 9 4 17 5 16l1 2c0 1-1 2-5 2-5 0-8-3-4-4 2 0 2-1 1-1s-4 0-6 2l-12 3c-7 2-8 1-13 0l-7-3c-3-3-7-3-9 0 0 2-3 4-4 6l-3 3-3-2-1-2 2 1c1 1 2 1 4-2s2-4 0-5c-1-1-1-1 2-3 2-1 4-2 4-4 1-3 2-4 5-6 2-2 4-3 3-4 0-1 1-1 6 1l7 2c2 0 1-4-1-4l-3-2c-3-2-21-4-23-3-1 2 0 2 6 4h-1l-12 3c-7 2-7 2-8 1-2-3-2-3 4-3 5 0 6-1 5-2l-6-2c-6-1-8-3-3-3l9 1h5v-4l1-4 7 3c7 4 11 5 15 1l2-2h-2l-2-1 6-1c5 0 6-1 6-2l1-3 1 1 3 4c2 2 4 4 3 5l3 2c2 0 2 0 0 1l-6 5-5 5 4-2 8-2c4-1 4-1 2-2l-3-1 8-5-3-3-5-7c-1-3-3-5-5-6l-5-3-1-2-5 2c-3 1-5 3-5 4H37l-1-2c1-2 0-3-2-3-4-2-7-1-3 1l3 2H13l3-2c2-2 8-4 15-3l25-1c8-1 9-1 11 2 1 1 2 2 3 1 2-2-2-7-6-9-3-2-3-2-8 0l-7 2-6 2c-2 1-3 0-8-1l-8-3-3-1-3-2c-1 0-4-2-3-3l4 1 12 5c8 3 8 3 14-1l-3-3-6-10c-4-6-4-8-3-9h4c3 2 4 2 6-4 1-5 0-12-3-15l-1-3c-1-3-8-5-11-4l-6 1c-2 1-3 1-3 3 0 3 0 3-2 2l-2-2c0-1 5-5 9-5 4-1 6-2 4-4s-10-4-14-4c-2 0-3 0-1-1s12 1 17 3l7 6c4 5 6 8 10 18 2 3 2 3 2 0l-3-9-2-6c0-2-5-8-7-8-4 0-8-2-9-5-1-2-2-3-5-3s-3 0-2-1c4-2 14 0 17 4 1 3 10 6 11 4l3 1c3 2 4 2 7 1l6-4c4-3 17-3 18 0 1 2 8 7 10 7s0-5-3-8-4-4-9-4a94 94 0 0 1-42-10c-1-1 1-2 5-4l6-4h2c1 1 2 1 2-1 0-1 1-2 4-2l4 1 8 1h7l-5-3c-5-3-5-3-4-4l8 3 21 7 3 2c1 2 3 2 6 2h5l-5-4c-3-2-8-4-15-5-12-3-16-4-14-6 1-1 2-1 6 1 6 3 14 5 12 3l-10-6c-12-7-12-7-9-7s7 2 12 5l30 12c3 0 3 0 2-2-1-3-5-4-21-7-8-2-14-5-10-5s25 6 32 9l10 3 1-2c0-2-12-6-30-12-10-3-14-5-11-5a141 141 0 0 1 42 13c4 1 4 1 3-1-2-2-2-3 0-3s1-1-1-3l-11-3c1 2-1 1-16-2l-16-4c-2-2-1-2 5 0l12 2 9 1c3 0 3-2 0-3-2 0-3-2-1-2l9 3 9 2-3-3-2-2 8 3c6 1 21 10 22 12 1 3 4 6 5 5 0-1 0-2-2-3l-3-4c-1-4-10-9-22-13-9-2-13-5-9-5 3 0 2-2-1-3l-10-3-14-4-16-3-8-2h10l16 3 6 2-2-2c-3-2-3-3-2-3 2 0 1-2-3-5l-5-4 30 8 22 6h2l-2-3c-4-4-9-15-8-17l3 4c2 5 10 15 12 15l-2-5-2-5 3 3c4 3 4 3 4 1l-1-4c-1-2 0-2 2 1l4 5 4 7 5 10c1 5 4 9 5 8l-4-10c-4-8-5-10-4-13 0-4 1-3 5 6l5 11a160 160 0 0 1 10 18c1 0-3-11-6-15-3-3-6-11-5-11 1-1 4 6 9 14 8 14 9 15 9 22v7l-2-6c-2-6-3-8-3-5l-1 4v3l1 9v7l-4-12v8c0 7 0 8-1 6l-2-5c0-1 0-2-1-1v11c-1 1 3 14 5 15l4 6 3 9c3 3 8 15 10 22v5l-2-1-4-12-12-23c-5-7-9-13-10-12l-2 5a1036 1036 0 0 1 20 64 296 296 0 0 0 24 57l-2-6v-2c0-1 1-1 2 1 0 2 1 2 1 1l-6-14c-5-10-6-12-4-5l-2-2c-4-6-7-14-7-20l-1-12-1-6a238 238 0 0 1 9 30c0-2 1-2 2-2l1-3c0-3-1-7-4-13-6-10-9-19-7-21 1-1 1 0 2 1l8 17 1 4c0 3 2 8 5 13 1 2 3 5 3 8l7 14c2 1 6 10 10 23a124 124 0 0 0 8 20l-6-9c-3-6-6-9-7-9v-4c0-5 0-6-3-13-4-7-4-8-4-5v8l1 11c0 5 1 10 5 21 5 15 5 16 5 26v10l-3-9-4-17c0-7 0-8-3-9l-7-8-4-6a319 319 0 0 0 10 25l3 7 4 13c3 10 4 11 4 8 1-3 1 0 2 7 0 7 1 10 2 10l2 3c1 2 1 2 1-3l-1-10v-11l1 3 2 10 3 19 2 31 2 21 1-1c0-2 1-2 1-1 2 2 2 13 0 25l-3 19c-1-2-1-3-2-2l-1 8a343 343 0 0 1-7 46c0-3 0-3-1-1-2 2-2 2-2-3v-4l-2 2c-2 2-2 3-1 7l2 4c2-2-3 12-6 16l-2 6-1 5c0 1-1 1-1-1 0-6 2-14 5-18 4-5 4-6 1-5-1 0-2 0-2-2l-1-3c-2-2-10 12-12 19l-1 19c0 13 0 14 2 9l2-5v20c0 17 1 21 2 21s3-7 3-14c0-4 1-5 1-2v13l-1 2 2-2 2-9c3-13 4-10 2 6-1 11-1 12 2 8l2-4 1 4c0 6-1 8-2 9l-1 3c1 2 2 2 3 0 0-1 1-1 2 1 3 3 3 5 1 9-1 3-1 3-2 1 0-3 0-2-2 1-2 4-2 5 0 5l1 1-9 24v-5c1-8 0-9-3-3-2 7-4 9-4 7s-4-3-5-1l-3 1c-1 0-2-1-1-3 0-2 0-2-3-2s-5 2-5 7c0 6 7 8 10 2l2-3c1 0-1 8-3 10v3l-2 4c-4 4-6 4-2 0 2-3 3-6 1-6l-4 9-5 4-5 4 6-1c6-2 18-12 16-15-1-1 3-7 6-9 2-1 2-1 2 3 0 3-2 7-3 6h-1v1l-5 9-7 9h3c5 0 13-7 17-14 7-10 20-27 22-25l-2 6c-1 4-1 5-2 4 0-2-2-3-4 0-3 3-17 24-17 26h2l4-3 3-1-2 3-7 7-7 6a261 261 0 0 1-23 23l-1-2c-2-1-6 6-6 9s-5 7-12 9c-6 2-7 3-6 5l4 4 3 3h-3c-2 0-3 0-4-4l-3-6c-2-1-3-3-3-6 0-2 0-3-1-2l-6 1h-5l1 4c1 2 2 3 4 3l4 2 5 16c0 2-2 1-2-1-1-2-1-2-2-1-1 2-1 2-3 0h-3l-1 3 7 7c2 1 2 1 1 2s-2 0-6-3zm10-48c1-1 1-1-1-1l-2 1h3zm5-15-4 2-5 4c-3 1-3 1-4 5v4l7-7 6-8zm-20 7c-5 0-8 2-6 4 1 1 2 1 6-1l4-2zm-58 1c0-3-1-3-3-1v2l3-1zm48 0-1-1-1 1v1l2-1zm-38-6c4-1 8-3 7-4s-17 4-17 5l3 1 7-2zm45 2-1-1h-1l1 1h1zm33-8 1-3-3 3-4 5c0 2 4-1 6-5zm-42-2c-1-2-5 1-5 3s0 2 3 0l2-3zm-9 2 2-4c0-3-1-2-4 2-1 3-1 4 2 2zm52-5 3-3c-2 0-7 3-7 5-1 2 0 1 4-2zm-31 0-1-1-1 1 1 1 1-1zm52 0-1-1-1 1 1 1 1-1zm-30-3 1-4-4 7 3-3zm-25-4c1-1 6 1 8 3h6l-7-4-7-4-5 1c-5 2-6 3-7 5l-2 4c0 1 12-3 14-5zm22-2c0-2 0-2-3-1-3 2-4 3-1 3 3 1 4 1 4-2zm34 2 1-1-3 1v1l2-1zm6-2h-3v1l3-1zm-29-5 1-2-5 5 4-3zm14 0h-3l2 1c2 0 2 0 1-1zm6-13c0-2-4-1-7 3-3 2-3 4-2 5 0 1 2 0 5-3l4-5zm-12 4c3-2 3-5 1-5s-3 2-4 5 1 3 3 0zm7-8-1-1-1 1 1 1 1-1zm-1-3 2-2c0-2-2-1-4 1s-2 2 2 1zm-78-10-2-4c0-2-7-6-10-6s-1 2 2 3c3 0 4 1 6 6 1 2 2 3 4 3h2zm87-3c3-6 3-8 1-8-2 1-6 9-6 11 0 4 3 2 5-3zm-82 1-1-1-1 1 2 1v-1zm-3-2-1-1c-1-1-1 0-1 1l1 1 1-1zm101-6-1-1-1 2c0 1 1 1 2-1zm8-5-1-4c-1 1-1 9 1 9v-5zm-120 1c0-2-5-5-9-6-9-2-13-4-14-7-4-8-5-35-3-45l3-21a650 650 0 0 1 8-42l4 32 1-12c0-15 0-16 1-11l2 5v-9c0-9 0-10-2-6-1 2-1 1-1-2 0-5 2-7 4-6s3-3 1-6c-1-2-7-5-7-4v-10l2-6c1 1 3-5 3-9 0-3 0-5 2-5 2-2 3-7 1-10h-2c-2 3-1 1 1-13s3-17 6-19c2-2 3-7 3-10 0-2 2-5 7-9 5-5 8-7 11-8 7-1 8-1 8 1-1 1 0 1 4 2 3 1 4 2 4 4l3 3h4c2-2 3-2 7-2l6 1-11-4 4-1c5 0 10 2 11 4l-2 1c-2 0-1 1 2 2 5 2 8 3 7 1l3-3 5-2-8-1 4-2c4-2 4-2 6 0s2 2 1 4c-2 3-1 3 4 1l5-2 6 2c6 2 12 3 15 1h4c2 2 2 4 0 4l-6 2-5 3v15c0 13 1 14 2 12 2-4 3 0 3 13 0 7 1 12 2 12l-1 4v17c1-1 1 2 1 7 0 7 1 8 2 8h1l2-7c2-5 3-11 3-23l3-41a289 289 0 0 0-7-70l-1-3-4 3c-3 4-3 4-1 6h3c2-1 2-1 2 3l1 4-5-2c-4-2-4-2-9-1l-18 9c-19 11-34 16-37 13h-7l-13-1c-7 1-9 1-12 3l-6 4c-4 3-3 2-9 15l-5 15c0 3-1 8-3 10l-2 5v-6l2-19 3-18 1-7c1-1 1 0 1 4 0 5 0 5 1 4 3-3 5-24 3-26h-3l-1-3 3-30-1 1-2 5c0 2 0 2-2 1-1-3 0-8 4-13s5-8 5-13l2-16 3-16 2-14 2-14c1-2 1-2-3-3-4 0-5 0-6-2 0-2-1-2-3-2-3 0-3 0-3 2 1 1 0 5-1 8-2 6-2 6 0 4s2-2 0 16l1 16c2 13 0 29-4 33-3 4-6 10-9 23l-4 16c-1 5 0 11 3 13l2 2-5 20c-1 2-2 8 0 8l1-1 1 3 1 5v1l-1 6-2 7c-1 3-1 2-1-1 0-4 0-4-1-2l-6 41c0 3 2 3 2-1a1208 1208 0 0 0-7 64 161 161 0 0 1-9 43l2-14c5-23 7-43 7-56v-12l-2 7c-2 12-3 23-2 24 2 1 1 2 0 8l-7 29c-1 8-2 10-4 12l-3 6v4l2-2c1-1 3-3 5-3 2-1 2-1 2 4l1 18c1 8 1 12 3 14 3 5 5 5 5-2l1-5 7 7 13 9 8 3h5zm-39-48 3-15 2-9-1 8c0 11-2 19-3 21s-1 1-1-5zm6-36 2-7c2-4 2 0 0 6l-2 6zm9-47c0-2 0-2 1-1v3l-1-2zm1-5c0-1 0-2 1-1l-1 2v-1zm9-1c0-1 0-2 1-1v2l-1-1zm3-25c0-1 0-2 1-1v2l-1-1zm-8-8c1-9 2-14 3-11 1 2-2 18-3 19v-8zm9 3c0-1 0-2 1-1v2l-1-1zm121-17 1-6 1-4v6c0 6-1 8-2 4zm1-21-2-5-1-7-1-3 3 2 2 1c0-3 3-7 4-6l-1 5-2 9c-1 4-1 5-2 4zm-129-16 5-13-3 12c0 2-2 3-2 1zm115-10c-2-1 0-2 3-2 4 0 4 0 3 2-1 1-5 2-6 0zm-57-2c-2-2-2-2 0-2l2 2v2l-2-2zm58-3c-7-3-10-3-18-3h-14l6-3 13-8c9-8 14-10 23-8l6 1-2 3c-5 5-4 10 1 15l4 4h-3l-3 1c-1 2-5 1-13-2zm11-3-1-4c0-1-1-1-1 1l-1 2-1-5 1-5 1-1c0-2-2-3-6-3-5 0-6 2-6 9 1 5 1 5 4 7l7 1c3 0 3 0 3-2zm-19-7c0-3 0-3-2-2-2 3-2 5 0 5l2-3zm-95-2v-4c1-2 1-2 1 1 0 4 0 5-1 3zm-15-5 1-4c1-1 1-1 1 2s-1 4-2 2zm5-16a117 117 0 0 1 3-7l-2 6c-1 1-1 3-1 1zM29 588v-4c-2-2-4 0-4 3s2 4 4 1zm10-2c5-5 6-8 4-9-2-2-11 9-10 12 1 2 2 1 6-3zm58 3-1-1-1 1 1 1 1-1zm-25-7v-1l-1 1v1l1-1zm153-4c0-4 0-4-1-1v4l1-3zm10-6v-6l-2 5c-3 4-3 5-2 9l1 2 2-2 1-8zm-195 1 2-2h-5l-1 2c-1 2 1 2 4 0zm30 1v-2l-1 1c0 2 0 2 1 1zm-23-9-1-1-1 1 1 1 1-1zm23-4c-1-2-1-1-1 1s0 3 1 2v-3zm-1-12c0-2 0-2-2-1l-1 4-1 3c-1 1-2 6-1 7s5-10 5-13zm-15-5 5-16c5-15 10-51 10-76 0-12 0-14-3-19l-2-6-2 5c-2 6-2 9 0 12 1 2 1 2 3 0v12l-1 15-2-1c-1-2-1-1-1 9 0 15-1 22-3 21l-1 11c0 12-1 19-7 36-2 9-3 12-2 13s3-2 6-16zm89 7-1 1-1 2h1l1-3zm1-9c2-5 2-5 0-8l-3-3 1 2 1 4c-3 11-2 15 1 5zm-39-9-1-1-1 1 1 1 1-1zm102-7c4-8 6-55 6-115v-39l-2-3c-3-3-3-3-9-3-7 0-11 1-11 4 0 2-3 6-8 12l-6 7c-2 3-2 3 2 4 3 1 3 2 6 10l3 9c0 3 1 0 4-9 2-10 2-12 0-7l-1 2-4-5-2-4 4 1c2 1 2 1 2-2l4-20c2 0 1 27-1 46a570 570 0 0 0-2 59c1 0 2 0 3 2 0 2 0 2 1-1 2-2 2-2 2 2 1 4 1 4 2 2 1-3 1-3 1 2l-1 11-2 20 1 15 2 3c0 3 0 3 2 1l4-4zm-6-58 1-3h1l-1 2-1 1zm-2-11 1-1v2c-1 1-1 0-1-1zm-4-7v-12l1-8v12c0 12 0 14-1 8zm7-6v-21l5 4c3 4 3 5 3 9-1 3-2 3-2 1 0-4-2-2-2 2 0 5-2 7-4 5zm4-14-1-1-1 1 1 1 1-1zm-4-37 1-1v2c0 1-1 1-1-1zm1-13 1-9c2-1 2 0 1 9l-1 9zm-91 149-1-1-1 1 1 1 1-1zm103-4c-1-4-2-5-3-3-2 1-2 3 0 3l2 2c1 3 1 2 1-2zm-111 2-1-1-1 1 1 1 1-1zm39 0v-1l-1 1v1l1-1zm40-2 1-3-1 1-2-1c-2-2-2-2-2 1 0 4 2 5 4 2zm-81-7c0-6-1-6-2 1 0 4 0 6 1 5l1-6zm19 2 1-10c0-5 0-5-2 3v12l1-5zm57-6c-1-1-3 8-2 10l2-4v-6zm-68-5c0-5 0-7-1-6l-1 5-2 5c-1 4 0 8 2 6 2-1 2-4 2-10zm4-7-1-13-1 16c0 12 0 14 1 13l1-16zm68 15-1-1v1l1 1v-1zm-5-24v-61c-2-31-2-31-3-1a614 614 0 0 0 2 79l1-17zm-32-5c-2-2-2-1-2 5l1 11c1 3 2 3 2-6l-1-10zm-69-4v2-2zm147 2-1-1-1 1 1 1 1-1zm-145-6-1 1v1l1-2zm109-10c-2-6-3-4-3 5v8l2-5 1-8zm-128 1-1-5-1 7c0 8 2 6 2-2zm159-10v-12l-1 8v19l1-15zm-99 12c0-4 0-5-1-3-1 1-1 8 1 8v-5zm-66 1v-7l-5 2-3 3 2 2c3 3 4 3 6 0zm61-3c0-4 0-4-1-2-1 3-1 6 1 6v-4zm35-5c-1-1-1 0-1 3s0 3 1 1v-4zm-87-9c-2-6-3-7-3-2l-1 4-1 3c0 2 0 2 1 0 2-2 2-2 2 0 1 2 1 3 2 1 2-1 2-2 0-6zm187-1v-2l-1 2v7-2l1-5zm-67 5-1-1h-1l1 1h1zm7-18c0-12-2-25-4-29v2a844 844 0 0 1 3 39l1-12zm-103-6c1-5 2-10 1-11l-2 3c-2 3-2 5-2 13 0 10 0 10 3-5zm160 6 1-9c0-3 0-3-2 2s-3 6-2 10l1 4 2-7zm-133 3c-2-2-7-4-7-2l8 5-1-3zm-37-42c3-23 4-38 3-42 0-8-3-20-6-23-2-2-2-3-1-5l2-2 1 3c1 4 1 4 3 2s2-2-1-7l-3-6c0-2 0-2 2 2 2 3 3 4 6 4 2 0 3 0 3-2 0-4-6-10-11-11-4-2-5-1-7 1l-5 2c-3 0-3 0-3 2 0 3 1 4 2 2 2-3 3 3 3 19 0 15 0 17-2 16l-1 3c0 3 0 4 1 2 2-2 2-2 2 5 0 6-1 7-1 5-1-2-2-2-2-1l-1 4-1 20v19l2-12c0-7 1-12 2-12l1-1-1-1c-1 0-2-5-1-9 2-4 5 11 5 21a275 275 0 0 0 2 19v-5l1 5 1 15c0 15 1 8 5-32zm-5-21 1-11 1 11-1 11-1-11zm-5-45v-5c0-2 0-3 2-3l2 1v1l-1 3c0 4-2 6-3 3zm154 98-1-6-1 6 1 6 1-6zm-106-3c0-6-1-6-2 1l1 4 1-5zm4-3c-1-2-1-2-1 1l1 5c0 3 0 3 1 0l-1-6zm136-18c0-3 0-3-1-2s-2 4-1 13v11-10l2-12zM79 429v-1l-1 1v1l1-1zm144-6c-1-5-3-7-3-2 0 2 2 9 3 8v-6zm23-12-1-5v9c0 10 0 10 1 6v-10zm-163 3c0-8 0-8-1-3v12l1-9zm62 7c2-3 1-4 0-2l-2 3 2-1zm-27-10v3c0 2 0 2 1 0l-1-3zm28 2-1-1-1 1v1l2-1zm77 0-1-1-1 1 1 1 1-1zm28-18-1-12v15c0 11 0 14 1 12v-15zm-199 2c-2-4-3-5-6-5s-3 0-2 1l3 4 2 3v4h3c2-2 2-2 0-7zm206 5-2-5c0-4 0-4-1-2-1 4 2 11 4 9l-1-2zm-216-5c-2-5-4-6-4-2 0 2 6 10 6 8l-2-6zm113 4c0-2-4-2-4-1v3c1 1 4 0 4-2zm-62-21c0-11 0-12-1-11-2 1-2 5-4 23v9l2-5c2-3 2-6 3-16zm55 17c0-2 0-2-1-1l-1 2c2 2 2 1 2-1zm16-4v-2l-3 5v2l3-5zm-130-2c-1-1-1-1-1 1s0 2 1 1v-2zm90-10c0-3 10-14 15-16l3-1 1 1c10-4 10-4 9-6h-14l-8 7c-5 3-6 5-6 7s-1 5-3 7c-4 6-4 7 0 4l3-3zm129-5c-2-3-2-1 0 4 1 4 1 4 1 1l-1-5zm-6-5v-2l-1 2v4l1 3v-7zm-160-1s-2 1-2 3h1c1-1 2-2 1-3zm130 2-1-1-1 1 1 1 1-1zm-59-5-1-1-2 1 2 1 1-1zm12 0v-1l-1 1v1l1-1zm79-11c-1-1-2 1-1 6l1 5v-11zm-82 8-1-1-1 1 1 1 1-1zm-72-2-1-1-1 1 1 1 1-1zm112 0h-2c-1 1-1 1 1 1s2 0 1-1zm-74-1-1-1h-1l1 1h1zm-47-4v-1l-1 1v1l1-1zm54 0c2-3 1-3-1-1l-1 2 2-1zm114-6c0-1 0-2-2-1s-2 2-1 4c1 3 1 3 2 1l1-4zm-159 2c0-2 0-2-1 0v3l1-3zm-2-9c0-6 0-6-2-5l-1 8c0 6 0 6 1 5s2-3 2-8zm31 6c0-2 0-2-1 0v3l1-3zm-5 0v-2l-1 2v1l1-1zm129-7-1 3c1 4 1 4 2 1l-1-4zm-115 2v-14l2-15c2-8 4-13 5-13l2-4c2-5 1-6-1-6s-3 1-3 4l-8 16-1-7-1-7-3 6-2 8v4l3 19 1 7 2 3c0 2 3 1 4-1zm-45-1c0-2 0-2-2-1l-1 2 1 1 2-2zm56 1c2-1 2-1 0-7l-1-14-1-13c-1-5-1-5-2-3-2 4-4 17-4 28v10h3l5-1zm33-5c1-5 1-7-1-9-3-6-6-20-3-16l1 4c0 3 1 3 3 3 3 0 3 0 4-5l1-10 1-4 10-16 8-11c2-1 3-5 4-8 2-7 3-9 3-3s-2 14-5 15c-2 1-9 10-12 17l-6 9c-3 5-3 11 0 17l4 12c-2 2-3 1-4-4l-3-5-2 5c-1 5 0 12 2 12 3 0 7-5 10-9 3-6 3-14 1-14l-3-6v-7l2 5 4 7c2 0 5-10 5-16l1-6 2 8 2 7-2 4c-2 3-4 8-2 8 1 0 8-11 8-13 0-1 0-2 2-1l7-3c2-3 4-4 4-3 0 2-1 3-8 9l-10 14c5-2 13-10 13-11l4-5 3-3v2l1 3c2 0 1-7-2-21-4-14-5-16-12-27-8-13-18-34-18-41l-1-4c-2-1-2-1-3 2l-2 6c-1 3-1 3 2 3 4-1 4 0 1 2-3 1-3 1-2 2h6l-5 3-9 3c-2 2-14 7-16 7-4 0-12 4-19 10l-11 8c-5 4-8 8-11 17-4 10-4 11 2 6 4-4 11-17 9-17v-2c2-1 10-3 11-2 0 1 3-1 5-5 1-4 7-7 9-5 2 1 2 0 2-2l2-2 3-1h4l7-5c6-3 9-3 13-3 7 0 8 2 7 9l-6 12-14 30-4 6-3 3-2-5-12-27c-2-1-3-1-7 1l-6 5c-2 3-3 7-2 7l1-3c0-4 2-1 3 6l1 5 3-8v7l2-2c2-2 2-2 3 3l5 14c4 11 5 11 5 7l1-4 2 7v8c-1 3-1 10 1 14l2 4-1-5 1-4 1 4 4 7 1-6zm1-27-1-3c0-3 0-2 1 0v3zm35-20-3-10c-2-2-2-6-1-8 1-1 1-1 1 2s1 4 3 4 2 0 2 8c0 9 0 9 2 8 3-2 3-1 2 3-2 5-3 3-6-7zm-31 6 2-3c2-2 2 0 0 3-2 2-2 2-2 0zm21-1c-2-2-3-7 0-10h2l1 12-3-2zm-4-34c0-4 1-5 2-7 2-2 2-2 2 1l-2 7-2 4v-5zm-36 79c0-2-2-1-3 1l1 1 2-2zm-13-1c0-2 1-2 3 0 2 1 2 1 2-11 0-13-1-20-4-23l-4-5c-1-1-1 1-1 11 1 21 2 30 3 30l1-2zm-26 0-1-1-1 1 2 1v-1zm120-5c0-1 0-2-1-1l-1 2 1 2 1-3zm-152-5c-1-2-2-1-2 2 0 2 0 2 1 1l1-3zm71-5-1-4c-2 1-2 0-2-3l-1-5c-1-2-1 8 1 16 1 5 3 2 3-4zm33 6v-1l-1 1v1l1-1zm-108-1v-2l-2 2v1l2-1zm36-3h-1l-1 1c1 1 2 1 2-1zm75-6c-1-3-3-1-3 2 0 2 0 2 2 1l1-3zm12 3v-1l-1 1v1l1-1zm4 0-1-1-1 1 1 1 1-1zm-127-2-1-2-1 2h2zm11-8v-2l-1 1c0 2 0 2 1 1zm-51-2-4-1c-2 0-3 0-1 1h5zm14 0-1-1-1 1c-1 1 0 1 1 1l1-1zm24 0-3-3c-2-3-3-3-13-3l-9 1c1 2 7 4 12 4l8 1h5zm148-3-1-2v3l2 2-1-3zm-134-4c0-2 0-2-1-1v4l1-3zm-15-3c1-4 2-4 4-1s4 3 4 0l-4-3c-6-3-8-3-9 0 0 3-3 4-4 2l2-5 2-4-9-4c-1 2 4 13 7 15 4 4 5 4 7 0zm-29 1v-1l-1 1v1l1-1zm10 0a109 109 0 0 0-20-31c-1-2-9-7-9-6a119 119 0 0 0 17 23c0 4 3 11 5 13 3 2 7 3 7 1zm7 0c1 0 0-5-2-9l-2-13c0-4 0-4 2-2l3 5 2 2-1-4-1-7-1-3 3 2 2 4 1 3c1 0 3 3 4 7 2 5 2 5 3 3 2-2 2-7 0-7l-9-18c-2-5-2-5-4-3l-3 2-1 3v4h-6c-4-1-5-1-5 1 1 2 0 2-3 2l-3 1c0 3 1 3 5 1 5-2 7-3 8-1l-2 1c-2 0-5 4-3 5a53 53 0 0 1 9 18c0 3 0 4 2 4l2-1zm61-6-2 1-1 4c0 2 3-3 3-5zm-11 0c1-3 1-3-1-2l-1 4c0 3 0 2 2-2zm111-3-2-1 3 5-1-4zm-56-6 3-8-5 6c-6 5-6 6-5 8 2 3 3 2 7-6zm-48-1-3 2-2 3 2-2 3-3zm8 2-1-2c-2 0-3 2-2 3 0 1 2 1 3-1zm38-12 3-11-4 2-5 3v9c0 5 0 8 1 7l5-10zm-9 4-1-3v4c1 3 1 2 1-1zm-78-1-2-1v1l2 2v-2zm49-2c2-2 2-3 0-2l-3 4c0 2 2 1 3-2zm45-8-1-2-2 3-2 6c-1 2-1 2 2-1 3-2 3-3 3-6zm-37-1 10-6 6-3 1-1c0-2-1-1-7 3l-11 7c-7 4-6 4 1 0zm-54-9-3-3v1l1 5 1 6c1 2 1 2 2-2l-1-7zm71 6c0-2-2-2-5-1-2 2-3 2-2 3 1 2 2 2 4 0l3-2zm28-3 3-10-1-4-8 8 2 1c2 0 3 1 1 5-2 2-2 6-1 6l4-6zm-104 1v2-2zm13 1c0-2 0-2-1-1l-1 2c1 1 2 1 2-1zm29 0c-1-3-5-4-5-1 0 2 1 3 3 3s2-1 2-2zm47-2c8-8 11-16 4-9l-9 6c-3 1-5 3-5 4-2 2 0 3 3 3s5-1 7-4zm51 2c0-2 0-2-1-1v2c1 1 1 1 1-1zm-42-3c-1-1-1-1-1 1s0 2 1 1v-2zm38 1-1-1c-1-1-1 0-1 1l1 1 1-1zm-88-3c3-1 9-7 7-7l-5-10 5 3 4 4 5-2c7-3 9-5 7-7l-3-2c-2 0-2-1-2-7 0-5 0-7-2-10l-3-6 6 9 9 12c1-1-4-18-6-21l-2-4c0-3-1-3-6 0s-5 4-3 8c4 7 2 12-9 21l-8 6c0 1 1 3 5 5l3 1-3-1-4-1c-2 0-4 9-2 10s4 1 7-1zm-1-11 2-1c1 0 2 0 1 1l-1 1-2-1zm16-12c0-3 1-4 2-3l-1 3-2 2zm-50 19c0-2-2-3-4-2v3c1 2 1 3 3 2l1-3zm12 2c0-2 0-2-1-1l-1 2c1 1 2 1 2-1zm-42-3 1-4c0-2 0-2-4 0a1922 1922 0 0 1-4 5c1 3 5 2 7-1zm145-5-1-3-1 3 1 3 1-3zm-28-1c1-1 1-1-3-1-2 0-4 0-3 1h6zm-57-6 3-2c3 0 8-5 10-10l3-5-3-5-5-6c-2-1-2 0-6 3-3 4-3 4-1 4s10 6 10 8-5 6-5 5c-1-2-9 7-9 9 0 3 2 2 3-1zm98-1h-1l1 1v-1zm-170 0h-3l1 1 2-1zm112-2-1-1-2 1 2 1 1-1zm8-2c2-3 3-7 5-26l1-15-4-11c-5-14-5-13-9-10-5 3-20 20-20 22l2 4 2 2v-3c0-5 2-3 5 4 2 4 3 5 6 5 4 0 4-2 0-7-2-2-3-3-3-7l1-8 1-3 3 4c3 4 5 3 3-2l-1-6c0-4 3-3 3 2 0 7 1 16 3 19l1 10-1 7-2-4-2-3v3l1 4v16c1 5 2 6 5 3zm37 0-1-1v2c1 1 1 1 1-1zm12 0h-1l1 1v-1zm-97-2 4-4c2-2 2-3 1-4-2-3-4-3-6 3l-2 6c0 1 2 1 3-1zm-55-5-1-5-1 5c0 5 0 6 1 5l1-5zm144-5-9-18-5-11-2-3c-2-2-2-2-2 1l8 21c1 3 2 4 2 2 1-1 2 1 6 9l5 9-3-10zm-35 2 3-6c2-6 3-12 1-15-2-2-3 0-4 9l-1 11v3l1-2zm-80-1-3-1c-2 0-3 1-1 2s3 0 4-1zm62-10 3-4-6-1c-5 0-6 1-4 5 1 2 2 2 7 0zm58-9v4l1-1-1-3zm-113-2-1 2c0 3 1 4 2 2l-1-4zm17 5h-3l1 1 2-1zm-71-3c0-2-2-3-5-3-4 0-4 0-2 3 2 2 7 2 7 0zm74-6a764 764 0 0 1 8-94l2-2v3l-1 10-1 8c2 4 4 3 4-1l1-8 2-5 3 8c3 9 3 10-1 4-2-4-2-4-2-2 0 4 5 12 8 14l3 2c-1 1-8-2-12-4-3-3-6-3-6-1l5 4 15 8v2c1 1 0 2-1 4-3 5-3 6-2 7 2 2 2 1 4-5l2-8-2-11c-3-17-4-20-6-19h-3c-2-2-2-2 0-4 1-2 1-2-1-4-1-2-5-3-11-5l-12-3c-3-2-10-2-12-1-1 1 0 7 4 14l2-5 3-6c1 0 2 4 2 9 1 8 1 8 3 1 2-4 2-4 2-1 0 4-2 10-5 14-2 4-2 5 1 7 2 1 3 7 1 6-3-1-6-7-6-11s-3-10-11-23c-7-12-8-13-12-13h-3l2 3 2 8 1 4c1 0 2 1 2 3 1 4 6 11 7 10 2 0 9 20 9 24 0 3 1 5 2 5l1-3 1-3 1 3 3 6c1 3 1 3-1 5-1 2-2 2-3 2l-1 2c-1 4-3 3-3-2v-6l-1-3a511 511 0 0 1-6 47c1 2 2 2 2 1l1-3c2-2 4 1 4 6l1 6c1 0 2 0 4-3s2-2 1 3c-1 1 0 2 1 2 5 3 5 2 5-6zm-11-12c-1-1 0-4 2-12l2-10v9c0 9-1 16-2 16l-2-3zm-6-1 1-2 2-1-2 3h-1zm3-12 1-6v8c-1 2-1 1-1-2zm39-46v-2l1 1c1 2 0 3-1 1zm-8 74c0-6-1-7-5-3-2 2-2 3-1 5s2 3 4 3 2-1 2-5zm-51-5-3-5c-1-2-1-2-1 0l2 8c0 5 0 6 1 4l1-7zm21 8c1-1 0-1-1-1l-2 1 2 1 1-1zm19-1 3-4c2-6 7-15 8-13l-1 3v2l5-6c3-6 11-13 17-15 2-1 3-1 3-3 0-3-6-19-7-19l-5 12-1 1-1 2c0 3 1 3 4 0l3-3c2 0 2 0 1 2-1 3-6 6-14 10-2 1-5 3-5 5l-4 2c-1 0-2 0-3 2s-1 3 2 1h1l-4 9c-6 11-6 16-2 12zm-34-1-1-1v1h1zm-46-4-15-7c-2 0-5 2-5 4l1 1 2-2c0-2 1-2 8 2 5 3 8 4 9 3v-1zm13 0c2-2 5-2 7-2 2-1 2-1 0-1-3-2-20-2-20 0l1 1 2 2c1 3 2 3 10 0zm-25 1-1-1-1 1 1 1 1-1zm70-3h-1c0 2 1 3 2 2l-1-2zm57-4c0-2-4-4-5-2l-1 3c1 2 2 2 4 1l2-2zm-96-3c0-3 0-3-2-1v3c2 2 2 2 2-2zm23-9c-9-11-9-11-9-7 0 3 1 4 8 11l9 8-8-12zm-46 9h-2c-1 1-1 2 1 2s2-1 1-2zm16 0c2-1 2-1 0-2l-6 1-4 2 4 1 6-2zm-22-1-1-1-1 1 1 1 1-1zm12-8-2-2c-3-2-10-2-10 0l4 3c5 2 8 2 8-1zm41-14-4-12c-2-4-7-5-7-1h1c2-1 2 3 0 5-2 3-2 4-1 6s12 14 13 13l-2-11zm42 6c3 3 6 0 6-4s-1-4-5-1l-2 2v-5l2-11c1-8 2-9 4-1 1 7 5 15 7 15s1-2-1-11-4-12-10-14c-4-2-5-2-6 3v19c1 14 2 14 3 10 1-3 1-3 2-2zm-32-7a40 40 0 0 0-5-22c-2 1-2 7-1 9l1 7c1 12 2 16 3 15 1 0 2-3 2-9zm-35 6-1-1h-1l1 2 1-1zm112-17c-2-12-6-27-7-25 0 2 7 38 8 37l-1-12zm2-11-5-11c0 3 3 16 7 27l3 7v-4c0-3-1-9-5-19zM42 165l-1-1h-1l1 1h1zm140-9c0-2 0-3-1-2s-2 2-1 4c2 2 2 2 2-2zm-94-4-1-6-1-2 3 4c2 5 4 6 4 1 0-2-1-3-4-5-2-2-3-3-4-2-2 3-3 13-1 15s4 0 4-5zm25 0c1-3-1-10-3-12-3-1-4 0-2 4l2 8c0 4 2 5 3 0zm42 1-1-1-1 2 1 1 1-2zm-84-4c0-6-3-11-6-11l-6-2c-6-4-11-5-14-3l-5 1c-2 0-1 2 5 6 9 7 11 8 18 8 5 0 6 1 6 3l1 2 1-4zm-16-9c-1-2 1-2 2 0l1 1-3-1zm26 11-3-9c-1 0-2-2-2-5-1-4-1-4-2-1-1 5 3 16 6 16l1-1zm94-1-2-2v3c1 2 3 1 2-1zm-73-4c0-3 0-5-2-5s-2 2-1 7l3 3v-5zm-55 1-1-1-1 1 1 1 1-1zm70-6c-1-2-1-3-2-2l1 3 1 2v-3zm62 1c0-2 0-3-1-2v3c1 2 1 2 1-1zm-39 1-1-1h-1l1 1h1zm28-6-2-5-1 4c0 4 2 8 4 6 1-1 1-1-1-5zm-85 2-1-1h-1l1 1h1zm23-2 3-1-2-2c-2-3-3-3-16-3-11 0-13 1-13 2 0 4 16 6 28 4zm-37-3c2-2 2-2-2-3l-7-1 2 2c5 4 5 4 7 2zm111-15-5-16-2 1a174 174 0 0 1 11 30l-4-15zm-114 8c0-2 1-2 3 0s2 2 2 0c0-3-6-18-7-19h-3c-2 1-3 1-5-1l-2-2 4 1 9 1c4 1 5 2 3 4-1 1-1 1 2 1s4 1 5 2c2 4 1 4-3 3-3-2-3-2-4-1s-1 2 2 4c3 3 3 3 2 4-3 2 0 3 6 4l5-1 4-8 4-6-3-2-8-5c-4-2-6-4-6-5 0-2 0-2-4 0-5 2-6 1-2-2 5-3 3-4-2-1l-8 3c-7 2-9 4-7 10l2 9c2 3 2 3 5 2 3-2 3-2 2 0v5c1 3 4 3 4 0zm16-9h2c1 1 1 1-1 1l-1-1zm-23-3c-2-2-2-2-1-3h4c2 2 2 3 1 4-2 1-2 1-4-1zm34 13c2-1 3-3 4-7l2-6c-2-1-5 2-6 4l-2 5c-4 6-4 7 2 4zm9-2c-2-3-4-4-4-1 0 2 2 4 4 4s2 0 0-3zm68-3c-1-4-2-3-1 1l1 3v-4zm-73-14c1-4 1-4-2-4-2 0-2 1-2 3 0 4 2 5 4 1zm73-1-1-2v2l2 2-1-2zm-84-6-2-4c-2-3-3-4-3 0l-1 3c-1 1 0 1 2 1h4zm96-2-1-5c-1-2-2-2-3 0v4c2 4 4 4 4 1zm-69-3v3c0 2 0 2 1 0l-1-3zm29 0-2-2v2l2 1v-1zm8 1-1-1h-1l1 1h1zm10-4c-3-3-17-10-18-10l20 14-2-4zm9 3-2-2c-2 0-2 0-1 2 2 2 3 2 3 0zm4-6-13-9c0 2 14 14 15 13l-2-4zm-11-3c-1-3-11-9-16-11-7-2-7-2-3 0l7 5 12 8v-2zm-65-3-1-1-1 1 1 1 1-1zm18 0-3-1c-2 1 0 2 2 2s2 0 1-1zm-11-4-6-2 8 4c2 0 1-1-2-2zm26 2-8-3 7 3h1zm-53-3h-2c-1 1-1 1 1 1s2 0 1-1zm13 0h-4c-2 1-2 1 2 1s4 0 2-1zm-35-3v-1l-1 1v1l1-1zm14 0-1-1-1 1 1 1 1-1zm11-1-1-1h-1l1 1h1zm11-2c-5-3-7-3-7-1 0 1 5 3 9 3 3 0 3 0-2-2zm93 0-1-3-1 2 1 3 1-2zM64 72l-2-1c-2 0-2 0-1 1h3zm65 0-2-1c-2 0-2 0-1 1h3zm48-6-2-1v2c2 1 3 1 2-1zm6-4-1-5-2-5c-3-3-4-2-1 3l3 9c1 3 2 4 2 2l-1-4zm-17-11c-8-6-10-8-15-10-3-2-4-2-3-3 3 0 2-2-2-3l-3 1c0 2 5 6 9 8l9 6c6 5 10 6 5 1zm-34 0-3-1v1l3 1h3zm43-8-2-2 1 3 2 2-1-3zm-32 0-2-1v1l1 1 1-1zm16-3c-3-2-4-2-5-1s-1 1 2 1l4 1 3 1-4-2zm-23-6c0-2-4-4-9-4-4 0-4 3 0 3l5 1h4zm-15-4-1-1h-1l1 1h1zm477 694c-1-1 6-4 9-4 2 0 2 1-1 3-2 2-7 3-8 1zm19 0c-2 0-1-1 0-1l2 1c-1 2-1 2-2 0zm-32-1v-1c1-1 1 0 1 1 0 2 0 2-1 0zm-360-2 2-4c2-1 2-1 1 1-2 4-3 5-3 3zm337-2 1-1 2 1-1 1-2-1zm48 0c-1-3 0-3 4-2s4 3 0 3l-4-1zm-433-4v-4l3 2c3 3 2 5-1 5-1 0-2 0-2-3zm44-1c-1-2-1-3 4-8 4-4 5-4 4-1l-6 10-2-1zm292 0c-3-3 1-4 4-1l3 2h-3l-4-1zm-277-5c5-5 11-9 13-9 0 1-4 5-15 12-3 2-2 2 2-3zm173 3-3-5c-2-3-2-3-2-1s0 2-2 1c-3-1-3-2-7-15l7-1h7l1 4 3 12c0 6 0 6-2 6l-2-1zm-266-4c0-5 2-11 3-10l1 1-1 7c0 3-1 4-2 4l-1-2zm42-2 2-3c1-2 1-2 5-1l3 3-10 1zm18-1 3-4c4-4 3-5-4-2-4 1-6 2-7 1l4-2 9-4c3-2 3-2 1 3-1 4-6 10-6 8zm-9-11 3-3 3-1-3 3c-2 2-3 3-3 1zm27-5 3-5 1-5 2-4 17-22 4-5 2-2 1-3c1-3-2-2-3 1s-1 3-2 1l13-22c7-10 12-24 12-29 0-2 1-3 2-3 1 1 2-1 3-4 4-10 4-11 7-12h1l-3 7-2 7c-1 1 0 1 1 1 2-1 3-1 2 1l-1 9c4 0-6 11-13 15-4 2-5 2-5 6l-1 4-5 11 3-3c3-3 3-3 3-1l-3 8-5 10-3 4 3-1 4-2c2-2 2 0-1 7l-5 10c0 3-2 4-2 4l-6 4-4 4 2-5 4-8c5-8-8 3-19 16l-7 7-2 2zm12-14c7-8 7-9 1-3l-7 6c0 2 3 1 6-3zm19-10c2-5 2-5-2-1l-2 4c1 2 2 1 4-3zm-6-5h-1l-1 2 2-2zm32-55c1-2 0-2-2-1v2l2-1zm-2 82c-2-3-2-3 0-3s2 1 2 3v3l-2-3zm-221-2c-1-2 1-3 2-2l1 2h-3zm9 1c-1-2 0-4 2-4l1 2c0 2-1 3-3 2zm22-1 1-1 1 1-1 1-1-1zm371-3-3-5c1 0 4 1 5 3l6 4 3 2h-3c-3 0-5-1-8-4zm-354 1 1-1 1 1-1 1-1-1zm268 0-5-1c-3 0-3 0-4-3-1-4-1-5 1-9s2-5 1-9c-2-5-2-13 0-13l2 1 3 1v1l-1 4 3 6c3 3 4 5 4 8 0 6 2 11 6 12 8 2 10-2 6-14-2-8-1-7 3 3l4 9-2 3c-2 2-3 2-11 2l-10-1zm-7-9c-1-1-1 0-1 1 1 2 1 2 2 1l-1-2zm-7 9-1-7a3848 3848 0 0 0 1 7zm-245-3 1-1 1 1c0 1-1 2-2 0zm6 0v-1c1-1 1 0 1 1s-1 2-1 0zm4 0c0-1 0-2 1-1v1c0 2-1 1-1 0zm9-4c0-2 2-4 4-3v3c-2 2-4 2-4 0zm-84-5c0-5 2-6 14-6 9 0 10 0 13-2 4-2 4-3 7-2 2 1 2 2-2 4l-6 2-3 2c-2 2-6 2-7 0s-2-1-7 0l-7 4c-2 1-2 1-2-2zm11 2 2-1v1l-1 1-1-1zm898-3-13-5a285 285 0 0 0-65-18l-4-1-7-1-5-2-3-1h-12l1-3-5-1c-9-1-12-2-11-3 1-2 10-1 19 1l14 3a1138 1138 0 0 1 97 30l1 3-7-2zm-828-2-2-2c1-1 4 0 6 3 2 2 0 1-4-1zm158-4 7-11c3-3 3-1 0 2a222 222 0 0 0-7 9zm143-4v-5l1 3c0 3 0 4-1 2zm-8-7-1-3 2 3c1 3 0 3-1 0zm244 1c-1-2 1-4 3-2 1 1 0 3-1 3l-2-1zm-364-1c0-2 4-7 6-7 1 0 1 1-2 5l-4 2zm321-1c-1-1 0-2 2-2l2 2c0 1-3 2-4 0zm15 0 3-1c4 0 2 2-2 2-2 0-2 0-1-1zm-214-4-4-13h1l2 8c3 5 3 8 1 5zm-105-3 13-11c2 2-3 7-7 10l-6 1zm454-1c-2-1 0-3 3-3l4 1c0 1-2 3-4 3l-3-1zm-115-2h1l1 1h-1l-1-1zm27 0 1-1 1 1-1 1-1-1zm74 0 1-1 1 1-2 1v-1zm75-2h1l1 1h-1l-1-1zm-417-2-4-11-3-11c-1-3-1-3 1-2s3 3 3 8l3 7c3 3 4 6 2 5v3c0 3 0 4-2 1zm289 1 1-1c1 1 0 1-1 1-1 1-1 1 0 0zm134 0v-1l1 1v1l-1-1zm-335-2v-2c1-1 1-1 1 1s0 3-1 1zm7 0c-1-2 1-4 2-2 2 1 1 3-1 3l-1-1zm273 0c-1-1 0-1 1-1l1 1-1 1-1-1zm-245-2c0-2 1-3 2-1l-1 3-1-2zm-270 0c-1-2-1-2 1-4s4 0 2 3c-1 2-1 2-3 1zm213 0c-1-2-1-2 1-5l5-4c3-2 3-2 4 0l-1 2-6 6c-1 2-2 2-3 1zm167 0h2c2 0 2 1 0 1l-2-1zm-324-4 2-6 2-4-1 5-2 6c-1 1-2 1-1-1zm7 1zm369 0 1-1 1 1-1 1-1-1zm93 0 1-1 1 1-1 1-1-1zm17 0c-7-1-16-4-16-5 0-2 8-1 11 0l7 2 9 2 4 2h-7l-8-1zm-190-2h1l1 1h-1l-1-1zm163 0 1-1v1l-1 1v-1zm-339-2-1-12v-9l1 5 1 11c1 7 1 9-1 5zm132-1 1-1 1 1-1 2-1-2zm124 1 1-1 1 1-1 1-1-1zm67 0 1-1 1 1-1 1c-1 0-2 0-1-1zm-252-1v-2c1-1 2 1 1 2h-1zm151 0 1-1v1l-1 1v-1zm-24-1 1-4c0-1 1-1 1 2l-1 3-1-1zm-29-1 1-1v1l-1 1v-1zm6 0c-2-1-2-3-1-3l4 2c2 2 1 3-3 1zm13 0 2-1 1 1-2 1-1-1zm25 0c-2-2-2-3 1-3s3 1 1 3h-2zm31 0 2-1c1 0 2 0 1 1l-1 1-2-1zm36 0 1-2c1-1 1-1 1 1s-1 3-2 1zm-180-2v-2c2-2 3-1 2 2h-2zm-403-1v-2l1 1c0 2-1 2-1 1zm263 0-2-4c-1-2-4-5-13-11l-12-9c-1-3 1-2 6 2 4 3 4 3 3 1l-2-3 3 2 7 4c3 2 3 2 1 3l1 1 10 13c1 2 0 3-2 1zm94 0c-1-1 1-2 2-2 1 1 1 3-1 3l-1-1zm-329-3 1-1 1 2c-1 1-2 1-2-1zm459 1 2-1c2 0 1 0 1 1l-1 1-2-1zm104 0c-2-1-2-1 0-1l10-2c9 0 9 0 9 2l-9 2-10-1zm-683-2c0-3 2-4 5-4h3l-3 2c-3 3-5 4-5 2zm186 0v-2l7-12c5-9 7-13 8-20l2-12c1-3 1-5-1-12l-3-9 5-5-1-13c-2-13-2-16 1-14 1 2 2 2 2-1l3-8 2-6 1 4 1 3v-3c0-4 1-4 3-2s2 1 3-3l2-8 2-4v9l1 9c2 1 2 5-1 14l-2 11c0 3 1 3 2 2 2-2 3-1 1 4l-3 6c0 3 0 3-1 2-2-2-2 0-3 8l-3 9c-2 2-3 5-3 7-1 3-1 3-2 1 0-2 0-2-1 1-1 5-6 19-8 21v2l-1 3-4 7c-2 6-8 13-9 11zm26-59c2-5 2-6-1-2-2 5-2 6-1 6l2-4zm-1-28-1-1-1 2 1 1 1-2zm-2-7v-1l-1 1v1l1-1zm2-5-1-1v1l1 1v-1zm332 99h4c1 1 1 1-1 1l-3-1zm48 0c-1-1-1-1 2-1l5 1h-7zm29 0 1-1 1 1-1 1-1-1zm24 0-8-2c-7-2-7-2-4-3h5l9 1c6 0 7 0 9 2l2 3h-6l-7-1zm17 0c-1-2 0-2 6-3 4-1 5-1 6 1l2 2h-14zm-239-1 1-2 1 1c0 2-1 2-2 1zm7-2 1-1v1l-1 1v-1zm-112-2v-1l2 3-2-2zm-339 0c-2-1-3-3-3-5v-3l1 3 6 3 4 2h-8zm17-1c0-4-2-5-7-5-4 0-4-2 1-7l6-10c2-6 6-12 8-12l1 3c0 2 0 2 1 1h2c1 1 1 2-1 4l-4 8-3 7-1 3v1l-1 6 5-2 3-3c-1-1-1-1 1-1s3 0 3 2l-2 2-7 2-5 3zm-1-9c1-1 0-1-2-1s-2 0-1 1c1 2 3 2 3 0zm25 10c-1-1-1-1 1-1 2-1 3 0 3 1h-4zm450-1c-3-4-2-4 2-2l5 2 2 1c-1 2-6 1-9-1zm45-1c0-2 5-8 6-7 2 1 1 5-2 8s-4 3-4-1zm39 2-3-1c-2 0-3 0-1-1h7c-1 1-2 3-3 2zm9 0c-1-1 0-3 3-3s3 0 1 2-3 2-4 1zm39-1c-1-2-1-2 6-2 10 1 11 3 1 4-5 0-6 0-7-2zm-572-1 1-1c1 0 2 0 1 1l-1 1-1-1zm385 0 3-1 4 1-3 1-4-1zm172 0h4c2 1 2 1-1 1l-3-1zm-483-3 5-1 4 1-4 1-5-1zm35 0v-1l1 1v1l-1-1zM0 606l2-1 3 1-2 1-3-1zm599-2c-2-2-4-2-7-2-4 0-5 0-3-1h6l6 1c2 0 3 0 2 2 0 3-2 3-4 0zm-521 0-1-2 3 1c2 2 0 3-2 1zm399-2 4-2c3 0 3 2 0 4-4 1-5 1-4-2zm-282 1c-1-1 1-3 4-5 1 0 1 1-1 2l-2 4-1-1zm62-1c1-5 2-7 3-7l-1 4c-2 5-3 6-2 3zm322 0 1-1 1 2c-1 1-2 1-2-1zm-414-1 5-1c2 0 2 0 1 1l-5 1c-3 0-3 0-1-1zm369-1 1-2 1 1-1 1h-1zm8 0-1-3 3-3c5-2 7-1 5 0-1 2 0 2 2 3 3 1 3 2 2 2-1 1-3 0-5-1-3-2-4-2-4 1l-2 1zm-366-1h3c3 1 2 1-1 1-2 0-3 0-2-1zm329-4c0-2 1-2 1-1v3c-1 1-1 1-1-2zm61 3c0-2 5-7 6-6l-3 3-3 3zm-316-2 4-5 3-4-3 6c-2 4-4 5-4 3zm238-2 1-1 1 1-1 1-1-1zm31-2c-2-2-2-2 1-4 2-2 6-3 8-1l-3 2c-2 0-3 1-3 3s-1 2-3 0zm-23 0c-1-1 0-3 2-4l2-3v3c0 4-3 6-4 4zm-35-3c-1-1 0-1 1-1l1 1-1 1-1-1zm75 0c-2-2-2-2 0-3l3-1 3 3c3 2 3 2-1 2l-5-1zm24-2v-1l2 2-2-1zm-372 0c3-4-1-5-6-3-3 1-3 1-5-1l-2-2h10l-3-3-4-5c-2-5-1-4 5 1 8 8 11 14 6 14-2 0-2 0-1-1zm360 0 1-1 1 1-1 1-1-1zm-385-1 3-8 5 2 3 1-3 3c-2 3-3 3-4 1h-2l-2 1zm-24-1 1-5c2-3 2-4 5-4h3l-1 3c-2 2-3 3-4 2l-1 1-1 2-2 1zm55-2-4-13-1 3c0 2 0 2-1 0-2-2 0-6 3-8 4-3 6-2 4 3-1 3-1 8 1 15l-1 2-1-2zm237-1v-5l2 7-2-2zm-301 0 2-1h1c-1 2-3 2-3 1zm334 0 2-1h1l-1 1h-2zm17-1 2-2v2l-2 2c-2 0-2 0 0-2zm9 0c0-4 3-8 5-8h3l-3 2c-2 2-2 2-1 3l1 3c-2 2-5 2-5 0zm55 1 1-1v1l-1 1v-1zm-421-1c-1-3 7-8 13-8 4 0 4 2-2 4l-7 3-4 1zm235 0c-1 0-2-8 0-8l5 8h-5zm144-1v-2h2l-1 2h-1zm49 0 1-1c2 1 2 2 0 2l-1-1zm-399-3c0-2 4-3 6-3l1 2c0 2-2 2-3 1h-4zm56-2c1-2 4-3 4-1l-2 2-2-1zm263 0 2-1 1 1h-3zm33-1c0-2 0-2 1-1v3l-1-2zm13 0 1-1v1l-1 2v-2zm11-1 1-2 1 2-1 3-1-3zm7 0 1-1 1 2c-1 1-2 1-2-1zm-104-5-6-8c-3-4-7-11-8-18a790 790 0 0 0 4 8l3 4c2 0 2 1 7 12 4 9 3 10 0 2zm-93 4 1-1 1 1-1 1-1-1zm-182-2 1-1v1l-1 1v-1zm46 0c-1-1 0-1 2-1l3 1-2 1-3-1zm-40-2 1-2 1 2-1 2-1-2zm-147 0 1-2c1-1 4 0 3 2h-4zm84 0 1-1 1 1-1 1-1-1zm355-1c-1-1-2-2-1-3 1 0 5 3 4 4l-3-1zm43-2c0-4 2-9 3-8l3 5c2 4 2 4 1 5l-5 2c-1 0-2-1-2-4zm-34 2 1-1 1 1-1 1-1-1zm-356-1c-5-2-9-4-9-6h1l5 1c4 0 7 1 7 4 0 2 0 2-4 1zm-49-1 1-1 1 1-1 1-1-1zm423 0v-6l1 2 1 4 1 1-3-1zm30 0 2-1 1 1-1 1-2-1zm-478-2c0-1 0-2 2-2l1 1c0 2-2 2-3 1zm453-1v-3l1 2 1 2-2-1zm-461-4c-1-2 2-4 3-4 2 1 2 5 0 5l-3-1zm216-8c0-10 1-22 3-22 0 0 0 17-2 25 0 4 0 4-1-3zm-144 5 2-1c1 0 2 0 1 1l-1 1-2-1zm-86-2 2-1v1l-2 1v-1zm184-1 3-3c2-2 2-2 5-1 3 2 5 4 3 4l-1-1c-1-2-4-1-7 1-2 1-3 2-3 0zm212-7c-3-9-3-11 1-2l3 9-4-7zm-306 4c-3-1-4-2-2-2l7 3-5-1zm81 1c-1-1 0-2 1-3 2-1 2-1 1 1 0 2-1 3-2 2zm183 0c-1-2-5-13-4-14l1 1 2 7c3 6 3 8 1 6zm-208-2 1-2v3c-1 1-1 0-1-1zm-124 0 2-1c1 1 1 2-1 2l-1-1zm6 0v-3c0-3 0-3 2-3s3 0 3 2c0 3-3 6-5 4zm150 0v-1l1 1v1l-1-1zm319 0-9-2c-1-1 9-1 34-1a1174 1174 0 0 0 34 1c-12 2-17 3-32 3l-27-1zm-109-8-1-7c1-2 5 6 5 9 0 5-2 4-4-2zm-241 3h1v1c-1 1-1 0-1-1zm-140 0c0-2 4-6 5-6l8-2c6-2 8-3 8-5l1-1v4c-1 3-2 3-8 5l-8 2-6 3zm231-2-1-6c0-4 1-4 1-3l1 6c0 4 0 5-1 3zm350 1h3l-1 1-2-1zm9-1h5-5zm13-1 11-1c4 0 4 0-2 1h-10 1zm16-2h2l-1 1-1-1zm-478-5 1-10 1-5v6l-1 10-1 4zm498 3h5-5zm22-2c16-2 81-4 117-4 14 0 22-1 35-3a672 672 0 0 1-116 8h-51zm-307-11c-4-14-6-27-4-27l1 2 1 5 6 24-1 1-3-5zm22 3 1-2 1 1-1 2-1-1zm458-2h3-3zm85-2c-6-3-26-5-45-3h-15l21-3 49 4-5 5-5-3zm-554 0v-3l1 1 1 3c-1 1-1 0-2-1zm-59-5v-3l1-2v4l-1 1zm-97-7 1-7c1-4 1-3 1 3l-1 7-1-3zm-98-5-1-22-1-18v-4l1-16c0-15 1-23 4-25a2773 2773 0 0 0-2 83l-1 7zm503 0 1-1 2 1-2 1-1-1zm18-3c2-5 3-6 5-5 1 1 0 2-2 5-4 4-4 4-3 0zm17 0v-2c1-1 1-2-2-4-2 0-3-1-3-2 2-1 8 3 7 5l2 2 3 2c1 1-6 1-7-1zm-270-3c-3-5-4-10-3-11h3c1 1 1 0 1-1 0-4 2 2 2 7 0 6-1 8-3 5zm233-1 2-1 2 1-2 1-2-1zm-330-4 1-9 2-8v7c0 7-2 13-3 10zm345 1c0-3 2-4 4-3l3 1-4 1-3 1zm30-2c2-2 11-2 11 0l-6 1-5-1zm-8-2-9-2c-5-1-8-2-10-4l-3-3 2 1c3 2 8 4 14 4 5 0 11 2 11 4h-5zm-621-5c0-2 1-2 3 0 1 0 1 1-1 1l-2-1zm276-3c2-3 3-3 2 1l-2 3v-4zm401 0-6-3-4-2c-2-2 3-3 6-1l7 3 5 4c2 3 2 3-1 3s-4-1-7-4zm15 2c0-2 2-4 3-3s1 2-1 4l-2-1zm-26-2c2-2 6-2 5 0l-3 1-2-1zm-11-6c-2-4-1-5 1-3l2 5c-1 2-1 2-3-2zm-310-2c0-2 0-3 1-2v3c-1 2-1 2-1-1zm343 0 3-1 1 1-2 2-2-2zm16 0h6-2l-4 1v-1zm-370-8v-2c2 2 2 5 1 5l-1-3zm-34-1 1-1v1l-1 1v-1zm401 0h2c1 1-1 1-2 1v-1zm-485-4c1-3 1-3 1 0l-1 2v-2zm132-4c-1-8-2-12 0-11l4 13c0 7-2 6-4-2zm351 5 2-9 3-6v10l3-2c3-3 4-3 2 1l-9 7-1-1zm-355-7c-2-9-3-16-1-14 1 3 4 20 3 21l-2-7zm-59 4 1-2c0-2 1-2 1 1s-1 3-2 1zm399-2 2-1v1l-1 1-1-1zm-466-6 2-18 1-11v11l-2 18-1 7zm11-6 1-17 1-5v8c1 7 1 8 2 5s2-4 2-1c0 1 0 4-2 6l-2 9-1 6c-1 2-1 1-1-11zm94 8v-4c0-2 0-2 1 0l1 5c-1 2-1 2-2-1zm368-1-3-4c0-1 4 1 5 4 2 3 0 4-2 0zm-717 1 1-1 1 1-1 1-1-1zm21-1 1-1v1l-1 1v-1zm608 0 2-2c6-3 10-10 7-11v-1h1c0 2 6 2 8 1s2-1 0-2h-3l3-2c3-1 3-2 1-2l-4-2c-1-1-2 0-4 2-3 5-5 3-2-1s3-4 1-6-1-4 2-4c2 0 2 0 1-1-2-2-1-4 1-4s4 4 3 5 0 2 2 2c3 1 3 2 2 4-2 2 1 4 6 4 4 0 9-3 9-6h1c1 1 1 3-2 6-1 2-3 3-5 3-3 0-6 1-8 4-1 2-2 2-5 3-4 0-5 0-5 2-1 4-3 6-7 8s-5 2-5 0zm53-3c-2-2 0-3 4-3s4 1 2 2-5 2-6 1zm-19-9 1-2c1-1 1 0 1 1 0 3-1 3-2 1zm52-2v-1l3-4c5-8 9-10 6-3-2 4-9 10-9 8zm10-1c1-4 3-5 3-1 0 2 0 3-2 3l-1-2zm-454 1c-1-2 0-9 2-11 1-2 1-2 1 0 1 3-2 12-3 11zm-263-2h3c1 1 1 1-1 1l-2-1zm368-8c0-4 0-5 1-3v6c-1 3-1 2-1-3zm-366 3 3-1c3 0 3 1 1 1-3 2-3 2-4 0zm6-5-1-4c1-1 6 5 5 6-1 2-2 1-4-2zm293 2 1-1 1 1-1 1-1-1zm-68-3c0-2 0-8 2-15l2-11v10l-1 12-2 4v3zm431-1-1-3c1-1 4 1 4 3 0 3-2 3-3 0zm45 0 1-1v1l-1 1v-1zm-60-2 3-1c0 2 0 2-3 3h-3zm51 1 1-2 1 2-1 1-1-1zm-341-2-1-6c0-5 1-4 3 3l1 4-3-1zm170-1c-5-5-2-6 3-2 3 3 3 3 2 4-3 1-3 0-5-2zm203 1 3-1c3 0 3 0 2 1-3 2-5 2-5 0zm-207 0-1-2h2v2h-1zm-11-2 3-1 2 1-2 1-3-1zm44 0h3l-3 1c-2 0-2 0 0-1zm4-2c-1-4-1-4 1-4s3 1 3 4c0 2-1 3-2 3l-2-3zm84 2v-3l3 1c1 1 0 1-1 2h-2zm-379-1c-1-3 2-25 4-26l2-3v3c0 5 0 5-1 4-1-2-1-1-2 7l-1 13c-1 4-1 4-2 2zm-14-2-1-4v-3l1 3 1 4h-1zm453 0 3-6c2 0 1 7-1 7l-2-1zm12 1h2-2c-1 0-1 0 0 0zm-181-4c0-4 0-4 1-2v4c-1 1-2 1-1-2zm-207 1 1-1 1 1-1 1-1-1zm257-1-2-2 3 2c4 1 4 2 3 2l-4-2zm27 1 1-2 1 2-1 1-1-1zm119 0 1-1v1l-1 1v-1zm-368-3v-4c1 0 3 4 2 6s-2 1-2-2zm236 0c-4-2-4-2-2-2 2-1 4-3 5-6l4-5 3-2 3-1-1 2-1 2-2 3-1 4c0 2-1 2-3 2l-2 1 2 1 4 2c1 1 0 1-2 1l-7-2zm146 1c5-2 7-1 4 0l-5 1h-3l4-1zm-645-5-1-4c-3 0-1-5 3-8l4-4-3 5c-2 3-3 5-2 6 2 1 6-3 8-7 0-2 1-2 1-1l-9 16-1-3zm240 2c-2-2-1-16 1-17l1 9-1 9-1-1zm270 0 1-1 1 1-1 1-1-1zm29 0h2c1 1 1 1-1 1l-1-1zm73 0c-1-1 6-9 7-7l-2 3-3 4h-2zm24 0v-1l1 1v1l-1-1zm-213-1-1-5c0-3 1-3 1-1l1 5c0 2 0 2-1 1zm94-1 4-2 2-2c1-2 2-4 4-4l-1 5c-3 4-3 4-7 4h-5l3-1zm102 1 4-3h4c0 2-2 3-5 3h-3zm-227-2-1-1c1-1 2 0 2 1 2 1 1 2-1 0zm159-3c5-3 6-4 8-3l3 1 1 1-2 1-8 2c-8 3-8 3-2-2zm-336 0c-2-3-2-8-1-8 2-1 4 5 4 8-1 3-1 3-3 0zm319 1h3l-3 1v-1zm-123-2h5l3 1h-5c-3 0-4 0-3-1zm51 0-1-6v-4l2 4 3 5c0 3-3 3-4 1zm29 0-2-7c0-5 0-6 2-6l3 5c3 7 3 9 0 9l-3-1zm23 0h1l1 1h-1l-1-1zm91 0h3c1 1 1 1-1 1-3 0-3 0-2-1zm-378-2c0-2 1-2 2-1s0 3-1 3l-1-2zm214-1c0-3 2-5 5-5l-1 7c-3 2-4 2-4-2zm-257 2 1-3c0-2 0-2 1 0l-1 3h-1zm247-1c-2-1-2-1 1-3 2-1 3-1 5 1l1 2c0 2-5 1-7 0zm110-1c0-1 0-3 2-3l2 2c2 1 2 1 0 2s-3 0-4-1zm-131-3 1-1 1 2-1 1-1-2zm63 1 1-1 2 1-2 1-1-1zm8-1c0-1 0-2 1-1v1c-1 2-1 1-1 0zm38-1-2-2c0-2 3-2 7 0l2 1-2 1h-5zm10-1c0-1 0-2 1-1l1 2-1 1-1-2zm-355-3 1-9c2-7 2-12 0-13-1 0-4-24-3-26l2-2c1 0 2 0 1 1v12l1 11 1-6c0-4 1-6 2-5v14c0 14-2 22-4 24-1 1-1 1-1-1zm279 0c0-2 1-2 2-1v2c-1 1-2 1-2-1zm-445-2c-2-3-1-9 2-12l2-2-1 7c0 9-1 11-3 7zm468 1h1l2 1h-2l-1-1zm-477-2 2-2v1c-1 2-2 3-2 1zm161-3-2-5 1-4 3-3v8l-1 8-1-4zm-14-3v-9c1-5 1-5 1 3 0 10 0 11-1 6zm558 1c-1-1 2-2 6 0l3 1h-4l-5-1zm2-8v-4l2 5-2-1zm-576-9a210 210 0 0 0 1-13c2 8 2 22 0 23l-1-10zm129 9-1-8v-5l2 4 1 7c-1 3-1 3-2 2zm369 0c-1-2-1-3 1-3l1 2c0 3 0 3-2 1zm41-2-1-2-2-4c-3-2-3-2-1-2l3 2 6 3 2 2c-3 2-5 2-7 1zm49-1c-4-2-6-5-5-5l9 5c2 3 0 3-4 0zm-562-3-2-8v-10c-2-6-3-20-2-19l2 8 3 14c2 5 2 6 1 12-1 5-1 5-2 3zm624 1c-2-2-1-2 0-1l2 1c0 2-1 1-2 0zm-92-4c-4-2-8-6-8-8v-2l1 2 6 4c4 2 5 3 4 4h-3zm103-2-5-2c-2-1-1-1 1-2 3 0 4 1 6 3 3 2 3 3-2 1zm-654-1 2-1v1l-1 1-1-1zm433 0 1-4 1-5c0-2 0-3 1-2 1 0 1 5-1 9-1 3-1 3-2 2zm-333-14 1-17 1 12-1 18-1-13zm350 12c-2-2 0-4 3-4l8-2c4-2 4-2 3 0-1 1-2 2-1 3l-5 2c-7 2-7 2-8 1zm173-1-8-3c-3 0-3 0-1-1s9 0 14 3c3 2 5 1 4 0-1-2 0-2 4-1 4 2 4 3 0 4-5 1-8 0-13-2zm-846-1 1-4c0-1 1-1 1 2 0 5-1 5-2 2zm256-1v-2 5-3zm79 2 1-1 1 1c0 1-1 2-2 0zm-84-2-3-14c-1-2 0-3 1-3s2 1 2 3l1 8c1 4 0 9-1 6zm458 0 1-1v1l-1 1v-1zm-67-3-5-3h1c4 0 8 2 8 4s-2 1-4-1zm243 1 2-1 1 1-1 1-2-1zm-543-5 1-8c1-4 1-3 1 4l-1 8-1-4zm370 2c3-5 3-5 5-3 1 3 0 5-4 5-2 0-2 0-1-2zm147 1 2-2h4l4 1 4 1c1 1-1 1-6 1l-8-1zm37-1c-8-1-12-3-10-5l3 1 8 1 7 1c2 0 2 4 1 4l-9-2zm-126-2c-1-1 3-1 8-1l9-1c-2-1-2-5-1-5l5 4 4 4h-12l-13-1zm-782-2c0-1 0-2 2-3 1-2 2-2 2-1l-2 4h-2zm17 0 1-1 1 1-1 1-1-1zm568-3c4-3 7-4 6-2l1 1c4 0-4 3-8 3h-4zm249 1 1-1 2 1-1 1-2-1zm21-1c-4-2-7-3-12-3-8 0-11-1-7-2 5-2 14-1 23 2l8 4c-1 2-7 1-12-1zm-489-4 1-4v6c-1 2-1 2-1-2zm514 2h7c5 1 5 1-2 1-6 0-7 0-5-1zm-301-1 2-2-1 2h-1zm-345-2-1-9c0-7-3-18-4-23l1-2 3 9c2 11 3 26 2 26l-1-1zm6-4v-4c1 0 1-7-1-11v-6c1-1 1-1 2 1l1 25-2-5zm6 1c-1-2-4-33-3-34s2 6 3 20v14zm530 0c-2-3-2-5-1-5s4 6 3 7l-2-2zm40-1-5-2 5-1 5-4c1-1 1-1 3 1 3 3 10 5 12 4h3c3 1-6 3-12 3l-11-1zm81 0h1l1 1h-1l-1-1zm-904-1 1-2c1 1 0 3-2 3l1-1zm901-2-15-2-14-1 6-1 12-1 14 5h-3zm-637-3v-1 2-1zm11-2-1-10c0-8 0-8 1-6s2 6 1 10c0 6 0 7-1 6zm-12-3c0-1 0-1 0 0v2-2zm19-11 1-14v24c-1 2-1-2-1-10zm551 10 1-1c3 0 3 1 1 1h-2zm-546-6c0-3 0-3 1-2v4c-1 1-1 1-1-2zm621-8-2-5 3 2c3 3 4 4 3 5s-2 0-4-2zm-24-1c-2-1-1-1 3-1 3 0 4 0 3 1l-3 1-3-1zm-613-7c-1-6-1-11 1-11l1 4 1 4 1-4 2-8 1-4c-1-1-1-1-1 1a511 511 0 0 0-7-38c1-1 3 2 3 7 1 8 2 7 6-6l2-9-2-9c-4-16-4-14-2-12 1 2 2 2 2 1a283 283 0 0 0 1-56c-2-1-2 2 0 8l2 5c-1 2-1 1-9-25l-6-24c0-6 1-5 4 3 3 10 4 10 4 1v-7l2 2c3 5-3-15-7-22l-5-10-1-3c2 2 2 2 0-2l-4-5-3-11c-2-7-3-9-4-9l-2-3c-1-4-9-15-10-15l-1 2c0 2 0 2-2-1-3-4-13-29-12-30l9 17c0 3 2 6 4 6 1-1 2 1 4 5l6 9c2 2 2 2-1-6l-6-12-5-10-3-6 3 3 5 9 5 9a448 448 0 0 1 23 44 122 122 0 0 1 13 38c1 2 1 2 4 0l7-5c5-3 8-12 8-23 0-9 0-9 8-28 3-6 5-11 5-14s0-6 2-8l3-6c0-3 2-8 4-8 3-1 3-1 3 1l1 3 1 2h2c3 0 3 0 1 2-2 4-10 28-9 30 1 3 3 0 5-11l3-10 1 4c1 3 2 5 1 7l-2 9a735 735 0 0 1-3 13c-1-3-1-3-2-1l-3 34c0 8-1 11-4 20l-3 7 1-3-2 2c-2 3-3 2-1-2l2-3 2-1v-5c4-30 5-45 4-45l-2 1c-2 2-3 8-1 9v5c2 2-2 22-5 22l-1-1h-1v2l2 1v4c-2 5-5 29-3 29l-1 8-4 22a425 425 0 0 1-33 122c-1 1-2-2-2-5zm6-30c0-2-1-2-2-1v2c1 1 2 1 2-1zm11-12c0-4 0-3-1 1-2 7-2 8 0 5 1-2 2-4 1-6zm-5-3v-2l-1 6c0 3 0 3 1 2v-6zm10-16 5-18c3-9 4-17 2-16-2 0-4 7-7 23a295 295 0 0 1-3 20l3-9zm-5-1c-1-2-2-1-2 1s0 2 1 1l1-2zm-6-17c0-4-1-4-2-1v4c1 3 2 2 2-3zm2-14-1-1-1 1 1 1 1-1zm17-12 1-7c-1-3-4 8-4 12 0 5 1 2 3-5zm-10-2c0-1-1-2-1 0-2 2-2 3 0 3l1-3zm-2-13-1-1-1 1 1 1 1-1zm0-9-2-5c-1-2-1-2-1 3v5c1 1 3-1 3-3zm-1-19-1-8-2-8v2l1 9v7c2 1 3 0 2-2zm-5-2c1-4-1-15-3-17l-2 2c-2 3-1 5 1 11l3 7 1-3zm14-16v-12c2-2 1-4-1-4l-4 10h2c2-2 2-2 1 1l-2 10c-3 8-3 8 1 5 2-3 3-5 3-10zm-6 2-1-1-1 1 1 1 1-1zm20-8c0-4-1-3-2 2v2l2-4zm-7-4h-1c0 1 1 3 2 2l-1-2zm11-28h-1l-1 3c0 2 0 2 1 0l1-3zm-43-2c-1-3-2-4-2-2l1 3c3 3 3 3 1-1zm-2-6-1-1h-1l1 1h1zm43-6c0-2-1-2-1-1-2 2-2 3 0 3l1-2zm12-8c0-2-1-2-1-1l-1 2c1 2 2 1 2-1zm5-8-1-1-1 1 1 1 1-1zM256 289l1-11 2 8c2 7 2 8 1 9l-2 3-1 3-1-12zm56 6 2-4 6-21 6-20-2 16a306 306 0 0 0-7 33l-2-1c-1-2-1-2-2 0-1 1-1 1-1-3zm66 0 1-4c0-2 2-1 2 1 1 2-1 6-2 6l-1-3zm540 1h12c2 2 1 2-7 2-9 0-9 0-5-2zm19 1-4-2c-2-1-3-2-3-4v-2l3 2 7 2c2 0 4 0 3 1l-6 3zm14-2c-2-2-2-2 1-3 2-1 10-1 10 1l-3 1-5 1h-3zm-556-5c-1-2 1-17 4-22l3-3c1 1 1 3-1 6-2 2-2 4-2 9 0 10-1 13-4 10zm-101-5c-1-2-8-25-7-28l2 5 3 6 1-8c0-6 0-7 1-6s2 6 1 17c0 12 0 15-1 14zm59-6 4-5-2 5-3 5 1-5zm-111-14c-5-15-6-21-1-12 2 4 6 23 5 24l-4-12zm119 8 1-4c1-1 1-1 1 1l-1 4c-1 1-1 1-1-1zm607-1c-5-3-6-5-1-4 7 1 8 1 10 4 1 2 1 2-2 2l-7-2zm-706 0v-2c1-1 1-1 1 1s0 2-1 1zm82 0c0-1 2-4 3-3s0 4-1 4l-2-1zm568-3-6-2c-1 1-3 0-4-1-2-1-2-1 4-1s6 0 3-2h-17l4-2 5-2h2l4 1c6 0 8 1 8 5v4h7l11 1c3 2 3 2-7 2s-11 0-14-3zM9 270l5-4h8c2 1 2 1-2 1l-7 2c-3 2-5 2-4 1zm888 0 1-1 2 1-2 1-1-1zm-541-2v-8c1-5 0-5-3-3-3 3-4 1-4-5 0-4 0-7 2-9 2-3 2-9 1-9-4 0 3-12 11-20l7-7 3 2c1 1 2 2 3 1l2-4 2-2-1 3c0 3 0 4 2 4 3 1 0 3-5 3l-7 1c-4 1-4 2-7 8-5 10-5 15-2 22 3 5 4 6 10 7 2 1 3 0 5-2l3-1c1 1 4-1 4-4h-2l4-7 3-6c0-3-3-1-5 2s-3 4-5 4-2-1-1-3l1-6 1-4c2-1 2-1 4 1l3 2v-12l2 3c2 5 3 15 0 29-1 8-2 10-2 7-1-5-3-5-5 1s-3 8-3 5c0-2-3-2-7 1l-2 2v-3c0-3 0-3-1-2l-3 1c-3 0-6 4-6 7l-1 3zm21-14-1-1-1 1 1 1 1-1zm-23-5v-1l-1 1v1l1-1zm27-21v-1l-1 2c0 1 1 1 1-1zm-123 32-5-16 3 9c3 7 4 10 2 7zm679-2-15-1c-12 0-15-2-5-3 21-2 20-2 22 1 5 4 3 6-2 3zm46-1-3-2h4c2 0 3 0 2-1l-1-4c0-2 0-2 2-1l7 3c5 1 5 4 0 5l-5 1c-2 2-4 2-6-1zm-299-1c0-2 4-3 6-3 2 1 2 1 0 2-3 2-6 2-6 1zm-668-2 3-1c3 0 3 0 1 1h-4zm928 0 2-1 6-2h6l3 1-2 1c-3 2-15 2-15 1zm-921-3-5-3c-4-3-4-3-1-3l14 5-1 2-1-1c1-1 0-1-1-1l-2 1-2 2-1-2zm668 0 2-1c1 0 2 0 1 1l-1 1-2-1zm33-1c4-3 6-2 4 0l-5 2h-4l5-2zm-387 0 1-22c0-2 0-3-2-3l-2 1 2-7c2-5 2-6 3-4 0 2 0 2 1-1l1-10 4-18c2-7 4-14 4-20l2-12 1 3c1 4 0 7-1 13a567 567 0 0 0-5 46l2-1a117 117 0 0 1-7 28l-3 5c0 3 0 3-1 2zm6-26h-1l-1 2c0 2 0 2 1 1l1-3zm26 25 1-1c1 0 2 0 1 1l-1 1-1-1zm30-2a814 814 0 0 0 7-30l-2 21-1 10h-3c-1 1-1 1-1-1zm-69-4 1-2c0-1 1-1 1 1l-1 3-1-2zm361 1-4-1c-3 0-3 0 0-1 3-2 10-1 10 1l-4 2-2-1zm-395-4v-11l1 4 2 6c0 2-2 4-3 1zm-47-6-1-6 2 5c2 8 1 8-1 1zm117 4-1-2c0-1 1-1 2 1 2 3 2 3-1 1zm-82-13-3-14c1 0 3 5 5 13 5 14 5 14 3 14 0 0-3-5-5-13zm712 11-1-3c0-1 1-1 3 2 3 3 2 4-2 1zm-19-5-4-6c-1-2 0-2 1 0l8 10c0 2-2 0-5-4zm-951 2c-2-1-2-2 0-1l3 1v1c-1 1-2 1-3-1zm343 0v-4c1-2 1-2 1 0l1 2 2 2c0 2-1 2-4 0zm579-2-5-1 6-1c7-1 10 0 7 2-2 2-2 2-8 0zm-693-3v-6c1-4 1-3 1 2 0 7 0 8-1 4zm510-1 3-3 3-2-3 3c-2 3-3 3-3 2zm12-1c0-2 6-8 7-7s-1 4-4 7c-3 2-3 2-3 0zm-413-1c-2-2 4-8 8-8s4 1 0 2-5 4-3 3l2 2c0 2-5 2-7 1zm590 0c0-2 12-5 12-3l-9 3h-3zm-250-3c0-2 0-3 3 0 2 2 2 2 0 2l-3-2zm30-2-4-1-9-2c-4-2-5-2-4-3 2-1 5 0 8 1 2 1 2 0 2-1 0-3 0-3 4 1l8 5h4l-4 1-5-1zm191-2 2-1c4 0 15-4 15-5s4-3 9-4h4l-5 2-5 4-2 3-11 2-7-1zm25 0 5-1 10-2 6-2-5 3c-4 2-7 3-11 3l-5-1zm-46-2c2-3 10-9 15-10l7-3c5-2 6-2 4 1-2 2-2 2 3 1h4l-3 2-10 2c-7 0-13 2-18 7-2 2-3 2-2 0zm-610-2-1-4v-3l2 3 2 4c0 2-2 2-3 0zm322 0c0-3 4-5 8-5l2-2c1-2 9-5 12-5 2 0 2 0-2 2l-6 3-2 1-6 4-6 2zm202-2c-1-4 1-10 4-10v1c-1 3-1 5 1 8 2 2 2 2-1 3-4 2-3 2-4-2zm-467 0 7-18-6 19c-1 1-1 0-1-1zm387 1c-2-2 0-6 3-8l4 1c3 1 3 1 7-2 4-5 6-4 2 1-2 3-3 4-8 4s-6 1-7 2l-1 2zm30-2c2-2 3-2 7-2s4 0 3 1l-7 2-5 2zm19 2c-1-1 0-1 1-1l1 1-1 1-1-1zm-698-3v-1l1 1-1 2v-2zm893 0v-3c1-1 6 2 5 4-1 1-4 1-5-1zm-624-2 2-3c2-2 2-2 1 0v3l-2 1-1-1zm473 0 5-8c4-8 6-7 2 1-2 5-7 9-7 7zm12-2 2-1h1l-3 1zm118 0 5-1c3 0 3 0 2 1l-5 1-2-1zm-84-2 1-3c1-2-2-2-3 0l-2 1s1-3 4-5c5-5 8-7 9-4l-2 2-3 2 1 1 4 1 4 1-6 2-6 3c-2 1-2 1-1-1zm-540 0 1-2 1-1-1 3h-1zm-251-1 1-1 1 1-1 1-1-1zm711-1 1-2v4l-1-2zm66 1 1-4 3-7c2-4 9-13 9-10a148 148 0 0 0-10 18c-2 4-2 4-3 3zm38-3c2-4 8-6 13-5 2 1 2 1-1 2-4 0-6 2-4 3 1 2 0 2-5 3l-5 1zm-174 1 1-3 1 2-1 3-1-2zm218 0c3-2 9-2 9 0l-6 1-3-1zm-564-1c-2-1-1-8 0-8l1 4c0 5 0 5-1 4zm-143-3c-3-5-4-6-10-22-8-21-6-20 6 6l7 18-3-2zm590 0 2-3c1 1-2 6-3 6l1-3zm96 1v-2c-2-1-1-2 1-2 4 0 7 1 7 4 0 1-1 2-5 2s-4-1-3-2zm-843-7v-7l1 6 1 7c-1 1-1-2-2-6zm171 6-4-12a378 378 0 0 0-19-50c-3-18-1-15 5 6l8 22a213 213 0 0 1 10 34zm113-3c1-6 0-11-1-10-2 1-1-6 4-26 2-9 5-17 6-17v10c1 1 0 4-3 13-4 14-4 14-2 14l1-2 1-1 5-9 2-5c0 5-1 5-7 18l-4 11-1 6c-1 2-1 1-1-2zm456 1c-2-3-2-4 1-5l2-2 2-1c2 0 2 0 0 5l-3 5-2-2zm-520-2v-5c1-2 1-1 2 3 0 5-1 6-2 2zm-76-2-7-20c0-2 1-2 2 1l9 22c0 2-1 0-4-3zm668 2 5-1c2 0 2 0 0 1-1 1-3 2-5 1h-3l3-1zm-604-2-3-5c-2-2-2-5-2-8v-4l2 5c2 4 4 14 3 14v-2zm645-2 5-1h2l-2 1h-8zm-47-2c0-2 0-2 2-2s2 0 0 2l-2 2v-2zm21 0c2-2 11-4 11-3s-5 4-8 4l-3-1zm-12-1c0-1 5-4 6-3l-2 2-4 1zm-516-4 1-4c1-2 1-1 1 2 0 4-1 5-2 2zm335-1 1-1 1 1-1 2-1-2zm7 0h1l1 1-1 1-1-2zm-32-4-1-3 5-1c3 0 7-1 9-3 4-2 5-2 3 1-1 3-6 5-11 5l-4 1h-1zm-272-4c0-5 1-9 3-9 1 0 0 8-2 11-1 2-1 1-1-2zm145 3c0-2 8-9 10-9s1 2-2 4l-2 1-2 3c-3 2-4 2-4 1zm36-5c-7-6-6-8 2-3 4 2 5 3 6 5v4l-8-6zm-22 2 2-1c1 1-2 4-3 4l1-3zm41 1 2-1 1 1-2 1-1-1zm37-1-3-4c0-2-2-3-3-3-1-1-2-1 0 1 2 3-2 3-5 1l-4-3 2-2c6-3 8-5 7-6l-3-2c-2 0-2 0 0-1l6-1 7 1c1 1 1 1-1 1-4 0-6 3-4 6l1 5c0 2 1 4 3 4 2 2 3 2 7 0 8-3 14-3 17-1l3 1h-6c-4 0-5 1-5 2 1 2-1 3-4 1h-15zm-634-2 1-2 1 1c0 3-1 3-2 1zm393-1c0-1 3-7 4-6l-3 6h-1zm219-2 1-6 2-5-4-5c-4-7-2-7 3-2 5 6 6 9 3 12l-2 5c0 3-2 4-3 1zm83 1-1-2h1l1 2h-1zm-514-8c-3-5-8-20-7-21a83 83 0 0 1 11 27l-4-6zm415 5h7c1 1-1 1-4 1-4 0-4 0-3-1zm118 0c-1-1-1-3 1-3l1 2c0 3 0 3-2 1zm-123-2 2-1v1l-2 1v-1zm-227-1 1-4v-5c-2 1-1-4 1-8l2-4c1-3 4-7 4-5l-7 27-1-1zm-131-4c1-3 1-3 2-1 2 2 2 4 0 4-1 0-2-1-2-3zm499 2 2-1 2 1-2 1c-2 0-3 0-2-1zm-170-2h8l-5 1c-4 0-5 0-3-1zm45 0h3c1 1 1 1-1 1l-2-1zm61-1c0-3 1-3 3-1 1 1 1 2-1 2-2 1-2 1-2-1zm34 1 2-1 2 1-1 1-3-1zm16 0c0-1 4-3 5-2l-1 2c-3 2-4 2-4 0zm-395-1 1-6 1-4v4l-1 6c-1 2-1 2-1 0zm75-1 5-25 5-6c2-6 5-7 4-3l-14 34zm202 0-3-3-5-5c-1-2-1-3 1-3l3 2c1 2 4 3 7 3l4 1-4 3-3 2zm-331-3v-1 3-2zm-273 0-3-1-4-1h10c2 1 2 2-2 3l-1-1zm190 1-1-2-2-5c-3-5-11-23-10-25l13 27v5zm132-2 1-3v1c0 4-1 6-1 2zm352-1h3c1 1 1 1-1 1l-2-1zm17 0c-1 0-1-1 0 0h5c2 1 2 1-1 1l-4-1zm-209-1 3-3 2 1-3 2c-3 2-3 2-2 0zm180 0c-3-1-3-3 0-3l3 2c1 3 0 3-3 1zm-39-4 2-1 2 1c1 1 0 1-2 1l-2-1zm86-1c-2-3-1-3 4-1l4 1-3 1c-4 2-4 2-5-1zm12 1 1-1 2 1-2 1-1-1zm-71-1 2-3c1-3 6-7 10-7s4 0 3 6l-14 4h-1zm32-1c4-2 5-2 7 0 1 1 0 1-4 1-6 0-6 0-3-1zm-38-1c-2 0-4-3-3-4l4 2c3 3 3 4-1 2zm101 0 1-1 2 1-2 1-1-1zm-410-2v-3l5-12c3-9 3-10 4-6l-3 12c-3 10-4 11-6 9zm107-3-2-7c0-3-2-3-4-1v-8c2-2 2-1 5 9l4 11-3-4zm165 3c-4-3-6-5-3-4 4 2 8 2 12 0l8-2c6 0 6 1 4 2v2l-7 2-9 1-5-1zm117 0 3-1 2 1-2 1-3-1zm-257 0c-1-1 3-8 4-7l-3 7h-1zm-71-6c1-8 4-17 7-20 2-3 3-3 3-1l-1 4-4 11-4 11c-1 1-1 0-1-5zm-151 0v-1c2 3 2 3 0 3v-2zm386 1 1-1v1l-1 1v-1zm-440-2 1-1 1 1-1 1-1-1zm447 1c-2-1 0-3 3-3l5 2c1 1 0 1-3 1h-5zm55-1h11c2 1 0 1-4 1l-7-1zm-219-1-1-3c0-1 1-2 3-2 4 0 5 1 2 4-3 2-3 2-4 1zm139-1c1-2 6-2 6 0 1 1 0 1-3 1-4 0-4 0-3-1zm69 0 2-1h1l-2 2-1-1zm45 0c3-2 4-2 4-1l-4 2v-1zm-718-3-1-3-2-5-1-4c2-1 6 5 6 8l2 3 2 2h-3l-3-1zm217 1-1-5c0-3 1-4 3-3l1 4c-1 3-2 5-3 4zm427-1 1-2c1-1 1 0 1 1 0 3-1 3-2 1zm95 0c-1-1 1-3 3-3s2 2 0 3c-2 2-3 2-3 0zm-264-2c0-1 4-2 5-1v1c-1 2-5 2-5 0zm180 1c-1-1 1-2 4-3l5-3-4-1c-5-2-6-3-4-5l2-4 2-1c1 0 2 1 2 3l2 4 3 1-2 5c-2 4-3 4-6 4h-4zm-667-4 3-1c3 0 3 1 2 1-2 2-6 2-5 0zm624 0v-2l1 1v2l-1-1zm58 0 3-3c3-2 4-1 1 2-2 2-4 3-4 1zm54 1 6-3c3-2 6-3 7-2 3 1 1 2-4 3l-7 2h-2zm-250-3c-1 0-1-1 1-1l3-1 3-2-2 3c-2 3-3 3-5 1zm103 0h2c1 1 1 1-1 1l-1-1zm66 0c-2-1-3-5-1-5h2c1-1 2 0 2 1 0 2 0 2 2 2l4 2c1 1 1 1-3 1l-6-1zm-373-1-2-4v-4c2 0 4 3 3 6 0 3 0 3-1 2zm-93-8-1-9 2 8 2 9-3-8zm308 7 1-1v1l-1 1v-1zm-16-4 1-3h2c2-1 2 1-1 3l-2 3v-3zm218 1h3l-2 1c-2 0-2 0-1-1zm-229-1c5-10 4-10 9-10l7-1h4c2 0-6 4-10 4-3 0-4 1-6 4-3 4-5 6-4 3zm215-1 4-1c3 0 3 1 2 1-2 2-6 2-6 0zm47 0h1l1 1h-1l-1-1zm-718-3c0-5 0-5 3-3 2 1 2 1-1 4l-2 3zm422 2v-3c-1-1 0-1 0 0 2 3 2 4 1 4l-1-1zm243 0c-1-3 0-4 1-2l2 3-3-1zm-337-3c0-2 0-2 1-1v3c-1 1-1 0-1-2zM216 93a406 406 0 0 0-3-20l9 28c2 8 2 9 0 8l-2 1c-1 1-2-5-4-17zm155 15 2-6 1-3v2l-1 8c0 2-1 3-2 3v-4zm222 0c-3-3-1-4 3 0 3 2 3 2 1 2l-4-2zm-124 0 1-1 1 1-1 1-1-1zm114 0 3-1 2 1c-2 2-4 2-5 0zm-76-2h3l-2 1c-2 0-2 0-1-1zm96 0h2c1 1 1 1-1 1l-1-1zm-170-1 5-13a125 125 0 0 0 5-16c2-2 1 3-4 16-5 14-6 16-6 13zm-184-4c-2-6-8-16-13-23-5-6-5-7 0-3 4 4 16 26 15 29l-2-3zm189 3 4-8-3 9-1-1zm96 0 1-1v2l-1-1zm-255-3-5-11c-4-9-3-9 4 2 5 6 5 9 4 11-1 1-2 1-3-2zm82 2 1-3c2-2 2-2 1 1 0 2-2 4-2 2zm134-2 5-1c5 0 5 0 6-2s2-3 3-2c2 0 2 4 0 5s-14 2-14 0zm177 0c0-3 8-11 12-12l5-4c2-1 3-2 4-1l-5 6-3 2c0 2-2 3-3 3-2 0-4 2-6 4l-4 2zm-472-2 1-5c1-2 1-1 1 2-1 6-1 6-2 3zm368-1c2-3 4-5 8-6 3-1 2 0-2 4-6 6-9 7-6 2zm95 1c-3-1-3-2-2-3l3-1c2 0 3 1 3 3v2l-4-1zm24-2 2-1 1 1-2 1-1-1zm-321-3 2-4 1-1-2 4-1 1zm110 0 7-2 8-3 6-3c3 0 3 0 3-5l1-7c1-1 1 0 1 2 0 5 3 14 4 16 1 1 1 1-1 1l-3-1-4-2c-2-2-3-2-8 2-5 2-7 3-11 3-3 0-4 0-3-1zm157 0c-2-1-3-2-1-2h4c1 1 3 1 7-1 5-3 7-3 7-1l-6 3c-6 3-7 3-11 1zm-258-1 2-6a3402 3402 0 0 0-2 6zm157 0 2-1h1l-3 1zm70-2 1-4c2-1-1-4-5-4-5 0-11-2-14-4l-2-3h4l13 3c10 2 14 2 17-1 2-1 3-1 3 1l-1 2-6 3c-5 2-6 3-7 5-1 4-3 5-3 2zm114 1c-1-1 0-2 1-3l4 1c1 1 0 1-1 2h-4zm-97-3 1-1 2 1-1 1-2-1zm-234-2 2-6 2-7 3-3v3l-4 9c-2 4-3 6-3 4zm87-4 5-5 1 3c0 2 1 3 5 5l5 2h-21zm58 4v-5l1-6c0-3 3-5 4-3v12c1 1 1 1-1 2h-4zm133 0c-4-1-4-4-1-4l5 2 2 2-2 1-4-1zm40 0c-2-1-2-1-1-2 3-1 3 0 3 2h-2zm-58-2c-1-1 1-2 2-1v2l-2-1zm-277-3c0-2 0-3 1-2v3c-1 1-1 1-1-1zm125-1c0-2-1-3-5-5-5-2-6-5-3-5s10 7 10 10l-1 2-1-2zm72 0c0-2 1-2 2-1v2c-1 1-2 1-2-1zm107 1c0-2 2-4 5-4 1 1 1 1-2 3-2 2-3 2-3 1zm-150-2h4c2 1 1 1-1 1l-3-1zm108 0-4-2-4-2c-2-2-2-2 1-2s8 3 10 5 2 2 0 2l-3-1zm23-1 1-1 2 1-1 1-2-1zm-294-5 2-7c2-5 2-2 0 5-2 6-2 6-2 2zm213 3c-1-1 0-3 2-3v2c0 2-1 3-2 1zm97 0c0-1 4-4 6-4l-2 3c-3 2-4 3-4 1zm13 1 3-3 3-3v3c0 3 0 3-3 3h-3zm-49-6c1-1 8-3 9-2 2 1 1 1-3 2h-6zm-260-3 2-5 1-1-1 4c0 4-2 5-2 2zm206 1h2l1 1h-1l-2-1zm-308-9c-2-3-2-4-1-4s4 5 3 6l-2-2zm-26-6-5-11-4-12c-6-9-10-23-7-23l5 10a2447 2447 0 0 0 11 36zm141 3c-2-1-1-4 0-4 2-1 3 1 2 3s-1 2-2 1zM219 45l-1-7v-4l4 6c3 6 3 7 2 8-3 2-3 1-5-3zm30-17zm-1 16-2-5c0-2 0-2 2 2 3 6 3 8 0 3zm115 1 1-1v1c0 1-1 2-1 0zm-134-4c-1-5-1-6 1-1 3 5 3 5 1 5l-2-4zm-115-4-6-2h6c4 0 6 0 7 2 3 3 2 3-7 0zm-10 0h2l-2 1v-1zm264-1 1-2v3c-1 1-1 1-1-1zM94 36l-7-2c-1-2 5-1 10 1 6 2 5 2-3 1zm130-7c-4-6-10-23-9-24l3 7 10 23-4-6zm20-27c0-2 1-3 3-1s2 3-1 3l-2-2z"/>
</svg>
