<?xml version="1.0" encoding="utf-8"?>
<svg xmlns="http://www.w3.org/2000/svg" version="1.1" viewBox="0 0 1000 447">
	<title>Sketch looking down into a valley, with two hills into the distance to the left and right. A small tree is in the foreground to the far left, and a distant church steeple rises out of the left center of the valley.</title>
	<path d="M544 446v-1h4v-3l1-2 3-3 1 2v3c0 2-5 5-7 5h-2zm-5-1v-1h1l2 1h1-2zm4-8v-1l1-2 1 1-1 4zm-25-2v-4h-1l-3 2c-2 1-4 2-6 0l-2-1 2-1 1-2 1 1h3l1-1v-3h4v-2l-1-1 3-1 3-1v4l-2 2-1 1 1 2 2 2-4 4zm19-2v-3h1l2 1v2l1 2h-4zm-36-2-1-1 1-2h-1l-1 2v1l-4-1-5-3v-1l6 1h1l2-1h2l2 2 2 3v1h-1a6 6 0 0 1-3-1zm29-1c-1-3-1-3 1-3h2v1c1 1 0 3-1 3l-2-1zm-55-7-8-2h-1l4-2h5l6-1h2v7h-1zm34-1 1-2v-2l2-2 1-1 1 2v3h-2v1c-1 2-3 2-3 1zm-49-3 3-1 2-1v3h-6zm-21-2-3-2c0-1 5-2 9-1h4l1 1v2h-11zm66-2v-2h5l-3 3-2-1zM6 412H5l4-1h3v3l-2-1a21 21 0 0 1-3 0zm12-1-1-1-2 1h-1l-2-1a9 9 0 0 0-4-2H5l-1-6-4-1 1-2v-3c0-2 2-1 3 1v2l1-2v-1l-3-4 1-1 3-3 1-3-1-1-1-2v6H3v-7l3-1h3l-1 6-1 9v4h2v-4h2v9l-3 1 1 1 4 1a26 26 0 0 1 7 0l4 1v2l-2 1c-3 2-3 2-4 0zm482 0a3 3 0 0 1 2-1h1v2h-3zm-6-1-1-1 1-2 1-2 1 2 2 2h1v3h-2l-2-2zm-7-3-4-2-4 2-3-1-5-2-5-2-1-1v-4h1c1 0 2 0 3 2l3 2h1l2-1 1 1 4 1 2 1v-1l1-1 2 1 4 1 2 1 1 2v3zm-447-2 2-1 2-1v-11l2-2-2-1 1-5v-5l-1-2-3 7 1 5-1 1 1 7h-2l-1-2v-6l1-4h-2v-5l-2 2 1 6v7h-2v-5l-1 6h-2v-2l1-4 2-10 1-8-1-1v2l-1 4-1 7-1 6h-3l1-3a56 56 0 0 0 1-11l-1 4-2 6v5l-2 2c-2 2-2 3-1 3h1v6-1l-2-3v-2 6l-2-1v-14h-1l-1 3v3h-2v-5h-1c-1 0-3 3-3 5v2l3 3v7h-3v-3l1-3-3-2v-7l2-1 1-3v-1h4l-4-6v6h-2v-12l2-1v1l1 2 1 1-1-3-2-3-1-1v-4h-1l-1 2v1l-3-1v1l-2 1H5v-3l1-6 1-3h2l-2 10 1-1c1 0 2-2 2-5l2-6 1-2-4 1v-3l-1-6a72 72 0 0 0 0-4v-1H3l-1-2v-3l2-3v-13h1l1 3 1 2 2-2-1-5 2-1v-7l-2 1c-2 2-3 1-2-1l2-5v-3l-1-1-1-2 4-6H7l-1 2-2 1H3v-3l4-2 4-3v-1l-2-2v-1l4-5-2-1-2 1-3 1H5v-7l2-1 3-2-1-3H7c-5 1-5-1-1-4l3-3H3v-5h2l2 2 2 1h1v-8H7v-3l4 1-1-3-1-5v-1l4 1 3 2 5 3h1l-1-1a10 10 0 0 1 0-3v-1l-3 1-3-3v-3l-1-3a12 12 0 0 0-4-3l-4-1v-3h10c0-2 2-2 2 0l1 2 2-1v-2l-1-7v-4l-3 3 1 5-3-2-1-2 2-3-6-1v-4l4-4-2-1c-2-3-1-3 1-3s2-1 0-3-4-3-4-1c0 1-4 2-5 1l-1-4-1-5h3v4l4-1v2l5-3 4 3 3-3v-5l-2 1v1l-3-3h-4c-6 1-6 0-8-2l-1-3 1-5 2 1 3-2 2 1-1 4v2l1-1 7 1v-1l-1-2h-4v-2l2-3 1-5 1-3-5-2 2-2 2-1h1l4 6v-1l1-1h1l-1-1a91 91 0 0 1-4-6l-2-3 4-3h-1c-2 0-3 1-3 2h-1l-3-3-3-2v2l-1 3-1-2-1-2 1-1 2-1h2v-3H9l1-2 8 7 3-1 6 6v-1l-1-3-1-2h-2l-4-2-3-2-1-4-1-6v-3h-1l-3-2-1-1-3 2-2-4 4-3v1c1 2 3 3 6 2l2-1v-11h3v-5h2l3-1 3-2 1 2 2 2 1 1 2-1-2-1-1-1 1-3v-4l-3 1-3 1-3-1-5-3-3-2 4-3 4 3 1-6 3 4 1-4-1-1-5-5c-2-4-2-8-1-9l4 4 3 3v5l2-1v-7l-4-1-2-6-2-7 4-5 1-1h2v5l-5 2 5 5 4-1 1-8-2-3-2-3-2 2-1 1-4-4-1-5 3-1 1 6 4-1v-2l2-4 1-1v4l2 5 1 1 3-6 1 1 2 3 3 3 2 3 1-3-4-6h-2l-1-5a15 15 0 0 1 0-6h4v8l1-3h1v6c2 0 2-2 3-8l1-5h3l-1 6c-2 6-1 8 0 4l2-3v4l-3 4-1 4-1 6-1 3h4v-3l-1-3 1-2 1-3h4v-7h5l-1-2-1-4v-2l2-2 1 2 1 3c0 1 2 3 3 2l-2-5-3-6v-3l-3-3v-4h1l3-2v-2l-1-1-3-5-2-4-1-1 2-1 3-1 1 3 1 3h1V6l-1-4-3 1 2-3 6 1v8l3-1v1h1l-3 9 2 3 2 4 1 1-1 2-2 2-1 10 1 3h3v-4l7-13 1-4 2 1v4l-1 4-2 2-2 4-1 3 1 2 1-2 1-3v-2l3-1c3-2 3-2 3 0l-1 1 2 1v-2l1-1-2-6 1-1 3 3v-1l2-3 2-1h1l-1 2a12 12 0 0 1-2 4c-2 3-2 4 1 1l2-2 1-3 4-7h1l-1 9-2 2a28 28 0 0 0-8 11v3l7-3-1 2v2h1a12 12 0 0 0 3-2l1-1-1-2a68 68 0 0 1-1-2l-4 2-3 2v-3l1-1 5-2 2-2v-4h2l4-5 3-4-1-4 5-6 2 1 1 1v2l-3-1-3 5 3-1 3-2c2 0 0 3-6 8l-7 6v13l-1 2 5-3 1 1-6 3-1 5-4 2-2 6 2-1c0-1 1-2 3-2h2l2-2a26 26 0 0 0 4-5l1-2h3l-1 3-2 3-4 4-4 3h-6l-1 1-1 2h2l3 1-2 5-2 4h-3v3l-5-2-3 4-3 4 1-1 4-1a68 68 0 0 0 12-6h2v-3c0-4 1-6 2-6h1v2a28 28 0 0 0 0 3v2l9-1 2-1 1-3v-1l2 1 1 2 2-2 3-2 9-1h5l3-2 4-3h2l3-1c2 0 2-1 3-2h2c2 0 2-1 6-5l2-3v1l1 1 5-3 3 1v1l-4 3-3 2-6 3-6 2h1l3 1h3l2-1c3-3 4-2 2 0l-1 1h5v3h-3a15 15 0 0 0-5 1l-2 1h-1l-1-1 3-2-14 1v-2l-3 1v5h-9l-2-2-3 2c-2 2-5 3-7 3l-6 3-3 1-3-1-6 3 1 4 1 5 1-1h1l-1-2 3-5 8 1 6-7 1 3h5l1 1 2 2-3-1h-8v4h-7l-4-1 2 4-2 4h3l4-5h2l-6 9-6-2-4 3v3l-2 2-3 3v1l2-1 5-3 2-3v2c1 2 3 1 5-1l3-3h2l-2 3-3 4 2 1h2l1-4 6-1v1l-3 2c-3 1-4 3-1 3h1v1c-1 1-5 1-10-1l-4-1-7 4h-5c0 2 4 3 8 2h3l2 1-1 2H91l-6-3-5 3 2 3 6-3 1 1-2 2-7 4c-1-1-4 2-7 5l-6 6h1l6-5c4-4 7-5 7-3l-3 2-3 2h6l1-2 1-2 2 2 3 1h1l1-3-1-3-1-2 2-2 4-2 2-1v1l-3 3-3 1 1 5 3-1v1l-2 2-1 1v2l1 1-6-1 1 1 1 1-2 5-3 1v3l12-10 4-4h4l4-4h2l-5 5v3l-6 1-5 3-5 5h2l2-1 3 2h-2c-2-1-6 1-11 4a18 18 0 0 1-5 1c-2 0-1 2 1 3l2 1 4-5h4v4l2 1h7l6-3 3 1-2 1-3 1h-2v1l1 1h3a18 18 0 0 0 6-2h2v2l-5 1v2l-1 2-1 1-1-1a20 20 0 0 0-3-3l-1-1-14-1 1 1 4 1h2v1l-2 1-1 1-2-1-4-1-2 1v3l6-1v2l2-1 2-1h1l-1 7h1l1-2v-1l4-4h2l1 1-4 3 1 1 1 1-2 4h-2c-3 0-3 1-1 2l1 1 6-1 3-4h-4v-1h2l3 1 2 2 8-8h2l-2 2-3 3h4l2-2c2-2 4-1 2 1l-1 1h2v-1h4l1 2 2-2 2-2v3h4l1 2c0 2 0 3-1 2l-4-1h-3l-3 2a9 9 0 0 1-4 2h-2l1-1 3-2 1-1h-14l-4 3a35 35 0 0 1-6 5l-6 5c0 1 4 0 7-2l3-1c1 1-1 2-5 4l-3 1v1l1 2h-5v-1l-1-1h-2v3h2l1 1v1h-5l-4 3-2 3h3l3-2 12 1 2 4 2-3 10 3v2l-8-1 1 3v2h-1l-2-1a18 18 0 0 0-4-4l-3-2-8-2-1 5-2-1a50 50 0 0 0-5-1l-2-1-4 2 1 4 5 1 3-2 2 1 1 3v1l3-1 6-1h2v3h-5c-3 0-5 1-5 2l2 2c2 0 4 3 5 4l2 3-1 1a6 6 0 0 1-2 1l-1-3-1-3-5-2-2 2 4 3v1l-1 1-2-2-1-1-2-3-2-2-8-1-4 2-1 6-3 3c-4 3-4 5-2 5h1l3-6h3v-2l-1-2 3-1v4h2l3-3 3-2h1v6h-1l-1 1c0 1 1 1 3-1l2-1 1 3 2 1h5l2-1v2l-11 2v1l-2 1-2 1-2-2-2 1c-2 1-2 2 1 3s2 2-2 3h-3l-3 4-2-1-2-1-2 3c-3 2-3 4-1 4l1-1c0-1 0-2 2-3l2-2v1l1 1h7v1l1 3 2 1-3 2-2 3h2l2-1v3l-2 1a32 32 0 0 0-10 11l-1 3 3 3 3-1 4-1 3 2v4h1l1-1h3l3 4 4 5v1l10-2 6 7h2l7 1 6 1 3 2 3 2 4-2 5 2 7 3 2 2h4c5 1 9 3 10 5l1 2 5 2 7 1h2v2h3l5 1a189 189 0 0 0 18 7l8 3 4 1 4 2 1 1 13-1v1l2 1 2 1 4 7 1-5 3 1 3 1 1 1h1l3 6 5-1a592 592 0 0 1 5-1h6v5l1-5h1l3-1h1l1 5 3-3h6l1 5 1 5v-10h3l10 2h5l1-1 1-1h1v6l1-2 1-2h1c4 1 9 2 10 4l2 1 4-1v7h2v-3l1-3 1-1 1 1 3 1h3l1 1 4 3 4 1v5h2v-4h7l2 2-3 11-3-1v1c0 1 1 2 3 2h1l-1 2-1 2-1 2-2 2-2 1 1 5 1 5h-1l-2-2-3-1-2-1 1-2v-2h-1l-1 2-2 2h-1l1-2 1-6 1-4 1-3v-3l-1 2-2 2v-5l-1-5 1-1v-3l-1 2-1 2h-1l1 7 2 7-3 8-3-1-2 2v-3c0-3-2-7-3-7h-1v-7l-1 2h-1v-6h-2v2l1 7 1 5 1 2 1 1-1 3a30 30 0 0 0 0 6v4l-3-3 1-6 1-5-1-1-1-3v-3l-2 2v15h-3v-5l1-1 1-2v-1l-3 3v-5l2-3 2-3v-7l-2-1v2l-3 7v16l-2-1v-14l1-6v-5h-2v2l-2 3h-1l1-7v-6l-2-4 1 9-1 4-2 6v1l2-2 1 2 3-2v5l-3-1v4h-2v-5l-2 1v3l-1 2h-2l1-11h-2v4h-2l1-3 1-6 1-3h-2v6h-3v3l1 3h-3l-2-1-1-3-1-3-1-1v8h-1l-2-2-2 7 2 2v3l-1 3h-2l-1 2v4l1 1h1v-6l3 2-1 3v3h-3l-3-1 2-13a89 89 0 0 0 2-16v-2h3l1-3 1-3-1-2-1-2-1 8h-4v2l-1 3-1 1v-9h-3l-1-5v6h-3l1-2v-1l-1-2-1-2v14l1-5h2v7l-1 7 2-7 1-7h2v3l-2 8v4h2v-8l2 1v4l1 3-3 1v6c0 5-1 9-2 9h-1v-9l-2 5-2 3-6-2v-3l3-3v-4h3l-1 1-1 1 1 3 1 4 1-6v-2c-1-3-4-7-6-7v4l1 3-4 5v4l-2-1-1-1-2 1-1 2-2-2 3-2 1-13 2-3 2-3v-7h-2l1 7h-4v3l-2 6h-1v-5h-2v6h-2v-6h-2l1 7v8l-3-3v-3c1-3 0-9-1-9h-1l1 6v6h-2l-1-3v-12h-1l-1 5-1 3 1 1 1 5v4l-1 1h-1v-7h-2v3h-2l1-3v-2l-2-1-1 1-1 2 3 10-1 1c-1 0-2-1-2-7l-1-6-1 1-2 2-3 3-1 2h-2v-2l2-3 1-1v-1l-3 1v-6l-1 1-1 3v2h-2v-6l4-3-1-1c-1-2-2-2-2 0l-1 3-2-1-1 5 1 1 1 1v3l-1 3-2-2-1-3v-14l2-4h-2v-7h-1l-1-3-1-2-1-1v7h3v13l-1 9h-2v-9l-1 1-2 2v-4l1-1v-11h-1v6l-3 1h3v3l-2 4-2 2 2 4c2 4 2 7 1 7l-3-5-1-6 1-4h-1a2 2 0 0 1-2-1l-1-1v3l-2 4-1 5-1 4 1-1h2v-6l1-6h1v9l-1 7h-3v5l3-2 1 2v2l-3-1-3-1v-3l-1-14v-2l-1 5-1 5 2 3 1 3-2 2-2-4-1 4-1-1a18 18 0 0 1-2-6v-4h2v3l1 2v1l1-4v-5h-2v-2l-1-3-1-1v6l-3-1 1-2v-2l-1 1-1 2c0 2-1 3-4 2h-2l-1-4v4h-2v-2l-1-2-1-1v5l-3 1v7h-2v-3l1-4 1-1v-7l1-8h-1l-2 6v6l-1 5h-7v4l-1 7h-1v-8l1-9-2 6-3 2-1-1-1-2-1 5 3 6v-6h1c2 0 3 7 1 8l-1 1v6h-2v-3a24 24 0 0 0-3-10l-1-2 1-2v-2l-3-1v7l1 1c1 1 2 4 2 9l-1 3h-1l-1-1v-3a65 65 0 0 0 1-6v-3h-3l1 5v4l-2-1v-4l-1-4 2-1v-5l1-5 1-1-1-12-3 4h1l1 1v6l-2 2v5l1 5-2 1 1 4h-2v9l-2-2v-8h-1l-4 7v2l-2-4 2-2c1-3 2-7 0-8l-1-3v-1h4l2-5-1-2c0-2-2-2-2 0v3l-1-1-2 2-2 2 2 9-2 4c0 3-1 5-2 5h-1l1-3 1-7v-3l-2-1v5h-2v-3l-1-5-1-1-1 6v5l-2-2c-2-2-2-5-1-6l1-1-1-1h-2v2a26 26 0 0 0 1 11v3l-3-5-3-5-1-1-1 2-2-1v-8l-1 2-1 4a40 40 0 0 1-1 7v3l-6-1-1 5 2 2v-3h1l1 3v2l-3-1h-2v-3l1-8 1-5h-3v8h-1l-2-8v-4h-2v3l-1 4-4 1-2-3 2-13-2 1-1 2-1 3-1 1 2 2v8h3v2l2-1v12l-1 3-2 1-2 1-3-2v-6h1l1 2v2l3 1v-1l1-3 1-1-2-2-2-2h-2l-2 7v2l-2 1 1-13-3 2-1-1v-2l-2 3-1-1 1-5 1-5v-3l-2 4-2 13c0 4 0 8-1 7l-1-1h-1v2l-1 3h-1v-4l2-4 1-1 1-12-1 1-1 6-1 4h-4l-1 2-1 1h-1v-3l1-3-2-2 1-9h-1l-1 4-1 5 1 1 1 2-1 10-3-6v5l1 5-2 1v-4h-2l1 5v5l-2 1h-4zm-14-18v-2l-2-3 1-3a12 12 0 0 0 0-4l-2-1h-1l1 7-2-1v3h3v8l2-3zm29-13v-3 3l-1 5v2l1-2 1-5zm23 3v-1 5-4zm-2-6v-2l-2 1v4l1 4 1-2zm188 4h-1l1 2zm-169 0h-1v2l2-1zm-23-4 1-3h-2v2l-1 5-1 1 1-1 2-4zm27-1v-5h-3v-3l-1 2-1 4v2l1-1 1-1h1v8l2-1v-5zm158 3-1-1v3l1-1zm-122 0v-4l1-2-2 2c-1 3-2 5 0 5l1-1zm-3-2h-1v2l1-1zm-110 0 1-1h-1l-1-1v1c0 2 0 2 1 1zm317-2v-2l-3-2 1 2v5h1l1-3zm-306 1v-1h-1l-1-1v2c0 1 1 2 2 0zm226 0 1-5v-3h1l1-2v-2l3 1v-1l-4-1-1 5-2 5v4l2-1zm70 0 1-2-1-1-1-2 1-8-2 4c-2 4-2 6-1 9 0 2 3 2 3 0zm-290-1v-1 2l1-1zm-23-2h-1v3l1-2zm10 0v-1h-2v3h2zm104 0-1-1v2l1 1zm3 0 1-2-1 1-1 2c0 2 1 2 1-1zm-79 0-1-1v3l1-1v-1zm7-3h-2v5l1-2 1-3zm24 3 1-2h-1l-1 2v1zm-34-2-1-1v2l1 1zm7 1v-2l-1 1-1 1 1 1 1-1zm49-2v-1 3zm117-2h2v5l1-2 1-3 1-1 3 4 3-4-1-1h-1l-1 1v-3a53 53 0 0 0-1-14l-1-3v9l1 8-1 1a6 6 0 0 1-3 1h-1v-2l1-3 1-6v-1l-6-2v-7l-1 9 1 1 1 3 3-3v3c0 4-2 7-3 8h-1l1-6h-2v13l1-5zm120 3-1-1-1 1 1 1 1-1zm-320 0a1 1 0 1 0-2 0 1 1 0 0 0 2 0zm8-2v-1l-2 1 1 1c1 1 1 1 1-1zm113 1-1-1-1-1v2h2zm-127-2-2-2-1 2v2h4zm36 0v2-1h1zm18 1-1-1-1 1v1h1l1-1zm17 0-1-1-1 1 1 1 1-1zm69-2-1 1-1 2 1-1c1-1 2-1 1-2zm182 1-1-1h2l-1-1c0-1-2-1-2 1-1 1 0 3 1 3h1zm-225-3 2-4-3-3v3l-1 5v3l2-4zm59-5h-2l2 9v-4zm152 3v-4l-1 3a21 21 0 0 0-2 6v1l3-3v-4zm-204 4 1-3 1-3-2 1v1l-3-1v6h1l2-1zm29-12 1-1h-3v14l1-6zm6 1-3-1h-2 2l1 1v12l1-6zm-116 9v-2 3zm19 0v-2 3zm11-1h-2l-1 1 1 1v1l2-2zm21-2v-1 6-5zm9 2v-3l-1 3-1 3h1l1-3zm8 0v-3l-2 2v4h2v-3zm77-1-1-2v3l1 2zm81 2v-1l-1 1v2h1v-2zm-108-3v-3l-1 2-1 3v1c1 1 1 1 2-3zm55 2-1-1-1 1 1 2 1-2zm-124-3-1-1v6l1-2v-3zm37 0v-1h-1v5l1-2v-2zm124 1v-2h3l-1-1a2 2 0 0 0-1-1h-2v2l-1 3-1 2 3-1zm39-4-1-7c-1-1-1 1-1 7l1 6zm-213 4v-1h-1l-2 2h2l1-1zm101-3v-2h-2v3l1 4v-1zm15 3v-2l-4 2 1 1c2 1 3 1 3-1zm149-3v-1l-2 3 1 3 1-2a9 9 0 0 0 0-3zm-190-1v-2 7-2zm91 4 1-6v-6l-1 2-1 6-1 5h1l1-1zm-206-2v-1 3l1-1zm145 0v-2 3zm37 1 1-1-1-1h-1v1c0 2 0 2 1 1zm29-6v-3l-1 2-1 5v3l1-2a12 12 0 0 0 1-5zm18 3v-6h-1l-1 1v9h1l1-4zm35-4v-2l-2 2c-3 2-3 3-1 3h2v5l1-3 1-4zm-284 3v-1 5-4zm33 1-1-1v4l3-2zm46-2v-4l-1 5-1 4h2zm11 4-1-1-1 1v1h1l1-1zm5-3-2-2h-1l1 2v4l2-2zm22 2-1-1v1l1 2zm10-1-1-1h-1v4l1-1 1-2zm4-4 1-8 1-5h-2v10l-2 1v4c0 4 0 6 1 3zm20 6v-4l1-2h-2v7l1-1zm-110-2v2-1h1zm66-3v-1l-2 5 1 1 1-2v-2zm112 1-1 1-1 1 1 1v1l1-2v-2zm-161 1h-1v2l1-1h1zm142-4v-2h3v-2l-5 1v9l1-1 1-5zm24 0v-4h-1l-1 2-1 2-1 1v3l2 2v-1l2-5zm21 4h-1v2l1-1zm24 0-1-1v3l1-1zm-90-4-1-2v8l1-2zm24 3v-1 3zm-163-1-1-1-1 2v1h1l1-2zm44-1-1-1v5l1-1zm4-3v-3l-1-1h-1v11l1-2 1-5zm13 4-1-2h-1v4h1l1-2zm71 1h-2l1 1zm121-2-1-1v5l1-1v-3zm-298-9h-1l-1 1 1 5 1 6zm8 9c-1-1-2 0-1 2v1l1-1zm5 2-1-2-1 2h2zm34-2v-1l-1 2 1 1zm71 0-1-1c-2 0-2 2-1 3 1 0 2 0 2-2zm43 0v-2h-1v4zm119-2-1-2v7l1-2zm-215 0v-3l-1 2c-2 3-2 3 0 3h1zm68-2 2-4-1-3-1-2-1 5-1 7-1 2 1-1 2-4zm34 0h2v-9l-2 3 1 2v3h-2v-3l-1-3h-1v6l1 6 1-5zm5 1c1-5-1-5-2 0v3h2zm29 2-1-1v3l1-2zm50-2v-4h-1c-1 0-2 4-1 6l1 1h1zm59 3-1-1h-1l1 1 1-1zm-274-1v-1l3 1v-2c0-2 0-2-3 0-2 1-2 3-1 3l1-1zm20-1-1-1v3l1-1zm167-4v-2l-1 1v7l1-2 1-4zm-156-3v-2 10l2-6zm48 5 1 1v-3h-2a9 9 0 0 1-2 0h-1v5l1-2 1-1zm9 1-1-2-1 2 1 1 1-1zm56-1 2-1 1-1h-4v-5l-1-5-1 8v7l1-1 2-2zm65-1v-3h-1v6zm-197 2-1-2-1 2h2zm7 0-1-2-2 2h3zm17-6-1-2-1 1 1 8v-8zm72 2v-3h-2v8l1-1 1-4zm6 3-3-3-1 2v2h2l2-1zm-129-1v-1 3-1l1-1zm22 1-1-2h-1v1l1 2 1-1zm37-1-1-1v3l1-1v-1zm38 0v-1l-1 1v2l1-2zm69-2v-4l-1 3-1 3-1 2h4zm15-1 1-4-3 2v4c0 3 0 3 2-2zm12-3-1-5v13l1-2 1-1zm26 5-1-1v2c0 1 0 2 1 1zm-215-1c-1-1-2 0-1 2l1 1v-3zm61 1-1-1v3l1-1 1-1zm76-3 1-5 1-2h-3c-2-2-3-1-3 0l2 2h2l-1 9h2zm28 1-1-1v5l1-1v-3zm-186 2 1-1h-1l-1 1zm61-3v-4l-1 1a13 13 0 0 0-1 4v2h2zm209 2v-1 3-1h1zm-266-2-1-1v4-1l1-2zm53 1-1-1v3l1-1zm53 0v-1h-1l-1 2v1l1-1 1-1zm120 0v-1h-1l-1 1 1 1c1 1 1 1 1-1zm-221-1-1-1v3l1-1zm42 0c1-2 0-3-2-1v3l2-2zm55 1-1-1h-1v1l1 1zm97-1v-1 3l1-1zm-117-1 1-2h-2v2l1 2zm182 0-1-1v3l1-1zm-168-2v-2h-2v5h2zm21 1-1-2v2c0 1 0 2 1 1v-1zm50-2 1-3-3-2c-2-3-4-3-4-2l1 1h2l-1 3v3h3v2l-1 2 1-1zm8 0 1-1 1 1c2 2 3 1 3-1v-2l-5 1v-1a1 1 0 0 0-1-1v8-2l1-2zm11 1v-1h-1l-1 3v1l1-1 1-2zm37-2c-1-1-1 1-1 3l1 2v-4zm12 3h-1v2l1-1zm-159 0-1-1-1 1 1 1 1-1zm4-2v-2h-1l-1 3-1 2h1l2-3zm20 0-1-1h-1v4l1-1v-2zm4 0-1-1h-1v4l1-1 1-2zm10-2v-3h-2v8l1-1 1-1zm25 3v2-1h1zm4-3v-2h-1v7-1l1-4zm73 3v-1l-1 1-2 1v1l2-1 1-1zM9 336l-1-1H7l5-4 1 1 1 2v1h3v-1l-2-2-1-2 1-6-1-1-2-2-1-1-1 2-2 3c-1 0-1 2 1 3h1l1-2 1-2h1v4l-2 1c-3 1-6 4-6 6v2h4zm62-9v-9l-1 1-1 14c0 7 1 3 2-6zm17 5v-2l-2 1v6l1-2 1-3zm25 5-1-2h-1v1l1 1zm16-3v-2 1c-2 2-2 4 0 4zm74 1 1-5v-3l-2-2 1-3 1-2-2 1v8c0 8 0 10 1 6zm27 0v-2l-2-1v3c0 2 1 2 2 0zm-189 0-1-1-1 1 1 1 1-1zm20-2-1-1h-1v4l1-1zm30 0-1-1v4l1-1zm51 1v-3h-2v5h2zm-68-1v-13l-2 1v14h2v-2zm-53-3v-4l-2-2v3a21 21 0 0 1-1 5v3l2-1zm82 1v-1 5-4zm51 2v-1l-1 1-1 1h1a1 1 0 0 0 1-1zm-130-4v-2l-2 4 2 3v-2a9 9 0 0 0 0-3zm23 3v-2l-1 1a3 3 0 0 0-2 1v2l1-1a3 3 0 0 0 2-1zm9 0v-1 3-1l1-1zm63-1v-2l-2 1 1 2c1 2 1 2 1-1zm5 1 1-3v-2l4-1-1-3v-3h1l1 1 1 1v-3h-1a9 9 0 0 0-2 1h-2l1 2c-1 0-3 3-4 9v2h1l1-1zm111-1v-1 3-2zm-196-1v-1 3l1-1zm43-4v-4l-2 6-1 4 1-1 2-5zm56 3-1-1v2c0 1 0 2 1 1v-1zm12 1v-1h-1l-1 2 1 1 1-2zm17 1-1-1h-1l1 2zm-90-2-1-1v3l1-1zm22 0v-2h-1l-1 2 1 2h1zm114 1v-1h-4l1 1 1 1 2-1zm10 0-1-3-1-2v6h1l1-1zm5-1v-1 3-1h1zm-113-5-1-1v3l1 3 1 1v-5zm40 2 1-3h-1l-2 2v4c1 1 1 1 2-3zm41 1v-2l-1 1v2c1 2 1 2 1-1zm-102 0v-3h-2v5h2zm14-1v-3l2-1 1-2h-2l-2-1v6h-1c-2 0-2 1 0 3 1 1 3 0 3-2zm66 0-1-2v6l1-2v-3zm5-3v-6l-1 5-1 5v2h2zm-100 4v-1h-1l-1 1 1 1zm8-1v-3l-3-1v1l-1 1 3 1v3h1zm57-2v-2l-2 4-1 2 3-2zm17 3h-1l-1 1h3zm-49-3-1-1h-1v4l1-1zm27 2-1-4h-1v5h1l1-1zm8-1-1-1v1l1 2zm60 1v-1l-2 2h3zm-143-3c-1 0-2 1-1 2l1 1v-1l1-1zm37 0-1-1v4l1-1v-2zm22 0-1-3h-1v2c0 3 1 4 2 3zm36 2v-1l-1 1-1 1h1l1-1zm7-1v-1l-2 1v1h1l1-1zm-149-5v-5l-2 3v-1l-1 1v3l1 2 2 2zm60 3-1-1-1 1v2h1l1-2zm108 1-1-1-1 1 1 1 1-1zm41-1h-1v2l2-1zm-188-1-1-1v3-2zm157 0-1-1v2l1 1zm-81-1-1-1v2l1 1zm56 0v-2h-2v4h2zm4 0v-1 3-2zm36 1v-2l-2 1-1 1 1 1 1-1zm-114-2v-3l-2 3 1 1c1 2 1 1 1-1zm8-1 1-3h-1l-1 1-1 3v2l2-1zm-69 1-1-1-1 1-1 1h2l1-1zm21 1-1-1-1 1h2zm-9-3v-1l-2 1a3 3 0 0 0-1 1l-1 1h2l2-2zm14 1 1-1v-3h-1l-4 4v2l1-1a37 37 0 0 1 3-1zm40-1h-2v2s2 0 2-2zm42 1-1-1v2l1-1zm4 0v-1l-1 1-1 1h1l1-1zm4 0-1-1-1 1v1h1l1-1zm-64-2-1-1v2l1 1zm-75-1v-2l4-4 2 1 1 3v1l2-2-2-5h-2l-2-1c-1-2-2-1-3 3a94 94 0 0 1-1 6l-1 2h2zm107 0-1-1-2 2 1 1c3 0 3 0 2-2zm10 0-1-1-1 1 1 2 1-2zm3-4v-3l-2 2 1 7 1-1 1-1zm9 4h-2c-1 0 0 0 0 0v2l2-2zm13 0v-2 3-1zm-61-1v-1h-4v3h3zm73 0 1-2-1-2-1 2a6 6 0 0 0-1 2c0 2 2 2 3 0zm-107-1-1-1-1 1 1 2 1-2zm9 0v-1h-1l-3 1v2h4v-2zm39-1-1-1v1l1 2zm14-7-1-2v11l2-6zm-49 5-1-1v4l2-2zm-48 0 1-1h-1l-1 1v2l1-2zm95-3h-2v5l1-2zm5 3v2-1h1zm21 1-1-1v1l-1 1h3zm10-1v-3h-1v5zm-105-3h-2l-1 1v3l1-1 2-3zm7 1 1-3-1 1-1 2h-2l-2 1-1 1h1l2 1h2zm4 2h-1l-1 1h3zm74-1-1-2v3-1zm22 0v2l1-1zm-71 0-3-3-1 2v2h2zm14-3v-3h-2v7h2zm4 2v-1h-1l-1 2 1 1 1-2zm5-2v-3 2l-1 4v1h1v-3zm20 3v-1l-2-1v1c0 2 1 2 2 1zm32 0-1-1v2l1-1zm-93-1-1-1-1 1-1 1h2l1-1zm-6-2v2l1-1zm51-1v-2h-2v5l1-1 1-2zm29 1-1-1-2 2v1l2-1 1-1zm9 1-2-1v1h2zm-72-1-1-1-1 1 1 1 1-1zm58-1v-1 2l1-1zm-113 0-1-2-1-1-2 1 1 1h3zm45-2v-5h-1v4h-2l-2 2v1h4zm38 1-1-1h-1v1l1 1zm-93-3 1-2h2l3-2v-1l-5-2-3 1-3 1 1 3 1 4v1h1zm74 2-1-1v3l1-2zm-4-1-3-1c-1 1 0 2 2 2l1-1zm-31-1c1-3 1-3-1-3h-1v4h1l1-1zm85 0-1-1-1 1v1h1a1 1 0 0 0 1-1zm-64-2-1-1h-1v4l1-1 1-2zm18 1v-1l-1 1h1c1 0 0 0 0 0zm55 0h2l-2-2c-2-1-4-1-4 1v2l2-1zm-28-2-1-1-1 1 1 2 1-2zm-96-1-1-2v3-1zm4 1-1-1-1 1 1 1h2zm102-2-1-1-1 1 1 1 1-1zm-62-2h-1v2l1-1zm34 1-2-2-1 1 1 1h2zm-54-1h-1l-1 1h3zm7 0h-1v1h2zm66-1-1-1-1 1v1h1l1-1zm-28-1v-1l-1 1 1 1v-1zm38 0-1-1-1-1v2l1 1 1-1zm5 0-1-1-1 1 1 1 1-1zm-81-3v-2h-1l-2 2v2h3zm55 0-1-1-1 1v1l2-1zm-22-1v-1l-2 1v1h1l1-1zm-68-1-1-2-1-1-2 1-1 2v1h2l3-1zm53 0v-1 3-1l1-1zm5-1v-1 3zm23-1-1-1-1 1h2zm-68-3a1 1 0 0 0-1 0h-1l1 2a1 1 0 0 0 1-2zm59 0h-2l1 2 1-2zm3 0h-3 3zm-1-3-1-1v3l1-1h1zm-70-2-2-2-2-1v3h2l2 1zm-3-10-1-2-3 3h1l3-1zm-2-4-7-10v2l2 4 1 2v1h-4v1l1 3 2 2 2-2 3-3zm19 0-1-2h-2v1c-2 2-1 3 1 3h2zm-10-1-1-3-2-3v2c0 1 1 5 3 5l1-1zm-8-8-2-2-2-2v2l1 2h3zm7 0-1-1v3l1-1 1-1zm-13-6-1-1-1 2 1 3 2-3zm6 0-2-2-3-3-2-2v1h-1l4 4c2 3 4 4 5 4l-1-2zm9 1-1-1v3l1-1 1-1zm29-3v-2h-1v5h2zm-5-1-1-1-1 1 1 1h2zm16-3-1-1h-1l-1 1v2h3zm-32-3-2-1v2l1 1 1 1 2-1zm-7-4h-2l-1 1 2 5v-3l1-3zm41 3-1-1h-1v3h1l1-2zm-18-4v-4l-2 1v8l2-1zm-17 1a9 9 0 0 1 0-3h-3v1l3 4h1zm-11 0v-1l-2-3-1 1c-1 2 2 5 3 2zm32-4v-1l-2 1 2 1 1-1zm-38-1-1-2h-1v1l1 2 1-1zm8-2-1-3-2 1-1 1 1 2 2 2h2zm5 1-1-1-2-1v3h2zm21-1 1-1-2-1v1c0 2 0 2 1 1zm-19-1-1-1h-1l1 1v1zm33-5 1-3-3 3-2 3-3 1 1 2 2-1 4-5zm-29 0-3-2h-1l1 2 3 2h2zm20-3v-2l-1 1c-2 1-2 5-2 6l3-5zm-30 2v-2h-1l-3-1c-1 1 2 4 3 4h1zm47-2-2-1h-2v3l2-1h2zm-35-2-2-3-1-2v2l1 3h2zm-16-2 1-1-2-1v1c0 2 0 2 1 1zm36-4 2-2-2-1-1 2a9 9 0 0 0-2 3c0 1 1 1 3-2zm4 0v-1l-1 1v2-1l1-1zm-41-4-3-3-2 1v1l3 3 4 3v-1l-2-4zm12-1-1-3v2l-1 1 1 2 2 1zm29-2 2-4-3 2a18 18 0 0 1-5 2h-3v-3h-2v6l7-1h1l1 1zm20 0v-2h-7l-2-2c-2-2-2-1-2 2l1 2h5l2 1 3 1zm-59-1-3-5-3-3v2l6 7zm21 0-2-2-1-2v4h2zm-18-3v-1 3l1-1zm34-4v-1h-2v3-1zm-26-1-1-1-1-1v1l1 2 1-1zm24-3 3-1-2-2-4 3c-3 2-4 4-1 2zm6 0c0-3-1-3-2-2v3l2-1zm-20-3h-3l3 2v-1zm-8-1-1-1-1 1 1 1 1-1zm38 0v-1l-2 1v1h1l2-1zm-35-3h-1l-1 1 1 1 1-1zm22-1h-2l-1 2v1l3-2zm-28 0-4-5h-1v2l1 3v1h2l2-1zm46-2h-1l-2 2v2l4-3zm-34-1h-1v2l2-1zm-24-1v-1 3l1-1zm52-3v-2l1-1 1-2 1 1v3l2 1-1-4v-4l3-3 1 1 1 2-1 1 2 1-2 5h4l1-4 1-4 1-1 2 2 1 2 2-1 4-2 1-2-1-2v3h-6l-3-3-4 1v-3l-3-1-2 1a21 21 0 0 1-6 1h-5v4h7v1l-6 3-5 3-2 4h4v-1l1-1 3 2 3 2h1zm-48 0h-2 1l2-1zm-2-6-2-2-3-1-1 5 1 2 3-1zm8-4h-2l-1 1 3 5v-5zm18 3-1-1v2l1 1v-1zm4 0-1-1v2l1 1v-1zm7 1v-1 3l1-1zm4-4v-1h-1l-1 2v1l1-1 1-1zm-35-7-1-3-3-1-2-1 7 9zm6 2-1-1v1l1 2v-2zm54-2-1 1h2zm-3-1a5 5 0 0 0-1-2l-1-1-7-1-3 3 2 1h1l3-2h2l1 2c2 1 3 2 3 0zm-27-3v-1 3-2zm7-1 2-3-3 1-3 4h1l3-2zm22 2 1-2h-3v2h1zm-47-2v-1l-2 1v1c1 1 2 1 2-1zm17-3c0-2-3-1-4 0l-1 2v1l2-1 3-2zm-22-1-2-2c-1 1 1 4 2 4h1zm9-3 1-2-2-1-1 1v5c1 0 2-1 2-3zm19 1v-1l-2 1-1 1v1l1-1 2-1zm14-2v-1h-2v3h2v-2zm-16-3 1-1-6-1-1-3 2-5h-3l-1 8v1l2 1h2l-1 1-1 2 3-1c2 0 3-2 3-2zm6 1 1-1h-6v2h3l2-1zm6 0-1-1-1-1-1 2h4zm-42-3-3-1-2-1 1-6-5-5h-4v-1a1 1 0 0 0-1-1h-1l1 3h-3l2 2 1 4 1 1c1 0 2-2 1-5v-1h2l1 3 2 5v2l1 1a18 18 0 0 1 3 1l2 1h1zm7-2 1-3-1-1-1-4v-3l-6-1-2-4-1 2-1 1-2-3-2-7-1-5-1 2v2h-3v-1l-1-1 1 4 2 4 4 1-1 2v2l2 1h5v4l3-2 2 1v3l2 10 1-3zm-16-3-1 2 1 1v-1zm38 1 6-1 8-2 3-1 2-5h3v-3l-5-1h-3l-3 2 2 2 2 3v2h-3v-3l-5-1-7 2v2l-1 3c-2 0-2 2-1 2zm6-5 1-1h1l2 1v1h-4zm-4-9 2-5 1-1h-1c-2 0-3 1-3 4a27 27 0 0 1-2 4v1l3-1zm-7 0v-2l-4 3v1h4zm-18 0-1-1-2-1v-3h-3v5h3c3 2 3 2 3 0zm61 0v-2l-1 2h-1 1a1 1 0 0 0 1 0zm-72-12-1-1-1 1h-1l3 1v6l1 1v-6zm14 6v-1 3l1-1zm5 1-2-1h-1l1 1 1 1zm25-1v-1h-2l-1 2v1l1-1a3 3 0 0 0 2-1zm-16-4v-2l-1 1-2 2v1h1l2-2zm-14-1a89 89 0 0 1-3-5l-1-3-2 1v6l3 3h5zm9 0h-1v2l2-1zm23 0h-1v2l1-1zm5-5v-1h2l1-1c0-2-1-2-4 1l-3 3h4zm-27-1 3-2 3-1v-1h-4l-1-2-2-2h-1l-1 3-1 5-1 2 2-1 3-1zm18-1v-1h6v-2l1-2-3 1-6 1-3 1 2 1c1 2 2 2 3 1zm-28-6-1-1 1-1c2 0 2-2 0-2l-2-1-1-2-1 2 5 10 1-3zm44 0v-1h-1l-1 2 1 1 1-2zm-29-2 1-2h1l-2-4h-1l-2 1-1 1 1 3c2 2 3 3 3 1zm8 0h-1l-1 1h3zm-29-3c0-4-1-5-4-6h-2v3h1l3 3c0 2 1 3 2 3zm43 0 1-3h-1l-7 5v1l5-1zm3 2c2-3 1-3-1-1l-2 2h1l2-1zm14-1c1-2 0-2-2 0l-1 1h1zm-6-2 2-2-1-1-1-2v-1l4-2v-2h-3l-4 2-2 1 3 2-1 2c-2 5-1 7 3 3zm10-6 1-3-1-2c-2-3-2-3-3-2l-2 2h2l2 1v1l-2 2-3 4 2 1h2zm-57-3 1-1v-2l-2-1h-1v6h-3v-8h-2v2l1 5v3l3-1 1 1v2l1-2 1-4zm24 3-1-2h-1v3h1l1-1zm-8 0-1-1-1 1v1h1l1-1zm14-1 1-1h-1a3 3 0 0 0-2 2v1h1a3 3 0 0 0 2-2zm-16-1 2-2v-3l-1-1h-1a6 6 0 0 0-3 2l-2 1v2l1 3zm6-8v-3h-1s-2 4-1 5l1 1h1zm-9-1 1-3-1-1-3 1v3l1 3 2-3zm26-1 2-2v-1l-1-3h-1l-2 3-2 4c0 2 2 1 4-1zm-34 0v-2h-1l-1 2v1h3zm-12 0 1-1-3-4v5h2zm39-3-1-1-1 1v2l1-1zm-33-1c0-1-2-3-3-2l2 4 1-2zm19-2v-2h-1l-2 1h2v2l1 1zm7 1a9 9 0 0 0-2-3l-1-2-2 4 2 1c2 2 3 2 3 0zm21-2h-1v2l1-1zm7 0v-1h-2c-2 0-4 1-3 2s4 0 5-1zm-17-2v-1h-1v4l1-1v-2zm-39-5 1-6-1-2-1 2a9 9 0 0 1-3 4l-1 1h3l1 2v3l-1 1h2l1-5zm48 1 6-4 3-4v-7h3v-2l-2 1a31 31 0 0 0-4 1l-3 1-2 6h3v1l-1 2-2 2-1 2-2-1-5 4h3a40 40 0 0 0 4-2zm-20-2-1-3h-1l-2 3h1l1 2 1 1h1zm-8 1-1-2-1-1v4h1l1-1zm20 0v-1l-1 1v1l1-1zm-6-4-1-1v2l1 1zm11-1 2-3h-2l-2-1v6l3-2zm-13-3-2-1h-2v1l1 2h2l1-2zm-6-5-1-1v4l3-2zm22 1h-2v1h2zm16-3h-1l-1 1h2zm-19-6h-1l-1 3v2l1-2 1-3zm5-2h-1l-1 1 1 3 1-2v-2zm-20-7v-1l-4-1 1 1 1 3v2l2-2zm-1-5-1-1v1h-1 2zm363 377v-2l3 2v1l-2 1h-1zm31 0v-2h3l-1 1a3 3 0 0 1-1 2h-1zm-429-1 1-5 1-1v7h-1a1 1 0 0 1-1-1zm16-1a3 3 0 0 1-1-2v-1h4v-2l1-3h1v6h1c1 0 2-3 2-8v-4l1-1v14l-2 1h-3l-2-1-1 2zm395 0v-2h1l1 2-1 1h-1zm13 0 1-1 1-1 1 3h-2l-1-1zm-397-3v-2l3 2-3 3zm362 0-2-2h1c0-2 2-2 2 0l1 2h1l-1 2zm12 1-1-1h-2v-4l1-3-2-1h-2l-2-3v2l-2-1-2-1-1-1-1 3 3 1 2 1 2 3c3 1 3 2 0 2h-2l-4-5-1 1-1 2-1 1h-1v-4l-2 1 1-4v-6l-2 4-2-2-2-3-1-1v11l-2-1v-6l-2-1 1-3v-4l-1 3c-4 8-4 10-4 12v2h-2v-6l2-1v-7l-1 2-1 3-2 6-3-2-1-2v-3l1-2-3 5c0 1-2-2-2-5v-3h-1l-1 2-1 1-2-1 2-2v-11 1l-1 2v1h-5l-1 4c0 7 0 7 2 9l3 2v5l-3-2c-3-2-4-3-4-5v-8h-3l1 4v4h-1l-1-3-1-2h-1v4h-1l-1-5v-8l1-4h1v3l3-1v2l-1 2-1 1v-1l-1-1-1 3 1 1v2l2-2 2-5 1-2-2-3-3 1v-5c-2 0-2 2-3 8l-1 4-1-1 1-8-2 1v7l-2 3v-9l1-9h-2v3a81 81 0 0 1 0 5 123 123 0 0 0-1 5v3h-3l1-7-1 1h-1v-6h2-2l-2 1v4l-2 2-1 2v2l2 1v-3h1l1 7v6l-1-1-2-1-1-2v-3l-3-2 2-15h-1c-1 0-1-5 1-5v-6l2-2 3-1 9 3 1 1 2 1h1v9l2 1-1-7 1 1 2 1 1-1 2-2 1 4v3h1l1-3v-2l2 1-1 3-2 6-1 2v9l1-5 2-5 1-5 1-5h1l1 1v2l2 1v5l1-2v-2l5 2v7l1-3v-2h8v3l1 3 1-4 2 1v2l-1 1 3-1v2l-1 3h1l1-2 1-1 7 9 6-1 2 2 2 2 2-1v4l2-2 2-2v6h3l-1 4-1 4 2 2v-2l1-1h1l-1 3-1 2a1 1 0 0 1-1-1zm-14-14v-3h-1l-1 5c1 1 1 1 2-2zm-23-2v-3l-1-1v-1 2a23 23 0 0 1-1 5l-1 2h2l1-4zm17-1 1-2h-1l-2 2v1zm-4-3 1-3v-2l-1 1h-1l-1 3-1 2h2l1-1zm-11-6v-6 2l-1 2v4l1 4zm5-2h-1l-2 6 2 2 1-7zm-13 4-1-1h-1l-1 2v1l4-1zm5 0v-2 3-2zm-6-10-1-2v6l1-2v-3zm-37-2v-1 3-2zm7 0-1-1v3l1-1zm7-3v-1h-1v2l1-1zm-12-4v-5l-1 1c-1 1-2 7-1 8h1zm3-1-1-1v1c0 1 0 2 1 1v-1zm7-2v-1 4-3zm-4-3v-1 3zm77 49 2-1 1-1v2a3 3 0 0 1-2 1h-1zm14-1-1-4c-2-2-2-5-1-5l4 2 7 3h1v2l-1 3h-1l-1-4h-5v4h-2zm11 0 1-2 1-1v4h-3zm-362-2v-6l2 1v7h-1l-1-2zm5 0 2-1 1 1 1 1h-5zm305 0v-2h-3v-3h1l3 3 1 2-2 2zm-8-2-2-1 1-3 2 2c2 2 3 4 1 4l-2-2zm41 0 1-5h-2v-1l1-1 1 1 2 1v6h-1a1 1 0 0 1-2 0zm-354-3v-3l1 1 1 2v3h-2zm4 2v-2l1-2 2 2v1c-1 2-2 2-3 1zm27 0v-5h1l3 5h-3zm318-1-2-1v-4h-3v-4h2l3 2 2 2v3l1 4h-1zm1-3c-1-1-2-1-1 1v2l2-1zm-354 2v-1h1l1 2-1 1-1-2zm-18-1-1-3c-1-1 0-4 1-4l1 2 1 1v-4h2v7l-2 1c-1 2-2 2-2 0zm47-1v-3h1l2 1v5h-3zm-8-2v-3l2-1v8h-2zm-98 2 1-1v1l-1 1zm103 0-1-2v-2h2v2c0 3 0 3-1 2zm60-1-1-3v-2h2v6l-1-1zm6 0-2-2 1-1 1-1 1 1c2 3 1 5-2 2zm104 0h1c1 1 0 1-1 1h-1zm6-4v-5h2v3l1 5v1l-3 1zm115 3 1-2 1-1v5h-2zm-237 0h-2v-2c-1-3 0-5 1-5h1v6l3-4v2c1 1 0 4-1 4l-2-1zm18-1 2-2h1v2l-2 2h-1zm112-1v-2h-4v-3h5v4h2v-4h2v8h-6zm17 2v-1l3-1 5 3h-7zm12-1-2-3v-4h2l1 3 1 4 2-2h-1l-1-2v-2l1 1 3 3 2 2h1l-2 1-3 1h-3zm-224 0-1-2v-1l1-1 2 2 2 2h-4zm233-2-1-3 1-2 3 3v5h-2zm16 2-1-1h7l3-4 2 2h1l2 1v1l-3 1-7 1h-3zm-261-2v-2l-3 3v-7h1l1 1h3v4c0 3-1 4-2 1zm67-2v-3l1-1c1-1 1 0 1 3l-1 4h-1zm3 0v-3h3v5h-3zm107 1 1-3 1-1c1 0 1 3-1 4l-1 2zm-114-4v-3h1l1 2v3l1 1h-3zm68 3a3 3 0 0 1-1-2v-1h3v1c0 2-1 3-3 2zm64-2v-2l1 1 1 2v1h-3zm-104 0v-1h5v2h-5zm18 0v-1h3v2h-3zm183 0 1-1h1v1l-1 1-1-1zm-205-1v-2c1-1 2 1 2 2 0 2-2 2-2 0zm39 0v-2l1 1 1 1-1 1h-1zm-204 0-2-3-1-2-4 1v-2l5-3 2 3v-2l1-2 1 3-1 8-1-1zm96 0c-1-1 0-4 1-4l2 4h-3zm66-3v-3h2v6l-2 1zm173 2-1-5v-4h2v6h2l-1 2-1 2-1 1zm-243-1-1-2h3v4h-2zm63-2a59 59 0 0 1 2-9h2l-1 3-1 6-1 4h-1zm45 3v-1h-3v-5h-2l1 5h-3v-5l2-3 2-2 1 3v4l4 2v1l-1 2zm91 0a15 15 0 0 1 0-9h2v3l-1 4 1-2 2-2v6l-3 1zm-133-3v-3h2v5l-1 1h-1zm212 1 2-3c1 1 0 4-2 4zm-158-1 1-2 1 2-1 1-1-1zm27-1v-2l1 1 1 1-1 1-1-1zm44 0-1-4-1-3-1-1v7h-3v-6h2v-1l1-2 2 2 2 1 1 4v4h-1l-1-1zm4-2v-3h2v5l-1 1h-1zm-141-1v-4h4v7l-1-1-1-3v-2 3l-1 3h-1zm127-2v-6h4v3h-2v8h-2zm-86 2v-2h2v4h-2zm-19 0-1-4v-2h2v2l1 4v1h-1l-1-1zm74-2v-3h2v3l-2 2zm-80 1-1-1v-4h1v2l3-3v3c0 3 0 3-3 3zm76-2v-2h2v4h-2zm266-2v-2h-1l-1 1c-1 1-2 1-3-2v-3h-5v-3h4l2 2 4 2 3 2v4l-3 1zm-312-2c0-2 2-3 3-2s0 4-1 4h-1zm354-3c-2-1-3-3-2-3l8 3v1h-2a15 15 0 0 1-4-1zM3 361l-1-1 1-2 2 2-2 2zm622-8h3l1 1h-6zM2 351l1-2 1-1v4H3l-1-1zm513 0 1-1 4-2 8-1-10 5h-3zm28-2-2-2h2l5-2 2-1 13 1 2-1c3-2 4-1 2 1l-2 3-1 1-1-1-8-2-6-1-1 3-3 2a18 18 0 0 1-2-1zm-146-6a100 100 0 0 1 6-5l5-2 5-1 1 1v1h1l9-1a97 97 0 0 0 13-2l6-2 1 3h-1a12 12 0 0 1-5 1l-4 1-7 1a44 44 0 0 0-9 1l-3 1-10-1-4 3a389 389 0 0 0-5 5l-2 1h-1zM3 344l-1-1 1-1 1-1h1v4H4l-1-1zm504-3a220 220 0 0 0-17-8l-8-3h-3l-13 2h-9c0-1 1-2 3-2l2-1-11-2v-1l12 1 11 2 3-2h3l9 3h5l5-2 1-1 5 2 10 1 6 1v1h-8l-10-2h-3l6 3 5 2a15 15 0 0 0 5 3c3 0 4 2 2 2h-2v2l-1 3h-1zm8-1c2 0-13-7-21-9l-2-1 1 1 9 6 9 4 1-1a8 8 0 0 1 3 0zm87 3c-3-1-3-2 0-3h2l1 1 2 2h-5zm-69-1v-1h4v2h-4zm-10-2-1-1v-1l5 1v1l1 1h-2a21 21 0 0 1-3-1zm72 0c-1-1-1-2 1-2h2v3h-1a3 3 0 0 1-2-1zm-7-2-3-2c0-1 2-2 4-1l2 1v1c0 2 0 2-3 1zm80 0v-2l1-1 2 2-2 2zm-97-1 2-2 2-1 1 1h2l-1 1-4 1-2 1zm-190-2h-2l1-1v-1l3 1 2 1v1h-1a7 7 0 0 1-3-1zm183 0 1-1 3 2h-5zm-165 0-4-1v-2h3l6 1 3 1-1 1h-2zm128-1v-2h2l22 1 1 1v1h-25zm-166-1-6-2-1-1 2-1 4 1 7 2h4v2h-3zm88 0c-1-1 0-2 2-2s3 1 1 2h-3zm-19-3-6-2a47 47 0 0 0-8-1l-7-2c1-1 15 1 18 2l3 1h12v2h-4a79 79 0 0 1-8 0zm15-3v-1h3v1a3 3 0 0 1-2 1l-1 1zm196 0 9-5 7-3 1-2 2-5 2-3h5v1l1 3v2h-3v-5l-2 2a12 12 0 0 0-2 4 12 12 0 0 1-3 4l-16 9h-2zm-55-1c0-2 4-9 6-10a104 104 0 0 0 5-3l3-2 8-1v2l-8 2-2 1c-1 2-2 2-3 2l-4 3-2 2-1 3c0 3-2 4-2 1zm50 1 1-2h1v1l-1 2-1-1zm-65-3v-2c1 0 2 0 2 2l-1 1zm-189-5-2-3-3-1-4-2-1-1 1-2 2-2h1l1 1-1 1v2c1 0 3 0 4 2s2 1 3 1l3 7-1 1h-1zm339 3c-1-1 0-2 1-2h1v2h-2zm13 0 1-1 2 1 1 1h-4zm-61-1v-1l-7-1-1-2v-1l4 1h16l-1 2h-7l-1 2h-3zm35 0a3 3 0 0 1 1-1l1-1v3h-3zm-7-2v-2h1l1 2-1 2h-1zm-314 0-1-2h1v-1l1 1 1 2v1zm327 0-1-1 1-1 1-1-3-1 1-1c0-2 3-2 4 0l1 1-1 2v2h-1a3 3 0 0 1-3 0zm-5-1-3-1h-2l-1-2h4v1l4-1v2c0 1-1 2-2 1zm-87-3v-1l1-1c3-1 3 0 1 2s-2 2-2 0zm130-1-6-2v-2h2l7 2 6 2-1 1-2 1zm-236-1-23-4h-2l2-2 5 1 17 3 14 1v1l1 2h-2zm155 1 1-3 2-1h3c3 0 8-3 8-4v-1h-3c-3-1-4-2-2-3h4l4 1 2-1 8-5 6-4 4 1 4 1 2 2 2 1 3-3c2-2 3-3 4 0v1h-2l-3 1v2l-4 2-1-1-1-2-4 3v-1l-1-1 4-3h-1l-6 1-5 1-2 3-2 2v-1l-1-1-1 2a105 105 0 0 1-6 4l-3 3v2l-1 2-1 1-5-3h-2l-2 2-1 1-1-1zm55 0-1-1 5-3h1l1 1-2 2c-3 2-3 2-4 1zm13-1v-1h2v3h-2zm-42 0v-2h2v1c0 2-1 2-2 1zm-265-2 1-1 8-1h22l4 1v2h-37zm140 1v-2l6 2v1h-5zm9 0c0-1 2-2 7-2h3l-1 1-5 1-4 1zm-38-1v-1h3v1l-1 1-2-1zm48-1v-1l2-1c3 0 3 0 3 2l-1 2h-4zm98 0v-2h2v4h-2zm33 1 5-7 6-8 4-6 5-5h7v1l-4 2-4 2-2 3 5-1c5-2 7-2 7-1l-12 4-3 1h-2l1 7-3 2-3 2-6 4zm-99-1 2-1 1 1-2 1h-1zm-347-1-2-1 1-1 2-1h3v1c1 3-1 3-4 2zm6 0-2-2h1l1-1 5 1 2 3h-3l-4-1zm63 0v-1l2-1v1c0 2-1 2-2 1zm22 0 1-1 1 1-1 1-1-1zm284-1v-2l1-1-4-2-8-1h-4l-3 1-4 2h-3v-1l1-1 4-2 3-2h10l2 1 1 2h6l1 2-1 2-1 2h5l-1 1c-3 1-4 1-5-1zm66 1v-2l1-2h2c2 0 2 0 1 3-2 2-2 2-3 1zm-463-1v-3l-10-5-5 1-2-2-1-2h1l6-1h4l3 4h1l1-1 4 2 3 3v1l-4-2v3l1 1c0 2-1 2-2 1zm74 0-11-1-9-1h-3l1-2h2l10 1 15 1 5 1v2h-3zm222 0c-1-1 1-2 3-2h4v3h-4zm65-1v-3h1c2 0 2 2 0 3l-1 3v-3zm86 1c1-2 3-3 3-1l-1 1-2 1h-2zm63 0v-2h3l-1 1a3 3 0 0 1-1 2h-1zm-222-1 1-2 2-1 1 1-2 2h-3zm57 0-2-1v-1h5v2h-3zm94 0 1-2 1 1-1 1-1 1zm-427-1-3-1v-2h4l3 3v1h-1zm134 0v-1h8l-4 1-4 1zm166 0v-1h6v2h-6zm17 0-1-1 4 1c4 1 5 1 1 1a9 9 0 0 1-4-1zm85 0 2-3 2-2h2l2 1-4 1-1 2c-2 2-3 3-3 1zm38 0v-1l1 1-1 1v-1zm-502-1 1-1v2l-1-1zm17 1-2-1v-3h5l3-7h1l4 1 2 1v3l-3-1-1 1-3 3-1 3h-1a282 282 0 0 1-4 0zm76-1v-2l4 1v2h-2l-2 1zm312 1 2-2 1-2 1 2c2 2 1 3-1 3h-3zm-58-1c1-2 2-2 2-1l-1 1h-1zm6 0v-1l1-2 2 1 1 2h-4zm-131-2v-2h4v4h-4zm162-1v-3l1-3h-1l-2 1-1 4-1-1v-2l1-3 2-3h4a15 15 0 0 1 5 2l1 3v3h-1l-1-3-2-2h-3l1 4v5c-1 1-2 1-3-2zm172 2-1-2 2-1 1 1-1 2-1 1zm15 0 6-4 5-2 6-1h7c1 0-2 2-8 3l-8 2-6 2-2 1zm-426-1v-2h16l2 2h-18zm65-1v-2h4l-2 2-3 2zm7 1 1-1 1 1 1 1h-1l-2-1zm93 0-5-1-1-1h6c7 0 12 1 12 2v1h-4a158 158 0 0 1-8-1zm59-1-3-2 1-1 5 2v1c0 2 0 2-4 0zm7 1v-1h6v2h-6zm-19-1-1-1v-1h1l3 1v1h-1zm6-1 1-1 1 1-1 1-1 1zm31 1v-3l1-3 1 1h18l1 2-1 1a24 24 0 0 1-7 0h-6l-1 3-2-2-1-2v4h-1zm-393-2v-1h-2l-2-1v-3h6v6a1 1 0 0 1-2-1zm188 0 1-1 1 1-1 1-1-1zm162 0 1-2 2-1v4h-3zm168 0 1-2h1v-3h4v2h-3l1 1v1l-5 2zm79 0v-1l4-2a37 37 0 0 1 7-2h3v2h-1l-6 2-6 2-1-1zm14 0v-1l8-4 1 2-1 2-5 2-3 1zm-438 0v-1h4v1h-4zm199-1 2-1 1 1-1 1-2-1zm170-2v-1l2-1 2-1v1c1 1 2 2 1 3v1h-5zm-346 0-2-1h5v1c0 1-1 2-3 0zm132 0v-1h5a255 255 0 0 1 8-1h4l3 3h-21zm156 1 1-2 1-2 1 1 1 1-1 1c-1 2-3 2-3 1zm-122-1 1-1 2-1v2h-3zm-215-3-2-1-1 1h-1v-2h4c5 1 6 2 6 3v1h-5zm402 0c0-1 0-3 2-4l2-3h2v-3h-1v-1l1-1 3 3 13-3 2-2 3-2h1l-1 2v2c2 0 5-3 6-5l2-3-8 1-2 2-2 1-1-1 2-3 4-1-1-1v-1h-5l-1 2-3 2h-1l-1-3-1-2-1 2-1 2 1 2 1 3v1l-3-1h-3l1-1 1-1v-6h-4a93 93 0 0 0-7 0 24 24 0 0 1-6-1l-5-2-15-1-2 2a76 76 0 0 1-35 3h-8l-2 1v1c0 2-2 3-3 3v-5h-5l-2-2h5v-2h4v-1l1-1h2l5-2h1l-1-3h4l1 3-9 3h-1v2h6l4-2a15 15 0 0 1 5-3h2v2l1 1h2l-2-4h3l2-1v-1h-2a41 41 0 0 0-5 0h-2v-3h1l6-5-2-1h-2v3l-5 2v3h-8l-3 1-4 2h-1l1 3h-2l-2 1-6 1 2-3 2-1h-5l-5 1v-5l-6 1-7 1-1 1v-2h-3v2l1 2-5 1 2-4-2-4h-5v-3h-14c-15 0-25-1-25-2l2-1h3l9 2h3l23-1h21v2h-18l2 1 2 2v1l6 1 6-3 2 2v-2l3-1a256 256 0 0 1 6-2h3l1-2v-2h2l1 2h-1l-1 1v1h8v-1l1-1-4-2-6-2h-2l-2 5h-1l-2-1h-1l1-2 2-3-8-2-8-1-15 2-7-2-3-3v4l7 2h10c11 1 16 2 16 3l-4 1-3 1-1-1-6-1h-11l-4-1a24 24 0 0 0-7-2h-3v2l-2 2-4 1h-2v-6h5v-2l-10 1-7-3-31 1-2 1-4 1h-3v-2h2l5-1 3-1h7a185 185 0 0 0 14-1l6-1 6-2 21-3 11 1-1 2-20 3-1-1h-5l-5 1c0 2 4 3 10 3h11l1-1h1-8 2l6-1h5l1 2h7l11-1 5-1-9-2-13 2v-2h4v-4l2 1v1h9v-2l-6 1 2-2 1-1h7l5-2 4-3 2 2c3 2 7 3 11 2l3-1v4h-7l2 2 13-1 2-3h-6l-1-1v-1l4-2a59 59 0 0 1 8-3l4-2 10 2 5-1 14-1h9l1 1c2 2 11 3 12 3l1-1 1 2 3 2 3-2 2-2 3 1-1 1-2 2v1h7v-3l1-3 8-1 7-1 1-2 8 1 1-1 2-1h2l-1 3 6-2 1-1c1-2 3-2 3 0l1 1 9-4 9 1 2-4h4v2l1 2 5-1 1 6 4-2v2c0 3 1 3 3-1l1-3 10-1 2 2 5-2 1 1 2 2v1h4v2l1 2 1-1 3-2 1-2 5 2v3l9-1v3l6-3v-3l1-2 6 1 1-2 3-2 2-1v3l6-1v1l1 1h5l1 4 2-2c2-2 4-3 4-1l2 1h1l1-1v-1l5 2 2-3 4 2 1-2 1-2 3 2c3 2 3 2 3 0v-1h3l1 2 1 3 6-4 5-4 3 2 1-1 1-2 15-1h15v1l-2 2-3 2-3-1h-3l-4 1 1 1 1 2h5v1l-2 1-2 1v2l1 3-7 2-7 3 2 2 2 1 1-2c1-2 3-2 3 0v1l1-1 1-1v2l-3 2-2 1 2 1 1 1 2-1a18 18 0 0 1 6-2l3-1v3h-3l-1 3h-5l-6-2-2-1-10 5-6-1-5 2-2-1-1-1-11 1 2 1v2l-1 1-4 1-8 2-3 2v1c0 2 1 2 2 1l17-7 15-2-1 2-2 2-6-1-3 2a24 24 0 0 1-6 4 62 62 0 0 0-5 1l-1 1 1-5-6 3v3l-3 1-5 2-10 5-5 2-4 2h-8c-7 0-19 2-24 4l-2 1v-3h-8v3h-5l-1 2-1 2h-6l-1-2-1-2-9 1-1 1-7 3a579 579 0 0 0-7 2l-2 3c0 2-2 2-3 0v-2h-1a3 3 0 0 1-2-1l-1-2 5 2 3-2 3-1h1l4-3-8-5-8 1v-2h3l6-2 3-1 10 1 1-2v-1l-1-3c-1-2-2-2-3 0l-2 2h-1l1-5-1 1a9 9 0 0 1-2 0v2l1 1h-3l-4 3-1 1h-10l-2 3h-5v-1l-2-2h-2l-13 8-1 4 5-2 7-2 3-2 2-1v1l-3 3-3 2c0 2 1 2 4 0a204 204 0 0 1 7-3l3-2 3 1 4 1h1l-4 3-1-1-4 2a15 15 0 0 1-5 2l-2 1-3 1-2 1v-3l-3-1-13 1-12 3-8 1-2 2a55 55 0 0 1-8 7v-1zm54-15-1 1-1 1h1a1 1 0 0 0 1-1zm48-4-2-1-2 1v1h4zm-6-1v-1l-11-2-3 1-5-1-6 1h2c3 2 10 3 16 3h6zm8-3h2v-2h-3c-2 0-3-1-3-2h-5v2l-3-1-2-2h-2v3h1l6 3 5 1 1-1 3-1zm-70 0 1-2h9l1-2h-9l-4 1-2-4-2 1-1 1v2l2 1h2l-1 3h1zm-90-1v-2h-2v3c1 1 2 0 2-1zm21-2 5-1 3-1v-2c0-1-3-3-4-2l-1 2v2h-6v1l-1 1-3-4-2 3-2 2c0 2 3 2 6 0l5-1zm-14 1 1-1h-2a9 9 0 0 0-3 2l-1 1 2-1h3zm72 0 2-2h-2l-6 2v1h2zm103 1 1-2v-1l-5 2h4zm28-3 4-1 3-5-1-1-2-1-2-2-1-1v3h-7l1-3h-3l1 3h-2l-3-2-2-1h-2l-1-3h3l-4-4-1 1-2 2 2-1 1 3 1 3-8-2-3-1h-1l1 3 3-1v1l1 2h1l2-1v-1l2 1 1 3v1l19-1 3 1v3l-5-1-3 1c-4 2-12 3-16 3h-3l-2 2 21-1zm-141 0h1-7l-1 1 3 1 4-1zm106 2-1-1-1 1h2zm-117-5 5-4-5-1-7-2h-2l1 3 3-1v2l-3 2-4 3 7 2c1 0 3-1 5-4zm53 4a6 6 0 0 0-2-1h-1l1 1 2 1h1zm60 0v-1l-3-1a131 131 0 0 1-6-1h-2v3h2l5 1h4zm-64-3v-2l3-3h-17l-3 2-8-1-1 2h13l1 1 11 3h1zm-4 0-3-1h-2v-2h2c3 0 5 1 5 2s-1 2-2 1zm76 0v-1h-4a12 12 0 0 1-5-1 9 9 0 0 0-4-1h-3v-5h-2c-1 0-3 2-3 5v1h1l9 1c8 3 10 3 11 1zm-134-1c0-2-1-2-2-1l-1 1-3-2-2 1-2 2v1h10zm33 0h-1v2h1v-1zm34 0v-2l-1 1-2 2v1h1l2-2zm4 1-1-1h-1l-1 1v1h1l2-1zm73 0a4 4 0 0 0-2 0l-1 1h5zm8 0v-1h-6l1 1h5zm-163-1-1-1-2 1v1h1l2-1zm38 0-1-1c-3-1-8 0-8 1v1h9zm131 0h-1l-1-1v1l1 1zm18 0a12 12 0 0 0 4-3l1-1h-1l-8 4h4zm-92-2 2-2 13 1 1-2h-2l-7-1h-6l-1 1-3 2h-2v-3h4l-3-2-1 1a12 12 0 0 0-2 4l-1 3 7-1zm62 0-1-1-2-1-2 2-2 1h4l3-1zm-219 0 1-1 2 1h2v-1l-1-1c-2 0-2-1 0-2a24 24 0 0 0-11 0l-2 1h9l1 2h-4v1h3zm46 0v-1h4l1-1 1-1-3-1-3 1c-4 1-5 4-2 4h2zm100 0v-2l-5 2h5zm35 0v-1l-2 1v1h1l1-1zm-121-2-2-1-1-1v4l2-1h1zm-47 0-2-1-1 1 1 1 2-1zm164-1v3l1-2zm30 1-1-1-2 1h-2v-4h-1c-2 0-2 1-2 3v2h9zm-166-1-1-1-2 1-1 1h5zm24-1 1-2h-1c-1 0-2 1-2 3s1 1 3-1zm8 1c1-2 0-2-2 0l-2 1h2l2-1zm31-1a15 15 0 0 0 4-3l-4 1-4 1h-10v1l6 2h3zm13 1-1-1v3l1-1 1-1zm-81 0-2-2-1 1 1 1 2-1zm113-1v-1l-1-1-2 1a15 15 0 0 1-4 0h-2v-3l-1 2a6 6 0 0 0-1 2v1h5l6-1zm100 0-1-1h-2v2h2l1-1zm-242-1h-1l-1 1h1l1-1zm14-1c2-1 1-2-1-3h-2l-3 2-2 3 4-1zm107 1h-2l1 1zm54-3v-1l-2 1-4 2h-1l5 1 1-1 1-2zm-106 2v-2l-2 2v1h1a1 1 0 0 0 1-1zm49-2 5-2 6 3 2-2-2-1h-10l-5 2-1-1-1-2v4l-5-1v3h6zm42 2h-3 3zm21 0 1-1-3-1c-2 0-3 0-2 1 0 2 1 2 3 0zm-130-1-2-2h-2v-4h-4l1-1v-1h6l-3-6v1l-1 2-4 1v4l-1 2v1l3-1 1 1c2 3 6 4 6 3zm24 0-1-1h-1l1 2v-2zm16 0a6 6 0 0 0-1-2l-1-2-1 1-1 1 1 1c1 2 3 2 3 1zm63-1h-7l-5-1-5-1-1 1h2l9 1h10zm40 0h1l-3-3h-5v2l-3-2-2 1 3 3h4a186 186 0 0 0 5-1zm6 0v-2h-2v3h2zm38-3-3-6v3l1 3h-3l-2-5-4 2v6l2-1 1-1v3l4-2 4-2zm7 3 1-1v-1h-2l-8 3 9-1zm22 0a12 12 0 0 0 4-2l1-1-4 1-5 4zm-229-1 1-1h-7v-2l-2-2-1 4v2h8zm3 1 1-1h-1l-1 1h1zm42-2h1-4v3l1-1a12 12 0 0 1 2-2zm125 0v-3h-2v6h2zm-43 0v-3l-2 3 1 1c0 1 1 1 1-1zm5 0-1-1-1 1v2l1-1 1-1zm3 0-1-1v3-1l1-1zm51 1-1-1-1 1 1 1 1-1zm-205-4v-4l3 1 3-5-1-1v-1h-3v3h-8v-1l-6-1v1l2 1 2 1v1h-17l1-2v-1h2l5-1c6-1 5-1-3-1h-8v1h-2l-1-1 1 3-3 1 10 3 8-1a235 235 0 0 1 8 0h5v3l-14-1 5 4 4-1 2 1 3 1h2zm35 3-2-1h-2l1 1 2 1h2zm168-2v-1h-2v3l2-2zm-195 0v-1h-1v1l1 1zm9-1-2-1v2l2-1zm69-1-2-1c-2 0-3 0-1 2l1 2 1-2zm10 2h6v-1l-15-1v3l1-1zm48-1 1-1-3 1-2-4-1 1c-1 1-1 2 1 2h1v1c0 2 2 2 3 0zm83 1-1-1h-1l1 1v1zm3 0 1-1h-1l-2 1v1h1l1-1zm-184-1v-1h-1l-1 1 1 1zm67 0h-1v1h2zm18-2v-2h-2v2l1 3 1-3zm6 0v-1l-2 1c-2 0-3 1-2 2s3 0 3-2zm12 1 1-1h-1l-1 2 1-1zm27 1-1-1-1 1 1 1 1-1zm4 0-1-1h-1v1l1 1 1-1zm5-4v-4l-2 1v8l2-1zm57 4v-1h4v-1h-3c-3 1-4 3-2 3a1 1 0 0 0 1-1zm-322-1v-1 2zm144-1-1-1-1 1v2h1zm16 0h-1v2h1v-1zm25 0v-1l-1 1 1 2v-2zm93-2v-1 5-1zm-87 2-1-1v2l1-1zm53-1c1-3 0-3-1 0l-1 2h1l1-2zm8-1v-4h-2v7h2zm21 2v-1l-1 1-1 1h1l1-1zm-185-1v-1h-3l2 1h1zm33 0 1 1 5-2-9-2-2 1-2 2v1l6-2zm56-1h-1v2h1v-1zm25-1c0-3 0-3-2-2v5h2zm3 1v-2h-2v4h2zm115 1h3l-2-1h-6v1h5zm-218-1-1-1-1-1v2l1 1 1-1zm33 0v-1l-1 1 1 1v-1zm153 0-1-1-1 1 1 1 1-1zm-192-2v-1h-3l-1 1 1 1c1 2 3 1 3-1zm43 1v-1l-1 1-1 1h1l1-1zm43-1c0-2-2-2-3-1v2l1 1h1l1-2zm102 1v-1h-1v2zm22 0v-1l-2-1v2c0 1 1 2 2 0zm-193-1v-1h-1l-1 1 1 1zm46 0-1-1v2l1-1zm109 0-1-1-1 1 1 1 1-1zm-178-2v-2h-1l-1 1-1 1 1 1 1 1h1zm158 1v-1l-1 1-1 1h1a1 1 0 0 0 1-1zm11 0v-1 2l1-1zm43 0-1-1-1 1 1 1 1-1zm-155-3v-2l-1 1-2 1h-1v3h4zm26 2 1-1h-2v-3h-5l2 3c2 2 4 3 5 1zm21-4 1-1-1-1h-1l-1 2-2 1v3l1 1 1-2 1-3zm0 3v2l1-1-1-1zm-90-1h-1v3l1-1 1-1zm12 0-1-1v3l1-1zm21 1-1-1-1-1v2l1 1 1-1zm68 0-1-1-1 1 1 1 1-1zm10-2c-1-1-2 0-1 2l1 2zm62 2-2-1v2l1-1zm-152-1h2l-9-1v2h2a21 21 0 0 0 5-1zm25 1-1-1-1-1v1l1 1zm75-3-1-2v4l1 1v-3zm128 2v-1c-1-1-3 0-3 1h3zm-151-1-2-1h-2l1 1 2 1h2zm41 0v-1 2l1-1zm93 0v-1h-3v2h1a3 3 0 0 0 2-2zm5 0 1-1h-3v2l2-1zm-296-1h4c0-2-2-2-8-2l-5 1-1 3 3-1zm37-1 5-2-1-1h-6l-1 1a25 25 0 0 1-4 3l-2 1h2a26 26 0 0 0 7-2zm16 0v-1h-4l-6 1-3 1h4l7 1h3zm12 0v-1l2-2 3 3 1-2 3 3v-2h17l2 2 4-4-11 1-1-1v-1h1l1-1h-7a59 59 0 0 0-24 6l-2 1 3-1a19 19 0 0 1 4 0h3l1 2h1zm-103 0-2-1-2 2h4zm145-1v-1l-1 1-1 2h1l1-2zm67 2-1-1v1h-1 3zm64-4-3-1h-3l1 2 1 2 2-1 2-2zm-231 1h-3 1l1 1h2zm183 0h-3v1h3zm9 0h-3v1h1l2-1zm24 1-1-1-1 1h3zm-57-2v-2h-2v3h2zm45 1c0-2-2-3-3-2l2 2a1 1 0 0 0 1 0zm30-1h-1l-2 1h2zm15 1v-1h-1l-2 1h-1 4zm56-2c-1-1-3 1-3 2v1l2-1v-2zm-254 1 1-1h-4v1h3zm71-1-1-1v3l1-1h1zm6-2v-1h-1l-1 3v2l2-2 1-1zm-135 2-1-1v1l-1 1h2zm158 0h-3 3zm4 0-1-1-1-1v2h2zm106 0-1-1-1 1v1h1a1 1 0 0 0 1-1zm48 0-1-1-1 1-1 1h2a1 1 0 0 0 1-1zm-282-2v-1h10l1-1-9-1-4 2c-3 0-4 2-4 2l2 1h3zm153 1-2-1-1 1 1 1 2-1zm59 0-1-1-1 1a1 1 0 0 0 2 0zm-196-1-1-1h-1l-1 2h2zm10-1h-3v2l2-1 1-1zm53 1 3-1h2v-2l-6-1-1 2-1 2h3zm10-1v2l1-1zm17 0v-1l-1 1v2h1v-2zm103 1-1-1-1 1 1 1 1-1zm80-2 3-2-3-1h-2l-1 1c-2 1-2 4-1 4a12 12 0 0 0 4-2zm-260 0v-1l-1 1-1 1h1a1 1 0 0 0 1-1zm109 0-2-1-2-1-2 1 2 1h3zm-98-1h-1l-1-1v1l1 1zm69-2h-2l-1 1h2l1-1zm103-1a4 4 0 0 0-2 0l-1 1h4zm-50 71-1-1 1-1 3-1h-12l-12 1-3-1-2-1v-1h32v1l1 1h2v3h-9zm-467-1h-3v-2h6v3l-3-1zm324 0v-2l2 1-2 1zm-356-2 1-1 2-3 1-2-2-2-2-1 1-1 1-2v-1l-2 1-3 1-1-2-3-1-2-1-1-1-1 1-3 1-1 1-4-6h-5l-6 4h-5l1-3 6-1-1-1-3-1-6-1-3-1v-2l2 1 7 1h5v2l1 2 3-3 8-1 9 4 9-31 2-9 2-1v5a1072 1072 0 0 1 3 31l1 3h-2l-1-6-1-13v-6l-1 1-1 1v37h3-1l-2-1 2-2 2-1h1v-3l-1-2 3-1 2-2 10-5c1 1-2 4-4 4l-3 2-4 3h-1l2 5h-2l5 4-1 4h1l1-1 2-1 3-2 2-2 1 1c2 1 1 2 0 2h-2l2 1 1 2v1h-4v-2l-6 3-4-1-1 1-2 1c-1-1 0-3 2-3l2-1-4-4 1 2h-3l-4 3-4 4zm-12-19v-1h-2c-3 0-3 1-2 2v1l4-1zm61 20 1-1 2 1v1h-4zm360 0 2-2 2-2 2 1-3 2c-2 2-3 2-3 1zm-134-1 1-2 1 1-1 1-1 1zm-278-2 1-2 1 1-1 2h-1zm314 0-4-1v-1l18-1 2-1 9-3 8-1v2l-16 3-2 2h6l1-1v-1l1 1-1 3h-7l-1-2-9 1zm124 0v-2l11-2 11-1h1v1l-6 1-16 4h-1zm-147 0-3-2v-1l18 1v2h-16zm140-1 1-2 1 1-1 2h-1zm-357-1 1-1 1 1-1 2-1-2zm470 0v-2c2-1 2-2 0-2l-2-1c0-1 3-2 8-2l7-1 2-1 2 2-1 1-6 2h-6v2c0 1-1 4-3 4h-1zm-676-1-1-2h-2l-1 1v-4l1-1 3 3 3 3c0 2-1 2-3 0zm483 1 5-4v4h-3zm-453-2 1-2h2l-1 1-1 2-1 1zm321 1 1-1h11v1h-12zm27 0v-2l-8 1v-1l-1-1h9l2 1 2 2h-4zm11 0c1-1 1-2 3-2h1v1l-2 1h-2zm108 0c0-2 1-5 4-6l3-2 9 1-1 1-6 1-5 1v2l-1 2h-3zm142 0c-2-1 0-2 3-2l5-1h1l-1-2-6 1 1-1v-2h7l6 3 3-1a59 59 0 0 0 10-4l6-3v3l-4 2-6 3c-1 2-3 2-13 3l-8 1-4 1zm-674-2v-1h3l-1 1a3 3 0 0 1-1 1l-1 1zm152 0h2l2 1 1 1h-5zm9 1 1-2h3l1 2v1h-6v-2zm197 0v-1h1l4-1 6-1h3l1 2 10-1v1l-12 2-5-2-1 1-5 1h-2v-2zm80-1v-1h1l1 1v1c-1 1-2 1-2-1zm207 1 15-3h4v2h-9l-9 2h-2zm-498-1v-2l2 2h-2zm346 0v-1l3-2 2-3 8-1 12-1h4v1l-3 2-3 1v-2l-5 1h-3l-2 2-3 1v-3a18 18 0 0 0-7 4l-2 2zm108 0a2 2 0 0 1-1-1v-2h7l-1 2c-3 1-4 2-5 1zm-552-1v-2l3 2h-3zm406 0v-2h2l3 2v1h-5zm-39-1 3-1 3-2v-1h5v3l-4-1-2 1c-2 2-5 2-5 1zm25 0h-1l1-2h11l-1 2h-9zm-236-1 4-3 5-2 2 1 3 1v1h-7l-2 2h-5zm348-1v-1l4-1-1 2-2 2h-1zm186 1 2-3h2l-1 2c0 1-2 2-3 1zm-607-1c-2-2-2-4-1-4l3 2 1 3zm261 0v-1h3l-1-1-1-1 15-2c1 1-1 2-3 2h-2v3h-3l-6 1h-2zm36-1a9 9 0 0 1-1-2l3-1h3v1l1 2v-2l2-1h1v3l1-2 1-1h4l3-1-1 1-3 1h-2l-2 4h-9zm31 0v-1h10l1-1 2-1h1v3l13-1v2h-27v-1zm-468 0 1-1 1 1 1 1h-1l-2-1zm380 0 1-2h3v3h-4zm7 0v-1h6v2h-6zm-315-1v-1h3v1l-2 1-1-1zm303 0 2-2h1v3h-3zm163 0 5-4 1-2h4v3h-4l-1 2-1 2h-4zm29-1v-2h2l5-1 3-1 1 1 1 2h-5l-5 2h-2zm-321-2-6-1v-3l14 5c0 1-1 1-8-1zm30 1 2-1 1 1-2 1h-1zm-64-2-6-2h-3v-3l3 1 4 2 3 1 3 1 1 1-1 1a15 15 0 0 1-5-2zm274 0 1-1-2 1-4-2-1 2-2 1-1-2v-3l-3 2-10-1v1h-3a32 32 0 0 1 11-5l3-1 1-1 3 3-1 1v1l4-1 6 2 6 2-7 3h-1v-2zm-15-4v-1 3l1-1zm2 0v-1 3-1h1zm37 5-1-1 1-1c2-1 3 0 1 2v1zm44 0c0-1 2-3 4-3h2l5-3v1c1 2 0 3-1 3l-2 1-1 2h-7zm-418-1v-2h-2l-5-2-4-2 3-2 2 1c1 1 3 3 5 3l3 1 2 1c3 0 3 2 0 3s-3 0-4-1zm-175-1 1-1 2 1v1h-3zm494-1h-2l1-1h4c0 1-2 2-3 1zm-438-2v-2h1l2 2v1h-3zm194 1c0-1 4-3 7-3 2 0 2 1 0 2l-5 1-2 1zm12 0v-1l2-1 6-1h3l1 2h-3l-5 1-3 1zm35 0h2-3zm-135-2v-1h1l1 1 1 2h-3zm140 1 1-1 1 1-2 1h-1zm180-1v-1l2-2v1l1 1h3l7-1 3-1v1l-11 3-4 1zm302 0v-1c1-2 17-8 22-8h2v3l-3-1-7 2-10 4-4 2zm-392-2 1-2 2 1c2 0 2 0 2 2l-3 1h-2zm9 1a3 3 0 0 1-1-2v-1h3a12 12 0 0 0 5-1l7-2 5-1 7 2 8 1 1 1v1h-2l-8-2h-7l1 3h-2v-3a221 221 0 0 0-17 4zm50 0 1-1h5l-2 1h-4zm68 0v-1l1-1h8v1l-1 1h-4l-3 1zm-525-1 1-2h2v1c0 2-1 2-3 1zm148-2-2-2-9 1 1-3c0-3 1-3 4-4l2-1v2l-2 1-2 1v1h8l4 4 16-1-2 1-1 1-14 1zm315 1h8l-1 1h-7zm-126 0c0-2 2-3 4-3h2c0 2-3 3-5 3h-1zm-366-1v-1h6v2h-6zm54 0v-2h3l1 1v1h-4zm448 0a41 41 0 0 0-7-1h-4l1-2 2-2v-1h4v1l-1 1h-1l5 1a178 178 0 0 1 9 1h1v3h-3a34 34 0 0 1-6-1zm10 0v-1h4v1l-1 1-3-1zm-358-1v-1l9-2 1 2h-1l-5 1-4 1zm371 0v-1h10l1 2h-11zm18 0 4-2c1 1 0 1-2 2l-2 1zm-421-1v-2l-8 2-8-2-5-5h-4l-2-1-1-3v-1h3l1 1h5l6 6h3l8-7 13-3 1 1h7l-1 3-8-1-11 2-2 2-2 2a3 3 0 0 0-2 1l-1 1 9-1 8 3-1 1v1l-7 1zm19-1-3-2v-2h1l3 1 6 2 4 1v2l-7-1zm233 0v-1h6v3h-6zm15 1v-1h-7l-1-2h3l6-1h3v1l-1 1h-2v1l-1 2v-1zm10 0v-2h7v1c0 1-2 2-5 2h-2zm119 0c0-2 4-3 8-3h3v1h-2c-2 0-2 1-3 2v1h-6zm-175-2v-1l4-2c4-2 7-2 7-1l-10 6-1-2zm84 1-5-2-7-2-3-1h-9v-1l7-1h6l2 2 10 3 8 2 1 1h-4a15 15 0 0 1-6-1zm-354-3v-1h1l2 2v1h-3zm293 1-4-1h-3v-3l6 1 5 1 1 3h-2a7 7 0 0 1-3-1zm109-2-1-1 1-2h6v-2l-14 1v-1c0-1 3-2 9-2h6l2 5h6l1 1v1h-4l-8 1-4 1zm4-1h-2v1h2zm24 2-1-1h10v2h-9zm-43-1c0-1 2-2 7-1h3v2h-10zm-439-1c-2-2-2-3 0-3l2-1v-1l1 1v3c-1 2-2 2-3 1zm820 0-1-1h1l12-3h2l-1 1v2l-13 2zm-790-1c-1-1 0-2 1-2h1v2c0 1-1 2-2 0zm11 0-1-1 3-2 1 2-2 2zm116-1 1-3 1-2-3 1-4 1-2 3-1-2 2-2-11-2-8 3-1-1h1l1-2 2-1v1l9-3 2 3h19v1l-3 3-3 2h-2zm11-3-1-2v-2l2 1h2l3-1 4-2 13 1v1h-3l2 4h-3v-1l1-1-3-1-4-1h-2l-5 3c-4 2-6 3-6 1zm38 0c0-1 4-3 8-3h4v1l-1 1h-3a9 9 0 0 0-4 1h-4zm44 0 2-1 2-1 1 1c1 1 1 1-3 2h-2zm217 0v-1l-12-3h-24l-8-2h-3l-1-1v-1h5l6-1h2v3h6l3 1 2-2h2l8 1 11 2 6 1v1l-1 2-1 1-1-1zm-403-1-7-2-5-1-14-1-4-2-4-1h-2l2 4-2-1-1-2v-1l-3-1-2-1v-1h3l10 2 11 1h6l1-3 5-1-2-2c-3-2-5-2-5-1l-1 1-10-5-6 2-5-4-14-2-5 2 1-3v-2h2l19 4 3 1 8-1 1 2 1 1 3-1 9 2 2 2 2 2h8l13 2 6 1 2 1 1 3v1l-2-1-6-2-5-1h-8a74 74 0 0 0-11 0l-4 1v2l3 1c4 0 10 4 10 5h-4zm61 0-1-2h2c2-1 3 0 1 1l-1 1zm71 0-2-2c0-1 3-1 6 1l2 1h-6zm-249-3v-2h3v3h-3zm321 0v-1l1-1c2 0 3 0 2 2h-3zm104-1v-2h2a15 15 0 0 1 4-1h3v-3h3l-1 3h12l-1 2h-8l-10 2h-4zm-48-3v-3l-2-1a9 9 0 0 0-4-2h-2l-1-1-4-2h-3l-10 1v-1l1-2h12l4 1 6 2 4 3 3 2h2l6 1 5 1v2h-4a122 122 0 0 0-8-1l-3-1v2l-2 2h-1zm83 1v-1l-4 1 2-2 11 1v2h-9zm-306-1v-1h4a18 18 0 0 0 6-2h3l-5 4h-8zm178 0a3 3 0 0 1 2-1l1-1v3h-3zm-332-1v-2h3l-1-2-2-1v-4h1l2 2c0 2 2 2 3-1 2-3 2-3 0-3l-2-1v-1l9 1 1 1v2h-2c-2 0-3 1-4 4l-1 1 3-1v3l-2 1a15 15 0 0 1-4 1l-3 1zm337 0a2 2 0 0 1 0-1v-1h4v1c0 1-3 2-4 1zm-163 0v-1l3-1h8-1a18 18 0 0 1-6 2h-4zm58-1v-2h2l6-1h4v2h-5l-5 1-2 1v-1zm-45-1v-3c1 0 6-3 7-5v-2h3l3-1 3-1 3 1v1h-2c-3 0-8 2-8 4l-2 1h-1l-2 3c0 2-2 3-2 3zm134 0-2-2-3 1-6 1h-3v-1l-1-2h8l2-1 4 1 6 1 7-2 5-2 11-1 1 1v1l-13 2-6 2-6 2zm26 1c-1-1-1-3 1-3l1 1-2 2zm54-1h-3l-7 1v-2l8-2 9 3 1-2h-3v-3h4l5-1h1l5 4 10-1 2 3h-6l-6 1-8-1h-1v1h-5a38 38 0 0 1-6-1zm14-3a8 8 0 0 0-4 0h-1 6zm-166 2 1-1h4l5-1-1 2v1h-10zm19 0-4-1v-3h2l-1-2v-2h1l1 2v2l3 1 6 1h3l-1 1-1 1h-3a145 145 0 0 1-6 0zm197 0-8-1v-2h1l9 1h12l5 1v2l-5-1-14-1zm-259-3v-2l2 2-2 3zm-164 0c-2-1-2-3 0-3h1v2c1 2 1 2-1 1zm339 0v-1h4l9-1h5v2h-4l-10 1h-4zm-181-3v-1h3v1l-2 2h-1zm259 2-7-1h-8l-1-2 5-1a62 62 0 0 0 8-3 134 134 0 0 1 7-3l3-2v-1h4l9-7 1-3 1-3 6-4 5 1v-2l1 2v1l3-1a37 37 0 0 0 6-3l5-3 7-3 6-2 8-4 7-4 8-2 13-3 35-3a212 212 0 0 0 31-2 198 198 0 0 0 45-3l41-4 22-3h10l10-4 1-4 6-3 6-1 15 2 10 1 2 3v4l-1 3h6a927 927 0 0 1 88 9l14 1 12 1 9 1 6 1 1 5h-5l-7-3-14-2v2c0 2-1 2-2 0l-1-2-3-1h-14l-2-2h-4a322 322 0 0 0-78-6l-11-1-17 2-1 1-1 2v-2l-10-3h-39l-10 2a310 310 0 0 1-21 3 1378 1378 0 0 0-26 3l-19 1-24 1-26 1a154 154 0 0 0-31 4l-10 1-4 2-9 3-29 12-5 3h-7l-7 1-1 1v1h5v1l-3 1-2 1v-1l-1-1-1 1-1 1 3 1v3h2l-1 2-2 1h-1l-1-2-1-3-2 2-2 2a24 24 0 0 0-5 3l-5 3v2l3 2 1 1-3 1-7 1h-4v-2l4-1 4-1 1-1h-1l-6 2-7 3h-2 3l6 1 2 1v1h-4zm314-66 1-1v-1l-7-1-4 1c-3 0-4 1-4 2h14zm6-2v-2l3-1-1 1-1 2h1c2 0 1-3 0-5l-2-1-1 1-1 1-14-1 2 2 11 1 1 3-3 2 4-1zm-24 1a5 5 0 0 1-2-2c-1-1-3-2-4 0-1 1 0 2 4 2h3zm32-3 1-3-1-1-1 1c-2 2-2 6-1 6l2-3zm-25-1-2-1h-1v-1l1-3c2-2 0-2-3 1-4 2-5 4-3 4l1-2 1-1h1v4h6zm14-4h-1l-2 1h2c1 0 2 0 1-1zm-11-1-1-1-1 1-1 1h3zm6 0v-1h-4l1 1 2 1 1-1zm-293 76v-2h13l1 2h-14zm-423-2 1-1v3l-1-2zm264 0-6-1-3-1-2-2h-11v-2h2l6-2 8-1h4v2h-3l-4 1h-1l5 3h9l2 2h2l-1 1-1 1a615 615 0 0 0-6-1zm108 0a504 504 0 0 0-20-2c-12-1-17-1-23-3l-4-1h-8l-19-2-19 1-10-1v-2l21 1 9-2 7 2 8 1 1-1v-2l3 2 3 1h5l-7-5c-3-3-7-4-8-4l-1-1-3-3-3-2-2-2-5-3-5-3-4-2-3-3h-5v-3l-10-5a107 107 0 0 0-30-12l-10-4a144 144 0 0 1-8-2 899 899 0 0 0-173-14h-39l-1-2 2-1h47a1083 1083 0 0 1 92 3 360 360 0 0 1 106 23 161 161 0 0 1 36 18l4 3 4 2 6 4a122 122 0 0 0 17 12l11 7 13 2 22 2 14 1 2 1v1l-1 1-12-1zM5 234v-2l1-2h7l-2 2 3 2-7-1v1l-1 2zm277-3 1-2h5l2-1h4l7-1 3-1 9 1-2 1-7 1h-6l-3 3h-3l2-1c3-1 2-2-2-1l-7 2h-4l1-1zm122 1v-2h18l-1 2h-17zm152 0a3 3 0 0 1 2-2l1-1-1 2a3 3 0 0 1-1 1l-1 1zm-483-2 1-1h3l-1 2h-2zm260-3-7-1-11 1v-3h8v-2l-5 1-30-1h-14v4l-4-2v-2h-10l-23-7h-5l-9 2-6 1h-20v-2l13 1 9-2 12-2 4-1 7 2 13 4 7 2h54l-1-1-2-2h5v2l1 1h6l41 2h3v2l-18-1-6 1-1 2v1h5l-1 1h-2l-3 1h-3zm8-2v-1l-5-1-7-1h-3v2h8l2 1 4 2h1zm206 3h-1 1l6-1h4v1l-6 1h-4zm-176-1v-3l3 3h-3zm-237-1 1-1 2 1-2 1-1-1zm149 0-3-1 2-1 2 1 2 1v1l-3-1zm268-2v-1h2c5-2 6 0 2 2-3 1-4 1-4-1zm193 0v-2h4l-1 2-2 1-1-1zm8 0-1-1v-1l3-1h2v3h-2a9 9 0 0 1-2 0zM8 220l-2-3h3l3 1v1c0 3-2 3-4 1zm557 0 4-3 4-2v-3 1l-7 4-1-1v-1l9-4 1 2 1 2-4 3-7 2zm-461-3h3v-3h5l-3 2c-3 3-5 3-5 1zm197 0a44 44 0 0 1-8-1l-3-1h-12l2 2h-2l-17-4-14-5-13 1-15 1h-4l2-2 6-1h27l7 2 11 4 7 2 2-2 11-1 5 1 8 2c4 0 8 1 8 3h-8zm565 0-2-1c0-2 2-2 3-1h2l-1 2v1zm-509-1v-1h1l2 2v1h-3zm396 0v-2l3 2h-3zm-545-5-7-3h-11a96 96 0 0 1-6 0l-5 1-8 3h-5l-1-1v-1h-11l-13 2h-3l-2-1c-5-2-3-4 1-3l3 1 5-1 10-1h6l7 2 3-1c4-1 9-2 19-2h8l5 1c5 1 14 6 14 6 0 1-2 1-9-2zm-111 1 2-1 1 1-1 1-2-1zm747-2v-3h-2a11 11 0 0 0-3-1h-2l-1 2c-2 3-3 3-2 0v-2l5-2 6-2h2l-1 9-2 1zm7 0-1-1 2-2 1-1v6h-1l-1-2zm-494 0-1-3 1-1 2 4-2 1zm586-1 1-1 2 1 1 1h-4zm-849-3v-3l4 1 2 3v1h-1l-1-1-2-2h-1l1 4h-2zm11 1v-2h1v2l-1 1v-1zm9-1c-1-2 0-2 2-1l1 2h-1l-2-1zm633-3v-2h4v1l-2 2h-2zm208 0 2-2v3l-2-1zm-2-5-2-1 3-3 1 2c2 1 2 3 1 3zm-327-1-2-1h5v1h-3zm-538 0 1-1h-2c-1-1-2-3 0-3l3 1 2 2-5 2zm39-4 1-2 1-1 1 2c0 1 0 3-2 3h-1zm581 1-1-2 1-1 3 2-3 2zm-584-1 1-1 1 1 1 1h-2l-1-1zm535 0 1-1 1-1v1l1 1 3-1v2h-6zm53-1v-1h3v3h-3zm-35 0 1-2 1 2-1 1-1-1zm-537 0-1-2h3v2zm553-1-1-1h1l2-1 1 1v2a6 6 0 0 1-3-1zm126-1-1-2 1-1 2 2v3h-2zm-100 0v-1l2 1c0 2-1 2-2 0zm-20-1v-1h4c3 0 5 0 3 1l-4 1h-3zm108 0v-2l1 1 1 1-1 1-1-1zm69 0v-1l1-1 2 2-2 1zm-49-1 1-1 2 1-2 1-1-1zm66 0 1-1v2h-1zm-790-1-2-1 1-2h3c2 1 2 2 1 3h-3zm7 0v-2h4v2l-5 1zm6-1v-2h1l1 1c1 3 1 3-1 3h-1zm740 0v-1l2-2 2 1c2 0 3 2 1 2l-2 1h-2zm-764-1v-2l3-1h1v1l-1 2-2 1zm278-1-1-1c1-1 5 0 5 1h-4zm-219-2-2-1v-3h4l1-1 1-1 2 1v1h-3v3l-1 1h-3zm202-1 1-1 1-1v2l-1 1-1-1zm-253-2-1-2 4 1 1 1v1h-2l-2-1zm15-1-2-1h-3l-5-1-2-1 4-6h5v1l-2 2-3 1 7 1 5 4-1 1c-1 2-1 1-3-1zm8 0v-1h2l2 1v1h-5zm0-5-1-1 2-1h3l1-1-4 4zm7-2-1-1h5v3h-2l-2-2zm-11 0-2-1c-2 0-7-3-8-5v-1l3 1 2-1 1-1 1 1-2 3 7 1v1l1 2-2 1zM7 167l-1-3 1-2v-2l3 1v4l1 5H9zm98-11 1-1 1 1-1 2-1-2zm2-2c1-1 3-2 3 0l-2 1h-1zm8-6c-1-1 0-3 2-3h2v2c-1 1-3 2-4 1zm32-1-1-2h1l2 2v1h-1l-1-1zm-23-1 1-2 1 1v2h-4zm-11-2 1-2h1v2h-3zm-21-2v-1h5v1h-1a9 9 0 0 0-2 1l-2 1zm28 1c-2-1 0-2 2-2l4 1-1 1h-5zm-5-4 2-1h2l-1 3h-3zM7 138l-1-1h4v1l-2 1-2-1zm99 0-4-2-4-1h-3l3-2-1-1v-2h1l1 1 1 1 9-1v2l-4 1v1l3 1h2v1c0 1-1 2-4 1zm14-1v-1l1-1c2 0 3 0 2 2h-3zm-109-3-1-2v-1l1 1c2 2 2 3 0 2zm99-1v-1l2-1 4-1h2v3l-8 1zm-3-10 5-2v2h-5zm29-1-1-3-1-4-1-3h2v7l1 1c2 2 2 4 1 4h-2zm-17-1a3 3 0 0 1 2-2h1v3h-3zm-109-5v-1l1 1c1 1 0 2-1 0zm-2-6v-1h1c2-1 3 0 2 1-1 2-2 2-3 0zm4-6 1-5 1-2v11h-2zm108 3c0-1 1-2 2-1l2 1v1h-2l-2-1zm-18-3v-2h4l1 3h-5zm22-2-2-2 5-1h5v1c0 2-2 3-4 3l-4-1zm22-3v-2l1 1 1 1-1 1h-1zm-26-7 5-3c1 1-3 5-4 5h-1zm10 0 2-1 1 1-1 1-2-1zm5-2c0-2 0-3 3-3l2-1 2 2-6 3zm-17-4v-1l1-1h5l-3 2-2 1zm7-3 3-2 2-2 1 2v1l-1 1h-5zm13-3v-1l3-1a15 15 0 0 1 4-1h2l-1-4h3l-1 4h3v3h-3a50 50 0 0 0-7 0l-3 1v-2zM15 78l2-1-1 1-1 1zm124-3v-1l2-1c2-2 3-1 1 1-2 3-3 3-3 1zm-8-4c0-2 5-3 6-3 0 1-3 4-5 4l-1-1zm-27-4 3-3 2-2v-3l-1-3 6-5v-7l1-1 2-4 1-2h3l-2 4 2-1 4-4 2-1 2 1-10 10-1 4-2 4 3-2c3-1 5-4 7-9l2-3h1l-1 5 2-1 3-1 2-1v-3l2-3h1v5h1c2 0 3-2 4-6l1-4 3-1 2-3 2-3 3-3h3c0 1-3 6-5 7l-1 1 3-1c5-2 11-6 12-10l1-2-3 1-3-2 12 1 1 3 1 2-4 3-4-1v3l-2 1-4 2h-2l1 2 1 2 4-2 2 2-3 2-7 1h-7c-1 0 2-2 5-2h2l-1-2v-1h-6l-1 3-2 3-2 1 1 5-4-2-4 5-4-2-4 2a29 29 0 0 0-6 5l-4 4h-4v1a9 9 0 0 0-1 3h3l5-2 2-2 4-6 2-1c4-2 3 0 0 3l-4 4h2l3 1h1l-8 2-5 4-5-1v1l-6 3-5 3v-1zm9-10v-1l-1-2-1 2v3l2-2zm56-36v-1l-1 1zm-37 40a24 24 0 0 0 3-5l1-3h4l-2 2-2 4c0 1-3 4-5 4h-1zm-8 0 1-1 1 1-1 1-1-1zm44-2-2-2c0-1 2-1 4 1l1 1h-1a28 28 0 0 1-3 0zM26 51v-2l1 2v1zm-4-8-2-2 2-1 2-1v6l-2-2zm8-1a32 32 0 0 1-2-8l-1-4h1l4 7v5l1 3h-1l-2-3zm82 3-1-1 1-8 4-5 3 1 4-2 4-3 1-1 1 1 1 2 2-2c2-3 3-3 3-1 0 1-3 3-5 3l-3 1-4 3-4 2v-1l-1-1-5 9-1 3zm39-3-2-1 1-1a12 12 0 0 1 4-1h2v5h-1l-4-2zm19 0 2-1h1v1l-2 1-2 1zM46 33v-1h7v2h-7zm26 0c0-2 3-4 3-4v3c-1 2-3 3-3 1zm-52-2-1-3 3-3 1 1 1 3v2l-3 2zm14 1a3 3 0 0 1 0-1v-2h1c2 0 2 1 1 3l-1 1zm75-1 1-3 2-2 1 1-1 3c-1 2-3 3-3 1zm60-1-1-1 2-1v1l2 1-2 1zm-50-3 2-4 1-2 1 3-1 2-2 3h-1zm55 2v-4h1l2 1 2 2-1 1h-4zm-48-4c-1-1 2-5 3-4v3c-1 2-2 2-3 1zm6-6v-1h3v1a3 3 0 0 1-2 2h-1zm-9-5 1-3v-1l3 2-1 2-1 1h-3zm-72-2 1-2 3-1v4h-4zm34-3V6h3l3 2 1 1-1 1-4 1h-1zm9 2a2 2 0 0 1-1-2h5v2h-2zM78 4l-2-2 4 1h3v1l-1 2z"/>
</svg>
