<?xml version="1.0" encoding="utf-8"?>
<svg xmlns="http://www.w3.org/2000/svg" version="1.2" viewBox="0 0 2126 1189">
	<title>Twenty measures of musical notation on the treble clef, with a ⁶⁄₈ time signature, in the key of G.</title>
	<path d="M0 46v3h2126v-3zm0 25v3h2126v-3zm0 25v2h2126v-2zm0 24v3h2126v-3zm0 25v3h2126v-3zm0 223v3h2126v-3zm0 25v3h2126v-3zm0 25v3h2126v-3zm0 25v3h2126v-3zm0 25v2h2126v-2zm0 223v3h2126v-3zm0 25v2h2126v-2zm0 24v3h2126v-3zm0 25v3h2126v-3zm0 25v3h2126v-3zm0 223v3h2126v-3zm0 25v3h2126v-3zm0 25v3h2126v-3zm0 25v2h2126v-2zm0 25v2h2126v-2z"/>
	<path d="M1943 1110c17 11 69 11 86 0-17 19-69 19-86 0"/>
	<path d="M1943 1109a1 1 0 0 0-1 0 1 1 0 0 0 0 1c9 10 27 15 44 15s35-5 43-15a1 1 0 0 0 0-1c-9 6-26 9-43 9s-34-3-43-9zm4 4c9 4 24 6 39 6s30-2 39-6c-9 7-24 11-39 11s-30-4-39-11z"/>
	<path d="M312 46v102m-2-102v102h5V46zm676 645v102m-2-102v102h4V691zM693 368v102m-2-102v102h5V368zm1433 323v102m-2-102v102h4V691zM900 1013v102m-2-102v102h4v-102zm668 0v102m-2-102v102h4v-102zM177 691v102m-7-102v102h14V691zm25 0v102m-2-102v102h5V691z"/>
	<path d="M217 729c0-2-2-5-5-5s-5 3-5 5 2 6 5 6 5-3 5-6m0 25c0-3-2-5-5-5s-5 2-5 5 2 5 5 5 5-2 5-5"/>
	<path d="M1721 368v102m-2-102v102h5V368zm377 645v102m-6-102v102h13v-102zm29 0v102m-7-102v102h14v-102zM592 691v102m-2-102v102h4V691zm773 0v102m-2-102v102h4V691z"/>
	<path d="M1193 1052c0-3-3-5-5-5-3 0-6 2-6 5s3 5 6 5c2 0 5-2 5-5m0 25c0-3-3-6-5-6-3 0-6 3-6 6 0 2 3 5 6 5 2 0 5-3 5-5"/>
	<path d="M1204 1013v102m-2-102v102h4v-102zm20 0v102m-6-102v102h13v-102zm908-967v102m-2-102v102h4V46zM792 46v102m-2-102v102h5V46zm-252 967v102m-2-102v102h5v-102zm1354 0v102m-2-102v102h4v-102zm236-645v102m-2-102v102h4V368zM1272 46v102m-2-102v102h5V46zm477 645v102m-3-102v102h5V691zm-516-323v102m-2-102v102h4V368zm490-322v102m-3-102v102h5V46zM765 1163h49m-49-2v4h49v-4zm0-22h49m-49-2v4h49v-4zm55 26h48m-48-2v4h48v-4zm0-22h48m-48-2v4h48v-4zm-489 2h49m-49-2v4h49v-4zm1068 2h49m-49-2v4h49v-4zm-834 2h48m-48-2v4h48v-4zm145 26h49m-49-2v4h49v-4zm-251-22h48m-48-2v4h48v-4zm-55 2h48m-48-2v4h48v-4zm233 2h49m-49-2v4h49v-4zm-233 26h48m-48-2v4h48v-4zm306-22h49m-49-2v4h49v-4zm-251 26h48m-48-2v4h48v-4zm467-22h49m-49-2v4h49v-4zm0 26h49m-49-2v4h49v-4zM712 787v-70m-1 0v70h2v-70zm55 70v-70m-1 0v70h2v-70zm941 58v-64m-1 0v64h2v-64zm-885 76v-82m-1 0v82h2v-82zM258 155V72m-1 0v83h2V72zm634 715v-70m-1 0v70h2v-70zM378 93V29m-1 0v64h2V29zm568 758v-70m-1 0v70h2v-70zm107 33v-64m-1 0v64h3v-64zM452 93V29m-2 0v64h3V29zm656 721v-64m-2 0v64h3v-64zM526 93V29m-2 0v64h3V29zm636 721v-64m-1 0v64h2v-64zM599 130V54m-1 0v76h3V54zm616 696v-64m-1 0v64h2v-64zm55 89v-83m-1 0v83h2v-83zM673 130V54m-1 0v76h3V54zm651 733v-89m-2 0v89h3v-89zM747 130V54m-1 0v76h2V54zm683 746v-83m-2 0v83h3v-83zM858 143V72m-1 0v71h2V72zm653 728v-83m-1 0v83h2v-83zm72 83v-83m-1 0v83h2v-83zM932 143V72m-2 0v71h3V72zm722 715v-70m-2 0v70h3v-70zm-644-574V72m-2 0v71h3V72zm808 691v-71m-1 0v71h2v-71zm55 71v-71m-1 0v71h2v-71zm-785-537V72m-2 0v83h3V72zm842 691v-71m-1 0v71h3v-71zm-766-537V78m-1 0v77h3V78zm823 709v-70m-2 0v70h3v-70zm56 70v-70m-1 0v70h2v-70zm-801-562V78m-1 0v77h2V78zm857 709v-70m-1 0v70h2v-70zm-744-599V35m-1 0v83h2V35zM224 1122v-76m-1 0v76h2v-76zm50 76v-76m-2 0v76h3v-76zm1178-928V35m-1 0v83h2V35zM321 1122v-76m-1 0v76h2v-76zm1203-903V72m-2 0v71h3V72zM370 1147v-83"/>
	<path d="M369 1064v83h2v-83zm74 108v-102m-1 0v102h2v-102zm1155-927V75m-2 0v68h3V75zM498 1159v-95m-1 0v96h2v-96zm1173-909V78m-1 0v77h3V78zM604 1147v-83m-1 0v83h2v-83zm74 83v-83m-2 0v83h3v-83zm1106-946V35m-1 0v83h2V35zM749 1159v-89m-1 0v89h3v-89zm56 89v-89m-1 0v89h2v-89zm56 89v-89m-1 0v89h2v-89zm107 102v-108m-1 0v108h2v-108zm1031-909V72m-1 0v83h3V72zm-864 1050v-82m-1 0v82h2v-82zm163 82v-76m-1 0v76h3v-76zm778-891V72m-1 0v83h2V72zm-727 1050v-76m-1 0v76h2v-76zm49 76v-76m-1 0v76h3v-76zm51 101v-83m-2 0v83h3v-83zM224 440v-70m-1 0v70h2v-70zm1288 752v-82m-1 0v82h2v-82zm121 70v-83m-1 0v83h2v-83zM307 440v-70m-1 0v70h2v-70zm1398 703v-77m-1 0v77h2v-77zM390 440v-70m-1 0v70h2v-70zm1363 727v-76m-1 0v76h3v-76zM473 453v-77m-1 0v77h2v-77zm1329 734v-89m-1 0v89h2v-89zm49 76v-76m-1 0v76h3v-76zM556 453v-77m-1 0v77h2v-77zm1401 709v-83m-2 0v83h3v-83zM639 453v-77m-1 0v77h2v-77zm1410 709v-83m-1 0v83h2v-83zM759 465v-70m-1 0v70h2v-70zm84 70v-70m-1 0v70h2v-70zm84 70v-70m-1 0v70h2v-70zm84 82v-82m-1 0v82h2v-82zm84 82v-76m-1 0v76h2v-76zm84 76v-76m-1 0v76h2v-76zm121 27v-77m-2 0v77h3v-77zm126 77v-77m-1 0v77h2v-77zm84 102v-83m-1 0v83h2v-83zm84 83v-80m-1 0v80h2v-80zm84 104V376m-1 0v101h2V376zm121 52v-77m-1 0v77h2v-77zm283 126v-82m-1 0v82h2v-82zM280 738v-64m-1 0v64h3v-64zm56 64v-64m-2 0v64h3v-64zm56 64v-64m-2 0v64h3v-64zm56 64v-71m-1 0v71h2v-71zm55 83v-79m-1 0v79h2v-79zm55 92v-89m-1 0v89h3v-89zm108 113v-70m-2 0v70h3v-70z"/>
	<path d="M1122 163c0 4 3 9 12 9 10 0 21-8 21-17 0-6-5-9-11-9-10 0-22 8-22 17m141 273c0 4 3 9 11 9 10 0 21-8 21-17 0-6-5-9-11-9-10 0-21 8-21 17m-329 744c0 4 3 9 11 9 11 0 21-8 21-17 0-6-5-9-11-9-9 0-21 8-21 17m165-50c0 5 3 9 11 9 11 0 21-8 21-17 0-6-5-9-11-9-9 0-21 8-21 17M227 163c0 4 3 9 11 9 10 0 21-8 21-17 0-6-5-9-11-9-10 0-21 8-21 17m120-62c0 4 3 9 11 9 10 0 21-8 21-17 0-6-5-9-11-9-10 0-21 8-21 17m796 385c0 4 3 9 11 9 10 0 21-9 21-18 0-5-5-9-11-9-10 0-21 8-21 18M421 101c0 4 3 9 11 9 10 0 21-8 21-17 0-6-5-9-11-9-10 0-21 8-21 17m74 0c0 4 3 9 11 9 10 0 21-8 21-17 0-6-5-9-11-9-10 0-21 8-21 17m73 37c0 5 4 9 12 9 10 0 21-8 21-17 0-6-5-9-11-9-10 0-22 8-22 17m452 620c0 5 3 9 12 9 10 0 21-8 21-17 0-6-5-9-11-9-10 0-22 8-22 17M642 138c0 5 3 9 11 9 11 0 22-8 22-17 0-6-5-9-12-9-9 0-21 8-21 17m74 0c0 5 3 9 11 9 11 0 21-8 21-17 0-6-4-9-11-9-9 0-21 8-21 17m111 13c0 4 3 9 11 9 10 0 21-9 21-17 0-6-5-9-11-9-10 0-21 8-21 17m434 979c0 5 3 9 12 9 10 0 21-8 21-17 0-6-5-9-11-9-10 0-22 8-22 17M901 151c0 4 3 9 11 9 10 0 21-9 21-17 0-6-5-9-11-9-10 0-21 8-21 17m74 0c0 4 3 9 11 9 10 0 21-9 21-17 0-6-5-9-11-9-10 0-21 8-21 17m575 657c0 4 3 9 11 9 10 0 21-8 21-17 0-6-5-9-11-9-10 0-21 8-21 17m-501-645c0 4 3 9 11 9 10 0 21-8 21-17 0-6-5-9-11-9-10 0-22 8-22 17M627 796c0 4 3 9 11 9 10 0 21-9 21-18 0-5-5-9-11-9-10 0-21 8-21 18m683 334c0 5 3 9 11 9 10 0 21-8 21-17 0-6-5-9-11-9-10 0-21 8-21 17m-114-967c0 4 3 9 11 9 11 0 22-8 22-17 0-6-5-9-12-9-9 0-21 8-21 17m111-37c0 4 3 9 11 9 10 0 21-8 21-17 0-6-5-9-11-9-10 0-21 8-21 17m51 1004c0 5 3 9 12 9 10 0 21-8 21-17 0-6-5-9-11-9-10 0-22 8-22 17m60-1004c0 4 3 9 11 9 10 0 21-8 21-17 0-6-5-9-11-9-10 0-21 8-21 17m74 25c0 4 3 9 11 9 10 0 21-9 21-17 0-6-5-9-11-9-10 0-21 8-21 17m129 645c0 4 3 9 11 9 10 0 21-9 21-18 0-5-5-9-11-9-10 0-21 8-21 18m-55-645c0 4 3 9 11 9 10 0 21-9 21-17 0-6-5-9-11-9-10 0-22 8-22 17m74 12c0 4 3 9 12 9 10 0 21-8 21-17 0-6-5-9-11-9-10 0-22 8-22 17m-579 323c0 4 3 9 11 9 10 0 21-9 21-18 0-5-5-9-11-9-10 0-21 8-21 18m690-360c0 4 3 9 11 9 10 0 21-8 21-17 0-6-5-9-11-9-9 0-21 8-21 17m-342 1029c0 4 3 9 11 9 10 0 21-8 21-17 0-6-5-9-11-9-10 0-22 8-22 17m73-25c0 5 3 9 11 9 11 0 22-8 22-17 0-6-5-9-12-9-9 0-21 8-21 17M977 486c0 4 3 9 11 9 10 0 21-9 21-18 0-5-5-9-11-9-10 0-21 8-21 18m987-323c0 4 3 9 12 9 10 0 21-8 21-17 0-6-5-9-11-9-10 0-22 8-22 17M735 796c0 4 3 9 11 9 10 0 21-9 21-18 0-5-5-9-11-9-10 0-21 8-21 18m1303-633c0 4 3 9 11 9 11 0 22-8 22-17 0-6-5-9-12-9-9 0-21 8-21 17m-438 955c0 4 3 9 11 9 11 0 21-8 21-17 0-6-5-9-11-9-9 0-21 8-21 17m75-335c0 4 3 9 11 9 10 0 21-8 21-17 0-6-5-9-11-9-10 0-21 8-21 17M193 448c0 5 3 9 11 9 11 0 21-8 21-17 0-6-5-9-11-9-9 0-21 8-21 17m273 310c0 5 3 9 11 9 11 0 21-8 21-17 0-6-5-9-11-9-9 0-21 8-21 17M276 448c0 5 3 9 11 9 11 0 21-8 21-17 0-6-5-9-11-9-9 0-21 8-21 17m83 0c0 5 3 9 11 9 11 0 21-8 21-17 0-6-5-9-11-9-9 0-21 8-21 17m83 13c0 4 3 9 11 9 11 0 21-9 21-17 0-6-5-9-11-9-9 0-21 8-21 17m1279 645c0 4 3 9 12 9 10 0 21-9 21-18 0-5-5-9-11-9-10 0-22 8-22 18M525 461c0 4 3 9 11 9 11 0 21-9 21-17 0-6-5-9-11-9-9 0-21 8-21 17m83 0c0 4 3 9 11 9 11 0 21-9 21-17 0-6-5-9-11-9-9 0-21 8-21 17m467 297c0 5 3 9 11 9 10 0 21-8 21-17 0-6-5-9-11-9-10 0-21 8-21 17m760 13c0 4 3 9 11 9 11 0 21-9 21-17 0-6-5-9-11-9-9 0-21 8-21 17m-65 347c0 4 3 9 11 9 10 0 21-8 21-17 0-6-5-9-11-9-10 0-21 8-21 17m119-347c0 4 3 9 12 9 10 0 21-9 21-17 0-6-5-9-11-9-10 0-22 8-22 17m-760-13c0 5 3 9 11 9 10 0 21-8 21-17 0-6-5-9-11-9-10 0-21 8-21 17m815 38c0 4 3 9 11 9 10 0 21-9 21-18 0-5-5-9-11-9-10 0-21 8-21 18m-1084 0c0 4 3 9 11 9 10 0 21-9 21-18 0-5-5-9-11-9-9 0-21 8-21 18m-71 0c0 4 3 9 11 9 11 0 21-9 21-18 0-5-5-9-11-9-9 0-21 8-21 18m1209 0c0 4 3 9 11 9 10 0 21-9 21-18 0-5-5-9-11-9-10 0-21 8-21 18m-815-38c0 5 3 9 11 9 11 0 21-8 21-17 0-6-5-9-11-9-9 0-21 8-21 17m869 38c0 4 3 9 11 9 11 0 21-9 21-18 0-5-5-9-11-9-9 0-21 8-21 18M412 746c0 4 3 9 11 9 10 0 21-8 21-17 0-6-5-9-11-9-10 0-21 8-21 17m-54 0c0 4 3 9 11 9 10 0 21-8 21-17 0-6-5-9-11-9-10 0-21 8-21 17m1460 360c0 4 3 9 12 9 10 0 21-9 21-18 0-5-5-9-11-9-10 0-22 8-22 18M894 473c0 4 3 9 11 9 10 0 21-8 21-17 0-6-5-9-11-9-10 0-21 8-21 17m-83 0c0 4 3 9 11 9 10 0 21-8 21-17 0-6-5-9-11-9-10 0-21 8-21 17m-618 657c0 5 3 9 11 9 11 0 21-8 21-17 0-6-5-9-11-9-9 0-21 8-21 17m1588-359c0 4 3 9 11 9 10 0 21-9 21-17 0-6-5-9-11-9-9 0-21 8-21 17m-867 25c0 4 3 9 11 9 11 0 21-9 21-18 0-5-4-9-11-9-9 0-21 8-21 18m-672 334c0 5 3 9 11 9 10 0 21-8 21-17 0-6-5-9-11-9-10 0-21 8-21 17m995-347c0 4 3 9 11 9 11 0 22-8 22-17 0-6-5-9-12-9-9 0-21 8-21 17m-947 347c0 5 3 9 11 9 11 0 21-8 21-17 0-6-5-9-11-9-9 0-21 8-21 17m1635-37c0 4 3 9 11 9 10 0 21-8 21-17 0-6-5-9-11-9-10 0-21 8-21 17M681 796c0 4 3 9 11 9 10 0 21-9 21-18 0-5-5-9-11-9-10 0-21 8-21 18m-377-50c0 4 3 9 11 9 10 0 21-8 21-17 0-6-5-9-11-9-10 0-21 8-21 17m35 409c0 4 3 9 11 9 11 0 21-8 21-17 0-6-5-9-11-9-9 0-21 8-21 17m953-359c0 4 3 9 11 9 10 0 21-9 21-18 0-5-5-9-11-9-10 0-22 8-22 18m726 297c0 4 3 9 11 9 10 0 21-8 21-17 0-6-5-9-11-9-10 0-21 8-21 17M249 746c0 4 3 9 11 9 11 0 22-8 22-17 0-6-5-9-12-9-9 0-21 8-21 17m163 434c0 4 3 9 11 9 10 0 21-8 21-17 0-6-5-9-11-9-10 0-21 8-21 17m316-707c0 4 3 9 11 9 10 0 21-8 21-17 0-6-5-9-11-9-10 0-21 8-21 17m945 608c0 4 3 9 11 9 10 0 21-9 21-17 0-6-5-9-11-9-10 0-21 8-21 17m-1206 87c0 4 3 9 11 9 10 0 21-9 21-18 0-5-5-9-11-9-10 0-21 8-21 18m1571-682c0 4 3 9 11 9 11 0 22-9 22-18 0-5-5-9-12-9-9 0-21 8-21 18M520 771c0 4 3 9 12 9 10 0 21-9 21-17 0-6-5-9-11-9-10 0-22 8-22 17m53 384c0 4 3 9 11 9 10 0 21-8 21-17 0-6-5-9-11-9-10 0-21 8-21 17m73 0c0 4 3 9 11 9 10 0 21-8 21-17 0-6-5-9-11-9-10 0-21 8-21 17m752-347c0 4 3 9 11 9 10 0 21-8 21-17 0-6-5-9-11-9-10 0-21 8-21 17m358-372c0 4 3 9 11 9 10 0 21-8 21-17 0-6-5-9-11-9-10 0-21 8-21 17M718 1168c0 4 4 9 12 9 10 0 21-9 21-18 0-5-5-9-11-9-10 0-22 8-22 18m918-682c0 4 3 9 11 9 11 0 21-9 21-18 0-5-5-9-11-9-9 0-21 8-21 18m-863 682c0 4 3 9 11 9 11 0 22-9 22-18 0-5-5-9-12-9-9 0-21 8-21 18m780-707c0 4 3 9 11 9 11 0 21-9 21-17 0-6-5-9-11-9-9 0-21 8-21 17m-725 707c0 4 3 9 11 9 10 0 21-9 21-18 0-5-5-9-11-9-9 0-21 8-21 18m642-707c0 4 3 9 11 9 11 0 21-9 21-17 0-6-5-9-11-9-9 0-21 8-21 17m-83-25c0 4 3 9 11 9 11 0 21-8 21-17 0-6-5-9-11-9-9 0-21 8-21 17m92 372c0 4 3 9 11 9 10 0 21-8 21-17 0-6-5-9-11-9-9 0-21 8-21 17"/>
	<path d="M31 173c0 6 5 15 18 15 5 0 9-1 12-3 6-4 7-11 7-17l-1-14-2-9c10-3 17-13 17-23 0-15-11-25-25-25l-3-18c11-11 18-23 18-39 0-9-3-16-4-20-3-5-6-9-8-9l-7 6c-6 7-8 20-8 28l2 21-7 7c-9 9-21 21-21 41 0 18 16 33 34 33l8-1 3 22c0 10-5 16-15 16l-5-1c5-1 10-5 10-11s-4-11-12-11c-7 0-11 5-11 12M52 40c0-4 5-14 10-14 2 0 4 5 4 12 0 10-8 18-14 24l-2-12 2-10m8 102-5 1c-15 0-27-10-27-25 0-12 9-23 17-31l5-4 3 14c-10 3-16 12-16 22 0 7 6 16 14 16l1-1-2-2c-4-3-6-5-6-10 0-6 5-11 11-12l5 32m14-18c0 7-3 14-10 17l-5-32c9 0 15 6 15 15M31 495c0 7 5 15 18 15 5 0 9-1 12-3 6-4 7-10 7-17l-1-14-2-8c10-4 17-14 17-24 0-15-11-25-25-25l-3-17c11-11 18-24 18-40 0-9-3-16-4-20-3-5-6-8-8-8l-7 5c-6 8-8 20-8 29l2 21-7 7c-9 8-21 20-21 40 0 19 16 33 34 33h8l3 21c0 11-5 16-15 16h-5v-1c5-1 10-5 10-11 0-5-4-11-12-11-7 0-11 6-11 12m21-132c0-4 5-15 10-15 2 0 4 5 4 12 0 10-8 18-14 25l-2-12 2-10m8 102h-5c-15 0-27-10-27-25 0-12 9-23 17-30l5-4 3 14c-10 2-16 12-16 21 0 7 6 17 14 17l1-2-2-2c-4-2-6-5-6-10 0-6 5-11 11-12l5 33m14-19c0 7-3 15-10 17l-5-32c9 0 15 6 15 15M31 818c0 6 5 15 18 15 5 0 9-2 12-4 6-3 7-10 7-16l-1-14-2-9c10-3 17-13 17-24 0-15-11-25-25-25l-3-17c11-11 18-23 18-39 0-9-3-17-4-20-3-5-6-9-8-9l-7 5c-6 8-8 21-8 29l2 21-7 7c-9 9-21 21-21 41 0 18 16 33 34 33l8-1 3 22c0 10-5 16-15 16l-5-1v-1c5 0 10-4 10-11 0-5-4-11-12-11-7 0-11 6-11 13m21-133c0-4 5-14 10-14 2 0 4 4 4 11 0 11-8 18-14 25l-2-12 2-10m8 102-5 1c-15 0-27-10-27-25 0-12 9-23 17-31l5-4 3 14c-10 3-16 12-16 22 0 6 6 16 14 16l1-1-2-2c-4-3-6-5-6-10 0-6 5-11 11-13l5 33m14-18c0 7-3 14-10 17l-5-32c9 0 15 6 15 15m-43 371c0 6 5 15 18 15 5 0 9-1 12-3 6-4 7-11 7-17l-1-14-2-9c10-3 17-13 17-23 0-15-11-25-25-25l-3-18c11-11 18-23 18-39 0-9-3-16-4-20-3-5-6-8-8-8l-7 5c-6 7-8 20-8 28l2 22-7 7c-9 8-21 20-21 40 0 19 16 33 34 33l8-1 3 22c0 10-5 16-15 16l-5-1c5-1 10-5 10-11s-4-11-12-11c-7 0-11 5-11 12m21-133c0-3 5-14 10-14 2 0 4 5 4 12 0 10-8 18-14 25l-2-12 2-11m8 102-5 1c-15 0-27-10-27-25 0-12 9-23 17-30l5-5 3 14c-10 3-16 13-16 22 0 7 6 16 14 16l1-1-2-2c-4-2-6-5-6-10 0-6 5-11 11-12l5 32m14-18c0 7-3 14-10 17l-5-32c9 0 15 6 15 15"/>
	<path d="m130 37 1-1v-6l-2-2-3 1V14h-3v16l-8 1V17h-3v15l-4 1-1 1v6l2 1h3v16l-4 1-1 1v6l2 1h3v14h3V65l8-2v14h3V63l4-1 1-1v-6l-2-2-3 1V38l4-1m-15 3 8-2v17l-8 2V40m15 319 1-1v-6l-2-1h-3v-14h-3v15l-8 2v-14h-3v14l-4 1-1 2v5l2 2 3-1v16l-4 1-1 2v5l2 2 3-1v15h3v-16l8-1v14h3v-15l4-1 1-1v-6l-2-1h-3v-16l4-1m-15 3 8-1v16l-8 2v-17m15 642 1-1v-6l-2-1h-3v-15h-3v16l-8 2v-14h-3v14l-4 1-1 1v6l2 2 3-1v16l-4 1-1 1v6l2 2 3-1v15h3v-16l8-2v14h3v-14l4-1 1-1v-6l-2-1h-3v-16l4-1m-15 3 8-2v17l-8 2v-17m15-325 1-2v-5l-2-2-3 1v-15h-3v15l-8 2v-14h-3v15l-4 1-1 1v6l2 1 3-1v17l-4 1-1 1v6l2 1 3-1v15h3v-15l8-2v14h3v-15h4l1-2v-5l-2-2-3 1v-17h4m-15 3 8-2v16l-8 2v-16"/>
	<path d="M179 68c-6 0-8 2-9 3l-1-5c0-6 2-13 9-13l5 2c-2 1-4 3-4 6s3 6 7 6c3 0 6-3 6-6v-1l-1-3c-1-3-5-9-15-9-9 0-15 9-17 14-1 2-3 7-3 12 0 6 2 13 8 18 5 5 9 5 13 5 3 0 16-4 16-16 0-9-8-13-14-13m-3 25c-4 0-6-5-6-10 0-6 2-10 6-10s6 4 6 10c0 5-3 10-6 10m11 27c3-3 5-6 5-10 0-7-8-13-17-13-10 0-18 6-18 13 0 4 1 8 6 11-5 2-7 6-7 11 0 8 8 14 19 14 10 0 18-6 18-14 0-5-1-10-6-12m-6-3c-7-2-14-5-14-10 0-4 3-5 8-5 6 0 10 3 10 7 0 5-2 7-4 8m-6 24c-7 0-12-4-12-9 0-7 5-9 5-9 7 3 16 6 16 11 0 3-3 7-9 7"/>
	<path d="m1937 436-1-1-11-14h-1l1-1 10-16v-2l-16-22h-2l-1 1 1 1 7 10v3l-10 15v2l11 14h-2c-5 0-9 4-9 9l1 4 9 13h2l1-1v-1l-4-6-1-3c0-4 3-6 6-6l3 1 4 2h2v-2m-20-359-2 1c-2 4-7 10-12 11l2-4a7 7 0 0 0-14 0c0 5 5 7 9 7 6 0 9-2 13-6l-12 36h3l14-43v-1l-1-1m-868 1004v-1l-12-14v-2l10-15 1-1-1-1-16-22-1-1-1 1v2l8 10v3l-10 15-1 1v1h1l11 14h-3c-5 0-9 4-9 9l1 4 10 12 1 1h1v-2l-3-6-1-4c0-3 2-5 6-5l3 1 4 2h1l1-1-1-1"/>
	<path d="m1760 341 9-16 9 16h7l2-1v-1l-14-22-1-1-1 1-13 22 2 2m-6-317 9-15 9 15 1 1h7l1-1v-1l-14-22-1-1-1 1-13 22 2 1"/>
	<path d="M656 711h111v12H656v-12M377 23h150v12H377V23m221 24h150v13H598V47m259 19h150v12H857V66m434 973h100v13h-100v-13m520-353h111v12h-111v-12M1521 66l151 6v13l-151-7V66M758 388h168v13H758v-13m-535-24h168v12H223v-12m249 6h168v12H472v-12m418 341h56v12h-56v-12m1083 0h111v12h-111v-12m-760-31 111 12v13l-111-13v-12m-934-13h111v13H279v-13m163 397 57-6v12l-57 7v-13m608-384h111v12h-111v-12m450-316 168 6v12l-168-6v-12M1152 72h77v13h-77V72m498 639 57-6v12l-57 6v-12M223 1039h99v13h-99v-13m525 25h112v13H748v-13m1003-49h100v12h-100v-12M442 661l111 6v13l-111-6v-13m648-266h85v12h-85v-12"/>
	<path d="M257 95v1c5 1 13 7 20 18 1 3 4 7 4 15a63 63 0 0 1-4 23l1 1 1-1c5-8 6-17 6-26 0-13-8-22-8-22 1 0-9-12-11-17-4-5-6-11-6-11l-1-4-1-1-1 1v23m821 0 1 1c4 1 13 7 19 18 2 3 5 7 5 15a63 63 0 0 1-5 23l1 1 2-1c4-8 6-17 6-26-1-13-8-22-8-22l-12-17-5-11-1-4-1-1-2 1v23m370-37v1c5 1 13 6 20 17 1 3 4 8 4 16a63 63 0 0 1-5 23l2 1 1-1c4-8 6-17 6-26 0-13-8-22-8-22l-11-17c-4-5-6-11-6-12l-1-3-1-1-1 1v23m620 37 1 1c4 1 13 7 19 18 2 3 5 7 5 15a63 63 0 0 1-5 23l1 1 2-1c4-8 6-17 6-26-1-13-8-22-8-22l-12-17c-4-5-5-11-5-11l-1-4-2-1-1 1v23m-74 0 1 1c4 1 13 7 19 18 2 3 5 7 5 15a63 63 0 0 1-5 23l1 1 2-1c4-8 6-17 6-26-1-13-8-22-8-22l-12-17-5-11-1-4-2-1-1 1v23m-865 967 1 1c4 1 12 7 19 18 2 3 5 7 5 15a63 63 0 0 1-5 23l1 1 1-1c5-8 7-17 7-26-1-13-8-22-8-22l-12-16-6-12a312 312 0 0 1-2-5l-1 1v23m-760 25 1 1c4 1 13 7 19 18 2 3 5 7 5 15a63 63 0 0 1-5 23l1 1 1-1c5-8 7-17 7-26-1-13-8-22-8-22l-12-17c-4-5-5-11-6-11a312 312 0 0 1-2-5l-1 1v23m1048-713 1 1c4 1 12 7 19 18 2 3 5 7 5 15a63 63 0 0 1-5 23l1 1 1-1c5-8 7-17 7-26-1-13-8-22-8-22l-12-17c-4-5-5-11-6-11l-1-4-1-1-1 1v23m163 366v1c5 1 13 6 20 17 1 3 4 8 4 16a63 63 0 0 1-5 23l2 1 1-1c4-8 6-17 6-26 0-13-8-22-8-22l-11-17c-4-5-6-11-6-12l-1-3-1-1-1 1v23m-71 0v1c5 1 13 6 20 17 2 3 4 8 4 16a63 63 0 0 1-4 23l1 1 1-1c5-8 6-17 6-26 0-13-7-22-7-22l-12-17c-4-5-6-11-6-12l-1-3-1-1-1 1v23m-502-323v1c5 2 13 7 20 18 2 3 4 7 4 16a63 63 0 0 1-4 23l1 1 1-1c5-8 6-18 6-27 0-12-7-22-7-22l-12-16-6-12-1-4-1-1-1 2v22m-332 670 1 1c4 1 13 7 19 18 2 3 5 7 5 15a63 63 0 0 1-5 23l1 1 2-1c4-8 6-17 6-26 0-13-8-22-8-22l-12-17-5-11a312 312 0 0 1-2-5l-2 1v23m835-25 1 1c4 1 13 7 19 18 2 3 5 7 5 15a63 63 0 0 1-5 23l1 1 2-1c4-8 6-17 6-26-1-13-8-22-8-22l-12-16-6-12a312 312 0 0 1-2-5l-1 1v23m558-645 1 1c4 2 13 7 19 18 2 3 5 7 5 16a63 63 0 0 1-5 23l1 1 2-1c4-8 6-18 6-27-1-12-8-22-8-22l-12-16c-4-6-5-12-5-12l-1-4-2-1-1 2v22m-365 602v1c5 1 13 6 20 17 2 3 4 8 4 16a63 63 0 0 1-4 23l1 1 1-1c5-8 6-17 6-26 0-13-7-22-7-22l-12-17-6-12-1-3-1-1-1 1v22M819 727l1 1c4 2 13 7 19 18 2 3 5 7 5 16a63 63 0 0 1-5 23l1 1 1-1c5-8 7-18 7-27-1-12-8-22-8-22l-12-16-6-12-1-4-1-1-1 2v22"/>
	<path d="m147 956 2 1h19l2-1c0-2-8-1-9-4v-18c0-8 2-7 4-8l3-1-2-1h-17l-2 1 2 1c5 0 6 0 6 7v11l-1 8c-1 4-7 2-7 4m29-3 3 2 3 3 3-3 3-2-3-3-3-3c-2 0-2 2-3 2l-3 4"/>
	<path d="M130 901v56h2v-53h1071v53h2v-56z"/>
	<path d="m1244 956 2 1h26l1-1 4-8-1-1-4 4-11 1-4-1 5-4c4-4 10-10 10-15 0-6-4-9-10-9-11 0-14 7-14 9s3 3 6 3l1-1-1-4c0-3 1-4 4-4s8 2 8 7-4 13-17 20l-5 3m39-3 3 2 3 3 3-3 3-2-3-3-3-3-3 2-3 4"/>
	<path d="M1228 901v56h3v-53h859v53h3v-56z"/>
	<path d="M1795 109c0 3 2 5 5 5s5-2 5-5-3-5-5-5-5 3-5 5m174 968c0 2 2 5 5 5s5-3 5-5c0-3-2-5-5-5s-5 2-5 5m-990 99c0 3 2 5 5 5s5-2 5-5-2-5-5-5-5 2-5 5m822-744c0 3 2 5 5 5s5-2 5-5-3-5-5-5-5 2-5 5"/>
</svg>
