<?xml version="1.0" encoding="utf-8"?>
<svg xmlns="http://www.w3.org/2000/svg" viewBox="0 0 1228 601">
	<title>Sketch in perspective of a stone arch bridge over a body of water, starting from the foreground in the right and ending in the distance in the center, with a hill in the background.</title>
	<path d="m739 600 1-1 2 1-2 1-1-1zm7-18v-1l1 1v1l-1-1zm265 0-7-7 4 3 5 2 1 2c0 1 0 2-3 0zm-285-1 1-1v1l-1 1v-1zm41 0 1-1 2 1-2 1-1-1zm-49-1c-1-3-1-7 1-7 1 0 2 0 2 3 0 4-2 7-3 4zm280-7c-3-2-1-4 4-4s7-1 7-3c0-3 2-6 7-6 3-1 3-1-5-3l-9-2c-2-1-1-2 1-3s2-1 0-2l-3-3c0-3 4-3 12-3 7 0 7 1-1 2-5 1-6 2-1 3 3 0 4 1 4 2 1 3 4 5 7 5l3 2c1 1 1 2-1 3l-3 1-5 1c-2 1-3 2-2 3 1 3-2 4-9 5l-3 2c0 2-2 2-3 0zm10-22h-2 2zm-286 22 1-1 1 1-1 1-1-1zm4 0v-2h2l-1 2h-1zm5-2c-1-1 0-1 1-1l1 1-1 1-1-1zm24-2v-1l1 1v1l-1-1zm21-2 1-1 1 1-1 1-1-1zm11-2h1l1 1h-1l-1-1zm5 0 1-1 1 1-1 1-1-1zm4-1 1-1c1-1 1 0 1 1h-2zm12-2 1-1h1v2l-2-1zm98 0 1-2c2 0 2 2 0 3l-1-1zm-12-1h-2l-5-4c0-2 1-2 4 1 1 1 3 2 4 1l2 1c0 2-1 2-3 1zm18 0 1-1 1 1-1 1-1-1zm3 0 2-2 1 2-1 1-2-1zm-326-1 1-1 2 1-2 1-1-1zm-16-1v-1c1-1 3 0 3 1 0 2-2 1-3 0zm5 0 1-1 1 1-1 1-1-1zm346 0 1-1v1l-1 1v-1zm34 0c0-1 0-2 1-1 2 0 2 2 0 2l-1-1zm-392-1 1-1 2 1-1 1-2-1zm251 0 1-2c1-1 2-1 1 1 0 2-2 3-2 1zm120 1c-1-2-1-3 1-3l1 1-2 2zm-380-2 1-1 1 1-1 1-1-1zm384 0 1-1c1-1 2 0 2 1 0 2-2 1-3 0zm5 0 2-2 1 2-1 1-2-1zm5 0 3-1c2 0 2 1 1 1-2 2-3 2-4 0zm-403-1 1-1h1v2l-2-1zm5 0 1-1 1 1-1 1-1-1zm-9-1 1-1 1 1-1 1-1-1zm340-1 1-2c1 0 2 2 1 3-1 2-2 1-2-1zm-346 0 2-1 1 1-1 1-2-1zm286-4v-2c2 0 3 3 3 4-2 1-3 1-3-2zm-10-2c0-2 0-3 2-3v5l-2-2zm-21-1v-1l1 1-1 1v-1zm4 0v-2l2 1-1 1h-1zm4 0v-2l2 1-1 1h-1zm90 0v-2l1 1c0 2 0 2-1 1zm-353-1v-3c-1-1 0-1 1-1 2 0 2 1 1 3 0 2-2 2-2 1zm223 0h2l-2 1v-1zm9 0h2l-1 1-1-1zm13 0h2c1 0 1 1-1 1s-2-1-1-1zm35 0h3c2 1 1 1 0 1l-3-1zm57 0c-1-1 3-2 4-2v2h-4zm-332-4 2-1 1 1-2 1-1-1zm329-1-8-1-6-1c-2 0-1-3 1-3l4-3c3-1 3-1 1-2l-12-1-10-1c-1-1 0-2 1-3 2-1-2-2-10-2-8 1-11 0-9-2 1-1 15-2 25-1h11l1-1-5-1c-4-2-2-4 5-4l6-2a2369 2369 0 0 1-44 2l4-2c3-2 3-2 3-7-1-8-5-11-5-4 0 4-1 4-3 2 0-2-1-2-2-2l-2-2-1-4c-2-2-2-2 0-3 2-2 2-2 0-7-1-3-2-5-4-5s-3-1-4-9c0-8-2-8-3-2-2 4-3 2-2-4 0-5-1-6-2-4l-1 9c0 8-1 11-2 8-1-1-2-1-4 2s-2 3-3 1l-1-4c0-2-1-2-2-2-2 0-2-1-2-4s-2-5-5-4l-2-1-2-1c-1-1-2-2-2-5s-1-4-3-4c-3-1-5 3-5 7 1 2 1 3 4 4 4 2 4 4-1 5-5 2-5 2-3 6 2 5 1 6-2 7s-2 3 0 3l10 3-1 4c-2 3-2 4-4 3l-2-2c-1-2-5-1-6 0-1 3 1 4 6 4l3 1-1 2c-1 0-3 0-5 2-4 3-8 3-12 0l-3-3 3-1 3-2 1-3-4-1c-3 0-3 0-3-2s-2-5-6-7l-18-1-15 1 1 3 1 2h11l13-1 10 3-1 2-1 3c1 3-4 2-7-1l-3-3h-11l-12 1c-1 1-2 2-3 1-2 0-2 0-2 3l-1 4-1-2-1-4c-1-3-4-3-38-2-42 2-62 2-64 0a615 615 0 0 0 70-17l1-3-2-3-3-1c-1-1-8-2-17-1h-6v3c0 4-1 5-4 6-2 1-3 0-4-1v-3c2-2-5-3-18-3l-14-1 21-3c6 1 7 0 7-9l1-7 1 2 2 5 3 2v-7c-1-2 0-3 4-2h4c0-1-2-2-8-3-2 0-5-1-6-3-4-2-4-2-3-7l-1-6-3 3c-2 3-2 3-7 3l-7-1-4-2c-3 0-5-2-3-3l-4-1c-5 0-7 1-6 3s-3 4-10 3l-9-2-6-1-6-2-2 1-8 2c-6 2-10 2-27 2l-22-2-7 1c-7 3-7 3-6 7 1 2 1 2-1 2s-3-1-3-2c0-2 0-2-6-2-5 1-6 0-6-1 0-4-1-7-3-8-1 0-2-1-1-2 0-3-2-4-6-1-3 2-4 2-4 5v3l-2-6c0-5 0-5 3-6l3-1-4-2-5-2v18h-3c-2 0-3-1-4-4l1-8v-4l-11-3h-3v8l1 14c1 6 0 9-3 8-2 0-2 1-2 4 1 7-1 3-2-4-1-9-2-8-3 1 0 9-2 8-2-1l-1-9c-1-1-1-1-1 1s-2 4-4 4l-3 4c0 4-2 5-2 1s-2-5-3-2c-1 4 0 6 3 6 2 0 4 2 3 5h-2c-3-3-4-1-4 6s1 8 5 8 4 1 0 2-4 1-5 6l-2 2v-24c-1-3-4-3-5-1l-1 26-2 2-1-4 1-4a891 891 0 0 0-2-9c0 5 0 5-2 5h-2c1-3 3-17 2-18v-6c1-6 0-7-2-7-1 0-2 3-2 7v16c-1 2-2-1-3-12v-11h-4l-7 2-3 2c0-2-2-1-2 1l-2 2c-2 0-3 2-3 11l-2 4v-7c0-6 0-12-1-11l-1 13c-1 14-1 14 9 15h6l-6 1-8 1h-4c-2-2-3-1-4 5-1 7-3 6-3-1v-6l-8-1 9-2 1-7-1-12c-1-4-1-4-1-1-1 4-3 3-3 0-1-4-2-4-4-1-1 2-3 2-7 3-8 1-9 3-8 12 1 3 1 4 4 4 3 1 2 3-1 3l-2 1h-5l1-2 1-8-1-10c0-4-3-6-5-4h-4v7l2 7c0 5 0 6-1 5l-1-5-1-4-1-4c0-4-1-6-2-6v25l-1 3v-3a580 580 0 0 1-1-19c-1-6-1-7-3-7s-3 4-2 6l1 12 2 13-2 2c-3 1-3 1-1 2l2 1-2 1c-2 2-3 1-4-3 0-2 0-2 2-3l3-1-1-8-3-28c-1-1-2 3-2 5l-1 3v-2l-1-2-1 4-1 5-1-9c0-11-1-12-3-15-3-2-4-1-3 3l1 8c0 4-2 5-2 2-1-1-1-2-2-1v2l-1 3a1594 1594 0 0 0-1 32c-2 1-3-8-4-25l-2-21c-3-5-4-3-4 4a81 81 0 0 0 0 10c0 2 0 2-1 1l-2-9c0-6-1-7-3-7-2-1-4 2-4 5l-1 5c-1 1-4 0-4-2 0-1 0-4-2-6-2-3-2-5 0-5l1-2-1-4-1-4c0-2-1-3-5-6-2-1-1-3 2-3 2 0 3 0 3-4l-1-5-4-14c0-2 1-2 2 0s2-15 1-25c-1-12-1-15 2-15l3-2c2-1 2-1 0-4l-2-8c0-4 1-4 3-4 2 1 2 1 2-3s2-4 3-1c0 2 1 3 2 3 2 0 1 7-2 13-3 7-4 12-4 23 0 9 0 10-1 8-2-3-3 0-3 10 1 7 1 8-1 8l-2-1v1c0 3 2 8 4 10s2 4 2 5l1 3 1 2 1 1 1-12c-1-10-1-12 1-13s2-3 0-2l-2-1c0-2 1-2 2-2l3-11c0-5 1-5 3-6h5c2 0 3 1 2 7l1 9c2 4 2 4 3 2s1-2 2 1l1 5c0 5 2 5 4 0 1-5 2-5 3 0l3 9 5 11c1 3 1 3 1 0l-1-10c-1-1-1-2 1-4s2-2 3-1v3l1 1c1 1 1-1 2-7l3-14c3-8 3-9-4-9l-5-1c-1-3-2-2-2 1 1 3-1 7-3 7-1 0-2 2-2 5l-1 2-4-3c-3-4-4-5-4-11v-24c-2-5-2-5 0-7l3-8c1-9 3-9 3 0 0 6 0 7 2 5 1-1 1 0 1 5l-1 6-1 2c0 2 0 2 2 1 2-2 3-2 4 0v6c0 4 1 5 3 3 3-2 3-5-1-14l-1-5-2-4v-2l3-1 2-3c2-5 3-3 4 7l2 9 2 6c-1 2 0 4 1 5v4c-2 2-2 2 0 3l3 4c1 3 1 3 2 1 1-1 2-2 3-1l2 1c2-2 0-10-2-11l-2-4-4-6c-4-4-4-4-4-10 0-7 2-11 3-10v5c0 5 1 8 3 9 2 0 3 2 3 4 0 3 2 4 4 1 1-3 0-8-2-8-1 0-3-4-2-5s2 0 2 1c0 2 2 2 3 0 1-3 3-2 3 2 0 5 1 5 3 2l2-2 1 5c0 6 2 6 3 0 2-4 5-6 7-3s9 1 22-6h5c1 1 2 0 3-1 2-2 9-4 13-4s9-2 11-4c3-3 8-5 11-5 2 1 3 3 0 4l-9 4-8 3-5 2-6 2c-3 0-11 4-9 4 1 1 7-2 18-6l14-3c1 1 3 0 6-3l5-3 4-2 4-1c3 1 3 2 0 3-2 1-3 3-2 5 1 1 7-1 7-3s2-3 10-3c5-1 9-3 9-5h-7l-2 1c-3 0-2-2 1-3l3-2c2-1 9-2 11 0 2 1 4 0 4-3l5-3c4 0 7-3 5-4l-31 10c-3 1-4 2-3 3v3c-1 2-5 2-5-1-1-2-3-2-5-1h-2c1-2 7-5 10-5l4-2 5-2 4-2 3-1 6-3c2-2 3-2 5-2l3-1h3c1 2 6 1 6-1 1-2 1-2 2-1h5c4-1 4-2 4-3-1-1 0-2 1-2 4 1 5 0 10-4l10-6c9-3 9-3 8-6l1-3 1 2c-1 2 1 4 2 2l4-2 3-1c1-2 12-6 14-5l4-2 4-3c3 0 3 2 0 4l-1 2c1 1 4-1 5-3 1-4 2-4 5-3 2 1 3 0 4-1s1-1-1-1h-2c-1-1 2-3 5-4 6-3 7-3 9-2 2 2 4 2 5-1 1-2 9-8 12-8l2 2c1 2 1 2 1 0 0-3 2-5 4-4l7-4c4-3 6-4 9-4 5 0 8-2 9-4 1-3 9-6 12-5l8-2c4-2 5-2 5-5l2-2c2-1 2-1 2-4-1-3 0-4 1-5 2 0 5 2 5 5l1 1 5-2 6-2 6-1 5 2-4 2c-7 3-7 3-7 10 0 8 1 9 6 6s14-7 18-7l7-1c5-2 15-2 14-1l-3 1c-5 0-6 1-5 3l2 2 10-5c0-2 4-3 6-2h7c4-2 5-2 6-5s3-3 5 0l1 2 6-3c5-1 6-2 6-3-2-6-2-7 0-7l1 1 2 4 2 2 4-2 5-4c1-2 2-2 6-2l5-1 4-1 4-4c1-2 2-3 3-2 3 1 6 1 12-2 4-1 5-2 5-4 0-3 2-4 4-1 2 2 2 2 4 1l4-1c2 0 5-2 8-5 4-4 5-4 7-3h9c7 0 8 0 11-3 2-2 2-3 2-6v-3h4c4 0 4 0 4 2 0 3 1 3 6 0l9-2c7 0 7 0 7-8 0-4 0-5 2-5l1 3c0 4 0 4 3 4l6-2 3-1c1 1 8-1 14-4 3-2 3-2 3-5l-1-9c0-5 0-6 2-8 3-4 4-2 5 8l1 10c1 1 13-3 20-6 3-2 6-3 8-2h4v-21c-1-7-1-9 3-8l1 3-1 13 2 2 3 2c1 2 1 2 7 0l11-4 6-2c4 0 6-2 6-5l1-4c2-2 2-2 3-1l2 4 1 1v-8a378 378 0 0 0-1-34l-8 3c-9 5-13 5-5 0l7-3-4-1c-3 0-4-1-4-2-1-1 0-2 3-2s16-5 19-8l12-4 14-5c2-2 5-3 7-3l3-2 3-1 5-1a497 497 0 0 1 43-12l10-5 10-4 12-5 7-3 5-2 2-1 7-3 10-4c7-3 8-4 8-2s-4 6-8 8l-3 2c0 1-3 3-5 3s-3 2-5 5l-3 6-2 6c-3 4-2 6 0 6s2 0 2 2l-2 5c0 3-1 4-2 4-2 1-2 1-2 4l5 11 5-1c5-2 6-2 5 0s-6 4-10 5c-3 1-4 3 0 4 3 0 7 3 7 4 0 3-5 3-8 2l-5-2c-2 0-2-2 0-3 1-1 1-1-1-2-3-1-5-4-3-6v-7c-1-7 1-12 3-13s3-4 1-4c-1 0-3-7-3-13 0-5-1-7-3-5l-5 2-11 3-10 4c-4 1-6 3-6 6l-2 4-3 11c-2 7-2 10-1 17v9h12a291 291 0 0 1 16-4l3-1-1 2c-2 2-2 2-1 4s1 3 4 3 3 0 3 2c0 4-14 9-17 6-1-1 0-2 2-3s2-2 1-4c-2-2-2-2-6-1-8 3-13 5-13 7l1 2h2c2 0 3 2 1 3l-7 3-7 2-5 1-4 2-4 1c-2 1-2 1-1 2h4l4 1v2h-12c-6-1-9-1-13 1-11 2-14 4-16 5l-4 1c-3 0-5 1-4 3l-6 1c-7 0-18 2-18 4 0 1 3 3 6 3l3 1c1 1-3 2-5 1l-8-2c-5-1-7-1-18 4l-3 1 2 2 3 2h-2l-2 2h-8l-7 1c-1 1 0 1 1 1l2 1h-9c-5-1-6-1-8 1l-4 2c-1 1 0 1 3 2 5 0 5 2-1 2-3 0-4 0-3 1 2 1 1 2-4 1l-4-2c-1-3-2-2-6 1l-7 3-3 1-5 2c-3 0-4 0-4 2s-4 3-7 2l-3-1c-1 1-1 1 1 2l2 1c0 2-5 2-9 0-4-1-6 1-2 2 3 2 3 3-2 3-2-1-4 0-5 1h-13v2c3 2 2 3-1 3-6 0-17 2-17 3l-6 2c-5 0-7 1-7 4 0 2 0 2-10 2-6 0-7 0-9 3-4 3-8 5-14 5l-6 1-4 2-6 2-9 3-7 3h-3c-3-1-3-1-2 1 0 2-1 2-2 1l-2-1v1l-1 2c0 2-1 2-2 0h-2l-2 1-3 2-5 1-5 1-4 1c-3 0-4 1-5 2l-3 2h-12l-1 2 1 2h-9c-1-1-2 0-3 1-2 2-3 3-5 3l-7 1-8 2-5 2-4 1c-2-1-2 0-3 2-1 3-4 4-5 2h-3l-4 1-7 2-16 5c-10 2-13 4-14 5l-2 1c-3-1-10 2-13 4-2 3-4 3-6 2l-8 2-10 4-7 2-15 6c-2 0-3 0-4-2l-2-1-3-1-1-4 1-5-3 1-4 1c-2 2-2 6-1 7l1 2c0 2 1 2 4 1l3 1c0 2-3 4-7 4l-6 1-9 4-7 4h-3l-6 3-11 4c-6 1-18 6-20 7-1 1-5 1-5-1l4-2c3-1 6-3 4-5-1-1-9 2-9 4-1 1-1 2-3 2-4-1-5 1-1 3l3 1-4 1-5 2c-9-1-8-1-11 3l-4 3-3 2-8 3c-3 1-7 2-9 4l-4 2-2 1c-1 2 7 1 12-1 6-3 9-3 11 0 3 2 2 3-3 4l-4 1 4 1 6 1c2 1 1 4-1 6h-5c-1-2-4-2-4-1l1 2c2 2 2 3-3 4-2 0-4 1-4 3-1 2-1 2 3 2 3 0 4-1 5-3 2-2 2-2 4-1h4c3-3 10-5 14-4l3 1-5 1-15 5-2 4-3 3c-3 1-5 2-6 4l-1 4 5-1c3 0 6-2 8-3 4-2 5-2 5 0 0 3 2 4 4 1l4-4 1-3-3 1c-2 2-9 0-9-2l5-1c5 1 6 1 8-2l4-2c2 1 5-2 5-4l-2-2h-3l2-2c3-2 8-2 9 0h3c2-1 2-1 4 1l1 8c-1 4 0 5 1 5l3 2c1 2 1 2 2 1l1-5 1-8c2-3 3-4 5-4l5-2c3-2 6-2 7 1s4 5 6 3c3-1 3-1 1-5-1-3-2-4-1-6l1-6h4c0 2 4 6 6 5 1 0 2 0 1 1l1 2 1-3c-1-2 0-3 1-3 3 0 3-3 1-3l-1-2 1-5-1-4 9-2h4l-1 4c0 3 1 4 3 6 4 4 6 4 7-2l3-5v-2l1-3c1-3-2-4-8-4-4 0-5-1-5-2l5-2h7c1-1 3 0 6 3 4 5 4 6 2 7-2 0-2 1-2 7s0 6 3 7c2 0 3 0 5-4 3-7 7-6 4 1-2 3 0 5 6 5 4 1 5 1 7-2 4-5 6-3 2 3l-3 3 3 2c4 4 8 4 11 1s7-5 8-3c1 0 0 2-3 4l-5 4-1 4c1 3 4 4 8 3h5c2 0 2 0 0 2l-4 2v2c1 1 2 1 4-1l6-2h2l-3 3c-4 3-5 5-1 5 3 0 3 2-1 4-3 3-2 4 3 4 2 0 3 1 3 2 0 2 4 6 5 5s0-13-1-13l-1-2c0-2 5-2 6 0 1 1 3 1 3-1l-1-2c-1 0-1-8 1-12 3-6 5-8 7-7s1 3-2 9c-2 4-3 5-1 6 4 1 21-4 21-7l2-1c1 0 2 2 1 4-2 1-3 15-2 17v6c0 5 1 6 2 7l2 1v-9c1-1 1 0 2 1l9 9v-2l1-1 2 1 3 2 2 1h15l2 1 2 2 3 2 1-3c1-3 4-5 7-5s5-1 5-4v-3c-2 0-2-3-1-3 2-1 2-2 1-5 0-4 0-5 2-4l2 5c1 7 1 4 1-7l1-11h3l2 1 1-16v-1l-1-3c-2-3 0-5 2-3 2 1 3 1 4-3 3-7 3-8 5-7l3-1h2l1-2 1-4c2-1 2-3 2-7 0-6-1-6-6-3l-7 2c-1 0-3 0-4 2-1 1-1 1-4-1l-3-3c-3-1 0-3 6-3l8-1h3l4-1c5-1 7 1 7 8l-2 8c-2 2-1 4 1 3 2 0 3 2 3 5s0 3-2 3h-1l1 2c2 1 2 2 2 3h-1c-2-1-3-1-3 1v3l4 2c2 0 3 4 2 7s-4 3-5-1c0-2-1-3-2-3s-15 14-14 15l-2 3c-1 2-2 3-1 4 1 2 1 1 4 0l7-8c4-5 4-5 8-4l4 1c1 1-2 2-3 2-1-1-3 1-6 4s-4 5-3 6l-1 3-2 2c0 3-1 3-4 3s-4 1-4 3c-1 3-1 5 1 5 1 0 11-12 12-16l3-1 4 1 1-2c1-4 3-5 5-3v7c-3 6-2 9 4 11l5 4 1 2 4 1c3 2 3 2 3 4 0 4 6 7 8 4l3-1 3 1c2-1 2 0 2 7 0 8-1 10-3 8-1-1-1-1-1 1s3 4 7 5l3 2h5c3-1 4-3 2-4l-4 1c-1 2-1 2-3-1v-4c2-3 2-6 0-7s0-5 3-7l1-2c0-3-6-9-9-10-3 0-3 0-3 2s0 2-4 1c-5 0-6-1-6-2 0-2-4-3-8-3-3 0-5-2-4-4h7l6-1c0-2 3-4 4-2l3 1 4 2c0 1 2 2 3 1l2 1c0 2 4 6 6 6l3-1c1-2 1-2-1-2-1 0-2-1-2-3s0-2 2-2 2 0 2-2l-1-3-7-3c-7-2-12-5-11-6l4 2 8 2 5 3c3 3 5 1 6-4 2-5 2-5-1-8-4-5-6-6-14-8-12-3-13-3-13 0s-5 3-5 0c-1-2 5-9 7-8l1-1v-2c1-2 5-2 6 0v2l-1 3c0 2 5 3 9 2l14 9 2 2 1-2 3-3c2-1 9-11 8-12s0-2 1-3c1-3 1-3-5-7l-7-6c0-3 2-3 5 0s7 5 10 5 3 0 8-9l6-6c3-2 5-5 3-6l-1-2-5-6-5-6c0-3 3-1 9 5 8 8 9 8 13 2l8-7c3-2 4-3 4-5-1-4 1-7 4-6 2 0 3-1 5-3 4-3 9-5 11-5s2-3 0-4l-1-3-2-3c-2-1-3-5-1-5l3 3c1 2 3 2 4 2l3 2c2 2 3 2 5 1l5-4 3-2c2 0 8-6 8-7l-2-3c-2-3-5-11-4-12s4 1 6 5l2 7 2 2h5l4-4c0-3 2-4 4-4s3-1 3-4l-1-8-1-9c0-5 0-5-2-5s-6-6-5-7v-4l-1-7c0-2 0-3-2-2-6 2-8 0-2-3h4c1 1 4 0 3-2l3-2c4-2 9-3 10-2 1 2-4 5-8 5-3 0-3 0-2 2l-1 6c-1 3-1 3 1 6 6 6 7 8 6 13l2 10c1 4 4 7 5 8 3 3 10 5 12 3l6-1c4 0 4 0 6-5 3-6 3-7 2-13-1-5-1-6 2-8 2-2 2-2 1-4-1-3 0-7 3-7v-2c-2-2-2-3-1-6 2-6 0-10-7-9-3 0-5-2-5-5 0-4 1-5 4-2 1 2 3 2 5 2 5 0 7 2 8 6 1 5 2 15 1 17v6l-1 7-2 9c-1 5-1 5 1 5l4 3c1 3 4 4 5 2h3l6 1c3 0 4-1 4-5l1-6c2-2 3-1 3 3 0 6 1 7 10 8h11c2 0 2 0 3-2 0-3 2-5 4-4l1 3 2 4 19 3h4l2-5c3-10 6-9 4 1-2 7-2 7 9 10 6 2 8 3 10 2 3-2 4-2 5 1 0 2 1 3 4 4l6 3c8 2 8 2 10 1 2-3 4-2 4 2 0 3 0 3 2 4l4 2c5 4 7 5 11 3 3-1 4-1 4 2 0 2 5 7 8 9h7c4-1 5 0 3 4s0 6 3 6c2 0 3 1 4 3 2 3 2 3 5 1 3-1 5 0 4 4 0 3 0 3 2 5l3 3c1 3 3 4 6 2 4-2 6 0 2 3-2 3-1 6 4 11l6 4c3-1 4 2 2 3-2 2-2 2 0 3 1 1 3 4 3 7 2 4 2 5 4 4s3 2 2 4c-1 1-1 2 1 5l1 5c-1 2-3 1-4-2l-8-12-7-11c0-1-5-6-7-6l-6-3-6-2-5-3c-4-1-5-2-18-1h-14c-12 0-18 0-24 3a710 710 0 0 1-26 10c-4 0-19 11-24 18a635 635 0 0 1-14 18c2 1 2 3 0 3s-4 3-4 7l-3 7c-5 7-6 16-1 17l1 1-2 1c-3-2-5 10-3 13 0 1 3 2 8 2l8 1h-19v3l1 4c3 2 2 3-2 3-4 1-5 2-3 3l2 3 2 3 2 2c0 2 3 2 5-1 1-2 2-2 3 0l6 2 5 1c1 1-2 2-5 3-5 0-6 2-6 5 1 3 6 4 7 2 1-3 2-2 2 1s1 4 3 3h5c3 0 4 3 2 7v5c1 2 1 2-1 4-2 4 0 5 5 4 9-1 18 1 15 2-2 2-25 1-26 0s-1-1 2-2c2-1 2-1 1-2h-4c0 2-4 6-5 6l-1-13c2-5-1-8-3-5l-4 1c-4-1-4 0 0 3l3 3c0 2 0 2-4 2l-6 1 4 1c5 0 6 3 2 6l-2 3-2 1c-3 0-8-6-7-7 2-2 1-3-1-2l-5-1-4-2-6 4-2 2c-1 1 0 2 4 3 7 3 8 5 3 6-6 1-6 1-5 3s0 3-4 3c-3 0-2 3 2 5 5 2 7 4 5 7-1 2-12 5-19 5l-5 1 1 6 7-1c5-1 7-1 5 2-1 1 0 1 2 3 2 0 4 2 4 3 0 2 1 2 10 1 7-1 9-1 10-3s2-2 6-1c7 0 8-1 4-5-2-3-2-3 0-5 3-2 2-3-3-3-4 0-8 0-14-2-2 0-3-1-3-2 0-2 4-3 9-3l6-1-1-1-5-2c-5 0-3-2 3-3l7 1c1 1 2 2 3 0h4c6 1 10 1 11-1 0-1-1-2-4-2-4 0-7-1-5-2v-3c0-3 0-3 2-3 4 0 6 1 4 3-1 2-1 3 1 3 1 0 2-1 2-3 0-3 2-3 2 1 1 4 0 10-2 11l-4 1-5 2c-3 3-3 3-1 3 4 0 9 0 11-2l6-1-2 4c-2 3-3 4-5 4-4 1-6 3-6 6 0 2 1 2 5 3 13 1 15 2 12 5h-14c-2 0-1-1 3-1 6 0 6 0 2-1l-8-1c-5 0-5 1-5 6 0 1 0 2-2 3s-6 0-6-2-5-2-11-1l-18 1c-13 1-15 1-15 3h4c4 0 7 1 6 2s0 2 1 3c3 3 2 5-1 5-2 0-2 0 0 2v3h-3c-2-1-12-1-14 1-2 1-2 1 0 2 3 2 1 3-3 2-5-2-5-5-1-7 2 0 3-1 3-2 0-2 4-3 8-3 5 0 5-2-1-3-3-2-5-2-7-1-3 1-6 1-6-1l-4-2c-2-1-2-1-2-3s0-2 11-2l15-2c3-2 3-2 1-2l-6-1-3-1c0-1-3-1-4 1 0 1-5 2-5 0l2-1 1-4c0-3 0-3-5-3-3 0-5-1-5-2l1-2c1-1 1-3-1-5l-2-3c0-2-4-4-8-5-2-1-2-1-1-2 1-2 0-2-7-3l-9-2-6-2c-6-1-8-3-6-5l4-1c5 1 7 0 7-2 0-1 0-2-2-2l-3 1-2 1-1-2c1-2 0-4-4-4l-5-2-5-2-6 2-8 3-1 2h4c3-1 4-1 7 2l4 2c1 1-5 6-8 8s-2 4 5 6l5 2c0 2-9 11-12 11-4 0-3 2 1 3l7 5c2 3 4 4 6 4l3 2c0 1-2 2-6 1l-8 1c-3 0-3 0-1 1l6 1c6 0 8 2 8 4 0 3-3 6-4 4l1-2c3-3 2-4-24-7-7-1-11-3-10-6 1-1 9 0 11 2h3l5-1h6l2-1-3-2-7-3c-3 0-4-1-4-3l-2-1-10 1c-7 1-7 1-7-1 0-3 0-3-4-3-5 0-6-1-6-3-2-3-6-3-10 1-3 2-3 3-1 4l8 4c6 2 7 2 7 6v3h-7c-7-1-8-1-11 1l-6 3h-3l5 1c5 2 6 3 2 4a249 249 0 0 1-25 4l3 1 6 1 20 3 4 1-5 3-4 3 6 1c7 1 8 1 7 3l-5 1h-6l-6-1zm-38-42-1 1v6l1 6 1-6-1-7zm17 11-1-3c-1-1 0-2 2-4 3-3 3-3 2-6-1-2-1-2-3-2-3 1-4 3-4 7l-1 4v-3l-1-5-2-1v12l8 1zm-10-1v-6c0-5-1-7-2-4s0 10 1 10h1zm41-2c2-2-2-4-7-3-4 1-6 2-4 4 1 1 10 0 11-1zm181-6-1-1-1 1 1 1 1-1zm-41-6c8-1 5-6-5-7-6 0-6 0-7 3s-3 4-7 4l-2 1 2 1 3 1h7l9-3zm-8-2 6-2c2 0 3 1 0 2h-6zm-350 1 35-2c2 0 2 0 2-6l1-10c2-7 2-16 0-16-3 0-4-2-3-5l1-9c-1-5-1-8 1-7l2-2v-2h-2l-4-1-4-1-2 1-5-1h-3v5c1 7 2 9 4 9 2 1 2 1 2 3-1 2 1 3 1 1 1-2 4-1 4 1v4c1 2-4 4-11 2h-7l-1-3-1-2-5 2-12 1c-7 1-8 1-9 8v4h11c8 1 10 0 11-1l2-1 3-2h2c1 1 2 1 3-1 2-2 2-2 4-1l1 3c-1 3 1 7 2 7l3 1c1 2-3 7-7 8-3 0-6 4-4 5l-1 2c-1 2-1 2-2 1l-2-3-1-3-19 4-16 4-25 5h13l38-2zm29-52c-1-2 0-4 2-4 1 0 2 1 1 2 0 3-2 4-3 2zm136 45c0-8 0-8-2-7v9c-1 4-1 5 1 5s2 0 1-7zm44 4c2-2 2-2-1-2l-2 2c-1 3 1 2 3 0zm185-1c1-2-3-3-5-2-2 2 0 5 3 4l2-2zm-349-1-1-3v4c1 1 1 1 1-1zm142 0c3-3 3-4 2-5-4-2-10 1-9 5 1 3 5 3 7 0zm-11 1 1-4-4 3 3 1zm76-2c1-1 0-3-3-3-5-1-7-2-7-5v-1c-2 0-2-4-1-6 2-2 2-2 0-2-4-2-18 0-20 2s-2 2 1 2h5c3 0 3 0 2 4l-1 3h4c4 0 4 2 1 3-2 1-3 2-2 3 1 2 2 2 10 2l11-2zm94-1c0-1-4-2-6-1v1c2 2 7 1 6 0zm-254-2-1-2-2 2c0 2 2 1 3 0zm-23-1c1-1 2-2 1-4 0-3 0-3 2-3l4 3c3 4 6 5 6 1l-1-3-1-5v-5l-1 2c0 1-1 2-3 2-6 0-8-5-3-7 3 0 2-2-2-1l-3-1h-4c0 1-3 2-7 2h-6v8l1 10c1 1 14 2 17 1zm18-1-1-3h-2c-1 2 1 4 2 4l1-1zm265 0-1-2-1 1c1 3 3 3 2 1zm-22-3h-9l5 1c3 2 5 2 5 1 1-1 0-1-1-2zm17 2v-2h-11v2c0 2 8 2 11 0zm-178-3-1-1-1 1 1 1 1-1zm-153-3-1-2v4c1 1 1 1 1-2zm185 0c1-5 5-6 9-2 2 2 3 3 5 2 4 0 4-1 1-2l-4-3c-1-3-1-3-7-3-7 0-8 1-8 6s2 6 4 2zm130 0v-10c-1-2-5-1-12 2-8 4-8 4-9 6v3c3 2 19 1 21-1zm-240 0h-1c-2 1-2 2-1 2l2-2zm63 0v-1l-1 1 1 2v-2zm209 0c5-1 2-3-6-3l-4 1-2 2h-2 14zm-65-1-2-1-2 1 2 1 2-1zm-597-2 1-9-2-17c-1 0-2 4-2 16 0 11 0 12 2 12l1-2zm563 1c4-2 3-3-1-3-3 0-4 1-2 3h3zm-137-4c-1-1-1-1-1 1s0 3 1 2v-3zm43 3c-1-2-3-2-3-1l1 2 2-1zm8 0c0-3-2-4-4-3v2c1 2 4 2 4 1zm-94-4h-1l1 2v-2zm-69-2h-1l1 2v-2zm-37-1c0-2 0-2-1-1l-1 2c1 2 2 1 2-1zm176 1c0-1 0-2-1-1v1h1zm193-4c-1-1-2 1-1 3h1v-3zm-365-1-1-4v6c0 3 1 1 1-2zm62 2v-2l-2 2 1 1 1-1zm136-1c2-1 3-2 6-1l4-1 4-3c4-1 7-4 4-3-8 2-23 5-25 4-5 0-6 3-2 5s7 1 9-1zm136 0c-1-3-2-5-5-5-2 0-4 2-4 4s2 3 6 3c2 0 3 0 3-2zm-574-4-2-1c-2 2-3 2-2 5h2l2-4zm341 2c-1-1-3 1-3 2h2l1-2zm48 2v-2c-1-1-4 0-4 2-1 2 3 1 4 0zm95-1 3-2c0-1-3-3-6-3h-1l6-2c4-1 7-5 6-6l-11 2c-10 2-11 2-14 5s-3 6-1 7l18-1zm180-1c3-2 3-3 2-6 0-4-2-4-3 0 0 5-1 5-2 2 0-4-1-5-2-2-1 2 0 8 1 8l4-2zm-344-1c0-2-2-3-4-1l-2 2 2 1c4 0 4 0 4-2zm8 0v-1l-1 1v1l1-1zm50 0c0-1-3-2-4-1l1 1c2 2 3 2 3 0zm208 0c2 0 3-1 3-2 0-2-8-3-10-1-2 1-2 2 1 3h6zm-239-1c1-1-2-2-3 0-2 1-2 1 0 1l3-1zm294-2-1-3c0-2-3-2-3 0h-3c-3-1-8-1-8 1l4 1c4 0 6 0 6 3h3c2-1 3-1 2-2zm5 2-2-2-1 2 1 1 2-1zm-41 0c0-2-1-4-2-3v2c1 2 2 2 2 1zm5-3-1 1 1 2v-3zm-302 1c-1-2-5-2-5 0l3 1 2-1zm238 0c1-1 0-1-1-1l-3 1h4zm-546-5c0-5 1-8 2-4l1 4c-1 2 0 4 1 4v-4l1-4c1-2-1-3-5-3l-3 2v9c2 1 3 0 3-4zm317 0c0-3 3-4 3-2l3 3h5l1-3h-3c-1 1-1 1-4-2-3-4-3-6-1-8 1-2 3-1 4 2 0 3 1 4 3 1 3-2 2-5 0-6l-2-4-1-5-1 3c0 4 0 4-3 4l-5-1c-2-1-3-2-5-1l-6 2h-5v4c-1 3 0 4 1 5l1 3c0 2 0 2 2 2 1-1 2 0 3 1 1 2 2 3 4 3s3 0 3 2c0 3 2 0 3-3zm304 3c-1-1-7-2-7 0l6 1 1-1zm-683-1c4 0 5-1 5-2 0-2-1-2-5-2-6 0-10 1-9 3 1 1 2 2 3 1h6zm398 0-1-1-1 1 1 1 1-1zm60 0c3-1 3-2 2-5v-5l1-4c0-3-1-3-4-4l-5-2c-3-3-11-4-13-2-2 1-2 3-2 7 2 11 4 12 3 2v-7h3c4 0 4 2 5 10 0 4 1 7 2 7v-11c2 0 2 1 2 5l2 8c2 2 1 2 4 1zm-2-5c-1-3-1-8 1-8l1 5c0 5-1 6-2 3zm185 5c2 0 4-3 4-5 0-3-3-4-9-2-9 1-12 6-5 6l4 1h6zm-36-3h-4l3 1c2 0 2-1 1-1zm73 0c4-1 1-4-3-3-2 1-3 1-2 2 1 2 3 2 5 1zm-342-1v-18l-14 1c-5-1-7-1-8 1l-4 1c-2 0-3 1-3 2s2 3 4 2l3 3c1 3 2 4 6 4h6l1-4c-1-7-1-8 2-7 2 0 2 0 2 4l1 5 1 2 2 5 1-1zm375 0-1-1-1 1 1 1 1-1zm7-2h-2l1 1 1-1zm-740-5c0-4-2-6-3-2 0 2-2 3-2 1l-2-2c-2-1-3 1-3 5l4 2c5 1 6 1 6-4zm5 3c0-2 2-3 2-1s4 1 5-2c0-2-3-4-5-2-1 3-2 2-2 0l-1-1c-3 1-4 8-1 8l2-2zm462-2-1-3v7l1-4zm252 2-2-2c-2 0-2 2-1 3s3 0 3-1zm-387 0c0-2-5-3-5-1 0 1 1 2 4 2l1-1zm125 0-2-9v8c0 2 2 3 2 1zm251-1-1-1-2 1 1 1 2-1zm-682-2 1-3c-1-2-4-3-10-2-3 0-3 0-3 4l-1 3h6l7-2zm68-1-1-2c-1 0-3 2-3 4h2l2-2zm-62-2c0-2-1-2-1-1l-1 3h2v-2zm38 2 1-4c0-4-1-5-5-4-3 1-5 5-4 8 1 1 5 2 8 0zm13 0-1-2-1 2 1 1 1-1zm444-1c0-2 0-4-2-4l-1 3c0 4 2 4 3 1zm-491-1v2-2zm12 1 1-3-1-3c-2 0-3 5-2 6 1 2 2 1 2 0zm4-2c0-3 0-3-1-1v4l1-3zm7-7c7-2 7-2 7-5s-1-4-8-2l-10 1-6 1c-3 1-3 1 1 3 5 2 9 2 9 1l2-1 1 4c0 7 0 9 1 4 0-4 1-5 3-6zm19 6-2-4-1 4c0 3 0 4 2 4l1-4zm-35 2c0-1 0-2-1-1l-1 1 1 1 1-1zm284 0-1-1-1 1 1 1 1-1zm404-2c1-2-1-3-4-2-2 1-2 2-1 2 2 2 4 1 5 0zm-744-1-1-4c1-2 1-3-1-2-3 0-2 7 2 7v-1zm-17-2v2-2zm22-2-1-2c-1 0-2 3-1 5s2 1 2-3zm143-8c-1-2-2 3-2 7l1 5 1-5v-7zm36 10c1-1 4-2 9-2 8 0 12-2 10-4h-10l-7 2c-5 1-6 1-5 4 1 2 2 2 3 0zm-158-1 4-1h3v-1a359 359 0 0 1-1-1l3-1-5-1c-7 0-15-2-16-5-1-2-3-3-2 0s1 6-1 6-3 2-2 3l12 2 5-1zm75-3-1 1 1 1v-2zm6 0-1-1-1 2 1 1 1-2zm116 1c3-2 3-3 0-5l-4 1-7 2h-3l2 2c4 2 8 2 12 0zm27 1 3-1v-2c2-1 1-2-4-2-3 0-5 0-6 2l-6 3h13zm94-2-2-1-2 2c0 2 4 1 4-1zm-230 1-1-1h-1l1 2 1-1zm164 0c2 0 3-4 1-5s-8 1-12 3c-3 1-3 1 1 2h10zm46-1-2-2c-1 1 0 4 1 4l1-2zm120-1h-1l-1 2c1 1 2 0 2-2zm243 0 2-1h-3c-4 0-10 1-12 3-1 1 10 0 13-2zm40 2v-2h-2l-1 2h3zm-610-4v3-3zm7 1v-5c-1-2-1-2-1 0l-1 4c-1 1-1 4 1 4l1-3zm-156 0c3-2 4-4 1-9l-2-4-1 2c-1 3-1 3-5 3-4-1-5 0-3 2l1 3c0 2 2 4 4 5l5-2zm203 1-1-1-1 1 1 1 1-1zm236-2-1-6 1-5c1 0 2 1 2 3l3 4 3 2c1 3 2 2 2-2 0-3 2-7 3-7l2 2c1 2 1 2 3-2l2-6 1-4c2-3 0-3-3-1-3 3-4 3-8 3-5-1-7-2-6-4 0-1 1-2 5-1h5v-11l-1-11c-1-1-4 1-4 3 0 3-2 4-4 3h-5c-3 2-4 3-3 5 0 3-2 5-3 2l-1-2c0-2-1-1-1 1l-1 3c-2 2 4 3 7 1h3c1 2 0 3-2 4-2 2-3 3-6 2l-7 1-8 2c-9-1-9-1-9 4 0 4 2 8 3 8l1-2c1-3 2-2 4 3l1 2c0-4 2-1 3 2l1 4c1 1 1 0 1-4-1-6 0-9 1-7l1 5 2 4c2 2 2 2 3-1l1-5c-2-6-2-9-1-9l2 3c1 2 2 2 3 2 3-2 4 6 1 9s-3 4 0 4l2 1c1 2 3 1 2-2zm13-15v-1l1 1v1l-1-1zm50 13c-1-1-3 1-2 3l1 2v-2l1-3zm-122 2-2-1-1 1 2 2 1-2zm203-2v3-3zm-179-2 2-7-1-6v-4h-6l-9-1h-3c-2 2-13 4-19 3h-4v7l1 8 1-5c0-7 2-8 4-2s7 8 11 6l2-3c0-3 4-4 5-1 0 2 2 3 2 1l2-1 2-2c1-4 2-3 2 2 0 4 0 5-2 6-4 1-2 3 3 3 4 0 5 0 7-4zm-5 0c-2-2-2-3 0-3l3 2c1 3 0 4-3 1zm14 3c0-3-2-4-4-2v2c2 2 4 2 4 0zm318 0c-1-1-3 0-3 1h2l1-1zm-613-1c1-2-1-4-3-2-1 1 0 4 1 4l2-2zm5-1c-1-1-1-1-1 1l1 1v-2zm217 2h-3c-2 0-2 1 0 1l3-1zm133-1-1-1-1 1 1 2 1-2zm122 1h-2l1 1 1-1zm-583-2c1-2 1-3-1-4-2 0-3-2-3-5-2-6-2-12 0-11v2l1 3c0 1 1 1 1-2l1-3 3 7 1-3c2-4 3-11 1-11l-1 3c-2 4-4 2-4-3 0-3-2-7-4-11l-4-8c0-3-3-3-4 0l1 5v4l-1 4c0 3 0 3 2 2 1-1 1 0 1 4 0 13 1 18 4 22l2 5c-1 2 3 2 4 0zm20 1-1-2-1 1 1 2 1-1zm8-2-2-7c-1-8-3-8-3 0l2 8c2 2 4 1 3-1zm703 2c3-1 2-2 0-2l-2 1c-1 2 0 2 2 1zm-723-1c-1-2-3-2-3-1l2 2 1-1zm508 0c7-3 8-6 5-13-1-3-2-4-11-7l-8-1c-4 0-5 0-5 2l1 2 1 8c0 5 0 6 2 7 5 3 5 3 5-6 0-7 1-9 3-6l1 7v6c2 2 2 2 6 1zm-15-6c-1-3 0-10 1-10 2 1 2 9 1 11-1 1-1 1-2-1zm11 1c-1-2-1-5 1-5 1-1 2 4 1 5h-2zm-467 3-1-1-1 1 1 1 1-1zm298-1-1-2c-2 0-4 1-3 3 1 1 4 1 4-1zm145 0 3 2-1-11v-5c2-2 1-4-2-6l-3-3-1-2c-2 2-1 5 2 6 2 1 2 1 2 5l-3 7-2 5c0 4 0 4 1 3 1-2 1-2 4-1zm8-3-1-5c1-1 0-5-1-5l1 13c1 3 2 2 1-3zm77 3c0-1 0-1 0 0v2-2zm-368 0-2-2h-5l-7 1-6 1h20zm-168-2-2-4v-3c1-1-1-2-2-3h-2l1 3v5l1-1c1-1 1 0 1 1 0 4 3 6 3 2zm236 1h-2s-1 1 1 1c1 0 2 0 1-1zm16-1c0-2-2-2-7-1l-5 2c-2 1 1 1 5 1 6 0 7 0 7-2zm-246-2-1-1-1-7v-7l-1-2v2l-1 9v7c-1 2 0 2 1 1l3-2zm262 1v-1h-5c-5 0-6 1-5 2 0 1 6 1 10-1zm-292-7c0-8-1-10-3-5-2 4-2 8 0 11s3 0 3-6zm97 4c-1-1-2 1-1 2h1v-2zm-59 1-1-1-1 1 1 1 1-1zm120 0v-1l-1 1v1l1-1zm-169-1-1-1v2l1-1zm87-6-1-6c-1 0-2 2-1 8 0 7 2 7 2-2zm468 5c-1-2-2-2-2 0l1 2 1-2zm-213 0-1-3-1-4c0-6 0-6-7-6l-6 1h2l6 2c3 2 3 2 1 4-2 3-4 3-7 1l-6-1c-5 2-5 2-8 0l-4-3c-2 0-3 0-5 2l-1 3c2 2 19 3 22 2l5 1c6 3 9 3 10 1zm130-4h-2l-1 3 1-1 2-2zm55 1v2-2zm7 0-1-1-1 2 1 1 1-2zm119 0-2-1 1 2 1-1zm-506-13-1-13v26c1 1 1-1 1-13zm334 11-1-2-1 3 1 1 1-2zm-307 0v-1l-2 1 1 1 1-1zm-129-1c1-2-1-4-2-3s-1 4 1 4l1-1zm92-10-1-8-2 19c2 2 3-3 3-11zm41 3-2-3v2a767 767 0 0 1 2 1zm-58 2c0-1 0-1 0 0v1-1zm43 1v-1l-1 1v1l1-1zm9-1v-2c-1-1-4 2-4 3s3 1 4-1zm189-2c0-3 1-4 2-4l2 4c1 2 2 3 2 1l1-1 6-1c4 0 4 0 4-2v-10c2-1 3-1 4 2l1 3 1-3v-4l-2-3c0-2 0-2-1 0-1 4-11 5-11 2l-5-2-1 2-5 1h-5v3c0 3 1 4 2 4 3 0 4 3 4 6 0 4-1 5-3 4-5-5-5-5-5-2 0 2 3 4 7 3 2 0 2 0 2-3zm4-9c-1-1 0-5 2-5l1 3c0 3-2 4-3 2zm-209 10h-1c0 1 0 2 1 1v-1zm-170 0v-2l-1 1c0 2 1 2 1 1zm421-1 2-1c2 0 2-2 0-4-2-1-2-1 0-5l1-5c-2-3-4-3-5 0l-2 3-1 5c0 6 4 11 5 7zm-18 0-1-1-2 1 1 1 2-1zm9-3v-7l-1-7c-1-3-1-3-5-3s-4 0-5 3v7c0 3 1 4 3 5 3 0 5 2 5 4 0 3 3 2 3-2zm58 2-1-1v2l1-1zm-448 0v-3c-1-2-2-2-2-1-1 3 1 6 2 4zm548-3c1-3 2-6 0-6l-3 7c0 4 1 3 3-1zm9 0c-2-1-2 1-1 2 0 2 0 2 1 1v-3zm-64 2-2-6-1-6-3 2c-3 2-3 4 1 8 2 3 5 4 5 2zm88 0c1 0 2-1 2-3 0-3 0-3-3-3-3 1-5 3-4 5s2 2 5 1zm-376-1h-2l1 1c1 0 2 0 1-1zm-93-3h-1v2l1-2zm200 0-1-1 1 2v-1zm7-1-2-2 1 3 1 2v-3zm289 2-1-2c-1-1-1 0-1 1l1 2 1-1zm-442-3-1-3-2 4 1 2 2-3zm331 0c0-4-1-5-2-2 0 3 0 5 2 5v-3zm130 0c-1-1-1 0-1 1l1 1v-2zm-158 0-2-2-1 2 2 1c1 0 2 0 1-1zm5 0c0-1-1-2-2 0l1 1 1-1zm52-3h-1l-1 2c0 2 0 2 1 1l1-3zm-77 2 1-2c-1-1-3 1-3 2 0 2 1 1 2 0zm57-4c-2-2-2 0-1 3l1 3v-6zm-459 2-1-2-1 2 1 2 1-2zm282 0 1-3v-3l-2-7c-1-8-1-9-4-9-4 0-9 3-13 7l-4 5-1 1 1 6c0 2 1 3 2 3 2 0 2 0 2-2s1-3 2-3l2-1c0-2 1-2 2-2 2 0 3 0 3 3 1 2 1 2 2 1 2-2 4-1 4 2 0 4 2 6 3 2zm108-1c-2-3 1-7 9-14 3-2 3-2 2-3l-1-3c0-5-8 2-9 7 0 3-1 4-3 5s-3 1-2 2l1 6c0 3 0 3 2 2l1-2zm42 0-1-2-1 2 1 2 1-2zm-235-2-1-1-1 2 1 1 1-2zm164 0-1-3c-1 0-2 1-2 3s1 2 2 2l1-2zm184-2c-1-2-1-2-2 0v3c1 2 1 2 2 0v-3zm-424-2c-1-2-6-2-6 0l2 1 2 1c2 1 3 0 2-2zm317-3 3 1 1-1-1-2c-1-1-2-1-4 1l-6 3c-2 0-2 0-1 2s1 2 4-1l4-3zm-457 2c1-2 2-2 3-2h2c0-2-3-3-5-3s-3 1-3 3c0 4 1 5 3 2zm49 0v-1l-2 1v2l2-2zm62-6-2-9-1 3c0 6 1 14 2 13l1-7zm228 5c0-2-2-3-3-1v2c0 1 3 1 3-1zm-208 0-1-1-1 1 1 1 1-1zm15 0c1-2 9-4 11-4l2 3c1 2 4 2 5-1 1-2 2-3 5-3s3 0 3-2 0-2-4-2c-3 0-4 0-4-2 0-1 0-2-3-2s-3 0-1 1c1 1 1 1-1 3l-4 2h-3c-1 2-2 2-3 1-2-1-2-1-5 4l-1 2h3zm17-7 1-1v1l-1 1v-1zm164 6-4-1c-3 0-4 0-2 1 1 2 5 2 6 0zm-15-1c0-2-1-4-2-2v4l2-2zm-297-2-1-3v-15l1-5v-3c-2-1-3 1-5 7v9c2 6 1 7-3 7l-4 1 1 1c1 0 4 0 7 2 2 1 4 1 4-1zm59-4-1-1-1 4c0 3 0 3 1 1l1-4zm46 2c0-4 3-5 3-2 1 1 1 2 2 1l5-1c3 0 3 0 3 3 0 2 0 2 2 0h4c1 1 2 1 3-1s2-3 0-5l-1-4c0-3-8-2-11 0-2 2-4 3-7 2-5 0-5 0-5 3l-1 4c-1 2 0 4 2 3l1-3zm10 1c-1-2-2 0-2 1 0 2 0 2 1 1l1-2zm370 0c0-2-2-1-3 1h2l1-1zm-154-1v-2l-1-4-1-8-1-7c0-2 0-2-2-2l-17 3 2 1c2 0 3 2 1 9l-1 7-2-2c-2-3-3-3-3 2 0 3 0 3 7 4 4 1 18 0 18-1zm84 0 1-4c0-3 0-3 2-3h3l4-3c3-1 3-2 1-3-1-1-2 0-3 1-1 2-2 2-3 2-2-1-3 0-6 3-4 5-4 6-3 8 2 1 4 1 4-1zm11 0c4-2 4-3 4-4-1-3-1-3-5-1-3 2-4 4-4 5 0 2 0 2 5 0zm12 0c0-2-1-4-2-3-1 0-1 5 1 5l1-2zm66-2h-1l-1 3c1 1 2-1 2-3zm128 1-1 2c-1 1-1 1 0 0l1-2zm-670-1c0-1 0-2-1-1l-1 1v-8c2-3 1-7-2-6-1 0-2 2-2 5-1 7 0 10 2 11 4 1 4 1 4-2zm200 0v-3l-2 4c0 3 1 2 2-1zm8 1c2-2 1-4-2-4l-2 2c0 4 2 5 4 2zm373-2c0-2-2-3-3 0-1 2 0 3 1 2l2-2zm-538 0h-1l1 2v-2zm289 1c1-1 1-1-1-1l-3 1h4zm-243-3c0-4 0-3-1 0v3l1-3zm520 0h-1l-1 2h1l1-2zm-554-3 1-5c3-1 3-2 1-2s-4 3-4 7 0 5 2 4v-4zm41 1-1-3v5c1 2 2 1 1-2zm-19-3v4-4zm7 2v2-2zm93 2-1-1h-4c-1-1-1 0-1 1s5 2 6 0zm-53-3-1-2c-1-1-1 0-1 2l1 3 1-3zm74 1 6-2-4-3-5-2-3-1h-6l-7 1c-2-1-6 3-5 4h9c10 1 13 2 10 4-2 2-1 1 5-1zm-126-4-2-5c-2-1-2 0-1 2l1 5c0 5 2 4 2-2zm137 3-1-1-2 1 2 1 1-1zm-166-4c-1-2-3 1-2 3h2v-3zm47 3-1-1-1 1 1 1 1-1zm54-7 5-5h-4c-4 1-5 2-4 4l-2 3c-2 0-3 4-1 4l6-6zm-58 1-1-3-1 1-2 3c0 2 1 2 2 1 2 0 2-1 2-2zm20 1c-1-1-2 0-1 2h1v-2zm106-2c-2-2-3-2-4-1-1 2 0 4 2 5 4 0 4-1 2-4zm-183 2c0-3-1-5-2-5l-1 6c2 1 3 0 3-1zm511-2-1 1c-1 2 0 2 1 1v-2zm31 2-1-1c-1 0-2 0-1 1h2zm-578-4-1 2c0 2 1 1 1 1v-3zm223 2v-1l-1 1v1l1-1zm-113-6-1-4c-1-1-2 6-1 8 1 3 2 0 2-4zm-42 4-1-1-1 1 1 1 1-1zm-98-3h-2v2h2v-2zm229 1c2-2 3-3 3-6 0-2-1-3-2-3l-1 2c0 2 0 2-4 3-3 0-7 3-7 5s8 1 11-1zm-144-4c0-5-1-7-3-7s-2 3-1 5l3 4 1 3v-5zm29-1c-1-1-1 1-1 2l1 1v-3zm145 3v-4l-2-5h-5c-1 2 1 5 3 5l2 3c0 2 0 2 2 1zm-78-2-1-1-1 1 1 1 1-1zm-24-2c0-3-2-4-2-1v3l2-2zm-35-1-1-3v4c1 1 1 1 1-1zm49 1c0-1 1-2 3-2s3-1 1-2c-1-1-8 2-8 3 0 2 3 3 4 1zm-63-4h-4v3h3l1-3zm33-3-1-3c-1 1 0 6 1 6v-3zm-8-1 1-2-3-1c-3 1-4 1-4 3l3 1 3-1zm46 0c2 0 2-1 1-1-2-1-1-2 1-3s2-1-1-1l-4 1c-2 1-2 0-2-1 1-2 1-2-2-2l-4 1 1 1c3 0 4 2 3 3v3l7-1zm-174-3-1-1-1 1 1 2 1-2zm102 1c-1-1-2-2-4-1v1l3 1c2 0 2 0 1-1zm378-4-1-6c-1-1-1 1-1 5l1 6 1-5zm-336 0v-1c-1-1-7 1-7 3 0 1 5 0 7-2zm122-1-1-1c-2 0-2 1-1 2s2 1 2-1zm353-4-1-2c-1 0-3 1-2 2h3zm-134-4c-1-3-3-2-2 1l1 2 1-3zm151-1c1-3 1-3-1-1-2 1-3 3-1 3l2-2zm-145-2c0-2-2-2-3-1 0 1 1 3 2 2l1-1zm162-5c0-2-1-2-2 0s-1 2 1 2l1-2zm-371-2-1-1-1 1 2 1v-1zm372-2-1-2-1 1 1 1h1zm-28-13-1-2c-2 0-3 2-2 3 1 2 3 1 3-1zm-396-7h2c1 1 3 2 4 1 2 0 5-5 4-6 0-2-2-1-8 2l-7 4c0 2 4 0 5-1zm19-3c4 0 16-4 17-5l2-6 1-3h-3c-5 1-8 4-10 7-2 4-4 5-4 2s-2-4-4-4c-2 1-3 4-4 9-1 2-1 2 1 1l4-1zm33-12c2-3 2-4 0-5h-6c-2 1-3 2-4 5l-1 5c1 1 9-2 11-5zm24-6c4-2 4-2 2-3-2-2-2-2 0-3v-3c-1-3-5-3-8 0-2 1-2 2-1 4l2 4c1 2 1 2 5 1zm17-6c3-1 3-1 2-6l1-6c1-2 0-3-5-1l-5 4c-1 3-3 2-2-1s-2-3-3 0v4l1 5 1 3c1 1 7 0 10-2zm14-6c3-1 3-1 3-7l1-9c0-4-4-4-8 0-2 1-3 4-4 9-1 6-1 6 1 7 3 2 3 2 7 0zm13-3 6-2c3 0 4-3 4-10 0-3 0-5-2-6l-3-4c0-3-4-1-4 2l-2 3c-2 1-2 3-2 5l-2 5-2 5c0 4 1 5 7 2zm-31-5h-2v1l2-1zm53-4c8-1 10-2 12-4l3-3 8-6-1-1-1-5c1-5 0-6-2-8-2-3-4-3-8-1-5 2-4 4 1 3s8 1 4 2l-4 1-4 2c-2 1-3 1-3 7s-1 9-3 6v-5c1-5 0-5-8-3-6 2-7 4-4 4 2 1 2 1 2 6-1 7-1 9 2 7l6-2zm-3-10 1-1 2 1-2 1-1-1zm26 4 2-2c0-2-1-2-4 1l-2 2 4-1zm10-3c7-2 11-4 11-6 0-3 2-3 3-1l1 3 5-3c4-2 5-3 5-5s0-2-5-2c-6 1-12 3-18 7l-6 2-3 2c-1 1-1 1 1 3l2 1 4-1zm300-95h-3c-1 1 0 1 1 1 2 0 3 0 2-1zm40-19c0-2-1-2-3 0-2 1-2 1 0 1l3-1zm14-2c2-1 2-1-2-3l-6 1v2c2 2 5 1 8 0zm10-2h-6c-2 1-1 1 2 1l4-1zm-24-1c2-2 14-6 19-7 7-1 9-2 9-5l1-4 1-10V78l-1-7c-1-5-1-5 2-7l1-2c-1-2-4-1-6 1-1 2-3 3-5 3-5 0-11 2-14 4l-5 2c-2 0-4 1-5 3-3 3-3 3-1 5l-1 1c-3 0-3 3-4 16 0 13 0 15 2 20 2 6 3 7 7 4zm5-45 9-3 3-2h3l-1 1-2 1-10 4-2-1zm23 44h-2l1 1 1-1zm12-3c3-2 3-4-1-3l-4 1c-2 0-2 0-2 2s3 2 7 0zm14-5 2-2h-4c-6 3-4 4 2 2zm-7-5c2-2 6-3 8-3 3 0 6-2 8-3h6c3 3 3 1 1-4-2-3-2-5-1-16 1-13 1-13-1-14-3-3-3-8-1-12 3-5 1-6-7-4-10 4-17 7-17 9l-3 4c-4 4-4 7-5 27 0 15 0 15 2 16 3 3 5 2 10 0zm19-1h-3c-1 1-1 1 1 1l2-1zM549 541l1-1 1 1-1 1-1-1zm5 0 1-1v1l-1 1v-1zm344 0h1l1 1h-1l-1-1zm-332-2v-1c1-1 3 0 3 1h-3zm341-1 1-1v1l-1 1v-1zm-270-2 1-1v1l-1 1v-1zm277 0 2-1 1 1-2 1-1-1zm9-1c-1-1 0-2 1-2 1-1 2 0 2 2s-3 2-3 0zm5-3 1-2 1 1-1 2-1-1zm8-6 3-1c2 1 0 4-3 4h-2zm-195 0h8c0 1-1 2-4 2s-4-1-4-2zm-110-3h2s1 1-1 1l-1-1zm333 0 2-1 1 1-1 1-2-1zm-207-2c1-1 0-2-3-3-2-1-3-1-2-2 2-2 1-2-4-2-5-1-6-1-5-3s2-2 10-1a457 457 0 0 0 24 1c1 2-1 3-5 4-6 0-8 1-9 5-1 2-2 3-4 3s-2-1-2-2zm-103 0 1-1 1 1-1 1-1-1zm27-3h2l-1 1c-2 0-2 0-1-1zm16-3h1l1 1h-1l-1-1zm4 0 2-1 1 1-1 1-2-1zm-361-1 2-1 1 1-1 1-2-1zm6-1h1v1c-1 0-2 0-1-1zm4 0 1-1 1 1-1 1-1-1zm4 0c0-1 1-2 2-1v2l-2-1zm357 0 1-1v1l-1 1v-1zm-352-1 1-1 2 1-2 1-1-1zm7 0c-2 0-2-1-1-1h8c0 2-4 2-7 1zm349 0 1-1v1l-1 1v-1zm-372-12v-2c1-1 1 0 1 2h-1zm-5-1 1-1 1 1-1 1-1-1zm-3-18 1-2 1 3-1 2-1-3zm-11-1 1-4c0-2 0-2 1 1s1 4-1 4l-1-1zm719 0c-3-1-2-2 1-2l2 1-3 1zm59-2 2-1c2 0 1 0 1 1l-1 1-2-1zm5 0c0-2 6-3 7-1l-1 1h-6zm8-1c1-1 3-2 3 0l-2 2-1-2zm-729 0 2-1c3 0 3 0 0 1h-2zm59-2 1-1 1 1-1 1-1-1zm13-1 1-1 2 1-2 2-1-2zm6 1v-2l2 1-1 1h-1zm6 0c0-2 1-3 2-2s2 1 1 2h-3zm10-1 2-1 1 1-2 2c-2 0-2-1-1-2zm4 0 2-1 1 2-1 1-2-2zm4 0 2-1 1 1c-1 2-3 2-3 0zm5-1 1-1 2 1-2 1-1-1zm4 0 2-3 2-1a5196 5196 0 0 0 15-1c2 0 1 3 0 3l-4-1c-1-1-3-1-5 1-6 2-9 3-10 2zm558 0 1-1 1 1-1 1-1-1zm64-2-2-2h-1l-2-1h-3c-1-1 0-1 3-1l4 1 3 1 2 2c-1 2-3 2-4 0zm-701-4 1-3 1 2-1 3-1-2zm680 1 1-1c1-2 7 0 6 1h-7zm-791-4v-2 4-2zm187 3 1-1 1 1-1 1-1-1zm613 0h2l-1 1c-1 0-2 0-1-1zm-626-2v-1l1 1-1 1v-1zm82 0c0-2 4-3 6-2 3 1 1 3-2 3l-4-1zm520-2-1-6-2-4v1l-1 1-1-4v-3h4c6 2 11 3 10 5l-1 4c0 4-2 4-2 1l-1-2c-1 0-4 4-3 5l-1 2h-1zm-626-1 2-1 2 1-2 1-2-1zm-12-1-2-1-2-1c-2-1-1-2 2-3l37-2a122 122 0 0 0 40-4h6l-3-2-5-1-4-1c-5-1 0-2 17-2 11 0 18 0 17 1l-9 1c-8 0-8 1 1 3 7 1 4 2-5 3l-11 3c-1 2-2 2-23 1-40 0-48 0-53 2l-2 1c2 0 2 2 1 3l-2-1zm5 0 1-1 1 1-1 1-1-1zm131-7c-1-2 1-4 4-5 5 0 8 1 8 3-1 2-2 2-6 2h-6zm32-2-5-3c-6-1-9-2-8-4 0-2 2-2 8-2l12 2-2 3v6c-2 1-3 1-5-2zm-168 0c-1-1-2-6-2-17-1-11 0-15 1-10 1 1 1 2 2 1 3-1 4 11 1 14l-1 7c1 6 1 6-1 5zm37-3c-1-2 1-3 4-3 3 1 3 4-1 4l-3-1zm-14-8c-2-2 1-4 4-3l5 3h-9zm-219-3c-1-1-2-1-1-3 1-4 1-7-1-7l-2-2c-1-2 0-2 1-2l2-1 2-4v-9l1-10c2-3 2-4 1-6l-1-9-1-11c-1-2 0-3 1-3l1 1v5c0 4 2 5 2 1l1-2c1 1 1 6-1 6-2 1-2 7 0 10v8l-1 14v12c-1 4 0 8 2 8l1 2-7 2zm-19-2c-2-2-1-3 1-3 3 0 5 2 4 3-1 2-3 2-5 0zm7-3 1-4c0-3 1-3 2 0s0 6-2 6l-1-2zm919 0c-3-2-3-3 2-4 3 0 11 1 11 3s-9 3-13 1zm-932-3c-2-2-2-6 0-6 1 0 4 7 3 8 0 1-2 1-3-2zm911 1v-2c1-1 14 0 14 1l-2 1h-1c0 2-10 1-11 0zm-26 0-9-2c0-1 15-2 21-1 5 1 4 3-1 2l-6 1h-5zm-50-3 8-1c5 0 8 0 7 1l-7 1-8-1zm17-1h9-9zm-19-8 16-1c1 1-2 1-5 1h-11zm-812-1-2-9a577 577 0 0 0 0-19l4 27c0 2-1 3-2 1zm825-5h2-2c-1 0-1 0 0 0zm-1-4h4c1 1 0 1-3 1s-3 0-1-1zm12 1h4-4zm11-3c-1-1 1-6 2-6 2 0 2 2 0 3v4l-2-1zm-42-2v-1a109 109 0 0 1 24 1h-24zm-822-2c-1-3 0-5 2-4v7l-2-3zm873-1v-1c2-1 3 1 2 2l-2-1zm-837-4 1-3v2c0 3 0 4-1 1zm788 0 3-1 2 1-2 1-3-1zm6 0 1-1 1 1-1 1-1-1zm4 0 2-1 1 1-2 1-1-1zm5-1 1-1 1 1-1 1c-1 0-2 0-1-1zm4 0c-1-1-1-1 1-1 3 0 4 0 1 1h-2zm12-1 1-1 2 1-1 1-2-1zm-874-3c-2-2-3-11-3-17l1-7 1 4 1 8c1 5 2 12 1 13l-1-1zm600 0 1-3c0-1 1-1 1 1v2h-2zm271-3-2-1-1-1c0-1 1-2 5-1l6-1c1-1 2-1 2 1l-4 2-4 1-1 1-1-1zm-843-2v-1 2-1zm830 0 4-1c4 0 4 1-1 2l-3-1zm43 0 5-1c4-1 3 1-2 2l-3-1zm-53 0c-2-2 1-4 3-3s2 2 0 3h-3zm35-1c-1-1 1-2 2-1s0 2-1 2l-1-1zm-870-2-1-10v-6c2 1 3 6 3 13 0 6-1 7-2 3zm20-3-2-3c-2-2-2-16 0-18 0-2 1-2 1 0v2l1 6 1 10-1 3zm-6 0 1-3 1 1c0 3-1 3-2 2zm-8-11c-2-7-2-9 0-7 2 1 3 13 2 14l-2-7zm472 4c-3-1-4-2-4-4-1-7 2-9 5-3 2 6 4 5 3-1s0-7 2-7l2 6c-1 1 0 3 1 4l1 4-6 3-4-2zm12 0-1-5 1-5 2 2c0 2 4 4 7 4 3-1 4 0 2 2s-10 3-11 2zm-477-3c0-3 0-3 2-2v4l-2-2zm493 0v-1l1 1v1l-1-1zm-475-3-1-3 1-3c1 0 2 7 1 8l-1-2zm31-7v-5l-3-6-2-7a744 744 0 0 0 2-15l3-1c2-2 3-1 2 3v6c1 1 1 1 2-1 1-5 3-3 2 3l-1 8-2 6-1 6c0 6-1 7-2 3zm501 0 2-3 3-6 3-5 9 3h-2c-2 0-3 0-5 3l-3 6c0 2-6 4-7 2zm-551-2v-19c2 0 4 7 3 12v6c0 2-2 3-3 1zm-17 0v-12c-2-4-1-7 1-5h4c2-2 2-3 2-5v-11c1-1 1 0 1 2l2 8c3 5 3 9 0 11l-4 6c-1 5-4 8-6 6zm-15-3v-6l-1-10c-1-4-2-6-1-7 2-1 2-1 4 6 1 6 2 16 0 18l-2-1zm47-3-1-14-1-11c-1-2 0-2 1-2l2 2 2 2 1 3 1 6v3l-1 6c-1 8-3 10-4 5zm470 1h2l-1 1-1-1zm-82-2c0-2 2-2 3-1 1 2 1 2-1 2l-2-1zm53 0-1-2c2-1 13 0 12 1 0 2-9 2-11 1zm20-1c0-2 5-8 6-7s0 2-1 5c-2 4-4 5-5 2zm-552-2c0-2 1-4 2-2v2h-2zm84 0-2-14c0-6 2 2 4 12 1 3-1 4-2 2zm-133-2 1-1 1 1-1 1-1-1zm57-3-2-8c0-4 1-5 2-5s2 0 1 1l-1 5c2 3 3 11 2 11l-2-4zm43 2c-2-6-2-9 0-12 4-4 7-4 7-1l-2 4c-2 2-2 3-2 5 1 2 0 3-1 5-1 1-1 1-2-1zm-21 0c-1-1-2-2-4-1-2 0-3-1-4-9 0-4 0-5 2-6h3c1 1 1 2-1 4-3 3-3 6 0 8 2 2 2 1 4 0v-6c-1-5 0-8 4-8h3v7l1 8-1 2-2-2c-2-5-3-5-2 0 0 4-1 5-3 3zm-45-1c0-1 5-3 6-2 2 1 0 3-3 3l-3-1zm-54-3 1-1c1-1 2 0 1 1h-2zm-7-2 1-1 1 1-1 1-1-1zm47 1v-10c1 0 2 8 1 9l-1 1zm131-1-2-11h1l3 5v6c-1 1-1 2-2 0zm-90-5c-2-5-2-11 0-11l1 2 1 8c1 7 0 8-2 1zm462 4c-1-1 0-4 2-3v4l-2-1zm-473-1-1-8c0-3 2 1 2 5 1 5 1 5-1 3zm-20-5v-6a176 176 0 0 1 5 11h-2l-3-5zm508 3c-1-2 1-3 3-2 1 1 0 2-1 2h-2zm16-1-3-3c-2-2-2-3-1-4 3-4 6-4 5 0-1 2-1 2 1 3 2 2 4 2 10 0 4-1 6-2 7-4 1-3 4-5 6-4 1 1-2 6-4 6l-2 2-2 3c-2 1-15 2-17 1zm-549-2 1-1 1 1-1 2-1-2zm578-1c-1-2 1-3 4-3 4 0 4 1 1 3h-5zm-215-1c0-1 2-3 5-4 3 0 3 1 1 3s-6 2-6 1zm-10-2c-2-1 0-2 3-2l2 1c0 2-2 2-5 1zm240 0c-1-2 1-2 9-3 7 0 11 1 8 3h-17zm-217-2c0-2 0-2 2-1l1 2-1 1-2-2zm238 1c-2-2 0-4 4-3 5 0 6 1 3 2l-4 1h-3zm-221-2v-1l1 1v1l-1-1zm133 0 2-1 2 1-2 1-2-1zm60 0 2-2c2-2 4-1 4 1l-1 1-2 1-3-1zm-232-3 6-3h9c0 1-2 2-9 3a305 305 0 0 0-6 0zm147 0 1-1 1 1-1 1-1-1zm37 0 1-1 1 1-1 1-1-1zm74 0 2-2 1 1c-1 2-3 2-3 1zm77-1c0-1 5-7 7-7s2 2-1 6c-2 3-5 4-6 1zm-313 0v-2h3c1 1-1 3-3 2zm217-2c-1-3-1-4 3-7 3-3 4-3 5-3v3l-3 4-3 3h-2zm-187-1 1-1 1 1-1 1-1-1zm-98-1 1-1 1 1-1 1-1-1zm81-1c0-1 1-2 3-2 3 0 3 2 1 3-3 1-4 0-4-1zm123 0c-1-1 2-2 4-1 2 0 1 2-2 2l-2-1zm44-1c0-1 2-3 6-5 5-2 5 0 1 3-3 3-7 4-7 2zm64-3c0-2 3-5 5-5s2 1-1 3l-4 2zm42-1 3-2c4 0 3 3 0 3-2 1-3 0-3-1zm-252-1c0-2 2-2 10-3 6 0 7 0 7 2s-1 2-9 2l-8-1zm64 0c-3-3 2-7 5-6 2 1 1 2-1 4-4 3-3 3-4 2zm39-5c-2-2-2-4-1-4 2 0 4 6 3 6l-2-2zm57 0 3-2 12-1c1 2-4 3-11 4-4 1-4 1-4-1zm20-2c0-3 5-5 14-7 11-2 14-2 14 0l-2 2-4 2c-1 2-3 2-4 0l-4-1c-5 1-11 4-11 5l-1 1-2-2zm89 1 1-1v2l-1-1zm-178-3 4-2v2h-4zm235-3 2-2c2 0 2 0 1 2s-3 3-3 0zm-30-2c-1-2 3-7 5-7l2-1c1-3 3-5 5-5 3 0 2 3-3 8s-8 7-9 5zm-209-2c-2-3-2-4 0-4s4 2 4 4c0 3-2 2-4 0zm39 1v-1l2 1-1 1-1-1zm-12-1v-1l1 1-1 1v-1zm28-3 2-2h10c0 1-1 2-8 3l-4-1zm20 1-1-4c0-3 1-4 4-5 5-3 6-3 6-1l-2 2c-1 0-2 0-3 2v3l2 3h-6zm96-1 1-2h3l6-1c4-1 7 0 6 1l-6 2-5 1c-1 1-5 0-5-1zm-157-2c0-1 6-3 8-2l-2 2c-3 2-7 2-6 0zm-43-2c0-2 17-6 23-6h5v4l-1 3c-1 0-2-1-2-3s0-3-2-2l-10 3c-7 3-13 3-13 1zm71 1c-2-1-2-4-1-5l2 1c2 2 0 4-1 4zm56-1c0-1 2-5 4-5s2 2 0 4c-1 3-3 3-4 1zm33-7 1-1v2c-1 1-1 1-1-1zm-124 0v-2c1-1 3-2 4 0 1 1-2 3-4 2zm43 0c1-2 14-4 15-3l-4 2c-5 2-13 2-11 1zm61-1c0-2 6-4 8-3 2 0 1 2-1 3h-7zm-23-2-1-2c-1-1-1-3 1-3l2 2 2 2c1 1 0 3-2 3l-2-2zm6-2 1-1 1 1-1 1s-2 0-1-1zm93-1 3-6v5c-1 2-2 3-3 1zm48-2c-1-2 0-4 2-4s2 1 2 2c0 3-2 4-4 2zm-193-1c0-1 8-5 9-4 2 1 1 2-2 3-4 2-7 3-7 1zm-31-1c-1-1 1-3 3-3l4-1c3-2 7-1 6 0l-10 5-3-1zm22 1v-2l2-1 1 2-3 1zm106-1c-1-1 2-2 3-1l1 1h-4zm133-3-3-4c1-2 2-2 5 1 2 1 3 5 2 6l-4-3zm-125 1h2c1 1 1 1-1 1s-2 0-1-1zm-84-1-1-3v-2l-1-2c1-2-2-3-8-2l-6 1 13-5c3 0 3 1 4 4 0 4 1 5 4 5 4 0 5 1 2 3-4 2-6 3-7 1zm45 0c0-2 0-2 2-1s1 2-1 2l-1-1zm31-1 1-2 1 2-1 1-1-1zm-111 0c-2-2-1-3 2-3s4 1 4 2-5 2-6 1zm143-3 1-1c2-1 3 0 2 1 0 2-2 2-3 0zm17 1-2-3c0-2 1-2 3-2l8-1h6c1 2-2 3-7 4l-6 1-2 1zm-59-2 1-1c2 0 2 2 0 2l-1-1zm-52-1c-1-1 2-3 5-3l5-2c5-3 6-3 6-1l-2 2-3 2c-4 3-9 5-11 2zm476 0c-1-2 0-3 1-2v3c-1 1-1 0-1-1zm-414 0 1-2c1-1 4 0 3 1-1 2-3 2-4 1zm101 0c-1-2 2-3 3-2v2h-3zm-35-2c-1-2 1-4 3-3l1 2c0 2-3 2-4 1zm-91-2c-1-2-2-2-5-2-3 2-6 0-3-1l9-3 1 7-2-1zm106 0c-2-2-3-4-1-4l6 5c0 1-4 1-5-1zm-65-1v-5c0-6 3-8 3-2l1 4 2 1c0 2-5 4-6 2zm-28-4 1-2 2-3c0-2 1-3 3-3s2 3 0 3l-2 4c-2 3-4 4-4 1zm-39-1c-1-2-2-2-5-2l-4-1c-1-1 3-3 7-3 3 0 3 1 4 3 2 4 0 6-2 3zm83 1-1-1 9-3c3 1 2 3-2 3l-4 2-2-1zm65-1 1-2 1 2-1 1-1-1zm19-2c-2-2-2-2 1-6 5-7 11-10 12-7 1 1-1 3-5 5-3 2-4 3-4 5l1 3 1 1c0 2-4 1-6-1zm-131-6c-2-2-1-4 0-4l2 2-2 2zm29-1c-2-1 0-2 3-3 6-2 7-2 7 1 0 1-1 2-3 2h-7zm-53-1 5-3a312 312 0 0 0 8-1l-6 4c-7 2-7 2-7 0zm100 1c0-2 2-3 4-3 3 0 3 1 1 2-3 2-5 2-5 1zm-6-4c-1 0-2-1-1-2v-4l1-2c2 0 3 1 2 2v2c2 0 3 3 2 5 0 1-1 1-4-1zm16 0 1-1 1 1-1 1-1-1zm-88-2c-3-2-2-2 1-2l2 2c0 1-1 2-3 0zm47 1c-2-2 0-3 8-4l3-1h3c2 0 2 2-1 2l-3 1c-3 2-9 3-10 2zm65-1c-1-1-1-4 1-5 1-1 3 0 3 3 0 2-3 3-4 2zm45-3c-3-3-3-4-1-4l4 4c0 3-2 3-3 0zm-148 1c-1-1 1-3 7-6 7-2 9-3 9 0l-7 4c-7 3-8 3-9 2zm56-4 2-1 1 1-1 2-2-2zm16-6 1-1 4-2 5-1c5-1 4 1-1 3-6 2-9 3-9 1zm85 0c-1-1 1-6 2-6 2 0 4 3 3 5l-5 1zm-307-1-7-1c-7-1-10-2-9-4 1-1 29 2 30 3l1 1c0 1-14 2-15 1zm226-4-2-8c2 0 4 3 4 6 0 2-1 4-2 2zm-255-1v-2c1-1 9 1 9 2 1 2-8 2-9 0zm227 0 3-1c2 0 3 1 1 1-1 2-4 2-4 0zm45 0 1-1c1-1 4 0 4 1 0 2-4 2-5 0zm-145-2-2-1-11 1 6-4c4-1 7-4 7-5 2-4 5-5 7-3 1 2 2 2 9-1l8-3c-1-1-3 0-7 1l-6 1v-1l9-5 4-2 5-3h3c1-2 5-2 6 0l-1 2c-1 1-2 2-1 3 0 2-4 5-8 5l-4 2 1 7c1 7 1 8-1 8l-2-6-1-8-10 3-9 4 1 3c0 4-2 5-3 2zm163 1 1-1 1 1-1 1-1-1zm198 0v-3l-1-4c-1-2 1-4 3-3 1 1 2 2 1 6 0 5-1 6-3 4zm-500-1c-4-2-5-5 0-4 4 1 9 3 8 4-1 2-3 2-8 0zm246 1h2-2zm48-2 1-1 1 2c-1 1-2 1-2-1zm6-1 1-1 1 2h-1l-1-1zm171-2 1-2 2 1c-1 3-3 3-3 1zm-487 0c-6-1-22-7-24-9-3-3 6-2 19 3l8 2c3 1 5 2 5 4h-8zm193-2 1-2 2 2-2 2-1-2zm94-3c-1-2-1-2 8-5 9-4 10-4 10-2s-1 2-10 5l-8 2zm98 0c-2-3 8-8 10-6 2 1 0 2-5 5l-5 1zm-56-2-1-3-2-3c-1-2 0-7 3-7l1 4v7c1 2 2 2 12-1l3 1c0 1-3 3-9 3-4 1-5 1-7-1zm38-1c-2-1-1-3 1-3l1 2c0 1-1 2-2 1zm-19-2 1-1 2 1-1 1-2-1zm-390-2-10-2-16-4-33-8c-22-6-47-8-73-6-42 4-49 4-66 3a979 979 0 0 0-73-2c-11-1-40-3-48-5A425 425 0 0 0 7 194c-7 1-7 1-7-1l4-1 12-3c11-4 22-6 38-9 25-4 34-5 42-5l23-2a241 241 0 0 1 72 3l15 1 23 2 48 1c34 2 42 1 66-1 26-2 73-2 83 0l25 7 11 3a228 228 0 0 1 32 7c9 2 14 5 13 6h-14zm237-1c0-3 1-5 3-5s1 6-1 6l-2-1zm170-2 1-1v1l-1 1v-1zm126-1c-1-2 0-5 2-5 2-1 3 2 2 4-1 3-3 3-4 1zm-272 0-1-4c0-2 0-3-3-2l-9 2-5 2-2-3c-2-3-2-3 0-4l5-3c4-2 11-4 13-3 2 0 2 4 0 4l-3-1h-3c-2 3-2 4 3 3 5 0 5 0 6-2l2-3v-2c-2-2-2-2-1-3 1-2 2-2 4-1v2c-1 2-1 2 1 2l3-2 4-3 6-3c1-2 3-3 5-3l6-1c3-1 3-1 4 1 1 3 1 3-3 2-2-1-3-1-8 3l-9 6-6 4c-4 1-4 2-4 4 0 3-4 9-5 8zm160-3 5-1c5-1 5 0 4 1-3 2-10 2-9 0zm-40-1 2-2c2 0 5-3 7-5 4-4 7-5 7-3 0 1-1 3-3 3l-4 4c-2 4-9 6-9 3zm-11-2 1-2c2-1 3 0 2 1-1 2-2 2-3 1zm-85-5c0-6 1-9 3-7 1 1 0 12-2 12l-1-5zm18 1 2-15c1-6 2-3 1 6l-1 9h-2zm209-1c-2-2-1-4 1-4l4 4h-5zm-94-7c0-1 3-2 10-3l5-4c3-3 6-3 6-1s-7 6-13 7c-7 2-7 2-8 1zm55-1 1-1 1 1-1 1-1-1zm-177-1 1-1 1 1-1 1-1-1zm187-1h2c1 1 1 1-1 1l-1-1zm-168-6-1-4c0-1-1-2-3-2h-3c-1-2-7-2-7 0l-1 1c-2 0-1-2 3-5 2-2 4-2 7-2 3 1 5 0 9-2 3-1 6-2 8-1 2 0 5-2 5-4 0-1-6-1-7 1 0 1-4 2-5 0 0-1 3-3 4-2l7-3 11-4c6 0 11-3 11-5s4-4 10-4l16-7c12-6 13-6 18-6l6 2c1 1 0 5-4 18-1 2-6-4-6-6l-2-1c-2 0-2-2 1-3 2 0 5 2 5 4 0 4 1 0 2-5l1-6-3 1c-8 2-11 4-9 8l-1 3c-3 1-3 1-3-1-1-2-2-3-4-1s-2 2-1 3h-3c-5 0-6 1-4 3v12c0 6-1 8-3 8-1 0-3-7-1-8l1-6 1-4-3 1-6 3c-2 2-4 2-5 2-2 0-3 0-4 2l-3 1c-4-1-7 0-7 2 1 2-3 11-4 10l-1-2c0-4-1-5-9-3-2 0-3 0-2 1s0 1-2 3l-4 4c-1 0-2 1-1 3 0 3 0 3-2 3l-2-2zm7-10c0-1 0-1 0 0v1-1zm17-7 2-2c0-1-3-1-4 1-1 1 0 2 2 1zm23-12c1-2 0-3-3-1-1 1-2 2-1 3 2 1 4 0 4-2zm88 31c-1-2-1-4 1-4s2 1 2 2c0 2-2 3-3 2zm-113-4 2-1c2 0 2 2 0 2l-2-1zm64-11-1-3h2l1 3c-1 2-1 2-2 0zm-5-6c-1-1 0-3 2-3v2c0 1-1 2-2 1zm101-8c-2-1-1-3 3-2s4 2 3 3c-2 1-3 1-6-1zm8-2c-2 0-3-1-3-2l12 1c1 1 0 2-3 1h-6zm23-6v-1c2-1 6 1 5 2s-4 1-5-1zm17-4v-3c1-1 5 1 5 2-1 2-3 2-5 1zm-116-5c0-2-2-9-4-9l-1 2c-1 2-5 2-6 0s-1-2 1-3l5-2c3-2 3-2 1-4-2-1-2-1 0-2l4-4c1-2 3-2 4-2l4-1 8-3 10-4 5-1c1 2-6 7-12 9s-10 5-12 9l-2 2c-2 0-4 4-3 6l2 1c1-1 1 2-1 6s-4 4-3 0zm126 1c-1-1 0-1 5-2 5 0 6 0 5 1 0 2-9 3-10 1zm-147-11c0-2 5-5 9-5 6 1 6 3-1 5-6 2-8 2-8 0zm35-7c-1-2 1-3 7-5 5-2 10-2 6 0l-5 4c-4 3-7 4-8 1zm17-8 2-2 2 2-3 1c-1 0-2 0-1-1zm7 0-1-3-2-2c-2-2-2-5 1-4 2 0 3 0 4-2l8-5 10-4c2-1 5 0 4 1l-8 5-8 6-1 3-2 2c0 2-3 4-5 3zm7-2 2-2c1 0 1 3-1 3l-1-1zm10-8c-2-1 0-2 3-2 2 0 2 0 0 1-2 2-3 2-3 1zm183-8c-2-1-2-2-1-4l3-2c9-1 11-1 11-3 0-1 1-2 5-2l6-1 5-2 2-3c1-2 4-2 7 1l2 3-3 2-5 3-4 2c-4 3-10 3-11 1-2-2-4-2-3 0s-1 3-7 4l-5 2-2-1zm7-13 2-2c2-2 9-2 9 0s-9 4-11 2zm49-6c-1-2-1-2 2-4 4-2 7-2 8 0 2 3 0 5-5 5-4 1-5 1-5-1zm-27-1c-1-1 0-7 2-8l4 2c2 3 2 3 1 4-2 2-7 3-7 2zm21-7 7-4c7-3 11-3 11-1l-9 5c-7 3-9 3-9 0zm-23-32-1-14 4-5 3-6 11 2c1 1-3 4-5 4-3 0-8 7-8 10 1 5-3 12-4 9zm-16-12 8-9h3c2 1 1 5 0 7s-10 4-11 2z"/>
</svg>
