<?xml version="1.0" encoding="utf-8"?>
<svg xmlns="http://www.w3.org/2000/svg" version="1.1" viewBox="0 0 2310 835">
	<title>Twenty-four measures of musical notation on the treble clef, with a 6/8 time signature, in the key of G.</title>
	<path d="M0 56v2h2310v-2zm0 24v3h2310v-3zm0 25v3h2310v-3zm0 25v3h2310v-3zm0 25v3h2310v-3zm0 219v3h2310v-3zm0 25v3h2310v-3zm0 25v3h2310v-3zm0 25v2h2310v-2zm0 24v3h2310v-3zm0 220v2h2310v-2zm0 25v2h2310v-2zm0 24v3h2310v-3zm0 25v3h2310v-3zm0 25v3h2310v-3z"/>
	<path d="M2152 789c13 12 52 12 64 0-12 20-51 20-64 0"/>
	<path d="M2217 789a1 1 0 0 0-1 0c-6 5-19 8-32 8s-25-3-32-8a1 1 0 0 0-1 0 1 1 0 0 0 0 1c7 10 20 15 33 15s26-5 33-15a1 1 0 0 0 0-1zm-62 3c7 5 18 7 29 7s22-2 29-7c-7 8-18 11-29 11s-22-3-29-11z"/>
	<path d="M1100 56v102m-2-102v102h4V56zM399 374v102m-7-102v102h14V374zm25 0v102m-2-102v102h4V374z"/>
	<path d="M439 413c0-3-2-6-5-6s-5 3-5 6 2 5 5 5 5-2 5-5m0 25c0-3-2-6-5-6s-5 3-5 6c0 2 2 5 5 5s5-3 5-5"/>
	<path d="M557 374v102m-3-102v102h5V374zm1170 0v102m-2-102v102h4V374zm310-318v102m-2-102v102h4V56zm1 318v102m-2-102v102h4V374zm-1166 0v102m-2-102v102h4V374zM328 56v102m-2-102v102h5V56zm1982 0v102m-2-102v102h4V56zM487 693v102m-3-102v102h5V693z"/>
	<path d="M722 731c0-3-2-5-5-5s-5 2-5 5 2 6 5 6 5-3 5-6m0 25c0-3-2-5-5-5s-5 2-5 5 2 5 5 5 5-2 5-5"/>
	<path d="M733 693v102m-2-102v102h5V693zm21 0v102m-7-102v102h13V693zm1563-319v102m-2-102v102h4V374zM1048 693v102m-3-102v102h5V693zm294 0v102m-2-102v102h4V693zM852 56v102m-2-102v102h4V56zm1088 637v102m-2-102v102h4V693zm-518-319v102m-3-102v102h5V374zm684 319v102m-2-102v102h4V693zm-957-319v102m-2-102v102h5V374zM604 56v102m-2-102v102h5V56zm1679 637v102m-7-102v102h13V693zm29 0v102m-6-102v102h13V693zM1469 56v102m-2-102v102h4V56zm285 0v102m-2-102v102h4V56zm-83 637v102m-2-102v102h4V693zm-662-541V69m-1 0v83h2V69zm1094 365v-77m-1 0v77h3v-77zM1045 115V39m-1 0v76h3V39zM502 421v-76m-1 0v76h2v-76zm664-205V57m-1 0v83h3V57zM972 421v-76m-1 0v76h2v-76zm248-193V70m-1 0v82h2V70zm55 95V82m-1 0v83h2V82zm718 364v-89m-1 0v89h2v-89zm-645-192V82m-1 0v83h2V82zM622 396v-58m-1 0v58h2v-58zm1326 96v-80m-1 0v80h2v-80zm-531-189V82m-1 0v83h2V82zm121 33V38m-1 0v77h2V38zm370 383v-70m-1 0v70h2v-70zm-319-248V26m-1 0v77h2V26zM665 421v-76m-1 0v76h3v-76zm991-255V26m-1 0v64h2V26zm-611 395v-70m-1 0v70h2v-70zm791 83v-77m-1 0v77h2v-77zm-135-192V82m-1 0v83h2V82zm94 364v-83m-1 0v83h2v-83zM345 740v-71m-1 0v71h2v-71zm-70 71v-77m-1 0v77h3v-77zm1544-536V45m-1 0v82h2V45zM736 421v-64m-1 0v64h2v-64zM224 740v-71m-1 0v71h2v-71zm1641-554V39m-1 0v76h2V39zM274 165V82m-1 0v83h2V82zm1662 21V32m-1 0v71h2V32zm-571 364v-76m-1 0v76h2v-76zM224 421v-70m-1 0v70h2v-70zM1978 78V1m-2 0v77h3V1zM779 446v-89m-1 0v89h3v-89zM394 127V45m-1 0v82h2V45zm44 70V39m-2 0v76h3V39zm1663 39V20m-2 0v58h3V20zm-847 401v-76m-1 0v76h2v-76zm436 138V382m-2 0v101h3V382zm458-279V26m-1 0v77h2V26zM823 421v-64m-2 0v64h3v-64zm1390-254V32m-1 0v71h2V32zM1086 421v-76m-1 0v76h2v-76zm555 138V376m-1 0v107h3V376zm615-298V1m-2 0v77h3V1zm-769 408v-64m-1 0v64h2v-64zM507 103V32m-1 0v71h3V32zM267 421v-67m-1 0v67h3v-67zm1331 80v-64m-1 0v64h2v-64zm-70 51v-76m-1 0v76h3v-76zM396 727v-64m-2 0v64h3v-64zm52 52v-58m-1 0v58h2v-58zm1809-223v-77m-2 0v77h3v-77zM929 396v-58m-2 0v58h3v-58zM552 740v-71m-1 0v71h2v-71zm51 83v-76m-1 0v76h3v-76zm69-561V38m-1 0v77h2V38zM311 434v-77m-2 0v77h3v-77zm1901 52v-64m-1 0v64h3v-64zM822 740v-71m-2 0v71h3v-71zm52 58v-76m-1 0v76h2v-76zm72 64v-58m-1 0v58h2v-58zm51 83v-77m-1 0v77h2v-77zM712 140V57m-1 0v83h3V57zm495 339v-58m-1 0v58h2v-58zm-92 389v-64m-1 0v64h2v-64zm51 52v-77m-1 0v77h3v-77zm72 65v-59m-1 0v59h2v-59zm52 59v-77m-2 0v77h3v-77zM755 152V69m-1 0v83h2V69zM354 446v-83m-2 0v83h3v-83zm1052 352v-58m-1 0v58h3v-58zm52 83v-77m-1 0v77h2v-77zM673 765v-83m-1 0v83h2v-83zm954 83v-90m-1 0v90h2v-90zm515-254v-76m-2 0v76h3v-76zM798 115V39m-2 0v76h3V39zm936 713v-77m-1 0v77h3v-77zm52 52v-76m-2 0v76h3v-76zm52 138v-83m-1 0v83h2v-83zm51 46v-76m-1 0v76h3v-76zm-562-255v-70m-1 0v70h2v-70zM918 127V45m-2 0v82h3V45zm1087 757v-83m-1 0v83h2v-83zm52 58v-83m-2 0v83h3v-83zM550 127V45m-1 0v82h2V45zm1027 707v-80m-1 0v80h2v-80zm590 93v-83m-2 0v83h3v-83zm72 83v-83m-1 0v83h3v-83zM960 140V57m-1 0v83h2V57zm567 683v-71m-2 0v71h3v-71z"/>
	<path d="M1012 429c0 5 3 9 11 9 10 0 21-8 21-17 0-6-5-9-11-9-10 0-21 8-21 17m43 0c0 5 3 9 11 9 10 0 21-8 21-17 0-6-5-9-11-9-9 0-21 8-21 17m120-24c0 4 3 9 11 9 10 0 21-9 21-18 0-5-5-9-11-9-10 0-21 8-21 18m491-232c0 4 3 9 11 9 11 0 22-9 22-17 0-6-5-9-12-9-9 0-21 8-21 17m-448 256c0 5 3 9 11 9 11 0 21-8 21-17 0-6-5-9-11-9-9 0-21 8-21 17m71 0c0 5 3 9 11 9 10 0 21-8 21-17 0-6-5-9-11-9-10 0-21 8-21 17m43-24c0 4 3 9 11 9 11 0 21-9 21-18 0-5-5-9-11-9-9 0-21 8-21 18m120 12c0 4 3 9 11 9 11 0 21-8 21-17 0-6-5-9-11-9-9 0-21 8-21 17m43 12c0 5 3 9 11 9 11 0 22-8 22-17 0-6-5-9-12-9-9 0-21 8-21 17m71 13c0 4 3 9 11 9 11 0 21-9 21-17 0-6-5-10-11-10-9 0-21 9-21 18m43 49c0 5 3 9 11 9 11 0 22-8 22-17 0-6-5-9-12-9-9 0-21 8-21 17m44 0c0 5 3 9 11 9 10 0 21-8 21-17 0-6-5-9-11-9-10 0-22 8-22 17m107-37c0 4 3 9 11 9 10 0 21-8 21-17 0-6-5-9-11-9-10 0-21 8-21 17m43-12c0 4 3 9 11 9 10 0 21-9 21-17 0-6-5-10-11-10-10 0-21 9-21 18m71-13c0 5 3 9 11 9 10 0 21-8 21-17 0-6-5-9-11-9-10 0-21 8-21 17m43 13c0 4 3 9 11 9 10 0 21-9 21-17 0-6-5-10-11-10-10 0-21 9-21 18m149 0c0 4 3 9 11 9 11 0 22-9 22-17 0-6-5-10-12-10-9 0-21 9-21 18m44-13c0 5 3 9 11 9 10 0 21-8 21-17 0-6-5-9-11-9-10 0-22 8-22 17m71-12c0 4 3 9 11 9 11 0 22-8 22-17 0-6-5-9-12-9-9 0-21 8-21 17m44 25c0 4 3 9 11 9 10 0 21-9 21-17 0-6-5-10-11-10-10 0-22 9-22 18M193 748c0 4 3 9 11 9 11 0 21-9 21-17 0-6-5-9-11-9-9 0-21 8-21 17m50 0c0 4 3 9 12 9 10 0 21-9 21-17 0-6-5-9-11-9-10 0-22 8-22 17m71 0c0 4 3 9 11 9 11 0 21-9 21-17 0-6-4-9-11-9-9 0-21 8-21 17m-71-575c0 4 3 9 11 9 10 0 21-9 21-17 0-6-5-9-11-9-9 0-21 8-21 17m122 562c0 5 3 9 11 9 10 0 21-8 21-17 0-6-5-9-11-9-10 0-21 8-21 17m-2-599c0 4 3 9 11 9 10 0 21-9 21-18 0-5-5-9-11-9-10 0-21 8-21 18m52 587c0 4 3 9 11 9 10 0 21-8 21-17 0-6-5-9-11-9-10 0-21 8-21 17m-9-600c0 4 3 9 11 9 10 0 21-8 21-17 0-6-5-9-11-9-10 0-21 8-21 17m70-12c0 4 3 9 11 9 11 0 22-9 22-17 0-6-5-9-12-9-9 0-21 8-21 17m43 25c0 4 3 9 11 9 10 0 21-9 21-18 0-5-5-9-11-9-10 0-21 8-21 18m2 612c0 4 3 9 11 9 10 0 21-9 21-17 0-6-5-9-11-9-9 0-21 8-21 17m118-625c0 4 3 9 11 9 10 0 21-8 21-17 0-6-5-9-11-9-10 0-21 8-21 17m-68 637c0 5 3 9 11 9 11 0 22-8 22-17 0-6-5-9-12-9-9 0-21 8-21 17m110-612c0 4 4 9 12 9 10 0 21-8 21-17 0-6-5-9-11-9-10 0-22 8-22 17m-39 625c0 4 3 9 11 9 11 0 21-9 21-17 0-6-5-10-11-10-9 0-21 9-21 18m82-613c0 5 3 9 11 9 11 0 21-8 21-17 0-6-5-9-11-9-9 0-21 8-21 17m43-37c0 4 3 9 11 9 10 0 21-8 21-17 0-6-5-9-11-9-10 0-21 8-21 17m120 13c0 4 3 9 11 9 10 0 21-9 21-18 0-5-5-9-11-9-10 0-21 8-21 18m-96 612c0 4 3 9 11 9 10 0 21-9 21-17 0-6-5-9-11-9-10 0-21 8-21 17m138-600c0 4 3 9 11 9 11 0 21-8 21-17 0-6-5-9-11-9-9 0-21 8-21 17m-88 587c0 5 3 9 11 9 10 0 21-8 21-17 0-6-5-9-11-9-10 0-21 8-21 17m131-575c0 5 3 9 11 9 10 0 21-8 21-17 0-6-5-9-11-9-10 0-21 8-21 17m-60 563c0 4 3 9 11 9 10 0 21-8 21-17 0-6-5-9-11-9-10 0-21 8-21 17m102-600c0 4 3 9 12 9 10 0 21-8 21-17 0-6-5-9-11-9-10 0-22 8-22 17m-52 625c0 4 3 9 11 9 11 0 21-9 21-17 0-6-5-9-11-9-9 0-21 8-21 17m172-600c0 4 3 9 11 9 11 0 22-8 22-17 0-6-5-9-12-9-9 0-21 8-21 17m54 12c0 5 3 9 11 9 10 0 21-8 21-17 0-6-5-9-11-9-10 0-21 8-21 17m54 13c0 4 3 9 11 9 11 0 21-9 21-17 0-6-5-9-11-9-9 0-21 8-21 17m-160 562c0 5 3 9 11 9 10 0 21-8 21-17 0-6-5-9-11-9-9 0-21 8-21 17m231-562c0 4 3 9 11 9 10 0 21-9 21-17 0-6-5-9-11-9-9 0-21 8-21 17m-181 550c0 4 3 9 11 9 11 0 22-8 22-17 0-6-5-9-12-9-9 0-21 8-21 17m252-550c0 4 3 9 11 9 10 0 21-9 21-17 0-6-5-9-11-9-10 0-21 8-21 17m-181 538c0 4 3 9 11 9 11 0 21-9 21-17 0-6-5-10-11-10-9 0-21 9-21 18m301-588c0 4 3 9 11 9 10 0 21-8 21-17 0-6-5-9-11-9-10 0-21 8-21 17m-250 588c0 4 3 9 11 9 10 0 21-9 21-17 0-6-5-10-11-10-10 0-22 9-22 18m300-600c0 4 3 9 11 9 10 0 21-9 21-17 0-6-5-9-11-9-10 0-21 8-21 17m71-13c0 5 3 9 11 9 10 0 21-8 21-17 0-6-5-9-11-9-10 0-21 8-21 17m162 38c0 4 3 9 11 9 11 0 21-9 21-18 0-5-5-9-11-9-9 0-21 8-21 18m-413 587c0 4 3 9 12 9 10 0 21-8 21-17 0-6-5-9-11-9-10 0-22 8-22 17m460-600c0 4 3 9 11 9 11 0 21-8 21-17 0-6-5-9-11-9-9 0-21 8-21 17m-409 625c0 4 3 9 11 9 10 0 21-9 21-17 0-6-5-9-11-9-10 0-21 8-21 17m480-637c0 4 3 9 11 9 10 0 21-9 21-17 0-6-5-9-11-9-9 0-21 8-21 17m-409 637c0 4 3 9 11 9 10 0 21-9 21-17 0-6-5-9-11-9-10 0-21 8-21 17m464-294c0 4 3 9 11 9 11 0 21-8 21-17 0-6-5-9-11-9-9 0-21 8-21 17m-414 306c0 5 3 9 11 9 10 0 21-8 21-17 0-6-5-9-11-9-10 0-21 8-21 17m402-674c0 4 3 9 11 9 10 0 21-8 21-17 0-6-5-9-11-9-10 0-21 8-21 17m-352 687c0 4 3 9 11 9 11 0 21-9 21-17 0-6-5-10-11-10-9 0-21 9-21 18m472-687c0 4 3 9 11 9 10 0 21-8 21-17 0-6-5-9-11-9-10 0-22 8-22 17m43 25c0 4 3 9 11 9 11 0 21-9 21-17 0-6-5-9-11-9-9 0-21 8-21 17m71 0c0 4 3 9 11 9 10 0 21-9 21-17 0-6-5-9-11-9-9 0-21 8-21 17m-479 649c0 5 3 9 12 9 10 0 21-8 21-17 0-6-5-9-11-9-10 0-22 8-22 17m522-674c0 4 3 9 11 9 10 0 21-8 21-17 0-6-5-9-11-9-10 0-22 8-22 17m-470 649c0 5 3 9 11 9 10 0 21-8 21-17 0-6-5-9-11-9-10 0-21 8-21 17M193 429c0 5 3 9 11 9 11 0 21-8 21-17 0-6-5-9-11-9-9 0-21 8-21 17m1609 368c0 5 3 9 11 9 10 0 21-8 21-17 0-6-5-9-11-9-9 0-21 8-21 17M236 429c0 5 3 9 11 9 11 0 22-8 22-17 0-6-5-9-12-9-9 0-21 8-21 17m1616 331c0 5 3 9 11 9 11 0 22-8 22-17 0-6-5-9-12-9-9 0-21 8-21 17M280 442c0 4 3 9 11 9 10 0 21-9 21-17 0-6-5-10-11-10-10 0-21 9-21 18m43 12c0 4 3 9 11 9 10 0 21-8 21-17 0-6-5-9-11-9-10 0-21 8-21 17m148-25c0 5 3 9 11 9 11 0 21-8 21-17 0-6-5-9-11-9-9 0-21 8-21 17m1501 381c0 4 3 9 11 9 11 0 21-9 21-17 0-6-5-9-11-9-9 0-21 8-21 17M591 405c0 4 3 9 11 9 11 0 21-9 21-18 0-5-5-9-11-9-9 0-21 8-21 18m1432 380c0 4 3 9 11 9 10 0 21-8 21-17 0-6-5-9-11-9-10 0-21 8-21 17M634 429c0 5 3 9 11 9 11 0 22-8 22-17 0-6-5-9-12-9-9 0-21 8-21 17m71 0c0 5 3 9 11 9 11 0 21-8 21-17 0-6-5-9-11-9-9 0-21 8-21 17m43 25c0 4 3 9 11 9 11 0 22-8 22-17 0-6-5-9-12-9-9 0-21 8-21 17m1386 319c0 4 3 9 11 9 10 0 21-9 21-17 0-6-5-10-11-10-10 0-21 9-21 18M792 429c0 5 3 9 11 9 10 0 21-8 21-17 0-6-5-9-11-9-10 0-21 8-21 17m1412 344c0 4 3 9 11 9 11 0 22-9 22-17 0-6-5-10-12-10-9 0-21 9-21 18M898 405c0 4 3 9 11 9 10 0 21-9 21-18 0-5-5-9-11-9-10 0-21 8-21 18m43 24c0 5 3 9 11 9 10 0 21-8 21-17 0-6-5-9-11-9-10 0-21 8-21 17"/>
	<path d="M31 182c0 7 5 15 18 15 5 0 9-1 12-3 6-4 7-10 7-16l-1-14-2-9c10-3 17-14 17-24 0-15-11-25-25-25l-3-17c11-11 18-24 18-39 0-9-3-17-4-20-3-5-6-9-8-9l-7 5c-6 8-8 20-8 29l2 21-7 7c-9 8-21 21-21 40s16 34 34 34l8-1 3 22c0 10-5 15-15 15h-5v-1c5-1 10-5 10-11 0-5-4-11-12-11-7 0-11 6-11 12M52 50c0-4 5-15 10-15 2 0 4 5 4 12 0 10-8 18-14 25l-2-12 2-10m8 102h-5c-15 0-27-9-27-24 0-13 9-23 17-31l5-4 3 14c-10 2-16 12-16 21 0 7 6 17 14 17l1-1-2-3c-4-2-6-5-6-9 0-7 5-11 11-13l5 33m14-19c0 8-3 15-10 18l-5-32c9 0 15 6 15 14M31 819c0 7 5 16 18 16 5 0 9-2 12-4 6-4 7-10 7-16l-1-14-2-9c10-3 17-13 17-24 0-15-11-25-25-25l-3-17c11-11 18-24 18-39 0-9-3-17-4-20-3-5-6-9-8-9l-7 5c-6 8-8 20-8 29l2 21-7 7c-9 9-21 21-21 40s16 34 34 34l8-1 3 22c0 10-5 15-15 15h-5v-1c5 0 10-4 10-11 0-5-4-11-12-11-7 0-11 6-11 12m21-132c0-4 5-14 10-14 2 0 4 4 4 11 0 11-8 18-14 25l-2-12 2-10m8 102-5 1c-15 0-27-10-27-25 0-12 9-23 17-31l5-4 3 14c-10 3-16 12-16 21 0 7 6 17 14 17l1-1-2-3c-4-2-6-5-6-9 0-6 5-11 11-13l5 33m14-18c0 7-3 14-10 17l-5-32c9 0 15 6 15 15M31 501c0 6 5 15 18 15 5 0 9-1 12-3 6-4 7-11 7-17l-1-14-2-9c10-3 17-13 17-23 0-15-11-25-25-25l-3-18c11-11 18-23 18-39 0-9-3-16-4-20-3-5-6-8-8-8l-7 5c-6 7-8 20-8 28l2 22-7 7c-9 8-21 20-21 40 0 18 16 33 34 33l8-1 3 22c0 10-5 16-15 16l-5-1c5-1 10-5 10-11s-4-11-12-11c-7 0-11 5-11 12m21-133c0-4 5-14 10-14 2 0 4 5 4 12 0 10-8 18-14 25l-2-12 2-11m8 102-5 1c-15 0-27-10-27-25 0-12 9-23 17-30l5-5 3 14c-10 3-16 13-16 22 0 7 6 16 14 16l1-1-2-2c-4-3-6-5-6-10 0-6 5-11 11-12l5 32m14-18c0 7-3 14-10 17l-5-32c9 0 15 6 15 15"/>
	<path d="m130 47 1-2v-6l-1-1-4 1V24h-3v15l-8 2V27h-3v15h-4l-1 2v6l2 1 3-1v17h-4l-1 2v6l2 1 3-1v15h3V75l8-2v14h3V72h4l1-2v-6l-1-1-4 1V47h4m-15 3 8-2v16l-8 2V50m15 634 1-2v-6l-1-1-4 1v-15h-3v15l-8 2v-14h-3v15h-4l-1 2v6l2 1 3-1v17l-4 1-1 1v6l2 1 3-1v15h3v-15l8-2v14h3v-15h4l1-2v-6l-1-1-4 1v-17h4m-15 3 8-2v16l-8 2v-16m15-322 1-1v-6l-1-2-4 1v-15h-3v16l-8 2v-14h-3v14l-4 1-1 1v6l2 2 3-1v16l-4 1-1 1v6l2 1h3v15h3v-16l8-2v14h3v-14l4-1 1-1v-6l-1-2-4 1v-16l4-1m-15 3 8-2v17l-8 2v-17"/>
	<path d="M179 78c-6 0-8 1-9 3l-1-5c0-6 2-13 9-13l5 1c-2 1-4 4-4 6 0 4 3 7 7 7 3 0 6-3 6-7l-1-3c-1-4-5-9-15-9-9 0-15 9-17 13-1 2-3 7-3 13s2 13 8 18c6 4 9 5 13 5 3 0 16-5 16-16 0-10-8-13-14-13m-3 24c-4 0-6-4-6-10 0-5 2-10 6-10s6 5 6 10c0 6-3 10-6 10m11 27c3-2 5-5 5-9 0-7-8-13-17-13-10 0-18 6-18 13 0 4 1 7 6 10-5 3-7 7-7 11 0 8 8 15 19 15 10 0 18-7 18-15 0-4-1-9-6-12m-6-2c-7-2-14-6-14-10s3-6 8-6c6 0 10 3 10 8s-2 7-4 8m-6 23c-7 0-12-3-12-9s5-8 5-8c7 2 16 6 16 11 0 3-3 6-9 6"/>
	<path d="M1242 601c-9-10-18-10-23-10s-13 0-22 10c-5 6-9 16-9 22l2 3c3 0 1-9 10-17 7-8 17-8 19-8 3 0 13 0 20 8 8 8 7 17 10 17l1-3c0-6-3-16-8-22m-30 19a7 7 0 1 0 14 0 7 7 0 0 0-14 0"/>
	<path d="m1596 363 89 12v13l-89-12v-13m-861-12h89v12h-89v-12m789 312 103 6v13l-103-7v-12m-1180 0 103-12v12l-103 13v-13M223 345l89 6v12l-89-6v-12m1680 0 88 6v12l-88-6v-12"/>
	<path d="m273 104 1 1c4 2 12 7 19 18 2 3 4 8 4 16a63 63 0 0 1-4 23l1 1 1-1c5-8 6-17 6-26 0-13-7-23-7-23l-12-16-6-12-1-4h-1l-1 1v22m1010 544 1 1c4 2 13 7 19 18 2 3 5 8 5 16a63 63 0 0 1-5 23l1 1 2-1c4-8 6-17 6-26-1-13-8-23-8-23l-12-16-5-12-1-4h-2l-1 1v22M273 686l1 1c4 1 13 6 19 17 2 4 5 8 5 16a63 63 0 0 1-5 23l1 1 2-1c4-8 6-17 6-26-1-13-8-22-8-22l-12-17-5-11-1-4-2-1-1 1v23m1181 0v1c5 1 13 6 20 17 1 4 4 8 4 16a63 63 0 0 1-5 23l2 1 1-1c4-8 6-17 6-26 0-13-8-22-8-22l-11-17c-4-5-6-11-6-11l-1-4-1-1-1 1v23m798-662 1 1c4 1 13 7 19 18 2 3 5 7 5 15a63 63 0 0 1-5 23l1 1 2-1c4-8 6-17 6-26-1-13-8-22-8-22l-12-17-5-11-1-4-1-1-2 1v23M971 367v1c5 2 13 7 20 18 2 3 4 7 4 15a63 63 0 0 1-4 24l1 1 1-1c5-8 6-18 6-27 0-12-7-22-7-22l-12-16-6-12-1-4-1-1-1 2v22M2139 49l1 1c4 1 12 6 19 17 2 3 5 8 5 16a63 63 0 0 1-5 23l1 1 1-1c5-8 7-17 7-26-1-13-8-22-8-22l-12-17c-4-5-5-11-6-12l-1-3-1-1-1 1v23M664 367l1 1c4 2 13 7 19 18 2 3 5 7 5 15a63 63 0 0 1-5 24l1 1 2-1c4-8 6-18 6-27-1-12-8-22-8-22l-12-16c-4-6-5-12-5-12l-1-4-2-1-1 2v22M1976 24l1 1c4 1 13 7 19 18 2 3 5 7 5 15a63 63 0 0 1-5 23l1 1 2-1c4-8 6-17 6-26 0-13-8-22-8-22l-12-17-5-11-1-4-1-1-2 1v23m-113 37 1 1c4 1 12 7 19 18 2 3 5 7 5 15a63 63 0 0 1-5 23l1 1 1-1c5-8 7-17 7-26-1-13-8-22-8-22l-12-16-6-12-1-4-1-1-1 1v23M959 80l1 1c4 1 13 6 19 17 2 3 5 8 5 16a63 63 0 0 1-5 23l1 1 1-1c5-8 7-17 7-26-1-13-8-22-8-22l-12-17c-4-5-5-11-6-12l-1-3-1-1-1 1v23M501 367l1 1c4 2 13 7 19 18 2 3 5 7 5 15a63 63 0 0 1-5 24l1 1 1-1c5-8 7-18 7-27-1-12-8-22-8-22l-12-16-6-12-1-4-1-1-1 2v22m1331 12v2c5 1 13 6 20 17 2 3 4 8 4 16a63 63 0 0 1-4 23l1 1 1-1c5-8 6-17 6-26 0-13-7-23-7-23l-12-16-6-12-1-3-1-1-1 1v22m-136-275 1 1c4 2 13 7 19 18 2 3 5 8 5 16a63 63 0 0 1-5 23l1 1 2-1c4-8 6-17 6-26-1-13-8-23-8-23l-12-16-6-12-1-4h-1l-1 1v22m85 569 1 1c4 2 13 7 19 18 2 3 5 7 5 16a63 63 0 0 1-5 23l1 1 2-1c4-8 6-18 6-27 0-12-8-22-8-22l-12-16-5-12-1-4-1-1-2 2v22M601 698l1 1c4 1 13 7 19 18 2 3 5 7 5 15a63 63 0 0 1-5 24l1 1 2-2c4-7 6-17 6-26-1-13-8-22-8-22l-12-16c-4-6-5-12-5-12l-1-4-2-1-1 2v22m1651-319 1 2c4 1 13 6 19 17 2 3 5 8 5 16a63 63 0 0 1-5 23l1 1 2-1c4-8 6-17 6-26-1-13-8-23-8-23l-12-16-5-12-1-3-1-1-2 1v22M1583 49v1c5 1 13 6 20 17 1 3 4 8 4 16a63 63 0 0 1-4 23l1 1 1-1c5-8 6-17 6-26 0-13-8-22-8-22l-11-17c-4-5-6-11-6-12l-1-3-1-1-1 1v23m-498 318v1c5 2 13 7 20 18 2 3 4 7 4 15a63 63 0 0 1-4 24l1 1 1-1c5-8 6-18 6-27 0-12-7-22-7-22l-12-16-6-12-1-4-1-1-1 2v22m797 331 1 1c4 1 13 7 19 18 2 3 5 7 5 15a63 63 0 0 1-5 24l1 1 2-2c4-7 6-17 6-26-1-13-8-22-8-22l-12-16c-4-6-5-12-5-12l-1-4-2-1-1 2v22m-720-37 1 1c4 1 13 7 19 18 2 3 5 7 5 15a63 63 0 0 1-5 23l1 1 2-1c4-8 6-17 6-26-1-13-8-22-8-22l-12-17c-4-5-5-11-5-11l-1-4-2-1-1 1v23m252-557v1c5 2 13 7 20 18 1 3 4 8 4 16a63 63 0 0 1-5 23l2 1 1-1c4-8 6-17 6-26 0-13-8-23-8-23l-11-16-6-12-1-4h-1l-1 1v22m111 263 1 1c4 2 13 7 19 18 2 3 5 7 5 15a63 63 0 0 1-5 24l1 1 2-1c4-8 6-18 6-27-1-12-8-22-8-22l-12-16c-4-6-5-12-5-12l-1-4-2-1-1 2v22m-182-263v1c5 2 13 7 20 18 2 3 4 8 4 16a63 63 0 0 1-4 23l1 1 1-1c5-8 6-17 6-26 0-13-7-23-7-23l-12-16-6-12-1-4h-1l-1 1v22m-95 263 1 1c4 2 12 7 19 18 2 3 5 7 5 15a63 63 0 0 1-5 24l1 1 1-1c5-8 7-18 7-27-1-12-8-22-8-22l-12-16-6-12-1-4-1-1-1 2v22M871 673l1 1c4 2 12 7 19 18 2 3 4 7 4 16a63 63 0 0 1-4 23l1 1 1-1c5-8 6-18 6-27 0-12-7-22-7-22l-12-16-6-12-1-4-1-1-1 2v22m401-569 1 1c4 2 12 7 19 18 2 3 5 8 5 16a63 63 0 0 1-5 23l1 1 1-1c5-8 7-17 7-26-1-13-8-23-8-23l-12-16-6-12-1-4h-1l-1 1v22m-54-12v1c5 1 13 7 20 18 1 3 4 7 4 15a63 63 0 0 1-4 23l1 1 1-1c5-8 6-17 6-26 0-13-8-22-8-22l-11-16-6-12-1-4-1-1-1 1v23m-174-31 1 1c4 1 13 7 19 18 2 3 5 7 5 15a63 63 0 0 1-5 23l1 1 2-1c4-8 6-17 6-26-1-13-8-22-8-22l-12-16c-4-6-5-12-5-12l-1-4-2-1-1 1v23m-495 6 1 1c4 2 12 7 19 18 2 3 4 7 4 16a63 63 0 0 1-4 23l1 1 1-1c5-8 6-18 6-27 0-12-7-22-7-22l-12-16-6-12-1-4-1-1-1 2v22m443 619 1 1c4 1 12 6 19 17 2 4 5 8 5 16a63 63 0 0 1-5 23l1 1 1-1c5-8 7-17 7-26-1-13-8-22-8-22l-12-17c-4-5-5-11-6-11l-1-4-1-1-1 1v23m1146-319 1 1c4 2 13 7 19 18 2 3 5 7 5 15a63 63 0 0 1-5 24l1 1 2-1c4-8 6-18 6-27-1-12-8-22-8-22l-12-16-5-12-1-4-1-1-2 2v22M796 61l1 1c4 1 13 7 19 18 2 3 5 7 5 15a63 63 0 0 1-5 23l1 1 2-1c4-8 6-17 6-26 0-13-8-22-8-22l-12-16-5-12-1-4-1-1-2 1v23m566 281 1 1c4 2 12 7 19 18 2 3 5 7 5 16a63 63 0 0 1-5 23l1 1 1-1c5-8 7-17 7-26-1-13-8-23-8-23l-12-16-6-12-1-4h-1l-1 1v22M711 80l1 1c4 1 13 6 19 17 2 3 5 8 5 16a63 63 0 0 1-5 23l1 1 2-1c4-8 6-17 6-26-1-13-8-22-8-22l-12-17-5-12-1-3-1-1-2 1v23M435 61l1 1c4 1 13 7 19 18 2 3 5 7 5 15a63 63 0 0 1-5 23l1 1 2-1c4-8 6-17 6-26-1-13-8-22-8-22l-12-16-5-12-1-4-1-1-2 1v23"/>
	<path d="m146 618 2 1h17l2-1c0-2-7 0-8-3v-16c0-7 1-6 4-7l2-1-1-1h-16l-1 1 1 1c5 0 6 0 6 6v9l-1 7c-1 4-7 2-7 4m26-3 2 2 3 3 2-2 3-3-2-2-3-3c-2 0-2 2-3 2l-2 3"/>
	<path d="M130 563v56h2v-53h600v53h3v-56z"/>
	<path d="m773 618 2 1h22l2-1 3-7-1-1-3 4h-13l4-4c4-3 9-9 9-13 0-5-4-7-10-7-9 0-11 5-11 7 0 1 2 3 5 3v-1l-1-4c0-2 1-3 4-3s7 2 7 6c0 5-4 11-15 18l-4 2m34-3 2 2 3 3 3-2 2-3-2-2-3-3-3 2-2 3"/>
	<path d="M757 563v56h3v-53h579v-3z"/>
	<path d="M2067 781c0 3 2 5 5 5s5-2 5-5-2-5-5-5-5 2-5 5m111-25c0 3 2 5 5 5s5-2 5-5-2-5-5-5-5 2-5 5m-161 50c0 2 2 5 5 5s5-3 5-5c0-3-2-5-5-5s-5 2-5 5"/>
</svg>
