<?xml version="1.0" encoding="utf-8"?>
<svg xmlns="http://www.w3.org/2000/svg" version="1.2" viewBox="0 0 1701 176">
	<title>Five measures of musical notation on the treble clef, with a ¾ time signature, in the key of F.</title>
	<path d="M0 35v2h1701v-2zm0 24v3h1701v-3zm0 25v3h1701v-3zm0 25v3h1701v-3zm0 25v2h1701v-2z"/>
	<path d="M1500 35v101h4V35zM311 35v101h4V35zm789 0v101h5V35zm-394 0v101h4V35zM220 158v4h48v-4zm1240-91v77h3V67zm106-25v77h3V42zm-195 13v64h2V55zM258 73v83h2V73zm909-37v83h2V36zm-790-6v64h3V30zm395 0v64h3V30zm529-6v82h2V24zm-853 6v64h2V30zm465-13v77h2V17zm-395 0v77h3V17zm529 7v82h2V24zm-395 0v82h3V24zm190 6v64h3V30zm795 12v77h2V42z"/>
	<path d="M622 114c0 5 3 10 12 10 10 0 21-9 21-18 0-6-5-9-11-9-10 0-22 8-22 17m120-12c0 4 3 9 11 9 11 0 22-8 22-17 0-6-5-9-12-9-9 0-21 8-21 17m71 0c0 4 3 9 11 9 10 0 21-8 21-17 0-6-5-9-11-9-10 0-21 8-21 17m-585 62c0 4 3 9 11 9 10 0 21-8 21-17 0-6-5-9-11-9-10 0-21 8-21 17m789-50c0 5 3 10 11 10 10 0 21-9 21-18 0-6-5-9-11-9-9 0-21 8-21 17m-134-12c0 4 3 9 11 9 11 0 21-8 21-17 0-6-5-9-11-9-9 0-21 8-21 17m254 25c0 4 3 9 11 9 10 0 21-9 21-17 0-6-5-9-11-9-9 0-21 8-21 17m134-13c0 5 3 10 11 10 10 0 21-9 21-18 0-6-5-9-11-9-10 0-21 8-21 17m160 38c0 4 3 9 11 9 10 0 21-9 21-17 0-6-5-10-11-10-10 0-22 9-22 18M348 102c0 4 3 9 11 9 10 0 21-8 21-17 0-6-5-9-11-9-10 0-21 8-21 17m993 25c0 4 3 9 11 9 11 0 22-9 22-17 0-6-5-9-12-9-9 0-21 8-21 17m196 0c0 4 3 9 11 9 10 0 21-9 21-17 0-6-5-9-11-9-10 0-21 8-21 17M418 102c0 4 3 9 11 9 11 0 21-8 21-17 0-6-5-9-11-9-9 0-21 8-21 17m1189 25c0 4 3 9 11 9 11 0 21-9 21-17 0-6-5-9-11-9-9 0-21 8-21 17M489 102c0 4 3 9 11 9 10 0 21-8 21-17 0-6-5-9-11-9-10 0-21 8-21 17"/>
	<path d="M31 161c0 7 5 15 18 15 5 0 9-1 12-3 6-4 7-10 7-17l-1-14-2-8c10-4 17-14 17-24 0-15-11-25-25-25l-3-17c11-11 18-24 18-40 0-9-3-16-4-19-3-6-6-9-8-9l-7 5c-6 8-8 20-8 29l2 21-7 7c-9 8-21 20-21 40 0 19 16 33 34 33h8l3 21c0 11-5 16-15 16h-5v-1c5-1 10-5 10-11 0-5-4-11-12-11-7 0-11 6-11 12M52 29c0-4 5-15 10-15 2 0 4 5 4 12 0 10-8 18-14 25l-2-12 2-10m8 102h-5c-15 0-27-10-27-25 0-12 9-22 17-30l5-4 3 14c-10 2-16 12-16 21 0 7 6 17 14 17l1-2-2-2c-4-2-6-5-6-10 0-6 5-11 11-12l5 33m14-19c0 7-3 15-10 18l-5-32c9 0 15 6 15 14"/>
	<path d="M119 70c-5 0-8 3-9 4l1-32-2-1h-1l-1 1v60l2 1h1c8-4 17-13 17-23 0-5-2-10-8-10m-9 28V79c1-1 2-4 6-4s4 3 4 5c0 9-3 13-10 18"/>
	<path d="M181 60c5-2 9-5 9-11 0-1-1-12-18-12s-16 12-16 12c0 4 3 7 6 7 4 0 7-3 7-7 0-3-3-5-5-6l5-2c4 0 9 3 9 8 0 6-5 7-6 7l-8 1-1 1v2l1 2h7c4 1 7 4 7 11 0 6-5 8-9 8l-6-1c3-1 6-4 6-7s-3-6-7-6c-3 0-6 3-6 6 0 8 7 12 15 12 9 0 19-3 19-14 0-7-5-10-9-11m-10 63v7h-8l-2 2v2l2 1h30l1-1v-2l-1-2h-9v-7h9l1-2v-1l-1-2h-9v-16l-1-1-1-1h-1l-1 1-9 8v9h-11l22-27 1-2v-1l-3-2h-15l-2 1s0 7-3 15c-2 8-5 13-8 17v2l1 1 1 1h17"/>
	<path d="m1371 48 92 13v12l-92-12V48m92 31-28-3v12l28 4V79M772 24h73v12h-73V24m794 12h73v12h-73V36M377 24h73v12h-73V24"/>
	<path d="M258 96v1c5 1 13 6 20 17 1 4 4 8 4 16a63 63 0 0 1-5 23l2 1 1-1c4-8 6-17 6-26 0-13-8-22-8-22l-11-17c-4-5-6-11-6-11l-1-4-1-1-2 1v23m395-50 1 1c4 2 13 7 19 18 2 3 5 7 5 15a63 63 0 0 1-5 24l1 1 2-2c4-7 6-17 6-26-1-13-8-22-8-22l-12-16-5-12-1-4-2-1-1 2v22m395 0 1 1c4 2 12 7 19 18 2 3 5 7 5 15a63 63 0 0 1-5 24l1 1 1-2c5-7 6-17 6-26 0-13-7-22-7-22l-12-16-6-12-1-4-1-1-1 2v22m254 0v1c5 2 13 7 20 18 1 3 4 7 4 15a63 63 0 0 1-4 24l1 1 1-2c5-7 6-17 6-26 0-13-8-22-8-22l-11-16-6-12-1-4-1-1-1 2v22"/>
	<path d="M928 98c0 3 2 5 5 5s5-2 5-5-2-5-5-5-5 2-5 5m458 25c0 2 2 5 5 5s5-3 5-5c0-3-2-5-5-5s-5 2-5 5M533 98c0 3 2 5 5 5s5-2 5-5-2-5-5-5-5 2-5 5m649 25c0 2 2 5 5 5s5-3 5-5c0-3-3-5-5-5s-5 2-5 5m470 0c0 2 2 5 5 5s5-3 5-5c0-3-3-5-5-5s-5 2-5 5"/>
</svg>
