<?xml version="1.0" encoding="utf-8"?>
<svg xmlns="http://www.w3.org/2000/svg" version="1.1" viewBox="0 0 1124 197">
	<title>Three measures of musical notation on the treble clef, with the Common Time symbol, in the key of C.</title>
	<path d="M0 54.5v2.7h1123.2v-2.7zm0 24.8V82h1123.2v-2.7zm0 24.8v2.7h1123.2v-2.7zM0 129v2.7h1123.2V129zm0 24.8v2.7h1123.2v-2.7z"/>
	<path d="M271.8 54.5v102h4.5v-102zm566 0v102h4.5v-102zm281 0v102h4.4v-102zM904.3 6.3v58h2.4v-58zm-443.9.1v57.9h2.5V6.4zm81.5 12v70.7h2.4V18.5zM338.3 25v64h2.5V24.9zm688 0v64h2.5V24.9zm-794 18.5v82.8h2.4V43.5zm391 0v82.8h2.6V43.5zm122.2 0v82.8h2.5V43.5z"/>
	<path d="M202.4 134.4c0 4.3 3 9 11.1 9 10.3 0 21.1-8.4 21.1-17.1 0-5.9-5-9.1-11-9.1-9.7 0-21.2 8.1-21.2 17.2m106.1-37.2c0 4.3 3.1 9 11.2 9 10.3 0 21-8.4 21-17.1 0-5.9-4.9-9.1-11-9.1-9.7 0-21.2 8.1-21.2 17.2m122.2-24.8c0 4.3 3 9 11 9 10.4 0 21.2-8.4 21.2-17.1 0-5.9-5-9.1-11-9.1-9.7 0-21.2 8.1-21.2 17.2M512 97.2c0 4.3 3 9 11.1 9 10.3 0 21.1-8.4 21.1-17.1 0-5.9-5-9.1-11-9.1-9.7 0-21.2 8.1-21.2 17.2m81.4 37.2c0 4.3 3.1 9 11.1 9 10.4 0 21.2-8.4 21.2-17.1 0-5.9-5-9.1-11.1-9.1-9.7 0-21.2 8.1-21.2 17.2m122.2 0c0 4.3 3 9 11 9 10.4 0 21.2-8.4 21.2-17.1 0-5.9-5-9.1-11.1-9.1-9.6 0-21.1 8.1-21.1 17.2m158.8-62c0 4.3 3 9 11.1 9 10.3 0 21.1-8.4 21.1-17.1 0-5.9-5-9.1-11-9.1-9.7 0-21.2 8.1-21.2 17.2m122.1 24.8c0 4.3 3.1 9 11.2 9 10.3 0 21-8.4 21-17.1 0-5.9-4.9-9.1-11-9.1-9.7 0-21.2 8.1-21.2 17.2m-965.7 84c0 6.5 5 15.1 18.4 15.1a23 23 0 0 0 12.3-3.3c5.3-3.8 6.7-10.4 6.7-16.6 0-3.9-.6-8.3-1.6-14l-1.5-8.8c9.8-3.2 17-13.3 17-23.5A24 24 0 0 0 57 105l-2.8-17.4A56 56 0 0 0 72 48.4c0-9-2.8-16.3-4.4-20-2.4-5-5.3-8.4-7-8.4-.7 0-3.8 1.1-7 5-6.4 7.6-8.2 20.2-8.2 28.6 0 5.3.5 10.2 2.2 21.3-.1.1-5.3 5.4-7.4 7-9 8.4-21.5 20.5-21.5 40.3a34.2 34.2 0 0 0 34.6 33.2 45.4 45.4 0 0 0 7.9-.7c1.8 9.5 3 16.4 3 21.7 0 10.3-5.3 15.8-15.3 15.8-2.4 0-4.5-.5-4.7-.5l-.3-.3c0-.2.2-.3.5-.3 4.7-.8 9.3-4.8 9.3-11.1 0-5.4-4-11-11.5-11-7 0-11.3 5.6-11.3 12.2M51.5 48.7c1-4 5.5-14.4 10.7-14.4 1.4 0 3.8 4.8 3.8 11.7 0 10.4-7.6 18.1-14.5 24.8-.6-4-1-7.8-1-12 0-3.6.2-7 1-10m8.8 101.9c-2 .4-3.9.6-5.8.6-14.2 0-26.3-10-26.3-25 0-12 8.6-22.8 17.3-30.4 1.7-1.5 3.3-2.8 4.8-4.3l2.2 14c-9 2.7-15.1 12.3-15.1 21.6 0 7 5.4 16.5 13.3 16.5.8 0 1.7-.4 1.7-1.3 0-1-1-1.4-2.1-2.2-4-2.4-6.1-5-6.1-9.8 0-6 4.6-11 10.3-12.3l5.8 32.6m14-18.4c0 7-2.8 14.3-9.9 17.2l-5.4-32c9 0 15.4 6 15.4 14.8m64.7-44.6a9.2 9.2 0 0 0-4.2 7.6v1.2a9 9 0 0 0 7.9 7.8h1a8.9 8.9 0 0 0 9-9c0-.7 0-1.3-.2-2-.9-4.3-4.8-13.4-21.6-13.4-21.6 0-24.1 18-24.1 24.4 0 11.8 1.5 26.6 26.3 26.6 9.8 0 17.4-5.8 17.8-16.4 0-.5-.3-.8-.8-.8H149c-.4 0-.7.4-.7.8-.4 8.2-6.3 13.2-15 13.2s-12.8-4.7-12.8-13.4v-19c0-5.5 2.1-11.9 11-11.9 4.6 0 6.7 1.7 7.8 3.4l.1.5c0 .1 0 .3-.2.4"/>
	<path d="m460.4 0 84 12.4v12.5l-84-12.4V0"/>
</svg>
