<?xml version="1.0" encoding="utf-8"?>
<svg xmlns="http://www.w3.org/2000/svg" viewBox="0 0 1124 241">
	<title>Three measures of musical notation on the treble clef, with no time signature, in the key of C, with lyrics underneath the notes, “And I will sing Golier.”</title>
	<path d="M0 55.6v2.8h1123.2v-2.8zm0 24.8v2.8h1123.2v-2.8zm0 24.8v2.8h1123.2v-2.8zM0 130v2.8h1123.2V130zm0 24.8v2.8h1123.2v-2.8z"/>
	<path d="M811 119c35.2 22.7 140.9 22.7 176.1 0-35.2 30.7-140.9 30.7-176 0"/>
	<path d="M987.4 118.4a.6.6 0 0 0-.6 0c-17.4 11.2-52.6 17-87.7 17-35.2 0-70.4-5.7-87.7-17a.6.6 0 0 0-.4 0 .6.6 0 0 0-.4.1.6.6 0 0 0-.1 0 .6.6 0 0 0 0 .5.6.6 0 0 0 .1.4h.1c17.9 15.6 53.1 23.2 88.4 23.2 35.2 0 70.5-7.6 88.3-23.1l.1-.1a.6.6 0 0 0-.1-1zm-168.8 5.3c19.2 8.7 49.8 13 80.5 13 30.6 0 61.3-4.3 80.5-13-18.8 11.7-49.7 17.7-80.5 17.7-30.9 0-61.7-6-80.5-17.7z"/>
	<path d="M242.2 55.6v102m516-102v102M240 55.6v102h4.4v-102zm516 0v102h4.4v-102zm-581 71.8V44.8M307.7 115V38.4m239.7 64.2V32.2m-124 45.6V1.4m267.7 126V44.8m132.6 45.4V26M1006 90.2V26M422.2 1.4v76.4h2.5V1.4zM822.4 26v64.2h2.5V26zm182.4 0v64.2h2.4V26zM546 32.2v70.4h2.5V32.2zm-239.7 6.2V115h2.5V38.4zm-132.6 6.4v82.6h2.5V44.8zm516 0v82.6h2.6V44.8z"/>
	<path d="M144 135.6c0 4.2 3.1 9 11.2 9 10.3 0 21.1-8.5 21.1-17.2 0-5.8-5-9.1-11-9.1-9.7 0-21.2 8.1-21.2 17.3m372.2-24.8c0 4.2 3 9 11.1 9 10.3 0 21.2-8.5 21.2-17.2 0-5.8-5-9.1-11.2-9.1-9.6 0-21 8.1-21 17.3m-239.8 12.4c0 4.2 3.1 9 11.2 9 10.3 0 21-8.5 21-17.2 0-5.8-4.9-9.1-11-9.1-9.6 0-21.2 8.1-21.2 17.3M392.4 86c0 4.2 3.1 9 11.2 9 10.3 0 21-8.4 21-17.2 0-5.8-4.9-9.1-11-9.1-9.6 0-21.2 8.1-21.2 17.3m267.7 49.6c0 4.2 3 9 11.1 9 10.3 0 21.2-8.5 21.2-17.2 0-5.8-5-9.1-11.2-9.1-9.6 0-21 8.1-21 17.3m132.5-37.2c0 4.2 3 9 11.1 9 10.3 0 21.1-8.4 21.1-17.2 0-5.8-5-9.1-11-9.1-9.7 0-21.2 8.1-21.2 17.3m182.3 0c0 4.2 3 9 11 9 10.4 0 21.2-8.4 21.2-17.2 0-5.8-5-9.1-11-9.1-9.7 0-21.2 8.1-21.2 17.3M30.8 182.3c0 6.5 5 15.2 18.4 15.2a23 23 0 0 0 12.3-3.4c5.3-3.8 6.7-10.3 6.7-16.6 0-3.8-.6-8.3-1.6-14l-1.5-8.8c9.8-3.2 17-13.3 17-23.5A24 24 0 0 0 57 106l-2.8-17.4a56 56 0 0 0 17.8-39c0-9-2.8-16.4-4.4-20-2.4-5-5.3-8.5-7-8.5-.7 0-3.8 1.2-7 5-6.4 7.6-8.2 20.3-8.2 28.6 0 5.4.5 10.2 2.2 21.3-.1.1-5.3 5.4-7.4 7-9 8.4-21.5 20.5-21.5 40.4a34.2 34.2 0 0 0 34.6 33 47 47 0 0 0 7.9-.6 131 131 0 0 1 3 21.7c0 10.3-5.3 15.8-15.3 15.8-2.4 0-4.5-.5-4.7-.5l-.3-.3c0-.2.2-.3.5-.3 4.7-.8 9.3-4.8 9.3-11.1 0-5.4-4-11-11.5-11-7 0-11.3 5.6-11.3 12.2M51.5 49.8c1-4 5.5-14.3 10.7-14.3 1.4 0 3.8 4.7 3.8 11.7 0 10.3-7.6 18-14.5 24.8-.6-4-1-7.9-1-12 0-3.7.2-7 1-10.2m8.8 102c-2 .4-3.9.6-5.8.6-14.2 0-26.3-9.9-26.3-24.9 0-12 8.6-22.9 17.3-30.4l4.8-4.4 2.2 14.1c-9 2.7-15.1 12.2-15.1 21.5 0 7 5.4 16.5 13.3 16.5.8 0 1.7-.4 1.7-1.3s-1-1.4-2.1-2.2c-4-2.4-6.1-5-6.1-9.8 0-6 4.6-11 10.3-12.3zm14-18.3c0 7-2.8 14.3-9.9 17.2L59 118.6c9 0 15.4 6 15.4 14.9m99.4-66.4c0 .3.1.9.8 1.1A40 40 0 0 1 194 86c1.8 3 4.6 7.3 4.6 15.5 0 7.2-1.8 14.5-4.4 21.7a5 5 0 0 0-.3 1.5c0 .6.4 1 1 1 .7 0 1.1-.4 1.6-1.1 4.4-8 6.1-17.2 6.1-26.2-.5-12.8-7.8-22.3-7.8-22.3.3 0-9.2-12.2-11.8-16.3-3.7-5.7-5.4-11.3-5.6-11.7l-1-4c0-.3-.6-.7-1.2-.7-.7 0-1.3.6-1.3 1.3zm248.4-43.4c0 .3 0 .9.8 1.1a40 40 0 0 1 19.2 17.8c1.8 3 4.7 7.3 4.7 15.5 0 7.2-1.8 14.5-4.5 21.7a5 5 0 0 0-.3 1.5c0 .6.4 1 1.1 1 .6 0 1.1-.4 1.5-1.1 4.5-8 6.2-17.2 6.2-26.2a42.6 42.6 0 0 0-7.9-22.3c.3 0-9.1-12.2-11.8-16.3-3.6-5.7-5.3-11.3-5.5-11.7l-1-4c-.1-.3-.6-.7-1.2-.7-.7 0-1.3.6-1.3 1.3zm267.7 43.4c0 .3 0 .9.8 1.1A40 40 0 0 1 709.9 86c1.8 3 4.7 7.3 4.7 15.5 0 7.2-1.8 14.5-4.5 21.7a5 5 0 0 0-.3 1.5c0 .6.4 1 1.1 1 .6 0 1-.4 1.5-1.1 4.5-8 6.1-17.2 6.1-26.2-.5-12.8-7.8-22.3-7.8-22.3.3 0-9.1-12.2-11.8-16.3-3.7-5.7-5.4-11.3-5.6-11.7l-1-4c0-.3-.5-.7-1.1-.7-.7 0-1.3.6-1.3 1.3zM370 209.8c0 .6.4.5 1 1 2.7 2.2 2.4 3.3 3.7 6.5 5.2 12.8 5.2 13.8 6 13.8 1.6 0 6.6-12.8 7.2-12.8.9 0 4.4 13 6 13 .5 0 1.1-1.4 2.2-3.7 6.1-13 6-13.8 7.2-15.6 1-1.4 2.2-1 2.2-1.9 0-.5-.2-.6-1.4-.6h-5.8c-.5 0-1 0-1 .4 0 1.4 2.7.2 2.7 2.9 0 2.4-4 12.6-4.7 12.6-.5 0-1.3-2.8-2.4-5a35 35 0 0 1-3-8.4c0-1.1 1-1.3 1.6-1.4.5 0 .7 0 .7-.5 0-.1 0-.7-1-.7l-1.6.1c-6.1 0-2.7-.1-6-.1-.4 0-.8 0-.8.4 0 1 1.1.2 2.8 2.7a10 10 0 0 1 1.5 3.4c0 1.2-.3 1.4-2.7 6-1 2-1.7 3.5-2 3.5-.4 0-1.4-2.8-2.4-5a26 26 0 0 1-2.8-8.1c0-2.2 2.2-1.4 2.2-2.4 0-.5-.5-.5-2.4-.5h-2.4l-3.6-.1c-.3 0-1 0-1 .5m37.9 1.7c0 .3.2.4.5.5 1 .4 2.9-.2 2.9 3.9v4.4c0 8.6-.1 8.3-2 9a1 1 0 0 0-.8 1c0 .5.7.6 2 .6l3.5-.1h3.6l.7.1c.8 0 .9-.5.9-.8 0-.7-.7-.7-1.5-.8-1.3 0-2.8-.4-2.8-3.6V212c0-.9.3-1.8.3-2.4 0-.7-.5-1-.8-1-.8 0-.7.2-2.5 1-2.8 1-4 1.2-4 2m2.8-10.5c0 .8 1 2.8 2.5 2.8.4 0 2.3-1.5 2.3-2.7 0-1-1.1-2.9-2.3-2.9-1 0-2.5 2.1-2.5 2.8m10.4-5.2c0 .4.2.4.5.4 1 0 1.7 0 2 .2.6.3 1.2 1.7 1.2 3.2l-.2 21.3v5c0 1.8 0 2.7-1.3 3.3-.7.3-1.7.1-1.7 1 0 .2.3.5.8.5 1.1 0 1.8-.4 4-.4 1.6 0 4 .4 5.1.4 1 0 1.6-.2 1.6-.7 0-.3-.3-.8-.7-.8-3.8 0-4-2-4-3.6v-24.4c0-4.5.5-6.8.5-7.6 0-.5-.1-.9-.6-.9-1 0-2.5.9-3.8 1.4-2.8 1.1-3.4.8-3.4 1.7m14 0c0 .4.2.4.5.4 1 0 1.7 0 2 .2.6.3 1.2 1.7 1.2 3.2l-.2 21.3v5c0 1.8 0 2.7-1.3 3.3-.7.3-1.7.1-1.7 1 0 .2.3.5.8.5 1.1 0 1.8-.4 4-.4 1.6 0 4 .4 5.1.4 1 0 1.6-.2 1.6-.7 0-.3-.3-.8-.7-.8-3.8 0-4-2-4-3.6v-24.4c0-4.5.5-6.8.5-7.6 0-.5-.1-.9-.6-.9-1 0-2.5.9-3.8 1.4-2.8 1.1-3.4.8-3.4 1.7m347.5 15.6c0 .3.2.4.5.5 1.1.4 3-.2 3 3.9v4.4c0 8.6-.2 8.3-2.1 9a1 1 0 0 0-.8 1c0 .5.8.6 2 .6l3.6-.1h3.5l.8.1c.7 0 .8-.5.8-.8 0-.7-.6-.7-1.5-.8-1.3 0-2.8-.4-2.8-3.6V212c0-.9.3-1.8.3-2.4 0-.7-.4-1-.8-1-.8 0-.6.2-2.5 1-2.8 1-4 1.2-4 2m2.9-10.5c0 .8 1 2.8 2.4 2.8.4 0 2.4-1.5 2.4-2.7 0-1-1.2-2.9-2.3-2.9-1.2 0-2.5 2.1-2.5 2.8m11.3 19.8c0 7.4 5.2 10.6 10.5 10.6 5.8 0 8.8-4.2 8.8-4.8 0-.2-.2-.4-.5-.4-.8 0-3 2.2-6.5 2.2-4.1 0-8.5-3.5-8.5-10.1 0-.5 0-.6.6-.6h12.9c1.4 0 2-.2 2-.9s-1.7-7.9-9.2-7.9c-6.1 0-10.1 5.4-10.1 11.9m4.2-5c0-1.7 1.5-5.6 5-5.6 4 0 5.5 4.1 5.5 5.5 0 .4-.1.5-1.1.5l-8.8.3c-.5 0-.6-.2-.6-.7m17.9-4.3c0 .7.5.8 1 .8h.5c2.2 0 2.5 1 2.5 1.9l.1 9.5c0 4 0 5-1.9 5.5-.5.1-.6.5-.6.8 0 .4 0 .7 1.1.7.9 0 2.5-.3 5.2-.3 1.2 0 2.7.3 4.3.3.5 0 .5-.5.5-.9 0-.7-1.2-.6-2.5-.8a2.8 2.8 0 0 1-2.3-2.7c0-.9-.2 0-.2-5.3V216c0-1 1.8-3 3.8-3 2.4 0 2.6 1.1 3.7 1.1.2 0 1.8-.7 1.8-2.7 0-.3-.2-1-1.1-1.5-1-.7-1.3-1-2.3-1-3.3 0-4.9 4-5.3 4-.3 0-.4 0-.4-2v-1.4c0-.5-.2-1-.6-1l-.7.2c-4.1 2-6.6 1.8-6.6 3m21.3 15.8c0 1 1.2 1.5 1.7 2.1.5.7 1.6 1.8 2 1.8.7 0 1.3-1.2 1.9-1.8.6-.6 2-1.2 2-2 0-.9-1-.9-2.7-2.7-.5-.4-.7-.9-1.2-.9-1 0-1.6 1.4-2.3 2-.7.6-1.4 1.1-1.4 1.5m1.5-29.4c0 2.3.2 3.7.4 7.3.3 3-.2 0 1 14.9 0 .3.3.4.7.4.5 0 .6-.2.7-.5 1.3-10.5 1.1-15.5 1.7-20.4l.3-2c0-1.3-.9-1.6-2.4-1.6s-2.4.7-2.4 2M637 214c0 8.6 5 17.3 20 17.3 5.6 0 10.7-3.5 11.3-3.8 1.8-1 3.2-.8 3.2-1.4 0-.5-.3-1.1-.3-5.6 0-2.1.1-4 .4-5.6.2-1.5 2.7-1.5 2.7-2.3 0-.4-.6-.4-.8-.4h-4.8l-5.5-.2c-.7 0-1 .2-1 .5 0 1 1 1 2 1.1.7.1 1.5.2 2.1.8.5.5.9 1.4.9 2.8l-.2 6.3c-.4 3-5.2 5.8-10.4 5.8-9.4 0-14.9-9-14.9-18 0-9.6 6.4-14.8 14.4-14.8 5.8 0 12 4 14.3 9 .2.4.6.6.9.6.2 0 .6 0 .6-.8 0-.6-.6-3.7-.7-7 0-.5-.3-1-.8-1-.4 0-1 .8-1.4.8-.4 0-4-3.6-12.4-3.6-12.8 0-19.6 8.9-19.6 19.5m40.8 6.3c0 5.6 3.8 11.1 11.4 11.1 6 0 12-3.9 12-11.4 0-7.3-5.8-11-11.6-11-7.9 0-11.8 5.7-11.8 11.3m4-1.6c0-6.3 3.7-8.4 6.6-8.4 6.1 0 9 6 9 11.2 0 5.7-3.1 8.4-6.7 8.4-4.2 0-9-4-9-11.3m22.1-22.8c0 .4.3.4.6.4 1 0 1.6 0 2 .2.6.3 1.2 1.7 1.2 3.2l-.2 21.3v5c0 1.8-.1 2.7-1.3 3.3-.8.3-1.7.1-1.7 1 0 .2.2.5.8.5 1 0 1.7-.4 4-.4 1.6 0 4 .4 5 .4s1.6-.2 1.6-.7c0-.3-.3-.8-.6-.8-3.8 0-4-2-4-3.6v-24.3c0-4.5.4-6.8.4-7.6 0-.5 0-.9-.6-.9-1 0-2.5.9-3.8 1.4-2.8 1.1-3.4.8-3.4 1.7m-213.5 32.5c0 1.3.6 1.2 1.8 1.6.7.3 3 1.4 5.6 1.4 3 0 4.2-1 5-1.6a7.5 7.5 0 0 0 2.6-5.2c0-3.8-1.4-5.3-6.1-7.2-2.4-.9-5.4-1.5-5.4-4.5 0-1.5 1.5-2.5 3.4-2.5 4.5 0 5.2 4.6 6 4.6.7 0 1-.4 1-1.4l-.3-3c0-.4-.5-2-5.7-2-3.9 0-7.5 2.5-7.5 6.3 0 7.2 11.2 5 11.2 11.1 0 2.8-2.8 3.5-4.4 3.5-3 0-4.7-3.3-5.2-4.6-.4-1.1-.2-2.1-1.3-2.1-.3 0-.7.5-.7 1.3v4.3m19-16.9c0 .3.3.4.5.5 1.1.4 3-.2 3 3.9v4.4c0 8.6-.2 8.3-2.1 9a1 1 0 0 0-.8 1c0 .5.8.6 2 .6l3.6-.1h3.5l.8.1c.8 0 .8-.5.8-.8 0-.7-.6-.7-1.5-.8-1.2 0-2.8-.4-2.8-3.6V212c0-.9.3-1.8.3-2.4 0-.7-.4-1-.7-1-.8 0-.7.2-2.5 1-2.8 1-4 1.2-4 2M512 201c0 .8 1 2.8 2.4 2.8.5 0 2.4-1.5 2.4-2.7 0-1-1.2-2.9-2.3-2.9-1.1 0-2.5 2.1-2.5 2.8m10.9 10c0 .3.2.5 1 .5h.4c1.2 0 2.2.4 2.2 2.7v7.2l-.1 3.8c-.2 6-2.7 3.2-2.7 4.8 0 .3.2.5.8.5l5.6-.2c2.3 0 1.8.2 3.6.2.5 0 1-.1 1-.7s-1.8-.7-2-.7c-2.7-.2-3-2.2-3-5v-2c0-1.6.3-7.2.5-7.9.2-.5 2.3-3 5.6-3 3.2 0 6.5 2.2 6.5 7.8v6.7c0 1.4-.1 3-1.1 3.4-.1 0-1.3 0-1.3.7 0 .4.4.7 1 .7l3.9-.2 4 .2c.6 0 1 0 1-.5 0-.3 0-.6-1-.7-2.8-.5-3-1.4-3-3.6v-8.2c0-2.7-1.5-8.4-8.6-8.4-1.6 0-3.2.7-4.4 1.4-1.8 1.1-2 2-2.3 2-.2 0-.3-.4-.3-1.2l.1-2.2c0-.3 0-.6-.4-.6h-.1c-.5 0-2.3 1.1-4.5 1.7-1 .3-2.4.2-2.4.9m30.4 24.3c0 4.4 5.4 5.5 9.3 5.5 5.1 0 9.4-2 10.7-5.3a6 6 0 0 0 .4-2.3c0-4.3-5-4.5-7.3-4.5h-2.3c-4.1 0-6.7-.1-6.7-2.5s2.2-2.5 2.3-2.5c.7 0 1.6.5 3.8.5 4.6 0 8.3-3.4 8.3-7.7 0-1-.6-2.5-.6-2.5.7-.3 1.5-.7 2-1.5.5-.7 1.2-2.8 1.2-4.6 0-.4-.5-.4-.7-.4-.8 0-.5 1.9-1.8 2.4-1 .4-1.8 1-2.5 1s-2-2-6.3-2c-7.2 0-8.7 5-8.7 7.6 0 5.2 3.4 5.9 3.4 6.7 0 .5-2.6 1.5-2.6 5 0 2.1 1.7 2.6 1.7 2.9 0 .5-3.6 1.2-3.6 4.2m2.9-.3c0-2 1.8-3.3 2.3-3.3.5 0 3.5.7 6.1.7h.5c2.8 0 5.5 0 5.5 2.5 0 2.8-4.2 4.6-8 4.6-3.3 0-6.4-1.3-6.4-4.5m2-19c0-4 2.2-6 4.5-6 3.4 0 5.2 3.6 5.2 7 0 3.2-1.5 6-4.7 6-2.9 0-5-3-5-7m-447.1 14c0 .6.5.7 1.5.7l4.2-.2h4.2c.8 0 .9-.3.9-.7 0-1.5-3.8.1-3.8-3.4 0-1.4 1.5-4 3.2-7.7.6-1.2.8-1.5 3.9-1.5h2.6l6.1-.1c1.7 0 1.9.4 2 .9a34 34 0 0 1 3.4 9.5c0 1.8-2.5 1.2-2.5 2.3 0 .6.3.7 2.4.7l4.6-.2 4.5.3c1.3 0 1.4-.5 1.4-.8 0-1.8-3 .5-5.6-4.5-.3-.8-7.4-17.1-9.8-23-3.2-8-2.5-8-3.5-8-.9 0-1.1.1-1.5 1.1-14.9 31.6-14.5 32.6-17.5 33.8-.4 0-.7.4-.7.9m12.5-16.5c0-.6 4.7-11.6 5.3-11.6 1 0 5.5 11 5.5 11.7 0 .5-.6.8-1.9.8h-6.2c-2.1 0-2.6 0-2.6-1m29-2.5c0 .3.3.5 1 .5h.5c1.2 0 2.2.4 2.2 2.7v7.3l-.2 3.7c-.2 6-2.6 3.3-2.6 4.8 0 .3.1.5.8.5l5.5-.2c2.3 0 1.8.2 3.7.2.4 0 1-.1 1-.7s-1.8-.7-2.1-.7c-2.6-.2-2.8-2.1-2.8-5v-2c0-1.6.2-7.1.4-7.9.2-.5 2.3-3 5.6-3 3.2 0 6.5 2.3 6.5 7.8v6.7c0 1.4-.2 3-1.2 3.4 0 0-1.2 0-1.2.7 0 .4.4.7 1 .7l3.9-.2 4 .2c.5 0 1 0 1-.5 0-.3 0-.5-1-.7-2.8-.5-3-1.3-3-3.6v-8.3c0-2.7-1.5-8.4-8.7-8.4-1.5 0-3.1.7-4.3 1.4-1.8 1.1-2 2-2.3 2-.2 0-.3-.4-.3-1.2l.1-2.2c0-.3 0-.6-.5-.6s-2.3 1.1-4.5 1.7c-1 .3-2.5.2-2.5.9m30.5 9.7c0 5.4 3.3 10.5 9.8 10.5 4.7 0 6.7-3.2 7.3-3.2.4 0 .4.5.4.8l.2 1.9c0 .3.2.5.6.5.5 0 1.7-.4 3.1-.5 3.6-.3 3.9-.7 3.9-1 0-.7-1.4-.7-2.2-1-1.4-.4-1.8-1.5-1.8-6l.2-18.2c0-4.3.6-9.9.6-11 0-.7-.3-1-.6-1-.6 0-1.3.6-2 .8-4 1.8-5.6 1.7-5.6 2.4 0 .4 0 .5 1 .5h.6c2.7 0 2.7 2.3 2.7 5.6 0 1.8-.2 0-.2 6.4 0 1.5 0 1.8-.2 1.8-.7 0-3.5-1.4-5.7-1.4-8.1 0-12.1 6.2-12.1 12.1m3.5-2.3c0-4.7 2.5-8.4 7-8.4 1.8 0 4.3 1.3 6 2.2.7.5 1.3 1.1 1.3 3.9v8.6c0 2.3-3 3.9-6 3.9-5.1 0-8.3-5.6-8.3-10.2m98.6-22.7c0 .3 0 .7 1 .8 1.4 0 3.5.7 3.8 2.5l.2 3.7v10.5c0 3.4-.5 13-.6 13.4-.8 3.2-3.7 1.8-3.7 3.2 0 .4.2.7 2.2.7l5.5-.2c1.7 0 2 .2 4.8.2.8 0 1.2-.1 1.2-1 0-.2-.5-.5-1-.5h-1c-.5 0-1.4-.1-2.4-1.6-1-1.4-1.3-3-1.3-6 0-4.6.2-6.8.2-18.5 0-2 .2-5.2 1.6-5.8 1.4-.6 2.3-.9 2.3-1.3 0-.7-1-.7-1.4-.7h-4.4l-5.6-.1c-1.2 0-1.4.4-1.4.7"/>
	<path d="m758.3 208.1-19.6 3.5.5 2.4 19.5-3.4zm0 6.3-19.5 3.4.4 2.5 19.6-3.5z"/>
	<path d="M837.3 94.2a5 5 0 0 0 5 5c2.8 0 5-2.2 5-5s-2.2-5-5-5a5 5 0 0 0-5 5"/>
</svg>
