<?xml version="1.0" encoding="utf-8"?>
<svg xmlns="http://www.w3.org/2000/svg" version="1.1" viewBox="0 0 1092 1436">
	<title>Sketch of a small arch stone bridge over a river, with two large tree trunks and one smaller tree behind the bridge on the left bank.</title>
	<path d="m178 1433-2-4-3-5-2-3h2c3-1 5-5 6-11 1-5 2-6 5-5v4c-2 2-2 3 0 10l1 11c-1 6-4 7-7 3zm8-47c-3-1-5-6-4-11 2-6 3-7 6-6l3 4 2 6v4c-2 4-4 4-7 3zm-10-22c0-2 2-5 3-5 2 0 2 1 0 4l-3 1zm1-11c-1-2 1-4 3-4 3 0 3-3 0-6s-3-4 0-4 11 7 10 8l-7 4c-5 3-6 3-6 2zm0-20c-1-2 0-3 2-2v2h-2zm9-7c-2-1 0-4 2-3s2 4 0 4l-2-1zm-8-8 2-4c3-2 3-2 1-3-3-1-3-5-1-6l1-3c0-5 1-5 5 0 3 4 4 4 2 5-3 1-3 3 0 3l6 3-3 3c-2 2-11 3-13 2zm11-20-3-4h-2c-4 1-8 1-10-2l-5-3c-5-1-6-4-5-10 1-4 1-4 3-4l13-2c9-2 11-2 12-1 2 2 1 4-2 4s-3 0-4 8c0 3 0 4 2 4l4 5c2 4 2 4 1 6-2 1-2 1-4-1zm-12-15-3-1h-2c0 2 4 3 5 1zm7 0-2-1c-2 0-2 1-1 2s3 0 3-1zm-10-15-1-2c2-1 2-2 0-3l-4-2c-1-2-1-2 2-6 4-6 3-14-2-15s-5-4-1-9c3-3 5-7 5-9 1-3 1-4-1-6-1-2-3-5-3-10-2-6-2-6-5-7l-6-2c-1 0-1-1 1-2l4-1c3 0 6-5 6-12 0-5 0-6 3-7 3-2 3-2 1-14a726 726 0 0 1-3-65 564 564 0 0 1-4-29l-1 17c0 9-2 18-3 21l-1 8c0 5-3 10-5 9-2 0-2-3-2-41 0-39 0-41 2-42l4-6c1-4 2-4 4-4 4 1 5 2 6 6 1 6 1 7 3 6 1-3 1-5-2-11s-3-9-2-19l1-6-3-1c-3-1-3-1-4-6l-1-29c0-19 0-22-1-20-2 3-4 3-5 1l-3-39-1-18-2 8c-2 9-3 11-5 10-1-1-1-1-2 1-2 8-4 14-5 13-2 0-2-6 0-17a227 227 0 0 0 7-66c2-7 1-15-1-18l-2-2-1 8c-1 5-1 7-2 6-2 0-2-1-2-7l-1-7-1 4c-1 2-2 3-3 2v-5l-1-4c-1-2-1 0-1 3 0 6-1 9-3 9s-3-13-2-17c1-3 6-5 6-2 0 1 0 2 1 1 2-1 5 1 5 4l1 2c1-1 1-9-1-14-1-4-1-4-2-2l-6 2c-6 1-6 2-7 18l-2 13c-2 3-2 1-2-9 0-12-2-17-4-17l-1 9-1 9c-2 1-4-3-4-11-1-13-2-12-2 1-1 12-1 13-3 11-2-1-2-3-3-18a164 164 0 0 0-2-28c-1-5-2-7-4-6l1 11c2 13 3 40 2 41-2 1-3-2-4-11l-2-9c0-1 0 0 0 0l-2 2-2-9c-1-8-1-10-3-11s-2-2-2-6l1-5c2-2 3-1 3 4-1 3 1 5 2 2l2-8 2-19c1-10 0-20-2-19v28l-4-1h-5l-1 11-1 15c-1 3-1 3-1 1-1-18-5-35-8-34l-3-2c-3-5-3-5-3 5l1 9 3-7 1 3c3 12 3 27 0 29l-3-3-1-9c1-7 0-12-2-11h-2c-1-1-2-1-3 1l-3 1v-7c0-6 0-6 1-3 2 3 2 3 2 1l2-5 1-3c-1-1-5 0-9 4-3 3-3 3-3 9l-1 7-2-2v-6c-1-4-1-5 1-7l4-5c2-3 2-3 1-6l-2-2-1 4c-1 4-2 6-3 3-1-5-2-1-2 7l-2 8c-2 1-2-1-2-7 1-4 0-8-1-14-2-5-2-10-2-11l-1-2-2 8c-1 19-2 22-3 21s-1-24 1-39c1-21 2-24 5-18 0 2 2 4 3 5l1 4-4 4-2 1 3 4c1 1 3 4 3 7 0 2 1 3 2 3l1-12 3-14 2-12 1-15 3-13c1-11 4-12 4-2 0 4 1 5 3 5h3v-8c0-6-1-8-2-10-2-2-4-2-5 0-1 3-6-6-11-17-4-12-4-17-1-17 1-1 2 0 2 4l1 6 4 6c1 3 2 4 4 4l3 1-1-5c-1-6-2-9-5-13l-3-9c-2-4-1-6 0-9 2-4 3-4 4-1 1 2 3 4 3 2l7-5c1 0 2 2 2 5 0 4 0 5 2 5 3 0 4 0 4 2 1 5 1 6 5 6 3 0 3 0 3 4s0 5 3 6c1 0 2 1 2 3 1 2 1 2 3 1l2-1-2-7c-1-5-2-6-4-6s-5-3-7-12c-3-9-4-21-1-21 1 0 2 0 2 2v3c2 1 3-3 2-10s-2-8-4-4l-2 1c-2-1-3 5-3 9l-2 3c-1 2-5 2-8 1l-2 1c-2 1-2 1-6-1l-10-8c-7-6-8-6-9 1-1 3-2 3-5 0l-2-2 2-5c2-7 2-9 0-10-3-2-3-10-1-11s3 0 3 4c1 5 2 6 4 3 2-2 4-1 4 2s0 3 3 2l5 1h2c3-1 4 1 5 6l3 7 4 4v-1c0-1 0-4-2-6-2-4-2-10 1-10 2 0 2 1 3 5 0 6 2 7 4 2l3-4c2 0 4-2 6-4 4-3 5-2 5 3l2 3 1 7c0 4 0 6 2 10l4 8 2 5v5l1 7 1 3 1-4v-10l-2-10c0-4-4-10-6-10v-3c0-2 0-4 2-6 4-3 5-9 2-9-3-1-6-5-5-8 0-3 3-3 4-1 1 3 4 3 8 1 5-3 8-3 9 1 1 5 2 5 5 3 2-1 3 0 8 2 5 4 11 5 11 3l-3-1c-5 0-8-5-3-6 4-1 6-1 6 2 0 2 0 2 2-1l3-4c1-2 2-2 4 0 1 2 3 3 5 3 4 0 14 3 16 5l2 9c1 7 1 8 5 11l4 3v-1c-3-1-4-4-4-7 0-4 2-6 4-3 2 2 3 2 4 0 1-3 3-4 6-2 1 2 3 3 5 3 3 0 7 1 9 4 2 4 4 3 9-2 3-3 5-5 5-7s-4-6-6-6l-3-2c-1-1-1-2 1-3 2-2 23-3 25-1 1 2-1 5-5 5-5 0-7 5-3 10l2 6v5c1 1 1 1 4-2 5-5 7-5 10 2 2 5 3 6 7 6s4 0 11 8c2 2 4 2 5-1 2-3 3-4 6-1 3 2 3 3 3 5 1 4 2 4 4 2h3c2 2 2 2-1-6-2-5-2-8-2-17v-9l-4-4-8-5-9-3c-6-2-6-2-6 0s-2 3-6 2c-6-1-7-4-3-7 2-2 2-2 2-9-1-7-1-7 1-7 3 0 4 1 6 8 2 5 2 5 6 6l6 2c4 3 11 3 14 1 2-2 4-2 5-1l20 4c3-2 3-7 2-11-1-5-6-15-8-16v-3l-2-3c-3-2 0-5 5-4 3 0 4 1 7 4l4 8 1 10c1 5 1 6 5 8l4 4c0 3 10 5 16 3 2-1 2-2 3-9 1-9 1-10 4-9 5 1 6 9 3 15-2 3-2 4 0 5 3 2 6 1 9-3l4-6c2-2 2-2 4-1l3 5c1 4 3 5 5 1 2-2 2-3-1-8-3-6-3-6-1-10l4-8c4-4 2-4-3-1-5 4-6 4-8 2l-5 1c-4 2-8 1-8-3s4-6 8-2c1 1 1 1 2-2l2-8c1-4 0-5-2-8l-2-6c1-3 0-3-2-3s-3-1-3-3c-1-3-2-3-4-3-4 0-8-2-8-3l4-5c4-4 5-5 6-4s2 1 2-1l-6-21-12-1c-11-1-12-1-12 1l-3 2-4 2c-3 2-3 2-5 1-3-3-9-4-11-2-2 1-2 6 0 10s7 8 12 10l7 3c2 2 4 3 9 3 7 0 9 0 8 3l-4 3c-3 1-4 2-5 4l-3 3c-2 0-4-3-5-6 0-2-1-2-9-3l-11-2h-11l-10 2c-5 0-5 1-5 8 0 5 0 6-2 6-1 1-2 0-2-3s-2-5-3-5l-2-4c-2-4-5-4-27-4-16 0-17 0-16 2 2 2 1 2-3 3-2 0-2 1-2 3l3 18 3 1c4 1 7 4 5 5-1 1-12 3-14 2l-2 1c0 1-4 2-6 0-3-2-3-4 2-11 3-5 4-6 4-11s-1-8-5-12l-3-3-30 2-5-6 7-5-2-4c-2-6-2-8 1-12 2-3 2-4 0-5-5-5-15-7-30-6l-12 2c-1 1-2 0-2-1-1-3-1-3-8-2l-11 2c-6 2-10 2-16 0-4-2-8-2-15-2l-43-3c-8-1-5-2 5-3h8l-5-1a637 637 0 0 0-11-3l10-1c15 0 17-1 18-5l1-4-19-1c-17-1-22-2-15-3l3-2c1-1-2-4-4-4l-2-2c-1-1-1-1 2-2l3-1-1-6-2-8c-3-2-3-2 1-2 8 0 14 3 12 7 0 2-1 2-3-1l-3-2 1 8 2 10c2 3 6 5 9 4s4-4 4-21c0-14 1-19 4-21s1-3-4-3-5 0-5 10c0 6-1 7-2 7-3 0-4-3-5-7 0-4-1-7-2-7v4c1 4 0 5-1 5-4 2-5 2-6-3-1-3-2-4-4-5l-3-4-4-3c-5-1-5-2-1-4l3-2-3-1c-4-1-5-2-3-4s2-2-2-3c-3 0-4 0-4-2s1-2 17-2c15-1 20-2 22-4l21-1 20 1v-3l-2-6c-1-3-2-4-1-6l2-6c1-4 1-4 3-4 3 0 7 2 7 4s1 2 3-1c2-1 3-4 3-6v-4l-8 1-2-7c-2-9-2-28 0-40 1-6 2-11 1-18l1-16 2-17 1-15c2-4 2-40 0-44-1-3-1-4 1-11s3-10 3-29l1-22-1-2c-2-2-2-3 0-7 2-6 4-7 5-2 2 4 2 35 0 55l-1 31v16l5-2-1 16-1 16h-3c-1 0-2-1-1-7 0-6 0-6-1-3l-3 14-2 15c-1 5-1 9 1 9 3 0 3 18 0 25-1 1 0 2 2 2l4-2h3l3-1c1-1 3 0 4 3 2 4 1 8-1 7l-3-1-2 7c-1 6-1 7-3 7-3 1-3 2 0 4 2 1 2 2 2 4-1 2 0 3 2 5 2 1 2 2 2 11l1 10c1 2 3 1 3-2s2-7 5-7c1 0 2 0 2 8s-1 8-4 12c-4 5-4 7-1 7s4-1 5-5l3-6 1-4c0-4 4-19 6-20 3-1 4 1 3 4l-1 31c2 0 2-3 3-14 1-9 2-11 5-7 2 3 2 3 4 2 3-3 5-1 5 3 1 3 0 4-3 7-4 4-4 6-2 7 3 1 9-4 14-11l2 1c2 1 2 5 0 9l-1 2 5 1h6l-1-4 1-6c2-3 4-1 3 5-1 5-1 6 1 6l6-2c3-2 6-2 11 0 2 1 3-1 5-9 2-5 1-5-2-4-3 2-4 1-5-8l-7-35c-4-14-5-26-7-47a531 531 0 0 1-6-140c-3 0-4-5-4-16 0-10 0-12 2-13 1-2 2-2 3 0v3c1 2 1 2 3-1l3-3 1 5v39a228 228 0 0 0 2 58l-1 8c-2 7-2 8 0 19l3 32c1 17 1 22 4 34l4 24c1 8 2 10 4 13l3 7c0 1 0 2 2 2 5 0 5-1 5-10l-1-14c-1-3 0-5 2-9 2-3 3-5 3-10l1-12c1-5 1-7 5-11 3-3 5-5 5-7l3-14v-10l1-13c1-4 2-7 1-19l-1-67c0-53 0-54-2-63-3-10-2-14 0-14l3 3c2 4 2 4 3 2 2-2 2-2 4 2l1 30a401 401 0 0 0 0 42l-2 31 1 31-1 19-2 17 3 6c3 5 3 14 2 16l-2 7c-2 6-3 7-5 6-2-2-2 0-3 8l-3 9c-1 1-2 3-1 6v5l5-11c3-9 5-12 6-12 2-1 2 0 1 5l-1 9c-1 2 0 2 2 2 3-1 4 0 4 2 0 3-2 5-6 5-3 0-4 0-5 2-2 3-2 3 0 4 1 1 2 3 2 7-1 5 1 6 2 2v-7c1-6 3-8 5-4l4 3c2 0 2 1 2 9l1 9 3-2c2-1 2-1 3 4v12c0 4 1 6 2 6l1-2 1-4c2-2 2-2 3 1v6l-1 5 3-2 4-4h1c3 0 3-3 1-6-2-2-3-3-2-6 0-3 3-4 3-1l4 5c6 3 8 7 5 11-1 1-2 2-3 1-2-1-3-1-4 1l-4 2c-2 0-2 2 1 4l6 4c5 2 8 1 8-4l1-5 1-7c1-6 3-8 5-4 1 4 1 8-1 11-2 4-5 13-5 17 0 1 0 2 2 1 2 0 2-1 2-6v-8c0-2 3-1 7 0 1 1 1 0 2-2 0-1 1-2 3-2 2-1 3 0 6 5l6 7 5 3c2 3 3 3 4 1 2-2 3-2 6 2l4 3 7-2 11-6 7-2 4-3c3-2 3-3 2-6-2-6-2-19 0-34 2-13 1-16-2-24-3-5-3-7 1-10 4-5 5-8 1-13-4-7-6-14-3-14 2 0 8 5 10 8l1 3v-4c1-3 0-5-3-7-2-2-3-5-3-9-2-9-3-12-6-14l-6-5c-3-4-4-12-3-13 2-1 5 2 7 6s4 6 3 3l-1-3c-1-2 3-2 4 0l2 8 4 13 3 7 4-1c3-2 3-2 2-7l-2-11c-2-5-2-6 0-21l3-18c2-1 3 3 3 13-1 21-1 21 4 18l3-1v-7c-1-6 2-22 3-24h3v9l-2 19c-1 13-3 20-7 19l-2 1 2 9 5-4c4-3 4-5 7-23 1-11 2-14 4-13 2 0 1 14-2 26l-1 11h2l4-9c0-4 4-4 4-1 1 3 1 2 4-3l1-6-3-1c-1-1 4-8 9-16l6-9c0-4 5-12 7-14 2-1 4 0 4 1l-3 6-3 6c0 3-3 9-7 14-3 4-4 5-3 9l-1 6-2 5c0 3 0 3 4 4 6 1 10 4 8 6h-4l-3-1-19 26-6 10-1 10c-1 11-2 15-4 14-2 0-2-1-2-4l1-15c0-10 0-11 2-11l5-4c3-3 3-3 1-4s-2-3-2-5-1-3-2-3l-1 3 1 3-5-1c-6 0-6-1-7 11l-1 8 4 1c3 2 3 2 2 7-1 6-4 10-7 9l-2-9c0-8-1-11-2-9l-2 3c-2 2-2 1-4 0l-2-1-4 13v3l6-7 1 4 1 10 1 6 2-3c2-4 5-4 12-1 4 1 5 2 5 4l-2 5c-1 1-2 1-3-1-2-2-6-2-6 1 0 1 0 2 1 1 3-1 4 2 3 7l-2 7c0 2-1 2-3 1l-5-2c-2-3-3-2-3 1l1 3c2 1 2 2 3 5s4 9 5 8l2-4c0-2 1-4 3-4 2-1 3-2 3-5 0-7 1-11 2-11 3 0 5 10 2 15l-1 6a169 169 0 0 0 21-7 648 648 0 0 0 21-7 427 427 0 0 0 42-10l27-6c21-5 41-7 70-6a215 215 0 0 1 59 6l10 1a372 372 0 0 1 48 12c9 0 66 24 106 45l14 7 53 1c81 2 93 3 93 4s-12 3-29 3c-9 0-12 0-11 1l20 2c23 1 25 0 25-4l2-3a1771 1771 0 0 0 96-3l-4 3c-4 1-3 2 17 1h20v5c0 4 0 5-3 7-2 1-3 2-7 1l-6-1c-1-1 2-2 6-2l5-2c2-2 2-2-4-3h-22c-15 0-18-1-18-2h-66l-3 1 3 1 17 1 19 2c4 2 6 2 17 1 18-2 40-1 37 2a632 632 0 0 1-78 0c-5 1-5 1-3 2s4 2 11 1l11 1c2 1 0 3-5 3-2 0-4 0-6 3s-3 3-7 2l-4-1 1 10c0 7 1 9 3 12 3 3 4 7 3 9-1 3-3 1-6-7-3-6-4-10-4-15l-1-7h-7v9a40 40 0 0 1-5 22l-1-2v-8c2-6 2-8 1-12-1-6-4-11-7-12-2-2-14-2-14 0 0 3-4 5-8 4h-3l-1 4c0 5 2 12 4 13s4-3 4-7c0-3 2-7 3-7 2 0 3 4 1 10l-3 12c-2 1-2 7-1 8l3-1c1-2 2-2 3-2 2 1 2 4-1 5l-2 2 8 4c5 1 8 0 9-3 1-4 4-5 14-6 9-1 10-1 12 1 3 2 3 3 2 5l-1 2 10 1 11 2v2a6367 6367 0 0 1-174 0l-16-1v14h6a238 238 0 0 0 38-3c8-1 10-1 10-3 1-3 4-1 5 3l4 4 2 2c0 2-1 2-32 2l-31 1-4 2c-5 3-6 3-9-1-2-3-2-3-2 0-1 2-4 4-6 3v-3c1-3 1-3-2-6l-10-6c-6-3-7-3-10-2s-4 2-6 7l-4 10-2 3 3 2 15 8 7-6c6-7 7-6 5 5-2 9-2 11 2 14s8 2 9-3l2-2c1 0 2 0 2 3 1 7 1 7 4 8 5 1 26 0 28-2l-1-4c-4-5-3-6 1-6l5-1h2c2 1 1 2-1 6-3 4-3 5-2 7 3 4 0 5-18 5h-16l-1 6a2782 2782 0 0 1-3 17c2 1 4 1 7-1l11-2c4 0 5 0 5 2l-1 4c-2 2-14 5-20 5l-5 1-4 19 5 1c7 1 10 3 10 4s-1 2-4 2l-5 1c0 3-2 5-6 5l-5 2-2 14c1 2 9 3 13 1h6c6 4 5 10-1 8l-3-1 1 4-1 5c-1 1-4-1-5-3-1-3-9-6-16-8-2 0-3-1-2-4 0-3 0-3-4-7-5-4-8-5-8-4l2 2c2 0 2 1 2 5 0 6 1 6 8 13l7 7-2 3c-2 4-2 5 0 5s3 0 10 10c4 5 4 6 10 6l6 2-1 7c-3 7-3 7 0 7l2 1c1 3 3 2 5-3l2-5 2 3 1 5c0 2 1 2 3-1 3-4 3-4 3-2l-1 6-2 9c-1 4-1 5-3 5-2 1-3-1-3-5l-2-2-1 3c0 5-2 3-7-5l-6-9-4-5-13-15-14-13-14-1c-14-2-19-3-31-8-3-1-8-3-17-3l-25-3-12-2h26l39 2c21 2 28 2 22-2l-9-1-13-1-6-2c1-2-3-3-10-3l-8-1-3-1 5-1 4-2c0-3 2-3 4-1 3 2 5 3 12 3h19l-2-5c-1-6-4-8-14-8l-8-1c-1-1 1-2 4-2l3-2c1-3 1-6-1-6l-3-2c-1-1-3-2-8-2-4 1-9 0-12-1h-11l-13 2h-5c6 1 8 2 7 3l-18 6 3 1 7 2c2 2 23 5 45 7l15 1-16 1c-15 0-17 0-16 1 0 3-6 4-17 2l-11-3 6-1 6-1-5-1-16-1c-10-1-14-1-16-3-3-1-7-2-35-3l-33-2c-1-1 25-2 44-1l26-1c6-1 8-2 4-2-5 0-8-2-8-5s2-5 5-5c2 0 3-1 1-1l-6-1c-4 0-5 0-3 1l1 2-21 1c-18 1-23 2-15 3l4 2h-10l-16-1c-6 0-8-2-3-3s1-2-13-3c-15 0-19-1-19-2s16-3 32-3c11 0 12 0 15 2s4 3 6 2l10-1 8-2c0-1 0 0 0 0l-4-2c-2-2-4-2-7-3h-7c-3-2 16-2 32 0l18 2 8 1h3l6 1c4 0 5 0 2 1l-9 1c-5 1-6 1-3 2l11 1h8l1-6 31 1-1-4c0-1-2-5-4-6-4-5-9-18-10-22v-3l-1 3c-1 4-3 3-4-2-1-3-1-4-3-4-1 0-8-7-10-12l-1-5c1-2 1-2-3-2-4 1-4 1-6-3-2-5-3-12-1-13l4-2c2 0 3-1 4-4 1-5 2-6 5-6s20-6 18-7l-14-5-21-7c-16-6-26-8-62-12-10-2-20-4-21-6l-2 3c-1 4-5 5-16 4l-13-2-5-3-3 4c-5 5-10 6-10 3l2-3c1-1 1-1-1-3-5-4-11-2-10 3v2l1-2c1-3 4-3 5-1l1 4c-1 2-2 3-4 2l-5 2-8 5c-6 2-7 3-9 2s-3-1-7 4c-6 6-6 6 4 7l6 2c1 1-13 1-17-1l-3-1-8 7c-6 6-7 8-7 10l-2 8-3 7c1 1 0 2-1 3-2 1-1 11 2 15 2 2 2 3 1 6v4c3 2 2 4-3 4-3 0-5-1-5-2v-2c1-1 1-2-2-4l-4-3v10c0 2 2 3 4 4 4 2 5 4 4 5l-8 2h-7v3c-1 3-1 4-4 4-2 1-5 3-5 5l6 1h5v3c0 6 0 7-7 7s-7-1-9-3c-1-2-2-2-9-2-8 0-11-2-11-6l-1-2c-1 0-1 5 1 8s7 7 10 7l8 2c7 3 12 3 14 1 2-1 20 0 22 1 1 1 0 2-3 2l-5 1c0 1-1 2-5 2-10 1-11 1-11 4 1 1 0 2-6 2h-7c0 1 4 5 7 6 2 1 1 1-5 2l-10 1-3 1 3 1c3 3 1 5-5 5l-7 1-3 3c-3 1-3 1-1 1 2 1 2 1 0 4-2 1-1 1 6 2l43 5h-47c-3 1-2 1 5 2l9 2c3 1-2 2-11 3-6 0-7 0-3 1l18 1 17 1c5 1 2 3-4 3h-13l-6 1 9 1 18 1c9 0 15 0 15 2l-35 1h-35l-2 3c-2 2-3 2-5 1h-2c-2 1 1 3 9 4l12 2h13c25-3 56-4 81-2 34 2 33 3-2 4-32 0-57 2-57 4 0 1 2 2 14 3l5 2c0 1-16 2-33 1a2386 2386 0 0 0-49-4l-2-1c-2 0-7 7-5 8a607 607 0 0 0 29 3h-28c-2 0-3 0-3 2 0 1 1 2 12 2l13 1-15 2c-5 0-8 1-9 2l-2 8c-2 6-2 7 0 12l3 7c1 2 3 2 3 0s1-2 5-2 5 0 12 5c2 2 4 2 27 4l-13 1-28 3c-4 1-4 2-1 8 2 3 4 4 6 4 9 1 8 2-4 5l-6 2 2 1c2 0 5 2 4 3l-6 1-5 1-1 5-1 13-1 8 7 1c14 2 6 4-14 4-14 0-18 0-18 3s1 3 11 4l10 1c3 1-5 2-12 3l-8 1-5 1-4-1c-7 0-8-3-4-4s5-6 4-9c-1-2-1-3 1-6 3-4 3-5-2-5-4-1-5 1-5 5l-1 4c-2 1-3-8-2-13l1-4 3 1c5 2 6 1 6-2 0-2 0-3-2-2h-9c-2-1-3 0-4 3l-1 4-4-2c-5-2-5-2-5 1 0 2 4 7 6 7 1 0 2 1 2 3 1 2 0 3-3 4-4 3-9 3-10 1s-2-2-1 1l2 2c4 1 6 5 6 8l1 7c1 4 1 5-3 6-1 0-3 1-3 3l-4 4-3 2 3 1h7c4 1 5 1 7 3s2 3 1 4c-2 1-6 1-10-2l-7-1-3 1 1 8c1 8 0 10-5 15l-3 3 6 1h9c4-1 6 1 2 4-1 1-3 2-7 2-8-1-8-1-11 2-2 2-2 6 0 4 3-3 5-1 4 4 0 4 0 4-3 4-4 0-4 0-6 7-2 9-4 22-4 41l-1 16c-2 0-2-1-1-7l-1-16a468 468 0 0 1-5-24l-3 19-2 17-4 4c-3 3-3 3-4 1-1-6 0-8 3-6 2 1 2 0 2-3v-5h-6c-1-1-2 1-3 8l1 10c2 5 2 13 0 15-2 1-9-2-9-3l-1-1-1 5c0 4 1 5 2 4 5-2 5-2 6 5 2 9 1 19-1 21s-2 1-3-9c0-11-1-15-4-11-2 3-2 5 0 6 3 1 3 3 0 6-2 3-3 4-3 9l-3 14-4 18c-2 9-2 9-5 10l-5 1-1-15c-1-13-1-13 1-15s3-4 3-10v-9l-1-3v3l-3 4-2 3-1 7c-1 3-2 9-2 21l-1 23-1 6 5-2c3-1 4-3 4-4l2-3c3-3 5 6 2 9-1 1-7 5-11 6-2 1-2 4 0 6s2 2 1 4c-2 2-2 5-3 15l-2 15-2 10v7c-2 1-4-2-4-7v7c-1 12-1 12-4 16-2 3-4 4-7 4-5 0-6 1-5 8 0 5 2 7 5 6 3 0 3 0 3-6-1-6-1-7 1-6l5 1c2 1 2 1 2 3s1 2 11 3c15 2 17 3 15 4l-12 1-13 1c-3 1-3 1-2 6l1 6 13 1 13 2c2 1-1 2-14 2-11 1-13 1-13 3 0 3-3 3-5 0-2-2-4-4-6-4-3-2-3-3 0-3s6-3 5-6c0-1-1-2-3-2-3-1-4 0-5 2 0 2-1 2-2 2-4-2-8-2-11 1-7 3-8 10-4 17 2 2 3 5 3 8 1 4 2 5 4 4 2 0 3-2 3-5l1-8c1-2 0-3-1-3-4-1-6-4-6-7 0-4 1-4 4-3 6 1 6 2 7 13 1 9 1 10 4 13s3 3 10 2c9-1 26 0 26 2a337 337 0 0 0-27 3c-5 1-5 1-6 4 0 4-3 4-5-1-2-4-3-4-6-4-5 0-6 2-7 8l-2 11c-1 5-1 6 1 10 2 2 2 5 2 8v5h4a633 633 0 0 1 39 3c0 1-4 2-21 2-20 0-21 0-19 1 2 3 1 4-2 4s-3 1 1 6c3 2 4 4 3 4l-4 3c-2 2-2 2-1 4 1 3 1 4-1 9-3 8-3 11-1 10l4 1c1 2 1 2-1 3l-3 2c-2 0-2 2 1 5v8c-2 9-8 13-15 11zm15-71-3-1-2 1 3 1 2-1zm-13-14-1-2-1 2 1 2 1-2zm15-79v-2c-1-1-2 1-2 3-1 1 1 1 2-1zm3-10a336 336 0 0 0-2-44c-2 3-4 31-3 39 1 6 1 8 3 8 0 0 2-1 2-3zm18-22c0-8-1-10-2-10-2-1-3 0-3 8-1 7-1 7 2 9l2 3 1-10zm-46-13c-1-2-2-1-3 4l-1 3 3-3c2-2 3-3 1-4zm37-1v-11l-2 11c0 3 1 3 2 0zm9-2c1-2-1-30-2-34-1-2-1 0-2 9-1 11 0 24 1 26 1 1 3 1 3-1zm-48-13c-1-2-4 1-4 4v3l2-3c3-2 3-3 2-4zm30-11c1-8-1-30-2-31v19c0 21 1 27 2 12zm-4-50c3-3 3-3 3-15 0-10 0-13-2-16l-2-4-1 5-1 37v15l1-19 2-3zm-20 17-1-1-1 1 1 1 1-1zm45-11c1-5 3-8 4-9v-3l-2-7v-3l-1 4c-2 2-2 5-2 9l-2 11-1 6 4-8zm2-28-1-4-1 4 1 4 1-4zm7-22c1-5-1-7-2-4-3 6-3 7-1 10l2 3 1-3v-6zm-43 4v2-2zm31-1h-1l1 2v-2zm-46-26c1-16 0-20-1-24l-2-10c-1-6-3-5-3 1l2 10c2 4 2 9 2 27 0 16 0 21 1 19l1-23zm20 17c-2-3-4-4-3-2l2 6c2 4 2 4 2 2l-1-6zm14-8-3-5 1 4 3 9 2 4v-4c1-3 0-5-3-8zm17-5v-7c-2-3-5 5-4 13v7l1-4 3-9zm7-9v-5l-2 9 2-4zm-34-8c-1-8-2-16-4-16-1 0-2 10-1 11l2 4c1 8 2 10 3 9v-8zm70 7-2-5-2-3v7c1 2 4 2 4 1zm-53-14v-6c-2 4-2 15 0 15v-9zm32-4c0-3-1-4-2-3l1 7 1-4zm-56-23a1136 1136 0 0 1 1-33c-2 0-2 1-3 7l-1 51 3-25zm62 13 3-7c2-2 2-4 2-5l-6-6v12c0 8 0 11 1 10v-4zm-91-12c4-15 5-22 3-22-2-1-5 4-6 12-2 8-3 27-2 26l5-16zm65 13 2-13 4-14c2-4 2-11 1-11-2 0-4 8-7 22a559 559 0 0 1-2 17l2-1zm40-2v2-2zm-99-14c1-3-1-3-2 1v5c1 1 2-1 2-6zm16 5-7-1c-6 0-6 0-3 1l7 2c3 0 4-1 3-2zm97-8v-7c-2-2-3 1-3 8 0 8 1 8 3-1zm-68-12-1-7c-1 0-3 11-2 13 1 3 3 0 3-6zm60 4c0-3-2-5-2-2l2 6v-4zm-112-16v-3c-2 2-3 7-3 8 1 3 3 0 3-5zm137-9c-1-3-2-3-3-2-1 2-1 6 1 9l2 2v-9zm-17 1-1-9c0-5 0-5-1 1v10c2 4 3 3 2-2zm8-5v-4c-2 0-2 5-2 8 1 4 2 1 2-4zm-113 0v3-3zm-11-8v-8c-1-4-1-4-3 3-2 8-2 11 1 10 2 0 2-1 2-5zm89-1v5-5zm51-5-2-5-3-3-2 5-2 5h5c3 0 4-1 4-2zm-75-5v4-4zm66-8v-4c-1-3-3 4-3 9v3l1-3 2-5zm-18-3v4-4zm28 0c-1-2-4-2-4-1l2 2c1 2 3 0 2-1zm-182-3v3-3zm105 1-4-5 1 4c1 3 3 4 3 1zm-31-5v-2c-2 0-3 5-2 7 1 1 2-1 2-5zm-65-2c1-3 0-3-1-3-1 1-3 0-4-2l-3-3 1 4c1 7 7 10 7 4zm141-2-1-1v4l1-3zm-20-2v2-2zm-140 0c2-1 2-6 1-6l-3-1c-1-1-1 0-1 3 0 5 1 7 3 4zm34-7v6-6zm49 1v-1l-1 1v1l1-1zm110-11v-2l-1 4c0 3 0 4 1 2v-4zm-165-5v6-6zm-33 3v2-2zm41 0-1-2-1 2 1 2 1-2zm-33 0-1-1-1 1 1 1 1-1zm6-1-1-1-1 1 1 1 1-1zm-1-5v-2c-1-2-1-2-1 0l1 3v-1zm153-5-2-2c-2-1-2 0-2 2v4c1 2 1 2 3-1l1-3zm-189 2c1-2-1-3-3-2-1 1 0 3 2 3l1-1zm132-2v-1l-1 1v1l1-1zm160-5v-4h-22v2c0 3 0 3 9 3s10 0 10 2c1 3 3 1 3-3zm-298-3v-4l-1 5c0 6 0 6 1-1zm187-5-1-2 1 7c1 4 1 5 1 2l-1-7zm35 7c0-2-4-5-5-5v3c0 2 0 3 2 3l3-1zm-216-5h-1l-1 2h1l1-2zm207-2c0-5-1-8-2-5s0 10 2 10v-5zm-150 2-1-1-1 1 1 1 1-1zm236-7c0-5-2-7-3-4s-2-3-2-12c0-10-1-11-3-10-3 0-4 3-2 5v9c-2 7-3 9-4 5 0-2-1-3-2-3l-2 10c0 4 0 4 12 4l6 1zm-98-2c-1-1-1 0-1 3l1 2v-5zm-158-4-1-4v10l1-6zm-15 6-1-1-1 1 1 1 1-1zm34-1-1-1-1 1 1 1 1-1zm112-2v-2l-1 2 1 3v-3zm-193-3h-1l-2 2c0 2 1 2 2 1l1-3zm91 1v2-2zm57 0-1-2-1 3 1 2 1-3zm62-3c0-1-8-4-9-3l-1 3c-1 3 0 3 2 4 1 1 3 1 5-1l3-3zm-178 0c1-1-1-3-3-2v2c1 2 2 2 3 0zm233-1c1-2 1-2 5-2 3 1 4 0 5-2 2-3 3-7 1-9-1-2-2-2-3 0-3 7-9 7-9 0l-3-5-5-9-1-6-5 10 3 1c3 0 6 8 6 14 0 9 3 13 6 8zm-95-2-1-1-1 3 1 1 1-3zm68 2-2-4v5c1 1 2 1 2-1zm58-3 4-3v-6c0-6 0-7-1-4-3 7-5 9-6 5l-3-5-2-3-1 3c0 2 0 3-2 5-3 2-3 2 0 8 1 4 2 5 4 4l7-4zm-67 2-1-1-1 1 1 1 1-1zm17-2-1-2-1 1 1 2 1-1zm-129-2-1-4c-2-4-3-4-4 1l1 3h4zm135-5-1-3v3c-1 3 2 7 2 4l-1-4zm-59 0c0-4 0-5-1-2v7l1-5zm37 3-2-6c0-4-1-4-2-3l-2 4c-1 2 0 3 3 5 4 2 4 2 3 0zm-195-2h-1l-1 2h1l1-2zm104 2c2-2 2-3 0-3s-6 2-5 3h5zm187 0-1-1-1 1 1 1 1-1zm-301-8 1-8c1-4-1-3-3 3l-1 8c1 5 2 4 3-3zm140 6-1-1-1 1 1 1 1-1zm-100-7c1-5 1-15-1-17 0-2-1-2-2-2-2 1-3-2-3-10-1-6-1-6 1-7s2-2 2-4c0-6 4-7 5-2 2 4 1 9-2 11-2 1-2 3 1 6l2 6 3 4c1 1 1-1 1-11 0-12 0-12 2-12 3-1 3 0 0-5-2-4-2-6 0-6s3 2 3 4 2 3 5 1c2-2 3-1 5 3 1 2 2 2 4 0 2-1 2-1 0-5-3-5-4-6-5-4h-5l-9-3c-5-1-8-4-7-8 2-7 1-10-4-12-2 0-3 0-3 2l2 4c2 1 2 5 0 9l-2 11-1 11-2 15-1 11 6-7 1 3 1 10-2 9c0 3 4-1 5-5zm152 6-2-1c-1 0-2-1-2-3l-1-4-1 1-1 3c-2 1-1 1 2 3l5 1zm-15-2-1-1-1 1 1 1 1-1zm-46-2c0-1-3-2-3 0l2 2 1-2zm-46-4c1-2 0-3-2-6-1-2-3-3-5-3l-3-4-13-18c-3-2-6-2-6 0s-1 3-3 2h-2l3 4c1 1 2 2 1 5l-2 4c-2 1-2 1 0 4 2 4 6 5 8 4 2-2 2-5-1-8-1-2-2-4-1-6 0-5 3-5 3-1 1 2 1 3 3 3l3 3 2 3c3 0 4 3 4 9s2 7 7 8c2 0 3-1 4-3zm21 1c1-3 0-6-3-6-1 0-2 0-2 3l1 4c1 1 4 1 4-1zm34-3v-5c-1-1-3 7-3 8 1 3 2 2 3-3zm-114 2-1-1-1 1 1 1 1-1zm139-4-3-6c0-3-1-3-2 0-2 4-4 3-4-3l-2-5c-1 0-2 1-2 3v6c-1 3 6 8 11 8h4zm51-4c-1-5-2-6-9-7s-8 0-6 5l2 3 3-2 5-1c2 0 4 4 5 7v1-6zm60 0-1-1c-2 0-2 3-1 4s3-1 2-3zm13 2c1-3 0-4-2-4l-1 3c0 3 2 4 3 1zM63 689c0-5-1-5-2-4s-2 0-2-1l-1-1c-1 0-6 8-6 11 0 2 3 2 4 0 2-3 3-3 4 0l3 5 1 3v-4l-1-9zm189 11v-1l-1 1v1l1-1zm87-8c-1-6-1-7-2-6s-2 11-1 13 1 2 2 0l1-7zm-266 4c0-4-2-4-3-1s0 5 2 4l1-3zm114 2-1-1-1 1 1 1 1-1zm-20-7-1-7c-1 1-1 14 1 14v-7zm53 0c1-5-1-8-3-4l-4 2c-2-1-3 0-3 2s1 3 2 2c2-2 4 0 5 3 1 2 2 1 3-5zm-117-3c0-6 0-6-1-3-2 3-2 12-1 10l2-7zm216 6c3-3 3-4 1-4l-5-2-2-3 1 5 1 5c1 1 2 0 4-1zm81 1-1-1-2 1 2 1 1-1zm-129-2s-1-3-4-5c-4-5-4-5-2-11 1-2 0-3-2-4l-6-5c-5-5-7-4-4 3 1 3 2 3 5 3h4v5c1 5 0 6-2 7l-2 2 3 3c2 3 3 4 6 3l4-1zm-91-3c-1-1-2 0-2 1 0 2 2 3 2 2v-3zm18 2 3 1-2-7c-3-6-3-6-3-4 0 1-1 4-3 5s-2 4-2 5c0 2 1 2 2 0h5zm167-11v-12l-1 5a1325 1325 0 0 1-5 19l4 1h3zm-12 10-1-2-1 2 1 2 1-2zm-147-1-1-1-1 1 1 2 1-2zm-123-4c0-2-1-3-3-3-1-1-2-1-1-5l1-7c1-4-3-1-5 4-2 3 0 7 4 13 2 3 4 3 4-2zm10 2c1-1-4-4-5-3v2c1 2 4 2 5 1zm153 0-1-2c-1-1-4 0-3 2h4zm-68-11c-1 0-2 0-2 2-2 4-2 5 0 6 2 0 2-1 2-3v-5zm126 6c2-2 2-9 1-9l-1 2-2 5c-2 4-1 4 2 2zm-144-1-1-1-1 1 1 2 1-2zm25 0-1-1-1 1 1 2 1-2zm20-3-1-7c-1-4-1-4-2-2-1 3 1 12 3 12v-3zm52 1c-1-3-2-4-3-2-1 1 0 4 2 4l1-2zm58-1v-2l-2 4 2-2zm-123-6-1-3c-1 0-2 7-1 9s1 2 2 0v-6zm136 1v-5c-1-3-1-3-2-1v11c1 2 1 2 2 0v-5zm-240 3-1-1c-1 1 0 4 2 4l-1-3zm193 1c1-1 1-2-1-1l-2 1c-1 2 1 2 3 0zm-111-3v3-3zm105 3-1-1-1 1 1 1 1-1zm-50-2-1-1c-2 0-3 1-2 2s3 1 3-1zm-154-3 2-7c0-4-3-10-5-9v20l3-4zm14 3-1-1-1 1v1l2-1zm67-8-1-3v3l1 6 1 3v-3l-1-6zm31 1-2-4v8c2 1 3-1 2-4zm132 2-1-1-1 1 1 1 1-1zm-77-5c0-4 0-4-1-1l-2 4c-1 2 0 2 1 1 2 0 2-1 2-4zm-131 3-1-1-1 1 1 1 1-1zm191-2v-3c-2-2-3 0-2 3 1 2 3 2 2 0zm-98-6c0-3-1-3-2-3-3 0-3 4 0 7l2 1v-5zm-103 4c4 1 4 0 6-9 1-3 1-4 4-3s3 1 1-2c-2-1-2-4-2-10l-1-8-2 7c-2 5-2 6-4 6-2 1-3 0-4-4-2-6-3-7-4-4-2 4-2 6 1 7l3 3c0 2 1 3 3 3 2 1 3 1 3 4 0 6-1 6-9-1l-8-9-2-1-5-3-2-1-1 4c-1 3 0 3 1 4 2 0 3 1 3 4 0 4 0 4 3 5 5 1 8 3 8 7 0 2 0 3 2 2l6-1zm172 1-1-1-1 1 1 1 1-1zm105-8v-6c-2 0-2 2-2 9 0 8 1 6 2-3zm-153 2-6-3c-4-1-5-2-6-5-1-4-2-4-2 2 0 4 0 5 7 6 2 0 3 1 3 3 1 2 1 2 2 0l2-3zm11 2h-1l-1 2h1l1-2zm-44-4 1-3c-1 0-2 0-3 2-4 4-2 5 2 1zm118 1-1-1-1 1 1 2 1-2zm-26-2c0-2-4-7-5-7-2 0-5 2-5 4h3c4 0 4 0 4 3 1 3 3 4 3 0zm-116-1v2-2zm98 0c0-6-5-18-7-16l1 9c1 10 1 10 4 10 2 0 2-1 2-3zm27-1c0-3-3-3-3 0l1 3c1 1 3-1 2-3zm57-3c2-5 2-6 0-18l-3-11-2 9c-2 6-2 8-1 16 2 13 3 14 6 4zm-169-6c0-9-2-13-3-8-1 3 0 13 1 17 1 5 3-1 2-9zm-19 7-1-3-1 3 1 3 1-3zm159-2 1-7c0-3-1-4-3-3v3c2 2 2 2 1 5-2 4-2 6-1 6l2-4zm43 0c0-2 0-3-1-1v5l1-4zm-166-4 1-4-2 4c-2 4-2 7 0 6l1-6zm50-2c0-2 0-5-2-7l-2-4v4l1 10 1 6 1-3 1-6zm-18-1c1-3 0-3-2-3s-4-2-5-4c-2-2-4-2-5-2-2 1-2 3 1 4 1 1 4 3 5 6 4 5 5 5 6-1zm-158 1v-9c-1-9-1-9-3-9s-2 1-3 3c-1 7-1 13 1 15 2 3 3 3 5 0zm87-2-1-7v-4c-2 0-2 14-1 15 2 1 3-1 2-4zm-8 2-1-1-1 1 1 1 1-1zm21-3-1 1-2 2h2l1-3zm128 2-3-4c-3-3-3-2-1 3 2 3 4 4 4 1zm34 0c1-3 1-5-1-6-1-1-2-3-2-7l-1-5v15c1 5 3 6 4 3zm118-1v-1l-2 1 1 1 1-1zm-21-1h-3 3zm-300-3c0-3-1-6-2-5v7c2 1 2 1 2-2zm287 2-3-1-3 1 3 1 3-1zm-132-3v-13c-2-1-2 0-3 8-1 5-1 7 1 7l2-2zm-136-2-1-2-1 3 1 2 1-3zm22 0v2-2zm63 1-1-1-3 1c0 2 4 2 4 0zm-41-2c-1-1-2-2-5-2-5 0-4 3 1 4h4v-2zm20-1c1-2 1-2-1-5l-3-2c-2 0-4 3-4 7 0 3 1 3 3 2l5-2zm-49 1 1-8 2-9c1-3 1-3-1-1-2 1-2 1-4-1-3-3-4-1-2 4l3 13c-2 1-2 3-1 3l2-1zm38 0-1-2h-2c0 2 1 3 2 3l1-1zm-125-3v2-2zm178-3c0-2 0-2-3-3-7-3-7-1-2 5 4 4 5 3 5-2zm137 0-2-1c-2 0-3 3-2 5 0 2 1 1 3-1l1-3zm-164 4c0-2-6-7-7-7l2 4 5 3zm39-1-3-3c-2-2-2 0 0 3 2 2 4 2 3 0zm-141-4-2-1v3h2v-2zm179 2-2-3-3-3v3c0 3 1 4 2 4l3-1zm33-2-1-1v2l2 1-1-2zm-64-1c1-3 0-6-3-6-1 0-2 0-2 2 0 7 3 9 5 4zm96-3v4-4zm-223 2 5-4c2 0 2 0 2-3-1-4-2-7-2-3l-1 4c-2 2-5-2-5-8-1-7-2-6-4 2-1 6-1 7-3 4l-4-5-3-3-2-1c-2 0-3 0-3 4s1 4 2 2c3-2 4 0 4 4 0 3 1 3 3 2l4 1 1 4c0 4 4 3 6 0zm176 1c1-1 0-2-2-1l-1 2c1 1 2 1 3-1zm-222-3c2-3 4-13 3-13s-2 2-2 5c-1 3-1 5-3 6l-2 3c0 1 2 1 4-1zm21-7 1-13c1-5 1-5-2-6-4-1-5 0-3 3 3 3 3 6 1 14-2 5-2 5-1 8l2 2 2-8zm59 4c0-3-1-3-5-4h-5v4l1 3 2-2c2-3 4-3 5 0s2 3 2-1zm-52 1-1-1-1 2 1 1 1-2zm103-4c-2-7-8-11-8-5l3 3c2 1 2 2 2 4 0 3 2 4 3 3v-5zm60-1-4-3 4 6v-3zm139 3c1-2-15-3-21-2-3 1-3 1-2 2h23zm-167-2c1-3 0-5-2-4v6l2-2zm97-7c-1-1-2 1-1 5l1 4v-9zm-152 4 1-7v-3l-2 4c-2 4-2 9-1 9l2-3zm99-2h6l2-7c3-12 3-13 1-19-3-7-2-10 3-10 3 0 3 0 7 8 2 6 4 7 4 3 1-3-4-12-6-15-3-3-38-5-45-3-4 1-1 18 4 24l4 6 4 3c3 0 4 1 6 7 1 6 1 7 3 5 1-1 3-2 7-2zm71 0v3-3zm32 0-2-1-2 1 1 1 3-1zm-324-2c1-3-1-10-3-9-1 0-2 5-1 8 2 3 2 3 4 1zm29 0-1-1-1 1 1 1 1-1zm133 0-2-1-1 1 1 1 2-1zm-83-10-2-2v2l3 6v4-4l-1-6zm122 9-2-4-2-2v6h4zm46-1c0-1-2-3-4-3v4c1 1 4 1 4-1zm-115 0-1-1-1 1 1 1 1-1zm-108-12v-7l-1 4c0 3-2 9-4 9l-1-4c-1-6-1-6-1 0l1 6 3 2c1 4 2 0 3-10zm276 2-1-2c-1 3 2 8 2 7l-1-5zm-24-6c-2-10-2-10 1-15l2-6c-1-2-3-1-5 3-2 3-2 4 0 16 0 9 1 12 2 12v-10zm-132 6-1-1c-1 1 0 3 2 3l-1-2zm-82-2c1-1-2-4-5-5l-4-2-6-3c-3-1-4-2-3-4 0-3 0-3-2-4s-2-1-3 5l-1 9-1 2 2-2c2-2 3-3 4-2l3 2c2 0 3 0 3 2 1 3 1 3 7 3l6-1zm63 0-1-1-1 1 1 2c1 0 2-1 1-2zm-19-3v3-3zm-7 1v-2l-2-3-2 3-2 3 6-1zm22 1-1-1-1 1 1 1 1-1zm536-3c1-1 0-1-2-1s-3 0-1 1c1 2 3 2 3 0zm10 1-3-1h-3l3 1h3zm8 0-3-1-1 1 3 1 1-1zm-692-1-1-1-1 1 1 1 1-1zm282-1c2-2 2-3 0-5-2-3-4-3-4 1-1 5 1 7 4 4zm35-3c0-4-2-8-4-7-1 1-1 7 1 10 1 2 3 1 3-3zm-267-1 1-6c0-4-1-5-5-6-2-2-5-2-6-2s-3-2-4-5c-4-5-6-5-6 0-1 4 0 5 2 6l3 4c0 3 1 4 2 2l3 1 3 2c2 0 5 3 5 5s1 2 2-1zm66-3h-1l-1 2h1l1-2zm-27 1c0-2-4-5-5-4s1 5 3 5l2-1zm629-13 2-9-3-3-3-2c-1 0-7 9-8 13 0 2 0 3 4 7 2 3 4 4 5 4l3-10zm-643 5c-2-6-6-7-6-3l-2 3c-1 1 5 3 10 3l-2-3zm289-1c2-3 2-5 0-5-3 0-6 4-5 6 1 1 4 1 5-1zm334-3c3-5 2-6-2-6-2 0-2-1-2-3 0-3-1-3-3-3l-4-2c-1-1-1 0-1 3s0 4 3 5 4 2 4 5c0 7 2 7 5 1zm-417 2-2-1c-2 0-2 1-1 2s3 0 3-1zm97-8-6-2-9-3-5-1v3c0 2 0 2 3 3h17zm330-11c4-8 3-9-4-9-4 0-5 1-4 6 2 10 4 11 8 3zm-114 3v-1l-1 1v1l1-1zm67-3-2-3-3-1c-3 2-3 2 0 4h5zm29-2c-1-2-3-2-4 0-1 1 1 3 3 2l1-2zm34-6c4-8 4-12 2-13-3-3-5-1-9 11l-2 6 3 2 2 2 4-8zm-43 3-1-1-1 1v1l2-1zm9-1-2-4c-3-3-3-4-3-6 1-2 0-4-2-6-2-3-3-2-3 4 1 5 2 6 5 9s6 4 5 3zm-15-4-1-1-1 1 1 1 1-1zm21-6c1-3-1-6-2-2-2 2-1 7 0 6l2-4zm18 2c0-2-2-3-4-4l-4-1 6 7 2-2zm-340-5v2-2zm288-2 6-6c4-2 5-2 6-1h4c2-3 3-6 1-8-1-1-2-2-1-3 2-2 4-1 4 2 0 1 0 2 2 2l5 2 2 2 3-3c1-2 4-4 6-4 3-1 5-1 10 1 8 3 8 3 8 1s-7-6-11-6c-2 0-3-1-2-3 0-2 3-5 5-7l4-5-2-4c-3-3-9-7-14-9l-7-4c-3-2-7-6-11-7a368 368 0 0 1-17-7l-4 7v-5c0-5 0-5-3-7l-5-1c-1 0-4 3-4 5l-3 4-2 3 2 3c2 4 2 5-1 4-3 0-4 0-6 2l-2 3 2 3c2 3 2 3 9 2l8 1c2 3-3 6-7 5-2 0-3 0-3 2l-2 12 6-3 7-6c1-3 2-3 4-2s2 1-1 5l-6 6c-6 3-6 5 0 10 4 4 4 5 5 10l3 7 2-3zm2-8-2-5-3-2c-6 0-7-4-2-5 5-2 7-2 8 2l2 4 3-4c4-4 5-3 3 2l-1 5-3 3h-5zm20-10 3-4 4-6 2-3c1-1 2 0 4 2 3 3 3 3 2 5l-3 2-6 3c-4 3-6 3-6 1zm-5-5c-1-1 0-3 1-3s2 0 2 2-2 2-3 1zm3-11c-3-2-4-4-3-4 2-2 8-1 9 1 1 1 0 7-1 7l-5-4zm18 0 1-1 2 1-2 1-1-1zm-37-2c-1-1 0-2 2-1l1 2c-1 1-2 1-3-1zm13-4c-1-1-1-2 1-2l2 1c0 1-2 2-3 1zm20 0c-1-1 2-4 3-3l1 2c0 2-3 2-4 1zm-40-8c-1-1 3-5 4-4 2 1 2 2 0 4s-3 2-4 0zm-9-1 1-1 2 1-1 1-2-1zm3-17c0-3 1-5 3-4s2 5-1 5c-2 1-2 0-2-1zm64 61c0-3-1-3-3-3l-5 1c-1 2 0 2 4 6s4 4 4 2v-6zm-347 4c-2-1-3 0-2 2h2v-2zm-6-3c2-2 2-3 1-4-1 0-2 0-3 2-1 3-2 3-4-1-2-2-2-3-2-1-1 2 2 6 4 6l4-2zm336-1c-1-2-1-2-1 0l1 2c2 1 2 0 0-2zm32-6c-1-1-2 0-2 2s0 2 1 1l1-3zm-28-1-1-1-1 2c0 2 0 1 1 1l1-2zm-314-11v1l-1 3 1-4zm343 4-2-1c-2 0-2 0 0 1h2zm-367-4c1-3-1-5-2-2 0 1-2 0-4-3v3l2 5c2 1 4 0 4-3zm357 2c1-2-2-4-4-3-2 0-2 0 0 2s3 2 4 1zm7-2-1-1-1 1 1 1 1-1zm-2-5-2-1h-2c0 1 0 2 2 2l2-1zm-367-5c1-1 0-1-2-1s-3 1-2 2 2 1 4-1zm-14-1c0-2-2-2-2 0-1 1 0 2 1 1l1-1zm293 0c1-1-2-7-3-8-3-1-3 1-1 5 2 5 3 6 4 3zm-269-5c-2-1-3 0-1 3 1 3 1 3 1 1v-4zm31 3c1-1 0-2-1-1l-1 2c-1 1 0 2 1 1l1-2zm-23-7v3-3zm-97-1h-1l-1 2h1l1-2zm-73-1c7-4 9-7 9-15 0-6-1-7-4-11l-3-3h-10c-10 0-11 0-17 3l-12 5c-4 1-5 2-6 4l-3 6c-5 3-3 4 2 2l5-1 2 4c2 5 4 6 5 2s2-4 4-2c3 3 6 5 10 5l7 1c4 3 7 3 11 0zm3-14v-2c2-1 4 0 4 2s-3 2-4 0zm-82 13 8-2c4-2 8-2 11 1 1 1 3 2 4 1l3-7c2-6 2-7 1-8l-1-6c-1-5-2-7-4-6h-4c-2-2-5-2-12-3-8-1-9 0-11 2l-2 2-2-2c-2-2-2-2-4-1l-1 3-3 3-3 1 1 2v4c-1 1 0 12 1 13 4 3 8 4 10 4l8-1zm496-3c3 0 6-1 6-3s-2-2-7 0c-5 1-6 3-5 5s1 2 2 0l4-2zm-290-3v-1c-2 3-2 6 0 6v-5zm11 4-1-1-1 1 1 1 1-1zm23-4v3-3zm17 1c2-2-1-4-4-3-3 0-4 0-6-2-1-2-1-2-1 0l2 4c1 2 3 3 5 2l4-1zm24-1-1-1-2 1c-2 1-1 2 0 2 2 0 3-1 3-2zm-113-1 7-5 5-4-2-6-2-8-3-4-3-4c0-2 0-2-5 0-2 1-3 2-4 5s-1 3-5 3c-3 0-3 0-4 3-1 5 1 8 7 15l6 6c1 1 2 0 3-1zm66-1v2-2zm275-4c1-2 0-3-5-4h-6c-2 1-1 2 3 4 5 3 6 3 8 0zm-246-3-3-3c-2-3-2-3-2-1l1 3c1 2 4 2 4 1zm250-4c0-2-2-2-3-1-1 2-1 2 1 2l2-1zm-239-1-2-1c-2 0-2 1-1 2s3 0 3-1zm287-2 4-5 4-7c1-1 2-3 1-6 0-3 0-3-6-5l-7-2-12 15c-2 5-2 6 4 8l7 4c3 1 3 1 5-2zm-313 1-1-1-1 1 1 1 1-1zm-55-3 9-6 5-4c2 0 2-1-1-14l-3-12-5 3c-2 3-6 5-8 6-3 1-6 2-7 4-3 2-3 2-3 9 1 8 2 13 5 15 2 1 4 1 8-1zm74 0c0-2-3-3-4-2s0 3 2 3l2-1zm-35-5-1-1-1 1 1 1 1-1zm373 0-1-1-1 1 1 1 1-1zm-365-4c-2-1-3 0-2 2 0 1 1 2 2 1v-3zm311-16 1-3-7-4-13-5-4-2-5 3-6 2v-9l-5-2c-7-2-8-3-8-6 1-1 0-2-2-3s-3-1-2 1c0 4-1 6-3 9l-6 8-4 7c-2 2-2 2 1 4 3 3 12 7 17 7l4 1 4-7c5-11 9-9 5 3-2 6-1 8 5 10 5 1 8 0 10-4l3-3c2 0 2 1 2 5l-1 4 7-6c4-4 7-8 7-10zm60 11c1-7 3-10 4-11l1-2-9-1c-9 0-22-3-24-5l-3-3c0-2-1-2-2-2s-1 9 1 11c1 2 8 6 15 9l5 2 2-3c2-4 8-8 9-6l-1 3c-4 4-5 6-3 10s3 3 5-2zm-347 0c4-3 3-6-1-3-2 2-3 2-5 0-3-2-4-2-2 1 1 3 2 6 4 6l4-4zm20 2c1-2 1-4-1-7-1-3-1-3-2-1v9c1 1 2 1 3-1zm308 0-2-1v1l2 1v-1zm-731-1h-7 7zm281-4c3-5 0-6-9-6l-8 1h-5c-2-2-3-2-17-2h-16l1 3c0 4 0 4 4 4h14c1-2 5-2 6 0 2 2 4 2 18 2 11 1 11 1 12-2zm90 0c7-6 11-9 10-11l-1-7c-1-10-8-12-16-6l-9 4-6 2c-1 2 0 11 2 13 1 2 1 2 3-1 1-1 2-2 3-1l2 4c0 1 1 3 4 4 4 2 4 2 8-1zm71-2c0-3-1-5-3-5v6c1 3 3 2 3-1zm-390 1c8-1 9-1 9-3-1-4-2-5-13-5-8-1-12 0-13 1-4 3 0 9 6 8l11-1zm165 0 2-4c1-2 0-2-4-3h-35l-9 1 1 3v3h20l20 1c1 1 3 1 5-1zm-187-2-1-5c-1-2-12-3-21-2-3 1-3 1-3 3 0 5 1 5 10 6h12c3 1 4 0 3-2zm132 1 2-3c0-2-1-2-6-3l-18-1c-13 0-15 1-14 5l15 2 16 1c1 1 4 1 5-1zm272 1-1-1-1 1 1 1 1-1zm-344-2 3-3c0-2-7-3-18-2-8 0-8 0-8 3 0 2 1 2 3 3 5 1 17 1 20-1zm27 0 2-4v-4l-6 1c-13 2-13 2-14 4-1 4 1 5 9 4l9-1zm697 0c4-2 3-3-3-3s-9 1-5 2l5 1h3zm107-3 2-3-3 1-9 1-6 1c0 3 2 4 8 4 5 0 6-1 8-4zm-491-2-1-2-1 4 1 2 1-4zm363 2 3-4c3-2 6-15 6-22 0-4 0-6-2-9s-3-3-7-3c-5-1-6-1-6-3s0-2-8-2h-8l-1 3-6 6c-3 2-4 3-4 6-1 2 0 4 1 6 4 3 6 2 8-3l3-5 5 3 5 4v-7c-1-7 0-8 4-4 2 1 2 2 1 5l2 8c3 8 3 16 1 20l-2 2-5-5 2-3v-6c-1-3-9-8-10-7l-2 6-3 5-4-2-2-4-2 3c-1 2-1 3 1 8l4 6h13c10 0 12 0 13-2zm-18-2c-1-2 0-3 3-2 4 0 5 3 1 3l-4-1zm20-16c-2-1-2-4 0-6 3-2 4-1 4 3-1 3-3 5-4 3zm50 18 3-4-2-4-3-1c1 3-1 7-2 6-3-2-2-12 0-14 2-1 5 0 7 6 3 5 3 5 4 2v-23c0-5-1-7-3-10s-3-3-8-3l-8 2-8 4c-3 1-5 3-5 4-1 4 0 10 2 14 2 3 2 5 2 9l-1 5 3-1 5 1c2 1 2 6 0 7-3 1-1 3 4 3s7-1 10-3zm-14-18-2-2-3-4c-3-2-3-2-2-4 2-2 6-4 7-3 2 1 3 15 2 15l-2-2zm11-4-1-8c-1-7-1-7 1-7 3 0 3 2 3 8 0 7-1 10-3 7zm30 24c1-1-2-1-7-2-9-1-12 0-12 2h19zm-581-3h-2l1 2h1v-2zm422 0c-1-2-2-5-2-11v-8l-8-4c-8-3-11-5-10-7h4c3 1 4 0 5-2 3-3 4-12 2-22l-1-8-4-1-9-1h-5c-2 2-1 4 1 4s2 0 1 11c-1 7 0 8 1 8s2 0 1 3c-1 5-2 6-9 5-3 0-7-1-10-3-2-1-7-3-11-3-11-2-24-8-24-12l-2-5c-2-3-3-5-3-8l-1-8c-2-5-2-5 0-8l1-4c0-2-2-2-3 0l-3 19c-1 5-1 6-4 6s-6 1-5 2l5 3 4 2c1 3-10 1-20-2-5-2-11-3-19-3-7 0-12-1-13-2-2-1-6-2-15-2-13 0-16 0-16 2l-3 5c-3 4-3 5-1 6s2 2 4-1c2-2 3-2 7-2l12 1c7 1 8 1 10-2l3-2 2 3c2 2 3 3 14 5l15 3c4 1 4 1 10-4 2-1 3 0 3 5 1 4 1 5 3 3 1-1 2-1 13 2s19 3 20 2c1-2 3-1 4 2s2 4 8 7l14 5c11 4 27 11 28 13 2 3 0 5-4 3-5-3-4-1 3 3 7 5 10 6 7 2zm-290-2h-1l-1 2h1l1-2zm-117-3c4-2 9-3 10-5 4-1 4-2 2-3-2-3-6-3-12 1l-9 3c-4 1-5 2-3 5 1 2 2 2 3 2l9-3zm102 1c2-1 2-2 1-6-3-8-3-10-1-11l6 4 4 4-1 4-1 6 2-1c0-3 2-4 10-4 6 0 8-1 8-2l3-7 3-11 1-7c1-1 0-1-3-1-10 2-20 6-23 9l-2 2-5-5-2 3c-2 2-3 2-4 1-3-2-6-2-13 1-9 3-9 3-7 10 3 8 4 9 10 11 7 2 12 2 14 0zm211-5 4-6c1-1 5-11 4-12l-8-4-8-5-3-1c-2 0-2 0-3 8v11l1 2c0 2-7 7-8 6-2-1-2-5 1-10l2-10c0-6 0-6-9-8h-4l-3 8c-3 8-4 18-2 19l31 7 5-5zm249 5c2-1 3-6 3-10l-2-7-4-11c-1-5-1-6-3-4-1 2-2 3-1 10l-2 14v7c2 2 7 2 9 1zm-416-2-1-1-3 1c-2 2-2 2 1 1l3-1zm-171-1c7-4 7-5-1-4-10 1-12 1-11 3l6 2 6-1zm533 1c3-1 3-2 3-4l-4-26h-3c-3 2-3 2-2 7 0 4 0 10-3 21 0 2 0 3 2 3l7-1zm-725-1c1-1 0-4-2-4s-2 3-1 4l1 1 2-1zm103-1c-1-3 1-7 3-7 1 0 2 0 2 2 1 2 4 2 6-1 2-2 2-3 0-11-2-6-3-9-2-16 1-9 1-9-2-8-3 0-4 5-4 17 1 11 0 15-3 15l-2 1c-1 1 1 10 2 10v-2zm14 1-1-1-1 1 1 1 1-1zm-83-1c1-2-1-3-3-2-1 1 0 3 1 3l2-1zm23-2c2-3 1-18-1-19l1-4c1-3 2-5 1-8s0-3 2-4c3-1 5-4 3-5l-5-2-7-1v6l1 23c1 15 1 16 3 16l2-2zm106 2 3-4c2-3 2-3 4-3 3 0 3 0 3-3 1-4-1-6-3-4-4 2-5 0-4-5v-12l2-7 3 1c2 3 4 3 4 2v-1c-1 0-2-1-2-3-1-3-2-3-10-3-7 0-7 0-6 2l2 9c1 6 1 7-1 10l-3 3 3 1c2 1 2 2 2 10v8l3-1zm214 0-1-1-2 1 2 1 1-1zm-424-3h-4c-4 0-5 0-1 1 2 1 5 1 5-1zm28 2h-7 7zm28 0-1-1-1 1 1 1 1-1zm32 0-1-1-1 1 1 1 1-1zm-100-1v-1l-2 1v1l2-1zm727-1-1-7c-2-3-2-5-2-9l1-6-4 3c-3 1-4 3-4 5-1 6 1 11 5 14 4 2 3 2 5 0zm-21-1-1-1-1 1 1 1 1-1zm-206-2 1-6v-5l-5 1c-7 1-8 0-9-5s0-8 2-8l3 3 2 3 1-3c1-4 2-4 4 0l3 4c2 0 5-10 4-11l-13-1h-13l1 5 1 6 2 6c2 6 4 11 6 12 1 1 8 0 10-1zm-374-3c0-2-1-3-2-3-1-1-2 0-2 2l1 4c2 1 3 0 3-3zm18-9-1-14c2-5 2-6-2-5h-4v6c1 6 0 7-2 8l-3 1 2 1 2 4v6c0 3 1 4 3 4l5 1h2l-2-12zm60 11-1-5c-1-2-2-5-2-13v-10h-3c-4 0-4 2-4 16l-1 12h4c4 2 6 2 7 0zm95-1c4-3 21-9 30-11 6-2 7-2 7-4 1-4-2-3-21 3a8151 8151 0 0 1-23 10l3 5 4-3zm241 2 3-5 2-7c3-3 6-10 5-12l-4-4c-3-3-4-3-5 1l-6 1-5 1v10c0 13 0 12 3 14 4 2 5 2 7 1zm-502-2c2-1 2-2 2-3-4-10-5-13-4-21v-8l-3 1-4 1-1 16v16h3l7-2zm234 0c4-1 8-6 7-7l-5-3-10-9c1-1 0-3-1-5-2-3-4-3-7-3h-3l1 8c0 8 1 9 2 11 4 2 4 2 5-2l1-3 5 3 4 3-3 4-4 4c0 1 4 1 8-1zm-305-6 1-6-3 1c-2 1-3 2-3 6 0 8 3 7 5-1zm14 6c2-1 1-7-1-14l-2-7c0-3 0-4-2-3-3 0-3 0-3 7v11l-1 6h9zm88-15-1-2c-2 0-3-3-4-9 0-3 0-4 3-6 5-4 4-6-2-5-4 0-4 0-6 6-4 11-4 11-1 13 2 0 2 1 2 8v8l7 2 1-6 1-9zm22 15v-23l1-5h-8v13l1 14c0 2 4 2 6 1zm353 0 4-2-3-17c-1-1 0-2 1-2 2-1 4 2 7 10 2 8 4 10 9 8h5c5 2 6 0 5-7l-1-12 1-6-5 1-29 3-9 1-5 2c-4 0-5 2-6 8s-1 6 2 8c6 5 16 7 24 5zm267-11c0-6 0-8-2-11-3-5-7-7-14-8l-5-1 1 5 1 9c1 6 5 12 6 9l-1-8-1-8c1-1 5 1 8 4 3 2 3 3 1 7s-1 7 2 11l3 3 1-3v-9zm-699 8c1-3 0-10-2-22-1-8-1-8 1-10l2-3-15 1v3c-1 3 0 4 2 5l3 1-1 12c-1 14 0 16 6 16 3 0 4-1 4-3zm39 1-1-2-1 2 1 2 1-2zm199 1c1-2-2-23-3-23-2-1-2 0-3 12l-1 12h3l4-1zm274-12 1-10-4-1h-6c-3 0-3 0-3 7-1 8 2 14 7 15 4 2 5 1 5-11zm-448 8c0-4-3-4-3-1l1 4c1 1 3-1 2-3zm557-1c0-1-12-6-13-5-2 1 0 2 6 4l7 1zm-445-3-1-1-1 1 1 1 1-1zm105-1c2-1 2-6 0-7-3-1-7 1-7 3 1 4 3 5 7 4zm55 0 1-2-3 1c-2 2 0 2 2 1zm-110-8-1-7v7c-1 6 0 8 2 7l-1-7zm449 3a251 251 0 0 0-5-28h-2a215 215 0 0 0 2 29c2 2 5 2 5-1zm-380-1c6-2 7-3 5-5-1-1-1-2 1-3 2-2 2-2 4 0 2 4 7 2 8-2l3-6c2-2 3-3 2-5 0-2 0-5 2-8l3-6-4-3-3-6c0-1 0-3-2-5-1-3-2-4-4-3-6 2-7 2-9 0-1-2-1-2 1-6 3-3 4-3 10-4 5 0 7-1 9-2l2-4c0-2-9 1-23 5-14 5-20 8-20 10 0 1 5 2 9 0s7-2 8 0l-1 4-3 6c0 2 1 2 3 0l2-3 1 5c2 10 1 12-3 7-3-3-3 0 0 5 2 4 3 15 2 18h-3c-1-2-2-1-3 5l-2 5c-2 1-2 3-1 3l6-2zm13-14c-2-1-2-12 0-12s2 3 2 8 0 6-2 4zm7-18-1-2h2l1 2h-2zm-9-4c-1-2 0-9 1-9 1-1 3 6 2 9-1 2-2 2-3 0zm-41 31 2-12c2-6 2-11 1-14-1-1-1-1-4 1l-4 2c-1 0 0 3 2 5 3 5 3 5 2 10l-3 6c-1 1-1 5 1 5l2 1c1 3 2 2 1-4zm323 2c-1-1-2 0-2 1 0 2 2 3 2 2v-3zm-258 0-1-1-1 1 1 1 1-1zm27-4c16-3 18-5 20-11l1-3-4 1c-13 2-36 10-36 13-1 3 0 5 2 4l17-4zm-217-2c1-3 1-3-1-3s-3 0-3 2 1 6 2 5l2-4zm247 3-1-1-3 1 1 1 3-1zm331-1c6-2 5-4-1-3-12 1-14 2-12 3h13zm-433-3-1-9-2-11c-2-10-5-7-6 4l-2 16c-1 2 0 3 5 3s5-1 6-3zm353-3v-6l-1-9c0-8-1-9-4-9-2 0-2 2 0 6v7c-1 4-1 4 1 10l3 6 1-5zm-381 2 1-2-4-3-1 3c0 4 1 4 4 2zm75 0c6-1 25-10 25-12l-1-4c-2-3-1-4 5-6l6-2 1-6 1-13-3-8-7-1c-6 0-11 1-15 4l-10 5c-7 3-8 4-8 6a743 743 0 0 1 3 24l3 2c2 0 2-2 1-3v-10c-2-1-2-13 0-14l2-1 2 11c2 9 2 11 4 12l2 1-3 5-4 6h-10c-4 2-5 3-4 5 1 1 3 1 10-1zm24-33 1-2h1l-1 2h-1zm-11-3c-1-2 0-8 1-8 2 0 4 6 3 9-1 2-3 2-4-1zm13-5c-2-2-3-7-3-8l3-1 1 6c0 5 0 5-1 3zm472 42c2-1-5-2-13-2-4 0-5 0-4 2h17zm-743-1-1-1-1 1 1 1 1-1zm789 0h-3 3zm-909-3-1-2-1 2 1 2 1-2zm97 2v-1l-1 1v1l1-1zm331-5 25-4c4-1 5-1 5-3 0-3 0-3-4-3l-32 4c-5 1-5 1-5 4v5c0 2 1 2 2 0l9-3zm43 3c3-1 3-1-1-1l-4 1h5zm75 0-3-1-2 1 2 1 3-1zm101-2 7-1c2 1 3 0 5-4 3-8 2-10-3-17l-6-8c0-1-2-3-5-4-4-2-5-2-9-1l-7 1h-4l1 7 2 12c2 3 2 6 2 8 0 3 1 3 6 6 6 3 6 3 11 1zm-8-4 2-3 2-8 1-8 3 1c1 1 2 1 1 4-1 7-5 16-7 16l-2-2zm-2-20c-1-2 0-7 1-7h2c2 1 2 2 1 4-2 4-3 5-4 3zm-562 21h-1v3l1-3zm826 3c2-1 4-1 3-2l-31-3c-9 0-10 0-10 2s1 2 10 3h28zm-682-1-2-1v1l2 1v-1zm49 0-1-2c-1-1 0-2 3-5l11-7c18-9 38-25 25-21-6 3-24 14-31 20-5 5-7 6-10 6l-7 1c-3 0-3 0-1 1 3 1 6 5 6 6 0 2 4 2 5 1zm466-2c-1-2 0-2 1-2 2 0 2-1 3-3 0-2 1-2 4-2l6 1c3 1 3 1 0-2-3-2-4-2-8-2-5 1-6 0-9-2a205 205 0 0 0-40-18l15 7 13 8-1 2c-2 1-6 0-16-6l-12-6-6-3-5-1c-2 0-2 0 1 2 3 4 22 13 28 15l10 5c2 3 6 5 8 6l6 2c1 2 2 2 2-1zm-8-7-1-4h3c3 1 6 4 5 5s-5 1-7-1zm71 8v-1a588 588 0 0 0 0 1zm59 0v-2h-29c-16-1-20 0-19 1l5 2 43-1zm-744-1c5-1 5-2-2-3-3 0-3-1-2-3 2-5 2-5-25-5-21 0-24 0-22 1 1 2 11 3 30 4l10 2-1 3c-1 2 3 2 12 1zm-55-1-4-1c-4 0-5 0-3 1h7zm-63-1c0-1-3-2-4-1v1h4zm526-4c0-3 0-4-2-4-2-1-3 0-4 2-1 4-5 5-5 2l-1-3c-1-2-2-1-2 2 0 4 3 6 9 5h5zm-492-1c21-2 26-3 25-4l-8-1c-6 0-7 0-7-2l2-3h-1c-4 0-4 0-4 2 1 2 0 2-8 3-24 2-25 2-23 3 2 0 3 1 3 2 2 5 1 5 3 3s4-2 18-3zm464 1 6-3-3-1h-28l-4 2 6 3c8 4 15 3 23-1zm-286 2c5-1 5-1 3-2-3-2-44-3-44-2 0 3 11 4 26 4h15zm43-1-2-2c-3 0-4-1-4-3 0-3-2-3-5 1-2 2-3 3-11 3-6 0-7 0-4 1h26zm-92-2c1-2-1-3-7-2-5 1-5 1-3 2 4 2 9 2 10 0zm254-1c6-1 7-3 8-5l2-3 2 3c2 1 3 2 5 1l7-1h3v-16c-1-4-1-4-4-4h-4l-1-6c-1-8-1-10 1-10s2 1 3 4l2 5 3-4c2-4 2-4 3-2v11c1 10 2 15 4 15l5 2c4 3 6 3 11 2 3-1 3-1 3-5 0-5 4-10 7-8l1 3c0 3 3 1 6-3 4-7 7-4 4 3l-3 4c-2 0-3 0-3 2 0 3 2 4 7 3 5-2 8-5 9-8l2-6 2 2c3 2 6 2 7 1l-1-5c-1-3-1-3 1-5s2-7 1-11l-7-6c-6-4-7-5-12-4l-6 2c-1 2-6 3-13 3-5 0-5 0-6 3-1 5-1 11 1 13s2 6 0 9v2l1 3c0 1 0 2-3 2-7 1-7 1-7-2l1-14c0-10 0-11-3-14l-3-4-23 5-11 3-5 1 1 4 1 8v12c-1 3 0 4 1 4 4 0 5-2 3-14-2-10-2-11 0-12 1-1 2-2 3-1l2 17 2 8c1 2 1 3-1 4l-11 4-8 3c-1 0 2 5 3 4l7-2zm15-10c-2-1-2-8 0-9s3 0 3 5-1 7-3 4zm40-15 1-1 2 1-1 1-2-1zm27-6c-1-4 0-6 1-12 2-5 4 8 3 13-1 4-3 4-4-1zm-26-3c-2-5 0-9 3-8 2 1 2 4 1 8-1 3-2 3-4 0zm15 0-2-7c-1-6 1-9 4-8 1 0 2 1 1 7-1 8-2 10-3 8zm275 36v-1l-2 1 1 1 1-1zm74 0c0-2-44-2-50 0h50zm64 0-1-1-2 1 1 1 2-1zm-901-4c0-1-1-2-6-1l-8-1c-3-2 0-3 19-3l23-1 5-1-5-1H65c-15 0-16-1-16-2 1-4-2-4-5-1-2 3-3 4-7 4l-8 1c-2 0-2 0 0 1h6c6 0 6 0 6 5 0 2 1 2 8 3 9 0 10 0 9-3zm150 2-4-1c-4 0-6-3-4-5l1-2-7 2-7 2c-9 0-14 2-6 4h27zm-185-2c1-1 0-1-2-1s-3 0-1 1c1 2 3 2 3 0zm10 1-2-1v1l2 1v-1zm626-3 1-4 2-1c4 2 8 2 9 0l3-7c1-5 1-5-2-11l-3-6c0-3-4-6-6-6l-8-2c-5-2-6-1-5 2v15c2 3 0 4-3 1-2-2-2-4-2-8l1-6c0-2-2-2-9-4l-3-2c0-2-4-5-7-6-4-1-4 0 0 4 3 3 3 3 2 5l-2 12c0 7-1 11-2 13-2 2-1 3 1 6 3 3 5 4 9 3v-3c-1-2-2-6-2-15-1-12 0-14 1-14 3-1 4 1 5 9 1 9 3 17 5 22 1 3 3 3 6 4 7 2 7 2 9-1zm-11-7c-1-2 0-3 2-2v2h-2zm10-13c-1-5 0-8 2-7s2 12 0 12c-1 0-2-2-2-5zm-330 18 1-2 1-3c1-2 1-2-1-1l-4 5v3l3-2zm-303-2c2-1 2-1-1-2h-5c-3 1-3 1-1 2l3 2 4-2zm192 1h-4 4zm17 0-5-1-5 1h10zm-114-2h-2 2zm14 0h-6 6zm609-3-4-3-13-4 7 4 8 4 2 1c2 0 2-1 0-2zm-367-2c6-3 8-5 7-6 0-1-2-1-3 1l-6 4-4 3c0 1 1 1 6-2zm209 2c0-2-11-2-13 0l6 1 7-1zm20-1c7-2 7-3 5-11-1-5-2-11-1-15v-8h-5c-3-1-4 0-3 1l1 3-2 7v5l-2-3c-2-2-3-3-2-7 0-5-1-7-5-4-2 1-4 12-3 14l2 8c2 6 5 12 8 12l7-2zm-10-10 3-4c2-2 2-2 3-1 2 1 2 2 0 4-3 3-6 3-6 1zm-443 9c1-2-2-3-4-2s-1 3 1 3l3-1zm37-2c-1-1-3 1-2 2h2v-2zm149 0h-1l-1 2h1l1-2zm-276 1-1-1-1 1 1 1 1-1zm26-1-1-1-1 1 1 1 1-1zm261-3c2-2 2-3 1-3-2 0-8 3-7 5 1 1 2 1 6-2zm-65-1h-2l1 2h1v-2zm336-9v-11l-1-3-3 2c-2 2-2 3-2 8l2 9 1 4c0 2 1 3 2 2l1-11zM90 364l4-1c3 1 5 0 7-1 3-2 3-3 0-5h-9c-7 1-10 2-10 4 0 3 7 5 8 3zm155-4c0-2 0-2-1 0v3c1 2 1 2 1 0v-3zm15 1c0-2 0-2-1 0l-1 3c1 1 2 0 2-3zm324 1c1-3 1-7-1-10l-1-9c1-5 0-5-1-5-4 0-5 2-6 10-1 11 1 15 7 15 1 1 2 0 2-1zm-461-1c1-2-1-3-3-2-1 1 0 3 1 3l2-1zm613-1c0-2-14-9-19-10l-12-4-7-3 2-3 1-4a118 118 0 0 0-33-10l-8-2-13-1h-11l6 2 5 3c1 1-2 1-5 2h-6l5 2 11 4 19 4c11 3 13 3 16 2s5 0 5 3c0 2 5 4 24 9a343 343 0 0 1 20 6zm-64-23c-7-2-8-2-8-4-1-3 1-3 11 0 9 2 12 4 9 5s-3 1-12-1zm-317 22v-1l-1 1v1l1-1zm73-5c5-2 7-4 4-5-2-1-12 2-13 4l-1 3c1 1 1 1 10-2zm317 2-2-2c-3-2-3 0-1 1 2 2 3 2 3 1zm-52-2c0-2-4-4-7-5-5-1-5 1 0 4 3 2 7 2 7 1zm-475-7c0-2 0-1-1 0s-2 3-1 4c0 2 0 2 1 0l1-4zm17 4c3-1 3-3 0-4-4-2-4-2-4 2 0 3 1 3 4 2zm127-2c1-1 1-2-1-1l-3 1c-1 2 2 2 4 0zm370 1-9-3c-2 0-1 1 3 2 4 2 7 2 6 1zm-355-1-1-1-2 1 1 1 2-1zm302-1h-3 3zm-596-1v-1l-2 1v1l2-1zm311-5c1-2-5 0-7 2l-3 3 5-2 5-3zm325 2-10-4c-3 0-1 1 3 3 6 3 8 3 7 1zm-523-5c0-2 0-3-1-1v5l1-4zm259-2 17-6c2-2 3-2 6-1 7 1 13 1 16-1 2-2 4-3 11-2 10 0 21-1 23-3 7-5-14-4-38 1a766 766 0 0 1-39 8l-11 3-14 5c0 3 10 1 29-4zm-52 2-2-1v1l2 1v-1zm9-4c0-1-3 0-3 2-1 1 0 2 1 1 2-1 2-2 2-3zm69 1c2-1-7 0-10 2h3l7-2zm-259-2v3-3zm-6-4c1-5 0-15-1-15l-1 10c0 10 1 12 2 5zm208 3 4-2h-3c-4 0-9 1-9 3 0 1 4 1 8-1zm106-1c8-1 10-2 6-3-3-1-12 0-15 2-2 1-1 3 1 2l8-1zm-88-1 6-3c2-1 16-4 39-7 11-2 17-5 8-5-7 0-60 11-62 13-1 1 2 3 4 4l5-2zm143 1c-1-2-18-3-18-2 0 2 2 3 10 3l8-1zm-496-1-1-1-1 1 1 1 1-1zm540-4c-1-2-1-3 2-4l2-2-3-1a4842 4842 0 0 1-29-4l9 2c8 2 11 3 11 5 0 1-9 1-23-2s-14-2-14 3l-1 3h15a129 129 0 0 1 30 2c2 1 2 0 1-2zm-534 1-1-1-1 1 1 1 1-1zm483-6-1-3-41 1 22 3c21 2 20 2 20-1zm-485 0-1-1-2 1 2 1 1-1zm136-6v-4c-2 1-3 7-2 9 1 3 2 1 2-5zm133-4v3-3zm172 2c10 0 18-1 18-2 3-3-8-3-29-1-18 2-21 2-19 4 1 1 9 1 30-1zm57 0c0-2-3-3-18-3-13-1-16 0-15 1l11 1 11 1h11zm-381-12c-1-9-3-9-3-1 0 7 2 11 4 8l-1-7zm-119 1h-1l-1 4 1-1 1-3zm117-21 3-2c2-1 2-2 2-5v-5c-1-3-1-3-2-1l-5 15h1l1-2zm11-21v2-2zm149-7v-1c-2 0-4 3-3 7v4l1-4 2-6zm-145-8c-1-2-1-2-2 0l-2 4c0 2 1 2 3 0 1-2 2-3 1-4zm137 4-1-1-1 1 1 1 1-1zM98 218l-1-3-1 3 1 2 1-2zm201 996v-2c3-1 8 0 8 2s-7 2-8 0zm-43-1-1-2c1-2 1-2 2 0s0 4-1 2zm-20-7-3-2c0-2 16-4 23-3 9 1 11 3 3 4l-23 1zm97-1-4-1c-2-2 4-3 14-3 8 0 9 0 8 2 0 2-1 2-7 2h-11zm-47-2c-1-1 1-3 3-1l1 2c0 1-3 1-4-1zm10 0c0-3 3-3 5-1s2 3-2 3c-2 0-3-1-3-2zm-140-1 1-1c1-1 2 0 1 1l-1 1c-1 1-2 0-1-1zm-59 0c-20 0-23-1-24-2v-2a461 461 0 0 1 65 3 2979 2979 0 0 0-41 1zm148-5-1-3 9-1 10 1 1 3h-19zm-47-15c-1-2 2-3 4-2l-1 2h-3zm65-3 1-1 1 1-1 1-1-1zm-52-4c0-2 1-2 2-2l2 2c0 2 0 2-2 2s-2-1-2-2zm-11-3c0-2 1-3 3-2l2 2-2 1c-2 1-3 0-3-1zm3-7v-2c1-1 5 3 4 4s-2 1-4-2zm182-6c-3-3-1-4 5-4 6 1 7 1 6-1-2-3-1-4 2-4l1 3v3h6c8-1 8-1 8 1 0 3-3 3-18 4-7 0-8 0-10-2zm-32 0c-2-3-1-4 3-3s6 3 4 4-5 1-7-1zm-42-1 11-1c11 0 16 1 9 2l-12 1c-6 0-8-1-8-2zm137-1c0-3 2-4 4-2v3c-1 2-4 2-4-1zm-160-2-2-3c-1-2-2-2-6-3l-19-5c0-3 21-1 26 3l10 2 9 1v2c0 1-15 4-16 3h-2zm-33-1c-14-1-14-3-1-3 11 0 16 0 15 2 0 1-7 2-14 1zm114-2c0-3 3-4 7-2 5 1 4 3-2 3-4 1-5 0-5-1zm-228-2c-2-1-3-1-3-3s1-2 6-2c8-1 14 0 14 2v2l-17 1zm179 0-10-2c-2-2 1-2 11-2s11-1 13-3 3-2 5-2c4 1 7 3 6 4l-5 2c-3 0-4 0-5 2a1293 1293 0 0 0-15 1zm-23-3-1-3 3-1c3 0 3 0 3 2v2h-5zm-85-7-2-5c0-1 3 0 5 2s2 2 0 4l-2 2-1-3zm50-17-3-2c0-2 4-2 16-2 10 0 13 0 10 2-1 2-20 3-23 2zm-1-41c-2-1-2-3 0-6 1-2 4-1 4 1s-1 6-2 5h-2zm-24-15c0-4 0-4 1-2 2 3 2 6 0 6l-1-4zm-2-17v-13c-2-2-2-5 1-5l3 4c1 6 2 15 0 16-1 2-2 2-4-2zm18-7c-2-1-2-3-2-8 0-8 1-13 2-12 2 0 3 4 3 10 0 7-1 10-3 10zm10-1 2-1v1l-2 1v-1zm-30-15c-2-3-2-5 0-6v-4c-2-2-1-2 2-5l3-3 1 4c3 7 3 8 1 12 0 4-1 5-3 5l-4-3zm37-3c-1-3 0-5 2-5s2 4 0 5h-2zm1-10 1-2c2-1 3 0 2 1-1 2-2 2-3 1zm-20-16v-21c1-3 1-4 3-3 3 0 3-1 0-6-1-2-2-5-1-6 0-7 3-9 6-3 2 3 2 7 2 21l-1 18c-1 1-2-2-3-6 0-9-1-9-1 0-1 10-1 13-3 13l-2-7zm-96-17c-1-4 1-14 2-16 2-1 3 7 1 12-1 6-2 8-3 4zm-20-106c-2-4-2-21 0-22 1-1 1-1 2 5v13c-1 7-1 7-2 4zm181-21c-1-6 2-11 4-6v5c-2 4-3 5-4 1zm-200-5 1-1 1 1-1 1-1-1zm10-8c-1-1-1-3 1-3l2 3h-3zm192-11-2-2 8-2 3 1c0 3-3 4-9 3zm5-12-3-2v-2c4-1 10 1 10 4h-7zm24-1c-1-1 2-3 4-3l4 1c2 1 2 2 0 3s-7 1-8-1zm-35-12-2-2 2-1 8-2h15c7 1 8 1 7 2-2 2-27 4-30 3zm32-26-10-1-1-2c0-2 2-2 11-1 14 1 16 1 14 3l-2 1h-12zm56-4 1-1 1 1-1 1-1-1zm3-18c-3-2-4-3-1-4l6 1-2 3h-3zm-23-15h5l-3 1c-2 1-3 0-2-1zm96 1c-2-1-2-2 1-2l2 1c0 2-1 2-3 1zm-83-1 2-1 2 1-2 1-2-1zm20-4c-3-1-2-4 1-3 2 0 3 1 3 2 1 3-1 3-4 1zm62-4v-4c-1-3 2-3 5 0 3 2 3 4 1 6-4 1-6 1-6-2zm-91-3c-1-3 1-3 8-3 9 0 11 1 3 2l-8 1h-3zm476-5c-1-2 1-4 2-3l1 3c0 3-2 3-3 0zm-384-8-2-2-2-1c-3 0-3-2-1-3 5-3 14-4 15-3 2 1 2 2-2 4a715 715 0 0 0-6 3c2 2 1 3-2 2zm378-1c-2-2-1-5 2-4 1 0 2 1 2 3s-3 3-4 1zm-437-5c-1-1-2-1-1-2 2-1 9 0 8 2h-7zm433-4c-1-1-1-2 1-3 1-2 4-1 4 0 0 2-3 4-5 3zm-823-2c-2-2-2-4 0-4s2 0 2 3 0 3-2 1zm16 0c-1-3 0-7 2-7 2-1 3 2 1 6-1 3-2 3-3 1zm371 1c-22-1-27-2-14-3 10-1 48 1 47 2l-33 1zm-381-2 1-2c2-2 3-1 2 2-1 2-2 2-3 0zm415-4c-2-1-2-1 0-2 3-2 7-1 7 1 1 1 0 2-2 1h-5zm396-2c-2-2-3-3-2-6 0-3 2-5 3-2l2 5v4c-1 1-2 1-3-1zm-289 0c-6-2-9-3-5-5 2-1 18 1 19 2 2 3-6 4-14 3zm-26-2c-2-1-2-4 0-5h3l1 2c-1 3-2 3-4 3zm-502-2c-1-3-1-10 1-11h2c1 3 1 9-1 11-1 2-1 2-2 0zm828 1-2-11 1-1c2-1 5 5 5 8 0 2-3 5-4 4zm-811-6-2-4-1-4-3 6v-3c0-5 2-14 4-16 3-2 6-1 6 1a540 540 0 0 0-4 20zm-1-11v-2l-1 1c0 2 0 2 1 1zm370 12c-2-1-2-3 1-4s17-1 17 1c0 1-14 4-18 3zm459-1 1-4c1-2 2-2 2 0 0 3-1 6-3 6v-2zm-376 0 8-3c9-1 7-2-11-4-15-2-18-3-16-5 1-1 4 0 13 1 8 2 14 3 16 2 3 0 5 0 7 2 5 3 4 5-3 6-5 2-16 2-14 1zm335-7c-4-5-4-5-4-12s1-13 4-13c2-1 2 3 0 8s0 7 4 4c1-2 2-2 3 0v3l2 5 1 4 2-2c3-3 5-3 5 0s-6 8-10 8l-7-5zm-405 0c0-2 3-3 4-2v2c-1 2-4 2-4 0zm-404 0-1-4c-1-2 0-3 3-6s5-3 9-3c3 0 5 0 4 1l-2 5c-1 4-2 5-3 1l-1-4-5 5-4 5zm429-3c-1-1 0-2 3-2l1 1c0 1-3 2-4 1zm-64-2c0-2 3-2 11-2 11 0 12 1 2 2h-13zm1-9c-2-1-2-4 0-5 3-2 16-2 22-2 5 1 4 2-7 4l-9 3h-6zM36 658c0-4-2-4-4-1-1 2-1 2-6 1-6-2-7-3-8-9l-2-12c-2-7-2-10 1-10 0 0 3 1 5 4l4 4 2-4c2-5 4-4 4 3l2 5c1 0 2 0 2 2 1 2 2 3 5 3s3 0 3 4c1 3 0 5-3 9l-5 5v-4zm-7-5c5-3 4-7 0-8-4 0-6 2-5 7 1 3 1 3 5 1zm570 3-2-5c0-2 1-3 5-5 6-4 29-6 31-4l-11 4c-9 2-11 3-9 4 2 0 3 1 3 2 1 1 0 2-4 2-3 1-3 1-2 2 3 1 1 3-4 3-4 0-6-1-7-3zm-92-8c-5-1-5-2-2-3h6c5 1 5 1 3 2-2 2-3 2-7 1zm64-7c0-2 5-4 8-4 2 0 10 3 9 4h-17zm31 0-1-2-2-1-4-1c-2-1 0-3 4-3l4-2c1-3 4-3 3 0 0 2 0 3 2 4l4 3v1c-2 2-8 2-10 1zm13-5c-2 0-2-1-2-3 1-2 0-2-1-2l-2-2c-1-2-1-2-8-2l-8-1c-2-2 2-3 11-3l9-1-2-3-3-3c0-2-1-2-2-1l-1 3c0 1-1 2-4 2-5 0-5-1-4-6 1-3 2-4 4-5 4-1 13 0 15 2l12 3 12 1-2 2c-1 1-4 2-9 1l-8 1c-1 1 3 2 16 2s17 0 16 1l-18 2c-15 0-19 1-17 2a232 232 0 0 0 37 4l-20 1-18 1v1l11 1c12 1 15 1 15 3 0 1-25 1-29-1zm214-2c-1-1-2-2-1-9 0-5 0-8 2-8 1-1 1 0 1 4v10c0 4 0 5-2 3zm-260-4c-5-1-3-2 3-2h8c0 2-6 3-11 2zm236 0c-1-1 5-9 7-9s2 1 0 6c-2 3-5 5-7 3zm10-4c-1-5 0-8 3-8 2 0 2 0 0 6-1 7-2 8-3 2zm-296 2-4-2h10c11 0 14 0 10 2h-16zm62-3-13-1c-9 0-10-1-10-2l1-2 3-3c1-2 2-2 12-3l12-1h5c4 1 5 1 5 4s-2 4-5 3c-2-1-2-1 0-3s2-2-3-1l-15 1c-12 1-12 3 0 4 8 0 17 3 17 5 0 1-7 1-9-1zm216 0v-6l1-4c2 0 3 2 3 5 0 4-2 7-4 5zm-771-3c0-4 0-4 2-2s2 5 0 5-2-1-2-3zm465-7c0-2 6-3 12-2 4 1 5 2 0 3s-12 1-12-1zm157-1c-3-1-3-1 5-1 10 0 14 1 7 2s-9 1-12-1zm-194-1 1-2h3c2 1 1 3-1 3l-3-1zm335-1 1-3c2-1 5 0 5 2 0 1-5 2-6 1zm19 0c-1-1-1-4 1-5 1-1 3 1 2 3-1 3-2 3-3 2zm-251-2-3-1c4-2 13-2 13 0 0 3-3 3-10 1zm-512-2c-2-1-3-10-2-11 1-3 5 2 4 6 0 5-1 7-2 5zm650 1-14-2v-2a2505 2505 0 0 1 35 1c5 4 4 4-21 3zm-665-1v-10c1-2 1-1 3 3s2 4 1 6c-2 2-3 2-4 1zm583-3c-7-1-8-1-8-3 0-3 3-3 15-1 5 2 16 3 23 3 10 1 11 1 7 2-8 1-29 0-37-1zm207 0c-3-1-4-5-1-5 2-1 6 3 5 5 0 2-2 2-4 0zm-804-2c0-2 3-4 4-3l1 3c-1 2-5 2-5 0zm537 0c-2-2-2-3 2-4h9c3 1 3 1 1 1l-6 3-4 2-2-2zm24 1c-3-2-1-2 13-3l12 1-4 2h-21zm-103-6 5-2h21c0 2-3 2-15 3-10 1-11 1-11-1zm157 0c3-2 9-2 11 0h-11zm-36-1c-5-1-3-2 4-2h8c1 2-7 3-12 2zm229-1c0-1 3-2 3 0l-2 2-1-2zm-108-1c0-2 6-3 9-1 4 1 3 2-3 2l-6-1zm-37-2c1-1 5-2 11-2l12-2 4-1h3l-2 1c-5 3-12 4-21 5-7 0-8 0-7-1zm134 0c-1-2 0-5 2-4 2 0 2 2 0 4-1 2-1 2-2 0zm-796-1c-2-1-2-3-2-5 0-7 0-7 5-6l4 1c1 0-1 9-3 10-1 2-1 2-4 0zm808-1-6-4-4-3c-2-2-1-2 2-3 4-2 5-2 6 1s2 3 6 0c3-3 3-3 5-2 1 1 1 2-1 5l-4 6-2 3zm-231 1-7-1-4-1c3-2-3-3-10-3l-38-3 2-2h47c5 2 24 2 24 1l-12-2c-19-1-25-2-24-3s10 0 43 1c11 1 13 1 16-1h6l19 3 17 1c1 1-21 1-23 1-3-2-6-2-11 2-7 4-11 3-11-1 0-3-1-3-3 1-1 2-1 3-6 3-6 0-7-1-3-4 2-1 2-1 0-1l-6 1-8 3c-5 1-5 2 0 2l4 2c0 1-10 2-12 1zm17 0c0-2 3-3 5-2 1 1 0 3-2 3l-3-1zm-109-1c-3-1 0-2 6-2 5 0 8 1 5 2h-11zm-36-7c-3-1-1-2 4-2l20 2h-24zm339 0v-3c0-2 0-2 2-2l2 1c0 3-3 5-4 4zm-299-2c-2-1-2-1 0-1l3 1h-3zm287-1c0-1 3-3 4-2l-1 2c-2 2-4 2-3 0zm46 1c-1-2 1-9 3-10 2-2 4-1 3 4l-2 5c-1 2-3 2-4 1zm-817-7v-4c1-2 2-1 2 1 1 3 0 6-1 6-1 1-1 0-1-3zm446-1c-1-2 0-2 4-3l6-1c2-1 5 2 4 4h-14zm-451-2 1-1 1 1-1 1-1-1zm42-2c-2-1-2-1 0-5 2-3 6-6 9-5 1 1 3 9 2 11-1 1-9 1-11-1zm111 0c-3-1-3-1-2-3l2-13c2-12 2-12-4-18l-3-3-22 2v-3l-1-3-4 2c-4 2-5 2-3-2 1-2 3-2 5-2l4-3v-10c-2-9-5-17-8-18a610 610 0 0 0-69-2v-2l16-2 17-2c2-1 2-1 0-15-1-6 1-8 3-5 2 2 3 2 5 12 1 5 1 6 3 5l3 1c0 3 3 4 22 4l21 2c2 1 2 3-1 5l-6 4-3 3 3 8c4 11 5 12 11 15l13 4c6 1 8 3 7 5l-1 13c0 12 0 13 5 13 4 0 5 1 6 5l1 4-8-1h-12zm355-1c-2-1-2-1 0-2 3-1 6 0 5 2 0 2-3 2-5 0zm41 0c-2-2 0-3 3-2 2 1 3 1 1 2h-4zm-69-2-4-1c0-3 9-3 13 0v2c-2 1-4 1-9-1zm212 1c-10-2-10-3-1-3l27 3h-26zm116-1-7-1c-4 0-5-1-4-2l6-3h9l11 2c6 1 8 1 8 3l-10 1h-13zm-197-2-1-3c0-2 4-2 7 0 2 1 2 1-1 2l-3 1h-2zm-587-2c-3-1-3-4-1-5s5 1 5 4c0 2-2 3-4 1zm72 1c-1-2-1-8 1-9 3-1 4 1 3 5 0 4-2 6-4 4zm438-2-6-1 5-1h34c4 1 4 1-3 2h-30zm299-5 1-3 9-1c1 2-1 5-3 5l-2 1-3 1c-2 0-2-1-2-3zm-778-3c-2-4-2-4 1-6 1-1 2-2 2 0 1 2 0 8-1 8-1 1-2 0-2-2zm430 1c-5-1-6-2-5-3 1-2 12-2 15 0 2 0 3 1 2 2-2 2-4 2-12 1zm324-2c-1-5 0-10 2-10 3 0 3 7 1 11-1 2-2 2-3-1zm-299 1c-7-1 2-3 14-3 7 0 8 1 5 3h-19zm161-8h5-5zm12 0 1-1 1 1-1 1-1-1zm-588-2-6-7c-4-4-5-4-9-4-3 0-6-2-6-4h32c2 1 3 1 1 2l-5 4c-4 1-4 2-3 5 1 5-1 8-4 4zm516-1-2-2c0-1 15-1 17 1 1 0 1 1-1 1h-14zm27 0 1-2c1-1 2 0 1 2h-2zm57-1 1-1c1 0 2 0 1 1 0 2-2 2-2 0zm-483-5c-5-5-6-6-5-8 2-2 7-3 17-4 8-1 9 0 8 3 0 2-2 3-5 3-5 1-5 1-6 9 0 3-2 2-9-3zm645 5 1-2h1l-1 2h-1zm-555-2h5l-3 1c-2 1-3 0-2-1zm363 0c-11-1-7-2 9-3 9-1 13 0 15 1 5 2-3 3-24 2zm-616-4c-1-3-2-3-6-4l-11-3c-6-1-6-1-9 1s-6 2-7 1 3-4 9-7c4-2 4-2 11 1 6 2 8 2 15 1h17c1 2-3 4-9 5-3 1-4 2-5 4-2 5-2 5-5 1zm559 3-9-2c-12-1-15-2-15-3l31 1c2 1 2 1-1 3l-4 1h-2zm207-1-2-1c0-3 7-4 10-2 2 0 2 1 0 3s-4 2-8 0zm24-1c-6-2-9-6-8-9 1-2 2-2 4 0l9 5 7 5c1 2-5 2-12-1zm-583-2c-2-1-5-3-8-3-8-2-11-3-11-5l3-5 4-4 3 2c2 2 4 2 5 2 5-1 7 1 8 6l1 6c0 4-2 4-5 1zm50-1c-7-2-7-3-7-7-1-11 3-12 9-5 4 5 6 8 6 12 0 3-1 3-8 0zm340-2c-1-1 10-2 20-2 6 0 7 0 3 1-7 1-22 2-23 1zm38 0c-2-1-1-3 1-3s2 2 1 3h-2zm180 0c-1-1 0-3 5-6l8-5c1 0 3 3 2 4l-13 8-2-1zm-580-2-3-1 2-2c4-2 9-2 9 2 0 2-4 3-8 1zm245-2 1-2c1-1 2 0 2 1s-2 2-3 1zm-29-4 1-3c3-3 3-3 0-4l-2-1 2-2c3-1 3-2 1-3-3-3-1-6 4-5 3 1 4 2 3 4-1 0-1 1 2 3 4 3 4 4-1 5-2 0-3 1-3 3-1 3-5 6-7 3zm170 0v-2c1-1 2 0 1 2h-1zm163 0v-5c-1-7-1-9-3-9l-3-2c-1-1-1-1 5-2h7l-1 8c-1 7-3 11-5 10zm-361-3c-3-1-3-2 1-4l4-3c2-2 5-2 6-1l-1 2 1 3c2 1 2 2 0 3h-11zm-445-5c-2-2-1-5 2-6 2-2 3 0 3 5 0 4-3 5-5 1zm493-5c-2-1-1-4 1-4 1 0 2-1 2-3 0-1 1-2 3-2 2-1 3 0 3 3l-2 6c-3 2-4 2-7 0zm-32-1c-1-1 0-3 1-3l2 1c2 0 2 1 1 2-2 2-3 2-4 0zm403 0c-7-3-6-4 3-4s11 1 7 3-7 3-10 1zm-39-1c-4-1-9-7-9-9l2-3c2-1 3-2 3-6 0-7 1-12 2-13 1 0 3 5 4 18 1 6 1 7 4 9 2 1 3 1 1 3s-2 2-7 1zm12-1c-2-1-1-2 3-2 2 0 3 0 2 1 0 2-2 3-5 1zm-307 0c0-2 17-3 18-1l-9 1h-9zm320-1c-1-1 7-8 8-7l1 4c0 2-1 2-3 3h-6zm-708-3 1-2c2-2 3 0 2 2h-3zm-142-2c-1-2 1-4 3-3v3c-2 2-2 2-3 0zm528 1 3-1 3 1-3 1-3-1zm-90-2c-2-1-2-4 0-5s6 1 6 3l-1 2h-5zm96-2c-2-1-1-2 2-2 2 0 3 0 2 1 0 1-2 2-4 1zm-77-2-7-1c-7-1-5-2 3-2l9 1c2 2 0 3-5 2zm-448-2c-2-1-2-3 1-4l4 1c2 2 2 2 0 3-2 2-2 2-5 0zm-24 0c-6-1 1-5 9-5 3 0 4-1 5-3 0-2 1-2 2-1l2 4c0 2-1 3-3 2l-4 2c-2 2-6 2-11 1zm569-4c-2-1-2-2 0-2 2-2 7-2 8 0 1 1 1 2-2 2-4 2-4 2-6 0zm301 0c-3-4-3-9 1-9 2 0 3 6 2 9-1 2-1 2-3 0zm-407-2-5-2c-3-1 1-2 5-1l6-1c1-2 2-2 3 0s1 2-1 4-3 2-8 0zm66 0c-6-1-7-2-6-3 1-2 19-2 20-1 1 2-3 5-6 4h-8zm-40-1c-2-1-2-2 1-3s11 0 11 2c0 1-8 2-12 1zm323-2c-2-2-3-7-1-8 1-1 3 2 4 5 0 4-1 6-3 3zm-342-8-6-1a147 147 0 0 1 47 0c0 1-22 2-41 1zm400 0c-10-1-15-2-13-4l16-1c13 0 17 0 18 2 2 1 2 1 0 2-2 2-3 2-21 1zm-85-2c-4-1-4-2-1-4l13-1 13 2v2c-2 1-21 2-25 1zm40-1c-7 0-10-1-9-2 0-2 11-3 21-2 8 1 10 1 10 3a6628 6628 0 0 0-21 1zm119-3c-2-1-2-3 0-3l2 2c0 3-1 3-2 1zm-456-1a1135 1135 0 0 0-13-3c1-1 24 0 26 1 2 2-5 3-13 2zm392-1-22-2-3-2 3-1h28v-2c1-11 4-13 6-4l2 6a560 560 0 0 1 38 4c0 3-20 3-52 1zm-800-2c-2-1-2-6-1-6 2 0 4 2 4 5s-1 3-3 1zm-53 0h7-7zm491-4c-1-2 0-2 3-3 2 0 3 0 3 2 0 3-5 4-6 1zm418-3c-1-2 1-4 2-2 2 2 1 4-1 4l-1-2zm-449-7c-1-2 0-2 4-2h5c1 2-7 3-9 2zm431-21c-1-2 0-3 2-3s3 3 1 4-2 1-3-1zm-912-2c-1-1 0-2 2-2l1 1c0 2-2 2-3 1zm951-7c0-2 0-2 2-1s1 3-1 3l-1-2zm-39-2c-2-5-4-10-2-12 2-3 5 3 4 11v3zm55 0v-21l3-1c3 0 2 20-1 22h-2zm18-3c-2-2-3-7-2-8 2-1 5 2 5 5 0 4-2 5-3 3zm-67-7-1-2c1-2 3-2 4-1 1 2-2 4-3 3zm30-3 3-4 3 1c1 0 1 1-1 2-2 2-4 2-5 1zm52-7c-4-2-8-2-14-1l-6-1c-2-1-2-1 1-3 5-2 13-3 17-1l8 3c6 1 7 1 4 3-2 2-5 2-10 0zm15-27c-2-2 9-9 12-7l-4 4c-5 4-7 5-8 3zm21-9c-1-1 2-3 5-3s5 2 3 3c-1 2-7 2-8 0zm19-1v-3c2 0 3 2 2 3h-2zm-782-10-3-5-4-8-5-13-8-48a1523 1523 0 0 1 1-147c-6-44-6-44-3-48 2-3 3-4 2-8V68c1-4 1-4 2-2l4 6 1 4 2-5c0-3 2-5 4-7 4-3 6-7 7-13s5-11 13-18c16-14 22-17 29-19l6-3c3-2 4-2 5-1 3 5-4 12-20 17-4 1-6 2-12 8-7 7-9 11-11 18l-6 11-4 9-3 8-4 11-2 9c-1 1 0 2 2 2h4l-4 12-5 11-1 25c-2 73-2 111 2 146 3 24 3 27 8 40 6 14 7 17 6 18h-3zm-11-243-1-1-1 1 1 2 1-2zm-6 229v-1l2 1v1l-2-1zm-173-6v-17c1-2 3-2 4 0 2 2 1 10-1 15-1 3-2 3-3 2zm164-5c-1-2 0-5 2-5l1 3c0 4-2 5-3 2zm-38-15c-2-9-2-9 1-10l2-2c0-2 0-2 2-2 5 0 7 2 6 6l-2 6-4 6-2 4-3-8zm-138 3v-15c3-2 5 0 5 6-1 10-2 12-5 9zm-50-26c0-2 2-3 9-3l8 1c2 1 1 1-3 2-8 2-14 2-14 0zm186 1v-9l1-10c3-3 4-1 3 8 0 8-2 13-4 11zm-53-5c-2-1-1-3 2-4s8 0 8 2-5 3-10 2zm43 0-1-10c-1-8-1-9-2-8s-2 1-2-6c0-2 8-7 9-6v24l-2 7-2-1zm-116-10c0-4 2-5 3-2 1 2 0 6-2 6l-1-4zm187 1c0-2 21-7 30-6 3 0 4 0 4 2s-1 2-7 3l-12 1c-7 2-15 2-15 0zm-203-3-1-8-1-7c-2-1-2-8-1-9s3 1 3 4c0 1 0 3 2 4 1 0 2 2 2 5-1 10-2 15-4 11zm33-5c1-12 2-14 4-14 3-1 3 1 2 10-1 7-1 8-4 9h-2zm-25 1c-2-2-1-4 0-4 2 0 4 3 3 5-1 1-2 1-3-1zm298 0c-5-1-8-2-6-3a985 985 0 0 0 190-23l29-5 52-9a464 464 0 0 1 179 5 332 332 0 0 0 77 11l45 1 36 1 1 2c2 6-5 7-21 5l-26-2a1943 1943 0 0 1-124-12l-20-4a469 469 0 0 0-153 0 3241 3241 0 0 1-248 33h-11zm-291-12c-1-14-1-18 1-19l2-1c1 0 2 9 1 16-1 15-3 17-4 4zm127 7c-2-1-2-8-1-10l3-1c1 0 2 2 1 6 0 5-1 7-3 5zm-115-1c-2-1-3-8-2-10l2-2c2 0 4 3 3 8s-2 6-3 4zm122-4v-13c1-2 2-2 3-2 1 1 2 2 1 7-1 7-3 11-4 8zm-142-4c-1-1-1-9 1-10s3 0 3 4c0 5-2 8-4 6zm235-7v-6c-2-4-4-5-4-1 0 2-3 2-5 0-1-1-1-2 1-3s2-2-2-8c-4-5-6-5-3 0s0 9-4 7c-1-1-5-9-9-21-3-9 1-9 5-1 4 6 6 8 8 7 1-1 2 0 5 4l8 6c2 2 6 8 6 11s-4 8-6 8v-3zm-245-2c0-2 1-2 3-1 1 1 0 2-1 2l-2-1zm142-2-3-6c-3-4-3-7 1-7 4-1 4 0 5 8 1 5 1 8-1 8l-2-3zm-113-3c-2-1-2-4 0-5s4 1 3 3c0 2-1 3-3 2zm-18-6c-2-2-1-6 1-6l1 3c1 3-1 5-2 3zm315-6c-4-1-4-1-2-2 1-2 3-2 5-2l9-4c6-4 9-4 10-2s-4 7-11 9l-7 2-4-1zm-308-2c-2-1-3-13-3-20 0-6 2-10 4-8 1 2 2 22 1 26-1 3-1 4-2 2zm242-3v-4c0-3 2-3 2 1 1 2-1 4-2 3zm52 0c-1-1 7-11 9-11l5-4c6-4 10-5 10-3s-2 6-4 6l-12 8c-4 5-7 5-8 4zm-176-9c-1-4 0-14 2-15 3-3 4 2 3 11-1 10-3 11-5 4zm90-5c-3-2-4-13-3-15 2-2 6 6 6 12 1 6 0 7-3 3zm73 2c-1-2 3-18 6-24s6-9 8-7c1 1 0 3-3 8l-5 14c-2 6-5 11-6 9zm41-2c-1-3 0-5 2-6 3-1 4 1 3 4-2 3-4 4-5 2zm-85-4c-3-3-6-8-5-12 1-3 3-3 4 2l3 7c4 4 3 7-2 3zm-18-2c-2-1-2-5 0-6s2-3-2-7c-3-3-4-4-5-12-1-7-1-9 1-9 2-2 3-1 4 7 1 6 2 9 5 12 3 4 5 12 3 12l-2 2c-2 3-2 3-4 1zm94-2c-1-1 0-4 2-7s2-3 3-1l-1 5c-1 3-2 4-4 3zm-297-5v-6c0-2 0-3 2-3s2 1 2 4c1 6-3 10-4 5zm187-8c-1-1-1-8 1-8 1 0 3 4 2 6 0 2-2 3-3 2zm30-8c-2-2-2-5 0-8 2-4 6-5 6-1s-2 10-3 11c-1 0-2 0-3-2zm-69-2 5-31 1 2c2 3 0 20-2 26s-4 7-4 3zm86-4c-2-3-2-14 0-18 1-4 4-5 6-4l-5 23-1-1zm65 0c-2-2-2-6 0-8 1-4 2-3 3 3s0 8-3 5zm-319-3v-31c0-11 1-13 4-10l1 17c0 24-1 29-5 24zm272-1-1-7c1-5 4-10 5-8 1 1 0 17-1 17l-3-2zm-250-4c-2-1-2-7 0-8 2-2 5 2 4 6 0 3-2 5-4 2zm123-6c-2-1 0-4 2-3s2 2 0 3h-2zm100-3c0-2 1-4 2-3 2 1 0 6-2 6v-3zm-121-4c-1-1-4-45-3-48s1-3 3-2c1 1 2 7 3 23 1 25 0 32-3 27zm132-9c-1-2 1-4 3-4l1 3c0 3-3 4-4 1zm-246-1-1-14-1-11h6v11l-2 16-2-2zm136-8c-1-9-1-16 1-17l2 1c1 1 2 3 2 12 0 10-1 11-2 11-2 0-2-1-3-7zm-6 3c-1-1 1-3 3-3 1 0 1 2-1 4-1 1-2 0-2-1zm-8-20c-2-2-2-4 0-6 1-2 1-1 3 1 2 4-1 9-3 5zm-98-6c-2-7-2-17-1-18 1 0 2 0 3 2 2 2 3 22 0 22-1 1-1-1-2-6zm96-15c-1-4 0-9 2-9 3 1 3 12 0 12l-2-3zm-90-8v-1l2 1-1 1-1-1zm100-2c-4-4-4-25 0-27l3-1 1 15c0 11-1 13-2 14l-2-1zm-100-3c-1-1-1-13 1-18 0-3 1-4 2-4l1 8v11c-1 3-3 4-4 3zm27-1c-3-1-4-4-5-7v-6c-1-2-1-1-3 1-2 3-3 3-4 2l-2-4c-1-3 0-4 4-8 5-5 8-5 13-3 4 2 6 7 5 12 0 4-5 15-6 15l-2-2zm60-19-5-2V52l-1-14 3-1c2-1 3-2 3-5l1-4 3 1c2 3 3 20 2 31l-1 9zm-74-11c-2-2-3-5-2-8 2-4 4-3 5 1s-1 9-3 7zm53-8c-2-1-2-5 0-6 1-1 4 2 3 4 0 2-1 3-3 2zm80-3-2-6v-8l2-12c-1-6 0-8 1-10 3-3 4-2 5 3v5l6-5c6-4 10-5 12-3l-2 5-6 9-3 5c-4 2-9 10-10 14s-2 5-3 3zm32-40c-2-1-2-2 0-2 1 0 2 0 2 2s-1 2-2 0zm6-2c0-2 3-4 4-4l-1 3c-2 2-3 2-3 1z"/>
</svg>
