<?xml version="1.0" encoding="utf-8"?>
<svg xmlns="http://www.w3.org/2000/svg" version="1.1" viewBox="0 0 1093 1437">
	<title>Sketch of a small arch stone bridge over a river, with two large tree trunks and one smaller tree behind the bridge on the left bank.</title>
	<path d="m180 1436-2-3-2-5c0-2-1-3-2-3l-2-2c0-1 1-2 3-2 2-1 3-2 5-12 0-3 1-4 3-4l3 1-2 4c-2 2-2 2 0 7 3 9 2 17-1 19h-3zm4-50-2-7 1-5 1-2 1-3h5l2 5c-1 3 0 4 1 5 2 1 2 1 1 3l-2 4-2 2-6-2zm-8-22 1-3c1-2 2-2 3-2 2 1 2 1 0 4s-4 3-4 1zm1-10c-1-2 0-3 3-5 2 0 3-2 3-2l-3-3-2-4c1-2 5-2 5 0l4 3 4 3c0 1-1 3-4 4l-6 3c-1 2-3 2-4 1zm-1-22 2-1 3 2-3 1-2-2zm10 0 1-1 2 1-2 1-1-1zm-1-6 1-3h2c1 0 2 1 2 3 0 1-1 2-3 2l-2-2zm-6-7-1-2 3-3c2-1 2-2 1-2l-3-1v-4c2-2 2-4 2-6s0-3 2-3l4 4 3 5-3 1-2 1 2 1c2-1 7 1 7 4l-2 3c-3 2-10 3-13 2zm10-20-2-3-1-3-4 2h-6l-2-3-1-1-6-2c-3-2-3-3-3-7l1-6c0-1 2-2 6-1l9-2 12-2 2 2c0 2-1 3-3 3s-3 0-4 3v4c1 1 1 2-1 3v2l4 1c2 0 2 1 2 3l2 4c1 2 1 2-1 4-2 1-2 1-4-1zm-11-15-1-2h-4c-2 0-2 0 0 2l3 1 2-1zm6-1-1-1c-2 0-3 1-1 3l2-2zm-11-15 2-3c1-1 0-1-3-2l-4-3 3-5c3-3 4-4 3-9l-2-5-5-1-2-4 4-5c3-3 4-5 5-9 1-5 1-5-2-6l-3-3 1-1-1-5-1-6c1-1 0-1-2-1l-8-2v-2l4-2c3 0 4 0 5-2 0-2 1-3 2-3v-12l4-2c2 1 2-1 1-15l-2-19v-17l-1-18-2-20-1-17c-1-3-1-3-2 1l-1 18c-1 11-1 15-3 18l-1 7c1 3-2 10-4 10-3 0-4-4-3-6v-14l1-21v-9l-1-16v-16l3-3c2-1 3-3 3-5l2-4 5 1c2 1 3 2 4 7 0 4 1 6 2 5l1-4c0-3 0-4-2-6l-3-7-1-6 1-3c1-2 2-8 1-11l-4-1c-2 1-2 1-3-9a301 301 0 0 1 0-49l-2 4c-1 2-1 3-3 2 0 0-2-1-2-3a506 506 0 0 1-3-57c-2 11-5 19-6 20l-2-1c0-3-2 2-3 9l-3 7-2-2v-7l4-21 2-15 2-14v-10c-2-7-2-9 0-15s2-16 0-17l-2-3c-1-1-1-1-1 4l-1 8c0 2-1 3-2 2-2 0-2-1-2-8 1-8 0-8-2-2-1 4-3 1-3-4l-1-5c-1-1-1 2-1 8 0 2 0 4-2 5-1 1-1 1-2-1l-1-11c1-7 1-8 4-8 2 0 3 1 2 2 0 2 0 2 1 1 2-2 5 0 5 3s0 4 1 3c2-2 1-12-1-17l-1-2-1 4-5 1c-3-1-5 0-5 1l-2 4-1 14c0 9-1 12-2 13s-2 0-2-2v-13c0-9-1-10-2-12-2-2-2-2-3 1v8c1 4 0 9-1 9-3 0-4-5-4-15l-1-11v1l-1 7v20l-3-1c-1-2-2-5-2-18v-17s-2-1-2-3l-1-7c1-4-1-9-3-8-1 1-1 8 1 13l1 11 1 18v10c-3 3-4-1-4-10l-2-11c-1-2-1-2 0 0l-1 3h-3l-1-16c0-2-1-3-2-3-2 0-3-2-3-5v-6l3-2c2 0 2 1 1 5v4l3-1 1-6v-7l2-11 1-15-1-8c-2 0-2 1-2 6v23l-3-1-6-1c-2-1-2-1-1 1l1 3-1 3a105 105 0 0 1-1 22h-1l-1-14c-1-10-1-13-3-14l-2-6-1-3c-1 3-3 2-4-2-2-4-4-5-2-1v12c-1 1 0 4 1 4l1-4 2-3 1 8 1 8c2 1 2 3 0 14l-1 4-3-4c-2-3-3-8-1-10 1-1 0-9-1-11l-1 1c-1 1-1 1-3-1-1-2-1-2-2 1l-3 3-1-2c-1-4 0-13 1-13l1 3c0 2 1 3 2 3v-1c-1-1 0-3 1-3l2-4c0-3 0-3-3-2l-7 4c-3 3-3 4-3 8 1 6 0 9-2 8l-1-7c-1-6-1-7 2-8l2-2 2-4c2-1 2-2 1-3l-2-3c-1-1-1-1-1 1l-1 5-2 3-2-6-1 4a219 219 0 0 1 0 12c-1 4-1 4-2 3-2-1-2-3-1-8 0-7-1-12-3-17l-1-6v-4l-2 2-1 15-1 13-2-1a369 369 0 0 1 3-59h2l2 4c0 2 1 2 2 2l2 2-1 5-3 3c-2-1-2 0-2 1l1 2 3 2 2 7 1 5 2-14c1-11 1-14 3-15 1-1 2-3 1-9v-12l2-9c2-3 2-7 2-10l1-8 3-1 1 6v6h4c3 0 3 0 2-1-1-2-2-8-1-12 1-2 1-3-1-3l-2-2c-1-2-2-2-3 0s-1 2-3 0c-3-3-8-14-8-17l-2-4-2-7c0-6 0-6 2-6s2 0 2 4c0 5 1 7 3 7l1 2c2 7 3 8 5 8s3 0 3-2c-1-8-2-12-4-14-2-1-3-4-4-6l-1-5c-2-1-1-7 1-10s2-3 3-2c1 6 1 6 3 4 2-3 8-6 9-5v6c0 5 0 5 3 4s3 0 4 3c0 4 0 5 4 5h4l-1 5c0 5 0 5 3 5s3 1 3 3c-1 3 0 3 2 2 3-1 4-3 2-4l-2-6c0-3-1-5-2-5h-2c-3-1-5-3-6-10l-3-8-1-8c0-7 0-7 2-7s2 0 2 3l1 4 2-4v-5l-1-5c1-3 0-4-1-4-2 0-2 0-2 2l-2 2h-1l-1-1-2 7c0 6 0 6-4 7-3 1-4 1-5-1-1-1-1-1-2 1l-2 2-3-2-3-2-4-2c0-1-2-3-4-3l-5-5-3-2-1 4c0 4-2 7-3 5l-3-2-2-2 1-2 3-10c0-3 0-4-2-4l-2-1c-1-2 0-9 1-10 2-2 4 2 4 6v3c1 1 2 0 3-1l2-2c1 0 2 1 2 4s0 3 2 2l5-1c2 0 2 1 2 2s0 2 0 0l4-1 2 3c0 4 2 10 5 11 1 0 2 1 2 4s0 3 1-1c0-4-1-6-3-8-2-4-2-8 1-9 3 0 3 0 3 5s0 6 2 6c1 0 2-1 2-3 0-3 3-6 5-5 1 1 4-2 6-5l3-1 1 4c-1 2 0 4 1 4 1 1 2 2 1 6-1 6 0 7 2 10l3 6 1 2 1 3c0 2 1 3 2 3l1 2c-2 4-2 9-1 11 0 2 3 3 2 1l1-7-1-9c-2-2-2-4-1-7l-1-4-2-3-3-3c-2-1-2-5 0-7l3-2c1 0 2-1 2-4l1-4-3-1c-3 0-5-4-5-7 0-2 2-4 4-3l1 2c0 2 1 2 3 2l3-1 2-1 2-1c0-2 4-2 6 0l1 4c0 3 2 4 3 2l4-1 6 3c3 3 9 5 10 2 0-1 0-2-2-1-4 0-7-2-6-5l5-1c3 0 4 0 3 2-1 3 2 2 4-2l3-5 3 3c1 2 2 2 3 2 3-1 15 3 15 4l2 1 2 2 1 9c0 6 0 6 4 9l4 4 2-1-2-1c-1 0-3-1-4-4v-6l2-2 3 2 2 3 1-3 2-3c2-1 3 0 5 2l2 2h5c2 1 5 2 6 4 2 4 5 5 7 1 0-2 2-3 3-3 4-1 5-6 3-10-1-1-3-3-5-3l-4-3 3-3 12-1c10 0 14 1 13 4-1 1-2 2-5 2l-5 1-1 5c0 3 0 4 2 4l2 4c0 5 1 9 2 9l3-4c1-2 3-3 5-3s3 0 3 2l2 4 1 3c0 2 4 3 7 2 2 0 7 3 7 5s4 5 6 5c1 0 2-1 2-3l2-3 3 1 3 3c2 1 2 2 1 4 0 3 1 5 2 2l2-2 3 2c1 2 1 2 1 0l-3-8c-2-4-2-6-2-9v-12c0-3-1-6-3-8l-5-4-7-1-5-2-5-2c-2 0-2 0-2 2 0 1-1 2-4 2l-5-1c-3-2-3-6 0-6l3-3-1-7v-6c2-3 5-1 7 4l2 7c1 2 2 2 4 2h4l2 3 7 2c5 0 6 0 8-2l3-2 1 2 8 1 10 2c2 1 2 1 4-1l2-5-2-9-5-9c-1-1-3-3-3-5s0-3-2-3l-2-2 4-3h6l4 3 2 4c2 1 2 4 2 10l2 9 1 3 4 2c2 1 3 1 3 3 0 3 3 4 12 4 5-1 6-1 7-3v-6l1-7c0-2 1-3 3-3l4 2 1 6c0 4 0 6-2 8l-1 3c1 2 7 3 8 2l4-7 4-5c2 0 4 3 6 9 1 2 1 2 3 0 3-2 3-3 2-7l-3-5-1-3c0-3 4-12 7-13l1-2-1-1-2 1-4 3c-2 2-4 3-5 2l-3-2-3 1-4 2-5-2v-5l2-2c4 0 7 2 7 3 0 2 0 2 1 0 2-2 2-8 3-14 0-1-1-4-3-5-2-2-2-3-1-5v-4h-5l-1-3c0-3 0-3-5-3l-6-1c-2-1-2-3 1-4 1 0 3-2 4-5l3-3 3 2v-3l-2-9-2-6-1-5-5-1h-17l-2-1-1 2c0 2-1 3-4 2l-2 2-3 3-4-3-6-2c-3 0-4 1-5 3v5l2 4c0 2 6 7 11 9 3 0 6 2 7 4 3 2 5 2 10 2s7 0 8 2v3l-5 2c-3-1-4 0-4 1-1 4-1 5-4 5l-3-2c-1-1-2-3-1-4 0-2-1-2-10-2-7-1-10-1-11-3-2-2-3-2-7 0l-12 2c-6 0-7 1-7 2v3c2 2 2 9 0 10-2 2-4-2-4-6 0-2-1-3-2-3-1-1-3-2-3-4l-1-3-14-1h-28l1 2 2 2-3 1-5 1v5l2 10c0 4 1 6 2 6l5 1c3 1 4 3 3 5l-11 2h-4c-2-1-2-1-2 1l-3 1c-4-1-6-4-5-6l4-7c4-4 4-4 4-11 0-5-1-7-2-8l-3-4-3-2-24 1c-6 1-6 0-8-2l-2-4 4-3c3-1 3-1 1-5l-2-5c-1-1 0-5 2-7l2-4-4-4c-4-3-6-3-17-4l-13 1-6 1c-5 1-6 1-6-1s0-2-7-2l-11 2a17 17 0 0 1-15 1c-3-2-7-3-10-3a481 481 0 0 1-55-3c1-2 2-2 14-2 4 0 5 0 4-1l-10-1-8-1 4-3h14l12-1 1-4c1-3 1-4-4-4h-6l-5-1H17v-2l4-1 3-1c1-1-1-4-5-5-2-1-4-2-3-3l3-1c2 0 3-1 3-2v-3l-1-7-3-3c-2 0-2 0-1-2h6l7 2 3 2c1 2 0 5-2 5l-2-2-2-2v4l1 6v4l1 3 2 2 2 2 4 1c4-1 4-1 5-6a531 531 0 0 1 1-18c-1-2-2-6-1-8 1-5 3-11 5-11l1-1c0-2-2-2-5-2h-5l-1 5v8c1 2 1 3-1 4-3 1-5-2-5-7l-1-7c-1-1-2-1-2 1-1 1 0 3 1 4 1 4 1 4-2 5-2 1-4 2-5 1l-1-5c0-4-1-4-4-5-2-1-3-1-3-3s0-3-2-3l-4-1c-2-1-2-1-1-3l4-2c3 0 2 0-4-2l-3-2 2-2c4 0 3-2-2-2-3 0-4-1-4-2 0-3 3-4 8-3h22l7-2 3-3h9l16 1h15v-4l-2-6c-2-1-2-2-1-4l2-2v-3l1-5c1-2 2-2 4-1 2 0 4 2 5 4l1 3 2-3 3-3 1-4c0-3 0-4-2-4l-4 1c-3 1-3 1-3-2l-2-6a105 105 0 0 1 2-45v-9l-1-11 1-7c2-5 3-10 2-18l1-12c2-2 2-7 2-23 1-17 0-20-1-23-2-2-2-4-1-7l2-7c2-2 2-6 2-12l1-12-1-4v-4l1-8v-7c1-2 1-3-1-4-2-2-2-3-1-3l2-4 1-4c1-2 2-2 3 0 2 2 2 5 2 24 0 23-1 32-2 35l-1 23v22l5-1v14l-1 16c0 3-4 3-5 0v-4l1-5v-2c-2 0-4 10-4 16l-1 12c-2 5-3 13-1 12h2l1 11-1 11-2 4c1 2 5 2 6 0s5-2 5 0l2-1c1-2 2-2 3-1l2 6-1 5c-1 1-2 0-3-1-3-1-3-1-3 1l-1 8c0 5-1 6-4 5-2 0-1 3 2 4 2 0 2 1 1 4 0 3 0 4 2 4 2 1 2 2 2 5l1 4v2l-1 6c0 4 2 7 3 6l1-3c0-3 2-7 4-8h2c1 0 2 1 1 3v9c0 5 0 6-2 6l-1 2-3 4c-1 1-2 2-1 3h6l1-4 2-5c2-2 2-4 2-8l2-7 2-6c0-1 0-3 2-4 4-2 4-1 4 4l-2 7v23c2 1 3-2 3-12l2-12 3 3 2 4 3-2c0-1 2-2 3-1 2 0 3 5 2 9l-2 2c-2-1-2 0-3 2l-2 3v1c2 2 2 2 5 1l6-4 4-6c1-2 1-2 3 0s2 3 0 9l-2 3 12 1-1-4-1-6 3-2c2 1 3 1 2 4l-1 6c0 2 0 2 4 2l6-3h5l4 2c2 0 3-2 4-6l2-8h-2l-4 2c-1-1-2-2-2-5l-1-10a320 320 0 0 0-8-35l-2-9-1-8-1-6-1-13a262 262 0 0 0-3-38l-2-12-3-12 1-7a524 524 0 0 1 2-78c0 2-3 1-4-1-2-2-2-22-1-26l3-3 2 4v5l2-4 4-3 1 8 1 8v4l-1 11-1 9-1 22 2 38c2 1 2 3 1 8l-2 7v3a409 409 0 0 1 5 61l3 14c3 8 6 23 5 26-1 4 1 11 4 14l2 3v4h5c3-1 3-2 3-4l-1-3v-7l1-2-2-7c0-6 0-6 2-9 2-2 3-3 3-8-1-7 2-21 3-22 8-7 8-6 8-13l2-10c2-2 2-4 2-9l-1-9c0-2 0-5 2-8 1-4 2-7 1-11a593 593 0 0 1-1-81V88l-2-14a130 130 0 0 1-3-13l1-5h3l2 4c0 3 2 4 3 1s3 0 5 6v15l-1 22 2 26c1 4 1 5-1 6s-2 2-2 7c1 11 0 38-1 44l1 7 1 7-1 11-1 11-1 8 1 7c2-1 4 5 4 12 0 5 0 6-2 6l-1 6c-1 7-2 9-4 6l-2-1-2 8c0 7-1 9-2 10-2 0-2 1-2 6 1 3 0 5-1 7v1l2-4 3-7 3-8c2-5 2-6 4-7 3 0 3 0 2 4l-1 8c-1 5-1 6 1 4h4v4c-1 2-2 3-5 3-1-1-4 0-5 1l-2 4 2 2c2 1 2 2 1 5-1 4 0 7 2 6l1-6c-1-6 0-10 3-10l2 2c0 2 1 3 3 3 3 0 3 0 3 9-1 6 0 9 1 9l2-2 3-1 1 12v12c1 0 2-1 2-3l1-4 3-1 1 6-1 7 3-2 3-3c0-1 0-2 2-1 1 0 2-1 2-3l-2-3c-2-1-2-2-2-5s1-4 2-4 2 1 2 3 1 3 2 3l5 3c2 2 3 5 3 7l-2 4c-1 1-2 0-3-1l-2-1-1 2-4 2c-2 0-2 0-2 2s5 6 8 6l3 1c1 2 2 2 4 0 1-2 2-3 1-6l1-4c2 0 2-1 2-5v-6c1-2 3-2 3-2l2 5c1 4 0 5-2 9-2 2-3 6-3 7l-2 7v4h3c2-1 2-2 2-8-1-6-1-7 1-8l4 1c3 1 3 1 3-1s1-3 4-3c2 0 3 0 5 5l4 6 4 2 4 3 2 2 2-2 2-2 4 4c3 3 3 3 8 2l12-5c4-3 8-4 9-4 2 1 6-4 6-6l-1-3c-1-1-2-15-1-21a718 718 0 0 0 3-26c-1-1-2-2-1-3l-1-4c-3-3-4-8-4-11l4-4c2-1 3-2 3-4 0-3 0-5-2-7-3-4-6-12-5-14l2-1c2 0 10 8 10 10l1 2v-7c0-2-1-3-3-4l-3-3-1-6-1-7-2-5-1-1-6-4-4-6-1-5v-4c2-2 5 0 7 4l2 5c2 2 2 0 1-2l-1-2c1-2 4-1 6 1l1 7c-1 3 0 6 2 10l3 7 2 4 1-1 2-1c3 0 3 0 3-6 0-5-1-8-2-9s-2-4-2-13l3-28 3-1 2 9-1 12-1 7c1 4 1 5 3 5l4-2 2-1-1-5v-9l2-10c1-6 1-7 3-7s2 1 2 7l-1 9-1 12c0 8-1 11-3 16-3 5-3 5-5 4s-3-1-2 2l3 8 2-3 3-2c2 0 5-9 5-18l2-12c0-5 3-8 5-5v4l-1 4c1 3-1 15-3 21l-1 7c1 2 1 2 4-1l2-5c-1-3 0-6 3-6 1 0 2 1 2 3 0 4 0 4 1 1l3-7 2-4h-3l-2-1 1-2 4-7 7-9c2-2 3-5 3-7l1-4 4-6c1-3 3-4 4-4 2 0 2 0 2 2s-1 4-3 5c-2 2-3 4-3 7s-1 5-5 11c-5 6-6 7-5 10l1 6-3 3-1 4c0 3 1 3 4 3 5 0 9 3 9 5s-3 3-5 1c-2-1-3-1-5 2l-7 9-5 7-4 7-5 8c-2 2-2 3-2 10l-1 12c-1 4-2 5-3 5-2 0-3 0-3-2 0-3 0-7 2-8v-8l-1-10c0-3 1-3 3-3s3-1 3-2l2-3 2-2-2-1c-2-1-2-2-2-5s-1-4-3-3l1 2v3c0 1-1 2-5 1l-5-1-1 5-1 10c0 5 0 5 3 6 2 0 3 1 3 4l-1 8-4 4-4-2v-10l-1-6c-1-2-2-2-2 0l-1 3c-2 1-3 1-5-1s-2-2-2 1l-2 4-2 6v4l3-3 4-3 1 5 1 10v5l2-3c1-3 2-4 5-4 2-1 4 0 5 1l4 2c2-1 2 0 3 2v5l-2 2c-2 0-3 0-3-2-1-1-1-2-4-1-2 0-2 1-2 3s0 2 1 1 2-2 3-1l1 4-3 13-3-1-4-2-2-2-1-1-1 3c0 3 0 3 2 4 2 0 3 1 2 3l2 6 3 3v2s2-2 2-5c1-4 2-5 4-5s2-1 2-7l1-8c1-2 3-2 4 1 2 8 2 10-1 14l-1 5 13-4 2-1 5-2 7-2c3 0 5-1 5-2l4-1a244 244 0 0 0 34-9 721 721 0 0 0 56-12l10-1a286 286 0 0 1 94 3l5 1c2 2 3 2 4 1l6-1 12 2 21 5 11 3c3 2 8 3 10 3l8 2a410 410 0 0 1 58 24l15 7 11 5 5 3 16 8c4 3 6 4 11 4a4831 4831 0 0 1 97 2l45 1v3l-21 1c-18-1-20 0-20 1s1 2 6 2h9l20 1h7c3-1 4-2 4-5 1-4 1-4 6-4a1674 1674 0 0 1 66-1c5 0 9 0 15-2h10v3l-7 2c-3 1 4 1 18 1l23-1v9c-2 3-8 7-10 5l-4-1c-2 0-3-1-3-2l5-1c4 0 7-1 7-2l1-2-21-1h-23c-2 0-2-1-2-2 1-1 0-2-1-1l-14 2h-17c-6-2-35-1-37 0l3 1 7 1 15 1c8 0 13 0 15 2 3 1 13 2 14 0l15-1a1459 1459 0 0 0 24 1c1 1 2 2 0 3l-5 1a178 178 0 0 0-32 0h-19l-16-2c-9 1-11 1-10 2s3 2 7 2l10-1h6l2 2c0 1-1 2-5 2s-5 0-7 3-3 3-6 3l-5-1v8l1 10 4 5c2 2 3 9 0 9-2 0-7-12-9-20v-11h-7v10c0 8 0 11-2 14l-2 6c-1 1-1 2-2 1l-2-3 2-8c2-4 2-5 1-11-2-8-6-13-10-13h-9c-2-1-3 0-3 2-1 3-3 4-7 4-5-1-5-1-4 1v5c-1 1-1 3 1 6l3 5c1 1 3-3 3-9 1-5 3-8 4-6 2 1 2 5 1 12l-2 8-3 4v5l2 2 1-2c0-2 2-3 4-1 1 1 2 1 1 3l-3 2c-1-1-2 0-2 1l2 3 8 2c6 0 7-1 8-4 0-2 2-4 3-5l12-1c9 0 10 0 12 2s2 3 0 4l-1 3 10 1c11 0 14 1 12 4-2 2-11 2-113 0a1500 1500 0 0 1-78-1v13h12a691 691 0 0 1 42-3l1-4c2-1 5 2 5 5 0 2 1 3 3 3 3 0 3 1 3 3 0 1 0 2-3 2h-61l-4 3c-2 1-5 3-6 2l-2-2c-1-4-3-5-3-2s-4 5-6 4c-1-1-1-3 1-5 1-1 1-2-2-5l-11-6c-6-3-7-3-10-2s-4 3-4 4l-3 10-4 7 3 2 5 3 6 3c4 2 4 2 7 0l4-6 4-3 2 1-2 9c-2 8-2 8 0 11s7 5 9 4l2-3c0-2 0-4 2-4h2l1 5c0 4 0 4 2 6 4 2 21 1 27 0 3-1 4-2 3-3-3-1-5-8-4-9h6c2-1 5-1 6 1l-3 5-3 4 1 2c2 2 2 2 1 4-2 1-4 2-13 2a117 117 0 0 1-21-1l-6 22 2 2c1 1 3 1 6-1 5-2 15-4 17-2v3l-2 3c-4 2-14 4-20 4-5 0-5 0-6 4l-2 17 8 1 7 2v3h-6c-3 0-3 0-3 3l-2 3-6 1c-3-1-3-1-4 5l-2 9c0 2 1 3 3 3l4 1c1 1 4 0 5-1l5-2c2 0 7 5 7 8 0 2-3 3-6 1l-2-1v5l1 4-2 1-4-2-1-3c0-1-1-2-6-3l-6-3h-3l-3-1v-3l1-3-3-3-5-4c0-2-3-3-4-1l1 1c2 0 3 1 3 4v5c0 2 5 8 11 12l4 4-2 4c-3 3-2 5 1 4 1 0 3 1 5 6l6 8c1 2 3 3 5 2l3 1h3c2 0 3 0 3 2l-1 4-2 5c-1 4-1 4 1 4 1-1 2 0 3 2l1 2 2-3c2-6 3-7 4-7l3 5v5l2-3 3-4c1 0 2 1 1 4l-2 6c-2 1-3 2-2 5 1 5-1 8-4 7-1 0-2-2-2-5l-1-5-1 4c1 3 0 4-1 4-2 0-3-2-9-14l-4-3-2-2c0-2-5-10-7-10a114 114 0 0 1-20-21l-16-1c-12-1-16-1-18-3l-5-1-13-6a331 331 0 0 1-43-5l-10-1h16a425 425 0 0 1 67 4h10c1-1 1-2-1-3-1-2-4-2-15-2l-14-1 1-2v-2l-8-1c-5 1-8 0-11-1l-4-1h6l5-2-1-1-1-1 3-1 4 2c0 2 1 2 13 2l15 1 2 1-2-7c-2-6-3-6-7-7l-6-1-5 1c-3 1-4 0-5-1v-2l3-1h4l1-4c0-4 0-4-2-4l-4-3-2-1c-1 2-11 1-16 0l-6-2-7 2-5 1h-15l5 1c5 0 7 1 6 2l-4 2-5 1-7 3-7 1h6c6 0 9 1 9 3l3 1 13 2 15 2a342 342 0 0 1 33 3h-19c-13 0-19 0-18 1l1 2c-2 2-13 2-14 1l-6-1-6-1-4-1 3-1 8-1h4l-5-1-8-1h-4l-9-1h-10l-2-2-4-2-19-1-34-1-16-2a716 716 0 0 1 69 0l8-2 5-1-3-1c-3 1-8-1-8-3v-4l1-1c0-2 1-2 4-2l3-1-7-1c-7 0-8 0-5 1l3 2-4 1-18 1c-15-1-21 0-20 1l6 2c4 1 4 1 3 2h-11c-6 0-10-1-10-2h-5l-6 1c-1-2 1-4 4-4l2-1-5-1h-11l-11-1c-7 0-10-1-8-3l19-1 18-1c5 0 8 1 10 3s6 3 8 1c0-1 4-2 10-1l8-1-4-1-3-2c-1-2-3-2-9-2l-8-2h14c28 1 35 1 38 3 2 2 11 2 12 0l2-1-1 1c-1 1-1 1 1 2h3c1-1 9 1 8 1l-18 2-2 1 10 1c8-1 11 0 11 1 1 1 1 0 2-3l1-4 15 1c15 1 16 0 15-2l-1-4-2-3-3-3-2-3-3-6-1-5c-1 0-2-2-2-5v-5l-1 4c-1 4-3 4-4 2l-1-5c0-3 0-3-2-3s-4-2-7-6c-3-3-5-7-5-9l2-4-3 1h-5c-2-1-5-8-5-13 0-3 1-4 2-5h4c1 1 2 0 3-2l1-6c1-3 2-3 6-3l9-3 7-2c3 1 3-1 0-2l-20-6-14-6-9-3-6-1-9-3-14-2a332 332 0 0 1-23-3 62 62 0 0 1-18-3l-5-2c-1-2-1-2-1 1l-2 5-8 1h-12l-8-3-3-2c-2 0-4 2-5 4-2 3-4 4-6 4-3 0-3 0-3-2s1-3 2-3c2 1 1-1-2-3-2-2-3-2-6-2-3 1-4 2-4 5v3l2-3c0-2 1-3 3-2 2 0 2 1 3 3l-2 5h-4c-1-1-2-1-4 2l-6 3-6 3c-3 2-3 2-5 0-1-1-2-1-4 1l-3 4c-1 2-3 4-6 5l6 1 10 1 1 2h-9c-7 0-9-1-10-2-1-2-2-2-4 1l-3 4-2 2-4 3-4 4c-1 0-1 0 0 0 2 1 2 6 0 6l-1 3-2 4c-2 2-2 2-1 4 1 1 1 2-1 3-2 2-2 2-1 4v7l1 3c2 0 4 5 2 8-1 2-1 3 1 4 3 2 0 4-5 3-3 0-4-1-4-2-1-1 0-2 2-2s2 0-1-1l-3-3-2-3c-1 0-2 1-2 4v4l1 3c-1 2 0 2 3 3l5 3v3l-4 1h-8c-4 0-5 1-4 4 0 3 0 3-4 4-2 0-3 1-3 2l-1 2c0 1 2 2 6 1 6 0 6 0 5 7l-1 3h-7c-7 0-8 0-8-2-1-2-2-3-6-3h-8c-4 0-7-3-6-5 1-1 0-2-1-3s-1 0-2 2l2 6 3 3 2 2 4 2c4 0 10 2 13 4 2 2 9 2 10 0 2-1 3-2 11-1l11 1 2 2h-6c-4-1-4 0-3 1v2l-10 1-8 1c2 0 3 3 1 4h-12l1 3 4 3 4 2-13 1-8 1 3 1 2 3c0 2 0 2-6 2-5-1-6 0-6 1l-4 3c-3 0-4 2-1 2l2 1-3 3c-3 1-2 1 15 2a972 972 0 0 1 39 5h-20a188 188 0 0 0-37 0l7 1c12 2 15 2 14 4l-10 1h-11s7 2 16 2l21 1 6 1v2h-7l-13 1h-7l5 1 21 1c15 0 20 1 18 3h-71l-2 3c0 2-2 3-3 3l-2-2h-2c-2 2 2 4 13 4l13 3a478 478 0 0 1 115-1c0 2 0 2-47 2a682 682 0 0 0-37 3v2c-1 1 3 1 8 2l11 1v2l-17 1a2116 2116 0 0 0-63-3c-2 0-3-1-3-2-1-2-3-2-3 0l-2 3c-2 1-2 2-2 4l8 1c10-1 22 0 23 2 0 1-4 2-14 2l-16-1c-1-2-2-2-2 1 0 2 1 3 3 2h20l3 1c0 1-5 2-12 2l-13 1-4 15 1 6 2 5c0 2 1 3 3 4 2 0 2 0 2-2s0-2 5-2c4 0 6 1 7 2l3 2 2 2c1 1 5 2 15 2l14 1v1l-9 1h-15l-23 3v3l2 3 2 2c0 2 1 3 2 3l5 1c3 0 4 1 4 2l-6 1-9 2c-2 2-2 2 0 2 3 0 6 2 5 4l-6 1c-5 0-6 0-6 2l-1 13-1 12h4c7 1 10 1 10 3l-11 1h-19c-9 1-9 1-9 4 0 2 1 3 4 3l11 1c5 0 7 0 7 2l-11 1c-9 0-11 1-12 2-1 2-1 2-3 0-2-1-3-2-5-1-4 0-7-1-6-3l3-1c1 0 3-1 3-3 2-3 1-4 0-6-2-2-2-2 1-4l3-5c0-2-5-3-8-2-1 1-2 2-2 5v4l-2 1-1-9 1-9 3 1 4 2c2 0 3-1 3-3 1-1 0-3-1-3l-4 1c-2 2-3 2-5 0l-3-1c-1 0-2 1-2 3l-2 4-3-1-4-2c-2 0-2 4 1 6l2 4h1c2-1 2-1 3 1s1 3-2 5c-3 3-5 3-8 3s-4 0-4-2 0-2-1 0v3l2 1c2 0 3 0 4 2l3 2v5l1 7c2 2 0 4-3 4s-3 1-4 4c-1 2-2 4-4 4l-2 2 8 1c6 0 7 0 9 3l2 3-4 1c-4 0-5 0-7-2l-4-2-6 1v5l1 10c-1 4-2 6-5 8l-3 4 10 1c8-1 9-1 9 1s-2 3-5 4h-8c-2-1-3-1-6 1-2 1-3 3-3 5s0 2 1 1c0-1 1-2 3-2s2 1 2 5c0 3 0 4-2 5h-3l-2-1-1 3-1 4-2 7a276 276 0 0 0-2 50c-1 1-2 1-3-1v-6l1-4a381 381 0 0 1-4-36c-2-2-2-2-3 4l-2 14-1 9-1 7c0 4-1 5-2 4l-3 3-2 3c-1 0-2-3-2-7 0-2 0-3 2-3l2 1 2 1v-5l-1-5-2 1c-2 2-3 2-4 1-1-2-1-1-2 3-1 8-1 12 1 16 1 2 2 5 1 8l-1 5c-2 2-7 0-9-3-1-2-1-2-2 3v6l3-1c2-2 3-2 4 0l2 12-1 13-3 3c-1 0-2-2-1-9 0-8-1-14-3-14l-2 1-1 4c-1 2 0 2 1 2 2 0 3 1 3 2 0 2-3 6-4 6s-2 3-2 8c0 7 0 9-2 11l-2 7-4 22c0 1-1 2-2 1l-4 2c-2 1-2 1-3-2l-1-15c0-11 0-13 2-14 2 0 2-2 3-11a608 608 0 0 1-1-13c-1 7-1 8-3 9-2 0-3 2-2 6l-2 5-2 9c-1 4 0 6 1 6v5l-1 17-1 13 3-2 4-2c2 0 2-1 2-3 0-3 3-5 4-3l1 6c-1 4-1 5-3 5l-4 2-3 2h-3c-2 2-2 6 1 6l2 3-3 3c-1 2-2 2-1 4v4l-1 10c0 7 0 9-2 12-1 2-2 4-1 9 0 6 0 7-2 7-1-1-2-2-2-6v-6c-1-1-2 6-1 17l-1 7-4 5c-1 3-2 3-3 2h-5c-3 2-4 2-3 7l1 7 5 1 3-1-1-7c-1-3 0-5 1-5l2 1 3 1c3-1 3-1 3 2-1 2 0 3 1 3l12 1a398 398 0 0 1 14 2c-1 2-2 2-13 2-14 0-17 1-16 5l1 6c0 2 1 3 4 3l11 1c8 0 14 1 12 3l-11 1h-13c-3 0-3 0-3 2s-1 3-2 3c-2 0-3-1-4-3s-2-3-4-3c-4-1-6-4-2-4s6-2 6-5l-1-3h-5l-2 2-1 3h-2c-2-3-7-3-9-1l-5 3c-2 2-3 3-3 9l1 5 3 2 2 7c0 3 0 4 2 5l4-1 1-9c1-7 1-7-2-7l-3-2c-2-2-2-8 0-8 4 0 7 1 9 3l1 12c0 9 1 10 3 12s4 2 18 1l18 1c2 1 2 2 0 3l-16 1-15 1-1 3c0 3 0 4-2 4-1 0-3-2-4-5-2-4-2-4-6-4l-5 1-2 10c0 6-1 11-2 11-1 1 0 3 1 5 0 2 2 4 3 5v10h9a555 555 0 0 0 34 2v3h-42l2 2 2 2-4 1c-4 0-4 0-3 2l5 5 3 3-4 2-4 3 1 2c2 2 2 5 1 5l-1 2c1 2 0 3-1 4l-2 5c-1 4 0 4 2 3 2 0 4 2 4 4l-4 2c-2 0-2 1-2 3l3 4c2 2 2 2 0 5l-1 6-3 4c-2 2-4 3-8 3l-5-1zm9-70h-2v1l2-1zm8 0c0-2-4-3-6-2-1 1-1 1 1 2h5zm-14-15c0-2-1-3-2-2v3l1 2 1-3zm16-78 1-2-2-1-1 1-1 2c-1 2 1 2 3 0zm3-13v-23l-1-18c0-6-2-3-3 4a2333 2333 0 0 1-2 29l1 7c0 6 0 6 2 6s2-1 3-5zm-19-7v2-2zm36-13c0-9 0-10-2-10-1-1-2 0-2 1l-1 8c0 6 0 8 2 9l3 2v-10zm-45-13-2-1-2 8 3-2c2-3 2-3 1-5zm37-4v-7l-2-1-1 14h2l1-6zm9 2c0-1-1-27-3-35v-6l-1 9a198 198 0 0 0 0 32l2 1 2-1zm-52-7 3-4c2-1 2-2 1-3-2-2-5 1-5 5l1 3v-1zm27-15a1384 1384 0 0 0 0-50l3-3c1 0 2-1 2-3l1-3v-15c-2-10-3-13-5-13a743 743 0 0 0-1 87zm7-12-2-22c-1-2-1 2-1 18v22h2l1-18zm-25-24-1-1c-1-1-1 0-1 1l1 1 1-1zm46-12c1-5 2-7 3-7 2 0 2-1 0-3l-1-6v-5l-2 4c-2 3-2 6-2 8v6l-2 8c-1 5-1 5 1 3l3-8zm-47 6h-1l1 2v-2zm0-9c-1-1-1 0-1 1 0 2 0 2 1 1v-2zm37-14c-1-1-1 0-1 1 0 2 0 2 1 1v-2zm11-12-1-3-1 3v5c1 2 1 2 2 0v-5zm-5-8-1 2 1 1v-3zm13-12-1-7-3 6c-1 5-1 6 1 8l2 2 1-9zm-24 6v2-2zm-19-2c-1-1-1 0-1 1 0 2 0 3 1 2v-3zm31 1-1-2-1 1 1 2 1-1zm-47-8 1-14v-14c1-2 0-16-3-20l-1-7c0-4-2-4-3 0l3 15c2 2 3 8 2 9l-1 19v18l2-6zm20-3c-3-7-4-3-1 4 2 4 3 5 3 3 1-1 0-5-2-7zm11 4c0-2 0-3-1-2l2 5-1-3zm7-4c0-3-1-6-3-7l-2-4-1-2v3l1 6 3 5c0 2 1 3 2 3v-4zm12-5c2-6 2-13 1-16-1-1-1-1-1 1l-1 2c-1 0-2 4-2 10v9l3-6zm9-20c0-3 0-3-1-2l-1 6c-1 4-1 4 1 2l1-6zm-35-12c-2-10-3-11-5-6-1 5 0 8 2 10l1 6c1 8 2 9 3 2l-1-12zm69 11c-3-5-3-5-3-2v5l3 1c2 0 2 0 0-4zm-20-10c1-7 0-9-1-8l-1 2a625 625 0 0 1 2 6zm-31-2c0-6 0-9-1-7l-1 8c0 7 0 9 2 9v-10zm21 6v3-3zm-47-10a3532 3532 0 0 1 3-45l1-7c0-3 0-4-2-3-2 0-2 0-3 23a1069 1069 0 0 1-1 38l2-6zm47 1v2-2zm-78-9 6-25c2-3 2-6 2-8-1-3-1-3-3-2l-3 5a143 143 0 0 0-4 35l2-5zm95-1c0-4 1-5 3-7s2-3 1-6l-3-3-2-2c-1-1-1 0-1 8 0 13 0 17 1 16l1-6zm14-1c-1-1-1 0-1 2l1 2v-4zm-61 1c0-1-1-1-1 1l1 1v-2zm21 1 1-7c2-13 3-18 5-21 2-4 2-10 0-10-1 0-4 9-6 20a115 115 0 0 1-4 18c0 2 3 1 4 0zm42-5-1-1v1l1 1v-1zm-101-10-1-5-1 4c-2 4-2 5-1 6l2 1 1-6zm17 6-4-3h-10c-1 1 5 3 10 3h4zm96-12c0-4 0-5-2-5-1 0-2 1-2 5v10l2-2 2-8zm-44 0v3-3zm-25-11-1-9-2 15c2 6 3 3 3-6zm44 4-1 2 1 2v-4zm17 2c0-5-3-6-3-1l1 4c2 1 3 0 2-3zm-112-16v-5l-2 3c-2 4-2 9 0 8l2-6zm137-5c-1-6-2-8-3-8l-1 5c0 4 2 7 4 7v-4zm-17-1-1-11v-7l-1 4-1 9c0 1 0 4 2 6l2 2-1-3zm-105-9c-1-2-1 0-1 3s0 5 1 3v-6zm113 3v-6h-1c-2 1-2 11 0 11l1-5zm-35-8-1-7v8l1 6v-7zm-89 1v-9l-2-7v5l-2 7-1 5 2 2c1 0 3-1 3-3zm-9-5-1-13a477 477 0 0 0 1 13zm74-6c0-4 0-5-1-4v10l1-6zm73 4c0 2 2 1 2-2l-1-2-3-3-2-2-1 4-2 5c0 2 0 2 3 0h4zm-28-4v3-3zm-106-2v3-3zm125-5c2-2 2-10 0-9v2l-1 3c-1 2-2 8-1 9l1-2 1-3zm-16-7c-1-2-1-1-1 3 0 3 0 4 1 3v-6zm28 1c0-2-3-3-4-1l1 2c2 1 3 1 3-1zm-182-2v-3l-1 3v3l1-3zm105 1c1-2-1-5-4-6l-2-2 2 4 2 5 2-1zm-31-8-1-1c-2 1-2 7-1 8s3-6 2-7zm65-4zm-144 3v3-3zm14 0c0-3-1-4-1-2-1 1-2 1-4-2l-3-3v3l2 6c4 3 6 3 6-2zm141-2-1-2-1 4c0 2 0 3 1 2l1-4zm-126-10c-1-3-1-1-1 5 0 5 0 7 1 4v-9zm106 8c-1-1-1-1-1 1s0 3 1 2v-3zm60-1v3-3zm-199 0c1-4 0-5-2-5l-2-1c-1-1-1 1-1 3 0 5 0 6 2 6l3-3zm48-2c-1-1-1-1-1 1 0 1 0 2 1 1v-2zm34-3-1-1-1 1v1l2-1zm-65-1v-1l-1 1v1l1-1zm74-8v5-5zm-10 3v2-2zm111-3v-4c-2 0-2 1-2 5v4l2-5zm16 1v3-3zm-181-8c-1-4-1-3-1 4 0 6 0 7 1 3v-7zm-33 3c-1-1-1-1-1 1l1 4v-5zm40 0-1-3-1 3 1 3 1-3zm-33-1c-1-1-2-1-2 1s1 2 2 1v-2zm6 0-1-2-1 3 1 1 1-2zm-1-7c-1-2-1 0-1 2 1 2 1 2 2 0l-1-2zm152 1 2-3c0-2-1-3-3-3s-2 0-2 4l1 4 2-2zm-187-3-2-1-2 1 1 2h2l1-2zm29 0-1 1 1 2v-3zm82-2v4-4zm83 1c-1-1-1-1-1 1l1 1v-2zm-62-1h-1l-1 1 1 1 1-2zm159-4v-4h-22v3c0 3 0 3 2 2h17l1 2v2l2-1v-4zm-297-6c0-1-1-2-2-1v12l1-5 1-6zm188 5-1-7-2-4v6l2 7c1 2 1 1 1-2zm50 1h-1l1 2v-2zm-17 0c1-1-3-7-4-6s-2 6 0 6h4zm-216-5c0-1 0-2-1-1l-1 2 1 1 1-2zm207-10-2 4 1 7c1 2 2 2 2-4l-1-7zm-150 9-1-2-1 2 1 1 1-1zm236-6v-5c0-2-1-2-2 0-2 4-3 0-3-10v-12h-3l-3 3 1 3c2 0 2 2 1 7l-2 8-2 1-1-4-1-3-2 4c-2 12-2 11 1 11l10 1h6zm-97-1-1-3-1 2 2 5v-4zm-207-2-1 2 1 2v-4zm49-4-1-6c-1 0-2 9-1 12 0 3 0 3 1 1l1-7zm-15 6-1-2-1 2 1 2 1-2zm44-6-1 3 1 2v-5zm102 1c-2-2-2 0-1 3v3l1-3v-3zm-112 4-1-1c-1-1-1 0-1 1l1 1 1-1zm67-4-1-3-1 4 1 4 1-5zm-148-1v-1l-2 2c-1 1-2 2-1 3l2-1 1-3zm205 2 3-1c1 0 2-1 2-3 0-1 0-2-1-1l-5-1c-3-2-3-2-4 0l-1 5c-1 1-1 2 1 1l2 1c1 1 3 1 3-1zm-173-4-2-2-3 1 2 3c2 0 4-1 3-2zm138-2-1-3-1 4c0 3 0 3 1 2l1-3zm94 2 1-3c1-1 2-1 3 1h5l2-3 1-3c2-3 2-3 0-6-2-2-3-2-4 2 0 2-6 6-7 4l-1-4c0-3-2-6-6-9l-2-5c0-5-2-8-3-8l-1 4-2 5c-1 1 0 2 3 2 1 0 3 2 4 5 2 3 2 6 2 10 0 7 2 10 3 10l2-2zm-26 0c1-1 0-3-1-4-1-2-1-2-2 0-1 3 0 5 2 5l1-1zm53 0 4-3 3-2c2 0 2-1 2-7v-7c-1 0-2 2-2 5l-3 5c-1 1-1 0-2-1l-1-3-3-4-2-3v4l-1 4-3 1-1 2 1 3 2 4c0 3 1 3 2 3l4-1zm-62-2-1-1-1 1c-1 1 0 1 1 1l1-1zm17-2-2-2c-1 1 0 3 1 3l1-1zm-130-4-1-3c0-3-3-2-3 2-1 4-1 4 1 3l3 1c0 1 1 1 1-1l-1-2zm77-3v-6l-1 5-1 5c1 3 2 2 2-4zm60 4-1-4-2-2v5c1 3 4 4 3 1zm-218-3h-1l-1 3h1l1-3zm105 1c1-1 0-2-1-2h-2l-2 2-3 1 4 1 4-2zm90 2-1-2-1-5c-1-4-1-5-3-3l-2 5c0 2 1 3 3 4 3 2 4 2 4 1zm-65-3-1-2-1 2 1 2 1-2zm161 2-1-2-1 2 1 1 1-1zm-302-3 1-9c1-7 1-7-1-5l-3 9 1 8 2-3zm39-2c2-4 3-17 1-21-1-2-1-3-3-1l-1 1-2-10c-1-8 0-8 2-9 1 0 2-1 2-4 0-8 5-7 6 2l-1 6-3 2c-1 0-2 0-1 2l1 3c2 0 4 4 4 7s1 4 3 4c1 0 2-1 1-2l-1-4v-9c-1-7 0-10 3-9 1 1 2 1 2-1l-2-3-2-5c0-2 0-2 2-2 2 1 3 1 3 4 0 2 1 3 2 3l3-2c1-2 4 0 4 3 1 2 1 3 2 2l2-1 2-2-3-6-3-3-1 3-9-4h-4l-5-2-3-3v-4c2-3 2-5 1-7 0-2-2-4-3-4l-4-1v3l1 3 2 1v6l-2 5c-1 1-2 2-1 7s0 7-1 9c-1 3-2 5-2 19l-1 6v4l2-2 3-4c1 0 2 1 2 3 2 2 1 4-1 17v3l3-3zm112 0v3-3zm43 2-3-1c-2 0-2 0-2-3s-1-4-2-4v2l-1 2-2 1 1 1 2 1 5 2 2-1zm-218-5-1 2c0 1 0 2 1 1v-3zm71 2v2-2zm85-1-3-1v3h3v-2zm46 2-1-1-1 1 1 1 1-1zm32-1c0-1-1-1-1 1l1 1v-2zm-124-7-2-3-2-2c0-1-1-2-3-2s-3-1-4-3l-3-6-3-4c0-2-6-9-7-9l-3-1c-1-1-2-1-2 1s0 3-2 3l-3-2v2c0 2 1 3 2 3 2 1 2 1 2 4l-1 5-3 1h-1l3 5c3 3 4 4 6 3s3-2 3-5l-2-4c-2-1-3-3-2-6 0-3 1-4 2-4 2 0 2 1 2 4s0 3 2 2 2-1 3 2l2 4c4 0 5 2 5 8v7c2 2 9 3 10 1l1-4zm21 1-1-4h-2c-1-1-2 0-2 1v5c1 2 2 3 3 2 2 0 2-1 2-4zm33 4v-6c1-5 1-5-1-2s-2 8 0 8h1zm-113-3-1-1-1 1 1 1 1-1zm25-2v1l1 1-1-2zm128 2v-2l-1 1c0 2 0 2 1 1zm37-5-1-6c0-2-7-4-11-4l-5 1 1 4 2 3c0 1 1 1 2-1l6-2c3 0 5 3 5 7l1 3v-5zm-52 1c-2-1-2-3-2-6l-1-4-1 4-3 4-2-2v-10c-1-1-4 1-3 2v5l-1 5 3 1 2 2c0 1 2 2 5 2h5l-2-3zm112-2c0-2-2-4-3-2-1 1 0 4 2 4l1-2zm13-2-2-2c-1 0-2 3-1 5 0 2 0 2 2 0l1-3zm-196 2-1-1v1l1 1v-1zm-107-7-2-10-1-1c0 3-3 2-3 0-1-2-1-2-3 2-3 5-4 9-2 10 0 1 2 0 3-2s3-3 3-2l2 4 1 5 2 1v-7zm188 5v-1l-2 1 1 1 1-1zm87-5-2-11-2 7v9c2 2 4-1 4-5zm-266 0-1-2h-2l-1 4c1 3 1 3 3 2 1-1 2-2 1-4zm138 3-1-1v1l1 2v-2zm-23 0-2-1-1 1 1 1 2-1zm31-4 1-5c-1-4-3-5-3-2l-2 3-3-1h-2v4c-1 2-1 2 1 0s2-2 4 0l2 4c0 2 0 2 1 1l1-4zm-52 1v-8l-1-6-1 8c0 8 0 9 2 9v-3zm-65-3 1-7c0-4 0-4-1-1-2 3-3 12-1 12l1-4zm217 2c3-2 2-5-1-4l-4-2-2-3 1 4c1 5 2 7 3 7l3-2zm73 1h-4l2 1 2-1zm9 0-3-1-2 1 2 1 3-1zm-206-4 3 2 2 1c1 0 1-1-1-6l-3-6-1-3v2c1 3-1 7-3 7l-1 4c0 3 0 3 1 1l3-2zm73 3 3-1-4-4c-3-3-4-5-4-8l2-4c1-1 0-2-3-4l-4-2-1-2-3-3c-4-2-4-2-3 1l3 8 3-1h4c2 2 2 10 0 12l-3 2c-2-2-1 1 2 4l4 3 4-1zm97-9v-17l-1 4-2 6-1 6-3 7c0 2 0 2 3 3h4v-9zm-185 8-1-3c-1-1-1-1-1 1l1 3 1-1zm172-2-1-3-1 3 1 3 1-3zm-147-1-1-2-1 2 1 3 1-3zm-123-3c0-3-1-4-2-4-2 0-2 0-2-2l1-7 1-4h-1l-4 4-2 4 3 7 4 6c2 0 2-1 2-4zm11 1-2-2-4-1v1c0 3 4 4 6 2zm153 0c0-1-1-2-3-2l-2 2 2 1 3-1zm-68-7-1-5-2 3-1 5c-1 1 0 2 2 1l2 1v1-6zm11 2v3-3zm-30-1-1-2-1 3 1 2 1-3zm25 0-1-2-1 3 1 2 1-3zm47 2h-2v1l2-1zm74-3v-6l-1-1c-1 0-2 2-1 4l-2 5c-1 2-1 2 1 2l3-4zm-101-6-1-5-1-1-1 5 2 7c1 2 1 2 2 0s0-4-1-6zm53 7-2-5-2 2 1 3h3zm58-6-2 2c-1 1-2 3-1 4l2-2 1-4zm-227 2-1-2c-2 0-2 2 0 3l2 2-1-3zm82-1v-4l-1 4v4l1-4zm22-2c0-5-1-6-2-5s-2 6-1 9l2 2 1-6zm88 4c1-2 1-2-1-2l-2 2c-1 2 1 2 3 0zm48-5-1-7c-1-1-2 4-2 9 0 3 1 5 2 5l1-7zm-55 3h-1c0 1 1 3 2 2l-1-2zm-58-2v3-3zm9 2c0-3-2-3-3 0l2 1 1-1zm-154-3 2-4c1-3 0-10-3-12-1-2-1-2-2 3v16c1 1 2 0 3-3zm14 2v-1l-2 1 1 1 1-1zm69-4c-2-7-3-8-3-2l1 6 2 1v-5zm10 0v3-3zm-65 1c0-1 0-1 0 0v2-2zm85-1-1-5-2-3v5c0 4 0 5 2 5l1-2zm131-2h-2v2h2v-2zm-92 0h-1l1 2v-2zm16-5-1-4v3l-1 5c-3 2-2 3 0 2s2-2 2-6zm-132 4-1-1-1 1 1 2 1-2zm57-6v4-4zm135 5c1-1-1-5-2-5l-1 2c0 3 2 5 3 3zm76-10c0-6 0-7-1-6-1 0-2 2-2 9 0 5 0 8 1 6l2-9zm-280 7 3 1h3l2-7 1-6h3l3 1-1-2c-2-1-3-4-3-6v-13c-1-1-1-1 0 0l-1 3-2 6c0 2-1 5-3 5h-3l-2-6-1-4c-1-1-2-1-3 1l-1 5c0 2 0 3 2 2 2 0 3 1 3 4s1 3 3 3c3-1 3-1 3 4 0 4-1 5-2 5l-2-2c-2-3-6-7-9-8l-3-4c0-2-1-3-2-3-1 1-5-1-7-4-1-1-1-1-1 2l-1 4c0 2 0 2 2 2s2 1 2 5 0 4 3 4l5 2c2 1 3 2 3 5s0 4 1 3l5-2zm106-2c-1-4-1-5-3-5-1 0-2 1-2 3-1 2 0 3 2 4l3 3v-5zm67 2c-1-1-2 0-1 2h2l-1-2zm-47-4 1-1-9-3c-1 1-2 0-3-1l-1-5c0-2-1-3-2 0v4c0 3 1 4 5 5 4 0 5 1 6 3v3l1-2 2-3zm11 2-1-1-1 2 1 1 1-2zm48-5c0-3-1-5-3-7s-2-2-4 0c-4 2-4 5-1 4l4-1c1 0 2 1 2 3l1 5 1-4zm26 0h-2v3h2v-3zm-117 1c1-3 1-4-1-4l-1 1-2 3c-2 2-2 2 0 2l4-2zm-24-1v-3l-1 2v3l1-2zm183-11v-2l-3-18c1-3 0-4-1-4l-1 3-1 5-2 7 1 12 2 9c1 1 2-1 3-4l2-8zm-189 6-1-6-1 7 1 5 1-6zm19-1c0-9-1-16-2-16s-2 3-2 7l1 9 1 5 1 2 1-7zm85 3-1-4-2-6-3-5h-2l1 7 1 9c0 3 0 3 3 3s3 0 3-4zm27 1-1-3c-1-1-2 0-2 3 0 2 1 3 2 3l1-3zm71-3v-3l-1-1-1 4 1 4 1-4zm-42-4v-6c1-2 0-3-1-2l-3 1c-1 0-1 1 1 2 2 2 2 2 1 4l-2 5c0 3 0 3 2 1l2-5zm-125 3 1-5v-4l-3 8c0 3 0 4 1 3l1-2zm51-5c0-4 0-6-2-9l-3-3v7l1 7 1 3c0 3 0 3 1 1l2-6zm-18-5c1-1 0-1-1-1-4 0-6-1-7-3-2-4-6-4-6-1 0 2 1 2 3 2l3 3 4 6 2 2 1-4 1-4zm-158 3c1-1 1-3-1-14-1-3-1-5-3-4h-2l-1 10c0 7 1 9 3 11 1 1 2 1 2-1l2-2zm87 1-2-6 1-4v-3c-2-3-2-2-2 5v9l2 1 1-2zm-8-1-2-1v2h1l1-1zm149-1-6-7c-1 1 2 8 3 9s3 0 3-2zm-128-1c0-2 0-2-1 0-3 1-3 3-1 3l2-3zm162 0c1-2 0-3-1-4-2-2-2-3-2-6v-7c-2-1-2 0-2 9l1 10c1 2 3 1 4-2zm-203-4-1-5-2 2v4l2 2v2l1-5zm314 4v-1l-1 1v1l1-1zm7 0-1-1-1 1v1l2-1zm-34-1c1-1 0-1-3-2-3 0-4 1-4 2h7zm17 0h-11l5 1 6-1zm-298-4-1 1 1 1v-2zm35-2c-1-1-1 0-1 2l1 2v-4zm114-1c1-4 0-9-1-10s-1 0-2 2l-1 13h2c1 0 2-2 2-5zm-136-1-2 1v3c2 2 2 2 2-1v-3zm85 3c0-1-3-2-4-1-1 2 1 4 3 3l1-2zm-157-4c-1-2-1-2-1 0l1 4c0 2 0 2 0 0v-4zm115 3c0-2-2-3-2-3h-5l-1 3 3 1h4l2 1-1-2zm18 0 4-3-1-2-3-3c-1-1-2-2-3-1l-1 3-1 3v3l1 1 4-1zm-46-2 1-7 1-7 1-3c1-3 1-3-1 0l-3 2-2-2c-4-5-4 1 0 8 2 4 3 9 1 9l-1 1c0 2 2 1 3-1zm38 1-1-2c-2-1-2-1-2 1s2 3 3 1zm187-2 1-1 2-2c0-2 0-3-2-2-2 0-3 1-3 4l1 4 1-3zm-134-2c1-3 0-4-1-4l-2-1-4-1c-1 0-3 0-2 1v1l2 2 3 3 3 3 1-4zm10-1c-2-2-3-2-3-1-1 1 3 6 5 5l-2-4zm-37 3-7-7h-2l2 3c2 0 3 2 4 3l2 2 1-1zm77-3-4-5c-1-1-1 0-1 3s0 4 2 3l3-1zm34 0-2-3-1 1 4 4-1-2zm-213-1-2-2-1 2 1 2 2-2zm148-4-1-4c-4-1-4 0-4 4l1 5h2l2-5zm44 5-1-1v1l1 1v-1zm52-4-1-5v8l1 2v-5zm-223 0c1-2 2-3 4-3 3 0 3 0 2-4l-1-5c-1-1-2 0-1 3l-1 4c-2 2-5-3-5-9 0-5 0-6-2-4l-1 6-1 6c0 1-1 1-3-1l-2-4-2-2c-1 0-2 0-2-2s-1-2-3-2-2 0-2 4 0 5 1 3l2-2c3 0 4 4 3 7 0 2 0 2 2 1l4-1 2 4v4c1 1 4 0 6-3zm176 1c0-1-1-2-2-1-2 0-2 3 0 3l2-2zm-223-2 2-3 1-4 1-6c-1-2-2-2-2 0l-1 6c0 3-1 4-3 5l-2 2c0 2 2 2 4 0zm21-8 1-10c1-1 2-3 1-6 0-2 0-3-1-2l-3-1h-2c-1 1-1 2 1 3 1 1 2 3 2 7l-2 8c-2 4-2 4-1 6l2 3 1 1 1-9zm59 3c0-2-1-2-3-2h-3l-4-1v3c1 1 2 2 1 3 0 1 1 1 2-1s3-2 4-2l2 3c0 2 0 3 1 1v-4zm-52 2c0-2-1-2-1-1l-1 2c1 2 2 1 2-1zm104-1c-1-5-3-9-5-10s-3-1-4 1c0 2 1 5 3 5s4 2 3 4c-1 1 1 3 2 3l1-3zm59-4c-2-3-2-4-3-2l2 4 2 3-1-5zm70-3-1-5-1 4 2 9v-8zm70 6v-1a94 94 0 0 0-25 0c0 1 2 2 5 2 5 1 19 0 20-1zm-167-4c-1-3-3-2-3 2 0 3 0 3 2 2l1-4zm115-3c0-2-1-1-1 2l1 3v-5zm-169-3v-4l-2 2-2 6v4c2 1 4-4 4-8zm92 4 8-1 4 1 1-6 2-8 1-6-2-7c-2-4-2-4-1-7 2-3 4-4 7-3l2 3c0 3 4 11 5 11 4 0 1-11-3-15l-3-4-13-1c-9 0-12-1-13-2h-3l-4 1h-7c-4 0-5 1-5 4-1 1 0 6 1 11s3 8 4 9l4 5c2 4 3 5 6 4l3 1 2 11v2l4-3zm42-3v3-3zm67 2-1-1c-2-1-4 0-4 2h2l3-1zm-325-1c1-3 1-5-1-8 0-2-1-3-2-1-1 0-2 2-1 4l2 6 2-1zm79-12c-1-1-2-2-3-1l1 2c2 1 3 3 3 7v6l1-6c0-5 0-6-2-8zm83 10c-1-1-3 0-3 2h2c2-1 2-1 1-2zm-133 1-1-1-1 1 1 1 1-1zm171-3c-2-3-3-3-3-2-1 3 1 5 3 5s2 0 0-3zm47 1-3-3c-2 0-2 0-1 1v3l2 1c2 0 2 0 2-2zm-115 0c1-1 0-1-1-1l-1 1 1 1 1-1zm-108-5 1-9v-6c-1 0-2 2-2 7l-2 7h-2l-1-6-1-5v7c0 6 0 7 2 6 2 0 2 0 2 2l2 2 1-5zm126 2h-1l1 2v-2zm152-2-2-6-1-4v4l1 5 1 1 1 2v-2zm-25-2c1-2 0-5-1-9l-1-8 2-7c2-1 3-4 3-5l-2-2c-2 0-2 1-3 3l-2 4v6a115 115 0 0 1 2 20c0 1 1 1 2-2zm-233-2c-1-1-1 0-1 1v1l1-2zm101-1-3-2 1 2c2 3 4 2 2 0zm-88-1h4c2 0 2 0 1-3l-3-2c-2 0-4-1-5-3l-5-2-4-1c-2-1-1-6 0-6 1-1 0-1-1-1l-4-2v9l-2 7-1 4 2-4c1-2 2-3 4-3l2 2h4l1 3 1 3 3-1h3zm50-3c-1-3-1-3-1 1 0 3 0 3 1 2v-3zm19 4v-2c-2-1-3-1-3 1v1h3zm-29-3h3l-1-3c-1-2-2-2-3-1l-3 4c0 2 0 2 1 1l3-1zm24 0-1-1-1 1 1 1 1-1zm-138-3-1-1-1 1c0 1 0 2 1 1l1-1zm675 1c1-2 1-2-2-2-4 0-4 0-3 1l3 2 2-1zm10 0-3-1h-4l3 1 4 1v-1zm9 0-4-1c-1 0-3 0-2 1l3 1 3-1zm-412-2c2-1 2-1 1-4l-3-3-2 2c-1 3 0 7 2 7l2-2zm35-6-2-4-2 2v6l2 4 2-2v-6zm-266 1v-8c-1-2-5-4-10-5-2 0-4-1-4-3-1-3-4-7-6-6-1 0-2 7-1 9l3 2c2 1 2 2 2 4l1 3 1-1 2-1 2 1 2 2c3 0 6 4 5 6l1 2 2-5zm-23-2-1 1 1 2v-3zm88 1-1-1-1 2 1 1 1-2zm-27 0-2-3-3-1 1 4c2 2 4 2 4 0zm273-3h-2c-1 1 0 1 1 1 2 0 2 0 1-1zm355-2 2-9 2-8-5-4-3-1a176 176 0 0 0-7 15s1 3 4 5l5 5c1 0 2-1 2-3zm-640 0-2-5-2-2-3-1c-2-1-2-1-1 1v4l-3 2h2l7 1 4 2-2-2zm288-4 1-3c1-1 0-2-2-2s-3 1-4 3l-1 3 3 1c2 0 3-1 3-2zm334-3 2-5-4-1c-3 0-3 0-3-3v-3h-2c-2 1-3 1-4-1l-2-1v4c0 3 1 4 3 4 3 1 4 2 4 5v5l2 1c2-1 3-2 4-5zm-418 2c-1-2-3-2-3 0l1 2 2-2zm98-8-4-1-9-2-7-3c-1 0-2 5 0 6l11 1c5 0 10 0 9-1zm328-8 1-3 3-5c0-3 0-3-3-4h-6l-3 2 1 1 1 5c0 4 1 6 2 7 1 0 4-1 4-3zm-112 0-1-1-1 1v1l2-1zm-51 0h-2 2zm56 0h-3 3zm61-2-1-3c-1-2-2-2-4-1l-2 1 2 2 5 1zm28-1 2-2-2-1-3 1v1l1 2 2-1zm35-7 4-8v-4c-1-3-4-4-6-2l-2 5-3 8c-2 4-2 4 1 6l3 2 3-7zm-43 2-1-1-1 2c1 1 2 1 2-1zm10-1-2-2-1-1-1-2-2-2 1-4c1-1 0-2-2-4l-3-3-1 2 1 1v4c0 3 0 4 3 8 4 3 7 5 7 3zm-16-4-1-1-1 1 1 1 1-1zm21-4 1-3v-2c-1-1-2-1-3 1s-1 7 1 7l1-3zm18-2-2-1-3-1-3-1 3 4c4 4 4 4 5 2v-3zm-339-3c-1-1-1 0-1 2s0 2 1 1v-3zm287-1c1-3 4-6 6-6l3-2c2-2 2-2 4 0l2 2 3-4c1-3 1-4-1-5-1-1-2-2-1-3l2-2c2 0 2 1 2 3s0 2 3 2 6 2 5 3l1 2 1-1 4-5 8-3 8 3 5 2c2 0 1-3-2-5-3-3-4-3-7-3-3 1-3 1-3-1 0-3 2-6 6-10l4-3-2-3-3-4c-1-2-11-7-14-7l-7-6-8-5a76 76 0 0 1-17-8l-2 6c0 2-2 3-3 2v-8c1-2 1-2-1-2l-3-2-3-1c-3 0-5 3-5 6l-2 4-3 2 3 5c2 2 2 2 1 3h-3c-2-2-4-2-4 1l-3 2c-2 1-2 1 0 2l2 3c0 2 6 3 9 2 3-2 5-2 7 0 3 2 0 5-4 6l-4-1c-1-1-1 0-2 2l-1 4v5l-1 3 4-1c1-2 4-3 5-3l4-4 2-4 3 1c1 0 1 2-1 5l-4 6-4 1-3 3c0 1 0 3 2 5l3 2 3 2 2 8 1 6c1 1 2 1 3-2zm2-9-2-5c-1-2-1-3-4-2l-4-1v-3l6-2c4 0 4 0 6 4l1 4 2-4 4-4c2 0 3 3 1 4l-1 5c0 2-1 3-3 4l-4 2-2-2zm20-9v-2l3-3c3-2 4-3 4-6l2-3c3-1 3 0 3 1l3 2 2 2c0 1-3 4-5 4l-3 1-5 4c-3 2-3 2-4 0zm-5-7c0-3 2-3 3-1s0 3-2 3l-1-2zm6-7-3-3c-2 0-3-2-3-3s0-2 2-2h5c2 1 3 2 3 5l-1 4c-1 1-2 0-3-1zm15-3c-1-1 0-1 1-1 2 0 3 0 2 1 0 2-2 2-3 0zm-37-1c-1-1-1-2 2-2l2 1c0 2-3 2-4 1zm13-5c-1-1 1-3 2-2 2 0 1 3-1 3l-1-1zm20 0 2-3c2 0 2 1 2 2 0 2 0 2-2 2l-2-1zm-40-7c-1-2 3-5 5-5l1 2c0 1-2 4-4 4l-2-1zm-9-1c-1-1 0-2 2-2l2 1c0 1-3 2-4 1zm21-5c0-1 0-2 1-1v1c-1 2-1 2-1 0zm-15-2 1-1 1 1-1 1-1-1zm-3-9c-1-1 1-6 2-6l3 1v3c-1 2-4 3-5 2zm65 62-1-6h-5l-3 3 5 6 4 2v-5zm-347 2-2-1-1 1 1 2 2-2zm-20-4c-1-1-1-1-1 1l1 1v-2zm14 0c1-2 1-4-1-4l-1 2-1 3c-2 0-4-2-4-4l-2-2v3c2 3 3 4 5 4l4-2zm337 1-3-3v2c2 2 3 3 3 1zm31-7-2-1-1 2c0 3 1 3 1 2l2-3zm-29-1c1-3-1-3-2-1v4l2-3zm-313-12h-1l-1 4-1 4 2-4 1-4zm343 4-3-1c-2 0-2 0 0 1l2 1v1l1-2zm-367-3c1-3-1-5-2-3 0 2-4 0-4-3-1-2-1-2-1 0l1 7c2 2 3 3 4 2 1 0 2-1 2-3zm357 0-3-2h-3c0 2 4 5 5 4l1-2zm6-1-1-1-1 1 1 1 1-1zm-2-5-2-1-2-1v2c0 1 3 2 4 0zm-380-7-2-1-1 2v2c1 1 3-1 3-3zm14 2c1-1 1-1-2-1s-4 1-3 2 3 1 5-1zm10-3-1-3c-2-1-2 1-1 4 1 2 1 3 2 2v-3zm31 1c0-2 0-3-1-2-1 0-2 1-2 3l1 2 2-3zm238 2c1-1-3-9-5-9s-2 3 0 5l2 4 1 1 2-1zm-261-10c-1-1-2 1-1 3s1 2 1 0v-3zm-98 0-1-1-1 2 1 1 1-2zm-68-4 4-6v-7c1-5 0-6-3-10l-4-4h-11c-10 0-11 0-15 3l-5 2-4 2-6 2c-2 0-3 1-3 2 0 4-3 8-5 8l-2 1c0 2 2 2 6 0l5-1 1 3 1 4 2 2c2 0 2-1 2-3l1-3c1 0 3 0 5 3 2 2 3 3 8 3 4 0 6 0 8 2s4 2 7 2l8-5zm-1-10c-2-2-1-4 1-4s3 3 1 4h-2zm-88 11h7l5 1c1-3 4-4 7-4 2 0 4 0 5 2l3 2 3-1 1-5 2-5c2-2 2-4 0-4l-2-2v-6l-1-5c-1 0-2 0-3 2-1 1-1 1-4-2-2-2-3-3-8-2l-10-1c-2 0-3 0-4 2l-2 2-3-2c-1-3-1-3-4 0l-2 5-3 1c-3 0-3 0-1 2s2 3 0 5l-1 2c1 0 2 1 1 2v6c1 2 1 3 3 3l3 2 4 2 4-2zm498-1c1-2 2-2 5-2l4-1v-3h-3l-5 2c-3 0-4 0-4 3l1 3 2-2zm-286-4v-5l-1 3-1 5c1 3 2 2 2-3zm10 3-1-2-1 2 1 2 1-2zm24-3-1-2c-1 1 0 5 1 5v-3zm17 0v-1c0-2-3-3-5-2-2 2-5 1-5-1l-1-2c-3 0 0 6 4 8l4-1 3-1zm-23-4v-1l-1 4-1 3 2-3v-3zm46 5v-3h-2l-2 3h4zm-111-3 6-5 3-3c2 1 3-1 1-3l-1-3-2-2-1-5c0-4-1-5-3-5l-3-4c0-3 0-3-1-2l-4 2c-2 0-3 1-3 4l-2 4c-1 1-3 0-3-1h-4l-1 7 2 5 12 13 4-2zm323-1c0-1 0-2-1-1v1c0 2 1 2 1 0zm16-2 1-4-3-1-4-1-3-1-3 2c0 1 8 6 10 6l2-1zm-242-4c-1-1-2 1-1 2h1v-2zm-25 1v-1l-1 1v1l1-1zm-12-2v-1l-1 1v1l1-1zm32-2-4-3v2c0 2 2 4 4 4s2-1 0-3zm251-3-2-1-1 2c-1 2-1 3 1 1 2 0 3-2 2-2zm-238 0-2-1c-2 0-3 1-1 3l3-2zm289-4 4-8c2-1 3-4 3-6 1-3 0-4-4-6l-10-3-4 6c-2 2-6 6-7 9-3 5-3 7-1 7l4 2 11 4 4-5zm-315 2h-4l3 2 1-2zm-55-2c2-1 6-3 8-6l5-4c2 0 2 0 2-2l-2-7-2-9-2-6v-2s-2 1-2 3l-7 5-8 3-4 3c-2 1-2 1-1 5v11l2 4c0 2 3 4 5 4l6-2zm73-1c-1-1-4-2-4 0l2 2h2v-2zm-35-5h-2c-1 1-1 2 1 2s2-1 1-2zm373 1-1-1-1 1 1 1 1-1zm-364-2-1-2c-2 0-3 2-2 3s3 1 3-1zm32-1h-2c-1 1-1 1 1 1s2 0 1-1zm267-3 6-6 5-5 1-4c2-2 1-2-6-5a350 350 0 0 0-15-7c-4-1-4-1-9 4l-3 1c-2 0-3-5-2-7s1-2-1-3l-7-2c-4-1-6-3-4-5 1-1 1-1-1-3l-4-2v2c1 2 1 3-1 7l-5 6-4 7c0 2-2 4-3 5-2 1-2 1 2 4l5 3 4 2 7 2c4 1 4 0 6-2l3-6c2-5 5-8 6-6s0 6-2 12c-2 4-1 4 1 7l8 2 5-1 1-4 2-3c4-1 5 1 3 6v4l2-3zm71-2 1-5 1-3 2-4c2-2 2-2-1-3h-14l-6-1-9-2c-2-1-4-3-4-5-1-3-4-2-4 1l1 5c0 4 0 4 10 9l12 5 1-2c0-2 7-8 9-8l2 2-1 1-4 4c-2 3-2 4-1 6 1 3 2 4 4 4l1-4zm-346 0 3-4-2-1-3 2-2 2-3-3c-2-2-4-2-2 1l1 4 3 2 5-3zm20-2-2-6c-1-1-3 9-2 10l3 1 1-5zm-366 3h-3l2 1c1 0 2 0 1-1zm674 0-2-1-1 1 2 1 1-1zm-723-1H46c-2 1 1 1 8 1l10-1zm273-4c2-4 0-6-9-6-5 0-8 0-9 2l-3 1-2-2c-1-2-1-2-16-2h-16v4c0 3 0 4 3 4h4c1 1 2 0 3-1 2-2 2-2 4 0s5 2 5 0 4-2 6 0c0 2 3 2 8 3h14c7 0 7 0 8-3zm90 0 7-6c3-2 3-3 2-7l-1-7v-2l-2-2-2-3h-6c-2 0-4 2-5 3l-5 3-8 2c-2 1-3 2-3 6 0 5 2 10 4 10l1-2 1-2c1-1 4 1 4 4l1 3 7 3 5-3zm70-2-1-5c-2 0-3 2-2 4l1 3 1 3 1-5zm-385 1c4 1 4 0 4-3l-1-4-11-1H91l-2 3c0 2 0 4 2 5 1 2 3 2 10 1l11-1zm160 1c1 0 2-1 2-3l1-3c1-1-6-2-23-2l-25 1v4l1 3 18-1 21 1 2 1 3-1zm-187-4-1-5-12-1-12 1v4l1 4h13l12 1zm134 1v-4l-10-1-18-1-9 1-1 4c0 2 1 2 14 2a155 155 0 0 1 22 2l2-3zm270 2-1-1-1 1 1 1 1-1zm-341-3v-3l-12-1h-12c-1 0-2 1-2 3l1 3 12 1c11 0 11-1 13-3zm21 2c6-1 6-1 5-4v-4l-9 1-10 1-1 4c1 2 2 3 5 3l10-1zm807-3 2-3-5 1-11 1c-1 0-1 3 1 4h6c4 0 5 0 7-3zm-490-5-2 1v4l1 3 1-4v-4zm357 7c4-1 5-1 6-3 0-2 2-3 3-4l2-2 2-8c3-8 3-16 0-20-2-3-2-4-8-4s-6 0-5-2v-3h-8c-7 0-8 0-9 2-1 4-2 5-6 7s-5 3-5 6c0 5 2 7 5 8 3 0 4 0 4-2 1-5 3-8 4-8l6 4 4 4-1-7c0-8 0-9 5-5 2 2 2 2 1 4l-1 4 3 7c2 3 2 6 2 10s0 7-2 8l-2 3-3-3-2-3 2-2 2-4-2-5-5-3-4-2-2 6-3 6c-1 1-2-1-4-3l-3-3-2 3c-1 2-1 3 1 6l2 4 1 3c2 1 15 2 22 1zm-13-5c-1-1 0-2 1-2 2-1 6 0 6 2s-6 2-7 0zm19-16v-4l3-3 3 1-1 4c0 2-2 4-3 4l-2-2zm23 20v-2h-7l-7 1 2 1c3 2 11 2 12 0zm29-2c3-2 4-5 2-5l-3-3-2-3 1 4-1 5-3-1-1-7c0-5 0-6 3-7 1-1 3 0 5 2l3 6 1 4 2-5 1-8v-7c-2-1-2-3-2-7 1-5 1-6-1-8l-4-4-7-1c-4 1-7 2-8 4l-7 3-4 1-1 6c0 6 0 7 3 11 2 3 2 4 1 8v5l3-1c3-1 4 0 5 1 2 3 2 7-1 8-4 1-1 2 6 2 5 0 7-1 9-3zm-14-16-2-3c0-2-1-3-3-4l-4-2 1-3c3-3 7-4 9-2l1 14h-2zm10-5-1-8v-8h3c1 0 2 2 2 9 0 6-1 8-2 8l-2-1zm32 22h-6l-8-1c-2-1-6 0-6 2 0 1 2 2 10 1 6 0 9 0 10-2zm-582 0-1-2c-1-1-1-1-1 1l1 2 1-1zm422-1c-2-2-3-3-2-6l-1-6v-5l1-3h-1l-16-7-3-3 3-1 4 1c2 1 2 0 3-1l3-4 1-11-1-9-1-4v-4l-9-1c-8-2-9-2-10-1l-1 3 2 1c3 0 3 1 2 8l-1 9c-1 2 0 2 1 2 3 0 3 0 2 3l-2 5c-1 2-11 1-15-1-3-3-9-5-16-5l-7-2-3-1-6-3c-3-2-5-4-5-6l-3-5c-3-3-3-4-2-8 0-3 0-6-2-8l-1-5 2-4c2-3 2-3 0-4l-3 1-1 6c1 4 0 5-1 7-1 1-2 3-1 7v5h-4l-5 1c-1 1-1 2 3 3l6 2c2 2 2 2 1 3h-7l-9-2-3-1c-1-1-12-4-14-3-1 1-3 0-5-1h-6c-4 1-4 1-8-1-3-3-4-3-7-2h-8l-10-1c-5 0-6 1-6 3l-3 5c-2 2-3 3-3 5l3 2 3-3c1-2 2-2 13-1l13 1 2-2 3-3 2 3 2 3 25 4 3 1 3 1 4-2c1-2 4-4 5-3l1 6v5l1-2 3-2 23 6h7l3-2c1 0 2 1 2 3l1 4 22 9c3 0 9 3 14 5l12 6c2 1 4 4 2 5-1 1-2 1-4-1l-5-1 6 4 8 5h2l-1-2zm-290-1v-2l-2 2v1l2-1zm-125-3 6-1 10-4c5-3 6-3 4-4l-3-3h-4l-9 5-7 2-3 1 1 3 2 3 3-2zm111-1v-4c-2-4-4-11-3-12 2-2 4-2 6 2l3 3 3 2-1 3-2 5 1 4 1-3c-1-2 2-4 7-4h8c5-1 5-1 4-4l3-6c2-2 2-4 2-6l1-8 1-4-4 1-6 1-4 1-6 3c-3 0-5 1-6 3l-3 2-3-2c-1-2-3-3-3-1l-2 3h-3c-1-2-2-2-6-2l-10 3c-4 2-5 2-5 6l2 5 2 5c1 3 3 3 6 4l8 2h5l4-2zm460-1 2-5v-5l-1-3-3-5-2-8-1-6-4 3v9c1 6 1 7-1 12l-1 7 2 3c3 1 8 0 9-2zm-419 0c3 0 3-1 2-1l-3-1-3 2-1 1 5-1zm168-3c1-3 2-5 4-6 2 0 2-1 3-6l2-6c1-1-1-2-7-4l-9-4c0-2-1-3-4-3s-3 1-2 2v5l-1 8c0 3 1 5 2 5v3l-3 2-3 2-2 1c-1 0-2-1-2-4s1-6 3-8l2-9c0-6 0-6-9-7l-5-1-1 4-3 8-2 10 1 6 5 1a2756 2756 0 0 0 27 6c2-1 3-2 4-5zm195 2c3 0 5-2 4-5l-1-6-2-11c-1-6-1-9-2-8l-3 1c-2 0-2 1-2 5l1 6-3 15-1 4h4l5-1zm-530-2 3-3h-1l-9 1c-6 0-8 1-8 2l2 2c4 1 9 1 13-2zm-207 0-7-1h-7l-4 1h-2 20zm13 1-1-3c-1-2-1-2-2 0l-1 2c0 2 3 2 4 1zm103 0-1-2v-1l1-2c-1-1 0-2 1-3h3l1 2c0 3 3 3 5 0 2-1 2-2 1-9l-3-8v-9l1-7c0-3-1-4-3-3-1 0-2 0-2 3v3c-2 0-3 9-1 10v11l-1 4-2 1c-2 0-3 1-3 3l2 8 1-1zm3-2c0-2 0-2-1-1v3l1-2zm11 2-1-2-1 2 1 1 1-1zm261-1-2-1-3 1 3 1 2-1zm-450-1-10-1a479 479 0 0 0 10 1zm80-1h-1c0 1 1 3 2 2l-1-2zm26 1-2-1-2 1s0 2 2 2l2-2zm7 0-2-1v1l1 2 1-2zm16 0 1-5-1-7v-4c1-2 1-2-1-3-2 0-1-4 1-5l1-5-1-6 3-1c1 1 2 0 3-2l1-3-4-1-7-1-4-1 1 2 2 30v14l2-1 3-1zm106 1 2-2 2-4c1-2 2-2 3-1 2 1 3 1 3-3 0-3-1-5-2-5l-2 1c-1 1-2 2-3 1-2 0-2-1-1-5l1-9v-7c-1-1-1-2 1-3 1-2 1-2 3 0 2 3 5 4 5 2l-1-1s-2-1-2-3-2-3-4-3h-12c-1 1 0 2 1 4l2 10c0 6-1 7-2 8l-2 2 3 2c2 0 2 1 1 8v9l4-1zm-222-2c1-2 0-2-1-1l-3 2h2l2-1zm12 0c0-1-3-2-7-1-2 0-2 1-1 1 2 2 8 2 8 0zm715-3-2-5c-2-1-2-3-2-5l1-5v-4l-3 2-4 2-1 7c1 7 2 8 5 10l4 2 2-4zm-21 1-1-1-1 1 1 1 1-1zm-580-4c0-3-1-4-2-4s-2 0-2 2c0 4 1 6 3 5l1-3zm372 3c3-1 3-2 3-7s0-5-2-4l-6 1c-3 1-4 0-5-1-2-3-2-10-1-13h3l2 3 2 4v-2l1-5c1-1 1-1 3 1l2 4c0 4 3 3 4-2l2-5c1-2 0-2-3-3h-21c-2-1-2-1-2 4l1 6 2 3c0 3 4 15 6 16 2 2 6 1 9 0zm-353-6-1-7-1-4-1-7 2-6c1-2 0-2-4-2-5 0-5 1-3 9 0 3 0 4-2 5-2 0-3 1-3 2l2 1c2 1 2 1 1 6l1 7h5l3 1 2 1-1-6zm59 3-3-6-1-10 1-8v-2c-2-2-6-1-7 0l-1 9v15c-1 2 0 3 4 4l5 1c1 0 2-1 2-3zm94 1c1-1 3-3 5-3a436 436 0 0 0 17-7l13-3c2 0 3-1 3-3 0-3-2-3-8-1l-14 5-4 1-7 2c-3 2-6 2-7 2l-3 1c-2 1-2 2-1 5l3 3 3-2zm243 1 1-2c0-4 1-7 3-10 2-1 3-5 4-7 1-4 1-5-2-8s-6-4-5-2l-1 3-5 1h-5c-2 0-3 0-2 1 2 2 2 12 0 14-1 2 0 8 3 9 2 2 7 2 9 1zm-503-2 2-2-2-4-3-10v-11l1-4-8 1v14a76 76 0 0 1-1 17c1 2 9 1 11-1zm235 0 5-4c1-2 1-2-1-4l-7-4-4-3-1-1c-2 0-2-2-1-3s1-2-1-3l-2-2-1-3h-6c-2 0-2 0-1 2v8l1 8c2 2 6 4 6 2v-2l1-3c0-2 3-1 5 2l3 2c3 0 2 2-1 5l-4 4c0 2 5 1 9-1zm171 0c3-1 4-1 4-3l-2-9c-2-7-2-8-1-9h3c1 0 5 11 5 14l2 4c3 1 7 1 8-1 1-1 2 0 4 1l3 1c2 0 2-2 2-5l-1-8c-2-2-2-3 0-6v-6l-8 1-20 2c-11 0-14 0-14 2l-5 1c-3 0-5 1-6 4l-1 10c1 2 6 6 10 6l5 2h5l7-1zm-477-5 1-7-3 1c-3 1-3 2-3 7 0 4 0 5 2 5 1 0 2-1 3-6zm15 2-2-9c-2-3-2-7-2-9 0-3 0-4-3-3-3 0-3 1-2 3 1 4 0 15-1 16l-1 4c0 2 1 2 6 2 5-1 5-1 5-4zm29 3 1-5v-8l-2-9-1-8c-1-2 0-3 1-5l2-2c-2-1-15 0-15 1v4c0 3 1 3 3 3s2 0 2 6l-1 14v7l3 2h7zm40-3-2-1v4h2v-3zm16-3 1-9c2-1 1-3-1-2l-2-1-2-11 4-4c6-1 4-4-2-4-4 0-6 1-5 2l-4 12-1 4 2 1c3 0 3 0 3 8s0 9 2 9l3 1 2 1v-7zm25 6c1-1 0-3-1-5l-1-14 1-9h-8l1 4v21c0 4 0 4 4 4l4-1zm158-1-1-7-1-9c0-5 0-7-2-7s-2 1-2 8l-1 11v5h4l3-1zm461-8c0-8 0-9-2-12l-3-4-1-1-3-2-5-1-5-1c-2 0-2 1-2 2l1 6 1 10c2 4 5 7 6 5v-3l-2-8c-1-6-1-6 1-6l4 2 3 2 2 3-1 5c-2 1-2 2-2 4 1 4 5 9 7 9l1-10zm-188 4 1-6v-12l-6-1c-6 0-7 0-7 3-1 4 0 12 1 13l2 4c1 2 2 3 3 2l3 1 2 1 1-5zm123 4h-2c-1 1 0 1 1 1s2 0 1-1zm-570-3c1-1 0-3-1-4s-2-1-2 3c0 3 1 4 2 4l1-3zm558-1-5-3-6-2c0-2-1-2-3-1s-2 2 4 4l10 2zm-475-2v-1l-1 1v1l1-1zm29-2-1-2-1 2 1 2 1-2zm-91-2c-1-1-1-1-1 1l1 1v-2zm197 1v-4c0-2-1-3-3-3-6 1-6 1-5 5 1 2 2 3 4 3l4-1zm54 0 1-1-1-1-3 2c-2 1-2 1 0 1l3-1zm-109-2-2-8-1-7v16l2 1 1-2zm448-2-2-7-1-10v-5c-1-1-2-3-1-4 0-2-1-3-2-3-2-1-2 0-1 5v15c0 6 1 9 2 10l3 1 2-2zm-410-7c-1-3-1-4 1-10l2-8v-5l-1-4-3 2-4 2-1 1 2 4c2 2 3 4 3 7l-2 8c-3 4-3 7-1 6 2 0 2 0 3 2 0 2 0 2 1 0v-5zm32 5 5-3-2-1-1-2c0-2 3-4 5-2l1 2 1 1 4-1c2-1 2-2 2-4 0-3 4-7 6-7v-3c-1-2-1-4 1-8l3-6-3-3c-2-2-3-5-3-7l-1-3-1-2-2-3-5 1c-3 2-3 2-6 0l-2-2 3-5c3-3 4-3 7-3 2 1 5 0 9-1l5-4c0-2-1-2-3-2l-6 1-9 3-11 4-5 1-6 3-4 3 2 1c3 2 3 2 6 0 4-2 9-3 10-1l-1 4c-2 1-3 5-3 7v2c1-2 3-5 5-5v4l1 4c1 1 1 5-1 6-1 0-4-2-5-5v2l1 4c2 2 4 6 4 13 0 5-1 7-2 7l-2-1-1-1-1 4-1 6-2 2-2 1c0 1 4 1 10-1zm9-14v-12h3l1 5c0 6 0 9-2 9l-2-2zm9-17c-2-2-1-4 0-4l2 2c0 2-1 3-2 2zm-10-4v-9c2-2 2-2 3 0l1 5c0 3-1 5-2 5l-2-1zm283 34-2-2v2l2 2v-2zm-560-3v3-3zm338 3v-2l-1 2v1l1-1zm-36-2-1-2-1 2 1 2 1-2zm28-4 14-3 4-5 2-5-14 2-12 4-10 4c-2 0-4 1-5 3v4c2 1 2 1 6-1l15-3zm-403 3v-1l-1 1v1l1-1zm185-7c2-1 1-1-2-1s-3 0-2 3c1 6 1 7 2 4l2-6zm247 5c1-1 0-1-2-1l-3 1c-1 1 0 1 2 1l3-1zm-104-1c2-1 2-8 0-12l-2-10c0-7 0-8-4-6l-1 6c1 3 0 7-1 13l-2 9h10zm438-1 1-2-10 1-9 1c0 1 3 2 10 2l8-2zm-88 0h-3c-1 1 0 1 1 1l2-1zm4-1 1-5c1-3 1-4-1-6l-1-7 1-6c0-2-1-3-3-4h-3c-1 1 0 3 1 5 2 3 2 4 1 7l-2 6 2 4 2 5 1 3 1-2zm194-1c1 0 1-1-1-1l-10-1c-7 0-9 0-8 1 0 1 1 2 3 2 2 1 13 0 16-1zm-574-1c2-1 2-1 0-3l-3-2c-1 0-2 4-1 6l1 1 3-2zm71 1 5-1 5-1 1-1 8-4 8-4c3 0 3-3 0-6l-1-3 4-2 4-1 3-1c1 0 2-1 2-5l2-6v-2l-1-8c-1-6-1-7-4-8h-10c-3 0-6 2-8 3-3 3-7 5-9 5l-6 3-6 2 1 8 1 9-1 4 1 5c3 2 7 3 6 0l-2-1 1-3 1-5-2-3v-11c1-3 3-4 4-2l3 18c0 3 1 4 2 4 2 0 3 1 3 2l-3 4-3 4-1 2c-1 2-1 1-3 0-1-1-2-2-5 0l-5 2-2 2c0 1 1 2 4 2l3-1zm27-34 3-2 1 1-2 2-2-1zm-11-5 1-6h2l2 6c0 4-1 5-3 5-1 0-2-1-2-5zm12-3-1-4c-1-3-1-4 1-5h2c2 2 2 11 0 11l-2-2zM65 396l-1-2c-1-1-1 0-1 3 0 2 0 3 1 2l1-3zm98 2-2-1-1 2h1l2-1zm22 1-1-1c-1 0-2 0-1 1l1 1 1-1zm694 0h-3l2 1 1-1zm96 0h-5c-3 1-3 1 2 1l3-1zm-491-3c1-1 17-5 19-4l1-1 8-1 10-1 1-3-1-3h-3l-12 2-14 1-9 2-3 1c-1 1 0 9 1 9l2-2zm55-1h-6c-2 0-3 1-2 2l5-1 3-1zm72 2c0-2-4-3-5-2l-1 2h6zm-471-5-1-1-1 3c0 2 0 2 1 0l1-2zm405 3h-2 2zm167-1 5-1 4 1 1-2 2-5c2-5 2-5 0-10l-4-5c-2-1-5-5-5-7s-1-3-5-5c-5-2-6-2-8-1l-7 1h-5v7c0 7 2 12 5 17v5c0 1 0 2 3 3l5 3c3 1 7 1 9-1zm-8-3c-1-1 0-3 1-4 2-1 2-3 2-8 0-6 1-8 2-8l3 1c2 2 0 11-2 14l-2 4c0 3-3 3-4 1zm-3-21c-1-4 0-7 2-7l3 1c1 1-2 8-4 8l-1-2zm152 24 7-1c2 0 2-1 2-2h-7a344 344 0 0 1-50 1l2 2h46zm116 0-2-2-10-1-9-1h-15c-2-2-7-1-6 2 0 2 2 2 15 2l14 1 13-1zm-685-1-2-1-1 1 2 1 1-1zm49 0-1-1c-1-1-2-2-1-3l3-3 5-3 5-3 3-1 5-3a147 147 0 0 0 23-16c2-2-1-2-5-1l-11 6-8 5-4 2-6 5-5 5c-3 2-4 3-7 2l-7 1-3 1 4 1c3 1 4 3 5 5 0 2 1 2 2 2l3-1zm465-1v-3h3c1 0 2 0 1-3l1-2 7 1 6 1-4-3c-3-3-8-3-10-1 0 1-5 0-6-2l-3-2-8-4-8-5-8-4-8-3-4-1-2-1c0 2 4 4 10 6l10 5 6 3c3 1 4 2 3 3l-2 2c-2 1-12-4-19-9l-6-3-5-1c-4-3-9-5-10-4s7 7 14 10l6 3 3 2 6 2 5 1 4 2c1 3 8 8 11 8l5 2c2 3 4 2 2 0zm-6-6-3-3v-3c1-1 2-1 5 1 4 2 5 4 2 5h-4zm129 7c-1-4-1-4-3-3a107 107 0 0 1-22 1l-9-1c-15 0-16 0-15 1l2 2a310 310 0 0 0 47 0zm-743-2 5-1-6-1-6-1 1-2 1-4-1-2h-20a204 204 0 0 0-25 0h-2l-1 1 3 2a470 470 0 0 0 38 3c2 1 2 1 0 3l-1 3h4l10-1zm-55-1h3l-8-1h-6l6 2 5-1zm-63-1-5-2-1 2 3 1 3-1zm496-3 5-3 1-1-8-1-9-1-9 1c-5 0-8 1-8 2 1 2 7 5 13 6h9l6-3zm29 2v-5c-1-2-1-3-3-2-2 0-3 1-3 3-1 3-1 3-3 3s-2 0-2-3l-2-3c-1 0-2 5-1 6 1 2 4 3 10 3 2 0 3 0 4-2zm-510-1c0-2 1-2 4-2a1901 1901 0 0 0 39-3c0-1-1-2-5-2-10 0-11 0-11-2s1-3 3-3a311 311 0 0 0 3-1h-9l1 2v3l-16 1c-16 1-21 1-15 2 2 1 3 2 3 4l1 3 2-2zm200 0-1-2-4-1h-6l-16-1h-15c-3 0-4 1-2 2 4 2 14 3 28 3l16-1zm40-1-5-2c-3 0-3-1-2-2v-3c-1-1-4 1-5 3 0 2-1 3-10 3h-10c-1 1 14 2 16 2h11l5-1zm581 0v-2a548 548 0 0 0-56 1l5 1h51zm64-2c-1-1-4 1-4 2h2l2-2zm-738 0-2-2-10 1 1 2 6 1c4 0 5-1 5-2zm253 0c6-2 8-2 9-5 0-2 1-3 2-3l2 2c1 2 1 2 8 1l7-1-1-5 1-6v-3l-1-3c0-3 0-3-4-3-4 1-4 1-4-3l-1-7v-5c0-2 3-2 4 0l1 5 2 4 2-4 2-4c1 0 2 2 2 11v10l1 3c0 2 1 3 4 3l5 3c1 2 5 3 11 1 2 0 3-1 2-4 0-3 0-5 3-7 1-2 3-3 3-2l2 3c0 3 3 3 5-2 1-3 3-5 4-5l2 1c1 1-2 9-3 10h-3c-1-1-1 0-1 3l1 3c4 0 10-2 12-4s3-4 2-6l1-5h3l1 3 4 1c3 0 4-1 1-6-1-4-1-4 1-4l2-3v-6c-1-4-1-5-4-6l-6-4c-4-3-4-4-9-3l-5 1-1 1c0 2-3 3-5 2l-4 2h-6l-4-1-1 8c-1 6 0 7 2 9s2 6 0 8c-1 1-1 2 1 3v4l-6 1c-5 1-5 1-5-2l1-7c1-3 2-6 1-8l-1-8c0-3-1-5-3-7l-2-3-7 1-11 2-4 2c-1 1-10 4-15 4-2 0-2 0-2 5l1 9c2 3 2 4 1 9s-1 5 1 5 3-1 4-3l-2-11-1-11 3-2c2 0 3 1 4 17 0 5 1 9 2 9l1 2-6 3a97 97 0 0 0-16 5l3 5 7-2zm14-11c-1-2 0-7 1-9h3l1 6c0 4 0 5-2 5l-3-2zm42-14v-2c1-1 3 0 3 2h-3zm27-2-1-9 2-9c2 0 3 5 3 10 0 4 0 6-2 7l-2 1zm-26-6-1-5c0-4 0-5 2-5l3 1v6c-1 4-2 5-4 3zm13-3-1-7c0-5 2-8 5-7 1 1 2 2 1 3l-1 9-1 6-3-4zm278 37-2-1-2 1 1 1 3-1zm5-1h-2l-1 1h1l2-1zm-769-1-1-3h-4l-7 1-4-2c0-2 2-2 9-2l12-1h4l11 1a3176 3176 0 0 1 14-3l-22-1H49l1-2c0-2-1-3-2-3l-3 3c-2 3-2 3-9 3l-8 1 1 2h6l6-1 1 4v4h14c1 1 3 1 3-1zm150 1-2-2h-4c-4 0-5-3-2-5 2-2 2-2-1-1h-4l-1 2-6 1a117 117 0 0 0-11 1c-3 1-1 3 2 3a124 124 0 0 0 29 1zm-175-2-2-1c-2-1-2-1-1 1 2 2 4 2 3 0zm-10-1c1 0 1-1-2-1s-4 1-2 1l2 2 2-2zm636-1 1-4c-1-1 0-1 1-2l2 1 4 1c3 0 4-1 5-3l2-8c0-4-1-7-3-9l-2-5c0-1-1-4-3-5-1-2-3-2-6-2l-7-2-4-1v3c2 1 2 2 1 5l-1 8 2 5-1 1-4-3c-2-3-3-11-1-13l1-2-6-2c-5 0-6-1-6-3l-5-5c-6-2-9 0-3 2l4 4-1 3c-2 1-2 2-2 5 1 5-1 20-3 21s-2 2 0 2l2 3c1 3 2 3 6 3l4-1-2-3-3-3 2-2v-5c-2-4-2-17 0-19h3c1 1 2 4 2 9l1 8 2 6 1 5 2 4c1 3 2 3 4 3l5 1 3 1 3-2zm-13-9 2-2 2 2c0 1 0 2-2 2l-2-2zm12-8-1-6c0-4 0-5 2-5s2 1 2 4c0 7-1 10-3 7zm-387 16h-2 2zm6 0h-2 2zm12 0h-4 4zm40-4 1-4-2 1a133 133 0 0 1-5 7h2c1 0 3-1 4-4zm-304 1 1-2-5-1-5 1 1 2 4 1 4-1zm193 0h-5l-4 1h5c3 0 5 0 4-1zm17 0-7-1-6 1c-2 1 0 1 6 1s8 0 7-1zm-114-2h-4c-1 1 0 1 2 1l2-1zm13 0h-8c-3 1-2 1 5 1s8 0 3-1zm35 1-2-1h-2l2 1h2zm574-4-3-2-5-2-5-2-5-2v2l4 2c3 0 13 5 13 6h2l-1-2zm-158 1v-2h-8c-7 1-8 1-5 2h13zm-209-3 5-2 2-3-1-2-3 2c-1 2-4 3-6 4l-3 3c0 1 2 1 6-2zm231 1c4-1 4-2 4-6l-2-6-1-8v-10c1-3 1-4-1-4h-5c-2 0-2 0-1 2 2 1 2 1 0 3-1 2-2 3-1 6v5l-3-2c-2-2-2-3-2-8 1-4 1-5-1-5l-3 1c-2 0-2 2-3 7-1 6-1 7 1 10l1 6 2 6c3 4 4 5 7 5l8-2zm-12-9c0-2 3-7 5-7l2 2c0 3-3 5-5 6-1 1-2 0-2-1zm-443 7-3-1c-3 0-4 2-1 3 1 0 4 0 4-2zm-90 0-1-1-1 1 1 2 1-2zm127 0-1-1-2 1 2 2 1-2zm149 0c0-1 0-2-1-1l-1 2 1 1 1-2zm-257 0h-2 2zm7-1-1-1-1 1 1 1 1-1zm68 1h-2 2zm13 0h-3 3zm178-3 3-3c2-1 2-1 0-1s-9 4-8 5l2 1 3-2zm-64-2h-1c0 2 1 4 2 3l-1-3zm337-7v-9l-1-6-2 1c-3 1-3 3-4 7l1 8c2 2 3 5 3 7l1 3 1-4 1-7zm-530 8c1-2 2-2 3-1 1 2 6 1 8-1l2-2-2-3-4-1-4 1-5 1h-4l-2 3c0 2 1 3 3 3l3 1 2-1zm155-2v-3l-2 2v3l2 1v-3zm15 0c0-2 0-3-1-1l-2 3 2 1 1-3zm-47 2-2-1h-2l2 1h2zm371-6-1-7c-2-1-2-3-1-7 0-6 0-6-2-6l-4 1c-1 1-2 4-1 8l-1 10 2 4c1 2 3 3 5 3s3-1 3-6zm-461 2-2-1-2 1 2 2 2-2zm612-1-6-3-5-3c-2-2-4-3-5-2l-8-2-9-4-4-2 2-4c2-2 2-2 1-3l-9-3c-9-4-17-6-22-7h-6c-2 2-2 1-4 0-1-2-3-3-13-3h-12l6 2 7 3c0 2-2 2-6 2-5-1-6 0-6 1l12 5h7l21 6c8 2 8 2 10 1 1-1 3-2 4-1 1 0 2 1 2 3s1 3 4 4a279 279 0 0 0 31 9l8 3c2 0 2 0 0-2zm-60-21-8-2c-3 0-4-1-4-3s0-2 4-2l15 4 3 2c-1 2-5 2-10 1zm-320 21v-1l-2 1 1 1 1-1zm70-4 5-2c2 0 3 0 3-2 0-1-1-2-3-2l-8 2-5 3c0 2 1 3 3 3l5-2zm321 1-4-2c-3-1-3-1-2 1l4 2 2-1zm-53-1c1-1 0-2-3-4-6-2-8-3-8-1l3 3c3 2 6 3 8 2zm-477-3 2-4v-2c-1 0-4 5-3 6 1 2 2 2 1 0zm20-1c2-1 2-1 0-3l-4-2c-1 0-2 5 0 6l4-1zm125-1 1-2h-2c-2 0-3 1-3 2-1 1 0 1 1 1l3-1zm16-2c-1-1-4 1-4 2h2l2-2zm355 2-5-2-5-1-1 1 5 2 5 1 1-1zm-52-1-3-1c-3 0-3 0-2 1h5zm-597-2-1-1-2 1 1 1 2-1zm307-2c4-2 5-3 3-3-1-1-3 0-5 1l-4 3-1 1 7-2zm329 0-5-3-5-2c-2 0-3 1-1 2 1 1 8 4 11 4v-1zm-523-6c0-2 0-3-1-2l-1 4c0 3 0 4 1 3l1-5zm25 2c0-2 0-2-1-1v3l1-2zm221 0 7-2 9-3 8-2 5-2c1-3 4-3 5-2l9 1c6 0 8-1 8-2l3-2h7l6 1 10-2c8 0 9-1 10-2l-1-3h-7l-14 1-18 3-11 3-8 1-12 2-7 2-4 2-21 5v2l7 1 9-2zm-39-2-2-1-1 1 2 1 1-1zm9-3-1-1h-2l-1 2c0 2 0 2 2 1l2-2zm70 1c1-1 1-1-3-1l-9 2c-2 1-2 1 3 1l9-2zm-260-2c0-2 0-3-1-1v3l1 1v-3zm-6-10-1-8-1-3-1 3 1 7v6l-1 4c1 2 1 2 2 0l1-9zm208 8 4-2c0-1-10 0-11 2-2 1-1 3 1 2l6-2zm109-1 5-1c0-1-2-2-6-2l-9 1-4 2c0 2 1 2 5 1l9-1zm54 0-7-1-11-1c-1-1-2 0-2 1l1 2c2 1 18 0 19-1zm-498-1-1-2-1 2 1 2 1-2zm355 0 6-4 9-2 9-1 9-2c10 0 22-3 22-5s-8-1-18 1l-15 3-23 5-7 2-4 1c-1 1 3 4 5 4l7-2zm186-1-1-2c-2-2-1-5 1-5l2-1c0-1-4-3-6-2l-3-1-8-2-10-2h-7l4 2 18 4c2 2 2 2 1 3h-10a30150 30150 0 0 0-27-5l-1 5v3h15c11 0 18 0 21 2l11 1zm-535-2-1-2-1 2 1 1 1-1zm482-5c0-3 0-3-4-4l-11 1h-10l-6-1h-9c-1 0-2 1-1 2a474 474 0 0 0 30 3l12 1zm-483-1-2-1-3 1 3 1 2-1zm135-1c1-3 0-10-1-10l-2 8 1 4 2-2zm133-10c-1-1-1-1-1 3 0 5 0 5 1 2v-5zm164 4 14-1c10 0 11 0 12-2 0-2-1-2-4-2h-7c-3-1-4-1-7 1l-17 1-15 2c-2 1 3 2 11 2l13-1zm44-2 14 2h7v-2l-10-2h-24l1 3h2l10-1zm-359-7-2-6-1-7-1 4v12l3 2 1-5zm-121 0 1-3c0-2 0-2-1 0-2 2-3 5-1 5l1-2zm118-24c0-2 1-2 2-2 2 0 3-1 3-3v-3l-1-4v-3l-2 3-2 6c1 1 0 3-1 4l-1 4c0 2 0 2 1 1l1-3zm150-12c0-1 0-1 0 0v2-2zm-139-7-1-4v3l1 4v-3zm148-7 2-3h-2l-2 2c-1 2-2 4-1 7l1 4v-4l2-6zm-144-7v-2l-2-2-2 4c0 4 0 4 1 2l3-2zm137 1-1-1-1 1 1 1 1-1zM99 218l-1-3c-1-1-1 0-1 3 0 4 1 5 2 0zm201 998-2-2c0-1 2-2 5-2l5 1v3h-8zm-45-3 1-3 2 1c1 2 0 4-1 4l-2-2zm-20-7-2-2 2-1 14-2 14 1c2 1 2 3 2 3l-11 1-14 1-5-1zm96-1-2-1c1-2 3-3 11-3h10c2 0 2 0 2 2 0 3-1 3-10 3l-11-1zm-45-2c0-2 1-2 3-2l2 2c1 2 0 2-2 2s-3 0-3-2zm11 1v-3c2-1 6 1 6 3s-6 2-6 0zm-223-2-1-4 33-1c18 0 33 1 33 2 2 1 0 4-3 4h-8a446 446 0 0 0-54-1zm81 1 3-3 1 2c0 2-2 3-4 1zm91-5c-1-1-2-5 0-5a298 298 0 0 1 17 0l3 3-3 2h-17zm-48-16c0-2 3-3 4-2l1 2-3 1-2-1zm65-3 2-2 2 2-2 2-2-2zm-51-3c-1-2 0-3 2-3h2v2c1 1 0 2-1 2-2 1-3 0-3-1zm-11-3v-3c2-1 5 0 5 2-1 3-4 3-5 1zm3-6-1-4 3 1 2 3-2 1-2-1zm151-6-3-3c0-1 1-2 4-2l5 2 1 2-3 1h-4zm31 0-2-4c0-1 0-2 3-2l6 1h4l-1-2c-1-1-2-2-1-3s5-2 5 0v5h6c5-1 7-1 8 1v3l-10 1h-12l-3 1-3-1zm-74-1v-3h13c8 0 10 0 10 2l-10 1h-13zm137-1c-1-2 0-5 3-5l2 2-2 4c-2 1-2 0-3-1zm-162-4-1-3c0-2-1-2-4-2l-6-1-7-2-7-2c-1-1 0-2 2-2 5-1 19 1 23 4 2 2 4 2 11 2 8 0 9 0 9 2s-1 3-5 3l-10 2-5-1zm-24 0-8-1c-8 0-11-1-10-3h13c10 0 12 1 12 2s-1 2-3 2h-4zm107-3c0-2 1-3 4-3l5 2c3 2 0 3-5 3-4 0-5 0-4-2zm-230-2c-2-1-2-2-2-3 0-2 2-2 10-2s11 1 11 2v2c-1 2-16 2-19 1zm178 0c-7 0-8-1-8-2 0-2 2-2 12-2 11 0 12 0 12-2l2-3 6 1 5 3-2 2h-5c-3-1-4 0-4 2s1 2-18 1zm-21-3v-3c1-2 5-2 6 0v2c-1 2-5 2-6 1zm-85-7-1-4c1-2 2-2 3-1l3 3c0 2-2 5-4 5l-1-3zm54-16c-6-1-9-2-5-4 2-1 20-2 23-1 2 0 3 1 3 2l-2 2-19 1zm-6-42c-1-1 1-6 3-7l3 1c1 1 0 5-3 7l-3-1zm-23-12v-6c2 0 4 5 3 7-1 1-2 1-3-1zm0-16-2-6c0-4 1-7 2-7 1-2 0-2-1-3-2-1-3-5-1-6s5 2 4 4l1 3c1 1 2 3 1 5v6c0 2-2 4-4 4zm16-11c-2-1-2-3-2-10l1-10h3c1 2 2 5 2 11l-1 10-3-1zm10-1 2-2 1 2-2 2-1-2zm-28-13-2-3c-2-1-1-4 1-5v-2l-2-3 3-4 4-2v3l2 4c1 1 2 3 1 6l-2 6c-1 2-4 2-5 0zm35-6 1-4h3c1 3-1 7-3 7l-1-3zm1-9 1-2h2c2 1 1 3-1 3l-2-1zm-19-9-1-16c0-13 1-15 2-15h3c1 2 1 1 1-1l-2-5c-2-2-3-3-2-7 1-5 1-5 3-5s3 0 3 2l1 3c1 1 2 6 2 19l-1 18c-2 3-3 0-3-6l-1-8c-1-1-1 2-1 7v11c-1 3-2 4-4 3zm-97-28 2-11 2-2 1 9-2 10-2 2-1-8zm-20-100c-1-2-2-18-1-22l3-4 1 13-1 14-2-1zm182-20-1-6 1-5c2-1 5 2 5 4l-2 5c-2 3-3 3-3 2zm-201-8a2 2 0 0 1 3 0l-1 2-2-2zm10-9v-2h3l1 3c0 2-3 1-4-1zm191-10v-3l6-1c5 0 5 0 5 2s-1 3-5 3l-6-1zm5-12-4-3 5-1 7 1 1 3c-1 2-3 1-9 0zm25 0c-1-2 2-4 6-4l4 2c1 1 0 2-1 2-2 2-8 2-9 0zm-36-13v-3l17-2 16 1-2 3-12 1-15 1-4-1zm40-26h-11l-6-1c-1-4 0-4 17-2 7 0 9 1 9 2l-2 2-7-1zm50-4 1-2 1 2-1 3-1-3zm1-18-2-2c-1-2 8-2 9-1v2c-2 2-3 2-7 1zm-22-13c-1-1 0-3 3-3 2 0 3 1 3 2-1 1-5 2-6 1zm96-1c-2 0-2-1 0-2h3c1 1 2 1 1 2 0 1-2 2-4 0zm-82-1v-1c2-1 4 0 4 1 0 2-3 2-4 0zm19-3-1-2c0-2 0-2 3-2 2 0 3 1 3 3s0 2-2 2l-3-1zm63-5v-3c-2-1-1-3 2-3 2 0 6 5 5 7l-4 2c-3 0-3 0-3-3zm-92-4 1-2h15l1 2-9 1c-7 1-8 1-8-1zm477-1-1-4c0-2 1-2 2-2 3 1 3 5 1 6h-2zm-7-11-1-2 1-3h4c2 2 2 6-1 6-1 1-2 0-3-1zm-379 0c-1-2 0-3 2-3 3 1 4 4 1 4l-3-1zm-5-3v-2l4-2 7-2 5-1 2 3c0 1-2 2-7 3l-9 2-2-1zm-53-3c-2-1-1-2 3-2l5 1c0 2-1 2-4 2l-4-1zm-374-5v-5c0-2 1-3 3-3l2 1v3l-2 4-1 2-2-2zm349 0c0-1 1-2 3-2l15-1a625 625 0 0 0 38 1v2c-1 1-2 2-3 1a421 421 0 0 0-53-1zm458 1c-1-2 3-5 5-4l1 2c0 3-5 3-6 2zm-824-2v-4h3c2 0 2 6 0 6l-3-2zm8 1-1-1c0-1 0-2 2-3 2-2 2-2 2 0 1 2 0 4-3 4zm413-6 1-2 4-1c3 0 4 1 4 2 0 2 0 2-4 2l-5-1zm396-2c-2-4-2-9 1-9 2 0 2 1 2 3l1 3 2 4-2 2-4-3zm-288 0c-5-1-7-2-6-3 0-2 2-2 13-1 7 1 10 2 8 3-2 2-9 2-15 1zm-26-2c-2-1-2-2-1-3 1-2 5-2 6-1l-2 5-3-1zm-502-5v-7l2-2c1 0 3 5 2 10l-2 4c-1 0-2-1-2-5zm828 1-1-5c-1-3-1-4 2-4l1 2 2 4v5l-2 2c-2 0-2-1-2-4zm-811-2-2-5v-4l-4 7v-5c2-11 2-13 4-14 2-2 6-3 7-1l-1 5c-1 3-2 6-1 11l-1 7-2-1zm0-13c-1-1-3-1-2 1l1 1 1-2zm368 13c-1-1-1-2 1-3s17-2 18-1c2 2-1 3-14 5l-5-1zm84 0c0-1 5-3 10-3l2-1h2c2 0 2 0 1-1l-29-4c-3 0-5 0-5-2 0-1 0-2 2-2h3l5 1 9 2a39 39 0 0 0 14 0l4 2c2 0 3 2 3 3l-1 3-10 2a351 351 0 0 1-10 0zm376 1c-1-2 2-7 3-7 1 1 0 6-2 7h-1zm-36-5-5-4-3-4-1-2v-9c1-8 2-10 5-10 1 0 2 3 0 7s-2 5-1 6c1 2 2 2 3 0l3-2c1 0 2 2 2 6l2 7 3-3c2-1 3-2 4 0s0 5-2 5l-3 2c-1 3-5 3-7 1zm-410-4c1-2 5-3 5 0 0 1-1 2-3 2s-2 0-2-2zm-404-2-1-4 2-3c2 0 3-2 3-3l4-1h3c1-1 5 0 5 1l-4 10-2-5-1-4-1 3-3 3-2 3-1 3c-1 0-2-1-2-3zm430 0-2-2 3-1c3-1 3 0 3 1l-1 2h-3zm-65-2c-2-2 1-3 13-3l13 1-8 1-13 1h-5zm1-10c-2-1-2-2-1-3 1-2 2-3 6-3 6-1 21-1 22 1l-9 2-10 2c-2 2-6 3-8 1zm-352-8v-4c1-3-2-3-3 0s-2 3-5 2l-6-2c-2-1-3-3-3-5 0-6 0-6-2-10l-2-9c-1-3-1-4 1-5 1-2 2-1 3 0l5 4 3 3 1-3 2-4c1-1 2 0 3 1v12c1-3 4-2 4 1 1 2 1 3 4 2 3 0 3 0 4 2 1 3 0 9-2 9l-3 4c-1 3-3 4-4 2zm-3-10v-3c-1-2-1-3-2-2h-3c-1-1-2-1-3 1s-1 7 1 8l4-2 3-2zm568 8-3-5c-1-5-1-5 1-7l4-1 2-2 6-1c6 0 8 0 13-2 5-1 10 0 10 2l-2 1-23 6h3c2-1 4 0 5 1v3l-6 1c-3 0-3 0-1 1 2 0 2 1 2 2-1 1-10 2-11 1zm-95-11c-2 0-3-1-3-2l6-1 7 1c0 2-3 3-5 3l-5-1zm65-6c-1-1 0-3 2-3l3-1c0-2 7-1 9 1l5 2h3l-10 1h-12zm30-3c-1-1-1-2-4-1l-3-1c0-2 2-3 6-3 2 0 3-1 3-2 0-2 2-3 4-2 1 1 1 1-1 2v2l2 3 2 1 3 1c1 2-2 3-7 3-4 0-5-1-5-3zm19-1-4-1-3-1c-1-1 0-2 1-3v-2h-3l-1-2c0-2 0-2-4-2l-7 1-4-1c-2 0-2-1-1-2s4-2 9-2h9l3-1-3-2-2-3-1-3-2 1-1 3c1 2 1 2-6 2-2 0-2 0-2-3l1-5c1-2 8-4 11-3 7 1 8 1 7 2s3 3 7 2l7 1 7 1c3-1 3 0 3 2-1 1-2 2-7 2l-8-1h-3l-1 3h17c13 0 17 0 16 1 0 1-5 2-17 2-16 0-21 1-19 3l26 2c8 0 14 0 13 1l-5 1h-33l-2 1v2l20 1c6 0 8 2 5 3h-23zm-5-11h-3 3zm214 8c-2 0-1-15 0-18l3-1v20l-3-1zm-23-4c-1-1-1-2 1-5l4-5c4-1 4 0 0 9l-2 1h-3zm10 0-1-7c0-5 1-6 3-6s2 0 2 2l-3 12-1-1zm-249-1-1-2h13c3 1 1 3-5 3l-7-1zm-51-2-1-2h21c3 2 0 3-9 3l-11-1zm66-2c-2-2-6-2-20-2h-4c-1-1 0-4 2-4s2-1 3-3c0-2 0-2 12-2l11-1c0-2 2-2 7-1 3 1 3 1 3 4 0 4 0 4-3 4l-3-1 1-2c2-1 2-2 1-2h-4l-12 2h-11c-3 2 0 3 7 3 8 0 18 3 18 5s-6 2-8 0zm215-1v-10c2-2 4 1 4 6 0 4-1 5-2 5l-2-1zm-771-3c0-3 0-3 2-3l2 3c0 3 0 3-2 3s-2 0-2-3zm465-5v-3c2-1 17-1 17 1l-1 1-8 1h-8zm161-1-6-2c-2-1 8-2 15-1l6 2-15 1zm-198-3 1-2 2-1 2 1 1 2c-1 2-5 1-6 0zm335-2c1-2 5-3 7-1 1 2-1 3-5 3-1 0-2 0-2-2zm19 1c-1-1 0-5 2-5l2 1c1 1-1 5-2 5l-2-1zm-250-1-5-1c0-2 11-3 14-2v3l-3 1-6-1zm-514-3-1-9c0-2 1-3 2-3l3 3c1 3 0 11-2 11l-2-2zm654 1c-11 0-17-1-17-2-1-1 6-2 16-2h13c4-2 4-1 7 1l3 3-3 1-19-1zm-668-1-1-7 2-4c1 0 2 1 2 3l2 4 2 1-5 4-2-1zm586-2-8-1c-3 0-3-1-3-3s1-2 6-2l11 2c4 2 14 2 28 3 3 0 6 0 5 1l-15 1h-16l-8-1zm204 0c-3-1-4-5-1-6 2-1 6 3 6 5s-2 2-5 1zm-804-2c-1-2 1-4 4-4 2 0 2 1 1 4-1 2-4 2-5 0zm564 1-4-1c-1-2 7-3 12-2l9-1h5v3l-10 1h-12zm-27-2c-2-1-2-2 0-3l6-2 7 2 4 1h-5l-6 2-3 2-3-2zm-79-3 1-3 11-1a1712 1712 0 0 0 14 0c2 2-1 3-7 3l-12 1h-7zm157-1-2-1 7-1c6 0 8 1 7 2h-12zm-31-1-6-1c-2-1-3-1-2-2s16 0 17 1l-2 1-4 1h-3zm224-1 1-2c2 0 3 0 2 2 0 2-2 2-3 0zm-108-1-1-1c2-2 11-2 12-1l1 2h-12zm-37-3c2-2 3-2 5-1h3l7-1c5 0 7 0 9-2s6-2 6 0l-3 1-4 2-6 2h-12l-7 1zm134 0v-3l2-2 2 2-1 4c-2 1-2 1-3-1zm-794 0-2-1-2-1v-6c0-3 1-5 2-5l1 1h3l4 1-1 5-1 4c-1 3-3 4-4 2zm580 0-8-1-9-1c-1 0-1-1 1-1 3-1 3-1 0-1l-2-2h-1l-11 1-11-2h-14l-7-1c-3-1-3-1-1-2 2-2 14-2 17-1h5l2-1 13 1c9 0 13 1 15 2h19c2-2 2-2 0-2a454 454 0 0 1-21-1l-15-1 2-2h17a315 315 0 0 0 36 2c1 1 2 1 5-1s4-2 5-1c2 2 5 2 18 3l20 1c2 1 0 1-8 1l-13 1-3-1c-1-2-7-1-9 1-4 3-8 5-11 4-2 0-2-1-2-3 1-3 1-3-1-3l-1 3-1 3h-7c-4 0-5 0-4-1 0-1 1-3 3-3 3-1 3-1-1-1-3 0-5 1-5 2l-6 1-7 2c-1 1 0 1 5 2 3 0 5 1 4 2s-7 2-8 1zm12 0v-2l4-1 3 2c0 1-5 2-7 1zm215 0-1-2-4-3c-4-2-7-4-7-6h1l3-1c0-1 5-2 5 0l1 3c2 2 2 2 5-2 3-3 3-3 5-2 2 2 2 2-2 8l-4 6-2-1zm-326-2 2-2c4-1 12 0 13 1 0 1-2 2-7 2l-8-1zm-29-6c-5 0-8-2-6-3h10l14 1 5 1-7 1h-16zm334-1v-4c0-1 3-2 4 0 1 1-1 5-3 5l-1-1zm-12-2 2-3h3c0 1 0 2-2 3l-2 2-1-2zm-288 0c-1-1 0-1 3-1l3 1-3 1-3-1zm334 0 1-6c1-3 2-4 4-5 2 0 2 1 2 4 0 4-2 8-5 8l-2-1zm-817-4c-1-2 0-7 2-8l1 4c0 5-2 7-3 4zm446-4v-2l7-1c5-1 6-1 7 1l1 2c-1 2-14 2-15 0zm367 0 1-1 1 1-1 1-1-1zm-819-2 2-1 1 1c1 1 0 1-1 1l-2-1zm44-1-3-2 2-2 2-4c2-3 8-4 9-1l1 9c-2 2-7 2-11 0zm107-1 2-6 2-10 1-8c1-2 1-3-3-7l-6-5-21 1-1-4v-2l-3 2c-3 2-6 3-6 1l2-3c1-2 2-2 4-2 2 1 3 0 4-2 2-2 2-3 1-8-1-8-3-13-5-17-1-3-2-4-6-4h-18l-22-1-20 1c-2 1-7-1-7-2l2-3h10l15-1c6 0 7-1 8-3 1-3 0-8-2-12v-5c0-2 1-3 3-3l3 4 2 9 1 5c0 2 1 2 2 1 2-2 4-2 3 1l3 3 22 1c13 0 18 1 20 2v3l-2 1-5 3-4 5 3 8 3 8c1 3 6 7 9 7l3 1 3 2c1-1 11 1 13 3 1 0 1 1-1 2l-1 5v20l5 1c2-1 3 0 5 1l2 5v3h-11l-12-1zm358 0-2-2 5-1 4 2-3 2-4-1zm40-1 1-2c2-1 6 1 6 2l-4 1-3-1zm152 0c-13-1-14-1-15-3 0-1 1-2 11-1l24 3-2 1h-18zm-219-1-5-1v-2l4-1c4 0 11 2 11 3l-4 2-6-1zm334 0-10-1-8-1v-2c0-1 1-2 3-2l6-1c3-1 4-1 7 1 2 1 5 2 11 2 7 0 8 0 8 2s-1 2-6 2h-11zm-204-3c-2-1-2-3 0-4s8 1 8 3l-2 1-3 1-3-1zm-588-2c-2-1-2-2-1-4 1-1 2-2 3-1l3 2v3l-1 2-4-2zm73-2v-5l3-1c2 1 2 2 2 5 0 4 0 5-2 5s-3-1-3-4zm433 1c0-2 13-3 25-2l8-1 6 1c3 1 4 1 2 2l-21 1-20-1zm304-3c-1-3 1-5 4-5l5-1c1 0 2 0 2 2l-1 3h-3c-1-1-2-1-2 1-1 2-4 2-5 0zm-778-3-1-5 3-4 2 1v5c0 3-1 4-2 4l-2-1zm430-1c-3 0-5-1-5-2-1-2 5-3 12-2 5 1 6 2 6 3l-3 2-10-1zm31 0-8-1v-2l12-1c10 0 12 0 11 1 0 2-2 2-4 3h-11zm293-5c0-6 1-7 3-7 1 0 2 1 2 5 0 5-1 8-4 8l-1-6zm-138-3c-2 0-3 0-2-1h11c0 1-5 2-9 1zm10-1 3-1 2 1-2 1-3-1zm-586-1-1-3-5-5c-3-3-4-4-8-4-3 0-5 0-6-2-2-2-2-3-1-3h3l12 1c17 0 20 0 20 2l-2 2-4 2-3 1c-2 0-2 1-1 3l1 4c0 2 0 3-2 3l-3-1zm600-1v-2c0-2 3-2 3 0s-2 3-3 2zm-86-1c-1-1 0-1 1-2a52 52 0 0 1 18 1c0 2-18 2-19 1zm29-1 2-1c2 0 2 2-1 3l-1-2zm-425-4-6-7 2-3 8-2 11-1c5 0 5 0 5 3l-1 3h-3l-4 1c-2 0-2 1-3 5 0 4 0 5-2 6l-7-5zm89 4c-1-2 1-3 4-3l2 1-1 2h-5zm554 0 2-2 2 1-2 2-2-1zm-184-2h-13c-4-1 0-2 14-3h15l3 2 2 1-6 1h-9c-1 1-4 0-6-1zm174 0a438 438 0 0 0-13-5l-2-5 1-3c2 0 3 0 4 2l9 5c5 2 7 3 7 5 0 1-3 2-6 1zm-796-2-1-3c0-2-2-2-9-3l-11-3c-2-2-3-1-5 1s-6 3-8 1c-1-1 5-5 7-5l4-2c1-2 2-2 4-1l8 3c4 1 7 2 11 1l6-1 7-1c5 1 6 1 6 3l-2 2-7 2c-4 0-5 1-5 2 0 3-2 6-3 6l-2-2zm555 0-13-1-8-1v-2h20c9 0 13 2 13 3l-6 3-6-2zm209 0c-2-1-2-1 1-3 2-1 3-2 6-1l4 1c1 2-2 5-6 5l-5-2zm-558-3-3-2-8-1-8-3c-1-2 0-3 3-6l5-4 3 2c2 2 2 2 5 1 2-1 3 0 5 1s3 2 2 4v4l2 4c0 4-3 4-6 0zm53 1-6-2c-4-2-4-2-4-9l1-7c3-1 7 1 8 4l4 5 2 5c1 5 0 6-5 4zm335-4 3-1a266 266 0 0 1 27-1c-1 1-15 3-24 3l-6-1zm39 0v-2c1-2 5-1 4 1 0 2-2 2-4 1zm180 0 1-2 7-5c6-5 7-5 8-3l1 3c-1 2-12 8-14 8l-3-1zm-580-1c-1-1-1-2 1-4l4-1c3 0 5 2 4 5l-4 1-5-1zm246-3c1-2 3-2 4-1l-2 2-2-1zm-9-2 1-1 1 1-1 1-1-1zm-21-2 3-3 3-2-3-1c-2 0-3-1-3-2s1-2 3-2l3-1-3-2c-1-1-2-2-1-3 0-2 3-2 7-1 3 1 4 3 1 3-1 0-1 1 1 3l4 2 1 1c0 2-1 2-4 2s-4 0-4 2v3c-1 2-3 3-5 3l-3-2zm171 0c-1-2 1-3 2-2s0 3-1 3l-1-1zm163-1v-7l-1-6c-4 0-6-1-6-3a246 246 0 0 1 14-1v3l-1 3-1 7c-1 6-4 7-5 4zm-363-2c-1-1 2-4 5-4l3-2c0-2 1-2 3-2 3 0 5 2 2 2l-1 2 2 1 2 2c-1 1-3 2-8 2l-8-1zm-442-3-2-4c0-2 3-5 5-5l1 4v4c1 0 1 2-1 2-1 1-2 0-3-1zm492-6c-2-2-1-5 1-5s2-1 2-2c0-2 1-3 4-3 2 0 3 1 2 2v4l-1 3c-1 2-6 2-8 1zm-32-3 1-2c3 0 5 2 4 3l-3 2c-1 0-2-1-2-3zm401 1-2-3c0-1 4-2 5-1h6c5 0 6 0 6 2l-2 2-7 2-6-2zm-332-1v-2l10-1c7 0 9 0 9 2l-2 1h-17zm295 0c-4-1-6-2-7-5-2-2-3-4-2-5l3-2c2 0 2-1 2-8l1-10 3-1 2 13c1 11 1 12 3 14l4 1c0 1-2 4-4 4l-5-1zm12 0-2-2 3-1h4c2 1 1 4-1 4l-4-1zm13-3 2-2 3-2 2-2c2 0 3 5 2 7l-5 1c-3 0-4 0-4-2zm-708-3c1-1 3-3 4-1 1 1 0 3-2 3s-2-1-2-2zm386 1c-1-1 0-1 1-2h4c1 0 2 1 1 2h-6zm-528-2v-2c1-2 5 0 5 1l-2 2-2 1-1-2zm437-2v-3c1-1 5-1 7 1v3c-3 1-7 1-7-1zm96-1c0-2 4-3 5-2 2 1 1 3-2 3l-3-1zm-79-2-8-1v-2h15c3 1 4 4 1 4l-8-1zm-445-1c-1-2-2-3-1-4l4-1 4 3-1 2-3 1-3-1zm-26-1c-1-1-1-2 1-3l6-2c7 0 8 0 9-2 0-2 1-3 2-3l2 2v5c-1 2-2 2-3 1s-2-1-3 1c0 1-2 2-7 2l-7-1zm571-3c-1-1-2-2-1-3l4-1h5l2 3-3 1-4 1-3-1zm301-1-2-5c0-3 3-5 5-4l1 6c0 4-1 5-2 5l-2-2zm-406-1-6-2-1-1c0-2 3-2 7-1 3 1 4 1 5-1 1-1 2-2 3-1s1 6-1 6l-2 1-5-1zm24-2v-2c1-1 13-1 14 1l-1 1-7 1-6-1zm40 1c-4 0-5-1-5-2s1-2 4-2c6-1 17 0 18 1l-2 2c-2 2-4 2-15 1zm283-4-1-5c1-3 5-2 5 2l1 4c-1 3-4 2-5-1zm-347-7v-2l24-1 23 1v2l-23 1-24-1zm408 0c-11 0-15-1-15-2-1-1-1-1 1-2l18-1c12 0 16 1 16 2l1 2-4 2-17-1zm-90-2c-1-2 3-5 6-5l20 1 3 2c0 1-1 2-3 2a111 111 0 0 1-26 0zm34-1c-1-1 0-2 1-3l14-1 15 1c2 1 2 4 0 4a1067 1067 0 0 0-30-1zm127-4v-2h2c2 1 2 5 0 5l-2-3zm-459 0-9-1 1-2h11l13 1c4 1 2 2-3 3l-13-1zm421 1-13-1-23-1c-9-1-13-2-13-4l8-1h10c2 1 4 2 8 1 5 0 5-1 5-7l1-5h3l2 6 1 5 17 1c11 0 19 1 20 2 2 1 2 2 1 3l-14 1h-13zm-882-3c-1-1 14-2 16-1l-2 1H52zm56-2v-4c1-2 3-1 4 2v4c-1 2-3 1-4-2zm439-3v-2l5-1c2 0 2 1 2 2 0 2 0 3-3 3s-4 0-4-2zm16 1h2c1 1 0 1-1 1l-1-1zm-448-2 1-1 1 1-1 2-1-2zm850-2c0-2 0-3 2-3l2 2v2l-2 1c-2 0-2-1-2-2zm-449-8c0-2 0-2 1-1h6l5 1-6 2c-5 0-6 0-6-2zm431-21 1-2c2-1 5 2 4 4l-3 1c-1 0-2-1-2-3zm-912-1c0-1 0-2 2-2 2 1 2 3-1 3l-1-1zm951-6c-1-1-1-2 1-2l3 1c0 2-3 3-4 1zm-40-6-2-7 2-3 2 1c2 2 3 13 2 14s-2-2-4-5zm56 3v-11c0-9 0-10 2-11h3v12c1 2 1 5-1 8-1 3-3 3-4 2zm18-2-2-5c-1-3 1-5 4-3 1 1 2 8 0 9l-2-1zm-68-8c-1-2 1-3 3-3 1 0 2 0 2 2l-2 2-3-1zm31-3 1-3 3-1 4 2-2 2-4 1-2-1zm53-6-6-3h-4c-3 2-7 3-10 1l-2-1c0-2 7-5 10-4l6-1 4 2c1 1 3 2 7 2l6 1c0 2-2 4-5 4l-6-1zm14-27c-1-1 0-2 3-5 6-3 9-4 10-1l-6 4c-4 3-6 3-7 2zm21-10c0-2 5-4 8-3l2 3-2 2h-5c-2 0-3 0-3-2zm19-1v-3h2l1 3-2 1-1-1zm-783-11-1-4-2-2-3-6-3-6-2-8-2-11-2-16-2-12c-2-1-2-2-1-3v-7c-1-4-2-8-1-18v-22a528 528 0 0 1 2-77 215 215 0 0 0-3-43l-2-19c-1-11-1-11 2-13l2-4-1-10 1-8c1 0 6 7 6 10 0 1 0 2 1 1l1-4 1-5 3-2 4-3c3-7 4-10 4-14l5-8 8-7 4-4 4-2 6-5 5-4 3-1 4-2c1 1 3 0 3-1l3-1 4-2c1-2 2-2 3-2l1 4c0 3-3 8-6 8l-4 2c-2 2-5 3-14 5-3 1-4 2-4 4l-2 2-4 4-4 4c-1 0-6 11-7 16l-3 5-3 4-2 3-1 5c0 3-1 5-2 5l-3 5a109 109 0 0 1-4 18h6c1 1 1 2-1 6l-4 10-3 7-1 15c1 1 0 28-1 37a702 702 0 0 0 6 147l5 12 5 13c1 3 1 7-1 7l-3-3zm-10-242-1-2-1 3 1 2 1-3zm-6 229 1-2 2 2c1 1 1 1-1 1l-2-1zm-172-5c-2-2-1-17 0-19 1-1 2-1 3 1 2 1 2 2 1 10l-3 9-1-1zm164-4-1-4 1-3c2 0 2 0 2 4 1 3-1 4-2 3zm-37-9-1-5-1-5-1-4c0-3 0-3 2-3l2-2v-3h5c3 1 4 2 4 5l-1 6-3 2-2 4c-1 5-3 7-4 5zm-140-5-1-8c1-6 1-7 3-7 3-1 3 0 3 8 0 7-1 9-2 9l-3-2zm-50-24v-3c1-1 2-2 5-2h9c5 1 6 2 4 3l-9 2h-9zm186-1v-18l3-2c2 0 2 1 2 9l-1 10c-2 2-3 2-4 1zm-54-5c-1-2 2-4 6-4 3 0 5 1 5 2v2l-5 1-6-1zm44-1-1-12v-7c-1 3-3 4-3 2l-1-7 3-2 3-1 2-2c2 0 2 0 2 15l-1 16c-1 1-3 0-4-2zm-116-5v-7c2-1 4 1 4 4l-1 3h-3zm188-1c-1 0-2-1-1-2 0-2 19-6 29-6 5 0 6 0 6 2s-1 2-2 3h-4l-9 1c-7 2-16 3-19 2zm-204-5-1-9c1-4 1-6-1-6-2-1-2-5-1-8 1-2 3-1 3 3 0 2 0 3 2 4 2 0 2 1 2 9l-1 9c0 1-1 1-3-2zm34-7 1-10c1-3 2-3 4-2s2 2 1 6l-1 8c0 4 0 5-3 5l-3 1zm-27 3c-1-2 2-5 3-4l2 4c0 1-1 2-3 2l-2-2zm296 0c-2 0-3-1-3-2l1-2 14-1a904 904 0 0 0 137-14 531 531 0 0 0 55-10 272 272 0 0 0 22-3l13-2 63-11a464 464 0 0 1 158 14 303 303 0 0 0 45 5 688 688 0 0 0 100 4l2 4c0 2-1 3-3 4l-7 1-31-4h-15a413 413 0 0 0-51-3l-19-2-21-2-17-4a209 209 0 0 1-34-6l-12-2-21-2a625 625 0 0 0-105 3 514 514 0 0 1-37 7l-47 8-24 4-8 1-10 1-25 4-15 1a416 416 0 0 0-41 4l-11 1-10 2-7 1h-8c-5 2-22 2-28 1zm-287-3-1-14c-1-11-1-13 1-14 3-3 4 0 4 14l-2 14h-2zm125-3v-6c0-5 4-5 5-2 1 4-1 11-3 11l-2-3zm-115-1-1-5c-1-3 1-6 2-6 3 0 4 3 4 7l-1 5c0 3-3 2-4-1zm123-9c0-6 1-8 2-9l3 1-1 13-2 3c-1 0-2-1-2-8zm-142 2v-8c1-2 3-2 4-1 1 2 0 10-2 10l-2-1zm234-4 1-3c2-1 2-2 0-5-1-5-4-6-4-2 0 2 0 2-2 2-3-1-4-4-2-4 3 0 2-4 0-6l-4-5c-1-2-2-2-2-1l1 2c2 1 2 6 1 8-1 1-2 2-3 1-3 0-5-5-6-9l-2-6c-2-4-5-12-4-13 2-2 5 0 7 6l5 7h2c1-3 3-2 6 3l6 6 3 2c2 1 4 6 4 11l-2 4c-3 3-4 3-5 2zm-244-4c-1-1 0-3 2-3l2 2c0 1-2 2-4 1zm143-2-1-3-3-4-2-2c-1-2 0-5 2-5h5l2 8c1 6 1 7-1 8-1 0-2 0-2-2zm-115-4v-3c1-4 4-3 5 1 0 2 0 3-2 3l-3-1zm-18-6v-5l2-2 2 2v4l-1 4-3-3zm317-5-5-1 3-3c1-1 2-2 4-1h4a92 92 0 0 1 12-7h3c2 1 0 6-4 8l-13 5-4-1zm-309-2c-1-1-3-11-3-22 0-4 1-6 2-7h2c1 0 3 17 2 22l-1 8-2-1zm242-4v-5c1-2 1-2 2-1s2 3 1 5l-1 3-2-2zm52-2 3-2 3-4c2-3 4-4 7-5l4-3 3-2 4-1c1 2 0 5-3 7-2 0-3 1-3 2l-2 1c-1 0-4 2-6 5-3 3-6 5-8 5s-2-1-2-3zm-174-2-2-8 1-11 3-2 2 4-1 17h-3zm87-10c-2-3-2-16-1-16 2 0 5 7 6 13 1 5 0 6-2 6l-3-3zm74 1 2-8c1-7 4-15 7-19 2-4 5-5 6-1l-2 5c-3 4-6 11-6 15l-2 6-3 4c-2 0-2-1-2-2zm41-2 1-4 3-1c2 0 2 1 2 2 0 2-3 6-5 6l-1-3zm-86-3-4-8 1-6c2-1 2-1 3 2l1 4 3 5c2 2 3 4 2 5l-1 1-5-3zm-17-1c-2-3-2-6 0-6 3 0 2-5 0-6-3-1-6-5-6-10l-1-8v-4c1-2 4-2 5-1l1 9c1 6 1 7 4 10 2 2 4 5 4 8 1 3 0 4-1 4s-2 1-2 3l-2 3-2-2zm94-5a9 9 0 0 1 5-7l1 2c1 2-3 8-4 8s-2-1-2-3zm-296 0c-1-2-2-9-1-10 0-2 4-3 5-1s0 10-2 11h-2zm186-13v-5c1-2 1-2 2-1l2 5c0 3-1 4-2 4s-2-1-2-3zm30-6c-2-3-2-3 0-7 1-3 2-4 4-4s2 0 2 5c-1 6-2 9-4 9l-2-3zm-69 0v-5l2-11 3-16c0-2 0-2 1 0 2 1 2 4 1 12 0 7-1 12-2 13l-1 4c-1 4-3 5-4 3zm86-5a27 27 0 0 1 0-18c1-4 2-5 4-5s3 1 3 2l-5 22-2-1zm65-1c-2-1-1-8 1-10 1-1 1-1 2 1l1 7c0 2 0 3-2 4l-2-2zm-318-2c-1-1-2-3-2-11-1-7 0-10 1-11l1-9-1-10c1-4 4-3 5 2s2 13 0 15v4l1 10-1 10c-1 2-2 2-4 0zm270-3c0-4 1-12 3-13 2-2 2-2 3-1v5l-1 8c1 3 0 4-2 4l-3-3zm-250-4v-5l2-3 2 1c1 1 2 2 2 6s-1 4-2 4c-2 0-3-1-4-3zm123-5 1-3c1-1 4 0 4 3l-2 2-3-2zm101-1c-1-2 0-5 2-5l2 1-2 4c-1 2-1 2-2 0zm-122-6-1-25c-1-23-1-24 1-25l3 1 1 13a1876 1876 0 0 0 1 30c0 6-1 8-2 8l-3-2zm134-7-1-4 3-2c2 1 2 5 0 6h-2zm-246-2c-1-1-2-6-2-14v-12h5v13c0 14-1 17-3 13zm136-3-1-12c0-10 0-11 2-11 1 0 3 1 3 3v20c-1 2-4 2-4 0zm-7-3v-2l3-1c1 1 2 1 1 3l-3 2-1-2zm-9-20c-1-4-1-4 1-6s2-2 3 1c1 1 2 4 1 5l-2 3-3-3zm-96-1-2-10c-1-9 0-14 2-13l3 3 1 13c0 8 0 9-2 9-1 1-2 0-2-2zm97-17c-2-1-2-3-2-6l1-6 3 1 1 6-1 5h-2zm-92-11 1-2 2 2a2 2 0 0 1-3 0zm101 0c-2-1-4-9-4-17l1-11 4-2c2 0 2 1 2 9v20l-3 1zm-101-5V76c1-7 2-10 3-10h2c1 2 0 16-1 21l-2 3-2-2zm26-1c-3-2-3-4-3-8l-1-6-3 3c-1 2-3 3-4 2l-2-2c-1-3 1-9 2-9l4-3c3-3 4-3 7-3s5 2 7 3l3 6c0 2 0 6-2 11l-4 8-4-2zm64-18-5-2c-2 0-3 0-3-4V38l3-1c2 0 2-1 2-4v-5h4c2 2 2 3 3 19a589 589 0 0 0-1 23l-3-1zm-78-12-1-5 2-5c1-1 2-1 3 1l1 4c0 3-2 7-3 7l-2-2zm53-9c-1-2 0-5 2-5s4 4 3 6c-1 1-4 1-5-1zm80-2-1-6-1-4 2-5c2-3 2-4 1-8s0-11 1-13l4-1c1 0 2 0 1 4v5l5-3 8-6h5l2 2-4 5-4 6-1 2-2 4-2 2c-1 0-2 0-3 2l-3 5c-2 1-3 2-3 5l-1 5-2 1-2-2zm36 1 1-1 1 1-1 1-1-1zm-4-41V4h3c1 1 0 4-1 4l-2-2zm7-1c-1-1 2-5 4-5l1 1c0 2-5 5-5 4z"/>
</svg>
