<?xml version="1.0" encoding="utf-8"?>
<svg xmlns="http://www.w3.org/2000/svg" version="1.1" viewBox="0 0 1814 425">
	<title>Nine measures of musical notation on the treble clef, with a 6/8 time signature, in the key of C.</title>
	<path d="M0 36v3h1814v-3zm0 25v2h1814v-2zm0 24v3h1814v-3zm0 25v3h1814v-3zm0 25v3h1814v-3zm0 148v3h1814v-3zm0 25v3h1814v-3zm0 25v3h1814v-3zm0 25v2h1814v-2zm0 24v3h1814v-3z"/>
	<path d="M1347 344c60 35 180 35 239 0-59 43-179 43-239 0"/>
	<path d="M1347 344a1 1 0 0 0-1 0 1 1 0 0 0 1 1c30 21 75 32 120 32s90-11 120-32a1 1 0 0 0-1-1c-30 17-75 25-119 25-45 0-90-8-120-25zm12 7c29 13 68 20 108 20 39 0 78-7 107-20-29 16-68 24-107 24-40 0-79-8-108-24zm230-184c14 7 57 7 72 0-15 15-58 15-72 0"/>
	<path d="M1589 166a1 1 0 0 0-1 0 1 1 0 0 0 0 1c8 8 22 12 37 12s29-4 36-12a1 1 0 0 0-1-1c-7 4-21 5-35 5-15 0-29-1-36-5zm3 2c8 3 20 5 33 5s25-2 33-5c-8 6-20 9-33 9s-26-3-33-9z"/>
	<path d="M1812 36v102m-2-102v102h4V36zM781 283v102m-3-102v102h5V283zM279 36v102m-2-102v102h5V36zm1019 247v102m-2-102v102h4V283zm164-247v102m-2-102v102h4V36zM445 283v102m-2-102v102h4V283zm589-247v102m-2-102v102h4V36zm-430 0v102m-2-102v102h4V36zm1120 125h49m-49-2v4h49v-4zm-858 2h49m-49-2v4h49v-4zM726 343v-77m-1 0v77h2v-77zm1033-109V75m-2 0v82h3V75zM175 380v-83m-1 0v83h2v-83zm51-189V25m-1 0v83h2V25zm23 355v-83m-1 0v83h2v-83zm99-227V6m-1 0v64h2V6zm-25 361v-82m-1 0v82h2v-82zm73 82v-82m-2 0v82h3v-82zm21-153V50m-1 0v82h2V50zm102 305v-83m-2 0v83h3v-83zm-28-152V37m-2 0v83h3V37zm103 318v-83m-1 0v83h3v-83zM546 95V19m-2 0v76h3V19zm110 324v-77m-1 0v77h3v-77zm13-158V37m-2 0v71h3V37zm182 318v-83m-1 0v83h2v-83zm121 46v-77m-1 0v77h2v-77zM744 108V40m-2 0v68h3V40zm344 278v-64m-2 0v64h3v-64zM821 132V43m-1 0v89h3V43zm385 287v-76m-1 0v76h2v-76zm-305-97V74m-1 0v83h3V74zm464 244v-64m-1 0v64h2v-64zm121 76v-76m-2 0v76h3v-76zm121 64v-64m-1 0v64h2v-64zM977 108V25m-1 0v83h3V25zm745 293v-64m-1 0v64h2v-64zM1097 95V19m-1 0v76h2V19zm79 64V6m-1 0v77h2V6zm79 64V6m-1 0v64h2V6zm79 89V12m-1 0v83h2V12zm79 108V19m-1 0v101h2V19zm116 113V50m-2 0v82h3V50zm80 95V62m-2 0v83h3V62zm80 83V62m-2 0v83h3V62z"/>
	<path d="M868 165c0 5 3 9 12 9 10 0 21-8 21-17 0-6-5-9-11-9-10 0-22 8-22 17M288 376c0 4 3 9 11 9 10 0 21-9 21-18 0-5-5-9-11-9-10 0-21 8-21 18m886-38c0 5 3 9 11 9 11 0 22-8 22-17 0-6-5-9-12-9-9 0-21 8-21 17M194 116c0 4 3 9 11 9 10 0 21-9 21-17 0-6-5-9-11-9-9 0-21 8-21 17m120-37c0 4 3 9 11 9 10 0 21-9 21-18 0-5-5-9-11-9-10 0-21 8-21 18m-98 309c0 4 3 9 11 9 10 0 21-8 21-17 0-6-5-9-11-9-10 0-21 8-21 17m163-247c0 4 3 9 11 9 10 0 21-9 21-18 0-5-5-9-11-9-10 0-21 8-21 18m921-38c0 5 3 9 11 9 11 0 21-8 21-17 0-6-5-9-11-9-9 0-21 8-21 17m-785 0c0 5 3 9 11 9 10 0 21-8 21-17 0-6-5-9-11-9-10 0-21 8-21 17m120 13c0 4 3 9 11 9 10 0 21-9 21-17 0-6-5-9-11-9-10 0-21 8-21 17m420 210c0 4 3 9 11 9 10 0 21-8 21-17 0-6-5-9-11-9-10 0-22 8-22 17M713 116c0 4 3 9 11 9 10 0 21-9 21-17 0-6-5-9-11-9-10 0-21 8-21 17m77 25c0 4 4 9 12 9 10 0 21-9 21-18 0-5-5-9-11-9-10 0-22 8-22 18m-340-13c0 4 3 9 11 9 10 0 21-8 21-17 0-6-5-9-11-9-10 0-21 8-21 17m1277 37c0 5 3 9 11 9 10 0 21-8 21-17 0-6-5-9-11-9-10 0-22 8-22 17M935 326c0 4 3 9 11 9 10 0 21-8 21-17 0-6-5-9-11-9-10 0-21 8-21 17m11-210c0 4 3 9 11 9 11 0 22-9 22-17 0-6-5-9-12-9-9 0-21 8-21 17M360 376c0 4 3 9 11 9 10 0 21-9 21-18 0-5-5-9-11-9-10 0-21 8-21 18m455-13c0 4 3 9 11 9 10 0 21-8 21-17 0-6-5-9-11-9-9 0-21 8-21 17m563-235c0 4 3 9 11 9 10 0 21-8 21-17 0-6-5-9-11-9-9 0-21 8-21 17M144 388c0 4 3 9 11 9 11 0 21-8 21-17 0-6-5-9-11-9-9 0-21 8-21 17m336-25c0 4 3 9 11 9 10 0 21-8 21-17 0-6-5-9-11-9-10 0-21 8-21 17m742-284c0 4 3 9 11 9 11 0 21-9 21-18 0-5-5-9-11-9-9 0-21 8-21 18M695 351c0 4 3 9 11 9 11 0 21-9 21-17 0-6-5-9-11-9-9 0-21 8-21 17m-144 12c0 4 3 9 12 9 10 0 21-8 21-17 0-6-5-9-11-9-10 0-22 8-22 17m1098-210c0 4 3 9 11 9 10 0 21-8 21-17 0-6-5-9-11-9-10 0-22 8-22 17M623 351c0 4 3 9 11 9 11 0 22-9 22-17 0-6-5-9-12-9-9 0-21 8-21 17m521-260c0 4 3 9 11 9 11 0 21-8 21-17 0-6-5-9-11-9-9 0-21 8-21 17m427 62c0 4 3 9 11 9 10 0 21-8 21-17 0-6-5-9-11-9-10 0-21 8-21 17m-240 173c0 4 3 9 11 9 10 0 21-8 21-17 0-6-5-9-11-9-10 0-21 8-21 17m120 12c0 5 3 9 11 9 10 0 21-8 21-17 0-6-5-9-11-9-10 0-22 8-22 17m120-12c0 4 3 9 11 9 11 0 21-8 21-17 0-6-5-9-11-9-9 0-21 8-21 17m-77-185c0 4 3 9 11 9 10 0 21-9 21-18 0-5-5-9-11-9-10 0-21 8-21 18m197 185c0 4 3 9 11 9 10 0 21-8 21-17 0-6-5-9-11-9-9 0-21 8-21 17m-624-223c0 5 3 9 11 9 11 0 22-8 22-17 0-6-5-9-12-9-9 0-21 8-21 17"/>
	<path d="M31 410c0 6 5 15 18 15 5 0 9-1 12-3 6-4 7-11 7-17l-1-14-2-9c10-3 17-13 17-23 0-15-11-25-25-25l-3-18c11-11 18-23 18-39 0-9-3-16-4-20-3-5-6-8-8-8l-7 5c-6 7-8 20-8 28l2 22-7 7c-9 8-21 20-21 40 0 19 16 33 34 33l8-1 3 22c0 10-5 16-15 16l-5-1c5-1 10-5 10-11s-4-11-12-11c-7 0-11 5-11 12m21-133c0-4 5-14 10-14 2 0 4 5 4 12 0 10-8 18-14 25l-2-12 2-11m8 102-5 1c-15 0-27-10-27-25 0-12 9-23 17-30l5-5 3 14c-10 3-16 13-16 22 0 7 6 16 14 16l1-1-2-2c-4-2-6-5-6-10 0-6 5-11 11-12l5 32m14-18c0 7-3 14-10 17l-5-32c9 0 15 6 15 15M31 163c0 6 5 15 18 15 5 0 9-1 12-4 6-3 7-10 7-16l-1-14-2-9c10-3 17-13 17-24 0-15-11-25-25-25l-3-17c11-11 18-23 18-39 0-9-3-17-4-20-3-5-6-9-8-9l-7 5c-6 8-8 21-8 29l2 21-7 7c-9 9-21 21-21 41 0 18 16 33 34 33l8-1 3 22c0 10-5 16-15 16l-5-1v-1c5 0 10-4 10-11 0-5-4-11-12-11-7 0-11 6-11 13M52 30c0-4 5-14 10-14 2 0 4 4 4 11 0 11-8 18-14 25l-2-12 2-10m8 102-5 1c-15 0-27-10-27-25 0-12 9-23 17-31l5-4 3 14c-10 3-16 12-16 22 0 7 6 16 14 16l1-1-2-2c-4-3-6-5-6-10 0-6 5-11 11-13l5 33m14-18c0 7-3 14-10 17l-5-32c9 0 15 6 15 15"/>
	<path d="M130 58c-6 0-8 2-9 3l-1-5c0-6 2-13 9-13 3 0 4 1 5 2-2 1-4 3-4 6s3 6 7 6c3 0 6-3 6-6v-1l-1-3c-1-4-5-9-15-9-9 0-15 9-17 13-1 3-3 8-3 13 0 6 2 13 8 18s9 5 13 5c3 0 16-4 16-16 0-10-8-13-14-13m-3 25c-4 0-6-5-6-10 0-6 2-11 6-11s6 5 6 11c0 5-3 10-6 10m11 27c3-3 5-6 5-10 0-7-8-13-17-13-10 0-18 6-18 13 0 4 1 8 6 10-5 3-7 7-7 12 0 8 8 14 19 14 10 0 18-6 18-14 0-5-1-10-6-12m-6-3c-7-2-14-6-14-10s3-5 8-5c6 0 10 2 10 7s-2 7-4 8m-6 23c-7 0-12-3-12-9s5-8 5-8c7 2 16 6 16 11 0 3-3 6-9 6"/>
	<path d="m664 31 159 6v13l-159-7V31m588-31 158 12v13l-158-13V0m109 247h241v13h-241v-13"/>
	<path d="m544 41 1 1c4 2 13 7 19 18 2 3 5 7 5 16a63 63 0 0 1-5 23l1 1 2-1c4-8 6-18 6-27 0-12-8-22-8-22l-12-16-5-12-1-4-1-1-2 2v22m660 235 1 1c4 2 13 7 19 18 2 3 5 7 5 16a63 63 0 0 1-5 23l1 1 2-1c4-8 6-18 6-27-1-12-8-22-8-22l-12-16-6-12-1-4-1-1-1 2v22M409 72v1c5 2 13 7 20 18 1 3 4 7 4 16a63 63 0 0 1-4 23l1 1 1-1c5-8 6-18 6-27 0-12-8-22-8-22l-11-16-6-12-1-4-1-1-1 2v22M224 47l1 1c4 2 12 7 19 18 2 3 4 8 4 16a63 63 0 0 1-4 23l1 1 1-1c5-8 6-17 6-26 0-13-7-23-7-23l-12-16-6-12-1-4h-1l-1 1v22m501 242 1 1c4 1 12 6 19 17 2 3 5 8 5 16a63 63 0 0 1-5 23l1 1 1-1c5-8 7-17 7-26-1-13-8-22-8-22l-12-17c-4-5-5-11-6-12l-1-3-1-1-1 1v23m-144 6 1 1c4 1 13 7 19 18 2 3 5 7 5 15a63 63 0 0 1-5 23l1 1 2-1c4-8 6-17 6-26-1-13-8-22-8-22l-12-17-5-11-1-4-2-1-1 1v23M1756 97l1 1c4 1 13 7 19 18 2 3 5 7 5 15a63 63 0 0 1-5 23l1 1 2-1c4-8 6-17 6-26-1-13-8-22-8-22l-12-16-5-12-1-4-2-1-1 2v22m-234-25 1 1c4 2 13 7 19 18 2 3 5 7 5 16a63 63 0 0 1-5 23l1 1 2-1c4-8 6-18 6-27 0-12-8-22-8-22l-12-16-5-12-1-4-1-1-2 2v22M389 307l1 1c4 2 13 7 19 18 2 3 5 7 5 16a63 63 0 0 1-5 23l1 1 2-1c4-8 6-18 6-27 0-12-8-22-8-22l-12-16-5-12-1-4-1-1-2 2v22m576-43v1c5 1 13 7 20 18 1 3 4 7 4 15a63 63 0 0 1-5 23l2 1 1-1c5-8 6-17 6-26 0-13-8-22-8-22 1 0-9-12-11-17-4-5-6-11-6-11l-1-4-1-1-1 1v23m-719 56v1c5 1 13 6 20 17 2 3 4 8 4 16a63 63 0 0 1-4 23l1 1 1-1c5-8 6-17 6-26 0-13-7-22-7-22l-12-17c-4-5-6-11-6-12l-1-3-1-1-1 1v23m928-291 1 1c4 1 13 7 19 18 2 3 5 7 5 15a63 63 0 0 1-5 23l1 1 2-1c4-8 6-17 6-26-1-13-8-22-8-22l-12-17c-4-5-5-11-6-11l-1-4-1-1-1 1v23M976 47l1 1c4 2 13 7 19 18 2 3 5 8 5 16a63 63 0 0 1-5 23l1 1 2-1c4-8 6-17 6-26-1-13-8-23-8-23l-12-16c-4-6-5-11-5-12l-1-4h-2l-1 1v22"/>
	<path d="M1735 322c0 3 2 5 5 5 2 0 5-2 5-5s-3-5-5-5c-3 0-5 2-5 5"/>
</svg>
