<?xml version="1.0" encoding="utf-8"?>
<svg xmlns="http://www.w3.org/2000/svg" version="1.1" viewBox="0 0 2041 709">
	<title>Sixteen measures of musical notation on the treble clef, with a ⁶⁄₈ time signature, in the key of F.</title>
	<path d="M0 35v2h2041v-2Zm0 24v3h2041v-3zm0 25v3h2041v-3zm0 25v3h2041v-3zm0 25v2h2041v-2zm0 167v2h2041v-2zm0 25v2h2041v-2zm0 24v3h2041v-3zm0 25v3h2041v-3zm0 25v3h2041v-3zm0 167v3h2041v-3zm0 25v2h2041v-2zm0 25v2h2041v-2zm0 24v3h2041v-3zm0 25v3h2041v-3z"/>
	<path d="M1891 411c21 17 60 15 78-4a49 49 0 0 1-78 4"/>
	<path d="M1969 406a1 1 0 0 0 0 1c-9 9-24 14-38 15-15 1-29-3-40-11a1 1 0 0 0 0 1c21 25 60 23 79-5a1 1 0 0 0-1-1zm-4 6a48 48 0 0 1-69 3c10 6 22 9 35 8 13 0 25-4 34-11zM795 362c34 33 113 45 156 24-45 29-123 17-156-24"/>
	<path d="M795 361a1 1 0 0 0-1 0 1 1 0 0 0 0 1c17 21 45 34 75 39 29 4 60 0 82-14a1 1 0 0 0 0-1c-22 10-52 12-81 8-29-5-58-16-75-33zm7 7c17 14 42 23 68 27 25 4 51 3 72-4-21 10-48 13-73 9-26-4-50-15-67-32zm1045 305c17 9 65 9 82 0-17 16-65 16-82 0"/>
	<path d="M1847 672a1 1 0 0 0 0 1 1 1 0 0 0 0 1c8 8 25 12 41 12s33-4 41-12a1 1 0 0 0 0-1c-8 4-25 6-41 6s-33-2-41-6a1 1 0 0 0 0-1zm3 3c9 3 23 5 38 5s29-2 38-5c-9 6-23 10-38 10s-29-4-38-10z"/>
	<path d="M1606 301v102m-2-102v102h4V301ZM1356 35v101m-2-101v101h4V35Z"/>
	<path d="M1217 339c0-3-2-5-5-5s-6 2-6 5 3 6 6 6 5-3 5-6m0 25c0-3-2-5-5-5s-6 2-6 5 3 5 6 5 5-2 5-5"/>
	<path d="M1228 301v102m-2-102v102h4V301Zm20 0v102m-6-102v102h13V301Zm799 0v102m-3-102v102h5V301ZM317 35v101m-2-101v101h5V35Zm1696 532v102m-7-102v102h14V567Zm30 0v102m-7-102v102h14V567Zm12-532v101m-3-101v101h5V35Zm-242 532v102m-2-102v102h5V567ZM666 35v101m-2-101v101h4V35Zm352 266v102m-3-102v102h5V301Zm-82 266v102m-3-102v102h5V567Zm391 0v102m-3-102v102h5V567Zm381-532v101m-2-101v101h5V35ZM543 567v102m-3-102v102h5V567Zm-31-266v102m-2-102v102h5V301Zm507-266v101m-2-101v101h5V35ZM731 335v-64m-1 0v64h2v-64zm80 64v-64m-2 0v64h3v-64zm80 77v-71m-1 0v71h2v-71zm79 83v-77m-1 0v77h2v-77zM240 77v77m-1-77v77h2V77Zm569 17V18m-2 0v76h3V18ZM383 119V36m-1 0v83h2V36Zm699 337v-83m-1 0v83h2v-83zm237 45v-64m-2 0v64h3v-64zM459 119V36m-1 0v83h2V36Zm937 324v-76m-1 0v76h2v-76zM535 119V36m-1 0v83h2V36Zm939 349v-83m-1 0v83h2v-83zm79 58v-76m-1 0v76h3v-76zM611 106V24m-1 0v82h3V24Zm1061 349v-71m-1 0v71h2v-71zM731 94V17m-1 0v77h3V17Zm1020 356v-68m-2 0v68h3v-68zm80 80v-77m-2 0v77h3v-77Zm80 77v-83m-1 0v83h2v-83zM884 94V17m-2 0v77h3V17Zm1102 356v-83m-1 0v83h2v-83zM220 651v-83m-1 0v83h2v-83zm741-449V36m-1 0v83h2V36ZM308 639v-83m-1 0v83h2v-83zm773-462V17m-1 0v77h2V17ZM396 626v-76m-2 0v76h3v-76zm90 101v-83m-2 0v83h3v-83zm674-462V24m-1 0v82h2V24ZM608 639v-83m-1 0v83h2v-83zm625-462V17m-1 0v77h2V17ZM696 626v-76m-1 0v76h2v-76zm89 64v-71m-2 0v71h3v-71zm497-453v76m-2-76v76h3V90ZM872 639v-83m-2 0v83h3v-83zm522-479v77m-2-77v77h3V77ZM996 626v-76m-1 0v76h2v-76zm89 64v-77m-1 0v77h2v-77zm385-460v77m-2-77v77h3V77Zm-324 533v76m-1-76v76h2v-76zm403-533v77m-1-77v77h2V77Zm-283 549v-76m-2 0v76h3v-76zM298 360v-76m-1 0v76h3v-76zM1620 77v77m-1-77v77h2V77Zm-235 562v-71m-1 0v71h2v-71zm89 83v-80m-1 0v80h2v-80zm262-506v83m-1-83v83h2V65Zm-172 586v-77m-2 0v77h3v-77zm90 77v-83m-2 0v83h3v-83zm163-503v82m-1-82v82h2V65Zm-73 586v-83m-1 0v83h3v-83zm151-528v83m-1-83v83h3V40Zm-24 611v-83m-1 0v83h2v-83zm89 83v-83m-2 0v83h3v-83zm16-503v82m-2-82v82h3V65ZM220 335v-64m-1 0v64h2v-64zm158 89v-77m-2 0v77h3v-77zm80 90v-83m-1 0v83h2v-83zm121 70v-83m-1 0v83h2v-83zm79 58v-61m-1 0v61h2v-61z"/>
	<path d="M777 102c0 4 3 9 11 9 10 0 21-8 21-17 0-6-5-9-11-9-10 0-21 8-21 17m1098 291c0 4 3 9 11 9 10 0 21-8 21-17 0-6-5-9-11-9-9 0-21 8-21 17m-171 266c0 5 3 9 11 9 11 0 22-8 22-17 0-6-5-9-12-9-9 0-21 8-21 17m-863-12c0 4 3 9 11 9 10 0 21-9 21-17 0-6-5-9-11-9-10 0-21 8-21 17M239 77c0 5 3 9 11 9 10 0 21-8 21-17 0-6-5-9-11-9-10 0-21 8-21 17m113 50c0 4 3 9 11 9 10 0 21-9 21-17 0-6-5-9-11-9-10 0-21 8-21 17m101 532c0 5 3 9 11 9 10 0 21-8 21-17 0-6-5-9-11-9-10 0-21 8-21 17m-25-532c0 4 3 9 11 9 10 0 21-9 21-17 0-6-5-9-11-9-9 0-21 8-21 17m76 0c0 4 3 9 11 9 11 0 21-9 21-17 0-6-5-9-11-9-9 0-21 8-21 17m40 241c0 5 3 9 11 9 10 0 21-8 21-17 0-6-5-9-11-9-10 0-21 8-21 17m36-253c0 4 3 9 12 9 10 0 21-9 21-18 0-5-5-9-11-9-10 0-22 8-22 17m120-12c0 4 3 9 11 9 11 0 22-8 22-17 0-6-5-9-12-9-9 0-21 8-21 17M189 343c0 5 3 10 11 10 10 0 21-9 21-18 0-6-5-9-11-9-9 0-21 8-21 17M1543 77c0 5 3 9 11 9 10 0 21-8 21-17 0-6-5-9-11-9-10 0-21 8-21 17m-690 25c0 4 3 9 11 9 10 0 21-8 21-17 0-6-5-9-11-9-10 0-21 8-21 17m976 557c0 5 3 9 11 9 10 0 21-8 21-17 0-6-5-9-11-9-10 0-21 8-21 17M929 127c0 4 3 9 11 9 10 0 21-9 21-17 0-6-5-9-11-9-10 0-21 8-21 17m120-25c0 4 3 9 11 9 10 0 21-8 21-17 0-6-5-9-11-9-10 0-21 8-21 17m315 266c0 5 3 9 11 9 10 0 21-8 21-17 0-6-5-9-11-9-10 0-21 8-21 17m-239-253c0 4 3 9 11 9 10 0 21-9 21-18 0-5-5-9-11-9-9 0-21 8-21 17m76-12c0 4 3 9 11 9 11 0 21-8 21-17 0-6-5-9-11-9-9 0-21 8-21 17M189 659c0 5 3 9 11 9 10 0 21-8 21-17 0-6-5-9-11-9-9 0-21 8-21 17M1277 90c0 4 3 9 12 9 10 0 21-9 21-17 0-6-5-10-11-10-10 0-22 9-22 18m113-13c0 5 3 9 11 9 11 0 22-8 22-17 0-6-5-9-12-9-9 0-21 8-21 17M365 634c0 5 3 9 11 9 10 0 21-8 21-17 0-6-5-9-11-9-10 0-21 8-21 17M1467 77c0 5 3 9 11 9 10 0 21-8 21-17 0-6-5-9-11-9-10 0-22 8-22 17m451 582c0 5 3 9 11 9 10 0 21-8 21-17 0-6-5-9-11-9-10 0-21 8-21 17M700 343c0 5 3 10 11 10 11 0 22-9 22-18 0-6-5-9-12-9-9 0-21 8-21 17m919-266c0 5 3 9 11 9 10 0 21-8 21-17 0-6-5-9-11-9-10 0-21 8-21 17M424 381c0 4 3 9 11 9 10 0 21-9 21-17 0-6-5-10-11-10-10 0-21 9-21 18M1732 65c0 4 3 9 11 9 10 0 21-9 21-17 0-6-5-9-11-9-10 0-21 8-21 17M277 647c0 4 3 9 11 9 10 0 21-9 21-17 0-6-5-9-11-9-10 0-21 8-21 17M1808 65c0 4 3 9 11 9 10 0 21-9 21-17 0-6-5-9-11-9-10 0-21 8-21 17m76-25c0 4 3 9 11 9 11 0 21-8 21-17 0-6-5-9-11-9-9 0-21 8-21 17m-442 353c0 4 3 9 11 9 10 0 21-8 21-17 0-6-5-9-11-9-9 0-21 8-21 17m511-12c0 4 3 9 11 9 11 0 22-9 22-17 0-6-5-10-12-10-9 0-21 9-21 18M346 368c0 5 3 9 11 9 10 0 21-8 21-17 0-6-5-9-11-9-10 0-21 8-21 17m276-25c0 5 3 10 11 10 10 0 21-9 21-18 0-6-5-9-11-9-9 0-21 8-21 17m313 25c0 5 3 9 11 9 10 0 21-8 21-17 0-6-5-9-11-9-9 0-21 8-21 17M577 647c0 4 3 9 11 9 10 0 21-9 21-17 0-6-5-9-11-9-9 0-21 8-21 17m943-279c0 5 3 9 11 9 11 0 22-8 22-17 0-6-5-9-12-9-9 0-21 8-21 17M665 634c0 5 3 9 11 9 10 0 21-8 21-17 0-6-5-9-11-9-10 0-21 8-21 17m88-12c0 4 3 9 11 9 10 0 21-8 21-17 0-6-5-9-11-9-10 0-21 8-21 17M267 368c0 5 3 9 11 9 11 0 22-8 22-17 0-6-5-9-12-9-9 0-21 8-21 17m512-25c0 5 3 10 11 10 10 0 21-9 21-18 0-6-5-9-11-9-10 0-21 8-21 17m186 291c0 5 3 9 11 9 10 0 21-8 21-17 0-6-5-9-11-9-9 0-21 8-21 17M857 356c0 4 3 9 11 9 10 0 21-9 21-17 0-6-5-9-11-9-10 0-21 8-21 17m196 266c0 4 3 9 11 9 10 0 21-8 21-17 0-6-5-9-11-9-10 0-21 8-21 17m587-241c0 4 3 9 11 9 11 0 21-9 21-17 0-6-5-10-11-10-9 0-21 9-21 18m-499 229c0 4 3 9 11 9 10 0 21-9 21-17 0-6-5-10-11-10-10 0-21 9-21 18m388 49c0 5 3 9 11 9 10 0 21-8 21-17 0-6-5-9-11-9-10 0-21 8-21 17m-300-25c0 5 3 9 11 9 10 0 21-8 21-17 0-6-5-9-11-9-10 0-22 8-22 17m-178-253c0 4 3 9 11 9 10 0 21-9 21-17 0-6-5-10-11-10-9 0-21 9-21 18m669 0c0 4 3 9 11 9 10 0 21-9 21-17 0-6-5-10-11-10-10 0-22 9-22 18m-365 266c0 4 3 9 11 9 10 0 21-9 21-17 0-6-5-9-11-9-9 0-21 8-21 17m-67-304c0 5 3 10 11 10 10 0 21-9 21-18 0-6-5-9-11-9-10 0-22 8-22 17m156 316c0 5 3 9 11 9 10 0 21-8 21-17 0-6-5-9-11-9-10 0-21 8-21 17m356-266c0 4 3 9 11 9 10 0 21-8 21-17 0-6-5-9-11-9-10 0-21 8-21 17m163-328c0 4 3 9 11 9 11 0 22-9 22-17 0-6-5-9-12-9-9 0-21 8-21 17m-343 594c0 5 3 9 11 9 10 0 21-8 21-17 0-6-5-9-11-9-10 0-22 8-22 17"/>
	<path d="M31 694c0 6 5 15 18 15 5 0 9-1 12-4 6-3 7-10 7-16l-1-14-2-9c10-3 17-13 17-24 0-14-11-25-25-25l-3-17c11-11 18-23 18-39 0-9-3-17-4-20-3-5-6-9-8-9l-7 5c-6 8-8 21-8 29l2 21-7 7c-9 9-21 21-21 41 0 18 16 33 34 33l8-1 3 22c0 10-5 16-15 16l-5-1c5-1 10-5 10-12 0-5-4-11-12-11-7 0-11 6-11 13m21-133c0-4 5-14 10-14 2 0 4 5 4 11 0 11-8 19-14 25l-2-12 2-10m8 102-5 1c-15 0-27-10-27-25 0-12 9-23 17-31l5-4 3 14c-10 3-16 12-16 22 0 7 6 16 14 16l1-1-2-2c-4-3-6-5-6-10 0-6 5-11 11-13l5 33m14-18c0 7-3 14-10 17l-5-32c9 0 15 6 15 15M31 161c0 7 5 15 18 15 5 0 9-1 12-3 6-4 7-10 7-17l-1-14-2-8c10-4 17-14 17-24 0-15-11-25-25-25l-3-17c11-11 18-24 18-40 0-9-3-16-4-19-3-6-6-9-8-9l-7 5c-6 8-8 20-8 29l2 21-7 7c-9 8-21 20-21 40 0 19 16 33 34 33h8l3 21c0 11-5 16-15 16h-5v-1c5-1 10-5 10-11 0-5-4-11-12-11-7 0-11 6-11 12M52 29c0-4 5-15 10-15 2 0 4 5 4 12 0 10-8 18-14 25l-2-12 2-10m8 102h-5c-15 0-27-10-27-25 0-12 9-22 17-30l5-4 3 14c-10 2-16 12-16 21 0 7 6 17 14 17l1-2-2-2c-4-2-6-5-6-10 0-6 5-10 11-12l5 33m14-19c0 7-3 15-10 18l-5-32c9 0 15 6 15 14M31 427c0 7 5 16 18 16 5 0 9-2 12-4 6-4 7-10 7-16l-1-14-2-9c10-3 17-13 17-24 0-15-11-25-25-25l-3-17c11-11 18-24 18-39 0-9-3-17-4-20-3-5-6-9-8-9l-7 5c-6 8-8 20-8 29l2 21-7 7c-9 9-21 21-21 40s16 34 34 34l8-1 3 22c0 10-5 15-15 15h-5v-1c5 0 10-4 10-11 0-5-4-11-12-11-7 0-11 6-11 12m21-132c0-4 5-14 10-14 2 0 4 4 4 11 0 11-8 18-14 25l-2-12 2-10m8 102-5 1c-15 0-27-10-27-25 0-12 9-23 17-31l5-4 3 14c-10 3-16 12-16 21 0 7 6 17 14 17l1-1-2-3c-4-2-6-5-6-9 0-6 5-11 11-13l5 33m14-18c0 7-3 14-10 17l-5-32c9 0 15 6 15 15"/>
	<path d="M119 70c-5 0-8 3-9 4l1-32-2-1h-1l-1 1v60l2 1h1c8-4 17-13 17-23 0-5-2-10-8-10m-9 28V79c1-1 2-4 6-4s4 3 4 5c0 9-3 13-10 18m9 505c-5 0-8 3-9 3l1-32-2-1h-1l-1 1v60l2 1h1c8-4 17-12 17-22 0-6-2-10-8-10m-9 27v-19c1-1 2-4 6-4s4 4 4 6c0 9-3 12-10 17m9-294c-5 0-8 3-9 4l1-32-2-1h-1l-1 1v60l2 1h1c8-4 17-12 17-23 0-5-2-10-8-10m-9 28v-19c1-1 2-4 6-4s4 4 4 6c0 8-3 12-10 17"/>
	<path d="M175 56c-6 0-8 2-9 4l-1-6c0-5 2-13 9-13l5 2c-2 1-4 4-4 6 0 4 3 7 7 7 3 0 6-3 6-7l-1-3c-1-4-5-9-15-9-9 0-15 8-17 13-1 2-3 7-3 13s2 13 8 18c5 4 9 4 13 4 3 0 16-4 16-15 0-10-8-14-14-14m-4 25c-3 0-5-4-5-10 0-5 2-10 5-10s7 5 7 10c0 6-3 10-7 10m12 27c3-2 5-5 5-9 0-7-8-13-17-13-10 0-18 6-18 13 0 4 1 7 6 10-5 3-7 6-7 11 0 8 8 15 19 15 10 0 18-7 18-15 0-5-1-9-6-12m-6-2c-7-3-14-6-14-10s3-6 8-6c6 0 10 3 10 8 0 4-2 7-4 8m-6 23c-7 0-12-3-12-9 0-7 5-8 5-8 7 2 16 6 16 11 0 3-3 6-9 6"/>
	<path d="M1151 368v-1l-12-14v-1l10-15v-3l-16-21-1-1h-1v2l8 11v2l-10 15-1 1v1l1 1 11 14-3-1c-5 0-9 4-9 9l1 4 10 13 1 1 1-1v-2l-3-6-1-3c0-3 2-6 5-6l4 1 4 2v1l1-1 1-1-1-1"/>
	<path d="M1180 530c-10-10-18-11-23-11s-14 1-23 11c-5 5-8 16-8 21l1 4c3 0 2-9 10-17 7-8 17-8 20-8 2 0 12 0 20 8s6 17 9 17l2-4c0-5-4-16-8-21m-30 19a7 7 0 1 0 14 0 7 7 0 0 0-14 0"/>
	<path d="m808 265 159 12v13l-159-13v-12m-234 6 158-6v12l-158 7v-13m809 291 178 6v13l-178-7v-12m287-266 159 6v13l-159-7v-12"/>
	<path d="m239 154 1 1 1-1 1-4 5-10 15-18c5-7 8-13 8-22s-2-17-8-26l-1-1h-1v2c4 9 5 15 5 22 0 8-2 12-4 15-7 11-17 17-21 18l-1 1v23m219-96 1 2c4 1 12 6 19 17 2 3 4 8 4 16a63 63 0 0 1-4 23l1 1 1-1c5-8 6-17 6-26 0-13-7-23-7-23l-12-16-6-12-1-3-1-1-1 1v22m237 514v1c5 2 13 7 20 18 1 3 4 7 4 16a63 63 0 0 1-4 23l1 1 1-1c5-8 6-18 6-27 0-12-8-22-8-22l-11-16-6-12-1-4-1-1-1 2v22M297 306l1 1c4 2 13 7 19 18 2 3 5 7 5 15a63 63 0 0 1-5 24l1 1 2-2c4-7 6-17 6-26-1-13-8-22-8-22l-12-16c-4-6-5-12-5-12l-1-4-2-1-1 2v22M610 46l1 1c4 2 13 7 19 18 2 3 5 7 5 15a63 63 0 0 1-5 24l1 1 2-2c4-7 6-17 6-26-1-13-8-22-8-22l-12-16-5-12-1-4-2-1-1 2v22m196-6 1 1c4 1 13 7 19 18 2 3 5 7 5 15a63 63 0 0 1-5 23l1 1 2-1c4-8 6-17 6-26-1-13-8-22-8-22l-12-17-5-11-1-4-1-1-2 1v23m153 18v2c5 1 13 6 20 17 1 3 4 8 4 16a63 63 0 0 1-4 23l1 1 1-1c5-8 6-17 6-26 0-13-8-23-8-23l-11-16-6-12-1-3-1-1-1 1v22m196-12 1 1c4 2 12 7 19 18 2 3 5 7 5 15a63 63 0 0 1-5 24l1 1 1-2c5-7 6-17 6-26 0-13-7-22-7-22l-12-16-6-12-1-4-1-1-1 2v22M870 578l1 1c4 2 13 7 19 18 2 3 5 8 5 16a63 63 0 0 1-5 23l1 1 2-1c4-8 6-17 6-26-1-13-8-23-8-23l-12-16-5-12-1-4h-1l-2 1v22m407-412 2 1h1l1-4 4-10c4-7 10-11 15-18s8-14 8-23-2-16-7-26l-2-1-1 1v2c4 9 6 14 6 21 0 8-3 13-5 16-6 11-17 16-21 18l-1 1v22m190-12 1 1 1-1 1-4 5-10c3-6 9-11 14-18s8-13 8-22-2-17-7-26l-2-1-1 1v1c4 9 6 15 6 22 0 8-3 12-5 15-6 11-17 17-21 18v24m-73 152v1c5 2 13 7 20 18 1 3 4 7 4 15a63 63 0 0 1-5 24l2 1 1-2c4-7 6-17 6-26 0-13-8-22-8-22l-11-16-6-12-1-4-1-1-1 2v22m225-152 1 1 1-1 1-4 5-10 15-18c5-7 7-13 7-22s-2-17-7-26l-1-1h-1l-1 1 1 1c4 9 5 15 5 22 0 8-3 12-4 15-7 11-17 17-21 18l-1 1v23m115 437 1 1c4 1 13 7 19 18 2 3 5 7 5 15a63 63 0 0 1-5 23l1 1 2-1c4-8 6-17 6-26-1-13-8-22-8-22l-12-17c-4-5-5-11-5-11l-1-4-2-1-1 1v23m74-444 1 2 1-1 1-4 5-10 15-18c5-7 8-14 8-22 0-9-2-17-8-26l-1-2-1 1v2c4 9 5 14 5 22s-2 12-4 15c-7 11-17 17-21 18l-1 1v22m-725 413v1c5 1 13 7 20 18 1 3 4 7 4 15a63 63 0 0 1-4 23l1 1 1-1c5-8 6-17 6-26 0-13-8-22-8-22 1 0-9-12-11-17-4-5-6-11-6-11l-1-4-1-1-1 1v23m877-413 2 2 1-1 1-4 4-10 15-18c5-7 8-14 8-22 0-9-2-17-7-26l-2-2v1l-1 1v1c4 9 6 14 6 22s-3 12-5 15c-6 11-17 17-21 18l-1 1v22M307 578v1c5 2 13 7 20 18 1 3 4 8 4 16a63 63 0 0 1-4 23l1 1 1-1c5-8 6-17 6-26 0-13-8-23-8-23l-11-16-6-12-1-4h-1l-1 1v22m1676-266 1 1c4 2 13 7 19 18 2 3 5 7 5 16a63 63 0 0 1-5 23l1 1 2-1c4-8 6-18 6-27-1-12-8-22-8-22l-12-16-6-12-1-4h-1l-1 1v22M482 591l1 1c4 1 13 7 19 18 2 3 5 7 5 15a63 63 0 0 1-5 23l1 1 2-1c4-8 6-17 6-26-1-13-8-22-8-22l-12-17-5-11-1-4-1-1-2 1v23m1068-285 1 1c4 2 13 7 19 18 2 3 5 7 5 15a63 63 0 0 1-5 24l1 1 2-2c4-7 6-17 6-26-1-13-8-22-8-22l-12-16-6-12-1-4-1-1-1 2v22m-1096 6v1c5 2 13 7 20 18 1 3 4 7 4 16a63 63 0 0 1-5 23l2 1 1-1c5-8 6-18 6-27 0-12-8-22-8-22l-11-16-6-12-1-4h-1l-1 1v22m804 260 1 1c4 2 13 7 19 18 2 3 5 7 5 16a63 63 0 0 1-5 23l1 1 2-1c4-8 6-18 6-27-1-12-8-22-8-22l-12-16-5-12-1-4-1-1-2 2v22"/>
	<path d="m142 273 2 1h17l2-1c0-2-7 0-8-3v-16c0-7 1-6 4-7l2-1-1-1h-16l-1 1 1 1c5 0 6 0 6 6v9l-1 7c-1 4-7 2-7 4m26-3 2 2c1 1 1 3 3 3l2-2 3-3-2-2-3-3c-2 0-2 2-3 2l-2 3"/>
	<path d="M126 218v56h2v-53h1099v53h3v-56z"/>
	<path d="m1268 273 2 1h22l1-1 4-7-1-1-3 4-10 1-3-1 4-4c3-3 9-8 9-13s-5-7-10-7c-9 0-11 5-11 7s2 3 4 3l1-1-1-4c0-2 1-3 4-3s7 2 7 6c0 5-4 11-15 18l-4 2m34-3 2 2 3 3 2-2 3-3-2-2-3-3-3 2-2 3"/>
	<path d="M1252 218v56h3v-53h784v-3z"/>
	<path d="M1874 655c0 3 2 5 4 5 3 0 5-2 5-5s-2-5-5-5c-2 0-4 2-4 5m-779-291c0 3 2 5 5 5 2 0 5-2 5-5s-3-5-5-5c-3 0-5 2-5 5m866 291c0 3 2 5 5 5s5-2 5-5-2-5-5-5-5 2-5 5"/>
</svg>
