<?xml version="1.0" encoding="utf-8"?>
<svg xmlns="http://www.w3.org/2000/svg" version="1.1" viewBox="0 0 1124 197">
	<title>Three measures of musical notation on the treble clef, with the Common Time symbol, in the key of C. All the note stems are placed to the right of the notes and are directed up. The first measure: quarter note G on 2nd staff line; single barline. The second measure: quarter note C on 3rd staff space; eighth notes (with connecting beam)—E on 4th staff space, C on 3rd staff space; quarter notes—G on 2nd staff line, G on 2nd staff line; single barline. The third measure: quarter notes—E on 4th staff space, C on 3rd staff space; single barline.</title>
	<path d="M0 55.867h1123.2M0 80.667h1123.2M0 105.47h1123.2M0 130.27h1123.2M0 155.07h1123.2" fill="none" stroke="#000" stroke-linejoin="bevel" stroke-width="2.73"/>
	<path d="M274.07 54.503V156.43M840.04 54.503V156.43M1121 54.503V156.43" fill="none" stroke="#000" stroke-linejoin="bevel" stroke-width="4.46"/>
	<path d="M233.4 126.3V43.467m106.14 45.632V24.867m122.13 39.432V6.45m81.43 82.649V18.484M624.52 126.3V43.467M746.66 126.3V43.467M905.5 64.299V6.267m122.1 82.832V24.867" fill="none" stroke="#000" stroke-linejoin="bevel" stroke-width="2.48"/>
	<path d="M202.41 134.44c0 4.263 3.069 9.021 11.113 9.021 10.308 0 21.127-8.432 21.127-17.159 0-5.859-4.96-9.13-11.113-9.13-9.626 0-21.127 8.138-21.127 17.268m106.13-37.203c0 4.263 3.069 9.021 11.113 9.021 10.308 0 21.127-8.432 21.127-17.159 0-5.859-4.96-9.13-11.113-9.13-9.625 0-21.127 8.138-21.127 17.267m122.14-24.799c0 4.263 3.069 9.021 11.113 9.021 10.308 0 21.127-8.432 21.127-17.159 0-5.859-4.96-9.13-11.113-9.13-9.626 0-21.127 8.138-21.127 17.268m81.42 24.8c0 4.263 3.069 9.021 11.113 9.021 10.308 0 21.127-8.432 21.127-17.159 0-5.859-4.96-9.13-11.113-9.13-9.626 0-21.127 8.138-21.127 17.267m81.43 37.204c0 4.263 3.069 9.021 11.113 9.021 10.308 0 21.127-8.432 21.127-17.159 0-5.859-4.96-9.13-11.113-9.13-9.626 0-21.127 8.138-21.127 17.268m122.14 0c0 4.263 3.069 9.021 11.113 9.021 10.308 0 21.127-8.432 21.127-17.159 0-5.859-4.96-9.13-11.113-9.13-9.626 0-21.127 8.138-21.127 17.268m158.84-62.003c0 4.263 3.069 9.021 11.113 9.021 10.308 0 21.127-8.432 21.127-17.159 0-5.859-4.96-9.13-11.113-9.13-9.626 0-21.127 8.138-21.127 17.268m122.13 24.8c0 4.263 3.069 9.021 11.114 9.021 10.308 0 21.126-8.432 21.126-17.159 0-5.859-4.96-9.13-11.114-9.13-9.625 0-21.126 8.138-21.126 17.267"/>
	<path d="M30.799 181.15c0 6.556 4.96 15.19 18.352 15.19 4.665 0 8.742-1.194 12.307-3.379 5.363-3.766 6.742-10.323 6.742-16.569 0-3.86-.588-8.323-1.58-13.981-.295-1.984-.9-4.96-1.489-8.835 9.719-3.178 16.958-13.3 16.958-23.514 0-14.973-10.617-25.095-25.095-25.095-.992-5.952-1.984-11.811-2.775-17.36 10.416-11.021 17.654-23.421 17.654-39.184 0-9.037-2.774-16.368-4.37-19.948-2.372-5.053-5.255-8.525-7.038-8.525-.697 0-3.766 1.193-7.037 5.053-6.355 7.548-8.137 20.243-8.137 28.566 0 5.363.496 10.23 2.185 21.343-.109.093-5.27 5.347-7.347 7.037-9.036 8.339-21.53 20.429-21.53 40.285 0 18.538 16.168 33.124 34.628 33.124a45.43 45.43 0 0 0 7.827-.697c1.891 9.532 3.085 16.476 3.085 21.73 0 10.324-5.363 15.78-15.376 15.78-2.387 0-4.464-.496-4.666-.496-.093-.109-.294-.202-.294-.295 0-.201.201-.31.496-.31 4.665-.79 9.315-4.759 9.315-11.098 0-5.363-4.06-11.021-11.5-11.021-6.945 0-11.316 5.657-11.316 12.199m20.74-132.43c.898-3.968 5.455-14.384 10.617-14.384 1.488 0 3.86 4.758 3.86 11.702 0 10.323-7.626 18.058-14.477 24.8-.59-3.968-1.085-7.828-1.085-11.997 0-3.674.294-7.053 1.085-10.121m8.726 101.97c-1.984.403-3.86.604-5.75.604-14.182 0-26.288-9.92-26.288-24.908 0-12.09 8.525-22.909 17.267-30.458 1.674-1.488 3.27-2.867 4.758-4.355.884 5.347 1.581 10.013 2.279 14.089-9.037 2.681-15.174 12.199-15.174 21.53 0 6.944 5.456 16.46 13.392 16.46.79 0 1.69-.402 1.69-1.286 0-.899-.993-1.395-2.186-2.185-3.875-2.387-6.06-4.96-6.06-9.827 0-6.045 4.572-10.912 10.322-12.292l5.75 32.628m14.09-18.352c0 7.052-2.883 14.29-9.92 17.174-2.077-11.904-4.759-27.683-5.456-32.054 8.928 0 15.376 6.06 15.376 14.88"/>
	<path d="M139.12 87.704c-2.48 1.597-4.263 4.464-4.263 7.642 0 .403 0 .79.094 1.193.496 4.061 3.782 7.239 7.843 7.735h1.085a8.89 8.89 0 0 0 8.928-8.928c0-.698 0-1.38-.186-2.078-.9-4.262-4.774-13.392-21.638-13.392-21.623 0-24.103 17.95-24.103 24.397 0 11.811 1.488 26.598 26.288 26.598 9.827 0 17.469-5.766 17.856-16.384 0-.496-.295-.79-.79-.79h-1.287c-.403 0-.79.403-.79.79-.404 8.247-6.263 13.206-14.99 13.206-8.633 0-12.803-4.665-12.803-13.392V95.345c0-5.549 2.186-11.904 11.02-11.904 4.666 0 6.743 1.69 7.843 3.38.093.201.093.294.093.495 0 .094 0 .295-.201.388"/>
	<path d="m460.43 0 83.904 12.4v12.535l-83.904-12.4V0" fill-rule="evenodd"/>
</svg>
