<?xml version="1.0" encoding="utf-8"?>
<svg xmlns="http://www.w3.org/2000/svg" version="1.1" viewBox="0 0 549 708">
	<title>Sketch of a steep hillside with underbrush on the top right. A cave or outcropping is in the center.</title>
	<path d="m2 707-2-2 2-1h3v4l-3-1zm3-24-1-4c0-3 1-5 3-5l2 2c2 1 2 1 2 3-1 3-3 5-4 5l-2-1zm3-13-1-3 3-9c2 1 3 0 4-2 1-1 0-2-2-1l-3 1v-2l2-4 2-5-1-2-1-2c-1-2 0-6 1-6l1-1v-3c-1 0-1-2 1-5l2-6v-3c0-2 2-5 4-5l2 1c1 1 1 1-1 3l-3 2 1 1 1 2v6l1 3-1 2-2 1h-3c-2 1-2 2-1 2l2 2-1 4-1 2 4-5c1-2 5-4 8-4l4 4c0 2-1 3-3 3v-3c0-3 0-3-4-1-2 1-5 7-4 8v2l-1 4c0 2 2 1 3 0 1-2 1-2 3-2h3l-4-2c-2 0-2 0-2-2v-3l2-1 1 1c-1 2 0 3 4 3 2 0 3 0 3 2l-2 2-1 5v7c-2 3-5 6-6 5l-1-2 1-3v-1h-2l-3 2c-2 0-2 1-2 2v5l-2 2-3 1c-1 0-2 0-2-2zm21-42-1-1-3-1c-2-1-2-4 0-5l2-2v-1h3l3 4v5c-1 2-3 2-4 1zm3-6h-2l-1 1h1l2-1zm-2-6v-5h2c2 1 2 2 1 3l-2 2h-1zm-7-2 1-1 1 1h-2zm4-4-3-1-3-1 1-4c0-3 1-4 2-5l4-1 1 1v2c2 0 2 2 0 2l-1 2-1 2h1l1 1-1 2h-1zm5-6 3-5 1-1 1-3c1-1 1-1-1-2l-4-1v1l-2 3c-2 1-2 1-2-1l-1-2c-2 0-2 0-1-3l2-6 2-1 2-1-1-2c-1-1-1-1 1-5l2-8c1-3 1-3 4-4 2 0 2 0 3-3 3-4 5-9 6-13 1-2 1-4 3-4l2-3 1-3c0-2 1-3 3-4 2-2 2-2 3-1 1 2 4 2 3 0l-2-1-2-1 2-3 4-6 2-2v-2c-1-1 0-4 1-4 2 0 3 2 3 5 0 2 0 2 2 2h2l3 1 2-2h3c0-1 1-2 2-1l1-1 1-1c2 0 1 2-1 4l-3 2-3 2-2 4v4l-4 6-3 5-1 4-2 3c-1 1-1 2 1 3l1 2-2 2c-2 2-3 2-4 1h-3l1 1-1 2-2 1-1-2c-2-2-1-4 0-4h1l-1-4-2-3h-2l2 1v2c-1 1-2 2-3 1l-3-1c-2 0-2 0-1 2l1 2h1l4 3-2 1-1 1 1 2 1 2-1 2-1 3-3 3-2 3-1 1h-3c-1 2-2 2-2 1v-3l2-2 3-2 5-5-2-1-2-1 2-3v-3l-2 2-2 4v4l-2 2c-2 0-2-2-1-3v-1h-2l-4 7c0 2 0 2 1 1h2c1 0 1 1-1 2l-2 3-1 3-1 4v1l5-5c0-1 1-3 3-3v2l-1 3-1 2c0 2 0 2-3 1l-2 1 2 2c1 0 2 1 2 3l1 4a448 448 0 0 0-2 6c-3 2-5 2-5 1zm32-53-1-1v2h1v-1zm-5-3-1-2-1 1c0 2 1 2 2 1zm6-4 4-3-1-4c-1-2-2-3-4-3v5l1 4-3 2c-2 1-2 1-1 2 1 2 1 2 2 0l2-3zm-4-2 2-3-2-2c-2-1-5-1-5 1l1 3v4l4-3zm-8 2v-1h-1c0 2 0 2 1 1zm14-13 1-1v-2l-2-1-2 2v3h1l2-1zm7-3 1-3h-1l-2 1v1c0 2 1 2 2 1zm-5-3v-2h-3v1l2 2 1-1zm-28 63v-2l2-1c2 0 3 1 1 3h-3zm5-4c-1-1 0-3 2-4h2c1 1 0 3-2 4h-2zm26-69-4-5 1-2 3-1c1 0 2-1 2-3 0-3 3-8 4-8l2 1 2 2h3l1-1-2-1c-2 0-2 0-2-2l-1-3 1-2h1l1 3 1 2 2-2a561 561 0 0 1 5-1v6h-1l-1 1 1 1c1 0 2 1 1 2h-5l-2 1-1 2-3 3h-3l-2-1v1l1 3h4v2h2v-2l1-2 2-1 1 1c1 2-2 6-4 6l-1 1-1 1-1-2-1-1-2 4-1 1-4-4zm4-2-2-3-1-1v2l2 4 1-2zm6-9c2-2 2-2 1-3l-4 3v1l3-1zm8 9 1-1 1 1-1 1-1-1zm4 0-1-7c-1-2 0-3 1-3l1 2 1 3 1 1 2-1 2-1h1l1 2-2 1c-1 0-2 0-3 2-2 2-3 2-4 1zm-5-4v-5l1 1 1 2v3l-2-1zm15-2 1-3c1-3 2-3 3-3 2 1 2 1 1-1l1-2 2 2c1 1 3 2 4 0v-1h-3l-1-2 1-1h4c2-1 2-2 2-4l-1-5v-2l2-1 1 2 1 1h8v-1l-1-2h7l-2 1c-1 1-2 2-1 3 0 2 0 2-2 3l-2 1-2-2c0-1 0-2-2-1h-3v5c1 1 0 1-1 2-1 0-2 1-2 3l-2 3-3 3-5 2c-2 1-5 2-5 0zm-7-4 1-2 1-1 1-2 1 2-2 3-2 1v-1zm-3-4v-5l-1-3v-1l-1-2-1-2-1 2-2 2-3-1v-5l3-5 5-6 4-5c1-4 3-5 4-5h1l-1-1-1-1 3-5 1 2 1 2 2-1-1-1-1-1-1-3 2-1h2l1-2c0-3 0-4 4-8l6-7c1-2 2-3 3-2s2 0 1-1-1-3 1-3l1-1 1-6 3-12 3-5c1-3 4-5 6-5l3-2 4-2 6-2 3-2 6-1 6-1 2-2 1-2 1-2 3-6 4-10a267 267 0 0 0 8-14l4-5 9-12 5-5 1-2v-2l1-3 2-2 1 1-2 2-2 2h2l2-1 2-3 1-3v-3l1-3 4-10 4-7 5-8 5-4 4-5 6-7 8-10 7-8 8-10 13-14a6905 6905 0 0 0 26-25l14-10c4-2 5-3 5-7l1-5-1-1c-2 0-2 0-1-1 2-1 2-1 1-2l-2-3 1-1 1-1h-4l-2 2-6 3-3-1 4-1 3-1-2-1c-2 1-2 0-2-2s0-2-2-2l-3-1c0-1 1-2 3-2l4-3v-5c1-1 1-2-1-3l-1-3 2 2c2 2 3 2 4 1l1-1 1-2 1-2h-3v-2l1-1 3 1 3 1 1 2v1l2-3c-1-1 0-1 1-1h2v1l-1 1h2c1-1 2-1 1-3l1-5v1l1 2 1-1 1-1v1c0 2 3 3 4 2s1-2-1-2l-1-1 1-1 1-1-1-2v-1l3 2 3 3v-3l1-3c2 0 2 0 2 2l-1 2v1l2-1c2-2 2-2 3-1l1 1 1-1h1l2 1h1l2-1 2-1 1-2c0-3 1-4 2-2v4h3l4 1h2l1-3 1-4 1-1v1c-2 0-1 2 2 4l3 2 1 1c2 0 1-3-2-5l-2-1h2c2 0 2 0 2-2v-3l1 2 1 5c0 4 1 7 2 7l-1-11-1-3h3l1 3c0 2 1 2 2 1s3 0 5 2l1 1 1-2 1-2c1-1 1-1 2 2l2 3 1 2v3h1v-5l3-3c1-2 2-2 2-1l-1 2v1l1 1-1 1c-2 0-3 2-2 4l2-1 3-1h2v-2l-1-3-1-3v-2l2 4 1 2h2v-1l-1-2v-1h4v3l-1 4 1 1 1-2 1-3c1-1 1-1 2 2l1 4 1-3c-1-2-1-2 1-1v-3l1 1c1 1 3 1 3-1l1-2 1-2-1-2-1 2-2 2-1-1-3-3-2-3h1l2 2 1 2 1-3-1-4c0-2 0-2 1-1l1 3 1 2 1 1v-4l-1-2c1-2 3 4 3 5-1 2 2 1 5-2s3-3 3-1l1 2 1-1 2-1c1 0 2 0 2-2v-2h1v3l1 1 2 1h2v-3l1-3 3-1h2v-4l-1-1-1-1h-2v-2h1l3 1h4l1-3-1-1-2 1h-2l2-2 3-2 2-1h1c-1-1-1-2 1-3l2-2c1-2 1-2 2-1l2 1v1l1 1h4v-3l-1-1h3c1 0 2-1 2-3v-3l-1-2-1-1-1-1c1-2-1-6-2-6l-1 2-1 2-2-2v-2l1-1c0-1-2-3-4-3l-1 2v4l-1 2v-4l-1-4c0-2-1-2-4-2h-4l-1 2-2 2 1-3c0-3 0-3-1-2l-2-1h7c2 0 3-1 3-2l1-1h4l1 2 2-2 1-3-3-1-2 1-1 1-1-1-2-2-2-1 4 1h1l1-3v-3l3 1 2 1-1 1-2 1 2 2h4l1-1 2 1c2 0 2-2 0-3s-2-3 0-3l1 1c0 1 1 2 2 1v-3l-3-1-3-2c-1-2-3-2-4-2v-4c1-1 1-1-1-2h-7l-2 1-2 1c-1 1 0 4 2 4l3-2 2-1-3 2-6 4-3 1 1-2 2-2-4-2c-2-2-4-2-7-2h-3l1-1 2-2 2-1 8-4c0-1-2-2-4-1l-3-2-1-2-2 2c-2 2-2 2-4 1s-2-1-4 1l-3 3c-2 1-4 0-4-1l2-2 2-2h-3l-3-2 3-3 2-2h-7l-1-1 4-3 6-3c3 0 5-1 4-2h-6v-2c2-1 2-1 0-1l-2-1 3-1 4 1h15l4-1 2-2 3 1 4 1 5-1 3-1h4l2 1v-1l-2-1-3-2-2-3-4 3-4 2 2-2c3-2 4-3 2-4l-3 1-3 1-1 1c-1 2-1 2-3 1l-2-2-1-2-4 2-4 1-1-2 1-1c3 1 4 1 4-1l-1-3 1-1 2 1 2-1 3-1c1 0 2 0 3 2l3 2 2-2 3-1c2 0 2 0 2 2l1 2 2-1 2 1 4 1 4-1 1-1c2 0 2 1 1 1l-4 2-2 2c0 2 4 2 4 1l6-3a871 871 0 0 0 4-3l-1-2V5h-2l-1-1 1-2h4l1 2 1 3 3-4 3-3 2 2 4 2 3-1c2-1 2-1 3 1s3 2 2 0l-1-2h8l1-1v1l1 2c1 1 5-1 6-3l3-1v3l-1 3 1 2 1-1 1-5 2-1c2 0 2 1 3 3l1 14a3263 3263 0 0 1-1 169l-2-4c-1-7-1-7 1-9s2-3 2-6l-1-4-1 2c1 2 1 2-1 2-2-1-3 0-2 1v8c0 2 0 2-2 2l-2 2h4v7c0 1 1 2 3 2l1-1h2l1 6v5h-2v1c1 0 2 0 1 1l1 2v5l-1 4h-1l-2-1-2-1-2-1h-2l1 1h1c1 1 0 1-1 1-1 1-2 2 0 2v1c-1 2-2 4 0 4l3-3c0-1 2-1 4 1s3 2 3 6c0 3-1 4-2 5l-2 2 3 2c2 2 2 3 2 11a193 193 0 0 0-1 13l-2 2-4 1h-8l-2-1-2-1h5l1-2v-1l1-1c-1-1 1-3 2-2v5c2 0 4-3 4-6l1-2c1 0 2-1 2-3l-1-2-1 1-2 1-3 1c-1 2-1 2-2 0l1-1c2-1 2-1 1-2l-2-1-1 1-3 1-2 1 1 2 1 2-1 1h-3c-1-1-1 1-1 1h-4l-1 1v3l1 2-2 1c-2 0-3 0-2-1 0-1-3-4-5-4h-3l-4-1c-4-1-4-1-4 1l1 3 1 1h-2v2h-1l-1-2-2-2h-2l-1 2v1-1l-1-3-1-2c-1-2-1-2 1-2h18l-1-2v-2l-1-2-1-3c1-1 0-2-2-4l-3-2v2c0 3 0 3-2 3l-2 1 2 1 3 1c0 1-2 2-3 1h-2c-2-1-2-1-2-3l2-2 1-2-2-1c-1-1-1-1 1-1l3-2c-1-2 1-2 1 0l2 1v-3l-1-2h-8l-3-1h-3c-2 1-8 2-9 1l1-1h4l3-2c-1-1 0-1 2-1h4l-1-3c-1-1-1-1 1-1h4c3 0 2-1 0-2l-4-1h-5l-2 3-1 1-3-2-4-1-3-1-1 1 1 1v1h-3l-2-1-3-1c-1-1 0-1 2-1l4-1h4l4 1 1-1c1-1 2-2 4-1l4-1v-1l-2-1-2-2h-3v1l-2 2h-2c1-2 0-3-1-3h-2l-1 2-1 1h-5l-2-2-2 1c-1 1-1 1-4-1l-4-2-1 1c0 2 0 3-2 3-1 1-2 2-1 3l1 1-3 1c-1 0-2 0-1-1l-2-1-2-1 2-2 4-2 2-1h-2c-1 1-2 0-2-2 1-1 0-2-1-3-1 0-2-1-1-2h1l2 1 2 2c1 0 2-1 1-2v-3c-1-2-1-3 1-3l1 2v2c-1 1 0 1 3 1h6l-1 1v1l6 1c3 0 4 0 4-2v-1l-2-1 2-1 2-2c1-2 0-3-2-3l-3 1c-2 1-2 1-4-1l-3-1-3 1h-2l-4-1-3-1c-2-2-3-2-4-1h-3l-2 3c-2 2-3 3-3 1l-2-1a1127 1127 0 0 1-8 2c0 2 0 2-1 1 0-2-1-2-3-2s-2 0-2-2 0-3-2-3l-3-1h-5l2 2 4 4 1 3h-2c1-1 1-1-1-2h-2c-1 1-1 0-2-1l-2-1v-1l-2-1-1 1c-1 1 0 2 2 3l1 1c-1 1-1 2 2 2h1l-4 1c-1 2-1 1-1-1l-2-2h-11l-5 1h-1l-3-1-3 2-2 1-1-2 1-2h6l11-2h-5l-10 1c-5 0-6 0-7 2l-3 2c-1 0-2-1 0-1l1-2-5 1-2 2-1 1-3 1h-1c2-1 2-2 1-2v-1l1-1-7-1-6 1c0 2-2 2-1 0l-2-1-2 1-2 1-3 2-3 3-3 1c-2 3-8 4-10 4h-3l2 2 1 1-1 1-2 1-3 1-2-2-3 1-2 1v-2l-2-3c-1-1-1-1-1 1l-1 2-1 1 1 1 1 3-2 4-2 2 1 3 1 2-1 1-1-2-4-3-3-2v2l-3 2-3 2v3h-3l-2-1 2-2v-3l-4 1 1 1 2 11h-3l-2 1 1 3 1 1h-1c-2 1-2 1-1 2l2 4-1 3c1 2 1 3 3 3h2l1-1 1 1c1 2 0 3-1 3l-2 1-2-1-3-1h-2l2-2h1l-2-1v-6l-2-1-2-1 1-2 1-2c-1-1-3 0-3 1 1 2-1 4-2 4l-3 3-4 1h-2v2l1 2 2-1 2-2 2-1c0-2 2-3 3-2l2 1 1 1v4l-1 2h-1l-1-2h-3l-5 1-1 1v3l-4 3-4 4c0 2 2 2 2 0l2-1 1-2 3-1c1 0 2 0 2-3l2-3 2 2 1 3-2 1h-3l2 2 1 1-2 1c-2 0-2 0-2-2 0-1-1-1-2 2-2 3-2 3-5 3l-4-1-1-1-1 1-1 3c-1 2-1 1-1-1l-1-1-1 1c0 3-1 5-3 6s-2 2-2 3v2h1l1-2h1l1 3c0 2-1 2-2 2l-1 1 1 2c1 1 1 0 2-1l1-2c2 0 1 2 0 5l-1 4c1 1 0 1-1 2l-1 2 2 1h3l-1 5-1-1-1-2-3 3-4 3-2 1v3l3 1c2 0 2 0 2 2l1 3 2-1v-2l-1-3v-3l1 1c1 1 1 0 2-1l1-1 2 2-1 3-2-1h-1l1 2 1 2v2l1-1 2-1 7-4 4-5 2-1h2l1-1c2 0 7-5 7-7l4-1h3l-2-1-2-1c0-1 3-4 5-4l3 1v3l-2 2v1l-1 2v2l-1 4-4 3-3 3h-1c-1-2 1-5 4-7 1-2 2-2 1-3h-2l-2 2-2 1-2 2-2 1v2l-1 1c-1 0-2 0-2 2s-3 5-4 4l-1 1 1 2c1-1 1 0 1 1 1 2 1 3 2 1v-1c-1-2 0-3 1-2l1-1h1v3c1 1 1 1 2-1s3-2 4-1v7l-2-1c-1-1-1 0-1 2v4l3-1c2 0 2-1 3-3v-3l1-1 1 1a667 667 0 0 0 2 3h2c2 2 2 2 3 1l1-1 1 3c0 1 0 2-3 3l-4 2-2 2c0 2 1 2 1 0l3-1 3-1h5l2-1c2 0 1 2 0 3l-1 2 1 1 3 2c2 2 2 2 4 0l2-2v-2l2 1 1-1h2l2 1 1 1-1 1-2 1h-2c-1-1-1-1-4 2h-7l-3-2c-1-1-2-2-1-3 0-2-2-2-4 0l-2 1 2 1 1 2-1 1-1-1h-2c-1 1 0 2 1 4l3 2 1-3c-1-1 0-2 1 0l1 2v2l4-1 2-1c1 1 5-1 6-2 1-2 3-1 3 1l-2 2-2 1h-1l-2 1h-2l-3-1 1 3 3 2 2 1-1 3h-2l-1 1-1 2h-1l-3-1-3-2-2-1-2 4c-2 4-3 10-2 10 1 1 0 9-1 11l-1 2 1 5v5l-2-2-1-2 1 3 1 6 1 11-1 4-3-1v-15a77 77 0 0 1 1-28l2-5 2-7 1-3-4-1-6-2-3-1c-1 0 0 0 0 0 1 1 0 5-1 7-1 1-1 0-3-1-2-2-2-3-2-5l-2-3c-2-1-3-3-2-3v-2l-1 1c0 2-5 2-9 0h-8c-1 0-2 0-1 1l2 5-1 13 1 6v3l-2 3-1 4-2 5-3 7-1-4c0-3 1-5 3-8l2-5-1-2v-3l1-4 1-4v-4l-1-6v-1l-2 1-2 2-1 2v2l-1 4v13l-1 3-2 4-2 5c0 4-2 8-3 8l-1-2 1-4 4-10 1-4-1-4v-3l1-4 1-3v-3c-1 0-3 0-4 2l-2 1-3 1-1 4 1 6-1 6-1 7-1 7-2 1v-2l1-6 1-6v-4l-1-3c0-3 0-3-2-4l-3-1-2 2v5l1 5h-2c-1 0-2-5-1-8l-1-1-2 1c-2 2-2 2-2 9l-1 7c-1 2-2 0-2-3l1-3-2-4-2-2c-2 0-10 5-11 7l-1 3c2 1 0 2-2 1l-3 1v7l2 1v2l-3 1-2-3-2-4-3 1c-3 0-3 0-3 3 1 3 0 3-2 4l-5 1-2 1 1 1 2 2-2 1-3 2 1 4 3 2 2-1 1 3 1 3c1 1 1 0 2-1h2l2 7 1 1 2 3-1 4-2 2c-2 0-4-2-3-3v-1h-1c-1 2-3 1-4-1l2-2 2-2-1-1h-1l-3 1-5-3-2-2v-1c2-1 2-1 0-2l-2-1-1-3-1-5 1-4c1-1 0-2-1-2l-3 4-2 4v4c0 4 0 4 2 4s2 1 3 2l-2 2h-4l-1-2v-3l-3-1-1 1 2 5c2 4 2 8 1 9l-1-1-3-2-2-2-1-2-1-2 2-2c1 0 2-2 0-1-1 0-5-3-5-6-1-1-1 0-1 1l1 3v2c-1 2-1 3 1 4l1 1h-4l-1-3-1-4-1-2v3c-1 3-1 3 1 5 1 1 2 2 1 3 0 2 0 2 2 1l3 1-1 2 1 2 1 3 1 2c2 0 4 3 4 5l1 2h4c2 1 2 4 1 4l-3-2h-1l-1 2c1 1 1 1-2 1l-4-2h-9l2 2 2 1 2 2v-3l2 1h3l1 3v6l-1 1-1-5v-2c-1 0-2 0-2 2l-1 2h-5l-4 1-2 2c0 1 1 2 4 1l1 1-1 1c-1 0-2 1 0 2 1 1 0 3-1 3l-1-1-4-5v4l-1 4-2-2c0-2 0-3-1-2l-2-1v2l1 6-1-1-3-1-2 2 1 1 2 1c0 1-1 2-2 1l-1 1-2 2-2 1c-1 2-2 2-2 0l2-2 1-1-1-1c-2-1-3 1-3 4l-1 4-2 2c-2 0-2-2 0-4l1-1h-1c0 1-3 2-4 1l2-2 2-3h-2l-1 1-1-2c-2-2-1-3 1-2h2v-2c0-1-1-2-4-1l-4 2h-2l-2 1 2 2 2-1h2v2l1 3 1 3c-1 3-3 3-2 0l-1-2-1 1-1 1-1-3-1-2-1-1-5-4c-1 1 0 2 1 3s2 2 1 3l1 2c2-1 2 0 2 1l-1 2-1 1 2 2 2 1 1 1 1 2-2 2c-1 0-2 0-2 2-1 2-3 2-3 1zm-5-15v-2l-1 1v3l1-2zm18-14h1l-2-1-2 1 2 1 1-1zm-7-2v-1l-1 2h1v-1zm16-5-2 1-3 4 2-2 3-3zm6 2 2-1-1-2-2 1-2 2-1 1v1c0 1 1 1 1-1l3-1zm-16-1c-1-1-2 0-1 1h1v-1zm27-4 2-2c2-1 2-1 1-2l-1-2-1-2v1c1 3 0 5-1 5s-2 1-2 3h1l1-1zm-2-11-3 1c-1 1 1 2 2 1l1-2zm5-5c-1-2-4-2-4-1l1 1 2 1h1v-1zm5 1-1-1h-1l1 1h1zm-7-19h-2l1 1 1-1zm38-3c0-1-1-2-2-1l2 2v-1zm-18-6-2-4h-1l-1 3 3 2 1-1zm-5-3c0-4 2-7 3-6h2l1-2-1-1c-1-1-2-1-3 1l-3 3v3l-1 5 2-3zm6-3v-1l-1 1 1 1v-1zm10-12 3-2-2-1-2 1-2 2c-2 1-3 3 0 2l3-2zm124-19v-3l-1-1v6l1-2zm-87-2v-1l-1 1v1l1-1zm0-15-1 1c0 2 0 2 1 1v-2zm4 0-1-1v2l1-1zm93-9v2-2zm-10-1-1-1c-1-2 0-2 1-3s2-3 0-3l-2 3-2 3c-2 1-1 2 1 2l3-1zm3 0-2-2c-1 1-1 3 1 3l1-1zm3 0-1-1v1h1zm-91-1v-2h-2c-1 1 0 3 1 3l1-1zm7 0c0-2-2-3-2-3-1 1 0 4 1 4l1-1zm21-3-1-3-1 1 2 5v-3zm15 2-2-5-2 2 1 2 1 1h2zm37-4-1-1-1 2c0 2 0 2 1 1l1-2zm-85 0h-1l-1 1 1 1 1-2zm28 0c1 1 1 0 1-2s0-2-2-2l-2-1c-1-1-2 0-2 2l1 4h2l2-1zm53-1-1-1-1 1v2l2-2zm-64-4c0-4 0-6-2-6l-2 1v2l1 3c1 0 2 1 2 3v1l1-4zm72 3-1-1-1 1h2zm-35-1v-1l-1 1 1 1v-1zm20-5h-2l-1 3v2c1 1 1 0 2-2l1-3zm-27 3h-1l1 1v-1zm-5-3-1-2-3-2 1 2c0 2 2 4 3 4v-2zm-19-4-1-2-1-2h-1v6l1 1 2-3zm14-2-3-1-1 2v2c1 2 1 2 3 0s2-2 1-3zm28 3v-1l-1 1 1 1v-1zm-51-3 1-2c0-2 0-2-1-1l-2 4 2-1zm44-2c1-2 3-4 3-2 1 3 1 3 2 0l-2-4-3-1-2 1-2-1h-2l1 2h1l1 2 1 6c1 0 2-1 2-3zm-8 1-1-1v2l1-1zm23-3c-1-3-1-3-1-1l-1 3 1 1 1-3zm-29 2c-1-2-2-3-2-1l1 2h1v-1zm-9-2 2-2 2-3 1 1h3l2-2 2-2 1-3c0-2 0-2-2-2s-5 2-5 3l-2 1c-2 0-2 0-3 2s-2 2-2 1l-1-1v2l-1 3v3l2-1h1zm37-5-3-1v2l-1 2 2-2 2-1zm-5-3-1 1c0 1 0 2 1 1v-2zm-39-3-1-2-1 4h1l1-2zm7-3 2-2 2-3 1-5-2-2v2c0 3 0 3-2 3-1-1-1-1-1 1l-1 4-1 2 1 3c0 1 0 1 0 0l1-3zm-14 0v-1l-1-1-1 2h2zm4-4-1 1 1 1v-2zm22-3c0-2-2-5-3-5v6h1l2-1zm6-5v-3l2-4v-2l-2 3-4 4c-2 2-2 3-1 3l3 1 2-2zm-19-3h-1l1 1v-1zm15-1c2-2 2-3 1-3h-2l-1 1-2 1-3 1-1 1c0 1 0 2 3 1l5-2zm-11-1-1-1-1 1 1 1 1-1zm8-3-1-2-1-4-1-3-1 5 2 4 1 1 1-1zm-6-4v-1l-1 1v1l1-1zm11-4v-3l-4-3v7c0 1 0 1 0 0l1-2h2v2l-1 3h1l1-4zm5-12c-1-1-3 1-3 3v1l2-2 1-2zm-2-4 1-2h-2l-1 2h2zm4-1h-1l1 1v-1zm10-4 1-2 2-1 1-2-1-2-1-1v2l-1 2h-3l-1 5h1l2-1zm-5-4-1-1c-1 0-2 1-1 2s1 1 2-1zm4-5c1-1 0-1 0 0-2 1-2 2-1 2l1-2zm4-3v-3l-2-2-1 2v3l2 1 1-1zm249-4 2-3 1-2c0-2-2-4-5-4h-3l2 3c2 2 2 2 1 3v3c-1 1 0 3 1 3l1-3zm-241-1-1-1-1 2 1 1 1-2zm250 1-2-2-1 1 2 1h1zm-252-4 1-3v-2c-1-2-1-2-2-1l-1 2c1 0 1 1-1 2l-1 2 1 2c0 1 2 0 3-2zm6-1v-1l-1 1v1l1-1zm244-2v-1l-1 1c0 1 0 0 0 0h1zm5-2 1-2-3-4-3-3h-1l-1 2 2 1c1-1 1 0 1 1l1 2v3h3zm-244-2 3-4 2-2-2-2-3-1v2l2 2-3 3c-2 2-2 3-1 3l1 1 1-2zm254 1 1-3c0-2 1-3 2-3v-1l-2-2-1 3-1 2c-1 0-2 0-2 2l-1 2h2l1 1 1-1zm-25-2 1-2c0-1 0-2-2-2l-3 1 4 5v-2zm-225 0h-1v1l1-1zm234 0-3-3-2 2c-1 1-2 1-1 2l6-1zm9 1-1-1v1h1zm-251-2c1-1 0-2-1-1v3l1-2zm258-4c0-2-1-2-2-1l1 2 1-1zm-27-1h-2l1 1 1-1zm18-1 1-3c0-1-2-1-3 1v3l1 1 1-2zm5 0 2-1c2 0 2 0 2-3l-1-4-1 2h-2c-2-5-3-8-2-9v-2l-1-2v-1l2-4c0-3 0-3-2-3l-2-1 2-1 2-1 2-2c1 0 2 2 2 5v2l1-1v-4c0-4 0-6-1-4h-2l-4-1c-2 0-2 0-2-3v-5l1-2-1-2v-1l2 1c1 1 1 1 1-1l-2-3-2-1c-1-1-1 1-1 4l-1 4-1-2v-2l-2 5 2 1h2v5l-2 2-2 1c-1 2-2 2-4 1h-2v2l1 2 2 2h2l1-1 1-2 2-4 1 5v5h1c1-1 1 0 1 1v15l-1-1-2-1v4l2 1c2 0 2-1 2-2h1l1 1 1 1v3c-2 1-2 3 0 3l1-1zm-8-6 2-1c1 1 0 1-1 1h-1zm-13 5-1-1-1 1 1 1 1-1zm7-1 1-2-2-1-2 2v2l3-1zm-221-2-3-3h-2l-1-2v2c1 3 5 5 6 3zm208 0 2-2-2-1-2-1-4-1v2l3 1 2-1v4l1-1zm-203-4 3 1-1-1v-2c0-1-4-2-6-1l-2 1 1 2h5zm209 0 5-1 3-1 1-1h2l1-4c0-2 1-3 2-3l1-1-1-2c-1-2-1-1-2 0l-1 2-2-1h-1c-2 1-1 2 0 3 1 0 2 0 1 1v1l-2 1-3 1-1 2a41 41 0 0 0-5 2c-2 0-2 2-1 2l3-1zm-202-2v-3l-1 1-1 2v1l2-1zm200-1 1-3-2 2c-2 2-2 3-1 3l2-2zm27 0c-1-1-2 0-1 1h1v-1zm-50-1v-2h-2c-1 1 0 3 1 3l1-1zm19-1-1-2-2 1-2 2 2 1 3-2zm-5-1h-2l1 1 1-1zm-177-3-3-3-1-1-1-2-1 2v1l1 1 2 2h3zm175-1-2-2h-1l-2-2h-3l-1 2 3 1 3 1 2 2 1-2zm5 1v-1l1-1-3-1-2 1 1 2h3zm13-2-3-1-5-1-2 3 2 1h6l2-2zm-44-1c1-1-4-3-5-2v1c0 2 5 2 5 1zm-164-2h-1l1 2v-2zm156 1h-1v1l1-1zm43 0-1-2c-1-1-2 1-2 2h3zm16-3-2-1v3h2v-2zm-61 0v-2h-2l-1 1-2 2c1 1 2 1 5-1zm17 1-1-1h-2v1c1 1 3 2 3 0zm10-2 4 1h5l2-1c1-2 0-4-1-4l-1 2-2 2-3-1-6-1h-3v-6h2l2-1-1-2h-2l-4 1-3 1 1 5c1 2 2 3 1 4v2c1 1 1 1 4-1l5-1zm-158 1h-1l-1 1h1l1-1zm179 0 1-3 1-1c-1-1-3 0-3 3 0 2 0 3 1 2v-1zm-205 0v-1l-1 1 1 1v-1zm211-2c-1-2-3-2-3-1s1 2 3 2v-1zm-182-2h3l5-1 1-1-1-1-6-1-5 1-1 2 4 2v-1zm-15-1 1-1h-2l-2 1h-1 4zm175-1 3-2c2-1 3-1 2-2h-2l-2 1-1 1-4 2h-3l-1 1c1 1 7 0 8-1zm16-3h-2v1l3 1c2-1 2-1-1-2zm-19 1-1-1c-1 0-2 1-1 2l2-1zm-170-1c0-2-2-1-2 0l1 1 1-1zm182-1-1-1v2l1-1zm-100 0h-1l1 1v-1zm-43-2h-1l-1 1h1l1-1zm-29 0h-2l1 1 1-1zm39 0h-1c-1 0-1 0 0 0l1 1v-1zm15 0v-2l-3 2h3zm54 0v-2h-2v3l2-1zm76-2-3-1 1 2c1 2 1 2 2 1l2-1zm-148 2-3-3-1 2 2 1h2zm9-1c1-2-1-2-2 0l-2 1h2l2-1zm55 0 2-1c2-1 2-2 1-2l-3 1-1-2c0-1 0-2-1-1h-3c-2 0-2 0-1 1l2 2 1 1c-1 2 0 2 1 2l2-1zm-72 0c0-1-1-2-4-2h-3l2 1h2c1 2 2 2 3 1zm41 0-1-1-1 1 1 1 1-1zm74-1v-2c-1 0-2 1-2 3l2-1zm-63 0-2-1-2 1 2 1 2-1zm-17-2-1-1c-1 0-2 1-1 2 0 1 2 1 2-1zm-43 1-1-1h-1l1 1h1zm90-1c2 0 2-2-1-2-2 0-2 0-1 1l1 2 1-1zm-43-1h-2l1 1 1-1zm2 0v-1l-1 1v1l1-1zm9 0-2-1-2 1 2 1 2-1zm44 0h-2l1 1 1-1zm57 0h-1l1 1v-1zm-95 0c1-1-1-3-2-2l1 2h1zm31-1v-2h-2l1 3 1-1zm42 1-2-1-1 1h3zm43-1h-1l1 1v-1zm-165 0-1-1-2 1 2 1 1-1zm37 0-1-1v2l1-1zm100 0v-1l-1 1h1zm5 0-1-2h-2l1 1c1 2 2 2 2 1zm12 0-1-1c-2 0-2 0-1 1h2zm-189-3-1-1h-2v2c1 2 1 2 2 1l1-2zm24 2v-1h-2c-1 1 0 2 1 2l1-1zm78 0-2-1v1h2zm-31-3 1-1-1-1-2 1-2 2v1l2-1 2-1zm4 2-1-1-1 1 1 1 1-1zm62-3 1-3-1-5 1-5v-2h-3c-2 0-2 0-2-2v-2h-2l-1 1 1 2 1 1 2 1c1 0 2 1 1 9l1 9 1-4zm8 2-1-1v2h2l-1-1zm15 0-2-1v1l2 1v-1zm28-1v-2l-2 1-1 2 2 1 1-2zm-126 0-1-2-1 1 2 2v-1zm22 0-2-1c-1 1 0 2 1 2l1-1zm16 0c0-2 0-2-3-1l-2 1h2l2 1 1-1zm110-1-1-1-2 1h3zm-82-1-1-1v2l1-1zm43 0-1-1-1 1 1 1 1-1zm-52-2v-2l-1 2v2l1-2zm26 2c0-2-1-3-3-2h-1l-1 1c0 1 4 2 5 1zm-11-1h-2l1 1 1-1zm25 0h-2l1 1 1-1zm-86-1c1 0 0 0 0 0h-1v1l1-1zm78-1-1-1-1 1c0 1 0 2 1 1l1-1zm-157 1-1-1-1 1h2zm107-5 1-6 1 1 1 1 3-3 2-1h2c1-2 2-4 0-4v1l-1 1-2-2-1-2v3c0 2-1 2-2 2l-2 1c-3 2-3 0-1-1v-2l-1-1-2-1-1-1c0-2 0-2-1 0l-3 3-1 3 1 3c2 0 2 0 2-3l1-4 2 2 1 5 1 10v-5zm-63 2-1 1 1 1v-2zm17-3v-1l-1 3c0 2 0 2 1 1v-3zm-60 3-1-1-1 1h2zm150-1-1-1-1 1c0 2 1 1 2 0zm39-1c1 0 1 0 0 0l-1-3a51 51 0 0 0-1-6l-1-1v5c0 6 1 7 2 6l1-1zm-55-2-2-1h-2l2 2 1 1 1-2zm23-1c0-2-1-2-2 1l-1 3 3-4zm-64 2v-1h-3l-2 2h3l2-1zm10-1c0-3 0-3-1-1-2 1-2 1 0 2l1 1v-2zm90 2v-2c0-2-1-2-1-1v3h1zm10-2 2-3v-2c-1-1-3 0-3 2l-2 1v1l1 2 1 1 1-2zm-214 1 1-2-1-1a319 319 0 0 1-4 1c-1 1 0 3 1 3l3-1zm84 0v-3c-2-2-2-2-3-1l2 5 1-1zm75-2-1-1-1 2c0 2 0 2 1 1l1-2zm-150 1h-1c-1 0-1 0 0 0l1 1v-1zm46 0-1-1v1c-1 0 0 0 0 0h1zm20 0v-1l-1 1c0 1 0 0 0 0h1zm17-2-2-1-1 2 2 1 1-2zm109 1v-1 2-1zm-25 0-1-1v2l1-1zm-180-1c2-2 2-3 0-3l1-2c2-2 2-3 1-4l-1 1-2 1-2 1-1 4 1 3 3-1zm112 0-1-3-2-4v-2l-1 1v1l1 1-2 1-1-2v-1l-1 1v3c-1 1 3 5 5 5l2-1zm-8 0-1-2v-1l-1-1v3c0 1 1 2 2 1zm30-1-1-2c-1 0-2 2-1 3l2-1zm16 0v-1l-1 1 1 1v-1zm-140 0v-1c-1-1-3 0-3 1h3zm66 0v-2c-1-1-2 0-2 1l2 1zm5 0v-2h-1v2h1zm58-3h-1v2c1 2 1 2 1 0v-2zm29 2-2-3-1 1 1 2c1 2 2 2 2 0zm47-1 1-2 1-1-1-2-1-2-1 4v4l1 1v-2zm-43-2-1-4v4l1 4v-4zm-100 3v-1h-2v1h2zm17-1-1-1c-1 0-2 1-1 2l2-1zm55-1c1-1 0-4-1-4l-1 2c-1 2 0 4 1 4l1-2zm-137 1-1-1-1 1h2zm38-1v-1c-1 0-2 1-1 2s1 0 1-1zm117 0 2-1-2-1h-1l-1 1-1 1 1 1 2-1zm49 0-1-1v2l1-1zm-202 0v-1l-1 1v1l1-1zm69 0-1-1-1 1 1 1 1-1zm21 0v-1h-1l1 2v-1zm92 0v-1l-1 1 1 1v-1zm-14-2-1-1-1 2h1l1-1zm-84 0-1-1v2l1-1zm-63-1h-1v1c1 1 1 1 1-1zm178 0h-1v1c0 1 1 1 1-1zm15 1-1-1c-1-1-1 0-1 1h2zm-217-1v-1l-1 1 1 1v-1zm120 0h-2l1 1 1-1zm31-2c-1-1-2 0-2 2h2v-2zm27 1h-1s-1 0 0 0v1l1-1zm41-1v2-2zm-176 1-1-1v1c0 1 0 0 0 0h1zm98-3h-1v2l2 1-1-3zm-138 1-1-1v1l1 2v-2zm86-2c2-3 2-4 1-4l-1-3-2-2c-1-1-1 0-1 1v2c-1 0-1 1 1 1l1 2v2l-3-4-2-3-1-2v-1l-1 3 1 2 2 2 1 1c-1 2-1 2 1 2l1 2v3l2-4zm107 1h-1v2h1v-2zm-186 1h-1v1l1-1zm-13 0c0-1-1-2-2-1l1 1h1zm25 0-1-1v1h1c1 0 1 0 0 0zm85-1 2-3h4v-4l-3-2v-5h-2l-1 2v2c1 1 1 1-1 1h-3l-3 1v-1l1-2-2-2h-2l-1 1v4l1 3h-1c-2 1-2 3 0 3s2-1 2-2l2-1c1 0 3 0 4-2 2-2 2-2 2 0l-1 3c-2 0-2 1 0 2v1l-1 2h2l1-1zm1-7h1l-1 1v-1zm22 8-1-1-1 1h2zm16-1h-1l-1 1h1l1-1zm-84-2v-2l2 1h1l1 1 2 1c1-1 1-2-2-2l-3-2v-1c2 0 2-1 0-2h-2v4l-2-1-3-2 1 2 2 2 1 2 2 1v-2zm22 1-3-2-3-4c0-1-1-2-3-2h-2l1 1 1 2 2 2v3c2 1 2 0 2-1l1-1 1 2h3zm76 0v-1l-1 1 1 1v-1zm-43-1 1-1c2 0 3-1 2-2l-3 1c-2 0-3 1-2 2l1 1 1-1zm52 1h-1c-1 0-1 0 0 0h1zm16-3c-1-1-2 0-1 2h2l-1-2zm21 2 1-1 1-1h-3v3l1-1zm-206 0-1-1c-1-1-4 0-4 1h5zm135-2h-2c-2 0-2 0 0 1l2 1v-2zm12 2-1-1c-1-1-2 0-1 1h2zm21-2h-4l-1-1 1 2c1 2 1 2 2 0l2-1zm30-3-1-1v1l-2 2c-2 1-2 1-1 2 2 2 2 2 3-1l1-3zm17 3-2 1-1 1h1l2-2zm-207 1v-1l-1 1v1l1-1zm6 0h1-2v1l1-1zm23-1h-1l-1 1c1 1 2 0 2-1zm7 1-1-1v2l1-1zm-23-1 1-1-1-1-2 3 2-1zm54 0-2-1v1h2zm51 0v-4l1-1h-5l1 1 1 2-1 2h-1c1 2 4 1 4 0zm25 1c1-1 0-3-1-3l-1 1c0 2 1 3 2 2zm-82-2-1-1v1l1 1v-1zm109-1 1-1c1-1 0-2-1-2l-1 2-1 1v1l2 1v-2zm32-1-1-4-2-2-2 2-3 1-1-2c0-2-1-3-2-2v3c1 2 1 2 4 2 4-1 4-1 4 1l1 2 1 1c0 3 0 1 1-2zm12 2-1-1-1-1v-1l-1 4h2l1-1zm-180 0h-1l-1 1h1l1-1zm12 0-1-1-1 1 1 1 1-1zm93-1v-3l-1-1-1 2c-1 1-1 1-2-2-1-2-1-3-2-2h-3c-1 0-2 0-1 1l1 1-1 1-2 1 2 1h3l3 1 1 2c2 0 2-1 3-2zm-119 0h-2c-1 1 0 1 1 1l1-1zm11 0h-1l1 1v-1zm91 0c0-2-2-3-2-2-1 1 1 3 2 3v-1zm-97-2h-2v1l2 1v-2zm173 2v-1l-1 1c0 1 0 0 0 0h1zm-162-1-1-1-2-1-2 1 5 2v-1zm27-1c0-1-1-2-2-1l1 3 1-2zm83 1 1-2v-1c0-1 0-2-2-2-3-1-5 1-1 2l1 2 1 2v-1zm60-1 1-1-1-1-3 3 1 1 2-2zm-121-2c-1-1-1 0-1 1l1 1v-2zm-80 2c0-1-1-2-2-1v1h2zm6 0-1-1-1 1h2zm100 0 2-2-2-1-3 1-1 1 2 1h2zm-71-1-1-1-1 1 2 1v-1zm8-1c1-1 1-1-1-1l-2 1 2 2 1-2zm106 1-1-1-2-1v2h3zm9-1-1 1h1v-1zm12 1-2-2v1l1 2 1-1zm37-3c-1-2-1-2-1 1 0 2 0 3 1 2v-3zm-198 3-1-1c-1 0 0 0 0 0v1h1zm112-1 1-2h-1l-2 1 1 2 1-1zm-66-1-1-1v2l1-1zm-31-1-1-1v2l1-1zm68-2-1-2-1 1h1l-1 1v2l2 1v-3zm20 1 2-1v-2l-4 4 2-1zm42 0h-2l1 1 1-1zm-9-1h-2l1 1 1-1zm49-1c1-2 1-2-1-4l-1-1v7l2-2zm-60-1h-2l-2 1c0 1 3 2 4 1v-2zm-94 1v-2c-1-1-3 2-2 3h2v-1zm15-2c1-1 0-4-1-4l-1 3 1 3 1-2zm55 2-1-2c-1 0-1-1 1-1 2 1 2 0 1-2s-1-2-2 0c-2 0-2 1-2 3l1 3 2-1zm15 0-1-1c-1 0-3 0-2 1h3zm-44-1-1-1c-1 0-2 1-1 2l2-1zm25 0-1-2c-1 0-2-1-1-2l-1-3c-2-2-2-2 0-3l1-2h-2l-1 1h-2l-1 2-2 2-1 2-1 2c-1 1-2 3 0 3l2-2h2l1 1v-5h1l1 2 1 4c2 2 4 2 4 0zm32 1-1-1v1h1zm19 0h-1c-1 0-1 0 0 0h1zm49-2v2-2zm-143 0c0-1-1-2-3-2h-3l1 1 1 1 2 1 1 1c1 0 2-1 1-2zm56 1v-2l-2 2h2zm27-1c-1-1-2 0-1 1h1v-1zm24 0h-1v1l1-1zm-42-1v-4h-2c-1 1-1 1-3-1l-2-1c-1 1 1 4 3 4l1 2c1 2 3 2 3 0zm13-1-1-1h-2l1 2 2 1v-2zm36 0c0-1 0 0 0 0v1-1zm25 0 1-1 1-2-1-2-1 2-1 3v2l1-2zm-52 0-1-1-1 1 1 1 1-1zm-33-1h-2l1 1 1-1zm13 1h-1c-1 0 0 0 0 0h1zm70 0-1-2c-1-2-4-1-5 0l2 1h2l2 1zm-43-1-1-1-1 1h2zm5-1-1-1v2l1-1zm12 0-1-1-1 1 1 1 1-1zm-59-2-1-1v2c0 1 0 1 0 0l1-1zm27 1 2-1c0-2-2-2-3-1v3l1-1zm-30-1v-5l-3 2-1 2 3 2 1-1zm42-1v-2l-3 1-2 2 2 1c2 0 3-1 3-2zm-20 0v-1l-2-1-2-1-1 2h2l1 1h2zm49-1h-2v1l2-1zm24 0v-2c-1 0-2 2-1 3s1 0 1-1zm-69 0-1-1-1 1 1 1 1-1zm63-1v-2l-1-2-1 1-3 2-1 1 4 1 2-1zm-76-1-2-3h-1l1 3 2 2v-2zm63 1-1-1-1 1 1 1 1-1zm3 0v-1l-1 1 1 1v-1zm-72-1-1-1-1 1 1 1 1-1zm57 0-2-2h-2l3 3 1-1zm-13 0-1-1-1 1h2zm-55-1v-1h-2l-1 1 1 1 2-1zm40 0h-2l1 1 1-1zm58 0h1l1-1v-1l-3 1-1 2 2-1zm-69-1-2-1-1 1h3zm30-1-1-2-2-1v3c1 2 2 2 3 0zm-19-1-1-1v1h1s1 0 0 0zm39-1c0-1 0-2-1-1v1l1 1v-1zm-53 0-1-2h-2v2h3zm-5-1v-1l-1 1v1l1-1zm22-1-1-1-1 1 1 1 1-1zm44-4h-1v3l1 2v-5zm14 3c0-1-1-1-1 1-1 0 0 0 0 0l1-1zm-32-1 1-1h-2c-2-1-4 0-3 1h4zm5 0h-1l1 1v-1zm11-1h-2l1 1 1-1zm10 1c1-2 0-2-1-1v1h1zm-72-1 1-2-3-1-3-1h-2l2 3 3 2 2-1zm15-1h-1c-1 0 0 0 0 0v1l1-1zm15 0-2-1c-1 1 0 2 1 2l1-1zm-25 0-1-1-1 1h2zm49 0-1-1v1h1c1 0 1 0 0 0zm-44-3-2-1 1-2c2-1 2-1 0-1l-4 1v2l2 2 2 1 3-1zm7 2-1-1v2l1-1zm23 0-1-1h-2c1 2 3 2 3 1zm30-1c0-1-3-5-4-4v2c1 3 3 4 4 2zm-55 0-1-1c-1 0 0 0 0 0v1h1zm31-4-1-1h-1l-1 1v2c1 1 3-1 3-2zm2 0-1-1c-1 0-1 2 1 3 1 1 2 0 0-2zm26 2 1-1-1-1h-3v2h3zm-20-1c2-1 2-2-1-1l-2 1c-1 1 0 1 1 1l2-1zm10 0h-2l1 1 1-1zm-48 0v-1c-1-1-3 0-3 1h3zm-19-1v-1l-1 1 1 1v-1zm22-1-1-1v1h1c1 0 1 0 0 0zm11 0-1-1v1c1 1 0 0 0 0h1zm7-2c-1-1-2-1-1 1l1 1v-2zm42 1-1-1h-2l1 2c1 1 2 0 2-1zm-68-1v-2l-1 1c-1 2 0 2 1 1zm-10-1c1-1 0-2-1-2l-1 1 1 1h1zm24-1-1-1-1 1 1 1 1-1zm22-1c1 0 0 0 0 0h-1v1l1-1zm-26 0-2-1-1 1h3zm6-1-1-1-1 1 1 1 1-1zm43 1-2-1-1 1h3zm-31-1c1-1-1-2-3-1v1h3zm-34-1-2-2v2h2zm27 0h-1l1 1v-1zm20 0c1 0 0 0 0 0h-1l1 1v-1zm8 0s-4-2-5-1l2 1h1l1 1 1-1zm18 0-1-1-1 1 1 1 1-1zm-69-1c1 1 1 0 0 0l-2-1v2l2-1zm6-1-1-2c-1 0-3 3-2 4h1l2-2zm30 2c0-1 0-2-2-2v2h2zm-24-1-2-1v1l1 1 1-1zm2 0h-1v1l1-1zm42-2h-3l1 2c1 1 3 0 2-2zm-31 0h-1l1 1v-1zm25-2v-1l-1 1h1zm-40 0-1-1-1 1h2zm22-1v-1l-1 1v1l1-1zm33-1c-1-1-1 0-1 1h1v-1zm-11 0v-4h-1v3l1 2v-1zm-30-1 1-1c-1-1-4 1-4 2l3-1zm-14-1h-2c-1 1 0 1 1 1l1-1zm53 0-1-2-3-2-1-1 3 5h2zm-47-1c1-1-1-2-2-1l1 2 1-1zm5 0v-1l-3 2 3-1zm25-2-1-1v1c0 1 0 0 0 0h1zm-37-1v-1l-1 1 1 1v-1zm55-1-1-1v2l1-1zm-39-1-1-1-1 1h2zm18-1-2-1h-3l2 1a1093 1093 0 0 1 3 0zm-25-1c1-1 0-2-1-1l-1 1h2zm16-2c-1 0-3 1-2 2h2v-2zm28 2a510 510 0 0 1-3-6l-2 2 1 3 2 1h2zm-37-2v-1l-1 2v1l1-2zm-17-1c0-1-3-2-3 0l3 1v-1zm15-1c1 0 1 0 0 0h-1 1zm16-1-1-1v2h1v-1zm-28-3-1-5-3 2v4l1 1 1 1 1 1c1 0 2 0 1-4zm5 4 2-1h2l-3-4c-1-2-3-2-4-2l-1 2c0 2 4 7 4 5zm13-1h-1v1c1 1 1 0 1-1zm5 0-1-1-1 1 1 1 1-1zm-28-1c1-1 0-1-1-1s-2 1-1 2l2-1zm18-2c0-2-1-3-2-3l-1 1v3l2 1 1-2zm43-1 1 1 1 2 1-3h-4c-3 0-4 1-2 2h1l2-2zm-21 1c0-1-1-2-2-1v1h2zm16 0-2-2 1 3 1-1zm-33-2h-1l-1 1h1l1-1zm25 0v-1l-1 1 1 1v-1zm-3-1-1-1-1 1 1 1 1-1zm-50-1h2c0 2 2 2 2 0l-1-1v-2l4-2c-1 1 1 1 3 1l1-1 2-1 2-1-2-2v-3l-2-1-2 2 1 2v2h-3c-2-1-2-1-4 1l-2 2 2-3 1-3c-1-1-3-1-5 1-2 1-2 2-2 3l1 2 2 1h-5l-5 1 3 1 3 1 2 1 2-1zm32 0-1-2h-7l1 2 4 1 3-1zm-11-1-1-3h-3l-2 1-1 1 5 2 2-1zm22-1s0-1 0 0l-1 1c1 1 1 0 1-1zm-10-3-1-2h-2v2h3zm9 0-2-2-2 2h4zm16-4-1-1v3l2 1-1-3zm-40 1h-1l1 1v-1zm11 0-1-2-1-1-4-2-3 1v2c0 1 1 2 3 1l3 1 2 1 1-1zm7 0-2-1v1h2zm9-1-1-3c-1-2-1-2-1 0l-1 1v2h3zm9 0v-1l-2 1v1l2-1zm-37-2-1-1v2l1-1zm47 0v-1l-1 1h1zm-58-1-1-1v2l1-1zm44 0-2-2c-1 1-1 3 1 3l1-1zm11-1-2-1 1 1 1 1v-1zm-53-1-1-1 1 2v-1zm27 0v-2l-1-1a1191 1191 0 0 1-7 0c-1 2 0 4 2 3l2 1h2l2-1zm-16-1v-1c-2 0-3 0-2 1h2zm34-1c-1-1-2 0-1 1h2l-1-1zm-40 0c2-1 2-4 1-4l-1-1-1-2h-1v2l1 3-2-1-2-1c-2 0-2 0 1 3l3 2 1-1zm13-1 3-3c0-2 0-2 2-2l2 1h2l-1-2-1-2c1-2 1-2-2-1l-4 1-1 1c-2 0-5 4-5 6 0 1 0 2 2 2l3-1zm-9-1h-1l1 1v-1zm27-1h-2l1 1 1-1zm-5-1-1-1-1 1a1 1 0 0 0 2 0zm7 0v-6l-1 2-2 2 2 1 1 1zm6-4-2-1v1c0 2 0 2 1 1l1-1zm-44 0-2-1-3 1v1c1 1 4 0 5-1zm31 0-1-3c0-2 0-2-2-2l-3-2-3-2v2h-3v2l5 1 4 1v1c-2 0-1 1 1 2 2 2 3 1 2 0zm25-2h-1l-1 2h1l1-2zm-63 0-1-3-2 1v3l2 1 1-2zm14-1 1-2-5-1-5-1c-1-2-3-2-4-1v1l1 3 4 1 5 1 1 1 2-2zm4 1v-3c-2 0-3 2-2 3h2zm25 0-1-1-2-1v2h3zm17 0-1-1h-1l1 2 1-1zm-81-2 3-1 3-2 1-2-7-1-4 2-2 1-1 2h3l2 1 1 1 1-1zm71 0-1-1-2-3 1-3c-1-1-3-3-4-2l1 1v6l2 2h3zm4-6h-2v4l2-1v-3zm-43 3-2-3c-2-1-3-2-4-1l-2 1 7 3h1zm9-1-1-1v1l1 1v-1zm-24-1 3-1h2l-1-2-1-2-1-2-4 1-3 3v3h5zm42-1c2-2 2-4 0-5a87 87 0 0 1-4-2v1l2 2 1 1 1 1c-2 1-5 0-5-1l-1-3-3-1c-2 1-3 1-2 2l4 2 4 3 2 1 1-1zm-25-1-1-1-1 1 1 1 1-1zm-26-2 2-3-3-3-4-2c-2 1-2 0-1-2l2-1c2 0 2-1 1-2-2-1-2-2-1-2 2-1 1-3-2-3l-5-2c-2-2-2-2-3-1l-2 1 2 1v1h-6l-6 6c-2 1-2 2-2 3l3 3 3 1 1 1 1 1 3-1h3l4 2 4 2 3 2 3-2zm33 1v-2l-10-2-4 1 2 2h2c2-1 2-1 4 1l4 1 2-1zm4-4v-1l-2-1v2h2zm-63 0-3-2c-1 1 0 2 2 2h1zm45-2 1-3-4-4h-12l9 8h4l2-1zm-11-1c1-1 0-1-2-1l-3-1c0-4 0-4-2-4l-2 2 1 3c0 1 1 2 3 2h4l1-1zm25 1v-1l-3-1c-1 1 1 3 2 3l1-1zm16 0c1-1-1-3-2-3v2l2 1zm-24-2-1-1v-2l1-1c0-1-3-3-4-2l2 3 2 4v-1zm17-2c1-2 0-3-2-1 0 1 0 4 1 3l1-2zm14 1h-2l1 1c2 0 2 0 1-1zm6 0-2-1 1 1h1zm-9-1-1-1c-1-1-3 0-2 1 1 2 3 1 3 0zm-20 0h2l2-1c0-2-3-6-4-6l-3 2c-2 1-3 2-2 3l2 2 1 1 2-1zm7-3v-2h-2l1 3 1-1zm14-1 1-1c-1-2-3-3-3-1l-1 1-2-1h-2l1 2c0 2 1 2 3 1l3-1zm-10-2-1-1v1h1zm-24-1 3-1 1-1 2-1-2-3c-3-3-3-3-4-2l-7 1h-5l-5 5v1l3 1h14zm20 0 2-2v-2h-4l-3 2 2 3 3-1zm23-2-1-2h-1c-1 1-1 3 1 3l1-1zm-28-2 2-2-5-2-5 1 1 2 1 2 2 1 4-2zm-38-1v-2c0-1-1-1-2 1l-1 2 3-1zm59 0v-2l-1-1-2 1c-1 1 1 3 2 3l1-1zm4 0-2-1 1 2 1-1zm-11-2-3-3-3-1-1-2c-2 0-1 1 0 2l1 2 1 2c2 2 5 2 5 0zm-17-4 1-1-4-1h-4c-2 1-2 2-1 3h3l5-1zm4 0h-1l1 1v-1zm-22-2h-1c-1 0 0 0 0 0v1l1-1zm37-1-1-1-1-2-3-1 1 2 2 2 1 1h1v-1zm-15-1v-2c-1 0-3 2-2 3l1 1 1-2zm10 1-1-1v2l1-1zm-47-1v-2c-2-1-3-1-3 1-1 2 1 3 3 1zm65 0-1-1c-1 1 0 2 1 2v-1zm3 0v-1l-2 1h2zm6-1-1-2-1 1 2 2v-1zm-31-1-1-1-1 2c1 1 2 1 2-1zm16 1-2-1-1 1h3zm-15-5h-4c0 1 3 3 4 2V6zm26 1h-2l1 1 1-1zm-23-1h-2l1 1c2 0 2-1 1-1zM103 497v-6l1 3c0 1 1 2 2 1l2 1-1 1-2 1-1 1-1-2zm8-5v-1l1 1-1 1v-1zm2-1 1-1c1 0 2 1 1 2 0 1-2 1-2-1zm-7-1c0-2 2-2 2 0 1 1 0 1-1 1l-1-1zm19-8v-1l1 1-1 1v-1zm4-2v-1h1v1h-1zm13-1-2-1c-1-1 0-2 1-1l2 1h2l-1 1h-2zm-10-2v-1c1-1 1 0 1 1h-1zm13-1v-2c1-1 4 0 4 1 0 2-3 2-4 1zm-9-1c0-2 0-2 1-1v1h-1zm3-2 1-1v2l-1-1zm10-2v-2l1-2c-1-2-1-2 1-3l1-3-1-4v-1l2-1 1-1 1-1 3 1c2 1 4 2 4 4 0 1-1 2-3 2l-4 3c-2 2-2 2-1 4h3l1-1 2 1-3 4-2 2-1-2c-1-2-3-1-3 0 0 2-2 2-2 0zm117-2 1-6 3-5c2-1 4-6 5-11 0-2 1-3 3-4l4-3 5-1c2-1 3-2 3-4l1-11c0-5 1-8 2-9l1-6 1-7 1-4c0-3 1-8 3-10l1-2 1-1 3-3c3-3 3-3 6-3l5-1 1-1-2-1-3-5-2-5v-3c0-2 1-4 3-4l1-3c0-1 1-1 1 1l2 2 1-1 1-1 2-1 1-2v-1h2c2 0 3-1 3-2l1-1 1 3c-1 2-1 2 1 2l2-1v1l-1 2-3 2v2l1 2 1-1c0-3 2-3 2 0l-1 3-3 4 6-2v-8l2 1 1 2 2 2h2l1-2 2-1c2 0 2 0 1-1l-3-1-2-1 2-4 2 2c0 2 1 3 2 1v-1c-1 0 0-2 1-1l2-1h6v3l1 3-1 2-2 1c-2 0-2-1-2-3 0-1 0-2-2-2l-1 1-1 3-1 3 2-1 2-1v3l-1 4-1-1-3-1c-2 1-2 1-2 5l-1 5h-4l-2 2c0 1 1 2 2 1 1-2 1-1 1 0 0 2-1 4-2 3h-2l-3 3v3c0 1 0 1 0 0l1-2 4 1v3l-1 2-1-1-1 1h-1c-1-1-1-1-3 1h-2v-2l-1-3-1 7 1 3c1-1 2 0 2 1l1 2v7l2 4 1 4c0 3 0 3 1 2 1-2 1-2 1 0l1 4-1 2-1-2v-2l-2 4 1 4 1 1v-2l1-1 1 2-1 4-3 1-4-1v-4l-1-4c-3-1-3-1-2-3 1-1 0-1-1-2l-3-4-1-2-2 1c-1 2-1 2-1 0v-1l-2 1h-2v-3l-2 2c-2 1-2 1-1-2v-3l-3-3-2-4-1-3-1-2c0-1-2-1-3 1l-1 4v2h2l-2 6-3 6-1 6a47 47 0 0 1-3 18l-1 2-1-1-1-1-10 4c-2 1-2 3-1 4l1-1c1-1 1-1 2 1l3 1 3-1 3-1v2l-4 2-2 1-2 2-3-1c-2-1-2-1-4 1l-3 5-2 7-1 4c-1 0-2 0-2-2zm64-38c1-1 0-2-1-2l-1 2h2zm-2-13v2h1l-1-2zm-4-4c0-1-2-2-3-1v2h1l2-1zm-4-4v-3l-1-2-2-1v2c-1 3 0 6 1 6l2-2zm-5-3-1-3-1-3-1 1 1 2v2h-1c-2 0-2 1-1 3h3l1-2zm9-2-1-2-1 2 1 1 1-1zm-18-2c0-1 0-1 0 0v1-1zm7-5v-2l-1 2 1 2v-2zm-4-2-1-1-1 1h2zm9-7-1 1c0 3 1 3 1 1v-2zm12-6c0-4 0-4-2-5l-2 2v2l2-1 1-1v2l-1 4 1 3v-1l1-5zm-6 1v-1l-1 1c-1 1 0 1 1 1v-1zm-3-1c0-2-1-3-2-2s0 3 1 3l1-1zm1-13 1-4c-1-1 0-2 1-4l1-4h-5l2 1 1 1-2 1c-2 1-2 1-2 5v5l2 1 1-2zm18 0-1-1-1 1 1 1 1-1zm-14-3-1-1v1l1 1v-1zm13 0v-2h-2v2l1 1 1-1zm-23-2-1-1v2l1-1zm37-5-1-1v2l1-1zM139 468l2-1c1 0 1 2-1 2l-1-1zm5-4 1-1c2 0 2 2 0 2l-1 1v-2zm-5-1 1-1h1l-1 2-1-1zm143-4 1-2h2l-2 2h-1zm5-4v-2h2v1l-2 1zm-126-7 1-1v1l-1 1v-1zm175-9-1-3 1-1 1-2v-2l1 2 1 2-1 5-2-1zm-28-6v-3l2-3v5c0 1-1 2-2 1zm-3-9v-3l2 4c0 2-1 2-2-1zm33-1v-3l1-4c1 0 3 1 4 4l1 3h-6zm-66-2v-2h2l-1 2h-1zm37 0-1-1h-2l1-2c2-1 2-1 3 1l1 2c0 2-1 1-2 0zm8-1v-1h1l1 1h-2zm-92-1 1-2c1-1 1-1-1-4l-2-4 2-4 1 4 1 4c2 2 2 5 1 6l-1 1-2-1zm-5-2-1-3-2-2c-1 1-2 0-1-2l-1-3-3-2v-1c2-1 4-1 5 1l1 3c2 1 4 6 4 9l-1 1-1-1zm21-1 4-5c1 1-2 6-3 6l-1-1zm-27-1h2l-1 1-1-1zm-34-3v-5l1-5c1 0 2 1 1 5v5l-1 1-1-1zm56 0-1-1h2v2l-1-1zm7-4c-2 0-2-1-1-1l1-3-2-4c-1-1-1-1 1-1h1l2 4 1 3 1 2h-4zm27 0v-3l1-8-1-4c0-3 0-3 2-3v-4l-2-8 2-2 1-1-1-4c0-2 3-9 4-8v4c-1 2-2 4-1 5l1 5-1 5-1 3 1 4 1 3h-3v4l1 7c0 2 0 3-2 4l-2 1zm-39-1v-2l1-3 1-1 1 2-1 4h-2zm102-2v-3h2v5l-2-2zm4 1v-2l1-3 3 1v3c-1 2-4 2-4 1zm-141-4v-3c0-1 2-1 3 1v3h-2l-1-1zm8 0-2-2c0-2 1-3 2-3l1 2 2 2 1 1h-4zm21-3v-1l1 2c-1 1-1 1-1-1zm-30-2v-1l1-1 2 1-1 2-2-1zm11 0 1-3c1-3 4-3 3 0l-2 3h-2zm9-4 2-5 3-4 1 1-2 4-2 4-1 2-1-2zm124-4 2-7 1-1c0 3 0 3 3 2h2v1l-2 2-2 1-1-1-1-1v2l-2 5v-3zm5-16c0-2 2-2 2 0l-1 1-1-1zm13-13v-3l2 1v3c-2 1-2 1-2-1zm3-1 1-1v1h-1zm4-3-2-1-2-1c0-2 0-2 2-1l6-1 5-3 4 1-3 2-3 2-2 1h-2l-3 1zm-54-2 1-1v1h-1zm6-2 2-3 2-1-1 3c-1 1-2 2-3 1zm13-1c-1-1 0-2 1-2 2 0 2 1 1 2h-2zm-6-1h1c1 1 1 1-1 1v-1zm12 0c-1-1 0-3 1-2l2-1h1v1l-3 1-1 1zm-7-4c0-1 1-2 3-2l2 1h-1l-2 1h-2zm13-2c-2-2-2-2-1-3 1-2 0-2-1-3-1-2-1-2-3-1l-3 1-4 1-3 2v3h-2v-3c0-2 5-5 8-6l4-2 1-1 2 2 2 2 1 2c-1 1 0 4 2 6v1l-3-1zm-6 0 1-1 2 1-2 1-1-1zm-26-3c-1-1 0-3 1-3v2l-1 1zm7-5c0-1 4-5 6-5l2 1h1v-5c0-1 3-1 4 1v1l-1 2v2l-2 2-3-1-3 1-3 2-1-1zm-8-1c-1-1 1-2 2-2v1l-2 1zm-7-1 1-2 2-1-2-2c-2-1-3-3-3-5l1-1 1 1 2 2 2 2 2-3c1-3 2-3 3-3l3-2v-1c-2 0-4 0-7 2l-4 1 8-7c3-1 5-2 6-1l1 5 1 6 2 2h2l-3 3-3 3-1 1v-4c2-2 2-2 1-3l-1-2c0-2-2-2-5 0-2 1-2 2-2 3l2-1c3-1 3 1 1 3l-3 1-1-1c-1-2-1-2-1 0l-4 5-1-1zm30-4-1-3 2-3 3-2 2 2-1 3-2 2-2 2-1-1zm-45-6v-1l1 1h-1zm-1-4c0-2 2-4 4-4 1 0 3-1 5-4 3-2 4-3 5-2s0 4-4 6l-2 2c2 0 1 3 0 3l-3-1-2-2-1 2-1 1-1-1zm13-2v-2l1-1v3h-1zm-36-6 1-1 1 1-1 1-1-1zm7-2v-1l1 1h-1c-1 0 0 0 0 0zm-7-1v-2l1-1 2 2-1 2-2-1zm10-3 2-1v1h-2zm-4-2-1-2v-1l-2 1-3-1 1-2 2-3c2-2 4-4 5-3l-1 2v4l1 2 2-2c1-2 2-3 3-2l1 1-2 2-3 3-2 2-1-1zm12-4v-1l1 1-1 1v-1zm-20-4v-2c-1-1 0-2 1-2l2-1 2-1 1 1-1 2-2 1-1 2-1 1-1-1zm16-1c0-1 1-2 3-2 1 1 0 3-1 3l-2-1zm7-2 1-2v-1l3-4 1 2-1 2-1 1 2-1c2-1 2-1 1-3l-2-3c-2-1 0-3 1-3l3 2c2 2 2 2 1 3l-1 3v2l-3 1-2 1-2 1-1-1zm-7-2-2-1-1-1c-1-1 1-1 4-1 3 1 3 1 2 2l-2 2-1-1zm-17-7c-3-2-3-2-1-2h2c1 1 2 1 4-4 1-2 3-2 3 0l3 1 2 1-2 2-2 3v2c-3-1-4-2-5-1l-1 1-3-3zm7-1 1-2-3-2c-1 1 0 4 1 4h1zm11 3 1-1v2l-1-1zm24-3-2-1c-1 1-2 0-3-2l-2-3v-1l1-2 2 1c1 1 2 2 1 3l1 2 2-1 1-3-1-3-2-2 4-4v9l2-1 3-1 3-2c1-1 4-2 4 0l-4 3-3 1-3 3-2 3c0 1-1 2-2 1zm-25-3c-1-1-2-2-1-3l2 1h2l2-1c2-2 2-2 2 0l1 2v2l-1-1-1-1-2 1-2 2-2-2zm-5-2 1-1v1c-1 1 0 0 0 0h-1zm14-2 4-3 3-1 1 2-7 3-1-1zm0-5 1-2c2 0 1 3 0 3l-1-1zm34-2-1-1 1-2c1 0 3 2 2 3h-2zm-24 0v-2c1-1 3 0 3 1l-3 1zm10-1c0-1 0-2 1-1v1h-1zm24 0-1-4c0-4 1-6 2-4l2 2 1-2c1-1 3 0 3 2v2c-1 2-5 4-6 4h-1zm143-1-1-2h2l1 1-2 1zm-5-1h2c2 1 2 1 0 1l-2-1zm-161 0 1-2 3-3 3-2v1l-3 4-3 2h-1zm-18-1c1-2 3-2 5-1l-1 1-2 1-2-1zm14-5 1-6 1 1v7l1 2-2 1-1-5zm12 3 1-1 1 1-2 1v-1zm187-1 1-1 1 1h-2zm-184-1v-3a244 244 0 0 0 1-5l1 3 1 2 2 1-2 2h-3zm33 0c0-2 2-3 3-3l2-1 4-1c2 0 3 0 2 1l-2 2-4 2h-5zm160-1-2-2 2-1 3 1h3l2 1v1h-8zm-174-1c0-1 0-2 2-3l1-1c0-1 2-2 3-1l-2 3-3 3-1-1zm120 1v-2l1-2h5l4-1 3-1c3 0 6 1 5 2l-2 1-3 1h-2l-1-1-1 1c0 2 0 2-2 1h-3l-4 1zm29-3v-1l2 1h-2zm-154-3 1-3c1 1 0 6-1 6v-3zm157 2c-1-1 0-2 1-1v2l-1-1zm-164-2v-4c1 0 3 2 3 4l-1 1-2-1zm20 1v-2l5-5 4-2c3-2 5-3 6-2l1 1c-1 1-6 5-8 5l-3 3-4 2h-1zm-48-1-1-2v-2l3 1h5l2 1 1 1h-7l-2 2-1-1zm38-2v-3l2-2h2v3l-1 1-1 1-1 2-1-2zm153-2c-2-2-3-3-5-3h-3l1-1v-4l-2-3 2-1 1-2c1-2 1-2 3-2 1 0 1 0 0 0l-2 2 1 4v3l-1 1c0 2 3 2 4 1l-1-2-1-2 1-1 2 1c-1-2 1-1 2 0l2 1h2v2l-1 2h-3l1 2 1 1-1-1c-2-2-4-2-4-1l1 1 1 2 1 2h1l-3-2zm-178 1 1-1h1v1h-2zm10-1h1v1l-1-1zm138-1v-3l4 3-1 1h-2l-1-1zm-162-1-1-3 3-1 3 2-1 1-1 2v1l-3-2zm5 1v-2l2-1 1 2-1 2-2-1zm163 0v-1c1-1 1 0 1 1h-1zm6-1c-1-1-1-1 1-2h3l2 2h-1l-2 1-3-1zm-164 0 3-5h1l1 2c0 3 0 3-2 3h-3zm9 0c-1-2 0-2 1-1v1h-1zm26-2c0-2 0-3 2-3s2 1 2 2l-1 3h-2l-1-2zm-20 0 1-1 1-1 3-1 3-1 1-1 2-1 5-2c4 0 5 0 4 1v2l-1 1-3-1-2 1c0 1-2 2-3 1h-1l-1 4-1-2v-2l-1 2-4 1-2 1-1 1v-2zm-16-3-1-2v-2l2-2 2 3c1 2 1 2-1 3l-2 2v-2zm12 1-1-2v-2l5-1-2 1-1 2h3v2h-4zm159 0c0-1 2-3 3-2v2h-3zm-130-1 1-1 1 1-1 1-1-1zm-48-1c-1-1 0-1 1-1h1c0 1-1 2-2 1zm166 0v-5l2 1v2l-2 2c0 1 0 1 0 0zm-153-3-2-2 2-1 3 1v3l-1 1-2-2zm16 1v-3l-2-1c-2-1-2-2-1-3l1 1 4 1h3l-2 3-3 3v-1zm141 0 1-1 1 1-1 1-1-1zm17-1 1-1 1 1h-2zm-137-1 1-1-1 1c0 1 0 0 0 0zm128 0h1-1c-1 0-1 0 0 0zm18-1 1-1h2c1 1 0 2-1 2l-2-1zm-193-1v-1h1v2l-1-1zm17 0v-1l1 2-1-1zm-12-1-2-1v-1l2 1 1 2-1-1zm49 1 1-1 1 1h-2zm134-1c-2-2-2-3 0-3l2 1v3l-2-1zm-151 0 1-1 1 1-1 1-1-1zm34 0 1-1 1-2 1-2c1-1 3 1 2 3v2h-5zm98 0h2l-1 1-1-1zm28-1-3-1c-3 0-3 0-2-1h7c2-1 3 0 1 2l-2 1-1-1zm-105-2 2-1 1 1-1 2-2-2zm75 1c-2-2-1-3 0-2 2 1 2 3 2 3l-2-1zm-131-1-1-2-1-3c1-2 1-2 2-1l1 1 2-1 4-1c3 0 4 1 5 2l3 1c3-1 3 0 0 2h-2l-2-2h-5c-2 0-3 0-2 1l-2 1-1 2-1 1v-1zm49 0-2-1-2-1 3-2 3-2 1-1 1 1-1 1-1 3-1 3-1-1zm-81 0v-2c0-2 1-2 1 0l2 1h1l-2 1h-2zm25-2 1-2 1 2-1 2-1-2zm-9-1c-1-1-2-6-1-7l1 1 1 1 2-1 3-1 2 1h1c0 2-1 3-2 2h-3l-3 1 1 2 1 1-1 1-2-1zm82 1 1-2 1 1-2 1zm62-1 2-1-2 2v-1zm15 0v-2h1l2 2c1 1 1 1-1 1l-2-1zm-118 0 1-1 1 1h-2zm4-1c0-1-1-2-2-1l-2-2 2-1 2 1h2l1 1v2l2 1h-2l-3-1zm9-1v-2h4l-2 3-2-1zm-17 0-1-1h-2c-1-1 0-4 1-4l1 2 1 1c1-2 2-1 2 1l-1 1h-1zm-9-1v-1c-2 0-1-3 0-3h2v3c-1 2-2 2-2 1zm48-2v-1c1-1 3 1 2 2l-2-1zm43 1c0-1 2-2 3-1v1h-3zm-68-1v-3l-2-1h-2l-2 2c-1 0-1-1 1-2 1-2 3-3 7-4h7l2 1 2 1h-5c-1 2-3 2-3 1l-1-1-1 3-1 3-2 1v-1zm95 0-3-1 12 1h-9zm-124-1v-1 1c0 1 0 1 0 0zm36 0c-1-2-1-3 1-3l1 2-1 2-1-1zm8 0-1-1 3-3 1 1-3 3zm-48-1h1l-1 1v-1zm110 1v-2l2 1v1h-2zm-114-2 1-1 1 1-1 1-1-1zm23-1h2v1l-2-1zm-7 0v-1l1 1h-1c-1 0 0 0 0 0zm61-1 1-1 2-1 2-2 1-1 1-1 1 1 5 2h2-6c-1-1-5 0-5 1l-2 2h-2zm-71-2c-2 0-2-1-2-2h3l3 2-1 1-3-1zm61 1 1-1v1h-1zm-49-2v-2h2c2 1 2 4 0 4l-2-2zm6 0c-2 0-2 0 0-1l1-2 2 3h-3zm73 0 6-2h2l-2 1-4 1h-2zm-65-2c-1 0-2 0-1-1l5 1h-4zm75 0 1-1 2 1-2 1-1-1zm-67-1h4l-1 1-3-1zm73 0 2-2 4-1h2l-2 1-4 2h-1l-1 1v-1zm-58 0h2-2zm-44-1 1-2 2 1-2 2-1-1zm48 0c1-1 0-1-2-2l-4 1h-6c-2 0-3 0-2-1l12-2 4 1 1 2-2 2-1-1zm44 0c1 0 1-2-1-2-2-1-2-1 0-1l3 1 1 1 1 1-3 1-1-1zm-85 0v-2l5-2c1 1 0 3-2 3l-3 1zm81 0h1-1c-1 0-1 0 0 0zm-32-3h2l-1 1-1-1zm6 0h2l-1 1-1-1zm35 0-2-1-3-1 1-1c0-1 3-1 6 1 1 2 2 2 0 2h-2zm-68-1c-1-1 0-2 1-1v1h-1zm-26-1 6-3-1 1c-1 2-2 2-3 2h-2zm34-2h2l-1 1-1-1zm-22-1h3l-2 1-1-1zm34 0h3l-2 1c-1 0-2 0-1-1zm11 0v-1l4-1h2l-2 2h-4zm20 0c-2-1-2-1 0-1l1 1h-1zm27-5v-3l2 2 2 3-2 1c-2 0-2 0-2-3zm19 2 1-1h1l-1 1h-1zm-33-1h2l-1 1-1-1zm-132-4v-1l1 1v1l-1-1zm2-43v-2h2c0 2-1 3-2 2zm15-1-1-2h1l1 1-1 1zm-6-3 1-1 1 1-1 1-1-1zm7-2-2-1-2-2h2l4 3-1 1-1-1zm3-3c0-2 2-3 3-2v2l-2 1-1-1zm30-3v-3l1 3-1 2v-2zm-8 0 1-3v4l-1-1zm3 0 3-1v1h-3zm16 0h1l1 1h-1l-1-1zm-26-3-1-1 2-1h2l-2 3-1-1zm27-1c-1-1-1-2 1-2l1 1-2 1zm23 0 1-1h1l-1 1h-1zm12-1 1-2v2l-1 1v-1zm-9-2 1-1 1 1h-2zm-18-1 1-1v2l-1-1zm33-1v-2h2v4l-2-2zm-9 0c-1-1 0-1 1-1v2l-1-1zm16-3 1-2 1 1c0 2-2 2-2 1zm17-3 3-2c1 1 0 3-2 3l-1-1zm10-8v-2l1 1h3l2-1-1 2-3 2-2-2zm14-11-1-2c1 0 2 1 1 2 0 1 0 1 0 0zm1-6v-2l-2 1c-2 2-3 2-4 1l-2-2h2l4-1 4-1h3l-4 5c-2 0-2 0-1-1zm13-2 1-1-1-3c0-2-2-2-2-1v3l-3-1-4-1v-1l-1-3h-3l-2 1c-1-1-1-2 1-2h3v-3h2l1 1c-1 2 1 6 2 6l2-1v-4l2 1 2 2 2 2 1 2c1 0 2-2 1-3l-1-1 2 1 2 1h1l-1 2-1 1-2 1c-2 2-3 2-4 1zm-12-5 1-1 1 1-1 1-1-1zm-22-14v-1l1 1-1 1v-1zm4-2h2l-1 1-1-1zm-3-1 1-1v1l-1 1v-1zm9 0-1-1 1-1 3 1 1 2h-1l-3-1zm-9-4 2-1 3 1-3 1-2-1zm8-3c-1-2-1-2-2-1h-2c-1-2-1-4 1-4 2-1 3 0 3 1l1 3c2 1 3 3 2 3l-3-2zm-10-3v-3c1 0 2 3 1 4l-1-1zm14 0 2-3 5-2 6-2 4-2c1 0 1 0 0 0l-3 3-3 3h-3c-2 0-3 0-5 2l-2 1h-1zm33-60V3l2 3v2l-1 1-1-2zm7 0h1l1 1h-1l-1-1zm-15-2c-2 0-2-2 0-2l3 2-1 1-2-1z"/>
</svg>
