<?xml version="1.0" encoding="utf-8"?>
<svg xmlns="http://www.w3.org/2000/svg" version="1.1" viewBox="0 0 992 425">
	<title>Five measures of musical notation on the treble clef, with a ¾ time signature, in the key of F.</title>
	<path d="M0 35v2h992v-2zm0 24v3h992v-3zm0 25v3h992v-3zm0 25v3h992v-3zm0 25v2h992v-2zm0 149v3h992v-3zm0 25v3h992v-3zm0 25v3h992v-3zm0 25v3h992v-3zm0 25v2h992v-2z"/>
	<path d="M988 35v101h4V35zM697 283v102h4V283zM327 35v101h5V35zm316 0v101h4V35zM236 158v4h48v-4zm527 133v77h3v-77zm-163 25v76h2v-76zM934 24v82h3V24zM219 285v83h2v-83zm671 6v77h3v-77zM394 30v64h2V30zm79 274v64h2v-64zM456 30v64h3V30zm63-13v77h2V17zm70-12v77h3V5zM274 73v83h2V73zm435-43v64h3V30zm75 0v64h3V30zm75-13v77h3V17zM346 279v76h2v-76z"/>
	<path d="M829 102c0 4 4 9 12 9 10 0 21-8 21-17 0-6-5-9-11-9-10 0-22 8-22 17M189 376c0 4 3 9 11 9 10 0 21-9 21-17 0-6-5-9-11-9-9 0-21 8-21 17m55-212c0 4 3 9 11 9 10 0 21-8 21-17 0-6-5-9-11-9-10 0-21 8-21 17m120-62c0 4 3 9 11 9 10 0 21-8 21-17 0-6-5-9-11-9-10 0-21 8-21 17m-48 261c0 5 3 9 11 9 10 0 21-8 21-17 0-6-5-9-11-9-9 0-21 8-21 17m110-261c0 4 3 9 11 9 11 0 22-8 22-17 0-6-5-9-12-9-9 0-21 8-21 17m17 274c0 4 3 9 11 9 10 0 21-9 21-17 0-6-5-9-11-9-9 0-21 8-21 17m46-274c0 4 3 9 11 9 10 0 21-8 21-17 0-6-5-9-11-9-10 0-21 8-21 17m71-12c0 4 3 9 11 9 10 0 21-9 21-17 0-6-5-10-11-10-10 0-21 9-21 18m10 311c0 4 3 9 11 9 10 0 21-9 21-18 0-5-5-9-11-9-9 0-21 8-21 18m184-299c0 4 4 9 12 9 10 0 21-8 21-17 0-6-5-9-11-9-10 0-22 8-22 17m-20 274c0 4 3 9 11 9 10 0 21-9 21-17 0-6-5-9-11-9-10 0-21 8-21 17m170-261c0 4 3 9 12 9 10 0 21-9 21-18 0-5-5-9-11-9-10 0-22 8-22 17m-43 262c0 4 3 9 11 9 10 0 21-9 21-17 0-6-5-9-11-9-10 0-21 8-21 17M679 102c0 4 4 9 12 9 10 0 21-8 21-17 0-6-5-9-11-9-10 0-22 8-22 17"/>
	<path d="M31 161c0 7 5 15 18 15 5 0 9-1 12-3 6-4 7-10 7-17l-1-14-2-8c10-4 17-14 17-24 0-15-11-25-25-25l-3-17c11-11 18-24 18-40 0-9-3-16-4-19-3-6-6-9-8-9l-7 5c-6 8-8 20-8 29l2 21-7 7c-9 8-21 20-21 40 0 19 16 33 34 33h8l3 21c0 11-5 16-15 16h-5v-1c5-1 10-5 10-11 0-5-4-11-12-11-7 0-11 6-11 12M52 29c0-4 5-15 10-15 2 0 4 5 4 12 0 10-8 18-14 25l-2-12 2-10m8 102h-5c-15 0-27-10-27-25 0-12 9-22 17-30l5-4 3 14c-10 2-16 12-16 21 0 7 6 17 14 17l1-2-2-2c-4-2-6-5-6-10 0-6 5-10 11-12l5 33m14-19c0 7-3 15-10 18l-5-32c9 0 15 6 15 14M31 410c0 7 5 15 18 15 5 0 9-1 12-3 6-4 7-10 7-17l-1-14-2-8c10-4 17-14 17-24 0-15-11-25-25-25l-3-17c11-11 18-24 18-40 0-9-3-16-4-20-3-5-6-8-8-8l-7 5c-6 8-8 20-8 29l2 21-7 7c-9 8-21 20-21 40 0 19 16 33 34 33h8l3 21c0 11-5 16-15 16h-5v-1c5-1 10-5 10-11 0-5-4-11-12-11-7 0-11 6-11 12m21-132c0-4 5-15 10-15 2 0 4 5 4 12 0 10-8 18-14 25l-2-12 2-10m8 102h-5c-15 0-27-10-27-25 0-12 9-23 17-30l5-4 3 14c-10 2-16 12-16 21 0 7 6 17 14 17l1-2-2-2c-4-2-6-5-6-10 0-6 5-11 11-12l5 33m14-19c0 7-3 15-10 17l-5-32c9 0 15 6 15 15"/>
	<path d="M119 319c-5 0-8 3-9 4l1-32-2-2h-1l-1 2v60l2 1h1c8-5 17-13 17-23 0-5-2-10-8-10m-9 28v-19c1-1 2-4 6-4s4 3 4 5c0 9-3 13-10 18m9-277c-5 0-8 3-9 4l1-32-2-1h-1l-1 1v60l2 1h1c8-4 17-13 17-23 0-5-2-10-8-10m-9 28V79c1-1 2-4 6-4s4 3 4 5c0 9-3 13-10 18"/>
	<path d="M181 60c5-2 9-5 9-11 0-1-1-12-18-12s-16 12-16 12c0 4 3 7 6 7 4 0 7-3 7-7 0-3-3-5-5-6l5-2c4 0 9 3 9 8 0 6-5 7-6 7l-8 1-1 1v2l1 2h7c4 1 7 4 7 11 0 6-5 8-9 8l-6-1c3-1 6-3 6-7 0-3-3-6-7-6-3 0-6 3-6 6 0 8 7 12 15 12 9 0 19-3 19-14 0-7-4-10-9-11m-10 63v7h-8l-2 2v2l2 1h30l1-1v-2l-1-2h-9v-7h9l1-2v-1l-1-2h-9v-16l-1-1-1-1h-1v1l-10 8v9h-11l22-27 1-2v-1l-3-2h-15l-2 1s0 7-3 15c-2 8-5 13-8 17v2l1 1 1 1h17"/>
	<path d="m473 297 129 13v12l-129-12v-13m129 31-27-2v12l27 3v-13M394 24h65v12h-65V24m369 261h130v12H763v-12M709 24h78v12h-78V24"/>
	<path d="m589 27 1 2c4 1 13 6 19 17 2 3 5 8 5 16a63 63 0 0 1-5 23l1 1 2-1c4-8 6-17 6-26-1-13-8-23-8-23l-12-16-5-12-1-3-1-1-2 1v22M274 96v1c5 1 13 6 20 17 1 4 4 8 4 16a63 63 0 0 1-4 23l1 1 1-1c5-8 6-17 6-26 0-13-8-22-8-22l-11-17c-4-5-6-11-6-11l-1-4-1-1-1 1v23m72 205 1 1c4 2 12 7 19 18 2 3 4 7 4 16a63 63 0 0 1-4 23l1 1 1-1c5-8 6-18 6-27 0-12-7-22-7-22l-12-16-6-12-1-4-1-1-1 2v22M934 46l1 1c4 2 13 7 19 18 2 3 5 7 5 15a63 63 0 0 1-5 24l1 1 2-2c4-7 6-17 6-26-1-13-8-22-8-22l-12-16-5-12-1-4-2-1-1 2v22"/>
	<path d="M533 98c0 3 3 5 5 5 3 0 5-2 5-5s-2-5-5-5c-2 0-5 2-5 5m341 0c0 3 2 5 5 5s5-2 5-5-2-5-5-5-5 2-5 5M488 372c0 2 2 5 5 5 2 0 5-3 5-5 0-3-3-5-5-5-3 0-5 2-5 5m-254 0c0 2 2 5 5 5 2 0 5-3 5-5 0-3-3-5-5-5-3 0-5 2-5 5m671 0c0 2 2 5 5 5s5-3 5-5c0-3-2-5-5-5s-5 2-5 5"/>
</svg>
