<?xml version="1.0" encoding="utf-8"?>
<svg xmlns="http://www.w3.org/2000/svg" version="1.1" viewBox="0 0 1124 241">
	<title>Three measures of musical notation on the treble clef, with no time signature, in the key of C, with lyrics underneath the notes, “And I will sing Golier.”. All the note stems are placed to the right of the notes and are directed up. The first measure: eighth note G on 2nd staff line with lyric “And”; single barline. The second measure: quarter note A on 2nd staff space with lyric “I”; eighth note D on 4th staff line with lyric “will”; quarter note B on 3rd staff line with lyric “sing”; eighth note G on 2nd staff line with lyric “Gol”; single barline with two slightly counter-clockwise rotated horizontal parallel lines (similar to an equals sign) underneath, connecting the lyrics. The third measure: dotted quarter note C on the 3rd staff space with lyric “ier,” tied to a quarter note C on the 3rd staff space; no end barline.</title>
	<path d="M0 56.994h1123.2M0 81.794h1123.2M0 106.59h1123.2M0 131.39h1123.2M0 156.19h1123.2" fill="none" stroke="#000" stroke-linejoin="bevel" stroke-width="2.73"/>
	<path d="M811.02 118.92c35.218 22.798 140.87 22.798 176.09 0-35.22 30.734-140.88 30.734-176.09 0" fill-rule="evenodd" stroke="#000" stroke-linecap="round" stroke-linejoin="round" stroke-width="1.24"/>
	<path d="M242.18 55.63v101.93M758.22 55.63v101.93" stroke="#000" stroke-linejoin="bevel" stroke-width="4.46"/>
	<path d="M175.07 127.43V44.793m132.57 70.237V38.394m239.67 64.236V32.194M423.44 77.826V1.393M691.11 127.43V44.793m132.57 45.433V25.994M1006 90.226V25.994" stroke="#000" stroke-linejoin="bevel" stroke-width="2.48"/>
	<path d="M144.08 135.56c0 4.262 3.069 9.021 11.113 9.021 10.308 0 21.127-8.432 21.127-17.159 0-5.859-4.96-9.129-11.113-9.129-9.626 0-21.127 8.137-21.127 17.267m372.24-24.8c0 4.262 3.069 9.021 11.113 9.021 10.308 0 21.127-8.432 21.127-17.159 0-5.859-4.96-9.129-11.113-9.129-9.626 0-21.127 8.137-21.127 17.267m-239.67 12.4c0 4.262 3.069 9.021 11.113 9.021 10.308 0 21.127-8.432 21.127-17.159 0-5.859-4.96-9.129-11.113-9.129-9.626 0-21.127 8.137-21.127 17.267m115.8-37.196c0 4.262 3.069 9.021 11.113 9.021 10.308 0 21.127-8.432 21.127-17.159 0-5.859-4.96-9.129-11.113-9.129-9.626 0-21.127 8.137-21.127 17.267m267.67 49.596c0 4.262 3.069 9.021 11.113 9.021 10.308 0 21.127-8.432 21.127-17.159 0-5.859-4.96-9.129-11.113-9.129-9.626 0-21.127 8.137-21.127 17.267m132.57-37.196c0 4.262 3.069 9.021 11.113 9.021 10.308 0 21.127-8.432 21.127-17.159 0-5.859-4.96-9.129-11.113-9.129-9.626 0-21.127 8.137-21.127 17.267m182.29 0c0 4.262 3.07 9.021 11.11 9.021 10.31 0 21.13-8.432 21.13-17.159 0-5.859-4.96-9.129-11.11-9.129-9.63 0-21.13 8.137-21.13 17.267"/>
	<path d="M30.799 182.28c0 6.556 4.96 15.19 18.352 15.19 4.665 0 8.742-1.194 12.307-3.379 5.363-3.767 6.742-10.323 6.742-16.57 0-3.859-.589-8.323-1.581-13.981-.294-1.984-.899-4.96-1.488-8.835 9.719-3.177 16.957-13.299 16.957-23.514 0-14.973-10.617-25.094-25.094-25.094-.992-5.952-1.984-11.811-2.775-17.36 10.416-11.021 17.655-23.421 17.655-39.184 0-9.037-2.775-16.368-4.371-19.948-2.372-5.053-5.255-8.525-7.037-8.525-.698 0-3.767 1.193-7.037 5.053-6.355 7.548-8.138 20.242-8.138 28.566 0 5.363.496 10.23 2.186 21.343-.109.093-5.27 5.348-7.348 7.037-9.036 8.339-21.529 20.429-21.529 40.285 0 18.538 16.167 33.124 34.627 33.124 2.868 0 5.549-.295 7.828-.698 1.891 9.533 3.084 16.477 3.084 21.731 0 10.323-5.363 15.779-15.376 15.779-2.387 0-4.464-.496-4.665-.496-.093-.108-.295-.201-.295-.294 0-.202.202-.31.496-.31 4.666-.791 9.316-4.759 9.316-11.098 0-5.363-4.061-11.021-11.502-11.021-6.944 0-11.314 5.658-11.314 12.199M51.538 49.85c.899-3.968 5.456-14.384 10.617-14.384 1.488 0 3.86 4.759 3.86 11.703 0 10.323-7.626 18.057-14.477 24.8-.589-3.968-1.085-7.828-1.085-11.997 0-3.674.294-7.053 1.085-10.122m8.726 101.98c-1.984.403-3.859.604-5.75.604-14.183 0-26.288-9.92-26.288-24.908 0-12.09 8.525-22.909 17.267-30.458 1.674-1.488 3.27-2.867 4.758-4.355.884 5.347 1.581 10.013 2.279 14.089-9.037 2.682-15.175 12.199-15.175 21.53 0 6.944 5.456 16.461 13.392 16.461.791 0 1.69-.403 1.69-1.287 0-.898-.992-1.394-2.186-2.185-3.875-2.387-6.06-4.96-6.06-9.827 0-6.045 4.572-10.912 10.323-12.292zm14.09-18.352c0 7.053-2.883 14.291-9.92 17.174-2.077-11.904-4.759-27.683-5.456-32.054 8.928 0 15.376 6.06 15.376 14.88"/>
	<path d="M173.83 67.115c0 .295.093.884.791 1.086 4.262 1.395 12.802 6.758 19.25 17.763 1.783 3.069 4.666 7.347 4.666 15.577 0 7.146-1.798 14.477-4.464 21.623-.202.604-.31 1.1-.31 1.488 0 .697.403.992 1.1.992.59 0 1.086-.388 1.488-1.085 4.465-7.936 6.154-17.174 6.154-26.195-.496-12.803-7.843-22.227-7.843-22.227.295 0-9.129-12.199-11.811-16.368-3.658-5.658-5.347-11.3-5.549-11.703-.093-.294-.992-3.875-.992-3.875-.093-.388-.589-.791-1.193-.791-.698 0-1.287.605-1.287 1.287zm248.37-43.4c0 .295.093.884.791 1.086 4.262 1.395 12.802 6.758 19.25 17.763 1.783 3.069 4.666 7.347 4.666 15.577 0 7.146-1.798 14.477-4.464 21.623-.202.604-.31 1.1-.31 1.488 0 .697.403.992 1.1.992.59 0 1.086-.388 1.488-1.085 4.465-7.936 6.154-17.174 6.154-26.195-.496-12.803-7.843-22.227-7.843-22.227.295 0-9.129-12.199-11.811-16.368-3.658-5.658-5.347-11.3-5.549-11.703-.093-.294-.992-3.875-.992-3.875-.093-.388-.589-.791-1.193-.791-.698 0-1.287.605-1.287 1.287zm267.67 43.4c0 .295.093.884.791 1.086 4.262 1.395 12.802 6.758 19.25 17.763 1.783 3.069 4.666 7.347 4.666 15.577 0 7.146-1.798 14.477-4.464 21.623-.202.604-.31 1.1-.31 1.488 0 .697.403.992 1.1.992.59 0 1.086-.388 1.488-1.085 4.465-7.936 6.154-17.174 6.154-26.195-.496-12.803-7.843-22.227-7.843-22.227.295 0-9.129-12.199-11.811-16.368-3.658-5.658-5.347-11.3-5.549-11.703-.093-.294-.992-3.875-.992-3.875-.093-.388-.589-.791-1.193-.791-.698 0-1.287.605-1.287 1.287z"/>
	<path d="M370.07 209.8c0 .593.296.453.953 1 2.64 2.203 2.39 3.296 3.703 6.546 5.14 12.75 5.14 13.75 5.937 13.75 1.657 0 6.657-12.796 7.203-12.796.907 0 4.454 12.953 5.954 12.953.593 0 1.203-1.313 2.296-3.657 6.11-12.953 5.907-13.796 7.204-15.593 1.046-1.453 2.203-.953 2.203-1.86 0-.593-.25-.64-1.453-.64h-5.75c-.547 0-1.047 0-1.047.39 0 1.453 2.75.203 2.75 2.907 0 2.39-4.094 12.64-4.75 12.64-.453 0-1.297-2.797-2.36-5.047-1.75-3.843-2.937-7.39-2.937-8.343 0-1.157.844-1.36 1.5-1.407.547-.047.75-.047.75-.5 0-.14-.063-.703-1.11-.703-.64 0-.296.063-1.546.063-6.094 0-2.704-.11-6.047-.11-.297 0-.75 0-.75.453 0 .907 1.14.204 2.843 2.657.75 1.093 1.454 3 1.454 3.39 0 1.203-.25 1.453-2.657 6.047-1 1.906-1.75 3.453-2 3.453-.437 0-1.39-2.75-2.437-5-1.75-3.953-2.813-6.547-2.813-8.093 0-2.204 2.203-1.36 2.203-2.36 0-.547-.5-.547-2.343-.547-1.453 0-1 .047-2.453.047-2 0-3.204-.187-3.547-.187-.297 0-.953.093-.953.547m37.796 1.75c0 .203.25.39.5.5 1.11.39 2.907-.297 2.907 3.843v4.407c0 8.64-.11 8.343-2.047 9-.453.14-.75.593-.75.953 0 .5.75.64 2 .64.844 0 1.437-.093 3.547-.093 1.89 0 1.453.093 3.547.093.25 0 .546.047.75.047.796 0 .843-.547.843-.844 0-.703-.64-.703-1.5-.75-1.25-.093-2.797-.406-2.797-3.656v-13.687c0-.86.297-1.813.297-2.407 0-.703-.437-.953-.75-.953-.797 0-.687.157-2.5.907-2.797 1.14-4.047 1.203-4.047 2m2.86-10.454c0 .797 1 2.844 2.437 2.844.453 0 2.36-1.547 2.36-2.75 0-1-1.157-2.844-2.297-2.844-1.11 0-2.5 2.094-2.5 2.75m10.344-5.156c0 .36.25.406.546.406 1 0 1.657.047 2 .204.61.25 1.204 1.64 1.204 3.187 0 6.359-.204 17.016-.204 21.266v3.687c0 .5.047.906.047 1.313 0 1.75-.14 2.687-1.343 3.25-.75.343-1.704.187-1.704 1.093 0 .157.25.5.797.5 1.11 0 1.75-.406 4.063-.406 1.547 0 4 .36 5.047.36.953 0 1.547-.157 1.547-.704 0-.343-.297-.75-.657-.75-3.797 0-4.047-2.046-4.047-3.656V210.8c0-2.5.11-2.407.11-6.657v-2.797c0-4.546.39-6.859.39-7.609 0-.5-.093-.937-.593-.937-1 0-2.5.89-3.797 1.39-2.813 1.11-3.406.797-3.406 1.75m14 0c0 .36.25.406.546.406 1 0 1.657.047 2 .204.61.25 1.204 1.64 1.204 3.187 0 6.359-.204 17.016-.204 21.266v3.687c0 .5.047.906.047 1.313 0 1.75-.14 2.687-1.343 3.25-.75.343-1.704.187-1.704 1.093 0 .157.25.5.797.5 1.11 0 1.75-.406 4.063-.406 1.547 0 4 .36 5.047.36.953 0 1.547-.157 1.547-.704 0-.343-.297-.75-.657-.75-3.797 0-4.047-2.046-4.047-3.656V210.8c0-2.5.11-2.407.11-6.657v-2.797c0-4.546.39-6.859.39-7.609 0-.5-.093-.937-.593-.937-1 0-2.5.89-3.797 1.39-2.813 1.11-3.406.797-3.406 1.75m347.53 15.61c0 .203.25.39.5.5 1.109.39 2.906-.297 2.906 3.843v4.407c0 8.64-.109 8.343-2.047 9-.453.14-.75.593-.75.953 0 .5.75.64 2 .64.844 0 1.438-.093 3.547-.093 1.891 0 1.453.093 3.547.093.25 0 .547.047.75.047.797 0 .844-.547.844-.844 0-.703-.641-.703-1.5-.75-1.25-.093-2.797-.406-2.797-3.656v-13.687c0-.86.297-1.813.297-2.407 0-.703-.438-.953-.75-.953-.797 0-.688.157-2.5.907-2.797 1.14-4.047 1.203-4.047 2m2.859-10.454c0 .797 1 2.844 2.438 2.844.453 0 2.359-1.547 2.359-2.75 0-1-1.156-2.844-2.297-2.844-1.109 0-2.5 2.094-2.5 2.75m11.297 19.797c0 7.453 5.203 10.657 10.547 10.657 5.844 0 8.844-4.297 8.844-4.86 0-.187-.25-.437-.5-.437-.844 0-3 2.25-6.547 2.25-4.141 0-8.453-3.453-8.453-10.11 0-.5 0-.547.562-.547h12.844c1.406 0 2.047-.203 2.047-.906 0-.75-1.703-7.937-9.203-7.937-6.094 0-10.141 5.39-10.141 11.89m4.203-4.953c0-1.75 1.5-5.687 5.094-5.687 3.953 0 5.406 4.187 5.406 5.5 0 .437-.109.593-1.062.593-.844 0-6.5.297-8.797.297-.547 0-.641-.25-.641-.703m17.938-4.344c0 .704.5.797.953.797.203 0 .406.047.547.047 2.25 0 2.5.953 2.5 1.86 0 .953.109 0 .109 9.546 0 3.954-.047 5-1.859 5.454-.547.14-.641.453-.641.843 0 .36 0 .61 1.094.61.859 0 2.5-.25 5.203-.25 1.156 0 2.656.25 4.25.25.547 0 .594-.453.594-.813 0-.75-1.297-.64-2.547-.844-1.141-.203-2.344-1.203-2.344-2.703 0-.843-.109.047-.109-5.25v-5.203c0-1.047 1.75-3.094 3.703-3.094 2.406 0 2.656 1.204 3.797 1.204.156 0 1.703-.75 1.703-2.797 0-.25-.141-.86-1.047-1.453-1-.657-1.297-.954-2.344-.954-3.25 0-4.859 4.047-5.25 4.047-.312 0-.406-.047-.406-2.14 0-.5.047-.953.047-1.36 0-.5-.203-1-.641-1-.062 0-.453.11-.703.203-4.109 1.954-6.609 1.797-6.609 3m21.312 15.844c0 .906 1.188 1.5 1.641 2.11.5.64 1.656 1.703 2.109 1.703.688 0 1.25-1.157 1.844-1.75.547-.563 1.906-1.157 1.906-2 0-.86-.953-.86-2.656-2.657-.453-.453-.703-.906-1.156-.906-.938 0-1.594 1.313-2.25 1.906-.797.704-1.438 1.157-1.438 1.594m1.5-29.39c0 2.296.188 3.687.438 7.203.203 3-.25.047 1 14.937 0 .313.203.453.609.453.5 0 .641-.203.703-.547 1.297-10.5 1.141-15.5 1.75-20.406.141-1.203.25-1.594.25-1.953 0-1.297-.859-1.594-2.312-1.594-1.5 0-2.438.703-2.438 1.907M636.94 214.14c0 8.547 4.891 17.297 20 17.297 5.547 0 10.703-3.5 11.297-3.844 1.75-.953 3.156-.75 3.156-1.343 0-.563-.25-1.157-.25-5.61 0-2.14.094-4.047.344-5.593.25-1.5 2.703-1.5 2.703-2.297 0-.407-.593-.453-.797-.453-.156 0-2.453.046-4.75.046-1.25 0-4.296-.25-5.546-.25-.704 0-.907.25-.907.547 0 1 .844 1 1.844 1.11.75.093 1.609.187 2.203.797.5.5.86 1.343.86 2.796 0 2.047-.11 5.907-.157 6.297-.453 3-5.25 5.75-10.453 5.75-9.406 0-14.844-8.953-14.844-18 0-9.547 6.391-14.797 14.391-14.797 5.813 0 12 4 14.313 9.047.14.36.546.61.843.61.203 0 .594-.063.594-.86 0-.593-.594-3.656-.687-6.953 0-.547-.25-1-.75-1-.407 0-1.063.75-1.407.75-.453 0-3.953-3.547-12.453-3.547-12.797 0-19.547 8.844-19.547 19.5m40.75 6.297c0 5.563 3.797 11.063 11.453 11.063 6 0 12-3.86 12-11.36 0-7.297-5.812-11.093-11.656-11.093-7.844 0-11.797 5.75-11.797 11.39m3.953-1.687c0-6.203 3.75-8.36 6.641-8.36 6.156 0 9.109 5.953 9.109 11.25 0 5.657-3.203 8.36-6.75 8.36-4.25 0-9-3.953-9-11.25m22.094-22.813c0 .36.25.406.547.406 1 0 1.656.047 2 .204.609.25 1.203 1.64 1.203 3.187 0 6.359-.203 17.016-.203 21.266v3.687c0 .5.047.906.047 1.313 0 1.75-.141 2.687-1.344 3.25-.75.343-1.703.187-1.703 1.093 0 .157.25.5.797.5 1.109 0 1.75-.406 4.062-.406 1.547 0 4 .36 5.047.36.953 0 1.547-.157 1.547-.704 0-.343-.297-.75-.656-.75-3.797 0-4.047-2.046-4.047-3.656v-14.89c0-2.5.109-2.407.109-6.657v-2.797c0-4.546.391-6.859.391-7.609 0-.5-.094-.937-.594-.937-1 0-2.5.89-3.797 1.39-2.812 1.11-3.406.797-3.406 1.75M490.18 228.44c0 1.25.594 1.203 1.797 1.61.75.25 3 1.343 5.609 1.343 3 0 4.25-.953 4.938-1.547 1.453-1.296 2.656-3.296 2.656-5.203 0-3.89-1.344-5.39-6.094-7.203-2.406-.89-5.359-1.547-5.359-4.5 0-1.5 1.453-2.547 3.359-2.547 4.5 0 5.188 4.61 6.047 4.61.703 0 .891-.36.891-1.453 0-.547-.188-2.86-.188-3 0-.36-.5-1.86-5.703-1.86-3.906 0-7.547 2.36-7.547 6.203 0 7.203 11.188 5.047 11.188 11.11 0 2.843-2.797 3.547-4.344 3.547-3.094 0-4.703-3.36-5.203-4.61-.453-1.14-.25-2.14-1.297-2.14-.344 0-.75.546-.75 1.296v4.344m19.047-16.89c0 .203.25.39.5.5 1.109.39 2.906-.297 2.906 3.843v4.407c0 8.64-.109 8.343-2.047 9-.453.14-.75.593-.75.953 0 .5.75.64 2 .64.844 0 1.438-.093 3.547-.093 1.891 0 1.453.093 3.547.093.25 0 .547.047.75.047.797 0 .844-.547.844-.844 0-.703-.641-.703-1.5-.75-1.25-.093-2.797-.406-2.797-3.656v-13.687c0-.86.297-1.813.297-2.407 0-.703-.438-.953-.75-.953-.797 0-.688.157-2.5.907-2.797 1.14-4.047 1.203-4.047 2m2.859-10.454c0 .797 1 2.844 2.438 2.844.453 0 2.359-1.547 2.359-2.75 0-1-1.156-2.844-2.297-2.844-1.109 0-2.5 2.094-2.5 2.75m10.891 10c0 .344.25.547.953.547h.5c1.156 0 2.156.36 2.156 2.703v7.204c0 1.453 0 .953-.109 3.75-.203 5.953-2.641 3.25-2.641 4.796 0 .297.141.5.75.5.438 0 3.438-.203 5.594-.203 2.297 0 1.797.203 3.656.203.438 0 .938-.093.938-.656 0-.594-1.75-.75-2.047-.75-2.594-.187-2.844-2.14-2.844-5.047v-1.89c0-1.657.203-7.203.453-7.907.188-.593 2.297-3.046 5.594-3.046 3.156 0 6.453 2.25 6.453 7.796v6.75c0 1.344-.109 3.047-1.109 3.344-.094.063-1.25.063-1.25.75 0 .406.359.656 1 .656.609 0 2.609-.203 3.859-.203 1.094 0 2.047.25 4.094.25.5 0 1-.093 1-.5 0-.39-.094-.593-1-.75-2.844-.453-3.047-1.343-3.047-3.64v-1.11c0-7.14-.047-6.297-.047-7.14 0-2.657-1.5-8.407-8.609-8.407-1.594 0-3.141.657-4.344 1.407-1.797 1.093-2 2.047-2.344 2.047-.203 0-.25-.407-.25-1.297 0-.813.094-1.813.094-2.157 0-.343-.094-.593-.453-.593h-.094c-.5 0-2.25 1.093-4.453 1.687-1.094.313-2.453.25-2.453.906m30.406 24.344c0 4.36 5.391 5.5 9.297 5.5 5.156 0 9.453-2.094 10.75-5.344.297-.703.344-1.5.344-2.343 0-4.25-4.891-4.407-7.25-4.407h-2.297c-4.141 0-6.703-.156-6.703-2.593 0-2.36 2.156-2.453 2.25-2.453.75 0 1.609.453 3.859.453 4.594 0 8.25-3.36 8.25-7.61 0-1-.547-2.5-.547-2.5.688-.297 1.5-.703 2.047-1.547.453-.703 1.094-2.796 1.094-4.546 0-.407-.5-.407-.641-.407-.859 0-.5 1.86-1.812 2.407-.938.39-1.797.89-2.547.89-.703 0-1.891-2-6.297-2-7.156 0-8.656 5.063-8.656 7.656 0 5.25 3.406 5.907 3.406 6.704 0 .5-2.594 1.546-2.594 4.953 0 2.187 1.641 2.64 1.641 2.937 0 .5-3.594 1.203-3.594 4.25m2.891-.297c0-2.093 1.859-3.343 2.312-3.343.547 0 3.5.703 6.141.703h.453c2.844 0 5.547 0 5.547 2.547 0 2.796-4.203 4.546-8.047 4.546-3.297 0-6.406-1.296-6.406-4.453m2.062-19.047c0-4.046 2.141-6.046 4.438-6.046 3.406 0 5.203 3.64 5.203 7.093 0 3.11-1.5 5.953-4.641 5.953-2.906 0-5-3-5-7M111.2 230.19c0 .5.547.61 1.453.61 1.094 0 2.344-.204 4.297-.204 1.75 0 3.343.047 4.156.047.797 0 .844-.297.844-.703 0-1.547-3.703.063-3.703-3.39 0-1.407 1.406-4 3.203-7.797.547-1.203.75-1.453 3.843-1.453h2.657c3.25 0 5-.11 6.047-.11 1.656 0 1.859.453 2.062.86 1.047 1.89 3.344 7.89 3.344 9.5 0 1.89-2.5 1.25-2.5 2.343 0 .61.297.703 2.406.703 1.438 0 2.844-.203 4.641-.203 1.406 0 3.359.297 4.5.297 1.25 0 1.359-.5 1.359-.75 0-1.797-3.062.5-5.562-4.547-.391-.797-7.438-17.14-9.797-22.953-3.203-7.953-2.547-8.047-3.594-8.047-.813 0-1.063.157-1.5 1.157-14.859 31.593-14.5 32.593-17.406 33.703-.453.14-.75.437-.75.937m12.547-16.5c0-.594 4.609-11.594 5.25-11.594.953 0 5.546 11.094 5.546 11.704 0 .546-.64.796-1.937.796 0 0-2.563.047-4.75.047h-1.563c-2.093 0-2.546-.047-2.546-.953m29-2.594c0 .344.25.547.953.547h.5c1.156 0 2.156.36 2.156 2.703v7.204c0 1.453 0 .953-.109 3.75-.204 5.953-2.641 3.25-2.641 4.796 0 .297.141.5.75.5.437 0 3.437-.203 5.594-.203 2.297 0 1.797.203 3.656.203.437 0 .937-.093.937-.656 0-.594-1.75-.75-2.046-.75-2.594-.187-2.844-2.14-2.844-5.047v-1.89c0-1.657.203-7.203.453-7.907.187-.593 2.297-3.046 5.594-3.046 3.156 0 6.453 2.25 6.453 7.796v6.75c0 1.344-.11 3.047-1.11 3.344-.093.063-1.25.063-1.25.75 0 .406.36.656 1 .656.61 0 2.61-.203 3.86-.203 1.094 0 2.047.25 4.094.25.5 0 1-.093 1-.5 0-.39-.094-.593-1-.75-2.844-.453-3.047-1.343-3.047-3.64v-1.11c0-7.14-.047-6.297-.047-7.14 0-2.657-1.5-8.407-8.61-8.407-1.593 0-3.14.657-4.343 1.407-1.797 1.093-2 2.047-2.344 2.047-.203 0-.25-.407-.25-1.297 0-.813.094-1.813.094-2.157 0-.343-.094-.593-.453-.593h-.094c-.5 0-2.25 1.093-4.453 1.687-1.094.313-2.453.25-2.453.906m30.406 9.75c0 5.344 3.297 10.454 9.844 10.454 4.75 0 6.75-3.25 7.296-3.25.407 0 .454.5.454.843 0 .907.156 1.407.156 1.86 0 .39.203.547.547.547.593 0 1.703-.407 3.156-.5 3.641-.297 3.844-.657 3.844-.907 0-.843-1.344-.797-2.157-1.047-1.437-.453-1.75-1.5-1.75-6.046 0-3.61.11-9.25.11-18.25 0-4.204.64-9.813.64-10.86 0-.75-.25-1-.593-1-.594 0-1.344.5-1.953.75-3.954 1.797-5.641 1.656-5.641 2.406v.047c0 .344 0 .407 1.047.407h.547c2.656 0 2.656 2.25 2.656 5.593 0 1.797-.109 0-.109 6.453 0 1.5-.094 1.797-.25 1.797-.704 0-3.454-1.453-5.704-1.453-8.093 0-12.14 6.203-12.14 12.156m3.594-2.343c0-4.657 2.5-8.36 6.953-8.36 1.797 0 4.343 1.25 5.953 2.203.703.407 1.39 1.094 1.39 3.844 0 .86 0 0-.046 8.563 0 2.297-3.047 3.937-5.954 3.937-5.187 0-8.296-5.594-8.296-10.187m98.523-22.663c0 .25.047.704 1.047.75 1.407.047 3.5.75 3.75 2.547.157 1.094.203 2.344.203 3.657v2.296c0 2.047-.046 3.954-.046 5.407v2.843c0 3.407-.454 12.954-.547 13.344-.75 3.25-3.703 1.86-3.703 3.203 0 .407.203.75 2.25.75 1.796 0 2.89-.25 5.5-.25 1.64 0 2.046.203 4.75.203.843 0 1.25-.093 1.25-.906 0-.25-.547-.547-1.047-.547-.157 0-.86-.047-1-.047-.5 0-1.36-.093-2.407-1.546-.953-1.407-1.25-3-1.25-6.047 0-4.61.157-6.75.157-18.516 0-1.937.187-5.187 1.593-5.75 1.454-.594 2.297-.891 2.297-1.344 0-.656-1-.703-1.343-.703-3.157 0-2.25.11-4.407.11-2.797 0-4.25-.204-5.64-.204-1.203 0-1.407.391-1.407.75"/>
	<path d="m739 219.06 19.54-3.44m-19.57-2.84 19.54-3.45" fill="none" stroke="#000" stroke-linejoin="bevel" stroke-width="2.48"/>
	<path d="M837.32 94.194a4.916 4.916 0 0 0 4.96 4.96c2.775 0 4.96-2.185 4.96-4.96s-2.185-4.96-4.96-4.96a4.916 4.916 0 0 0-4.96 4.96"/>
</svg>
