<?xml version="1.0" encoding="utf-8"?>
<svg xmlns="http://www.w3.org/2000/svg" version="1.1" viewBox="0 0 1000 652">
	<title>A map of Sussex, titled “Regni Regnorum.” Various locations are labeled in Latin, others in English.</title>
	<path d="m433 650-1-3h1l-1-1-3-1h-2v-2l4-1 2-1 3-2v3l-2 1 1 3 1 3 1 2h-1l-2 1h-1zm27 1a15 15 0 0 1-2-7v-2l2-4h2l1 2-1 3h-1l1-1v-2h-1l-1 1 1 3 1 4 2-1h2l-1 2-1 3h-3zm3-2h-1v1l1 1v-1l1-1zm154 3 1-1 1-1h-3l-2 1h-2l-1-1h-4l-9 1h-5v-3h1l1 1h20v-2h3l3 2h1l-1 1a5 5 0 0 1-1 2h-3zm-175-1v-3c0-1 2-3 4-3h1l1 1 1 3 1 1h1l2 1h-2l-5 1h-3zm5-2a6 6 0 0 1 0-2h-2l-1 1 1 1 2 1zm23 2a5 5 0 0 1-1-3v-1h2v3h2l1-1 1-2 1 1v1l2 1 1 1h-2l-4 1h-2zm28 0-3-1v1h-3a12 12 0 0 0-5 0h-2l-3-1v-2a14 14 0 0 0 0-2l-1-2 1-2v-2h1l1-1h1l1 2v2h-1v-1l-1-1-1 4 1 1h1l-1-1 1-1h1v2l-1 2v1h3l2-1 3-2 4 2 2 1 1 1h4v1l-3 1zm-4-2h1l-2-2-1 1h-1l1 1 1 1zm80 2-6-1h-5l-1-1h-1l-2 1-1 1h-6v-3l-1-2 1-1 3-1h1v2h-1l-1 1 1 1v2h-1 4l1-1 1-2h-1l-1-2h5v2l1 1h1l1-2 1-1h3l5 4 3 1 1 1v1h-2a15 15 0 0 1-3-1zm-4-3 1-1-2-1h-2l1 3v1l1-1h1zm-8-1v-1l-1-1v1l1 1zm23 4v-1l3 1h-3zm-41-2-3-6-1-4h2l2 3 1 3 2-3 2-4 1-1h2l-1 1a23 23 0 0 0-4 12l-1 1h-2zm41 0v-1h3l-1 1h-1l-2 1zm269-5-1-1h2l2-1-2-2-2-1v-1l1-1h1v2l3 1v-1l1-1 1 1v1l-1 1v1l-1 1-2 1h-2zm-34-3 1-1 1-1-1-2v-2h2v1l1 2 1 1 1 1h2v1h-8zm11 0h-1v-3l2 1c3 1 3 2-1 2zm126-1-2-1v-3h-1v-3l1-2h2l1 2 2 3-1 2h-1l2 1 1 1h-2zm1-2v-1h-2l1 1h1zm-1-4-1-1v3l2-1zm-94 5h-1v-4l1-1h1l1 1h1l-1 4h2v1h-4zm17 1 1-1 2-1-2-1h-1v-2l-1-1 1-1v-1h3v1a1 1 0 0 1-1 0c-1 0-1 1 1 3l2 2-4 2h-1zm7 0c0-1 2-2 5-2h2v2h-7zm22 0v-1l1-1v-2h-1 3v1a7 7 0 0 0-1 2v1h-1a2 2 0 0 1-1 0zm9-1v-1h-1l-1 1-1-1h-1v-7l1-1h1l1 1 1 1v2l-1 2-1 1 3-1 1 1 1 2v1h-3zm-69 0-1-2h3v3h-2zm21 0-1-1h1l1 1-1 1v-1zm53 0-1-1 1-1h1l1 1h1l-1-1v-2l1 1h1v1l1 1-1 1a4 4 0 0 1-2 1l-2-1zm65 0v-3l-2-1h-2l1-2 1-2h2l-1 1-1 2h3v2c0 3 0 4-1 3zm-145-3-1-2v-1h2v2l1 1 2-1v3l-1 1h-2zm87 2v-2l-1-1h2l4 1h2l1 1v1l-1 1h-1l-1-1a4 4 0 0 1-2 1h-1l1-1v-1h-1v2h-2v-1zm34 0v-1h2v-3l-1-2 1-1 2 1h1l1 2 1 3-1 1h-6zm5-2-1-2v3h1zm11 2-1-3v-3h2v6zm14 0-1-3v-3h2v6h-1zm4 0v-6h2v6h-2zm-111-1-1-1v-2h3l-1 1 1 1 1 1h-1zm3-2v-2h1a8 8 0 0 1 3 0h1v3h-2l1-1 1-1h-3l1 1v1h-2l-1-1zm17-1v-1h2l3-1h1l-1 1-1 1h-4zm-86-1a1 1 0 0 1 0-1v-1h3v2h-3zm-316-2-1-1v-2h2v2h2v-6h-2l-1 1-1-1-1-1-1 1h-2l-1-1-1-1v-8h2v2l1 4v2h2l1-2 1-2h1l2 1 2 5v6l-2 1h-3zm2-10v-1h-1l-1 2v1h2zm56 10v-1l1-1 1-2 1-2-1-1-2-1 1-1 1-2 1-1v-2l1-1 3-1 1-1 1-1h1l-2 3a18 18 0 0 0-2 4l1 1h1v4l-4 1-1 2-2 3zm5-8a1 1 0 0 1 0-1v-1h-1l-1 1 3 1zm1-5-1-1-1 1 1 1 1-1zm349 9h-1v-1h2l2-1-1-2-1-1-1-2-1-2h1l1-1h1v2l1 2 1 3v2h-1c-1 1-2 2-3 1zm-331-2-1-1v-1l1-1-2-2h1l2-1h2l1 1v1h-3l1 1h1l-1 1v2l4-1-4 2-2-1zm8 1-1-1 2-1h2v-4l-3-1 1-1 6 1v1l-1 1c-1 0-1 1 1 1l1 1v1h-1a5 5 0 0 0-3 1l-3 1h-1zm-82-1-2-2v-1l1-2 2-1 1-1h1l1 1 1 3v1c-1 1-2 3-4 3l-2-1zm3-3v-1h-2v2l2-1zm60 3v-1l1-1-1-1h-1l3-4h3l1 1v1h-5v1h3l1 1 1 2v1h-1a9 9 0 0 1-5 0zm4-2h-3l2 1h1zm-128 1-2-1-1 1h-4l-1-1-1-2v-1l1-1 1-1 2-1 2 1-4 1v2l1 1h5v-3h1l1-1v1l1 3v2l1-2v-1l-1-2h3v1h1v-2l2 1v2l1 2h1l1 1-2 1h-2l-1-1-1-1-1 1-1 1h-2l-1-1zm39 0v-5l1 1v2h2v-3h1l1 1v4h-5zm55 0-1-1v-1h1l2 1h3v-2l-6-2-1-1v-2l2-1a7 7 0 0 1 2-2h2l1 1 1 1v1h-3v-1l-1-1h-1v2l-1 1 3 1 3 1 1 1 1 1-1 2-1 1-6 1zm10 0-1-1 1-3h2v2l1 1h1v-1l-1-2h1l2 1 1 1-2 3h-3zm-72-1a9 9 0 0 1-1-3l-1-1h1l1-1v1l1 1 2-3 1 1 1 1h-1l-1 1v2l-1 2h-1zm129 1v-5l-1-1-1-1v-1l1-1 1 1 1 1h3l1 2v2l1 1 1 1v1h-2l-1-1-1-2v-3l-1 1-1 3v2a1 1 0 0 1-1 0zm25 0-1-1v-1h1l-1-1-1-2 1-1v-1l3 1 1 1h-3l2 4h3l-2 1h-3zm229 0-1-1v-2l1-2 3-1 1 3 1 3h-1l-2-1-1 1zm12 0-1-1-2 1v-5l2-1 1 2 1 3 1 1h-1a2 2 0 0 1-1 0zm9 0v-2l-2 1h-2l1-1 1-3v-1h1l2 2 1 4h-2zm-260 0-1-2v-2l-1-2h6l2 1 1 2v1l1 1v1h-2l-2-1h-1v-3h-2l1 4h-1l-1-1zm18-1h-2v-1l-1-3v-1h2l3-1v4l3 2h-5zm1-3v-1h-2v1l1 2 1-2zm34 3v-5l1-1v3l1 3h-1zm160 0 1-1h-2l-1-1 1-1h1l3 1 2 1v1l-1 1h-4zm14-1a19 19 0 0 0-1-2v-1l1-1 1 1 1 3v2h-2zm5-1v-3h2v1l-1 1h1l1 2v2h-2zm69 2 1-1h1l-3-3v-1l1-2h1l1 3 2 3-2 1-1 1h-1zm-308 0-1-1v-3l1-2h3v1l1 1v3l-1 1h-2zm2-3-1-1h-1v2h3zm39 3v-4l1-3h4l-1 1h-2l1 1 1 1h-2l-1 1 1 1v1h3v1h-5zm9 0a1 1 0 0 1-1-1h3v-1l-1-1-2-1v-1l1-2h1v2l1 1h3l3 2v1l-4-1-1 2h-3zm164-1a6 6 0 0 1 0-1v-1h1l1 3h-1a1 1 0 0 1-1-1zm67 0 1-3 1-1-1-1-1-3v-1h1l1-1h1l1 1 1 1-1 2v1l2 2 2 2-4-1-1-1-1 2-2 1zm3-8v-1h-2l1 3 1-1zm7 6-1-3v-1h2v3l3 2-1 1h-2zm12 1a7 7 0 0 1-1-2v-1h2l1 2v2l-2-1zm-340-4-2-2h3v4l-1-2zm267 0s-1 0 0 0l2-1 3-1v1l-2 1-2 1zm-173-1v-1h8v2h-2l-3-1-1-1-1 1h-1zm-220-1h-1v-1l1-1h1l1 1v1h-2zm467-2 1-1 1 1h-2zm-560-1h-2v-2h15a299 299 0 0 0 34-3 1379 1379 0 0 0 18-1l28-1h22l2 1 1 1h-8a1303 1303 0 0 0-68 3l-12 1-19 1-9 1zm517-4-1-1 1-3 1-3v-7 1l1 2v2h1l2-1 1-1v2l1 1 1 1-1 1-1-1-2-1h-1v3l1 2-1 2-1 2-2-1zm2-3v-2h-2v4h2zm-514 2-5-1h-2v-3h2l13 1h9a5676 5676 0 0 1 43-2l30-2a350 350 0 0 1 12 0l8-1h1l2 1-1 1v1l-2-1-5 1-11 1h-16l-20 1-18 1a474 474 0 0 1-40 2zm178-4h-6v-1l14-1a3077 3077 0 0 0 26 0 2912 2912 0 0 1 27-1 598 598 0 0 0 38-1l14-1h47l3 1v1h-18a1600 1600 0 0 0-96 3 1198 1198 0 0 0-49 0zm299 0-1-2v-1l2-1v-4l-1-6v-2h2v2l1 6v3l-1 3c-1 2-1 3-2 2zm21-1 1-1-2-1-1-1h1v-1h2l3 1 1 1v2h-3v1h-2zm25 0v-4h1v3h2v1h-3zm-37-2-1-2-1-2h-3l2-1v-4h-1c-1-1 0-2 1-2l1 2 1 2 1 4 2 3h1l1 1v1h-3zm5 0v-2l1-1h1v5h-1l-1-2zm37 1a2 2 0 0 1 0-1v-1l1 1 1 1 1 1h-1zm4 0v-5h1v2l1 2v1h-2zm-359-2v-1l12-1a409 409 0 0 1 36-1l50-1a946 946 0 0 1 43-1l17-1h8v1h1l-1 1h-14a2298 2298 0 0 0-78 3h-17l-26 1h-31zm362-1 1-1 2 1h-3zm-532-3h-2v-2l-2-3v-4h-3v4l-1 3v1h-1l-1-1v-4a94 94 0 0 0-1-7v-4l6-1 2 1 2 1 1 1v4l-1 2 1 3 2 4v1h2c0 1-2 2-4 1zm-3-12v-1l-2-2-2-1h-1v2l1 3h4zm172 9a9 9 0 0 1 0-3l-1-6v-3l3-3h5l2 3-2 4 3 3v4h3v1h-5l-1-3v-3h-5l1 1v6h-2zm5-8 1-1v-3l-3-1-1 2v3h1a4 4 0 0 0 2 0zm-160 8 1-2-1-6v-5l2-2h6l1-1h3l-1 2-2 1h-5l-2-1v2l1 2 3 1 3 1v2l-6-1v3l4 1 5 1v2h-5l-3-2-2 2-1 1h-1zm183 0-1-1-4 1-1-1 1-3v-3l-1-4 1-2a4 4 0 0 1 1-1h3l3 1h3v2h-2a13 13 0 0 1-4 0h-2v2l1 2h5l2 1-1 1h-6v2l1 1 3 1 2 1-1 1h-2zm91-1-1-1v-1a15 15 0 0 1 0-2v-1l-4-1v2a9 9 0 0 1-1 2l-1 1h-1v-10l-1-1v-2h2a9 9 0 0 1 3 0h2l1 1 1 2v4l1 4 2 2 2 1v1h-2l-3-1zm-2-10c0-2-2-3-3-3h-1v5l1 1 4-1zm-245 9-1-1-1-2-1-2 2-3 2-4 3-1h2l1 1v2h-1l-2-1-1-1-2 2v3l-1 3 1 1 1 3h4l1-2v-2h-4v-1a1 1 0 0 1 1 0l4-1h5v1l-2 1-2 1-1 2-1 2h-6zm175 0h-1v-2l-1-2 1-2 1-2 3-3h3v2h-2l-2 1v3l-1 3 1 1 2 1h1v-3h-1l-1-1v-1h6v1l-1 1-1 1v2l-1 1h-5zm-152 0v-2l1-2-1-3-1-5v-2h4l1 1 2 2 2 5 3 4h1v-4l-1-5-1-3v-1h2l1 4 1 4v3a9 9 0 0 1-1 4h-3a9 9 0 0 1-3-2l-1-1-1-4-2-3v6l-1 2-1 2-1 1v-1zm195 0-2-1v-8l1-2 3-1h2l5 2 1 2v5l-1 2-2 1a15 15 0 0 1-4 1h-2zm7-3v-4l-1-2-2-2h-1l-2 2-1 1 1 2v3l1 1 1 1h4v-2zm-32 3 2-1 1-1-1-2a110 110 0 0 0 0-5l-1-2 2-1 2 1 1 1 2 3 2 4 1 1h1v-1l-1-3-1-4v-1l1-1 3 7v5h-3l-2-2-2-1-1-3-1-2-1 2-1 5-3 1zm-138-2-2-1-2 1-1-1v-1h1l2-1h1v-8l-1-2h-2v2h-1l-1-2 1-1h10v2l-3 1v4l1 4v1h7v1l-1 1-1 1h-6zm205 1h-1l-1-2v-9h2v7l1 1 1 2 4-1v-3l-1-3-1-3h2l1 2 2 3v5h-2l-7 1zm15 0 1-3v-5l-1-3c1-1 5 1 5 2l2 2 1 1 3-6 2-1 1 1 1 2a79 79 0 0 0 1 5v2l1 1 1 1v1h-2l-3-3v-8l-2 3-2 3-1 1-3-1-1-1v-2h-1v7h-1l-2 1zm-110-13h-1l1-1 2-1h1v1l-2 2a1 1 0 0 1-1-1zm17-5-1-2 1-1h3v-1l-1-1h-1l3-2 1 1 1 1-2 2-1 2 1 1 1 1-2 1h-2zm5 0v-1l3-3h1v2l1 2h-1l-1-1-1-1v2h-2zm-13-6 2-2 2-1-1-1v-2h2v2l1 2v1h-2l-3 1h-1c-1 0-1 0 0 0zm-6-6v-3l2-2 3-2h1l1 2 1 1-1 1h-1l-1-1-1-1-1 1-2 1 1 4h-1l-1-1zm4-3v-1h1l1 1-1 1h-1zm8-4 3-1 1-1v-1h-2v-2l-1 1h-3l2-2 3-1h1v3h2v3l-2 1-4 1zm-16-1 1-1v-2h-2l5-3h2v2l-3-1v1h1l2 1h-2l-2 2-2 2zm-223-4-1-1-1-1h-1l-3 1-6 1h-1l11-3h1l2 2 2-1 8-2 1-1h3l3 1v1l2-1h6l3 1-1 1-6-1-3 1-5 2h-2v-1l5-1-5-1h-1l-8 3zm235-3 1-1v-1h-3l4-2h3l1 1-3 2a13 13 0 0 1-2 2l-1-1zm-188-2v-1l2-1h2l1-1h-9l-2 1-6 1h-2l1-1h2l4-1 1-1-6-2-2 1-4 1h-3v1h3l3 1-1 1h-5v-1l-3-1h-1l-4 1h-2l-5-1h-2l-6 2h-1l-3-1-2-1-2-1h-1l-3 1-4 1h-1l1-1a16 16 0 0 1 5-2h5a11 11 0 0 0 3 1h3l-1 1h-3l1 1 2-1 4-1 1-2v-1l-2-1a1435 1435 0 0 0-16 1 150 150 0 0 0-13 0h-3v-1h2l3 1v-3h3l3 1 4-2v-6h2l1 1 1 2 3-1 3-1h1v2l-1 2 2 1h1v1h-4v1h1l2 1 1-1 1-3 1-2 3-4 4 1h6l2 1v-2l1-2 1-1h3v2h-2l-1 2-2 2 3 1 3 1 1 3 2 3v2h2l2-1 4-1 8 2 8 1h2l1 1-2 1-1 1-4 1zm-29-4a4 4 0 0 0-2 0h-1l2 1h1zm0-2h3l-2-1-2-1-5 1-3 2 3-1h6zm-8-1v-1h10v-3l1-1-2-1-1 2v2h-1l-1-3h-2v2h-2l-1-1v3l-2-1-1 2h2zm14-1 1-1-2-2v1l-1 1h-1v2l3-1zm-31-1-1-2 1-2h1-3v1l1 3 2 1zm-4 0h-4v1h4zm20-2 1-2h1l3-1 1-1h-1v-1l-2 1-1 1-2-1-1 1v1h-4v1h5-1l-3 1h-2 1l2 1h2-1l-1 1 1 1 2-1v-2zm-12 0v-2h-1l-1 1v2h1zm20-2h-3l-1 1 2-1a9 9 0 0 0 1 0zm-27 0v-1l-1 1zm21-2h2v-2l-4 1a16 16 0 0 0-3 1h-1l1 1 3-2zm47 14 3-2-5-1 1-1h7l7 1 1 1h-6l-3 1a77 77 0 0 1-5 2zm160 0 3-2 3-1 2 1v1l-1 1-1-1v-1 2l-3 1h-3zm-267-2-1-2h1v-1l3 3v1h-1l-2-1zm20 0v-1l6-1h11l-1 1-3 1-2-1-2-1-2 1a16 16 0 0 0-3 1l-3 1h-2zm262 0s4-3 5-2h1l-2 1-2 1-2 1zm-16-2h-1v-2h2l1-2h3l1 1v1h-3v1l-2 2-1-1zm14-1 1-2 1-1-4 1v-1l3-2h2v2l-1 2 2-1h2l-6 3zm-273 0 1-2 1-1h4v1c0 1-1 2-3 2h-3zm74-2h-2l-1-1v-1h6l6-1h4l3 2h-10c0 1-1 2-3 2zm-66 0 1-2h1v1l-2 1zm248-2v-1l1-1v-1l-3 1v-1l3-2 2-1 2 1-3 3h3l-1 1-3 2a1 1 0 0 1-1-1zm14-2 1-1v-1h-3l1-1 3-1h2l-1 1v2l2-1v1l-4 2a1 1 0 0 1-1-1zm-17-3 1-1 1-1h-4v-1l2-1h4l1-1v1l-4 4h-1zm14-2v-2h-3v-1l7-1-1 2-2 3h-2zm16-1v-3h-3l2-2h3v1l1 2h1v1l-2 1-1 1zm-226-2-2-3h3l1 2 1 2v1l-3-2zm193-1 1-2h1l-1-1h-2v-1l4-2h1l1 1v2h-1a4 4 0 0 0-1 2l-1 1h-2zm4-4-1-1-1 1 1 1 1-1zm9 2 2-1 2-1-1-1-2-1h-2l2-2 2-1h1v2l-1 1 3 1v2l-3 1h-3zm16-3 1-1 1-1h1l-2 3h-2zm9-3-2-5-3-4a20 20 0 0 1-2-3l1-1h1v-2l-6-7h1l1 1v-1l-3-4-3-7v-1h1l1 2 1 2 1-2v-3l-1-1-1-3 2-1 2-2 1 1 1 1 1 2 1 2h4l5-1 1-1v-2l1-1v-1h-1a2 2 0 0 1-1-1h-1l1-1 1-1-2-1h-1v-2l1-1h-1v-1l1-1 1 1 1 2v1l1 4 1 2v3l-1 4-1 1v1l-2 3-2 2v1l-1 1-2 2-1 1v1l1 1 2-1 1-1h6v-3l1 1 1 1v-1l-1-1v-1l1-2h1l2 1v-2l-1-1 1-1h1l1-1v-1l-1-2-1-1 1-1h1l-1-2-2-1v-3h1l1 1 1 1 1 4v5l-1 2-1 2v2l-2 3 1 2 1 2v1l-2 3a7 7 0 0 0-2 4l-1 2-2 3v1h-5v2l1 3 2 2-1 1-1 1-2-4zm2-8v-1l-1 2-1 1 1-1 1-1zm-2-2v-2a7 7 0 0 0-2 4l2-2zm7 0 1-2 1-3 1-2-2 2-3 3-2 3h1l1 1 2-2zm-9-2 1-3-2 2a16 16 0 0 0-1 2h1l1-1zm9-4 4-3-1-2-1-1-4 4a12 12 0 0 0-4 4l2 2zm-9-1v-1h-1a2 2 0 0 0 0 1l-1 1h1l1-1zm-2-2h-1l-1 2h1v1l1-1zm6 1v-2h-1c-2 1-2 4 0 4l1-2zm-8-2 1-2-1 1-1 2zm11 0-1-1v1zm-11-3v-2l-1-1v1l-1 1v1h2zm3-2 1-1-1-1-1 1-1 1v1h1l1-1zm-4-2v-1h-1c-1 0-2 1-1 2l2-1zm3-1h3v-3h3-1l-1-1-1-1v1l-3 2-2 1v1h2zm-4-2h-1v1l1-1zm5-2 2-2v-1h-7v4l1 1h1zm5-1v-1h3v-1l-1-1-1 1a14 14 0 0 1-2 1l-1 1h2zm-10-6h-2 2zm-28 37-1-1-3 1-3 1c-1-1 0-2 3-2a13 13 0 0 0 2-1l-1-2-1-3 1 1h1l1 1 1 3 2 3v1zm7 0v-3h-2l2-2 3-1 1 1 1 1-4 3v2l-1-1zm3-4 1-1h-3v1l1 1 1-1zm-394 4-5-2 1-1h4l-1-1h-2l2-3h1v2h1l9-5a86 86 0 0 1 5-4 126 126 0 0 0 13-8l-1-1h-1v-1l1-1h5l3-1 1 1-1 2-1 2v1l-2 1-2-1 2-2 1-1h-1l-3 2-2 2-5 3-3 2-2 2h-1l-5 3a84 84 0 0 1-10 6l1 1 2 1v1h-1zm403-3-1-3 1-1 1-1h4v2l-1 1v-2h-2l-1 1v1l2 3h-1l-2-1zm-17-6v-2l4-2 2 3-3 2h-2zm3 0 1-1v-1h-1l-2 2h2zm-398-1a2 2 0 0 0-1-1l-1-2v-1l1-1h2l-1 1-1 1h5l1 2v1l-1 1h-4zm3-1h-2 1v1zm406 0 4-1h1l-2 1-2 1h-1zm113-2-1-1h2v1l-1 1zm-115-1 3-2h-4v-2l3-1 3-1-1 2-1 2h4l-2 1-3 2h-1zm-15 0 1-3 1-3-1 1h-4l6-3 1 1-2 5 1-1c3-2 3 0 0 2l-3 1zm121-1h-5l-2-4h-2l-1 2-1 2h-3l1-1 2-1v-7l1 2v1l3 1v-1l1-1v1l1 2v2h3l2-4h1l1 1-1 2-1 2h2l2-3h1l1 1 2 1 5-1v-2l-3-2-2-1 2-2 1-2h1l1 1 1 1-1 1-1 1 2 4v4l-1 1-6-1h-2l-3 1h-1zm13-1-1-1v1h1zm-7-1v-1h-1l-1 1 1 1 1-1zm-545 1a40 40 0 0 0-2-2l-2-1h-4v-2l3-1a9 9 0 0 0 3-1l1-1h1l1 1-3 2 2 2 1 1v3l-1-1zm34 1v-3h-3v2l-1-1h-1v-1l6-2h1l-2 2 1 1 1 1v1zm5-5-2-3 1-1 1-1 3 1-1 2h2l2 2h-5l2 1-1 1-2-2zm-34-2-2-3h2l1 1 2-1-1-1-1-1 1-1 5 5-1 2-1-1-2-1h-1l1 2v1h-2zm355 1v-1h-3v-2l1-2v-1l1-1v2l2-1v1l-1 1v1l1 1 2 2v1h-1l-2-1zm6 0-2-1v-4l2-1h2l-1 1h-1l1 1 1 1h-2v2h4l-1 1h-3zm-276-1-1-1v-2l1-2h5v3l-1 2a5 5 0 0 1-3 1l-1-1zm3-2 1-1-1-1h-2v3h2zm5 1-1-3v-1l1 1h3l2 1 1-2v-1h1v1l-1 3-1 2h-2l-1 1-2-2zm11 1v-2l-1-2 1-1 1-1h4v1l-2 1h-1v1h1v-1l1 1v1h-2l1 1 2 1v1h-5v-1zm13 0v-1h-1v1h-2v-6l2-1h1v1l1 2-3-1v1h1l2 2 1 1h-1 1l1 1-1 1h-2zm4 0 3-1 2-1h-1l-2-1h-1v-1l-1-1 2-1 2-1h1v2l-1-1-1 1v1h3v2l-1 2-1 1h-4zm226 1-1-2-1-3-1-2h6l-2 2v5a1 1 0 0 1-1 0zm-306-2a24 24 0 0 1-1-3l-1-1 3-3 1 1-1 2 2-1v1l-1 1-1 1h1l2-1h2a18 18 0 0 1-4 3l-1 1zm295 0h-1l2-2v-1l1-2-3 1v-1l4-1h1l1 1 1 1v3l-1 1-1 1h-1l-3-1zm5-3v-2h-2v4h2zm-332-1a35 35 0 0 1-2-3v-1h1l2-1h1l-2 3h1l2-1h2l-2 1-1 1h4l-4 3-2-2zm209 1h-1v-2l1-3v-1h3v1h-2l-1 2h4l-2 3zm2-2h-1l-1 1h2zm-25 2a7 7 0 0 1 0-3v-3h1l1-1h1l1 1-1 1v1l1 1 1 3h-1v-2h-3v1l-1 1zm2-5-1-1v1h1zm7 5a7 7 0 0 1 0-3v-3h2v6h-2zm5-2v-3h2l1 2 1-3h2l-1 2h-1v3h-1l-2 1h-1zm-161-2-1-3h3l2 1 2 2v1l-4-1v2l1 1h-2zm2-1v-1h-2l1 1v1l1-1zm501 3v-2h-1v-3l1 1h2v5h-2zm-575-1-3-1-1-1-4-3-2-1v-1l-2-1-1-2h-3v-1h3l2 2 3 2 2 1h2v1l2 1 1 1 3 1h2l3-1 2-1 1-1h2l3-5h1l2-1v-1l1-1 3-3a40 40 0 0 1 8-5h2l-1-2 2-1a5 5 0 0 0 3-1v-2l-1-3h-1l-2 1h-1l3 2-2 1h-3v-1h3l-2-1 1-2 1-1h5v3l1 3h2l2-1c2 0 9-7 10-9l10-11a26 26 0 0 1 8-6 47 47 0 0 1 18-7l5-1 5-2h2l1-2 1-1 1 2 5-1 7-1 1-1h16a207 207 0 0 0 19-1l1-1-1-3-1-4-5-4 1-2 1-2 2-2 2-2-4-3-2-1 1 2 1 1-3 1-3 1v1h2l1-1 1 1v1h-16v-4h-1l-1-1v-1a13 13 0 0 0-2-6v-1l-6 1v1h1l2 1v1h-1l-7-4a20 20 0 0 0-2-3h-1l-6 3-13 6h-2l2-1 7-3-2-2-3-1a29 29 0 0 0-7-3l-2 1c0 2-2 2-5 3h-2l1-1 3-1 3-1 1-2h2l2 1 2 1 4-1 3-1h1l4 2 4 1 2-3 3 2 4 3 1 1 1-1 3-1h2l1-1 1-2h5v3h3-1v-1l1-1 1-1h5v9h4l-2-2v-1l1-3 1-2h2a375 375 0 0 0 4-1l-2-3v-2l3-4 2 1-2 1-1 1v3h1l1 2-5 3-2 1-1 2 1 3 2 1 4 2 2 1-1 2v2l-5 4 1 1 2 3 3 5v8h-8l-20 1h-11l-3 1-8 1-5 1-7 3-6 2c-6 1-8 1-14 4l-5 3-11 10-3 5-3 5h-1l-1 1-2 2c-1 0-3 0-5 2l-5 2-1 1h-3l-7 5-3 3-5 5a25 25 0 0 1-12 7zm34-22 1-1h-1l-1 1h-1 1a4 4 0 0 0 1 0zm104-63 1-1v-1l1-1a14 14 0 0 1 3 0h2v-2l-1-1h-2l-2 1v1l-2 2v-1l1-1h-3l-4 1h-2v3h3zm-8-5-1-6h-2l1 2v2l1 2h1zm5 0h1v-6h-2a38 38 0 0 0-2 1h-1v2l1 3h3zm3-4v-3h-1v6h1zm-33-4-3-2-3-1-2 1h-2v1l6 2v1l4-2zm26-1v-1h-2l-2 1-1 1h1l1 1 1-1h2zm9 1-3-1-1-1-1 1v1h5-1zm427 97-1-1-1-3v-5l2-1 1 1h1v6h1l1 2v1l-1 1h-2zm1-7-1-2-1 1v3h2zm-22 7-1-1v-4l1-1h2l-1 4-1 1h2v1l-1 1h-1zm-11 0a152 152 0 0 1 0-4v-3l2-1h2l1 2 1 1 1 2v2l-1 1a5 5 0 0 1-2 0h-1v-2h3l-1-1-2-1h-1v3l-1 1zm3-5-1-2v1h1zm22 5h-1v-3l1-1h1l1 1h-1l-1 1 1 1 1 1h-2zm-8-1-1-2v-1h3l1 2 1 1h-3l-1 1zm1-1 1-1h-2v1h1zm-474 0-2-5h4l1-3h1l3 2 2 2-2 1-1-1-1-1h-2 1v1h-4l3 4-1 1-2-1zm289-1v-1h1v-4h-1v-1h4l1 1 1 2-1 1-1 2h-4zm4-3-1-1v2l1-1zm4 1v-3h4l-3 2h2l-1 1h-1l1 1 1 1h-3v-2zm16 2v-4h2v2h2v1l-1 1h-1zm6 0 1-1-1-3 1-1h1v1l-1 1 3 2-1 1h-4Zm-15-2v-1a1 1 0 0 1-1-1v-1l2 1h3-1l-1 2v2h-2zm-156 0h2l-1 1-1-1zm115 0 1-1-1-1-1-2h-2l1-1h7v1l-2 1h-1v2l-1 2h-2zm6 0h1v-4h1l1 2v-1h2v1l1 2v1h-2v-2h-1l-1 1v1h-2zm9-1v-3h2l1 1v1h-2c2 0 2 1 1 2h-1 2l1 1h-4zm31 0v-1h1l1 2v1h-2zm-290 1a1 1 0 0 1 0-1h2l8-2-1-1-1-1 1-1h3l6-1h2v-6l-3-2-1-2v-2l1-1 2-1h1l2 1 2 1v3l-3 2v3l1 3 1 1h3v3h-2v-2h-4l-7 1h-2l1 2 2 1 2-1h12l9-1v2h-1l-21 1h-5l-3 1h-7zm22-16v-1h-2l1-2h-2v1l-1 2h4zm-71 13a13 13 0 0 1-2-3s2 0 3 2l2 1h4l-1 1a154 154 0 0 0-3 1h-1zm347-1v-1h1v2l-1 1zm-203 0c-2-1-2-2-1-3v-3l1-1 3-1 1 1v1h-2l-2 3 1 1 2 1 1 1v1h-3zm11 0-2-1 1-1h-1l-2 1h-1l1-1 1-1v-4l1 1 1 1h2l-1 1v3h1l1-1 2-1v-3h3v6l-1-1h-2l-2 1-2 1zm-149-2-1-1v-2h2l3-1 1 2-1 2-2 2h-1zm3-1v-1h-3l2 2h2zm155 1 1-3 1-1 1 2 1-1 2-1-1 2a5 5 0 0 0-1 2v1h-2l-2 1v-2zm8 1-1-2v-2l1-1 1-1 1 1v1l-1 1-1 1v1h2l1 1 1 1h-2zm12 0-1-1 1-3v-1h2l1 1 1 3v1l-1 1-3-1zm2-1 1-1h-3v1h2zm-7-1v-2h-1l-1-1h6l-1 1-1 1v3h-1zm14 1-1-1-1 2-1-1v-2l1-1h2l2 1v2l-1 1zm6 0h-1v-5h2l2 5-1 1h-2zm2-1-1-1h-1l1 1h1zm13 1-1-1-1 1-1 1v-3l-1-2 2-2 3 1a8 8 0 0 1-1 2v1l1 1h1v1h-2zm5-1-1-3-1-1h5l-1 2h-1l1 3-2 1zm-285 0-2-1-1-2-1-2-2-2-1-2h-1a5 5 0 0 1-3-2l-2-1 1-1v-1l-3-1-3-2-3-2-2-1h-4l-3-2h-3l-4-1-8-2-3 1h-6l-3-4h1v-1h-3l-2-2v1h-1l-1 1-1 1-10-2-1-3v-1l1-3h4l3 2v-2l1-1 2-1 2-1h5l1-1 1-2 1-3-1-1h-5l-2 1h-1l-3 4h-3v-1l1-3 1-2v-1h-2l-1 2-1 1h-1v3h-4l-2 3h-2l-2 1-1 1-2 1-1-1-1-1 1-1h-1l-3-5-3 1-3 1h-2l2-2 6-1 2 1h1v2l1 1 1 1 3-1h2l3-3h3l1-2 2-2 3-2 2 1 1 1-1 3 2-1h2l1-3v-2l1-1h2l-1 2v2h2l1-1 2 1 2 2v3l-2 3-1 2h-2a11 11 0 0 1-4 0h-1l-1 1-1 1h-1v1l-1 2h-2l-4-3-1 1v3l9 2 3-1h2l3 1h2v4l3 1h2a18 18 0 0 1 4-1h3l1 1 11 1h4v1l-1 1h-1l2 1 5-1 1 2h1l2 2 4 2 2 1v2l1 2 1 1h4l1 4c2 1 2 3 2 3v1l5 2v2h-1zm-66-45h-1l-1 1h1l1-1zm337 44a11 11 0 0 1-1-3h2l3-1v4l-1 1-2 1zm2-1 1-1h-2v1h1zm-195-1v-3l2-1h1l3 2-1 2-1 1-3 1zm4-2-1-1h-1v3h2v-2zm487 4-3-1-9-2-2-2-1-2-4-2-4-3-3-1h-1l-3-4-5-1-2-2a1543 1543 0 0 1-4-4l-4-2a16 16 0 0 1-4-3l-1-2h-4l-1-1-1-1-7-2-3-2-5-3-3-1-2-1v-2a24 24 0 0 1 7-4c2 0 1 1-2 2l-3 2v2h12l4 1 6 2 1 1 1 1 3 3 5 1 3 1 1 2 1 2h2l8 2 1 1 1 2h3l2 1v1h6a162 162 0 0 0 22 1h4l2-1 4-2 7-3 3-2 3-3h-1l-1-1v-1l3 1 1-1 3-3 2-1-1-1h-6l2-1 1-3v-1h-4v4l-1 1-1-4v-3l1-1 1-1h3l1 1 3-2-1-1v-2l3-2h1l3 1h1l8-1h2v5l1 1 1-1 4-3 2-2 4-2 6-2 2-2h5l8-2 2-2h6l11-4 2-3 3-4 1-5 1-5-3-2v-1l1-1h8l3-2-1-1-1-2 2-2h8v1l1 2h4v-1l-1-1h10l1 2-1 1-1 1v5h6v1l-4 1a77 77 0 0 1-13 0h-6l-2 1-6 5-10 9-1 1h1l3-1 7-3 5-1 6-2 4-1 4-1a34 34 0 0 1 13-3h5l10-2h1l1 1h39l5-1 7-1h1v-1c0-1-1-3-4-5l-4-4v-5l-2-3-3-2v-1l1-3 1-1 2-1 6-4 3-2h1a11 11 0 0 0 4-1l4-1a11 11 0 0 0 4-1l4-2 4-2 2-1 1-2 1-3 1-2v-3h-1l-1-1v-2l-2-1a26 26 0 0 1-5-4 12 12 0 0 0-3-3h-1l-2-2-1-1h-13l-2 1-5 3h-2l-1 3-1 2-2 1-2 1-5-2-2 1-3 2-2 3-2 1-5-1-4 1h-2a11 11 0 0 0-3-2l-3-1-2-2h-3l-2 3-2 2h-6l-2 1-2 1-5-3-3 1-4 1-4 1h-2l-1-1v-1h-1a5 5 0 0 0-2 0l-3 1-4 2-3 1h-1l-4-1h-1l-2-1-1-2h-1a15 15 0 0 0-4 2l-3 2-3-1a276 276 0 0 0-5 0h-2l-3-3-3 1h-6l-1 2-2 2-6-1a309 309 0 0 0-7-2 13 13 0 0 1-3-1l-2-1h-4l-1-2-2-2h-4v-1h5l2 3h2l5 1 9 3 5 1 5-4h7l2-1 1 2 1 1h2a9 9 0 0 1 3 1l2 1 4-2 5-3h3v1l1 2 3 1h3l2 1 8-5h3l4 2h2l3-2 1-1h5l5 2 2-1 4 1 3-1v-2l3-1 4-2h2l1 2 2 1 5 1v1l11-1 1-2 3-2 2-1h4l4 1 2-2a81 81 0 0 0 2-3l1-2h4l1-2 1-1 1-1h3v-1l-4-1v-5l-3-1-1-3-2-3-1-1h-1l-4-1-4-1-1-1-1-2-1-2-1-1-5 1-3-1-1-3v-2l-4-2h-6l-2-1-2-1v-1l-2-3-1-1h-5l-2-1-1-1-7 1-3-2h-2a62 62 0 0 1-15 0h-4l-2 1h-6l-3-3h-2l-2 1-2-2-1-2h-1l-1 1h-3l-1 1-2 2-9 1-1-1h-1v-2l-2-3-1-2h-4l-5 1-5 1a7 7 0 0 1-3 1h-2l-3-1a9 9 0 0 0-3-1l-5 1a15 15 0 0 1-4 2h-1l-1-2-2-1-7 1-2-2-2-2-12-1-2 1-4 1h-1l-2-1-2-2-2 1-5 1h-2l-1-1h-1v-1l1-1h11l4 3 7-2 11 1 2 1 1 1 1 1h3l4-1 4 3 3-1 5-2h2l2 1 5 1 6-1 6-2 5 1 2 1 1 1 1 3v2h9l3-3 5-2 2 1 3 3h1l2-1h2v3l4 1 2-1a22 22 0 0 1 5 0h2v-2a33 33 0 0 0-2-4v-2l1-2 2-3h1l9-1 5 2a199 199 0 0 1 9 3h3v6h-1l-4 1h-3l-1-5h-4l-1 1v2l1 3h2l3 2 1 1h11l4 1 1 1 3 3 2 2 4 1h3l4 2 1 2 1 2v1h6l1 1h1l1 2 2 3h3l2 1v-1l-1-4v-4l-1-1h-3l1 8h-2v-4a1225 1225 0 0 0-1-6v-3h6l1 1 1 1-1 1v2h7l1 1-1 1v-1h-2v1l-1-1h-4v3l1 3v2a1 1 0 0 0 0 1h3l1-1h-3v-3l2-1 3 2-1 1v2h7l1-1h1v-4l-1-5h-3v3l1 4-1 1-1 1v-9l-1-1-2-1v-2h1l4-1 4-1v15l-1 2h-11l1 1 2 4 1 2h2l1 1v2l1 3 3 1a15 15 0 0 0 3 1l2 1 1 1 2-1h1l2 1h3v1l2 2 4 3 3 3 3-1v3h1l1 3 1 6v5l-1 4-2 1-3 2-6 2-5 2h-1l-2 3h-1l-5 1-3 1h1l1 1h-2l-2 3h-2v2l6 6v1a24 24 0 0 0 4 7l3-1 1-2-3-1v-4h4l1 4h3l1 2h-4l-1 1-2 2h-1l1 3 1 2h5l3-1h8l1 1v-2l-1-1h1l1-1h-2l-4-2-4-1h-1v-2h1l1-1v1c0 2 1 1 1 0l1-2h1l-1 4h1l1-1h1l1-1 2-1v1l-1 4h1l1-3 1-2h3v3h-1l-1 2h1l1-1 2 1 5 2h1l1-1v-1l-2-1v-1h2v1l2-1 1 2-1 1-1 1v1l1 1v1l-1 1h1l4 1h3l1 1 2 1 1 2 2 2 1 1 4-3 6-2a55 55 0 0 1 7-1h2v1l-1 1a261 261 0 0 1-13 2l-2 1-1 2h-5l-1-3-2-2-6-2-2 1-3 1h-2c-2 0-7-1-9-3h-2l-4-2h-5l-2 1-4 1h-2l-1-1-1-2-1-1-1-2-3 3h-5l-6 1-3 1h-6a1502 1502 0 0 1-31 0h-10l-6 1a83 83 0 0 0-24 5l-5 1-4 2-4 2-5 1-4 2h-2l-4 1-11 3-8 2-6 2h-1l-3 1a2666 2666 0 0 1-7 3l-4 2-4 4-3 1-6 3-3 2v-2h-4l1 2v2l-2 1-3 3-4 3-1 1v1l-1 1-9 9-2 2-2 1v3l-1-1-2 1a7 7 0 0 1-2 1l-1 1-1 2-1 3-2 2-3 2-2 1-3 2zm4-6-1-7-1-4-2-2-1 1-1 1h1v4l1 6 1 4v1l2-1 2-1zm-9-2v-10h-2v3l-1 4v4l-1 3h2l2 2zm4 5v-4a176 176 0 0 1-2-11h-2l1 3a73 73 0 0 1 0 10v3h1l2-1zm-9-3a177 177 0 0 0 1-8v-4l-1-1h-6l-4-1-2 2-1 3v1l2 1a16 16 0 0 1 4 3l2 1s3 2 3 4l1 1h1zm21-5 2-3h1l-1-1a1 1 0 0 1-1-1v-1l-2-1-3-1h-1l-1 1-1 1 1 5 1 6v1l2-1 3-5zm5-5-1-1 2-1c2 0 4-2 5-3l2-2-1-1v1l-1 1h-5l-2 2-2 2 1 2 1 1h1zm-39-2 1-3v-1h-5v-2l-1-1v-1l-5-1h-6l-1 1v1l2 2c2 0 3 2 4 3l1 1 2 1h3v1l3 2 2-3zm-17-10 1-1-1-1-2-1-7-3-1-1-1 1-2 2h3l1 1c3 3 6 5 8 5zm-12-6 1-2v-1l-11-4-7 1 9 5h1l3 1 2 1zm93-7 1-3h-8v2l1 3h6zm-9-4v-1h-2v1l1 1 1-1zm15 0v-1h-2l-2 1v1h4zm-5-1 2-1h1l1-1 1-2h-1v-1l-3 1-4 2-2 2h-1 6zm10 0 1-2v-1h-3l-1 1 1 1 1 1h1zm-3-1-1-1-1 1h2zm-8-4h-1a4 4 0 0 0-2 0l-1 1h3l1-1zm11 0h1l-1-1-2 1h2zm61-23v-1l-1 1h1zm3-3v-4l1-2v-1h1l-1 4h1l1-5h3v2h1v-3l1-3v-1h-1l-1 2-2 1-2 1-3 2-2 1v4l-1 1 2 1v-1l1-1h1l-1 2h1v-1zm141 0h2l-1-1v-2h-4l-2-1v-3 1l-1-1a1 1 0 0 0-1 0h-1l2 1v1h-4v1l1 2 7 2zm0-5a2 2 0 0 0-2 0v1h3zm-126-3v-1h1a17 17 0 0 1 3 1h1v-5h2l-1 1v4h1l1-1h1l1 1 1-2v-2h-3l-1-1v-2h1l1 1 2 1 1-2v-1h-7l-1 2h-5v6l1 1h1zm0-3h4-4zm90 1-2-3-1-3-1-2-5-5 1 2v7l3 1 3 3 2 2h1zm-104 1v-1h-5v1h5zm12-2v-2h-4v4h1a34 34 0 0 0 2 0h1zm121-1h-1l-1 1-1 1 1-1 2-1zm-22-3v-1h-2v1l1 1 1-1zm-105 0h6v-2h-4a11 11 0 0 0-3 1v1h1zm89-9v-1l7-7 7-1 1-1 4-1 3-2a5 5 0 0 1 2-1l4-2 3-1 1-2a7 7 0 0 0 1-3v-1l-1 2v1l-3 2-3 1-6 2-2 1h-2l-2 1-3 1-4 1-3 3-2 1h-1l-3 1-2 1v2l1 2 3 2 1-1zm-10-77v-1h-2l-2 1h-1l1 1h4zm15 1h2v-2h-4l-3 1v1h2zm-73-16v-3h-12v4l1 3 11-1zm-10 0v-2l1 2 1 2h-2zm7 2h-1v-4h2v4h-1zm-4-2-1-2h2l1 1v2c-1 1-1 1-2-1zm20 0 2-1-1-1v-1h-5v4l1-1zm-13-5-1-2-1-1h-8l-1 2-1 2h13zm5-1-4-1 1 1v1h6l-3-1zM482 466l3-8 5-9c0-2 1-5 3-7l8-15 5-11-1-1-9 2h-20l-7 2-4-1a124 124 0 0 0-8-1h-5l-2-4a5 5 0 0 0-2-3 16 16 0 0 1-1-3l-1-2h-2l-2-1-2-2-2-1-1-2-1-3 1-3 4-5 2-4v-1l-3 3-3 4v2l-1 1-2 1v7h1l2 1 3 2c3 1 5 2 6 4l1 2v6h-1c-6-1-29 0-30 1h-14l-2 1h-14l-8-1h-12a181 181 0 0 1-7 1h-3l-1 3-6 14-3 7-2 3-1 3v4l-2-1 1 2v3l-2-2v2l2 1v1h-1l-1-1a1 1 0 0 0-1 0l-3-1 2-1 1-1v-1l-1 1h-2v-1l1-2 2-2 2-1 1-2 2-4 3-6 2-6 6-11v-1l-1-2-8 1h-30l-8 1-19 1h-4l-2-2v-7l-1-2-5-4v-4l2-1 2-3 1-1v-1l-1-2-2-1-4-2-2-1v-3l2-1 3-2a5 5 0 0 0 2-2h1l-2-4 1-1v-2l-2-2h-2v3l-2-2v-1h-2l1 1 1 1h-5v-1l-1-1h-2v2h-1l-1-1 1-1v-2l6 1 1-1h3l5 1h1l1-1h1l2 2 2-1 2-1-4-2h-16l-9 3-1-1 2-1 7-2 4-1h6l1-4-1-1 1-6h-2l-3-1-2-1v-7l2-4-1-1-1-2 1-2 2-1a7 7 0 0 1 3-1h1v-3l-5-3h-5l-6 1h-2l-1-1-1-2-2 1-1 2h-1a5 5 0 0 0-3 1l-1 1-4-1a263 263 0 0 0-10-1h-5l-3 2-3 2h-1v1l-1 1 1 1 1 1h-3v-4h-4l-2 2-3 1-1-1-1-1h-3l-4 1-3 1-3-1a11 11 0 0 0-3-2h-2l-2 1-3 3-1 2-12-1-2-2-2-2h-6l-3 3h-7l-3-1-4 3h-5l-2-2-3-2-6-1-5-1-2-1-1 1h-3l-2 1-1 1h-2l-3-1-2-1-4 2-2-1-2-1v-1h3l2 1 2-2 4 1v1l2 1 2-1 1-2h5l1-1 2 1 5 1 6 1 3 1 1 1 3 2 1 1 5-4h6l2 1 1 1 5-3 5-1 3 1a7 7 0 0 1 3 2v1l10 1 3-3 3-3h2l6 2 1 1 7-1h4v-1l-1-2h1l1 1v3l3-1 3-2h7l4-3h11l-8-4-1-2-1-2v-6h1l3-2 3-2 2-3v-2l-1-3v-2l-2-2v-2a16 16 0 0 0-1-4v-2l-3-2v-5l1-1-1-1v-1h3v-2c-2-2-2-4-2-7l-1-4 1-1 2-3 1-4 1-1 1-1 2-1 3-1 1-1 1-1v-2l3-1 4-2h1l1-5 2-4-1-1-1-3v-1l-2-2a11 11 0 0 0-4-1h-1l2-2 1-3 1-2 3-1a52 52 0 0 0 4-2l2-1v-2l1-1 6-3 1-2-1-2-1-2h-6l-1-1v-4l-1-2-1-1-2-2-1-1h-4l-3 2h-2a11 11 0 0 1-6-3l-1-1-5 1-4-2v-5l-3-2v-4l-2-1-1-1v-1l-1-2-4-1-2-4h-2l-3-1-4-1a574 574 0 0 1-3 0h-2l3-2h5l3 2h3l1 1 1 1v2l1 1h2a9 9 0 0 1 2 0l1 1v3l1 1h2l1 1v3l2 3v2l1 3 2 2h2v-1l2-1h2l2 2 2 2h4l3-2h3l7 5 1 1v4l-1 2h3a11 11 0 0 1 3 0l2 1 1 2 1 3h2l7 1 1 1v9l2 1v2a49 49 0 0 1 0 3v1l3 1 3 3h6l2-2 4-2 1-2 2-3 1-2 1-2h4l4 2 4 2 1 1v2l1 1 5 2v1l1 2h4l1 2h4l2-1 2-2 2-2h3l3-3 3-3h2l6 1 3 1 2 2 1 1 2-1h5l3 1 4 4 3-1 2 1 2 1 3-3 5 1 4-2h4v-1l-1-1h1l1-1v-1l4-1h2l2 1 1-1 1-2 1-3 1-2h4l1-1 7 1 1-1 5-2h2v-1h3l1-1v-2h2l4-2 3-2h4l2-1h7l3-3 2-3v-1l3-2 3-1h1v2l-6 2v2l-2 3-3 3v2l-2 2-5 3-3 1h-11l-2 1h-8l-4 3h-9l-2 1v1l-1 1-2 3-1 2-6-1-2 2-1 3-6 1h-7l-4 3-2-1-2-1-2 1h-2l-1-1-1-1v-1l-2-1-2-1-3 1-3 1-2-1a16 16 0 0 1-3-2l-1-2-3 1-1-1c-3-1-4-1-6 2l-2 2-1 1h-4l-1 1-2 2-3 2h-4l-4-3h-3l-1-1v-2h-4l-1-2-2-2v-2h-1a9 9 0 0 1-3-2h-2l-4-1-1 2-3 5-2 3-3 1-4 2-2 1h-3l-2-2-1-2h-5v-4l1-4-2-2v-4l-1-4-6-2-4 2-4 1-3 4v1h-2l-4 2-3 2v1h2v1l-3 1v2l4 1 1 1v4h1l1 2-1 2-1 4a13 13 0 0 1-1 3l-1 1-2 1-3 1-2 1v3l-8 3-1 3-1 2-2 4-1 4v3l2 2 1 3v2l-1 2v2l-3-1v1l1 2 1 1h1l1 2 1 5v2l3 3-1 5h1l-1 5-2 1-3 3-2 1h-1v2l1 2v4h2l3 2 9 3h1l2-1a104 104 0 0 1 5-2l2-1 4 3h1l9-1h3l1 1 3 1 1 1 1 2v3l-3 1-4 2v1l2 2-1 2a50 50 0 0 1-2 2v2l1 1v1h-1 3v2l-3-1v1h1l2 1 3 2 1 1v2l1 4v1l-1 3 1 1a11 11 0 0 0 3 1c3 0 6 2 11 4h1l-1-2a152 152 0 0 1 0-2v-1h-1a2 2 0 0 1-1-1l-1-1h2l1-2 1-1h1l1-1v-1l8-1h2a237 237 0 0 0 9 4l1 1h4v5h-6v-4l-2-1-2-1-1-1-1 5v5h-4l-8 1h-5l-2-1-1-1v2h1l1 1-1 1h-1l-1-1-1-1-2 2-2 1v-1l-1-2h-2v4l-1 1 1 2 1 2-2 2-1 1-3 2-2 2 2 1 4 3 3 1v4l-1 1a7 7 0 0 1-2 2h-2v4l2 2a9 9 0 0 1 3 2l1 2 1 6 3 1a125 125 0 0 1 7 1h8l8-2h2l12 1 11-1h20v-1l4-7 3-7c-1-1-3 0-4 1l-5 1h-1v-1h1l5-2 4-1 3-3-1-1v1l-2 2h-1v-1l1-1v-1h-2a11 11 0 0 1-3-1l-2-1-3 2a70 70 0 0 1-15 6h-4v-1h1l4-1 15-6 2-1 4 1 2-1 2-1h-1l-1-2v-1h2l4-1h1l4 2-1 4h1l2-1 2-1 3 2h5l2-1h1l2 2h3l1 1h-1c-1 1-4 0-5-1h-2l-5 3-4 3-5 2-7 2h-2l-5 12 1 1 7-1h6l17 1 3 1 4-1 32-2 12-1 3 1h2v-4l-1-1-1-2-3-1-4-2-2-2-1 1v1l-4-2v1l-2-2a16 16 0 0 1 0-2l1-1h2v1l1 1 1 1v-6l2-3 1-3 2-2 3-2v-2l1-2-1-3-2-3v-1l1-2v-2l1-3h1v-3l-1-2h-1l-1-1v2l1 2-1 1h-4l-1-1-1 1-1-4v-1h3v1l1 2 1 2v-1l1-1v-1l-1-2 1-1 7 1v1h-2v3l4-3 1-1v-4l-3-4-4-2v-6l2-3v-1c-1-1-3 0-6 1l-3 1h-5l-1 3v2c1 0 2 0 2 2l2 1-1 2-1 2 2 3h-1v1l-10-1v-4h-2v-1l2-5h5a4 4 0 0 0-1-2v-1l1-2 2-3h9v-2h4l1 1v1h1l1-1v-2h2l1 1 1-1v-1h2l1 1v-1l1-1h4v-1l-3-1h5l-1 2v1l-2 1-3 1a42 42 0 0 0-6 1l-1 1-1 2-2 5v2l1 1 2 1 2 2 2 1-1-2v-2l2-6h10l3 1 5 2h4l1 3-1 2v1l-7 1v-3l-1-2h-1a17 17 0 0 1-1 1h-1v5l-1 1-7 1h-4l1 5-2 2a130 130 0 0 0-4 4l-2 3v1l1 4 2 3v7l-3 3-3 4-2 2 1 2v2l2 1 2 1 1 1v1h2l4 3 1 2 1 3 1 2 1 1v1h5l9 1h4l5-1h11l20-1 1-1v-1l1-1 1-1-2 1-3 1h-1l2-2a67 67 0 0 0 3-3l2-1-1-1h-1l1-1 1-2 1-1h-2l-1-1v-1h3l-1-5-2-1-2-2h-2l-8 2v1h1v1h-2l-3-3-5-2-2-1h-1l-6 2-5 2 5 2-1 1-2-1-6-3-5-2-4 3-4 2h-3l1-1 3-1a93 93 0 0 1 5-3l3-2 6 4 3-1 7-2a24 24 0 0 1 5-1l6 2 1 1h3l6-2h3l4 3h5l1-1v1h3l-1 2c-1 3 1 3 4-1l3-2 8 4h3l8-4 2 1 5 2h3v1h-1a20 20 0 0 1-5-1l-4-2-4 2-11 5h-2l-1-1h2a18 18 0 0 1 3-1h1v-1l-3-2a15 15 0 0 0-4-1h-1l-1 2-3 2c-2 1-2 2 0 2h1v1h-3v1l1 1 1 2h2l-3 1-3-3v-8h-3v2l1 4v3h-1l-1 1 1 1v3l2 1 1 2h-2l-2-2v-1l-2 3v2a92 92 0 0 0 25 1h11l9-1h9l1-1-2-2a11 11 0 0 1-1-3l1-3 1-3 3-2 3-3-5-1-4-1-2 1-3 1-8 3-7 2h-2 1l9-4 8-2 2-2 1-1 13 3v-1h2l2-1 1-1v-3l-5-2-2-4v-4l-3-3h-13l-2 2-2 3v1h-15l3-2h-1v-2l-1-4-1-4-1-2-1-3 1-1v-2l-1-1v-7l2 1 1 1v-2h2v2l2-2 1 1v1l1 3v5l1 1-4 3-1-2-1 1-1 1 1 1 1 2h1l3 1 2 1v2l1 3h5l3-3v-6l-2-2 2-3 4 1 1 1v2h4l-1-2 3-1 5 1 1 2v1l-2 1v6h1l1 2 1 1 7-2h1l2 2 1 1 2-1v-4l-2-1-2-2v-1l-1-2 1-2a11 11 0 0 1 2-2l1-2 6-1-1-1-1-2-4-3-3-3-1-2-1-3 1-4 1-3 1-1 2-2v-4h-1l-1-1-1-1v-1l1-2 2-2 2-2v-3l-1-3 5-4v-1l-1-1h1l1-2v-2l1-2 2-3v-6l-1-1-1-1v-3l-2-1-2-1h-2l-1-2-1-2-2-1h-2l-3-2a9 9 0 0 0-3-2l-2-4h-2l-3-7v-4l-1-1-1-2-1-3a7 7 0 0 1-1-3 84 84 0 0 0-1-3l-5-4-3-1-3-4h-2a9 9 0 0 0-3 0l-1 1-2-1h-1l3-1 4-1h2l4 5 7 2 1 2 1 3 1 4 2 4 2 3v3l1 3 1 2 2 2 5 5 4 2 4 3 1 1v1h1l6 3 1 3 1 3v7l-1 2-4 9-2 3-1 2v2l1 2-5 5v2l3 2-1 4-1 3-3 6-1 3h1v1l3 2 3 3 4 3v2l1 1-1 2-2 1-4 3-1 1 1 2 3 4 2 3h-1l-1 1v2l-1 1h-7l-4-1-1 1v2l3 2 3 1 1 2 1 2-2 3-6 3-3 3-3 3 1 4v5l1 1 3 2 4 1h3l2 1 1 1 3 1 5 1 2 1 2 1 2 1 3-3 4-1 4-2 6-4 1-1v-7h-2l-4-3-4-1-8 3 1 1 3 2 3 2 2 1h-1l-3-1c-6-3-6-4-9-7l-3-3-4 2a40 40 0 0 1-6 4l-4 2-1-1h-1l5-2 7-4 4-2 3 2 2 2h1l3-1h1v-1a57 57 0 0 0-6-3l-4-2-5 3a37 37 0 0 1-7 2l-2 1v-2h1l7-2 5-3h1l4 1 3 2v-1l4-1 4-1 4 2 4 2c0 1-2 1-5-1l-3-2-4 1-3 2 1 1h2v1h2l3-1 5 3 5 2 1-1 2-2h4l2 1 2 2h4l1-1 1-2v-3l-1-4a7 7 0 0 1 2-2l2-2 8-1 1-1 2-1v-2l4-2 8-5 2-2-1-5v-4l1-2 2-3-1-3c-2-2-2-3 0-3l2 6v1l-2 2-1 2v3l1 5v1l-1 1-1 2-2 1-3 3-4 2-2 1-2 2v2h-3a169 169 0 0 1-5 2l-4 1-1 1-1 2 2 5-2 2-1 2h-5l-5-3h-4v2l-1 5-1 4-6 6h-1l1-1 1-1-2 1-3 2-3 1h-2l-1 1-1 1-4 1-3-1-4-1-3-1h-2l-3-3h-8l-4-4-1-4a49 49 0 0 1 0-5v-2l2-4 3-1 1-2 7-3v-5l-7-3v-2l2-3h5l-3-2-4 1-2 1 1 1h-1v1l1 3 1 1 4 2 1 2v2l-1 1-8 4-6 6-2 4 3 3v2l-1 2v1h-13l-17 1h-10l-13-1h-4l-8 17a2012 2012 0 0 1-17 34v1h-1v-1zm-113-65a22 22 0 0 0 4-2l3-1a18 18 0 0 0 4-2l2-2h-2l-2-1-2-1-1 1-2 1h-1l-1 1h-1l1 1 1 1-2 1-3-1-2 2-1 3zm3-8-2-2h-6l-1 1v1l2 1 2-1a9 9 0 0 1 1-2l1 2v2l3-2zm0-3v-1l-1 1h1zm-2-1v-1h-6l1 1h6zm173-9v-2h-2v2l2 1zm44 0v-3c0-2 0-2-1 1v2h-1v1h2zm-40 0v-1h-3l1 1h2zm-105-4-1-1h-1l1 2c1 1 2 1 1-1zm99 1h2l2 1-1-1v-1h-5v1l-1 1h1l2-1zm27-4v-4h-9v2h4l1 3h-3l1 1h6zm-24 1v-1h-1l-3-1h-2l1 1v2h5zm15-2a15 15 0 0 0-1-3l-2-1h-1v7h4zm28 2a9 9 0 0 0-2-2l-2-3 1-2 1-1h-1l-2 3v1l2 3 3 2v-1zm-282-5h4v-5h-11v1a11 11 0 0 0 0 3v2l2-1zm-6-3v-1h2v3h-2zm4 1h-1v-2h2v2zm3-1v-1l1 1-1 1v-1zm263 2v-1h-5l1 1h3zm-11-1-1-1-1-1-1 1-1 1h4zm-236-2v-1l-3-1-2 2 1 1h3zm266-1h-1l-1 1h-2 2l2-1zm-47-1v-2h-1l-1 1v2l-1 1h3zm-231-1 1-1-3-2-2 1-3-1-5 1v1l-1 1-1 1h14zm229-2h-4 1v1l2-1h1zm-3-2-1-1v1l1 1h1zm-107-2v-2h-7v2l1 1h6zm28-1h3l-1-5h-9v6l2-1zm-7-3v-1h2v2h-2zm3 0v-1h2v2h-2zm3 0v-1h2v2h-2zm-28 1h2l-2-4h-6l-1 2-1 1 1 1h2a35 35 0 0 1 5 0zm42-2 1-1-2-2-3 1v3h3zm-11-3h1l-2-2h-8v2l-1 1h5zm5-1-3-1h-1v1l4 1h2zm-37-2-1-1v2l1-1zm27-130 3-1 4-4v-1h-2a40 40 0 0 0-15 4l-2 1v1h-2l1 1h11zm84 251h-1v-7h3l3 2 3-1 1 1-2 1 3 1h-3l-1 1 2 1 1 1h-3v-4l-1 2-4 3zm3-2v-2l-1-1h-1v4l2-1zm16 2h-1v-5l2 1v1l1 2h1v1h-3zm-8-2a22 22 0 0 1-1-3h7v5h-2v-5l-1 2v3h-2zm-21 0v-4h5-1l-1 1h-2 1c1 1 2 1 1 2h-1 1c1 1 0 2-1 2h-2zm-12-2v-2l-3-1v-1h3a94 94 0 0 1 5 1h2v2l1-1h1v2l1 1v1h-2v-1l-1-1v1l-1 1h-1v-5l-3 1v4h-2zm-319 1-2-2-2-1 4-4 1 2h-1v2l2-1h1l-1 1v1h3v1h-3l-1 1h-2zm-51-7-1-2v-1l1-1 1-1h1l5 2v1h1v-1h-1 2v2l-2 2-2-2v-2l-1 1-2 1-1 1h-1zm3-3h-2 2zm381 2-1-1v-1l1-1h1l2-3-1 1a5 5 0 0 1-2 1h-2v3h-2v-5h4l1-3v-1l-4 1-4 1h-7l-3-1-1-2v-6l-3 3h-2v-2h3l2-3h2l2 2 1 3h-2a5 5 0 0 0-1-1v4l4 2h6l2-1h-2v-3l1-3h-1l3-1-1-1v-1l2-1v-1l1-1v-1l1 2 2 1 1 2v1l2-1v-3h2v1l1 1 1 1v-1h3l-2 2-1 1h3l4-1h1v1l-1 3v1h2v2h-4l-2 3h1l1 1v1h-4l-2-2-2-2h-1l-1 5-1 1-1 2v2h-1l-1-1zm3-8v-1 3-1zm8-1v-1h-3l-2-1 2 2 2 1h1v-1zm-13-2h1-1a4 4 0 0 0-1 0l-1 1 2-1zm3-1h-2v1h1l1-1zm13 0h-8 1l4 1h3zm-16-1h-2v1h1l1-1zm2-1c-1-2-3-2-3-1l3 2h2zm15 0 1-1h-2l-5 1h-2v1h1l6-1zm-12-1a9 9 0 0 1-2-3l-1-1-1 1 2 2 2 2v-1zm-368 9-1-1v-1l1-2h2l1 1 1 2-2 2-2-1zm-21-1-1-2v-2h4v1h-1l1 2h-2l2 1-1 1-3-1zm9-1v-2l-2 2-1 1-2-1v-1l1-2h3a15 15 0 0 0 4 1h2v1l-1 1h2l-1 1v1h-2v-2h-1v2h-2zm8 2-1-2v-2h2l1 1-2 1h1l1 2h-2zm-24-5-2-1v-2l-1-1v-1l1-3 2-2 1-1 2 1-2 1-1 1-1 3v3h3l1 1v1h-1v1zm602 0-1-1 1-2v-3l1-1a4 4 0 0 1 1 0h1v2h-2 2v2h-2v2h3l-2 1-2 1zm31 1v-5l-2-2-1-2 2 1h1v-1h3l-1 1-1 1v3l1 3-2 1zm-16-1 1-1 1-1-1-2-2-1 1-2 1-1h1v2l-1 1h1l2 1v2l-1 2h-3zm7 0h-1v-6l1-1h3v3l-1 1h-1l1 1 2 1-1 1h-1a3 3 0 0 1-2 0zm2-5v-1h-1v1h1zm-45 1v-5a4 4 0 0 1 2-1h1l1 4v2h-2v1l-1 1v1l-1 1zm2-3-1-1c-1 1 0 3 1 3h1zm13 4-2-3 1-1h1l1 1v1h1v-3h1l1 1a42 42 0 0 1-2 7l-2-3zm-9-1v-4h4v1h-3l1 1 2 1v1h-3v1h3l-3 2h-1zm21 2a13 13 0 0 0 0-3v-1h3v2h1v-1l1-1 1-1v6h-1l-2-1-2-2v3h-1zm-681-1v-1l1 1h-1zm86-1-1-1 1-1v-1h2l-1 1 1 1 1 1a1 1 0 0 1-1 1zm-9 0v-2l-1-1 1-1 1 1 1 1v-2l1 3 1 1h-2zm5-1v-2h1v3l-1-1zm-122-2h1l-1 1v-1zm119-4h3l-1-1 2-1 1-1-1-2-1-2h-1v-9l1-1 1-1 2-1v-2l1-2-1-1-1-1v-5h2l3-1 1 1 1 3 1 2-1 3v3l2 2 2 2 1-4v-5l1-1v-1l3-1 2 1v4l-1 1-1 2h1v-1h2l-1 1v1l-3 1v-5l1-3h-1l-2 1v13l-1 3 1 8h-1l-9 1h-8zm10-1a5 5 0 0 0 0-1 17 17 0 0 1 0-2v-1h-2v5h2zm6-4v-6h-2l-1 1v4l-1 3h4zm-5-3 1-7a4 4 0 0 0-1-2l-2-1h-3l-1 2-1 4 1 4v2l6-1zm4-6-2-1 1 1 2 1zm-5-6 1-2h-3v1l1 2h1zm1-4 1-1-1-1-1-2h-1l-1 1a13 13 0 0 0 0 3v1h3zm-4-4h-1l1 1zm40 21a86 86 0 0 0-10 0h-10v-12l1-8 1-6h1l1-1v2l1 3v3l1 3v3l2-1 1-1h13l4 4v2h-20v3h-3l1-1v-1l1-1v-1h-3v8h1l1 1v-3l1-1v1l1 2h15v-2a19 19 0 0 1 1-3v-1h1v6h1l2 1v1h-6zm3-11-1-1v-1h-13l-1 1-1 1v1h8l8-1zm-19-4v-5l-1-1-1 3-1 4v3h4zm494 7-3-2-3-1-3-3-2-1-2-1-6 2a57 57 0 0 1-17 4h-3l1-1v-1h4a1605 1605 0 0 0 7-1l7-3-5-2-2-1-4 2a33 33 0 0 1-6 2l-2 1v-1l2-1 6-3 4-2 3 1 2 1h3l5-2 4-1 5 1 3 2v1l3 1h9l4 3 4-1 4-1h3l7 1h3v1l-3 1h-2l-8-2-2 1-2 1 2 1 2 1-1 1-3-1a13 13 0 0 0-4-1h-1l-3-3-4-1-9 5h1a10 10 0 0 1 2 2l3 1h2v1h-1l-4-1zm0-6 1-1-2-1-2-1-2 2-2 1 2 1h2a30 30 0 0 0 3-1zm-5-3c2 0 3-1 1-1l-3-2-3-1-3 1-4 1-2 1-1 1h2l5-1 2 1 3 1a7 7 0 0 0 3-1zm-614 3v-3h2v6h-2zm340-2-1-3h2l1-1h2v1l1 2v2l-1 2h-3zm4 1v-1h-1l-2 1h3zm-1-3v-1l-1 1a2 2 0 0 0-1 1 2 2 0 0 0 2-1zm-134 3h-2v-4l2-1h1l-2 2h2v1h-1l2 2h-3zm3 0-1-1v-1l1-2v1l1 1h1l2 1-1 1h-2zm136-3-1-3h4v1l1 2 1 1h-3v1l-2-2zm327-1-2-2 2-1 1 2 2 1h3l2-1v-2l-1-3v-2h1l3-1v1l-2 1h-1v1l1 1 1-1h2l-1 2-1 1h3v2h-2l-5 2a13 13 0 0 1-4 2l-2-3zm-41 0-3-1h-5l-3 1h-2v-1l3-1 6-1h2l2 2a9 9 0 0 0 3 1l3-1 3-2 7 1 1 1 1 1-3-1a16 16 0 0 0-9 1h-1v1l1 1h-2l-4-2zm174 2-1-1v-1h4v-1l-4-1v-1l2-3h1l1 1h1l-2 1-1 1h-1l4 1v3l-1 1h-2zm-453-3-1-2 2-1 2 1 2 3h-2l-2-1 1 1v2h-2zm419 2-2-1v-1l2 1h2l-2-2-1-2 1-1 2-1-1 2h-1l3 2v2l-2 1zm17 0v-3l-1-2h1l2 1 2 1v-2h1l1 2v2h-2l-3-2v1l1 2-2 1v-1zm9 0-2-2v-1l1-2 1-2h3v2h-3v2l1 1 1 1 1-1-1-1h-1v-1h2l1 1v1l-2 3-2-1zm-36-1h1v-6h3l1 2v4h1v1h-2v-2l-2 1-1 1zm4-2a5 5 0 0 0 0-2l-2-1v2l2 1zm-596 2-1-1v-3h-3v2l1 2h-1l-1-1v-3h-1v-1h2a157 157 0 0 1 6-1h4l1 2 1 2 1 1-1 1h-1l-2-1h-1l-1 1h-2zm3-3v-2l-1 1h-1v3h2zm586 3v-5l1-1v3l1 3h-2zm-611-1v-4h1l1 1v1l1-2 1 1 1 1 1 1v1-1l1-2v-2h3v1a1 1 0 0 1-1 1v2h1v2h-1l-4-1h-5zm12-2v-3h2l1 2v2l-1 1-1 1h-1zm594 0-1-4v-1h1l1 1v1l1 2h1l1 1-1 1-2 1-1 1v-3zm25 1v-2h-1l-1-1v-1l5 1-1 1v4h-1zm6-1v-2h1v3l1 2h-2v-2zm-787 2v-6l3 1v5h-3zm130 0-2-3v-1l1-1h3l-1 1-2 1 1 1h2l1 1-3 1zm230-2v-2l1-1h2l1-1 1 1 2 3v1h-2v-3h-2v2h-1l1 2h-2zm-225 0v-2h4v3h-3v1l-1-2zm7 0v-2l1 1v1l-1 2zm3 1v-3l1-1 1 1h1l-2 2h3v2h-2l-2-1zm224 0-1-3-1-1 1-1h2l1 1h2v2l-1 1-2 1zm2-2v-1h-2v1h2zm-175 1c-1-1 2-5 2-5l2 1 2 2v-3h3v3l1 2-4-1h-4l-2 1zm11-1a7 7 0 0 1-1-2v-1h1l1 2h2l-1-1v-1h6l1 1v2l-1 1h-1v-1h-1l-1 1h-1v-1l1-2h-1l-1 3h-1l-2-1zm11-1-1-2h4l1 1v1l-1 2h-2zm3-1h-2l1 1 1-1zm153 1-1-2v-1h3v1h1l-1 1-1 1 2 1h1v1h-3zm-40 0 2-1 6-2 4-3 1-1 1-2h3l1 1 2 2 4 2 2 1v1l-4-2-5-2-2-2a35 35 0 0 1-7 5l-4 3-2 1h-2zm358-2-1-2 1 1 2 1 1-1-1-1v-2h2v2a108 108 0 0 1-1 3v1h-1zm8-2a18 18 0 0 1-1-4v-1h5l-2 1-2 1 1 1 2-1 1-1v1l-1 1-1 1v1h5l-1 1h-3l-2 1zm-429 0 4-2a32 32 0 0 0 12-6l2-1 2 1 2 2h7l1 1h-7l-6-2-2 1a35 35 0 0 1-10 5 73 73 0 0 1-4 2v-1zm440-1-1-3-1-2h2v2l1 2h3v1h-4zm-710-2v-3h2v4l-2 1zm251 1 1-1h4l8-3 3-2 5-2 3 1 4 2 2 1v1h-1l-5-2-4-2-4 3a17 17 0 0 1-4 2l-4 2-5 1h-2zm115-2v-3h2l2 1v2l-3-2v4h3l6-1h4v-6l-6 1h-13v4h-1v-1l-1-2h-5v1l1 2v1h4v1h-5l-1-3v-3l3-1 9-2 5-2 9 1 1 2 1 1v7h-1l-7 1h-7zm1-6v-1l-7 2h3l4-1zm11 0v-1l-1-1h-8v1a4 4 0 0 0-1 1v1l5-1a38 38 0 0 0 5 0zm-7 5v-1c1-1 2 0 2 1h-2zm-135 0v-1h2a31 31 0 0 0 10-4l4-2 3 1 4 1 3 2h3v1h-4l-7-3h-2l-6 3-4 2-6 1zm139-1h2v1h-2zm-281-1-1-1h3l2-1 9-5h-2a53 53 0 0 1-11-2 27 27 0 0 1-4-3l-2-1h-2l-1 1-2 1-4 3-16 6-5 2h-4v-2h3l3-1h2l4-2a41 41 0 0 0 13-6l-2-1-2-1-2 2-2 1-4 1-5 2h-1l1-1 2-1a69 69 0 0 1 3-1l2-1h-4a33 33 0 0 1-7-2l-2-2-2 2-7 3-4 2-2-1 2-2h1l8-4 1-1h5l2 2 9 2h2l2-1 1-1h2l2 1 3 1h1l2-1 3-2a35 35 0 0 1 8 4l2 2 3-1 4-2 6 2h1v-1l9 3 8-2 4 1v-1l1-1h1l4 1 2 1h4l3-1 1-1 2-1h3v1l4 1 2 1v1h-1l-3-1a7 7 0 0 1-2-1l-1-1-4 2-4 1h-1l1 1 3 1 3 1h4c1 0-2 2-7 3l-5 2h-1l1-1 3-2 4-1-2-1-8-2-4-3-3 3-3 3-4 2-5 2h-1v-2h1l4-1 4-2h-2l-11-3-3-1-3 3-13 6-2 1v-1zm36-7v-1l-1-1-2 1h-3l-2 1h3l3 1 2-1zm-21-2-6-1h-2l-1 1h3l4 1h2zm376 7-1-3v-2l-1-1v-1h1l1 1 1 1v3l5 1v1h-6zm30 0a2 2 0 0 1 0-1v-1l3 1v-2l-3-1 1-1 1-2h3l-1 2h-2l1 1h2v4h-5zm-515-2v-3h3v3l-1 2h-2zm493-1v-3h4l-2 2h3v1h-4v1h4l1 1h-4l-2 1zm9 2-1-3-1-1h2v1h3l1-1 1-1 1 1-2 2c-1 2-2 3-2 1v1l-2 1v-1zm7-2-1-2 1-1a5 5 0 0 1 2 0h2v1h-3v1h2v1h-2v2h3l1 1h-5zm-38 0-1-3 1-1 2-2h1l1 1 2 1v2h1l-2 2-3-1-2 3zm4-3-1-1-2 2h3zm-132 3v-4h1l2 1 1 1v-1l1-1h1v1l1 1h-6v1h11l1-1v-2l-3-2h-9l-5 2v3h-7l-1-1v-4h2l5-2 5-2h1v1l-1 1v1h6l7 1v-2l-1-2h-11l1-1h11l3 4-1 2-1 1v2l1 1-2 1h-7l-5 1zm-5-3v-1l-4-1-1 1h-1l1 1v1h5zm4-4v-1h-1l-5 2h5zm-78 6h2l-1-2v-3h-2l-1 1a4 4 0 0 0 0 2l1 1h-7v-5l3-2 4-1 2-1 1-2h11v1l-10 1-2 1-1 2v1l7-1 7-1-1-1v-1h1l2 3h-1l1 3v2l-2 1a268 268 0 0 1-14 2h-1zm4-2a4 4 0 0 0-1-1v1l-1 1h3zm3-1v-1l1 1 1 1h2l-1-2 2-1v3h3l-1-1v-3h-5l-6 1h-1l2 1 1 1v2h2zm-11 0 1-1 1-1h-5v1c0 1 1 2 2 1zm3-4v-1h-1a4 4 0 0 0-2 1l-1 1h4zm28 5-1-3 3-6h13l2 1 5 1 5 2h1l-1 4h-3a13 13 0 0 1-4 0v-2l1-1v3l2-1a11 11 0 0 0 3 0l-1-1v-1h-7l-3 1 1 2v2l-1 1-7 1h-7zm11 1h3v-5h-2l-6 1h-5v2l1 3h3zm-8-2v-1h2v2h-2zm4 0-1-1h2v2h-1v-1zm4 1a2 2 0 0 1-1-1v-1h2v1l-1 1zm2-5 1-1-1-2h-4l-5 1h-2v2h11zm6 0c0-1-1-2-3-2h-1l1 2h3zm42 5v-1h1v2h-1zm346-1a1991 1991 0 0 0-10-1l1-3 1-1h50v1h-50l-1 2h3l15 1h12l5-1h14l1 1h-1a301 301 0 0 1-40 1zm-52-1-1-1 2-3v1l1 3 1 1h-1a5 5 0 0 1-2-1zm3-1v-2l1 1 1 1v-2h7v3h-1l-3 1h-1l1-1v-3l-3 4h-1zm-14 0v-2l1-1h1v1l-1 1v1h3v1h-3zm5 0v-4h3v3l-1 1h1-3zm-639-2v-3h3v1l-1 4v1h-2zm628 2h-1v-3l2 1 1 1v1l1-1v-1h2l-1 2v1h-1a24 24 0 0 1-3-1zm-9-1v-1l-5 1 1-1v-3h2v2l4-1-1 1v1l1 1-1 1zm4 1h-1v-3l3-1 2 1-1 1-3 2zm2-2v-1h-1l-1 1h2zm-467-1-1-2v-1l3 1-1-1v-1h1l1 2 1 1v1h-3v1h1l-2-1zm-19 1v-4l1-3h-2v-2l1-2 2-1 7-1 4 2 5 2v1a9 9 0 0 1 0 3l-1 1h-3l-1-2v-2h-8l-4 2h6l1-1h1l1 1v2a7 7 0 0 1 0 3l-5 1h-4zm7-2h2v-1l-4-1h-1c-2 1-3 1-2 2h5zm10-5v-1h-3v3h2zm-8-2h1l-2-3-6 1-2 3h4zm4-1a4 4 0 0 0-1-1h-1v2h3zm37 9a51 51 0 0 1-4-2l-4-1-4 1-5 1-3 1v-2h1l6-1 6-2 4 3 9-3 4 1 2-1 1-1 5 2h-5l-2 1h3l1 1 1 1h-2l-6-2-2-1-7 2 2 1 3 1 1 1h-2zm282 0h5v1h-5zm25-3-1-3h-1a7 7 0 0 1-2-1l-2-1h6v-3l-1-4h3l1 1-2 4v4l1 6-2-3zm386 2v-1l1 1h-1zm-294-2h-3l-1-1h3v-8h-1l-2-1v-3l2-1h6v2l1 2 2 1h1l1-5h2l4 1h1v4l-1 1-1 1v6h4v1h-6l-7 1h-5zm2-4v-4l-1 1-1 3v3c1 1 1-1 1-3zm2 2v-2l1-1h1l1 2v2h5v-6h-3v5h-1v-1h-1 1v-5l-4-1-1 1v7h2l-1-1zm11-8v-1h-2l-2 1v-1l-1-1-1 3h6zm-12-2h-1l-3-1h-1v2h5zm96 12v-3l-1-4v-2l2-1 5 2v3l1 1h1v1l-1 2-7 1zm6-2v-1l-1-1h-3v2h4zm-2-4v-1h-1l-2-1v3h2l1-1zm37 7v-8h1l1 1v4h2l1 2 1 1-2-1h-2l-1 1zm-258-3v-3a1 1 0 0 1 1 0v1h5l-1 2h-3v2h-2zm398 0v-2h-1l-1-1h3l3 2h-3l1 3h-2v-2zm-706 0-1-1 1-1a3 3 0 0 1 3 0l1 1-1 3h-3zm2 0-1-1h-1l1 1 1 1v-1zm533 1a146 146 0 0 0 2-5l1-1h1l3 3 1 2 1 1v1h-1l-3-1-2-1-1 1-1 1h-1v-1zm5-4h-2l1 1 1-1zm19 4v-2l-1-2v-1h-1l-1 1v-2h8l-2 2-2 1 1 1v2l-1 1zm15 0h-1v-6h4l-2 1-1 1v1h3l1 1h-4v2l4-1v2h-1l-3-1zm126 0h1l-1-1-1-1 1-1 1-1h2l-2 2h1l1 1-1 1v1h-3l1-1zm-235 0-2-1v-1l1-2h1l1 2 1 1 1 1h-4zm4 0 1-1-1-1-1-1 1-1h2l-1 1v1l2 1h-1v1h-2zm5-1v-1l-1-1v-1h3v4h-2zm76 1-1-2v-2l-2-2-1 1h-1v-1h9v1l-3 1v1c1 1 0 3-1 3zm-710-1h-1v-2l2-3v2a12 12 0 0 1 0 2v1zm338-1-1-1 1-1 1-1v2l1 1 2-3h1l2 1v3h-2v-2h-1l-1 2h-2zm278 1h-3v-4h4v1h4l1 1-1 1-1 1h-1zm4-1-1-1v1h1zm-325 0h-1l3-2-2-3 3-2-2-1-2-1 7 2-2 1-1 1 1 2 1 1-3 3h-1l-1-1zm560 0h-2v-2h1l1 1h1l1-1-1-1-1-1h2v4zm20 0h2l-1 1-1-1zm-848 0-1-1 2-1v-3h-3v-1l-1-1 2-2 2-2v-1h12v2l2 2v1l-1 2v4l-2 1H80Zm12-2-1-3-1-1v3h-4v-2h-2l1 1v1h-3v1h5zm-4-2 1-1h-2v1h1zm-5-1h-2l2 1v-1zm10-2-1-2-1-1h-8l-1 1-1 2 7 1zm808 7 1-5h2v1h-1 1l1 2h-3l1 1 1 1h-3zm-577-2v-1h1v1l2-2h3v3h-2l1-1v-1l-1 1-1 1h-1l-2-1zm-168-2-1-3a8 8 0 0 1-1 0h-1l1-2 1-1 2-2 1-1h9l3 1 5 1 4 1h4v5h-8v-3h-4a69 69 0 0 0-13 1h-1v4h3l5-1h2v-4h2v5l-3 1h-6l-4 1zm25-3v-1h-5l4 2h1zm-14-2 1-1-1-1-1-1h-7l-1 1-1 1v1h10zm7-1-3-1h-3l1 1h5zm45 7c-2-1-2-3-1-3l2-1 1-1h2l1 2h-2v-1h-1v1l1 2h-3l1 1v1l-1-1zm11-1v-2l1 1 3-1v1l-2 2-2-1zm693 0h2l-1 1-1-1zm-762 0v-2h2l2-1h1l-1 1v2h-4zm293 0v-8h1l1 1 1-1h1l1 6-1 1-1-2-1-2-1 3v2a1 1 0 0 1-1 0zm-296-2v-1h1v3h-1zm234 0v-2h2v1h4v1h-4v1c-1 1-2 1-2-1zm129 1v-2l1-1 1 2h1l1-1-1-2h1l1 1 1 2-2 2h-4zm-195-3v-3h1l1 1v1h3v2l-4-1v2h-2v-2zm90 2 1-1-1-1-1-1 1-1 1-1v2l1 1 1 1-2 1h-1zm10-1-1-1 1-1 1-1v3h1v-3h1l1 3-1 2h-2zm-191 1-1-3v-2h1l3 3h-2v1l-1 1zm178-1h-3l1-1v-3h3v3l1 2h-2zm7-1v-2l2 1v-1h1l1 2v2h-4zm357 1h-15v-1h7v-2l1-1 5-3v-2l-6 1-2 1-2-1-1-1h1l1 1h1l-1-1v-2h5l2-1h1v-1l-3-3v-1l1-2h2l2-1 1 1 2 5v1l9 1 5-2-3-2-2-1h1l3 1 2 1 3-2 1 1-1 1-1 1h2l4 1 5 1h2l1-1 2-3 1-1h3l3 3-1 1-1 1 1 1 4 1h4l2 3-1 1-2 1-2-1-3-2h-2l-1 1-1 2 3 2 3 1h6l1 1h-15l-18 1h-15l-2 1zm5-1-4-4-3 2a15 15 0 0 0 6 2h1zm19-1v-1l-1-1h5l6-3v-5l-1 1v1l-5 1-5 1v-2l-1-1v-1l-3-1-2-1-5 3v1l-1 2h-2l-2-2h-4v2l4 4 5-1-2 4h4l10-1zm12-1 1-1-1-1a5 5 0 0 0-2 0l-2 1-3 2h6zm-41 0a1 1 0 0 0-1 0h-1v1h3zm13 0h-1l-1 1h2s1 0 0 0zm33 0h-2l-1-1 1 1h2zm-2-5v-3l-2 1-2 2 1 1 1 1 1-1zm9 0v-1l-1 1v1h2zm-47-1a6 6 0 0 1 0-2v-1h-2v3l2 1h1zm9-1v-1l-1 1h1zm16 0v-2l-3 1 2 1zm-19-1h-5 5zm31-1 1-1-1-1a7 7 0 0 0-2-1h-2v1l3 3 1-1zm-38-3-1-1-1 1v1l1 1 1-1zm40 0-3-1 3 2h1zm-41-2h1-2l-2-1v2h1zm-315 17h-1v-4h4l-1 1h-1 1l1 1-1 1-2 1zm4-1v-3h1l2 1 1 1v-2h2l-1 1v3l-1 1-1-2h-2v1h-2zm24 0a42 42 0 0 0-1-2l-1-2 2-1v1l1 2v1l3 1 1-1 1-2v-1h-1v-1c1-1 3 0 5 1l1 1v2l-2 1-5 1h-4zm9-2-1-1h-1v2h2zm420 3 1-1 1 1h-3zm-693-1-1-2v-2h1l2 1 2 1h-3v2l1 1h-1a2 2 0 0 1-1-1zm247-2v-3h4v1h-3 1l1 1h1v1h-2v2l-2 1zm6 1a7 7 0 0 1 0-3l1-1 1 1v4l-1 1zm5 1v-5h2l1 1-1 1v1h-2l1 1 2 1v1h-2l-1-1zm458 0v-1h6v-1l-3-3v-1l1-1 2-1 2-2c0-1-2-2-5-2l-1-1v-3l-3 1-1 2v2h-3v-1h1l1-2 1-2 4-1v-3l-1-1a19 19 0 0 1-6-7l-2-3 1-1v-2l1-2 1-2h2l1-1 3-1h1v-2h2v2l3-1 1-1h1l1 1v1l-2 1h-8l-3 3v3h-1l-1-1-1 1v3l2 3 4 4a16 16 0 0 0 4 2l2 1 4-2 3-3 1-2 1-1 1-3v-3h-2v-2l-5-2 1-1 2 1 3 1c1-1 1-1 2 1v7l-1 2-2 3-2 2-3 1v2l4 2v1l-1 1-1 3-1 3h6l2-1 2-2 3-3 2-1h-3v-1h2l4 1v1l-1 2v2h-2l1-2v-2l-2 1-2 1-1 2-1 2h-2l-5 1h-2v2l2 3v1h7l-7 1a231 231 0 0 0-14 1zm12-3-1-3-1-3-2 1-4 3 1 1h1l1 1 1 1h1l3-1zm-2-12v-4h-5l-2-1v3l2 1-1 1v1l1 1h1l2 2h2zm3-1-1-1h-1v1h2zM53 360v-2h3l-1 2-1 2-1 1zm149 1v-1l-4 1-1-3 1-1 1-1h2l2 1 2 4-1 1-2 1h-1zm0-2-2-1h-1l2 1h1zm368 3v-1l6-1v-1l-1-4v-2l-4-1 1-1 5 1v9l-1 1a126 126 0 0 0-4 0l-2 1zm333 0v-1h5v2h-5zm8 0 2-1v2h-2zm-673-1v-3l3 1-1-2v-1l3 3v-1l1-1-1-1-2-1 2-1 1-1h3v4l-3 3-3-1h-2v1h1v1c0 2-1 1-1 0zm8-5-1-1-1 1h2zm148 5h-1v-4h1l2 1h3v2l-1 1h-1zm-166-2-1-2h1l1-1h1v-2l3 4-5-1 1 1 1 2h-1zm294 1-1-1h1l1-1-1-1-2-1h2a4 4 0 0 0 2-1l1-1v1l1 1h-1l-1 2v1h3v1h-2a26 26 0 0 1-3 0zm-173-2-2-1 1-1 3-1 3-1v1l-3 3h1l1 1c0 1-2 1-4-1zm211 0-1-1-1 1-2 1v-6h4v3l2 4h-1zm-2-3 1-1h-1a2 2 0 0 0-1 1v1h1a2 2 0 0 0 0-1zm6 2 1-4h3v1h-3v1h3v1h-3l1 1h4a5 5 0 0 0-1-1v-2h1l1 1 2-1h1l-1 1-1 1 1 2h-3l-5 1h-1v-2zm-236 1-1-1v-3l2-1 2 1v4h-1a5 5 0 0 1-2 0zm2-3h-2l1 1h1zm-169 1v-1a4 4 0 0 1 2-1h1v2l-3 1zm73 0 1-1 1-1h-3v-1l1-2 1-1 1 1v1l-1 1h2v3h-3zm245 0v-2h2v1l-2 1zm-278-1-1-1h5v-2h-2l-1-1 1-1 2 1h1v3h-1l-2 2-2-1zm193-1v-2l-1-2 2 1h5v2h-2l-3 1-2 2h-1zm151-1-3-1v-2l1-6 1-1 2-1h4l-1 1a5 5 0 0 1-3 0l-2 1v8l3 1 3 1c0 1-2 1-5-1zm-239 1v-6l2 1 2 1h2v1h-5v3h-1zm357 0v-2l1-3 1-3v-1l-1-2v-1h1l1 1 1 2v1l-1 3-2 4zm-313-2h-3v-3h1l1 1h1v-2h3v1l1 2v2h-1a81 81 0 0 1-3-1zm170 0v-1h1a27 27 0 0 1 1 0h2v-3h2v4l-5 1zm28-2-1-3v-2h1v2l1 1v-1l1-1 2 4v1h-1a11 11 0 0 0-2 1h-1zm2 0h-1l1 1v-1zm-495 0v-2h2v2l-1 1-1 1zm498 0v-2l1-1 1 1v3h-1zm5 0v-1l1-2h1l1 1h1-3v1l3 1h1l-1 1h-1l-2 1zm-230 0h-2v-4h4v-1l1-1 1 1-1 2-2 1 1 1 1 1h1a1 1 0 0 1-1 1zm-244 0v-1h1l3-1v-1l-4-1v-1h8v1l-1 1-2 1h1l2 1 1 1h-9zm121-1-2-1 1-1h1v-2l4 2v1h-3l1 1 1 1h-1a9 9 0 0 1-2-1zm510 0-4-2-3-1a13 13 0 0 1-3-2l-3-2h-1l-4 3-6 2a71 71 0 0 1-12 2h-2l1-1h1l6-1 7-1 2-1v-1l-4-1-3-1-2 1-3 1h-3v-1l6-1 3-1 8 3 2-2 4-1h1l5 3h2a18 18 0 0 0 3-2l2-1h2a13 13 0 0 1 4 1l4 2h2v1h-2l-5-2-4-1-6 3v1l4 2 3 1h4v1h-2l-4-1zm-320-2-1-1 1-1 1-1-2-1h6l-2 2-1 1h1l2 1v1h-2zm126-1h-1 1v-1h5v1h-5zm96 0-1-1 4-1 5-1 2-1-6-2-3-4-5-3-1-1h-1l-4 3-2 2-6 2-6 3c-3 0-1-1 5-4l7-4 4-3 3-1 2 1a33 33 0 0 1 7 5l1 1 2-1 2-1v-1h4l1 1 3 1 2 1 1-1 2-1h1c2 0 5 1 6 3l1 1 2-1 3-1 2-1 3 2a16 16 0 0 1 3 3v1l-2-1a182 182 0 0 1-3-2l-1-1-3 1-2 1 1 2 1 2 3 1c2 1 3 2 1 2s-4-2-7-5l-3-3-2-1-3-1-2 1-3 2-3 1-11 5a144 144 0 0 1-3 1 22 22 0 0 1-1-1zm15-6 1-1c0-1-3-3-5-3l-5 3 6 2 3-1zm-325 6 1-2h1l-1-1h-1v-1h4l1 1h-2l1 1 1 1-2 1h-2zm-99-1v-3h2l-1 1v1h3l-1-1h1l1 2v1h-4zm140-1h1l1-1-2-2h1a5 5 0 0 1 2-1h2l1 2h-1l-2 1h3v1l-1 1h-5zm-258-2a13 13 0 0 0-3-1h-2v-2h2l4-1 3-1v2h-3v2h1l2 1v1h-1a7 7 0 0 1-3-1zm-1-2h-1 1s1 0 0 0zm240 2-3-1 3-2h1l1-1 1-1h1v1l-2 2-1 1-2-1v1l2 1h1v1l-2-1zm192 0h-1v-2h1l2-1-2-1h-1 1l1-1 1 1 2 1-1 1-1 1h2l1 1v1h-2Zm-308-1v-1h1l2 2h-2zm4-1-1-1 1-1 1-1 2 1v1l-2 3-1-2zm2-1-1-2-1 1 1 1 1 1zm-162 1v-2l1-2 1 1-1 4-1-1zm607 0h1v1l-1-1zm-454 0 2-2 2-1v1l-1 1-2 1h-1zm97 0-1-1v-1l1-1h1l1 1 1 1v-3h2v4h-5zm87 0h-2v-2l2 1h7v1h-3zm551-1h-1l2-2 2 1h2v1l1 1h-6zm-724-1-1-2h3v3h-1l-1-1zm129-1-2-1v-1l6 1v1h-1a26 26 0 0 1-3 0zm45 0v-2h1v-1l-1-1h6v2h-2l-2 1 3-1v2h-5zm133-1a15 15 0 0 1 0-1l1-4 1-1h3v1l1 1v2l-1 1-1 1v-1l-2-1h-1v3a1 1 0 0 1-1-1zm4-4 1-1-3 1v1h-1 3zm-203 3-2-1h6l-1 1v1zm192-1-1-1 1-1 2-1v-1l3 3v1l-1 2h-3zm3 0v-1a5 5 0 0 1-2 0h-1v1h3zm-77 0h-1l1-2 1-2v-2l-1-2-3-3 1-2v-5a7 7 0 0 1-3-3l-1-2-3-1-8 2-2 1-1 1h-3l-4-1h-2l-4 2-2-1-4-1-4 1-3 2-3-2h-1l-2 2-1 1-5-1-2-2-2-2v-3l-1-1-1-5-1-1-2-1h-4l1-1h5l3 4v4h1v4l2 1 4 2h1l3-2v-6l-1 2-2 3h-2l-1-1-1-2 2-2 2-1v-1l2-3 2-2-5-4-5-3-1-1h1l1-1-1-1h-3l-2 1 3-2c3-2 4-2 3 0h-1 3v2l4 3 3 3 1-1 2-1 2 1 1 1 3-5a18 18 0 0 1 3-4l2 2 2 2h-1l-4 4-3 3 2 1 4 2 2 2a15 15 0 0 1-2 4l-3-2a13 13 0 0 0-4-3v1l4 7 2 1 3 1 1 1 2-2 1-1h1l4 1 2 1 1-1 3-1v-1h3l6-1h3l2 1 2 2 5-3 4-3h4l8-1h3l4-3h5l1-4v-3l2-1 1 1a11 11 0 0 1 3 1l2 1h10-1l-4 1-4 1-4-2v-1h-4l-1 7h-6l-1 2-5 1h-1l-7 2-4-1-1 1-8 5v2h2v5l-2 2 1 1 2 1v1l1 2 1 2v1l-2 3-1 2zm-44-21h1-5 4zm-3-2-1 1h-1 1l1-1zm5 1 1-1h-6l3 1h2zm-11-4 2-3 1-1h-1l-1 1-2 3c-2 1-2 2-1 2l2-2zm10 2 1-1h-1l-1-4-1-4v-1l1 1h2l-1-1h-5v1l-1 5v4h3a16 16 0 0 0 3 0zm7-5v-1l-4-2 1 2 3 1zm-9-7a2 2 0 0 0-1-1h-2l-1 1v1h4zm-11-5-2-1c-1 0-1 1 1 2l2 1zm18-1 1-1-1-1-2 4 1-1zm542 41h-1v-1l3-1h1v2l-2 1zm-7 0-1-1v-1h2l2 1-3 1zm-857-1h-2v-2l1-2h5l3-2h2l-1 1v1l-4 1v2l3 1h-7zm3-1-1-1-1-1-1 2h2zm259 0v-1l3-2-3-1h6v2l-1 1h-4v1h4l1 1-6 1v-2zm-290-1v-2l2-2v1h1l-2 4h-1zm113 1-1-1v-4h-5l3-2h3l3 1-1 1-1 1v3h1c1 0 2 2 0 1h-2zm157 0-1-1v-2h1l1-1h-2v-1h5v2l-3 1v1h3l1 1h-2a7 7 0 0 1-3 0zm68 0-2-1 1-1 1 1 2 1v-1h1l-1-1h-1l1-1v-1l2 1 1 1-1 2h-5zm552-1v-1h1a15 15 0 0 0 3 0h2l-1 1-2 1h-2zm-770 0-1-3v-3h1l1 1 1 1 1-1h1v2l1 2v1h-2v-2h-2v1c0 1 0 2-1 1zm13 0a29 29 0 0 0-2 0l-2-1v-6h4v2h-2v1h1l2 1h1-4v2h4-1l-1 1zm7-2a478 478 0 0 0 0-4v-1h5v4l2 1 1 2h-2l-1-1-2-2h-1v3l-1 1zm3-3v-1l-1 1h1zm739 5v-3l1 1v1h5v1h-1a12 12 0 0 0-3 0h-1zm-731-1 1-2 1 1 1 1h-2v1zm96 0a3 3 0 0 1-1-2v-1h2l4-1h1v2l-1 2h-2l-2 1zm4-2h1-2v1l1-1zm-156 2-1-2v-1h-3v2h-1l-1-6h1l3-1h2v4l1 2 1 2h-2zm-1-6h-1c-2 0-2 1-2 2l3-1zm6 5c-1-1 0-3 1-4l1-1h2l1 2v2l-1 2h-4zm3-2-1-1a3 3 0 0 0 0 2v1l1-2zm-27 1v-2h-1l-1 1h-2a15 15 0 0 1 0-6l1-1h3l1 3-1 1 1 1 1 3 1 1h-3zm-1-5v-1h-1l-1 1v1h2zm7 6v-2h1v1l-1 1zm360-1-1-2v-2h1l2 2h1v-1l-1-1h1v-1l1 1h3v2a2 2 0 0 0 2-1v-1h-1c-1 0-1-1 1-1l1 2-1 2h-2a9 9 0 0 1-4 0h-1v2h-2zm5-2v-1l-1 1h2zm23 2v-4l1-1 2 1c1 1 2 3 1 4l-1 1h-2zm2-2-1-1v2h1zm387 1 1-1 1 1h-2zm-831-1-1-2 1-1v-2a11 11 0 0 1 0-2h2l1 1h4v2h-5v2l-1 1h1l1 1h-3zm345-1-3-2v2l-1 1-1-3a9 9 0 0 0-1-3v-1l1-1 3-1 2 1 1 1-1 3 1 3h2l1-1v2h-4zm-1-4-2-2-1 2v1h3zm80 3v-2l1-1h2l2 1 1 1v1h-3v-1l-1-1v3h-1zm-205 0v-2h2l2-1 2-1 2 2-1 1v1h-7zm6-2a4 4 0 0 0-2 0v1h1l1-1zm38 2-2-1 2-2 1-2v-1h2l1 2 1 2v2h-4zm2-2h-2 1l1 1zm57-1a57 57 0 0 1 0-3l4 1h2v4l-2 1h-3zm4 0v-1h-2v2h2zm5 3v-5l1-1v1h3l2-1-1 3-1 3h-3zm-89-1v-2l2 1v1l3-2-3 1v-4l2 1 2 1h1l-3 4h-3zm-268 0v-4l1-1h2l-1 3-1 2zm338 0 2-3 1-3h2l1 3 1 3h-2l-1-1h-2l-1 1h-1zm271-4v-4l2 1-1 1v2h2v-4h1v3l1 4h1v-6l3-1v1l-1 1-1 1h2v1h-2v2h2l-1 1-2 1-2-1h-1v-1c0-1-1-1-1 1v1h-2zm19 4-1-1v-4h-3v-1h8v2h2l-1-2h2v1l1 3v1l-2 1v-3h-2l1 1v2h-2v-5h-3v5zm226 0v-1h2v1h-2zm-531-1-1-2v-1h-2l-1 1v1l-1-1 1-2v-3l2-1 3 2-1 1v1l1 1 1 2h2v2h-1l-3-1zm-1-5-1-1-1 1h2zm135 5c-2-2-2-3-1-3l2 1 2 1-1 1-1 1-2-1zm11 0v-1l1-1v-2l1-1-2-1-1-1 1-1 2 1 2 2v2h1v1l-2 2-2 1zm151 0v-2a5 5 0 0 1 0-3l1-1h2v2l1 2v2l1 1h-5zm19 0a117 117 0 0 1 0-2v-3l1-2 2 1h1v2l-2-1-1 1h3v1l-3 1 1 1v2h-2zm10 0h-2v-2a7 7 0 0 1 0-3v-1l1 1v4h3v-1l-1-2v-2h2l2 1-2 1h-1l3 1v1h-3v1h3c0 1-2 2-3 1zm216-1v-1h2v1l-1 1h-1zm-535 0 1-1 1 1-1 1-1-1zm328 0a11 11 0 0 1 0-3v-1h1v3h1l1 1v1h-3zm4-2v-3h6l1 1 1 2-3 3h-4zm5 0 1-1h-1l-2-1h-1v1l1 2h1l1-1zm-428 1h1v1h-1zm225-1v-1h-3l3-2 2 1v3h-1l-1-1zm388 0v-1l2 2-2-1zm-610-1-1-1h3v2h-1l-1-1zm5 0v-1h6v2h-6zm441 0v-6l3-1v3l1 1h1l-1 2v2h-3zm3-2h-2l1 1h1zm-1-2-1-1v1h1zm-713 3-7-2-7-1h-1v-2h5l5 1 1-2v-4h-2l-4-1-1-1 1-1v-1l3 1 10 1h2l1 1v1l-2 1-2-1h-2l-2 2v2l1 1-1 1 2 1 4 1h1v2h-2a11 11 0 0 1-3 0zm717 0v-5l3-1 1 3 2 3-2-1h-3v1zm2-4v2-2zm6 3v-4h1v5a1 1 0 0 1-1-1zm4-1v-2l1-1 1-1v2l-1 2 2-1 2-1h1v2l-2 1-2 1h-1zm8 1v-5l1-1v1l1 3v2l-1 1zm-444-2 1-2 5 2h-5v1l-1 1zm20 0v-2l1 1h5l-1 1-3 1h-1v1h-2v-2zm558 1v-1h2v2l-2-1zm-815 0h-3l-1-1 3-3 1 1v1h-1l2 1h2v1h-3zm153 0v-4l2-1h1v-1h2l3-1-1-2-1-2 1-1 1-1v2l1 1 2 3 1 2v1h-1l-1-2-1 1h-3l-1 1v2h-2v-1h-1l-1 1 2 2 1-1h4l-4 1-3 1-1-1zm531 0-1-2 1-1v-1h1v4l-1 1zm6 0v-3h-1l-1-1v-1h6l-2 1-1 1 1 2v2h-1a2 2 0 0 1-1-1zm5 0a5 5 0 0 1 0-2v-2h1v3h4l-2 1-2 1-1-1zm-702-1h2l-1 1-1-1zm221 1v-4l1-1h4l1 3-1 1-3 1h-2zm3-2v-1h-2v1h2zm227 0v-3l1-1 2 1v1l1 1h-2v3l-2-2zm159 0-1-1h-1l1-1-1-4v-2h-1l-2-1-1-1v3l1 3-2 1-5-1v-6h3l6-3 12-1 5 1v1l1 1v11h-2l-4 1-6 1h-3zm12-1 1-1-11 1-1 1h10zm-1-2h2v-2l-1-3v-1h-12l-1 1v2l1 2 1 3 4-1 6-1zm-10-1a11 11 0 0 1 0-3h1v1l1 2a1 1 0 0 1-1 1h-1Zm3 0-1-2v-1h1c1 0 2 2 1 3h-1zm4-2v-1h1v3h-1zm-15 0v-2h-3v2l-1 2 4-1zm5-5 1-1-4 2h3zm14 0-5-1-5-1-1 1-2 2h6l7-1zm86 11v-1h-1l-1-1 1-1 1-1 2 1v4h-2zm12 0-1-1 1-1 1-2h2v1h-1l-1 1v2h1v-2h1l1 1v2h-3l-1-1zm-8 0v-1h2v2h-2zm3 0v-1l-2-1v-1h4v3l1 1h-3zm-272 0v-3l2-1h-3v-2h5v1l-1 2v1h1l1 1v1h-5zm-465-2v-2l1-2-1-1v-1l2-1 2-1v1l-1 3-1 4-1 2h-2zm478 0v-2h2v4h-1zm4 0-1-2v-2h3v1l-1 2h2l-1 1h-2zm186 0 4-3a15 15 0 0 0 4-3l3-3 2-3 1 1 2 1v-16l1-2 1-1v1l2 6 2 5v5l2 2 2-1h3l4 3 3 3h-1l-4-2-4-3-4 2-3 2 3 1 3 2 1 1v1h-1l-4-3a13 13 0 0 0-4-1l-5-5-1 1-3 5-2 1a15 15 0 0 0-4 2l-3 1zm21-8 2-2h-2l-2-1-2 1-1 2h1l1 1 3-1zm-2-5 1-1v-4h-1l-2 1v1l1 4 2-1zm0-8v-4l-1 1v5h1zm-331 17-2-5-1-2h-2v-3h1v2h1v-3h-3v-1h4l1 1v-3h5v2l-1-1h-1l3 7 3 6h-1l-1-1a531 531 0 0 1-1-3 111 111 0 0 0-2-4l-1-3h-2a38 38 0 0 0 4 9v3a40 40 0 0 1-4-9l-1-2h-1l-1 1 1 1 2 5 2 4 1 2h-1a9 9 0 0 1-2-3zm-329 2h-1l1-2v-2l-2-1h-1v-1l1-1 3 1 1 1h4l-4 3-1 1h3l1 1h-5zm219 0h-2l-1-2v-2h3v-1l3 1v1l-1 4-2-1zm1-2h-1l-1-1h-1l1 1h2zm39 2-1-1 1-2v-1h3l4 4h-3l-2 1-2-1zm3-2-2-1c-1 1 0 2 1 2l1-1zm523 2h-1l1-1v-2l-1 1h-3v1l-1 1v-1h-1l3-5h2l-1 1v1h1l2 1h1l-1 2c0 2-1 2-2 1zm-326-2v-2l1-1 1 1 1 1 1 1 1 1h-4zm-218 0-1-1v-2l2-1h2l2 2v1l-1 1-1 1h-2zm2-1v-1l-1 1h1zm564 1h3v1h-1l-2-1zm-342-2-1-2v-1h2l2 1-1 2-1 1-1-1zm4 0-1-1v-1l1-1 2 1h1v-2h1l1 3-1 1-2-1v2h-1l-1-1zm308 0v-1l-2 1h-1l1-2v-3h3v2l1 2-1 1-1 1zm-302-2v-2h-1l2-1 2-1h1v1l-4 5zm277 1v-5l1-1h3l1 2 1 3-4 2zm4-2-1-1h-1l1-1 1-1h-2l-1 1 1 1v2h1l1-1zm4 2v-4l1-1h1l1 2 1 1-1 1-2 1-1 1zm2-2h-2l1 1 1-1zm3 0-1-2h1l1-1 1 1 2 1 1 1-1 1v2h-4zm3 0a1 1 0 0 0-1-1h-1v2h1a1 1 0 0 0 1-1zm3 2-1-2v-2h2v4h-1zm-432-1-1-2-1-1h-1l-1-1v-2 1l2 1 1 1-1-2a46 46 0 0 1-3-4l-2-2 2-2 2 2-1 1 2 4 1 1h1l2 1 1 1-2 1h-1l3 2-1 1-2-1zm11 0a15 15 0 0 0-1-2l-1-1 1-1 1 1 4 1v-1l1-1h1l-1 2-1 2h-1l-2 1h-1zm-6 0-1-2h-1l1-1h4v1l1 1-1 1h-3zm2-1-1-1h-1v1h2zm11 0 1-3v-1h1l1 1-1 1h-1l2 1-1 1-2 1zm15 1-3-1h-2v-2l-1 3h-4v-4h4v1-1h3v2h5v-1l-1-1h-3v-1h2a15 15 0 0 1 4 0h2v2l1 1-2 1-1 1h-1a8 8 0 0 1-3 0zm5-2-1-1-1-1v3zm-13-1-1 1h1a1 1 0 0 0 0-1zm118 3-1-2v-1h-1c-1-1 0-1 2-1h2v2l-2 2zm-477-1h-1 2l-1 1zm317 0-1-3v-2h-2l1-1h2v7zm-106 0v-3h3v2h1v-3h2v4h-6zm44 0-1-1 1-1 1-1h-1l-1-1 2-1 2-1 2 1-2 2-2 2h3l-4 1zm-16-1a4 4 0 0 1-2-1h-1l3-3-2-1-1-1h2a9 9 0 0 1 2 0l1 1-1 2-1 1v1h2v2zm-247 0a16 16 0 0 0 5-5h-2v-4h3l-1 2h-1l1 1h4v-1h-1v-4l2 1 1 1v5h-1v2h-4l-2 1-4 1h-1zm-49-2h-2v-2h5l2 1h1v2h-2l-4-1zm29 0v-1l1-1h1l1 1-1 1-1 1h-1zm493-1h3v1h-3zm-122-1v-6l-2-3h1l3 1-2-2h1l1-1h2l2 1v1l-1 1 9-1 1 2v7a600 600 0 0 1-13 0l-2 1zm14-3v-2h-8v1h6v1h-6v1h8zm-10 0h1v-6l-3 1v1l-1 1v3h1a7 7 0 0 1 2 0zm10-4h-1l-1-1-5 1v1h3l4-1zm-422 6a3 3 0 0 1 0-2h3v3h-2zm365 0a39 39 0 0 1 0-2v-1l1 1v2l1 1h-2zm3-1v-3h1v4h-2zm92-1-1-1-4 1 1-5h4v3l1 1 1 1v-5l3-1v1l-1 1-2 1h4v3h-6zm4-1 1-1h-1v2zm-6-3v-1 1a2 2 0 0 0-1 0l-1 1h2zm11 4-1-3v-3l2-1 2 1-1 1-2 1h3v1l-1 1-1 1h2l-2 1a2 2 0 0 1-1 0zm-459-2-2-1v-1l1-1 2-1v4h1l2-1 1-1v-4l1-1 2 2v5l-2 1-3 1h-1zm391 1-1-2-1-1v-2h2l1 3 1 3h-2zm51 0-1-2v-1h2l1 3-1 1zm-108 0a31 31 0 0 1 8-5h1l-2-1-3 1-6 3-3 1h-1l-1-1 4-1 11-5h-1v-1l2-1 3-1 1 1-3 2h-1v2l2-1v-1h1l1 1v2h-2l-4 2a13 13 0 0 1-4 2l-1 1-1 1-1-1zm-133-1h1v1h-2zm186-1-2-1 1-1 2 1 1 3zm-35 0 1-2 2 2-1 1a4 4 0 0 1-2 0zm154 0h-3v-5h2l-1 2h1l1-1v-1l1 1v2l2 2a11 11 0 0 1-3 0zm16 0h-1v-4l1-1h3v1h-3v1h3v2h-2 3v2h-2l-2-1zm7 0h-2v-4h1v3h2a7 7 0 0 1 2 0v1l-1 1a35 35 0 0 0-2-1zm4-1v-3h-2v-1h4l2 2v1l-1 2-2 1h-1zm3-1-1-1v2h1zm-53 1-1-1v-3l4-1h2l-1 1-2 1h-1v1l3 2-2 1h-1zm14 1-1-1v-3l3-2 1 1v1h-2v2h3v1l-2 1h-1zm14 0v-6h3v1h-1l-1 1 1 1h1l-3 3zm-118-2-2-1-1-1-1-1h1l2 1 3 2v1l-2-1zm97 0v-3l2 2 1 2 1-4h2l-1 1v4h-5zm27-1v-2l1-1v1l1 2v2h-2zm-486 2v-2l1-2v-1l2-1h1v2l-2 2c-1 2-1 3-2 2zm407-1-1-1h8v1h-5l-2 1zm404-1 1-1 1 1h-2zm-535-1a5 5 0 0 1-2 0v-1h7l2 1h-7zm20 0h-1l5-2 8-3h4l-3 2-12 3-1 1zm25 0h-1l2-1v-6l2-2 1 1v2l1 2 1 2 1 2c-1 1-2 1-2-1l-1-1-1 1c-2 2-3 2-3 1zm29 0h-1v-1h3l-1-1-2-2 1-2 1-1h1l1 1v1h-3l4 3-1 1a4 4 0 0 1-1 1l-1 1-1-1zm459 0-1-1h1l1 1h1-2zm-479-3v-5h3l1 2h-3l-1 1 3 1v2h3l-1 2h-5v-3zm8 2-1-2 2-4 2 1v1h-3l1 2v1l1 1v-3h2l2-1v2h-2v1l-1 2h-2zm7 0a16 16 0 0 1 0-3v-3h2v6h-1a1 1 0 0 1-1 0zm18-1-3-2h1l3 1 2 1-1 1a108 108 0 0 1-2-1zm32 0-2-1 1-2 1-2h3v1l-2 1v2h1l2 1v1h-3zm9 0-2-2v1a1 1 0 0 1-1 1h-1v-5l3-1 1 1v1l3 4h-1v1a9 9 0 0 1-2-2zm-1-3h-2 2zm13 4-1-1v-3l-1-2 3-2 2 1v2h6v1h-5v1l-3 3zm3-2v-1h-3v1h3zm-2-3v-1l-1 1h1zm-5 4v-1l-5 1 1-1 1-3v-1h2v1l2 2v2h-2zm441 0-1-1v-5l3-1 1 2h-3v2l1 1 1 1h3-1l-1 1h-3zm8 0-1-2h-1l2-3h3-1l-1 2v1h4v1l-2 1h-3zm-679-1a5 5 0 0 0-2-2h-1l-2-2h1v-1l4-1h4l-1 1-1 1v2h-1l-1-1v-1h-3l1 1 4 2c2 1 2 2 1 2a5 5 0 0 1-3-1zm661 0h-1v-5l1-1h3l1 1 1 1v2l-1 2-2 1zm3-3v-1h-2l-1 1 1 1 1 1h1zm30 3v-4h-1v1-1l1-2h2l2 2v3l-4 2h-1zm2-2v-1l-1 1v1h1v-1zm-79 2 1-1v1h-1zm70-1 1-2h1v3h-1zm-576 0h-1l1-1h2l6-1 4-1 1-1h1v1h-1 2l1 1h-1a373 373 0 0 1-15 2zm193 0 1-1 1 1-1 1-1-1zm399 0h-3l-1-1h1l1-1 4 1 3-1v-4h-3l2-2h4l-1 1v4l-1 2-2 1-2 1a65 65 0 0 0-2-1zm-607-1h-1l1-1 1-2h-2v-1h6v2h-1l-1 1h2v1l-1 1-4-1zm169 0v-1l1-2v-2a110 110 0 0 1 3-16v-1l1 1 1 4 1 3v2l1 2 2-1 11-1 1 1c2 2 2 3 1 4v4l4 1v1h-24l-1 1h-2zm6-5v-3h-2l-1 2v4h3zm7 2v-1l1-1 1-1v4h2v-3h2v3h3l-1-4-3-1h-11v5h7zm-3-1v-2 1l1 1-1 1zm11-5v-1h-12v2h12zm-15-3-1-4h-1v2l-1 4v1h3zm-91 12-1-1 8-1h10l4 1-11 1h-10zm519-2a5 5 0 0 1 0-2v-2h5v2l-1 2h-4zm-876-2v-3h3l-1 3-1 2h-2Zm305 1v-1h3l-1 1-1 1h-1zm481 0v-1l3 1v1h-3zm-429-1v-1l2-1a22 22 0 0 0 4-2l2-2 2 1-4 2-4 3h-1 2l6-3 5-2v1l-3 2-4 1 2 1-1 1h-8zm-68 0 1-1h11l1-1-2 1-1-2h4v2h2-1l-8 1-7 1zm94-3a82 82 0 0 0 0-3v-1h-4v4h-1l-1 1h-4v-2l-1-3h-1l1-1h2l4-2 6-3 7-1h3l2 2 3 1 2 1v2l-3 1 1 2v3l-8 1h-8zm11 0h3v-4h-12v4h9zm-8-1v-1l4-1h3l1 1v2l-3-1c0 1-1 1-2-1v-1l-1 1-1 2v-1zm-9 0v-3h-3v4h1zm6-5 1-1c-1-1-6 1-6 1l2 1h3zm14 0-1-2-2-2h-6l-1 2-2 2h6zm382 8a1 1 0 0 1-1-1v-1h1l1 2h-1zm-482-1 1-1v1h-1zm-25-1c0-1 0-2 2-2v-1l-1-1 2-1a7 7 0 0 1 3 0v3h-1l-1 1h-1 3v2h-5zm43-2v-3l4-1v2h-1a4 4 0 0 0-2 0v1h3v1h-3v1h4l-2 2h-3v-3zm20 2-2-1-1 1-1-3v-3l3 1 2 4 2 1 3-6h1l3 6v1h-2l-1-2-2 2h-4zm7-2v-1h-1v1zm-8-1-1-1-1 1 1 1zm21 4 2-2 3-1 2-2a22 22 0 0 0 2-2h2l4-1h1v1l-3 1-3 1-2 1a20 20 0 0 1-6 4h-2zm-46-3-1-1-1-1a7 7 0 0 0-2-1h-1v-1h6l2-1 1 1-2 1-1 2v3h-1zm14 2-1-2v-2l1-1 2-1h1l1 3 2 3h-2v-1h-2l-1 1h-1zm3-3-1-1h-1v1h2zm27 2v-1l2-1 3-1h1l-3 2-2 2-1-1zm-62-1 1-1a5 5 0 0 1 3-1h1v-2l2-1 3-1h2v2l-2-1-5 2v2h2l6 2h-12zm7 0-1-1h-2l-1 1h-1 3zm475-1-1-1h3v1l-1 1-1-1zm-597-1h-2v-3l1-1h9v-1l1-1h1v3h-5l-2-1 1 3h1l1 1v1h-2l-4-1zm2-2v-1h-3v1l2 1h1zm175 2 1-1 5-4 5-4 1 1v-2h1l3-2a13 13 0 0 1 3-2h2l-2 2-3 2-3 2h-2l-1 1-1 2h3l2-1v2h-1a5 5 0 0 0-3 1 5 5 0 0 1-2 1h-1l1-1 1-1-4 2-5 2zm-349-2v-1l1-3h2l-1 3-1 1zm287-1h2v1h-3l1-1zm552 0-2-1-2 1-1-1 1-1 1-1v-2h3v3l1 1h1v2h-1zm-489 0 2-2 3-4 2-2h2a44 44 0 0 1-9 8zm219-1h-1v-6l-2-1-1-1 1-1 2-6 2-4 2 1 2 4 1 4 1-1 1-2h16l2 4v7h-1v-5h-4a778 778 0 0 0-16-1h-5v2l1 3v1h3v-5h1v5h9l-1-4h2v4h9v2h-22v1zm24-10-1-1h-15v3h17zm-20 0-1-3-1-3-1 3a38 38 0 0 0-2 3h5zm256 10h-1v-5h2v4h3l-1 2h-1l-2-1zm14 0v-2l1-1-1-1 1-1 1 3 1 3h-1a1 1 0 0 1-2-1zm6-2v-3h3l1 1h-3v1l2 1h1-1l-1 1 1 1h1l1 1h-5zm28 2v-3l2 3v-3c-2-1-2-1 0-1h1l1 1v4h-4zm-570-1-2-2h2l4 3h-3l-1-2zm40 0 4-8 2-2v3h1l1-1c2-3 5-6 5-8l3-3 3-1-1 2-2 1-1 3a318 318 0 0 0-5 6l-6 7-2 2h-3zm3-1 1-2 1-2-2 2-1 2h1zm4-5h-1v1zm-2 0v-1l-1 1h1zm411 7v-1l1 1h-1zm52-2a7 7 0 0 0-2-2h-1l-1 1-2 1 1-2 1-3 1-2v-2h2l1 1 1 5v3l1 1v1h-1l-1-2zm-1-5v-2c-1 0-2 2-1 3h1zm9 7v-1l-3 1v-6h2l1 2 1 3 1 1h-2zm0-4h-2l1 1 1-1zm34 3v-6h4l1 1v1l-1 1a16 16 0 0 0-2 3l-2 1h-1zm3-4v-1l-1 1h-1l1 1 1-1zm24 4a13 13 0 0 1-1-3v-2h4v3l-3 3zm2-3-1-1v2l1-1zm-589 2-4-3h-1v-1l2 1 3 2 2 2-2-1zm568 1v-1h2l-1-1-1-1c0-2 1-3 2-3l1 1-1 1h-1l3 3v1l-1 1h-3zm7 0-1-2 1-1v-2h3l-1 2-1 1 1 2 1 1h-3v-1zm-527-3v-4l-1 1v1h-2v-3l-1 1v1l-1-1h-1l-1 2h-1v-1l1-2-1-2v3h-1l-1-1v-3h3v-2h-3v3l-1 2-1 1-4-1-1-1h-1v2l-1 1h-1l-2-1-1-4v-4l-1-1v4l1 4-3-1-1-2-3-5 2 5 2 5-3-4-2-4h-2l1 3 2 2 1 3h-1l-4-6-2-4-2-3 2 1 2 3h2v-1l1-1h1l-1-2-1-3h1l1 1v1l1 2 2 3 1 3h1v-1a7 7 0 0 0-1-3l-1-2v-1h2v3h1v-1a15 15 0 0 0-1-3l-1-2h2l1 2 2 2-1 2v2l1 4v2l1-1v-3a15 15 0 0 1 0-4v-1l1 2v1h2v3l1 1 1 1v-4l-1-1v-1h1v-4h1l1 2v9l1-1 1-1v-16l1-2 1 1v3l-1 3 1 1h1l-1 1-1 1v3h4l5-2 1-4v-5h2l1 1-1 1-2 9 1 2v1h-2l1 1-1 1v1h4l1-1 2-4 2-4a24 24 0 0 1-5 12l-1 1-1 3-1 1h-1zm-4-6-1-1v-1 3l1-1zm2-1v-1h-1l-1 1h1zm-2-3 1-1-1 1-1 1c0 1 1 1 1-1zm-50 11-1-1-4-2-2-2h1l3 1 5 3 1 1h-3zm17-2a58 58 0 0 1-4-3l-2-2 1-1 1 1a40 40 0 0 0 4 3l3 4-3-2zm270 2-1-2v-1h2v2l-1 1zm311-1 2-1h4v1l-1 1h-5zm-300-1v-1l1 1 1 2h-2zm-287 0h-1 3-2zm-125 0-1-1v-1l2 1h4v-1l-2-1-2-1v-1h2l5 3-1 1-1 1h-2zm591 0a13 13 0 0 1-1-3v-3h3l2 1v3l-2 1c-1 2-2 2-2 1zm2-2v-2h-1v1l1 1zm4 2v-5h3l-1 1-2 1v1l1 1h1v-1l1-1h3v1l-2 1-3 1h-1zm7-2 1-3v-1h3v1h-1l-1 1h3v1h-3v2h3v1h-5v-2zm-487-1-5-4c-2-1-4-2-3-3l10 7 4 2 1 1h-3l-4-3zm9 1-2-2 3 2 2 1-3-1zm382-1-1-3 1-1 1-1h2l1 2 1 3v3l-2-3h-2v1l1 2h-2zm3-2v-1l-1-1h-1v3h1l1-1zm6 4a7 7 0 0 1 0-2v-1l2-3 3 1v2l1 1-2 1-1 2h-3zm4-2v-1l-1-1v-1l-1 1-1 2 1 1 2-1zm6 2h-1v-3l-1-3h3l-1 1v1l1 1 1-1 2 1v3h-1l-1 1zm3-2h-3 1l1 1h1zm41 2h-2l1-5v-1h1l2 1v1l1 1 1 2v1h-1a4 4 0 0 1-2 1 110 110 0 0 1-1-1zm1-1 1-1h-3l2 2zm0-3h-2v1h1l1-1zm6 4v-6h3l1 2 1 3 1 1h-2l-1-1-1-1-1 1-1 2v-1zm2-4v-1l-1 2h1zm-46 1v-3h4v1h-3l1 1h2v1h-2v2h2l1 1h-5zm13 2v-1h-2v2l-2-2v-4h3v1l1 3 1 2h-1zm-1-3h-2l1 1h1zm-410 3a11 11 0 0 0-3-1l-3-1-2-2-2-3 3 2 3 3 1-1-1-2-2-1 1-1 1 1a53 53 0 0 0 4 5l2 2h-1a1 1 0 0 1-1-1zm417-2v-2h-2v-1h4v2l-2 4zm7 2v-1h2l-1-1h-1v-1l1-2h2l-1 1v1l2 1v1l-2 2-2-1zm26-2v-3 1h1v5h-1zm125 2 1-2v-1h6l-1 2h2l1 1h-1l-2 1-2-2h-1l-1 1-1 1h-1zm-884-1 1-1h1v2h-2zm387-1h-8v-4a36 36 0 0 1 0-11l2-7 3 8v3h1l1-1 1-2h10l2 3 2 2v9h-14zm-4-2v-6h-3v3l1 4h2zm16-2v-3h-1l-7-1a47 47 0 0 1-6 0l-1-1v4l1 4h14v-3zm-8 0 2-2v2l-1 1h-2zm4 0v-2h2v2l-2 1zm-9-1v-1h1l1 1v1h-2zm13-4-1-1-1-1-1-1h-9a5 5 0 0 0-1 2v1h3l6 1h4zm-16-1-1-4v-3h-1v2l-1 3v2h3zm-90 7-7-6-4-4h1l3 2a31 31 0 0 0 5 3c3 3 6 6 5 7zm-287 1-2-1v-1h-2v-4h9v2l-1 3-4 1zm0-3-1-1-1 2h3zm4 0h-3 3-1zm170 1-3-2 3-1 2-1-3-3 1-1 2 2 3 3h1v1h-6l-1 1 3 1 1 2zm117-4h-1 2-1zm26 0h2v1h-1l-1-1zm-137 0v-1h2v1l-1 1zm427 0h-4v-4l1-1v2l1 1h4v-4h-2l3-1 1 1a5 5 0 0 1 3 2v2l-1 1-2 1-3 1-1-1zm5-2 1-1-1-1-1-1h-1v3zm203 2a17 17 0 0 1-1-2v-1h-4l-1-1v-5h1l2-1h2l2 2v8h1-2zm-1-7a5 5 0 0 1 0-1v-1h-1a4 4 0 0 0-2 1h-1v1l1 1h4zm-231 6-1-2-1-2h2l2-1-1 2v4h-1zm10 1a9 9 0 0 1 0-3v-1l1-1v-1 6h-1zm4 0c-1-1 0-5 1-6h2l-2 2h2v1h-1l-1 1h2v1l-1 1h-3zm-599-1 1-2 1-2h2l-2 3c-1 2-2 2-2 1zm568-1-1-1 1-2 1-1h5l1 3v2l-1 1v-2l-1-2h-1l-1 1v-2l-1 1v4h-2zm9 0v-2l1-1v-1h1l1 3v2l-1-1-1 1-1 1zm12 1 1-5h3l-2 1v1h1l-1 1h-1v1l1 1h-1v1zm-149-1-1-1v-1c0-2 2-4 4-4h1v2h-3l-1 1v2l2 1v-2h3l-1 1v2h-3zm299 0h2-2zm-773 0h2-3zm352 0-1-2h-1l1-1 1-2v-2h1v1l1 3v3h-2zm84 0v-1l-2 1-1-1v-3a5 5 0 0 1 1-3l1-1h3v4l2 1 1 2-2 1h-3zm2-3h-3v1h3zm-2-2v-1h-1v2a2 2 0 0 0 1-1zm8 5h-2v-7h4l-3 2 2 1h1v1h-2l4 2h1v-5h3l-1 1-1 1 2 1h-1v2h2v1h-9zm11 0v-4l-1-1 1-1 1-1 1 1 3 2 1 1-2 3h-2zm4-2-2-3v4l1-1h1zm398 1-1-2v-1l1-1v2l1 1h1v-4l1 1 1 2v1l-1 1-2 1h-1zm-854 0-3-2-3-1h-5l-2-1 2-5-1-1h-1l3-3h3l1 1a16 16 0 0 1 2 4l1 2h-1v1l2 1h2l2 3v2h-1a1 1 0 0 1-1-1zm-9-7v-1l1-1 1-1-2 1v1l-1 2h2zm468 6v-3l1-1 1 1v5h-2zm6 1h-2v-3l-1-2h4v-1l1 1 1 3v2h-3zm397-2 1-3h1l1 1-1 3 1 1v1h-3zm-96 0-1-1 2-1 1 1-1 1v1zm-809-2-3-2H4l-1-1H2l-1-1-1-1 2-1h3a176 176 0 0 1 6 1l1 1-3-3 3 1 1-4h-1l-3-2c-3 0-3-1-3-2l3-2 2 2 2 1 2 1h5v-1h2l-1 1v2h-1a9 9 0 0 1-3 1l-2 1v3l1 1h-1v2l1 1h2l2 1-1 2h-1l-3-2zm670-1h1l-1 1zm174 0v-1h2l3-1h1l-2-2-1-1v-2l2-1 2-2-2-1-1-2v-3h-1l-1 2-1 1h-2l1-2v-1h3l1-2 1-1-2-1a7 7 0 0 1-3-1l-1-1v-2l1-1h-1v-1h-2l-2-1v-3l1-1 1-1h3l1-3 3-1 2-2v-1h2l1 2 1 1h2l1-1 1-1h1v2l2 2 6 3 2 1v6l-1 1-5 2-5 2v1l2 1 3 1 1 2v2h-2l-1-1v-1l1-1-2-1h-1v4l-1 1h3l1 2a35 35 0 0 0 3 3l1 2h5l1-1 1-2v-2l2-2 2-2h-1l-1-1v-1h6l1 1-1 3-1 2-1 1v-2l1-3v-1l-2 2a38 38 0 0 0-2 2l-1 1v2l-1 2-3 2-3 1h-3v1h-8l-11 1-2 1zm12-3 2-3v-1l-3-2h-2l-3 1-1 2v1h1l1 2 1 1h3zm8 0h1l-2-2a138 138 0 0 1-2-3l-2-2h-2l1 1 1 1v2l-1 2v1l2 1h2l2-1zm-7-9 1-1-1-3v-3h-7l-1 2v2l1 3 2 1 3 1h1zm-1-9 6-1 2-1v-1l-1-4v-3l-2-1-3-2a157 157 0 0 0-5-1l-3-1-3 1-1 2a11 11 0 0 0-2 4v2l1 1 2 2h-1l-2 1 2 1 6 2 4-1zm-8 0v-2h12v1l-12 1zm7-5-1-1v-2l1-1h4v3l-3 2zm3-2h-3 3zm-10 1-1-2v-1l1-1h2l2 1v1l1 1-1 1-2 1-2-1zm19 3 1-2v-2l-1-1v-1h-2v6h2zm-24-4c1-2 0-3-1-3l-1 1-1 1 1 1h2zm102 26h3-3zm-141-1-1-1h1l2 1h-2zm135 0h-1l1-1h1l2 1v1h-1a4 4 0 0 1-2-1zm-860 0 1-3 1-2h1l1 1v1l-1 2-1 1h-2zm400-1a13 13 0 0 1-1-2v-2l1-2h4v1h-3v1h1l1 1v1h-3l4 1-1 1h-3zm10-1-2-1v2l-1-1-1-1v-3l3-1h1l1 1v4h3v1h-3zm-1-3h1-2v1l1-1zm-445 2-2-2h2l-1-1 2-3h4l3 3-1 2a7 7 0 0 1-2 2l-2 1h-1l-2-2zm4 0h1l-1-1v-1h1v-1l-1-1h-1l-1 2-1 1 1 1h1zm411 1h-1v-4h1v2l1 1c3 2 2 2-1 1zm5 1v-5h6l1 1v2l1-1h2l1-1v-1h2l-1 2-1 3h-4l-1-2-1-1-2 1v2h-3zm2-3v-1l-2 2h1v1l1-1h1zm-392 2v-1h1l1 1h-2zm429-1h1l-1 1v-1zm298-3v-2l1 1-1 1zm143-5v-2l1-3v-4h4v1h-3v2h2l1 1h-3v2l5 1v1h-5v1h-2zm13 0-1-1v-2l-1-2h-1l1 2v2h-2v-5l-2-2 2-3 2 1h1v1l1 3 1 1-1 4 4-1-1 1a5 5 0 0 1-2 1h-1zm-2-7v-1l-1-1v1h1zm-947 6-2-1v-1a25 25 0 0 1-1-2v-1l2-2h5v1l1-1 1-1 1-2 1 1 1 1-1 2-1 2h-3l1 2-1 2-2 1zm3-2 1-1-2-2-2 1h-1l3 3 1-1zm75 2 1-2 1-2h1l1 1h1l-1 1-2 2h-1zm845 0v-2h1l-1-2v-5 1l2 3v2l-1 4h-1zm-879 0-2-1h-5l1-2 2-3v-1l2-1 1 1-1 1v2l1 1h2l1 1 1 2h-3zm855-1v-2l-3 1v1h-2l1-1 1-4 1-3h2l1 3 1 4v2h-2zm-1-5v-2 2a2 2 0 0 0-1 1l1 1v-1h1zm15 6v-1l1-1v-5h-1l-2-1h2l5 2 1 1v3l-1 1-1 1h-4zm4-2 1-2-1-1-1-1v5l1-1zm37-1v-5h1v1l1 4 1 3h-2Zm-50 2-1-1v-3l1-2 1-1v5l1 1h1v-6h2v6l-1 1-2 1h-1zm24 0v-2l1-4v-2h5c1 1-1 2-2 2h-2v2h3l1-1v2h-4v2l-1 2zm-686 0-1-1v-1l2 1 2 1h1-1a29 29 0 0 1-3 0zm645-1-1-1v-4l1-1 2-2h1l1 1v1h-3v2l-1 1 1 1v2l2-1h2l-3 2-2-1zm-841-8-2-1v-1c0-2 1-3 2-3h1v2l-1 1 2 2 1-1 2-2c0-2 1-2 1 0l-1 5h-4zm38-1 1-2h2v1l-3 4h-1zm701 0c0-1 1-2 2-1v2h-2zm135-1v-1h-3v-1l5 1 1 1-2 1h-1zm32-1v-1h3l-1 1h-2zm-947-1-1-1h-4v-2h4l-1-2 1-2 1-1 2 1 3 1v-1h2v1l-1 2-1 1-2-1a7 7 0 0 0-2-1h-1v3l5 1-1 1-1 1-3-1zm553-1v-3h-1v1l-1 2h-2v-2h1v-4l1 1 1 1h1v-1l1-2 1 1v5h1l-1 1h-1zm12-2v-2h-3l1-1h6l-1 1h-1v4h-1l-1 1zm-8 1-1-3v-1l1-1h1v4h1v-4h2v4l-1 1a4 4 0 0 1-2 1l-1-1zm-473-2v-1l2-2 1-3h2v2l-1 1v1l-1 1-1 1-1 1zm-40-1-1-2h4l1-1 2-1 1 2v1l-2 2h-3l-1-1Zm5-2h-1l-1 1h1l1-1zm821 2v-7h2v3h2v-2h1l1 2v3l-1 1v-1l-2-1-1 1-2 1zm-94 0c-1-1 0-2 1-2h1v1l-2 1zm111-1v-5l1-1 2 1h1v1s0 1 0 0a85 85 0 0 1-2 0l-1-1v4h2l1 1h-4zm-6-2v-2h1v4h-1zm27 0v-1h2l4-2-1-2-1-2 1-2h1v-1l-1-1-2 1h-2l2-2 1-1 1-1v-1l-3 1-3-1v-2l1-1v-1l-2-1v-3l-2-2-2 1-3 1h-2l-2-2 1-1 3-1h2l4-2 7-4 5-2h2l1 2v2l2 2v3l-1 4 1 1 1 1v2l-1 6-1 1h-1l1 1a45 45 0 0 1 3 1l3 1h1l2-1 1-2v-2l1-2 3-2h-2l-1-1h2l4-2h4l-1 2a9 9 0 0 0-2 2v2h-1l-1-1 1-1v-1l-2 1-3 2v1l-1 3-1 2-2 1a9 9 0 0 1-3 1h-1l-7-3-1 2v1l3 1v2l-1 1h7v1h-7l-8 1-3 1zm10-4h-1l-1-2v-2h-1l-1 1 1 1 1 1v2h1l1-1zm1-8 2-2v-6l-4 3-3 3h2l2-1h1l-2 2-3 1 1 1v1l1-1 3-2zm-4-5a9 9 0 0 0 3-3 18 18 0 0 0 2-7v-2l-1-1-1-1-2 1-4 2h-1l-1 1v2l1 1v-3l1-1 1 1 1 1v1l-1 1c-1 1-3 2-4 1l-1-2-1-2-2 1 2 2 1 1v2l1 1c2 1 4 2 3 3l-2-1h-1l-1 1v1h6zm-265 10a53 53 0 0 1-7-5l-2-2h-2l-2 1-4 4-3 3h-1l-2 1-1 1h-1v-1l6-4 5-5 4-2 2 1a11 11 0 0 1 3 3l1 1 2 1 6-3 5-3 2 2 3 4 1 1 2-2a89 89 0 0 0 3-3l2-1 3 2 3 3h3l2 2 2 2-1 1h-1l-1-2h-1a32 32 0 0 1-8-6c-1-1-2 0-4 2-3 2-3 3-2 3a15 15 0 0 1 4 5l-2-1a15 15 0 0 0-3-2l-2-2-4-6h-1a133 133 0 0 0-9 5l5 4 1 1-1 1zm-82 2-1-1h3l-2-2 1-1 2-2v2h-1l1 1 2 2-2 3-3-2zm328-1-1-2h3l1 3 1 1h-3l-1-1zm-891 1-3-1-2-1-2 2h-1v-3l-1-1v-1h2l2-4 1 1v2l-1 2 2 1 4 1h1l1-3h2v3l-1 1c-1 1-3 2-4 1zm86 0-1-1 1-3h3l1 1-1 1-2 3a2 2 0 0 1-1-1zm447-2v-2h-2v-1h6v1h-2l1 4h-3zm9 1h-1l-3 1v-5h5v4l1 1-2-1zm-1-2-1-1v1h1zm5 3-1-1v-3h5v2a4 4 0 0 1-2 2h-1zm2-2v-1h-1l1 1zm4 1h-1v-3h1v2h5l-1-1v-1h2v2h1l1 1-2 1h-2l-4-1zm326-3-1-1h3l-1 1zm-115-1-1-2h2v3l-1-1zm-202-2v-2h1v4h-1zm-559 0-2-2-1-1h1l2 1h4v-1l-4-2v-1l5 1 2 1-1 3-1 1h-1a5 5 0 0 0-1 0h-3zm88 0 1-2 2-2h2l-2 3-1 1h-2zm444-2v-1h7v-5l1-3 2-3v-1h4v-3h3l-1-1v-2h3l3 1h2v-1l-1-1h-1l3-1a13 13 0 0 1 3-2v2h1v-2h3-1v-4l1-1 1-1 1 2-1 2v3l2 1h2l1-2 1-1-1-1v-2h2v1c1 1 0 4-1 5l-2 2-2 1h-5l-4 1-5 2h-3v2l2 3 3 2-1 1-1 3 1 2v1l4-1v2h-6a133 133 0 0 1-13 0h-7zm17-1h3v-2l-1-2v-1h-10v1a12 12 0 0 0 0 3v1zm2-6 1-1-1-1a81 81 0 0 0-1-2l-3-1h-3l-2 2-1 2 1 1h4zm-2-7-1-1v1h1zm17-6-2-1 1 1h1zm-2-1-1-1-1 1h1zm194 21v-1c1-1 2 0 2 1h-2zm-663-6 3-3 1 1v1l-1 1-3 1zm661 1v-1h3l-1 1h-2zm-323-1 1-1 1 1v1h-2zm-428-1-2-1-2 1v-3l1 1h2l1-1v-1h4v-2h2v1l1 2h-1l-4 1h-1 1l1 1h1v2h-1l-3-1zm424 0v-1h1l1 1v1h-2zm8 0 1-1v2h-1zm273-3v-5h3l1 1v3h-2v4h-2v-3zm3-3h-2v1h1l1-1zm-189 5h-3l1-1 1-2-1-1v-3h-1l-1-1h7a9 9 0 0 0 3-2l-1-1a2 2 0 0 1 0-1v-1h-2v-2h-3l-2-1-2 1 1 1v1h-1v2h1v2l-2-1-1-1v-1l1-2-1-1 2-2h2v-6h-3l-2-2v-3l-1-2 2-2 1-2h2l2 1 2 1h1v1l2 2 1 1h-1l-1 1h2l2 2-5 2h-2v1l1 2v2l-1 1h-1l6 1-1 1 1 1 2 1 1 1 1 1-3 4h-3v1h-1v1a117 117 0 0 1 1 3v2h-4zm1-2v-5l-1 1v5h2l-1-1zm2-23h1l-1-1h-1l1-2-2-1v-2h-2l-1-1-2-1-1 1 1 1 2 1h-4l1 2 1 1-1 1v1h5a39 39 0 0 1 3 0zm169 25v-5h1v5h-1zm-634-1a7 7 0 0 0 2-2l2-1-2-4-4-2-2 2-2 1-4 2-2 2h-1c-1-1 0-3 2-6l1-3 1-1-1-1h-1v-1l4 1 3 2-2 2-1 1v1l3-2 2-2 4 2 4-2 5-4 3-4 1-2 1-3v-3h-1l-6 2-10 6h-2l1-1-1-2 3 1v-1l-2-1h3l1 1v-1l-1-2h1l2-1h1v2-1h1l-1-2h1l1 1h1v-1h2l6-3 1-1-1-1-2-1-2 2h3l-1 1h-1l-1-1v-3h5l1 1v3l-1 5v3l-1 2 3 1 3-3h1l1 1-1 1-1 1-1 1-1 1v1h-2v2l-1 1h-2l-4 4a167 167 0 0 0-7 7c-2 3-4 4-4 2zm-9-7 2-3a1 1 0 0 0 1 0v-1h-3v1l-2 3-2 2h2zm14 0-1-1v1l1 1v-1zm6-4 4-3v-1l-1-1-2 2a43 43 0 0 1-5 3l-2 1v2l1 1 5-3zm6-7v-1l-2 1 1 2 2-1zm359 18v-1h1l1-1v3zm242 0a7 7 0 0 1-1-5v-1h3l2 2v2l-2 1-2 1v1zm2-3a2 2 0 0 0-1-1l-1-1v2h2zm20 3-1-1v-3l1-1h2a4 4 0 0 1 3 3l-3 3-2-1zm3-2v-2h-2v3h2zm50 1h-1 1l1 1h-1zm-655 0v-1l1-1c1-2 2-2 3-2l-3 5-1-1zm532 0h-1l-1-4-1 1h-2v2h-1l-1-3v-3l1-1h4v2l2 3 2 3h-2zm-4-6v-1l-1 1-1 2 1-1 1-1zm36 6-1-1v-2l1-3h2l1 2v4h-3zm1-2v-1l-1-1v2h1zm-239 2v-1l2-1-2-1 2-2v1l1 2v2h-3zm229-1v-6h4v1l2 3 1 1v1l-1 1h-6zm5-1-1-1h-3v2h4zm-2-3v-1h-1l-2 1v1h3zm-271 2v-2l-1-3h-5l-1-1v-1l-1-1 1-1 1-3 1-2 3-2h2l3 1 1 1a13 13 0 0 1 3 6v2l-2 1h-2v7h-4v-2zm0-7h4l1 1 1-1v-1h-2v-1l1-1h-2v-2h-1l-1 1v-2l1-1h-5l1 3-3 1h1l1 2h-3l1 1h5zm232 9-1-1v-1a11 11 0 0 1 1-4l1-1h2l1 1v1h-2l-1 2v2h1l1 1v1h-1l-2-1zm25 0v-1l-1-2-1-3h2l1 3 1 3-2 1h-1zm3 0-1-2v-1h2v1l1 1v-2l1-2 1-1v1h1l-1 1v2l-1 2-1 1h-1zm23-2v-3h4v3h1l1 1-1 1-3-1v1l-1 1h-1zm3-1-1-1-1 1v1h2zm-37 3-1-1v-4h1l1 3h1v-3h1l1 2v1l-1 2h-1a7 7 0 0 1-2 0zm-198-2v-1h-2v-1a1 1 0 0 1 1-1h1l1 2 1 2h-2zm386 1 1-1 1 1h-2zm-375-1v-1h1v-5l-1-1a5 5 0 0 0-2-1h-1l-1-3 4-4h3l1 1h2l1 1 1 3 1 1-1 1v1l-3 1v5h1l1 1v1h-7zm6-9v-1h-2v-3l-3 1-3 1v2h3l4 1h1zm-4-4v-1h-2v1h2zm14 13v-1h2v-2l-1-2-2-1h-1v-1l-1-2v-1l1-2a7 7 0 0 1 1-3h4l3 1v1l2 2h1l-1 1v2h1v2l-2 1h-3v2h4v1h-4l1 2h1-1l-3 1h-2zm6-8h-1l1-1 1-1h-4v-1h1v-2l-2 1-1-2-2 1 1 1 1 1h-1l-2 1 1 1 1 1v1h7l-1-1zm37 8-3-1 2-1v-6l-4-1-3-2 5-6h2l1 2 4-1 2 2v1l1 1 1 1-1 2-4 1v-1l1-1h3l-2-1h-1l1-1-1-1h-1v-1l1-1h-1l-4 1-4 1v2l5 1v1h2l1 1v5l1 1h1v1h-3l-1 1h-1zm2-3h-1l-1 1h1zm0-3v-1h-1v1l-1 1v1h2zm-4-9v-1l-1 1v1l1-1zM41 176l2-6 3-5a143 143 0 0 0 6-15v-2l1-1h2l-1 3-3 6-2 6-1 2-3 6-2 5-1 2h-1zm481 1 1-1h1v-6l-1-1h-2l-1-2-1-1 1-2v-2l1-1 2-1h2v3l-2-2-2 1 1 1 1 1-1 1-1 1 1 1h1l1 1h6l1-3h-2v-2l1-1-1 1-4-1 2-1h4v2l1 1h1v3l-1 2v1h-4v5l2 1-1 1h-7zm338 0-1-1h-1v-1l1-2 1-1 1 1-1 1h11v-2l1-3a181 181 0 0 1 7-14l2-5v-3l2-1v-1h1l3 1 1 1-1 1v2h-2v2l3 6 1 2 2-1v-2l3-7h1l-1-1 1-4 1-5a15 15 0 0 1 1-2v-1l-1-3-1-5h2v3h3-1l-1-1 3-2v2l-1 2-1 1 1 2 1 5 1 3 1 3a305 305 0 0 0 4 10v2h-1l-1-2a11 11 0 0 1-1-4l-1-4-2-3 1 6 1 7c-1 0-2-3-2-7l-1-4-1-1v12l4 1h1c1-1 7-1 7 1h-3l-2-1-2 1-1 1-5-2-1 1-1 1-1-1v-1l-3 1h-3a102 102 0 0 0 6 10v1l-2-1-3-6a17 17 0 0 0-2-4v2l1 2 1 3 1 3v1h-1l-1-3-2-5-1-3-1-1-1-1 1 3a110 110 0 0 1 2 10v1h3a511 511 0 0 1 13 0h4l6-10v-2l2-5v-1h3v-1l-1-1v-3h2l1-2 1-2 1 1-1 3-1 1 2 6 6 9v1l1 2v1h-1l-1-1-1-3a302 302 0 0 1-3-5l-2-4v3c-1 0 0 0 0 0h1v3l1 4 1 1h-1a13 13 0 0 1-1-3l-2-3v2a47 47 0 0 1-1 5v2l2 1 3-1v-2l1 1v1h6v1l-1 1-16 1-2 1v-1l-1-1-3 2-4 1v-2h-2l-5 1h-3l-3-1h-2l-6 1-8 1h-5l-1 1-1 1-1-1-3-1h-2v1h-2zm15-4a58 58 0 0 0 3-13l-2 6a20 20 0 0 1-3 7l-1 1h2zm5-7 1-8h1l1-1h-2l-2 6a177 177 0 0 1-2 8v2l1 1 2-8zm3 7h2l-1-4v-6a5 5 0 0 0-1-2v-1l-1 5-2 7v2h1a9 9 0 0 0 2-1zm31-6a33 33 0 0 0 3-10h4l-3-1v-1l-1 1-2 4-1 2 2 1h-3l2 1h-1l-2 2h1l1-1-1 1-1 1-1 1v1-1l1-1v2a4 4 0 0 0 0 2c0 2 1 1 2-4zm4 3v-7l1-6-1 1v2l-1 3a110 110 0 0 1-3 7v2h3zm-21-11h1v-2l-2 1v-4l1-4v-1l-1 2-1 3-1 2v1h-1v2h2zm-13-11v-2l-1 2v2h1v-2zm-155 28h-2v-1h4c3 0 4 0 3 1h-5zm-692-1 1-1h1l-1-1-1 1-1 1h-4l-1-1-1-1 1-1v-1l3-1v1h1-2v2l3-1 2-1h2v4h-2l-1 1zm8-1v-1h1l1-3 2-4 1-3 1-4 2-3 1-4 2-4 1-2 1 1 1 1h-1a51 51 0 0 0-4 8l-1 5-3 6-1 3-1 3-1 2-2 1zm393 1 1-2 1-1v-4h-2l-4-3 3-5 7 1 2 2-1 1 1 1 1 1v1l-4 2v3l2 2v1h-7zm4-2-1-1v-1 2h1zm3-7-1-1-2-2 1-1-2 1h-1v-2h-1l-1 1-1 1h2v1h-3v1l3 2h3zm18 9 5-2 1 1-4 1-2 1zm320-1-1-1 2-1 1 1 1 1h-3zm-642-2 1-2 1-1h1l1 1-1 3h-3zm317-1v-3l1-2-1-1-2-1h-1l-2-4 1-1 2-2 1-1h5v3h2v2l1 1v2l-3 1v5h-2v-1 3h-1l-1-1zm4-7c2-1 2-2 1-2h-1v-2h-2v-1l1-1-1-1-1 1v1h-4v2l1 1v1h2l2 1 2-1zm476 5v-1h2v2h-3zm-902 0-1-2v-1l1-1h2v3l1 1 2-2v-3h1v4l-2 2h-3zm433 0h-1v-3h2v1h3v-3h2v2l-1 1-1 2h-4zm-382-2-1-2h1l1 1v-4h1l3 1v2l-3-1v1l1 1 1 1h-2l-1 1zm486 0h-1v-7l-1-1-2-2-1-3-1-2 1-2 2-2h1a16 16 0 0 0 4 1h2v2h2v2h2v2l-1 1v1l1 2h-6l1 4v4h-2zm2-5-1-3v1l-1 3v3h2zm2-4 1-1 1-1v-1l-2-1v-2l-1 1h-1v-1l1-2h-3l1 2h-2l-1-3-1 1v1l1 1v1h-3l1 1 1 2v1h2v2l1-1a118 118 0 0 1 3 0zm-430 8 2-2 1-1h2l-2 3h-3zm-106-3v-1h-2l-1-1v-1l5 2 1 1h-3zm898 0-2-2-10 1 1-1 1-1h4l4-18a24 24 0 0 1 2-8l1-1v-5h1v-3h2l2 1-1 3-1 1 1 1 1 3v2l1 3 1 3a4 4 0 0 1-1 0v2a77 77 0 0 1 3 15v2h3l-1-3-1-3-1-2v-2l1 1 1 1 1 4 1 4 1 1 4-2 4 1h1v1l-4-1-2 1-2 1-5-1-2 1-5 1h-2zm7-1 2-1-2-12-1-5h-1v18l-1-1v-25l-1-2v6l-1 1h1v1l-1 7v5l-2 7 2 1 2 1zm-7-4a57 57 0 0 0 1-20 5 5 0 0 0 0 2l-1 1v1l-1 4a98 98 0 0 0-1 4l-1 3-1 2 1 1v-2l2-1-1 3-1 4h2zm-4-1 1-1-1 1h-1v1l1-1zm-780 5v-1l2-2h1v2l-2 1h-1zm620-1v-2l2 2h-2zm-306-1v-3l5 1h1v3h-5zm5-1h-2l1 1zm-3 0v-1l-1 1h1zm-429-1h-2l-1-2v-2h3l1 1 3-1v-2h2v1l-2 2-1 1h-2l1 1c1 1 2 2 0 2zm-9-1v-1l2 1 1 1v1h-3zm458 0h-1l2-1v-4l-1-1h-6v-7l2-1 2-2 1-1h8l1 2v2h1l-2 2 1 1 1 2v1l-2 1-2 1v4h1l2 1-4 1h-4zm7-8v-1l-2-1h1v-2h-2l1-1 1-1v-2h-2v1h-5l1 3-4-1-1 2 1 1 1 1-1 1h-1v1h11zm-335 8v-4h4l-1 1-1 1-1 2h-1zm307-1-1-1h5v-3h1l1 1v1l-1 1-1 1zm63-1a1 1 0 0 1 1 0h1v-6h-2l-3-2-1-2 1-1v-4h1l4-1h3l1 1 1 1 2 1 1 1v5l-1 1h-4l1 7h-6zm4-3v-3h-2l1 2v2l1 1zm4-4v-3h-2 1v-2l-3 1v-1l1-1 1-1h-3v1h-1l-2-1-1 1-1 1h1v2h-1l-1 1 5 2h6zm-21 7h-2v-2l1-2-1-2v-1l-4-3-1-1-1-2v-1l3-2 2-2h6l2 1v1l1 4v2l-1 1-2 1v7l-1 1h-1zm1-5v-3h-2l1 1v5h1zm1-5h3l-1-1-1-2h1l-1-1h-2l3-2-2-1-2 1-3 1-3 1 1 1h1l-1 2 1 1 3 1zm251 10-1-1v-1h2v1l-1 1zm-728-5-3-2-1-1 1-2h1l2 1-1-1v-1h1l3 2v2h-2v-1h-2l-1 1v1h4v1l1-1 2-2h1v1l-1 2a5 5 0 0 1-2 2zm385 0a4 4 0 0 1-1-2v-1h-4v1l-1 1v-8h5v5h1l1 3 2 2h-1a4 4 0 0 1-2-1zm-3-6v-1h-2v2l1 1 1-1zm343 6 1-1 1 1h-2zm-600 0 2-2 2-1h1l1 1-2 1-4 1h-1zm779-1-1-1 1-1v1l1 1v1l-1-1zm-514 0h-1v-7h1l4 1-4 1h1l2 1-1 1h-1v2h3v1h-2zm7 0v-2l2 1 1-1 1-1h-3v-1h-1v-1l1-2 1-1 1 1h1l-1 1-1 1 1 1h2v2l-1 1-1 2h-1l-2-1zm29 0h-1l2-1h1v-1l1-1h2v1l-1 2h-4zm-66 0-1-1v-2l1-3h-6v-2h10v1h-1l-1 2h1l1 1v1h-2v1l-1 2h-1zm9 0a4 4 0 0 1-1-2v-3l1-1 4-1v1l1 3v1l-1 1-2 1h-1zm3-3 1-2h-2l-1 1a6 6 0 0 0 0 2v1l2-1zm36 3v-1l1-2v-2l-3-1v-2h2l4 1 2 1-2 1-1 1v4h-2zm-276-3 2-1 2-1c1 1 1 2-1 2l-3 1zm589-2-2-2-1-2v-2l1 1a13 13 0 0 1 4 6v1h-1zm181 1 1-1v-1 1l1 2h-2zm-474-2-3-1-1-2 2-2 4-1 1 1h1l-1 2-2 1-2-1v1l2 1 2 1h-3zm430 0v-4l1 1h1l-1 2-1 1zm-719-1 2-1-1 1h-1zm4-1v-1h3c0 1-1 2-3 2zm-4-3v-2h1l1 3h-2zm14-1-1-1 2-1 3 1-2 1h-2zm361-3-1-2h-2v2h-1l-1-3v-3l2-2h3v4l1 2 2 3h-2zm-1-6h-2v2h2zm12 7h-3v-3l-1-4v-1h1l1-1 2 1 2 1h-4l1 2h3v1h-1l-2 1v1h4l1 1-1 1h-3zm9-1h-1l1-2 1 1 1 1h1v-2l-3-1v-3l2-2 1 1-1 1-1 1v1l1 1h2v3l-1 1h-1zm13 1-1-1v-5l-4-1v-2l7 1 2 2h-3v6h-1zm168-1v-1h1l1 1v1h-2zm51 0-1-1 2-1a5 5 0 0 0 2-2v-4h-3v-2l2-3 1-4 1-5 1-6 2-6 2-7 1-1 3-2h4v1l-2 2-2 2v1l4 16 1 2 3-1h3l1-7 2-10v-3l1-2 2-2h5v2l-1 1-2 1-1 1v2l2 3v2l1 3 1 5 1 4h4l1 1 2 4 2 4h-2l-2-3-2-4-1 1-1 3-1 4h-1l-10 1h-10l-4 1-6 1h-1l2 5h11l11-1h9l2-1 3-1-1-2v-3h2v3l1 3v1l-9 1-13 1h-10l-1 1h-8l-1 1v1h-2zm10-10h2v-1h10l6-1h5l1-1 1-2v-1h-1a13 13 0 0 1-3 0l-1-1v-1l1-1h1l-1 1v1h5v-2l-1-1a204 204 0 0 0-30 2l-1 1v1h4v-1h2l-2 1h5l2-2v1h4v-1l1 1h8v1h-5l-11 1h-5l-1 1-1 1h5l-1 1h-4v-2l1-1h-2l-1 2-1 3 1 1 3-1h4zm2-3h-1a197 197 0 0 1 12-2l1 1h5l-1 1h-6a57 57 0 0 0-8 0l-2 1zm3-8-1-6-2-8-1-3h-1l-1 2-1 4-1 7-1 5 9-1zm20-2a62 62 0 0 0-3-10 22 22 0 0 0-1-3l-1-2h-1a2 2 0 0 0-1 1l-1 6-1 7-1 3h10zm-6-17 2-2 2-1h-3l-1 2-1 1 1 1v-1zm-17-1 2-2h-1l-2 2-1 1h1l1-1zm78 39 1-3h1l1 1-1 2-1 2h-1zm-695 1 1-1h3l1 1h-2a12 12 0 0 1-2 1h-1zm272-2-1-2v-1h2v2h2v-2h4l1 3v1h-3v-2h2-1v-1h-1l-1 2-1 1-1 1zm65 1h-1l-1-2v-1l1-1 1-1h4l1 1v3l-1 1-2 1zm3-2v-2h-3v1l1 2h2zm-16 0v-3l-1-1-2-1 9-1 1 1-5 1v2h4v1l-3 1-1 1v1h-2zm-40 1v-1h3l3-1 1-2v-2h3l-1 1v3l-1 2h-4l-4 1zm267-2c-2-2-2-4-1-4a20 20 0 0 1 4 6l-1 1h-1zm-543 0 3-1 3-1v1l-4 2h-2zm628-2v-2h2v4h-2zm-21 1h1v1l-1-1zm9 0h1l-1 1v-1zm-351-2-1-1v-2h1l1 1 1 1h1l-1-2v-1l2 2v2l-4 2zm-254-1 2-1h3l-3 2h-2zm-48-1-1-1 1-1 2 1-1 2a2 2 0 0 1-1-1zm314 0v-2h2l-1 1h1l1-1v-1l3 1v-2l-4-2v-3l1-1h2l1 1 2 1-1 2h-1l2 2v4h-5l-1 1h-2zm5-8v-1h-1l-1 2h2zm-262 6 1-1h2l1 1h-1a4 4 0 0 1-2 1h-1zm242 0v-1l1-2 1-1 1 1 1 1 3-2v1c2 0 0 2-4 3h-3zm276-2 1-1 1 1v1h-1l-1-1zm-510 0 1-1 2-1 1 1h-1l-3 1zm7-3v-1l3-1h3l-1 2-2 1h-3zm231 0h-1l1-1 3-1v2h-2l-1 1zm268 0v-2l2 1 2 2h-3zm-575-1h-1v-1l1-2h1v4a6 6 0 0 1-1-1zm87-2c-1-1 0-1 2-2h3l-5 2zm233-2 1-2v-1l1-1h2l1-1h1v2h-4l1 1 1 1h1l-3 2h-2zm247-2-3-2v-1c1-1 2-1 3 1l2 1 3 3-5-2zm-471 1c0-1 1-2 3-2h1v1l-3 1h-1zm11-2-1-1h1a11 11 0 0 1 3-1h2v2h-4zm9-3 4-1 1 1-3 1h-2zm206-2a20 20 0 0 1-1-1l1-1v-1h2v-4h2v3l-1 2 1 1v1h-1l-1 1zm-195 0v-1h2l2-1 1 1v1h-4zm430-1-2-2v-1h1l3 1 1 1-1 1zm-420-1v-1h6v1h-1l-2 1h-2zm13-2v-1h6v1h-4l-2 1zm12 0-1-1v-1h2l4-1h2v1h1l-1 1-7 1zm388-2a7 7 0 0 1-3-1l-1-1h1v-1l2 1 3 4-3-2zm-229-1v-1h1v-2l-1-1 1-1v-3l1 1h2l-4-2h-4v-1l7-1v-2l2 1-1 2v1h1l1 2v1h-2l-2 3 2 1v2-1h-1l-3 2zm-332-1v-1 3zm190 1v-1h1c1-1 2 0 2 1h-3zm8-1a1 1 0 0 1 0-1v-1h4v1l-3 1a2 2 0 0 1-1 0zm9-2 2-1h2l1 1h-5zm9-2h2c2-1 4 0 4 1h-6zm334 0 1-1 1 1v1h-1l-1-1zm-323-1 1-1h4v1h-5zm316-2h-1v-1h3l1 1v1h-2zm-548 0v-3l-1-2h2l1 2v3h-1zm242 0 1-1h3v1l-3 1zm11-2 3-1h1v1l-3 1h-1zm287 0h-3l1-1 2-1 3 1v2h-1l-2-1zm-11-1-1-1v-1h4v1h-3zm-266-2 2-1h3v1l-1 1h-4zm256 0-1-1h2l2 1h-1zm-248-1 1-1 3-1 2 1v1h-3l-3 1zm63 0v-1h1v1h-1zm4-1 1-1h2l1-1 1 1v1l-1 1h-4zm170 0v-1h3v2h-3zm-228-1 1-1h2l1 1-3 1h-2zm-285-1v-3l2 3-1 1-1-1zm292 0v-1l3-1 3 1h-1a15 15 0 0 1-3 2h-2zm209-1h1l1-1h1v2h-3Zm-197-1 1-1 1-1 1 1h1l-1 1h-3zm179-1h-1l2-1 2 1h-3zm9 0h4v1h-4zm-19 0-1-1v-1h2v1l-1 1zm-160-1v-1h7v1h-4l-3 1zm135 0h-2v-1h5v1h-3zm11 0v-1h5v2h-5zm-20-1h-2v-1h4l1 1h-1a7 7 0 0 1-2 0zm-114-1 1-1h4v2h-5zm10 0 3-1c2 0 2 1 1 1l-3 1h-2zm7 0 2-1 1-1 1 1h1l-1 1h-4zm10 0 1-1 3-1v2h-4zm77 0h-2v-2h4l2 1-1 1h-3zm-24-1 2-1h2l1 1h-1l-2 1h-1zm-45 0v-1h8l-1 1h-7zm21 0v-1h1l3-1 2 1v1h-5zm12 0v-1h6v1h-6zm24-1v-1l6 1v1h-6zm-422-2-1-2h2l1 3 1 2h-2zm375 2v-1h6v2h-6zm-379-9-1-2h1v-1l1 1 1 2v1h-2zm-6-11-1-2 4 3v2h-2zm415-4-1-1v-4l-1-1 2-3 3 1v1h1-4v1l2 3-1 1h5v1a1 1 0 0 1 0 1h-3l-2 1zm23 0v-5l-1-1-3 2v3h-1v-3l-1-4v-1h2v3l2-1 1-1 1 1 2 1v4l2 1v2h-3zm-161-1h-1l1-2 2-5 1-2-4-5 1-1 3 1 1 3 2 3-1 1h2l2-1 1-2v-2l1-2 1 1v9l2 2h2v1h-3l-3-2-1-3h-4l-2 4-1 3h-2zm40 0h-2v-5l1-1 1-1h3v1l1 1h-4v3l2 1h4v1a7 7 0 0 1-3 1h-2zm81 0v-4h-3l-1-1 4-1v-3l-1-2 2-2 1-1h2l1 3-3 6v2l1 2h1l3-1 1 1-1 1-4 1h-2zm3-11v-2l-1 1v3h1zm50 10-1-1v-5h-3v-1l2-1h1l-1-2 2-1 1 3 4 1-1 1v1l-3-1v3l2 2h1l2-1h1v2h-1a9 9 0 0 1-3 1l-2 1zm-149 0v-3l-1-4h2l1 7h-1v1zm-308-2-1-3v-1h1l2 3 1 2v1l-1 1zm382 2a5 5 0 0 1-2-1l-1-1v-5l1-2 1-3h1l6 3 1 2 1 2-1 2-1 2-3 1h-2zm5-3v-3l-2-3-3-1-1 2v4l1 2c1 1 5 0 5-1zM125 33l-1-3h2l1 2v2l-1 1h-1zm313 1 1-1v1h-1zM119 23l-1-3h2v5zm-5-8-1-2-1-2v-1l4 2v1l1 1v2h-2zm350-3-1-2V6h1s0-1 0 0l1 2 1 3 2-1 1-1-1-4h2l2 4-1 1-5 4h-1zm-14 0-1-2 1-1 1 1v1h3l1-1V8h-3l-1-1-2-2 1-2 3-1 2-1 2 3-3-1-3 1 2 2 4 1 1 1v1l-1 1-2 2-3 1h-1zm29-1-1-2V4l4-1 1 1v2l1 1c2 0 3 2 3 2l-1 2-1 1h-6zm6-1V9l-3-1-2 1 1 1v1h4zm-3-4-2-1 1 2a1 1 0 0 0 1-1zm12 6v-1l-1-7h2v3l1 3 1 1v-1l1-3V4h2v5l-1 2-1 1h-3zm18 0-1-1V8h-2l-1 3h-1V2h3l2 1-1 3 1 1 1 1v2l2 1v1h-3zm-2-7V4h-2v2h1zm15 6h-2l-1-5V2l1-2h2l3 1h1v4l2 1 1 4-1 1-3 1h-3zm4-2 1-1-1-1-1-1-4 1v3h5zm-2-4V2l-2-1-1 2v2h3zm15 5-1-1-1-1h-1l-1 1c-1 2-2 2-3 1l2-1 1-5V3l1-2 2 2 3 2-1 4h2l1 1v1h-3zm0-4-2-2v3h2zm8 3V2h2l1 2 1 2h1l-1-2V2h2v6l1 3h-2l-1-1-1-2-1-1v1l-1 3h-1zm14 1-1-5V0l2 1v1l1 4v3c-1 2-2 2-2 1zM109 5l-2-2a2 2 0 0 1-1-1V1l4 1 2-2 1 1-2 2-1 1 1 3h-1z"/>
</svg>
