<?xml version="1.0" encoding="utf-8"?>
<svg xmlns="http://www.w3.org/2000/svg" version="1.1" viewBox="0 0 730 1000">
	<title>Sketch of a walled garden, with a small tree on the left, a two story building with a steep roof to the right, and three puffy clouds over hills beyond the wall in the distance. The words “Time grows young in a garden” in small capital letters surround the drawing, and both the sketch and words are framed in a decorated border.</title>
	<path d="m88 1000 1-3c1-2 0-3-6-6-7-3-8-3-8 1 0 3-1 3-8 0l-9-3-13-3c-8-3-14-4-19-3-2 1-3 0-5-1-2-3-2-7 0-7l2-2-3-1c-3 0-6-3-5-5 1-1 4-1 9 1a18181 18181 0 0 0 1-736V18l-1-9 12-2h136c88-3 104-3 164-1a3049 3049 0 0 0 275-2l108-4c4 0 4 0 5 3l1 5a42056 42056 0 0 0 4 965H418c-319 0-388 1-387 4 2 3 6 3 15 1l8-1-1 4c0 5 1 5 7 2 3-2 4-2 8-1l4 3c0 2 2 2 9 1 8 0 9 0 11 2 4 5 5 8 1 11l-4 1zm405-43a4302 4302 0 0 0 165-4h50l1-25a5042 5042 0 0 0-3-325c1-63 0-202-1-227s-1-26-3-24h-4c-1 0 1-16 5-31 1-7 2-10 1-12-1-3-2-3-4 1-4 5-5 5-6 2-1-1 1-6 4-12 5-8 5-10 4-14 0-6-2-8-4-4-1 1-2 3-4 3-1 0-4 1-5 4-3 3-4 4-5 2-1-1 0-3 5-8l7-8h-4l-4-2 6-6c4-4 5-6 5-9l2-8v-6c0-2-1-1-4 4-4 7-8 8-8 2 0-5 1-6 7-8 5-3 6-7 3-9-3-1-3-1 0-8l2-20v-12l-4 4-4 4c-2 0-1-7 3-17 3-8 3-9 1-22-1-10-2-14 0-18 1-7 2-22 0-26-1-2-1-2-3 1-3 9-8 11-10 5-1-2-1-3 1-6 4-4 13-24 13-28s-1-4-5-1c-2 1-3 1-4-1-2-4-1-8 4-12 4-4 3-6-3-8l-4-3c-1-2 1-5 3-9 5-7 5-11 0-11-3 0-19 17-20 23-1 5-6 11-9 8-2-1-1-5 2-8 7-6 1-8-7-3-8 6-13 4-9-2l3-4-8 1-10 2c-2 1-3 1-7-1l-6-3 3-4c1-4 2-4 3-3s3 3 5 3c3 2 4 1 7-1 5-4 7-4 12 0 4 3 7 5 11 5 6 1 6 1 5-2-3-4-1-7 4-7 7 0 15-2 16-4l-1-6c-2-4-2-4 0-6l1-2a3121 3121 0 0 0-176 0l-95 1a1483 1483 0 0 1-126 0h-7a2198 2198 0 0 0-231 4l-2 87c-2 112-2 276 0 294 1 9 2 96 2 262l1 248c1 0 4-9 3-12 0-3 0-4 2-6 3-2 3-2 4 3 1 4 2 5 6 4 7-1 5 2-3 6-5 3-7 4-7 6v8c-1 6 1 8 2 3 0-1 2-3 4-3s3-1 3-4c0-4 1-5 3-6l8-8 5-6c3 0 2 2-1 6-4 5-3 6 5 5 9-2 5 2-4 4s-12 4-12 8c0 3 3 5 4 2 3-5 10-8 10-4 0 2-8 7-11 7s-16 9-17 11c0 2 4 4 8 3 2-1 2-1 0-3-2-3-2-3 1-4l7 1c6 2 8 1 16-5 6-5 8-7 9-6 3 3 1 6-3 7l-4 2h4c3-1 5-1 6 1 2 1 2 2-1 3l-7 2h-3l3 2c3 4 7 4 9 1a337 337 0 0 0 93 2l109 1c35 1 98 1 192-1zm-382-6c1-3 4-4 7-2 2 1 1 3-5 4-3 1-4 1-2-2zm16 2c2-1 7-3 7-1l-3 2c-4 1-6 1-4-1zm106-8c-5-4-7-6-12-6-5-1-6-1-12 4s-7 5-9 3c-2-3-2-5 5-13l8-13c3-7 3-7 8-8 5 0 12 4 14 10 6 15 7 16 11 18s4 3 0 7c-4 5-6 4-13-2zm-8-18c-2-2-4-2-4 1l3 1c2 0 2-1 1-2zm36 23c-2-1-2-4 1-9 3-3 3-5 3-16-1-9 0-13 1-14l8-2c7 0 8 1 10 8 0 5 4 19 5 21l4-3 4-4 1 3c2 3 1 9-2 12-1 1-3 1-7-2-7-3-10-7-10-12 1-2 0-3-2-3s-3 0-4 6c0 4-2 8-4 11-4 5-5 5-8 4zm16-30c1-2-1-6-3-6-1-1-1 1-1 4 0 5 3 6 4 2zm-172 27c0-3 5-8 6-6 1 1-1 3-2 5-3 4-3 4-4 1zm255 1-1-8c1-6 1-8-2-14-4-6-4-7-2-11 2-6 7-8 15-9 6-1 7 0 9 3 3 5 3 5 1 6l-7 2c-10 0-10 7 0 9l7 2c2 2 2 2 0 4l-4 3-2 1c0 2 3 4 7 5 3 0 4 1 4 3-1 4-3 5-13 5l-12-1zm41 0c-3-2-2-6 2-12 3-4 3-5 2-10v-11c1-5 1-5 9-4 2 1 4 3 6 7 5 10 6 11 9 3 3-10 17-21 14-11l-4 9c-3 6-3 6-2 15 1 8 1 12-2 15-1 1-16-13-16-14l-2-4c-2-1-4 2-7 11-3 7-5 8-9 6zm-279-4c0-5 1-6 5-4 2 1 2 3-1 6s-4 3-4-2zm38 2c-11-3-17-13-16-25 1-6 2-7 7-13 6-5 6-6 13-6 5 0 10 1 13 3 6 2 6 3 5 8l-1 6-5-1c-5-3-16-3-18 0-2 2-5 10-5 12 0 1 12 8 15 8 4 0 4-6 0-10-4-5-1-6 5-3 4 1 7 2 11 1 5 0 5 0 5 3 0 2-2 4-4 4-2 2-4 4-5 8l-2 6-7 1-11-2zm150 0 3-4c4-4 4-10 0-18-3-6-3-6-1-8 4-5 15-2 22 4 4 3 4 5 4 11 0 7 0 9-3 12-4 4-8 5-12 2-2-1-4-1-7 1-6 2-6 3-6 0zm21-11c1-6-5-14-8-11-2 2-2 13 1 15 4 3 7 1 7-4zm219 12-8-4c-7-2-9-3-6-6s5-2 6 1 4 4 8 2c2-1 3 0 4 1 2 2 1 3-1 5l-3 1zm-25-4-8-5-9-7c-2-2-2-2-8-2-8 1-11 4-5 4 5 0 9 1 7 3l-6 1c-4 1-6 0-10-2-5-2-6-3-13-2l-10 1-4 2c-2 4-3 4-6 1-2-2-2-10 0-12h4l2 4h4l8-2 8-2 5-3 1 3 3 4 8-6c6-5 7-6 8-4 2 3 6 3 8-1 2-2 7-3 7-1l-2 4c-3 3-3 4-2 6 2 1 3 0 5-3 5-6 8-6 7 0-1 4 0 5 6 1 4-3 5-3 9-1s4 2 9-1c4-3 5-3 10-1l6 2 3-3c3-5 8-5 8 0 1 3 2 3 7 0 4-2 4-2 8 0 3 2 4 2 7 1 4-1 7 1 5 3-3 2-15 4-19 2-5-1-11 0-13 3-1 3-2 3-8-1l-5-3-14 2-20 2c-7 0-8 0-7 2s4 3 7 4l5 3c0 3-5 6-6 4zm-16-18c0-2 0-3-1-2l-1 3c1 2 2 2 2-1zm177 15c-2-2-2-6-1-7 2-1 5 6 3 8l-2-1zm-29-1c-3-1-4-5-1-7 2-2 2-2 5 3 2 5 2 5 0 5l-4-1zm37-3c-4-4-4-6-1-6l5-1 1 2-2 3-2 2c0 2 0 2-1 0zm-30-6c-2-3 1-6 5-4 4 1 4 2 1 3l-3 2c0 2-2 2-3-1zm-13-14c-1-2 2-5 4-5 3 0 2 5-1 6l-3-1zm13-3c-2-2-2-3-1-5l2-3 3 3c2 2 3 4 2 5-2 2-5 2-6 0zm11-3v-6c2-2 3 2 2 6v4zm-609-2c-1-3 1-9 3-9s3 5 1 8c-1 3-3 3-4 1zm616-3v-4c1-2 1-2 5 1l3 4c0 2-7 1-8-1zm-573-11a323 323 0 0 1 2-65c3-5 5-7 5-4l3-3 3-6c0-2 5-2 7 0 1 1 2 2 4 1 1 0 2 0 2 2l3 1c3-1 3-1 1 2-4 3-4 7-3 15 0 7 3 9 3 2 0-3 2-4 3 0 1 3-3 12-5 13s-2 1-1 3l3 10c1 9 3 12 5 7 0-3 1-3 4 0 2 2 2 2 2-2 0-2 1-3 2-2l1 3c0 2 1 2 2 2 1-1 2 0 2 2l-2 4-2 4v4l-2-4c-2-4-5-7-9-7s-5 2-3 5c2 2 2 5 2 6 0 3 1 3 12 3 9 0 12 0 11-1l-3-1c-4 1-5-3-2-7l2-2c0 2 1 4 4 7 3 5 4 5 13 5 7 0 10-1 11-2 1-2 1-2 3 0 3 3 4 1 3-5s1-7 2 0l1-5c0-9 3-11 3-3 0 9 4 12 9 9 1-1 1-1-1-1-3 1-3-5 1-9l2-9 1-9c1-2 1-2 2 1v7c-2 6-3 20-2 22s2 1 2-1l1-4 5 6v-3l2-3v3c0 5 2 6 5 2l1-4 1 3c0 4 1 4 11 5 18 1 49-1 48-3l-2-6v-5l2 4 3 5-1-5c-1-8 2-11 3-4s3 11 4 10l2 1c1 3 6 3 6 1 1-2 1-2 3 0l4 1c2-1 2-1 0-5-2-2-8-16-8-18h1c2 0 3 2 3 5 1 4 1 5 3 5 1-1 2 0 2 2 0 1 1 3 2 2l2 4c0 4 0 5 6 4 7 0 10-3 10-9 0-2 1-3 2-2v6c-2 4-1 6 1 4h4c3 1 5 0 5-5l1-2c1-1 1 0 1 3v4l2-2c0-1 1-2 4-2s3 1 3 2c-1 2 0 3 1 3 3 0 3-3 3-12-1-7-1-8 1-6l2 8c2 9 4 6 3-3v-6c1 4 4 2 4-3l2-5 1 3c-2 13-2 14 0 17 1 1 3 2 5 1l2 2c2 4 13 5 14 0l2-1c1 1 2 0 2-1 1-2 2-3 3-2l7 1c5 0 6 0 7 2 0 2 1 3 2 3 2 1 2 0 2-3-1-3-1-3 1-1 3 3 6 3 8 0 2-2 6-3 6-1l-2 3c-3 2 2 3 9 1 6-2 14-2 18 1 1 0 3 0 5-2 3-3 3-3 6-1s4 2 5 1h4c3 2 10 0 11-2 1-4 2-6 4-6l1-1h2c3 2 3 4 0 4-3-1-6 2-5 4 0 2 2 2 6 2 5 0 6 0 5-2l2-2 4 2c1 2 4 2 9 2h7l-1-5 1-9 1-1c0 4 4 3 6-1 2-3 3-3 3 1l-3 4c-4 3-4 6-1 9h4c1-2 2-2 2-1l6 2c6 0 8-1 8-7l1-3 1 4c0 5 2 6 9 6 3 0 4-1 5-5l2-10c0-4 0-6 1-4s3 1 6-5c1-3 2-4 3-3 2 1 0 9-3 10-5 2-6 4-5 9 3 8 7 10 7 4 0-3 0-3 2 0l2 3 1-3c1-2 2-2 3-1s2 1 2-1c1-2 2-2 3 0 1 1 2 0 2-2 1-2 1-1 1 2 0 5 3 7 3 1 0-3 0-3 1 0 2 4 7 4 14-1 4-2 6-6 3-6l-1-1c2-2 5-1 5 2 0 2 0 2 2 1 4-1 11-3 12-2s2-3 2-9c0-9-5-9-7-1l-2 5-1-5v-6l2-3c1-2 1-2 2-1l3-1c2-2 4-3 5-2 1 0 2-1 2-3l3-3 4-8c0-1-2 0-4 3-5 6-6 6-7 2 0-4-7-4-6 0l-2 3c-3 2-3 1-2-4 2-4 3-5 5-5s3-1 3-3c0-3 0-4 2-2l2 4c0 5 2 4 3-1s0-10-2-10l-1-1c0-2 3-2 4 0 0 1 1 1 1-1 0-3-2-6-5-5h-2c0-3-2-2-3 1 0 3 0 3-3 1-3-3-11 0-9 3s2 6-1 3l-2-5-1-2c-2 0-2-5 0-7l3-3-1 4c-1 5 1 6 4 1 1-3 1-3 5-1s4 2 8-2l5-5-1-5c-1-4-1-4 3-6 2-1 4-2 4-4s1-1 1 2c0 5 0 7-3 8-2 1-2 2-1 2v7c-3 6-2 8 1 5 2-3 2-2 4 9 2 8 2 12 1 19l-1 14 2 18c0 16-1 17-14 15h-26l-151 2a21230 21230 0 0 0-351 4zm14-6c1-3 3-4 3-1l1-1 1-7c-1-5-1-5-4-5-4 1-4 1-2-4v-8l-5-8v-4c2-2 2-2 4 1 1 3 1 3 2-4 1-10 3-12 6-7l1 2c-4-1-5 2-5 10 0 6 0 8 2 10 2 1 3 3 3 5l1 5c2 1 2 6 0 7v2c2 2 2 3 1 5-1 4 0 5 3 5s4-2 2-5c-2-4-4-18-2-17l2-1c1-1 0-2-1-2-1-1-2-3-1-4 0-1-1-5-3-7-5-7-5-11 0-6 2 2 2 2 3 0l-2-9-2-12c0-5 0-6-4-7-5-2-8 0-7 5 0 2-1 3-4 6-7 6-7 9-5 17l4 8c1 2 1 3-2 3s-3 1-3 5c-1 4 0 5 2 5l3-5c1-3 2-3 3-1l2 3v3c-2 2-2 5 0 10 2 3 2 4 1 6l-1 4v-4c0-5-3-4-3 1 0 4 0 4 3 4l3-3zm-11-44 1-2h1l-1 3c-1 1-1 0-1-1zm-2 38v6-6zm94 7-2-1-1 1 2 1 1-1zm417-8-1-2c-2-1-4 2-3 4 0 1 4 0 4-2zm24 0-1-2c-3 0-4 2-2 4 2 1 3 1 3-2zm-10-2c0-4-2-5-2-1l1 4c1 0 2-2 1-3zm6-8c-2-2-2-1-2 1 0 3 0 3 2 2v-3zm4-12c-3-4-4-5-5-4s0 3 2 6c3 4 4 5 5 4s0-3-2-6zm-476 27-1-10c0-6 0-8-2-8-1 0-2 1-2 3l-2 2c-3 0 0-6 3-9 3-2 3-3 1-5-2-4-2-5 0-5s2-1 2-2c0-3 1-3 4-2 2 1 2 5 0 5l-1 11c0 8 0 10 3 12l2 4c0 2 3 2 5 0 2-1 4 0 4 3l-6 1-6 1c-2 1-3 1-4-1zm79 1v-3c2-1 3 1 2 2l-2 1zm5-1 2-4c1-2 1-2 1 1l-1 4-2-1zm16 1-4-8 2 1 5 3 2 2c-1 2-3 3-5 2zm-30-3-3-2c-2 0-4-4-3-8 0-1 1-3 3-3s2 0 1 2c-2 4 0 6 3 5 1 0 2-2 1-3 0-3 1-3 4-1 2 2 2 2 0 4l-2 6c0 3-2 3-4 0zm20 1v-4c1-1 2 1 2 4-1 2-1 2-2 0zm20-1v-3c2-3 4-3 4 1 0 5-2 5-4 2zm-190-1c-2-2-2-7 0-9 3-3 6-2 7 2l1 7c-1 2-6 3-8 0zm99 0c-2-4-2-14 0-15 3-2 4 1 3 9-1 7-2 8-3 6zm296 0-1-2h2l1 2h-2zm61-6-3-7c-3-3-2-5 0-7l1-1c-2 0-2-1 0-1l3-2 1 12c1 12-1 15-2 6zm-402 3 1-1 1 2h-1l-1-1zm305-4c-3-4-4-7-3-8s1 0 3 3l4 7 1 2c-1 1-3-1-5-4zm8 4v-5l2 1v3c1 2 0 3-2 1zm-277-4-2-4-3-7-1-5 3 5 5 6c3 2 3 2 0 5l-2 3v-3zm163-1c0-3 1-4 4-1v3c-3 3-4 2-4-2zm87 2c-2-3-3-7-1-5l2-2c1-3 3 0 3 5 0 4-1 5-4 2zm40 0v-1l2 1-1 2-1-2zm217 0c-2-2-2-2 0-4 2-1 2-1 3 1 3 3 1 5-3 3zm-466 0-2-6c-1-5 1-6 3-1 0 4 0 9-1 7zm40-1 2-3 3-6 2-5 2-4c1-2 2-3 3-1 1 1 1 2-1 4l-1 7-1 3-5 3-4 2zm125-1c0-1 0-2 0 0v2-2zm22 1 1-1 1 1-2 1v-1zm6-1 2-4-1 4h-1zm23-2c0-3 2-6 3-4s-1 7-2 7l-1-3zm-155 1-1-8v-2l3 6c1 3 0 6-2 4zm36 0c-1-2 4-5 5-4v3c-1 2-4 2-5 1zm202 0 2-2v1c-1 2-2 2-2 1zm-268-4c0-2 1-5 2-4s3 0 3-1c2-2 2-2 3 0 1 1 0 3-1 5-3 3-5 3-7 0zm47 1-1-3c0-3 0-3 1 0 2 3 1 5 0 3zm91-5c-3-9-3-10 1-4l2 7c-1 3-1 3-3-3zm195 3c0-4 2-7 6-9 2 0 3-1 3-2l1-1-2 6c-2 5-4 7-4 4 0-2-3 0-3 3-1 2-1 2-1-1zm-250 0v-6l2-3 1 3-1 6c-1 2-2 2-2 0zm344 0c0-2 0-2 1-1l1 2c-1 1-1 0-2-1zm-473-4v-2 5-3zm17 2c0-3 1-3 2-1v4l-2-3zm9 2c-1-2 1-7 3-8l1 3c-1 4-3 6-4 5zm154 0-1-4c1-2 1-2 2 1s1 4-1 3zm21-1v-3c1-2 1-2 2 1 0 4-1 4-2 2zm195-1c-1-5 3-16 8-17l4-1c1 2-1 5-3 5-3 0-4 2-4 7l-2 6-2 3zm67-1c-3-5-4-7-2-9l1 2c0 2 3 5 4 5l1-3c0-4 3-4 4 0 0 2-2 9-4 9l-4-4zm-381 1 1-1 1 2h-1l-1-1zm122 0 1-2c1-1 1 0 1 1l-1 2c-1 1-1 0-1-1zm100 0 2-1-1 2c-2 0-2 0-1-1zm50 0c0-3-5-3-6-1-1 1-1 0-1-2 0-3 0-3 5-3s6 0 7 2v4l-1-1c0-2 0-1-2 0-1 2-2 3-2 1zm49 0 3-7c4-6 8-6 9-1 1 7 1 7-1 5-3-2-3-2-5 1s-6 4-6 2zm-368-2 2-4c2 0 3 1 1 4-1 3-3 3-3 0zm74-2c0-6 2-7 5-5 2 1 1 2-1 3l-3 4c-1 2-1 2-1-2zm-229 0c-2-2-2-5-2-17v-14l-6-1c-4 0-6 0-8 3-8 10-9 12-13 11-3-1-3-2-3-5 0-5 1-8 3-8 4 0 7-4 7-10 2-10 9-27 13-29s8 2 14 12c5 10 7 23 5 32l-2 17c-1 12-3 14-8 9zm-3-46c1-4 1-4-1-5-3-2-4-2-5 1-1 2-1 3 1 5 2 3 2 3 5-1zm114 45c-2-3-2-3 0-2s3-2 3-7c0-3 1-3 2-1 1 3 0 14-2 14l-3-4zm77 2h1l1 1-1 1-1-2zm-94-1c-2-2-1-11 1-12 1 0 2 0 3 2v1c-1-1-2 0-1 4 1 5-1 8-3 5zm176 0 1-7 1-5 1 4 2 7c0 3-3 3-5 1zm84 0 1-1 1 1-1 1-1-1zm-283-7c0-5-1-7-2-6l-3-3-1-4-2 7v-4l1-3 1-6v-7c1 0 2 1 2 5l2 6c1 2 2 1 3-2l1-5 1 4c1 4 0 21-2 24-1 1-1 0-1-6zm223 4c0-3 1-4 2-1v4c-1 0-2-1-2-3zm83 2c0-2 2-2 2 0l-1 1c-1 0-2 0-1-1zm-67-2c0-1 0-2 1-1l1 2-1 1-1-2zm75-1 1-2c2-2 2-1 2 0 0 3-2 4-3 2zm21-3c0-3 1-4 1-2v5l-1-3zm11 4c-1-2 2-9 3-8l-1 5c0 2-1 4-2 3zm-246-3c0-1 0-2 1 0v2l-1-2zm240 1 2-3c1-1 1-1 1 1l-1 3-2-1zm23 0v-2l2 1c0 3-1 3-2 1zm-378-3c1-5 3-6 3-1l-2 4-1-3zm79 2 1-2 1 2-2 1v-1zm42-2 1-1v3l-1-2zm247-2 1-5c2 1 2 6 0 9l-1-4zm15 2c-3-4-3-6 0-7 4-2 4-2 4 1l-2 3c-2 2-2 2 0 2l4-3 2-3-5 10-3-3zm-101-3c0-4 0-4 1-3v5c-1 3-1 3-1-2zm12 3 2-1 1 1c0 1 0 2-2 2l-1-2zm-202-3c-1-2-2-3-1-4l3 3c2 5 1 6-2 1zm67 2h1l1 1h-1l-1-1zm64-1h1v2c-1 1-1 0-1-2zm90 1 3-4c1 2-1 5-2 5l-1-1zm24 0 1-1 1 1-2 1v-1zm-228-1c2-2 2-2 4 0 1 1 0 1-2 1s-3 0-2-1zm320-4-2-8-2-6v-3l1 4 5 7c2 1 4 5 5 7 0 4 0 4-3 4-2 0-3-1-4-5zm-103 2v-4l1 2c1 4 0 5-1 2zm119-1c-2-6 1-7 5-4 2 1 2 2 0 4-3 4-4 4-5 0zm-376 1-2-6c0-7 2-5 3 1l1 5h-2zm32-4v-5l3-3c1-3 1-3 2 0l-2 5-2 5c-1 2-1 2-1-2zm311 2 1-2v4c-1 1-1 0-1-2zm5 1 1-5c1-1 1-1 1 2-1 5-2 6-2 3zm7 1-1-3c1-2 1-2 2 0 1 3 1 4-1 3zm31-4c2-4 2-5 0-7l-2-5c0-3-3-4-4 0-2 4-5 4-6 1l-1-3-1 3a1466 1466 0 0 1-2-1l-1-14c0-3 1-1 4 5l5 9 2-4 1-4c3 0 6 4 6 7l1 5c2 2 2 8 0 10-3 4-4 3-2-2zm-406 2 2-1v1l-1 1-1-1zm29 0 2-1v1l-1 1-1-1zm330-1c-1-1 1-7 2-7v5c-1 5-1 5-2 2zm-370 0 1-2 1 2-2 1v-1zm92-1v-2l2 2v2l-2-2zm11 0-1-3 2-1c2-1 2 4 0 5-1 1-1 0-1-1zm14-6c0-4 0-5 1-3v7c-1 2-1 0-1-4zm245 5c0-2 1-2 1-1v2l-1-1zm-140-3c0-5 4-7 4-2 1 4 1 5-2 5-1 0-2-1-2-3zm-185 0-1-7 3-1c1 0 2 0 2 3 0 5-2 7-4 5zm288 1-1-5c0-4 0-4 4-6s5-2 6-1c2 1 1 2-1 4-2 3-3 3-3 1l-2 3-3 4zm-325-1c0-1-1-2-3-1-3 1-3-2 0-4 2-2 3-1 3 1l1 5-1-1zm11-2c0-3 1-4 2-3v4c-1 2-2 2-2-1zm115 0c0-2 0-2 1-1v2c-1 1-1 0-1-1zm69 0 1-4c1-2 2-2 2-1l-2 5c0 1-1 2-1 0zm83 0c0-2 0-2 1-1 2 0 3 3 1 3l-2-2zm7 1 3-4c3-2 3-2 4 1l-1 2h-3l-3 1zm-148-2h2l2 1h-2l-2-1zm53-1 1-5c1-3 1-3 1-1l-1 6c-1 2-1 2-1 0zm53-1c0-2 0-3 1-1v3c-1 1-1 0-1-2zm17-1v-2 5-3zm90 2 1-6c1-4 1-4 1 1l-1 7-1-2zm-360-1c-2-1-2-2-1-3 2-2 3-1 3 3-1 2-1 2-2 0zm191 0c0-2 0-2 1-1v3l-1-2zm89 0 1-2 1 1-1 2c-1 1-1 0-1-1zm153-1c0-1 0-2 1-1v3c-1 1-1 0-1-2zm-80 1-2-2-1-3c1-1 1-1 3 1s2 4 1 4h-1zm39-4c0-3 0-4 1-2l-1 5v-3zm13-1v-3 7-4zm-370 3 2-1 1 1-1 1-2-1zm81-1c-1-2 2-10 4-11 3-1 3-1 1 4l-2 6c0 2-2 3-3 1zm210-1c0-1 0-2 1-1v3l-1-2zm40 0c1-1 0-5-1-9l-1-7 3 7v9c-1 3-1 3-1 0zm5 1 1-3c1-1 2-1 2 1l-2 3c-1 1-1 0-1-1zm8 0v-2l2 1c1 2 0 2-2 1zm-57-2c0-2 1-2 1-1v3l-1-2zm62 0c0-2 0-2 1-1v3l-1-2zm54 0 1-4 1-2 1 2 1 4c1 2 1 2-2 2-2 0-2-1-2-2zm-303-1v-1 2-1zm-148-2c0-1 0-2 0 0v2-2zm459-1 1-4v4c-1 4-1 4-1 0zm6 2 2-2c3-1 4-1 2 1-2 3-4 3-4 1zm-346-3-1-3c2-1 3 1 2 3 0 2 0 2-1 0zm149-2c0-3 0-4-3-4-2-1-2-2-1-3 3-3 8 5 6 9-1 2-2 2-2-2zm33 1v-1 3-2zm41-1c-1-6-1-8 1-8l1 3v9l-2-4zm47 1 1-2 2 3-2 2-1-3zm-144-2-1-4c1-1 3 2 4 5 2 4-1 3-3-1zm-234 0v-4c1-2 1-1 1 2 0 5 0 5-1 2zm7-1-2-4c1-2 2-1 4 3 2 3 3 4 1 4l-3-3zm301 1 1-6 1-4v4l-1 6-1 3v-3zm3 0 4-6 3-3v3c0 3-4 8-6 8l-1-2zm45 1 1-1 1 1-2 1v-1zm-375-3c0-1 0-2 1-1v3c-1 1-1 0-1-2zm157-1c0-2 0-3 2-1l2 2-2 2c-2 1-2 0-2-3zm9 3 1-2 1 2-1 1-1-1zm20 0-1-5 1 1c3 4 4 5 1 5l-1-1zm11-1v-3c1-1 3 1 3 3 0 3-2 2-3 0zm92 1 1-2 2 2-2 1-1-1zm65-4c-1-2 0-4 1-4 1-2 1-1 1 1h1c1-2 3-1 3 1l1-2c2-5 4-4 4 2 0 3-1 4-2 4l-5 1c-3 1-3 0-4-3zm97-4c0-7-3-13-6-12-1 0-2 0-1-2 1-4-2-6-6-4-3 1-4 1-4-1 0-3 0-3-3 0-5 4-8 2-10-5-1-5-2-5-3-4s-1 0-1-6l1-8-7 8v-4c0-2-1-4-3-5-2-2-3-3-2-4 2-2 1-7-2-7-4 0-4-1-3-8 1-5 0-7-1-8s-1-2 1-4c3-2 3-2 0-6s-3-6 0-8v-4c-1-3-2-3-4-2s-2 3-2 21c0 17 0 20 2 25 3 6 4 12 2 12l-4-3c-3-3-5-3-4 1 1 3 1 3-1 2-4-2-4-2-6 1-1 3-1 3-1-1 0-6-3-8-3-2v4l-1-4-5-6c-2-2-4-4-4-6l-1-2-1 2c0 2-2 3-4 5-4 2-4 2-4 8 1 6 1 7-2 8-5 2-6 1-6-4l1-3c1 1 2 0 3-2 2-3 1-4-2-8l-4-4v-19a506 506 0 0 1 3-46c1-1 4-15 3-16h-7c-5 0-7-1-8-2-1-3 3-9 5-9 1 0 14-18 18-28 5-10 7-22 5-29-1-4-2-5-6-6-3-2-4-2-5 0l-4 2c-2 0-4 1-6 6l-3 6-11 1c-9 0-10 0-8 2 2 1 2 1 0 1-3 0-6 4-6 6l17 2c5-1 6-2 6-4l3-3v3l-1 6-34 2-33 1c0 2 5 9 7 10 5 1 17-2 20-5l3-3 4 2c5 3 13 4 14 1 1-2 1-2 2 0v3c0 1-7 2-15 2-18 1-19 2-16 8l3 4h8c9 0 9-1 10-5s2-4 3-2l-1 6c-1 3-2 3-15 4l-19 1-7 1c-2 2-2 7 1 10 2 3 2 3 12 3 10-1 13-2 13-7l1-2c1-1 6 6 6 8s1 2 2 1h6c5 2 8 0 8-6l1-4 10 7-6 4c-7 2-9 2-32 2-18-1-25-1-28 1-5 2-24 1-27-1h-5c-2 2-4 2-7 1-6-2-8 0-5 4 2 2 3 3 1 5-1 1-2 3-1 4 0 3 2 3 13 3l14-1c2-1 2-3 2-5 0-6 2-7 5-2l1 7c-2 2-3 3-9 4l-50 1-1-3c-2-2 1-3 4-1l9 3c5 0 5 0 7-4l2-9c0-3-1-4-5-5l-4-1 5-2h11c7 0 6 1 10-9 1-5 1-6-5-6l-7-1c-3-1-3-2-3-4 1-3 0-5-2-7l-3-3 7-1 9-2c2 0 3-1 4-3 3-6-1-7-14-7-12 1-13 2-13 8 0 4-2 5-19 5l-13-1h-4c-2 2-3 2-6 1-4-1-4-1-1-1 5 0 6-2 8-6l1-3h-8l-15 1-9-1c-3-2-6-2-17 0-8 2-13 2-15 1-3-2-26-2-35-1-5 1-6 2-7 4l-3 7c-2 3-3 10-1 10 4 0 7-2 8-6l3-6c1-2 2-1 2 2l2 4c1 1 2 0 2-1 0-3 0-3 11-3l12 1 1-5 1-4 2 4 3 4a3209 3209 0 0 1 22 0l16-2c11 0 12 0 8 2-2 1-10 2-29 2-25 1-26 1-30 4l-2 2c3-3 1-4-4-3-10 1-31 14-32 19l-1 8c0 5 0 5 4 5 6 0 9-2 9-7s0-6 2-5c2 0 2 1 2 5l1 6h12c9 0 12-1 14-3s2-2 7-1c8 3 12 2 15-4 2-6 4-6 3-1-1 4 0 4 4 4 7 1 19-1 19-3 0-6-2-10-5-11-3-2-3-2 4-3 6-1 7-2 8-5 1-4 2-4 5 1 2 4 3 4 8 4 8 0 3 2-8 3l-10 2 1 6 1 6h9c10 1 12 1 12-4s2-9 3-6l1 6c0 3 0 3 7 3h10c4 1 6-2 6-9l1-4c3 1 2 12-1 14-2 2-7 3-42 3l-57 2-4 4c-2 4-2 4-3 2-1-4-7-5-13-3h-11c-9-1-15 1-14 5a3028 3028 0 0 1 10 46c2 0 3-1 3-4l1-3 3 2c2 3 3 3 10 2 12-1 13-7 3-11-4-2-5-2-9 0-4 3-8 3-8 1l1-1 4-2c2-1 2-2 1-6-1-5-1-6 1-8s2-2 5 1c2 2 2 2 0 2s-3 1-3 4c0 4 1 5 4 5l6 2c3 2 11 0 14-2l13-2 11-1v-6l-1-7c-3-2-15-2-16-1l-4 2c-3 0-3 0-1 3l1 3-4-7h-14l-6 1 2-4 4-7c1-3 1-3 3-2 2 2 2 2 0 3-3 2-3 2 0 4 2 1 5 2 11 2 8-1 9-1 11-8l2-4 2 5 2 5 8 1h10l1-7v-6l2 6c3 5 3 5 10 6 9 0 11-1 13-7l1-4 2 4 8 6c4 2 5 2 9-1 4-2 5-3 4-6l1-3c1 0 2 3 0 7-1 4-9 7-16 5h-10l-17 3-13 1-1 4c-1 5 1 8 9 9s13 0 12-4c0-4 1-4 4 0 1 2 4 3 10 3 9 1 9 1 10-3 1-6 2-6 4-2l1 4 19-1v-4c1-4 2-5 4-3h2c2-4 3-3 3 3v5l-3-1c-1-2-2-1-5 1-3 3-4 3-15 4-10 0-13 1-14 2-2 3-2 3 0 6 2 4 9 6 13 4 2-1 3-4 4-6 0-3 1-4 4-4 2 0 3 1 1 3-2 5-6 9-8 9s-2 0-1 2c2 2 2 2-2 0-5-3-14-4-22-2-13 3-12 2-11 8l1 6-2-7c-1-3-2-7-1-8 0-3-1-3-6 0l-5 2 3-6 3-7-8-1c-6 0-8 1-10 3l-3 4-2 1-2 1v3c-1 2 0 2 5 1 6 0 8 1 4 5-2 2-2 2-6-1-4-2-5-2-10 0-8 4-10 2-2-2 6-3 7-4 7-7s0-4 2-4c1 1 2 0 2-1 0-3-9-3-16-1-6 2-7 3-8 7 0 3 0 4 2 5 3 2-1 4-8 4l-7 2c-1 1-2 1-4-1h-6c-3 1-3 2-2 7 0 4 2 8 5 12l5 6-4 2c-4 2-4 2-8-2-3-3-5-6-2-5 2 1 2-4 0-12l-3-7-2-3-1-5-3-19c-3-18-5-27-6-26l-2 10c0 10-2 9-2-1-1-5 0-7 2-10s3-5 1-9l-1-7v-5c-1-2 0-4 1-6 2-3 2-4-1-6s-3-2-1-6l3-6 2-5c2-1 2 0 1 12-1 13 0 14 3 5v-16c-2-12-2-12-4-9l-2 3-2-4c-2-5 1-24 4-27l1-5 4-6c6-5 5-7-2-2-6 4-11 10-9 11l-1 3c-3 4-4 21-2 29l1 7c-1 2-5-7-6-16l-3-9c-1-2-1-6 1-6l5-11c4-9 4-12 3-14-1-3 0-4 2-7l5-10c2-5 3-7 5-7 2-1 4-3 5-6l3-4h11c13 0 13-1 17-9 2-4 2-4 0-4s-10 5-12 7l-9 1c-8 1-9 1-13 6l-7 7c-3 1-5 4-8 13-2 6-4 11-5 10l3-12c3-11 3-13 1-14v-2c2-2 1-22-2-25-2-3-2-3 1-8 6-8 7-11 6-12l-1-14-1-16c0-2 1-2 3-3 2 0 3-1 2-3v-2l5-4c1-3 4-6 7-9l4-7c0-1 1-2 3-2l6-2c3-2 3-3 2-6-2-4-4-6-6-4-1 2-1 2 2 4l3 2-7 1c-8 1-10 3-10 9 0 5-6 13-9 13-2 0-4 2-6 7-4 7-7 10-7 6l-4-4-5-1 4-2 6-2 4-6c1-4 2-5 5-5l7-1c3-1 4-1 2-4-2-2-3-2-10 2-12 5-13 5-13 1 0-3 1-5 8-10l9-6 4 4 2 5 2-5c3-5 3-6-2-6-3 0-9-2-7-3h5l3-1c-3-3-7-3-10 0s-9 4-12 3l2-6 4-5h-4c-2 0-3 1-4 4l-2 4 1 3c2 3 2 4 1 10-2 5-3 7-6 9s-5 2-6 1-1-2 1-3c2-2 2-2 0-4l-3-2c-4-1 0-4 5-4l6-2c1-2 0-4-3-2s-8 1-9-2l-3-3c-2 0-2 2 0 4 3 2 2 4-1 4-2 0-5-7-3-9l1-4v-3c2 0-1-6-8-13l-5-6 4 1 9 1c4 0 5 1 5 3l1 4c2 3 2 9 0 10l-2 4c0 2 6 7 8 7 3 0 3 0 0-5-2-6-1-8 4-10s5-2 3-4c-1-2-2-3 0-4 2-2 0-3-4-2s-4 1-5-2c0-3-1-4-3-4s-2-2 0-3l1-4c-1-1 0-3 1-3 3-2 2-11-1-11-1 0-3 2-3 4-1 4-3 3-4-3-1-3 0-5 2-8 3-5 3-5 0-6-1-1-2 0-3 3l-4 5c-2 2-2 3-1 5v5c-1 1-1 2 1 5 3 4 2 6-1 4h-4c-2 1-3 2-5 1-3-2-4-6-2-9s2-4-1-8-4-5-7-5c-4 0-4 0-4 2l1 5c0 1 2 3 4 3 4 2 4 2 2 3-1 1-3 0-6-3l-6-4-5-3c-2-3-5-3-7 0-1 2-6 1-6-1l-4-1h-4l4 4c3 3 6 4 10 4s5 0 6 2c0 2 1 3 3 2l4-1 2 2c1 6 2 7 5 4 2-2 2-2 4 3 1 3 2 4 4 4 1-1 2 0 2 1 0 4-2 5-5 2-3-1-3-1-3 1 0 3-1 3-5 1-3-1-6 2-5 5 1 2 4 2 9 0 5-3 9-1 8 3-1 3 2 4 3 1s3-1 3 2l4 6c4 4 5 8 2 8-2 0-5-2-5-3 0-3-4-2-5 1-1 2-1 2 1 4l5 2c2 0 3 1 3 3 1 3 2 4 4 4s3 2 3 3c0 4-3 4-10-1l-9-5c-2 0 0 3 3 6 4 3 4 4 3 6-3 3-1 6 4 6 3 0 3-1 3-3 0-4 4-3 7 2l4 5-4 2-7 4c-4 3-8 4-9 2l-5-1c-4 0-4 2 1 3 3 1 3 1-4 3-2 1-1 1 2 2h13c3 2 3 3 0 5-2 1-2 2 0 4 1 5 3 5 6 0 2-3 2-3-1-6-2-4-2-4-1-6h3c1 3 3 2 4-2s3-4 6 1l3 3 3 1c2 1 3 3 3 7 0 7 2 7 5 1l2-4c1-1 4 3 4 4 0 2-1 2-3 1-2 0-2 0-1 2l1 6c-1 2 0 4 1 5 2 1 2 2 1 3-2 1-2 1 0 1l1 5c0 4 0 5-4 6-4 0-4 0-4 9 0 8 0 9-1 8l-4-1c-1 1-2 0-3-2l-10-8c-8-4-8-5-16-4-12 1-14 0-12-10 0-7 0-7-4-12l-4-5-3 3c-4 3-3 5 1 5l4 4c3 5 3 5 0 5l-5 3c-2 2-2 3 0 4l4 1c7 0 10 4 5 6l-5 3c-2 2-2 2-5-2-5-3-7-4-10-1-1 2-1 2 2 5 4 3 15 2 23-2s12-3 12 2c1 5 3 6 5 3 2-1 1-2 0-4-4-5 2-2 9 4 5 4 7 7 10 13l4 8c1 0 1-8-1-10v-2l4 3 2 2c1-1 1 0 1 1l-1 2c-2 0-2 4 0 8v13c-2 13-3 14-6 9l-4-4c-1 0 1 9 3 12 2 2 1 4-2 2-1-1-2-1-3 2-2 4-3 4-5 0l-6-4c-4-2-5-2-10 0l-6 4c0 2 4 4 8 4 2 0 2 0 2-4v-3l9 6c4 4 8 6 9 6v-2c0-1 1-2 2 0v14c1 2 2 5 1 9 0 5 0 7 3 10 4 5 9 21 7 22l-1 5c0 3-1 4-2 5v1c3 2 3 8 1 15l-3 6-2-4c-1-3-3-5-4-5-4 0-3 2 0 5 3 2 3 2 2 7-2 4-2 16-1 20h3c2 0 3 1 5 6l4 8c2 1 2 1 1 3l-1 2-2 9c-2 6-2 8-1 9h3c2-2 6-16 6-19s1-3 2 2c2 6 2 7 0 9-3 3-2 4 2 3s4-1 3 2l-1 5-3-1-3-3v3c0 2 1 5 3 7l3 4 1-3c1-3 2-3 4-3 3 0 4 1 4 5 0 3 0 4-2 6l-2 4-1-1c-3-3-4-3-6 0s-5 3-3 1c2-7 2-9-1-9s-4 1-4 3v5c0 3 0 3-2 1s-3-2-4-1c-1 2-9 4-15 4-3 1-3 0-2-2l4-2 6-1c3 0 4-2 5-5l3-4c2 0 2-5 0-6a508 508 0 0 1-20 14c-7 5-11 10-9 12 1 1 2 0 3-2 2-2 2-2 1 6s-2 10-3 8v-3c1-2 1-3-1-4-3-3-2-12 2-15l14-14-9 2c-8 2-9 2-11 0-3-2-3-2-3 0-1 2-1 2-1-1l-1-5h-4v3c2 2 1 5-1 4-1 0-3 0-5 2-3 2-3 1 0-4s2-7-2-9c-6-2-8 0-8 6 1 5 0 5-6 3h-10c0-2 2-3 7-4 7-2 9-3 7-5h-3l-6-1c-4-2-6-2-8 0l-5 2-3 3h-3c-2-1-2-1-2 4 1 4 1 6 2 5 2 0 2 2 0 6l-1 15v12l-1-8c-1-5-2-33-2-73a847 847 0 0 0-2-120c0-4 1-6 2-7 2-1 2-1 0-3l-3-3h29c5 2 3-1-3-4s-12-3-14-2c-1 1-3 1-6-1l-5-2v-20l-1-26c-1-5-1-7 1-10 2-2 2-3 1-5-1-1-2-7-2-16 0-14 0-14 3-17 4-2 4-4 1-5-2 0-3-3-4-35a5369 5369 0 0 1-2-209c-1-9-2-19-1-32v-53c-1-34-1-35 2-37a1413 1413 0 0 0 156 0c155-1 345 1 379 5l7 1v48c0 51 0 54-6 67a733 733 0 0 0 0 6l4-3c1 1-7 12-9 12l-2 2c0 3 1 3 4 0 4-6 5-3 1 4-2 4-4 6-6 6-4 0-7 5-9 13-1 4-2 8-4 10l-3 6-3 5-2 8c0 3-1 6-4 9-6 6-9 12-10 16-1 3-1 3 3 3 3 0 4-1 7-5l4-6 1-5 3-8c1-3 2-4 5-2 2 1 1 2-1 5-5 6-5 8 0 5h3l-4 4-11 9c-3 5-9 10-13 12-7 5-16 17-20 27l-9 22-8 18c-4 21-5 23-12 31-7 7-8 9-5 10 1 1 1 1-1 1-3 0-7 5-12 15l-9 17-4 8h-10a2650 2650 0 0 0-24-2c-2-1-4-2-5-1l-2-1h-5c-3 2-4 2-4 0l-9-3c-7-2-7-2-11 1l-7 5c-3 2-3 3-4 1-2-2-7 0-7 3s-4 5-13 4l-7 1-9 5c-5 3-9 5-8 7l-3 1-3 2 3 1c6 0 11 3 11 5s-2 2-10-2l-8-1c-3 0-3 0-1-2s2-2 0-2c-3 0-8 2-8 4l4 1c3 0 3 1 3 3v3l-6-4c-6-4-10-5-16-2-3 2-3 2-1 4 1 2 1 2-2 1l-3-1c1-2-2-1-5 1-2 3-3 3-5 1l-3-1-7 3c-3 0-6 2-6 3l-4 1c-3-1-3 0-3 1l5 1 7 1c5 2 16 0 15-3-1-2 3-4 5-2 1 1 1 2-1 3l-1 3c1 2 1 2 3 0 2-3 4-1 2 2l-7 3-7 2c-1 1-9-1-12-3l-6-2h-4l4 2 4 2-4 2c-4 1-9 0-16-3l-1 1c0 1-1 2-4 2h-2c3-1-1-5-4-5s-7 5-5 7l-4 1c-10 0-24 7-28 14-4 9 1 11 9 3 4-5 4-6 3-8-2-2-2-2 1-1l5-1c3-2 4-2 4 1 1 4 5 4 8 2 1-1 2-2 3-1 1 2-4 11-7 12-5 2-2 2 11 3 14 0 20 3 9 3s-14 1-20 4l-10 2c-4 0-6 1-6 2-2 4 1 5 6 3l8-2c2 0 4-1 7-4 4-5 6-5 3 0-2 3-4 4-8 5-5 1-12 6-11 8l6-2c6-3 6-3 6-1-1 2 0 3 4 5 6 2 7 1 3-2l-3-2 3-2c2-1 2-1 2 1s2 4 4 5c3 2 3 2 3-2l-2-4c-1-2-1-5 1-5l2 3c0 2 1 2 5 2 6-1 6 0 1 4-3 3-4 4-3 6s5 2 15-1c3-1 4-2 2-3s-10-14-10-16l3-1 10 1c7 1 7 1 8 4 0 2-1 4-3 5-2 2-2 3-2 5v3c-2 1-2 7 0 8 3 1 9-2 9-4 0-3 3-5 5-3v3c-2 2-2 2 1 2l11-6c0-1 1-3 3-3 4 0 4-2 0-4-2 0-2-1-1-2l4 1c2 2 2 2 5 1 3-2 4-2 6 0 2 3 2 3-1 5-1 2-4 3-6 3l-6 2-4 2-2 1 8 2 12 1 5 1-4 3c-4 3-22 9-26 8-2 0 2-2 9-3l13-4-22-5c-3-1-4 0-3 2s0 3-3 4c-4 2-9 0-9-3h-11c-1 1 1 2 2 2 7 2 7 2 0 2-5 0-6 0-10-4-3-4-5-5-7-4-3 0-4 0-6-2-2-3-11-6-19-7-5-1-6 1-2 3 3 2 2 5-1 3l-10 1h-16c-8-2-11-1-8 4l3 5c1 2 1 3-2 6-4 6-9 5-9-2 0-3-1-3-8 0-5 2-5 3-6 8-1 7 1 23 2 27 2 5 5 7 9 7 7 0 11-2 11-6 0-2 1-3 2-2l3 1-1 2c0 3 3 4 11 4l11 1c4 2 6 1 11-1s6-3 5-5c0-3-1-3-4-4-4 0-23 3-25 5l-5-3c-4-3-4-3-15-3h-13c-1-2 3-3 11-5l9-2c2-2 2-2 0-5-3-3-3-4-11-4l-8-1c0-2 9-2 50-1 6 1 18 0 26-1 14-2 20-2 24 1 2 1 4 1 7-1h26l37-1a2752 2752 0 0 0 99-2c6 1 7 1 13-1s7-2 9-1l4 1a356 356 0 0 0-6-53c0 2 0 2-2 2l-7-2c-5 0-6-1-3-4s4-5 2-5l-2 2c-4 6-17 6-17 1l-1-4c-1-1 0-2 2-2 3 0 15-8 15-10l2-1-2 3c-3 4-3 4-2 6 2 3 2 3 2 1l2-4c2-1 2-1 3 1 0 2 1 3 2 3 2 0 1-3-1-6l-2-6c0-4 0-5-2-4-2 0-1 0 1-3 7-8 11-10 6-2l-4 5c0 2 4 3 8 3l3 1c2 4 3 1 2-2-3-5-3-5 0-5 1 0 3-3 3-5h-4l-3-1 4-3c3-3 5-5 4-6 0-3 9-19 11-18s1 4-3 8c-1 1-3 3-3 5l-2 7c-2 2-2 3 0 3l2 3c0 4 3 2 9-6l9-14 9-11c4-4 6-7 7-12 2-12 6-23 10-26l5-8 3-5v6c0 5-1 6-4 6s-6 6-9 17-5 17-9 22c-4 4-12 20-11 21s11-7 11-8l3-6 2-6 3-8 3-3c-4 12-4 12-2 13 3 2 5 1 9-5 2-4 3-4 2-1-1 2 0 3 1 3 3-1 7-5 7-8 0-2 1-3 5-4l7-3 4-1c2 0 3-4 3-10 0-3 2-6 5-10 4-5 5-7 5-15 1-10 2-14 5-17 2-2 2-1 1 1l-3 15-3 14c-3 4-10 20-9 22l2-3 5-7c2-2 2-3 3-7 0-2 0-2 1 0 1 1 1 1 1-2 0-4 2-6 5-4 1 2-2 7-4 9s-2 2 2 2c5 0 5 0 4 3 0 2 2 3 3 1 0-2 1-2 2 0 1 1 2 1 4-1 3-2 3-6 1-5-3 1-1-7 2-11a428 428 0 0 0 4-4c1 2 2 2 4 0 1-1 1-2-1-4s-2-2 0-8c2-5 2-6 1-7v-5c2-6 5-8 3-4l-1 5 1 2c2 1 1 2-1 7-3 7-3 10 0 7 1-1 2-2 3-1v37l-1-2c0-3-2-4-7-1s-7 5-7 12c0 3 0 4 3 3l8-2c6 0 6 0 6 5 2 6 0 29-1 32-3 4-6 6-10 4-3-1-4-1-5 2s0 4 4 5c3 1 4 1 4-1 0-7 5-4 6 3 1 3 0 5-2 8-3 3-3 4-1 9v9c0 3 0 5 2 6 1 2 1 3-2 8s-3 5-1 6c3 2 3 2-4 6-5 3-8 7-4 6a2944 2944 0 0 1 6-1c-1 3 0 3 3 0 1-2 5-1 5 2 0 2-1 3-4 3-2 0-3 1-4 3l-3 5c-3 3-3 5 0 5l3-3c1-4 3-3 4 3 1 4 1 4-5 7-7 2-9 6-7 9 1 2 6 2 8 0s3-2 3-1c0 2-6 6-9 6-3-1-4 0-5 2 0 2-1 3-3 2-4-2-5-2-5 0s2 2 7 3c6 0 7 0 6 3-2 2-1 2 3 4l4 3-11 2c-15 1-19 3-18 6 1 4-1 7-5 8-2 0-2 1 2 3 6 4 6 4 7 0 1-3 5-1 6 4 1 3 2 4 4 5 6 1 10 0 11-4s0-6-4-6-14-3-14-4l4-1c3 0 3 0 2-2l-4-2-2-1c0-1 11-2 13 0l2 3c0 3 2 3 9 2 3-1 3-1 3 1l-1 3-4 2c-1 2 0 10 3 10l1 1c0 1-4 2-11 2h-10l-1 10h5c6 0 8 1 6 3l-8 2c-8 0-9 2-1 4l11 3c0 1-1 2-3 2-2 1-3 2-3 5l-1 4c-2 2 6 11 11 12 4 1 4 1 4-2 0-4 2-7 3-6l1 7 1 7h-5l-12-2c-6-2-7-2-9 0-3 3-3 4 0 7 2 2 5 2 10 2 10 1 14 2 14 4s-2 2-6 2l-7 1c-1 1 2 9 4 9l4 2c3 4 1 6-5 4s-11-1-13 2c-2 4-3 10-1 10l5 2c3 3 5 3 9 3 4-1 6-1 6 1 2 4 4 0 3-6v-7c3-2 4 9 2 15 0 3-1 3-5 3l-6 2-4-3-6-4-6-2c-4-3-6-2-5 6 0 7 0 7 4 8 3 0 4 0 3-3l-1-3 4 3c2 3 5 4 8 4l3 1-10 1-9-1 1 6-1 8c-2 2-2 1-2-4 0-6-1-6-2-4l-2 5c0 4-2 6-4 4-1-1 0-4 3-8l4-7-4-3-6-3c-3 0-3 0 0 1 1 1 2 1 1 2l-5-1-4-1-1 19 2-1c2-2 2-2 3 2v15l6-5-1 5c-1 4-3 8-5 8l-1-8zm-7-23-1-7c-3-7-3-8 0-6h3l5-2c6-2 5-4-2-5-12-1-31-6-31-7l6-2c6-1 7-3 2-5-3-1-11 2-11 5l2 6c1 3 1 4 5 3l6 1c1 1 3 3 5 3 2 1 3 3 4 8 2 8 5 11 7 8zm-15-2v-11l-4-2c-2-2-2-2-3 1 0 2 1 9 3 13 1 1 3 1 4-1zm-43-20v3-3zm-300-1-1-1-2 2 2 1 1-2zm374-5-1-6-3-13c-2-17-2-17 0-17s2-1 2-4c0-5-5-24-6-26a245 245 0 0 0 2 65l1 7h2c2-1 3-2 3-6zm-69 2v-12c0-7-1-12-2-13v18c-1 3-1 3-3 1-1-2-1-2-3 1s-2 3 0 5l4 1 4-1zm58 0c-1-1-9-4-13-4-2 0-2 0 0 1v2c-2 0-2 0 0 1 2 2 14 2 13 0zm21-7c1-3-3-8-4-7v6c1 6 4 7 4 1zm-108 1-1-2-1 2 1 2 1-2zm-289-2-1-2c-1-1-1 0-1 2l1 2 1-2zm309-1c3-1 4-3 4-6s-1-4-3-4-3 0-2 2c1 3-3 7-4 4h-2c-1 1 0 3 1 4 3 2 2 2 6 0zm-12-1-1-2-1 2 2 1v-1zm43-2-2-4c-2-2-2-2-3 0s1 6 3 6l2-2zm-58-13c-2-2-3 2-2 8l1 6 1-7v-7zm63-5-2-33c-2-11-2-15-1-19l2-5 11-1h4l-10-1c-3-1-3-1-1-3 1-2 1-2-4-1-5 0-7-2-3-3 3-1 3-1-2-2l-4-2c1-1-1-2-4-2s-5 1-5 2c-1 2-2 2-4 2s-2 0-3 6c0 5 0 7 3 8 3 2 3 5 0 4h-4c0 1 1 2 5 2s5-1 6-3c2-4 1-7-3-6-3 0-3 0-3-3s0-4 3-4l4-1c0-3 4 1 4 4 0 1 1 2 3 2s3 1 2 4l-2 13c0 9 0 11 2 12 2 2 3 11 2 17-2 4-2 5 0 6s2 10 1 19c-1 6-1 7 1 6 2 0 2-2 2-18zm-390 13-1-3-1 3c0 2 0 3 1 2l1-2zm332-5c-2-2-2 2 0 6 0 2 1 2 1-1l-1-5zm-326 4 1-10c1-7 1-8-2-8-5-2-12-1-14 0-4 3-2 8 5 12l6 6c1 3 3 3 4 0zm-7-14-2-3 3 2c3 2 3 3 2 3l-3-2zm-5 11c0-2 0-3-3-3-3-1-5 3-2 5 2 3 5 2 5-2zm348 0c-4-3-4-2-2 2 1 2 1 2 3 1 1-1 0-2-1-3zm111-2c0-6-3-8-11-8-7 0-8 1-6 6 2 4 6 7 13 7 3 0 4 0 4-5zm-511-2c4-3 5-3 8-1 2 2 7 2 10 0 1 0 2-2 1-5s0-4 1-4l2-1-8-1-16 1h-8v6c0 9 1 10 10 5zm0-7 2-1 1 1-1 1-2-1zm41 6c3-1 4-2 4-4 0-4-2-5-9-5-4 0-4-1-4-2 1-1 5-2 15-2h13l1-4c0-5-1-9-5-12-2-1-3-2-8 0s-23 19-23 22l-2 3-2 2c0 2 13 3 20 2zm161-8c0-3 1-5 2-5 5-1-5-2-11-1-5 1-6 1-5 4 0 4 5 8 10 7 3 0 4 0 4-5zm-130 3-1-2-1 2c0 2 0 1 1 1l1-1zm135-3h-1l-1 2 1 1 1-3zm181-3c-1-2-1-2-3 3 0 4 0 4 2 2 1-2 2-3 1-5zm32 4-1-2-1 1c0 2 1 2 2 1zm-343-13c-1-3-1-4-2-3l-2 1-3 3c-1 3 1 6 2 5s2 1 3 3l2 4v-13zm339 6c-1-1-4 2-4 4 0 3 0 3 2 0 2-2 3-3 2-4zm82 3c3-3 2-10 0-9l-5 11c0 1 4 0 5-2zm-493-2c2-2 2-8-1-10-2-3-11-5-13-4l-1 7c0 6 0 6 3 6l4 1c1 2 6 2 8 0zm435-1-1-5c-1-3-1-2-1 2l1 6 1-3zm-45 0-1-1-2 1 2 1 1-1zm-365-3 2-2-2-4-4-4-5-2c-2-1-1-1 4-1 10 0 23-2 24-4l-1-6v-3l1 3c0 3 5 8 10 9 4 1 4 1 3 7l1 8c2 2 4-22 2-28-1-5-6-7-12-7-4 1-5 1-6-1s-7-2-7 0l2 3c7 2 7 2 5 3-4 2-6 1-8-2v-5c1-1 2-11 0-11l-5 1-8 2c-3 1-3 0-3-2 1-2 1-2 3-1h5l10-1c5 0 7 0 9 3 3 4 13 9 15 7l1-12c-1-9-1-10-4-13l-4-2-8 6-4-5-7-5c-3-2-3-4 0-8 2-3 3-5 2-8-2-9-2-10-7-10-7 0-9 3-4 4l4 1h-4c-3 1-6 0-6-1l-7-3c-4-1-6 0-9 2-4 3-5 3-17-1-2 0-2 0-2 6v7h9c10 0 13-2 13-6l3-4c4-2 4-2 6 0 1 2 1 2-2 4-5 4-2 7 6 7a156 156 0 0 0-20 3v6c0 4 1 5 4 6 4 2 17 0 19-2h3l5 2 2 2-10 1c-8 0-9 0-8 2 4 10 1 14-8 14-16 1-20 2-20 4v5c-2 4 4 5 14 3 3 0 4-1 3-3 0-4 1-4 3 0 1 3 1 3 10 3l11-2c2-1 2-1 0 2-3 3-4 3-10 3-7 0-8 0-4 3 2 2 1 8-2 13-2 2-4 3-8 3h-4l4 5c4 4 4 6 4 8 0 3 15 0 18-2zm25-30h3l-2 1c-1 0-2 0-1-1zm1-18c0-1 0-2 2-2s1 1 1 2l-1 1-2-1zm-10-5v-1 4-3zm341 51-2-10-2-6 1 6 1 10c0 2 0 4 1 3l1-3zm20-6c0-6-1-9-2-9-2 1-1 19 1 19l1-10zm65 7c-1-2-3 0-2 2h2v-2zm-45-4 1-6c0-4 1-6 2-7 2-2 2-2-1-5-5-4-5-6-2-6l3-1c0-2-2-2-6 0-4 1-4 3-2 17 2 9 3 11 5 8zm-389-2c1-3 0-6-3-5-4 2-3 7 0 7l3-2zm468-1c2-2 2-3 0-7-1-3-2-5-4-5l-2-1 3-2c5 0 4-2-1-3-6-1-7 1-7 9 0 4 0 7 2 8 3 4 5 4 9 1zm-86-2v-5c-2-3-2-4-4-2l-2 6c0 3 1 4 2 4l4-3zm46 2-2-2v2l1 1 1-1zm-66-4h-3c-2 1-2 1-1 2 2 2 5 0 4-2zm-391-2 7-2-1-6-4-10-6 2-9 2h-5v7c0 6 1 7 3 8 4 1 9 1 15-1zm383-4c-1-2-2 0-1 2h1v-2zm24-9 1-7c0-3-1-4-1-1l-2 4c-1 1-1-5-1-15l-1-18c-1-1-2-1-2 1 0 5-2 5-3 0l-1-4-1 4c-1 5 0 24 2 24l2-4c1-4 1-3 2 5l1 12c2 2 3 1 4-1zm69-12c0-3-1-5-2-5-3-1-3 3-1 9 2 2 3 6 3 8l1-3-1-9zm-3 7-1 2c0 2 1 2 1 1v-3zm-83-2c1-1-4-4-8-4-1 0-1 1 1 3 4 2 6 3 7 1zm40-7c0-3 0-3-2-1-1 3 0 6 2 4v-3zm59-4-1-2c0 3 1 8 2 7l-1-5zm-195 3c3-2 1-10-2-10l-7-2c-3-2-4-2-11 0-8 3-9 6-5 11 2 2 4 2 13 2l12-1zm-11-1h5c1 1 0 1-2 1-3 0-4 0-3-1zm72-3c1-2-1-2-2 0l-1 2 3-2zm18-1 5-10h-1c-1 0-9 10-9 12l5-2zm111 0-1-8-1-4h-8c-11 0-24 2-25 3l12 1 12-1-5 5-4 5 11-4 1-1 1 2c0 2 4 4 7 5v-3zm-495 0c-3-3-2-4 3-2h10c5 0 5 0 6-4 0-5-2-7-10-7l-12 1c-5 1-5 1-5 5 0 3 1 5 4 6 4 3 6 3 4 1zm-1-8v-1 2-1zm79 4c-1-1-1-1-1 1 0 3 2 5 2 2l-1-3zm22-2c-2-1-5 1-5 2h3l2-2zm300-1c-2-1-2-4 0-8 1-2 2-4 1-5l-1 2-4 8c-3 5-3 6-1 6 3 1 7-3 5-3zm65 3-2-1-3 1 2 1 3-1zm-386-14c0-4-4-10-6-8-3 1-11 2-12 0l-3-1c-1 1 11 8 13 8l2-2c1-4 3-2 3 2l1 7v4l1-4 1-6zm213 7 9 1h9c2-1 5-2 7-1 3 0 11-2 11-4l-2-3-2-3-4-1-6-2c-1-2-2-2-5-1l-5 2c-2-1-2-1 1-2 5-2 5-5 2-7-3-3-19-6-25-5-4 1-5 1-4 6 0 5-3 8-8 8s-8 2-7 6l2 4c3 2 13 4 18 3l9-1zm-24-7 2-1 1 2h-1l-2-1zm25-2c-2-3-3-3-9-2-5 0-7 0-6-1 1-2 21-2 21 0l-2 3-2 3zm128-1-2-5c-2 0-2 15 0 16 1 2 3-7 2-11zm42 7 16-3c1-2-25 0-30 2-4 1-6 3-3 3l17-2zm-35-1c2-3 1-7-1-7s-3 2-2 6c0 4 2 4 3 1zm-427 0c4-3 4-11-1-14-1-1-4-2-5-1-5 1-3 16 2 16l4-1zm54-4c0-2-6-8-8-8-3 0-3 1 2 6 4 5 6 5 6 2zm378 1-1-1-2 1 2 1 1-1zm8-2-4-2h-3l4 2c4 2 5 2 3 0zm21 0c8-1 10-2 10-3 0-2-1-2-14-1-6 1-9 2-10 4-3 2-3 2 1 1l13-1zm31-4-1-3-9-1-10 1 7 1c6 0 9 1 10 2 2 3 4 3 3 0zm-249-2 1-4c0-3 0-4-3-3l-7-1c-4-2-5-2-9 0-9 3-9 4-8 7 2 3 2 3 13 2l13-1zm171-3-1 2c0 2 0 3 1 2v-4zm20 3c6 0 6-2 1-7-4-3-8-4-10 0-2 3 0 9 3 8l6-1zm-357-7c-1-1-2 1 0 4 1 3 1 3 1 0l-1-4zm387 4c4-1 1-3-5-3l-3-1 4-2 6-2h6c3 2 6 0 4-2v-3c5-1 5-2-3-1-11 1-14 1-13 4 0 2-1 3-5 4s-7 3-7 4l-2 3 18-1zm-401-1c2-1 2-2 2-3v-2l2 3c1 3 1 3 1-1 0-5-3-8-12-12l-6-2v7c1 8 1 8 4 9 4 1 7 2 9 1zm-6-4c-2-2-2-2 1-1 2 0 2 1 2 2 0 2-2 1-3-1zm361-7c0-9-1-10-3-10s-2 0-2 4l2 9c1 7 2 9 3 8v-11zm67 5c2-2 2-3 1-4-2 0-8 1-7 2l-1 3c-1 2 0 3 2 2l5-3zm19 1 3-2-3-1-9 3-6 1 6 1 9-2zm-309-2 2-5c-1-2-2-2-9-2s-9 0-12 2l-3 3 2-3c3-3 3-3 0-4-5-1-9 1-9 4 0 5 2 6 10 6 8 1 15 0 19-1zm29 1c5-2 6-3 6-5 0-3-1-3-7-4-5 0-8 0-10 2-1 1-3 2-4 1l2-1 2-2c0-2-6-3-9-2-4 2-6 5-3 5 2 0 2 0 1 2-1 3-1 3 3 3l8 1c3 2 4 2 11 0zm186-3-1-3-1 3 1 4 1-4zm-151-1 2-4c0-2-1-2-5-2l-5 1c1 1-2 1-6 1-6 0-7 0-6-1 2-1 1-1-2-1s-4 0-4 2l1 2c1 0 2 1 2 3l1 3c0 1 20-2 22-4zm59 1 5-3 2-4c1-3-19-1-25 2-5 3-6 4-5 6 1 1 15 0 23-1zm129 1h-2v1l2-1zm-401-5-1-3-1 4 1 3 1-4zm239 4c5-1 8-5 6-8-1-1-3-1-5 1-3 1-3 1-3-1 1-2-4-3-7 0h-6c-4-2-6 1-4 5 1 3 2 3 8 3h11zm62-4 3-4-4-1c-5-3-8-2-14 1-4 2-5 3-5 6s0 3 8 2c8 0 9-1 12-4zm107 3-1-1-2 1 1 1 2-1zm-6-3c7-2 10-3 10-5 0-3-2-3-5-1s-30 4-28 2c1-1 16-6 26-7l14-3 6-2h-15l3-3c2-1 5-2 11-2l8 1-2 2c-3 3 0 2 9-1l15-3c6-1 13-4 13-6l-12 3-12 3 3-3c7-3-21-1-30 3-10 3-13 5-10 6 2 1 0 2-13 4-5 0-11 2-13 3-4 1-5 6-3 9 1 3 2 3 8 2l17-2zm-445-2v-1l-2 1v1l2-1zm133 1-1-2c-1-1-1 0-1 1l1 1h1zm362-1c0-2-5-4-8-3-5 1-2 4 5 4l3-1zm-433-2-2-2v2c2 2 3 2 2 0zm344-3-1-3-1 3c-1 1-2 3-1 4 1 2 3-1 3-4zm-175-2c3-1 3-2 1-6-1-4-1-4-13-3-12 0-15 1-15 4 0 2 6 6 8 5l4 1c4 2 8 2 15-1zm249 1c0-4-2-6-5-5l-12 2c-11 2-7 5 9 5 7 0 8 0 8-2zm-472 0c4-2 4-4 1-9-1-4-3-4-7-4l-7 2c-3 1-4 2-5 0-2-2-3-1-3 5v7h9l12-1zm135-1c2-2 1-6-3-8-2-1-5-2-10-1-4 0-7 1-7 2 0 3 3 7 5 8 4 1 13 0 15-1zm14 1c6 1 14-1 13-5 0-5-21-6-22 0-1 4 1 6 2 5h7zm43-2c2-2 2-2-2-6-3-3-4-4-10-3l-7 2h-4c-2-2-3-1-3 1l2 4 2 3c0 1 3 2 10 2 8 0 10-1 12-3zm-169 1c4-1 4-6 1-9-3-2-12-5-13-4l-1 3-2 2c-2 0-3 6-1 8h16zm25-3 2-1c3 8 5 5 5-6 0-7-1-9-3-12-3-3-3-3-17-3l-19 2c-5 2-9 0-9-4 0-3 0-3-3-3-4 0-4 0-5-5s-2-6-4-6l-10 1-6 1v24l8-1 35 1 24 1c3 0 3 1 3 3l-2 2c-3-2-13-3-14-2h-2c-1-3-4-3-5-1l1 4 2 6c-1 3-1 3 8 2l11-3zm-58-25c4-2 8-3 6-1l-5 2-4 1zm272 26c2-2-2-8-6-9-5-1-23 0-26 2-2 3 1 8 6 9s25-1 26-2zm28 1c4-1 5-4 1-7-3-4-17-4-19-1l-5 1c-3-1-4 1-1 3 5 5 17 7 24 4zm31-2c2-4 1-6-4-9-4-2-5-1-12 1-9 3-10 4-7 8 3 3 5 3 15 3 6 1 7 0 8-3zm20 1c6-2 6-5 3-9-3-3-10-3-13-1-2 1-4 2-5 1-5-1-2 4 5 8 6 4 5 4 10 1zm149 0c10 0 10-2 4-6-5-3-5-3-12-1-8 3-9 4-7 7 1 2 2 3 4 2l11-2zm-127-2c3-5 1-9-5-10l-5 1c0 1-1 2-3 2s-2 0-1 3c4 8 10 10 14 4zm40-6c-1-12-4-15-4-4 0 9 1 12 3 12l1-8zm33 3h-2v1c2 0 3 0 2-1zm-17-2 8-1c2-1 3-1 2-4l-1-4-1 3c-1 3-1 3-3-3 0-4-4-4-10-2-3 1-3 2-3 7s0 6 2 5l6-1zm25-8-2-1c-4 1-5 3-2 3l4-2zm52-7c0-2 1-2 2-2l6-3 3-3-5 2-8 2c-2 0-4 1-5 3-3 2-3 2 3 4 2 1 4 0 4-3zm-387 2-2-2-1 1 1 2 2-1zm345-1h-3c-2 2-2 2 0 2l3-2zm-51-5c2-2 1-7-2-11s-4-3-2 3c0 2 1 3 2 2v2l-1 6v1l3-3zm11 0c1-4 0-9-2-8l-1 7c0 7 2 8 3 1zm69 1h-2l-1 2 1 1 2-3zm-467-1c2-4 0-6-3-2l-2 4c2 2 4 1 5-2zm408 1c3-2 1-11-2-12s-3-2 0-3c1-1 3-6 1-6l-11 6c-3 3-3 3 0 3s4 1 7 12l2 2 3-2zm-312-2-2-1-1 1 2 1 1-1zm347-3c-1-2-3-1-3 2 0 2 0 2 2 1l1-3zm17 3 1-2-3 1c-2 2-1 3 2 1zm-376-2c3-2 6-4 7-7 3-6 15-19 18-19l2-2h-9l-6 5-4 4-1 2-1-1-1 1-5 6c-2 3-3 5-2 6 0 2 0 3-2 4-2 0-3 1-2 2s1 1 6-1zm293-17-1-16c-2-5-3 1-2 18 1 21 3 19 3-2zm-367 17c1-3-1-6-4-6-4 0-5 1-3 4 1 3 5 4 7 2zm182-1-3-1-3 1 3 2 3-2zm290-4c3-4 4-8 2-9h-5c-4 1-5 1-5 7s1 6 3 6 4-1 5-4zm-491 1c2-1 2-1 1-2-3-2-7-1-7 1s1 2 6 1zm84-3 3-3 2-2 5-6 7-7 4-1-5-4-7-3c-3-2-5 0-6 6-2 10-3 13-7 15l-4 2-1 4c-1 2 0 2 3 1l6-2zm337-4v5-5zm60 1-1-6-2 6 2 6 1-6zm-470 3c2-2 1-3-1-4-3-2-4-2-4-1-1 2 1 6 3 6l2-1zm173 0v-2c-2-1-5 1-5 2 1 2 5 2 5 0zm-134-3-1-1-1 1 1 2 1-2zm72 0 5-1c3 0 4 0 4-2 0-4-3-4-6-1-2 2-4 2-8 1-5-2-10-1-10 1l12 4c2 0 3-1 3-2zm-123-1c0-1-4-4-6-4l1 3c3 3 5 3 5 1zm34 0-9-2 8 3c1 0 2 0 1-1zm12-1c3-2 3-5 0-5-2 0-5 5-4 7 1 1 2 1 4-2zm-64 0-2-1v1l1 1 1-1zm37-3h-1c0 2 1 3 2 2l-1-2zm-30 0-2-1-1 1 2 2 1-2zm512-6c-1-1-1 0-1 2 0 3 0 4 1 3v-5zm-460 3c1-1-3-4-4-4l-5-2c-3-2-4-2-7 0-2 2-3 2-4 0l-2-4c0-1-1-2-3-1-2 0-4 0-5-2-1-4 1-7 4-6l1-1-1-1-2-1c0-2-4-2-7-1-1 1-1 2 1 6 3 5 2 9-2 9l-1 1 1 1 1 2c-1 1 1 2 8 3l13 2c3 1 12 1 14-1zm42 1c1-3-1-3-3-1s-2 2 0 2l3-1zm41 0c4-1 4-4 1-7-3-2-9 0-9 3-1 4 2 6 8 4zm372-5 3-5-6 1c-8 3-9 3-9 6 0 6 7 5 12-2zm-84 2v-7c0-3 0-3-2-3s-3 2-4 3c0 4-5 7-7 5s-2-2-2 1c0 2 1 2 4 3 9 1 10 1 11-2zm15 1-2-1-1 1 1 2 2-2zm-378-1-2-1-1-2c0-2-1-3-3-1-1 1 3 5 5 5l1-1zm342-3v3-3zm26-1 3 2c1 1 1 1 1-1l-1-5-2-3-2-4-1 8 1 6 1-3zm-414 2c-3-1-2-4 1-6l2-2-2-1c-3-2-8-2-9 0l1 2c2 0 2 1 1 2-2 3 1 6 5 6l1-1zm78-1-1-2-1 2 1 2 1-2zm106 1c2-1 2-2-1-2-2 0-3 1-3 2h4zm-127-4-1-3c-1-1-3 2-2 4s3 1 3-1zm-6-2c0-9-7-18-11-16-2 1-2 1 0 5 2 3 2 4 1 5-3 3-2 4 3 6 5 3 7 3 7 0zm134 1h-5 5zm287-1c0-1-1-2-3-2s-2 0 0 2 4 2 3 0zm16-3c4-4 4-6-4-6-3 0-4 1-4 4s1 7 3 7l5-5zm-9-21v-15l4 1c3 2 4 2 1 2-2 1-3 1-3 8v12c-1 5-1 5 2 5 4-1 7-10 4-12-1-2-1-2 2-5l7-2c2 0 3-1 3-2 0-2-5-2-9 0-2 1-3 1-1-1l2-11c0-8 0-8-4-8l-5-1-5 1-3 1h3c3 0 3 0 3 4-1 4-3 7-6 8v8l1 15 1 12 1 5 1-5 1-20zm-489 21-4-4-5-3-4 3c-4 2-5 3-3 4 3 2 16 2 16 0zm47 1-2-1v1l1 1 1-1zm86 0v-3c-1-1-2 0-3 1-1 3-1 3 1 3l2-1zm271-1-1-2-2 2 2 2 1-2zm-369 0-1-2-2 2 2 1 1-1zm86 0c3-2 1-6-2-6l-8 1c-7 0-7 1-1 4 5 2 9 2 11 1zm289-5-1-6c-1-2-1-1-1 5 0 4 0 7 1 6l1-5zm102 1c2-5 2-7-2-7-7 0-8 2-4 7 3 4 4 5 6 0zm-471-2-1-3c-2 0-3-1-3-2-1-2-3-2-6-2-7 0-7 2-1 3l6 1-4 1-5 3c0 1 1 2 2 1l5 1c7 2 7 2 7-3zm105 4c2-1 2-1 0-4-2-2-2-2 1-3 2 0 2-1 1-2-1-2-6 1-5 4l-2 1-4 2c-1 2 5 3 9 2zm-141-4-3-6c-3-5-4-5-11 0l-3 3h7c6 0 7 0 7 2s0 3 2 3l1-2zm44 0c0-1 0-2-1-1l-1 2 1 1 1-2zm349-4c-1-2-2 0-1 3l1 3 1-3-1-3zm-309 2c3-3 4-4 4-8l1-7-1-2c-3 0-4 3-4 7 0 2-1 4-4 6-4 3-5 6-2 6l6-2zm302 0h-1c0 2 0 3 1 2v-2zm27 0c-1-1 0-6 1-11l2-12 4-6c4-4 5-10 2-12l-17 11c-3 3-3 4-2 10 1 7 3 9 4 5 3-7 2-7 4-4 1 2 1 3-1 5-3 4-2 11 0 14 3 3 4 3 3 0zm64-3c0-1-1-2-2-1l-1 3c1 3 4 1 3-2zm-57-5c1-3 2-6 4-7l61-29c7-3 9-4 9-7 1-5 6-7-48 21-27 14-28 15-29 19-1 6-2 9 0 10 1 1 2-2 3-7zm-440 5-1-1-2 1 2 2 1-2zm155-1c1-1 0-1-1-1l-2 2c0 1 0 2 1 1l2-2zm262-6v6-6zm-393 5-3-2c-1 0-2 1-1 2l3 1 1-1zm429-3c5-4 5-6 0-6-4 0-8 2-10 5-3 6 4 7 10 1zm-41-8c-1-2-2-2-4 0l-3 2 7 9v-11zm-369 8 1-2c-1-1-2-1-4 1v2l3-1zm118-1-2-1c0 2 2 4 3 3l-1-2zm-137 0-1-1-1 1 1 1 1-1zm79-10c-1-3-1-3 2-4l4-2 6-6c2-4 5-6 6-7h4l2-4c0-2 0-3-2-3s-2 0 0-2 2-3-2-3c-3 0-3-1 0-4 2-3 2-3 0-3l-2-2c0-2-3-2-6 1-2 2-2 2-2 0 2-3-1-3-2 0-2 3-2 9-1 9l3-2c1-1 2 0 5 2l3 4c0 2-21 22-23 22-3 0-6 11-3 14 1 1 3 0 5-3 4-3 4-4 3-7zm22 9c4-4 2-5-2-1-3 2-4 3-2 3l4-2zm-118-2v-5c-3-3-6-3-6 1 0 3-1 4-5 3-4 0-5 1-3 3l7 1c4 0 6-1 7-3zm49 0c-1-2-4 0-3 2h3v-2zm62 1 1-4c-1-2-1-2-5 1l-3 4c1 2 5 1 7-1zm407-1c0-2-1-3-2-3l-1 3 1 3 2-3zm-502-6c0-1-7-3-9-2l2 5 2 5 3-3 2-5zm15 5c1-1-8-7-11-6-1 1-1 2 2 5 4 4 8 4 9 1zm29 1c2-2 2-2 0-4-3-3-6-1-5 3 1 3 2 3 5 1zm332-3c-1-2-2 0-1 2 1 1 1 2 2 0l-1-2zm-345-1-2-1-2 2c0 1 1 2 2 1l2-2zm82 2-2-2c-2 0-3 1-3 2l2 1 3-1zm-96-6c0-2-4-2-5 0 0 2 0 2 2 2l3-2zm110 0 9-4h-1l-4-1c-2-3-4-3-5 1l-5 4c-7 2-3 2 6 0zm246 0c1-3 0-5-2-5l-2 3c0 4 3 5 4 2zm24-2h-3v3h2l1-3zm68-5 12-10c-2 0-5 1-7 3l-11 8-10 6-2 2h2l16-9zm-365 5-1-1-1 2 1 1 1-2zm350-3c-1-1-10 4-10 5l5-2 5-3zm-21 0c4-2 4-4 1-6-1 0-4 1-7 4-4 5-4 5-1 4l7-2zm-439-9-2-3c-1-2-1-2-1 0l-1 2-4 2c-2 2-3 2-6 1-5-2-5 0 0 4l5 5 4-5 5-6zm66 8c-2-8-2-9 0-9 1 0 1-1-2-2-6-1-11-7-11-11 0-2-1-3-6-6l-7-4h-2c0 2 7 10 9 10s2 2 0 4c-2 1-1 3 3 4l4 3c0 2 10 14 12 14v-3zm85 0c1 0 2-1 2-4 1-3 1-3 9-4 13-2 11-5-4-5-9 0-9 0-8 3v4c-2 1-2 2-2 3 0 2-1 2-2 0-3-3-5-3-5 0 0 2 5 5 8 4l2-1zm38-1c0-2-3-3-4-2l-1 2c1 2 5 2 5 0zm278 0v-1l-2 1 1 1 1-1zm-379-4c1-2 0-3-3-3s-5 2-4 5 7 2 7-2zm36 2c-1-2 0-2 4-2 5 0 5-2-3-4l-4-3-2-1-2 2 2 3 2 4c0 2 0 3 2 3l1-2zm-8-1c2-1 2-5-1-5-2 0-5 4-4 5 1 2 1 2 5 0zm95 1 2-2h-9c-3 0-4 0-3 1 1 2 7 2 10 1zm-30-3h-3c-1 1 0 1 2 1l1-1zm294 0c1-3 0-3-2-1v2l2-1zm-486-5c2-2 2-2 0-4-3-2-6-2-8 0-2 1-2 1 0 4 3 3 5 3 8 0zm18 0c0-2-5-9-7-8-1 1 6 10 7 10v-2zm30 0c0-2-8-10-10-10v5l2 6c0 2 8 2 8-1zm106 0c3-3 1-5-5-4-5 1-7 3-4 5s7 1 9-1zm41 1h-3c-1 1 0 1 1 1l2-1zm255-5c0-2 1-2 2-1 1 2 3 1 7-1 5-3 7-6 6-9s-2-2-12 4c-9 6-10 8-8 11 2 2 2 2 4 0l2-4zm-398 2-3-2c-1 0-1 1 1 3 3 3 4 2 2-1zm143 1c1-2-3-3-6-3s-4 1-4 3c-1 2 0 2 4 1l6-1zm331-4c-1-2-2-3-3-2l1 4c2 4 3 3 2-2zm-450-2h-2c-1 1-1 2 1 3 2 3 2 3 2 0 1-1 0-2-1-3zm29 2c2-2 2-2 1-5 0-1-1-2-3-2-3 0-7 6-5 8 1 2 5 1 7-1zm66-3c0-2-2-2-5 1l-3 3 4-2c3 0 4-2 4-2zm251 2-1-1-1 1 1 2 1-2zm-368-1-1-2-1-3c0-3-4-6-11-8-7-3-10-2-6 1 2 2 4 3 6 2 2 0 3 0 3 2s6 9 8 9l2-1zm92 0c1-1 0-1-1-1l-4 1 2 1 3-1zm52 0c1-2-3-3-6-2-2 1-2 1 1 2 3 2 4 2 5 0zm17 0h-5c-2 1-1 1 1 1l4-1zm-217-2-4-4c-2 0-1 3 0 5 2 2 4 2 4-1zm188-1v-2h-5c-4 3-4 6 0 5l5-3zm-162-2h-2v3h2v-3zm59-5c-2-3-2-3-4-1-1 2-1 2-2 0l-2-2c-2 0-1 5 2 8l3 4 2-3c2-3 2-4 1-6zm60 6 2-4-5 3c-3 3-3 4-2 4l5-3zm67 2-2-2c-2-1-3 0-1 2h3zm262-2c0-3-1-6-2-5l-2 4c0 3 1 4 2 3l2-2zm47-3c-1-1-2 0-2 2 0 3 2 5 3 2l-1-4zm-94 3-2-1-1 1 1 2 2-2zm-355-4-4-3-1-3c0-2-1-3-2-2-2 0-3 5-1 5l5 3 4 4-1-4zm67 2c1-2 1-2-2-1l-2 2c0 2 2 2 4-1zm33 1c2-1 1-1-1-1l-5 1c-2 1-1 1 1 1l5-1zm326-3c2-1 7-4 10-4 5-2 8-3 10-6l4-5-37 18 5 1c3 0 6-2 8-4zm-483 0c1-3-5-4-10-2-4 1-4 3 2 4s8 1 8-2zm180 1-2-2c-3 0-3 0-2 2 2 2 5 2 4 0zm337-2-2-6v-6c4-4-1-10-5-6-2 2 0 18 3 20 2 2 4 1 4-2zm-352 2h-3c-1 0-1 1 1 1l2-1zm51-2-2-1-2 1 2 1 2-1zm-127-2c3-3 3-5 0-7s-5 0-5 4c0 5 2 6 5 3zm29-1-4-2c-2 0-2 1 1 3 1 1 3 2 4 1l-1-2zm84 2 4-1c5 0 8-2 6-3-3-2-10-1-13 2l-3 3h3l3-1zm264 0 5-2c2-1 4-2 4-4 2-8 2-8 3-5s3 4 3 2l5-2 11-2c-2 0-2-1 0-3l2-6c0-5-12-2-21 5l-6 3c-2 0-11 9-11 11 0 1 2 4 4 4l1-1zm-319-3 5-3h5l-9-4-8 9-5-7 5-2c5-2 5-2 4-4v-5c0-1 0-2-2-2-2-1-2-4 2-9 3-3 5-4 10-4l7-1 3-1c3 0 5-6 4-11-1-3 0-3 3-3l4-3c1-4-3-3-9 3l-9 5-3 2c-1 1 0 2 2 2 2-1 3 0 3 1 1 1 0 1-4 1l-5 2c-1 2-3 1-2-2s-2-4-7-1c-3 2-4 3-3 4 2 1 2 1 0 3h-2c-1-3-3-2-3 3l2 4 2 4 2 6c2 2-6 9-10 9l-5-1c-1-3-3-3-3 0v4c0 2 1 2 6 2l7 1 6 1c5 0 6-1 7-3zm-4-33 1-1 2 1-2 1-1-1zm290 32v3-3zm-428 1-2-2h-3l1 3c1 1 4 1 4-1zm55-1c2-2 2-2 0-4s-4 0-4 3c0 4 1 4 4 1zm106 1h9c2-2 1-2-2-4-5-2-8-1-11 2-4 4-3 5 4 2zm17 1h-3 3zm57-1-1-1-2 1 1 2 2-2zm-22-4c-2-2-5 0-3 3h3v-3zm11 3c0-1-2-3-4-2-1 1 0 3 2 3l2-1zm-44-1v-2l-1 2v1l1-1zm-151-6c-2-4-6-4-10-1-3 2-2 3 4 5s8 0 6-4zm-37-1-5-10-3 5c-1 4-1 5 2 7 4 5 6 4 6-2zm167 0c1-4 0-5-3-4s-3 2-1 6c1 4 3 3 4-2zm70 4c2-2 1-2-2-2s-3 0-2 2l2 1 2-1zm-249-2c2-3 2-3-2-4-5-2-7 0-3 4 4 3 4 3 5 0zm31 1-2-1-2 1 2 1 2-1zm117 0-2-1-1 1 1 1 2-1zm69-2c2-3 2-3-6-5-7-2-11 0-4 2l5 4c2 3 3 3 5-1zm4 3-1-2-2 1 2 1h1zm-89-7 10-4 3-3v-3l-3 2c-2 1-2 1-2-1l2-2 2-6c0-5 0-6 5-9l5-5c0-3-3-3-7-1-3 1-3 2-1 2s2 0 0 2c-1 2-3 2-5 2-2-1-10 5-12 9-1 3 3 3 4 1s6-5 8-5l-4 5c-5 6-6 7-2 6s3 1-1 3h-5c-1-1-2-1-4 1l-4 2c-2-1-4 2-4 6s0 4 4 3c2 0 7-2 11-5zm77 5-1-2-1 2 1 1 1-1zm18 0-1-1-1 1 1 1 1-1zm-158-6c-5-1-5-1-4 3 2 3 2 3 5 0 2-2 2-2-1-3zm44 4-1-3c2-3-2-3-4-1s-2 2 0 4c4 2 7 2 5 0zm130-3c3-1 5-3 5-4h-4c-6 2-10 6-9 8l2-1 6-3zm-222 1c3-2 3-2 0-4s-4-1-6 2v3c3 2 3 2 6-1zm118 1h3c2 2 3 1 5-1 2-3 3-5 1-5s-12 4-14 6c-2 1-2 1 0 1l5-1zm53 0c3-1 3-2 3-4-1-1 0-4 1-7l1-7c-1-1-2-1-2 1s-2 2-7 2l-6 2 5 1c4 0 4 0 3 2-2 2-3 11-2 11l4-1zm39-1-1-2-1 2 1 1 1-1zm-126-3c2-2 6-2 7-2l2-1-3-1-6-2c-2-1-3-1-3 2l-3 3c-2 1-2 4 0 3l6-2zm118 2c0-1 0-2 2-3s2-1-1-1l-4 1c-1 1 1 4 3 4v-1zm-192-4c-1-3-2-4-6-4l-5 1c0 2 6 6 9 6 2 0 3 0 2-3zm454 2c0-2-1-2-2-2l-1 2 1 1 2-1zm-315-3-1-2-2-2c0-2 1-2 1-1l3 2c2 0 2 1 2 2 0 3 1 3 3 2l4-2c2-1 0-4-2-4l-2-1c3-6 3-6 1-6l-6 3h-5c-2 0-3 0-2 1s0 1-1 1c-2 1-2 3-2 6 0 4 0 4 4 4l5-3zm14 2-2-1-1 1 1 1 2-1zm20-1c4-2 8-6 8-9 0-2-9 1-10 3l-2 5c-2 4-1 4 4 1zm57-1-4-1c-5 0-6 1-4 3 1 1 7 0 8-2zm13-1c0-4-2-5-5-3-2 2-3 3-1 5 2 4 6 3 6-2zm-38 1c2 0 3-2 3-3 0-2-1-2-5 0-1 2-3 2-4 1v2c2 2 2 2 6 0zm47-1-2-1-1 1 1 2 2-2zm6 0-2-1-2 1 2 2 2-2zm10 0-1-1-2 1 1 2c2 0 2-1 2-2zm11 0c0-2-1-2-2-2l-1 2 1 2 2-2zm-52-3 4-2c0-2-6-1-9 1-4 3-1 4 5 1zm227 0-2-2c-1 0-2 2-1 3 1 2 3 1 3-1zm9-2c0-1-1-2-2 0v3c1 0 2-1 2-3zm-476 1-9-5c-1 0-2 4-1 6 1 1 9 0 10-1zm100 0-1-1-1 1 1 2 1-2zm111-1-2-1-1 1 1 1 2-1zm-225-1-1-1-1 1v1l2-1zm32-1c0-4-6-7-9-6-1 0-1 1 2 4 4 5 7 5 7 2zm15 1-2-1-1 1 2 1 1-1zm54-2c0-2 0-2-2-1-2 2-1 4 1 4l1-3zm-85-8c-3-3-6-4-7-1 0 1 0 3 2 3 2 2 2 2 0 3-1 1-1 1 1 1 1-1 3 0 4 1 1 3 1 3 2 0s1-4-2-7zm92 8c-1-3-3-3-4 0l2 2 2-2zm160 0c0-1 0-2-1-1l-1 2 1 1 1-2zm-228-1v-1l-2 1 1 2 1-2zm75-1-1-1-1 2 1 1 1-2zm99-1c0-2 1-3 6-5l5-3c0-3-3-2-7 1-6 4-7 4-4 0 3-3 3-3 1-5s-7 9-4 13c2 4 3 3 3-1zm-13 2c2-1 1-4-1-4l-2 2c0 3 0 3 3 2zm26-1c2-2 2-2 0-4h-4c-5 4-1 7 4 4zm273-1c2-2 2-3 0-3-2-1-2-1-3 2-1 4 0 4 3 1zm-498-2c0-4-2-6-5-5-2 0-2 1-1 4 2 5 6 5 6 1zm120 0c-1-1-1-1-1 1v2l1-3zm129 0v3-3zm243-1c-1-2-3 0-3 2s0 2 2 1l1-3zm14 1h-2l1 2h2l-1-2zm-451-1h-2l2 2v-2zm124 1v-1l-2 1 1 2 1-2zm-63-2c0-2 1-3 2-3 2 0 2 0 1-1-2-3-2-4 2-4 5-1 5-2 3-5l-2-3-3 3-6 3c-2 1-3 2-3 4l-2 4c-4 2-1 4 3 4 3 0 4 0 5-2zm76 0c3-2 3-7 0-8l-4-3c-3-2-6 0-6 4 0 3-1 4-2 4v2h3l4 1c1 3 2 3 5 0zm13 0-2-1-1 2 1 1s2 0 2-2zm27-1c2-3 2-3-2-4l-4-2 1 4c2 5 2 5 5 2zm279 2-1-2-2 1 2 1h1zm-474-4 1-3c-1-1-9 3-9 5 2 2 6 1 8-2zm205 1c-1-2-5-4-6-3s2 5 4 5l2-2zm-237-2-1-1-2 1 2 1 1-1zm203-3 2-5c0-2-6-1-9 1-3 3-3 3-1 5 2 3 5 2 8-1zm-184 0c3-3 4-5 2-7l-5 2c-3 3-4 3-3 5 2 2 2 2 6 0zm107 0 2-3 4-5c5-5 4-8-3-5-4 1-5 1-4 3v4l-4 5c-1 2-1 3 1 2l4-1zm-121-1 3-7v-6l-4-2c-2-2-4-2-7 1-2 2-2 2 1 4h5c3-1 1 2-1 4-3 2-3 2-2 5 2 3 4 3 5 1zm-17-2c-1-2-3-2-3-1 0 2 1 3 3 3v-2zm171 0c3-2 3-3 3-5-2-4-3-6-6-6s-3 3-1 5v5c-2 4-1 4 4 1zm73 0c1-1 1-2-1-2-2-1-6 1-5 3s4 1 6-1zm9 1h-3c-1 1-1 1 1 1l2-1zm-22-3c0-3 0-3-2-1s-2 4 0 4l2-3zm-152-3h-3c-2 1-2 1 0 3 1 2 1 2 2 0l1-3zm83 1v-2c-1 0-2 0-1-2s0-3-2-3-3 1-2 3c0 2 0 3-2 2-3-1-3 1-1 2h8zm49-5c2-3 4-4 9-3l5-1c1-2-10-3-14-2l-3 4c0 1-2 3-8 5l-2 2c1 1 13-3 13-5zm-170 2c0-2-1-2-2-2-4 0-5 1-3 3s4 2 5-1zm-40-1-1-1c0 2 1 4 2 3l-1-2zm28 0c0-2-3-1-3 1-1 1 0 1 1 1s2 0 2-2zm190 1 1-3c-3-1-7 1-7 3s4 2 6 0zm6-1-2-1 1 3h2l-1-2zm300 0v-1l-1 1v1l1-1zm-471-1-2-2c-2-1-3 0-1 2h3zm86-4c3-1 7-5 6-6h-7c-7 1-9 2-8 6 1 2 2 2 9 0zm11-1-4-3c-2 1 3 6 5 6s2-1-1-3zm34 2-2-1v1l1 1 1-1zm-149-1 3-4c3-2 4-3 3-4v-1c1 0 4-1 5-3 3-2 3-3 2-4s-2-1-5 1-3 2-4 0-3-2-8-2c-6 1-8 0-12-2-6-5-6-5 0-4 5 1 6 0 4-3l-4-1c-2 1-2 1-2-1s-6-7-8-5l1 4c1 4 1 4-3 4-3 0-5 1-6 4-3 3-1 4 5 1 2-1 3 0 4 1 1 2 4 3 7 4 7 2 7 3 1 5s-6 4-1 7c3 2 5 2 7 1s4-1 6 1c3 2 5 2 5 1zm-7-9 3-3h2c0 2-2 5-4 5l-1-2zm-22 7c1-2 1-2-1-3-5-3-9-1-5 3 2 2 4 2 6 0zm152 0 6-6c3-3 5-5 4-6l-5 3-9 5c-3 2-4 2-2 4s6 2 6 0zm7-1-4-2c-3 2-1 4 5 5 1 0 1-1-1-3zm12 0-2-3c-2-1-2 2-1 4 2 1 3 1 3-1zm108-2c-1-1 2-2 8-2 13-1 14-2 13-5v-3l2 3c2 3 4 4 4 1 0-1 3-2 11-1 10 0 10 0 9-2-2-2-1-2 7-1l11 3c2 3 14 5 14 3l-6-3-5-3c-1-2 0-2 2-1 3 2 4 2 7 1 3-2 3-1 4 2l1 4h13c9 0 12-1 12-2l-6-2c-4 0-6-1-8-3-1-3-2-3-5-3-3 1-4 1-4-2-1-3-1-3-7-3-5 0-6 0-6-3 1-3-7-4-11-1-2 2-3 3-5 2-4-2-10-1-10 1-2 2-3 2-4-1-1-2-1-3-5-2-6 1-6 2-6 5s0 3-5 3c-4-1-5-1-8 2l-9 4c-9 2-20 7-16 7l3 3c2 3 6 2 5-1zm76 3h-7 7zm33-3c-1-1-6 1-6 2h3l3-2zm-96 1-2-1-2 1 2 1 2-1zm26-2c0-2-3-2-4 0l2 2 2-2zm-140-5c7 0 10-1 10-2l-5-1c-6 0-7-2-3-4 5-2 6-3 4-4-1-1-2-1-5 2-4 3-4 3-6 1-1-2-2-2-4 2l-3 6-2 2-3 1c0 2 2 2 7 0l10-3zm-23-1-2-2c-1-1-3 2-3 4-1 2 0 2 2 0l3-2zm64 3c0-2-5-4-6-3-2 2 0 4 3 4l3-1zm-122-2c2-2 1-3-2-4-3 0-3 0-4 3 0 3 3 4 6 1zm24-1c2-2 2-2-2-2-6 0-5-3 2-6l5-3-5-6-6 8-5 7-2-3c-2-2-6-1-6 2 0 2 2 3 6 3l7 1c2 2 3 2 6-1zm21-1c0-2-2-2-4 0-2 3-2 4 1 2 2 0 3-1 3-2zm63 2h-4 4zm-202-2-2-3c-1-1-2-1-3 1v2h5zm127 0c1-2-1-3-2-1l-1 2 3-1zm67-1c0-2-1-2-4 0-1 1-1 1 1 1l3-1zm10-1c1-1 2-2 1-3 0-1-1-1-3 2-3 3-2 4 2 1zm-125-1 1-5 1-3v-3c-2-3 0-5 3-3 2 0 2 0 1-1l-1-1 4-5c1-4 3-6 6-7s4-1 4-4l2-6c1-2 2-4 1-5s-6 3-6 5l-2 5c-3 2-3 3-4 1-2-2-4 0-4 5 0 3-1 4-2 4l-3 3c-1 4-3 1-2-4s-2-9-4-6h-5l-3-1c-2 1 1 10 6 14 4 4 4 5 3 11v7c2 1 3 1 4-1zm75-4h-3v3h2l1-3zm-60-2c-1-5-3-6-4-2 0 3 1 6 3 6l1-4zm50 0 6-5c0-2-1-2-3 0l-6 2c-5 0-5 0-5-4s-2-5-3-1c-1 2 2 12 3 11l8-3zm77 2h-3 3zm9-3c2-1 2-2 0-2l-3 2h3zm-123-4c1-1 1-3-1-8l-3-5-2 6c-4 10-4 10 1 9l5-2zm56-5c-1-3-1-3 1-3 3 0 7-5 7-8s-2-3-5 0l-4 3c-2 0-3 1-4 3l-5 4c-5 1-5 3 0 3 4 0 5 1 6 3v3l3-3c2-2 2-3 1-5zm-171 2-1-4c-2-2-4 3-3 6s3 2 4-2zm216 1c1-2-1-2-2 0l-1 2 3-2zm-62-3-1-2-2 2c0 3 2 2 3 0zm32 1h-2c-1 1-1 1 1 1 1 0 2 0 1-1zm-51-3c2-1 1-4-2-4-6 0-8-5-3-7 2 0 3-1 3-2 0-2-5-3-6-1h-3c-2-2-2-1-4 7v6h5l5 1c0 2 3 2 5 0zm81-5c-2-1-5 3-5 5s1 1 3-1l2-4zm-67 2-2-2c-3 0-2 3 2 4v-2zm-126-1c2-2 2-3 1-4-2-1-9 3-8 5 1 1 6 1 7-1zm201-1-1-1-1 1 1 1 1-1zm-221-6c5 0 6-2 1-5-3-2-5-3-7-2-3 2-4 6-2 10l2 2 1-2c1-2 2-3 5-3zm132 2v-1l-2 1 1 2 1-2zm26 0-1-2c-1 0-2 0-2 2l2 2 1-2zm31-2c-2-2-5-2-6 0-1 1 1 2 5 2s4 0 1-2zm-142-3-1-2c-1-1-1 0-1 1l1 2 1-1zm139-2v-2l-2 2 1 1 1-1zm13 0-1-2-2 2 2 1 1-1zm-112-2v-1l-2 1 1 2 1-2zm54-1c0-2 0-2-2-1-2 0-3 2-3 2 0 1 1 2 3 2 1 0 2-1 2-3zm-148 0-1-1-1 1 1 1 1-1zm46-12h-2l-1 2h2l1-2zm10-4c-2-5-5-7-7-5s2 9 6 9c3 0 3 0 1-4zm5-6c2-3 2-8 0-8s-4 5-4 8c0 4 2 3 4 0zm262-5h-3c-2 1-1 1 1 1s3 0 2-1zm-126-2c2-2 1-5-4-9l-2-5c0-4-3-5-11-4-5 1-6 1-6-1-1-2-2-2-5-1-9 4-8 5 5 5 12 1 15 3 8 5-5 1-6 3-1 2 3 0 5 0 8 3l4 5c0 3 2 3 4 0zm-12-1-3-1-1 1 3 2 1-2zm80 0-6-1c-4 0-5 1-3 1 3 2 8 2 9 0zm66 0 7-1c1-1-13-3-17-2l-1 3 3 1 8-1zm-16-2h-2l-2 2h2l2-2zm-101-1c0-2-3-4-4-3-1 2 1 5 2 5l2-2zm24-1c0-3 0-3-4-1s-4 5 1 4c2 0 3-2 3-3zm73 1h-4l2 1 2-1zm-81-2c1-3-2-4-4-3-1 2 0 5 2 5l2-2zm38 1h-11 11zm92-1h-13c0 1 5 2 9 1 8 0 8 0 4-1zm42 1h-5 5zm-229-4-2-1c-2 1 2 4 3 3 1 0 1-1-1-2zm44-1c-3-2-4-1-3 2 1 2 1 2 4 1 2-2 2-2-1-3zm83 3 14-1 24-2 9-2h-18c-16 0-17-1-11-2 15-2 9-2-17-2h-31c-6-1-14 0-13 1l14 2c11 0 16 0 20 2l6 3h-11c-8 0-10 0-8 1h22zm-97-3c0-2-1-2-5-2-8 0-6 3 2 4 2 0 3-1 3-2zm52 1h-3l2 1 1-1zm-90-1-2-1h-1l3 1zm70-2 6-1 6-2c0-1 2-2 5-2l9-2c4-1 7 0 11 1 4 2 7 2 12 1l14-2-5-1c-8 0-11 0-13-2s-4-2-15-1c-13 1-24-1-13-2l6-1-8-2a1644 1644 0 0 1-18-3h-8c-3 2-3 2-2 0s0-3-2-5c-3-2-3-2-6 1-3 4-3 4-3 1l-4-9c-4-4-6-5-10-6l-5-2c1-2-5-4-9-3-3 1-4 0-6-2-3-3-5-4-13-4l-11 2-3 8v6h5c5-1 5-1 2-2l-4-1h3l8-2 6-1c2 2 2 2-1 2-6 0 1 3 12 4l12 2h-14c-10 0-13 1-13 2 0 4 4 5 15 6 8 0 11 0 10-1-2-1-2-2-1-3s2 0 4 2l3 3-2 2c-2 0-3 1-3 2 1 2-3 3-11 3l-6 1c0 6 23 4 28-2 2-3 3-3 4-2 2 1 2 1 0 1l-2 2c0 2 2 2 7 2l8 1-5 1c-8 0-8 2-1 5 5 2 7 2 9 1 3-1 3-1 0-1l-5-2h16l4 1-3 1c-3 0-3 0-3 2 1 2 0 3-1 3-2 1-2 1 0 1l4-1zm38-10h2c1 1 0 1-2 1v-1zm-96-16-4-1h4l6 1c2 1 2 1 0 1l-6-1zm-21 22c0-2-8-2-10 0-2 1-1 1 4 1l6-1zm54 0c-1-2-8-3-8-2s1 2 3 2h5zm19 0-1-1-1 1 1 1 1-1zm105 0-1-1-2 1 1 1 2-1zm-200-3c-2-2-3-3-4-2-2 2 0 5 4 5h3zm9-4c0-3-8-5-11-3-2 1-2 1 3 3 6 3 8 3 8 0zm11 0c1-2 3-3 3-2l6 1c5 0 5 0 2-2s-3-2-1-4c3-3 2-3-3-3-6 0-6 1-6 3 1 2 1 3-1 2-4-1-10 5-7 7s5 1 7-2zm-38 1-2-2c-1 0-2 1-1 2l2 1 1-1zm2-7c0-2 1-2 3-2 2 1 3 0 4-2l2-3 2 3c1 2 1 3-1 2h-2l8 2 10 1c2 2 4 1 4-2l-3-1-6-3c-3-2-3-3 0-3 2 0 1 0-2-2-6-2-6-4-2-5 4-2 5-1 2 2-2 1-1 1 11 1h7l-8-1c-3-1-3-1-1-3s2-4 2-8c-2-9-4-11-14-10l-12 3c-5 4-7 4-8 1 0-2-5-3-7 0-1 1-3 2-4 1l-6 1h-7c-6-2-11-1-13 4l-5 8c-3 4-2 5 3 8 4 2 4 2 6 0 4-3 6-3 4 0-3 3-3 3 2 3 4 0 4 0 4-5-1-4-1-4 1-2 0 2 2 3 4 3 3 0 7 3 6 4l-3 1c-2-1-5 2-4 4l4 1h3c1 1 4 2 8 1 6 0 7 0 8-2zm-7-2 1-2 1 2-1 2c-1 1-1-1-1-2zm8-11 2-1c2 0 1 1 1 1l-1 2-2-2zm22-7c1-1 2-2 3-1 2 1 0 3-3 3-2 0-2 0 0-2zm-33 0c0-2 4-4 5-3l-2 3h-3zm58 12-4-1-4 1c-1 1 1 2 4 2l4-2zm-16 0h-6 6zm311-23c-1-1-8-2-19-2-10 0-18 0-17 1l19 1 18 1-1-1zm-40-2h-3c-1 1 0 1 1 1 2 0 3 0 2-1zm-103-7c-5-4-5-5-4-7 1-1 1-2-1-5l-2-4 3 2 11 3 10 2c2 1 3 0 1-1-3-3-2-4 4-4 7 0 7 1 4 3-2 2-2 2 0 5l2 3 2 2c1 0 2-1 1-3s1-3 3-1h4c2-2 2-3 1-4-2-1-1-7 1-7l3 3c2 3 2 3 5 2 1-1 6-2 11-1 7 0 8 0 7-2 0-3 1-3 7-3 9 1 12 2 11 4l7 1c9 0 9 0 9-2 0-4-4-6-9-5s-8 0-8-4c0-2 0-3-2-2-2 0-3 0-3-3 0-2-2-3-5-5-5-1-6-1-10 1-5 2-8 0-6-4 0-3 0-4-2-5l-4-2-5-4-9-6c-2 0-7-4-10-7-5-5-5-6-10-5h-8l-12-2c-9 0-10 0-13 3-4 3-5 4-6 3-4-4-17 1-17 7l-1 3-1-2c3-11 2-13-5-9-4 2-4 2-3 0 0-2 0-2-4-2l-8-1c-3-2-4-2-5 0-3 4-3 11 0 13v8c2 2 2 2 0 1l-2-5c0-3-1-3-9-3l-12-1c-3-1-8 2-7 6 1 2 2 3 5 3l5 1-3 1c-3 0-3 3 1 7 5 4 8 5 11 3 2-1 4 1 1 2-1 1 0 9 1 9l2-2c1-2 1-2 4 0l6 2 4 2c1 3 1 3-2 3-2 0-2 0 0 1 1 1 3 1 6-1l5-3 2-2 3-3c2-1 3-1 6 1s3 2 1 3l-1 1-3 1c-4 1-5 3 0 5 2 1 5 4 6 7 2 3 5 5 6 5 2 0 6-5 5-7l1-2c2 0 2 0 0-4-3-5-2-6 1-6 5 0 6 3 1 3h-3l3 1 7 1c5-1 7 0 4 2-1 2-1 2 1 3 1 1 1 2-1 1-5 0-7 1-7 2l2 1 4 3 6 3c2 0 4 2 4 3l4 1c3 0 3 0-2-5zm-4-19c0-3-1-3-4-1h-2l-6-2c-4 0-5-1-6-2 0-2 1-2 3-2 2 1 3 0 3-2 1-3 3-3 7-1 3 1 3 1 1 2-3 1-3 1 1 1l3 2 2 4c2 2 3 4 1 4l-3-3zm28 0-2-2c1-1 13 1 13 2 0 2-7 1-11 0zm26-1c3-2 18-3 21-2 2 1 0 2-6 2h-15zm-43-2c-3-2-3-5 0-6l2 1c0 1 1 2 3 2l5 1c2 2 2 2-2 3l-8-1zm-59-6c-1-1-1-2 1 0l1 2c-1 0-2 0-2-2zm84 0c-3-2-4-2-1-2 4 1 10 4 7 4l-6-2zm-98-1 2-3 2 3c2 2 1 2-2 2-5 0-5 0-2-2zm39-1c-2 0-3-1-3-2l-3-1c-4 0-7-4-7-9 0-6 2-6 3 0 1 5 3 7 5 5 1-1 3 0 5 1 4 2 4 2 7-1l1-1c-1 4-4 9-5 9l-3-1zm32-4c-2-2-2-2 1-1 3 2 4 3 2 3l-3-2zm-71-1h3-3zm90-6c-1-1 0-1 2-1 3 0 3 1 0 2l-2-1zm-31-10c-2-1-1-3 0-5l3-3v3c-2 1-2 3-2 4 1 3 1 3-1 1zm147 53h-6 6zm-86-1h-3 3zm22 0h-3 3zm16-1-2-4c-2-2-3-2-7-1l-5 2h5l7 1c2 1 2 1 0 2v2l2-2zm-50 0c2-2 1-4-3-4-2 0-3 1-3 2 0 2 2 3 6 2zm66 0-3-1c-1 1-1 1 1 1h2zm-126-2-2-1c-1 0-2 0-1 1 0 1 3 2 3 0zm76-1h-3l1 1 2-1zm-6-1h-2 2zm81-1c4-1-14-3-23-2l-8 2h31zm18 1h-4 4zm-136-2-2-1c-2 0-1 0-1 1l1 1 2-1zm62 0h-3c-1 1 0 1 1 1l2-1zm-67-3-1-1-1 1v2l2-2zm52 0-3-1-3 1 4 2c2 0 3-1 2-2zm48-4h-4 4zm-177-2-2-3c-2-3-2-3-2 0l1 3h3zm-20-14-3-3-1-1v4c1 1 2 2 5 2h3l-4-2zm270 560v-2c1-1 2 1 2 2-1 2-1 2-2 0zm89-1-2-5c0-2 0-2 2 0l2 5-1 3zm-543-3 1-3 1 4-1 3-1-4zm40 1 1-4 1 3c0 5-1 5-2 1zm181 0c-1-2 0-3 2-3 3 0 4 2 1 5-2 2-3 2-3-2zm38 1c1-1 1-2 1 0v2l-1-2zm48 2 4-9c4 0 2 7-2 8l-2 1zm26-1 3-3c3-2 3-2 2 1s-5 5-5 2zm83-3 1-3c1 0 2 1 2 3l-2 4-1-4zm-335 0c-1-3-1-4 1-5 2-2 2-2 2 2-1 6-1 7-3 3zm118 2 2-3c2-1 2-1 2 1-1 2-4 4-4 2zm161-1c0-3 3-7 6-7 2 0 2 4-1 6-3 4-5 4-5 1zm-302-1 2-2v2l-1 2-1-2zm83 0c0-2 1-2 1-1v2c-1 1-1 0-1-1zm231-1c-1-2-2-5-1-7 1-5-1-7-7-4l-5 1-7-1c-9 0-11-2-8-6 2-3 2-5 0-5l-3 3-1-2 2-4c3-1 5 0 5 4 0 2 0 2 2 1 1-2 2-2 4 0h1l4-3c5-1 5-2 2-5-1-2-2-4-1-9v-7l2 4c2 2 2 3 2 1l2-2 1 5c-1 3 0 6 1 8 3 3 4 3 4 1l1-2 2 1h7c7 3 7 9 0 8-4-1-4 0-1 7 1 3 2 4 5 4 4 0 4 0 4 5s0 6-2 4c-1-1-2-1-2 1-1 2-1 2-4-1-4-3-4-3-6 0l-1 3-2-3zm6-11-2-6c-2-3-3 2-3 8-1 6 1 8 4 4 1-2 2-3 1-6zm34 10c0-3 0-4-2-4s-3 1-3 2l-2-3c-2-4-4-6-4-2l-2 4c-2 1-2 2-1 3 2 2 2 3-2 2-2 0-4-1-4-3 0-1 0-2 1-1l3-3c3-3 3-3 1-7l-3-4 4 1 4 2c2 5 5 4 8-1 2-3 2-2 3 7v10l-1-3zm16-2v-7c2 1 3 8 1 11-1 2-1 1-1-4zm9 2 1-4 1 4-1 4-1-4zm-405 1 1-2 1 1c-1 3-2 3-2 1zm183-1v-2 3-1zm40-2c1-8 2-10 3-9v7c-2 7-4 8-3 2zm-187 1c0-2 0-2 1-1l1 3-2-2zm112 0c-1-2-2-3-1-4s2-1 3 2c2 5 1 5-2 2zm50-1c0-2 0-2 2-1l2 3-2 1c-1 0-2-1-2-3zm-140 1 1-4c1-2 1-2 1 1l-1 3h-1zm146-2c-2-1-2-2 1-4l3-3v3l-1 4c-1 2-1 2-3 0zm86 2c0-3 3-7 4-7v4c-2 4-4 5-4 3zm-365-2c-2-4-1-10 0-11l1 6c0 7 0 8-1 5zm71 0 1-1 1 1-2 2v-2zm23-1 1-3 2 2-2 3-1-2zm138-1 1-4v6c-1 2-1 2-1-2zm88 2v-2l2 2-1 2-1-2zm-286-5c-2-4-2-5-4-4-3 2-3 1-2-3 1-7 3-10 3-5l1 3 2-2c0-1 0-2 1-1v17l-1-5zm216 4 2-5v-7c-2-6-1-7 2-2s3 7-1 12l-3 2zm38-1v-2c1 0 3 3 2 4l-2-2zm54 0-1-3 2 2v3l-1-2zm-284-3 1-6 2-5v-4l1 4c1 5-1 11-4 14v-3zm6 3c-1-1 0-2 2-2l4 2-3 1-3-1zm126-1c-1-2-2-3-4-3l-3-1 4-1c3 0 4 1 5 2 0 4-1 6-2 3zm79 1c0-2 2-5 3-4s-1 5-2 5l-1-1zm42-1c0-2 1-2 1-1v3l-1-2zm-290-1 1-3c1-2 1-2 1 0l-1 4c-1 1-1 0-1-1zm79 0-1-2v-1c1-3 4-2 4 2 0 2-1 3-2 3s-2-1-1-2zm-94 0-7-18c0-6 0-6 1-5l4 6 1 4v-5c0-7 3-7 3 0l1 9 1 5 2-3c2-4 4-3 5 1 0 2-1 3-5 5a466 466 0 0 1-6 1zm63-2c-1-3-1-4 1-8l2-6v16l-3-2zm260-2 1-6 1 4c0 8-1 8-2 2zm164 3c-2-1-2-1 1-1l3 1c1 2-2 2-4 0zm-169-2 1-1v3l-1-2zm-285-1 1-3c1-1 1 1 1 2l-1 3-1-2zm130-1c3-2 3-3 3-1l-2 2c-3 2-3 2-1-1zm179 2c-1-2-1-7 1-7 1 0 2 1 1 3 0 3 0 3 1 0 3-2 7-2 7 1h-2c-1-2-1-1-3 1-2 3-3 4-5 2zm25-1c-1-2 0-11 1-11l3 1c2 2 2 2 1 4l-3 5c-1 3-2 3-2 1zm-240-2 1-3c2-1 2 2 0 4-1 2-1 2-1-1zm47 0 3-2-4 5c-1 0-1-2 1-3zm23 0c0-4 3-8 5-8 1 0 2 2 2 5l-1 4h-2c-2 3-4 2-4-1zm115 1c0-4 2-7 3-6 1 0 1 2-1 4-2 4-2 4-2 2zm46 0c-3-2-5-14-3-14 1 0 2-1 2-3l1 4c0 7 0 7 3 7h2l-1 1-2 3c0 3 0 4-2 2zm147 0 3-1 5-2c3-2 4-2 4 0 0 3-10 6-12 3zm68-1c-2-3-2-4 0-4 1 0 3 5 2 6s-1 0-2-2zm-469-2c-2-3-2-9 0-10 2-2 3 0 1 2s-2 3 0 4h1c0-3 2 2 3 5 0 3-2 3-5-1zm229 2c-1-2 0-3 2-2v3l-2-1zm-295-3c0-3 0-4 1-2v3c-1 2-1 2-1-1zm6 1 2-2c2 0 0 3-1 4-1 0-2-1-1-2zm90-1c0-2 1-2 1-1v2l-1-1zm13-2 1-3 2 4-2 3-1-4zm78 2-1-6 1-3 1 3 1 6c-1 2-1 2-2 0zm-148-1h-2l-2-2c-1-1 0-2 1-1 2 0 2-1 3-3 0-3 1-4 4-4 3 1 3 1 2 4-1 6-3 9-6 6zm158-2v-2 3-1zm33-3c-1-5-2-12 0-8l2 7c1 2 2 4 1 5s-2-1-3-4zm22 4c0-2-1-3-2-2l-2-2c0-2 1-2 4-2 4 1 4 1 4-3 0-2 0-4 1-3l1 4c0 2 1 3 3 2h2c0 3-3 5-5 4s-3 0-4 1c-2 3-2 3-2 1zm-72-3c0-2 0-2 1-1 2 1 2 2 0 3s-1 1-1-2zm292 0c0-1 0-2 1-1v3c-1 1-1 0-1-2zm-85-1c0-1 2-4 5-6 3-3 4-4 3-7 0-4 2-5 3-1 1 5 0 9-3 9l-3 3c-1 4-5 5-5 2zm58-1 1-3c1-1 1 0 1 3l-1 4-1-4zm-392 1c-2-2-2-3-1-4s2-1 3 1c3 3 1 5-2 3zm71 0c-2-3-4-8-2-8l2 3c0 2 0 2 0 0 1-4 3-3 3 0 0 5-2 7-3 5zm23-2c0-4 0-4 1-1 2 2 2 4 0 4-1 0-2-1-1-3zm253 3c-1-1 0-3 2-4 3-4 4-2 1 2l-3 2zm-427-5c-4-6-3-14 1-9l4 1c2 0 3 1 3 4 0 2-1 3-2 3l-3 2c-1 2-2 2-3-1zm17 1-4-3c-3-1-4-2-2-4l2 1c2 2 5 1 5-1l3-3c2 0 2 1 1 2l-2 5c0 4-1 6-3 3zm83 0c0-2 1-2 1-1v2l-1-1zm150-2v-6c2-1 2 0 2 4 0 7-1 7-2 2zm-51 2-1-3 1 1c1 0 2 1 1 2h-1zm36-3c-3-2-4-3-2-4l2 1h2c2-1 2-1 2 2v4l-4-3zm87 1v-2 3-1zm7 0-3-4c0-4 8-4 9 1l4 3c4 0 0 2-4 2l-6-2zm-137 0 1-5 1-3v3l-1 5c-1 2-1 2-1 0zm352 0c-1-2 3-3 5-2v2h-5zm-496-2c-1-3 0-4 2-2v3c-1 1-1 1-2-1zm89 0 3-2c2 0 3 0 1 2l-2 2-2-2zm224-4c0-7 2-10 5-6 2 3 1 6-2 10-3 2-3 2-3-4zm197 4c-1-2-1-3 1-5 1-1 4 0 4 2l-2 3c-1 2-2 2-3 0zm-145 0c-1-2 0-5 2-5l1 3c0 3-1 3-3 2zm-384-2 2-2c0-2 1-1 1 1 1 1 0 2-1 2l-2-1zm84-1c0-3 0-3 3-2 2 2 2 4-1 4l-2-2zm16 1c-1-1-1-4 1-4 3 0 3 1 1 4h-2zm-138-2c-1-3 1-4 3-2 1 3 1 4-1 4l-2-2zm108 1-1-3h1l1 3h-1zm116-1v-1 3-2zm60 0-2-3c0-2-2-3-3-4l-2-1c1 0 2-1 1-4-1-4 0-4 4 3 4 6 6 14 2 9zm-195-1c0-2 0-2 2-1 2 2 2 3 0 3l-2-2zm277-1 1-2 1 2v3c-1 0-2-1-2-3zm24-1c0-3 0-3 1-1v4c-1 1-2 0-1-3zm-309 0c0-3 4-7 6-5 1 1-3 7-5 7l-1-2zm-22 0 1-1 2 1-2 1-1-1zm36 0c-2-4-3-5-1-6 0 0 2 1 2 3 2 4 1 5-1 3zm34-3 2-2v2l-1 2-1-2zm42-2c0-1 0-2 1 0v2l-1-2zm96 1c-2-2 0-3 2-1v2l-2-1zm-84-2v-1 3-2zm-181-3c0-3 0-3 2-1v4c-1 1-1 0-2-3zm240 0c2-4 5-5 5-2l-4 4-3 2zm104 2h1l1 1-1 1-1-2zm-160-3-1-5 2 4c2 5 1 6-1 1zm72 2c-1-1 0-3 1-5 2-3 3-3 3-1 1 3-3 8-4 6zm-264-2c-1-3-1-11 1-11l1 7c0 6 0 8-2 4zm16-2 1-4c1-1 2 1 2 3l-2 5-1-4zm283 0c0-5 1-4 2 1l-1 3-1-4zm-345 1c-3-3-2-7 3-21 5-12 5-16 1-15-5 0-4-6 1-16 4-8 4-10 4-17l-1-8-1 2c0 2-7 9-8 8-2-1-1-5 2-12l4-6-3-14c-3-14-3-20 1-22 3-1 4 1 3 4-2 2-1 5 1 15l4 20 5 13c5 7 5 12 1 12s-6 2-7 13c-1 6-1 7 3 8 3 2 6 8 5 12-1 2-1 3-4 1-6-3-6 5 1 12 4 5 4 8 2 11-1 2-1 2-3 0l-4-5-4 3c-4 4-4 4-6 2zm78 0c-2 0-3-2-3-3 0-3 1-3 4-1 4 3 3 6-1 4zm10-1c0-2 0-2 2-1l2 3-2 1c-1 0-2-1-2-3zm101 1-2-2 4 1 2 2c0 2-2 1-4-1zm426 0c-2-3 0-5 3-3 1 2 2 3 1 4s-2 1-4-1zm-440-1 2-1v1l-1 2-1-2zm89 0c0-2 5-3 6-1 1 1-2 3-5 3-1 0-2-1-1-2zm26 0v-4c2-1 2-1 2 2 0 4 0 4-2 2zm-77-1 2-1v1l-1 1-1-1zm190-1c2-3 3-3 2 0l-2 2v-2zm22 0c0-1 0-2 1-1v3l-1-2zm-54-4h1v2c-1 1-1 0-1-2zm39 0v-3l2 2c1 2 0 3-2 1zm-234-1 1-2 1 2-1 1-1-1zm42-1c-2-2-2-5 1-5s6 5 4 6c-1 1-3 1-5-1zm78-1c0-2 1-2 1-1v2l-1-1zm50-3c-2-6-1-6 3-2 2 3 2 4 1 5-2 1-2 1-4-3zm-136 0 1-6c1-1 2-1 1 1l-1 6c-1 3-1 3-1-1zm78 2-2-5c0-3 0-3 2-1l2 5c-1 2-1 2-2 1zm39-1 1-3c1 0 2 1 2 3s0 2-2 2c-1 0-2 0-1-2zm51-1c-2-1-2-1 0-2 1-1 2 0 2 1l1 2-3-1zm-330-2 2-1c1 0 1 2-1 2-1 1-1 0-1-1zm285-1c-1-2-1-2 1 0l1 2c-1 0-2 0-2-2zm61-1c-3-3-4-7-1-4 2 1 2 1 2-1 0-5 2-3 3 2 2 6 0 7-4 3zm8 0-2-5 3 3c2 1 3 3 2 4l-3-2zm176-2 1-6c2 0 2 6 1 9-2 4-3 3-2-3zm33 2-1-4c1-1 6 5 6 6-2 2-4 1-5-2zm-536 1 2-2c3-1 3 0 1 2h-3zm113 0v-2c2-1 4 0 4 2s-3 2-4 0zm162 0 3-2 2 1c-1 2-5 3-5 1zm-50-2c-2-2-2-5 0-4s6-4 5-6l-5-1c-3 0-3 0-1-2l2-5c0-3 2-4 4-2h4c5-1 5-1 1 4s-3 5 5 5c7-1 7-1 5 1l-7 2c-4 0-4 0-4 3s-1 4-2 4l-4 2-3-1zm66-2c0-5 0-5 4-5 5 0 7-3 5-7-2-3-2-3 5-3s8-1 10-5l2-4 1 3c2 4 0 7-5 8l-7 2c-3 1-4 1-2 3 1 3 0 3-2 4-3 1-4 2-4 5v4l-1-4c-2-3-4-3-5 1-1 2-1 1-1-2zm44 2 1-2 1 2-1 2-1-2zm-143-1 1-1 1 1-1 2-1-2zm7-2 2-1v2c-1 2-2 2-2-1zm113-1 1-4 1 3c0 5-1 5-2 1zm30 2-3-1c-4-1-4-3 2-6 5-2 8-2 7 2 0 2 0 2-1 0-3-4-4-3-3 2l-1 4-1-1zm-76-2-1-3 2 2 2 2c-1 1-2 0-3-1zm63-4c0-2-1-5-3-6-3-4-2-5 4-3 4 1 4 1 3 3l-1 5-2 4-1-3zm-122-1-3-3h8l8 1-4 1c-3 0-5 1-5 2-1 2-1 2-4-1zm59-2c-4-3-1-4 9-3s13 3 4 3l-8 1-5-1zm-12-1 1-2 1-5c0-5 2-6 3-2 2 5-3 13-5 9zm-141-4 1-2h2l-2 3-1-1zm224 1 2-2c1-1 2 0 2 1l-2 1h-2zm199-2-3-6c-1-5 3-4 5 1 1 6 1 8-2 5zm-247-2 4-9c2 0 2 4 0 8-3 5-6 5-4 1zm-26-5 2-3c0-2-2-2-7-1-5 0-7 0-6-1l22-3c0 2-5 7-7 8-4 2-6 2-4 0zm-38-4c1-2 6-3 8-1 2 1 3 1 7-1l5-4v-4c1-2 1-3 2-1 2 3 1 6-2 9s-5 4-12 4c-6 0-8-1-8-2zm54-4v-6l1-3 2 3c1 3 2 4 4 4 3 0 1 2-3 3l-4-1zm13-1c-2-1 9-3 13-2 5 1 9-1 9-5 0-3 0-3 4 1 3 4 5 4 10 2 2-1 3-1 3 1v3c-1 1-37 2-39 0zm44 0c0-1 10-4 11-3l-9 4-2-1zm198-3c1-2 1-3-1-5-3-4-3-4-4-1s-1 2-3-2c-2-5-1-6 2-5 5 2 10 15 5 15l1-2zm-480-3 1-1v3l-1-2zm28-2c-2 0-1-1 4-1l4 1c-2 2-5 2-8 0zm410-3c-5-1-3-2 3-4 5 0 9 1 7 3-1 2-4 2-10 1zm-208-2-7-2c-6-1-6-1 4-1 7-1 11-1 13-3 3-2 5-2 3 1-1 3-11 6-13 5zm-234-3c-3-1-3-4 0-7 2-2 7-3 7-1-1 3-5 8-7 8zm259-1-8-1-1-6c-2-6 0-6 2 0 1 5 2 5 17 5 6 0 7 1 6 2-1 2-6 2-16 0zm21-1c-2-1-2-2 5-3s16 1 14 3h-19zm-5-9v-1l2 1-1 1-1-1zm172-4c-2-2-2-4 0-4l2 3c0 3 0 3-2 1zm-382-6c-1-2-3-4-5-4-5-2-13-1-14 0-2 1-2 1-3-1l1-3c2-1 2-2 2-3 0-2 1-2 3 0 3 2 11 4 19 3 5-1 5-1 5-5l1-4 2 3c2 3 5 4 8 4 6 1 13-1 13-4 0-2 2-2 3 0l-3 4c-3 2-5 3-11 3-11 0-18 2-18 4l-1 4c-1 2-1 1-2-1zm431-3-2-7-2-4-2-4c0-2 1-2 4 2 3 3 4 5 3 7 0 2 0 4 2 6v3l-3-3zm-464-2c1-2 4-2 7 0 1 1 0 1-3 1s-5 0-4-1zm113-4c-5-2-4-3 1-2 6 1 8-2 7-8-1-5 0-6 3-2 2 2-1 8-5 11l-3 2-3-1zm14-4c-1-1 1-3 2-2 2 2 1 3 0 3l-2-1zm123-1c-2-1-1-2 6-4l6-3c1-1 2-1 2 1 0 4-10 8-14 6zm17 0 1-4c0-3 1-3 2-1 2 2 2 3 0 4-1 1-2 2-3 1zm-8-16c-2-1 1-1 8-1l6 1c-5 2-12 2-14 0zm199-5c-2-3-1-9 1-9l2 2v6c1 4-1 5-3 1zm-188-6c-1-2 4-3 9-2 7 1 6 2-2 2h-7zM78 630c-4-2-5-3-4-6 0-8 11-10 13-2 1 3-1 10-3 11l-6-3zm419-3c0-3 4-4 11-4 8 0 6 1-3 4-8 2-9 2-8 0zm137 1h2c1 1 0 1-2 1v-1zm48-2c-3-1-4-3-2-6 1-1 1-1 3 1 5 5 4 7-1 5zm-487-23 2-10c1-4 0 9-2 14v-4zm132 2 2-2h5c1-1 1-1 1 1-1 2-8 3-8 1zm-62-3c-1-2-4-2-6-2-6 0-7-3-1-3l9-5 4-3 4 4 6 4c3 0-10 6-13 6l-3-1zm8-4c2-2 3-2 1-4-1-1-2-1-4 1-3 2-3 6-1 6l4-3zm92 5a210 210 0 0 1 30-5l-12 2-18 3zm-304-2c-2-1-2-12 0-18l2-8 1-9c1-3 1-4 6-4 6 0 6 1 8 5l4 6c1 0 4-8 3-11l3-7 4-4 3 2c2 2 2 4 2 5-2 3-6 26-5 27 0 1-1 4-4 6-3 5-4 5-7 4l-4-7c-1-6-5-7-5-2l-2 5-2 4-2 5c-2 2-3 2-5 1zm348 0 2-1h2l-2 1h-2zm33 0 4-2 4-1-4 2-4 1zm-9-2h2l-1 1c-2 1-2 1-1-1zm54 1c-1-1 1-2 4-2 5 0 5 1 3 2h-7zm-191-4-4-2c-1 0-2 0 0-1h3l5 1 2 1c-1 3-4 4-6 1zm163 0 1-2 1 2-1 1-1-1zm222-10v-8c2-1 6 6 5 7-1 2-4 2-5 1zm-284-4h3l-1 1-2-1zm84-1h2l-2 1c-2 1-2 1 0-1zm-101-3c-2-1-2-1 2-1 3-1 5 0 6 1h-8zm120-2v-1l2 1-1 2-1-2zm-170-5c2-2 3-6 3-7s1-2 3-2 3 0 0-2c-1-2-2-3 0-5 0-2 2-3 4-3s2-1 2-2v-2c2 0 3 4 1 7-2 2-2 3-1 3l2-1c1-3 5-3 5-1l-3 2c-5 2-6 4-5 9 1 4 1 5-1 7l-8 2h-4zm10-1c0-3-3-4-4-1-2 3-2 4 1 4 2 0 3-1 3-3zm65 5 3-1v1l-4 1 1-1zm69-1h3c1 1 1 1-1 1s-3 0-2-1zm-52-2 3-2c2 0 2 0 0 2-3 2-5 2-3 0zm-9-1 4-2h2l-4 2h-2zm55-1c3-2 4-2 3 0l-3 1c-2 0-2 0 0-1zm-171-3v-2c-3-2 0-3 3-2s4 1 1 3c-2 3-6 4-4 1zm147 1h4-4zm231-1-1-3 2 2 1 2-2-1zm-312-1h-9l-9-1c0-3 2-4 8-4l8-2c2-2 3-2 4 0 1 3 1 8-1 8l-1-1zm-36-4c0-2 3-3 4-2l-2 1-2 1zm62-2 3-3 2-2v4c-1 2-3 3-5 3h-4l4-2zm-18 0c-1-1 0-1 3-1 5 1 5 2 1 2l-4-1zm-62-1c0-2 2-4 4-4l2 2c0 2 0 2 2 0s2-3 4-1 2 1 0-3c-2-5-4-6-10-6-4 0-4 0-1 1 4 2 3 3-3 3s-6-1-5-2l1-3c-1-1-3 1-5 3l-5 4c-3 0-3-2 0-3 2-2 2-2-1-4-4-3-2-8 4-8 5 0 6 2 1 3l-4 3 2 1 1 1 4-2c4-2 5-2 6-1 1 2 6 1 10-3 3-3 7-2 4 1-1 2-1 2 1 2l1 1 3 6 4 4-3 3c-4 2-17 4-17 2zm52-4c4-2 20-3 17-2l-11 2h-6zm26-1h2l-2 1c-1 1-2 1 0-1zm-326-3c-1-2 1-8 3-11 3-2 5-15 3-17l-4 1c-2 1-3 0-4-2l-2-4c0-2 18-19 20-19 7 0 9 5 3 10-3 3-3 4-3 12l1 9c3 1 9 7 9 8s-1 2-3 2-7 3-10 6l-7 5h-6zm349-1c1-2 4-3 6-4 5-1 4 0-3 3l-3 1zm263 0c0-2 0-2 1-1l1 2c-1 1-1 0-2-1zm-206-1 8-10a925 925 0 0 0 7-4l-2 4-3 3-2 4c-1 1-2 2-1 3 1 2-5 2-7 0zm-137 0h3-3zm24-2-2-6c-1-3 0-4 2-5l2-4c0-3-2-4-3-2l-1-1 2-4 2-4 1-3 1-6c-1-4 0-5 1-4l1 2c-1 2 0 2 4 3l5 1-2 4-1 4c1 1 10-1 10-3l1-1c2 1 1 3-2 5l-7 3c-2 3-2 3-5 0s-4-3-4 1c0 3 1 4 2 5 4 1 5 9 2 13-2 3-7 4-9 2zm8-3c2-2 2-2 0-4-5-4-11 0-7 4 2 2 4 2 7 0zm3-27c0-2 0-2-2-1l-2 2 2 1 2-2zm36 30 7-4 7-3c-1 2-14 8-14 7zm-27-4c-2-3-2-3 0-5s2-3-1-3l-6-2h2c3 2 9-1 10-5 1-3 1-3 4-2 5 3 1 21-5 21l-4-4zm7-1c2-3 0-4-3-3l-2 3h5zm284 1-1-3-2-4c0-3 0-4 3-2l3 3c2 0 2 3 1 6-2 3-4 3-4 0zm-336-2 2-3 2-2h3l3 1-2 2c-4 3-8 4-8 2zm153-2c0-1 3-3 4-2l-2 2h-2zm-178-3c3-2 3-2 4 0 0 1-1 2-3 2-3 1-3 1-1-2zm131 2 2-1h2l-2 1h-2zm11-1c0-2 4-5 5-3 1 0 1 2-1 3-3 2-4 2-4 0zm-19-2c0-1 1-2 3-2 4 0 4 0 0 3-3 2-3 2-3-1zm-106 0c0-2 1-2 2-2v2c-1 2-2 2-2 0zm170-3 2-2h1l-1 2h-2zm-48-3c1-1 2-2 3-1l-2 1h-1zm14-5c4-2 5-2 3 0l-4 2c-3 0-3 0 1-2zm-75-3v-5c-4-7-4-8-3-8l4 6c3 5 3 5 1 7s-2 2-2 0zm13-3c-2-3 0-3 3 0 2 1 2 2 0 2l-3-2zm16 0c2-1 4-2 6-1 7 1 7 3-1 3-7 0-8 0-5-2zm-81 0 3-1h2c-1 2-5 2-5 1zm70-2c-2-1-1-1 1-1l3 1c0 2-2 2-4 0zm18-3h2-2c-1 0-1 0 0 0zm84-1 2-2 1 2-2 1-1-1zm-25-2 2-2 2 1-2 2c-1 1-2 0-2-1zm-36 0-4-1 7-2c9-2 12-1 6 2l-4 2-5-1zm-14-1 2-1h1c-1 2-3 2-3 1zm99-1c0-2 11-13 12-12l-10 13c-1 1-2 0-2-1zm-130-7v-2c3 0 4 2 3 3s-2 0-3-1zm117-3c3-6 5-9 6-7 1 1-3 7-6 10l-3 3zm-8 2 2-3 1-1-1 3-2 1zm-100-5 1-1 1 1-1 2-1-2zm70 0 2-1 3 1-3 1-2-1zm57-2-1-6c-2 0 0-9 3-10l3-4 1-5c1-1 1-1 2 1 2 2-3 13-5 14-2 0-2 1 0 4 1 3 1 4-1 7l-2 3v-4zm-104 2 2-1h1l-3 1zm80-2 2-3 2-2-2 4c-1 2-2 2-2 1zM78 482c-1-2-2-3-4-2-3 0-3 0-3-3l1-7v-14l1-8-4-4c-4-4-4-6 0-13 2-4 2-12 1-18-1-2-2-3-4-2-2 0-3 0-4-2-2-3-1-7 3-13 2-2 3-5 3-7l2-5c2-2 2-5 1-13v-10l4-4c4-4 5-4 6-3s1 2-3 6l-4 6 3 8 3 8 3 4c2 6 1 8-5 6-4-2-6 0-6 8 0 6 1 7 5 11 6 6 7 11 1 10-4 0-4 1-1 10l7 11c3 2 4 4 3 5-1 3-4 3-6 0-3-3-5-2-5 2 0 6 2 10 7 13s5 3 4 7l-1 7c0 3-4 9-7 9l-1-3zm363 3 3-2 2 1-5 1zm82-5 4-6v3a2066 2066 0 0 0-4 3zm20 3 2-2v2l-1 1-1-1zm-23-9c1-7 4-9 3-2l-3 6v-4zm28 0 1-2c1-1 1 0 1 1-1 2-2 3-2 1zm-360-2c0-1 9-5 10-4s0 1-5 4h-5zm397-8 5-11-2 6-2 7-1 2v-4zm-44-2c0-3 7-16 7-13l-2 4-2 7-1 4-2-2zm30-5 1-4h2c2 1 2 2 1 4-2 3-5 3-4 0zm-39-2c0-2 4-5 5-4s-1 5-3 6l-2-2zm55-7 2-5c1-2 1-2 1 0l-2 5-2 3zm-31-1 2-2 1 2-2 2-1-2zm24-5 2-5c1 1-2 9-3 10s-1-2 1-5zm46 1c-1-2 0-4 2-4v4h-2zm-9-3h2l1 1h-1l-2-1zm13-5 1-1 2 1-2 1-1-1zm-43-6c-1-2 2-8 4-9 3-1 3 0 1 5s-4 6-5 4zm13-1 2-5 4-6c1-3 4-5 4-3l-8 13c-2 3-3 3-2 1zm-23-3 3-7 3-4-1 4c-1 5-4 11-6 11l1-4zm52 1 1-4 1-1c2 0 2 5 0 6-2 2-3 2-2-1zm-67 0 1-1s2-1 2-3l1-2c3 0 3 1 0 4-2 3-4 4-4 2zm59-3-1-2c-1-1-1-2 1-4 1-2 2-3 3-1v5c-2 4-3 5-3 2zm-62-8 2-3c2-3 2-3-1-3h-3l6-10c4-10 11-22 13-22l-4 10c-3 4-10 18-9 19 2 1 11-2 13-4l4-8c2-7 3-7 2 0-1 4-1 5 1 5s4-1 5-3l5-2c1 1 5-2 11-8 5-6 10-9 13-10 7-2 6-1 0 2-9 5-14 11-9 11v2c-1 2-2 2-2 1-1-1-2-1-7 2l-6 4c-2 0-2 7 0 8v3l-1 1c0-2-2-2-4-1l-3 1 4-8-5 1-8 4c-2 3-3 3-4 2-1-2-4 0-4 2s-9 6-9 4zm57-2c0-3 6-15 8-15l-3 7-3 9-1 2-1-3zm22-6a612 612 0 0 1 1-6c-2 2-2 1-3-7s-1-9 1-10l2-2c0-1 0-3 2-4 2-3 2-3-1 6-2 7-2 7 0 12 3 4 3 11-1 14-1 1-2 1-1-3zm-12-1 2-2v2l-3 2 1-2zm2-25c4-9 6-11 8-9 1 2 1 2-1 4-2 1-4 4-4 6-1 4-3 7-5 7l2-8zm-33 3v-5l2-1c1 0 0 6-2 8v-2zm3-13c0-4 5-20 8-23l2-5c0-2 2-7 10-22a1159 1159 0 0 0-20 50zm29-1c2-3 4-4 4-2l-2 3c-3 1-3 1-2-1zm12-4 1-1v3l-1-2zm-20-3v-2l1 1c1 3 0 3-1 1zm52-4c0-2 4-6 5-6l3 2c1 2 1 3-1 4-4 2-7 2-7 0zm-31-2c-1-2 2-8 4-8l1 2-2 6c0 3-2 3-3 0zm-19-3 1-1 1 1-1 1-1-1zm-561-4v-6c1-3 1-3 3-1 3 3 3 6 0 9-2 2-2 2-3-2zm564-4 1-2 2 1-1 2-2-1zm16-2 2-2 1 2-1 1-2-1zm-3-7c0-4 1-6 3-4 2 1-1 8-2 8l-1-4zm-552-2-1-6c1-3 2-3 5-3 5 0 5 0 5 5 0 8-5 10-9 4zm-23-5c-7-2-8-6-7-17 1-14 2-16 10-17 6 0 7 0 9 3s3 9 1 9l-6-2c-6-3-9-1-8 6s3 11 5 10c3-1 3-3 0-3l-2-2c0-3 5-7 6-6l6 3 5 2-4 7c-6 10-7 10-15 7zm578-7c1-5 3-8 2-4v5l-2 2v-3zm-14-4 2-4c2-2 2-2 2 0l-1 4c0 2-2 2-3 0zm-1-10c-2-4-2-10 0-10 1 0 4 6 4 9 0 2-1 2-1 1h-3zm12-4 2-7c0-2-1-4-3-5s-2-2-1-3l1-3v-1c1 2 3 1 4-2l2-3-1 5c-1 4-2 5 0 5 3 0 5 5 3 6l-4 6c-3 7-4 8-3 2zm-18-15c1-4 2-5 2-3l-2 3c-2 3-2 3 0 0zm10-3c0-4 5-20 7-20l1-2 1-4 2-4 1-3c2 0 1 5 0 8v4c1 1 1 2-1 5l-2 3h6c-3 4-7 8-8 7-1 0-3 1-5 4l-2 2zm-14-2 2-2c1-1 1-1 1 1-1 2-3 3-3 1zm-529-9-2-9c0-5-2-5-4 1l-4 8c-2 4-3 5-7 5-6 0-6-2 0-8 3-3 4-5 4-11 0-14 5-19 11-11 4 4 4 4 6 2l2-6c1-4 2-4 5-2v11l-2 16c0 6-2 10-5 10l-4-6zm553-31c1-4 5-8 5-6l-6 10 1-4zm-582-5c-5-2-5-4-6-18 0-9 0-10 3-10 3-1 4 2 4 12 0 8 1 9 6 9 3 0 4-1 5-5 2-11 5-16 7-15 1 0 2 2 1 9 0 13-3 17-13 19-2 1-5 0-7-1zm23-39c-3-2-4-5-5-8-1-6 1-11 6-14 4-3 4-3 7 0l5 7 2 5-12 13zm6-15c-2-2-2-2-3 1-1 4 0 6 3 3 2-2 2-2 0-4zm-22-10v-8c1-7-1-15-6-25s-6-14-5-18c2-6 7-2 10 10l3 6c3 0 6-8 6-12s3-7 6-6c3 2 2 8-2 20l-4 14c0 4 2 8 5 8s1 5-4 9-6 5-9 2zm44-81c-4-1-3-5 4-10 9-6 9-5 9-17 0-11-1-13-7-10-2 1-2 2-3 8 0 9-2 11-5 4l-5-6c-3-3-3-8 0-12 2-2 3-3 7-3s7-1 13-4c8-5 9-6 11-3 3 3 4 3 8-3 5-9 9-7 12 6v9c-1 1-2 0-5-3l-3-4-3 3-4 3c-3 0-6 6-7 14 0 8 1 11 5 7 5-4 7-1 3 7-2 6-5 8-13 8-3 0-6 1-9 4-4 3-5 3-8 2zm429-2-1-9c0-5 1-6 3-6 6 0 6-2 4-8-5-10-1-17 9-15 4 1 5 0 6-2l3-2c1 0 2 7 1 12v4h-7c-8-2-8 1 1 4 6 2 7 3 8 7 2 4 2 5 0 8-3 4-8 6-14 6-4 0-6 1-7 2-3 2-5 2-6-1zm19-11c0-2-5-6-6-6-2 0-3 2-1 5 0 2 7 3 7 1zM395 93c-2-2-2-3 0-7l1-6v-8c-1-10 1-13 8-15 4 0 5 0 9 4 4 3 4 4 4 9l2 8 1 3 5 4 4 4-4 2c-4 3-7 2-11-4-4-7-6-7-8-2l-5 6c-3 3-3 3-6 2zm89-4-3-10c0-3-2-6-3-8-4-5-4-6 0-8 3-1 9 2 11 7l2 4 3-3c5-4 9-4 10 1 4 10 7 9 9-2l3-11 6-2c6 0 7 2 3 7l-8 17-4 8-1 3-6-4c-8-7-8-7-12 0l-6 6c-1 0-3-2-4-5zM62 91c-2-2-2-3 2-6 5-4 6-4 9 0 3 2 3 3 2 5-2 4-9 4-13 1zm377-5-6-10c-3-4-2-6 4-11 6-6 9-7 13-5 6 3 9 8 10 14 1 7 0 7-5 12-3 3-7 6-9 6-3 1-4 1-7-6zm15-12-3-4c-3-3-4-3-5-1-3 2-3 6 0 10l2 3 3-3 3-5zM346 87c-9-9-8-24 2-35 5-6 6-6 15-3 4 1 7 3 9 6 3 5 3 5 0 8-3 2-7 2-10-1-4-4-8-4-10-1-2 2-2 4-2 9 1 8 3 10 9 11 5 1 5-1 1-6l-3-3 3-2 11-2c8 0 9 0 9 3 1 2 0 4-2 6l-5 7c-3 6-7 8-16 8-6 0-7-1-11-5zm-105 1-1-9c1-4 0-8-2-13-3-6-3-6 0-8l11-1c10 0 12 2 6 8-3 3-3 3-1 5 1 1 2 3 1 4 0 2 1 3 3 4 3 2 4 3 4 5 0 4-1 5-6 3-4-1-6 0-10 2-4 3-4 3-5 0zm53 0c-4-3-2-12 3-12 3 0 8 9 6 10-2 2-7 3-9 2zm289-1c-4-4-2-7 6-9 5-2 6-2 8 1 4 3 1 6-9 9-2 1-3 0-5-1zm-422-2c-2-2-3-4-3-10l2-11c2-2 2-2 4 0 5 4 5 24 1 24l-4-3zm25 1c0-1 0-4 2-6 2-3 2-4 0-7s-2-8 0-12c3-3 7-3 11 0 5 3 8 3 11 0 4-4 6-3 7 5s2 10 6 11c3 1 4 4 2 7l-6 2c-5 1-5 0-8-3-2-3-4-4-6-4l-5-2c-1-1-2 0-3 3l-2 6c-3 2-8 3-9 0zm402-17c-3-4-4-4-1-8 3-3 8-3 10 0 1 2 1 3-1 6-4 4-5 5-8 2zM160 55c-2-3-2-5 0-7 4-3 10 3 6 7-2 3-3 3-6 0zM80 957H68c-2 1-1 1 4 1l8-1zm-28-19c-1-3-1-3-2-1v8l1 5 1-4v-8zm651-637h-1l-1 2h1l1-2zm0-38c0-3-2-2-3 1 0 2 0 2 2 1l1-2zm-2-153c0-4-1-6-2-6-3-2-4 0-2 5 2 2 2 5 2 6l1 1 1-6zM53 997c-3-1-3-1-1-1l4 1v1l-3-1zM9 963c-1-2 0-3 2-3l1 2c0 3-2 4-3 1zm-2-16 1-5 2-9c0-4 1-5 2-3 3 3 0 18-3 19-2 0-3 0-2-2zm-6-1c-2-2-1-3 1-3l2 1c0 2-2 3-3 2zm6-10-2-3c-3-2-3-8-1-10l1-6 1-5 3 3c3 2 3 3 1 3-1 1-2 5-2 11l-1 7z"/>
</svg>
