<?xml version="1.0" encoding="utf-8"?>
<svg xmlns="http://www.w3.org/2000/svg" version="1.1" viewBox="0 0 390 330">
	<title>Sketch of a small pond or river with underbrush and trees along the far shore, with a hill in the distance.</title>
	<path d="M380 329v-1s0 1 0 0l1-1-1-5v-4l1-5v-1 1l1 3v3h2l1-1v1l-1 2-1-1v3l-1 3 1 1h1l1-1v4h-5v-1zm4-4v-1 2-1zm-279-2c-1-1 0-1 4-1h4v1l-5 1-3-1zm75-2 1-1 1 1v1h-1l-1-1zm-61 0-3-2 1-1h1l2 1 1 1v1h-2zm258-2c0-1 0-2 1-1v1l1 1c1 0 1 0 0 0l-1 1-1-2zm-243-1h-3l-3-1v-1l4-1 6 1-3 3-1-1zm45 0v-1 1c0 1 0 0 0 0zm-111 0v-2l1-1h2l1-3-1-3-3-1h-1l-1 2v1l-2-2-1-1-1 1h-4l-5 1h-7v-2l3-1h4a40 40 0 0 0 8 0l3-1 2-1v1h4l1-2v-2l1-1 1 4v1l1-3v-3h-5l-6 1h-7v-1l1-1c2 0 2 0 1-4v-13l-1 1v5l-1 3v-4l-1-5h-1v3l-1 4v1l-1-3-1-5 1 8-1 1-1 1-1-6v-4h-3l-2-1h-1v6h-1l-1-2v-17l1 2v6l1 3 1 1 2-1-1-9v-1l1-3v-2h-3l-5 1-5 1h-4l1 2v3h-1l-1-1-2-2-1-2 1-1-1-1-1 1h-1l-1-1-1 1h-4v-3l1 1v-6l-1-3v2l-1 2h-1a1330 1330 0 0 1-1-1c-1 1-4-1-4-2v-2l1-3 1 2h1s0-2-2-3l-1-2-2-5v-6a110 110 0 0 0 0-16l-1-3v-3h1v-1H7v-10l-2-3h1l1-1 1-1 1-2-1-2v-1l2-2 2-4v-7l-1 1v3l-1 3H9l-1 2-2 1H5v-2l1-1v-1l-1-1v-1 1l-1-3 1-3h4v-2l1-6v-4l1-2v-4l-1 2-1-1-1 1-1 3v7-3l1-3h1v2l-1 4-1 3-1 1-1-1-1-1 1-2-1 1v-7l1-1-1-1v-3H3l-1-1 1-1 1-1v-4l2-1 1-1v-1l-1-1H4l-2-4v-3l-1-2 1-2v-10l3-1 1-2H5l-1 1-1-1v-2H2l1-2 1-1-1-1c-1-1-2-1-1-2l-1-1 1-1 1-1v-1l-1-2v-1c-1 1-1 0-1-2v-4l1-1H1v-4l3-1-1-1-2-1v-7h1l-1-1v-5l1-1 1-2H2l-1-3v-2l1-3 2-1v-1l-2-1-2-2v-4h1l1-5v1H1v-3l-1-2 1-1h1v-1l-1-3 1-16 1-4v-8l-1-2v-2l1-1 1-1-1-1-1-4 1-3V7L2 4l2-3 2 2 1 2v2l-1 3v1h2l1-1 2 1 2 2h1v-1l1 1 1 1v-1l1-1v3h1l1-1v-2l1-1 3-1 2-3 1-1-4 2-2 1h-2V8l3-2 3-4 3-1 1 1v2h1l1-1V1h7v3h-2l-1 1h2l2-1 2-2-1-1 2-1 3 1 1 1c-1 0 0 0 0 0 0 1 0 0 0 0l1-1h1l-2 3-1-1-3 1-1 2h4v1l-1 1 1 1 2 1 2 2 2-1v-1l-3-2V3l2-1 3 1 2 1v5l-1 1h1l1-1 2-1-1 1-1 1 1 1 1-1 4-2h1l1 1 1-1 1-1V1l1-1 2 2-1 2-1 2 1 1 1-1 1-2V2l2-1 1 1h-1v2l-1 2-3 2-1 1 1 1 1-1 1-1h2l-1 1 2 1h1l-2 2-1-1h-2l-1 1 1 1h1c1 0 1 0 0 0l-1 1-1 1h1l2 1 2 1 2-1 2-1 2-1h2v-2l-1-2-2 2-2 1h-1l1-1 1-1 1-4 2-4 1 1v4l1-2V5l1-1c1 1 1 0 1-1l2-1h1l-1 1 1 4 1-2c0-2 1-2 2-3h4l1 2v2h1l1-2 1-1v5l1 1 1 1h3l1-1 2-2-1-1 1-2 2-1 2-1-2 5v1l-1 1-1 1h-1l-1 1-2 2h-1l-1-1-2 1-2 2-1 1-2 2-2 1 2 1 2-1h1v1l-1 1h-4l-2 1-1 1h5l-1 1v1l1 1c1 1 2 0 3-2h2l1 1 1-2h2l2 1h1l2-1 1-1 5-1h2v-5h-1l-1-1h-2l1 2v1c-1 1-2 0-2-1l-2-1h-1c-1 1-1 0-1-1l2-1 3-1 2 1h5v5l-1 2v2h1l2-1h2v1l-2 4v1l4-3h-1v-2l2-1 1-2h-2l-3-1h4c1-1 3 0 3 1l-1 2-1 2h3l4 1 1-1h1v2l-2 1c-2 0-2 0-1 1v1h1l1 1v1h-2v-1l-1-1-7 1-2 1h6l5 3v-1h1l1-2 2-3 1-2 1-1 2 2h-1l-3 3v2l-1 1-2 3c-2 2-3 3-3 1v-1l-1-2-2-1-1-1h-2l-3 1-1-1-2 1c-1 2-2 2-6 4l-2 1v1h4l1 1-2 1-1 2v1l-1-1h-3l-2 2-1 1v1h-4l-1 1-3 2-1 2h2l2-1 1 1 1 1-2 1h-2l-6 3 1 1 1 1h3l3-1c0 1-1 2-3 2l-2 1-3-1h-6c-2 0-4 1-3 2h1l2 1h-2c-1 1-1 1-3-1l-2-1-4 2c0 1-1 2-3 2l-2 2h2l2-1 1-1h2l2-1h5l2 1v2l1 2 1 1h-2l-2 2v1h-2a100 100 0 0 0-2 1h2v1h-2l-1 1 1 1h3l3-2 1-1 1 1 2 1h3l2 1h2v1h-3l-6-2-2 1-2 2h1l1 1 1-1v-1l3 3-1 1-2 1-2-1-3-1-1-1h-1l-2 1-1 2 1 1 3 2 2 2v1h-4c-2-1-2 0-3 1l-3 2-2 1v1l3 1 2 2v1l2-4h-3l4-3 4-1 2 1-1 1-2 1 1 1-2 1-2 1-1 1v2h2l3-1c3-1 6 0 7 1l1 1 1 2 1 1h-4l-1-2-1-1h-4l-1 1v1l-2-1c0-1 0-2-1-1h-2l-3-1-1-1-1-1-2 1-1-1 2-1 1-1h-4l-6 1c-1 0-1 0 0 0l2-1 4-2 3-3 1-2v-2l1-3 2-2h1v-2l-1-2-1 1-2 1-2 1v3l-1 1v1l1 1-1 1h-1l-1 2-1 1h1l1 1-1 1-3 1a2023 2023 0 0 0-6 6l-1 2-1 1h-1v-1h-2l-5 3 2 1h1l-1 1v2l1 1a348 348 0 0 1 5 1l1-1 1-2v3l1 1 1 2h2l2-2 2-1v-1l-1-1a28 28 0 0 1 9-7l1-1 1 1 1 2 1 2v3l4-1h4l-2 1-1 1v1h-7l-1 1h3l1 1h-4l-2 1 1 1 3 3 3 1 2 2v5h-1l-2-1-1-1-1-3-1-3-5-3h-1l-2 1h-3l1 2h6l-1 1h-6l-1-2-1-1-4 1-5 1-1 1v-2l-1 2v2h4l-2 1-2 1-1 2-1 1v-1l-1-1-1 2v1l-1 4 1 4v-1l4-2v1l-1 2 1 2v-3l2-2 2-1 1 2h2l-1-4-1-2v-5l1-1 1 2v3l1-1 2-1-1 1-1 2h2l-1 1v2l-1 3v3l1 1 1 1-2 1-1 1v1h1l1-1v2h1l2 1h-1l-1 1-3 1 2 1 1 6 1 4-1-1-2-1v3h-3v1l-1-3v-1l-1 3v4l-1 2h-1v1l1 1h1l-1 1-1 3v1l2-1 2-1h2v-3l1-5 2-3h1l-2 5-1 1 2 1 1-1 1-2v-1l-1-1 1-1 2-4-1-3v-2l1 1 1 1 1 1 2-1 1-1 1-1 1 1v2l-1 6 1 1h2l1-1 1-1 1-3 1-3 1-1v9l-1 1v2l1-1c1-2 1-2 1 0v2l-1 6 1-1 2-1v3l1 1 1-2-1-10c1-5 1-7 2-6v2c0 2 0 2 1 1l2-1 1-2h1l-2 4-2 2v3l1-1 2 1 2 2v4l1 3h1l2-2s0-1 0 0l-1-1-1-2v-1h2v2-1l1-4-1-1-2-2-1-2 2-2 1 1 1 2 2 6v2l1-1h1l1 1v2c1 1 1 0 2-1v-2h-2l1-2h1l-1-2-1-3-1-1-1-1v-1l2 1 2 1v-2l1-3v2l1-1-1-1v-3l1-2c0-3 1-4 2-3v7h1l2-1 4-2h1v1l1 2h-1l-1 1-1-1h-1l-3 1-1 2 1 1 1 1h-1l-1 1v1h1l1-1 3-2 2-1v2l-3 1-2 2h2l6 1v2l1 1h-5l-2-1-1 1-1 2-1 2 1 1 1 1v3l-2-1v-2l-1-1-3 1 1 1 2 2v2l-1 2h-1l-1-1-1-1v2h-1l-1 1h1l2 1 2 1 1-1 2-1h2v-3l1 3 2 2v-5l-1-2c1-1 1 0 2 2l1 2 1-2h1l1 1-2-3-1-1-2-2h-2l2-1 1 1 5 3 1 1c0-1 1-1 0 0v2l2 1v-2l1-3 2-1 2 2h-3l-1 2 1 2c1 0 3-1 5-4l2-1v1l-1 1c-1 1-3 2-2 3h1l1 1h-5l-1 2 1 1 1 1h-1l-1 1h-2l-2-2v-1l-1 1-1 1v-1l-1-1v2h-1l-1-1-1 1v6l1-2h1l1 1 1-2 2-1v1c1 2 0 2-1 2l-4 3-5 5v1h1l5-2h3l1-1 2-1v-1h-1l-2 1-2 1h-1l1-1 1-2 1-1v1h3l2-1v-1l-1-1 1-1 1 1 1 1 1-1h2l1-1-1-2-1-1h-1v-1l4 1 1 2c0 2 0 2 2 3l1 1h-2l-1-1h-1v-1h1l-4 1v1l1 1-1 1-1 2v3h-7l1 1 1-1v1l-1 2-1 1-2 1v1h2c2 0 2 0 2-2l1-1 2-1h2l1-1 3-3 1-2 2-1v1l2 1 2-1v-1h1v1h1l2-1 1 2 1 1 1 1 1 1v-1l1-6-1 2-1 1-1-3 2-3 2-1v1c0 2 1 2 2 2h1l1-3 1-1 1 5v1l1 1 3-1c2-1 3-1 1-1l-2-2-1 1v1l-1-2 1-4 1 1 1 2 1-2 1-2 4-2v1l2 2h1l1-1 5-2 1-1v-1h-1l1-1 1-2v-1l2 1v1l-1 1h1l1 1-1 3 1 1 1 1h1l1-1h1l-1-2v-2h-1v-2h3l2 1 1 1-3 1-1 1 1 1h1l1-1h1v2l-1 2 1 1 3-1h-1l-1-2 1-4 1 1v2l3 1 2-1 1-2h-1l-1 1h-2v-3h-2v-1l1-1v-1l1-1 1-1 1-1h2l1 1 1-1h2v-1l2 1-1 2-1 1-2 2h1l1-1 2-1v3h2-1v-1l1 1h3v-2l-1 1h-1l-1-2 1-3 1-3 1-1 2 1 1 2v4c0 1 0 1 0 0l1-2 1-1v5l-2 4-2 3 1 1v2h1v-4l2-1 1-1h1v2h1v-5l1-2h-2l-2-1h1l2-2 1-1 1 1 1 1 1 2h1v2h-3v-1 2l-2 6v1l2-2v-2h1l1 1 1 2v3l1 1h2v-2h-1l-1-1v-3l-1-1-1-2 1-1 2 1 1 2v1h2v1l-1 2 2 1h3v-1l1-2 1 2 1 2h1l1-1 1-1v1l1 1 2-2h2v2h-2v1l-1 1v3h1l-1 1h-1l-1 1h3c1 0 1 0 0 0l1 2v1l1 2 1 1 2 2-1 1 3-1 1-1-1 2v2l1 1 1-1h1l4 2v-2c1-1-2-1-3-1h-3l1-1 2-2-1-1v-1l-1-1v-1l1-1c0 1 0 0 0 0l1-1 1-1h2v1l1 1v2h1v4l-1 2 1 1v1l-1 1v2h-1l-2-1-1-1h-2l-1 2 1 1v1h-1l1 1 1-1 1-1 2 1 1 1v2h1l1-2v-1l1-2-1-2 1-2v-1h1c1-1 1-1 0 0l1 1 1-1h1l-2 1-1 2 1 1v1l-1 1h1l1 2 1 2v10l1-1v-15l2-1h1v-1l1-1v-1c1 0 1 0 0 0h-3v-1l-1-1 4-1 2-1h1l-2 2v1c1 1 4-1 4-2l-1-1v-1l1-1h1l-1-1-1-1v1l-1 1 1-2 2-1v4l2 1 2-1v-1l-1-1-1-2h1v1-1l-1-1c1-2 0-2-1-2l-1-1-1-1h4v-6 1l-2 1h-1l-1-1v-2l1-1 1-1-2-3h-1l1-2 1-2-1 1c-2 0-2 0-2 2v2l-2 1-2-1h1l2-2-1-1h-1l-2-1h-2l-1-1-1 2 1 1h-1l-1-1 1 5 1 1h-1l-2-2-2 1h-2v-1l2-3v1l-1 2-1 1 2-1 2-2v-1l-2-2-1-2h-2v1l1 1v1h-5v-1l-1-1v1l-1 2-1-1v-1l-1-1v-2l-1 2-1 1-2-1 1-1 3-2h2v1l-1 1h4l1-1 1-1 1-1v1h4v-1l1-2h2v-2h-1l-3 1h-1l-2 1-4 3-1-1-1-2v-1l2 2 1-1 3-1 2-1-4-2h-4l1-1 2-1 3 1h3l3-1 3-1v-2l-4-1-4 1h-1v-1l-1-1-2 1h-1l2-2 2-1 1-2c1 0 1 0 0 0h-2l-4 2-3 3v2l-1-1v-2l3-1 2-2v-1l-2-1-1-1 2-1 2-1 1 1 2 1h4l1-1-1-1-1-1h-4c-1-1 0-1 2-1h3l1-2-1-3-1 1v1l-1-1 1-1 1-1-2-1h-4v3l-5-3-1-1-3 1-2 2v-1l2-2 1-1h-3l-1 1-2 1-2 1-3 3 1-3 3-3-1-1h-9l-8-2a108 108 0 0 0-27-5h-7v-1l5-1a65 65 0 0 1 21 3l9 2a114 114 0 0 0 15 2h14l2-2v-2h1-3l-2 1v1h1l-1 1-2-1-1-2-1-2 1-2 1 1c1 2 1 2 3 2l2-1v-1h3l3 3 1 1v1l-1 1h3-1l1 1v-1h2l-1-1c-2-1-2-3 0-3l2 1 3 1v-1 2h6l1-1-3-1h-3v-1h1l-1-1v-1l-1 1-1-1c-1-1-2 0-1 1v1h-1l-1-2-2-1-5-1h-3c-1 1-3 0-5-1l-1-1-3 1-2 1h-4l1-2h2l3-1 2-1h-1l-2-1-1 1h-2v-3l1-2h2l2 1h1l-1 1-1 1 2 1h3l1-1 2 1h1l1-1-1-1-3-2-2-2h-2v-1l2-2c2 0 3-1 3-2l2-2h4l-3-1-3-1-1 1-2 1v-2l4-2 1 1h1v-5l1-1 2 1-1 1-1 3 1 1 3-1 1-2-1-1v-2l1 1h2v-1h1l1-1-1-2-1-2h1l1 1 1 1 2-1h2l1 1 1 2h2l1 1h-1 1v-1l-1-1 2-1 2-1v-1h-1l-4-1 3-1 1-1 1-1-1-2-6-1-1 1h-1l-1 1-1 1v-1h-1l-1 1-2 1h-2l-1-1-1 3-1 3-1-3v-2l-1 1-3 2v-2l2-2v-2l3 1h3l2 1 1-2 4-2h1l2-1 4-1-1-2c-2-1-3-3-2-4l1 1h1l1-1h1v3l1 3 1-1h3v-2l-1-2 1-1 1 1 1 1h1v1l2 3v-2h8l-2-1-6-2-2-1-2-2h-2v-1l-2-1h-3l-2-1h-1l-3 1-1-1 1-1a298 298 0 0 0 2-1l-1-1h-2l-2 1-3 3-2 1-1 2-1 2-3 2h-2l-2 1-2 1-2 2c-2 1-2 2-2 3 1 1 0 2-1 1l-1-1c0-1 0-2 2-3 3-4 3-4 5-4h2v-1h1l2-1 2-1 1-1v-1h-1l-2 1-2 2-4 1-2-1c-2 0-2-1-1-1h6l2-2 2-2h4l-2-1h-3l-1-1 1-1 3 1h5l1-2-1-2h-4l-3 1-3 1 1-1 2-2h3l1-1v-1h1l5 3 2-1 2-2 2-1 2-2 1-2-1-1-1-1h-2a435 435 0 0 1-4 2v2l-1-1c-1-1-2-2-3-1v1l1 2h1l-1 1-2-1-1-2-1 1-1 1v-4l2-1c2 1 4 0 5-1l2-1h3l2-1 1 1c1 2 2 2 3 2v-4l2 2 3 3h4l-1-1-2-5 1-2 1-1 1-1s1 0 0 0h-2c-1 1-1 0-1-2l-1-2h-2v1h2v1h-1l-2-1h-1l1-1h1l2-1h2v2l3 1 3 2h-1l-1 1 1 1 1 1 2-1 3-1h3l1 1v2l1 1h1v-2l-1-2-1-1-1-1-1-2h-5l-1-3-1-3h-1v-2l-1-1v-6l-2-1-1-1-1-1-2-1-1-2 2-1v1l1 1 2 1 3 3 1 1 2-1 2-1 1 1-1 1v2h-1v1l-1 1-1-1v-2h-1v2l1 2 1 1 1 1h5l-2 2-2 1 1 1 1 2h1c0-2 1-1 1 1l1 1 1 1 1 1v1-1l1-1 1 3v3h1l2-1 2-1 1-1v2l1 1-1 1 1 1h1l1-6h1l1-1h2l-1 2-2 2v1l1-1 2-1h1c1 1 1 1 2-1l3-3 2 1a262 262 0 0 0 4 3l2 2 1 1h-3l-2-1-4 2v1-1l-1-1h-2l1-1h2l2-1h1l-2-2h-2l-1 1v1h-1l-1 5c1 5-1 12-2 12l-1 4v2l-1 1h1v6l2 2 1 1 2-4-3-1-1-1v-2l1-2h-1c0 1 0 1 0 0l1-1c1 1 1 0 2-1l1-7 2-3c1-2 3-2 3-2l1 1 2-2v-2h-4v-1h9l2-1h1l2-1 2-2 1 2c1 1 1 2 3 2s2 1 2 2l-1 1h-3l-2 1v-2l-2 1v2l1 1h6c2 1 2 0 3-1l3-1 1-1-1-2v-1l1-1 1 2 2 2 1-2h-1v-1l1-2 3-2 2-1v-5l2-2v2l-1 2 2-1 1-2h1l4 3h-2l-1 1-1 1-1-1v-1l-2 3 1 1v7l2-1h1l2 2-1 1h-1l-2 1h-1l1 4 1-1c1-1 2 0 2 1h-1l-2 1-1 2v8l1-1 1-4 2-3 2-1 3-1c1 1 2 2 1 3h-3l-1 1-3 4-1 3-1 3 1 1 1 1c0 2 0 2 1 1h1l2-1 1-2 2-3 3-1 2 2h-5l-1 2h2l2 1h1v2h-1v1l1 1-1 1-1 3-3 2-2 1h-1l-3 1-1 2v5l2 1 4-4-1-1h-1l-2 2h-1l1-2 2-1h3l1-1 1-1 1 1-1 2-1 1h1l3 1 1 2-1 2 2 1h2v-1l-1-2h2l1 1v1h1l-1 1-3 1-4-1-2-2v-1h-3l-1-1a31731 31731 0 0 1-3 6v2c0 2 1 3 2 3h2l3-1h2l2 1h2l-1 1-1 1-2-1-2-1-3 1-2 1-2-1h-1l-2 1v1l2 1c2 2 2 2 2 6l-1 2v-3l-2-4-1-2v4l1 1h-1l-1 4v5l1 3 1-1 2-3-1-1h-1l-1 1 2-3h3l2 1 1-1 2-2v1l-1 2c0-1 0 0 0 0l-3 1-2 2-1 2-1 2-1 2v-3l-1 1-1 2v3h-1v-1l-1 1 1 2h3l1-1 1-1 3-2 2-2v3-2l2-3h1v1l-2 4h2l2 1 2 1h2l-5 1-5 1h-3l-2 1v4l-1 1-1 2v4l-1 3v-1l-1-1-1-5v-2l-1-3c1-1 1-1-1-1h-2l1 1 1 2v2l1 3 1 2v12h9l1 2 3 1 1-1v-1l-1-1-1-1-2-2-2-2-1-2-2 4-2 2v-3h-1v1l-1 1v-1l2-6 1-1v-1l2 1h4l1-1-1-2h-3l1-1h1l3 1v1l3-1 2-1-1 2-1 1-5 2-1 1v1h2l3-1h3l-1 1-2 1-2 1h-2l1 1 2 2h4l3 1s1 0 0 0h-1l-4 1 1 2 1 3 1 1h-1l-4-2v1l1 1-2-1-1-1-3 1 2 2 1 1-2 1-2 2-1 1-1-1 2-2h1c1-1 0-3-2-3v-1l1-1 2-1-1-1h-6v1l1 3-1 3-1-1-2-1v4l1 1h1v2l1 3v2l1 2 1 1 2 2 1 1h2l2-1 1-1h1v-1l-1-1 1-1 1 2-1 2-2 2-2 1v2h1l2-1 1-1 1 1 3 2v-4l-1-1-1 1 1-2 1 1 2 1c2 0 2 0 2-2l-2-2-2-1v-1h1l2 1 1-1 1-2 1 1a131 131 0 0 0 1 3c0 2 0 2 1 1h1l-1 1 1 3v-8l1-1c1-1 2 0 2 2h-1v-1 1l-1 3v2l1 2 1 2v2-3l1-4v-1 8a127 127 0 0 0 0 19v1c0 1 0 1 0 0l-1 1v2l-1-4a122 122 0 0 1 0-16v1l-1 1c0 1 0 1 0 0l-2 1c0 2 0 3 1 2v-1 14l1 5-1 1-1 1v14l-1 4a81 81 0 0 0-1 10l-1-2c0 1 0 0 0 0v-12h-1v5h-1v-1l-1-1v3l-1-1v-9l1-2v-4l-1-5a148 148 0 0 1-1-4v1l-1 5-1 9 1 6 1 1 1 3v8l1-1 1-3 1-2v6l1 2v1h1v-2 1l1 2 1-4v-4 3l1 4v-2l1-6-1-4 1-1 2 1-1 9v3a223 223 0 0 1 2 1h-2v2l-1 3-1-1v-4l-1 3a218 218 0 0 1 0 9l2-2v-1 3h3v1h-3l-1 1h-2l-2-1v1l1 1v1h1v8l-1 2v1l-1-1h-1v1-1h-1v3h2l1 1 1-2v-3 5h1v2l-1 2 1 11-1 8h-1v-3l1-5-1-3v-2l-1-1v3l-1 6 1 6v1l-1-1-1-1v-5a78 78 0 0 0-1-11v-4h-1v13l-1 1v-14l-1-2h-2l-1 1-1 6 1 5v-1l1-2a6194 6194 0 0 1-2 9l-1-2v-9l-1-7v12-5a21793 21793 0 0 1-1-10v-2h-4v8h-1v-3l-1-4-2-1h-2l2-1h2v-4l-1 1c0 2-1 1-1-1v-2h-3v2l-1 2v-7h-1l1-1-1-1-1-1v-7 3l1 3 1-2a97 97 0 0 0-1-9h-1l-1 3v1-2l-1-2v19h-1v-9a1145 1145 0 0 0-1-10h-1v7a284 284 0 0 1-1-7l-1 1-1 2-1 3v2h-2l-1 1h-2l-7 1h-14l4-1h2v-2h-2l-2 1h-1l-2-1a6318 6318 0 0 0-34 1v5l-1-1v-1l-1 1a313 313 0 0 0 0 3h-1l-1-5v-2h-2a1816 1816 0 0 0-15-2v-1l1-1h5a114 114 0 0 1 13-2l1-1v-3l1 2v2h4a356 356 0 0 1-3 1l-1 2v1h28v-11l-1 1v2l-1 2v-5h-1v2l-1 2v-4l-1 2v1l-1-1 1-2h-3l-2 1h-6v1l-1 3c0 1 0 1 0 0v-2l-1-2h-9l4-1h5l1-1v-3l-1-1h-3l-1 1-1-2c0-2 0-3 1-1v1h4v-4h-1v3l-1-2v-1l-1 2h-1v-1h-2v1l-1 1-1-1-1-1h-1l-1 1v4l-1 7-1-2a214 214 0 0 0 1-10h-1l1-1v-4h-1l-1-3v-1l-2 1-1 1-1-1-1-3-1-4h-1v5l1 1h-2a13 13 0 0 0-4 2v1l1 3v-1l1-2v1l1 2h1l1-1 1-1c0-1 0 0 0 0l2 2h2-1l-2 1v2h5v7l-1-4v-3l-4 1c-4 0-4 0-3-1l1-1-1-1h-4l-1 2v1l2 1h2l-2 1h-2v1h-1c0-2-1-2-1-1a190 190 0 0 0 0 9l-1-2v-4c0-3 0-4-1-3h-1l-1-1 1-2-1-2a53 53 0 0 0-8 1l-1 1-1 2-1-2v-1 4l-1 1v1l-2-4v-2h-3l-1 1-1-1v-1l1-2v-2l-1-1h-5l-1-1-1-1-1 2-2 1-2-1h-3l-4 1-1-1 2-1h2l2-1 2 1h1v-2l-1-2c1-1 1 0 2 2l1 2v-2l1-1 1 1h1l1-2 1 1h1l1-1-1 1 1 2 1 1-1-1v-5l-1-1h1l1 1v-2l-1-1h-2a181 181 0 0 1-17 0l1 1h3l2 1h-4a140 140 0 0 0-12 0h-8l-2-1h1l2-1v-1h-2l-1 1h-1l-4 1h3l-1 1h-7a99 99 0 0 0-15 0l2-1h2l1-1h-5a48 48 0 0 0-9 1h3l4 1h-19a325 325 0 0 0-31-1c2 0 4 0 3-1h-2l-2-1h-5l-1 2 1 2 1 2v2l1-2v-2l1 1v3l1-1h3l3 2 3 1 1 1h1l2 1h2v1h-2l-7 1-1 2h2l2 1h3l2-1 7 1-5 1a248 248 0 0 0-18 2l-1 1-1 2-1-1v-1 3l-1 2v-2l-1-2v1l-1 1h-1l-1 1 1 2h9v2l-9-1v2l2 1 3-1 4 2 1 1v2l1 1v-1l1-1 1 1v1l2-1h1l1-1 1 1 1 1-4 1h-4v1c0 2-1 2-2 0l-1-1-1 1h-1l-1-1-1-2v-2h-1l-1-1h-1l-2 1 1 5h1l1 4v4c0 1 0 1 0 0v-2l1-1h2l2 1-1 1h-2v5l-1-1-1-1v3l-1 2-1-6v-7h-1v4c-1 1-2 0-2-2l1-3v-2c-1-1-2 0-2 1v1l-1-1-2-1v5h-1v-2l-2-2h-2l-3-1-1 1-2 2v-2h-3v5h1l6 1v2c0 2 0 2-1 1v-1l-1-1h-5v3l-1 1h2a347 347 0 0 1 4 0l-1 2v2l-1-2-1-1h-2l-1 4v3h2l2-1 1 4v3l-2-3-1-2h-2v7l-1-4-1-3h-6v2c0 2 0 3-1 2v-1l-1-2h-3l-1 2v2l-1 1v6h11l3-1h3v4l1 2 2 1-2 1h-1v2h-1l-1-1v-2h-3l-3 1-1 2-1 1h-1l-1-2c1-1 0-1-2-1h-3v5l3 1h3c1 1 0 1-3 1s-3 0-3 2h-1l-1-1v-1l-1 4 1 3v1h7a135 135 0 0 1 10 0v-3l1-1v4h13l1 1h-2l-6 1H81a163 163 0 0 0-13 1zm-7-22v-2l-1-1v3l1 3v-3zm13 1-1-2h-1v1-3l1 1 1-1v-3l1-3 1-3v-2h-4l-3 1-1 1v1l-1-1v-2h-7v2a32 32 0 0 0 1 9v-1h2v6l5 1h6v-2zm-3-8v-2l1 1-1 1c0 1 0 1 0 0zm11 9-1-2-1-2-2 1-2 1v2l3 1 3-1zm8 0 1-2-1-1-3-1h-3l-1 3 1 2 2-1h4zm290-8-1-3 1 5v-2zm2-1-1-3v6l1-3zm1 2h-1l1 1v-1zm-5-6s0-1 0 0h-1v1l1-1zm2 0h-1v1l1-1zm-9-2 1-1v1l2 1 1-1h1l2 1v-3l-1-1v-1l-1-1-1 1-1 2v1l-1-1v-1h-4v2l1 2 1-1zm-319-3v-3l1-3v3l1 4h1v-2l1-1v3h6l5-1 1-6v-6h-2l-2 1-1 1-1-1h-8l-3 1v11l1-1zm20-5v-6l-1-1h-2v12l2 1h1zm4 5v-6a294 294 0 0 0-2-6h-1v5l1 8 2-1zm5 0v-5h-1l1-1v-1l1-1 1 1h6v-5l-6-1h-6v4a105 105 0 0 1 0 9h4zm-31-1v-9h-3v10h1l2-1zm39-2v-3h-3l-3 2v4h6v-3zm279 2v-1h-4c-1 1 0 1 2 1h2zm5-1h-1v-1l1-4a260 260 0 0 1-1-5v4l-1-4-1-4v13h1v1l-1 1h2l1-1zm7 0v-6c1-1 1-1 1 1v5l2-5c0-2 0-2-1-1l-1-1s0-1 0 0l-1-2v-1h-2l-1 3 1 5c1 2 1 3 2 2zm-12-1 1-6v-7c-2 0-2 1-2 6v4l-1-2v-3l-1 1v-5 2h1v-1l-2-1h-1v11l3 1h2zm9 0v-1h-1l1 1zm-15-3v-1c-1-1-1 1-1 1h1zm13-4v-5h1v-1h-2v3a79 79 0 0 0 0 7l1-4zm-16 2c2-1 1-2-1-2l-1 1 2 1zm1-3 1-2v-2l-2 1-2 1 1 1-1 1h3zm2-3v-1l-1 4c1 1 1-1 1-3zm-309 2h8l1-2c0-2-1-2-8-2l-7 1v4h1l5-1zm12-1 1-2-1-1h-2v2l1 1h1zm314 0v-1c0-1 0-1 0 0h1v-1l-1-2 1-3v-2l-1 1v-2l-1-2-1 8 1 4h1zm-311-1-1-2-1 2h2zm8 0-1-3h-1l-1 2v1h3zm-4 0v-2l-1-1-2 1v1l1 2 2-1zm311 0v-8l-1 1-1 1v6h2zm-355-1-1-1v2l1-1zm56-1v-2l-1-1-1 1v2h-1l-2-1c-1 0-2 0-2 2v1h7zm5 0-1-3h-3v2l1 3h3zm1 1v1-1zm193-1-1-1 1 2v-1zm78 0 1-2 1-5-1-3h-1v1l-2-1h-1l-1 6v5h1l3-1zm0-4v-3 7-4zm-330 4h-2 2zm2 0h-2 2zm332 0s0-1 0 0l1-1v-1l-1-1h1v-3h-1v1l-1-1h-1v3l1 3h1zm-33-1-2-1h-3l1 1 1 1 3-1zm37 0v-4a212 212 0 0 0 0-14l1-1h-1l-1 1v8l-1 9 1 2 1-1zm-33 0s1 0 0 0l-1-1-1 1h2zm4 0-1-1-1 1h2zm-275-3v-4h-1v2l-1 1v-3 7h2v-3zm3-1c0-4 0-4-1-3l-1 3 1 4 1-4zm303 3v-12h-1v7l1 6v-1zm4-5a242 242 0 0 1 0-14c-1-2-1 1-1 10 0 4 0 7-1 6v-12l-1 1a151 151 0 0 0 1 13l1 1v1h1v-6zm-303 5-1-1-1-3v-2h-1v6h3zm4-1-1-2v-3c-1 1-2 1-2 3v3h2l1-1zm-54 1v-1h2c0 1 1 2 2 1v-5l-1-4v3h-1l-1-1h-1v-2c-1-1-1 1-1 4l-1 3v2h2zm6-6h-1v6l1-2v-4zm10 6v-1l-1-3-1-2h-1v1h-1l-1-1v1h-1l-2-1h-1v6h9zm24-1v-3c0-2-1-2-2-2l-1 3 2 3 1-1zm-21-1v-3l-1-2v7l1-2zm2 1v-3l-1-1v5l1-1zm2 0v-4l-1 1v4l1-1zm6-1-1-1-1-1-1-1-2 1v4h5zm5 1 1-3-1-1-1 1v1l-1-1-1-1-1 2v2l2 1 2-1zm3 0-1-4-1 2v3h1l1-1zm22 0h-4l2 1 2-1zm260 1 1-3v-2l-2-1h-2v3l1 3h2zm4-3-1-3-1 1v5c1 0 2 0 2-3zm-64 1v-1a120 120 0 0 0-16 2h16v-1zm2 0-1-1v2c1 1 1 0 1-1zm41-3v-6l-2-1-2-1 1 1v11h2l1-4zm6 4-1-10-1-2-1 1v9l1 2a3 3 0 0 0 2 0zm2 0v-3l-1-2v5h1zm4 0 1-2-1-3h-2l-1 3 1 2h2zm-16-1v-13c0-1 0-2 1-1v1l2 2v-2l-1-4-1 1h-3v2l1 3v1l-1 3v3l-1 1v-2a198 198 0 0 0 0-5l-1 3v2h-1v-5h-2l1 11h3l3-1zm6 0v-5c0-5 0-6-1-5l-1 5 1 6 1-1zm-246 0 1-2-1-2v1l-1 2v-3l-2 3 2 1h1zm-41-1c0-1 0 0 0 0v1-1zm44 0v-1l-1-1v-1 4h1v-1zm5-1v-2h-2l-1 2v2h3zm8 0v-3h-4l-1 1-1-1v4h5l1-1zm5 0v-2l-2-1h-2l-1 1 1 2 1 1 3-1zm21 0-1-2v-1h-3v2l1 2v-1h1l1 1 1-1zm-19 0-1-3v4l1-1zm5 0v-2l-2 2h2zm3 0v-3h-1l-1 3h2zm256-4-1 1c0 1 0 1 0 0l-1-1-1 1 1 2h1l1-1v-2zm17 2h-2v1h1l1-1zm-337 1h-1c0-1 0-1 0 0h1zm12 0-1-1v1h1zm322-1-1-1v2l1-1zm1 0h-1v1l1-1zm-337-1h-1v1h1v-1zm4 1v-1l-1-1-2 1 3 1zm8-1c0-1 0-1 0 0h1v-1h-3v1l1 1 1-1zm20-1v-1l-1 3 1-1v-1zm255 1v-6h-1l-1 5c1 2 1 2 2 1zm4-3 1-3h-4v3l1 3 1 1 1-1zm5 0v-3h-4v3l1 3h3v-3zm-309 2-1-2h-2v3h2l1-1zm22 1v-1h-2v1h2zm7 0v-2l-1 1h-1v1h2zm-33-1-1-2v3l1-1zm39-1v1c0 1 0 1 0 0v-1zm3 1v-1h-1l-1 1 1 1 1-1zm275 0v-3l-1-2h-1v6h1l1-1zm-325 0h-1v1l1-1zm17-1-1-1-1 1v1l1 1 1-2zm27 1v-1l-1 1h1zm22-1-1-1v2l1-1zm1 1v-1h-1v1s0 1 0 0h1zm21 0-1-1v1h1zm240-2v-3h-2v5l1 1 1-3zm-314 1-1-1v2l1-1zm6 0v-1 2-1zm39 0-1-1v2l1-1zm1 0v-2 3-1zm9 0v-1l-1 2 1-1zm3 0v-1l-1 2 1-1zm6 0v-1h-2l-1 1v1-1h1l2 1v-1zm3 1-1-1-1-1v2h2zm3 0v-1 1zm247-2v-3h-1v3l-1-1v-2 5h1l1-2zm27 0v-1l-1 1 1 2v-2zm-335 1-1-2v3l1-1zm2 0v-1l-1 1 1 1v-1zm37 0h-1v1l1-1zm9 0-1-1v2l1-1zm3 0-1-1v1h1zm17-1-1-1-2 1h1l1 1v1l1-2zm244 0v-2l-1-1v3l1 2v-2zm26 1-1-1v2l1-1zm-332 0 1-1-2-1-2 1v1h3zm53 0v-1 1zm251-2-1-2a12 12 0 0 0 0 4l1-2zm-338 1v-1h-1v2l1-1zm344 0v-5h-1l-1 3v3h1l1-1zm3 0v-1l-1 1v1l1-1zm3 0v1-1zm-347 0v-1h-1l-1 1h2zm36 0h2c1-1 0-1-1-1h-1v-1l1-1-1-1-1 1h-1v2c-1 1 0 2 1 2l1-1zm4-1h-1v1l1-1zm18 1h-1 1zm30-1h-1l1 1v-1zm-86-1-1-1v3l1-2zm2 1v-2l-1 2 1 1v-1zm38 0v-1l-1 2 1-1zm-34 0-1-2v2h1zm2-1-1-1v3l1-2zm3 0v-1h-2v1l1 1 1 1v-2zm39 1h-1 1zm17 0v-2l-1 1 1 1zm-63-1h-1v1l1-1zm10 0-1-1v2l1-1zm3 0c0-1 0-2-1-1l-1 2h1l1-1zm37 0v1-1zm5 0-1 1h1v-1zm10 0h-1v1l1-1zm2 0-1 1 1-1zm3-1-1 1h1v-1zm3 2v-1 1zm270-3v-2l-1 2v3h1v-3zm-350-1-1-2h-1v3l1-1v2c0 1 0 2 1 1v-3zm23 3v-1 1s0 1 0 0zm3 0-1-1v1h1zm2-1h-1l1 2v-2zm4 1-1-2-1 1-1 1 2 1 1-1zm37 0h-1v1l1-1zm6 0v-1c0-1 0-1 0 0l-1 1h1zm10 0-1-1 1 2v-1zm9 0v-3l-1-1v3h-1l-1-2v-3h-1v5h1v1h3zm-72 0-1-1c0 1 0 2 1 1zm65-3h-1v2l1 1v-3zm261 3v-3l-1 2 1 1zm-308-1v-1l-1 1v1l1-1zm7 0h-1v1-1h1zm41 0v1-1zm195 0v-4l-1 1c0 1 0 1 0 0s0-2-2-2l-1 1v5h2l2-1zm-236 0s0 1 0 0c1 0 1 0 0 0zm239-2-1-2v-1h-1v3l1 2 1-2zm4 1-1-4h-2l-1 3 1 2 1 1 2-2zm54 0v-1 2h1l-1-1zm-291 0v-1h-1v2l1-1zm8 1h-1 1zm1-1v-1l-1 2c1 0 2 0 1-1zm229-1 1-3v-1l-1 1-1 3v2c1 1 1 0 1-2zm3-1-1-2-1 3v2h1l1-3zm-251 3-1-1c0-1-1 0 0 0l1 1zm31-1h1v-3 1l-1-1h-1v1h-2v2l1-1 1 1v1l1-1zm2 0v-1 2-1zm220 0v-3l-1-1-1 2v2h2zm2-2v-8l1-1 2-1h6l-1-2-1-1-1 1h-3v-1l-1 1c0 1 0 1 0 0 0-2-1-1-1 0l-1 2-1-2v-1h-2v-3l-1-2-1 4-1 3v1h1v-1l1-1v1l2 1h1v1l-1 3 1 3v1l-1 2 2 3v-3zm3 2v-2l-1-2h-1a147 147 0 0 1 0 4l1 1 1-1zm42 0v-1l-1 1 1 1v-1zm3 0v-1l-1 1 1 1v-1zm-261-1-1 1h1v-1zm224 0v-3l-1-1h-1v5h1l1-1zm3-1v-3h-1l-1 3 1 2 1-2zm3 2 1-4-1-4-2 1 1 1v1l-1 2 1 4 1-1zm-236-2-1-2v4l1-2zm241 1-1-4h-2v5h1l2-1zm4 0-1-1-2 1-1 1h2l2-1zm4 0-1-1-1 1c-1 1 0 1 1 1l1-1zm2 1v-1h-1v1h1zm-321-1-1-1-1 1 1 1 1-1zm2 0h-1l1 1v-1zm2 0v-1l-1 1-1 1h1l1-1zm32 0h-1v1l1-1zm23 0h-1v1l1-1zm265 0h-1v1l1-1zm5 0h-2l1 1 1-1zm-333-3-1-3v6c1 1 1-1 1-3zm18 3h-1 1zm2 0zm7 0h-1 1zm322-2 1-6v-9l1-1-1-1v-1l-1-2-1 3v8l1-1v-1l1 2-1 2-1 1v1l-1 1 1 2v4h1v-2zm-351 1a135 135 0 0 1-1-1v2l1-1zm34 1v-1 1zm7-1h-1v1l1-1zm4 0-1-1v1h1zm276-1v-3h-4v2l1 2h2l1-1zm16 0-1-1-1 2 2-1zm-321 0v-6l-1 2v3l-1-1v1h-1l-1-2v-1l-1 2 1 2h4zm5 0-1-2h-2v2l1 1 2-1zm2 0 1-1-1-1h-1v3l1-1zm6 0-1-1v1h1zm3 0-1-1v2l1-1zm18-1-1-1v1c0 1 0 2 1 1v-1zm8 1v1-1zm34 0v-1 2-1zm233 0v-2l-1-1h-1v3l1 1 1-1zm1-1v-1 3-2zm4-1-1-2-1 1 1 3v1l1-3zm5 2-1-1v2l1-1zm3 0v-1 2-1zm6 0v-1h-2v1h2zm-338-1-1-1h-1v-1l-1-2v-1 6h2l1-1zm2 0v-1l-1 2h1v-1zm20 1h-1 1zm11 0h-1 1zm289-2-1-2v2l1 2v-2zm5 1v-2h2l-1-3-1 2v1-1h-1v4l1-1zm7 0h-1l1 1v-1zm6 0-1-1-1 1 1 1 1-1zm-313 1v-1 1zm3 0v-1 1zm295-2-1-2v3c1 1 1 1 1-1zm-337 0v-2l-1-1v4h-1 1l1-1zm347 1zm13-1h-1v1l1-1zm2 0c0-1-1 0 0 0 0 1 0 1 0 0zm-331 0h-1l1 1v-1zm29 0h-1 1zm2 0h-1v1l1-1zm7 0s0 1 0 0zm21 0h-1v1l1-1zm145 0h-1 1zm50-1-1-2h-2v4h1l2-2zm-35-1-1-2v4c1 1 1 0 1-2zm37 1-1-2v3l1-1zm1 0v-2l-1 2 1 1v-1zm3 1v-2l-1-1c-1-1-1 0-1 1v2h2zm-218-1h-1l1 1v-1zm179-1-1-2v2l1 2v-2zm41 1-1-5-1 2v3l1 1 1-1zm1-1v-1l-1 1 1 2v-2zm3-1-1-3h-1v5l1 1 1-3zm2 2-1-2-1 1v1h2zm7 0 1-2-1-3h-2v3l1 3 1-1zm37 0v-3l1-2 1-3-1-1-1 1-1 2-1 4 1 3 1-1zm5-1 1-2h-2l-1-1v4l1 1 1-2zm1 1v-1l-1 2 1-1zm-325 0h-1 1zm17 0h-1c-1 0-1 0 0 0h1zm263-1v-3l-1-1-1 3 1 3 1-2zm5 1-1-2-1 1c0 1 0 2 1 1h1zm3 0v-1l-1-1-1 1v1h2zm39 0v-1h-1l1 1c0 1 0 0 0 0zm-348-2v-1l-1 2 1 1v-2zm45 2v-1 1zm2 0v-1l-1 1h1zm4-1v-1l-1 1h-1v1l2-1zm2 0-1-2-1 1 2 2v-1zm6 0h-1v1l1-1zm253 0v-1h-2v2h1l1-1zm38 0v-1 2-1zm-31 0-1-1-2 1 1 1 2-1zm-254 0h-1 1zm25 0-1-1v1h1zm234-1h-1l-2 1h1l2-1zm-315 0v-1 2-1zm30 1h1v-2c-1-1-2 0-2 1l1 1c0-1 0-1 0 0zm21 0v-1 1zm31 0c-1 0-1 0 0 0zm2 0v-1 1zm13-1h-1v-3l-1 3 1 1 1-1zm4 1-2-1-1 1h3zm-108-1h-1l1 1v-1zm3 0-1-1v2l1-1zm21 0c0-1 0-1 0 0v1-1zm206 0h-1l1 1v-1zm36-3-1-10v-1 3l-1 2-2 3h1l1 1v5h1l1-3zm1 0v-3l-1 3v3l1-3zm64-1v-4l-2 2v4l1 2 1-4zm3 3-1-3v-1l-1 2 1 3 1-1zm-287-1-1-2h-1v1l1 1v1l1 1v-2zm223 0v-2 1l1 2v-5h-3v1l1 3v2l1-2zm-244 1-1 1h1v-1zm79 0v-1l-1 1 1 1v-1zm168 0-1-5v6l1-1zm2-2v-2l-1-1-1 3 1 2c1 1 1 0 1-2zm29 2v-2h-1l-1 1v1l1 1 1-1zm20-1-1-1h-2v2h3v-1zm4 1a225 225 0 0 1-1-4c1 1 1 1-1 2h-1v2l2 1 1-1zm-306 0c1 0 0 0 0 0zm11 0h-1 1zm74-1h-1v1l1-1zm171 0v-1 1c1 2 2 1 2 0v-2 1l1 2v-5l-2-1-3 1v5h1l1-1zm29 0c0-1 0-1 0 0l2 1h1v-2l-2-2-1 1-1 1h-2v1l2 1 1-1zm7 0v-3l-1-1v-1l-1 1v5c1 1 1 0 2-1zm3 0-1-1h-1v2h1l1-1zm3 1v-2h-1l-1-1v-2h-1v-1h-1v2l1 2v-1c0-1 0-1 0 0l1 2h1l1 1zm-92-1 1-1 1-1v1l1 1v-1l1-1h1l2 1 1 1h5v-4h-4l-5-1-1-1v-1l1-2-1-4v1l-2 5h-3v-2l1-1v1l2 1-1-2v-5l-1-1v-2 1l-1 3-1 2 1 5 2 2 2 1h-2c-2 0-2 0-2 2l1 3 1-1zm55-2v-1l1 1h3l-1-1-1-1-1-1-2 1v5h1v-3zm2 2v-1l-1 1v1l1-1zm8 0-1-1 1 2v-1zm46 1h-1 1zm-320-1h-1 1zm2 0h-1v1l1-1zm48 0h-1l1 1v-1zm220-2-1-3v5l1 1v-3zm56 2-1-1v1h1zm2-1c0-1 0-1 0 0v1h1l-1-1zm-334 0-1-1 1 1v1-1zm13 0-1 1h1v-1zm208 1v-1l-1 1h1zm9-2v-2l1 2v2l1-1v-1l1 1v1l1-2 1-1v-2h-2l-4 1v4l1-2zm93 0h-1v2l1-2zm-319 1-1-1 1 2v-1zm334-1h-1v1c0 1 0 1 0 0l1-1zm-272 1-1-1v1h1zm11 0v-1 1zm-56-1c0-1 0-1 0 0h1-1zm34 0h-1l1 1v-1zm276 0v-1h-1v2l1-1zm-256 0c1 0 0 0 0 0h-1 1zm234-2h1v-2l-1-1-1-1v3l-1-1h-1 1v1l-1 1v1l1 1 1-1 1-1zm4 1v-2l-1 2v1l1-1zm-285 0h-1v1l1-1zm43-1v-1l-1 1 2 2-1-2zm240 0v-1l-1 3 1-2zm-326 1-1-1h-1l-1 1h3zm47 0c0-1 0-2-1-1l1 1zm45 0h-1 1zm-88 0-1-1-1 1h2zm21-1-1-1v-1 1h-2v1l1 1 2-1zm-8 1h-1c-1 0 0 0 0 0h1zm34-1v1-1zm257 0h-1 1c0 1 0 1 0 0zm30 0v-1h-1v2l1-1zm11 0h-1v1l1-1zm16-1v-2l1-4v-6a42 42 0 0 0 0-16l-1-1-1-1v-2l-1 3a208 208 0 0 1 0 5c0-1 1-2 2-1v1l-1 3 1 2v3l-1 9-1 4 1 5 1-2zm-300 0h-2l1 1h1v-1zm286 1v-4h-1v3c0 1 0 2 1 1zm-271 0-1-1 1 1zm147-1c0-1-1 0 0 0 0 1 0 1 0 0zm86 0v-2h-1l-1 1v1l1 1 1-1zm22 0-1-2 1 3v-1zm-339 0h-1 1zm14-1-1-3-1-2v-1l-1 2 1 2v1l1 2 1-1zm261 1v-2l-1-4-1 3v3h2zm37 0v-2l-2 2h2zm23-1v-1h-1v2l1-1zm-328 0v-4l-2-4v-2c-1-1-1 1-1 2l1 5 1 2v2l1-1zm10 1-1-1v1h1zm42 0h1v-1l1-1h-1l-1 1h-2l1 1h1zm192-1h-2v1h1l1-1zm27 0h-1v-1l-1 1v1h1l1-1zm5 0-1-1-1-1-1-2v5l3-1zm6 0v-1l1-1h-1l-1 1v2l1-1zm3 0v-1h-2v2l2-1zm3 0h-1l-1 1h1l1-1zm13 1v-1 1zm14-1-1-1h1l1 1v-1l1-1 2 1v1-4l-1-1v1l1 1h-3l1-7a162 162 0 0 1 1-17h1l-1-1v-3l-1-1v-2l-1-2h-1v2l-1-1v-1 3h1l1 1v1l-1 2v1l1 2-1 1-1 1v1h2v1a492 492 0 0 0-2 18c-1 1-1-1-1-5v-4h-1v-7l1-4v-6l-1-1v5l-2 10v1l1 2h-1l-1-3-1 1v1l-1-2v-4 4h-1v-1l-1 3 1 3c1 2 1 1 1-1v-2l1 1h2l-1 4v3l1 1 1-2c0-1 0-2 1-1l-1 2 1 2 1 1v2l1 2 1-1zm0-2v-1l1 1h-1zm-3-7v-1 1zm-286 9h-1v1l1-1zm13 0 1-1-1-1v-1l-1 1v1h1l-1 1h1zm46 0s0 1 0 0zm151 0h-1 1zm4-3a109 109 0 0 1 0-8l-1 4v1l-1-3v-3h-1v11l1-1v-3l1 2v3l1 1v-4zm37 3v1-1zm63 0h2l-1-2-1 1v2-1zm-329 0c0-1 0-1 0 0zm36-1h-1v1h1v-1zm30 0h-1l-1 1h1l1-1zm1 1a1200 1200 0 0 1 0-3h-3v1h2v1l1 1zm5 0h-1 1zm140 0-1-4v3l1 1zm-204-2 1-1v1h1v-1l-1-2-1-1h-1v-1 3l1 4v-2zm26 1v-2 1l-1 1h-1v1-3l-1 1v1l2 1 1-1zm16 1-1-1v1h1zm172-1-1-2-1 1 1 2 1-1zm14 0v-8l-1 1v8l1-1zm48 0v-1h-2l1 2 1-1zm30 0v-3l-1 2 1 2v-1zm24 0v1-1zm10 0v-1l-1 2 1-1zm-310 0h-1l1 1v-1zm17 0h-1v1l1-1zm5 0v-1h-1v1l1 1v-1zm16 0h-1 1zm1 0h-1l1 1v-1zm146-1v-2l-1 2 1 1v-1zm18 1v1-1zm53-1-1-2c0-1-2 1-1 2v2l1-1 1-1zm33 1v-1l-1 1 1 1v-1zm-309 0h-1 1zm40-1v-1l-1 1v1h-1c1 1 2 0 2-1zm16 0-1-1c0-1 0-1 0 0l-1 1 1 1h1v-1zm227 0-1-1v2l1-1zm18 0-1-1v2l1-1zm-337 0v-2l-1-2v5l1-1zm9 0h-1c0-1 0 0 0 0v1l1-1zm10 1v-1l-1-1v2h1zm13 0-1-1v1h1zm22 0v-1 1zm16-1h-2l1 1 1-1zm199 0-1-2v1l1 2v-1zm61 1-1-2v1l1 1zm22-1c0 1 0 0 0 0l-1-1-1 1 1 1 1-1zm-317 0v-1h-1v1h1zm25-1v1s0 1 0 0v-1zm39 1h-1 1zm158 0-1-1-1 1 1 1 1-1zm29 0h-1l1 1v-1zm56 0v-2l-1-1v3h1zm-261-1-1 1h1v-1zm178-2-1-3v6l1-3zm8 2h-2v1h1l1-1zm28 1v-1l-1 1h1zm2-1h-1v1l1-1zm9 0v1-1zm7 1v-1 1zm25 0v-1l-1 1h1zm-240-1h-2 2zm152-2v-4h-1v5c0 2 0 2 1-1zm14 0v-5h-1l-1 1 1 6c0 1 1 1 1-2zm13 1-1-4v5l1 1v-2zm27 0h-1v1h1v-1zm5 1-1-1v2l1-1zm31 0v1-1zm9 0 1-1-1-1-1-2v-8c1-1 0-1 0 0l-1 4v9l2-1zm-287 0v-1 1c0 1 0 0 0 0zm15 0c1 0 1 0 0 0zm206 0v-3c-1 0-2 2-1 3h1zm-210-1v1-1zm15 0v1-1zm191-2v-4s0-1 0 0v7-3zm11 2h-3 3zm12 0v-1h-1l-1 1 1 1 1-1zm33 0-1-2-1 1 1 2 1-1zm9 0v-10c-1-1-1 0-1 1v2-1l-1-2-1 2v2h-1 1v1l1 2v-1l1 2v3l1-1zm-311 0h-1v1l1-1zm37-1v1h-3 3v-1zm-23 1 1-1-1-1-1 2h1zm19 0h-1 1zm16 0zm19-1-1-2h-1l1 1v2l1-1zm2 1v-5h-1v5h1zm211 0-1-2v2h1zm2-2-1-2h-1l1 4 1-2zm14-3-1-4v-2l1-2v-1l-1-3-1-4-1-1v1l-1 1h-1v3l-1 4 1 1 1-1v-3l1-2 1 7-1 9v2l1-1v-4l1-3v9l1-2v-4zm16 5v-3h-1v3h1zm-305 0 1-1 1-1h-2l-1 1v1h1zm11-1v1-1zm235 0-2-1v2h1l1-1zm19 1h1l1-1 1-1v-1h-1c-1 0-1 0 0 0v-1l-2-2 1-2v-1h-1l1-1 1-1v-7l1-3 1-3v-2l1-1h-1l-1-1-1-1-1 4 1 1v2l-1 6-1 5-1 3-1 3-1-2v-3h-1v6h3v1h-1l-1 1 1 1v-1h1l1-1h1l-1 1-1 1 1 1c0-1 0-1 0 0zm49 0-1-4v-4l-1-2-1-1v4l-1 2v-4l1-4v1h1c1 0 2 0 2-2l1-2h1l-1 1a64 64 0 0 0 1 13v-3l1-3 1-3-1-3-1-5-1-2v-2l-1-1-1 3v2l-1 1-2 1v-1l-1-1v1a158 158 0 0 0 0 12l-1 1 1 2 1 3v-1h1l2 1h1zm-340-1-1-1-1-1v2h2zm34 0h-1l1 1v-1zm45 0h-1l1 1v-1zm4 0v-3l-1-3v3l1 4v-1zm132 0v-1h-1c0 2 1 2 1 1zm65 0v-2l-1-2c0-1 0-1 0 0l-1 3 2 1zm-295 0c0-1 0-1 0 0zm21 0-1-3v2l1 1zm8-1h-1v1l1-1zm6 1v-1l-1 1h1zm47 0h-1 1zm158-1v-2h1l1 1h1v-1h-3l-1-2-1-1 1 5 1 1v-1zm3 1-1-1v1h1zm26-2-1-1v2c0 2 0 2 1 1v-2zm68 0-1-2v4l1-2zm24 0-1-5-1 2 1 5 1-2zm-294 2v-1l-1 1h1zm206-1h-1l1 1v-1zm-227 0h-2 2zm29 0 1-2v-1l-1 2-1 1 1 1v-1zm5 0h-1s0 1 0 0h1zm172 0h-1v1l1-1zm45 0c0-2 1-2 1-1v-2l1 1v1h1l1-2-1-5a443 443 0 0 0 0-6l1-3v-2l-1-1v4l-2 2-1 1 1 1 1 3v5h-1l-1-1v2l-1 1v3l1-1zm15 0 1-1v-1l-1-1v-3l-1 1-2 1-1 1h1l1 1v-1c0-1 0-1 0 0l1 1v2l1 1v-1zm-228-1-1-1v2l1-1zm282 1c1 0 0 0 0 0zm-339-1v-1 1c0 1 0 1 0 0zm8 0-1 1h1v-1zm20 0v-1l-1 1v-1l-1-1h-1v1l1 2h1l1-1zm271 0 1-1v-2h-1v4-1zm-329 0s0 1 0 0c1 0 1 0 0 0zm6-2-1-1-1-3-1-3-1-2v-3h-1l-1 4 1 4 1 3v2h1v1l3-2zm9 1-2-3v4c1 1 2 1 2-1zm73 1h-1l1 1v-1zm67 0-4-1h-7c-1 0-2 1 0 1h1l5 1 5-1zm50 0h3l-2-1-6 1h5zm70-1v-2l-2 3c1 1 1 0 2-1zm15 0v-2l-1 1-1 2 1 1 1-2zm3 1v1-1zm50 0h-1v1l1-1zm-315 0-1-1v1h1zm37-1h-1v1h1v-1zm8 1-1-1 1 1zm26 0h-1 1zm31 0-4-1h-4l4 1h4zm6-1h1l-3-1-2 1-1 1h4l1-1zm120-2v-3h-1l-1 3 1 3 1-3zm80 2v-4c0-2-1-1-1 1v4l1-1zm-317 0v1h1l-1-1zm102 0 2-1v-1h-6l1 2 2 1 1-1zm18 0v1-1zm41 0h-4c-1 1 0 1 2 1l2-1zm84-2v-7l-1 1v4l1 4v1-3zm74 0v-6l-1 1a66 66 0 0 0 0 8l1-3zm-326 2v-1h-1l-1 1 1 1 1-1zm6 0v-1l-1-1 1 3v-1zm11 0-1-1v2l1-1zm7-1v-2l-1 1 1 3v-2zm3 0-1-1v2c1 1 1 0 1-1zm53 0-1-1v2l1-1zm140-1v-3l-1-1v-1l-1 2 1 3v2l1 1v-3zm45 2h-1l1 1v-1zm-223-1v1-1zm41 1-1-1 1 1zm79 0v-2h1l-2-1v1l-1 1v1h2zm95-1v-1l-1 2h1v-1zm15-2-1-2h-1v1l1 1v2l1 1v-3zm2 3-1-1-1 1h2zm6-1v-2l-1 3c1 1 1 0 1-1zm-229 0c0-1 0 0 0 0v1-1zm14 0h-1s-1 0 0 0h1zm16 0h-1l1 1v-1zm10 0h-1l1 1v-1zm82 0v-2l-2 2 1 1 1-1zm16 1-2-1-1-1v2h3zm38-1v-1 2-1zm24 1-1-1v-2h-1v2l2 1zm86-1h-1l1 1v-1zm-305-1-1-1h-1l-1 1 3 1v-1zm44-1v-1l-1-1v-1 3h-2 1l1 1v2l1-1v-2zm100 2h-2 2zm9-1v-1h-1v1l-1 1h1l1-1zm76 0h-1v1l1-1zm7 1v-2c-1-1-1 0-1 1v1h1zm16 0v-1l-1-1-1-1 1-1 1-3h-1l-1 2-1 1v1l1 2v1h2zm-295-1-1-1v2l1-1zm34-1-1-2-1-1v1l1 3v1l1-2zm17 2v-2l-1-1-1 1 1 1v1h1zm32 0v-1l-1 1h1zm15-1h-2v1h1l1-1zm46 1-1-2v2h1zm81 0 1-1v-2l-2 1v2h1zm20-1h-1l1 1v-1zm14-2-1-3v6l1-3zm-228 2h-2 2zm99 0v-2h-1l-1 1v1l1 1 1-1zm11 0-1-1v1h1zm10 0 1-1h-3v2l2-1zm68-1-2 1h-1 2l1-1zm9 1h-1c-1 0-1 0 0 0h1zm42 0h-1l1 1v-1zm-191 0s0-1 0 0zm34 0h-1 1zm24-1-1 1c-1 0-1 0 0 0h1v-1zm10 0h-1l-1 1h1l1-1zm58 1 1-1v-2l-3 3h2zm136-1v-1 2-1zm29 1-1-1h-1l1 1h1zm-350-1v-1l-1 1 1 1v-1zm44 0h-1l1 1v-1zm41 1-1-1v1h1zm22 0v-2l-1 1v1c-1 0 0 0 0 0h1zm93 0 1-1h-2v1h1zm37-1v-1h-2l1 2 1-1zm29-1v-2l-2 3v1l1-1 1-1zm37 1v1-1zm25-1h-1v2l1-2zm16 1v-1l-1 1 1 1v-1zm-338 0h1l-1-3-1-1v3l1 2v-1zm176 0-1-2h-1v1l-1 1 2 1 1-1zm84 0v1-1zm12 0h-1l1 1v-1zm12 0h-1 1zm-215-1v-3h-1l-1 1h1v1c-1 0-1 0 0 0v2h1v-1zm20 0v-1h1l-1-1h-1v3l1-1zm41 1-1-1h-1v1h2zm6 0v-1 1s1 0 0 0zm48 0 1-1 1-1v-1l-4 3h2zm59-2v-1h-1l-1 2v1h1l1-2zm5 1v-2l-1 2 1 1v-1zm-234 0v1-1zm6 0h-2l1 1 1-1zm87 1v-1c0-1 0-1 0 0h-1v1h1zm61-1h-2l1 1 1-1zm20 1 2-1 1-1-1-1-3 3h1zm62 0v-1l-1 1h1zm-261-2 1-2 1-3v-2l-1 1c1 1 0 2-1 2v-4h-1l-1 3-1 3-1 1-1 1v1l2-2 1-2h1v5l1-2zm2 1h-1l1 1v-1zm26 0v-1h-1l-1-1h-2v1h1l2 1 1 1v-1zm70 0h-1v1l1-1zm13 0h-1l1 1v-1zm58 0h-1l1 1v-1zm41 0v-1h-1l-1 1 1 1 1-1zm52 0c0-1 0 0 0 0 0 1 0 1 0 0 1 0 1 0 0 0zm52 0v-3l-1 3h1zm-300-1h-1v1h1v-1zm2 1h-1 1zm43 0h-1l-1-1v1h2zm23 0 1-2-1-2-1 2v2h1zm12-1-1 1 1-1zm140 0v-3l-1-1v1l-1 2 1 2 1-1zm23 1v-4c0-2-1-2-2-2v2c0 2 0 2 1 1v1l-1 2h2zm18-1h-1v1l1-1zm-229 0c0-1 0-1 0 0l-1 1h1v-1zm78 1v-1 1zm7-1c0-1 0-1 0 0v1-1zm90 0 1-2-1-2h-1v5l1-1zm3 0-1-2s0-1 0 0v3l1-1zm4 0h-1l1 1v-1zm54 0-1-2v3l1-1zm2 0v-4l-1-6v11l1-1zm-217 0c0-1-1 0 0 0 0 1 0 1 0 0zm100 0h-1v1l1-1zm22 0h-1l1 1v-1zm18 0 1-1c-1 0-1 0 0 0v-1c-1-1-1 0-1 2 0 0 0 1 0 0zm58 0v-1l-1 1 1 1v-1zm11 0h-1l1 1v-1zm19 0s0 1 0 0zm23 0h-1v1l1-1zm-311-1v-1l-1-1-1 1v2h1l1-1zm27 0v1-1zm7 0v-1 2-1zm19 1-1-1-1 1h2zm27-1v1-1zm12 0h-1l-1 1h1l1-1zm7-1v2-2zm124 1 1-1h-2v-4h-1v1l1 3v2l1-1zm21-1-1-1h-1l1 2v1l1-2zm75 1v-2l1-1 1 1v-3l1-2v3l1-3v-3h-1l-1 1-2 5v-10l-3 5 1 1 1-2 1 2a101 101 0 0 0 0 9v-1zm-333 0-1-1-1 1v1l2-1zm11 0c-1-2-1-3-1-1v2l1-1zm12 0-1-1v2l1-1zm33 0v-1l-1 1 1 1v-1zm26 0 2-2-1 1-2 1-1-1c0-1 0-1 0 0h-1v1s0 1 0 0h2v1l1-1zm3 1-1-1v1h1zm31 0-1-1h-1v1h2zm3 0v-2l-1 1 1 1zm9 0-1-1v1h1zm73 0c-1 0 0 0 0 0zm69 0v-1l-1 1h1zm35-3 1-3 1-2v-1l-2-1-2 1-1 2 1 2 1-1v-1 6c1 1 1 1 1-2zm45 2h-1v1l1-1zm5 0-1-5v-3 3l1-1v-3l-1-6v-5h1l1 1 1 1v-5h-2l-2 1-2 1-1 1-1-1-1 1c-1 1 0 3 1 3v-1h1l1 1 1 1v7l1 4a1461 1461 0 0 0 2 5zm6-1v-3l-1 5 1-2zm-324 1v1-1zm3 0-1-1v1l1 1v-1zm19 0 1-1-1 1c0 1 0 1 0 0zm39 0h-1l1 1v-1zm91-1-1 1h1v-1zm44 0v-4c-1-1-1-1-1 1v5l1-2zm94 1v-2 1h-2v1h2zm-326-1 1-2h-2l1 3v-1zm60 1v-1l-1 1h1zm40 0c1 0 2-2 1-3h-1v1l-1 1h-1l2 1zm109 0v-1l-1-1-1 1h1v1h1zm9 0 2-1v-1l1-1-1-1h-1l-1-1h-1l-2 1v1h3l1 1h-2l-2 1v1h3zm16-1h-1c0-1 0 0 0 0v1l1-1zm14 0v-3l-2 3c0 2 2 1 2 0zm110 0v-5 1l-1 5h1v-1zm-292 0v-2 3-1zm26 0-1-1-2 1 2 1 1-1zm4 0h-1v1l1-1zm32 0h-1l1 1v-1zm9 0v1-1zm68 0v-1l-2 1 1 1 1-1zm19-2v-1h-1v-2l-1 2v1h1v2l1 1v-3zm56 2v-2l-1 2 1 1v-1zm4 1-1-1v1h1zm13-1v1-1zm18-1-1-1v-2l-1 1v1l1 2h1v-1zm4 2-1-1v1h1zm23-2v2-2zm23 2-1-2v1l1 1zm-337-1h-1 1zm7 0h-1 1zm26 0v-1 1zm3-1h-1c0-1 0 0 0 0v1l1-1zm31 1h-1 1zm14 0h-1 1zm33 0h-1 1zm53 0v-1l-1 1h1zm17 0h-1 1zm47 0-1-1-1-5v6h2zm79 0c0-1 0 0 0 0zm-342 0-1-1v1h1zm35-1v-3l-1 1v3l1-1zm83 1-1-1v1h1zm5 0v-1l-1 1h1zm28 0-1-1v1h1zm31 0h-1 1zm104-1v1-1zm17-1v-1l-1 2v1-1l1-1zm31 1h-1l1 1v-1zm-314 0h-1v1l1-1zm10 0v-2h1-1l-2 1v1-1c0-1 0-2-1-1v2l1 1 2-1zm13-1v-2c0 1 0 1 0 0h-1v2l-1 1c1 1 2 0 2-1zm13 1v-1l-1-1v3l1-1zm45 0 1-1c0-1-1-2-2-1v2h1zm27 0 1-1v-2h-1l-2 3h2zm1 0v1-1zm29 0v1-1zm6 0-1-1-1 1h2zm113-1-1-3v2l1 2v1-2zm3 1 1-1v-3l-1 1v1l-1 2c0 1 0 1 0 0h1zm3 0-1-1v2l1-1zm-204 0h-2 2zm2 0h-1 1zm1 0-1-1 1 1zm7 0h-1 1zm65 0h-1 1zm21 0c0-1 0-2-1-1l1 1zm2 0h-1 1zm92-1h-1l1 1v-1zm2 1v-1h-1v1h1zm21 0-1-3v1l-1 1 1 1h1zm6-1v-2 3-1zm26 0v-1h-1v2l1-1zm-301 1-1-1-1 1h2zm25-1v1-1zm26 1v-1 1zm10 0-1-1v1h1zm14-1v1-1zm9 1h-1 1zm6-1h-1v1l1-1zm59 1h-1 1zm26-1h2l-3-1v2l1-1zm43 0v-1l-1-1v3l1-1zm9 0v-2l-1-1-1 4 2-1zm38 0-1-2v3l1-1zm11 1v-1 1zm7-1c0-1 0-1 0 0v1-1zm26 0v-1l1-4v-5l1-3 1-2v-1c-1 0-1 0 0 0v-2l1 1v1l1-1v-2l-1-3v-2h-1c0 1 0 1 0 0l-1-1v3c0 2 1 2 1 1v-1 4h-1l-2 3-2 3h1v2l-1 3v4l1 3c0-1 0-1 0 0h1zm-292 0s0-1 0 0l1-1-1-1h-2v1l1 1h1zm24 0v-1 1c0 1 0 1 0 0zm13 0v-1l-1 1h1zm33 0c0-1 0 0 0 0 0 1 0 1 0 0 0 0 1 0 0 0zm7 0-1-1-1 1v1l2-1zm16 0v-1h-1l-1 1 1 1 1-1zm68-1-1 1h1v-1zm6 1 1-3v1l-2 1v2l1-1zm26 0v1-1zm68-2-1-2v2l1 3v-3zm-299 1 1-1-1-1-1 3 1-1zm57 1v-1l-1 1h1zm90 0v-1 1c0 1 0 0 0 0zm63 0-1-1v-2l1-1-2-1h-1v4l1 1h-1 3zm4-1 1-1 1-1v-2l-1 2-2 1h-2c0 1 0 0 0 0l1-1-1-1h-1v1l-1 1 2 1 1 1 2-1zm22 1h-1 1zm51-2v-2h-1l1 4v-2zm40 2v-13l1-5 1-2 1-1v-3h-1v3-4h1v-1h3l1-3v-4h1v1l1 2h1l2 3h1l2 2v2l1-1v-7l-1-1-1-2-2-2-1 2-1 1-1-4 1-2 2 1h2l-1-2-1-3v-3l-3-1-1 1v1l-1 1 1 3 1 1h-4l2 1v2l-2 3-2 2-1-1 2-2 2-2h-2v-1l-1-2v1h-1l1-1 1-2-1-1-3-3-2-1-1-1h-2v3l1 2 2 1c1 1 1 2 2 1h1v4l-1 2v-1l-1-1-1 1c0 2-1 2-1 1v-1l-2-1h-1l-1-1v1c0 1 0 2 3 3l3 2-3-1h-4 1l1 2a140 140 0 0 0 1 12l1-1v-3l2-6 1-1 1-1h1l-1 2v11l-1 3v2l-1 2v3l1 4a145 145 0 0 0 1 4zm13-32v1-1zm-3-10-2-1 1-1 2 1v2l-1-1zM83 215c1-1 0-3-1-3l1-1h-2v1l1 1c-1 1 0 2 1 2zm23-1-1-6-1 1 1 6h1v-1zm8-1 2-2v-1l1-1 1-1h-3l-1 2-1 2-2 2h1l2-1zm11 1h-1l-1 1h1l1-1zm14 0-1-1v2l1-1zm18 0h-1l-1 1 2-1zm51 1-1-1-1 1h2zm63 0-1-2-1 2h2zm20-4v-4l-1-1-1-1v2l1 1-1 1v2l1 2v2l1-4zm11-2v-9h-1v-2l-1-1v-1l-1-2v-1l-1 1c-2 1-2 2-1 2v2l-1 1h3l1 2v10l1 3v1h1v-6zm-4-14c0 1 0 1 0 0zm31 19h-1v1l1-1zm29 0v1-1zm4 0h-1v1l1-1zm15-1a249 249 0 0 0 1-6l-2-1-1-1v5l1-1 1-1-2 6 1 1 1-2zm-301 1h-1l1 1v-1zm2 0v1-1zm8 0h-1v1l1-1zm77 0h-1v1l1-1zm126 0h-1v1l1-1zm-251 0v-2l-1-2v4h1zm82 0 2-1v-2h-1l-2 1v1l1 1zm9-1h-1v1l1-1zm44 1h-1 1zm121 0v-1 1zm-271-2v-1l-1 1v2l1-1v-1zm26 1h-1l1 1v-1zm39 1h-1 1c1 0 1 0 0 0zm22-2 1-2 1-2h1v1l2-2h-2l-2 1-2 1-1-2v-1l-1-1-1 1v3l1 3 1 1v1l2-2zm22 1v-2c-1 0-2 0-2 2v1l2-1zm18 0v1-1zm40 1h-1 1zm10-1-1 1h1v-1zm80 1v-1 1zm70-1c0-1 0-1 0 0v1-1zm-333-1v-1l-1-1h-1l-1 1v1l2 2 1-2zm51 1h-1 1c1 0 1 0 0 0zm31 0v1-1zm42 0h-1 1zm57 0v1-1zm46-2v3-3zm28-3h1l1-3v-2l-3 3v7l1-2v-3zm12 4 1-2v1l1 3 1-2 1-4-1-4-1-1v-1h-1v1l1 2v3l-1 1c-1-1-2 1-2 3l1 2v-2zm35 1v-1h-1v-1l-1 1 1 1h1zm-275 0h-1 1zm22 0zm4-1h-1l1 1v-1zm176 0v-1l-1 1 1 1v-1zm82 0v-1l-1 1 1 1v-1zm-271 1h-1 1zm3-1v1-1zm13 1 1-1v-1c1 0 1 0 0 0h-1l-1 1v1h1zm31-3-1-1v4-1l1-2zm113 2v-1l-1 1h1zm22 0h-1l1 1v-1zm11 0-1-1-1 1c0 1 0 1 0 0v-2l-1-2-1-1v-1 3l1 2v1l2 1 1-1zm18-2 1-3v-1h-1l1-2h-1l-4 4v2l1 1 1-1v-2l1 2 1 3v-3zm13 2h-1v1l1-1zm2 0v-3l1-2-1-2h-1l-1 1h2l-1 1v6l1-1zm5 0v1-1zm73-2v-3h-1v5l1 1v-3zm-313 2v-2c-1 0-2 1-1 2v1l1-1zm7-1-2-2-1 1 1 1 2 1v-1zm30 1h-2l1 1 1-1zm174-1v-2 3-1zm21 1-1-10-1-1v5a255 255 0 0 1 1 7l1-1zm18 0v1-1zm-235 0h-1 1zm27 0h-1 1zm96-1-1 1 1-1zm9 1-1-1v1h1zm28 0v-1 1zm18 0 1-1 1-1c1 0 1 0 0 0h-2l-2-1 1 1v2h1zm90-1v-1l-1 2h1v-1zm29 0h-1v1l1-1zM8 210l-1 1 1 1v-2zm11 1h-1l1 1v-1zm70 0h-1v1l1-1zm46 0h-1l1 1v-1zm14 0h-1l1 1v-1zm14 0h-1v1l1-1zm36 0h-1v1l1-1zm14 0h-1l1 1v-1zm24 0h-1l1 1v-1zm92 0v1-1zm-308 0h-1c0-1 0 0 0 0h1zm9 0v-1l-1 1h1zm36 0-2-1 2 1zm30-2v-2h-1l-1 2c0 2 0 3 1 2l1-2zm2 2h-1 1zm197 0zm-259-2v-2l-1 1v3l1-2zm23 0v-1h1-1l-1 1v2l1-1v-1zm17 1v1-1zm94 0v1-1zm35 1-1-2v1l1 1zm131 0-1-1-1 1h2zm-249-1-1-1v1h1zm7 0h-1v1l1-1zm164 0h-1l1 1v-1zm46 0-1-1v2l1-1zm54 0v-2l-1-1v4l1-1zm-268-2v-2l-1 2-1 1 1 1 1-2zm11 1h-1v1c1 1 1-1 1-1zm29 1h-1 1zm83 0v-1h-1v1h1zm3 0c0-1 0 0 0 0zm9-1-1-2v-1c1 0 1 0 0 0v-2l4 1-2-2-2-1s-1 0 0 0h5l-1-1-1-1h-1l1-1 1-2 1 1v-1l-1-1-1-1v-4l1-1c0-2-1-1-2 1v2h-1l-1-1-2 3v5l1 1-1 1v1h1l-1 2-1 1h2v3l-2 1h4zm0-5v-1h1v1h-1zm-1-4v-4h-1 1l1-1v-1l1 2v2l-1 1-1 2v-1zm7 9 1-1v2l1-1 1-1 1-1h3c-1 0-1-1 1-2l1-1 1 1 2-1 1-2v-1l-1 1-1-1h-1v-1l1-2-2 1-3 2h3c1-1 1 0 0 0l-2 2-3 2-1 1v1-1h-1l-1 1v-1l1-2h1l-2-2-4 2h4l-1 1v3l-2 1h-1l1 1h1l1-1zm20 0-1 1h1v-1zm61 1-1-1v1h1zm-241-1-3-1 1 1 2 1v-1zm11 0v1-1zm3 1-1-1c0-1 0-1 0 0v1h1zm55 0v-1l-1 1h1zm42-1h-1v1l1-1zm25 1v-1l-1 1h1zm2-1v1-1zm27 1-1-1v1h1zm9-1-1-1h-3 1l2 1 1 1v-1zm29 0-1 1h1v-1zm24 0-1-2h1v-6l-1-1-1 1v9l2-1zm17 0c0-1 0-1 0 0l-1 1h1v-1zm15 1v-4c1 0 1 0 0 0h-2v4h2zm-316-4-1 2c0 2 0 2 1 0v-2zm8 3v-1l-1 1h1zm6-1h-1l1 1c0 1 0 1 0 0v-1zm12 0v-3l-1 3v2l1-2zm5 1v-2h-1l1 3v-1zm109 0-1-1v2l1-1zm73 1v-1h-1l1 1zm11-1v-1h-1l-1 1h2zm20-1-1 1h1v-1zm19 1h-1 1zm17 0c0-1 0-1 0 0h-1l-1-1v1l2 1v-1zm-247-1-1 1h1v-1zm4 1zm11 0h-1 1zm61 0-1-1-1 1h2zm5 0-1-1h-1v1h2zm28 0h-1 1zm9-1v-1h-1l-1 1v1l2-1zm142 1-1-2h-1l-1-1 1-2 1-3-1-3v-1l1-2v-1h2v-3l-1 2v1l-1-1v-15l-1-1v1l-1 2v-1l-1-1h-2l1 3 1 1v1l1 3v9l-1 1-1 1v1h1l1 1-1 2v6l1 1 1 1h2zm59-3v-1l-1 2v2l1-1v-2zm-292 3-1-1v1h1zm56 0-1-1v1h1zm3-1h-1v1h1v-1zm-107-1-1-2h-1l1 1 1 2v-1zm24 1v-1c0-2-1-2-1-1-1 1 0 3 1 3v-1zm15 0-1-1v-1h1l1-1v-1h-2l-1 1v1l-1-1-1-1v1l1 1h-1 1l1 1 1 1h1zm11 0h-1v1l1-1zm5 0c-1 1-1 1 0 0zm68 0h-1s0 1 0 0h1zm52 0c-1 0-1 0 0 0v1-1zm3 0s1 0 0 0h-2 2zm11 0-1-1-1 1 1 1 1-1zm5 0v1-1zm97-1 1-3v-5 1l-1 2v-2l1-3 1-1 1 1v2l1-4 1-1v-4l-4 2v2l-1-2v-2l-1-3 2-2v1l-1 1 1 2 2-1 1-4 1-3v-1l1-1v1c0 1 0 2 1 1v-2l-1-2-3-1 1 2v2l-1-2-1-1-1 2h-3v2-1h1l-1 3-1 5 1 7v7l-1 1h-1v-3l-1-1-1-1v-1l1-1v-1l1-1h-1l-1-1-1 1v1c0 1 0 1 0 0-1-1-1-1-1 1l1 2 1 1-1 2-1 1 1 1v1l1 2v1-1l1-2 1 1 1-1h1v3l1 2 1-2zm-245-1v-1l-1-1v2l-1 1 1 1 1-2zm19 1c1-1 1-1 0 0v1-1zm52 1-1-1v1h1zm25 0h-1c-1 0-1 0 0 0h1zm12 0v-1 1s1 0 0 0zm37 0 1-1h-1l-1 1h1zm109 0-1-1v1h1zm37-1v-1h-1v1l1 1v-1zm-307 0h-1l1 1h1l-1-1zm174 1-1-1h-2l1 1h2zm78-1-1-1v2l1-1zm-124 0v-1l-1 1 1 1v-1zm3 0v-1 2-1zm-151-1v-2l-2 3h1l1-1zm11 1-2-3h-1v2l3 1zm126 0h-2 2zm-161-1-1-3v4l1-1zm48 0-1-1-1-2-1-2-1 1-1-1-1 1 2 1 1 2v1l2 1 1-1zm7-1h-1v2l1-2zm17 1v-1h-1v2l1-1zm28 0h2l1-1 1-1 3 1 1 2v-1l2-1 2-1v-1l-1-1-1 1-2-1v-1l-1 1-1 1h-2l-1-1h-2l-1 1-1 1-1 1-1 1 1 1 2-1zm29 1v-1l-1 1h1zm40-1v1-1zm12 0h-2v1h1l1-1zm12 1-1-1-1-2h-1v1l1 1h1l1 1zm88-1v-1l-1-2v3h1zm26 0v1-1zm-303-1 1-2v-2l-1-1v-2l1-2v-3l-1 1-1-1 1-2v-3l1-2-1-2-1 1-1 6v8l1 1v1l1 6v-2zm15-1v-2h3l-2-3-1-3v1c-1 2-2 7-1 9 0 1 1 1 1-2zm22 1h-1v1l1-1zm52 1-1-2-1-2v4h2zm19 0h-1s-1 0 0 0h1zm4 0 1-2-3 1v2l2-1zm67 0v-1 2-1zm21 0v-1l-2 1 1 1 1-1zm28-1v1s0 1 0 0v-1zm80 1c0 1 0 1 0 0zm61-1-1-1v3l1-2zm-171 0h-1v1l1-1zm50 1v-1l-1 1h1zm63-1h-1v1h1v-1zm34 1h-1 1zm-324-1v1-1zm95 0-1-1v2l1-1zm21 0v1-1zm48 0-1-1v2l1-1zm6 1-1-2-1 1 2 1zm12 0v-1 1zm27-1v-1l-1 1h1zm88 0v1-1zm-253 0-1-1 1 1zm17-1 1-1v-1h-1l-1 2 1 1v-1zm39 1-1-1h-1l1 1h1zm80 0zm92 0zm-277 0v-1l-1 1h1zm16-1v-1h-1l1 2v-1zm41 1v-1 1zm110 0h-1 1zm72 0 2-3 2-3-1-1-2 2v2l-1 1-1 1-1 1h2zm36-1 1-4-1-3-1 6 1 2v-1zm72-1v-3h-1a233 233 0 0 0-1 2l-1 1 1 1 1 1 1-2zm-278 0c0-1-1-1 0 0v1c0 1 0 0 0 0v-1zm38 1h-2l1 1 1-1zm4 0-1-1-2 1 2 1 1-1zm2 0h-1 1zm9 0-1-1-1 1 2 1v-1zm10 0h-1v1l1-1zm113-1-1-3v5l1-2zm64 1h-1v1l1-1zm13 0 1-1h2l-1-3-1-2-1 2-1 5 1-1zm16 0v-1l-1 1 1 1v-1zm-350 0s0-1 0 0zm36 0zm31 0v-1h-1l1 1zm9-1v-1l-1 2 1-1zm53 0-1 1h1v-1zm29 0h-1c-1 1 0 1 1 1v-1zm106 1-1-1v1h1zm7 0zm-131-1v-1l-1-1-1 1 2 2v-1zm75 1v-1 1zm-185-1h1s1 0 0 0v-1h-2l1 2v-1zm4 0v1-1zm111 0v-1l-1 1 1 1v-1zm2 0c1 0 0 0 0 0 0 1 0 1 0 0zm48 0h1v-1l-1-1-1 1h-1l2 2v-1zm31 0v-1l-1 2 1-1zm36-1c1 0 1 0 0 0h-1l1 1v-1zm18 2-1-1v1h1zm40-1 1-1h-1l-1 1v1h1v-1zm22 0h1v-3l-1-4-1-1a22 22 0 0 0-1 8l1 1 1-1zm-302 0 1-1v-1l-1-1a216 216 0 0 1-1 2l1 1zm12-1v1-1zm13 0-1-1v1l1 1v-1zm4 1v-1c-1 0-2 0-1 1h1zm20 0v-1l-2 1h2zm18 0v-1l-1-1-1 1v1h2zm5 0 1-1-1-1-1 1c-1 1 0 2 1 1zm55 0c1 0 1 0 0 0zm34-1v-1l-1-2a305 305 0 0 1 0 2l1 1h-1l-1-1v1l2 1v-1zm49 0v-1l-1 1-1 1h1l1-1zm57 0-1-1v2l1-1zm4 1v-1l-1 1h1zm28-3h-1l-1 1 1 2 1 1v-4zm7 2v-3l-1-3h1l1-1 1-1-3-2-1 1c-1 1-2 3-1 5l1 2 1 2v1l1-1zm-353-2-1-4v-3l1-3-1 1-1 2v8c1-1 1 0 1 1l1 1v-3zm70 3-1-1v1h1zm46 0v-1l-1 1h1zm7-1v-1l-2 1 1 1 1-1zm11 0h-1l1 1v-1zm15 1-1-2v1l1 1zm10 0v-2l-1 1v1h1zm9-1v-1 2-1zm37-1h-1v1l1 1v-2zm70 0 1-4 1 1 1 1 1-4-1-5h-1v-1h1l2-1h-1l-1-1v-5l1-2 1-1h-1v-2l-1-2-1 1-1 2 1 2v3l-1 2 1 2h-1l-1 1v3l1 2v2l-1-1h-1v1a23 23 0 0 1 0 8l1-2zm3 1h-1v1h1v-1zm-245 1v-1h-2l1 1h1zm17-1 1-1v-1h-1l-1-1v3h1zm79 0-1-1-1 1 1 1 1-1zm32 0h-1l1 1v-1zm10 0v-1l-1 1 1 1v-1zm50 0v1-1zm95 0h-1v1l1-1zm-286-2 1-3v-1h-1l-1 2-1 2v2h1l1-2zm34 0a150 150 0 0 0 0-8l1 1v3l1-1 1-3 1-3 1-1 1-1v-3l-2-1c0-1 0-1 0 0h-1v-2l-3-2v3h1v2l1 4v1l-1 1-1-3-1-3-1-3 1-5v-3l-1-4-1-2-2 1v2l1 2h1l-1 1v5-2l1-2 1 1v1l-1 11 1 6 1 1v2c-1 1-2 5-1 6h1l1-2zm15 2h-1 1zm46-1-1 1h1v-1zm66 1-1-1v1h1zm131-2-1-1v3l1-2zm-296 1c0-1 0 0 0 0 0 1 0 1 0 0zm15 0h-1l1 1v-1zm98 1v-1 1c-1 0 0 0 0 0zm56-1h-1v1l1-1zm57 1v-1c-1 0-2 0-1 1h1zm-184-1h-1l1 1v-1zm32 0-1-1-1-1v2l1 1 1-1zm96 0h-1l1 1v-1zm116 0v1-1zm-178 0c-1 0-2 0 0 0zm41-1v1-1zm47 1 1-2h3v-3h1v-1l-1-1h-1v1l-1 1-3 2v3h1zm47 0h1v-1h-1l1-1 1-1h-3v-4c0-2 1-1 1 1l1 1a1598 1598 0 0 1 3-6l-1-1h-1v2l-1 2-1-1v-2l-1-1h-1l-1 1h-1l-1 1 1 1 1 3-1 3-1 1 1 1 1-1h1l1 2h1zm-2-9 1-1v2l-1-1zm-227 9v-1l-1 1h1zm26-1c-1 0-1 0 0 0v1-1zm5 0v-1l1 1v-3l-1 1h-1v3l1-1zm11 0-1 1 1-1zm3 0h-1v1l1-1zm8 1-1-1v1h1zm30-1h1l1 1 2-2v-1h-3l-5 2 1 1 3-1zm94 1-1-1v1h1zm25-1v-3l-1-2c1-1 0-1 0 0h-3v2l1 1 1 1 1 2 1-1zm54 0v-1l-1 1h1zm-253 0v-2l-1 1-1 1h2zm15 0v-3l-1-1-1-1-1 2 1 1 1 1v2l1-1zm134 0h-1l1 1v-1zm136 0v-1h-2l1 2 1-1zm-320-2v-1l-2-3 1-3v-2h-1l-1 5 1 5 1 1 1-1v-1zm5 0-1-2v4l1-2zm23 2-1-1v1h1zm8 0 1-1 1-1v-1 1h-1l-1 1v1zm60 0v-2h-1v-3l-2 1 1 1 1 2c-1 1 0 2 1 1zm1 0v-1 1zm11 0v-1 1zm15 0v-1 1c1 0 1 0 0 0zm189-2v-2h-1l-1 1 1 3h1v-2zm-282 1v-2l2-1h-2v1-1l1-4v1l1 1 1-1c1-1 0-1-1-2h-1c0 1 0 1 0 0l-1-1v1l-1 2v-1c-1-1-2 0-1 1v1l1 1-1 1-1 1 1 1 1 2 1-1zm1 0v-1 2-1zm68 0-1-1v2l1-1zm7 0 1-1h-1l-1 1 1 1v-1zm201 0v-2l-1-1c1-1 0-1 0 0v4l1-1zm14 0v1-1zm39 0-1-1h-1v2l2-1zm-314-2v-2l-1-1h-1l-1 1v2l1-1 1-1v4h1v-2zm27 2v-1h-1v1h1zm4-1-1-1-1 2h1l1-1zm99 1c0-1 0 0 0 0s0 1 0 0zm35 0 2-2 1-1-1-1-1-1 1-1 1-1 1 1h-1v1h1l1-1-1-3h-3l1-1 2-1h2v-1l-1-1h-2l-2 1v3l-1 2v5l-1 1-1 1h2zm-167 0-1-1v1h1zm85 0v-1l-1-1v2h1zm180 0v-2l-1 2h1zm-269-1h-1v1l1-1zm47 0h-1 1s1 0 0 0zm23 0v-1h-1l1 2v-1zm14 0 1 1 1-1-2-1-2 1c-1 0-1 0 0 0l1 1 1-1zm14 0-1-1-1 1h2zm6 0h-1v1l1-1zm3 0h-1l1 1v-1zm156 0v-1l-1 1c0-1 0-1 0 0l1 1v-1zm24 0v1-1zm9 0v-1 2-1zm2 0v1-1zm-336 0v-1l-1-3v-1l-1-1v4l1 2h1zm12-1v2l1-1-1-1zm67 1h-1 1zm55-1-1 1 1-1zm24 1v-1l-1 1h1zm18 0v-1c0-1 0-1 0 0v1h-1 1zm7-1v1h1l-1-1zm88 1s0-1 0 0zm49 0h-1 1zm-303 0h-1 1zm39 0v-1 1zm55 0-1-1-1 1h2zm41 0v-1l-1 1h1zm41 0-1-1v1h1zm-179-1v-1 2-1zm18 0-1-1h-1l1 1s0 1 0 0h1zm66 0h1c0 1 0 1 0 0v-2h-4l-1 1h1l1 1 1 1 1-1zm165 0v-1l-1-1v1l-1 1h1l1 1v-1zm96 0v-2l1-2v-1l-1-1-3-1h-1l-1 1 1 1 1 1v1l1 1 1 3 1-1zm-298-1 1-3-1-1h-1v2l-1 2v1h2v-1zm53 1v-1l-1 1h1zm158 0v-1h-1l-1 1h1c0-1 0-1 0 0h1zm-267 0-1-1v1h1zm29-1 1-1-1-3-1-1-1 1v1l-2 2h1l1 1h1v1l1-1zm6 0h-1v1l1-1zm76 0 2-2 1-1v-1h-2l-2 3 1 2v-1zm59 0h-1v1l1-1zm5 0h1v1-2h-2v1l1 1v-1zm18-2v-2h-2l-1-1v5h2v1l1-3zm-148 1v-3l-1 2v2l1-1zm7 1h1v-1h-1v2-1zm8 0-1-1h-1v1l2 1v-1zm2 0-1-1v2l1-1zm7 0v-1h-1l-1 1 1 1 1-1zm39-1-1-1c-1-1-1 0-2 1l-1 1 2 1 2-2zm5 1v-1l-1 1 1 1v-1zm-31 0 1-1 1-2v-1l-1 1-1 1h-2l-2 2h4zm34-1-1 1h1v-1zm4 1-1-1v-1 2h1zm18 0h-1 1zm49 0 1-2-1-1v2l-1 1h1zm115 0v-1l-1 1h1zm28 0c1-1 0-1 0 0-1 0-1 0 0 0zm-318-1h-1v1l1-1zm19 0 2-4v-5l1 1h1v-5a49 49 0 0 0 1-14h1l1 3v1l1-1-1-3-1-3 1-2v2l1 2v-1l1-1-1-3-1-1-2 2-2 2v7l-1 5c1 4 0 6-1 7h-1l-1-1v1l1 3 1 1-1 1-1 1h1l1 1-1 1h-1l-1-1 1 1v4l1-1zm35-1 2-4-1-1v1l-3 4v2l2-2zm86 1c0-2 0-2-1-1v1l1 1v-1zm51-1-1-2v4l1-2zm47 1-1-2v3l1-1zm77 0v-1l-1 2 1-1zm-326 0v-1l-1-2v-3l-1 1v3l1 2 1 1v-1zm8-1v-3l-1-1-1 5h1l1-1zm113 1h5l-1-1-3-1-1 1-1 1h1zm7 0h-1 1zm34 0v-1 2-1zm152 0h1v-1l-1-1v-2l-1 1v3h1zm43-3v-1h-1v4l1-3zm-362 2v-2l-1 2 1 1v-1zm77 0 1-1v-1l-1-1v1l-1 2v1h1v-1zm76 1 1-1h-2l-1 1h2zm7 0c0-1 0-2-1-1v1h1zm16 0v-2l-1-1-1 2 1 1h1zm10-1v-2l-1 3c1 1 1 0 1-1zm3 0-1-1v2l1-1zm90 1v-1 1c-1 0-1 0 0 0zm-106-2-1-1v3l1-2zm105 1 1-1v-3l1-1-1-2v-2l-1-1v2l-1 1v-6l-1-1-1 4v1h-1l-1 1v1h-1v8l1-1 1-4v-2h1l2 1v1h-1l-1 1h3l1 1-2 1-1 2 2-1zm26 0v-1h1l-1-1a120 120 0 0 1-1-15h-2v7l1 5v5l1 1 1-1zm5 1 1-3-1-2v-5l-1-2v-2l1-2-1-1-2-1-1 1v1l2 1v6a1599 1599 0 0 1 2 9zm-294-2-1-1v1l1 2v-2zm25 1v-4h-1v5l1-1zm28-1h-1v1l1-1zm73 1v1-1zm9 0v1-1zm15 0h-1c0 1 0 1 0 0h1zm6 0v-1h-1l-1 1h2zm34 0v-1l-1 1 1 1v-1zm101 0c0-1 0 0 0 0s0 1 0 0zm6 0c1-1 0-2-1-3s-1-1-1 1l1 2h1zm-229-3 1-3v1l1 1 2-2-1-1-2-1v1l-1 1h-1v3l1 3v-3zm110 2h-1l1 1v-1zm37 1-1-1v1h1zm-187-1h-1v1l1-1zm15-1v-1h-1l-1 1 1 2 1-2zm122 1v-2l-1-1-1-1v4l1 1 1-1zm10 0-1 1h1v-1zm38 0h-1v1l1-1zm120 1v-2h-1l-1 2h2zm-330-2-1-1v2l1-1zm4 0h-1l-1 1h1l1-1zm111 1v-1l-1-1-2 2h3zm138 0h-1 1zm18 0v-1h-2l1-1v-2l-2 1v1l1 1 2 1zm-2-3c-1 0 0 0 0 0v1-1zm-279 1v-2l-1 1v2l1 1v-2zm129 1h-1v1h1v-1zm6 0 1-2h-5c-1-1-1 0-1 1l1 1v1h2l2-1zm19 1v-1l-1 1h1zm139-1v-2 1l-1 1 1 1v-1zm12 0c-1-1-1-1 0 0l1 1-1-1zm-248 0h-2l1 1 1-1zm56 0h-1l1 1v-1zm43 0h-1v1l1-1zm42 0v-1h1v-1h-3 1l-1 1v2l2-1zm-139 0h-1s-1 0 0 0h1zm37 0 1-1-1-1-2 1-1 1h3zm88 0h-1 1zm-147 0v-2l2-3v3h1v-3l-1-1-1-1-1 2-2 3 1 2h1zm29-1h-1l1 1v-1zm103 1v-1h-1l1 1zm163-1 1-2-1-1-1 1-1 2v1l2-1zm-339 0c-1 0-1 0 0 0v1-1zm18 0-1-1v1h1zm56 1v-1 1zm73-1v-1 2-1zm2 0h-1l1 1v-1zm46 0h-1l1 1v-1zm2 0v-1h-1v1h1zm-76 0h-1 1zm8-1 1-1 1-1-1-2-1 2-2 2 1 1 1-1zm25 1h1v-2l-3 1v1h2zm16-1v-1l-1 2 1-1zm3 0-1 1 1-1zm125 1h-1 1zm-269-1h2v-2l1-1v-2l-1-2-1-1-1 1-1 1 1 1 2 1h-1l-1 2 1 1h-3l1 2 1-1zm105 0v1-1zm31 1v-1 1c-1 0 0 0 0 0zm93-1v1-1zm47 0h-1v1l1-1zm-114 0 1-1 1-1v-1h-2l-1 2v1h1zm9 0v-1h-1v1h1zm69 0zm15 0c-1-1-1-1 0 0zm28 0-1-2 1 2zm-291-1v-2l-1 2 1 1v-1zm2-1v-1c-1-1-1-1-1 1v2h1v-2zm51 1 2-2 1-1-2-1-3 1v1l1 1v2l1-1zm119 1v-1 1zm96-1h-1l1 1v-1zm29 0h-1v1l1-1zm15 0h-1v1l1-1zm10 0-1 1 1-1zm-333-1-1-1v2h1v-1zm4 0v-1l-1 1v1h1v-1zm89 1-1-1-1 1h2zm66 0h-1l1 1v-1zm5 0h-1 1zm32-1v-2l-1 1h-1v-1h-1l-1 1h1l1 2c0 1 1 1 2-1zm151 1-1-1 1 2v-1zm-355-1-1-2v-2l-1 2v3h1l1-1zm74 1v-2l-1 1v1h1zm14-1 1-2-1-2-1 1-1 1-1 1 1 2h1l1-1zm163 1zm43 0v-1 1zm-269-1v-3l-1-3-1 3 1 4 1-1zm40 1-1-1v1h1zm78-1-1-1c-1 0-2 1-1 2l2-1zm21 0 1-1v-1h-1l-1 2 1 1v-1zm16 0-1-1v2l1-1zm5 0c1 0 1 0 0 0h-1 1zm75 0 1-1 1-1-1-1-2-3-1-2h-1v-2l-1-1-1-2v-2l1-1v-1 1l1 2 1 2h1v1-5l-1-3h1l1 1 1-1v-1 5l1 1 1-2 1-2 1-2v-3c1-1 0-1 0 0h-2l-2 1c0 1 0 1 0 0l1-2 2-3-1-1-2 1-1 1-2 1-3 2h-2l-1-1v11l2 1s1 0 0 0v6l1 1-1 2-2 3 2-1h3v-1c-1 0-1 0 0 0l1-1v4l2-1zm-111 0v-1h-1v1h1zm3 0h-1l1 1v-1zm3 0-1-1v1h1zm29 0v-1l-1-1v-2l-1 2v2h2zm9 0h-1v1l1-1zm2 0v1-1zm92-3-1-3h-1v6l1-1 1-2zm-286 3v-1 1zm13 0v-1l-1 1h1zm63-1-1-1-1 1 1 1 1-1zm61 1v-2l-1-1v3h1zm35-2h1-3l-1 1 1 1 1-1 1-1zm1 2h-1 1zm122-1c0-2 0-5-1-4v3l1 2v-1zm-257-1 1-3-1-2-1 2v2l-1 2 1 1 1-2zm29 2v-1 1zm-5-1h3l1-1-1-1v-2l2 1 1-1v-1l-1-3-1-2h-1l-1 1-1 2-2 2v2l1 3c0 1 0 1 0 0zm136 0h-1c0-1 0 0 0 0h1zm-37-2-3 1v1l2-1 1-1zm31 2v-4l-1 2v2h1zm58-1v1-1zm30 0-1 1h1v-1zM8 186v-1l-1 1h1zm22-1v-2l-1 1 1 3v-2zm174 1h-2l1 1 1-1zm91 1v-1 1zm-275-9 1-2h1l-2-2-1 1v11c1 1 1-6 1-8zm13 7v-1l-1-1-1 2 1 1 1-1zm14 1v-12l1-2h-1l-1 1v-5l-1-4v1l-1 3 1 5v4l1 3v3l-1 1v2h2zm126 0 1-1 1-1 2-1 1-2h-1l-2 1h-3l-1 1-1 2h-1l1 1h3zm-149 0v-1l-1 1h1zm12 0v-1l-1 1h1zm4-1-1-1-1 1h-1l2 1 1-1zm137 0v-1l-2 2 2-1zm134 1-1-1v1c-1 0 0 0 0 0h1zm-161-1c1 0 0 0 0 0 0 1 0 1 0 0zm33 0v-2h-3l1 1-1 1v1l3-1zm29 0h-1l1 1v-1zm125-1-1-3-1 3v1h1l1-1zm-294 0-1-1v2h1v-1zm64 1h-1 1zm108-2v-1l-1 1c0 1 0 3 1 2v-2zm79 2v-1 1zm-85-1h-1v1l1-1zm68-1v-1l-1 2 1 1v-2zm32 1v-1l-1 1 1 1v-1zm-211-1h-1l1 1v-1zm11-1h-1l-1 2h1l1-2zm87 2v-2l-1 1v1h1zm3 0v-1h-1v1h1zm7 0 1-1 1-4 1-1 1-1h-4l-1 1h-1l-2 1h-1l1-1v-1l-1-1v1l-1 1h-1v1l1 1h1l1 1 1-1 1-1h1l1-1 1-1h1l-1 1v1l-1 2v3c1 0 1 0 0 0zm86 0h-1 1zm6-1 1-3-1-2v-1l1-1 1-2-1-1-1 1-1 1-1 5 1 4 1-1zm-184 1v-2l-1 1v1h1zm50 0v-1l-1 1h1zm23-1v-1l-1-1h-1l-1 1 1 1v1l2-1zm7 0v-1l-2 1h2zm-107-1 2-6v-2l-2-2-1-1h-2v1h-1l-1-1 1 2 1 4v3l1-2 1-2h3-1l-1 2v2l-1 1-1 1 1 2 1-2zm186 1-1-1v1h1zm16 0v-6h-1l-1 1h-2 1l1 3 1 2h1zm46-1 1-2-1-2-2 3v2h1l1-1zm-231 0-1-1v-2l-1-2h-1l-2 1 1 3h2l1 2 1-1zm-4-2-1-1 1-1 1 2h-1zm209 2v1-1zm-292-2c0-3 0-3-1-2l-1 4 1 1 1-3zm13 2-1-1-1-1v2l1 1 1-1zm24-1 1-2 1-4v-6l-1 1-2 3v1c-1 1 0 2 1 3l1 1h-2v5l1-2zm151 1 1-2-2 2v1l1-1zm106 0h-1 1zm-197-1 1-2-2-1-2 4 3-1zm96 1-1-1v1h1zm64-1h-1v1l1-1zm21 0v-2c-1-1-1 2-1 3h1v-1zM5 181c1 0 1 0 0 0v1-1zm29 0v-1l-1 1v1h1v-1zm7 0h2v-3l-1-2c0-1 0-1 0 0l-1 3h-1l-1 1v2h1l1-1zm159 0h-2l1 1 1-1zm114 0-1-4v5l1-1zm-288-1v-4l-1 1v4h1v-1zm32 0h-1v1s0 1 0 0l1-1zm7 1h-1 1zm131 0-1-1-1 1h2zm84-1-1-2v3l1-1zm-169 1-1-1v-1h-1l1 1v1h1zm54 0v-1 1zm163 0v-1l-1 1h1zm-284-1c0 1 0 1 0 0zm8-1v-2l-2-4-1 3v2l-1 2 2 1 2-2zm55 1h-1l1 1v-1zm248 0c0-1 0-1 0 0 1 0 1 0 0 0zm-250 0c1-1 0-2-1-2v1l1 1zm170 0v-1h-1v1h1zm3 0v-3l-1-1v3l1 1zm-153-1c0-2-1-2-1-1l1 2v-1zm-27 0v-1h-2c0 1 1 2 2 1zm14-1-1 1c1 1 1 0 1-1zm165 1h-1 1zm-247-1v1-1zm8 0v1-1zm31-1v-5l-1 2v4l1 1v-2zm287 1v-1l-1 1v1l1-1zm-322-1v-8l-2 1v3l2 5v-1zm10 1v-1 1zm15-1 2-9-1-1-1 1-2 4v5l1 1 1-1zm236 1-1-1v1h1zm1 0-1-1 1 1zm-84-2zm122 1h2l1-2v-3l2-2h-1l-4-1-2-1-2-1v-1h-2l-1 1v1l1 1 1 1c-1 2-1 2 1 4l1 2c0 1 1 2 2 1h1zm-2-3 2-2-1 1-1 2v-1zm10 2v1-1zm-220 1v-1l-1 1h1zm153 0v-14l-2-1-4 2h2c2 0 1 0 0 1h-3l-2 1-2 3v-1c1 0 2-2 1-3l1-1c1-1-2-1-4 1l-1 1-2 1v1l3 3 1 1h1l3 1h2l2-2 2 1v1l1 1-1 1h-1l2 2h1zm66-2v-2l-1-1-1-1v3l1 2 1 1v-2zm-328 0 1-4 1-2-1-3-1 1-1 1-2 6 1 2h1s0 1 0 0l1-1zm35 1v-1l-1 1 1 1v-1zm255 0 1-1 1 1v-1l1-1h1l1 1-1-2h-2l1-1v-1l-2-1-3-2-3-2-1 2a55 55 0 0 1 0 5h1l1-1 1-1 1-1 1 2v3l1 2v-1zm-273 0-1-3-1 1h-1l3 2zm51-2v-3c-1-1-1-2-2-1v6h1l1-2zm118 1v-1h-2v-2l1-1h-1l-1 2 2 2 1 1h1l-1-1zm130 1 1-1h-3v1h2zm9-1v-1 2-1zm-237 0c2 0 2 0 2-3l-1-2h-3c-1 0-1 0 0 0v-1h-1l-1 1-1 1v2l-2 1-1 1 2 1 6-1zm102 0h-1l1 1v-1zm107-5-1-3-1-1v6l1 2v1l1-2v-3zm13 5h1a210 210 0 0 0 0-6l-1 2-2 2 1 2 1 1v-1zm-9-1h1v-2l-1-2h-1v5l1-1zm-192 1-1-1v1h1zm-85-2v-1l-1-1v3l1-1zm290 0v-3h-1l-1 3 1 1 1-1zm-49 0-1 1h1v-1zm39 1v-1l-1 1h1zm-289-1-1-2v-2c-1 0-2 1-2 3l2 2 1-1zm63 0-1-3h-1l1 2 1 2v-1zm229 0h-1l1 1v-1zm-61 0v-1h-1v1h1zm-59-1v-1l-1 1h1zm95-2a15 15 0 0 0-1-5v-1a130 130 0 0 0 0 8l1-2zm-101 2v1-1zm-101-1-1 1h1v-1zm115 0h-1v1l1-1zm10 0-1 1h1v-1zm68 0v1-1zm33 0v-1l2-3 1-3h1l-1 1v1l3 1v-3l1-5v-1c-1-1-3 0-4 1l-3 2v-3l-1 1-1 1v4l-1 4v4h2l1-1zm-296-1 1-2v-1l-1 1-1 2 1 2v-2zm238 1-2-2h-1l-1 1-1 1h5zm-190-2v-2h-2l-1 1 2 3 1-2zm17 1 2-1v-5l-2-2v2l-1 3v4l1-1zm189 0-1-1v1h1zm46 0v-2l-2 1v1h2zm-292 0-1-1 1 1zm8-1h-1v1l1-1zm170 0h1v-1h-1l-1 1v1l1-1zm-189 0c0-1-1 0 0 0zm318-1 1-2 2-1c0-1-2-2-3-1l-1-1-1-1-2-1h-1l-1-1h-1l1 1v1c-1 2 0 3 1 3l1 1h-3l1 1 3 1 2 1 1-1zm12 1-1-1v-3l2 2h2c1-1 0-2-1-3l-2-1v-1l-4 2-1 3a227 227 0 0 0 2 2h3zm-314-1h-1v1l1-1zm290 0-1 1h1v-1zm-248 0 1-1 1-2v-2l-1-1v2l-1-1v-2c0-2 0-2-1-1l-1 1h-2l1 2v2l1 1h1v3l1-1zm281 1h-1 1zm-342-3c0-3-1-3-1 1v1l1-2zm21 2v-1l-1-1v2h1zm12-1 2-1v-1h-2l-2-1v-7l-1-3-1-5h1v2l1 1h3v4l1 2c1 1 1 0 1-1l3-6v-3l1-2 1-2h-4l1 1-1 2-1-3v-1h-3c-1 0-2 1-2 3l-1 1v-4l-2 1v2a48360 48360 0 0 0 1 16v2l1 2v1l1 1h1l1-1zm0-18v-3h1l1 2-1 2-1-1zm256 18-1-1v2c0 1 0 1 0 0l1-1zm9 1v-3l-1 3h1zm-37-2-1-2v4l1-2zm-244 0v-1l-1 1v1h1v-1zm6-1-1-7v8l1 2v-3zm46 2c0-1 0 0 0 0 0 1 0 1 0 0zm-57 0v-1l-1 1h1zm331-1-1-1v2l1-1zm-16 0-1-1c-2 0-1 1 0 2h1v-1zm-40 0-2-3a202 202 0 0 1-4-6l-1 3v3l1 1 3 1 3 1zm52-1h-2l1 1 1-1zm2 1v-1l-1-1-1 1 1 1h1zm-289-1h-1l1 1v-1zm18 0v-2l-1 2h1zm21 1 1-1 1-2 1-2-1-1-2 1-1 1v2h-1l-1 1 3 1zm202-1v-2l-1-1v1h-2l2 2h2-1zm-238-1-1 1h1v-1zm-43-1v-2l-1-1v5l1-2zm302 1v-1l-1-1-1-1-2 4h2l2-1zm22 1v-1 1zm-39-1v-1h-1v2l1-1zm-298-1 1-1-1-5h-1l-1 4v3l2-1zm36 1v-2l1-2v-1l-1-1h-1l-1-1-1 1v2l1 1v3h2zm234-2 1-1v-1l-2-1h-2l-1-1-1 1v2l1 1v2l4-2zm58 1-2-1 1 2 1-1zm-311 0v-1h-1l1 2v-1zm321 0-2-7h-2l1 2v1l-1-1-4-1-2 1h-3l2 2h1l2-1v2h2l3 1 1 1 2 1v-1zm-93 0v-1l-1 1h1zm50-1c0-1 0-1 0 0v1-1zm-6 0-1 1h1v-1zm8 0h1-2v1l1-1zm-291-1-1-3 1 3v2-2zm14 0c-1-1-1 0-1 1s0 1 0 0l1-1zm36 1 2-2v-1l-2-1v2l-1-1-1-1h-2v3l2 1h2zm195 0-2-1-2 1h4zm41-1-3-3v1l1 1 1 2 1-1zm32 0v-1l-2-2-2 1 1 2 2 1 1-1zm-12 0v-2l-1-1v1l-1 2h2zm-59 0 2-3h-5l1 2v1h2zm7 0v-2l-1-1-2-1-2 2v2h5zm-252 0v-1 1zm255-1h1l-1-1c-1 1-1 1-1-1h-1v3h1l1-1zm-164 0h-1v1l1-1zm178 0h-1 1zm3 0-1-1v2l1-1zm18 0h-1l1 1v-1zm17 0h-1v1l1-1zM9 155v-5H8v8l1 2v-5zm98 4v-4h-1l-1 1v3l1 1 1-1zm197 0h-1l1 1v-1zm53-2-1-4v6l1 1v-3zm-291 2 3-3 1-2h-1l-1 1v-2h-1v2l-1 3-1 1 1 1v-1zm224 0-3-1v1l2 1 1-1zm45-4v-3h-4l1-1 1-1-1-1h-1l-2 2h-1l-1-1-2 1v2l1 2 1 1 2 1 2 1h2l1-1v2h1v-4zm-315 3v-2l-1-2v-1 3l-1 2v1h1l1-1zm288-1v-2l-1-1v-2h-3v2l-1-1v1l1 2 1-1v1l3 3v-2zm-28 1 1-1 2-1c1-1 1-2 1 0l1 1h3l1-1-2-2h-2v-1l1-1h-2l-1 1h-1v1l-1 1-1 1v-4h3l1-1-1-1-1-1-2 1-2 1v5h2v2h-1 1zm11 0h-1v1l1-1zm19 0h-1 1zm44 0h-1l1 1v-1zm10-1v-1l-1 2h1v-1zm-353 1zm289-2-1-2h-1l2 3 1 1-1-2zm40 0h1l1 1 2-1 2-1 4-2h-5l-1 1h-1v-2h-4l-1 2-1 1v1l1 1 1 1 1-2zm-313-2v-1 4-3zm269 2v1c-1 0-1 0 0 0v-1zm-261 0 1-3 1-4-1-1-1 1-1 1v4l1 3v-1zm292 1h-1 1zm-305-1c0-1 0 0 0 0v1-1zm245 0v-1l-1-1-2-1-1 2 1 1h3zm25 0v-1l-1-1-1-1-1 2 2 1 1 1v-1zm10-1v-4l-1 1-1 1 1 2 1 2v-2zm13 1-1-1v1h1zm-39-1 1-2-1-1v1l-1 1-2 2h2l1-1zm47 1v-2l1-1 1-1c0-1-1-1-3 1l-3 2 3 1h1zm2 0v-1 1zm-310-1 1-2-1-3-1-2v2l-1 2-1 2v1h3zm256 0h2l-1-2c-1-1-3-2-5-1h-1l2 2 2 2 1-1zm48 0 1-3v-5h-1l-1 1-1 2 1 1v1l-1 1v3l2-1zm-58 0-1-1h-1l1 1h1zm93 0 1-1 1-1-1-2h-1l-1 1v3h1zm-315-6-1-7v4a65 65 0 0 1 0 9h1v-6zm-17 3-1-2v4h1v-2zm237 1 1-2-1-1-1 1-3 1-1 1-1 1 3 1 3-2zm50 1v-1h-1v1h1zm-12-1 2-1 2-1v-2l-1-3c-1-1-1-1 0 0l-1 1-2 1v6-1zm-24 0v-1 1zm-215-1v-2l-1 1 1 2v-1zm-31-3-1-4v-3l-2-1-1 2 1 3v3l-1 2h2l1 1h1v-3zm34 1c0-2-2-4-3-4h-1l1 2 1 2c1 3 2 3 2 0zm248 2v-1l-1 1h1zm30 0-1-1c0-1 0-1 0 0v1h1zm12-1h-1l1 1v-1zm-28-1 1-2v-2l-1 1-2 4v1l2-2zm15 0v-2h-1l-1 1h-2c-1 1-1 2 1 2h2l1-1zm9 1h-1 1zm-79 0 1-1-1-1-1-1h-1 4l1-1-2-1-6-1h-3v-2l-1-1h-1v3c0 2 1 3 2 3l1-1h2v3l2 1h3zm47-1-1 1 1-1zm35 0 1-1 1 1h2l1-4v-3l-6-1h-1v1h-1v-1h-4l-2 1v1l-1 3v1l1 1h2l1 1h4l1 1 1-1zm-3-3-2-1 1-2h1-1l1 2 2 1h-2zm-40 3h-1v1l1-1zm-31-1h-1l-1 1h2v-1zm29 1h-1 1zm37 0-1-1-2 1h3zm-70-1h-1v1h1v-1zm40 1-1-1h1l1-1h-3l2 2zm-18 0v-1 1zm-282-3v-2h-1l1 4v-2zm280 2-1-2h-1v1h-1 1l1 1h1zm11 0v-1l-1 1h1zm1-1-1 1h1v-1zm10 0v1-1zm-35 0v1-1zm28 1-1-1v1h1zm23-1h-1 1zm-54 0c1-1 0-1-1-1h-2v1h3zm6 0h-1 1zm45 0-1-1v-1 2h1zm-38-1-1-2v3l1-1zm20 0h-2v1l2-1zm-24 0v-1l-1-2-1-1h1v-3h-1l-1 2v5l2 1 1-1zM4 146l-1-1v1c0 2 1 2 1 0zm299 1v-1 1zm-274-5-1-5v9l1 1v-5zm7 2v-2c-1 0-2 1-1 2v1l1 1c0 1 0 1 0 0v-2zm237 2h2l1-1v-1l-1-2h2l-1-1c0-1 0-1 0 0h-4v1l1 1h1l-2 1-2-1 2 4 1-1zm8 1v-1l-1 1h1zm30-1 1-1v-3l-1-1-1 1v4h1zm25 1 2-3 1-1v1h1l-1-1v-2c-1-1-3-1-4 1l-2 3 1 2h2zm-314-2s0-1 0 0v2-2zm308 1 2-1-2-1-3 1h-1c0-1 0 0 0 0v1l2 1 2-1zm-311-1v-4l-1-2a1119 1119 0 0 1-1 3l1 4 1-1zm272 1-1-2v2h1zm15 0h-2 2zm-272-1h-1l1 1v-1zm286 1v-1 1zm5-1h-1v1l1-1zm-38-1 1-1h-2v2l1-1zm12 1 1-2-1-3-1 1-1 4h2zm4 0v-1l-1 1h1zm6 0-1-1v1h1zm9 0-1-1v1h1zm-13-1-1-1c-1 1 0 2 1 2v-1zm-43 0-1-1c0-1 0-1 0 0l-1 1h2zm7 0v-1l-2-1-2 1 1 1 1-1 2 1zm11-1v-1h-1v-3l-1 1-1 1 1 3h1l1-1zm15 1v-2l-1 1v1h1zm-280-1 1-1-1-1-1 1v2l1-1zm309 1-1-1v1h1zm-3-1 2-2-1-3-5 2-1 2 1 1 1 1 3-1zm-280-1 1-1-1 1h-1v1l1-1zm222 0h1l-1-1v2-1zm2 0h-1v1l1-1zm37 1v-1l-1 1h1zm5 0v-3h-1l-1 1v1l1 1h1zm25-1 1-2v-2l-4-1h-3v2l1 1 1 1v1l2 1 2-1zm29 0v-1 2-1zm-304-1 1-3 1-3-1-1-2 1-1 1-2 1-2 2-2 1c-2 2-1 2 1 1l2-1 1 1 2 1h2v-1zm235 1v-1 2-1zm23-1v-1l-2 2 1 1 1-2zm11 1h1l-1-1-1 1 1 1v-1zm-282-2v-1l-1 1v2h1v-2zm259 1 1-1 1-1v-2h-2l-1-1 1 1v-1h2l2-1h-1l-1-1h1v-1l-1-1-1-2v2l-1-1-1 1h1l1 1-1 1-2 1h-1l1-2 1 1h1l-1-1-1-3-1-2-1 1 1 2v2h-1v-1l-1-2h-1l-1 1 1 1h1l-1 1c0-1 0 0 0 0v1h1l-1 1v1l1 1h1v-1l1 1 1 1c2 1 2 3 1 3h-1l1 1h1v-1zm-252 1v-1l-1 1h1zm-16-1 1-2v-3l-1-6v-3c-1-4-1-4-2-3v7h-1l-1 2 1 2v-2l1-1v7l1 3 1-1zm12 0-1-1v2l1-1zm221 0h-1l1 1v-1zm28-1v-3h-1l-2 1-1-1-1 1 1 1h1v1l1 1h1l1-1zm51 0h-2l1 1 1-1zm5 1s-1 0 0 0zM3 140H2l1 1v-1zm267 0-1 1h1v-1zm55 0-1-1v2h1v-1zm-14 0 2-1-1-1v-1h-1l-1-1h-1v2l1 2h1zm0-2h-1l1-1 1 2-1-1zm30 2v-1h-1v1h1zm20 0v-1 2-1zm-93 0v-1l-1 1h1zm67-1h-1l1 1v-1zM6 139v-1 2-1zm20 0c0-1 0 0 0 0v1-1zm246 0h-1v-1h1c2 0 2-1 1-1l-2-1v1h-2l-1-1-1 1 1 1h1l1 1 1 1 1-1zm12 1v-2 2zm-15-1v1-1zm6 0s0-1 0 0c-1 0-1 0 0 0 0 1 0 1 0 0zm12-2-1-2h-1v2l1 1v1h1v-2zm22 1h-1v1l1-1zm8 1v-2l-2 2h2zm-292-2a279 279 0 0 1-1-26h-1a126 126 0 0 0 1 28l1-2zm312 2-1-1v1h1zm15-1h-1l-3-1-2-1h2v-2h3v1h-1l-2 1h5l1-2-2-3c-1-2-2-2-3-2l-2-1h2c1-1 2 0 3 1l1 1 2-1 1-1-5-2-2-1-2-1v-2l1 1 1-1v-1h1l-1 1-1 1 3 1 3 1 1 1 1-1v-4h1v-3l-1 1h-1l-1-1h-3l-1 2-3 1h-2l2-1 3-2 2-2-2-3-3-1h-2l-2-1-1-1h2l-1-3-2 2 1 5v1l-1 1-1 1 3 1-1 1h-10c-2 0-2 0-1-2l1-1h-1l-1 1h-4l1 1h1l1 1h-3l-1 1h-1l1 1h7l2 1 1 1 1 1a225 225 0 0 0 8-1v2l-1 1 1 1 1 1h1l-2 1-1-1-2-1h-8l-2 1-2 2v3l4 3 2-2c1-1 1-2 2-1l1-1 2-3h1v1l-2 2v3h2l4-1 1-2h-1l-1 1-1 1v-2l2-1 1 1 1 1-2 1-2 2h-3l-1 1v1h2l5 1h5l1-1zm-20-6 3-2-3 2zm17-1h1l-1 1v-1zm-22-11zm20-4h-2l2-1 1 1h-1zm9 23-1-2h-3l1 1 2 1h1zm2 0v-1l-1 1h1zm-328-2v1c0 1 0 1 0 0v-1zm10-2-1-4v7l1 1v-4zm226 4v-1h-1l1 1zm10-1-1-1v1h1zm3 0v-1l-1 1h1zm44 0-1-1v1h1zm2 0-1-1v1h1zM8 137l-2-3v3h2zm14-1v-3 5-2zm262 1v-1l-2 1h2zm36 0h-1l1 1v-1zm-309 0h-1 1zm10 0h-1 1zm229 0 4-1 3-1h1l2 1h4l-1-1v-1l-1-2h-1v3l-1-1-1-1v1h-8l-2 1h-3l1 1 1 1h2zm8 0-2-1 1 1h1zm30 0s1 0 0 0zm7 0s0-1 0 0h-1 1zm43-1-1-1h-2v1l2 1h1v-1zm33 1h-2 2zm-325-1v-3h-1l-1 2v2l2-1zm233 1-1-2-1 1 2 1zm55 0-1-1v1h1zm-68-1h-1 1zm-20 0h-1 1zm24 0h-1 1zm4 0 1-1-1-1v-1l-2-1-1 1 1 2v1h2zm47 0v-2l2 1c2 0 3 0 3-2v-2h-1l1-1v-1h-2l-2 1v1l1 1h1l-1 1h-3v1l-1 1 1 1h1zm10 0-2-1v1h2zm-64 0v-1l-1 1h1zm27 0v-1l-1-1h-1v-2h-1l-1 1v1l1 1h2l1 1c-1 0-1 0 0 0zm-25-2v-1l-1 1c0 2 0 2 1 1v-1zm-29 1-2-1c-1 1-1 1 1 1h1zm42 0 1-1-1-2-2 1v2h2zm14-1v-2h-1l-1 1 1 2 1-1zm18 1h-1 1zm41-2v2-2zm-329 0v-3 5-2zm29 1 2-2h-3v1l-1 1v1l2-1zm210 0h-1v1l1-1zm12 0h1l1-2h-1l-1 1-1 1h1zm-10 0-1-1v1h1zm43 0v-1l-1 1h1zM6 130l-1 1 1 2v-3zm7 3v-1 2-1zm239 0-1-1-1 1h2zm57-1-1-1v2l1-1zm49 1-1-1-1 1 1 1 1-1zm-104 0v-1l-1 1h1zm58-1-1-1c-1 1 1 2 1 2v-1zm-297 0h-1 1zm305 0v-1l-1-1-2 1 1 1h2zm39-1v-2 3-1zm-331-1v1c0 1 0 1 0 0v-1zm266 1h-1l1 1v-1zm13 0c1 0 0 0 0 0v1-1zm49 0v-1h-1v1l1 1v-1zm-345-1-1-1-1 2h1l1-1zm243 1-1-1v1h1zm22-1v1-1zm8 1v-1h-1l-1 1h2zm-254-2v-1l1 1v-2l-1-1v-1l-1-1v6l1 1v-2zm244 1c0-1 0-1 0 0v1-1zm14 1 1-1h-2l1 1zm3 0 1-2-1-2-1 2 1 2zm-12-1-1-1v1h1zm24 0c1 0 1-2-1-2h-1v1l1 2 1-1zm14 0 1-1h-1v2-1zm-9 0h-1 1zm-35-1-1-1-2 1h3c0 1 1 0 0 0zm-20 0h-1 1zm25-1h-1v1l1-1zm6 0v-1l-3 1h-1 1l2 1 1-1zm10 0-1-1c-1-1-1-1-1 1l1 1 1-1zm14 0v1-1zm8 0h-1v1l1-1zm43-1c0-1 0-1 0 0v2-2zm-320 1h-1v1l1-1zm250 0v-2l-2 2h2zm16 0v-1 1c0 1 0 0 0 0zM9 127h1v-9a247 247 0 0 0 0-11l-2 1v3l1 5-1 2-1 1v2H5v3l1 1h1l1-1v3l-1 1h1l1-1zm290 0-1-1v2l1-1zm18 0c0-1 0-1 0 0v1-1zm2 0h-1v1l1-1zm4 0h-1v1c-1 0 0 0 0 0 1 0 2 0 1-1zm4 1-2-1 1 1h1zm-58-1-1-2h-1v3l2-1zm-226-5a47 47 0 0 1 0-8l-2 2 1 3v8l1 1v-6zm236 4v-1h-1v2l1-1zm54 1v-2l-1 1-2-1-2 1h1l1 1h3zm-306-1h-1v1l1-1zm255-1 2-2v-1h1l-1-1-2 1c0 2-1 2-2 2v3l2-2zm-5 1v-1l-1 1h1zm7 0h-1 1zm12 0-1-1v1h1zm12-1h-2l1 1h1v-1zm20 0h-2v1c1 1 2 0 2-1zm-63 0v1-1zm8 0-1-1-1-1 1-1h2l2-1h-1v-1h1v-2l-4-3-1 1c1 1 0 1-1 2l-1 1 1 1-1 1v1l1 2 1 2h1l1-1zm13 0v-1l-1 1 1 1v-1zm-10-1-1-1h-2v1l1 1h2v-1zm14 1-2-2v2h2zm8 0c0-1 0-1 0 0 1 0 1 0 0 0zm21-1h-1v-1l2-1h1-2l-1-1h-1l-2 2h2v1l1 1h1v-1zm-2-2h1-1zm-297 2v-5l-1 2v3h1zm282 0h-1 1zm20 0v-1l-2 1h2zm-283-1-1-1v1l1 1v-1zm252 0h-1v1h1v-1zm37 1h-1 1zm-47-1v-1h-1l-1 1 1 1 1-1zm-16-1h-1v1c-1 0 0 0 0 0l1-1zm11 1v-1 1s1 0 0 0zm56-1h-4l2 1 2-1zm-287 0-1-2v3l1-1zm36-1-1-1h-1l1 2c0 1 0 1 0 0l1-1zm220 1h-1v1l1-1zm23 0h-1c-1 0-1 0 0 0h1zm3 0h-1l1 1v-1zm-71-1v1-1zm34 1h-1 1zm18 0h-2 2zm4 0v-1l-1-1h-1l1 2h1zm-281-3c0-2-1-3-2-3l-1 2h1v1c0 2 1 3 2 2v-2zm4 3v-1l-1 1h1zm227 0 2-1v-1h-1l-1 1h-1l1 1zm33-1-1-1v-1h-1l2 3v-1zm-247 0 1-2v-1l1-1 2-1v-2h1l-2-1-3-1h-1v2a71 71 0 0 1 0 5l1 2zm274 0v-1l-2 1h2zm-300-1h-1 1zm236 0-2-1h-1v1h3zm24 0-1-1-1 1h2zm27-1v-2h-2l-1 1v2h3v-1zm6 1v-1l-1 1h1zm-23 0v-1h-2l2 1zm9 0-1-1v1h1zm48 0v-1l-1 1h1zm-50-1h-2 2zm20 0v1-1zM3 119H2h1zm250 0h-1 1zm9-1 1-1v-2l-1-1h-2l-1 1-2 2h2l2-1 1 1h-1l-2 1 1 1c1 1 2 0 2-1zm63 0v-1h-1v1c-1-1-1 0-1 1h1l1-1zM6 117l-1-1v3h1v-2zm261 1h-3l-1 1h2l2-1zm12 0v-2h-2l1 3 1-1zm80 1-1-1v1h1zm-326-1h-1v1l1-1zm250 0h-1l1 1v-1zm28 0v-1 2-1zm-276-1-1 1h1v-1zm267 0-1-1-1 1v1h1l1-1zm36 1-1-1v1h1zm-22 0v-1l-1 1h1zm-61-1 1-2-1-1-1-1v-1h-3l1 1v1l1 1-1 1h-1v1h4zm105 0v-1l-1 1 1 1v-1zm-346-2-1-4v5c0 2 1 1 1-1zm324 1 1-1v-2l1-1-2 1-2 1v-1l1-1 1-1v-1h-4a13395 13395 0 0 1-5 4h3l1-1v1l1 1v1l1 1h2l1-1zm-49 0h-4l2 1 2-1zm25 1v-1 1zm5-1-1-1h-1l1 1h1v1-1zm36 0-2-2v2h2zm-315 0v-1l-1 1h1zm287-1 1-3-1-1-2 2-3 1-1 1c0 1 0 1 0 0h2l3 1h1v-1zm-43 0v-1l-1-1h-2v-4l-2 1h-2 1v2l1 3 3 1 2-1zm13 1-1-1-1-1v1l2 1zm9 0h-1 1zm23 0s-1 0 0 0zm-283-3v-2l-1 1v3c1 1 1 1 1-2zm255 3 1-1-1-1h-1v2h1zm13-1-1-1v2l1-1zm-8 0 1-1-1-1-2 2h2zm-286-2v-1l-1 1 1 2v-2zm15 0 1-4-1-1v1l-1 1v4l1 1v-2zm239 2-2-2-1 1h1l2 1zm2-1h-1l1 1v-1zm34 0v1-1zm2 0h-1 1zm45-1-1-2v4l1-2zM6 114l-1-1v1h1zm253 0h-1 1zm42-1 2-1v-1h-1l-1 1-3 2h1l2-1zm60 1-1-1v1h1zm-97 0h-1 1zm4-1h2l2-1-1-1c-1 0-1 0 0 0l1-1c0 1 0 1 0 0v-1h-4l1 1v1h-3l-1-1h1l1-1-2-1-3 2 1 2h3v1h-1l1 1 2-1zm20-1-1 1h1v-1zm27 1c1 0 1 0 0 0v-1h-1v2-1h1zm3 0h-1l1 1v-1zm37-1-1-1v-1l1-2-1-3-1-1-1-1-4-2 1 1 1 2v1l1 1h-2v-2l-2-2-1 2-2 1 1 2 2 1 1 1 1 1h2v1l1 1 1 1 1 1 1-2zm-285 1c1-1 0-2-1-2l1-1 1-1 1 1 1 1 2-1 1-2 1-2-3-1-2 1-2 2v-1l1-1 2-1 1-1h-1l-5 2-1 3v2l-2 2h5zm221 0h-1 1zm2 0 1-2-2-1-1 1 1 2h1zm3 0-1-1v1h1zm14-1-1-1h-1l-1-2c1-1 1-1 0 0h-1l-2 3 1 1 1-1h2l2 1v-1zm-268 0-1-2 1 3v-1zm255 0-2-2 1 1 1 1v1-1zm16 0-1-1h-1l-1 2h1l2-1zm7 0h1l1-1 1 1v-1l-1-1-2 1h-1l1 1zm38 0c-1 0-1 0 0 0v1-1zm2-1v-2h-1v3c1 1 1 1 1-1zM5 110l1-4v-6l-1 1v4l-1 4v1l1 2v-2zm281 0-1-1-3 1 1 1 2 1 1-2zm3 2v-1l-1 1h1zm-32-1h-1l1 1v-1zm93 0h-1l1 1v-1zm-62 0h-1c0 1 0 1 0 0h1zm-250-1v-2l1-2v-5l-2 1v5l1 4v-1zm263 1v-1h1l2-2 1-2-2-1h-3l-1 1 1 1 1 1h-2l-3-1 2 2h2v1l-1 1h2zm45 0h-1 1zm-92-1 1-2h-1l-2 1v1c-1 0-1 0 0 0v1l2-1zm56 0-2-1 1 1h1zm-20 0h-1v-1l-1-1c0-1 0 0 0 0l-1 1 1 1h1l1 1v-1zm26-1-1-1v3l1-2zm-296 1zm307 0h-1 1zm6 0-1-1v1h1zm7 0zm7 0h-1 1zm14-1h2l1-1v-3l-1-1-1 2-1 3v1-1zm-349 0-1-1v2l1-1zm10 1-2-2 1 1 1 1zm8-1v-5l-1-3-1 2v3l-1 1h-2l1 2h4zm231 1v-2l1-1v-1h-4l1 1 1 2v1h1zm60-1v-1l1 1h1l1-1h1l-1-1-2 1-2 1 1 1v-1zm4 0v1-1zm5 0c1 0 0 0 0 0l-1 1 1-1zm-286-1-1-1v1l1 1v-1zm214 1-1-1v2l1-1zm37-1-3-1-2 1 4 1 1-1zm11 0 1-1 1-1-1-2h-1v4h-1l-1 1 2-1zm12 0s0-1 0 0l-1-1c-2-1-2 0 0 1l1 1v-1zm-269-1v-2h-4l-1 1 1 1v2l2-1 2-1zm234 1h-1l1 1v-1zm31 0h-1 1zm27 0 1-2 2-2 2-2c0-1-1-1-3 1l-2 2-1-2-2-1h-1v4l-2 1 1 1h2l2 1 1-1zm-62-1v1-1zm31 1h-1 1zm18 0v-1 1zm-295 0v-4h-1l-1 1 1 3h1zm300-2 2-2v-1l-3 1-2 1-2 1 2 1 1 1 2-2zm-62 1h1l1-1-1-1-1-1-1 1v-2 1h-1v1h-2v3h2l2-1zm14 0-2-1v2l2-1zm50 0h-1v1l1-1zm-61 0zm4 0 1-3v-3l-1-1-2-1c0-1-1-2-2-1l-2 2h-2l-2-2h-1l-1 1-2-1v1l2 1 3 1h5l4 1-2 1h-3v1h2v1l1 2h2zm-1-1v-1l1 1h-1zm5 1v-1l-1 1h1zm29 0h-1 1c1 0 1 0 0 0zm-54-1h-1v1l1-1zm57 0v1-1zm13 0h-2l1 1 1-1zm-37 0v-1 1zm3 0h-2 2zm27 0v-1l-1 1h1zm-31 0-1-1v1h1zM4 105v-1l-1 1 1 1v-1zm279 0-2-1-1 1 1 1 2-1zm11 0v1-1zm16 0c0-1-1 0 0 0 0 1 0 1 0 0zm13 0h2l6-1a106 106 0 0 0-1-2v1l-1 1-2-1-2-1-1 1-2 1h-1v1l-1-1 1-1 1-1h-1l-1 1v2h3zm-8-1h-1c-1 1 0 1 1 1v-1zm43-2 1-3v-1h-1c-1 0-1 0 0 0v-4l1-1v-2l-2 1-1-2-1-1v2a61 61 0 0 1 2 7l1 2v5-3zm-331 1v-2l-1 2v2l1-2zm232 1h-1l1 1v-1zm1 0-1-1v-1l-1-1v2l1 1 1 1v-1zm2 0h-1l1 1v-1zm29-1v-1h-2l1 1c0 2 1 2 1 0zm7 1 1-1-1-1-2-1-1 1v1l2 2 1-1zm-12-1-2-1-1-1-1-1-1 2 1 1h2l1 1h1v-1zm33 1-1-1v1h1zm-309-1v-2H9l1 3v-1zm65 1-1-1v1h1zm236-1-1-1 1 2v-1zm2 0h-1v1l1-1zm-50 0h-1v1l1-1zm39 0 1-3-1-1-3 1 1 1v3l2-1zm3 0h-1v1l1-1zm38 0-2-3h-1v2l1 1h2zm18 0 1-1v-2l-1 1-1 3 1-1zm-94-1v1-1zm2 0-1 1h1v-1zm40 0h-1v1h1v-1zm25 1 3-3v-2h4l3-2v-2h-2l-2 1-1-1-2-1h-2l-2 3-1 2-1 1-3 1 1 1 2 1 1 1h2zm-290-1c1 0 1 0 0 0h-1 1zm4 0c1 0 0 0 0 0h-1l1 1v-1zm216 0h-1l1 1v-1zm7 1-1-1v1h1zm-247-2-1 1h1v-1zm239 1 1-2h-1l-3 1c0 2 1 2 3 1zm65 0h-1 1zm-41-1-1 1h1v-1zm-21 0h-1 1zm47 0v1-1zm13 0-4-1h-2l2 1 3 1 1-1zm28 0-1-1v2l1-1zm-48 0-1-1-1 1h2zm-292 0v-2c0-2 0-2-2-3l-1-2-1-2-2-2H7l1 2c1 1 2 1 1 3v2l1 1 1 1 1-2v3l1 1h1zm33-1 1-1 3-4c2-2 3-3 2-4l-1-1-3 2 1 1-2 2v-1l-1-1-1 1-1 2v2l-1 1v1l1 1 2-1zm247 1-1-2h2l2 1v-2h-7l-1 1v2h2a11 11 0 0 0 3 0zm15-2h-1v1h1v-1zm36 2 2-2-1-1-1-1-1 1h1l-1 1-1 1 1 1h1zm11-1-1-3-1-3-1-2h-1l-1 1h-1l1-1v-1l-1-1-2 1-2 2h1l2 3-1-1-1-1-1 1 1 1 1 3h6l1 1v1l1-1zm-6-5 1-1 1 1h-2zm23 5v1h1l-1-1zm-114 0-1-1v2l1-1zM24 98v-1l1-1v-1h-2v5h1v-2zm2 2h-1 1zm257-1-1 1 1-1zm29 1v-1l-2 1h2zM34 99h-1l1 1v-1zm294 0-1-1v1h1zM52 99v-1l-1-1-1 2h2zm253-1h-1v1h1v-1zm11 1h-1 1zm-54-1h-1v1l1-1zm100 0v-1l-1 2 1-1zM32 98c0-1 0-1 0 0h-1l1 1v-1zm267 0h-1s-1 0 0 0h1zm15 0h-1l1 1v-1zm-30 0 1-1v-1l-1-1-2 2c-1 1 0 1 1 1h1zm28 0c1-1 0-1-2-2h-3 1v-1l-1-1-1 1h-2l-1 1v-1h-1l1 1h2l1 1 3 1h3zm12 0-1-1v-1 2h1zM36 97l-1-2v-4l1 1v1-2l-1-3-4 4 1 1v3h2v2l2-1zm19 0v-3l-2 3 1 1 1-1zm226 0-1-1v2l1-1zm19-1v1c0 1 0 1 0 0v-1zm26 1v-1l-1 1h1zm-31 0-3-1h-1l2 1h2zm34 0h-1 1zM57 96l4-3 2-1 2-1v-1l1-2 1-1v-2l-1-1-3 1h1c1 0 2 1 0 2h-2l-3 2-2 2a140 140 0 0 0 0 5zm240-1v-1l-5-1-2 1-1 1h6l1 1 1-1zm-14 0h-1v-1l1-1h2l1 1v1l1-1-1-2-1-2-1-1h3l-1-2-1-2-2-2-1 4v2h-1l-1 1v2l1 3 1 1 1-1zm32 0h-1v1l1-1zm5 0v-1l1-2h-1l-2 1v2h2zm10 0-1-1-2-1-1 1h1l2 1v1l1-1zM19 95l-1-1 1 1zm290-1v1-1zm14 1h-1 1zM8 94l-1-1H6v-1c-1-1-2 0-2 1h1l1 1h2zm268 0c0-1 0-1 0 0zm85-1a92 92 0 0 1 1-4h-1l-1 5c1 1 1 0 1-1zM13 92v-7 2l-1 4v3l1-2zm34 0 2-3-1-1-3 4v1l2-1zm34 1v-1h-1l-1 1h2zm222 0-1-1-1-1h-2l1 1 2 1h1zm31-1 1-1 1 1 3 1 5-1 2-1 1-1 1-1 1-2-2-1-1-2-2-1h-2l-3 1-2 1-3 2-2 4 1 2 1-1zm3-4 2-1 3-1h1l-2 2h-4zm-6 2v-3h2l2-2 2-2 2-2-1-2-1-1-2 1-1 1-2 2-1 2v1-6h-1l-1 2a139 139 0 0 0 0 9l-1-2 1-1-1-1v5l1 1 2 1v-3zm-34 2 2-1 1-2-1-1c-1 0-1-1 1-1h1l1 3 2 1c3-1 3-2 1-5l-3-2-3-1h-1c-1-1-2-2-3-1v1l1 1c2 0 2 1 2 2l-1 2-1 2-1 2h2zm15 0-1-1-2-2h-2l1 2v-1h1l1 2 1 1 1-1zm13-1 1-1v-2l-2 2-1 1v1h1l1-1zM41 91h-1v1l1-1zm3 0-1-1h-1l1 2 1-1zm-20-1v-2l1-1h2l1-1-1-2-1-1-1-1 1-1-1-4c0-1-1-2-2-1v6a127 127 0 0 1 0 10l1-2zm269 1 2-1 1-3-1-2h-1l-2 1v3l-1-2-1-2h-1v-1h2l1-2-2-1-2 1-3 1v1h1c2 0 2 0 1 2v1l1 1 1 1 1 2h3zm22 0v-2l-1-1-1 2v1l2 1v-1zm-36 0-2-2v2h2zM74 90h-1v1l1-1zm293 0 4-1 2-3-2-1-3 1-1 1v-1l4-2 2-2-1-1-2 1-3 2-2 2-1 3v2l3-1zm-50-1 1-3-1 2v2-1zm8-1v-2l-3-4h-1l-1 3-1 2v3l3-1v-1l-1-1v-1h2v4l2-2zm28 1-1-1v2l1-1zm6 0v-2l-1-2v1h-1l-1-1-3-4-1 1 1 1 1 1 1 1 1 2 1 3h1l1-1zm-2-2h1v1l-1-1zM11 88v-5l-1-3c-1-2-2-3-2-1v3l1 1v2a2850 2850 0 0 1 2 3zm42 0v-1l-2 2 2-1zm-6 0v-1l-1 1h1zm28 0 1-1-1-1-2-1v1l1 2h1zm280-1v2-2zm7 0 1-4-2-1h-1v1l1 1-1 3v1l2-1zm-82 0 1-2 1-1-2-1-2-1-2 1h-2l1 2 1 2 2 1h2v-1zm34 0h-2l1 1 1-1zM42 87h-1v1l1-1zm-5 0-1-1-1-1-1-2v2l1 1c0 1 1 2 2 1zm43 0-3-2v1l2 1h1zm-48-1s0-1 0 0v1-1zm28 0v1-1zm-29-1h-1l1 1v-1zM8 86l-1-2H5v-4l-1 2 1 3 2 1h1zm34-1 1-2-1-2-1-1v2a74 74 0 0 1 0 4l1-1zm5 0 1-1v-2l-1 1v1l-1 2 1-1zm6 0 1-1h-2l-1 1 1 1 1-1zm3 0h-1 1zm255 1-1-5c-1-2-1-1-2 1v2l2 1 1 1zm2-2v-1h-1v2l1 1v-2zm5 0v-2l-1-1-1 4c1 1 1 1 2-1zm9 1 1-2-1-2-1 4 1 1v-1zm24 0-1-1v1h1zM19 84v-1 2-1zm329 1v-1l-1 1h1zM31 84v-1l-1 1h1zm44-1v1-1zm-30-1 1-2 3-4v-1h1c-1-1-2 0-3 1l-1 1v2-6l-2 1v7a87 87 0 0 0 1 2v-1zm263-1v-2h-1l-1 2v2h1l1-2zM63 83v-1l-2 1h2zm286 0h-1 1zm8 0v-6l-1-4v-3h-2l-3-1h-2l1-1h3l3 1h1v3l1 4v-3a201 201 0 0 1-1-8l-1-1v1l-1 1h-1l-1-1-3-2-1-1h-3l-5 1-2 2h-1l-1-1-2-2-2 1-1 1h-2l-2-1h-2l1 1v1l-1 1v3l1 2v-1l1-5 1 1-1 2v2l1 2v1h3l-1 1v1h4l3-4-1-2-2-1v-2l1 1h5l-1-1c-1-1 0-1 1-1l1 1h2l2-1v1l-2 1-3 1-1 1 3 1h2c1-2 2-2 2-1l-1 1-1 1 1 1h6c2 1 2 2 1 2l-2-1-1 2v3-1h1v1c0 1 1 2 2 1h1l1 2 2 2zm-24-12 2-1-1 1h-1zM16 82v1-1zm309-1v-1h-1v1c-1 1 0 2 1 2v-2zm16 1 1-1h-1l-1-1v3l1-1zm6 0-1-1-1 1h2zM37 80h-1v-1l1-2-1-1-2-1-2-7v-1l-1 1 1 3 1 5v2l2 2v1l1 1 1-1v-1zm16 1 5-2c1-1 0-1-1-1l-2-1-1-1-1 1-2 1-1 2v1l1 1 2-1zm2 1h-1 1zm3-1s1 0 0 0h-1l-1 1h1l1-1zm262 1h-1 1zm-9 0v-1 1zM21 81h-1 1zm48 0-1-1h-4c-1 1 4 2 5 1zm250-2v1l-1 1h1v-2zM13 80v-1c-1 0-2 1-1 2l1-1zm307 0 1-2v1l1 1v-1l-2-2v4-1zm-25-1v-1l-1 1-1 1 1 1 1-2zm9 1a192 192 0 0 1-2-6l-1-1-2 2v1h-2l-1-2v-1 2l1 2v2l2 1h2l2 1 1-1zm14 0s0 1 0 0zm29 0v-1 2-1zm-36-1v-1l-1-1-1-1 1 1v3c1 1 1 0 1-1zM30 79v1-1zM2 78v1c0 1 0 1 0 0v-1zm15 1h-1v1l1-1zm24 0v-1 2-1zm21-1 1-3-2 3v2l1-2zm17 1-1-3-1 1v2h2zm-11-1-1-1h-1l-2 1v1l4-1zm255 1h5v-4h-2v1-1l-1-1-1 1-2 2v2h1zm11 0-1-1 1-1h-2l-2-1h-1l2 2 3 1zm25 0v-1 1zM18 78h-1v1l1-1zm32 0v1-1zm238 0-2-4v-2l-1-2 1 1 1 3c0 1 1 3 2 2l-1-4-1-2v-2l-1-2h-1v-1h2l1 2 2 7 1 2 3 1v-6l-1-1-1-1-1-1v2c-1-1-2-2-1-3v-2l-3-3h-4c-1 0-2 0-1 1l1 4v3l-1 1h-1l1 3 2 2 3 2h1zm17 0 2-1 1-1-2-1-2-1v1l1 4v-1zM5 78H4h1zm337 0h4l1-2v-2h-2l-2-1h-1l-2 1-2 1c-2 1-1 1 1 2l2 1h1zM40 78l-1-1-1 1h2zm34-1h-2v1h1l1-1zm218 1v-1l-1 1h1zM14 76l-1-2v1l-1-1v-1l-1 4h3zm297 0h-1l1 1v-1zM61 76v-2l1-1 1 1v-3l-1 1-1-1h-4l-2 1 1 2v2h1l1 1 3-1zm11 0 1-1h-2l-2-1-3-1-1 1 2 1 3 2 2-1zm263 0v1-1zM9 76v-1l-1 1h1zm309 0-2-1h-1v1h3zM39 75l1-2v-3 1l-1 2-1 2h-1 1v1h1v-1zm38 0h-1l-1 1 2-1zm-35 0-1-1v2l1-1zm-26-1v-1h-1v2l1-1zm6 0 1-2-1-2v-2l-1 1v2a737 737 0 0 1 1 3zm276 1v-1l-1 1h1zm21 0v-1h1v-1h-1l1-1-2 1c-1 1 0 2 1 2zm5-1 2-3-1-1-1 1h-1l1-2 1-1h-2l-1 2-1 1v4c1 1 1 0 3-1zM7 74H6l1 1v-1zm2 0V61l-1-1-1-1H5l1 1 3 7-1 2-1 2 1 1v2l1 1v-1zm45 0h-1 1c1 0 0 0 0 0zm257 1-1-5h-2v1l1 2 1 2h1zM31 73h-1v1h1v-1zm-3 1v-1l-1-1v1l1 1zm10-1-2-3v3l1 1 1-1zm260 0v-1l-1-1-1 1 1 1 1 1v-1zm10-1h-1v1h1v-1zM74 71l3-2 2-1h1l-1-1-3 1h-3l-2 1-2 1v1l1 1 1 1 1 1 2-3zm1 1h-1l-1 1h1l1-1zm3 1 1-1-3-1v2h2zm224-2-1-1 1 2 1 1-1-2zm27 2h-1v1l1-1zM65 73l1-1h-1l-1 1h1zm215 0-1-2v-4 1l1 1h2l-2-2v-1l1-2-2-1h-2v2l1 1h-2v-1l-2-4-2 1-6 4 2 1 2 2 3 1 4 1 2 1 1 1zm-7-6v-2h1v3l-1-1zm45 5 1-1v-1l1-2v-2l-2 3c0 2-1 2-1 1 0 0-1 0 0 0v3l1-1zM50 72l2-2 2-3 1-1v-3l-4 3v2l-1 1v3zm250 0-2-1v1h2zM15 71l1-2v-2l-2 2-1 2 1 1 1-1zm68 1-3-3-2 1 1 1h2l2 1zm234 0-1-1v1h1zM48 70v-1l-1-1-1 1v2l1 1 1-2zm-36 0v1-1zm53 0h-1l1 1v-1zm242 1v-2c0-1 0-3-1-2v1l-1 2-1 1h3zM5 71l-1-1v1h1zm316-1h-1 1zM27 69l-1-1v2l1-1zm15 0c0-1 0-1 0 0l1 1-1-1zm43 0h-1l-1 1h1l1-1zm212 0c-1-1-1-2-2-1v1l1 1 1-1zm3 1v-1h-1c-1 1 0 1 1 1zM58 69c0-1 0-1 0 0zm237-2v-1h-4l2 3h1l1-2zM45 68h-1v1l1-1zm18 0-2-4h-1l-1 1v2l1 1h3zm-49-1-1-1v2l1-1zm5 0v-1l-1 1 1 1v-1zm280 0v-1h-2l1 2 1-1zM84 67c1 0 1 0 0 0h-1 1zm235-1 1-1h2v-4h-2l-2 5v1l1-1zM12 66l-1-1v-1l-1 3 2-1zm36 0-1-2-1 2 1 1 1-1zm257 0h-1l1 1v-1zm5-1v-4l-1 1v5l1-2zM39 66l1-2v-2l-1-2-1-1-2-1 1 4 1 3 1 1zm2 0h-1 1zm25 0 3-2 3-3 1-1 1-2 2-3v-2l-1 1-3 4-1 1-2 2-1 1-1-1-2-1h-5v1h3v1l-1 1 2 3h2zm-37-2h-1l-1 1-1 1h2l1-2zm15-2v-4l-1 4v3c0 2 1 1 1-3zm264 2v-2l-2-1v2l1 2v1l1-2zM26 65h-1 1zm278 0 1-3 1-4 1-1-2-1-1 1-1 2-2 3h-3l3 3h3zM14 64c0-1 0-2-1-1v2l1-1zm279 0-1-1 1 1zm65-2v-3h-3l-4 1h1l1 2 1 1h3l1 1v-2zM5 62l-1-1v-2 3c0 1 1 2 1 0zm308 1 1-3a156 156 0 0 1 0-6h-1v2l-1 2v5h1zM21 63v-1 1zm-10-1v1-1zm13 0v-3l-2 1v1l1 1h1zm2 0v-1l-1 1h1zm9 0v-1l-2-1-2-1v1l1 2h3zm13-3 1-2a807 807 0 0 0 1-5h-3v2l1 1v1l-1 1v4l1-2zm282 2 1-2 1 1 2-1 2-3c1-1 2-1 1-2l-1-1-1 1c-1 2-4 2-6 2h-2l1 1v2c-2 1-1 3 1 2h1zM20 61v-1 1zm30 0v-1h-1l1 1zm231 0 1-1h-1l-1 1h1zm4-1v-2l-2 3h1l1-1zm9 1v-1l-1-1c-1-1-1-2-3-2h-2l-1 1 1 1 2 1 3 1h1zM78 60l4-2a23 23 0 0 0-7-1l1 1 1 1h-1v1h2zm-22 0-1-1v1h1zm224-1h-1v1l1-1zm28 0h-1l1 1v-1zM10 58v-1l-1 1v1c1 1 1 0 1-1zm49 1 1-1h-1l-1 1h1zm10 0 1-1 1-2 1-2-1-2-1 1-1 2-1 2-1 1 1 1h1zm208 0v-1l-1 1h1zm21 0v-2c1-2 1-2-1-3l-3-1h-3v1l3 2 1 3h3zm3 0zm62 0v-1l-1 1h1zm-87-1-1-1-1 1 1 1 1-1zm34 0 1-1 1-2v-2l-2 4v2-1zM54 58v-3l-1-2-2 3-1 2 2 1 2-1zm-26-1h-1v-4l-2 1c-2 1-2 2-1 2l3 2 1-1zm30 1-1-1-1 1h2zm31-1 2-2v-3l-2 2-2 3 1 1 1-1zm-76 0h-1l1 1v-1zm21-1-2-2-2-1v2l1 2 2 1 1-2zm5 1-1-2v3l1-1zm47-1v-2l-2 1-2 1h1l2 1v1l1-2zm223 0-1 1h1v-1zm49 1h-1l-1-1 1-1 1-2v-1l-2 1-2 2 1 2h3zM64 56l1-1-1-1-4 1c-2 0-2 1-1 1l2 1h1l2-1zm240 0 1-1v-1l-3 1-2 2h1l3-1zm55 0v-2 3-1zM8 56c1-1 0-4-1-3v2l1 2v-1zm-3-1v-1H4l-1 1v1l2-1zm334 1v-1l-1 1h1zM46 55l-1-1v1h1zm12-1 1-2-2 1-2 1 1 2 2-2zm228 1-1-3-1-2h-1l-1 1 2 4h2zm24-1-1-1v2l1-1zM40 54h-1 1zm40 0h-1l1 1v-1zm14 0h1v-1l-3 1v1l2-1zm-57 0 1-1-1-1h-4l3 2h1zm267-2h-2l-1 2 2-1 2-1zM68 53h-1l-1 1h1l1-1zm-45 0 1-1 1-2v-1l-1-1-1 2-1 1-1 2h2zm42 0-2-1-2 1h4zm19-1 3-1 1-1h-3l-1-1-1-1-1 2-2 2-1 1h2l3-1zm-38-2v-4l-1-2-1 4 1 4h1v-2zm47 1h-1v1c-1 0 0 0 0 0l1-1zm198 0 2 1h2v-1l-2-1h-3l-1 1v1l2-1zM4 51H3l1 1v-1zm16 0v1-1zm13 1-1-1v1h1zm22-1-1-1v2l1-1zm20 0h-1c0-1 0-1 0 0h1zm-17 0v-1l-1 1h1zm8 0 2-2h1v2h1l1-1v-1l-1-2-1-1-6 4 1 1h2zm-30-1h-2c-2 0-1 1 1 1l1-1zm43 0v-1l-1-1c-1 0-2 1-1 2h2zm-46-1 1-2h-1l-1 1h-3l1 1h3zm15-1h-1v1h1v-1zm13-1 2-2h-1c-2 0-3 1-3 2v3l2-3zm4 1c2-2 2-3 1-4l-2 1-2 3v1l1 1 2-2zm32 1v-1l-2-3-3 4 2 1 3-1zm-9-1 1-1c1 0 1 0 0 0h-2l-1 1 1 1 1-1zm3 0h-1v1l1-1zm-72-1-1 1h1v-1zm21 0h-1l1 1v-1zm12 0 1-1 1-1-1-1-2 3v1l1-1zm24 0 1-1-1-1-1 1-1 1 1 1 1-1zm4 0v-2l1 1 1 1-1-1v-2l-1 1-1 2h1v1-1zm21-1 2-2-1-2-2-2-1 1c0 2-1 3-2 3v2l2 1 2-1zm-62 0-2-2h-1l1 2 1 1 1-1zm20-1v-2l1-1 2-1 1-2h-3l-2 2v3l-2 1-1 1 3 1 1-2zm33 1-1-2h-4l3 1 1 1h1zm-62-1h-1l1 1v-1zm42 0-1-1v1h1zm-53 0v-1l-1 1h1zm58-1 2-2v-2h-3v4l-1-1-1-1v1l1 1h-1v1l3-1zm10 0 1-1h6l3-1 1-2v-2l-2-1h-1l2-1 1-1-2-2h-5l-2 1v1h2l1 1 2 1 1 1h1l-1 1v1l1 1c-1 1-2 0-3-2l-1-1c-1-1-2-1-2 1l-1 2v-1l-1-2-3 2v3l-1 1 2 1 1-1zM4 43l-1-1v2s0 1 0 0l1-1zm23 1v-1l-1 1h1zm56-1h-1l1 1c0 1 0 1 0 0v-1zm-32 1h-1 1zm-40-1v-1 2-1zm5-1-1-2v3l1-1zm30 1 1-1v-3l-2 1h-1l-1 1 2 2h1zm10-1 2-2v-1h1-1l-2 1-2 1-1 1-1 1h2l2-1zm8 0 1-1h-2v1c-1 0-2 0-1 1l2-1zm6-1 2-1-1-1a5 5 0 0 0-3 2v2l2-2zm-57 1v1-1zm278 1-1-1h-1l1 1h1zM23 41l1-2 2-6-1-1v1l-4 3-1 3 2 3 1-1zm83 0v-1l-1-1-1-1h-3l3 3 1 1 1-1zm3 0h-2l1 1 1-1zm-72 0-2-1 2 2v-1zm16 0 3-2v-1l-2 1-2 2h-1l1 1 1-1zm-36 0 1-1h-1v1zm9-1h-1v1l1-1zm13 0v1-1zm3 0-1-2-2-1h-1c0 1 1 2 2 1l1 1 1 2v-1zM6 38l-1-2c0 1 0 5 1 4v-2zm28 2 1-1h-1l-1 1h1zm49-1 1-2h1-4l-1 1 2 2 1-1zM7 39v1-1zm6 0-1-4v5l1-1zm62 0v-1h-1v2l1-1zm-7-1 2-1 1-1v-1l-5 2-2 1 2 2 2-2zm-15 1v-1 1zm-23-1h-1v1l1-1zm13 0v1-1zm-27-1h-1v1h1v-1zm2 1h-1 1zm91 0 3-3c2 0 3-1 3-2l2-1v-4l1-3-2-1h-2v2l-2 2h2c2 0 2 1 0 1l-3 1 1 1 1 1-2 1-4 2-2 2 1 1h3zm-49-1h-1v-1l-1 1-1 1h1l2-1zm19-1 1-1v-6l2-1h1l2-3-3 1-1 1-3 5 1 2v1h-2l-2 1 3 2 1-2zm21 1h-1l1 1v-1zm-36 0-1-2-1 1 1 1h1zm-32-1v-3h-1l-1 1 1 2h1zm13 0-1-1 1 1zM8 35H7h1zm96 0 2-1h2l1-1 1-1v-1h-3l-2 1-2 2-1-1h-2v1l2 2 2-1zm-86 0v-1l-1 1h1zm34 0v-2l-1 1v1h1zm35-1h-1l-1 1h1l1-1zm-41-1-1-1-1 1v1c1 1 2 1 2-1zm27 1-1-1-1-1-1-1h-3l-1 1h-1c-2 1-1 1 3 2a166 166 0 0 1 5 0zm-12-1v-2l-2 2h2zM5 31v1s0 1 0 0v-1zm54 1v-2 1l-2 1 1 1 1-1zm24 0 1-1-2-1v3l1-1zm10 0h-1l1 1v-1zm6 0 1-1-2-1h-1l-1 1h-1l2 1 2 1v-1zm-87-1h-1l1 1v-1zm77 0h2l6-3-1-1-1-1v1l-1 1c0 1-1 1-3-1l-2-2-2 1v3h1l1-1-1 3-2 1h1l2-1zm-47 0-1-1v-1h-1l-2 2h4zm10 0h-1l1 1v-1zm-4-1 1-1h-2l-1 1 1 1 1-1zm9 1 2-2h1v-1l-2 1h-2v2h1zm17-1v-1h-1c-1 0-2 1-1 2h1l1-1zm30 1v-1l-1 1h1zm-27-1-1 1h1v-1zm-55 0h-1l1 1v-1zm80-1-1-1-1-1h1l2-1-1-1-2 1-2 2 2 1 1 1h1v-1zm-73 1-4-3-1 1 1 1h1l1 1h2zm37-1 1-2v-1l1 1h1l1-1h1l1-1-1-1h-2c-2-1-2-1-3 1l-1 1-2 1-2 3 5-1zm19 0s0-1 0 0v1-1zm-39 0h-1 1zm8 0 1-1-1-1h-2l-1 1-1 1h4zm-21 0v-1l-1 1h1zm77-1 1-1 2-3-1-1-3 1-3 1-1 2 1 2h2l2-1zm-96-1h-1v1h1v-1zm64 1 2-3h-1l-2 1h-2l1 2h2zm47-1h1v-2l-2 1-2 1v1h1l2-1zM22 27v-1l-1-1-1 1v1h2zM9 25c0-2 0-2-1-1v3l1-2zm-3 0s0-1 0 0v1-1zm8-2v-2l-1 2v2l1 1v-3zm16 1 1-1h-1l-1 3 1-2zm6 1v-2l-1-1-1 1-1 2 1 1 2-1zm12 0v-2a1300 1300 0 0 1 0 2zm7 0h-1 1zm-11-1h1l1-1 2-1-1-1h-3v2l-1 1h1zm17-1h3l-4-1-2 1v1c0 1 0 1 0 0l3-1zm16 1h1-1zm-38-1v-2l-1-1-1 2 2 2v-1zm-11 0v-2l-1-3h-2l-2 1-1 1v3h1l2-1 1 1 1 1 1-1zm58 0v-1l-1 1h1zm-34 0h-1 1zm28 0 1-1-2-1-2 1 2 1h1zm5-1 1-4h-1l-1 1 1 1h-2l-1-1v1l1 1v2l2-1zm-53 0v-1h1l-3-1 1 2h1zm25-2v-2h-2l-1 1-1-1-2 3h1l5-2-3 2c-1 0-1 1 1 1h2v-2zm8 2v-1l-1 1h1zm11-1v-1l1-1c2 0 3-1 3-2h-2l-2 1-2 2v1l2 1v-1zm-10 0v-1l-1-1h2l1-1v-1l-2-1-6 2-1 1 1 1h5l1 1zm-1-3-1-1 2 1h-1zm-48 2 1-1h2l1-3-1-1-1 1h-2l-1 4h1zm33 0v-1l-1 1h1zm-37-1-1 1h1v-1zm58 1h1l1-1-2-1-2 1v1h2zm-29-1v-1l-1-1-1 1c-1 1 0 2 1 2l1-1zm7-1-2-1v1c0 1 1 2 2 1v-1zm41 0 1-2-2 1-1 1h2zm-67 0v-1l-1 1h1zm11 0-1-1v1h1zm-21-2v1-1zm19 1-1-1-1-1v-1 3h2zm31-1 1-1-1-1-3 1-1 2h1l3-1zm-25 0 1-1-1-1h-1v3l1-1zm-13 0h-2l1 1 1-1zm27 0h-2 2zm4 0h-1 1zm31 0 2-2h-3l-2-1h-1v4l4-1zm-59-1-1-1-1-1h-1l1 2 2 1v-1zm17 0v-1h-3l2 2 1-1zm-12 0-1-1 1 1zm21-2 1-1h-1l-4 1-1 1h2l3-1zm36 0 1 1-1-1zm-49 0v-1h-1v2l1-1zm25 0h-1 1zm28 0h-2 2zm-35-1 1-2 1-1h-1l-2 1-1 1-1 1 2 1 1-1zm37 0 1-1h-1l-1 1v1l1-1zm-73 0h-1v1l1-1zm42 0v-1l-2 2 2-1zm17 0v-1h-1l1 2v-1zm7-1v-1l-2 1-1 1h4l-1-1zm-28 1h-1 1zm-26-1V9l-5 2 2 1 3-1zm57 0 1-1h2l-1-1h-2V5l-1-2-1 1-2 2-1 2 2 1 1 1 2 1zm-65-1h-1l1 1v-1zm57 0h-1 1zm3-1-1-1v1h1zM29 7h-2l1 1 1-1zm9 1-1-1v1h1zm-6-1-1-2V4v3h1zm20 0V3h-2v2l1 1v2l1-1zM42 1h-1 1zm341 317v-7l1-1 1 2s0 1 0 0v6h-2zm-181-2 1-1 4-1 3 1-2 1-4 1-2-1zm-153-2v-1h2l1 1h-3zm328 0-1-2a185 185 0 0 1 1-10v4l1 6v2h-1zm-2-1a38 38 0 0 1 0-9v9zm-258-1v-3l6-2v1l-2 1-1 1h2l5-1h10v1l-7 1a764 764 0 0 0-13 1zm268-2-1-1 1-4v-4h2l-1 5v5l-1-1zm-246 0c-1-1-2-1-1-2l1-1h5l6-1h3l1 1-1 1-3 1-9 1h-2zm-56-1v-1l1-1v2h-1zm155 0-2-1v-2h6l2 1-1 1-5 1zm-138-1h-1c0-1 0-1 0 0h-3l1-1 2-1h5l1 1v1h-5zm108-3h-3l-1-1 2-1h4l3 1v1l-2 1-3-1zm142-4-1-1 6-1a143 143 0 0 0 14 0l-8 2a176 176 0 0 0-11 0zm35-3 1-3v2l-1 1zm-148-2 1-2h3l2 1-1 1h-5zm22-1v-2l7-1 2 1c1 1 0 1-4 1l-4 1h-1zm14-1 1-2h2l4-1h2l2 1v1h-4a148 148 0 0 0-7 1zm72-1-1-1h-1l1-1h14l3 1 3-1v-4l1-3v4l1 3v1h-1l-20 1zm41-3a121 121 0 0 1 0-12v2l1 3v6l-1 2v-1zm-281-6 1-3 2 2-1 1-1 1-1-1zm147-1v-1l5-1a238 238 0 0 0 13 0l14-1 7 1 1 1h-11a219 219 0 0 1-23 1h-6zm-134-1v-4l1-2h1v7l-2-1zm129 1h1-1zm-1-2h1v1h-1v-1zm95 0v-1l3-1 3 1 1 1h-7zm-225-3v-3l1 2v1h-1zm14-1-1-1 2-1 1 1h1v1h-3zm192 0 6-1 5-1h5l-4 2h-12zm63 0a145 145 0 0 1 1-8v8h-1zm-282-5 1-4 1 1 1 3v2l-1 1v1h-1l-1-4zm-65 3v-5l1-3 1 8-1 1-1-1zm349 0v-1 2-1zm-150-3h1v1l-1-1zm62 0h-6v-1h10a421 421 0 0 0 40 0h-5l-19 1a278 278 0 0 1-20 0zm14-1h-1v1l1-1zm-148 0 1-1 3-1 2 1-2 1h-4zm120-1 1-1 1 1h-2zm-179 0-1-2 1-1 1 1v2h-1zm16-1c0-1 0-2 2-2l4-2v-1l1 1h3v-1l1 1 2 1 3-1h9v1l-1 1h-10l-9 1h-3l-1 1h-1zm4 0h1-1zm-115-2a236 236 0 0 1 0-8l2 1v1l1 2v1l-2 3h-1zm123-9v-1l7-1v1l-3 1h-4zm39-5-4-1h-13v-2l2-1 11-2a195 195 0 0 0 29-3l8-1-1-1-7 1a3935 3935 0 0 1 0-2h10v2l-2 1-2 1h-3l-3 1h-7l-8 1a214 214 0 0 0-26 3l10 1a407 407 0 0 0 6 2zm82-9 2-1 2 1h-4zm-111-3v-1h1l9-1h24l-11 2a402 402 0 0 1-23 0zm78 0-1-2h-1l-1-1 2-1 1 1 1 1-1 2zm9-2-1-1h-1l-1-1-1 1c0-1 0-1 0 0l-1-1c-1-1 0-1 2-1h3l1 3-1 1v-1zm7 0-1-1h-1l1-2h2v3h-1zm-22-3v-1h1l1-1 1-1 1 1-1 2-1 1-2-1zm-77 0h2l-1 1-1-1zm5 0h1l-1 1v-1zm242-3v-2a1328 1328 0 0 1 1-10h1l1 5v7c-1-1-3 0-3 1v1-2zm1-6-1-1v1l1 2v-2zm-173 7 1-1v1h-1zm-79-2v-1a177 177 0 0 1 17 1h-17zm34 0v-1h3l4 1h-7zm24 0v-1h5l-2 1h-3zm-54-2a99 99 0 0 1-4-1h7l5 1h-8zm12 0v-1a179 179 0 0 1 0 1zm45 0v-1l3-1 2 1h-1l-2 1h-2zm-26-1 3-1c1 1 0 1-1 1h-2zm13 0 3-1 2 1h-5zm24 0v-1l13 1h-5a89 89 0 0 0-8 0zm22-3 1-1a44 44 0 0 1 7 0v1a38 38 0 0 1-8 0zm160-18v-2 4-2zm-143-10v-2h1v1l-1 2v-1zm15 0v-1h-1c1 1 0 1-1 1l-2-1v-1h1l2-2 1-1v2l2 1 1-1 1-1 1-1v2l-1 1-2 1-1 1h-1zm0-2h-2 2zm-17-1v-2l1-2 1-2h1v2h-1 2v1h-2v1l-1 2h-1zM4 194l-2-1v-4l1-1 1 1 1 3c2 1 2 2 2 3l-3-1zm252 0v-1l-1-3-1-1h1l1-1 1-1 1 1v3l-1 3h-1zm1-5v-1h-1l1 2v-1zm-15 1v-1l-1-2h3v1h-2v1l2 1h1l-2 1-1-1zm26 0-1-1v-1l3 1-2 2v-1zm-7-1v-2l1-2 1-2v-2l-1-2-1-2h1l1 1v1l3 1 1-1 1 1v1h-1l-1 1-1 1-1 1-1 1-1 3v2l-1-1zm-12-1-3-2h-2l1-1 1-1h2l1 1 3 1 1 1-1 1-2 1-1-1zm3-1h-1l-1-1-1 1h3zm-128-1 1-2v1l-1 1zm132 0v-1h1l-1 1zm12-1v-1h1v1h1v1h-1l-1-1zm96-2-1-3 1-1v-2h1l2-1 2-2-2 3v1h1a828 828 0 0 0 1 1l1 1c0 1 0 2-1 1l-2 2-1 1v-1c1-2 1-3-1-2l-1 2v2-2zm-224 1 2-1-1 1h-1zm113-1h2c1 0 1 0 0 0h-2zm-6-1v-1l1 1h-1zm-7 0v-1h3l-1 1h-2zm14 0 1-1v1h-1zm5 0 1-1 2 1h-3zm-121-1-3-1-1-1h4l2 2-1 1-1-1zm112 1-1-1-1-1-1-1h-2v-1h6v-1l1 1-1 2h-1l1 1v-1l1 1 1 1h-3zm-80-3 1-1 1-1-1 2-1 1v-1zm-34-2h2-2zm9 0-1-2-1-1h-4l-1 1h-3l1-1 4-1 3-1 2 1 1 1h1l-1 2v2l-1-1zm-35-3c0-1 0-2 1-1l-1 2v-1zm152 0 1 1h-1v-1zm-123-4v-1l1 1h-1zm-2-1 1-1v1h-1zm-14-1-2-2-1-2 2 2c2 0 2 1 2 2 1 0 0 0 0 0h-1zm-6-3v-2l1 1 1 1-1 1-1-1zm262 1v-1l1 1h-1zm-265-2-1-1h1v2-1zm11 0-3-1v-1l-1-1 1-2v1h1v-1l3-2h1v1l-1 1h-1l1 1 2 1-1 1h-3v1h1l2 1v1l-2-1zm4-1v-1l1-2h1l1 1h1l-1 1-3 1zm-40-6 1-1h2c0-1 0-1 0 0v1l-1 1-2-1zm-14-5v-3l-1-3-2-2v-1l1-2-2-1-3 1 1 1h1l-1 1-2 1-2-1-1-1h2l1-1v-4l-2-2-2-2 3-1 2-1h-1l-1-1h-1l-2-1v-1l2-2 3-1h2l-2 1-2 2 3 3h2l4 1 3-1v-1l1-1v3c1 1 2 0 4-2l2-3v-3l2-4h1v1l-1 1v1l1 1v1l2-1 2-2h1v-2l-2-1h-2v-1l1-1h5v1l-1 1 1 1 1 1-4 3-3 2-1 2-2 1-2 1h1l2-1v2l-1 1v1l-2 1-2 2-1 1h-1l-1 1-2 2 1 1h3l1 1v2l-1 1v-2l-1-1-3 1-1 1v3l1 1 1-1 1-1v1l-2 2v2l-1 1h-1zm0-9h-1l1 1v-1zm0-1 1-3 1-2-1-1 1-1 1-1-1-1H67l-2 1s1 2 3 2l1 1c-2 1-1 1 1 1l2-1 1-1 1 3v1l1 2zm8-9 1-1h-1l-2 1h2zm-2 19v-2l1-2h1l-1 5-1-1zm14-1-1-2v-2l-1-1 1-2h1v2l1 1h1v1l-1 1v2h-1zm3-1 1-1v1h-1zm-8-1c1-1 1 0 1 1l-1-1zm-27 0v-2l1-2 1 1-1 1v1l-1 1zm39 0v-1l1 1h-1zm137-1v-1l1-1 1-1-1-1h-1 4l1 1-1 1-1 1-2 1h-1zm-139-1 1-1 1 1h-2zm137-1-1-1h2v2l-1-1zm11 0h-1l-1-2-1-2 2 1 2 4-1-1zm116 1 1-2 2-1h2l4-1 2 1-1 1v2l-1-1-1-1v1l-1 1-2-1h-4l-1 1zm-254-1v-1l1-2h2l-1 1-1 2h-1zm120-2-1-2v-1l1 1 2 2h2l1-1h2l-2 1-1 1-4-1zm-144-3-1-2-1-2v-1l4-1-1 3c0 1 0 2 1 1l1 1-1 1h-2zm5 0-1-1 2-1h1v1l-2 1zm146 0 1-1h1l-2 1zm-142-2h2-2zm3-1h1a49 49 0 0 1 13-2l12-1h7l5-1-1-1 1-1 1 1 3 1 5-1h4l3-1a52 52 0 0 1 9-2h3l4-1 10-2 3-1 1 1v1l-1 1h-4l-2 1-4 1-3 1-8 1-6 2-13 1-12 2a55 55 0 0 1-15 0h-10l-5 1-1-1zm277-5 1 1-1-1zm-260 0c-1-1 0-2 1-2v1l-1 1zm-14-3-2-1v-1l2-2 2 1v2l1 1-1 1-2-1zm1-1-1-1v1h1zm-11 1 1-1-1 1zm1-2 1-2 2-2 2-1 1 1v2h-2l-2 1-2 1zm11-2 2-1h1l-2 2-1-1zm-40-4h1v1l-1-1zm43-1-1-1-1 1c-1 1-1 0-2-1l-1-1h-1c0 1 0 0 0 0l1-2h3c-1 1 0 1 1 1l3 3-1 1-1-1zm-34-1h1-1zm-10 0c-1 0 0 0 0 0zm25-4-1-1-1-2-1-1 1-1h2l4 1h-4l1 2 1 1v2l-2-1zm286 1v-3l1 1v1l-1 1zm-276-2-2-2v-2h1l1 2 1 1c1 0 2 0 1 1h-2zm10 0v-2h3l-2 2h-1zm-6 0 1-3 1-1 1 1-2 3h-1zm268-1 1-1 1 1h-2zm-277-1h1l1 1h-1l-1-1zm-31-4-1-1 1-1h1c1 1 2 1 1 2v1l-2-1zm37-1h-3l-1-1 2-1h2l1 3-1-1zm-8 0 2-1-1 1h-1zm280 0c0-1 0-2 2-2h2l-2 1-1 1h-1zm-306-1v-2l1-2 2-3c1 0 2 1 1 2h-1l-1 3-2 2zm14-4v-1 1zm298-11h-2l1-2 2 1 1 2-2-1zm-115-2v-1l2 1h-2zM87 89v-1l2-1 1-1h-1l-2-1 1-1 4 1v2l-1 2h-4zm178-1v-1h1l1 1h-2zm-20-2v-3l2 3h-2zM82 84l-2-2v-1l2 1 1 2 1 1-2-1zm31-1-1-3v-4l1 2 1 2 1 2-1 1h-1zm150-1-1-1h2l2 1-1 1h-1l-1-1zM92 82l-1-1 1-1 3 1h1l-2 1h-2zm27 0v-1l1-2h1v2l-1 1h-1zm136-1 2-1v2l-2-1zm-151-2v-1h1v2l-1-1zm-5-1v-2l3 2v1h-1l-2-1zm29 1v-1l1-2 1 1v2h-2zm146 0v-2l1 1v1h-1zm-13-2-1-2 1-2 1-1v5h-1zm-144 0 1-2 1-1v2l-1 1h-1zm4-1v-2l1 1h1l2 1-3 1-1-1zm10 0 1-2 1 1v1h-2zm-27-2-1-1-1-2 1-2 1 3 1 1c1 1 4 0 5-1l2-1h2c2 0 2 0 1 1l-2 1-3 1-3 1-3-1zm-9 0 2-1h2s-3 2-4 1zm-7 0v-1l1-1 3-1 2-1 1 1-2 1-3 2h-2zm152-1h-1l1-1 2-1h1l1 1-2 1h-2zm132-1v-2l1-1h1l2 2h-1l-1 1h-2zm-125 0 2-2v1l-2 1zm-121-1v-1l4-1 1 1-1 1-2 1-2-1zm-5 0-3-1v-1l-2-1-2 1h-1v-1l2-2 3 1 2 1 2 1h3v1h-1l-1 1h-2zm-21-1-1-2-2-2-2-1h-3l-1 1h-2v-1l1-1h-1l-1-1 4-1h3l5 2 1 2v4h-1zm-1-5-1-1h-1v1h2zm6 3 1-2h3l-1 2-2 1-1-1zm22-1c-1 0 0 0 0 0h1-1zm-25-2v-1h3v1h-3zm263-2v-1h4l1 1h-5zm-246-1-4-1h-3l-1 1v1l-3-2v-3l2-2h5l2-2 2-2h2l-1 1-2 2-2 2-3 1h-3v1h8l2 2 1 1-1 1-1-1zm114 0v-2l2-1v3h-2zm-131-1 1-1h3l-2 1-1 1-1-1zm24 0-3-3v-2h1l1 1 1 1c2 1 3 2 1 3h-1zm-5-1-1-2v-1l1 1 1 1v1h-1zm247 0v-1h1v1h-1zm-132-1 1-1 2-1 1 1c0 1-1 2-3 2l-1-1zm-12-1-1-1v-1h5l1 1-2 2-3-1zm24 0h-1l1-2 3-2c0-1 0 0 0 0l2 1 1 1-1 2h-5zM95 58v-1h3l-2 1h-1zm7 0 1-1 2-4h-1l1-1 1-2h-1v-1h2l3-1 2-2v1l-5 5h-1l1 1-1 2-4 3zm24-3v-1h2v2l-2-1zm109 0v-1h2l1-1-2-1-1-1v-1l1 1h4l3 1v2h-3l-3 2-2-1zm128 0 2-2 3 2h-5zm-118-1 1-2 1-1 1 1-1 2-1 1-1-1zm32-1-1-1c0-1 2-1 2 1l1 1-2-1zm-168 0v-1a47 47 0 0 0 3-2h2v1l-3 1-2 1zm238 0h-4l-3-1-1-1-2-1-2-1h-4l-1 1h-1l2-2 1-2 1-1h2l2-1h1c1 0 1 1-1 1l-1 2 2 1h2l1 2 1 1h2l1-1c1-1 1-2 3-2l2 1v1h-4l1 1 1 1v1h-1zm-89-1 1-2 1-1h2l-3 4-1-1zm107 0 1-1 1 1h-2zm-110-1v-2h2v2h-2zm-137-1-1-1h2l1-1v-2l-1-2h2l2 1 2 2h-2c-2 0-2 0 1 1l2 1h-2l-3 1-1 1-2-1zm154-1h-3l-2-1 2-1h4l1 2-1 1-1-1zm81-1v-1l-1-2 1-1 2-1h2v1l-1 1h-1v2h1l-2 2-1-1zm-76 0-3-1h-2l-1-1h3l4 1v1h-1zm26 0 1-1v1h-1zm-55-2-2-2-1-2-1-1 2-1 1 1h7v1l-3 1-2 1v3l-1-1zm6 0c-3 0-3-1-1-2l3 1h6l-6 2-2-1zm47 0c0-1 0-1 0 0 1 0 1 0 0 0 0 1 0 1 0 0zm44 0v-2h2c1 0 2 2 0 2h-2zm-78-1-2-1-4-1v-1l6 1v2c0 1 0 0 0 0zm59 0-1-1 1-1 1-1 1 1 1 1-1 2-2-1zm-199 0 2-1v1h-2zm108 0v-1l3-1 1-1h1l2-1h2v1l-3 2h-2l-4 1zm-121-1-1-1h2l1 1-1 1-1-1zm23 1 1-1v1h-1zm-4-2-4-1h-5v-1l2-1 5-1h5l-2 1v1h2l3-1 1 1-1 1h-3l-1 2v1l-2-2zm27 1v-1l1-1c1 0 2 1 1 2h-2zm143 0v-1h1v1h-1zm-146-1v-1l1 1v1l-1-1zm101 0-2-1v-2h2l1 2v2l-1-1zm10-1-1-3 1 1 2 1v1h-2zm14 0 2-2h1l-1 2h-2zm-140-1h1l-1 1v-1zm157-1-1-1-1-1-1-1 1-1 1 1 2 2 3 1 1-1-2-1-1-1 1-1 3 1 1 2v2h-3l-4-1zm-180 1c-2 0-2 0-1-1l3-2c2-2 4-3 5-2v1l-2 1-2 1h-1l-1 2h-1zm37-1v-4h1v2h1l1 1-1 1-1 1-1-1zm115 0 1-1 3-2h-4l-1-1v-1l-1-2-1-2 4 2 2 2h3l2-1 2 1 2 4h-3v-2l-1 1-2 1-2 1-3 1-1-1zm-121 0v-8l-1-2-2-1-2-1h-2v-1l5-1h4l2 1 1 1h-5l1 2h3l1-1 1 1h-1l-1 1 1 1 2 1 3 1 2 2v2h-1l-2-1c-3-3-6-4-7-4h-1l1 2 2 1v2l-2 2v-1h-1v1h-1zm3-2-1-1v1h1zm87 1h-2l-1-1v-1l2-1 2 2 1 1v1l-2-1zm13 0-1-1 3-1 2 1v1h-4zm9 0v-1h1l1 1h-2zm-118-1-1-1h-8v-2l1-1v1h2l2-1h1l2-1h2v4l1 1-1 1-1-1zm21 0v-1c2-1 3-1 2 1l-1 1-1-1zm99-1-1-1-3 1-1-1v-1h3l4 1h1v1l-1 1-2-1zm-147 0 1-1v1h-1zm127-2-1-1 1-1h5v1l-1 1h-4zm8-1-1-1h2v1h-1zm3 0 1-1 1-1h1v-1l-1-2h2l1 1h2c1 0 2 1 1 2l-2-1h-2v3h-4zm56 0-1-1 1-1 2 1-2 1zm-169-2c-1 0-1 0 0 0h1l-1 1v-1zm101 0-5-2-3 1-2-1v-1l1-1h4l4 1 3 2 1 1h1-4zm-6-3v1-1zm-96 2c-1 0-2-2-1-3l2 1v2h-1zm109 0-1-1h-2l4-4 1 2v3h-2zm25-1v-2h-1c0 1 0 1 0 0l1-2 2 2v3l-2-1zm-7-1-1-1 1-2c1-1 2 0 2 1v2h-2zm-100 0v-1h1v1h-1zm2-1v-4l1-1v-5l-1-3v1h1v-3l-1-2h1l1 2 1 1c1 0 2 1 1 2h-1v3l1 1h1l-1 3-2 2-1 3-1 1v-1zm-5 0 1-1h1l-1 1h-1zm88-1-1-2-1-2v-2l-2-1-1-1-1-2 1-1 1 1a9301 9301 0 0 0 7 2l2-2c1-1 2 0 2 1l-1 3-1 2-2 2v3l-3-1zm1-2h-1 1zm1-4-1-1v1h1zm-12 5 1-1 1 1h-2zm18 0v-3h3l2-1v1l-1 2-4 1zm-119-1 1-1 1 1h-2zm25 0-1-2h2v2h-1zm-21 0v-1l4-2 3 1v1h-2l-4 1h-1zm-8-2h1v1l-1-1zm3 0c-1 0-1 0 0 0l1-1 1 1h-2zm14-1-1-2h1v1h2l1-1-2-1-2-1h-2l-1-1-1-1-1-2-2-1v-1l2-1 2 1v1l-1 1h5l4-1 2-1 1 2h-4v1l1 2 1 1h2l1 1-1 1-5 3-2-1zm3-5-1-1v1h1zm-3-1h-2l1 1 1-1zm-26 5 1-1v1h-1zm112-1-1-2v-1h2l1 1 1 2-1 1-2-1zm-140 0-1-1v-1l3 2h-2zm49 0c-1 0 0 0 0 0h1-1zm-12 0v-2l-2-1c-1 0-2 0-3-2h-1l-1 1-2 1 2 1 1 1v1l-3-2h-2l-2-1-1-2v-1h2v1l1 1 2-1h1V9h-2l-2 1h-4l-1 1h1l1 1-1 1h-4l-4-1h-6v-1l3-2 3-1v1l1 1 2 1 1 1 1-1 3-3 3-1h1l1-1 1-1V4l-2-1h-2V1l-1 1h-4l-3 2-3 1c-3 1-3 1-3-1V2l1-1 8-1 9 1 2 1v3l2-1 3-1 4-1 3 1c2 0 4 2 4 3l-2 1-1-1-2-2h-2v1l1 1 2 2-5-3h-2l-1 1-1 1h1l3 1 2 1 1 1 1 1h3l-3 2c-2 0-2 0-5-3l-2-1-2 1v1l2 3 2 1v-1h3l-1 1v1l1 1 1 1v2h-2zm4 0-1-2 3 1c1 1 0 1-2 1zm122-2 1-2h1l1 1-3 1zM98 17h-2l1-2h3l3-1h1l-3 3h-3zm22 0 1-1h2l-2 1h-1zm24-1-1-2h2l1 1v2l-2-1zm104-2 1-1h1v1h-2zm-85-3v1-1zm-9-3V7h1l-1 2V8zm-36-1 2-1 1-1V3l2 1 2 2-5 1h-2zM11 7l-1-3 7-1h4l-2 2c-1 1-1 2-2 1a4998 4998 0 0 0-6 1zm62 0V5l2-1-1 2-1 1zm26-1V1l2 1 2 1-2 1-1 1-1 2V6zm51 1-1-1-1-1V4h3l2 1v2h-3zM59 6l-1-2 2-2h2l-1 1v2l-1 2-1-1zm-3 0a147 147 0 0 0 0-3l1 1v1l-1 1z"/>
</svg>
