<?xml version="1.0" encoding="utf-8"?>
<svg xmlns="http://www.w3.org/2000/svg" viewBox="0 0 747 985">
	<title>Sketch of a winding path leading to a small building with a stone foundation and two slate roof elevations. A tree is next to the building on the top left.</title>
	<path d="m144 984-1-3c0-4-1-7-5-15l-5-13a70 70 0 0 1 10 18l2 7 2 5v1h-3zm17-17-2-4a104 104 0 0 0-7-12c0-2-11-15-16-21-4-3-7-10-5-10l3 4c1 3 5 7 8 10l6 6 3 6 4 6 2 3 6 12h-2zm-75-15-3-8a389 389 0 0 0-3-17l1 2a235 235 0 0 0 7 25l-2-2zm125 1-11-8-12-8c-4-2-5-4-4-5a49 49 0 0 1 14 9l3 1 3 2 5 4 5 4 1 2-4-1zm-41-6a258 258 0 0 0-17-17c1-2 2-1 17 13 7 7 8 9 6 9l-6-5zm51 3-21-20c0-2 2 0 9 7l16 12 2 2c0 2-2 1-6-1zm-27-1c-6-5-11-10-9-10l4 2a296 296 0 0 0 11 10l-6-2zm41-12a127 127 0 0 1-13-11c-3-3-4-4-2-5l5 3 18 15v4l-8-6zm-115-1-3-5a336 336 0 0 0-7-14c-3-7-4-11-2-11l2 3 7 16 6 12-3-1zm-82 0-1-5a146 146 0 0 1 0-39c1-3 2-5 3-4l-1 4a141 141 0 0 0 1 43l-1 2-1-1zm201-7c-2-1-1-3 1-3 1 0 3 1 2 3h-3zm27-2-6-5c-4-3-5-5-2-5l4 3 6 3c3 2 5 4 4 5-1 2-3 1-6-1zm-117-5c-6-7-15-27-12-27l3 6c2 6 7 16 12 21l2 3c0 2-2 1-5-3zm23-2-3-5v-3c1-2 1-2-3-6-3-4-5-4-4-1 0 4-2 3-5-2-2-2-4-8-3-9 0-1 2 0 3 3l2 3v-3l-2-3-1-3h-1c0 2-1 1-2-3-1-6-2-6-3-4v4l1 4c-2 0-3-4-3-10l-1-7c-2-3-3-12-2-16 0-9 4-21 6-21v3c-1 0-2 3-2 7-2 4-2 7-2 12l1 7c1-1 1 0 2 4l1 4c1 0 2 0 2 6l2 5 3 4 2 5 4 5 3 3 1 1 3 5c2 4 3 5 1 5v2l4 6c-1 1-2 0-4-2zm-7-7 1-1 1 1-1 1-1-1zm76-1c-3-1-4-2-3-3l10 3c1 2-3 2-7 0zm-148-4-1-2v-1c-1 2-2 1-3-1v-4l2 2c0 2 0 2 1 1 1-3 2-2 2 1v5l-1-1zm-18-1-1-16c0-15 1-19 2-18l1 17a263 263 0 0 1-2 17zm44-1v-3l2 4-2-1zm103-3c-3-2-4-4-3-4 1-1 6 2 7 3 2 2-1 3-4 1zm-39-2-6-4c-7-3-7-4-1-2 5 1 10 5 10 6 0 2-1 2-3 0zm-14-1-3-5-5-10c-2-4-3-5-2-6l6 9 3 5 4 6c2 2 2 3 0 3l-3-2zm42 2-3-3c-2-2-4-3-10-4-3-1-8-5-6-6h2l6 3c5 1 11 4 11 5h2l2-1c1 1 2 3 1 4l-2 1-3 1zm-105-7-1-13c1-3 2-1 2 3v11l-1-1zm36-6-1-3v-1l2 1 1 2c0 1-1 2-2 1zm36-1-4-2-3-4-3-3c-1 0-2-2-1-4s1-3-1-8l-3-9c-1-4-2-1-1 4l1 7 1 4c2 1 2 6 1 5-2 0-5-9-6-17l-2-10v-8l1 1 1 4v3l1-3 1-4 1 6v4l2-2c2-1 3-2 3-4l1-8 2-10c0-5 1-13 3-17l4-6c3-3 4-4 4-7s2-7 6-14l5-7 8-10 8-9a91 91 0 0 1 26-19l8-2c4-1 4-1 4 1l3-1c6-4 14-7 14-5l-7 4-11 6-3 1c-2 0-1-1 1-2l2-2-7 4h-1l-2 1-13 12 8-10c5-3 6-5 2-3a51 51 0 0 0-13 9c-3 1-6 4-6 5l-3 4c-5 4-7 7-9 10l-4 6-2 3c1 1-1 2-2 2l-7 8-3 10-3 5-4 8v3l-1 4-1 3c-1 1-2 2-2 8v12c-1 6-1 8-3 6v5c0 7 1 12 2 13l1 1 1 2 1 2h-3c0 4 2 9 6 11l2 3c0 2 0 2-1 0zm-11-31-1-2v5c1 3 1 3 1 1v-4zm-79 30 1-4-1-3c-2 0-2-1 0-2l2-2c0-4 1-6 2-5l1 1-1 7c-1 7-1 9-3 9l-1-1zm47-5v-7l2 4v6c-1 1-1-1-2-3zm-15-2-1-9-1-16c-2 0-1-1 0-4l2-5c0-5 2-8 6-11l4-4c0-2 2-2 2-1l-1 4-6 9-3 7v16l-1 16-1-2zm60-7-4-7-2-5v-6c1 0 2 0 2 2l5 14c2 4 2 5 1 5l-2-3zm40-3c-11-7-17-12-21-19-2-4-4-10-2-10l2 3c0 3 5 10 8 14l18 12c2 0 2 1 2 2l-7-2zm-128-6 1-3 4-7c3-7 6-11 8-11l-2 5-4 7c-6 10-6 11-7 9zm47-9c0-1 3-12 5-12l-1 5-1 4-1 3h-2zm-81-11 6-12 3-5c1-2 4-5 5-4l-3 5-6 11c-3 6-5 8-5 5zm139-6c-3-3-5-5-5-8 0-2 2-5 3-5v4c-1 1 0 2 1 5l4 4 1 2c0 1-2 1-4-2zm-50 1v-5c1-5 3-9 4-9 2 0 2 4 0 5l-2 5c0 4-1 5-2 4zm14-3 1-4c1-1 1 0 1 1l-1 3h-1zm69-5c-4-1-5-2-6-5-2-3-2-5-1-7 0-2 1-1 1 0 0 3 4 9 5 9l4 4-3-1zm-147-6c0-2 0-3 1-2v2h-1zm-1-4v-1c2-1-5-10-8-11l-10-1h-8l-2 3-3 5-2 4c-2 2-3 2-2-1 0-2 1-3 5-8 2-2 2-3-1-3l-5-2 2-1h3l4-1c2 0 3-1 5-3a815 815 0 0 1 31-31 205 205 0 0 1 17-11l-1 2h-2l-1 1-1 1-6 5-1 2c-3 1-13 10-21 18-13 14-15 15-14 16l7 1 8 2 6 7c0 2 1 3 2 3 3 0 3 1 2 2v1l-3 2-1-1zm1-43-2 1h1l1-1zm54 43v-2a290 290 0 0 0 14-19c2-5 16-19 18-19 3 0 3 2 0 3-2 1-9 8-9 10l-4 6-6 7a71 71 0 0 1-6 7l-2 2-2 3c-1 2-3 4-3 2zM7 817c-1-1 0-3 1-4l1-10c1-9 0-10-1-9l-1-1v-10a703 703 0 0 0 1-23l2-1-2-1c-2 0-2-2 0-2 1-1 1-1-1-2l-1-13 1-13 1-3-1-12a1101 1101 0 0 0 1-41v-50l1-9c0-6 1-6 2-7 2 0 1-1-1-1l-3-1a364 364 0 0 1 3-47l1-3-2-5v-3l-2-2-1-17a302 302 0 0 1 2-45v-12l-1-13-2-22 1-3 1 7 1 7 2-1v-11l2-1c2-3 2-3 1-5v-2c2-1 3 0 2 5l1 5 1 2 3 3c3 1 4 0 4-5l2-4 1-2c0-2-1-2-2-2l-2-1 1-2 2 1 2 1c3 0 2 12-1 24v5l1 4-1 3v4c-1 2-1 3 1 3l1-4c-1-3-1-3 1-3l1-6c-1-9 0-13 2-15l2-3v3c0 2 1 3 2 3s2 1 2 6l1 4v-24l1-2c0-3 1-4 2-3v4l1 4c2 3 3 4 2 13 0 4 1 5 3 9l2 5 1-3 1-4 1-1 1 2v3l2-5 2-4c2 0 2 2 1 4l-1 4-1 4c-1 1-3 10-2 14l2 3c2 2 1 4-1 4-1 0-2 1-1 3l1 4v8l-1 3v4c0 3 0 3 1 1 0-5 1-6 4-6 2 0 2 0 3-3l-2-3-1-3 1-3 1 2c1 1 1 1 2-1v-3l2-6 1 1 2 1v-7c-1-1-3 0-4 2l-1 3-2-2-1-4c-2-4-2-7 0-10l2-3c0-2 2-2 3-1 2 1 2 1 2-3l-1-4c-1 0-2-5-1-8s3-4 4-3v11l1 3c1 0 2 0 1 3v3l1-1 2-1-1 13v3c1 1 1 0 2-2l2-5c4-5 4-2 0 14-1 4-1 6 2 6l2 1v12c-1 1 0 3 1 3 2 1 2-1 2-8 0-6 1-7 2-8l1-1 1 6c0 6 0 8 2 7 1-1 1-3-1-3-2-1-1-3 2-10l4-5c2 0 2 0-1 11s-3 11-1 11 3 0 2 2l-1 4 1 4 3 1-1 1c-2 2-6 10-4 10l2-5 1-1c2 0 2 1 1 4l-1 4-1 1-1 2v2l1-2c2-2 2-1 1 2v6l5-2 1-2h-2c-2 0-3 0-2-1l2-2c3 0 3 0 4-4s2-5 2-1c0 3 1 4 2 2l3-1 4-1 3-1c2 0 2 0 3 2 1 3 3 4 5 3 1-1 5-2 6-1l9 9 7 6v-1l-1-1-1-1 1-1 9 5 3 2 10 5 1 3-5-2-4-2-7-2c-3-3-5-3-5 0l6 3 1 2c-1 1 0 1 1 1 8 0 13 1 13 2 0 2-2 2-5 1h-9l-7 1-4 1-8-1-8 1h5l5 1c0 2 0 2-4 2h-9c-1-1-4 0-5 2l-4 2-2 1-4 2c-2 0-3-2-1-4l1-3 4-2 2-1v-2l-2 1-1 1-3 1-3 1c-1 0-2 1-1 2 0 1-3 4-5 4v-2c1-1 1-2-1-2l-1 4c-1 4 0 4 1 4 2 0 3 1 2 2v2l2 1 4-1 2-1 9 1 6-1-5-4 1-2h8c10 1 11 1 10 4 0 2-1 3-5 4-3 2-4 2-7 2h-9l-6 1c-3 2-9 2-11 2-1-1-2-1-2 2l-2 3-1 3-5 33c-1 2 0 7 1 8l1 3-1 5 1 10c0 7 0 8 2 8l2 1h1v-3l-1-10-1-12v-5l2-17c0-8 0-10 3-9v6a266 266 0 0 0 1 24v7l-1 7 1 6v5h4c3 0 3 0 2 1l-1 13c1 1 0 5-1 13v18-4l1-5c2-1 2-2 1-4 0-3 2-8 4-8 1 0 2-2 2-7l1-5v-12c1 0 2 2 3 7l1 3v-11h1c1-1 1 0 2 4l1 6 1-5c1-7 2-9 3-9 2 0 2 1 1 3l-2 6v20c1 1 3-2 4-3v-2c2-1 2 1 1 5v5c1 2 3 8 2 9h-1c-2 0-2 1 0 3l1 1 1-2 1-5c0-2 1-5 2-4l1 6 1 4 1 2-1 1-1 2c0 4 3 8 5 8l4 2c0 2 2 2 4 1l3-1c6 0 9 4 4 4l-6 1-18 2c-1 1-1 2-6 1l-6 1-1 1c1 1-5 2-10 1-4 0-4 0-5 2l-2 1h-2l-10-1c-3 1-5 2-3 3l4 1 9 1c7 1 9 1 6 3l-5 1h-6v1l2 1c2 0 2 1 0 1h-8v-1c2-2 1-3-2-3a171 171 0 0 0-22 0h-4l9 1c8 1 10 1 10 3l-3 1c-4-1-6 1-6 3 0 1 0 2-2 2l-3 1-1 1h1c2 0 1 2-3 2l-3 1c-2 1 1 2 5 2 5 0 7 1 7 2h-4l-6-1-8 1c-3 2-1 4 3 3h6l5 1 2 1-6 2h-7l-6-2h-1l-2 2c-2 1-3 2-1 4v3c2 1 3 1 3-1l3-1h3l-1-1h-1l5-1 5 1-2 1-3 1-3 1c-3-1-4 0-2 1 1 1 0 2-3 2-3-1-4 0-2 1l1 1-7 1-7 1h4c5 0 7 1 5 2h-6l-4 1c0 2 1 2 4 2 6 0 5 1-1 1l-5 1 2 1c3 0 5 1 5 2h-6l-6 1v3l2 2 2 1-3 1-4-2-4-1-1 4c1 4 1 4-1 5-2 0-2 1 0 1l2 1-1 1-2 1v2c2 1 2 1 1 2h-6c-1 1-1 1 2 2 1 1 1 2-1 2h-4l-2 1v4l-6 1zm8-9c1-2 0-3-1-1v2l1-1zm1-4c1-1-1-3-2-2s0 3 1 3l1-1zm3-1v-1l-1 2c1 1 1 0 1-1zm-3-3-1-1-1 1h2zm3 0v-1l-1 1h1c1 0 0 0 0 0zm1-6-1-1-1 1h2zm0-4h-1v1l1-1zm-10-2v-2H9c-1 1 0 3 1 3v-1zm10-2-1 2h1v-2zm9 2v-2l-1-1-2 1v1l1 1h2zm-18-5c0-2-1-4-2-3l-1 4c1 1 2 0 3-1zm19 0c0-1-2-2-3-1v2c2 0 4 0 3-1zm-9 0h-1 1zm15-1h-3l2 1 1-1zm-7-3h-2l1 1 1-1zm7 0-2-2c-1 1-1 2 1 2h1zm-6-4-1-1-2 1 1 1 2-1zm6-2-1-2v4l1-2zm-25-1h-1l-1 1h1l1-1zm11-1-1-1v1c0 2 1 2 1 0zm24 0v-1l-1 1 1 1v-1zm5 0-1-1c-2 0-2 2 0 2l1-1zm-21-1h-2l1 1 1-1zm16-5-1 1h1v-1zm-7-3v2-2zm23-3-2-1c-2 0-2 0-1 1h3zm-29-2v-1l-1 1 1 1v-1zm21-1-2-1-1 1 2 1 1-1zm-39-5h-1c-1 0-1 0 0 0h1zm22-1c1-1 0-3-1-3s-2 2-1 3h2zm11 0-3-1v1h3zm9-1h-5v1l5-1zm5 1v-1c-1-1-3 0-3 1h3zm5-4 2-1h-5c-3 2 0 3 3 1zm-9-1h-3l2 1 1-1zm12-4-2-1-2 1 2 1 2-1zm-31-1v-1c-1-1-5 0-5 1h5zm21-5v-1c-2 0-3 1-3 3 0 3 1 4 2 1l1-3zm-48 0h-1v1l1-1zm76-6-4-3v3l2 1 2-1zm-19-5h-2l1 1 1-1zm48-1v-2l-1-1-3-1c-3 0-4 1-3 3s6 2 7 1zm4-2h-1l1 1v-1zm-104-1h-1c-1 0 0-1 0 0h1zm38-1-1-1v1h1zm44-2-1-1v2l1 1v-2zm-56-2v-1l-2 3c1 1 2 0 2-2zm86 2h-1c-1 0-1 0 0 0h1zm14 0c0-1-4-2-5-1l-1 1h6zm-54-5 2-3c1-1 1-1-1-3-1-1-2 0-2 2l-1 3c-1 2-1 3 1 3l1-2zm-6 0-1-3-2 1c-1 2 1 4 2 3l1-1zm38 1-1-1-1 1h2zm8-3c0-2 0-2-2-1-4 0-5 2-2 3 2 1 4 1 4-2zm8 1c-1-2-2-2-3-2l-1-1h-1c0 3 1 5 4 5 2 0 2 0 1-2zm-101-5-1-5v3c0 3 1 4 1 2zm66 0 1-6c0-9 0-13 2-13l1-5a283 283 0 0 1 0-23c-1 0-2 2-2 9a288 288 0 0 1-4 38c-1 1 1 2 2 0zm18-2 1-7c2-13 2-12 0-12-2-2-3-1-3 11l1 9c0 2 2 1 1-1zm9-4v-4l-1-3-2-1v10c1 5 2 5 2 2l1-4zm-83 4-1-1v2l1-1zm35 0v-2c-1 0-2 2-1 3l1-1zm10-2c0-3-1-4-1-1v3l1-2zm21-1v2-2zm20 1-1-3v2c0 3 1 3 1 1zm-112-3c-1-1-1-1-1 1h1v-1zm68 0-1 1h1v-1zm-47-3c0-4 0-4-1-3v6l1-3zm74 2v-1l-1 1 1 1v-1zm-24-4v-5c-1-3-1-3-2-2v7c1 2 2 2 2 0zm-21 0-1-1 1 3v-2zm46-5c0-4-1-6-2-5v10c2 1 2 0 2-5zm-35 0c0-2-1-1-1 1 0 1 0 2 1 1v-2zm-24-4-1-4-1 9c0 1 1 1 1-1l1-4zm49 5v-2c-1-1-1-1-1 1l1 1s1 0 0 0zm-73-3-1-1-1 3c1 1 2 0 2-2zm31 0-1 1 1 1v-2zm36-1-1-1v2l1-1zm-71-3c0-1 0-1 0 0v1-1zm53-2-1-1-1 1 1 1 1-1zm15-2v1c0 1 0 1 0 0v-1zm-35-2-1 2h1v-2zm27 1s0-4-2-7c0-2-1-2-1-1v8l1 1 2-1zm32-2-1-2c-1-1-1-1-1 2l1 2 1-2zm-23 0v1s0 1 0 0v-1zm3-1h-1v1c0 1 1 1 1-1zm-71-5c1-2 0-2-1-1v2l1-1zm28-13c0-5 0-7-1-6l-3 10 1 7 1 3 1-5 1-9zm28 10c0-2-2-3-2-1l2 2v-1zm-56-4c0-3 1-4 2-4l1-4-1-4v3l-2 2-1 2v3c-1 2 0 5 1 4v-2zm61-9-1-11c-2-3-2 16 0 21 1 3 1 0 1-10zm-43 7-1-4-1 4 1 3 1-3zm37 1c0-1 0-1 0 0v2-2zm-58-2-1-4-1 4c-1 3 0 3 1 3l1-3zm39 1-1-1-1 1 1 1 1-1zm5-5c-1-1-2 0-2 2 0 3 1 3 2 1v-3zm6-4-1-8a1289 1289 0 0 1-3-10l-1 6c0 5 1 7 3 6v5c1 0 1 0 0 0v3c0 3 1 1 2-2zm-54 2c0-1 0-3-1-2v3l1-1zm14-3v-4l-1 2v4l1-2zm8 2-1-4-2 1v2l3 1zm38-6c-1-1-2 3-2 4l1-1 1-3zm-36-5c0-3 0-4-2-4l-1 4c1 5 1 6 2 5l1-5zm-13-2-1-3-1 4c0 5 1 4 2-1zm21-2c-1-1-1 0-1 3 0 4 0 4 1 1v-4zm-30 0v-1l-1 2c1 1 1 1 1-1zm14-4-1 2h1v-2zm50 0 1-5v-4 1c0 2-1 4-2 3v-6c2-12 2-21 0-25 0-2-2-2-2 0v3c-2 12-2 15-1 23v8h2c2-1 2 0 1 1l1 2v-1zm-8-11-1-12v18l1 6v-12zm-46 9v-3c-1-1-2 2-2 4s1 1 2-1zm-8-1-1-2-1 2c1 2 1 3 2 2v-2zm-15 1v-1l-1 1h1zm27-2 1-3 1-1c2-2 1-3-2-3l-1 2v3c-2 3 0 4 1 2zm12-1v-2 4-2zm-38-6c0-6 0-8-2-4v10c1 1 1-1 2-6zm63 5v-1l-1 1h1zm-24-7c-1 0-2 3-1 4l1-1v-3zm21-1v-6c-2-1-2-1-1-2l1-4-4 7c-1 6-1 7 2 8l2-3zm-15-2 1-4c0-2-1-3-2-3-2-1-2 0-1 3l1 4h1zm-9-4c-1-1-2 0-2 1h2v-1zm18 0 1-3 1-2c-3-2-6-3-4-1l1 2v3c0 3 1 3 1 1zm28-2a305 305 0 0 0 2-28h-1l-3 16a213 213 0 0 1 0 13l2-1zm-18-5h-1v3h1v-3zm-40 2v-3l-1-1v5l1-1zm12-4c0-4-1-5-2-2l1 6 1-4zm8 2c0-2 1-6 3-8l1-15 1-7-2 2-2 4v7c1 5 0 8-2 9-1 1-2 1-1 4v5c1 2 2 1 2-1zm12-1c1-1 2-5 1-6l-3-1c-3 1-4 3-2 4l2 2 1 2 1-1zm10-7c-2-2-3 1-2 5v2l1-3 1-4zm-9-2 1-12-1-4-1 1h-3v3c0 2 0 2 0 0l1-1v5l1 2v1h-1l-1 4c0 2 0 2 2 2l2-1zm22-5-1-3-1 5 1 3 1-5zm-49-2v-8 1a233 233 0 0 1 0 7zm-22 4h-1l1 1v-1zm66-2v-1h-1l1 1c1 0 0 0 0 0zm-41-2h-2l1 1 1-1zm33-6c2-5 2-9 1-9l-2 4-1 3-1 5c1 4 1 4 3-3zm13 3v-3l1-5-2-1h-2v4c0 5 1 7 3 5zm-60-1-1-1-1 1 1 1 1-1zm-10-5-1-4 1 9v-5zm10 3c1-1 0-4-1-4s-2 2-1 3l2 1zm52-3c0-3-1-3-2 0s-1 3 1 3l1-3zm-70 0c1-6 0-8-2-7v4c1 3 2 5 2 3zm92-1h-3c-2 1-2 1 1 1l2-1zm-72-2v-2l-2 2h2zm102-3c4-1 4-1 3-2-2-1-12-2-13-1l2 2c5 2 4 2 8 1zm-42-1c3-2 3-2 1-4v-5c0-4 0-6-2-6l-3 9v5c2 2 2 2 4 1zm-11-1 2-6c0-2 0-2-2-2-2-1-3 0-2 1l2 3-3 2-3 2h6zm-19-6c-1-1-2 1-2 3 0 1 1 1 1-1l1-2zm-51 2v-4l-1 3c0 2 1 3 1 1zm68-1h-2c-3 0-2 1 1 1l1-1zm-32-5-1 1-2 2v2l2-2 1-3zm68 2-1 1h2l-1-1zm-52 0v-2l-2 2h2zm34-4v-2l-1 2c0 3 1 3 1 0zm-37 0v-1l-1 1 1 1v-1zm42 0c2-2 2-2 0-2s-3 1-2 2c0 2 0 2 2 0zm-83-1v-1l-2 1h2zm27-2h-1v1l1-1zm41-2c-1-3-2-4-2-2l2 5v-3zm35 2v-2l-8 1c-1 0-2 0-3-2h-2c-1 1 0 2 3 3h10zm15 0-1-1-2 1h3zm-75-1-1-1v1h1zm-40-1v-1l-1 1 1 1v-1zm69-1c1 0 1 0 0 0h-1l1 1v-1zm5-1-1 1h1v-1zm6-2-1-2v5l1-3zm-45 1c0-2-1-2-1-1v3l1-2zm-25-4v-1l-1 3c0 2 0 2 1 1v-3zm104 3c1-1-1-2-3-1v1h3zm-26-8c0-7 0-7-1-6-2 2-3 7-2 9v3c0 1 1 2 2 1l1-7zm20 7-2-1c-4-1-4-3-2-4v-4l-3-4-1-2-2 1c-2 2-3 2-5 1l-2 1 2 2 3 3c2 3 5 6 8 7h4zm18 0-1-1v-1c1-1-3-3-6-4-4 0-4 0-4 3l5 2c6 2 5 2 6 1zm-53-3c0-2-1-2-1 0l1 1v-1zm20 0-1-2h-1l2 3v-1zm20-2 3-2 3-1-2-2-3-2-5-1-4-1c-1 1-1 3 1 4l1 3c1 2 2 3 2 1s4-5 4-4v1c-2 1-2 3-1 6 0 2 1 1 1-2zm-50 1v-1l-1 1 1 1v-1zm15-1c2-4 2-5 0-5l-3 1-2 1 2 2 1 2c0 2 1 1 2-1zm-91-4c1-1-1-2-1 0-1 1 0 3 1 2v-2zm106 2v-1c-1-1-3-1-3 1h3zm-22-3-1 1h1v-1zm-58 0v-3l-1-1v5l1-1zm48-4v-2c-1-1-2 2-2 4s0 2 1 1l1-3zm10 2v-3l-1 2 1 1zm43-2c1 0 1-1-1-2l-4-2 1 3c1 1 3 2 4 1zm-16-2h10l-3-1-6-2c0-2-3-3-4-3v3l-3 1-2 2 5 1 3-1zm-11-2c0-2-1-2-2 0l1 2 1-2zm-100 1h-1v1l1-1zm44-3c0-1 0 0 0 0v1-1zm11 1v-1l-1 1c0 1 0 0 0 0h1zm-29-4-2 1h1l1-1zm-23-2v-2l-1 1-2 2v1l3-2zm72-6 1-5v-4l-3 7-1 4c0 2 0 4 1 3l2-5zm-77 3v-1l-1 1 1 1v-1zm26-5 2-15-1 2a5274 5274 0 0 1-1 13zm15-3c1-4 0-5-1-4v9c0 2 1 1 1-5zm-28-2-2-1v1l1 1 1 3h1l-1-4zm19 0c1-6 1-8-1-4s-2 9-1 9l2-5zm13 1v2-2zm36 1h-1l1 1v-1zm-73-3-1-2-1 4c1 2 2 0 2-2zm10-1-2-1v1h2zm40-1v2-2zm-57-1c0-2-1-4-2-2-1 1 0 4 1 4l1-2zm37 1v-1l-1 1 1 1v-1zm33-2c0-1 0-1 0 0v2-2zm-29-6 2-8c1-2 0-5-1-3s-2 0-1-5l-1-5c-2 0-3 11-1 15v4l1 9 1-7zm-35 2v-1l-1 3 1-2zm-2 0v-2l1-3 1-2-1-4v-6l1-4c1-1 1-1-1-1-2-1-2-1-2 3-1 5-2 17-1 18v1c0 2 1 2 2 0zm29 0h-1v1l1-1zm-14-5v-4l-1-2v-2l-1 6 1 5 1-3zm8 0h-1l2 1-1-1zm36-1-1-5-1 2c0 4 1 6 2 3zm7-3-2-3-2-1v7l2-1 2-2zm-41-4c-1-2-2 0-2 3v3l1-2 1-4zm3-1-1-3 1-4 1-1h-1c-2 0-2 0-3 2v4l2 4v1l1-3zm-8-3v-9c2-1 3-4 2-6l-1-2-2 2c-3 1-4 2-3 3s0 5-1 7c-1 3 1 9 3 9l2-4zm38-1v-3l-2 7c1 2 2 0 2-4zm-59-11 1-3c1-1 2-2 1-3l-1-6-1-6h-2l-1 4 1 13v6l2-5zm13 7v-1h-2c-2 2 0 3 2 1zm12-1-1-1h-1v2l2-1zm13-4v-1l-1 1 1 1v-1zm-4-5v-7l-3-2c-2 0-3 6-1 8l1 3 2 4 1-6zm-6 4s0-1 0 0l-1 1h1v-1zm-22-3-1-1v3l1-2zm16-5c0-2-1-3-2-2l1 4 1-2zm2-8-1-11v13c0 5 1 3 1-2zm-14-2-1-7-1-4c0-3-1-1-1 2v4c2 1 2 2 0 3l-1 1 1 1 2 2 1 3v-5zm-10-4c1-2 1-4-1-4l-2 5c1 2 1 2 3-1zm2-12-1-2v1l1 4v-3zm99 374c0-2 7-11 18-20l9-8c2 0 2 2 0 4a141 141 0 0 0-24 22l-3 2zm109-5c0-2 4-9 6-9 1 0 3-4 2-5-1-2 0-3 4-3s5 1 2 2l-3 4c-1 2-2 4-5 6l-4 4c-1 3-2 3-2 1zm-136 1-1-4v-4l1 2 2 1 1-2 3-1v-2l2-1 2-3c0-4 3-5 2-1l-2 4c-2 3-1 3 2 1l4-2 1-2c3-7 4-7 5-7l4-4h-1c-2 1-2 0 0-3 1-1 2-3 6-4a6820 6820 0 0 1 6-2l-2 2h2c2 0 2 1-1 2l-4 1-1 1h1c3 0 2 1-2 4-6 4-9 7-10 10l-4 4-4 2-5 4c-4 4-6 5-7 4zm6-6 1-2-4 4 3-2zm168 2-1-4 1-4 2 4v5c-1 1-2 1-2-1zm-59-1c-1-1 0-1 2-6 2-2 4-3 4-1l-2 3-2 3c0 2-2 3-2 1zm-117-6 1-1v2l-1-1zm-56-2c-1-1 0-2 1-2v1c0 1 0 2-1 1zm63-2v-5l1-3v5l-1 5v-2zm-17 0c0-1 4-7 7-9a412 412 0 0 0 27-26c3-1 3 1 0 2a88 88 0 0 0-19 21h-3l-1 2v1l-2 2-2 1-4 3c-2 4-3 5-3 3zm24-6v-2c1-1 1 1 1 2h-1zm-10-2v-1 1c0 1 0 0 0 0zm173-2c-1-1 1-6 2-7v-3c0-2 1-3 9-8l10-5c2 1 1 2-2 4l-4 3-3 2c-3 2-6 5-8 10s-4 7-4 4zm-24-2c-1-1 1-4 3-4l1 1c0 2-3 5-4 3zm-64-3c0-2 4-8 6-10l9-8 12-9c7-6 16-10 16-8l-2 2c-6 2-12 7-23 17l-14 14c-3 3-4 4-4 2zm65-6a1312 1312 0 0 0 27-25c1 1 1 1-2 3l-11 9c-7 7-8 8-7 9 1 2 0 2-1 1s-1-1-3 2c-1 3-3 3-3 1zm-101-5c-1-1-1-1 3-5l10-8 3-2 1-3c-1-3 0-5 4-6l12-2c2 1 0 2-4 2l-6 1-4 3v2c1 1-1 5-2 5l-1 1-3 2-8 6-5 4zm7-2c-1-1 6-5 9-5l-1 2-5 2-3 1zm-27-12 7-6 9-4c4-1 3 1-1 3-4 1-7 3-7 4 1 1 0 2-1 1s-2 0-4 1l-3 1zm56 0 4-9c4-4 14-9 35-17l9-3c5-3 6-3 6-2s-6 4-22 10c-15 6-21 9-23 11a56 56 0 0 0-7 10h-2zM74 747l1-1v1h-1zm69-2-2-1h-2l2-1c3-1 13-5 19-9 7-3 10-3 7-1-2 1-2 2-1 2l10-5 6-4v1c-1 3-15 11-20 12l-8 3c-7 3-10 4-11 3zm6-3c1 0 1 0 0 0h-2v1l2-1zm-65 2 1-1c1-1 7 0 7 1h-8zm32 0c0-2 2-4 4-5l3-1 12-5 4-2 3-2 11-4 2-1 5-1 6-3 4-1 13-5c2 0-1 2-6 4a117 117 0 0 0-24 10l-8 3-12 5-14 8h-3zm-27-3c-1-1 1-2 2-1l-1 2-1-1zm140-1 8-5c8-4 12-5 11-4 0 1-1 2-3 2l-6 3-10 5v-1zm-128-10c-1-1-1-1 1-1s2 1 0 1h-1zm11-1c-1-1 0-1 1-1h2c0 1-2 2-3 1zm74-5 1-1 4-3 2-1v2h3l7-3 7-2h5l-6 3-6 2-7 1-6 2h-4zm25 0 4-2c2 0 2 1-1 2h-3zm80-6-1-1 8-3c1 0 2 2 0 3l-7 1zm-124-1 3-2c2 1 1 2-1 2h-2zm58-2 8-2c3 0 3 1 0 2h-8zm137-2 1-3 6-4c4-3 6-4 6-2l-7 6v1l-6 3v-1zm47-1c0-1 4-7 9-11 2-2 5-2 5 0l-1 1-6 5c-5 6-7 7-7 5zm-212 0 8-3 11-3 8-2c1 1 0 2-4 3l-9 3-7 1h-3l-4 1zm-1-2c-2-1-1-2 0-2l2 1c0 1 0 2-2 1zm47-1c-1-2 6-4 12-4 4 0 5 1 5 2l-3 1-10 1h-4zm-42-5 3-4c3-3 5-4 5-3l-3 4c-4 4-4 4-5 3zm99-3 4-1c4-1 5 0 1 1-3 2-5 2-5 0zm-29-4 7-1h6c0 1-12 3-13 1zm52-4c-1-2-1-2 13-4a2313 2313 0 0 0 18-5l13-4c2-1 3 0 2 1l-9 4c-4 0-6 1-5 2 0 2-1 2-6 2a170 170 0 0 0-18 3l-7 1h-1zm-96-4v-1l18-3c1 0 2 0 1 1l2 1a169 169 0 0 1 21-1 416 416 0 0 0-42 3zm48-4 4-1a453 453 0 0 0-4 1zm19-4 3-3c2-3 3-3 2-4-1-2-1-4 1-4 2-1 4 1 3 3-1 1-1 1 1 1 2-1 2 1 0 2l-2 3c-1 2-2 2-4 2l-2 1c-1 1-2 1-2-1zm-127-8a453 453 0 0 0 15-8c4-2 16-4 17-3s0 2-5 3l-21 7c-6 2-5 2-6 1zm61-1 14-3a351 351 0 0 0 23-4l-6 3a315 315 0 0 1-31 4zm134 0c-1-2 10-8 12-8 3 1 2 2-1 3l-6 3c-4 3-4 3-5 2zm77-1 2-3c2-2 3-8 5-16l2-5c2 0 1 2 0 10l-4 11c-2 4-5 6-5 3zm-309-2 2-1c1 1 0 2-1 2l-1-1zm284-1 6-6 4-5c1-3 3-4 4-4s1 1-1 4a184 184 0 0 0-5 7l-2 3c-2 2-5 3-6 1zm-132-8c-1-1 4-6 5-6 2 0 2 0-1 3-2 3-4 4-4 3zm107-3c-1-1 0-3 2-5l4-5 6-7 6-7c2-4 3-11 2-15-2-5-1-7 2-2l1 7-2 7c-1 3-4 9-7 12l-8 10-6 5zm-264-5v-2l1-5c0-5 1-6 2-5l1 3c-1 6 0 5 9-2l4-2c3 0 3 1 0 3l-4 2-6 4-4 3-3 1zm357-9c-1-1 0-2 1-3l1-3c0-3 1-4 2-2v7l-4 1zm-153-4c-1-1 1-6 3-9l1-6 1-6c1-2 2 0 1 2v4c1 3-1 9-3 12l-3 3zm98-1v-4l1-3 1 3c0 4-1 6-2 4zm-144-6c0-2 6-12 8-12 1 0 1 1-1 4l-3 5c-2 4-3 5-4 3zm194-1-1-4-3-7-2-5a2733 2733 0 0 0 9 11l1-2v5l-1 2c0 2-2 2-3 0zm9 1v-4c1-1 1 1 1 3s0 2-1 1zm-41-2c-2-4-3-11-2-10l2 2 2 5v5l-2-2zm-83 0v-3c0-7-5-20-10-23-2-1-2-3-1-3s4 2 6 5c5 5 7 8 6 11l1 6c1 5 0 8-1 8l-1-1zm-201-20c-1-2 1-2 6-2a582 582 0 0 0-6 2zm16-7c-3-1 0-2 7-2h8v1l-15 1zm282-11-3-3c-3-2-3-3-2-3l6 6h-1zm-78-11-7-2-4-2h6c6 2 10 3 11 5 1 1 0 1-1 1l-5-2zm55-1-7-3-8-4-1-1-6-1-7-3 3-1 7 3c6 1 10 3 14 5l6 3 5 2h-6zm38-1c-3-2-4-4-2-3l7 3c0 2-2 1-5 0zm-136-24c-2-1-2-8-1-9s2 1 3 4l1 5c0 2-1 2-3 0zM7 552c-1-1-1-3 1-3v4l-1-1zm170 0v-1c2 0 2 1 1 2l-1-1zm-11-5v-3l3 4c0 1-1 1-3-1zm7-8-2-2c-3 0-5-2-3-3l5 1c6 2 7 4 3 5-1 1-2 0-3-1zm-69-20-1-3v-2h2c3 1 4 2 3 3 0 2-2 2-4 2zm24-1v-2l2 1c0 2-1 2-2 1zm1-5c-1-2 0-2 1-2l2 2h-3zm-26-4-1-3 2-1 2-1h-1l-2-2c1-1 5-1 7 1 1 1 1 3-1 5l-1 2-5-1zm110-5 1-1 1 1h-2zm-5-4c-4-2-6-4-6-6s1-2 3 0l5 4c4 2 5 4 3 4l-5-2zm80-2c-3-1-6-3-4-3l8 4c0 1-1 1-4-1zm11 0v-1h4c0 1-3 2-4 1zm-7-3-5-3c-4-2-4-3-3-4s4 0 6 2l3 2 1 2c0 1-1 2-2 1zm-15-7 1-1 1 1h-2zm-194-3 1-2 1-6 1-5c1 0 2 4 1 7l-1 4c-1 2-2 3-3 2zm229-2-3-2 2-1a466 466 0 0 0 7 3h-6zm-43-5-5-4c-2-2-3-4-2-5l3 3 3 2 5 6c0 2-2 1-4-2zm-158-4v-1l2 1h-2zm330 0c-5-1-6-2-6-3l8 1 5 2h-7zm13-3c-2-1-1-1 1-1l1 1h-2zm-129-3-1-1h4a1824 1824 0 0 0-3 1zm136 0c0-2 4-2 5-1s0 2-3 2c-2 0-3 0-2-1zm-11-1-1-1 4 1h-3zm-37-1-2-1 4-1c4 0 7 1 6 2h-8zm-20 0-5-1-6-1c-7-1-8-1-8-3l-3-3c-5 0-6-2 0-2l7 1c3 2 4 2 8 2h5c0 1 1 2 5 2l4 1v1h-1l4 1c3 0 6 1 5 2h-15zm35-1 2-1 1 1-1 1-2-1zm-181-2-3-3h3l5 2c4 0 5 1 3 1h-8zm-119-1c-1-3 0-8 2-15 1-5 2-6 3-5l-1 6-2 10v5l-2-1zm235-2-2-1-4-2-3-2a2379 2379 0 0 0 13 5h-4zm86-1-2-1v-2h6l2 3h-6zm26-1 1-3 2-4-2-3c-1-3-3-3-4 0s-2 3-2 0-1-2-2 3c0 6-3 6-3 0 0-3-1-8-3-9v3a3179 3179 0 0 1-2 7c0 2 0 2-1 1l-1-4c2-14 6-18 7-8l2 6 1-5c0-3 1-4 2-2l1 1c1 0 2-5 1-7l-5-2h-5c0-2 7-3 9-2 4 1 4 2 4 5l1 3v4l1 5c2 0 3-1 3-8l1-6 1 13c0 3 0 4 2 4l1 2c0 2-2 4-3 2l-5 4c-1 2-2 2-2 0zm-1-15-1 2 1-1v-1zm-170 14a299 299 0 0 0-6-7c1-2 2-2 3 0l2 2 2 3 2 2 1 1c0 1-2 1-4-1zm30-2-3-2-4-3-5-4c-3-2-4-4-3-4h1l9 5v-5c1-1 2 1 2 3l2 4 1 3 4 2 1 2c1 2-3 1-5-1zm87 0-6-1h-5l5-2c5 0 10 0 10 2s-2 2-4 1zm16 0-1-5c0-3 0-4-3-6l-2-2-1 2c0 3-1 4-2 3v-2l-1-4-2-4v-1l-1 2c0 3-2 5-2 2-1-2-4-1-4 2l1 1c1 0 2 0 2 2 0 4 0 5-3 3s-3-8 0-11l1-2 1-3c1-2 1-2 1 2v3h1l1-4c1-1 2-3 1-4-1-4 0-6 1-6s2 3 2 8v4l1 2v-2l2-4 1-4 1-4 1-8 1-7c1-2 2-1 1 2 0 3 1 3 3 0 2-4 3-4 3-1l-1 3-4 3-2 5v5h1c2-1 2 0 1 4l-1 7 2 3c2 0 2-1 2-5l2-5c1-2 2-1 1 3v4l1 3 1 5c1 2 0 5-1 5l-1-2c0-3-2-3-3-1v3c2 1 2 1 1 2l-1 2c0 2-1 3-2 2zm-5-20-1-1v3c1 1 1 0 1-2zm2-7s0-1 0 0l-1 1h1v-1zm-263 25c0-2 1-4 2-3l-2 4v-1zm275-2 2-3v3c0 4-2 4-2 0zm45 1 1-1 1 1-1 1-1-1zm-125-2-4-1-8-1-8-2-3-1 4-1 17 3 7 1c5 0 7 1 7 2h-12zm34-3c-1-3 0-7 1-8h1v3c1 6 1 7-1 7l-1-2zm51 1v-5l-2-4-2-4-3-9-2-1h-3v-7c0-1 1-1 1 2 1 3 1 3 3 2 3-2 6 1 5 6 0 5 1 7 3 6v-4c0-3 1-5 2-4l1 12 1 1 1-5c0-10 1-12 2-12v4a13324 13324 0 0 1-2 22h-5zm-45-1c1-3 0-7-2-10l-2-3-1-10v-8c1-1 2 0 2 1 0 2 1 3 2 2v-4c-1-5 0-10 2-8v8l-2 8c-1 4-2 6 0 5l1 4c0 4 1 4 2-1l2-4v-4c0-3 1-5 2-4l1 4v4l1 10v9h-3l-3 1c-1 2-3 2-2 0zm6-10-1-5v-1 3l-2 4c-1 1-1 4 1 4h2v-5zm12 10c-1-2 0-4 1-2v3l-1-1zm64 1 2-3v3h-2zm-94-4-1-3-2-1c0-1-1-2-2-1-1 0-2-1-2-4l-1-3v2l-1 3-1-1-1-2v3c0 4-1 5-2 4l-4-1c-2 0-2 0-3-2 0-2-1-3-2-3s-2 1 0 4c0 2 0 4-1 2-2-1-2-6-1-11l1-6 1-3 2-4c1-2 1-2-1-3v-4l1 1 2-1 2-1 2-1c1-1 2 0 1 2v6l1 5c2 0 2-1 2-6l-1-6-1-2c1-2-3-2-4-1h-3v-3l1-2-6 2v3c0 4-1 4-2 2l-2-3-1 3c0 3-2 2-2 0l1-3 1-1c0-1-2-2-3-1-2 1-2 1-2 4v9l-3-3c-1-3-2-3-2 0l-1 2c-2 0-2-3-1-4 2-1 2-5 0-7l-1 2v3c-1 0-2-1-2-3s0-2-2-2l-2-1-2-1c-1 0-1 4 1 18 0 6 1 7 2 7v2l-1 4-2 1c-1 3-2 2-3-1s-2-4-4-2l-1 3c0 2 0 3-1 2l-1-4-1-3-1-2-1-1-1 1v8l-1-2-1-1c0 2-1 1-2-1l-1-2-1 2h-2c-3 0-2 2 1 4s4 3 2 3l-6-3-5-3-2-2-2-2h-6c-1-1-1-2 2-3l3-2v-3l-1-3c0-2 0-2-2-1h-8l-1-1c1-1-1-2-4-3l-4-3 3-1 3-2c1-2 2-2 2 0h3c2-1 3 0 3 2v2l2-1c2-2 2-3 0-6-1-2-2-2-4-2l-4 1h-1l-4 1-2 2-1-1-1-3c0-2-2-2-2-1-1 2-1 2-2 0 0-2-1-3-1 0l-1 3h-2c0-2-1-2-2-2l-4-1h-10l-8 1h-5l1-2v-2l-3-3c-1-1 0-2 1-4 1-3 4-6 6-5l3-2 5-3 3-1c2-2-10-4-14-3h-4l-2-1c-2 0-2-1-2-4 0-4-1-6-2-6s-3 2-2 3 0 2-2 2l-4 2-1 2h4c4 0 5 0 2 1-4 1-5 1-7-1l-10-1-11-1-2 1-1 1-1-1-2-1-8 2-2-1h-18l1 2c2 1 0 2-2 1h-8c-1 0-1 0 0 0l2 1h-22l13-1c2 0 2 0 2-2l-1-4-2-1c-3 4-4 5-7 3h-3l1 1c1 1 2 2 0 2l-6-1h-21c-4 0-5 1-5 2 1 1 0 1-1 1l-3-1h-1l1 1 2 1h23l-3 1-4 1a83 83 0 0 0 29 0h8c1 1 1 1-1 2l4 1c7 0 7 0 9-2 1-2 2-2 3-2l3-1 5-2c3 0 3 0 4 2l3 2v2h-3l5 1 9-1-4-1c-5 0-5 0-1-2l3-1h4l5 1c3 0 4 1 3 2h-4c-4 0-6 1-3 2 2 1-1 1-8 1-6 0-7 1-5 1 1 1 3 2 7 2h7l3-3 7-4 2-2h3l-2 3-9 5 2 1 19-5c6-2 7-2 7 0l-5 2c-5 1-5 2 0 2 6 0 6 1 1 2-4 0-8 2-8 3l-8 4-12 7-7 3 12-8 3-3-18 9-2 1c-2-1-1-2 3-4l4-2-7 2c-3 3-5 3-5 1l1-1 2-1h-1l-3 1c1 1-1 2-4 1-4 0-9 1-13 5l-4 2-3 2c-2 2-3 2-4 1-1 0-1-1 1-2 2-2 2-3 0-3l-3-4v-1l-1 1c0 2-1 2-1 0-1-2-3-3-11-3-7 0-9 0-8-2h9l8-1c0-2-5-2-8-1h-5c-3-2-2-3 4-4 2 0 3 0 2-1 0-1 8-3 11-2h9c7-2 9-3 8-4s-22 0-27 2c-7 2-12 3-13 2s-1-1 2-2 3-3 1-2l-5 2c-4 2-4 2-7 1l-4-1c1 1 1 1-3 3l-7 1-1 1-6 2-5 1h-2c2-1 1-2-1-2H94l-11 1 7-4 6-2 6-3 6 1 4 1 2 1 5 1c5 0 10-2 11-3 0-2 0-2-4-1h-4l4-2c7-2 7-2 1-2-9 1-14 0-15-2l-1-3v-1h-2c0 1-2 1-2-1l-1-1-5 2-2 1-1 2c0 1-1 2-2 0-1-1 0-3 1-4l1-1c-2-1-5 0-7 2l-3 1-3 1c-2 1-3 1-3-1l3-2 2-1 1-2 1-2c-1-2-3-2-9-2-6 1-7 0-4-1l1-1c-1-1-3-1-8 1l-5 2-4 2-2 1-1-2-2-2c-2-1-4 1-4 3l-1 2-6-4-3-1c-1 1-1 2 1 3l2 2v2c-2 0-2 1 0 1l7 2c1 1 0 3-1 3l-2-1c0-2-4-3-6-2l-2 3-3 2c-2-1-2-2 0-3s2-2 2-3l1-2v-3l-2-1-1-1v2l-1 3c-2 1-2 2-1 3s1 1-1 2l-1 1-1 2-2-2v-2c2 0 2-3 1-5l-4 2-2 2c-2 2-2 2-3 1h-5c-3 1-5-2-1-3h5l3-1c2 0 5-2 5-4l-2 1-6 2-7-1h-2l-3 1-2 1 2 2 1 1c0 3 3 5 6 4h4c1-1 2 0 2 2l-2 1c-1 0-2 0-1 1l1 2 2 1 2 1 1 1v2c1 2 1 1 2-2 0-2 0-3-2-3l-2-1 2-1c2 1 2 0 0-2v-4c1-2 2-1 2 1l1 4 1 4 1 4c1 1 0 2-1 2l-3 1-1 2v2l-2 1-3-1h-2c-2-1-2-1-1-2h3c1 1 2 0 3-3 0-3 0-5-1-4l-3-1-2-4c-1-2-2-3-4-1l1 2c1 2 1 8-1 8l-2 1 2 1c2 0 3 1 1 2l-2 1c-2 1-2 1-3-1v-5l1-1 2-2-1-1c-2-1-2-1-1-2v-2l-1-3c-1-4-1-6-2-5l-1 1c-2 0-2-2-1-4v-5l-1-34-1-19v-12l-1-16c-2-7-2-20-2-26l1-15 2-14-1-4c-1-2 0-10 1-14 2-3 2-4 1-6a299 299 0 0 1-1-49l-1-13-1-14 1-8 2-9c0-4 1-6 3-6l2 6c1 5 2 6 3 2 1-3 0-6-3-8l-1-2 2-4c3-5 4-6 5-5 1 0 5-4 5-6-1-1-3-1-4 1l-1 2v-5c0-7 1-8 3-9l1-2v-1l-2 1-1-5 2-8v-3l-2 1-2 1-1-4v-2c-1 0-4-4-3-5l3-4c2-2 2-3 1-3l-3 3H9a393 393 0 0 0-3-10l-1-5v-8c-1-2-1-3 2-2l3 1c2-1 2-2 0-3l-3-1-3-1 1-2c1 0 1-2-1-7V6c3-2 8-3 9-2h2l1-4c2-1 3 1 3 3v8l1 5 1-2 1-5V6l1-3c0-2 2-3 3-2 2 2 2 4-1 8l-1 3 4-4c1-2 2-2 4 0v4c0 3 0 5 2 6l1 3c1 3 2 4 3 3l-1-3 1-4c1-1 1-1-1-3l-2-2v-1h2c1 1 2 0 2-2l2-4 1 4c-1 5-1 8 1 9 1 1 1 1 1-1l1-4c0-2 0-2 2-2s2 0 3-2c1-3 2-3 3-2s0 4-2 6c-1 1-2 2-1 4l2 6c2 0 3 2 1 2h-4l-3-1-4-3-3-2c-1 1 0 4 1 5l1 2 2 2c1 1 1 1 2-2 0-2 2-1 3 1 0 2-2 3-3 2l-1 2c0 3 2 3 4 1l4-1 2-2c0-2 3-2 5-1h2v-2l-1-1h-2l-2-2c-2 0-3-4-3-8l1-3 3 9v1l1-3c0-3 1-4 2-3s2 1 2-2c1-3 1-4 3-4v11c-1 4-1 5 1 4 1-1 1-1 1 1s0 3-3 3c-2 0-3 0-2 2l3 1c2 0 3 1 3 4 0 4 1 4 3 1 2-2 2-3 0-3l-1-5 1-4 2-4 1-4 2-4c0-3 1-3 2-3l2 1c1 0 2 2 1 3l-2 1c-1 0-2 1-2 4l-1 2v2l2 3v3c2 0 2-3 2-6l1-3c1-2 2-1 2 4 0 3 0 4-2 6-2 3-2 3-1 4 2 2 3 1 3-2 0-2 1-4 4-7s6-3 6 0l-1 2v-1l-1-1c-2 1-2 1-1 2l-1 2-2 3-3 3-2 3c-2 2-3 3-3 1l-1-3c-1-3-1-3-1-1s-5 8-7 8h-1l4 1h3l2 3h2l3 2c1 1 2 2 2 0l1-2-3-5c1-1 2-1 3 1 2 3 2 2 3-1l-1-2-1-2h2c1 1 2-2 1-4s0-5 2-5 3-1 3-5c0-3 1-3 3-1 1 1-1 6-4 9l-1 5 1 4 1 2-2 1v4c2 1 3 0 3-3 1-2 1-3 3-3 1 0 2 0 3-2l2-3v-3l2-4 3-1c1 1 0 8-3 10-2 3-2 3 0 4s3 3 2 4h-6c-2 1-3 1-3 3 0 1 1 2 2 1l1-1h4c2 0 3 1 1 2s-2 2-1 3v2c-2 2-1 4 0 4 2 0 4-5 4-8l2-3 2-4c0-4 1-5 3-5s2 1 1 3c-2 1-2 4-1 4l3-1c2-3 6-4 6-2l-2 2c-3 1-6 4-6 6l-2 3-3 5 5-2c1-1 4-1 4 1l-1 2-2 2v6l1 2-2-1-1-1c-2 0-2-1-1-3s0-2-3-1l-6 1-8 2 5 3 3 2 4 2c3 1 3 3 2 4l-2-1-7-3-1 3-3 5c-2 1-4 5-4 7h1l4-2c3-3 6-5 9-5s6-2 6-5c0-2 2-4 6-5 3 0 4-1 4-4l1-2c1 0 2 0 2 2s0 3 1 2h3l3-1c2-1 2 0 1 1-1 2 0 2 2 1 2 0 6-4 5-5l-1 1-2 1v-2c2-2 4-2 5-1 1 3-1 5-6 10l-2 1 2-1c2 0 2 1 0 4s-2 3 0 4v2c1 1 2 0 3-2l2-2 1-1 5-10c1-1 2-2 3-1h1v-1l1-1c0-1 1-1 2 1 2 3 0 6-3 4-2-1-3 0-6 6-1 3 0 5 2 4l3-1 4-1c1-1 1-2 4-1 2 0 2 0 2-2s5-6 7-6l4-2c1-1 3-1 3 1s-3 3-5 3l-5 2-1 2 3 1h5c3 0 5 0 3 2s-5 2-8 1h-1c0 2 0 2-2 2v1c0 1 0 2-2 2-2-1-14 1-15 1h-2c1-2 1-2-1-2l-1 3c0 2 0 3-2 3l-6 3c-2 2-2 4-1 5 2 1 6-1 8-3 1-2 3-4 7-4h3l-1 2h-1c1 1-1 4-3 4-1 0-1-2 1-3s1-2-1-1c-2 0-3 1-4 3-1 3-4 5-7 5l-5 2-1 1 1 1c1 2 1 3-1 3-1 0-1 5 1 7 1 1 1 2-2 2s-3 5 0 5h1l2-3 3-1c2 1 2 2 2 3-1 2 0 2 4-2 3-2 3-3 3-4-1-1-4 0-5 1h-2l6-3c3 0 4-1 3-3 0-2 1-3 3-2l1 2-1 2-2 4v2l2-2a277 277 0 0 1 2-7l1-3-1-1c-2-1-2-2 0-2l3-3c0-2 2-3 3-1 2 2 2 2 4-1l4-4h26l7 1h5l6-1c5 0 6 1 6 2l2 2v-1l-1-2a83 83 0 0 1 20 0l11-1 13-1 5 1c1 2 2 2 4 2l3-1h-2c-2 0-3-1-2-2s8 0 11 1 3 1 4-1l9-1 9 1h3l8-1 8 1h4l1-1v-2h6c9 0 15 0 16 2l5 1h4l-6-2c-2 0-3 0-2-1h8l2 1 2 1h2c2 0 2 0 0-1-1-1 0-2 3-2l5 1 2 2 2 1 2-1 4-3 6-5 3-4 5-7 6-5 1-2 2-3c2-1 2-1 1-2 0-1 1-6 3-8 8-7 9-9 12-9l5-2c2-2 2-2 6-1l6-1 5 1h4l2-1a352 352 0 0 0 23-2c3-2 5-1 6 1 0 2 1 2 3 2s2 1-2 2l-3 3c-1 2-1 3-3 3l-2 1c-2 2-2 3 1 3h10l4 1 2 2c1 0 1 2-1 2h-2l-8-2-5 1-4 1-7 2c-3 1-5 1-6-1s-1-2-3 1l-3 1-3 2c-2 2-2 2-3 1l-4-1-7-1c-5 0-8 1-8 4l-1 3-1 2 2-1 2-2c0-1 2-2 2 0h3l1-1c1 2 3 2 4 1h1l-2 2c-2 3-3 5 0 3l2-1c2 1 4-2 4-4 0-1 1-2 2-1v3c-2 3-2 3 0 2l1-2 2-2 1-1 2-3h3c0 1-1 4-4 7v4l1 1 6-6c2-3 5-4 5-4 2 0 2 1-1 3-2 2-2 3-1 3l-2 3-2 3-2 2c-1 2-2 2-5 3-3 0-3-1-3-2h-2c0 2-2 2-4 1h-3l-2 1s-2 0-3 2l-4 2-2 1 2 2-1 1-2 1v1l4-2 4-3 2-1 1-1c2 0 2 2 0 5-2 2-3 4-1 4 1 0 2 0 3-2 3-2 4-2 4 0v1l8-4c2-1 3-2 4-1l2-1c1-1 2 0 2 1h3c1-1 1-2 2-1l-2 3c-3 3-4 5-4 7l3-1 9-9c1 0 1 1-2 4s-3 4-1 2 3-1 2 2c-2 3-1 2 3-1 4-4 6-5 3-1-1 2 0 3 2 0l3-1-2 3-2 3h2l6-6 2-2 4-5v1l-2 5-3 6 2 1 3 1c2 0 3 1 2 3l-4 1c-3 0-3 0-4-2s-1-2-2 0l-3 1-6 1h-13c-2 0-3 1-1 2 2 0 1 1-2 3l-3 3-2 2 1 2c2 2 3 2 3-1v-2l2 1 3 1 6-2c4-2 7-2 7 1l-3 1-5 1-2 1h3l4 4h-2l-7-1-1-1c1-1 0-1-2-1l-2 1h-8c-4-1-5-1-5-3l4-3 5-4c4-4 4-5-1-5-2 0-4-1-3-2h6l-4-3-2 1c-1 3-5 4-6 3l-2 1c-2 1-4 1-4-1l-1-3-2-2-2 2-1 2h2l2 1-7 2-9-1-2-1-2 2c-2 2-2 3 0 3v1l-4 3h-2c-1 2-5 2-6 1 0-1-1-1-2 1-2 5-2 7 1 3l4-1h2c1-2 2-2 3 0h1l5-3c1 0 3-1 5-4l5-3c1 1 1 1-1 3-3 4-3 7 0 7 3-1 5 0 5 2h4l2 1v2c-2 1-6 0-7-1h-8c-3 1-6 0-5-3 0-2 0-2-3 1l-6 4c-5 2-7 2-8 0h-4l-2 3v5l4-2 3-2c1 1-1 5-2 5h-1 4v-2c0-1 1-2 3-2s3 1 2 2h2l4 1c1 0 2 0 2-2l6-6c2 0 1 1 0 2-2 2-3 4-1 4l4-3 3-2-1 2c-1 2-1 3 1 2h12c2 1 2 0 2-1l2-1 2-1h4l-2 1c-1 2-1 2 1 2l3 2c2 2 2 3 6 2 2 0 3 0 2-1-2 0-1-1 3-2l5-1h2l4 1c3 0 4 0 3 1l-4 2-5 1c-1 2-2 2-2 0l-1-1-2 1-1 1-2 1-3 1h-3c-1 1 1 3 3 3l2 1h7l4 1 3 1c2 1 7 0 11-1 2-1 6-1 10 1 3 1 3 1 3 3 0 3 0 3-2 2-1 0-2 0-2 2l-2 1-2-1-2-1h-3l-2 1-3 2c-2 2-3 2-3 1l2-2 2-2h-12l-3 1-1 1 3 1c3 0 5 1 4 2h-11l1-2c2-1 1-2-1-1h-3c-2-2-6 0-6 2h1l2-1c1 1 1 1-1 2l-1 3c0 2 1 2 2 2l4 2c1 2 0 3-2 4h-2l1-2c2-2 2-2-2-2h-4l1 4v5l2-1c2-2 2 0 0 3-2 2-2 3-1 5l3 2h4l-5 2-2 1c0 2 4 3 6 2l3 1c3 2 3 2 4 0 2-4 2-5 0-5l-4-1c0-1 2-2 4-1 1 1 2 1 3-1l1-2c0-3 5-10 7-10l-2 4-3 5c0 2 8-7 9-10l2-4c2-3 1-3-1-1-3 3-4 2-1-1 1-2 2-2 3-2l4-2c2-2 3-2 2 1v1c1-1 3 0 3 2l2 8a1134 1134 0 0 0 4 16l1-4c1-3 1-5-1-6l-1-5v-8c-1-4-1-4 1-6l4-1 1 1v-2l2-2c1-1 2-3 0-3l-1 1c-2 3-3 1-2-2 1-4 1-5-1-4-3 0-3-1 1-4l3-5c1-1 1-1-2-1h-3l1-2c0-3 1-4 3-4l1 1v2c1 2 3 2 5-1 3-3 3-4 1-4l-3-2h-2c-2 1-6 2-8 1v-2l2-3 7-8-2 3c-2 3-4 7-3 9 1 1 5-2 4-4l4-1 2 2c-1 2 0 2 3 0l6-6c2 0 1-2-2-3-3-2-3-3 0-2 3 0 3 0 4-2v-2c-3 0-5-1-5-2l1-1c4 2 5 1 3-1-1-1-1-2 1-6l2-4c1 1 1 3-1 6v5c1 2 1 2 2 1v-5l1-3 2-3 1 2-1 3-1 5c1 2 0 3-1 3l-2 3-2 2h2l2-2 3-4 1-2c-1-2 5-2 7-1h17l5-3 3-4 1-2h2v3c-2 3-2 4 1 5l5 1 6-1c14 0 15-1 18-4 3-4 4-2 2 1v3h19c10 0 12-1 13-4 1-2 3-3 4-2l-1 2c-2 3-2 4 3 4 22-1 24-1 24-3 1-2 3-4 4-3v3l-1 2h20c4 0 6 1 6 2l-3 1c-1-1-2 0-3 1h-5l-3-1c-2 0-2 0-1 1l3 2h1-2l-1 1c1 1 9 2 12 1h10l-1 2v2c0 1 0 2-2 2v5c-1 1-2 1-5-2l-9-4h-2l5 3c4 2 4 4 1 4l-4-2-6-1-7-1h-1l-3-1-11-1c-8 0-10 1-11 2h-8c0 1-1 2-2 1l-2-1c-1-1-2-1-6 1l-4 1v-2c1 0 1 0 0 0l-2 1h-3l-2 1c-1 1-3 0-3-1l1-1c1 0 0 0 0 0h-2l-2 1-3 2-5 3-3 1h-5l-3 1c-3 2-4 2-4 1l1-2 2-1c0-1-1-1-4 1l-4 2c-1-2-3 0-3 2l-1 3c-1 1-1 1-2-1l-1-4c0-2 0-2-1-1v6l-1 5c-2 0-2-1-2-4 0-4-1-6-2-5l-1 4-1 5h-1l-1 3c-2 3-4 5-4 3 0-1 0-1 0 0l-2 2-2 1-1 1-1-5v-4l-1 4c-1 5-2 8-4 10-3 1-3 0-2-4 1-2-1-1-3 2-3 2-3 4-1 3 2 0 3 1 3 5 0 3 0 3-2 3h-3c-2-2-4-1-4 2l2 7 1-3 3-4c2 1 2 3 2 15l1 12v-6l1-2v-2l1-1 1 1v27h2c2 0 3-1 3-4s1-5 2-4v32l1-2 1-7 1-13c1-1 2 1 2 5 0 3 0 4 1 3s2 1 2 6v4l1 3 1 4 2 2 2 1-2 3-1 4 2 1c0 2-2 3-3 3h-1l1 1c1 1 1 3-1 4l-1 5c1 2 1 2-1 4l-2 3 1 2 1 2 1 17v17l-2 1-2 2-1 1-2-1-1-2v5c2 2 2 2 3 1l2-1 2-1h1v2c-1 2-2 11-1 15l-1 7c0 4-1 5-2 2-1-2-1-2-2-1v3l-2 5c-2 2-3 5-1 5l2-3 1-2 1 3c0 4 1 3 1 0l1-2 1 6c-1 8-1 9-3 9-3-1-5 0-5 2 0 1 1 2 2 1l2 1 3 2c2 1 2 7 0 8v8c-2 1-2 4-1 4l2 3h-2c-1 0-2 0-1 1l1 4c1 4-1 7-4 8l-2 1c0 2 0 2 2 2 3 0 4 1 3 2s-5 1-6-1c0-1-2-1-4 1h-4c-2-1-4-1-5 1-1 4-5 5-6 1l-3-2c-3 0-3 0 0-2 2-2 3-2 3-1l1 2c0 2 1 2 2 1v-3c-2-1-2-3 0-2l2-1c2-1 3-5 2-6l-2-2c-1-2-1-2-4-1-4 0-5-1-2-3 3-3 5-8 3-9l-2-1c-1 1-2 0-1-2s0-6-1-10c-1-1-1-2-3-2-3 1-4-1-1-3l3-3 1-5-1-6c0-4-1-5-4-6h-2l2-3c2-3 1-4-1-3-3 0-3-1-2-6v-12l1-6 2-3c1-1-1-4-2-5-1 0-2-1-2-5v-13l-1-7v-4l-4-1 1 4c0 5 0 7-2 5v-4c0-2-1-2-2 0l-1 2c-3 0-1 3 3 6v7l-1 5c-2 1-2 3-1 3l1-1 1-1c0-2 1-2 2 0v2l-6 3-4-1c0-2 0-2-1-1h-3l-4 1-4 1h-3c-1 1-3-1-1-2 2-2 0-4-2-2-2 1-2 0-1-2v-3c-2-2-3-1-2 2s0 8-1 8-3-4-3-8c1-4 2-6 4-6h2c0-1-1-6-2-5-2 0-2-1-2-11l1-10c1-1 1-2-1-3l-1-1 4-1c2 1 7 0 11-1h17c1 2 3 1 6-2l3-4-2-1-3-1c-2-1-6 0-5 1l-1 1v-3l-1-3-1-3-1-2-1-4c0-4-1-5-3-6l-2 1 1 3 2 4 1 5 2 2c2 1 2 2-1 2-2 0-2 0-2 2-1 3-2 4-3 2-1-1-2-2-3-1h-9c0 2-2 4-3 3v-2c1-2 1-2-2-2s-6 3-6 5-2 2-3 1h-13l5-1c2 0 3-1 2-4 0-2-2-2-1 0 0 2 0 2-3 2-1 0-2 0 0-2v-6l-1-5-1-6v-3c0-2 2-2 3-2l3-1 6-2h2l1 3c0 3 1 4 5 6l3 2-2 2c-2 2-1 3 2 1 2-2 4-2 3 0h2l1-3c0-2-1-2-3-2-3 0-7-4-5-7l1-1h2c2-2 3-2 3 0 0 1 0 2 2 0 1-1 2-1 2 1l3 5 2-7c0-3-1-4-4-3-3 0-4-1-3-2s0-2-1-5l-1-5c0-3 1-3 2 0l1 3v-6l-1-5c-2-1-2-5-1-7 2-3 2-6 0-9l-1-4-1-2v-9h-5c-1-2-1-2-1 0-2 1-2 2 1 2h2l-2 1c-3 0-3 1-2 2l3 4 2 2h-1c-2 0-2 1 0 2 3 1 3 2-1 2-2 0-5 1-4 2l2 1c2 0 2 1 0 2l-1 2 4-1h3c1 1 0 2-11 2l-6 1-2 5-1 2-1 1-2 4-4 5c0 2-1 2-2 1l2-3 2-5 1-2c1 0 3-3 2-4 0 0-2 0-4 3l-4 8-1 6c-1 1 0 2 1 2l2 1-4 1-2-1-1-2h-1c-2 2-7 0-7-3v-17l-1-3c-1-2-1-2-2-1v19l-1 3c0 2-1 3-4 2h-1c0 1-2 1-3-1l-3-2-3-2-1-2v3l1 3 2 2c0 2-1 2-3 1s-2-2-2-3l-2-4-1 3c0 2 0 2-2 3l-3 1c-2-1-2 0 0 2v1c-1 1-6 0-6-1l2-1-1-2-1-3c2-1 2-1 0-3-2-1-2-2-3-1v2c1 1 0 5-2 6l-3-1-1-3-1-4-1-3-1 3v5c0 3 0 3 2 4l2 1c-2 1-1 3 2 3s3 1 0 1l-2 1-1 2c-1 1 4 2 5 1l4-1c4 1 5 3 1 3-2 0-3 0-4 2s-2 4 0 6c1 2 0 3-1 3h-12c-2 0-2-1-3-4-3-4-7-6-7-2l2 3c3 2 2 3-3 3s-6 1-6 3h8l2-1c1 1-1 5-2 6l-3 3-2 4c-1 1-1 3 1 3l1-2 2-4 2-3c0-2 1-2 2-2l-1 3-1 4-1 2c-2 2-2 2 0 2s2 1 2 2l-7 1-8-1-1-2 1-2 1-2c2-1 5-8 3-8-1-1-4 3-4 5l-1 2-2 3c-2 3-3 4-3 2l-1-1v-7h-2v12h-2l-1-4-1-5-1-3-1-1 1 9 1 5 2 4v-1l1-1 9-1c8 0 11 0 18-2 3-1 7 0 7 1l-2 2c-3 0-3 1-1 1l2 1 1 2 1 16c0 17 0 18 4 15h1l2 1c2 0 3 0 4-2l2-3h-6c-1-2 0-3 4-3l4 1 3-4 3-7c0-2 1-2 2-3l2-1-2-1c-3 0-5 1-5 2 0 2-1 2-2 1l1-1c1-1 1-2-1-2s-3 2-6 7l-3 5v-2l-1-2c-1-1-1-1 1-2l2-1 2-2 1-2h-4c-2 1-1-1 0-3v-3h-4c0-2 2-3 3-3 1 1 2 0 3-1l2-3v3c-1 2-1 2 1 2 1 0 1 1-1 3-2 1-2 1-1 2h4l2 1 1-2 1-2s1 0 0 0h-3l3-2 3-2-1-1c-2 0-2-1 0-2h2l1 1 2 2c-1 2-1 2 1 1 1 0 2 1 1 2l-4 1c-3 0-3 0-3 2 1 2 4 3 5 0 2-1 3-1 2 1l2 1 1 2h-5c-2 2-3 4-2 5l-1 2-3 2a387 387 0 0 1-6 13c2-1 2-1 2 2-1 2-1 2 1 2 2 1 3 1 4-1l2-2v2c-1 2-1 2 2 2s6 1 5 2h-8l-11 1c-4 2-8 1-8 0 0-2 3-3 7-4 4 0 4-1-2-1-5-1-8 0-8 2v1l-2-7a181 181 0 0 1-1-18l-1-5-2-2c-1-1-1-1-2 3v6l1 5v3l1-5 1-4 2 8c0 4-1 5-4 3h-3c-1 1 0 2 2 2s2 1 0 2l-2 2c-1 2-1 2-2 1l-2-1h-3c-3 2-1 4 3 3 3-1 5 0 5 1l-4 1-3 1c-1 2 0 3 2 2l4-1 3-1 1-3 1-4 2-1-1 4v5c1 3-1 3-15 4l-10 1c-3 0-5 0-5-2l5-2c2 0 1-1-2-1l-4-1h-1v2l-1 1 1 8-1 2-2 6c0 6 0 7 2 6l15-2c2 1 0 1-8 2l-9 3c-2 1-2 4 0 8 2 3 2 3 4 3l5-1h11a54 54 0 0 0 15 0l6-1h2l3 1c2 0 2 0 2-3l-1-2 3-1c4 0 6 1 5 3v2c0 1 1 1 2-1 3-3 3-3 2-1v2l15-1 1-5-1-6c-1-4-1-9 1-10v3l1 6 1 5v4c0 3 0 3 4 3 3-1 3-2 2-7v-7l-1-19a151 151 0 0 1 0-25c1-1 1-2-1-4l-1-6c-1-4 0-5 2-8 1-2 2-2 2-1l1 3c0 2 1 3 1 1h2l4-3 2-2v6h-1c-2 0-4 2-2 4 2 1 4 1 5-1l1-1c2 1 2 0 2-1l-1-1c-2 0-2-2 0-2l2-1 2-1 2-2v-2l-9-1c-1-1 2-2 9-2l8-1 2 1c0 1-1 2-3 2l-6 4-2 4-2 3c-2 1-2 1 0 1 2 1 2 2 0 2l-4 3c-2 2-3 2-2 0 0-2-1-2-5-2-2 0-2 0-4 3-2 4-2 6-1 9 1 1 0 1-1 2l-1 1 1 2 1 3 1 6-1 7 1 9 1 10v11h5c1-2 3-1 2 0 0 2 3 4 4 2l2-1c2 0 2-1 2-2l1-2 1-2 2-1 3-3c2-4 4-7 5-6l-2 4c-2 2-2 3-1 4l1 1h-4v2c1 1 0 2-2 3-3 1-3 2-1 2h9l10-1 7-1 5 1c0 2 0 2-7 2-8 0-11 1-11 3-1 1-2 1-3-1s-1-2-4-2l-7 1c-4 1-5 1-6 3l-1 1-2-1c-1-2-2-2-4-2h-5c-3 1-10 2-12 1l-5 1-6 1-7 1c0 3-3 4-3 1l-4-1-3 1h-2c-1-1-1 0-1 1h-4l-3-2h-9c-6 0-7 0-8 2-1 1-3 1-3-1 0-1-6-3-8-2-1 1-17 2-19 1-2 0-2-2 0-3l1-4-1-5-14 1-4 2h-3l-5 2c-2 2-2 3 0 2h8c2-1 3 0 3 2l1 1 1-1v-4c1-1 2-1 2 1l1 3h3l2 1c1 0 2 1 1 2l-3 1-5 2c-3 2-4 3-3 7l1 4 1 2c1 1 1 1 2-1h3c3 2 6 2 6 0s1-2 2 0c1 1 3 1 3-1l3 1 4 1h4c1 2-1 2-8 2l-18 1-1 5v3c2 0 10 3 10 5l-4 1c-5 0-7 1-7 4-1 3 0 4 4 4h21c3-1 7-1 6 1l-2 1-2 1h-6l-6-1h-8c-6 2-7 9-1 10 3 1 3 0 3-2 0-3 1-2 2 0l1 1 1-3 2-2c0-2 2-1 3 0 2 2 2 2 1 4 0 2 0 3 1 2v-1h2l6-1v-3l1-1 2 3c1 5 2 6 2 3 0-4 2-4 2-1v3h3l5-1 4-2c3 1 3 2 1 3h-1l1 1 3 2 1 2 1 1c0 2 1 3 3 3v-1c-1-3-1-5 1-6 1-1 2-3 0-4l1-3 2 1h5l5 1h3l4-1c2-1 2-1 2-3l3-1c3 1 3 1 3 3s0 2 1 1h4l1-1 2-4 1 2c0 3 0 3 2 4h9v2l-3 1c-2 0-2 1-2 3 1 3 0 4-1 2l-1-3v-2l-3 4c0 1-1 2-2 1v-3l-1-2h-3l-2-1h-2l-2-1c-2-1-3-1-7 1-2 1-3 1-3 4v3l-2-2c-1-2-1-2-2-1l-1 3-1 1-1-5v-2l-1 1-1 7c0 5-1 6-2 5v-13l-2 3c0 8-2 12-3 13l-1 2-1 2-1 2-2 1-1 2c-1 4-4-3-4-9v-3l-1 1-3 5-2 5 1 3 2 4c2-1 1-3 0-5v-4l2 1 1 3v3l1 4 3-2 1-3 2-4 1-1 1 4 1 3v4l1 2 2-2v-13l3-3c4-4 5-4 4-2v3l-1 4c-2 1-3 6-1 8l1 4v4l-2 4c0 3-1 4-2 1zm-1-7v1c0 1 0 1 0 0v-1zm-16-2c0-1 0-1 0 0 0 2 0 3 1 2l-1-2zm-55-10a8110 8110 0 0 1 3-7c1 1 1 1 1-1 1-2 2-2 2 1 0 2 1 4 2 3s2-8 1-9c-1-2-1-5 1-7 1-1 0-1-1-2h-3l-3 1-3 1-1 9c0 7 0 11-1 8h-1l-2-1-1 1c-1 2-1 3 1 3l2 1c-1 2 0 3 1 3 2-1 2-1 2-4zm5-16 1-4v8l-1-4zm11 16-2-5-1-2h-1c-1 2-1 2 1 3l1 2c0 2 2 6 3 5l-1-3zm5 1v-2h-1v3l1-1zm-18-3c0-1 0-1 0 0v1-1zm16-6v-9 2l-1 2-2-4c1-1 0-3-1-2l-1 2-1 3c-1 1-1 1 1 2l1 2c-1 2 0 3 2 2h2zm-27-4-1-2c-2 1-3-1-2-4l1-1 1 2 1 1 1-4-1-5-1 2-2 2c-2 0-3 3-2 6l4 5 1-2zm5 2-1-1c0-1 0 0 0 0l1 1zm1-10-1-3-2-1c-1-1-1 0-1 1l1 4c1 5 3 5 3-1zm14 2c0-1 0-2-1-1v3l1-2zm24 0c0-2-3-8-4-7l1 3 2 4v2l1-2zm-181-3-1-1-2 2 2 1 1-2zm4-1-1-1-1 1h2zm1-4v-4l-1 2-2 2h3zm121-3c-1-4-2-4-2 0 0 1 1 4 2 3v-3zm-3 2-2-3-1 2c0 2 2 2 3 1zm13-4v-4c1-2 2-1 2 1l1 2c1-1 4-3 5-2l2-5 1-3 1-2c0-2 1-2 2 0h2l1-3h2l-1-2-1-2-1-2v-4l2-2-2-4c-2-4-4-4-4-1-1 2-3 3-4 2h-1l-2-1-2-1-1-1v-1l-1-1 3-1 4 1 2-1h5c1 1 1 1 1-2l-1-5-1-4c-2 0-6-3-5-4h-2c-3 0-5 2-5 4s3 4 5 3 2-1 3 1v2l-6 1c-7 0-10 0-10 2l1 1c2 0 2 2 0 4s-2 2-4 0l-3 1-2 1 2 1 4 1c1 1 2 1 3-1 2-2 4-3 4-1l-1 1c-2 2-1 3 2 2h11c3 1 2 2-5 2l-6 1-1 6c0 7-1 9-3 8s-2-3 0-5a381 381 0 0 1-10 1l-3 1-3-1-3-1c-1-3-7-2-7 1l-1 2v2c2 2 3 2 3-1 0-2 0-2 2-2l1 1v1c-2 1-1 2 1 2l2-1c-3-1 1-2 6-1 6 0 7 1 7 3h-14l-7 1v2c0 3 1 3 3 1l2-2 2 1c1 2 2 2 6 2l13-1 2-1 1 6c0 4 0 5 1 4v-3zm5-15 1-2v-1l4-1c6 0 6 1 2 2-3 0-4 0-4 2 1 1 0 1-1 1l-2-1zm2-8c0-2 1-3 3-2l2 1-1 2-3 1c-1 1-1 0-1-2zm-4-1h1l-1 1v-1zm-124 27v-1h-5l2 1h3zm97-1h2l2 1 3-3 3-2h-7l-14-1h-9v1l-1 3c-2 2-1 2 2 0h3c0 2 1 2 4 0h6l2 1 2 1h1l1-1zm-24-1 2-2-2 1-3 2c0 1 1 1 3-1zm62-3v-9c-1 0-3 4-3 8-1 3 0 3 1 4l1 1 1-4zm211 2h-1l-2 1 1 1 2-2zm-333 1-4-1c-4 0-6-1-5-2h9l3-1c2 0 5-2 4-3h-26l-3 1-3 1c-1 2 5 3 6 1 1-1 5 0 6 2l4 2h9zm127-1h-1l1 1v-1zm-119-1 1-1c-2 0-5 3-4 3l3-2zm44 1v-1l-1 1v1l1-1zm-28-1 2-1 4-3c0-2-5-2-9 0l-1 1 1 2c2 2 2 2 3 1zm77-2v-1 2-1zm-191-1h-1l2 1-1-1zm48 0h-3l2 1 1-1zm59-1h1l-1-1-6 1c-1 1 0 1 2 1l4-1zm43 0h5l-1-1-1-3v-2c-1-1-2-1-2 1l-2 1-1 2c0 2 0 2-2 1-2-2-4-2-5-2-2 1-1 1 1 2 5 2 7 3 8 1zm13-1-1-1-1 2h1l1-1zm-173-1c1-1 1-1-1-1l-4 2 5-1zm171-2-1-1c-2 0-2 1-3 2l-1 2 2-1 3-2zm273 1-1-1-1 1 1 1 1-1zm-354 0c2-1 1-2-1-2l-3 1c-1 1 0 1 1 1h3zm350-1 1-1-4 2c0 1 2 1 3-1zm-351-2c2-1 3-3 2-4l-2 1h-3l-1 1h-3l-2 1 5 1 2 1 2-1zm80-2c0-1-2-2-3-1l2 2 1-1zm274 0-1-1h-3v1l2 1 2-1zm-14-2-1-1v3l1-2zm-258-2h-1c-1 0 0 0 0 0v1l1-1zm265 0v-1l-1 1c0 1 0 0 0 0h1zm8-2c0-1 0-1 0 0v1-1zm-216-1v-1l-1 1 1 1v-1zm-217 0-1-2h-1l-1 1 1 1h2zm165-1c2-1 2-2 1-2h-4c-4 1-5 1-5-1 1-1-1-2-2-1l-2 1h-8v3h5l5 1c4 1 8 0 10-1zm257 0c0-2-1-2-2-1s-1 2 1 2l1-1zm-369 0h-1l1 1v-1zm84-1-1-1 1 2v-1zm52 0c3 0 3-1 4-3l-2-1-2 1 1 1c-1 1-3 0-4-1l-4-2-4 1-2 3c-1 1-1 1 3 1h10zm243 0 2-1c1 1 2 0 1-1l-5-1c-2 1-2 2-1 4l3-1zm-6 0-1-1v1c0 1 0 0 0 0h1zm-410-2h-3l2 1 1-1zm52 0c2-1 2-3 0-4l-4 1c-2 1-2 2-1 2l2 1h3zm-77-1c1-2-1-2-7-2s-7 0-5 2c1 1 2 2 6 1l6-1zm65 0v-1l-1 1 1 1v-1zm23 0v-1c0-1-2-2-3-1h-5v3l8-1zm12 0 4-1 1-1-13 1c-3 1-1 1 5 2l3-1zm-115 0-1-1c0-1 0 0 0 0v1h1zm199-1c0-1-1-2-2-1v1h2zm243 0h-1v1c0 1 0 0 0 0l1-1zm-317-1h-2c-2 1-2 1 0 1l2-1zm9 0h-2l1 1 1-1zm57 0h-2l1 1 1-1zm-262 0-1-1-1 1h2zm257-1c3-1 3-2 1-2l-4-1h-12v2l1 2h6l8-1zm269 0-1-2c0-1-2 2-1 3l2-1zm-431-2-1-2v4c1 1 2 0 1-2zm6 0c0-2-1-4-2-3s0 6 1 5l1-2zm103 0-2-1c-3 0-4 1-3 2l5-1zm328 0-1-3-1 1v2l1 1 1-1zm-503 0v-1l-2 1h2zm78 0c0-2-2-4-3-4-2 1-1 3 0 4h3zm21-1c0-1-1-2-2-1v3l2-2zm90 0c5-1 6-2 6-4 0-1 0-2-1-1h-12l-13 2 5 1c6 0 7 0 6 2v1c1 1 3 1 9-1zm48 0c0-2 0-3-1-2v4l1-2zm-275 0v-1l-1 1 1 1v-1zm33-2c-1-1-2 0-2 2h1c1-1 2-1 1-2zm88 0v3-3zm52 2c1-4-2-5-5-2-3 2-3 2-1 3l6-1zm5-1-1-2c-2 0-3 2-2 3 2 2 3 1 3-1zm4 1c1-1 0-2-1-1v2l1-1zm7 0h-2l1 1 1-1zm335 0-1-1c-2 0-2 0-1 1h2zm-509-2-1-1-1 2h1l1-1zm28 1-1-1-2 1 1 1 2-1zm29 0v-2c-1-2-3-2-5 0l-1 2h6zm89 0c2-1 2-2 0-3-3 0-5 0-5 2l3 2 2-1zm-68-1h2c2-1 2-2 0-3l-2 1-7 1-9 1h16zm175 0h-4l3 1c2 0 2 0 1-1zm-241-4v-4l-1-1-1-2c-1-3-1-4-2-3l-1 6 2 7c2 2 3 1 3-3zm212 1-1-1v4l1-3zm9 0-1-2-1 3 1 2 1-3zm-98 2-2-1c-1 0-2 0-1 1h3zm-97-2 1-1 2-3-5-1c-7-2-17-1-17 1l3 1 2 1 4 2h5c4 2 5 2 5 0zm210 1c2-1 0-4-2-4-3-1-9 0-9 1h2l2 1c0 2 0 2 2 2a130 130 0 0 1 5 0zm-147-2c0-3-5-6-5-3 0 4 0 5 3 5 2 0 3-1 2-2zm158 1-1-1-2 1c-1 1 0 1 1 1l2-1zm256 0-1-2-1 1 1 2 1-1zm-422-5-3-3v3l2 3 2 2-1-5zm159 5h-2 2zm-204-2c1-1 1-2-1-1-2 0-3 1-2 2s2 1 3-1zm19 1 7-1h5c0-2-3-3-7-2-2 1-3 0-1-1l1-1c0-2-2-2-2-1s-1 2-3 2c-4 1-5 2-5 3l2 2 3-1zm16-2-1-2c-1-2-2-1-2 0 0 3 1 3 3 2zm123 0 12-1v-3c0-2 2-3 3-1h1l1-4c1-3 0-6-1-6v1l-3 6v-7l-1-14v-4h-9c-7 0-8 0-7 1v3h1v2l-12 2h-3c-2 1 1 1 4 1 5 0 7 1 5 2l-3 1c-1-1-3 1-2 1 1 1 10 2 13 1 4-1 2-3-3-3l-3-2h17v1l-5 1-2 1 2 1 2 1 2 1v2l-2 2-5 1c-5 0-4 1 2 2s9 2 7 3h-8c-7 0-11 0-7 1l3 2 2 2-9 1c-9 0-12 0-12-2h14l-6-4h-7c-5 0-6 1-4 1 3 1 3 2 0 2l-3-1-3-1c-5 0-6 1-2 3l2 1-3 1h-2c0 1 2 2 4 1l12 1h18zm2-28c-4-2-4-3 1-3s6 1 5 3-3 2-6 0zM44 354v-2c-2 0-3 2-2 2h2zm259 0h-2l1 1 1-1zm-271-1-1-1-1 1 1 1 1-1zm107 0v-1c-2-2-4-2-5-1-2 2-1 2 1 3l4-1zm10 1v-2l-1-1h-6c-1 2 1 4 4 3h3zm5-1-1-1v2l1-1zm13 1h3c1 0 4 0 4-2 0-1-4-3-7-3l-6 1c-7 2-7 4 0 4h6zm19-1h5c2-2-1-3-7-3l-7 1v2h9zm10-1h-2v1c1 1 3 0 2-1zm91 0-1-3h-6c-5 0-12 1-12 3h7l7 1 3 1c2 0 2 0 2-2zm-211 0c1-1 1-1-1-1h-1l-1 2h1l2-1zm215 0-1-2v2h1zM9 350v2-2zm97 1c0-1-1-3-3-3l-3 2 2 1h4zm439-5-1-2c-1-1-3 4-3 6v2l2-2 2-4zm-519 2-1-1v3h1v-2zm104 1-2-2-2-2 3-1 2-1h-10v3l1 3 7 1 1-1zm-76 0a499 499 0 0 0 13-3v-4H41c-3 0-6 2-4 4v2l1 1 5 1 11-1zm-10-1v-1c1-1 2 0 1 1h-1zm-5-2h1v1l-1-1zm46 1c3-1 5-2 8-1l8-2h-4l-6-1-5-1h-8c-2 0-3 2-3 3l5 4 5-2zm-5 0c-1-1 0-2 1-1h1c0 1-1 2-2 1zm94 2h2l1-1-2-1-4-1-2 1 2 1 3 1zm22 0h-1c-1 0-1 0 0 0h1zm95-5h-3l2 4c1 0 2-3 1-4zm-108 3h-2l1 1 1-1zm4 0-3 1h2c1 0 2 0 1-1zm89 0 2-1h-5c-2 0-2 2 0 1h3zm-115-1 1-1c0-2-8-2-9 0-2 2 1 2 8 1zm108 0c2-1 1-2-1-2l-2 2h3zm-9-1 1-2-1-1-1 2v2l1-1zm72 1c0-1-1-2-2-1l1 1h1zm-183-2-3-1-3-1-3-1-2-1-5-1c-4-1-5-1-6-3l-2-1-2 1c-3 1-3 2-1 3s3 2 8 2l5 1c0 3 1 3 12 3h3zm-124 0h-2l1 1 1-1zm195 0-4-1-5-1 7-1c7 0 8 0 6-2-3-1-8-2-9 0h-14l-8 1-7 1v1l7 2h27zm63 0c0-2-1-3-2-3-2 1-2 2-1 3h3zm-212-1h-1l-1 1h1l1-1zm282-1v-2h-3c-2 2-1 4 1 3l2-1zm188 0c1-2 1-2-1-1v2l1-1zm-364-1h-3l-6-1 1-1h-6l-8 1h4l4 1 1 1 13-1zm232 0v-1l-1 1 1 1v-1zm127 0c0-1 0-1 0 0v1-1zm-300-1h-8 8zm37 0c4-1 5-3 4-5h-5c-4 1-5 2-5 4s2 3 6 1zm-167-3c0-2 3-2 4-1 0 2 2 2 2 0l2-7h2v-3l1-18v-4l-1-8-1-12c-1-11-2-17-1-19v-6l-1-7c-1-17-2-23-4-24v-6l-3-2-4-1c-3 1-6 0-6-2l2-1 3-2c1-2 2-2 3-1 0 2 3 1 5-2l1-3-4 3-1 1c-2 0-1-3 2-5l2-2h-3c-3 0-4-2-4-4l-2-1-1-2-2-3h-5c-2 2-3 1-2 0v-1l-2-2c-2-1-2-2-3-1v4l8 5 1 1 6 2c2 0 1 2-1 2l-10-4c0-1-6-5-8-5-5 0-12 3-12 5l-1 3-1 4c1 3 1 3 4 3l3 1-8 9c-1 1 0 1 2 1l2 2c0 2 0 2 3 2 1-1 2-1 1-2s0-1 2-1l3-2c1-2 3-2 5 0l1 2h-5l-2 2 5 3 2-1 3-1h2l-3 1-2 3 7 3 4 3-1 1h1l1 1-1 1c-2 1-4 0-3-2l-1-1-4-2c-3-1-6-1-9 1l-3 1 3 1 4 4c0 2-1 2-2 0l-3-2-4-3 1-1 4-3 1-2-1-2-3-1-5 1c-3 0-3 0-3-2-1-1-1-2-3-2-3 0-3-1-1-3s2-4 0-5c-1 0-7 2-9 4l-2 4c-1 3-7 7-11 8l-3 1c-2 0-2-2-1-4 2-2 2-2 0-2-3-1-4 1-4 7l1 5 2-2c3-3 5-3 5 0l1 1 3-1c0 2-1 3-3 3s-4 2-4 3l2 2c2 1 3 1 1 2l1 1-2 3c-2 1-2 2-2 3l1 1c1 0 1 2-1 3h-3l-4-2c-2 0-3 0-3 2s0 2-2 3l-2 2c-5 10-6 15-4 20v29l1 10 1-1 1-3 1-4c0-5 2-6 3-4l1 4 1 3a12394 12394 0 0 0 4 1l1 1c2-1 3 1 2 4-1 2-1 2 1 4 2 1 2 1 0 3l-1 1-1 3v3l3-1h6a27888 27888 0 0 1 58 2l2 1 1-2zm3-6c-1-1 0-3 1-3v4l-1-1zm-23-48a81 81 0 0 1-18-4c-1 0-3-1-2-2l17 3h30c2 1-2 2-10 2a266 266 0 0 0-17 1zm-61-1c-1-1 0-1 6-2a130 130 0 0 0 11-2l6-1 7-1h5l3 1-5 1-15 1-6 2-12 1zm20-25-2-1h6l-1 1h-3zm0-5h1l-1 1v-1zm2-6c0-3 0-4 2-4v5c-2 2-3 2-2-1zm42-6-3-1-1-1-2-2-2-1h2l2 1 4 2 3 3c0 1-2 1-3-1zm-24 1v-1l2-3h1c2 2-2 6-3 4zm33-10-6-3h-1c1-1 4-1 7 1l3 1 2 1c0 1-4 2-5 0zm-36-2 1-2c3-2 3-2 2 1-2 2-2 3-3 1zm29-5-2-1v-2l4 3h-2zm6 0v-1h1v1h-1zm-3-4 2-1 1 1-1 1-2-1zm-5-4 3-1 1 1h-4zm-6-1-1-3-2-2h2c2 0 3 1 3 4l-1 2-1-1zm3-7c-2-2-1-2-4-1-4 1-4 0-1-2 5-3 7-3 8-1 0 2 1 2 3 2 3 0 3 1 0 3-3 1-5 1-6-1zm-14-4 1-2 4-1 5 2h-8l-2 1zm218 133-1-3-2 3 1 3h2v-3zm-251 2-1-1c-1 1 0 2 1 2v-1zm52 0-4-1-1 1h5zm55 0c2 0 1 0-1-1l-3 1c-1 1-1 1 1 1l3-1zm38 0c3 0 4 0 3-1h-4c-5 0-7 0-6 1h7zm79-1h-1l-1 1h1l1-1zm-89 1h-2 2zm-153-2h-1l-1 1 2-1zm260 1-1-2h-1v2h2zm-253-1h-1v1l1-1zm-14 0c0-1 0-2-1-1l1 1zm272-1h-2l1 1 1-1zm-120-1h3l-2-1-5-1-8-1-8-2h-5l-3 2-2 1c-3-1-5-2-3-3h2l3-1 2-1h-11l1 2 1 2c0 2 6 4 17 4h10l3-1h5zm6 0v-1l-1 1h1c1 0 0 0 0 0zm9 0-2-1c-2 0-1 0-1 1h3zm21-1 8-1h1-1l-5-1-4-1-14-1 1 1c1 1 0 1-1 2l-1 2h5l11-1zm48-2c-1-2-2-1-1 1l1 2v-3zm21 1h-1l-1 1h1l1-1zm-144-3c0-2 0-2-2-2-1 0-2 1-2 3l2 2c1-1 2-1 2-3zm415 1-2-1 1 1h1zm-369 0h-8 8zm7 0h-2c-1 0-1 0 0 0h2zm95-1v-2c-1-2-4-2-5 0s0 3 3 3l2-1zm15-3v-2l-9 1c-2 1-1 4 2 5 2 0 6-2 7-4zm236 2h-1v1l1-1zm-375 0c1-1 0-1-2-1s-2 0-1 1h3zm200-2c0-3-1-8-3-9v-2l-1-2v7c-1 2-1 2 1 6 0 2 1 3 2 3l1-3zm-184 0c8 0 8 0 7-2-1-1 0-1 4-1 2-1 3 0 3 1l1 1 2-1c1-2 2-2 3 0 0 1 5 2 18 2 10 0 12 0 11-2l-13-1-14-1c-2-1-1-2 3-2l4-1h-6l-2-1c-2 2-5 3-7 2-3 0-2-1 0-2 3 0 2 0-1-1l-21 1 5 1c5-1 9 0 10 2l-2 2c0 2-3 2-9 0-6-1-11-2-12-1h-2l-2 1c-1 1 0 1 3 1s5 1 4 2h13zm57-1-1-1c-2-1-4 0-3 1h4zm-79-1v-2h-15l2-1c4 0 3-1-1-1l-7-3-4-1c0 2 2 5 4 5l1 2 10 1h10zm402-2c0-1-1-1-1 1l1 1v-2zm-260 0c2 0 3-2 3-4v-3l-1 2h-6c-4 1-4 1-4 3s2 3 5 3l3-1zm-270-1h-1l1 1v-1zm519 0h-1c-1 0 0 0 0 0v1l1-1zm-366 0-1-1s-2 0-1 1h2zm43-1c2-2-1-3-8-2-6 0-8 0-8 2h16zm28-3 2-2c3-2 3-3 2-5l-10-1h-8v1c0 3 3 4 8 4h5c1 2 1 2-8 3h-8c-1 0 9 2 13 1l4-1zm293 1-1-2-1 1 1 1h1zm15-1v2-2zm-2-5c0-6-1-7-1-2l1 8v-6zm-192 1-1-4v4c0 3 0 5 1 4v-4zm-209 3c1-1-1-2-5-3l-6-1-6-2-5-2c-1-1-2 0-2 1l1 1 5 2h-3c-2 0-2 1-1 2l5 1h11c1 1 4 2 6 1zm9 0-1-1-2 1h3zm374 0-1-1v1h1zm-258-2c1-1 0-2-1-1-2 0-2 3 0 2l1-1zm-89 0h21l1-2v-1h-17a329 329 0 0 1-24 3h6l4 1 9-1zm29 0h-3 3zm47-3v-3c-1-1-1 1-1 3l1 3v-3zm4 2v-2l1-2 1-3c0-2 0-2-2-2s-2 0-2 2v5c-1 2-1 3 1 3l1-1zm274 0c-1-1-1 0-1 1h1v-1zm-255-1 2-1 1-1h-8l-2 1v2l3 1 4-2zm-127-1 6-1c2 0 2-1 2-2v-2a285 285 0 0 1-32 1l2 1 10 3 4-1c1-2 3-2 3-1 0 2 2 4 3 4 2 0 2 0 2-2zm58 1-1-1-2 1h3zm78 0v-3c-2 0-4 2-4 3h4zm232-1v-2l1-1c0-2-2-3-3-2v5c1 2 2 2 2 0zm22-1c1-3-1-5-2-3v1l1 3c0 2 1 1 1-1zm-4-1-2-1v3h1l1-2zm-190-6v-7l-1 3v6l1 6v-8zm183 6c0-1 0-2-1-1v2c0 1 1 1 1-1zm-317-1c0-2-3-5-6-6-2-1-2-2-1-2l-1-1-14 1 2 1c2 0 1 1-2 1h-3l3 1 7 2 7 1c5 0 5 0 6 2s2 2 2 0zm-19-1c3-1 2-2-3-2l-4 1c-1 2 1 3 3 2l4-1zm77-1v-1c-1 0-2 1-2 3h1l1-2zm-89 1c3-1 2-2-1-2l-3-1-2-2c-2-1-3-2-7-2h-4l1 3 2 3h7l4 2 3-1zm346 0-1-1-1 2 2-1zm-244 0c2 0 3-1 3-2 1-2-2-3-7-4-5 0-7 1-7 4v2h11zm60-3c0-2-1-2-1-1v3l1-2zm-101-4c-1-2-28-2-30 0l13 2 15 2 1 2 1-6zm-25 4-2-1-2 1 2 1 2-1zm157 0v-1h-3c0 2 1 2 3 1zm-242-1 5-1c5 0 8-1 6-2h-11c-8 0-12 0-15-2h-1v3l5 1 6 1h5zm115-2-1-2-1 3 1 2 1-3zm-86 1-2-1c-3 0-4 1-1 2s3 1 3-1zm22 0h-1v1l1-1zm186-1c1-1 2-3 1-5-1-3-4-2-4 1 0 1 0 2-2 1-1-1-2 1-1 2 0 1 1 1 3-1 3-2 4-2 2 0l-1 2h2zm-20-2-1 1h1v-1zm-62 0c0-2 0-3-1-2l-3 2-1 1c2 1 5 0 5-1zm-105 0-1-2-7-1c-6-1-7 0-7 1h-6l6 1 8 1h7zm79 0c0-2 0-2-3-2-3 1-3 3 0 3l3-1zm19-1c-1-1-1-1 3-2l6-4c-1-1-9 1-12 2s-3 2-3 3c-1 2-1 2 3 2 3 0 4 0 3-1zm-133-1h7c3-1 3-1-2-2h-13c-8 0-9-1-9-2h-2l-4 1h-3c0 2 2 4 3 4l23-1zm196-2c1-3 0-4-1-4s-4-4-4-6c0-1 2-1 2 1l2 2h1c1-2-1-9-2-9v-2l1 1c1 1 1 1 3-1s3-8 2-10c0-1-2 1-2 4l-1 3v-20h-3c-3 1-3 1-2 2v10l-4 4-2 3 3-2c1-2 2-2 2-1v3l1 2-7-1-1 1c-2 1-1 2 1 2s3 1 3 2l2 1c2-1 2-1 2 1l-3 1h-2l4 7c2 2 2 2 3 7l1 2 1-3zm200 0c-1-4-2-4-2-1-1 3 0 4 1 4l1-3zm-352 1h-4c-1 1 0 1 1 1l3-1zm345-1v-4l-2 2c-2 2-2 2-1 3 2 2 3 1 3-1zm-339 0v-1h16c2 0 2-1 1-1l-2-1-5-1a29152 29152 0 0 0-17 3l4 1 3 1h2l-2-1zm44 0 1-1h-1c-2 1-11 0-11-1v-1h11c2 1 3 0 3-2 0-4-1-5-3-5l-3-2c-1-1 0-1 2-1l3-1-2-11-4 1c-3 2-4 2-9 1a301 301 0 0 0-31 1l-8 1c-6 0-6 1-6 2l-1 3v2l7-1 7-1h12c1-1-1-1-4-2l-4-2 2-1 11 1 8 1-1 2h-1 8c9 0 11 0 11 2l-2 1h-5a60 60 0 0 0-18 1c-1 1-2 1 12 1 9 0 9 0 12 2 5 3 3 4-6 4l-8 1c-1 1-1 1 2 2 2 1 1 2-1 2l-4 2 21-1zm-54-18c-2-1-1-1 1-1l3 1c1 0 1 0 0 0l-2 1-2-1zm40-1c-5-1-5-1-4-2h5c5 0 8 1 8 2h-9zm11-2 1-1v2l-1-1zm114 19-1-1c-1 2 0 5 1 4v-3zm5 2-1-1c-1 1 0 2 1 2v-1zm6 0-2-1c-1 1 0 2 1 2l1-1zm-246-1-1-1-1 1 1 1 1-1zm50 0-1-1c-2 0-2 1-1 2l2-1zm214 0-1-1-1 1 1 1 1-1zm108 0 2-1c1 0 2-1 2-3v-10l-1-5-1-3v4h-4c-1 2 0 4 1 4h1c0-2 2-2 2-1 1 2 1 2-1 2l-1 1v2l-1 3-1 4-1 3h3zm-309-1c1-1 0-1-1-1l-1 1h2zm-14-1v-2c-1-1-9-1-11 1l-3 1h14zm205-1-1-3c0-2 0-2-2-1-2 2-2 2-1 4 3 2 5 2 4 0zm178-3v-3 3c0 5 0 5 0 0zm-329 3h-2 2zm265-2-1-1v3l1-2zm-367-1c0-3-2-3-2-1v3c2 0 2 0 2-2zm27 0 1-2-20-1c-1 1 0 2 1 3l10 1 8-1zm102-3v-3 7-4zm42 4 1-4-1-3-4 4-1 2c-1 1 2 2 5 1zm229-1v-1l-1 1 1 1v-1zm-313 0 3-2-4-1-6-1c-2-2-10-3-10-1l2 2 3 1 9 3 3-1zm158 0-1-1v2l1-1zm11 0v-1h-1c0 2 1 2 1 1zm-204-1h17c1-1-2-2-5-2h-2l1-1 1-1-13-1a386 386 0 0 0-13 2h-6l12 3 6 1 2-1zm108 0c2-1 1-2-1-1l-1 2 2-1zm73 0h-1l1 1v-1zm151 0-1-1-1 1h2zm34-1v-1l-1 2h1v-1zm-311 0-4-1-6 1 5 1 5-1zm142 0h1l2-2 2-2a2281 2281 0 0 0 2-6l-5-4v1l-2 3c-3 2-3 3-1 3 2-1 2-1 1 1l-1 2v2l-1 1c0 2 1 2 2 1zm2-9v-1l1 1v1l-1-1zm-118 7v-1l-1 1h1zm8 0v-2l-1-2h-1c-2 2-2 5 0 4h2zm96-4c-1-2-2-1-1 2l1 2v-4zm-89 3c2-1 2-3 0-3l-2 3h2zm18-1c2-1 2-2 0-2l-3-1c0-1-2-1-3 1-1 3-1 4 2 3l4-1zm220 1-2-4-3-3 1 2c0 4 4 8 4 5zm-295-1h-3c-4 1-4 1 0 1l3-1zm-73-1 1-2c1-1 1-2-1-3l-3-1-15 2c-1 1 0 3 3 4h15zm17 0c3 0 7-3 5-4h-17c0 3 0 4 2 4h10zm383-1v-1l-1 1h1zm-357 0-1-1h-4l-8-1 4 1 4 1h5zm110-1h-1v1l1-1zm62-4v-14c-1-2-2 1-2 8l1 11 1-5zm29 4v-1l-1 1 1 1v-1zm-114-1-1-1-1 1 1 1 1-1zm88-4c-1-2-2 0-2 2 1 2 1 2 2 1v-3zm-96-1c-1-5-1-6-3-6-2 1-2 1-2-1v-2l-1 2c0 5 1 7 2 6l2 4c0 3 2 1 2-3zm28 2 5-3-1-2c-1-2-2-2-3-2l-3 1h-1v1l-2 2-1 2a743 743 0 0 0 7 1zm-19 0 2-1c1 0 3-2 2-3h-2l-2 1c-1-1-3 2-3 3h3zm275-1v1c0 1 0 1 0 0v-1zm-427 1-2-2h-1l2 2h1zm55 0-1-1-1 1h2zm108 0-1-1v1c0 1 0 0 0 0h1zm-157-2h-2c0 1 2 2 3 1l-1-1zm42 1h-4l3 1c3 0 3-1 1-1zm373-2v-1l-1 1v1l1-1zm-401 0-1-1v-1c1-1 1-1-3-1h-12l5 2 7 1h4zm4 0v-1l-3 1 1 1 2-1zm54-1 2-2 4 1 1-1c0-2 2-4 2-2s5 4 9 2h2l-1-4c0-4 0-4-1-3l-12 1h-19l-2 1c-1 2 1 3 6 3l5 2-5 1c-5 0-7 0-7 2l16-1zm-19 0-5-1-4-1 5-1c8-1 4-2-10-2h-14l-2 1-2 2h9l10 1 3 1h10zm265 1 3-5h-1l-3 4 1 1zm88-2-1-2v3l1-1zm-145-1h-1l1 2v-2zm-148 0c2-1 2-2 2-3l-4-1-6 1c-6 0-10 1-10 2l1 1 12 1 5-1zm16 0h-1l-1 1h1l1-1zm-109 0h-2c-1 0-1 1 1 1l1-1zm231-1v-4c-1-1-3 0-3 3s1 3 1 2l2-1zm-104 0c2-1 2-3 0-3l-2 2 2 1zm-18-3-2-2-1-4c0-2-2-4-2-2v3l1 3v3c1 2 1 2 2 1l2-2zm280 1-1-1v2l1-1zm-401-1c-1-1 0-1 6-1h6c3-1-1-1-11-1-8 0-9 0-9 2l-1 1h5l4-1zm-7-1h4l-2 1-2-1zm163 0 1-3c2-1 3-9 2-10-2-2-5-2-5 0l-1 2c-1 2-1 2 2 4l2 1-3 2c-4 1-4 2-4 4l2 1c3 1 4 0 4-1zm-9 0-1-1v1h1zm261-4-1-4-3 2 1 2 1 1-1 1 2 3 1-5zm-298 3-4-2c-6 0-8 1-3 2l5 1c1 1 3 0 2-1zm20-2c-1-2-1-3-2-1l2 4v-3zm253-2c-1-6-2-8-3-2v7c3 1 3 1 3-5zm-394 4-1-1v2l1-1zm33 0h-3l2 1c1 0 2 0 1-1zm21 0v-1l-4 1c-1 1-1 1 1 1l3-1zm47-1-1-1c-2-1-3 1-2 2s3 1 3-1zm-54 1h-1c-1 0 0 0 0 0h1zm61 0c1-1 0-1-1-1-2-1-3 0-2 1h3zm-212-7v-4c2-8 2-7 0-7l-1 1v14l1 2v-6zm130 5h-1c-1 0-1 0 0 0h1zm67-1c0-1-2-2-11-2l-10-2-2-1h-6l-3-1h-13l1-1 2-1-3-1-1-1 7-1h5l11-1 10 1 1-2-1-2-7 1h-15c-23-1-26 0-22 2l1 3v2h4l4 1h-11c-3 0-4 0-2 1 1 1 0 3-1 3l-1 1h18l-6-1c-2 0-4-1-2-2h14l7 1 4 1 3 1 10 1h15zm-54-9h2l-1 1-1-1zm110 9 2-1 2-1c2-3 0-4-6-1-2 1-3 2-2 3h4zm-149-1 1-1 2-1a84 84 0 0 1 23 2l2-1 1-3c1-1 1-1-8-1l-8 1-1 1-12 1c-2 1-3 3-1 3l1-1zm-109-1h-1v1c0 1 0 0 0 0l1-1zm221 0h10v-2l-1-4-1-3-4 1h-4l1 2 3 1c2 0 4 1 2 2l-10 2 3-3v-1h-2c-1 1-8 2-11 1l-6-1-6 2c-2 0-3 0-2 1h2c2-1 7 0 8 1h5c1 2 2 2 8 2l5-1zm317 0-2-1v2l2-1zm-23-1c1-1 0-3-1-1v2l1-1zm17 0-1-1v2l1-1zm-519-6c0-5-1-6-2-4v9c1 2 2 0 2-5zm326 4v-1 3-2zm167 1v-4c-1-1-1 0-1 2-1 3 0 3 1 2zm-263-3v3-3zm120 0 2-4v-1c1 0 3-2 3-4l-1-2-1 2-2 2-2 3-1 3c-1 3-2 4 0 4l2-3zm160 2h2l-3-1-2 1h3zm-404-2c2-1 2-1-3-1-6-1-9 0-9 1 0 2 0 2 5 1l7-1zm118-2v-6c0-4 1-4 2 1 0 4 1 5 2 2v-5c-1-6-1-6-2-5h-2l-1 11c0 6 1 8 1 2zm11 3h-1l1 1v-1zm-225-2 1-2c2 0 4-3 4-4h-7l-4 5 4 3 2-2zm236 1 6-2 2-2-2-1c-1-1-2-1-9 2-4 2-4 2-3 3h6zm-115 0-1-1v1h1zm209-1c0-1 0-1 0 0v1-1zm-167 0c3-1 3-1-1-1h-14l5 1a755 755 0 0 1 10 0zm31-1c1-1 1-1-4-1l-4 1h8zm123-2v2-2zm-57-2 1-2v-2l-2 7c1 2 2 0 1-3zm72 2c0-2-1-2-1 0v1l1-1zm-240 0a378 378 0 0 0 6-2h-5l-5-1-2-1-2-1c-1-3-3-5-3-3l1 3 1 4c0 2 1 2 2 1h7zm220-2c0-2 0-2 1-1l3 1c2 0 2 0 2-2v-5c-1-2-1-2-8-4l-2-2c1-2-1-2-4-2l-3 2c0 2-2 2-2 0l-1-3-2-1v4l1 3 3 6c0 1 1 2 3 2l3 1 2 2h2c1 2 2 2 2-1zm-6-4v-3c0-1 3-2 5 0l-2 1-2 2c0 2 0 2-1 0zm-5-6 2-1 1 1-2 1-1-1zm-120 11h3-8c-4 0-6 0-5 1h3l7-1zm334 0-2-1v1h2zm-259-2-1-2c-3 1-4 1-3 3l2 1c2 0 2-1 2-2zm-48-2c0-4-1-5-4-3-2 1-2 1-4-1l-4-1h-5l2-2h15v-1l-1-2c0-2 0-2-2 0-1 2-2 2-3 1l-13-1v1c2 0 2 2 0 2l-9 1 1-2v-2l-2 1-3 1c-3 0-3 0-1-1v-1h-3l-4 1-6 1h-11l3 3 2 1-1 1-3 1h35c2-1 11 0 12 1l-4 1-5 1h11l3 1 3 1c0 1 0 0 0 0l1-3zm-49-4h1l1-1c0-2 2-3 4-3l1 3c0 2 0 2-3 2l-4-1zm339 6-3-1v1c2 1 3 2 3 0zm-59-1 3-4c3-2 4-5 2-4l-4 4c-3 5-4 6-2 6l1-2zm-332-2c3-2 3-3 4-1l1 2h5l2-1c-2-1 0-2 5-2h6c4-2-11-4-22-3-6 0-8 1-7 2s-1 3-3 3v1l4 1c3 0 4 0 5-2zm137 0 3-2c0-2-4-1-8 2l-6 2h4l7-2zm274 1-1-1c-2 0-1 1 1 2v-1zm-385-1h-2 2zm11 0 3-1v-2l-1-2v-1l-15-1 3 3 1 1 2 1h2l-3 1c-2 0-2 0-1 1h9zm-6-4h2-2zm198 3c2-2 2-3 1-3l-3 4c0 2 1 1 2-1zm101 0c1-1 2-2 1-4l1-2 6-4c0-2-5-1-6 1-1 1-2 2-2 0l-1-1-3-1-2-2-1 2-2 4 2 2v-2c0-3 1-3 3 0l1 3 2-2 1-1c1 0 1 1-1 2l-1 2-1 3c0 3 1 3 3 0zm-346 0 4-1h2l-4-1-5-1h-2v2l1 2c0 1 2 1 4-1zm-93 0h-1l1 1v-1zm450-1c2-2 2-4 1-4l-5 5c0 1 2 1 4-1zm6-1c2-2 3-3 3-5 1-3-1-3-3 0l-3 4c-4 4-1 5 3 1zm7 2h-2v1l2-1zm-128-2-1-1-1-3c0-2-2-4-4-4l-3 1c-1 2-1 3 1 3 2 1 2 2-2 3l-2 1c0 1 11 2 12 0zm-106 0 1-1 2-2 2-2 4-1c1 0 0-2-3-2l-3 2c-1 2-1 2-4 1l-3 1c0 2 1 5 3 5l1-1zm231 0-1-1-1 1h2zm-237-3-1-1c-1 0-2 2-1 3h2v-2zm21 1c3-1 4-2 2-3-1-1-2-1-4 1-3 3-2 3 2 2zm14 0-3-1v1h3zm208-1c-2-2-3-2-3-6 0-2-2-3-2-1l1 2v2c-1 4 0 5 3 5h3zm35 1-2-1v1l2 1v-1zm10 0h-3l2 1c1 0 2 0 1-1zm-415-1-2-1-2 1 2 1 2-1zm-8-2c0-2 0-2 2-3h3l-2-1-7 1c-2 1-2 1 0 3 2 3 4 2 4 0zm41 1h-3l2 1c2 0 1 0 1-1zm-140-2v-3l-1-1 1-2v-2l-4 6 4 4v-2zm116 2h-1c-1 0-1 0 0 0h1zm-108-5v-6c-2 0-3 2-2 4v4c-1 2-1 3 1 2l1-4zm112 3-8-2c-4 0-3 1 1 2h7zm41-1v-1h-9c-5 1 1 2 9 1zm326 0-1-1c-1-1-2 0-2 1h3zm40-1h-3 3zm-272-1 2-1c2 0 2-1 1-2l-3 1-2 1-1 1c0 2 2 2 3 0zm-126-1h-3l-4-1-1-1-4 1v1l1 1h4c4 1 6 0 7-1zm43 1h-2l1 1 1-1zm12 0h-4l2 1c2 0 3 0 2-1zm10 0 3-1 4-1h3c2 1 2 1 2-1l-2-1h-2l-13-1a226 226 0 0 1-19 0c-1 1 3 2 12 2l10 1c2 1 1 2-2 1-2 0-4 0-3 1h7zm32-1c1 0 1-1-1-1l-2-1-2-1-4 2c-1 1-1 2 2 2h3c2 1 3 0 4-1zm40 0 1-2c-1-1-2-1-3 1s0 3 2 1zm265 0c0-1 0-1 0 0v1-1zm-385 0c2-1 2-1-1-1l-3-1c1-2-2-1-4 0l-1 2h9zm18 0c10-1 6-2-5-2l-11 1c0 1 5 2 9 1h7zm-70-1-1-2c-1-1-1 0-1 1 0 2 1 2 2 1zm223 0 5-1c3 0 5-1 5-2h-2l-4-1c-2-1-9 0-9 2-1 1 1 3 2 3l3-1zm-214-1c2 0 3 0 2-1h-4c-2-1-3 0-3 1v1l5-1zm196 1-1-1v1h1zm46-1 3-1 3-1h-14l-6 2h14zm-131 0c1-1-1-3-3-2-3 0-2 2 3 3v-1zm22 0-2-1-1 1 2 1 1-1zm34-1-1-1v1h1zm8 0c1-1-3-2-4-1l-1 1h5zm27-1-1-4-4-2-5 1 2 1h4l-3 2-5 1 4 1 4 1c3 1 3 0 4-1zm-187-1 7-1 7 1c2 1 4 0 3-1h-17c-2 0-3-1-2-2v-2l-1 2-9 2c-6 0-4 2 2 2h6c3 1 3 1 4-1zm48 1c1-1-2-2-11-2l-10 2h21zm59 0-3-1 2 2 1-1zm272 0s-1-2-3-2-2 1 0 2h3zm5 0-1-1-1 1 1 1 1-1zm11 0-1-3v4l1-1zm-141-1-1-1-1 1 1 1 1-1zm-82 0h-3 3zm46-1 1-2-7 1c-2 0-2-2 0-6 2-3 2-4-1-3l-2 3-1 2c-2 1-1 2 0 2l2 2 6 2 2-1zm-82-1c1-1 0-1-2-1l-4 1h-1l3 1c2 1 4 1 4-1zm29 1 1-1h-4c-4 0-5-1-2-2 4-1 3-2-1-1h-3v2c1 2 3 3 6 2h3zm-94-1 4 1c1 0 2 0 2-2v-1c1-1-3-2-5-2h-21v2l1 2h6c4 1 4 1 4-1s1-2 2 0l2 2 5-1zm32 0c2 1 2 1 1-1l-5-1-6-1h-2c-1 1 0 2 4 2l5 1 2 1 1-1zm13 0-5-1h-5l5 1a771 771 0 0 0 5 0zm285-1v-3l-1 3 1 2v-2zm4 1v-1l-1 1 1 1v-1zm-526-1v-4l-1 2-1 3 2-1zm26 0-1-1-1 1h2zm144 0c0-2-1-2-5-2l-12 1c-6 0-9 0-8 1h25zm199 0h-3 3zm166 0-1-1v1c0 1 0 0 0 0h1zm-292-1-4-1c-3 0-3 0-1 1h5zm-13-1c1-1 1-1-1-1l-2 1h3zm86 0 1-6-2-1-2 1 1 1c2 0 2 1 0 3s-2 3 0 3l2-1zm24 0 7-1 9-1 4-1 3-2c0-1 3-4 4-3 1 0 1 1-1 3l-1 1 1 1c2 2 1 2-3 2-5 0-7 1-3 1 3 1 15 0 16-1s0-2-1-4l-2-4-2-3a64 64 0 0 1-13-12l-4-3c-3-3-3-5-1-5l7 3 4 7c2 0 0-6-2-8s-2-3 1-2c2 0 2 0 0-2-1-2-1-2-4-1l-9 1-7 2v2c0 3-3 4-5 3s-2-2 0-2l3-2 2-2h-3c-4 0-7 1-7 3h-4c-2 0-3 0-2 1h1l3 1 1 1-3 6-3 7c1 1 3-2 4-5 2-4 6-9 5-5l1 1 3-1h4c1 1-1 3-3 3s-2 1-1 3l-3 4c-3 3-3 5-1 5 1 0 3-2 2-3l1-1 4-6 5-5 3-1h2l1 1c2 0 2 1 0 3l-3 6-1 1-2 2v2c2 1 2 2-1 3l-3 2c-1 2-3 1-2-1 1-1 1-1-1-1s-5 2-6 5c-2 3-1 3 2 3l4-1zm31-3 1-1 1 1h-2zm-20-1 1-3c2-2 2-3 1-3l-2 2-1 1 1-4 4-7 5-2v5l-1 2c1 0 1 1-1 1l-3 4c-2 4-4 5-4 4zm6-11-1 1c-1 1-1 1 0 0l1-1zm11 10h2l-1 1-1-1zm-8-1v-2l2-3 2-2v3l-1 3c-1 2-3 3-3 1zm-14-20 1-1 1 1-1 1-1-1zm-212 26-1-1v1c0 1 0 0 0 0h1zm76-2-1-1c-2-1-5 0-5 1h6zm86 0c2-1 0-1-3-1l-3 1h6zm-144 0-2-1-1 1h3zm176-1 5-11v-3l2-3c0-3-2-1-4 3l-1 2-1 2-2 5c-3 5-3 5-2 6s2 0 3-1zm-301-1-1-3-2 1-1 2v1c1 1 3 1 4-1zm134 1c0-2-2-1-3 0s-1 1 1 1l2-1zm148-5-1-14 1-12-1-2v-1l1-1-3-3c-1 0-2-1 0-2v-5l1-5-1-5h-13l-3-1-1-2 3-2 4-3v2c-1 2-1 2 1 1 1 0 3-3 2-5l3-3c3-2 6-5 6-7l7-5a50 50 0 0 0 8-4l3-3c0-2 1-2 2-3l4-3 3-2 3-3 5-7a173 173 0 0 0 11-12l2-3 1-1h-3a345 345 0 0 1-52 2 572 572 0 0 0-25-1c4-1 3-1-3-1-5 0-6 1-6 2v1a952 952 0 0 0-30 0c1-1 1-1-1-1l-4 2c-2 1-4 1-4-1l-5-1c-4 0-4 0-5 3l-1 4-1 2c-1 1 0 2 4 2l3-1c1-1 0-2-3-2h-2l1-1 3-1c1-2 3-2 3-1h14l2-1 1 1h7l2-1 4 1c2 0 3 1 2 2h-4l-4 1h-3c-1 0-2 0-1 1l2 1c2 0 2 2 1 2h-2l-1-1-3-1c0-1 0-2-2-2s-2 0 0 1v2c-1 1-2 0-2-1 0-2-1-2-7-2l-5 1 1 1c0 2 0 2-2 3h-7c-4 0-5-1-5-3l-2-1-7 1c-6 0-6 0-6 2s-1 2-2 1v-3c1-2 3-3 5-2l3-1 1-2h-6c-8 0-10 0-7-2 2-1 2-1 1-2-2 0-5 1-7 3l-3 1-1 2c2 1 7 2 10 0 3-1 3-1 3 2 0 1-1 2-2 1-2 0-4 2-2 3a2222 2222 0 0 0 0 2l-4 1-5-2 2-1 4-1 1-2h-4l-3-1h-6c0-1 0-3 2-3 1-1-4-1-13-1-16 0-18 0-17-2v-1l-1 1-1 2-1 3 1 5c0 2 0 2 2 1v-3c-2-4-1-5 3-3l3 3 1 3 5-3c1-2 2-3 3-2v5l-4 2-4 2c0 2 1 2 2 3 3 0 3 2 0 4l-1 1 4 2 2 1c2 0 2-1 0-2v-1c1-2 2-2 3 0 1 1 2 1 2-1l2-1 1 1-2 3-1 3v2c-1 1-1 3 1 3 4 1 4 1 2 3l-2 3v2c-1 1 0 1 2 1l4-1c2-1 2-1 4 1l4 1c2 0 2 1 1 2h-5l-7 2 1 1c2 0 4 0 6 2h5c1 2 3 2 3 1l1-1 1-1c-2-1-1-3 0-3l3 2v6c2 0 2 0 0 1l-4-1h-5l-5-1c-2-2-4-2-6 0h-4v-1c2-1 1-2-1-1l-1-1 1-1 1-1-1-3c0-2 0-2-1-1-2 0-2-1 0-3l1-2c0-2-3-2-10-1-2 0-1 1 1 1s3 1 2 4c0 3 0 3 2 3 3 0 3 1 2 3l-1 2-1 1-3 1h-10c-1 1-2 4 0 6h4l-1-2-1-1 8-1 13 2-4 1h-6l-2 1 3 2c3 2 3 2 4 0 1-1 2-2 3-1h3l3 2 2 2c1 0 2-1 1-2s1-4 3-4h2l3-1 4 1 1 1 2 1 4-3 2-2-3-1-2-1c1-2 24-2 26-1 1 1-1 2-4 2-4 0-4 0-3 1s2 2 3 1h2c1 1-1 2-5 3l-4-1-1-2 2-1v-1h-8c-2 0-2 1-2 2l-3 6 2 1 4 1c2-1 1 1-2 4-2 2-2 3-4 2h-3c-2-1-2-2 1-2l6-2-10-1h-10l-2 3-4 2h-1l3-4h-4l-6-1h-5l-7-1-4-1c-4-1-6-2-6-4s-1-2-3-2h-2l1 3c0 3-1 5-2 3h-1c-1 1 0 3 2 3l6 1 7 1 5 1c2 0 3 2 1 2h-5l-4-1h-2v2c-2 1-3 0-3-2l-1-1c-1 0-2 0-1 1 0 2-1 3-5 3l-3 1-1 3-2 1 4-1 2-1 1 4c0 3 0 3-2 4-3 1-4 1-3 3v2a1350 1350 0 0 0-6-1l2-2 1-3-2-3c-2-1-1-3 2-5l2-3h-5c-4-1-5 0-5 1-1 1-1 2 1 1s2-1 1 1v3c2 2 1 3-4 2l-3 1 2 1h6l3 1-2 1-2 1h-2l-1 1 2 1c2 0 2 1 1 3l-2 2c0 1-1 2-3 1l-2 1 2 2 2 1-3 1-3-1v-4l1-1 1-2h1-4l-1 1c0 2-1 2-3 2l-2 1 4 2 1 2v1l-1 1c-1 2-3 2-3-1 1-1-6-2-7-1s-1 1 1 2l3 2v1l-6-1-7 1-1 2h1l2 2c0 3-1 4-2 3s-3-1-5 1c-2 1-2 3 1 2l7-1 6-2c2-1 1-2-1-1s-2 1-1-2c0-1 0-2 2-2l2 1 2 1 4 2h-4c-1-1-1 0-2 2 0 2 11 0 12-1l-4-3v-1l3-1 3-1-2-2v-2l2 1c2 1 3 1 3-1-1-1 0-1 1-1 2 0 3 0 3 2 0 3-2 5-5 5h-3l2 1c4-1 4 0 1 1l-2 1c0 2 4 3 10 3 3 0 3 0 2-2l1-3c2-1 2-1 2 2s0 3 2 2c1-2 3-1 3 0s1 2 3 1a7604 7604 0 0 0 50 0l5 1h5l15-3h2l-1-2h14c6 0 7 0 6 1v1h13c3-1 4 0 12 2h10c6-1-1-4-10-4h-5l4-2c2 0 2-1 0-1l-4-2h8c1-1 0-4-1-5-2-1-1-2 1-2 3 1 3 2 3 4v2h1c2-2 2-2 3 1 0 2 0 2 4 2s4-1 2-2l-2-2h7c7 0 9 1 3 2-5 0-6 1-5 2 3 1-1 2-7 1-5 0-7 1-3 2h4c1 0 3 0 5 2l4 2 7-1 8 1c0 1 0 2 2 1 3 0 3 0 4 2l2 1v-5zm-110-1v-2l5 2h-5zm-70-1 1-1 1 1-1 1-1-1zm52-2-4-2-6-2c-5 0-5 0-6 2 0 2-2 2-2 0s0-2-5-2c-8 0-9 2-1 3l3 1c-1 1-12 0-14-1v-2l3-2 2-2h10l11 1 9 1c7 0 9 1 6 2-1 1-2 2 0 2l-1 1c-1 2-2 2-5 0zm108 1c-2-1-3-1-2-2h2c3 1 3 3 0 2zm-122-1-1-1c1-1 7 0 6 1h-5zm25-1 1-1 2-5c-1-1 1-2 3-1h4l5 1c2 1 0 2-2 1l-7 1c-1 2 0 3 4 2l6 1c3 1 5 0 5-2s0-2-2-3c-2-2-2-3 0-2h5l3 1-2 1c-2 0-2 0-2 3 0 4 0 4-11 4h-10c-1 1-2 0-2-1zm40-1h-6c-7 0-10-1-6-2 3-1 12-1 13 1l4 1 3-1c1-2 2-1 2 1l-3 1-7-1zm62 0v-3c-1-2 1-2 2 0 1 1 4 1 5-1l1-1 1 2c2 2 1 2-3 3l-3 1h-2l-1-1zm-158-1-3-1-3-1v-2l2 1h3l3 2c1 2 0 3-2 1zm113 1h1l-1 1v-1zm4-1c-2 0-2-3 0-3l2 3h-2zm-113-2v-1c1-1 6 0 6 1h-6zm100-1-1-2v-2l-2-2-2-1h4l5-1h2c0 2-1 2-3 3l-2 1 4 1c5 0 6 1 3 1l-5 2h-3zm-56 0c-2-1-4-2-4-4h-8c0-2 6-3 12-2l6-1h2v2h-3l-2 2v3h-3zm0-4h-2 2zm39 2c-4-2-3-3 0-2 3 0 4-1 2-2-1-2-1-3 1-3h1l-2-1c-2 0-4-1-3-3h2l4 1c4 0 4 0 5-2v-2l-4-1h-1c0 1-2 1-3-1l-1-1v2l-2 2-7-2v-3c1-2 1-2 2 0 1 3 3 3 4 1s1-2 4-2c4 0 4 0 2-2-3-2-1-4 3-2h16c1 1 0 3-2 3s-3 3-1 4h2l2 1-5 1-5 1v1c-1 1 0 1 3 2h4c1 1-1 2-4 1h-5l-3 2c-2 0-2 1-2 2 1 1 0 2-2 3l-3 3-2-1zm14-17h1c2-2 2-3-1-3-4-1-5 0-5 2s0 3 2 1h3zm-7 18 1-2 1 1-2 1zm44-1c-3-1-2-3 1-2l3 1c0 1-2 2-4 1zm21 0c-2 0-1-1 1-1l4-1 2 1-3 1h-4zm-40-1c-1-1 1-1 2-1v1h-2zm31 0c-2 0-3-2-2-3l2 1 1 3-1-1zm-159-1-1-1 2-1h3l-1-2-1-2h3l3 2h4v-1c0-1 1-2 5-1l6 2 2 1h10c0-2-2-2-5-2-5 0-6-2-1-2l1-1h-2l-4-1-5-1h-3c0 2-1 2-2 1l-1-2 7-1 8-1 3-1c2 0 2-1 0-2v-4l2 2 2 4c-1 1-1 4 1 4l1 1 1 1 1 1c1 2 4 2 4-1l1-2 1-1 1-1c-1-1 0-2 2-3h3l1 1c1-1 2 0 2 1l1 1 2-2 2-2v2c1 2 1 2 3 2s2 0 3-2 2-3 3-1h5l3 1 1 2v-5a632 632 0 0 0-17-3l6-1h-4c-7 0-10-2-3-3l4-1 6 3c1 2 1 2 5 2h6l2-1c2 0 1 3-1 4-2 2-1 4 1 3 2 0 2 0 3 2 0 2-1 3-4 3l-6-1-6-1h-3l-8 1h-8l-2 1-1 3v2h-2l-5 2-3 2h-2l-8 1c-8 0-10 0-9-2l-6-1c-5 0-6 1-4 2v1l-8-1zm15-4h-1v1l1-1zm20-4h-1v-2l-1-1-1 1v2c-1 1 0 1 1 1l2-1zm44 7h-5c-5 0-5 0-6-2l-2-1a1255 1255 0 0 0-11-3h10l3 1c2-1 3 0 2 2l5 1 6 1v1h-2zm44 0v-2c0-2 2-1 2 1 0 1-1 2-2 1zm9-1c-2-1-2-3-1-4h2l5 1 5-1-3-1c-3 0-5-1-5-2h7c7 0 7 0 9-2s2-2 3 0 4 3 5 1c0-2 2-2 2-1l-1 3 8 2 3-1 1-2c2 0 2-1-1-1l-3-2-2-1c-2 0-2-1-1-3h3c2 0 2 0 2 2-1 2-1 2 2 2s5 1 4 4l1 3h-1l-3 1h-8l-5-1c0-1-1-2-3-2-8-1-11-1-11 2 0 2 0 2-2 2h-4c-2-1-3 0-4 1-2 2-2 2-4 0zm17 0v-2c1-2 2-1 3 0v2h-3zm-64-1-2-1 2-1-4-1-3-1 5-1 5-1c2-2 4-2 3 0v7l-6-1zm-11-3c-2 0-2 0-1-2h2l1 3-2-1zm45-1v-3l1-1 1 1v3h-2zm10 0c-2-1-2-4 0-4 1 0 2 3 1 4h-1zm-89-4c0-1 1-2 1 0l-1 1v-1zm99-1c-5 0-6-1-5-3l1-1c1 2 2 1 1 0-1-3 0-4 2-4s3-2 1-2c-2-1-3-3-2-3l4 2 1 2c3 2 2 3-1 3l-3 1c0 2 1 3 4 3h3c2 1 2 2 0 2h-6zm-16-2c-2-1-2-1-1-2l2-1 1 2v3l-2-2zm52 1c-1-1 1-2 2-2v2h-2zm-26-2 1-2v-1c-1-1 0-1 5-2l5 1h-1l-3 1-2 1-2 2-2 1-1-1zm7 1v-2l5 2h-5zm-132-1-4-1c-4 1-7-1-4-2l1-1c1-1 8 0 7 1l2 2 3 1h-5zm14-1c0-2 4-5 5-4 2 0 2 2 0 3l-3 1h-2zm133-2-1-1 5 1c1 0 1 1-1 1l-3-1zm-82-1h-2c-1 0-2-1-1-2h1l2 1 2 1h-2zm35 0c-1-1-1-1 1-2 2-2 3-2 3 0l1 1 1 1h-6zm38 0v-1l1 1h-1s-1 0 0 0zm-125-2c-2-2-2-3 0-4l5 2-2 1-3 1zm-11-1c-5 0-5-1 1-2 4 0 6 1 6 2h-7zm24 0c-1-1-1-1 1-3s3-1 2 2c0 2-2 2-3 1zm25 0v-3l2-2c-1-1 0-1 1-1l2 1c-1 1 0 2 1 2l1 2-7 1zm15 0-1-1 3-2h4l2 1c1 1-1 2-3 1h-2l-3 1zm55 0c-1-1-2-3-1-5s2-2 3 1c0 3 0 4-2 4zm9 0c-4-1-3-2 3-2l4 1-7 1zm-48-1h-2c-2 0-3-2-1-3v-2c-2-2-1-3 1-3 1 0 3 3 2 5l4 1 3 1-7 1zm25 0c-1-2 0-4 1-4 2-1 2-1 2 2 1 2 0 2-1 2h-2zm-88-1 2-1 1 1h-3zm77 0c-1-1 1-2 2-2l3 2h-5zm44 0v-1c1-1 2 0 1 1h-1zm-48-2 1-2 2-1c2-2 2-2 2 0l-1 2-2 2c-1 1-2 1-2-1zm50 0 3-3v3c-1 2-3 2-3 0zm-11 0c-3 0-4-1-2-2h7c0 2-1 3-2 3l-3-1zm16 0v-1l2 1h-2zm-112-1v-2c2-2 4-2 4 0l-1 2h-3zm-19 0-1-2c0-2 2-2 3 0 0 2 0 3-2 2zm47 0c-1-2 1-4 2-4l1 2-1 1c0 2-2 2-2 1zm9-1 2-2c1 1 0 3-1 3l-1-1zm31 1v-2c1-1 4 1 4 1l-4 1zm-15-2 1-1-2-1a32 32 0 0 1-6 0l-1-1 4-1 5-1c1-2 2-1 2 1l1 2c1 1-1 3-2 3l-2-1zm23 0 1-1v2l-1-1zm-114-3 2-2c2 0 3 2 1 3l-3-1zm134 0c-3-2-2-2 3-1l5 1c0 2-6 1-8 0zm-75 0 1-2c2 1 2 2 0 2h-1zm37 0c-1-1 1-2 3-1l-1 1h-2zm-29-1c0-1 1-4 3-4v3c-2 2-2 2-3 1zm6 0 4-3c3-1 4 0 3 2 0 1-1 2-3 2l-4-1zm37 0c-2-1 1-2 4-1 3 0 4-1 4-2h-20l2-1h5l5-1c2 0 2 0 0-1-2 0-2-1 0-2 2-2 4-1 4 0s1 2 3 2l2 1 3 1c3 1 3 2 1 2l-4 2h-9zm-54-2 2-1c1 0 1 2-1 2l-1-1zm-30-5c0-3 1-4 3-2v3c-2 2-3 2-3-1zm47 1c-1 0-1-1 1-1l2 1c0 1-3 2-3 0zm9 1c-2-1-3-4-1-4 1-1 4 2 4 3l-3 1zm14 0-2-1c-3-1-1-4 2-4 2 0 3 0 3 2v2l-3 1zm42-1h2l-1 1-1-1zm-20-1c-2 0-1-1 2-1l6-1 3-1v2c-2 2-3 2-6 2l-5-1zm13 0 1-1v2l-1-1zm5-1h2l-1 1-1-1zm-51-4-2-1 7-1 7 1c0 1-7 2-12 1zm-9-1 2-2v3l-2-1zm26 0v-1l1 1-1 1v-1zm25 0c-6 0-7-1-6-2v-3c-1-1-1-1 2-1l2 1c-1 2 1 3 7 3l5 1-10 1zm-22-1 1-2 4 2h-5zm10-1v-2c1-1 4 1 4 2h-4zm-55 0c-2-1-3-3-2-3 3 0 8 2 8 3h-6zm81 0 1-1 1 1-1 1-1-1zm-90-1c-1-1-1-2 1-3l3-1c2-1 2 0 0 3-2 2-2 2-4 1zm93 0 1-1v2l-1-1zm-70-1 1-1 1 1-1 1-1-1zm10 0c-2-1-1-2 1-3l4-2h2l1 2c2 2 1 3-3 3h-5zm16 0 1-3 1-1c0-1 1-2 2-1v2l-1 2-3 1zm-36-1v-2l7 1-7 1zm45-1 2-1 1 1-1 1-2-1zm-35 0c-1-1 1-3 2-3l-1 4-1-1zm44 0 1-2h1c0 1-1 3-2 2zm12-1v-1c1-1 4 0 4 1h-4zm11 0v-3l1-1v1c0 2 2 3 4 1l3 1 2 1h-10zm-104-2 1-3 1-2 6-3v2l-3 1-2 2c0 3-2 4-3 3zm5 0c-1-1 0-1 3-1 2 0 2-1 2-2l2-1c2 0 2 2 0 3l-4 1h-3zm17-1 1-1 1 1h-2zm9-1-1-2-1-1h4c2 2 3 2 4 1s3-1 3 1c0 1-1 2-5 2l-4-1zm16-1 1-1 1 1-1 1-1-1zm9 0c-1-1-1-2 1-2l1-1c0-1 1-2 3-1 1 0 1 1-1 3-1 2-3 2-4 1zm50 0-1-2c-4-1-2-2 3-2l6 1c2 1 2 1 0 1h-3l-3 1c0 2-1 2-2 1zm-41-1c-1-1 0-1 4-1s6 1 4 2c-1 1-7 0-8-1zm28 0v-1c1-1 3 1 2 2l-2-1zm-102 0c-2 0-2-1-3-3 0-3 0-4 2-4l2-1c2-1 0-2-3-1-2 1-4 0-4-1l2-1 3-1 3-1c4 0 8 2 5 3l-3 2v3l2 1c0 2-2 2-2 1h-2c-2 1-1 2 1 2l3 1h-6zm53 0c-1-1 2-4 3-3l-1 2c-1 2-1 2-2 1zm43-1c-1-1 1-3 2-3 2 0 2 1 1 3s-2 2-3 0zm-11 0v-1c0-1 3-2 3 0 0 1-2 2-3 1zm43-1v-1l1 1-1 1v-1zm-98-2c-1-1 1-2 4-2h3l1-2 1 1c0 2 1 1 2 0 1-2 2-2 2 0l1 2c1 1 1 1-7 1h-7zm-22-2c0-2 0-2 3-2 3-1 4 1 2 1l-2 2c0 2-2 1-3-1zm57 0 2-1v2l-2-1zm6 0 1-1c2 0 2 1 0 2l-1-1zm-11 0v-1c1-2 3-2 3 0l-3 1zm25 0-1-1c0-1 2-2 4-1v2h-3zm14 0v-2c0-2 2-2 3-2 1 1 0 2-1 2l-1 1-1 1zm-21-2 1-1 1 1-1 1-1-1zm37 1c-1-1-1-2 1-2l1 1c0 1-1 2-2 1zm6-1 2-2 1 1c-1 2-3 3-3 1zm18 0 1-1h1l-1 1h-1zm-90-1-1-2c2-2 5 0 5 2s-2 2-4 0zm59 0v-1l3 1h-3zm22 1 1-1 1 1h-2zm-110-2c-1-1 1-2 3-2l2-1h1v3h-6zm44 0v-2l-3-1-4-1-1-2 2-1v1c0 2 2 2 13 2l9 1c-1 2-5 2-6 1h-5c-2 2-5 3-5 2zm-51-1v-2l4 2h-4zm74 0 7-3c2 0 3 1 2 2l-9 1zm14-2 1-1h2l2 2h-3l-2-1zm24 0c-1-1 0-1 4-1s5 0 4 1h-8zm-11-1 1-1c1-1 1 0 1 1h-2zm-113-1-1-2h2l2 1c2 0 3 0 3-2 1-1 2-1 3 1l1 1c3 1 0 2-2 1h-8zm19 0c-4 0-5-1-4-3s3-1 3 0c-1 2-1 2 2 2l2-2c1-3 1-3-3-3l-3-1 6-3 1 2 1 2c0-2 1-2 3-1 1 0 1 2-1 2l-1 1c1 4-1 5-6 4zm12 0-2-1 3-1c2 0 3 1 3 2h-4zm76 1v-2l1 1-1 1zm13-1 1-1 1 1h-2zm-76-1 7-2 1 2h-8zm35-1c-1-2 1-3 2-1l2 1h-4zm-18-1v-1c1-1 3 1 3 2-1 1-3 1-3-1zm11 0c0-2 1-2 2-1 2 1 1 2-1 2l-1-1zm17 0c-1 0 0-2 2-2l1 1-3 1zm51 0-8-1c-8 0-12-1-9-2h4c1-2 3-2 3 0l7 1 4-1 1-1 1 1 1 1 3-1c4-1 3 1-1 3h-6zm-100 0c-9-1-8-2 0-2l4-1c0-2-1-3-3-2-3 2-9 2-10 1 0-1 1-2 4-2l5-1h2l3 1c2 1 3 1 3 3l-1 3h-7zm57 0c-1-2 0-3 3-2 5 0 5 1 0 2h-3zm-109-1c-3-1-4-3-2-5l3 1 3 2c2 1 2 2 0 2h-4zm12-1c-3-1-4-2-3-3s1-1-1-2h-2c-2 0-3-1-3-3v-5h3c1 1 2 3 1 4-2 1 1 2 4 2l3-1c1-2 3-2 3 0l-4 3-1 1 4 3c1 0 1 1-1 2l-3-1zm110 0c0-1 1-2 2-1l-1 2-1-1zm-102-1v-3l3 3h-3zm44-1c-1-1 0-3 1-3v3h-1zm33 0v-2c2 0 3 1 3 2h-3zm49 0 1-1c1-1 2 0 1 1h-2zm-105-1c-1-1-1-2 1-2v3l-1-1zm29 1v-1l-1-1-2-2 3-1 3 2h5l4 1h3v1l-15 1zm36-1 1-1 1 1-1 1-1-1zm18 0 4-1 5 1-5 1-4-1zm-11-1h3l-1 1-2-1zm29-1c-2-1 0-2 8-2l8-1h4l2 1 3 1c0 1-2 2-3 1a124 124 0 0 0-22 0zm-52-1h1l-1 1v-1zm3 0 1-1h1l-1 1h-1zm-55-1-2-1 3-1h4c2-2 3-1 3 0 0 3-3 3-8 2zm43 0h2l-1 1-1-1zm42 0 7-1h7c2-1 3 0 1 1h-15zm44 0h3l-1 1-2-1zm-102-2 2-1c2 0 2 2 0 2l-2-1zm25-1 1-3 2 1 3 1c3 0 1 2-2 2l-4-1zm10 0 1-1h2v2c-1 1-3 0-3-1zm20 0-1-1h9l-4 1h-4zm22 0 1-1 1 1-1 1-1-1zm-151-1c-1-1-1-3 1-3l2 1c1 2-1 4-3 2zm169 0-3-1c1-1 12 0 12 1h-9zm-54 0v-2c1 0 3 1 2 2h-2zm8-2c-1-2-2-2-5-2h-5l6-1 3-1h3v5l-2-1zm21 1 1-1 1 1-1 1-1-1zm-38-2-1-1c0-2 3-2 4 0 2 1 1 2-3 1zm23 0c-1-2 1-2 4-1 1 0 2 0 1 1h-5zm27-1v-2l1 1v1h-1zm-21-2c-2-1-2-2 0-2l4 3c0 1-2 1-4-1zm11 1c-1-1 1-1 3-1 1 1 0 2-1 2l-2-1zm23 0c-1-1 0-2 1-2v2h-1zm13 0c-4-1-4-1-3-2l9 2h-6zm-18-2c-1-1 0-2 1-1v1h-1zM29 215c4-3 4-5 3-9 0-3-1-3-2-3l-2 1 2 1c2 0 1 2-1 6l-2 4-1 2c-2 2 1 1 3-2zm11 2-1-4c-1-3 2-4 3-2 0 2 0 2 1 0 0-2 0-3 1-2s3-2 3-4l-4-1c-5 0-5 0-5 5 0 2 0 3-2 4l-2 3c0 2 4 2 6 1zm495 0c0-1 0-1 0 0v1-1zm-477-1c3-1 3-2 0-1h-4c-1-1-1-1 4-2 3-1 4-2 5-4 2-3 1-3-3-2h-4v-2l-1-2c-2-2-2-2-3-1v3l-1 4v4c2 5 4 5 7 3zm11-1-2-2h-3c-2 2-2 2 1 3h3l1-1zm136 0c1-1-1-2-3-2-3 1-3 2 0 2h3zm32 0h-1 1zm37 0h-2 2zm71-2c2-2 1-3-1-2-1 1-2 0-1-2v-3c-1 0-3 2-3 4l-1 2v1l2 2c2 1 2 1 4-2zm-89-1v-1h-6l-8 1 1 1c1 1 4 2 8 1 3 0 4 0 5-2zm240-1-1-7c-1-5-2-7-3-4l1 2v5l1 4 1 2 1 2v-4zm-471 0-1 1h1v-1zm393 1-2-1-1-1 2 3 1-1zm120-1c0-2 0-3-1-2l1 4v-2zm-176 1 2-1 1-3 2-4 2-3 1-1c0-1-2-2-3-1l-8 13h3zm0-4v-1l2 1h-2zm174 2-1-2v4l1-2zm-513-2c-1 0-2 0-2 2h1l1-2zm431-4 7-10 1-5h-4c-8 0-9 0-10 2v4c1 3 1 5-1 5l-1 4c1 2 1 1 1-2 0-2 2-3 2 0 0 2 2 2 2-1v-3l-1-2h2l1 1c1-1 1 0 1 1l-3 7c-2 1-2 2-1 4l1 2 2-3 1-4zm0-9 1-1v2l-1-1zm-118 13v2-2zm97 0-1-1v2l1-1zm-38-6-1-8-2-12c0-2 0-3-2-5s-2-3-1-6 2-3 2 0 2 4 3 3l1-5-1-7h-1l1-1 1 1h1l1 4c0 2 1 3 2 0l1-2c1-2 0-3-1-3l-2-1c0-1 2-2 3-1l4 1 3-2v-2h-2c-1-2-2-2-4 0l-3 1h-4l-3 1c-3-1-4 0-2 2 1 1 2 1 1 3l-2 3v-1l-1-2c-1-1-2 0-3 1l-3 1c-1-2-1-2-3 0h-1c-1-1-3-1-4 1v2h8v2c-1 2 0 2 1 3v1l-3 2h-5c-2 2-2 0-1-2l1-3c-2-2-3-1-4 3l-1 3 2 1 1 2 1 3 4 1c2-1 2-1 1-2-2-1-2-2 0-2l2-1c0-1 0-2 4-1h6c1 2-1 2-4 2l-5 1c-1 2-1 2 1 2l9 1c1 1 0 3-1 3l-2 1c-1 1 0 1 1 2v1l-1-1c-2-2-2 0-1 2v4l2 1c2 0 2 1 2 2l2 5 1 3v1l1-6zm-5-9h1v2l-1-2zm0-26 2-2c1-1 2-1 1 1s-3 2-3 1zm135 39v2-2zm-185-1v-3l2-4c2-2 3-2 4 0l1 1 1-1c3-3 2-4-2-4-3 0-4 0-6 3-2 2-2 2-2 6s1 5 2 2zm72 0-1-4-1-1 1 4c0 3 2 3 1 1zm24 0-1-1c0-1-2 0-1 2 0 1 2 1 2-1zm-418-1h-4c0 1 4 2 5 1l-1-1zm372-1c0-3-2-5-2-5v5c2 3 3 3 2 0zm32 0c-1-1-2 0-2 1l2 1v-2zm-76-1v-3c-1 0-4 3-3 4 1 2 3 1 3-1zm171 1h-1l1 1v-1zm18 0c0-1 0-1 0 0v1-1zm-96-1-1-1-1 1 1 1 1-1zm-330 0 4-5 2-4c3-2 3-4 1-5-2 0-3-2-4-3-2-2-2-2-2 0-1 2-3 1-3-1s0-2-6-2c-1 0-2-1-2-3l-4-3-2-3-1-2-3 1-3 4-1 4v5l3 3 2 2 2-1c2 0 4-1 3-2s1-2 4-2c2-1 4 0 5 2 0 0 1 2 3 2l2 3c-1 3-3 4-4 2s-4-5-6-5-2 1-2 2l2 3 4 5c0 2 2 4 4 4l2-1zm9 0-1-1-2 1h3zm309-1-1-2-1 1v2h1l1-1zm-384 0-3-2c-1 1-2 2-1 3l4-1zm20-2c5-4 7-6 7-8 0-1 0-2 2-3l3-3 1-3c0-2 1-3 2-3l-1 10v2l6-2-1-2-1-5v-4c-1-1 1-2 2-2l-1-2h-3l-5 5c-5 3-5 4-5 6s-1 3-5 6l-1 3c-1 2-1 2-2 1-2-2-2-2-4 2v3c1 2 1 2 6-1zm270 0c0-3-1-3-2-1 0 2 1 3 2 3v-2zm87 1h-2l1 1 1-1zm13-1h-1v2l1-2zm4-1h-1l1 2h1l-1-2zm85 0-1-1-1 3c1 1 3-1 2-2zm6 1v-1l-1 1c0 1 0 2 1 0zm-125-2v-2 3-1zm95 1h-1l1 1v-1zm18 0h-2l1 1 1-1zm-467-1c0-2 0-2-2-3l-4 1 2 2c2 2 3 2 4 0zm70 0c0-2-1-2-2-1v2c2 1 2 0 2-1zm279-1-1 1h1v-1zm-272 0h-2l-1 1 3-1zm210-3-1 1 1 2v-3zm81 2v-1l-1 1c0 2 1 1 1 0zm115 1v-4l-2 3c0 2 0 2 2 1zm-452-3c1-1 1-1 0 0h-3l-2 2 5-2zm440 1c1 0 0 0 0 0h-1l1 1v-1zm-499-2 1-7-3 3c-2 2-3 3-2 4 0 1 3 2 4 0zm37 0 3-2 2-1h-3c-3 0-4 1-4 3 1 1 3 2 2 0zm357 0h3c1 1 2 0 1-3h-3c-2-2-2-2-3 0l-1 4 3-1zm-369-1 2-3-4-5c-1 0-3 7-2 8 0 2 0 2 4 0zm80 0 1-1c-1-1-3 0-3 1h2zm304 0v-1l-1 1h1zm35 0v-1l-1 1h1zm70-2v-4 4zm4 1v1c0 1 0 1 0 0v-1zm-406 0-2-1h-1c-1 1 2 2 3 2v-1zm266-5-2-3-1 2c0 2 0 4 2 6 1 1 1 1 2-1 1-1 1-1-1-4zm-370 3c2 0 2-1 2-2v-2l-5 4c0 2 0 2 3 0zm111 0h-3l1 1 2-1zm268 1h-1 1s1 0 0 0zm125-4-1-4-2 1c-1 1 0 2 1 3l2 1-2 1-1 2h1c1 0 2 0 2-4zm-200 2v1s0 1 0 0v-1zm139 0h3c2 0 3-2 2-3s-1-2 1-3l2-2v-1h-2l-2 1c-2 2-2 3-1 4s0 1-3 1h-2l1-4 2-5v-1l-2 1-2 2v2l-1 3-1 4-1 2 6-1zm-346 0-2-1c-1 1-1 2 1 2l1-1zm9 0h-1v1l1-1zm206 0v-1l-1-1-2-1-1-2-1-6-1-2c-1 6 0 12 2 13h4zm-240 0h-3 3zm306-1c2-2 2-4 1-4l-2 1-1 3c-1 2-1 2 2 0zm16 0v-5l-1-4v-3c-1 0-2 9-1 10v3c1 1 2 0 2-1zm-357-1-3-1c-3 0-4 2-2 2 3 1 5 0 5-1zm-29 0 2-11c0-2 0-2-1 0l-1 3-1 5c-2 3-2 4 0 4l1-1zm18-1c4-3-1-7-5-4-2 1-2 1-1 3 1 3 4 3 6 1zm378 0-3-1 3 2v-1zm-315-2 1 1v2l4-4 2-4v-2h-8c0-1-1-1-4 1-2 1-2 2-3 1l-3-5-1-3c-1-3-2-3-4 0-2 4-3 7-2 9s1 2 4 2h7c1-1 2 0 3 2l1 3 1-2 2-1zm232 2 1-2v-2c1-2 0-2-1 0l-2 2 1-2v-2l-2 1-1 2c0 2-1 3-2 3l2 1 4-1zm11 0 4-1 2-1 2-1h-9l-2 1c-1 2-2 1-2-1s-2-3-2-1l-1 3c-1 1 1 2 3 1h5zm-204 0c0-1-1-2-2-1l1 1h1zm358-2c-1 0-2 1-1 2h1v-2zm20-3v4-4zm-521 4v-2l-1 1 1 2v-1zm118 0v-1l-2-1c-2 1-3 1-1 2h3zm270-2-1-1-1 2 1 1 1-2zm15 0-1 1 1 1v-2zm-382-1c-1-1-2 0-2 1h1l1-1zm310-1 3-3c2 0 4-2 4-3l-3 1h-2c-1 0-3 2-3 5l-1 1v-1l1-5-3 6c0 2 4 1 4-1zm-283 0v-1h-3v1c2 2 4 2 3 0zm80 0v-1c-1-1-3 0-2 1h2zm390-1v-4c-1 0-4 3-4 5 0 1 2 1 4-1zm-165-1 2-5 1-4-2 1-2 2-3 3 2-1c1-1 1-1 1 2v4l1-2zm-298-2h-2c-2 2-2 3-1 3 2 0 3-1 3-3zm-26 0v-3c-1-1-1-1-2 1l1 5 1-3zm437 0h-1l-1 2h1l1-2zm-44 0-1-3-1 1v3l1 1 1-2zm-386 1 4-1 3-1c2-2 2-2 1-3v-2a19988 19988 0 0 0 4-11c0-3 2-5 6-5 4-1 5-3 4-6 0-3-2-6-3-6l-6 5-1 2-1 4c-1 3-3 8-5 8l-2 2-4 6c-4 3-4 3-4 6 1 3 1 3 4 2zm-22-2 1-7c-1-1-2 0-2 1l-1 3v4c0 1 1 1 2-1zm107 1h-2 2zm-65-5-1-3c-1 0-2-1-1-2l2 1 4-1v-2h-9l-2 10v2l3-2 4-3zm-37 4 1-1 1-5c2-3 2-4 0-4l-3 3v4l-1 4 2-1zm306-2v2c0 1 0 1 0 0v-2zm-265 0-1-1-1 2v1l2-2zm445 1h-1v1l1-1zm-404-1 3-1 5-2 2-2h-2l-3-3-1-2-2 1c-2 2-2 2-3 1-2-1 1-3 3-3l2-1c0-3 1-2 3 1l2 4 3 1c0 2 5-1 6-4l1-4v-2h-6l-5-1h2l2-2 3-1h4v-1l-1-2c0-1 2-2 3 0 1 1 3 1 3-2l1-3c1-1 0-1-2-1l-8 1v6l-9 2 2-2c2-1 1-3-2-2-2 1-2 0 0-2l2-3h2l10-2 3-1 4-1c2-1 2-4 1-5s-2 0-3 2c0 2-2 2-4 0h-3c-2 2-5 2-7 0h-2l-6 4-5 10v2l4 1c3 1 5 2 3 3h-3c-5-3-8-3-11-1l-4 2h-1l1 2c2 2 2 2 5 1h3l1 1-3 1c-3 1-5 2-2 2l2 2 3 1h1a359 359 0 0 1-1 5c1 1 2 2 4 0zm-8-16h7l-5 1c-3 0-3 0-2-1zm14-15c-2 0-2-2 0-2h2l2 1c0 1-2 2-4 1zm14 31c2-1 2-1 1-2-2-2-3-2-5 1-1 2 0 3 4 1zm24 1c1-1 0-3-1-3-3-1-4 1-2 3h3zm203-1v-3l-1-2-1-1-1 2c-1 1-1 2 1 3l3 2-1-1zm17 0v-1c-1-2-4 0-3 1 0 2 2 2 3 0zm34 1h1c1 1 1 0 1-2-1-3-4-2-4 1 0 1 1 2 2 1zm119-2v-2l-2 1c-2 2 0 4 2 1zm-444-2 4-4 3-2c0-1 1-2 3-2 2-1 2-2 1-2l-2-1c-1-3-4-5-7-4-3 0-5 1-4 3 0 2 0 3-4 7s-5 6-3 6l5 2 4-3zm63 2v-2c-1 0-3-3-2-4l-1-1c-1-1-6 1-6 2h2c3-1 3-1 2 2v4l5-1zm197 0h-4 4zm-206-1v-1l-2 1h2zm198-1-1-1c-1 0-2 1-1 2l2-1zm26 0c1 1 2-1 2-2h-1l-2 1-2 1 1 1 2-1zm-267-1c2-2 1-5 0-5l-3 2-1 3v1c3 1 3 1 4-1zm415 0h-1v1c0 1 1 1 1-1zm-160 0-2-2-1-2h7c4 0 4 0 3-2h-13l-2 1h-6l5 1 5 2c3 3 5 3 4 2zm-19 0v-1l-1 1h1zm75-1h-1v1l1-1zm120 1-1-1-1 1h2zm-510-2c0-2-1-2-1-1-1 1 0 3 1 2v-1zm137-1a4040 4040 0 0 0-2-5l-2 4c-2 2-2 3 1 3 2 0 2 0 3-2zm364 1v-1l-1 1 1 1v-1zm-382-1c2-1 2-2-1-2-2 0-4 1-4 3 1 1 4 0 5-1zm54 0-2-1-2 1h4zm250-5a189 189 0 0 1-2-8c-1 2 0 12 1 14 1 1 2-3 1-6zm-401 5v-2l-1 2h1zm164 0-3-1-2 1 3 1 2-1zm215-2h7l7-1c2-2 2-2 1-3l-3-1c-2 1-2 0-3-1h-5c-4 1-4 1 0 1 3 0 5 1 3 2l-14 2c-6 0-8 1-7 2l2 1h9c2 1 2 1 2-1l1-1zm-84-1h-1l-1 2h1l1-2zm69 2h-1v1l1-1zm-390-3v-2c-1-1-2 1-2 3s2 1 2-1zm33 0c1-2 2-3 4-3l1-1 1-3 2-1-5-1c-5 5-8 8-7 10l2 1c2 0 2 0 2-2zm323 1h-1l1 1v-1zm4 0h-3 3zm144-1-2 2 1-1 1-1zm-153 1-2-2v1c0 2 1 2 2 1zm159-1h-1l-1 1h1l1-1zm-449 0-1-1v1h1zm62-1v-2l-1 1-1 2 2-1zm-100-2c3-2 3-4 0-2-2 1-3 1-2-1v-2l-8 5v1c1 2 6 2 10-1zm110 1v-2c-2-2-2-2 0-2v-1l-2 1-1 2-2 2-2 1h3l4-1zm-81-2 2-2h-1l-4 2v2l3-2zm98-2h-5l2 2h3v-2zm-7 1-1-1-1 1 2 1v-1zm-79 0 4-3 4-3h2l2-2c2 0 5-4 4-4l-4 2-5 2c-2 0-2-2 0-2 2-1 4-7 3-8s-3 2-3 3l-2 4-3 3-1 3-1 2-1 3h1zm358-1c1-2-3-4-5-3-1 2-1 2 1 4 3 1 4 0 4-1zm-294-1c-1-1-2 0-2 1h1l1-1zm200 0a375 375 0 0 0 2-7l1 2c0 2 1 2 2 0 2-2 4-3 3-1v1l5-6c0-1-1-2-3-1l-5 1c-5 0-8 1-11 3s-7 7-6 8l4-3 3-3 2 1v3c-3 2-3 3 0 3l3-1zm12-1c1-1 1-1-2-1l-4 1v2l6-2zm-314 0 1-1 6-6h-2l-2-1h-1l-1 3-2 3-1 3 2-1zm326 0-3-1-3 1h6zm-267-2c2-2 1-5-1-4-2 0-5 4-4 5 1 2 2 1 5-1zm58 1h-1v1l1-1zm-3-1 2-1 2-2 1-6c-2 0-5 3-5 4l-2 2-2 1c0 2 1 3 2 3l2-1zm14-1c-1-1-4-2-3 0l3 2v-2zm157 2-1-1-1 1h2zm80 0v-1l-1 1c0 1 0 0 0 0h1zm-25-1v-1l-1 1v1l1-1zm-305-2 3-3 1-2-3 1h-3v6l2-2zm34 0 2-1h-2l-6 2c0 1 3 1 6-1zm266 1c1-3 4-6 5-6l3-1 2-1-2 3c-3 3-3 5-2 5 3 0 6-3 6-7 0-2 2-5 3-4v4l2-1c2-2 2-2 1-3l-3-2c-2-2-4-2-7 1l-4 1v-3h-1l-1 2c-1 1-1 1 1 3 1 2 1 2-2 5l-2 3c0 2 0 3 1 1zm43 0h-2l1 1 1-1zm-51 0c3-1 5-3 7-6s1-4-1-3-10 9-8 9h2zm27-3 2-3 3-1c5-2 6-5 2-5-4-1-4-1-4 2l-2 3-2 2-2 1c-2 0-2 0-2 2-1 2-1 2 2 2 2 0 2 0 3-3zm-339 1 1-1 1-1c-1-1-2 0-3 1-3 2-3 3-1 2l2-1zm91 1c1-1 0-1-1-1l-3 1 2 1 2-1zm28-1-1-2v3l1-1zm227 0-1-1c-1-1-3 0-2 1h3zm-388-1-3-6v7c1 1 3 0 3-1zm113 0-1-2c-2-1-3 0-1 2 1 2 2 2 2 0zm-92-1 2-7-2 1-3 1-2 2v4c1 1 3 1 5-1zm296 1-1-1-1 1h2zm77-1-1-6-2 5c1 2 2 3 3 1zm13-2 3-6-4 3-2 3-1 3 4-3zm108 2v-1l-1-3c0-2 0-2 0 0-1 2-3 2-5 1l-2-2 1 4 5 2 2-1zm-505-1c0-2 0-2-2-1v2l2-1zm339 0c0-1 0-1 0 0l-1 1 1-1zm71 0h-3c-3-1-3 0-3 1h2l4-1zm70 0-2-1-1 1c0 2 2 1 3 0zm-56 0c4-1 6-1 3-2l-2-2-1-1-2 2c-1 1-2 2-5 2l-2 1h9zm-428-1 1-2-1-9-1-9-1-4c-1-2-3-4-3-2l-1 2v2l-1 2 1 3 4 5v11c1 2 1 2 2 1zm33-1v-1l-2 2 2-1zm57 0v-3l1-2v-3l-2 1-2 3-3 1c-3 1-5 2-4 3h4l4 1 2-1zm66 1-5-1 4 1h1zm-8-1c1-2 0-2-2-1h-4l1 1h5zm201-2h-2v1h1l1-1zm45 1 5-3 1-2c-2 0-2-2-1-2v-2c-2-1-2-1-2 1s-1 2-2 1c-3 0-7 2-7 3l2-1h2v1l-1 2 1-1h1c2 0 1 1 0 2l-1 2 2-1zm-318-2 3-5-4 2-3 2-1 2c0 2 0 2 1 1l4-2zm54 2-1-1-1 1 1 1 1-1zm281-1 4-3 3-2-1 2-1 1h1c2 0 2 1 1 1v1h2l4-2 4-2-11-3h-3c-3 1-5 0-5-2h-2l-2 2 2 1c1 1 2 3 0 5v2c1 1 1 1 4-1zm-384 0h-1v1l1-1zm32 0 2-2c2 0 6-4 6-5-1-1-5 1-6 3-1 1-3 1-2-1v-2l-1 2c-1 2-2 3-3 2l1-2c1-1 0-2-3-2-1 0-2 0-3-2-2-2-2-2-5 1-2 1-4 4-4 6 0 3 1 3 4 0 3-2 4-2 6 0l3 2 2 1 3-1zm-54-1c1-1 0-2-1-1v2l1-1zm134-2 2-1c1 0 1-1-1-2l-1-1h2l3 1h3c1-1 2-1 3 1l1 1 3-2c3-1 3-1 2-3l1-3c1-2 0-2-3-2l-4-1c-1-1-3 0-3 2 1 3 2 3 3 2h3v1h-2l-1 1c-1 2-4 1-6-1l-2-1c-1 0-1 0 0 0 1 1 1 2-1 2-1 0-2-1-1-2v-1l-2 1h-2l-3 1c-2 1-2 1 0 1l2 1 2 1 2 1-3 2c-3 1-4 2-2 3l5-2zm380 1h-1v1l1-1zm11-5c0-4 0-4-1-1v6l1-5zm-205 5c1-1 2-3 0-3l-3 3h3zm-296-3-1 1-1 1h1l1-2zm8 1 2-4 2-4 2-2h5l3 1 1-1 2-3 1-4 2-3h-5l-4 3-3 3-10 6v8c0 2 1 2 2 0zm316 1 4-8 4-2c3-3 4-2 1 2s-1 4 4 0c3-3 3-4-1-5h-15l-5 5h2l2-1 1 2 1 2v4c1 2 2 2 2 1zm-268-1c2-2 2-3-1-4-2-1-3 0-3 3-1 2 0 2 1 2l3-1zm245 0c1 0 1 0 0 0h-1l1 1v-1zm-202-1c-1 0-2 0-1 1h1v-1zm-104 0-1-2-1 2h2zm74-5c1-4-1-7-2-7h-1l1-1c1 0 4-3 3-4h-2l-4 2c-2 1-2 1-1 3v4l2 8 2-1c2-1 2-2 2-4zm-22 3c1-1 0-3-3-4-3-2-4-3 0-6 1-2 2-3 4-3h3l-5-3-2-1-1-1-3-1-3 2-4 3c-2 0-3-2-1-3 1 0 1 0 0 0l-4 4c-2 4-2 5 1 3l7-1 1 2c-1 4-1 4 1 5l1 1 5 5 3-2zm311 1-1-1-1 1 1 1 1-1zM9 127l-2-6v13c1 1 1 1 1-1l1-6zm355 7-1-1-1 1h2zm161-1-1-2v3c1 1 1 1 1-1zm17 1h-2l1 1 1-1zm-414 0v-1l-1 1h1c1 0 0 0 0 0zm55 0h-2 2zm345-2v-1l-1 1h1zm-169-1 2-1c1 0 2 0 3-2l1-1-1-1h-6l-5 1c-1 2 1 2 4 1 3-2 4-1 1 1l-1 2c0 2 0 2 2 0zm199-3v-1l-1 3c0 2 0 2 1 1v-3zm-545 2v2-2zm96 0 1-3v-2c-2-2-4-3-6-2-3 0-8 2-8 3l7 3 1 1 5 2v-2zm36 0v-3h-1l-3 1-3 2-2 1 4 1c4 0 4 0 5-2zm-62-1c2-3 1-3-1-3-1 0-2 0-2 2v2c2 1 3 1 3-1zm48 0c1-1 2-1-2-2-1-1-2-4-1-7s0-4-2-1l-2 3c-2 0-3 2-2 5 0 3 0 3 3 3 3 1 5 0 6-1zm-55 0 1-1c-1-1-2 0-2 1h1zm78-1c1-1 0-2-1-2v3l1-1zm11-2-4-3c-1 0-1 1 1 3l4 2h2l-3-2zm-116-1c3-3 4-5 3-9-2-7-5-3-6 7 0 5 0 5 3 2zm-18 1v-1l-1 1v1l1-1zm0-3 3-7v-3l-1 2-1 2-2 3-2 3h3zm124-1v-1l-1 1 1 1v-1zm5 1-1-1-1 1h2zm213-2v-1l-1 1c0 1 0 0 0 0h1zm-333-1 1-3 1-3c1-2 1-2-1-3-2-2-3-2-5 0v1l1 2 1 3h2l-2 1c-3 3-1 4 2 2zm-18-1v-5c-1-1-3 3-2 5 0 2 1 1 2 0zm151 0c1-3 0-4-2-4-1 0-2 1 0 2v3l2-1zm-59-1 4-1h4l3-1 3-1 2-2c0-2-4-3-6-1l-9 3c-2 1-5 3-4 4h1l2-1zm263 1h5c6 0 7 0 8-5l2-3c2-1 3-4 1-3l-7 2h-2v3c-1 1-4-2-2-3v-2c-3 0-4 0-5 2 0 2-2 3-2 1 0-1-3-3-4-2s-1 2 1 1h1v1l-1 4 1 1 3 4 1-1zm210-2h-2l-2 2c0 1 3 0 4-2zm-483 1c0-2-2-3-3-2v2h3zm476-1 1-1-2 1-1 1 2-1zm11 1v-1l-1 1c0 1 0 0 0 0h1zm-427-2-1-2-1-1-1-1v4c1 2 3 2 3 0zm-47-3 4-2v-2l-2-1-2-2c-1 0-2 0-3 2-2 1-2 2-2 3l-1 3-1 1 7-2zm476 1h-1l-2 1 3-1zm2 1h-1l1 1v-1zm-568-2 1-4c3-3 1-4-2-1-2 2-2 2-2 5 1 3 3 3 3 0zm40 0v-1l-3 2 3-1zm41 0c2-2 1-3-2-3-3 1-5 0-9-3-1-1-2-2-3-1-3 1-3 1-3 4v3h6l7 1c2 1 3 1 4-1zm290 0 2-1c3 0 4-1 1-2-4-1-4-1-6 1-1 2 0 3 2 3l1-1zm-336-2 2-1 1-1-5 1-1 2 3-1zm14 1-1-1-1 1h2zm10-1 1-4 3-4c2-2 2-3 0-4-3-2-6 0-6 3l1 2 1 2-2 4v2l2-1zm-4-1c1-2 0-2-2-1l-2 2h-1c1 2 4 1 5-1zm-60-2 2-3c-1-1-7-3-8-2l1 8 5-3zm388 2-1-1-2 1h3zm-374-4 3-3 2-2h-3l-3 1c-1 0-2 2-1 4 0 2 1 2 2 0zm74 0 3-2h11c1 1 4 1 7-1l3-4v-2h-3c-3 3-8 4-10 4l-4-2c-1-1-2-1-6 2-1 2-8 4-9 4-2-1-3 0-1 1 2 3 6 3 9 0zm294 2 1-1h-3l2 1zm-358-2-1-1-2 1 2 1 1-1zm34 0 1-3c0-2 0-2-3-2-5 0-10 2-11 3l-1 2c1 1 3 1 5-1 3-2 4-1 4 1l2 1 3-1zm52 0-1-1-1 2 2-1zm102 0c3-2 0-4-4-3l-2 1v2l1 1 5-1zm308 1c3 0 4-2 2-2l-3-1h-5c-4 0-5 0-5 2l4 1h7zm11-1h-4c-1 0-1 1 2 1l2-1zm10 0v-1l1-1h-2c-2 0-3 1-1 2h2zm75 0h19l8-1-4-2-1-1h5l4-1h-4c-5-1-19-1-20 1l-1 1h9v1l-13 1a1606 1606 0 0 0-2 1zm-248-3c3-3 2-7-1-4h-3c-2 1-1 3 0 2 2 0 2 0 1 2l1 2 2-2zm24-3c-1-1-5 2-5 4l3-1 2-3zm56 5 2-1-2-1h-4v2h4zm-419-1c1-1-2-2-3-2v1l3 1zm-23-1c1-1 0-2-1-3l-2-3-2-2-5 5 3 1 3 2h4zm36-2 3-3-3 1h-3c-2 0-3 0-2 1l1 2c0 2 1 2 4-1zm399 2v-2h-1v3l1-1zm125 0c0-1-9-2-12-1s-1 1 5 1h7zm-177-2c1-2 3-3 3-2l6-7 3-3c4-1 3-1-2-1l-7 1v3c1 1 1 1-1 2-4 3-5 4-5 6l-1 1v1c0 2 2 1 4-1zm-226 0c-1 0-10-2-12-1-2 0-2 1-1 1h13zm8 1c2-1 2-2 0-2s-3 1-3 2h3zm253-3c1-1 1-3-1-3-1 0-5 4-5 6 0 0 5-1 6-3zm169 3-1-1-1 1h2zm-194-1-1-2c-1 0-2 1-1 2h2zM55 99c0-1 4-3 6-2l4-1v-3c-1-1-2-2-3-1-1 0-4-1-4-3-1-2-2 0-3 2l-2 5c-2 2-2 2 0 4 1 1 2 1 2-1zm172 1c2 0 2 0 0 0h-5c-1 1-1 1 1 1l4-1zm-120-1 8-5 5 2c0 2 2 3 5 1l9-5 1-2v-2l-3 2c-4 2-5 2-5 1l1-2h-1l-3-2c-1-2-2-3-3-1h-4l7-7h5l2 2c1 2 2 2 2 0v-2c2-1 2-3 0-4l-4 1-5 1c-3 0-5 2-5 4l-3 4c-2 2-2 2-5 2-3-1-6 1-6 3s-4 4-8 4l-5 1h-4l2 1 3 2 2 2h6l6-1zm158 0h-4l2 1 2-1zM78 97h-3c-2 2-2 2 0 2l3-2zm373 0 1-2-3 3c0 1 1 1 2-1zM42 96v-3h-7c-3 2-4 1-2-2v-1l-3-1c-1-2-2-2-2-1l-1 4c1 5 2 5 6 5h4c2 1 4 1 5-1zm354-1h-1v2l1-2zM49 96v-1l-1 1c0 1 0 0 0 0h1zm339-3c3-2 3-3 2-3-2 0-5 3-5 5-1 2 0 2 3-2zm5 0c2-1 2-3 1-4s-3 0-2 1l-2 3c-2 3-2 4 1 2l2-2zm-49 3-7-1 4 1h3zM74 94l3-7-1-1h-2l-3 2-1 1 1 3c2 3 2 4 3 2zm297 1h-2 2zm30-2h-1l1 1v-1zm4 0h2c2-1 3-2 1-2-1-1-4 2-4 3l1-1zM50 92l2-1c1-1-2-2-5-3l-3 1c-1 2 2 4 3 3h3zm33-2c3 1 10 0 10-1l1-3 2-4c3-1 3-2-1-1l-4 2-4 1c-6 2-6 2-7 5v2l3-1zm57 1v-1l-1 1c0 1 0 0 0 0h1zM29 85c3-2 4-4 4-6 0-1-2-2-3-1h-3c-1-1-2-1-2 1l-2 4v-5l-2 2a320 320 0 0 1 0 10c1 1 2 0 3-1l5-4zm374 4v-2c-1-1-6 1-6 3l6-1zM37 89h-2l1 1 1-1zm27-1h1l4-2 8-3 5-3 3-5 2-3c2-2 1-4-2-4s-4-1-3-3c1-1 0-2-1-4-2-2-3-7 0-7 1 0 1-3-1-3h-2l-5 10h2c3-1 3 0 0 2v2c2 2 3 3 3 5l1 2 1 1-3 2-2 3c-2 2-3 2-5 2-3 0-4 0-6 2l-3 2-1 1v2c1 2 3 2 4 1zm69-1 2-2h-2l-4-2c-1-2-1-2-3-2l-2 1 4 4 2 1h3zm-97-1c3-1 3-2 2-2l-6 2c-1 2 0 2 4 0zm19 1v-4l-4 1-2 1 2 1c2 2 3 2 4 1zm358 0-1-1h-1l1 1h1zm-248-2c2 0 1-1-1-1l-4 1c-2 1-2 1 1 1l4-1zm243-1 2-2v-2l-4 4h2zm13 1-2-1 1 1h1zM46 84l4-2c2-1 2-1 1-2h-3l-3 3c0 1 0 2 1 1zm378 0c1-1 0-3-1-3l-1 2c-1 1 0 2 2 1zm10-1 4-1 1-1c0-1-2-2-3-1h-2l-5 3 3 1 2-1zm-6-1-1-1v1h1zM88 81a183 183 0 0 0 11-5c1-2 1-2-1-4l-2-3 5-4c2-1 2-2 1-4h-4c-1-2-2-1-5 3l-1 6c0 2 0 3-2 4l-2 3-2 3-1 2 3-1zm-47-1 1-2 2-4 1-3-2-1-4-2c-2 0-3-2-2-3l5 1c5 3 6 3 9 1v-3l-1-1c0-2 2-1 4 0l2 2-1-2v-2c0-2 5-4 6-4 1 1 0 2-1 3l-2 4-1 3v2c0 2-2 2-3 1 0-2 0-2-2-1s-3 3-2 4h5c2 1 4 0 6-4l3-4c2-1 2 0 1 1l1-1 6-9 3-5c3-4-3-5-9-2l-3 2c1 1 1 3-1 4l-6 1-6 1-3 1c-3 0-3 0-4 2l-2 2-8 5-2 5 1 3c2 0 4 2 5 4s2 3 4 1zm24-17 1-2c0-1 2 0 1 1l-2 1zm-2 15-2 2h1c1 0 2-1 1-2zm337 2v-1l-2 1v1l2-1zm5-3-1-2-1 3c0 3 1 3 2-1zm26-2 2-3c-1 0-2 0-2 2s-2 2-2 2l-1 2v2c-1 1-1 1 0 0l3-5zm-20 3c0-3 4-7 6-7v1l-1 2-1 3c-2 1-2 2-1 2l5-5c4-4 5-6 2-6a338 338 0 0 1-13 3l1 1-1 3-2 4h2l3 1v-2zM47 77c1-1 1-4-1-4l-2 5c0 1 2 1 3-1zm10 1-1-2h-3l1 2h3zm14-2 2-1h1l-1-1h-4v4l2-2zm-3-4 6-4v-1h-6l-1 2c0 1-1 2-2 1l-3 2c-2 5-1 5 6 0zm-46 1c1-2 0-3-2-1l-1 2c1 1 2 1 3-1zm54-3c0-2-1-2-2-1v3l2-2zm-49 0-1-3v-2l-2 2-1 3h4zm-4-7h-1l-1 3 1 2 1-2v-3zm15-5 1-2 1-3v-2l-3 2c-4 4-7 8-7 10v2l-1 1c1 2 9-6 9-8zm50 5-1-3-1-3v2l1 3v3c1 0 2-1 1-2zm24 0-1-1-1 1h2zm331 0v-2l-2-1-1 2 3 1zm-24-3v-1l-2 2c0 1 1 1 2-1zm10 1 1-3 2-1c1 0 3-1 3-3 1-2 3-2 3-1h4c1 1 1 0 2-1l5 1-2 3-2 4 1-1c1-1 3-1 2 1l1 1 1-2c0-2 0-2 2-2l3-2c2-3 4-4 3-1v2c1 1 5-2 5-3 1-2 1-2-2-2l-2-1c-1-1 3-2 4-1h5l1 1 2-1 4-2 2-2-2-1c-2-1-3-1-10 1-3 1-5 2-8 1l-6 1-3 1-4 1-5 1-4 1-2-1h-2c-2 0-6 4-5 5l-1 2-2 1 2 1 1 2h3zM93 59c1-4 1-5-1-8-3-3-4 1-3 7l1 2c1 2 1 1 3-1zm369 0-1-1v1h1zM82 57h-1l1 1v-1zm-68-3c0-2 0-2-1-1v3c1 1 1 0 1-2zm9 1c-1-2-3-3-3-1s1 2 2 2l1-1zm5-1 2-1v-1l-1-2-1-2-2 2c-3 2-3 2-2 4h4zm391 0v-1l-1 2 1-1zm5 0h-3l1 1 2-1zM48 53l2-1c2 0 4-2 3-3l1-2-4 1c-4 1-6 3-6 5 0 1 2 2 4 0zm-6-4c1-2 0-5-1-5l-2 1-3 2c-1 0-2 0-1 2h3l1 1 3-1zm19 0c0-1 1-2 3-2l4-4-3-5c1-1-1-4-2-4l-2-1-3-2c-3-1-2 1 0 3l3 3 1 2 2 3c0 2-3 5-6 7l-2 1h2l3-1zm-29-3v-2l-1 2c0 2 0 3 1 2v-2zm-4-1 3-1 5-5c0-1-2-3-5-3s-3 0 0-3l2-3h-3c-2 0-7 4-7 5l2 2 4 2 2 1c1 1 1 1-1 1l-3 1c-2 0-4 3-3 4s3 1 4-1zm-8 0v-1h-3c-1 1-1 2 1 2l2-1zm29-2v-5l-2 2c-1 1-2 2-1 4l1 1 2-2zm-34 0 1-4v-3c1 0 2 0 1-3 0-2 0-2 2-3l2-1c0-2 1-2 3-1h5l4-1c1-2 1-3-2-8l-1-5-2-2c-1 0-3 3-3 5l-1 2-1 2c0 1-5 5-7 5l-6 2-1 7 1 7 2 2c0 1 1 1 3-1zm12-19c-1-1 0-2 2-2l2 1c0 2-2 2-4 1zm30 15v-3l-2-1c-2 1-3 4-3 6l2 2 3-4zm-34 2v-3h-3v3h3zm18 0a162 162 0 0 0 1-10c0-1-1-3-3-3-3-1-4 0-2 1 1 1 1 4-1 3l-2 1 2 2 2 1c0 3 3 7 3 5zm34-11-2-2c-1 1 0 3 1 3l1-1zm-56-8 1-2h-3c-2 0-3 1-2 3 0 1 2 1 4-1zm43 0 1-2-1-2-1 3c0 2 1 3 1 1zm-49-3c-2-6-2-9 0-9l1 1h2c0-2-1-3-4-3-4 0-5 1-4 5l2 3 1 2 2 3v-2zm3-3-2-1 1 2c1 1 2 0 1-1zm154 427c0-2 2-5 4-6 2 0 2 1 0 2l-3 3c0 2 0 2-1 1zm194 0v-6c2-2 1-3 0-2l-2-2-1-4-1 2c0 2-1 3-4 3l-5-4-1-2-1-2 1-3 1-2c1-2 2-1 2 1s0 2 1 0h2v2c0 2 3 3 3 1l1-1 1-3 1-4 1-2 2-3c0-1 2-2 2 0l1 2c2 1 1 2-1 2s-2 0-2 2l-2 4c-1 3 0 3 2 2 2-2 3-2 3 0l-2 3v2l1 5-1 6c0 3-1 4-2 3zm-9-16-1-2c-1-1-1-1-1 1s1 3 2 1zm-123 14c-2-1-2-1-2-3-1-2 1-2 3 0 2 3 2 5-1 3zm126 0v-2c1-1 3 1 3 2h-3zm-164-6c-1-1 0-7 1-7l1 4c0 4-1 6-2 3zm-60-1 2-4c3-2 4-1 2 2l-2 3-1 1-1-2zm282 1c-2-1-1-7 1-10 2-4 2-5-1-6-3-2-4-5-2-10 2-3 3-4 3-1s2 3 2 0l1-3 2-2 1-1c1 1 1 3-1 4v2l-2 4-2 3 1 2c2 0 2 0 1 3l-1 4v2l-1 3-1 4c0 2 0 3-1 2zm-292-3 1-2 4-3 6-3-6 6-5 2zm364-1c-2-1-2-2 0-2l3 1-3 1zM6 429l1-1v1H6zm63-1v-1l8-4 4-3c0-2 1-2 3-3l7-5 4-4 5-2c5-2 6-2 6-1l-5 2-4 2-1 1c-2 1-6 5-5 6l3-1c2-2 4-2 5-1h2l1-1 4-3c4-4 12-8 14-8 3 0 3 1 1 2-8 3-14 7-20 13-3 3-4 3-4 1l-1-1c-1-1-2-1-11 4l-10 5-4 2h-2zm45-2c-1-1 0-3 1-3 2 0 1 4 0 4l-1-1zm351 1c-1-2 0-6 1-7l2-2c0-2 1-4 2-3v3l1 5 2 3c0 1-2 0-3-2-2-1-3-1-4 1l-1 2zm-250-1c-1-1 0-4 1-5v5h-1zM9 426l-2-2 1-2 3 3-2 1zm134-1c-1-1 1-4 5-7 6-4 10-7 11-6v1l-2 2-11 8-3 2zm53-1 2-4 3-4 4-7a1142 1142 0 0 0-9 15zm-90 0 4-4v2c-2 2-3 3-4 2zm346-3-2-6v-3l-1-2c1-1 0-2-1-3l-2-3-1-1-1-2-2-2v-1l4 1 2 3 3 4 1 2 1 1 1-6c0-6 2-7 2-1l2 4v5c0 3-1 4-3 2s-3-2-2 0l1 6c1 6 0 7-2 2zm-263 0c0-2 3-6 5-7 2 0 2 0 0 3l-3 4-1 2c-1 0-2 0-1-2zm159 1v-4l-1-7c-1-4-1-6 1-6v3l1 3v10l-1 1zm78-3 2-10c1-1 2-1 2 1l-2 10-1 2-1-3zm-404 0-1-2 3 4-2-2zm187 2 5-9c1 0 1 1-1 5-3 4-4 6-4 4zm275 0c-1-1 0-3 2-3 1 0 1 2-1 3h-1zm-468-1v-2l2 2h-2zm286 0c-1-1 1-2 3-1h2l-2 1h-3zm143 0c-1-2 0-3 1-3v4l-1-1zm-272-2c-2-1-2-2-1-2l1-1 4-2 3-1c2 0 1 2-1 3l-3 4c0 2-1 2-3-1zM7 419l1-1 1 1H7zm19-1v-1l1 1h-1zm435 0c-2-2-2-3-1-3 2 0 5 2 4 3h-3zm-208-1v-3l2-3v3c0 4-1 5-2 3zm-133 0 1-3 3-2h-2l-7 4-1 1c-2 0-2 0-1-2s10-6 11-4c1 0 4-1 4-3l10-7c2 1 2 2 0 3l-9 6-2 3-4 2c-1 2-3 3-3 2zm303-4c0-3 1-5 2-5 2 0 1 8-1 8l-1-3zm67 2-1-3v-4l1-3 2 1v3c1 4-1 8-2 6zm-268 0 8-8h3c3 0 2 2-1 3l-5 3c-2 2-5 3-5 2zm59-1c0-2 2-2 2 0l-1 1-1-1zm201 0c-1-2 1-4 3-5s2 0 1 2l-2 3c0 2-2 2-2 0zm-337 0c0-2 7-6 9-6l-4 4-5 2zm-127-1-2-1 1-1c2-1 2-3 1-3l-1-1 1-1 1-1 1-1 1 3v5c0 1-1 2-3 1zm382-1c-1-1 0-5 1-4v5l-1-1zm10 0v-6h1l1 3c-1 4-2 5-2 3zm32-1v-4c2-1 2 0 2 3 0 2-1 3-2 1zm25 0v-1h2l-1 1h-1zm5 1v-2l-6-6c-2 0-2 1-2 2 1 2-1 3-2 2v-13c1-2 3-1 2 0l-1 3c0 2 0 3 1 2l2-3c1-3 2-3 2 1l2 4 2 2 2 4c2 2 2 4 0 4h-2zm-229-2 1-1 1 1h-2zM9 409l1-1h1c1 2 0 2-2 1zm487-1 1-2 4-5v-1h-5l1-2c2-2 2-2 7-2l6-1 2-1 2-1h1v2c-2 0-3 3-2 4h2l2-1v-1l1-2 3 3-3 2-2 2-2 1h-5l-3-1-4 3c-4 4-5 5-6 3zm13-9-3-1-1 1h4zm-29 7 1-2 1 2-1 2-1-2zm-201 1v-1l1 1-1 1v-1zm227-1 1-2 2 2h-3zm-283-2c-2-1-1-2 1-3l2-2c0-2 1-3 2-1l3 1 2 2c0 2-1 2-2 0h-1c-1 2-2 2-3 2-1-1-2-1-2 1 0 1-1 2-2 0zM9 404c-1-2 0-3 1-3 1-1 3 1 2 3H9zm65 1c-1-1-1-4 1-5s12-5 13-4l-10 5c-2 0-2 1-2 2 0 2-1 3-2 2zm166-1c-1-1 0-2 1-1l1 1h-2zm168 0c0-2 0-3 2-4l2-1-1 1-1 3-1 2-1-1zm30 0v-3c1-2 2-1 2 1 0 3-1 4-2 2zm-193 0v-2c1-1 3 0 3 1s-2 2-3 1zm-229-2h1s1 0 0 0v1l-1-1zm396 0c0-1 0-2 1-1 2 0 2 2 0 2l-1-1zm80 0 1-1 1 1-1 1-1-1zm-398 0v-1l1 1c0 1 0 0 0 0h-1zm383 0-1-2-2-1-1-1 2-1 2-1 3-1c2 1 3 1 3 3 0 1-1 2-2 1l-2 2c0 1-1 2-2 1zm-455-1 1-1 1 1-1 1-1-1zm364 0v-1l1 1v1l-1-1zm-144 0-3-1c-2-1-2-3 0-3l2-1c1-1 3-1 4 1l2 2 2 1-7 1zm208-2v-3c1 0 4 2 3 4 0 1-3 1-3-1zm-382 0 3-2-1 2h-2zm417-2c-1-1 1-1 2-1v1h-2zm-104-1c0-1 1-3 2-2v1c0 2-1 3-2 1zm107 0c0-1 2-2 2 0l-1 1-1-1zm-241-1v-2l1 1-1 1zm195 0c-1-1 0-2 1-2l1 1c0 1-1 2-2 1zm-318-1c0-2 1-2 4-3l7-2h4a812 812 0 0 0-15 5zm343 0 1-3v2l-1 1zm26-1 1-1 2 1h-3zM7 391v-5l1 1v3c1 2 0 2-1 1zm361-3c-3-1-4-3-5-6l-2-4-5-1c-5 1-7 0-7-2l2-1 5 1a372 372 0 0 1 20 0c5-2 7-1 3 1l-6 2-4 1 2 1c2-1 2-1 0 2l-1 2h1l1 2 1 1v-1c0-2 1-4 2-3v2c0 2 1 2 2 0s3-2 3 0c-1 2-1 2 1 2l2 1c1 1 0 1-3 1-7 1-10 1-12-1zm-3-11v1c0 2 0 3 1 1l-1-2zm25 11c-1-1 0-1 4-2 5 0 6 0 4 2h-8zm13 0c-2-2 3-3 13-2l8 1-21 1zm25-2c-3-2-3-3-2-4s2-1 3 1l2 1h21l1-2c-1-2 1-2 1 0l4 1 3 2h-4l-4 1-11 1h-10c-1 1-3 0-4-1zm79 0c-2 0-3-1-3-2h14v2h-11zm-35-1-2-1h13c1 1-6 2-11 1zm13 0c-1-1 1-2 2-2l3-1 5-1c4 1 5 1 4 2l-4 1h-6l-4 1zm-86-3c0-2 1-3 2-1 1 1 0 3-1 3l-1-2zm81-2v-1h1v2l-1-1zm20 0v-2l2 1v1h-2zm-278-2 1-1 1 1-1 1-1-1zm-79 0h3-3zm-82-1v-3l-1-1a292 292 0 0 1 16-2h2v2l-2 3h-4l-8-1-2 1-1 1zm46 0 1-1 1 1h-2zm283 0c-2-1-1-2 1-2l6-1h4c3 1 6 0 7-1s4-1 4 1l-2 2h-12l-8 1zm69 0c-1-1 2-4 4-4 2 1 2-1 1-4-1-2-1-4 1-4l1 1 1 3v4c0 2 0 2-2 3l-4 1h-2zm-401-1c-1 0-1-1 1-1h1l-2 1zm372 0c-1-1-1-2 2-2l3-2 4-3c3-2 2 0-2 4-3 3-6 4-7 3zm14 0c-4-1-5-1-5-3h2l7 1c6 0 7 1 6 2h-10zm-60-2 1-5 1-3c2 0 2 0 1 4 0 4-1 6-2 6l-1-2zm41 2c-1-1 0-2 1-2l1 1-2 1zm45-2c0-1 5-3 11-3h5l-1 2-6 1-7 1-2-1zm-127-1 1-1h1c0 1-1 2-2 1zm164 0-6-1-4-1h17l2-3c1-4 2-3 2 0 0 2 0 3-2 4-2 2-5 2-9 1zm13 0c-2 0-1-2 0-2l2 1v1h-2zm-31-1v-1h1l1 1h-2zm-73 0v-5l1-4 1 2 1 3c0 3-3 6-3 4zm-67-2-1-2c1-2 3-1 3 1s-1 3-2 1zm92-3c-1-1 0-4 1-3v3h-1zm45-1 2-2 1 1c-1 2-2 3-3 1zm-123-2c-1-1 1-4 1-4l2 4h-3zm11 0v-1h1l1 1h-2zm9-2h-5l-2-1 2-1c3-1 3-1 3-5 0-3 2-5 3-3h1c2-1 3-1 3 4v2c1-3 1-4 2-3v4l-1 2c0 2-1 2-2 2l-4-1zm-12-1v-5c1 0 2 1 2 3 1 4 0 5-2 2zm20 1c-1-1 0-2 1-2l1-2c0-4 2-6 3-4l2 3c2 2 2 2 6 2h7l1 1-5 1-7 1h-9zm72-1c-4-1-6-2-5-3h4c4 1 5 1 9-2s6-3 6 0c0 2 0 2-2 2h-2c-2 2-7 3-10 3zm-46-1v-1h6c1 1 0 2-3 2l-3-1zm17-1c-1-1-1-1 1-1h5c0 2-4 2-6 1zm20 1-1-3v-5l1-3 2 8c0 2-1 3-2 3zm27-1-1-1 3-1 6-1 5-1 2 1c0 2 0 2-3 2l-5 1h-7zm-34-1 1-1 1 1-1 1-1-1zm-18 0v-2h2v2h-2zm15-1 1-1v2l-1-1zm56-1v-5c2 0 3 4 2 5h-2zm7 0 2-1 1 1-1 1-2-1zm7 0c0-1 1-2 2-1s0 2-1 2l-1-1zm-125-4h1l-1 1v-1zm-52-1 2-1v1h-2zm160-8v-2c1-1 3 1 2 3 0 1-1 1-2-1zm-134-2v-2l2 1c0 2-1 2-2 1zm18 0c-2-1-1-2 1-2l2 1c0 1-1 2-3 1zm6-2 1-1c2 0 3-6 2-9l-1-3-3 3-3 4-1 3c2 1 1 2-1 2l-2-1 1-2 2-3v-2c-2-2-1-3 1-2 2 0 3 0 4-2l1-3 1-1c2 0 2 0 2-2 0-3-1-4-2-3-1 2-3 2-3 1s1-2 3-2c3-2 4-1 4 7l-1 11-1 4-2 1h-2zm10-1c-2-2-2-2-2-10v-14c3-2 3-1 3 3v5l1 3v14l-2-1zm-24-1h-6l-5-1c-2-3-1-4 2-2h4l9 3h-4zm51 0 1-1v1l-1 1v-1zm-7-1-1-2c-1-1-1-1 1-1s3-1 5-3c2-3 3-4 4-3l-2 3-3 3-2 3h-2zm82 1c-3-1-1-3 2-2l4-1 5-1c3 0 3 0 3-2l1-2 1 4c1 3 1 3-1 3h-8l-7 1zm-88-3 1-2 1-2 1-2 3-3c0-2 3-4 4-6 3-2 4-4 4-5 0-2 1-3 3-2l2 1-2 2c-3 2-3 4-1 6v3l-3-2-3-1-2 3-2 5v1c-2 1-4 1-4 3l-2 1zm65 0v-3l1 2-1 1zm7 0v-7l1-6-1 1c-2 1-2 0-2-5-1-5-1-5 1-7l2-2c0-2 5-5 8-6h7l4 1c1-1 2 0 1 2h-13l-2 1c-2 1-2 1-2 3v10l1 3 2-1c3-1 3-2 4-4l2-2v-1l2-3c3-2 3-2 0 4l-3 4-1 1c0 2-2 3-4 3s-2 0-2 7c0 2-1 2-2 3l-3 1zm-30-2-3-1h-3l6-2c2 1 2 0 3-1 1-2 3-1 3 1l-1 1-3 2h-2zm38-1 2-4c1-2 3-3 3-1l-1 2-3 2-1 2v-1zm-88 0-2-1c0-2 6-2 6-1l-4 2zm95 0c0-2 1-3 4-6 3-4 4-4 2-1l-6 7zm-120-1c-1-1-1-2 1-2l1 1c0 1-1 2-2 1zm30-2h1l-1 1v-1zm99 0 3-3v2l-3 1zm-33-5v-12c1 0 2 6 2 14 0 4-1 3-2-2zm-22 3c-1-2-1-2 1-2l4-4 3-3v2l-3 3-3 5-2-1zm7-1 1-2 2-3c2-3 3-3 5-3l2 1c0 1-1 2-3 2l-2 1c-1 2-5 6-5 4zm-95 0-1-2c0-2 3-2 3-1 1 2-1 4-2 3zm7-1 1-1 2-2 1-2c2 0 2 2-1 4-2 2-2 2-3 1zm6 0v-1l4 1h-4zm120-1v-2l-1-1h2c1 0 3-2 2-3 0-2 4-3 6-2s2 2-1 2l-3 2c-2 1-2 2-1 3 0 2 0 2-2 2l-2-1zm-92-1 2-2c2-2 2-4 1-4-3 0-4 0-5 2l-2 2c-1-1 2-7 3-8 1-2 1-1 1 0 0 2 2 2 2 1h1l3 1 1 5v4l-2-1h-2l-1 1-2-1zm44-1 2-4 5-8-5-2c-2 0-3-1-1-2 3-2 5-2 8-1 2 2 3 2 7 1h6c2 2 0 2-6 3-5 0-5 0-7 2s-3 3-3 7 0 5-1 3c-1-1-3 0-5 2l-1 1zm62 0v-8l2-6v1l1 4v5l-1 3-2 1zm-133-1-1-3 2-2v-1l1-2 1 2-1 2c1 2 0 4-1 4h-1zm37 0 2-3c1 1 0 2-1 2l-1 1zm-47-3c-2-1-1-2 1-2l3-2h3c2 1 1 2-3 4l-3 2-1-2zm50-2h-2l-2-1 2-1 2 1c0 1 1 1 1-1 2-1 1-2-2-2-2 1-4 0-3-1h8c1 1 1 2-1 4l-3 1zm43 0-1-1c-2-1-2-2 0-2h7l2 1v2h-2c1-1 0-2-1-2l-3 2h-2zm-12-1-1-2c2 0 4 2 3 2h-2zm-18-2-1-2-1-2-1-2 1-3c2-2 2-2 3 0 1 5 0 13-1 9zm78 1v-1l-1-2-1-3c1-2 2-2 3 0v3c1 2 1 3-1 3zm-19-1v-1c2-1 5 0 4 1h-4zm5-2v-1h3c0 1-2 2-3 1zm-16-6c-1-1 0-2 1-2l1 1-2 1zm-34-1 2-1 2-2c0-2 0-2 2-2l2 1 1 4a194 194 0 0 1-9 0zm14-2 1-2 2-3 4-5 1-3c-1-1-1-2 1-2l1-1c1-1 2 0 1 2v3l-4 3-2 2-1 2-1 2h2c3-1 5-1 5 1l-3 1a296 296 0 0 0-7 0zm57-1v-1l1 1-1 1v-1zm-44-1c-1-2 2-8 2-7 1 1 0 6-1 7h-1zm-52-1 1-1 2-1 3 1c2 1 0 2-3 2l-3-1zm-6-1 1-2v-2c-1-1 0-2 2-2v5l-3 1zm16 0v-4l1-4v-7l1-5 1 3 1 6-1 4-1 4c0 3-1 4-2 3zm17-3v-1c2 0 2 1 1 2l-1-1zm-24-1 1-3c-1-1 0-1 1-1h2l-3 5c-1 1-1 1-1-1zm32 1h1s1 0 0 0v1l-1-1zm-4-3c-1-1 0-3 1-3s2 3 1 4-2 0-2-1zm10 1 3-4-2 4h-1zm-15-1-1-1c-2 0-2-2 2-6 3-3 4-4 2-4l-1-1 2-1c2 0 2 0 1 3 0 2-1 3-3 5s-3 3-1 3l1 1-2 1zm11-1v-3l-1-2c-2 0-2-2-1-3h3l4 1 4-3 4-5c2-3 3-3 3-6l-1-5v-2c1-1 2 1 2 9a143 143 0 0 0 1 13c-1 0-2-1-2-4l-1-4-8 8-3 3v-1l-1-1-1 3c0 2-1 3-2 2zm-49-3 3-1v1h-3zm-8-3c-1-1 1-4 2-5v1c0 3-2 5-2 4zm27-1c-1-1-2-1-1-2h3c1 1-1 2-2 2zm-13-1v-1l1 1-1 1v-1zm-16-1c0-1 0-1 0 0v1-1zm60-1c-1-1-1-2 2-4l2-3 2-1v1l-1 2-2 3-3 2zm-57-3v-2l1 2h-1zm63-1c-1-1 0-2 1-1v1h-1zm-34-1v-10c1 0 2 2 2 5s-1 7-2 5zm35-5-1-2c-2-1-2-1 1-1l3-1 1-1c1-1 1-1 1 1l-3 3c-2 2-3 3-2 1zm-53-7c-2-2-3-2-4-1l-8 2c-2 0-3-2-3-2 0-1 12-3 17-2l22-1h6c1 2-4 3-10 3l-7 1-3 1-4-1c-2-1-3 0-3 1-1 1-1 1-3-1zm33-2v-2h7c0 2-6 3-7 2zm-33-4-8-1c-9 0-9 0-9-4l-1-5c-1-4-1-6 1-5 1 1 2 2 2 5v3c2 0 4-7 4-8s0-2 2-2l2-1v1l1 2 4-5 1-2c2 0 2 0 1-3v-2l3-2c2-2 2-2 6-1l3-1h2c4 1 5 1 5 4l2 3 1 1c-1 1-6 2-15 2l-5 1v2c1 1 1 1-1 4-3 3-3 4-1 4s4-3 5-6l1-1 1-2 1-1 1 2c2 2 3 2 4 1 1-2 4-1 3 0l-1 2c-2 0-4 3-6 7l-2 2c-2 0-3-1-1-1l1-2h1l3-6h-1c-2-1-4 1-4 2l-2 3-4 5-1 2 1 1c4 1 9 0 11-3a361 361 0 0 0 5-9l-2 6-2 4 4 1c5 0 4 1-1 2l-15 1zm-1-5v-3c-1-1-2 1-3 2-1 2-3 2-2 1l1-2c0-2-1-1-3 1l-2 1 1-1c0-2-1-3-2-2l-3 5h12zm-6-6v-2h-2c-1 1-2 2-1 3s3 0 3-1zm4-1v-1c-2 1-2 3-1 3l1-2zm3-5v-1l-1 1c0 1 1 2 1 0zm17-8h-1l1 1v-1zm9 23-2-8v-9c1-2 2-2 2 2l1 6 1 1 1-2 2-3 1-2 3-3 1-1v2c-1 2 0 3 2 2v-2c-1-1 0-2 2-2l2-1c3-2 2 0-1 4s-3 5-2 5 3-1 5-4 3-4 2-1l1 3 1 1-2 4c-3 4-3 4-5 3-4 0-4 0-3-2l1-1h-3c-2 2-3 1-1-1 2-3 2-4 0-4h-2v2c-2 1-4 6-4 6l2 1 2 2c1 1 1 1-1 2h-6zm17-8-1-1-1 1 1 1 1-1zm3-3v-2l-1-2-1 2c-1 2 0 4 2 2zm-70 9 1-1v-5l1-5 1-2v-1 8l1 3c1 2 1 2-1 3h-3zm43 0v-9c-1-4-1-5 1-5h2-1v7l-1 7h-1zm81-5 2-3c1 1 0 2-1 3h-1zm-20 0c-1-1 0-1 1-1v1c-1 1 0 0 0 0h-1zm14-3v-1l1 1v1l-1-1zm-83-7 1-1 1 1-1 1-1-1zm139 1 1-1v1h-1zm-124-7c-1-3-1-5 1-5h2l2-1 4-1c3-1 6-2 7 0l1 3 1 3 1 1-15 2c-3 0-3 0-4-2zm-13-7c-3 0-4 0-3-1l5-1 8-1h4l-5 3h-9zm33-2h2l-1 1c-1 0-2 0-1-1zm5-1 1-1 1 1-1 1-1-1zm13-2h4l-2 1-2-1zm-57-3 3-1 1 1h-4zm48-3-2-1-2-2v-2l1-1c2 0 3-2 2-2-2 0-1-1 1-2l4-3 2-4 5-4-1 3c-2 2-3 2-2 4 0 3 2 3 3-1l2-2v-1l1-1v-2l2 1 1 2-3 3-3 4c0 1 1 1 2-1 4-4 4-2 1 2l-4 7 4-2c2-1 2 0 1 3l-2 3-4-1-8 1-1-1zm3-4c3-3 3-4 1-4s-2 0-3 2l-1 3v2l3-3zm6-3 1-1c0-1-1-1-3 2l-1 3c1 1 1 1 1-1l2-3zm-3-4h-1c-1 0 0 0 0 0v1l1-1zm-17-26 1-1 3-4v-4l-1-2c-1-2 0-2 2-1l3 1h-1l-1 1v1c2 1 1 4-1 4-1 1-2 2 0 3v1h-2c-1 2-3 2-3 1zm-8 0 3-4-2 4h-1zm5-3c1-3 3-6 4-4l-4 6v-2zm10-12-1-1h-3v-1l10-1-4 5-2-2zm15-22-1-1c-2 0-1-2 2-3 4-2 5-2 2 0l-1 3c2 2 0 3-2 1zm14-3h1l-1 1v-1zm-2-2v-2c1 0 3 0 2 1l-2 1zm-10-3 4-1h3l-1 1h-6zm3-3v-3h2l3 1h3l-2 2h-6zm-7-4c-1-1 0-2 3-3 2 0 6-3 7-5s2-2 3 0l-1 2-1 2-3 2h-2l-5 4-1-2zm-43-5 1-3c1-1 6 1 6 1 0 2-5 3-7 2zm49-1c-1-2 4-11 6-11l-1 4-2 3c0 2-2 4-3 4zm11-3 2-3c3-3 4-1 0 2-2 3-2 3-2 1zm-62 0c-1-2-1-4 1-4l2 2-2 3-1-1zm-296-3c0-2 6-8 8-8v1l2 1 4-1-7 3s-1 0 0 0v-1l-2 3-1 1-1 1h-3zm282-1 2-2c1 1 0 2-1 2h-1zm-270-2v-1l1 1h-1zm358-5-1-1 4-1-3 2zm-10-1v-2l3-4c0-2 1-3 3-3 2-1 2 0 1 2l-1 2c1 0 3-2 5-6 3-4 4-5 5-4l-1 3-2 3-7 9h-6zm-4-3 2-5c2 0 2 0 0 3-1 3-2 3-2 2zm-3-2 5-7v2l-1 2-4 4v-1zm109-7-1-2-4-1-7-1-6-1h-21c0-2 4-3 7-3l10-1 4-4 5-4 4-1-2 3-3 4c0 2 1 3 2 3l1 1 3 1 4 1h7c4 0 5 0 7-2l2-4 9-10c2 0 1 3-1 4s-4 4-5 7l-1 3h6l14 1c8 0 9 0 11-3l3-3 2-1c2-2 3-2 4-1l-2 3-2 3-1 2-3 2-2 1h-5l-5 1h-8l-7-1h-10c-5 0-5 0-6 2-2 3-3 3-3 1zm62-3-5-1h-3c0-1 7-2 9-1h7c6-1 9-1 9 1l-6 1-8 1-3-1zm-131-1 4-2 4-3-4 1-4 2-2 1c-1 1-1 1-2-1l-1-2v-2l3 1 5-1 4-1c2 1 2 1 2-1s3-8 5-8c0 1 2 1 3-1 1-1 3-1 3 1 0 1-4 4-6 3-1 0-3 3-3 6 1 1 1 2 3 2l5 1h4c1-2 5-3 6-3 1 1 0 3-1 3-2 0-2 0 0 1s2 1 1 2h-17a753 753 0 0 0-8 0c-1 2-4 2-4 1zm-62 0-2-1c-1-2-3-2-3-1h-6l1-2c3-1 5-4 5-5l1-2 2-2c1-3 6-8 8-8s1 2 0 4c-2 2-2 2-1 4 1 1 1 2-1 4s-1 4 1 4l10-1c2 1 1 4 0 5l-15 1zm-1-7-2-1-1 1 1 1 2-1zm23 4 3-6 3-4 3-3c1 0 1 1-1 4l-2 4c-1 2-1 2 2 2s3 0 3-2l6-12h1l-2 5a35 35 0 0 0-4 9l2 1 7-2h-7c-1-1 5-3 8-3h2l7-8 1 1-3 5-2 3v4l1 1h-9c-4 2-19 2-19 1zm186-1c-1-1 1-4 2-4 2 0 2 1 0 3-1 2-2 2-2 1zm-191-6c0-1 2-6 4-6 1 0 1 1-1 2-1 2-1 3 1 1 3-2 4-1 3 2l-2 1h-5zm-5-2c-1-1 0-3 3-6s4-4 5-3-1 2-3 5c-4 5-5 5-5 4zm-25-4 2-2-1 2h-1zm136 0h1l-1 1v-1zm-63 0v-2c0-2 2-1 3 1 1 1 0 1-1 1h-2zm152-2-6-2h-2l-13 1-14-1-3-1h-6l-9 1-3-1 4-2 7-1 4-1h2c1 0 3-3 3-5l1-4v-4c0-3 1-3 3-2 2 0 2 1 2 3 0 3-1 5-2 5l-1 3c-1 6 0 7 9 6h10c4 0 5-1 7-5l2-4c2 0 2 1 1 4-1 2-1 3 1 5l4 1h5l7 1c4 0 6 1 5 2l-18 1zm-204-1c0-1 2-3 3-2v2h-3zm-340-1-1-6 2-7c3-4 4-4 4-1l1 3h4l-1 2c-3 3-3 4-1 3 2 0 3 1 3 2l-3 1-5 2c-2 2-3 2-3 1zm4-7-1-4-2 4c0 2 1 3 2 3l1-3zm13 6c1-4 6-8 6-5h2l2 1c0 2-3 4-6 4l-2 1-1 1-1-2zm383 1 1-2v2h-1zm79 0-1-2h-18l-12 1-7-1h-7c-5 0-6 0-6-2l6-1c6 0 8-1 10-5l3-2c2 0 1 3-1 5l-2 2h17c1 1 12-1 13-2l2-4c1-4 3-6 4-5s0 2-1 6l-2 5 3 1 4 1 2 1-1 1c-2 2-4 2-6 1zm-490-3 2-3c2 0 3-1 3-2l1-1c2 0 1 3-2 5-2 3-4 3-4 1zm416-3-2-2c0-1 1-4 4-7l1-3c-2-1-2-2 0-2 3 0 4 4 1 6l-2 4 2 4c1-1 2 0 1 1s-2 1-5-1zm-15 0 5-1h6c1 1-1 2-3 2l-8-1zm-12-3c-1-1 3-5 5-5s1 2-1 4c-3 2-3 2-4 1zm-14-1 3-1 2 1-3 1c-3 0-3 0-2-1zm8 0 4-4c2 0 2 1 0 3s-4 2-4 1zm-16-2 1-3 1-2c2-1 4 0 2 1l-1 3-2 2c-1 1-1 0-1-1zm-367-1 2-2c1-1 1-2-1-3l-1-1 3-1c3 0 3-1 2 3 0 3-5 7-5 4zm377-1 3-5c5-5 6-7 5-7l-6 6-1 2h-2c-1-1-1-2 1-4l2-3 1-2h-4 1l-1 2-2 2-4 5-2-1v-4l-5 3h-2l2-3 1-4c-1-1-1-2 1-2l3-1 3-1a38 38 0 0 0 18-3l3-1c1-1 2 0 4 1h5c3-2 6-1 6 1 1 2 0 3-2 3l-3 3-5 6-2 3h-1c-2 0-2-1 2-5 4-5 5-6 2-6-1 1-2 0-3-1l-1 2-2 2c-2 0-3 0-5 4-8 9-10 11-10 8zm-8-13-1-1-1 1h2zm22-3h-2v1c1 1 2 0 2-1zm46 12v-1c1-1 3 0 3 1h-3zm18 0-2-1c-3 0-3-2 0-2 4-1 6 0 7 1v2h-5zm8 0c-3-2 1-3 12-5 3 0 4 0 5-3l3-2v3c-1 3-1 3 1 3h7l6 1c1-1 2-1 2 1 0 1-5 2-16 1h-10l-10 1zm45 0-2-1c-3 1-3 0-1-2l1-3 2-2v-1c-2 0-1-2 1-2 2-1 4 1 2 2v3l4 1 3 1c0 1-1 2-3 2l-2 1-5 1zm88-1v-1l1-1c0-2 1-3 3-4l2-1c0-1 0-2 2-2s3 1 4 3l1 3-7 3h-1c-2 2-3 2-5 0zm6-2v-1l-1 1h1zm-192 1c-1-1-1-2 1-3 3-1 4-1 4 2 0 2 0 2-2 2l-3-1zm124 0-6-2c-6 0-9-1-6-3l6 1c6 0 7 0 7-3l2-4 1-2 3-6c2 0 2 2 1 4a77 77 0 0 0-3 7l2 1 2 2 5 1h4c1 1 9 0 12-1h8c1 1 2 1 2-1l2-3 2-5c0-4 2-8 4-7s2 2 0 3v2l-1 1-1 2-2 5-2 4h7c4 0 5 0 9-2l4-2 1 1c0 3-6 5-13 6l-10-1h-10l-14 1a158 158 0 0 0-16 1zm-106-1 1-1 1 1-1 1-1-1zm164 0h1c2 0 1 1 0 1l-1-1zm-102-3h2l-1 1-1-1zm-169-2c0-1 1-2 2-1s0 2-1 2l-1-1zm-337 0 2-3 3-1c0-2 2-2 2-1l-3 4-4 1zm372-1 1-2c2-2 2-2 3 0 1 1 1 3-2 3l-2-1zm74 1 1-2c1-1 3 0 2 1l-3 1zM97 39c-1-1 1-8 2-8l1 2v4c0 2-1 3-3 2zm352 0c-1-1-1-6 1-6l4-2 5-2h8l3 1 3 1 2 1c2 0 3 1 2 2h-8c-1 1-2 0-2-1v-1l-5 2-2 1-5 2-3 1c0 2-1 2-3 1zm110-1 2-3 3-4c0-1 3-6 4-5l2 2-1 3-1 1-2 2c-2 0-2 1-2 2 0 3-4 5-5 2zm-17 0v-3l2 1v2h-2zm38-3v-3l-3-1c-3 1-4 0-4-1l1-2 2-1h5l1 1 2 1h8c1 1-2 3-5 3-2-1-2-1-4 2-1 2-2 3-3 1zm1-5c0-1 0-1 0 0v1-1zm-48 5c0-2 1-3 3-3l2 2c0 2 0 2-2 2l-3-1zm23-1-4-1h-3c-1-2 1-3 6-3 6 0 9 1 5 3l-2 1h-2zm76-1 1-3c2-2 1-3-3-3l-4 1-3 2-5 1-6 1-3 1c-1 1-3 0-2-2 0-2 0-2-3-2-4 0-5-2-2-4h3l3-1h4l3 1 4-2 2-1 4-1h12l1 2 1 1 3-2c4-2 8-3 11-1 2 1 3 3 1 5-1 1-7 2-8 1h-4l-2 1-3 6-3 1h-3l1-2zm-16-7-1-1-1 1 1 1 1-1zm-22 4c-1-1 0-3 1-3h3v2c-1 2-2 2-4 1zm75-1h1l-1 1v-1zm6-1-1-2h-4c0 1 0 1 0 0h-3c0 1-7 2-8 0-2-1-3-4-2-7 2-2 3-2 5 1l1 2 1-2h4c0 2 1 2 3 0v-1l-1-1h9c2-1 3-1 3 1-1 1 1 2 6 1l2-1c-1-2 2-2 4-1 3 2 2 4-1 4-4 0-9 2-9 3l-2 2-2 1h-5zm6-3h-4 4zm28 0-6-2-6-1 1-1c1-1 3-2 6-1l3-1 3-1c2 0 2 0 3 2s0 3-2 5h-2zm10-2-1-3c0-2 7-4 15-5l5-1c3-1 6 0 8 2v6l-10 1-12 1-5-1zM89 21c-1-1 0-3 1-3l1 1v2h-2zm-21-1v-4c0-3 2-3 2-2 1 1 0 6-1 6h-1zm616-1h3l-2 1-1-1zM71 10c0-2 2-2 2-1 1 1 1 2-1 2l-1-1zM47 5l2-1h1c0 2-1 3-2 3s-2-1-1-2z"/>
</svg>
