<?xml version="1.0" encoding="utf-8"?>
<svg xmlns="http://www.w3.org/2000/svg" version="1.1" viewBox="0 0 1216 1287">
	<title>Sketch of cliffs overlooking a body of water.</title>
	<path d="M802 1281c-8-8-8-11-8-35v-22l3-3c2-1 5-3 6-2l4-3c3-4 4-18 3-24-1-3-1-3-2-1l-1 7c0 3-1 5-2 5l-1-1a2772 2772 0 0 1-2-42c-2-1-2 2-2 19 0 27 0 26-3 26-4 0-7-17-3-19 2-1 2-3 2-15l1-32 1-21a1895 1895 0 0 1-2-61l-1-8-1 9-1 21-2 16c-1 3-2 8-2 19a412 412 0 0 1 0 45v2l-1 7c0 9-3 11-6 6l-2-9c0-8 2-14 3-14l2-19 1-30v-10c-3 0-4 5-5 25-1 19-1 21-4 23l-2 4c0 2-1 3-3 3-3 0-5-7-5-18 0-5-1-9-3-13s-2-6-1-18c2-18 1-26-2-27-2 0-2 2-3 15l1 18c2 3 0 3-3 0-2-2-2-3-1-21 1-19 1-20-2-22-4-3-5-3-5 3 0 7-2 8-3 1l-3-7-2-20c0-20-3-23-3-4l-1 22a207 207 0 0 0 0 45c3 0 1 8-3 12-4 5-4 5-7 2-2-2-2-3 0-13l3-16 2-23 1-26v-14c-1-3-1-4 1-6s2-6 2-19c1-20 0-23-2-21-3 3-4 14-6 59l-2 22c-3-1-4-9-4-27 0-16-1-21-3-19l-1 24c-1 28-1 25-3 25s-2-1-1-7a1024 1024 0 0 0 3-73v-12c-1-6-1-6-1-2l-2 8c-2 4-3 9-4 52l-1 22v10c1 10 0 13-3 13a922 922 0 0 1 0-98c-2 1-3 5-3 23a511 511 0 0 1-7 81c1 12 0 16-4 11a2211 2211 0 0 0-2-47l-3-1c-3 0-5-6-4-16a605 605 0 0 0 0-54c-2 0-2 4-4 61 0 6-1 9-2 9-3 1 0-68 3-81 1-2 5-1 6 2 0 2 1 3 2 3l2-1c-2-2-1-14 0-21v-25l1-30 1-19h3c3 0 3 0 3-3 0-4-6-25-8-25l1 21c1 2 0 2-2 3-3 1-6 10-4 13l1 14-1 22c0 11 0 11-3 11-6 0-7-2-6-21v-15l-4 24c0 16 1 37 3 36l1-4c0-2 1-3 2-3l2-4c2-6 3-2 4 9 0 8 0 10-2 10-2 1-2 0-2-2l-1-8-3 12c-1 15-3 19-3 7 0-7 0-9-2-9s-3 12-5 58c-1 12 1 33 2 32l1-26c1-25 3-40 4-38v66l-5 1-6-1v-36a642 642 0 0 0-2-66c0 1-1 3-3 3s-2 0 0 1c2 0 3 1 2 5l-1 15-2 14-1 22c0 14 0 16-2 16s-2-3-2-20c-1-20-1-26-3-26s-5 10-3 12 1 43-1 43c-3 1-4-23-2-63l-1-21c-2-3-3 5-2 16 0 11 0 12-5 9v-4l1-11c-1-7 0-12 1-17l4-15c3-9 3-41 1-43l-2 9a3566 3566 0 0 1-2 17c-2 1-2 4-2 12 1 6 0 11-1 11l-2-14c0-4-1-6-2-5l-1 10c1 7 1 9-1 10-3 1-4-1-4-5s-2-7-3-6c-2 3-3 51-1 61 1 10 0 16-2 11-2-3-3-2-4 1-2 8-5-4-5-22l-1-7c-2-1-3 7-2 24 0 13 0 16-2 18l-3 3-1-3 1-8 2-23c0-16 0-20 2-21 3-2 5-11 3-10l-2 3-1 2-1 2c0 2-3 2-4-1v-22a372 372 0 0 0-1-20c-3 1-5 16-4 24 1 7 0 9-1 9-2 0-2-2-2-8 0-8-2-8-4-1 0 3-1 4-2 2-2-1 0-10 4-15 4-7 4-18 0-18-2 0-2 1-2 6l-2 6c-3 1-5-2-5-7l-2-10c-1-4-1-6 1-9v-7c-3-2-5 2-5 15-1 12-2 15-4 10v-16l1-26c0-11 0-13-2-14s-2-3-2-7-1-5-2-5c-2 2 0 41 2 43 1 2 0 5-2 5l-2-4-4-3c-2 0-2 3 0 15 1 10-2 20-6 19-2 0-2 0-2 4 0 8 0 14-2 13v-23c1 0 4-6 4-9l-2-2c-2 0-2-4 1-13 3-7 4-26 1-27l-2 10c0 9-1 12-3 12l-1-5c1-6 0-13-3-14l-1 8-1 13c-2 7-4 28-2 29 1 0 2-2 2-7l2-6c2 1 2 16 0 23 0 6-3 7-3 2 1-5 0-7-1-7-2 0-2 22 0 25 2 4-1 8-3 5-2-1-2-8-1-30 0-27 0-28-3-31a1244 1244 0 0 1-6-81c-1 1-2 4-1 21 0 17 0 19-2 21-3 1-3 4-3 19 1 9 0 17-1 17l-1-4-3-5c-2 0-3 1-3 5l1 6 1 10c0 6-1 9-3 11s-3 4-2 11l2 13c2 5 1 7-3 5-1-1-2-5-2-27 0-27 1-40 4-45 2-4 1-11-1-11-2-1-2 1-2 5l-1 8c-1 3-3 0-3-7v-7c-3-3-4 2-6 15l-2 16c-1 3-2 3-3 1-1-3-1-8 2-20 1-7 0-25-2-25s-3 4-4 15c0 6-1 11-2 11-2 1-1-21 2-27 2-5 2-6 0-8-2-3-2-5-1-10 2-12 2-28-1-33l-3-5c-1 0-3 8-3 14 0 5 0 5 2 2 3-4 4-1 2 6l-1 10v11l-1 29c0 18-1 24-3 33-3 11-3 12 1 11 2 0 3 0 2 9 0 6-1 10-2 11-3 2-4 0-4-6 0-4 0-7-2-8l-2-6c0-4-2-5-5-3-3 4-4 0-4-15 1-10 0-16-1-17-3-3-5 7-5 29-1 18-2 21-3 21-2 1-3 0-3-1-1-1 0-14 1-28a716 716 0 0 0 3-55c-3 5-4 4-4-3 1-5 1-7-1-7s-3 1-4 12c0 8 0 9 2 9s2 2 1 13c-1 26-3 37-4 38-2 0-3-12-2-20a533 533 0 0 0-3-52c-2 1-5 27-4 29v10l-1 20c1 12 0 15-3 12s-6 0-4 3v6c0 3 0 3 2 2 2-3 6 1 6 6l2 5 1 3 2 6 2 7c1 4 1 5-3 8l-6 3c-3 0-5-7-5-19 1-11-1-19-4-22-2-1-2-3-2-7 0-5-1-6-4-7-2-1-3-2-3-10 0-7 0-10-2-11-1-1-2-3-1-6l-1-4-1 15-1 17c-1 2-4 1-4-2l-2-5-2 8c0 6-1 9-3 9l-1 1s0 2 1 1c2-1 1 4-1 7-3 2-4 2-11-5-2-2-3-4-2-9 1-6 1-7-2-7-3-1-3-2-2-6l-1-5c-1-1-2 2-3 10 0 5-2 6-4 1v19l-10 1c-9 0-9 0-11-4-1-4-1-5 1-6 3-2 5-25 2-24a2021 2021 0 0 1-4-10l-1 16-2 16c-2 4-2-2-1-17l1-19c0-2 1-3 3-2s3 0 3-4l-2-5-1-5v-5l-2 4-3 17c-1 13-1 14-3 13-3-1-3 0-2 12l-1 12c-3 0-8-5-8-8l-2-4c-3-2-3-2-2-5l1-16a442 442 0 0 1-2-19c-1-1-2 7-3 18l-2 6-1-14c-1-16-3-21-4-7l1 27c1 3-4 8-10 9-4 0-5 0-7-4-2-5-3-5 0-5l2-1v-40c-1-3-3 11-3 25 0 8-1 11-2 12l-3 1 1-12c2-14 2-17-1-12-2 3-3 8-4 19 0 11-1 15-3 15-1 1-1-1-1-12l3-20 1-22c1-12 0-15-1-14-2 0-2 2-3 6v10l-1 10c0 7-2 9-4 5l1-10v-8c-1 0-4 9-4 13 0 2-1 5-3 6l-3 5c-1 6-3 2-2-4l-1-42c-1-1-3 4-3 10l-1 7c-1 0-2 2-2 5 0 8 0 8 2 6 4-2 4 0 2 7l-2 14c0 5-1 8-2 8l-1-2c0-4-1-8-3-8l-2 5-2 6 1-22a244 244 0 0 0 2-34c0-7 0-7-2-5l-2 11-2 19-2 18c0 8-2 13-3 11s0-21 1-26c1-3 1-3-1-2-1 2-4 15-4 25l-2 6c-2 1 0-33 2-35l3-16 3-18v-12c-1 0-3 6-3 11l-2 6c-2 2-3 6-3 13l-2 10c-2 0-2-3 0-28l-1-19c-1-3-1-2-2 5 0 5-2 11-4 14-2 5-2 7-2 18 1 9 0 13-1 13-1 1-2-2-2-6-2-18-3-19-5-19-3 0-5 14-5 29 0 9-1 11-4 14-2 2-3 4-3 9 0 6-2 7-6 5-2-1-2-2 0-5l4-17c2-12 4-22 9-38l1-14a544 544 0 0 1 1-37l-3 14-2 20c-1 15-1 16-3 16-3 0-3-1-3-17l-1-16-3 25c0 10 0 13-2 16-4 4-6 3-5-3v-5l-2 5c0 6-3 7-4 1-2-6-2-6-3-1-1 7-2 9-3 9-3 0-4-3-5-14-1-18-3-17-2 0 0 6 0 7-3 8-2 1-4 3-4 5-1 3-1 3-2-1l-1-12c1-12 5-16 16-18 8-2 11-5 11-10 0-2-1-4-3-4-2-1-3-3-3-9-1-10-4-13-6-6l-1 10-1 4c-1 0-2-1-2-3l-1-3-1 5c0 6-3 11-5 10-3-2-4-11-2-20l2-14c2-21 2-25 4-30 1-5 1-5-1-7l-4-2-3 31-1 22c-2 3-2 11-2 17 0 8-1 10-2 9l-3-3-1 2c0 8-5 2-5-7l-1-4c-1 1-2 4-1 8 1 8 0 11-3 10-1-1-2-3-1-7v-6c-2 0-4 5-3 10 0 3 0 4-3 5l-3 1c0 2-13 8-15 8l-2-6c0-5 0-5-2-2-1 3-2 4-4 4l-1 1 2 1c2-1 1 0-3 5l-5 4c-2 0-3-4-2-6v-2c-2-3-4 1-3 5 1 3 0 5-4 9-6 7-9 6-11-3-2-5-1-7 0-9l4-2 5-2 10-3c5-1 6-1 6-3-1-3 3-6 7-6 3 0 7-4 8-8l3-4c2 0 2 1 1 5v17l2-8 2-12c2-4 6-5 10-2 2 2 2 2 2-2 0-5 3-12 7-13 4-2 5-1 3 5v7c1 4 1 3 3-5a2395 2395 0 0 1 1-19l-1 1c0 4-10 7-15 5-4-2-5-5-2-5l1-2-3-1c-2 0-2 2-4 7l-1 10c1 1 0 2-2 3l-7 4c-5 5-13 8-19 8-4-1-5-1-5-5l-1-5-1 2c0 7-3 13-9 14-6 2-16 3-24 1-5-2-6-1-9 2s-5 3-12 3c-6 0-8 1-11 3l-6 4c-4 0-9-2-8-3l-1-4c-1-2-1-3 1-6s4-4 9-5c6 0 9-1 16-7 10-9 13-9 14-1 0 5 1 5 3 5 2-1 3-2 3-6 0-6 1-9 5-9 2 0 3 1 3 3s0 3 1 0l5-2c5 0 7-1 8-5 2-5 6-4 6 1 0 3 0 4 1 2 1-6 6-8 5-2v5l2-4 3-5c2 0 2 1 2 3-1 3 0 6 1 6l2-4c0-4 1-6 3-8 3-3 3-5 3-18 0-14-1-17-4-13s-4 2-4-6c0-5-1-6-1-4l-1 13c1 10 1 11 4 10 3-2 4 0 3 4-1 3-7 5-9 2l-2-9c0-4-1-7-2-7-2 0-2 2-2 4l-2 6c-2 3-2 3-3 0-1-4-4-4-5 1-1 7-4 6-5-1 0-5-1-7-2-7-3-2-4-1-4 7s-2 12-3 9l-2-7-1-5c-1 0-3 5-3 10 0 6-2 11-4 11-3 0-4-3-4-12 0-10 1-13 4-13 2 0 3-1 4-3 3-15 3-20 2-21-1 0-2-3-2-7 0-5 0-6-2-6-1 0-2-2-2-6 0-6 0-6-1-1l-3 5-2 5-1 3c0 1-2 3-2 7-1 5-2 8-4 10s-3 2-6 1c-5-3-7-8-7-14l-2-11c-2-4-3-5-6-6-5 0-5-1-1-7l3-8-2-4c-1 0-8 9-8 11s-5 4-9 3h-6l-1-1-4-4c-5-3-6-5-4-11 0-2 1-3 1-1 0 4 4 10 6 10 3 0 3-2 0-4-4-3-3-7 1-11 5-4 7-4 15-1 6 3 9 1 10-6v-6h-6c-4 1-5 0-6-2 0-1 1-4 3-5 2-3 4-3 9-3 6 0 6 0 6 4l3 5c1 2 2 3 0 6v17c2 4 3 0 2-7 0-4 0-8 2-11l2-8c0-3 4-9 6-9l4 2c1 2 2 4 1 10 0 8 0 8-3 8s-3 0-3 6c0 5 0 6 3 6l4 2 3 3c2 0 2-1 1-2-1-4-2-19-1-23s5-4 5 1l1 5 2 7c1 5 2 5 2 2 0-7 6-9 11-5 2 1 3 3 2 11v9c3 0 4-3 4-9l2-14v-9c-1-2-1-2-3 0-3 2-6 1-7-3s-2-4-5-2c-1 2-9 1-11-2s2-6 6-5c4 3 6 2 7-2 0-5 4-5 5 1s3 7 5 2c2-3 2-3-1-5-3-3-1-7 3-6 6 2 7 3 5 7-2 3-1 9 3 12l4 2h4l5 2c3 0 3 1 4 6v7l7-6c7-7 8-7 9-4l4 5c2 2 3 2 7 1 5-2 5-2 5-8s-1-7-3-6c-4 1-7-1-7-5l-1-4-1 5c0 6-2 8-5 6l-6-2c-4 0-5-1-5-5-1-6-2-7-4-3-3 5-12 2-12-4 0-3 6-5 11-5 6 1 9-2 7-6-1-3-4-4-4-2l-2 1c-2 0-2-9 0-17 2-5 7-11 9-11 1 0 3 4 3 7s3 2 4-1c0-2 2-3 4-4l2-1-5-5c-3 0-12-8-12-11 0-2 2-2 7 0 4 3 6 3 7-1 0-4 4-4 4 0l-1 7c-2 8 1 7 4-1 2-6 3-7 5-6 2 3 3 2 4-3l3-5c1 0 2 1 1 4l-2 9-2 7 1 3v7c-2 9-2 13 0 13s2-2 3-6v-11c0-7 3-22 5-27 1-3 1-3 3 0 2 2 2 2 4-1 3-4 3-6-2-6-6-1-8-3-8-10 0-6-2-7-3-3l-1 6-1 4-2-5c0-6-2-6-3 0-1 9-3 9-3 1 0-5-1-7-2-7-3 0-4 5-3 12 1 6-1 10-3 8-2-1-1-15 0-22 1-2 0-5-1-7-3-4-5-4-5-1 0 2-1 3-2 3s-2-2-2-11l1-12 6 5c4 4 5 6 5 10 0 3 1 5 2 5 2-2 3-10 1-14-1-3-1-3 3-2l4-1 3-3 6-1c3-1 6-2 11-1l1 3c0 4 1 4 2-3 1-3 1-3 3-1l2 5 1 2c1-2 2-11 1-12-2-3-1-12 2-12 2 0 2 2 2 6 0 6 3 8 7 4 3-3 3-6 0-7s-3-4-1-7l2-3 2-3c2-1 2-1 3 1l3 3 2 4c0 4 1 4 5 4l1 4c0 2 1 6 3 8 3 6 5 4 3-4l-2-7c-1-3-2-4-4-4-5 0-5-4 0-7 2-1 4-4 5-7 3-6 6-6 6-1l1 4 1-5c2-7 4-4 4 7 1 10 0 12-3 8l-4-2c-3 0-4 4-2 9l2 5c1 3 2 2 3-2 2-4 3-5 6-5 8 1 8 0 8 17 0 16 0 16 2 10 3-7 5-6 4 2-1 5 0 7 1 8 2 2 2 1 3-6 0-9 2-12 3-10v6c-1 5 1 5 4-1l1-14c-1-10-2-13-4-8-1 4-3 3-3-2 0-3-1-3-2-2l-1 9c0 7-1 10-4 6-2-2 0-23 2-24s2-3 1-11c-1-10-1-11 2-9 1 1 2 5 2 14 0 15 2 12 2-4 1-15-1-29-3-30-2 0-2 0-2 3l-1 6c-2 0-2-3-1-11s0-12-1-15l-2-4v6c0 6-1 7-4 7-4 0-4 0-4-8 0-7 0-8-6-9l-4-1v13l-2 15c-1 4 2 4 7-1l6-4c3 1 5 10 7 28v15c-4 2-6 1-7-6v-9l1-8c0-6-4-7-4-1l-1 4c-2 2-7-4-7-7l-2-4c-3 0-3-1-2-16 2-12 1-18-1-15-1 1-4 24-4 36 0 3-1 5-3 6l-2 3-2 2c-2 0-2-1-2-5 0-3-1-4-2-4l-1 4c1 3-1 6-3 4v-4c1-5-3-10-5-7l-1 6-2 7c-2 3-8 2-9-1-1-4 1-9 3-9 3 0 4-3 2-6-4-3-2-5 4-4s7 0 6-4c-2-2-3-2-9-2h-8l-4-2c-3 0-7-3-5-4l-2-4-3-12c0-9-1-9-5-11l-4-4c0-1-1-2-3-2-7 0-10-8-6-12 3-2 3-2 6 0 1 2 4 3 5 3 3 0 6 3 5 5l1 2c4 1 5 1 5-1 0-3 3-3 3 0l-2 12v9c1 6 1 6 2 3 0-4 1-4 4-4 5 1 6 2 6 6 0 6-1 7-4 3-2-2-2-2-2 0 0 7 1 9 7 9l6-1-2-4c-2-2-2-4-1-5 2-2 4 0 5 4 2 9 5 9 7 1 0-3 1-5 2-5s2 5 2 13c0 11 0 13 2 13s5-7 7-21c2-11 1-18-3-21-2-1-2-6 0-7l4 1c2 1 3 1 5-1 2-4 4-4 5-1s1 3 5-1 4-7-1-7l-3-1-2-1c-2 1-11-3-12-5-1-3-3-1-2 3 1 3 0 5-2 5l-4 1c-2-1-2-6 0-8l2-4c0-3 0-4-2-4-3 0-3-1-4-5-1-5 0-8 3-7l1 4 1 5c1 1 1 1 2-1 2-4 1-12-1-14-3-3-16-9-19-8-2 1-2 3 0 3l2 1h-4l-8-2c-5 0-5 0-5-5 0-4 1-5 4-7 6-3 11-2 12 2 1 3 1 3 4 1s3-2 7 1 6 4 13 3c6 0 8 0 9 2s3 2 3 0c-1-1 1-2 5-2 3-1 6-1 6-3 2-3-1-5-5-3-2 2-3 1-5-1l-2-4c2-2 6-2 7 0 0 1 1 1 3-1 3-3 6-2 7 2 1 1 1-2 1-7 0-8 0-10-2-11l-2 1v3l-1 3c0 2-5 2-6 0-1-1 0-2 1-3 3-2 3-8 0-10-2-2-2-5 0-5 3 0 5 2 5 5s0 3 2 1c2-1 2-1 3 1 0 2 2 2 5 1l4-1-1-4c-3-5-2-9 1-8l3-2c1-3-5-1-9 3l-5 4c-3 0-8-4-8-6s0-2 2-1c2 2 2 2 3 0 2-2 1-4-2-6-2-2-3-2-6 1-2 2-3 4-2 8 0 4 0 4-3 5l-5-2c-3-2-8-1-7 1 0 2 0 2-3 1-2-1-3-2-2-4 0-3 0-3 13-4 4 0 5-3 1-4-2-1-3-2-3-6 0-6-3-9-10-11l-6-1-6-1c-3 0-4-1-4-4 0-4 4-5 10-2 5 3 6 3 9 0s6-3 6 0l1 2c2 0 3-3 3-10 1-3 1-5 3-5v4c-1 6 2 14 6 14l10 1c11 0 14 2 12 9 0 4 0 5 2 5 3 0 3-1 2-6l1-5 3-4c3-7 1-17-4-20-3-1-5-4-6-6 0-2-2-3-2-3l-5-4c-3-2-3-4-3-7 1-3 0-4-2-4l-3-5-2-4-1 4 1 7 3 4 3 6c1 3 2 4 3 3 2 0 2 0 0 2l-2 4c0 2-10 0-12-2-1-2-2-2-3 0l-5 1c-6-2-15-7-16-10 0-1-1-2-2-1l-4-2-7-2c-4 0-5 0-4-3 0-5 3-6 4-2 1 2 2 3 3 2 1-2 6 0 7 3l6 2h4l-3-5-5-5-5-3c-1-2-4-2-6-1-4 1-4 0-4-4l1-5 10 4c6 3 10 6 12 9 3 5 4 5 8 5 10 0 10 0 9-3l-1-10c1-5 0-6-1-5l-1 5c0 4-4 4-5 1 0-1-2-3-4-3-2-1-3-2-2-4 1-4-2-4-4 0-1 2-1 2-3 0-1-1-2-2-3-1l-6-2c-2-1-3-2-4-6v-8c1-3 0-3-3-3s-5-1-6-3c-2-2-3-3-8-3l-5-1-4-1c-3 1-5 1-7-1-3-3-12-3-17-1-6 2-6 2-13-3-8-5-9-6-5-8 2-1 14 2 16 4 1 1 4-3 4-5l-2-1c-2-1-4-2-4-4-1-3-6-4-15-2-6 1-9 1-12-1l-9-2c-8 0-13-6-9-10 2-3 2-3 7-1 9 3 17-1 13-8-3-5-7-6-11-3l-3 3-3-2c-4-5-3-13 2-13 2 0 4 2 5 3 2 2 3 3 6 2l7 1c2 1 3 0 4-2 1-3 4-4 8-4l3-1c1-1 5-3 8-3 5-1 6-1 8 2l2 3 1-5c1-4 2-5 4-5l2 1 3 2 4 5c0 5 3 5 4 1 1-2 2-2 4-1 3 1 3 2 3 7 0 4 1 6 3 8l5 2 4 3c0 1 1 2 2 1l-1-2-2-4-3-3c-4-1-4-8-1-11 3-2 4 0 4 5l-1 5 2-3c2-1 3-6 3-10 1-5 2-7 3-7 2 0 2 2 2 8 0 7 0 7 2 4l2-3 2-1c3 0 4-2 2-4-2-1-2-7 0-7 3-1 3 0 5 11l3 11c3 4 3 6 0 6l-2 2c0 3 2 3 5 1 4-4 10-3 11 3l-1 3-1 2-2 6c-2 2-2 3-1 3s3-3 4-7c3-7 7-9 6-3l1 3 4 3c2 2 3 2 5 0 3-3 4-3 4 0l1 1 1-4c0-2 1-3 2-2 5 1 6 0 6-5 1-5 1-6 3-6h4c1-1 2 0 3 2s2 2 3 1c3-3 4-2 4 3 0 4 2 9 4 8l1-5c0-5 2-7 4-5 1 1 2 1 3-1 2-2 7-2 11-1s4 4 0 4c-6 1-9 2-8 4 1 1 2 2 3 1 2 0 3 0 3 2s-1 3-6 3h-10c-2 0-3 1-3 3l-2 7c-2 5-2 5 1 7 3 1 8 2 10 0 1-3 1-5-3-5l-3-3c0-2 7-4 9-2h3c1-2 4-1 4 2l2 2 5 3c2 2 3 4 2 9 0 11 0 16 2 16l1-10c0-9 1-12 3-11v13l1 12c1 1 1-3 2-10 1-12 3-16 3-6 0 4 1 6 2 6 2-2 1-14-1-19-3-5-3-8 0-7 2 0 3 2 4 5 1 7 3 8 3 3 0-3-1-8-3-11-2-4-3-8-2-10 0-4-1-4-3-1l-5 2c-4 1-4 1-4-6 0-2-1-5-3-7l-4-5-5-5c-6-3-7-7-2-8l3-1-3-6c-1-3-4-5-9-8-4-1-7-4-7-5-1-2-2-3-4-2-5 0-6-4-2-6 5-2 12 0 15 5 1 3 1 4 3 1l4-2c2 0 2-1 1-6l-1-11-1-4-4-2c-4-1-6 0-9 1-2 2-4 2-6 1-6-3-8-3-8 2-1 8-7 7-6-1l-1-6-2-4c0-3 1-3 4-3l6 2c3 2 6 2 13 2l12 1h4c3-2-6-19-11-19l-1 4-1 3-5-3c-5-4-7-4-7-1 0 2-1 2-2 0-3-4-7-2-6 3s-2 6-6 3c-2-2-2-3 0-5 3-3 2-5-3-8-3-1-5-3-5-4l-2-1c-1 0-5-1-7-3-3-2-6-4-9-4-4 0-4 0-3-2v-3l-3 3-2 5c1 2 1 3-1 3s-2-1-1-3c1-5-2-7-10-6-5 0-6 0-7-2 0-1 1-3 3-3 3-1 3-3-1-4-2-1-3-1-4 1-2 2-5 3-7 1-1-3-5-2-11 3-5 4-6 5-6 8 1 4-1 5-5 2s-4-8 0-10l3-3c0-3-7-12-9-12s-2 4 0 6c3 3-4 14-10 14-2 0-3-1-3-3-1-3-4-3-5-1l-6 2c-7 0-6-4 1-7 6-3 7-5 2-5l-6-1-4-1c-1 1-1 1 1 2 3 1 3 1 0 3s-5 1-7-5c-3-7-2-8 21-10 13-1 20 0 24 1 3 1 6 1 11-1 16-3 43 1 60 9 7 4 18 6 31 5l11 1 4 2c3 0 5 1 6 3l2 3 6 2c3 1 8 2 10 4l9 6c3 1 6 3 7 5l4 3 9 6c6 5 7 7 7 11l-1 5c-2 1-1 3 1 3l2-2c2-4 5-5 6-2 0 2 1 3 4 3 5-1 12 3 13 6 0 1 1 2 4 1 8-1 14 6 11 13-2 4-1 5 1 7l5 4c4 0 11 14 12 25l2 9 1 6c-1 3-1 4 3 4 3 0 4 0 4 2l2 3c2 1 3 4 4 7 1 4 3 6 4 6l4 4 5 4c5 1 7 10 4 12-2 2-3 1-7-3-6-6-7-6-5 0 2 5 1 9-2 8l-3-8a11710 11710 0 0 0-8-19l-5-6c-2-7-4-6-3 1 0 5-3 8-6 6-2-2-2-8 0-12l4-3 3-1-10-5c-6 0-9-13-4-17 3-3 3-3 2-8-2-3-3-5-6-5-2 0-3-1-6-9l-3-8-5 7-17 19c-11 10-11 12-10 15 0 4 0 5-2 3l-5-1c-2 0-1 5 1 5l5 9 5 10c3 2 9 22 9 27l2 5c3 3 6 12 6 17 0 2 1 5 3 6 3 3 5 10 5 16 0 4 2 6 6 10l5 7 2 3c3 2 3 2 0 4-2 2-3 2-5-1l-2-4c0-1-2-3-5-4s-4-2-5-8l-2-9-2-7c0-3 0-5-2-6l-2-6-3-7c-4-1-7-10-7-16l-3-14-3-8h-3c-2 1-3 2-3 4s-2 3-3 4c-6 2-9 6-10 10-2 5-9 11-14 10s-5 1-1 8l2 7c0 1-3 1-8-1-2-1-2 0-2 4 0 5 0 6 2 6l4 5c1 6 2 7 3 7v-5l1-4c2 0 10 7 10 9l1 1c4 0 5 1 7 4 1 4 0 13-2 12l-1-3c0-1 0-2-2-2l-2 4-3 5c-5 5-5 6 1 10l5 2v-3c0-4 3-6 6-5s2 5-1 5c-2 1-3 2-3 5l-1 4c-1 1-1 0-1-2 0-3-3-2-4 2l-1 4-1 7c0 4 0 5-1 3l-1-7c0-5-3-7-4-4-2 2-2 8 0 11l2 5c0 2 1 2 4 0 2-2 3-3 3-9 0-5 0-6 2-6l2 2 1 2 2-6c0-3 0-5 2-5l2 1a814 814 0 0 0 2 41c0 3 9 6 12 4 2-1 3 0 5 2l2 6 4 7 6 15 5 13c5 6 8 14 8 18 0 3 0 4 2 2s6 0 9 4l5 3c2 0 2 1 2 4l2 5c1 1 1-1 1-4-1-5 1-9 3-9l3-2h4c3 1 4 3 5 7l3 4c1-2 5 8 5 13l-2 7c-2 4 2 10 6 8 3-1 3-4 0-4-2 0-2-4 0-14 1-4 5-4 6 0s3 2 3-3l1-6c1-2 2-2 4-1l5 4c2 1 3 3 4 8 1 8 2 9 3 3 1-4 4-5 3 0 0 2 0 2 2-1 3-3 6 0 6 6l2 8c2 2 2 2 2-6l2-10c2-4 6-2 6 2 0 3 1 4 3 5s4 2 3 3c-1 3 4 14 6 14l2-4c1-3 2-4 4-4l4 2 3 1 3 2 1 2 1-5c-1-7 5-12 7-5 0 2 1 3 2 3l1-2c-1-1 0-2 2-2l6 2c1 1 2 0 3-1 2-2 2-2 4-1 2 2 7 2 19 2 11 0 16 0 15 1l-15 1c-12 0-13 1-9 6 1 2 2 2 4 2 3-2 4 1 4 8 0 6 3 6 6-2 3-6 5-7 8-6 2 0 2 3 2 8 0 9 2 11 3 3 1-6 5-12 8-13 10-2 16-8 16-16 0-2 1-5 3-6l2-5-39-1h-40v-2l35-1h34l2-6c0-6 3-9 6-8 2 1 3 1 2-4-1-6 1-9 6-8 3 1 3 1 2 4-2 5 1 8 3 3 2-4 1-9-3-11-2 0-4-2-4-3 0-2 2-2 7 0 4 2 3-1-2-5s-5-8-1-9l2-4c0-3 0-3 19-3 18 0 20 0 21 3l2 4c0 2 0 2-2 0-1-1-7-2-19-2l-16 1c0 3 2 4 18 3 14 0 19 1 15 3l-14 1c-15 0-17 1-11 6 3 3 4 6 4 7 0 2 0 4 2 6s2 2 7-1l7-2h7l6-1-6-1-12-1-6-1 1-2a75168 75168 0 0 0 60-1c2 1 9 10 9 12h-32c-26 0-32 0-33 2-4 3-10 4-11 2-1-5-4-3-4 2l-1 9 2 3c1 1 1 0 1-2 0-3 1-4 3-4 7-2 9-1 11 3s3 5 9 6l38 1c20 0 30 1 31 2v2l-30 1-30 1-2 3-3 5c-4 4-3 4 2 4 5-1 5-1 5-4s1-3 8-4h20a395 395 0 0 0 45 2v3l-14 1-51-3c-5-1-6 1-1 7l3 5c-1 3-8 5-11 4-4-1-11 2-9 4l9 2c7 0 8 1 11 5 6 6 6 10 0 7h-4c0 2 5 7 6 7l5 3c3 2 3 2 1 5-2 2-3 2-5 0-4-2-6-2-5 1l2 4c0 1-1 2-7 1l-7-1 4 4c3 2 3 4 2 5-2 2-1 6 2 7 4 2 7 5 6 9l1 11 1 6 18 1c26 0 27 3 2 3h-20l-1 4c-2 5 2 18 6 21l7 4c3 3 5 3 30 2 28-2 35-1 28 2l-30 2-26 1c0 1 2 4 5 6 3 3 4 6 4 10l5 15 4 12 1 3c4 2 9 20 5 22-1 1-5-4-5-7 0-2-1-3-2-2-3 1-6-4-6-9 0-6-2-14-5-20l-2-8c0-5-2-12-5-15l-5-6c-1-2-2-4-3-3s-1 22 1 27l2 9 2 9c1 2 2 7 2 16 0 11 1 13 3 15 2 1 2 2 0 7l-3 9c0 1 0 2 1 1l2-2c2 0 2 1 1 4l-1 17c-1 11-1 12 2 14 2 1 2 2 1 5-2 5 0 7 3 3 3-5 4-3 3 5-1 6 0 7 1 9 2 1 2 3 1 10v10l1 10c-1 8-1 9 2 9 2 1 3 2 2 5 0 2 0 3 2 4 2 0 3 1 2 4-2 7-2 10 0 10s2 1 1 11c-1 8 0 10 1 9l1-2v-2c1 0 2 1 2 4 1 4 6 6 9 4 2-1 1-40-2-49-1-5-1-6 1-8s2-2 4 3l2 10 2 10 1 25 2 23c2 2 3 10 4 33 0 21 1 29 4 29l-1-28-1-5 3 4c4 3 4 4 4 19 0 13 1 17 3 19l2 7c0 3 1 4 3 5 3 1 4 4 4 20 0 12 2 17 3 10 0-3 2-3 4 1l2 2c0-4 4 4 4 8l2 6c2 2 3 5 2 13l-2 14c-2 3-2 4 0 4 2 1 3 0 5-2 3-4 6-4 6 0l2 4c2 1 2 4 2 10 0 10 2 12 7 5 2-3 2-3 4-1l3 16c0 14 0 15 4 15 4 1 8 5 8 10 0 7 1 10 4 11 2 0 2 1 2 9v9l2-4c0-5 1-8 3-8l1 12c-1 17-1 19 1 19 5 0 8-5 10-14l4-13 2-15c0-12 1-14 5-11 3 3 2 16-1 23l-3 9c1 2 1 2 2 0s8-3 8-1 43 2 47 0c3-2 43-2 47 0 5 3 34 2 46-1 19-4 20-4 21-3 3 3-4 8-10 9-4 0-6 1-5 2h-10c-9 0-10 0-10 3s-4 6-8 4-10-4-21-6c-10-3-50-3-57-1l-21 1c-14 0-16 0-18-2s-3-3-4-2c-3 3-9 57-7 61l2 5 2 3 1-10 1-12c0-3 2-1 2 3l2 4h1l1-2 2 5c0 5 0 5 2 3l2-5 1-3 1 11 1 12c2 2 2 0 1-9-1-12 0-13 6-10 3 2 4 3 4 6-1 7 2 32 3 29l1-9 1-6c2-1 7 6 7 9 0 2 1 3 4 4 2 1 3 2 3 5l1 6c1 0 2-2 2-7l1-8 4 3c2 3 3 5 3 12 0 6-1 8-3 10a195120 195120 0 0 1-6 44c-1 8 1 13 3 12l3-28 3-16 2-12c0-10 0-12 3-10l1 12c0 13 1 16 2 5s3-16 5-16c2-1 3 3 1 10l-2 10c0 2 0 2 1 0 1-4 4-2 4 3v9l-1 13c0 7-2 11-4 8l-1-13v-12l-1 10a442 442 0 0 1-8 55c1 22 2 26 3 26v-5c-1-6 2-20 5-19l1 3-1 11-2 10-2 3c0 3-7 7-11 5-5-2-7-8-7-20v-14c1-2 1-2 3 0 2 3 2 1 2-11l-1-13-2 2-2 2c-1 1-2 0-2-5l-1-6-2 4c0 6-1 7-3 6l-1-6v-5c-1 0-2 2-2 5 0 4 0 4-2 3-2-2-7 1-7 4 0 2-1 2-2 2l-1-18v-24l-2 4-1 34c-1 33-2 39-7 39a255 255 0 0 1 1-42c1-10 1-9-4-12l-4-3-1 4-1 5c-3 0-4-16-2-27 3-13 4-28 2-28a709 709 0 0 1-6 50v12c0 3-1 4-3 2s-2-9 1-49l-1-13c-3 0-5 8-4 19l-1 17-2 6c0 7-2 10-5 8-1-1-2-1 0-4 3-7 1-25-2-25s-4-4-4-11a1524 1524 0 0 1 4-60h-2l-1 7v7c-1 2-2 9-2 20 0 10-1 17-2 17-2-1-3-9-2-18 1-8 0-13-3-13l-1 15a1782 1782 0 0 1 0 59l2-7c0-6 2-12 4-12s0 56-2 63c-1 3 0 6 1 10l2 18c1 10 0 12-2 15l-5 8c-1 6-2 5-7-1zm5-13-2-1-1 1 1 1 2-1zm-6-27-1 2c0 2 1 2 1 1v-3zm96-11c-2-2-2 0-1 3l1 4v-7zm-24-34c-1-1-1-1-1 1 0 1 0 2 1 1v-2zm29 0-1 1 1 1v-2zm-33 0-1-2c-1-1-1 0-1 1 0 3 0 3 2 1zm16-6a1645 1645 0 0 1 3-51c-2 0-2 3-3 12l-2 26-1 15c1 2 3 1 3-2zm20-20v-11l-1 3a250 250 0 0 1-1 24c1 1 2-6 2-16zm-26 7c-1-1-2 0-2 2 0 4 1 4 2 2v-4zm-4-5c0-6-1-7-2-4s0 11 1 11l1-7zm-22-2a788 788 0 0 1 0-56c-2 11-4 51-3 57 1 5 3 5 3-1zm12-11-1-3-1 3c0 2 0 4 1 3l1-3zm-40-8c0-4 0-7-1-6v14l1-8zm-21-7c2-18 2-26 0-25l-1 4-1 9c-3 8-3 27 0 24l2-12zm72 8-1-1-2 2c0 1 1 2 2 1l1-2zm0-8c0-5 1-7 4-8 1-1 3-3 3-5 0-3 0-4-3-5l-4 1c-2 1-3 22-1 22l1-5zm-11-3-1 2c0 2 1 2 1 1v-3zm6-8c-1-3-2-2-2 1s1 4 2 2v-3zm-10-2 2-6 2-3c3-1 2-8-1-10-5-2-6 0-6 12-1 11 0 14 3 7zm-25-7c-1-1-1 0-1 1 0 2 0 3 1 2v-3zm-66-4v3-3zm74-4v-5c-2-2-4 0-4 6 0 4 2 7 2 4l2-5zm-66-12a1253 1253 0 0 1 0-31c-2 0-3 9-3 21l-1 6c-2 0-5-11-5-16l-1-4-1 19c0 14 0 19 1 18l3-4c1-6 3-5 3 1 1 9 3 4 4-10zm27 5-1-6c-1 2 0 13 1 13v-7zm27-10c-1-4-3-1-3 5l1 7 1-5c1-2 2-6 1-7zm16 3-1-3-1 3 1 3 1-3zm-35-6c0-2-2-1-3 2v4c1 0 3-2 3-6zm33-4-1 1 1 1v-2zm-60-9-2-3c-2 0-2 5 0 8l2 1v-6zm24-22c1-17 1-17-2-16s-3 0-3-9a301 301 0 0 1-1-16c-1 1-2 9-2 25-1 22-1 24 1 21 2-1 2-4 2-6-1-3 0-9 1-9v39l1-6c1-3 3-14 3-23zm15 23-1 2 1 2v-4zm-6-3-2-3-1 2 1 3 2-2zm-28-11c0-5-1-9-2-9l-1 11c0 7 0 9 1 8l2-10zm34 3c-1-1-1-1-1 1l1 2v-3zm-8-1c-1-1-1-1-1 1 0 1 0 2 1 1v-2zm-38-5-2-1-1 2 1 1 2-2zm56-8c0-3-1-5-2-5l-1 8c0 5 0 6 1 5l2-8zm-60-14c0-6-1-8-3-8s-2 1-1 9a328 328 0 0 1 2 12l2-13zm54 17c0-1-2-2-3-1l1 2 2-1zm-67-9c-1-8-2-8-2 0l1 6 1-6zm28-3v6-6zm-33-20a390 390 0 0 1 0-30c-1 1-2 4-2 11l-1 10v32c1 1 1 2 2 1l1-24zm-12 19c0-2 0-2-1-1l-1 3c2 2 2 1 2-2zm91-5 2-8c1-2 1-3-1-2-2 0-6 12-4 15 1 3 3 1 3-5zm-91-4v-1l-2 1 1 1 1-1zm54-8v-12c-2-7-4-3-4 9 0 10 0 13 1 12l3-9zm-105-8v-17c-1-7-1-7-3-4-2 2-2 9-3 19 0 16 0 16 2 13 2-2 3-6 4-11zm67 8-1 2 1 2v-4zm26 0c0-2-1-2-2 0v3c1 0 2-1 2-3zm5-13v-17l-1-8c0-3-1-5-2-5l-1 11a347 347 0 0 1 2 33c1 0 2-6 2-14zm-16 5-1-2-2 3 2 2 1-3zm9-26c-1-6-3-8-4-3-2 5-1 24 1 27 1 2 1 1 2-8l1-16zm-34 14-1-6-1 13c1 0 2-3 2-7zm-26 0c-1-1-1-1-1 1 0 1 0 2 1 1v-2zm52-4c0-1 0-3-2-3v9l2-6zm-52-6c0-1 0-2-1-1l-1 4c0 3 0 3 1 2l1-5zm42 1-1-4v9l1-5zm32 2-2-2-1 2 1 2 2-2zm-52-6-2-1-1 1 1 1 2-1zm31-16-1-9c-2 1-3 19-1 22 1 4 3-4 2-13zm-53 3c0-7 0-10-1-9-2 3-2 19 0 19l1-10zm-29-4v-9c-1-2-1-1-1 3 0 5-1 6-3 6-2 1-3 2-3 7v6l3-3c2-1 3-5 4-10zm74-3 1-7c2 0 2-11 1-15-3-8-7-4-4 4v13c-1 10-1 14 1 12 1-1 2-3 1-7zm-157-34c0-40-1-44-6-25-2 10-1 20 2 20 1 0 2 8 2 18 0 17 0 21 2 21v-34zm129 25c1-1 0-2-1-2s-2 1-2 3c0 3 3 3 3-1zm-94-3-2-8c-2-2-2-2-1 4 1 10 3 13 3 4zm108 3v-3c-1-2-1-1-1 1 0 4 0 5 1 2zm9-4c-2-2-2 0-1 3 0 3 1 3 1 1v-4zm-68-8c-2-4-3-1-3 4 0 7 3 9 3 3v-7zm10 7-2-2c-1-1-1 1-1 2l1 2 2-2zm29-6c0-6-2-12-4-12l-3 3c-1 3-1 4 2 3 2-1 2 0 2 5l2 6 1-5zm5 2-1-4-1 4 1 3 1-3zm7-10c-1-6-2 0-1 7 0 5 0 5 1 1v-8zm-140 9-1-1-2 1 2 1 1-1zm119-10c0-4-1-6-2-6-2 1-2 2-1 12 0 5 0 6 1 3l2-9zm30 2c0-7 2-12 6-15l1-4a230 230 0 0 1-3-14c-1-5-4-3-3 2 0 4-2 8-3 4l-1-10-2-9v12c0 8 1 13 2 15l1 16 1 12 1-9zm-41-1c0-5 0-7 2-10 2-1 2-5 3-12l1-13-1-11-3-11c-1-4-1-4-2-1-1 2-2 3-5 3s-4-1-5-3l-2-8-1-6v8l-2 10c-3 3-3 6-1 8 1 1 2 5 2 12-1 15 3 36 6 34 2-1 1-13-1-17l-2-12c0-7 0-8 2-8l3-1c2-2 3-1 5 4s2 16-1 28l-1 6 1 3c-1 1 0 5 2 5v-8zm-69 0-2-2-1 3 1 2 2-3zm93-1c-1-1-1 0-1 1v2l1-3zm-88-3-1-2c-1-1-2 0-2 2l2 3 1-3zm48-3-1-1-1 1 1 1 1-1zm44-13c1-5 1-6-1-6-4-2-5 5-3 15v5l2-4 2-10zm-77 8-2-1-1 3 1 1 2-3zm-6-10-1-9-1 2c-2 17-2 18 0 17l2-10zm88 5-1 2c0 3 1 4 1 2v-4zm-96 0c-1-1 0-6 1-10 1-5 1-8-1-13l-1-18c0-11-3-16-3-5-1 25 1 51 3 50l1-4zm73-3c-1-1-2 0-1 4l1 4v-8zm-31 4-2-1-1 2 1 1 2-2zm40-6c0-3-1-5-2-5v7c1 4 2 3 2-2zm-68-19-1-18c-1 0-2 33-1 35 2 3 3-1 2-17zm-227 12c0-2 0-2-1-1l-1 3c1 2 2 1 2-2zm257-3 1-2-2 2-1 2 2-2zm-50-1-2-1h-1l1 2 2-1zm-209-8c-2-1-2 0-2 2s0 3 2 2v-4zm298-4c0-1 1-4 3-5 2-2 3-9 1-13-1-2-5 5-5 11 0 3-1 4-2 4-2 0-2-1-2-6l2-9c0-2 0-3-2-3l-3-3c-1-2-2-3-4-3-3-1-4-2-4-6-3-11-4-20-5-31-2-11-3-16-5-14-1 1 0 7 1 14 2 10 3 28 4 41 0 4 0 4 2 2 1-3 2-3 3-1l1 6 2 6c1 2 1 1 1-1-1-3 1-8 2-8l1 9c1 8 1 10 4 13s5 2 5-3zm-74-6-1-25h-2c-1 1-3 33-2 35l2 1c2 0 2-3 3-11zm-51 3-2-2-3 2c0 2 0 2 3 2 2 0 3 0 2-2zm-9-7c1-9 2-46 1-48-2-5-6 5-5 15l-2 8v2c1 0 1 1-1 2-2 2-2 2 0 5 2 2 2 6 2 11 0 13 4 16 5 5zm-14-8c-1-5-2-8-3-6l-1 9-1 10 3-4c2-2 2-4 2-9zm-193 6c0-4-3-4-4 1 0 1 0 2 2 2 1 0 2-1 2-3zm236 0 2-13 2-12c1-3 1-4-1-4-3 0-4 5-5 20-1 13-1 15 2 9zm-264-1c3-3 3-7 0-9l-2-8c0-6-1-9-3-6v23c1 2 2 2 5 0zm255-15c1-6 1-6-1-5-2 3-3 5-3 12 1 5 3 2 4-7zm88-6c-1-20-2-26-4-27v3c1 4-1 7-4 4l-3-1c-1 1 3 21 4 20v-3c-1-5 2-6 3-2l3 12c1 16 2 12 1-6zm-314 11c0-2-1-3-2-3-2 0-4 2-3 5s4 1 5-2zm73-3c-1-3-1-3-1 1l1 5c2 2 2-2 0-6zm228 3c2-4 1-10-1-9l-1 13 2-4zm-265-9 1-19c2-15 3-40 1-40l-3 11-3 16-1 6 1 17c0 16 1 19 3 19l1-10zm47-4c-1-7-2-8-4-4l-1 10 1 7 2-4c2-3 2-6 2-9zm-77-4 2-18 2-6c3-2 1-12-2-11-2 0-2 2-5 39-1 15 1 13 3-4zm135 10v-13c1-6 1-8-1-8s-2 2-2 9c-1 9 0 17 2 17l1-5zm198 1c0-5-2-10-3-10v7c0 8 3 10 3 3zm-398 2-1-2-1 2v1l2-1zm34-4-2-6-1 6 1 5c1 0 2-2 2-5zm309-2v-14c-3-15-3-15-6-15-2 0-2 1-1 2 3 8 5 21 4 25-3 10 0 12 3 2zm-93 3v-7c0-2-1-3-2-3-1 1-2 10 0 12s3 1 2-2zm6-3-2-1c-2 0-2 0 0 1 2 2 2 2 2 0zm-256-5c0-6-1-9-2-9-2 0-2 4-1 10s3 5 3-1zm60-11c0-11 0-16-1-15l-1 8c0 6-1 7-2 7-2 0-2 2-2 6 0 3 0 5 1 3 1-5 3-5 2 0s0 8 2 7l1-16zm218 14c0-2-4-3-5-1 0 1 0 2 2 2l3-1zm57-3-1-4-2 4 2 4 1-4zm-356-10c0-13-1-17-3-16l-1 15c0 11 0 14 2 14s2-3 2-13zm60 6c-1-2-1-1-1 2s0 4 1 3v-5zm203-3c0-2-1-2-2-1l-2 7v4l2-4 2-6zm81 1-2-8c-2-1-3 4-1 11 1 7 3 5 3-3zm-50 1 1-10c0-7 0-8 2-8s3 1 3 3 1 3 2 3c2 0 3-1 3-5s-1-5-4-5c-2 0-4 0-4-2l-1-17-1-17c-1-4-3-2-3 4 0 5-1 7-2 8-3 1-3 1 0 2 2 2 2 3 1 7-2 5-2 33-1 37 1 3 3 3 4 0zm42-9c0-6 0-7-2-6-2 0-3 13-2 16 1 4 4-4 4-10zm14 9-1-6v-4l-1 4c-1 6 0 8 2 8v-2zm-307 0-2-2v2l1 1 1-1zm116-5c2-5 2-8 2-15-2-10-1-43 0-52 1-7 1-8-1-10-3-3-4-3-4 0l-4 4c-3 3-4 4-4 8 0 6 3 5 5-2 3-8 5-7 4 1a412 412 0 0 0-4 37l-3 10v7l2-5c3-6 4-5 3 2-2 9-2 21 0 21l4-6zm111 0c-1-2-2 0-1 3 1 2 1 2 1 0v-3zm46-4c1-10 0-21-2-24-3-3-5 0-5 7l-1 6c-2 2-2 5 1 5 1-1 2 0 2 7s0 8 2 8c2-1 3-3 3-9zm-258 1c0-5-1-10-3-8-1 1-2 10-1 13s3 0 4-5zm241 3c-1-2-2 0-1 2s1 2 2 0l-1-2zm117 1c-1-2-1-1-1 0v2l1-2zm-343-6-2-7c-1 0-3 7-2 11 1 6 4 3 4-4zm283 5-1-2-2 2 2 2 1-2zm-363-1-1-1-1 1v2l2-2zm60-12c2-5 2-6-1-7-2 0-2 1-3 9-1 11 1 16 2 6l2-8zm55 2 1-9 3-15 2-17c1-7 1-7-2-7s-3 1-4 6l-2 18c-2 11-3 29-2 34 0 4 4-5 4-10zm262 4c-1-6-2-7-3-5-2 2 0 10 1 10l2-5zm-272-8c2-4 3-6 3-27l-1-29v-12l1-10c-1-2-1-2-3 0l-2 7v5l-5-7-2 3c-1 4-2 24 0 24 1 0 2-1 2-3l2-9c2 0 1 12 0 21-1 3 0 5 1 7 2 2 2 4 1 13l-2 14-1 9c0 6 0 6 2 2 0-3 2-6 4-8zm165 4c0-1-1-3-2-2v9c2 1 3-3 2-7zm-268-10v-13c-1-4-1-5-3-4l-1 4 1 15 1 9 2-11zm26-5-1-7c-2 0-2 11-1 24 0 5 2-8 2-17zm309 15-1-5c-1-1-2-1-3 4-1 4 0 5 1 5l3-4zm81-3c0-4-2-7-3-8-1-2-1-1-1 5 1 6 3 11 5 9l-1-6zm-178 2 3-10c3-9 3-9 1-9-1 0-3 2-4 5-3 5-3 17-1 17l1-3zm7-2c-1-1-1 0-1 1l1 2v-3zm5-3c0-6-2-5-2 1-1 6-1 6 1 5l1-6zm-177 1 1-4 1-12 3-48 2 1h2c0-2-4-3-5-2-2 2-4 13-5 35a802 802 0 0 1 1 30zm-19-11 4-11 3-10 1-12 2-18c1-8 0-24-2-23l-1 5-1 3c-2 0-4 25-5 42l-1 12s-2-4-2-10l-1-11-2 4v24c-2 17-1 24 2 14l3-9zm230 8c1-5 0-11-2-8-1 1-2 10-1 13 0 3 3 0 3-5zm8 4-2-2c-2 0-3 2-1 4 1 1 3 1 3-2zm56-6c0-5-1-8-3-8s-1 7 2 14c1 5 2 2 1-6zm6 3c-2-1-3 1-2 3h2v-3zm-13-7c-2-8-2-8-4-5-2 2-3 2-4 0s-2-6-1-12c0-3-2-7-4-7s0 14 2 18l2 6c0 2 0 2 1 1 3-3 5-1 5 3s2 6 3 5v-9zm21 9c3-2 1-6-2-5s-4 3-2 5h4zm6-13c-2-17-5-19-4-2 1 14 2 17 4 15v-13zm-300-7a196 196 0 0 1 5-49l-1-12c0-8 0-12 2-17 3-6 3-8 2-16-1-13-4-14-4-2l-2 17a713 713 0 0 0-3 98l1-19zm14 12 3-19c3-15 4-32 2-33l-1 1-1 5-1 13c0 8-1 11-3 13s-3 4-3 14c0 13 2 16 4 6zm115-3-1-5c-2 4-2 14 0 13l1-8zm196 7-1-2-2 2c-1 1 0 2 1 2l2-2zm-389-1v-1l-2 1 1 2 1-2zm26-1c-1-1-1-1-1 1 0 1 0 2 1 1v-2zm298 1-2-2-1 2 1 2 2-2zm46-7-2-4v11c1 2 1 2 2-1v-6zm-66 5 2-2c3-2 2-5-2-5-3 0-4 3-1 7 2 3 3 3 1 0zm-246-5v-8c0-3 0-4-1-1-2 3-2 16 0 14l1-5zm197-1c-1-3-1-4-3-2l-1 6c1 3 1 3 3 1 1-1 2-3 1-5zm-222-4c0-9 0-10 3-10s3-5 1-6l-1-9v-8l-2 3-2 7c-2 3-3 23-2 29 1 7 3 4 3-6zm253 7c-1-1-1-1-1 1 0 1 0 2 1 1v-2zm-302-6 4-32c0-2-2-6-4-6v9l-2 10v25l2-6zm246-1 4-8c2-2 2-3 0-8l-3-12-1 4-2 10c-2 2-2 20 0 20l2-6zm43 1c-2-1-4 1-4 3s0 2 2 0l2-3zm-236 1c-1-2-1-1-1 0v2l1-2zm46-4v5-5zm205 4-2-1-2 2c2 2 4 2 4-1zm35 2h-2 2zm-314-4-1-2c-1 1 1 5 1 5v-3zm144-10-1-4c-2 0-3 1-4 10v8l2-5 3-9zm225 12c0-2-1-2-4 0-1 1-1 1 1 1l3-1zm31-21-3-19c-1 0-2 9-1 10 2 1 2 15 0 16s-2 5 1 6l3 5 2 3-2-21zm-23 12-1-10c0-3-1-4-2-4-2 0-2 2 0 13 1 10 4 11 3 1zm-381 3c2-5 1-16 0-16s-2 2-3 11c-1 5 0 8 2 8l1-3zm249-2c-1-3-1-3-1 1 0 3 0 4 1 3v-4zm19 4-1-4c-1-3-2-3-2-1-2 4 1 8 3 5zm15-1c1-1 0-2-1-1l-2 2c0 2 2 1 3-1zm18 0c0-3-3-3-3 0-1 1 0 2 1 2 2 0 2-1 2-2zm28-5c-2-5-3-1-2 3s2 4 2 2v-5zm44 1-1-7c-1-1-1 0-1 5s0 8 1 7l1-5zm-98 3-2-2-1 2 1 2 2-2zm64-1c1-5-1-25-2-26-2 0-3 15-2 23 1 6 3 8 4 3zm9 1-1-1-2 1 2 2 1-2zm16-2c-1-4-1-4-1 0 0 2 0 4 1 3v-3zm30-1c1-2 0-3-1-4-3-1-4 0-3 5 1 4 2 4 4-1zm-255 1 1-6c0-5-2-3-4 4 0 4 2 6 3 2zm62 1-1-2-1 1c0 3 0 3 2 1zm-216-3-1-3-1 3 1 3 1-3zm53-1c1-6 1-8-1-8-1-1-2 1-2 6 0 7 2 8 3 2zm122-1v-4l-1 4v5l1-5zm25-1c-1-2-2-2-3 0l-1 4c0 2 1 2 2 1 2-2 2-3 2-5zm4 5v-2l-2 2 1 1 1-1zm-257-2-1-2-1 3c1 1 2 1 2-1zm26-11c1-9 0-11-1-11s-2 3-2 12 0 12 1 11c1 0 2-4 2-12zm282 9c0-2-2-3-4-2v3c2 3 4 3 4-1zm72-14c-2-12-5-24-7-24s-1 14 1 15c1 0 2 4 2 12 1 14 2 17 4 12v-15zm-231 15v-1l-2 1 1 1 1-1zm225-2h-3c-1 1 0 1 1 2 2 2 4 1 2-2zm-314-5-1-6c-2 0-2 11-1 12l1 1 1-7zm188 1-1-1-2 3c0 3 1 3 2 1l1-3zm81 3c1-2-1-3-3-1-2 3-2 3 0 3l3-2zm6-16c-1-9-2-12-5-12-1 0-1 9 1 12 2 2 2 3-1 4l-4 2h4c4 0 4 0 3 5v6c2 2 3-8 2-17zm-302 8c2-7 1-10-2-6-2 3-2 13-1 13l3-7zm255 6-1-1-2 1 2 1 1-1zm-207-6-1-5-1 5 1 4 1-4zm103-2c0-7-1-7-2 1l1 5 1-6zm74 1v-28c-1-1-2 1-3 17l1 16s2-2 2-5zm11 4c1-2-1-7-2-6l-2 3c0 2-1 3-3 3-2 1-2 1 2 1l5-1zm131-2-1-6c-1-1-2 0-2 4 0 3 1 5 2 5l1-3zm-32 0c0-1-1-2-2-1l-2 2 2 1 2-2zm-44-17c0-24 0-28-1-26-2 4-3 39-2 42 1 2 1 0 2-6l1-10zm-233 15-2-1-1 1 1 1 2-1zm152 0v-2l-2 1c0 3 1 3 2 1zm152-1-2-2-1 2 1 2 2-2zm47-15-1-17-1 2c1 1 1 2-1 3l-2 1c2 1 2 5 2 14 0 11 0 16 2 14l1-17zm-235 10 1-16v-5l-2 5c-2 6-3 22-1 22l2-6zm9 4-2-2-2 2 2 2 2-2zm97-3c-2-1-3 1-2 3 1 3 1 3 2 0v-3zm152-2c0-6-3-9-3-4-1 2 3 12 4 11l-1-7zm-273-1 2-11 1-6c2-2 0-8-2-8s-4-3-4-8c0-4 0-4-1 0-2 4-4 2-5-8-1-14-3-10-3 8 0 13 1 15 3 15 1 0 2 1 1 8v8l2-4c3-7 4-5 3 4-1 10 1 12 3 2zm181 5v-1l-2 1 1 2 1-2zm-329-25 2-15c1-3 1-4-2-7l-4-3-1 6 1 7c2 1 2 11 1 23v11c1 2 3-8 3-22zm21 18c-1-2 0-7 1-11l2-17c1-9 1-11-1-11l-1 10-1 10c-3 0-4-3-4-10 0-8-3-22-4-20l-2 12c-1 9-1 10 1 9 2 0 3 1 3 7 0 5 0 7 2 8 1 0 2 2 2 7-1 10-1 11 1 11l1-5zm29-8c1-9 1-9-1-5-3 5-3 20-1 16l2-11zm182 5c0-8-2-8-3 0-1 5 0 8 2 8l1-8zm25-1-1-9c-2 0-2 3-2 11 1 10 3 8 3-2zm-452 6-1-1-1 1v1l2-1zm500 1c0-2-2-2-3-1l1 1h2zm-274-3v-1l-2 2c0 2 1 1 2-1zm9-5-2-4-2-5-1-5c-1 0-2-4-2-9 0-10-2-7-3 4 0 7 0 9 3 15l3 9c0 3 0 3 2 0l2-5zm161 2c2-3 2-7 2-10v-12c0-10-2-7-4 7-3 21-2 25 2 15zm155 3-1-3-2 2c0 2 1 3 2 3l1-2zm13 1v-2l-2 2 1 1 1-1zm-233-5c-1-2-1-1-1 1 0 3 0 4 1 3v-4zm127 4v-3l-2 2c0 2 1 2 2 1zm87-4 1-5 1-3c-2-4-4-1-4 6 0 5 0 7 1 6 1 0 2-2 1-4zm35-10v-7c-2-2-1-5 1-5 1 0 2 1 2 3 0 4 2 3 4-1v-4l-1-4-2-5c-2-1-3-1-6 2-3 4-3 4-1 6 2 1 2 2 1 3-2 1-2 4-2 12l1 13c2 2 4-9 3-13zm-422 8c0-3-3-6-4-5-2 1-2 7-1 8 2 2 5 0 5-3zm28-8v-6c-2 6-2 19-1 18l1-12zm333 3c0-6-1-7-2-5-1 3 0 15 2 13v-8zm-54 0c0-4 0-5-3-5h-2c1 1 2 3 2 7 0 8 2 6 3-2zm-285-1c0-5 0-6-1-3-2 5-2 11 0 10l1-7zm238 1v-4l-2 6v4l2-6zm-165-2c0-7 2-14 4-18 1-2 0-4-2-6-3-3-5-2-6 3s1 28 2 28l2-7zm247 6-1-2-1 2 1 1 1-1zm-172-9c1-10-1-16-2-7-2 8-2 16 0 16l2-9zm-226-15v-4c-3 0-4 3-5 13-1 14 1 17 3 5l2-14zm73 12c0-9-2-13-5-9-2 2-1 8 1 14 3 6 4 4 4-5zm157 6c-1-1-1-1-1 1l1 2v-3zm20 0v-3c-1-1-2-1-3 3s1 4 3 0zm-87-7c0-6-1-9-2-8-1 0-2 1-2 3l-2 6c-1 2-3 5-2 6 0 1 1 1 4-2l4-5zm57 0c0-5-1-7-2-6-1 3-3 12-2 13 2 3 4 0 4-7zm120 5c3-5 3-11 2-11s-2 1-2 3l-2 4c-1 2-2 8 0 8l2-4zm-316-6-2-6c-1-2-1 0-1 6s0 8 1 7l2-7zm379 3c-1-1-2 1-1 4 1 2 1 2 1 0v-4zm54 4c2-3 0-17-2-17s-3 4 0 6v3c-2 2-3 9-1 9l3-1zm-428-17c0-10-1-18-2-18l-1 16c0 13 0 19 2 19l1-17zm33 10c0-7-1-6-1 2v5l1-7zm336 6c1-3-2-5-4-3-1 1 0 4 2 4l2-1zm12-5-1-6-1 6c0 8 2 8 2 0zm-420 2c-1-1-1-1-1 1 0 1 0 2 1 1v-2zm273-1c-1-1-2 1-1 3h1v-3zm120-5-2-2c-2 0-2 8 0 10 1 1 3-6 2-8zm59 6c-1-1-1-1-1 1 0 1 0 2 1 1v-2zm-110 0-2-1v1l1 1 1-1zm17-10c0-5 0-7-2-7-1 1-2 13-1 17 1 3 3-2 3-10zm-205 7c0-2-1-2-2-1v3c1 2 2 1 2-2zm362 2-1-2-1 2 2 1v-1zm-370-11c1-5 2-7 4-7 3 0 7-3 6-5l-2-1-4 2c-5 1-7 4-7 13s2 8 3-2zm170 2c2-5 2-5-2-5-3 0-3 1-3 5s1 7 2 6l3-6zm50 5-2-1-1 1 1 1 2-1zm5-4-1-2-2 3c0 2 1 3 2 2l1-3zm-159-2-1-4c-1-1-3 4-2 7s3 1 3-3zm120 0c0-3 0-4-1-2v5c1 3 1 2 1-3zm10 2-2-2v2l1 2 1-2zm-437-9v-8l-2 7-1 9c2 4 3 1 3-8zm158 4c-1-2-1 0-1 2l1 2v-4zm369-2c0-6-1-7-3-8-2 0-2 1-2 7 0 8 1 9 3 9l2-8zm14 7v-2l-2 2 1 1 1-1zm-550-1-1-1h-1l1 2 1-1zm257-4v4-4zm247 3-1-2-1 2 1 2 1-2zm-325-10-1-12c0-5-1-8-2-8v25l1 5 1-4c1-3 2-5 1-6zm217 8v-2l-2 2 1 1 1-1zm-206-4-2-4-1 4 1 4 2-4zm188 1 1-4c2-2 0-4-2-2-2 1-3 9-1 9 1 0 2-1 2-3zm132 1v-1l-2 1 1 2 1-2zm14 0v-1l-2 1 1 2 1-2zm-68-8c-1-1-1 0-1 3 0 5 2 7 2 2 1-2 0-4-1-5zm-17 2c1-4 1-5-1-2l-2 5c0 3 1 3 3-3zm-31 2v-1l-2 1 1 2 1-2zm-168-1 2-1c3 0 3-2 1-4-2-1-2-2 0-4v-3c-3 0-5 3-6 9-1 3-1 4 1 4l2-1zm77-1c1-1 0-2-2-2-3 0-4 2-3 4 1 1 5 0 5-2zm-132-18-1-8v-4l-1 4c-1 5-2 25 0 26 1 1 2-10 2-18zm13 10-2-11v-8c-1 1-4 24-3 26s1 2 4-1c2-3 2-4 1-6zm226 8-2-2-2 2 2 1 2-1zm10-4c1-2-3-4-4-1l-2 4c0 2 1 2 3 0l3-3zm125 2h-2l1 2c2 1 3 0 1-2zm-285-7c1-4-1-11-3-11s-2 3-2 10l-1 10 3-3 3-6zm13 5c0-2-2-2-3 0s0 4 2 3l1-3zm79 1 2-4c1-1 2-4 2-9 0-7-1-7-3-7-3 1-3 0-3-6 0-11-3-8-5 4-1 13-2 24 0 23l2-8c1-12 4-11 3 0l1 9 1-2zm30-6v-24c-2-1-5 29-4 32s3 0 4-8zm-273 4c0-3 0-3-2-2v3c1 4 2 3 2-1zm288 1-2-2c-2 0-2 1-1 2l2 2 1-2zm-302-3 2-28-3 13a233 233 0 0 1-1 19l2-4zm6 1-2-2-2 2 2 3c1 0 2-1 2-3zm51 0c2-5 1-7-1-2l-1 5c1 0 2-1 2-3zm141 1-1-1h-2l2 2 1-1zm120-3c1-2 1-3-1-3l-2 1v4c-2 3 1 2 3-2zm97 3-2-7-2 4c0 4 2 5 4 3zm74 0c-3-1-3-1-3-5v-4c-2 0-4 3-3 6s1 4 5 4c3-1 3-1 1-1zm-274-6c-1-1-4 3-3 5 1 0 2 0 2-2l1-3zm184 2c1-4 1-13-1-13l-4 14c2 4 4 3 5-1zm-260-1h-1l-1 2h1l1-2zm86 1-2-2-1 2 1 2 2-2zm241 0c1 2 1 2 2 1 2-2 1-3-3-6l-6-3v8c1 2 1 2 3 0l2-3zm-538-2c1-1 0-1-2-1h-4l-1 2c0 2 0 2 3 1l4-2zm124-2 1-8-2-26c-2-1-4 19-3 28 1 12 3 14 4 6zm252-1c0-7-2-10-5-7-2 1-2 2 0 3l1 3v5c1 3 3 2 4-4zm-102 3 1-8 2-10 2-7c0-2 1-3 2-2 2 1 2 0 1-2l-2-5c-1-4-3-2-4 7-1 11-3 23-5 25-1 1-1 0-1-2 0-3 0-3-2-1l-2 4c1 2 7 3 8 1zm180-1c0-1 0-2-1-1l-3-1c-1-1-1-1-1 1s1 3 4 3l1-2zm45-3c0-4 0-5-2-5l-2 1 4 9v-5zm8 5h-3 3zm-317-5-1-4-2 4 2 4 1-4zm93 0 1-12c1-8-1-9-3-2-2 6-2 16-1 17 2 2 3 1 3-3zm35 0 1-8-1-5c-1 0-4 11-3 14s3 2 3-1zm128-8c0-4 0-5-2-5-1 1-3 13-2 15s4-4 4-10zm16 10h-3c-1 0-1 1 1 1l2-1zm19-6c1-7 0-9-1-8l-1 15c1 0 2-3 2-7zm-474 3c0-1 0-2-2-2s-3-4-1-5l3 1c1 3 3 2 3-1 0-2-1-4-3-5l-2-4c0-4-2-5-4-2-1 1-2 18 0 20h3c2 0 3 0 3-2zm76-4c1-19 1-21-1-17-1 4-2 23 0 23l1-6zm463 4c0-3-3-5-6-4-2 1-2 1 0 4 3 3 6 3 6 0zm-299-4-1-4c-2 2-1 9 1 9v-5zm164-4c0-6-1-8-2-8-2 0-2 11-1 15 2 4 3 2 3-7zm-8 6-2-1c-2 0-1 1-1 1l1 2 2-2zm-372-16 3-15c1-1 1 0 1 2l2 4c2 4 4-1 5-11a683 683 0 0 1 1-26c-2 0-2 1-3 5v15c-1 1-3 0-5-2-7-5-12-2-7 4 1 2 2 6 1 19-1 15-1 22 1 21l1-16zm136 4c-1-3-3 5-3 9 1 4 1 4 2-1l1-8zm18 6c0-6-1-7-3-8-4-1-5-1-6 4-1 2 0 3 2 2 4 0 5 0 4 4l1 4c1 0 2-2 2-6zm381 0c-1-3-2-3-3-2-2 2-2 2 0 5 3 5 5 2 3-3zm-458 1-2-6-1-5-3-5-3-3 1 3 2 9c0 5 2 11 4 11l2-4zm24-6c1-9-1-12-2-4-1 3 0 15 1 14l1-10zm134 7-1-2-2 2c0 2 1 3 2 2l1-2zm271 1c0-1-1-2-2-1l-2 2c2 2 4 1 4-1zm-228-2c2-6 2-9 1-10s-2 0-3 8c-1 5 1 7 2 2zm126-5c0-8-2-8-3 0 0 5 0 8 2 8l1-8zm31 6 1-2-2 1-2 1h-1c0 2 1 2 4 0zm25 0-2-1-2 1 2 2 2-2zm-338-3-1-3-1 3 1 3 1-3zm82 1c0-2-1-3-2-3-2 0-2 2 0 4s2 2 2-1zm36 0-1-1-1 2 1 1 1-2zm32 1-1-1-1 1v1l2-1zm-51-4v3-3zm41 3-1-2-1 2v1l2-1zm225 0-1-2-1 2 1 1 1-1zm-500-19c1-15 0-18-1-22l-3-3-1 5c-1 7-3 6-3-3l-1-13c-1-6-1-6-3-3l-2 12-2 9-1 8c0 7 1 6 3 0 1-4 3 0 4 5 0 5 2 6 3 2 3-6 4-3 4 9v12c2 3 3-1 3-18zm72 10v-7l2-15-1-11c-4 0-5 4-4 10v19c0 11 1 13 2 10l1-6zm302 3c1-4 1-4 3-2l3 2c1 0 1 1-1 2-2 2-2 2 1 3 4 0 5 0 4-8l2-7c3-6 1-8-5-8-3 0-5 0-4 1l2 1c2 0 5 7 4 9s-6 4-6 2l-2-1c-1 1-2 0-3-2 0-3-1-3-3-1s-3 8-1 8l1 4c0 4 3 3 5-3zm120 1c-2-6-5-8-5-3 0 2 4 8 5 7v-4zm-449-2c2-6 2-24 0-24-1 0-2 4-3 17v12l3-5zm178 2c-1-2-2 0-1 2s1 2 2 0l-1-2zm58 1-1-2-1 2 1 2 1-2zm-182-15v-8c-3-3-3 0-4 11-1 12 0 17 1 8l3-11zm189 9c1-7-2-5-3 2v4l3-6zm69 6-1-2-1 2 1 1 1-1zm112 0-1-2-1 2 1 1 1-1zm-431-7c0-8 0-10-2-9s-2 16 0 16l2-7zm496 5v-1l-2-1c-3 2-1-2 2-3 2-2 2-3 1-7-4-7-7-4-7 8 0 5 0 6 2 5l4-1zm-130-2c0-2-1-3-2-3-2 0-2 1-1 3l2 2 1-2zm-149-2-1-4-1 4 1 3 1-3zm99-1-2-4c-2 0-2 2 0 5 2 4 3 3 2-1zm11-2-2 1-3 4 3-1 2-4zm84 5-1-2-1 2 1 1 1-1zm-222-9c2-6 2-9-1-9-2 0-3 3-3 11s1 8 4-2zm45 8h-3c-1 0-1 1 1 1l2-1zm273-3c0-4-2-7-5-7l-1 2 5 9 1-4zm-401 0c2-4-1-9-3-8s-2-1-2-11v-12c-2 0-2 3-3 15 0 13 0 15 2 17 4 2 4 2 6-1zm47 1v-6l1-10c1-4 1-6-1-7-2-2-3 0-3 13 0 10 1 15 3 10zm44-1c3-3 3-6 0-6-2 0-5 5-4 7s2 2 4-1zm-105-4c-1-2-1-2-2 0-1 4 0 6 2 4v-4zm37-2c0-3-1-5-2-5l-1 6 1 5 2-6zm232 2-1-1v3c1 1 1 2 2 1l-1-3zm14-2-1-1c-6 1-7 2-7 4 0 3 1 3 4 1 3-1 4-3 4-4zm-20 3-1-3c-1-1-1-1-1 1l1 3 1-1zm-220-10c2-12 2-13 0-13l-2 8-1 11v4l3-10zm38 6-2-3-1 4 1 2 2-3zm130-4c0-6-2-10-3-6-1 3 1 14 2 13l1-7zm-249 4c2-5 1-13 0-13l-1 2c0 1-1 2-2 1l-2 1 2 1c2 0 2 1 1 5-1 6 1 8 2 3zm61-7-1-6c-1 2-3 14-2 15 2 2 3-3 3-9zm25 0 2-10 1-19c-1-12-1-17-3-19l-3-4c-1 0-1 20 1 28s2 7 1 22v11l1-9zm259 2c-1-8-3-11-5-8-2 1-2 2 0 5s2 6 2 8c-1 2 0 3 1 3 2 0 2-2 2-8zm40 6-1-1-1 1v2l2-2zm-113-1-1-2c1-1 2 0 3 1 3 2 3 2 4 0s-3-4-8-4c-2 0-3 0-3 3s1 3 4 3c2 0 3 0 1-1zm157-1c0-1 0-2-1-1l-2 2c-1 1 0 2 1 1l2-2zm-276-4-1-3-1 2-1 4c-1 2-1 3 1 1l2-4zm91 4-1-2-2 2 2 1 1-1zm-179-3c-1-1-1-1-1 1 0 1 0 2 1 1v-2zm-202-1c1-3 1-4-1-4-1 0-2 1-2 3 0 4 2 5 3 1zm172-6c1-7-1-13-2-9-2 4-2 15-2 16 2 3 3 0 4-7zm323 6c1-3 1-7-1-7-2 1-3 9-1 9l2-2zm-98-1-1-2-2 2 2 2 1-2zm-235-2-1-3-1 3 1 3 1-3zm50-2v-3l-2 4c0 5 1 5 2-1zm37 1h-5l-3 1c0 1 6 3 8 2v-3zm93 1c2-3 2-11 0-11s-4 4-4 10c0 4 1 5 4 1zm-165 0v-13c0-3-1-2-1 2l-2 9c0 4 2 5 3 2zm125 0-1-1-1 1v1l2-1zm107-1-2-3c-1 1 1 5 2 5v-2zm100 0-2-2c-3 0-2 3 2 4v-2zm-524-6c-1-8-2-10-3-9l-2 9c-1 7-1 7 2 7s3 0 3-7zm122 5v-18c-2 0-3 8-3 16 0 4 2 5 3 2zm147 0-1-1h-1l1 2 1-1zm29-4 2-5c0-5 0-6-4-9-3-2-4-2-5-1-2 2-2 14 0 17 1 3 1 3 3 1l4-3zm-4-3v-3h3l-1 3h-2zm52 6c1-1-1-17-2-17l-1 9c0 9 1 12 3 8zm122 0-1-1-2 1 2 2 1-2zm107-2a3992 3992 0 0 1-6-21c-1 1-1 21 1 23 1 3 5 1 5-2zm21 1h-1c0 1 1 3 2 2l-1-2zm-568-32c1-14 2-17 5-19l3-3-3-3c-6-3-9-1-10 8v14l-1 18c-2 29 3 17 6-15zm192 29-1-4-2 4c0 2 1 3 2 3l1-3zm257 2-3-2c-1 0-1 1 1 2h2zm-375-15 1-13c2-3 3 1 2 8l1 13c1 4 1 4 4 2 1-1 2-3 1-4l-1-13-3-12c-1-1-2-4-2-9l-1-9-1 5-2 11-2 15a290 290 0 0 1 0 17c0 3 0 4 1 3s2-6 2-14zm102 12c-1-1-1-1-1 1v1l1-2zm126 1-2-1-1 1 2 2 1-2zm257 0c1-1-4-9-7-9-2 0-2 2 0 6 3 4 6 6 7 3zm-416-6c1-4 1-5-1-8l-2-6-2-2c-2 0-2 1-1 4v11c0 7 1 7 2 6l4-5zm149 4-1-2-2 2 2 2 1-2zm69 0v-4c0-2 0-2-2 0-2 3-2 6 0 6l2-2zM95 684c1-8 1-9-1-9-1 0-2 1-2 4v16c1 3 2-2 3-11zm202 11-1-2-1 2 1 1 1-1zm319 0-1-2-1 2 1 1 1-1zm-249-4-2-3-1 3 1 4 2-4zm28 1-2-1-1 2 1 1 2-2zm-166 0-1-1-1 1 2 1v-1zm60-3c0-3 0-3-1 0-2 3-2 5 0 4l1-4zm294 1c2-5 1-13-1-13-4 0-6 8-3 14 2 3 3 3 4-1zm45-3-1-5c-1 0-2 2-2 5l2 6 1-6zm-511 2c-1-1-1-1-1 1l1 2v-3zm305-4-2-1c-2 0-2 6 0 7 1 1 3-4 2-6zm174-1c2-1 2-1-2-1-5 2-5 1-3 6 2 3 2 3 2 0 0-2 2-4 3-5zm-416-2-1-5-2 7c0 5 1 7 2 5l1-7zm164-4c0-8-1-11-2-10s-3 18-1 21c1 4 2 0 3-11zm-289 8-2-3-1 3 1 3 2-3zm110-11-1-10h-2c-1 1-2 21-1 23 1 3 3-4 4-13zm135 12c1-3-4-3-5 0-2 2-2 3 1 2l4-2zm58-2c-4-2-9-3-9-1 0 1 2 2 5 2 1-1 2 0 3 2h3l-2-3zm110 4-2-1h-2l2 1h2zm-340-12c1-11 3-14 7-14 1 0 2-1 2-3s-1-3-2-3c-2 0-3 0-3-2s-6-2-7 1l-3 12c-2 12-1 19 2 19 2 0 3-2 4-10zm520 8-1-2-2 2 2 2 1-2zm-506-8c0-6 4-13 8-14l3-1-5-9c-2 0-6 6-6 10a6801 6801 0 0 1 0 14zm78 6-1-2-2 2 2 2 1-2zm7 1c2-1 3-16 1-17-3-1-4 2-4 10-1 8-1 9 3 7zm85-7c0-4 1-6 2-6l-1-2-2-3c0-1-1-2-2-1l-1 11c0 8 0 10 2 8l2-7zm-26-7-1-14-1 14 1 14 1-14zm18 12-1-2-1 2 1 2 1-2zm166-2v3-3zm-202-10c1-6 2-12 1-14 0-2-1-3-1-1-3 6-5 26-3 26l3-11zm12 7-1-5c-1 0-2 2-2 5l2 4 1-4zm53 0c0-5-2-7-3-2 0 4 0 6 2 6l1-4zm-128 0-1-2-1 2 1 3 1-3zm87 0-1-4-2 4c0 2 1 3 2 3l1-3zm100-1h-1c0 3 1 5 2 3l-1-3zm28 3c0-2-4-5-6-4-4 2-2 4 2 4h4zm-302-9 1-10c-2-2-4 8-4 14 0 8 2 5 3-4zm242 4c0-3-2-2-3 1s0 3 1 2l2-3zm209 1-1-3c-3 0-4 2-3 5s4 2 4-2zm-348-4-1-4c-1 0-3 7-2 9 2 3 3 0 3-5zm83 2c-1-1-1 0-1 2s0 2 1 1v-3zm298 4h-4 4zm10 0h-3 3zm-530-3 1-12c0-9-1-11-2-11l-4 2c-5 2-6 16-1 16l1 4c0 3 4 4 5 1zm157-1h-2l-1 2h1l2-2zm260 2-2-2v2l2 1v-1zm-27-2-1-2-2 1 2 1h1zm51-1c2-2 1-3-2 0l-1 1 3-1zm-423-4-1-4c-2 0-3 3-2 6 1 4 3 2 3-2zm73-13c0-4 0-7-1-6v6l-1 8-1 7c1 2 1 2 2-3l1-12zm495 17 2-11c2-10 2-14-1-14l-1 7-3 10c-3 1-3 6-1 7l4 1zm-623-5v-5c-1-1-1 0-1 2l-2 3v2c1 2 2 2 3-2zm45 3h-2c-1 0-1 1 1 1l1-1zm116-4c-2-1-2 0-2 2 0 3 0 3 2 2s1-2 0-4zm369 2-2-1v3h2v-2zm-335-1v-4l2-7c2-5 3-7 0-7-2 0-5 6-5 13-1 7 0 9 3 5zm52-2h-1l-2 2h2l1-2zm321 2v-2l-2 2 1 1 1-1zm37-6-2-4c-2 0-2 9 0 10 1 2 3-3 2-6zm-558 2-2-2-2 3c0 2 1 2 2 2l2-3zm257 2-1-1-1 1 1 2 1-2zm190 1-2-1h-1l1 2 2-1zm-288-8c0-3-1-5-2-4-2 0-3 4-2 8 1 3 1 4 2 2l2-6zm332 5c0-4-3-3-4 0 0 2 0 2 2 2l2-2zm13-1c2-3 1-4 0-5-3-2-3-1-4 4 0 5 2 6 4 1zm-257 0c0-1-1-2-2-1v2c1 2 2 1 2-1zm54-1-2-1-3 1s1 2 3 2l2-2zm222-1c0-2-2-2-3 1 0 1 0 2 2 1l1-2zm-314-1-2-8c-2 0-3 5-1 8s3 3 3 0zm52 0-1-1-1 2 1 1 1-2zm112 1-1-1-1 1 2 1v-1zm108-3 1-4v-1c-2 0-6 7-6 9h2c2 0 3-2 3-4zm90 2c0-3-3-4-5-1-2 2-1 3 2 3 2 0 3-1 3-2zm-286-4c0-2 0-1-1 0-2 4-2 6 0 4l1-4zm84-2c0-2-1-1-1 2l1 3v-5zm160 6-2-2-2 2 2 1 2-1zm-462-2v-3l-2-5c0-5-2-5-3 0-1 7 2 13 5 8zm203-1v-2l-3-5c-2-4-4-4-5 0l1 4c2 1 2 1 1 3-1 1-1 1 2 1l4-1zm146 0-2-1c-1 0-2 0-1 1l2 1 1-1zm75 0-2-1-1 1 1 1 2-1zm26 0h-3c-6 1-6 1-1 1l4-1zm-387-3c0-2 0-4-1-3-2 0-3 6-1 6l2-3zm-14-9c-2-3-9-5-7-2v4h2c1 0 2 2 2 5l1 4 1-4c2-3 2-5 1-7zm260 9-1-3c-2-1-3 2-2 3 1 2 3 2 3 0zm124 1h-3c-1 0-1 1 1 1l2-1zm-488-3a5507 5507 0 0 0-1-12c-1-1-1 1-1 6l1 7 1-1zm78-2-1 1 1 2v-3zm34 2-1-2-1 2 1 1 1-1zm15 0c-1-2 1-15 3-17 1-1 2-3 1-4 0-1 0-3 2-4v-5c-2-2-2-2-4 2-3 5-5 29-2 29v-1zm47-5c-1-3-2-3-4-1s-3 5-1 4c1-1 2 0 3 1l2 1v-5zm27 5-1-2-1 2 1 1 1-1zm69-1c0-2 0-5-2-5l-1 4c0 3 2 4 3 1zm17 1-2-2-1 2 1 1 2-1zm64-1c1-1 0-2-1-1-2 1-3 3-1 3l2-2zm141 0c0-1-1-2-2-1l-2 2 2 1 2-2zm-346 0c1-1-1-5-2-5l-1 3c0 3 1 4 3 2zm66-2c1-3 1-3-3-1s-4 2-1 3l4 1v-3zm121-2c0-4-2-4-3-1-1 2 0 6 2 5l1-4zm-91 1c2-2 2-4 1-5-2-1-4 1-4 5 0 3 1 3 3 0zm-309-2-1-1-1 2c0 1 0 2 1 1l1-2zm249-1 1-4c1-1 0-3-2-5s-2-2-2 5l1 7c1 2 3 0 2-3zm110 3-1-2-2 2 2 1 1-1zm245 1-2-2c-2 0-3 0-2 1l4 1zm-509-6c-1-2-1-1-1 1 0 3 0 4 1 3v-4zm319 3-2-1v1l1 2 1-2zm117 0-1-1-2 1 2 2 1-2zm-213-3-1-1v2c1 2 2 1 1-1zm-334 0-1-1h-1l1 2 1-1zm142-3c1-3 0-4-2-5-5-2-5-2-5 1-1 4 1 6 2 3s3-1 3 2c0 4 1 3 2-1zm8-4 2 4c1 4 2 5 4 2 2-2 2-7 0-8l-2-8-2-6v4c0 2 0 4-2 6s-3 5-3 9c0 5 0 5 1 1l2-4zm259 4h-2v3c2 1 4-1 2-3zm179 2-1-2c-2 0-3 2-2 3 2 1 3 1 3-1zm-460-1-1-1-1 1 1 1 1-1zm164-1-1-1-1 2 1 1 1-2zm18 0-3-2-3-1-1-1c-3 0 0 4 3 5 5 1 6 1 4-1zm70 0v-2l-2 2 1 1 1-1zm131-1-1-1-2 2 2 1 1-2zm93-4c0-2 0-2-1-1l-4 2c-3 0-3 3 0 4s5-1 5-5zm-511-4v6-6zm129 6v-4c-1-1-3 3-3 5 0 3 2 2 3-1zm52 1h-2l-1-2c0-3-2-6-5-5h-1l4 5c2 4 5 5 5 2zm49-1c1-6 0-9-3-9-2 0-3 0-3-3-1-3-2-3-5-2s-3 3 0 3c2 0 2 5 0 8-2 1-2 2-2 3l2-2c3-3 5-2 7 1 2 5 4 5 4 1zm41 1-1-2c-1-1-1 1-1 2l1 2 1-2zm42-4c0-7-1-9-4-8-3 2-4 8-2 9 1 1 3 0 4-1 1-3 2-3 2 1l-2 4h1l1-5zm31 3 1-2 3-1c3 0 3 0 4-5l2-8c1-1 1-1-1-1s-3 0-2 2c0 1 0 2-2 3l-2 3c0 2-1 3-4 3-1-1-2 2-2 4l1 3 2-1zm-103-3-2-4-1 4 1 4 2-4zm58 3-2-1-1 1 2 1 1-1zm-162-1-2-2-1 2 1 1 2-1zm270-2 2-2-1-2-6-2c-5 0-5 0-4 4 2 4 2 4 3 1 1-4 4-3 4 1l1 3 1-3zm53 2-1-2-3 2 1 1 3-1zm-316-2-3-1-1 1 3 2 1-2zm46 0 1-6c0-8 7-9 9-1 1 5 2 5 7 3l6-2c3 0 3-1 1-4-1-2-1-2-1 0l-2 2-5 1c-3 1-4 1-4-2 0-1-1-3-4-5-3-1-4-2-3-4l-1-3-1-2c0-4-2-7-3-7v7l-1 6s0 5-2 8c-3 9-1 13 3 9zm57-2c-2-2-3-1-2 2l3 1-1-3zm47 1-1-2-2 3 2 2 1-3zm86 2h-2c-1 0-1 1 1 1l1-1zm-58-3-1-2-2 2 2 2 1-2zm116 1c0-2-3-5-4-5l-1 3c0 3 0 3 2 3l3-1zm-370-3-1 1 1 2v-3zm493 2-2-2-1 1 1 2 2-1zm-166-1-4-1c-1 1 0 2 2 2l2-1zm24-2 4-3-4 1c-3 0-4 0-3-2 1-3-1-4-2-1-1 2 0 8 1 8l4-3zm47 1-1-1-2 1c-1 1 0 2 1 2l2-2zm68 1h-3c-1 0-1 1 1 1l2-1zm-460-3c-1-2-1-1-1 0v2l1-2zm-20-2c0-4-1-9-3-9l-1 6c0 5 1 6 2 6s2-1 2-3zm392 0c0-4-2-5-3-2-1 2 0 5 2 5l1-3zm13 0 1-5c0-2 0-3 2-5 2-1 2-3 1-5l-2-6v-4l-2 3-3 11-1 10c-1 3-1 4 1 4 1 0 3-1 3-3zm-391-1-1 1 1 1v-2zm444 1c-1-1-1-2-2-1-2 0 0 3 1 3l1-2zm-470-2-1-2-1 2 1 2 1-2zm128 2c2-2 0-5-1-4l-2 2c0 2 2 3 3 2zm5-2-1-1-1 2c2 2 2 2 2-1zm64-1-1-2-2 3c-1 2 0 3 1 2l2-3zm141 0-4-1c-2 2 0 4 3 3 3 0 3 0 1-2zm-214 1c0-1-3-2-3 0l1 1 2-1zm241-1c1-3-3-4-6-1l-2 2c0 2 8 0 8-1zm79-6c-2-2-3 4-1 6 1 2 2 2 2-1l-1-5zm14 7-1-2c-2-1-2 0-2 1 0 2 2 3 3 1zm31-5-1-3-1 5c0 3 0 4 1 3l1-5zm25 0c-1-9-2-11-3-9-2 2 0 15 2 15l1-6zm-407 2c-3-3-4-2-3 1l4 2c2 0 2-1-1-3zm37 1-2-2c-2 0-2 0-1 2l3 2v-2zm73-6c0-3 0-4-2-4l-2 2-1 6c0 4 0 4 2 2 2-1 3-3 3-6zm34 6-2-2-1 2 1 2 2-2zm21-1c0-1-3-3-5-2-1 2 0 3 2 3l3-1zm17-1-1-2-1 2 1 2 1-2zm149 0-3-2c-2 0-2 3 0 4 3 1 4 0 3-2zm-444-5v4-4zm289 4-2-1h-1l1 2 2-1zm110-1-1-1-1 1 1 2 1-2zm36 0-3-2c-2 0-2 0-1 2 2 2 5 2 4 0zm-307-1-1-1-1 1 1 1 1-1zm215 0-2-1c-2 0-1 0-1 1l1 1 2-1zm-94-1-2-2-1 2 1 1 2-1zm168-2-4-2c-1 1-1 2 1 3 5 3 6 2 3-1zm83 0-1 1 1 2v-3zm-517 1-1-1h-1l1 2 1-1zm139-6v-7c-1-2-1-2-4 8-1 7 2 6 4-1zm28 0c0-7-2-6-3 2-1 4-1 5 1 5s2-2 2-7zm38 2 1-7c1-2 1-3-1-3s-4 6-2 11 3 5 2-1zm51 1 2-11c-2 0-4 3-5 9s1 8 3 2zm135 2c3-1 1-3-5-3-5 0-6 1-2 3 3 2 4 2 7 0zm13-1h3c3 1 4-2 1-4s-6-1-6 2l-2 2-1 1c-1 1 0 1 1 1l4-2zm-280-1v-4c-1-1 0-5 1-10 1-6 2-10 1-11-2-3-2-2-4 7l-1 11c-2 6-1 9 1 9l2-2zm72 0 2-2h-2l-1-2c1-2 0-2-2-2-4 1-4 2-2 3l1 2 1 2 3-1zm13 1-1-1-1 1 1 1 1-1zm94 0-1-2-2 1 2 2 1-1zm30-3c2-6 2-6 0-6-1 0-6 4-6 6l4 4 2-4zm-83 1-2-2-1 2 1 2 2-2zm99-2 1-5c-1-1-4 3-5 6-1 5 3 4 4-1zm64 1c-2-1-2-1-1 1l1 1v-2zm-269 0-2-1-1 1 1 2c2 0 2-1 2-2zm9-4c-1-1-7 2-7 3l1 2c2 0 7-3 6-5zm130 2-1-2-2 3c0 1 1 3 2 2l1-3zm185 2-1-1-1 1 1 2 1-2zm32 0-1-3c-2-2-2-1-3 1v3c1 1 4 1 4-1zm19-4c0-5-2-9-4-9s-2 9 0 12c2 4 4 3 4-3zm-440-4c-2-3-3-2-3 3-1 5 0 6 2 3s2-4 1-6zm39-2v-7l-3 10c0 11 2 8 3-3zm310 4c0-3-2-2-3 1-1 4 1 7 2 3l1-4zm-131 4-1-2-1 1c0 2 1 3 2 1zm80-2 1-4c2 0 0-4-2-5s-2 0-1 4c0 6 1 8 2 8v-3zm131-4c0-9-4-10-4-1l1 7c2 2 3-1 3-6zm-489 0-1-2-2 5c0 3 1 3 2 1l1-4zm74-24-1-28-2 12v29c1 18 1 18 2 16l1-29zm127 28v-4c-2-3-1-4 1-2 2 1 2 1 3-1l-1-3c-2-3-6 3-6 8 0 4 0 4 3 2zm12 0 2-1 3-4c1-5 2-32 1-33l-4 3c-1 2-2 6-2 14 0 6 0 11-1 10l-1 6 1 7 1-2zm75 0h-4c0 1 1 2 3 2s3-1 1-2zm91-1-2-3h-1l-1 4c0 1 0 2 2 2 1 0 2-1 2-3zm95-1c1-3-1-4-3-1-1 3 0 5 1 4 1 0 2-1 2-3zm-380-5c2-8 1-13-1-12-3 1-4 19-1 19l2-7zm19-4-1-7c-2 0-2 2-3 11-1 7-1 8 1 6l3-10zm255 8c-1-5-3-6-5-2-1 3 0 5 3 5 2 0 2-1 2-3zm-226-1 2-2c-2 1-3 0-4-1-1-3-2-2-3 2-1 5 1 5 5 1zm38 1-1-2-1 2 1 2 1-2zm-49 0c1-2-1-4-3-3s-1 4 1 4l2-1zm327-1-2-4c-3-3-3-2-2 3 1 3 3 4 4 1zm-265-2-1-2-1 2 1 2 1-2zm240-1c0-2 0-2-1-1l-1 3c2 2 2 2 2-2zm74 0-2-6c-1-1-1 0-1 4l1 5s2-1 2-3zm-338-1c-1-2-3-1-3 1-1 1 0 2 1 1l2-2zm57 1c1-1 0-2-1-2l-2 3 1 1 2-2zm5 0 2-18 1-17-1-3c-3-1-6 22-5 33 0 7 2 9 3 5zm36 1 2-4c0-2-6-2-7 1-2 4 0 5 5 3zm106 0-1-2-1 2 2 1v-1zm140-2c-2-2-4-1-3 1l2 1 1-2zm-458-1 2-4 2-6c1-3 1-3-1-3s-3 1-4 5l-2 8c0 2 0 3 1 2l2-2zm234 0c0-1-1-1-1 1 0 1 0 2 1 1v-2zm23 1v-2c-3-2-7-2-7 0 0 3 2 4 4 3l3-1zm79 0-2-2-1 2 2 2c1 0 2-1 1-2zm-402-3-1-5c-1-1-1-1-1 2l-2 4v1c1 3 4 1 4-2zm22-1 1-12c2-7 2-9 0-13-2-3-2-2-3 12l1 16c2 2 2 2 1-3zm28 2 1-7 1-9 1-4-4 5c-2 3-3 5-2 11 0 6 2 9 3 4zm430-1-1-2-1 3 1 2 1-3zm-126 0-2-2c-2 0-2 0-1 2 2 3 3 3 3 0zm26-1c-1-1-1-1-1 1l1 2v-3zm150-3-1-6-4 1c-5 2-6 6-2 6l4 2c0 2 1 3 2 3s2-1 1-6zm-244 3c-1-2-3-3-3-1 0 1 1 3 3 3v-2zm20 1v-3l-2 2c0 2 1 2 2 1zm154 0h-3l1 1 2-1zm-399-6c-1-5-2-6-3-5s1 10 2 10l1-5zm142 4-1-1-2 1 2 1 1-1zm18-10c2-11 2-14-1-10l-2 12c0 11 0 11 3-2zm-182 8c1-1 0-6-1-11-3-17-3-17 0-20s3-4-2-6c-6-3-6-3-7 3-1 4-1 5 2 7 2 2 3 3 2 6s0 5 1 6v8c-1 7 3 13 5 7zm57 1v-2l-2 2 1 1 1-1zm36-10c0-6-1-10-2-10s-2 2-2 10c0 7 1 10 2 9 1 0 2-4 2-9zm306 8v-8c2-3 1-5-1-5l-2 2-1 7c0 6 1 7 4 4zm-443-2c8-1 2-5-8-5-3-1-5 1-5 5l7 2 6-2zm9-2-1 2c0 2 1 2 1 1v-3zm147-2c0-5-1-7-2-7s-2 2-2 7c0 4 1 6 2 6s2-2 2-6zm119 1c-1-2-3-2-4 1s1 5 3 3c1-1 2-3 1-4zm22 4 4-1c4 0 6-3 4-7s-2-4-3-1c-2 2-3 2-5 1-3-2-3-1-4 1-1 7 1 11 4 7zm105 1-4-1c-2 1-1 1 1 1h3zm-146-10 2-15 1-14c-1-4-1-3-3 5-3 9-5 31-3 32 2 2 3-2 3-8zm98 6c-2-2-2-3-2-1l2 4v-3zm-319 0-2-2-1 2 1 2 2-2zm62-5c1-7 2-27 1-30-2-5-3-1-3 11l-1 19c-1 7 1 8 3 0zm167 3-1-1-2 2 2 1 1-2zm21 0-2-2c-2 0-2 2-1 3 1 2 3 0 3-1zm49 1c1-1-3-3-7-3-2 0-2 3 1 3 4 2 5 1 6 0zm178-6c0-6-2-10-4-10s-2 14 0 15c2 2 3 0 4-5zm-272 0c-1-2-1-1-1 1 0 3 0 4 1 3v-4zm118 2c-1-2-3-1-3 1l2 1 1-2zm130-2 1-13c-1-9-1-11-3-11-2-1-4 9-2 15l1 7c-1 4 0 5 3 2zm-117-1-2-3c-1-1-3 3-1 4 1 1 3 1 3-1zm-156-1v-4c-2-3-5 0-4 3s3 3 4 1zm148 1-2-2-1 1 1 1h2zm-279-6c0-2-1-3-2-3l-2 3c0 2 1 2 2 2l2-2zm44-1-1-2c-1 0-2 1-2 3l2 2 1-3zm150 1 2-2c-1-3-4-4-4-2l-1 2c-1 0-2 1-2 3h1l4-1zm-74-10c0-5-1-7-2-7-3-1-6 2-4 4l2 7 1 6c1 2 3-3 3-10zm99 7c1-1 3-3 5-3s3 0 3-2c0-4-2-4-8 2l-4 6 4-3zm44 1-2-2c-2 0-4 2-3 3 2 1 5 1 5-1zm151-5c0-4-1-6-2-6-2 0-3 7-2 11s4 1 4-5zm-145 3-2-2c-2 0-2 2-1 4 2 1 3 1 3-2zm11 0-1-2-1 2 1 2 1-2zm25 2h-3 3zm-313-4c-1-1-1-1-1 1v2l1-3zm138-1c3-5 2-6-3-4-3 1-4 5-2 7 1 2 3 1 5-3zm55-1c0-6 0-8-2-7l-1 7c-1 7 1 7 3 0zm-162-6-2-11c0-3 0-5-1-4v17l1 5c0 2 1 3 2 2v-9zm30 8-1-2-1 2 1 2 1-2zm53-10c0-1-1-2-2-1-2 0-2 9 0 12 1 2 3-8 2-11zm5 10-2-1-1 1 1 2 2-2zm-178-2v-3c-1-2-5 1-5 4 0 2 4 2 5-1zm448-16c-2-2-3-1-3 3l2 9v7l2-8c1-6 0-9-1-11zm-236 17c0-3-3-8-4-8-3 0-3 3 0 6l4 2zm6-2c0-1-1-2-2-1l-2 2 2 1 2-2zm156-3c0-1-1-2-2-1v4c0 1 1 2 2 1v-4zm-307-11-2-7-2-8-1-6c-2 0-1 21 1 30l2 6 1-5 1-10zm194 8c-1-5-1-6-2-5-1 4-2 10 0 11l2 1v-7zm-95 2c1-4 0-11-1-17l-3-2c-3 0-5-4-4-8v-3c-2 0-3 7-3 14 1 5 1 5 4 6 3 0 4 1 4 3l-1 5-1 4c1 3 4 2 5-2zm258-1c0-2-2-3-3-1s0 6 2 5l1-4zm-11-2c1-4 0-5-2-4-2 2-4 7-3 8 1 2 4-1 5-4zm-87 1-1-2c-1-1-2 0-2 2s1 3 2 2l1-2zm138-4-1-8c-2-2-3 2-2 4 2 3 0 8-3 8l-2 1c-1 1 1 2 3 2 4 0 4-1 5-7zm-117 1-1-5c-2 0-2 7-1 9 2 1 2 1 2-4zm-57 0v-11l-2 5-2 5-2 1c0 3 5 2 6 0zm-86-6c2-6 1-16-1-16l-1 2-1 9c-1 6 0 13 1 11l2-6zm11 1c0-9 0-12-2-14-1-2-2 0-2 9 0 8 0 10 2 10 1 0 2-1 2-5zm17 1c1-5-1-8-2-4-2 5-2 8 0 8l2-4zm86 3c0-1-2-3-3-2-2 1 0 3 1 3l2-1zm47-2c1-4-1-4-3-1-1 3 0 5 1 4l2-3zm-337-2-2-9-2-8-2-5v7c1 11 3 18 5 18l1-3zm71-1c1-2 0-3-1-3s-2 1-2 3l2 4 1-4zm304 2-1-1-2 1 2 2 1-2zm5 0-1-2-1 2 1 2 1-2zm-352-1c0-1-3-11-5-12-2 0-3 9-1 12 1 2 4 2 6 0zm88-3-1-5c-1 0-2 4-1 7 2 4 2 3 2-2zm106 0-2-6-1 5 1 5 2-4zm-78-5-1-8c-2 1-2 4-1 13l1 3 1-8zm49 1c1-6 0-9-1-7-2 1-3 14-1 14 0 0 2-3 2-7zm114 5-1-2-2 2 2 2 1-2zm158-2c-1-1-2 1-1 3h1v-3zm-452-1c1-2 0-4-1-5-2-2-2-2-2 3 0 6 2 8 3 2zm108-1v4-4zm-41 0c3-6 4-18 2-20s-1-13 2-17c1-3 2-5 1-9s-2-5-2-3-1 5-3 7c-2 3-4 16-4 33 0 13 1 15 4 9zm10-1v-4c-1 0-2 2-2 5 0 4 1 4 2-1zm142 2v-2l-1 2v2l1-2zm92 1v-1l-2 1 1 1 1-1zm45-2c-1-2-2 0-1 2s1 2 1 0v-2zm114 1c2-1 3-3 2-7-1-8-7-27-8-28s-2 0-4 1-2 2 0 9l2 12 2 7c1 1 2 4 1 5-1 4 1 4 5 1zm-146-1c3-3 3-7-1-7-3 0-6 4-4 7 0 3 2 3 5 0zm75 0c0-2-2-5-3-4-2 1-1 6 1 5l2-1zm-302-4c0-5-1-9-2-6l-1 9c0 4 2 1 3-3zm53-7v-19c-1-11-3-14-5-9-2 2-1 4 0 9 2 5 2 9 2 17v12c1 3 1 3 3-10zm117 5c-2-2-2-2-2 1 0 4 3 7 3 4 1-2 0-4-1-5zm20 5-1-2-1 2 1 2 1-2zm-252-4-1-2-1 4 1 2 1-4zm339-2-1-6c-2 0-3 7-2 10 1 5 3 2 3-4zm-216 3-1-3c-2-2-2-2-1 0l-1 4c-1 1-1 1 1 1l2-2zm63-1-2-2-2 2 2 3c1 0 2-1 2-3zm-134-7-1-2c-1 0-3 4-3 8v3l2-3 2-6zm230 5-2-3-1 3 1 4 2-4zm69 2-1-1-2 1 2 2 1-2zm-359-6-1-6-1 6 1 6 1-6zm318 5-2-1h-3c-1-2-3-2-3 0s1 2 4 2l4-1zm5-1-1-2-2 2 2 2 1-2zm8-2c0-3-1-6-3-5v8c1 2 3 0 3-3zm47 0c-1-4-3-3-3 1 0 2 1 3 2 3l1-4zm-402-6c0-10-2-9-2 1 0 5 0 8 1 7l1-8zm-27 5-1 1 1 1v-2zm131 0c-1-1-6-3-6-1 0 1 4 4 5 3l1-2zm17 1-1-2c-2 1-3 4-1 4l2-2zm105 0-1-1-1 1v2l2-2zm9-3c-1-2-1-1-1 1 0 3 0 4 1 3v-4zm60-2c0-6-1-8-2-6-1 3-3 2-3-1l-2-2c-1 0-3-2-3-5l-3-5c-1 0-2 1-1 3l1 4c0 2 1 3 2 3s2 1 2 5 0 5 2 5l2-1 2 2c1 7 4 5 3-2zm98-1-1-6c-1 0-2 3-2 7 0 5 0 7 1 6l2-7zm-206 3h-4c-2 1-2 1 1 2 2 1 4-1 3-2zm-177-1h-2l-1 2h1l2-2zm65-1c-1-4-5-14-6-13v9c1 7 1 8 4 8 2 0 2-1 2-4zm310-6c0-1-1-2-2-1v10c1 2 3-7 2-9zm-275-1 2-13c1-3 0-3-3-2-2 2-3 25-1 25 1 0 2-4 2-10zm198 8-1-1-1 1v2l2-2zm-319-1v-5c-1-3-1-3-2-1-2 6-1 10 2 6zm189-3c0-4-2-7-4-6-1 1 1 10 3 10l1-4zm-183-1c0-3 0-3-1-1l-1 4c1 2 2 1 2-3zm158 1h-2l1 2h1v-2zm126 2-1-1-2 1 2 1 1-1zm-269-8-3-3c-2-1-3-1-3 2l-1 6v3l3-3 4-5zm38 1c-3-2-3 0-1 5 2 2 2 2 2 0 1-1 0-4-1-5zm161 0v5-5zm21 4c0-2-1-2-2-2l-1 3 1 2c1 0 2-1 2-3zm83 1-1-1-1 1 1 2 1-2zm18 0-1-1-2 1 2 2 1-2zm-170-6c1-5 1-5 4-5l4 1c2 1 2-3 1-11-1-7-3-6-3 1 0 6 0 7-2 6l-2-2c0-2-3-3-5-1-1 2-4 0-4-2s-1 0-2 2c-2 5-2 13 0 13 1 0 2-1 2-3 1-2 2-2 2 2 1 7 4 6 5-1zm180 5-1-1-1 1 1 1 1-1zm-262-4-1-3c-1-1-2 1-2 3 0 3 1 4 2 3l1-3zm5 2-1-2-1 2 1 2 1-2zm109 1c1-2-2-6-4-4-1 1 0 5 2 5l2-1zm-153-2-1-2c-2 0-3 2-2 3 2 1 3 1 3-1zm314 0-2-1-1 1 2 2c1 0 2-1 1-2zm72-4c0-3-1-5-2-5-2 0-2 1-2 5l1 5c2 2 3 0 3-5zm-464 1 2 1-2-7c-3-5-3-5-5-3-1 2-3 1-3-3 0-2-1-2-2-1s-1 4 1 9l2 8 3-3c3-2 4-3 4-1zm137-1-1-1c-1 0-2 1-2 3 0 3 1 3 2 1l1-3zm5-2c0-6 0-7-3-9s-3-2-3 1l2 2c2 0 2 1 1 6-1 4 0 6 2 6l1-6zm137 5v-5c2-2 1-10-1-10-1 0-2 11-1 14 2 3 3 3 2 1zm26 1-1-2-2 1 2 1h1zm60-3-1-6c-1-2-1-2-2 1l-1 6c0 4 3 3 4-1zm45 0c0-4-3-7-5-5v5c2 4 5 4 5 0zm78 2c0-2-3-3-3-1-1 2 0 2 1 2l2-1zm-315-4c0-5-1-8-3-8l-2-2c0-1 0-2 2-1 1 1 2 0 1-3-1-5-2-6-3-2 0 2-2 3-3 3-2 0-3 1-2 6 0 8 0 10 3 10l2-2c1-1 1-1 2 1 1 3 3 3 3-2zm80 3-1-2-1 2 1 1 1-1zm-243-3c2-2 0-11-2-12-1 0-3 6-3 12 0 3 3 4 5 0zm7 1-2-1-2 1 2 2 2-2zm221-1-1-1-1 3h1l1-2zm73 1-2-5-1 3c0 4 2 5 3 2zm74 0-1-1-1 1 1 2 1-2zm-289-8v-5c-2 0-3 4-3 8 0 2-1 3-2 3l-2 1h3c2-1 3-4 4-7zm148 6-2-2v2c2 3 4 2 2 0zm92 0c0-2-6-2-8 0-1 1 1 2 5 2 1 0 3 0 3-2zm92 1-1-2c-4-1-5-1-3 1 2 3 3 3 4 1zm10 0-2-3c-1-1-2-1-2 2l2 2 2-1zm-80-6h-2c-2 1-3-1-2-3 3-2 0-8-3-8-2 0-2 0-1 2l-1 5-2 5c-1 3-1 3 1 1 2-1 2-1 2 1v3l4-3 4-3zm14 5-2-1-1 1 1 1 2-1zm-306-5-1 2 1 2v-4zm274 1c-1-1-3 1-2 3l2-1v-2zm-211-5c-1-1-1 0-1 2 0 5 2 7 2 3l-1-5zm27 5-2-2-1 2 1 2 2-2zm-100-8-2-8-1 8 1 8 2-8zm280 3-2 1-1 1c-4 0-4 0-3 2 2 2 2 2 4 0l2-4zm-223 4-3-1c-1 1 0 2 1 2l2-1zm281-2c0-3-2-8-4-8v10c2 2 4 1 4-2zm34 2-2-2c-2-1-3 0-1 2h3zm-402-5-1-4c-1-1-1 1-1 4l1 4 1-4zm37-4c2-6 2-7 0-9l-3-1v18c0 2 2-2 3-8zm10 6-1-1-2 2 2 1 1-2zm223 0-2-2c-2 0-3 2-1 4 1 1 3 1 3-2zm-173-1-1-2-1 2 1 2 1-2zm110-4c0-6-1-6-2-4-2 3-3 8-1 9 2 2 3 1 3-5zm182 3v-1l-3 1-1 2c1 2 4 1 4-2zm7 0-2-1-2 2c0 1 1 2 2 1l2-2zm35 0c0-5-2-12-3-12v13c1 3 3 3 3-1zm-454 1-1-3-1 2c0 2 1 2 2 1zm64-4v4-4zm181 3v-4c-1-1-4 2-4 5 0 1 2 1 4-1zm38 0c1-3-1-6-2-3-2 2-2 5 0 5l2-2zm16 0-2-1-2 1 2 2 2-2zm57 0-1-1-1 1 1 2 1-2zm106-7a187 187 0 0 1 1-21l-4 5c-3 3-3 5 0 20 1 8 3 5 3-4zm-276 5-1-3c-1 0-2 1-2 3l2 2 1-2zm-153-2c0-2-1-2-2-2l-1 3 1 1 2-2zm125-1c4-1 5-2 2-6-2-2-2-2-4 0l-3 2c-2 0-3 5-2 7 0 1 1 1 2-1l5-2zm80-2c0-4-1-6-2-6-2 1-3 7-1 10 1 4 3 2 3-4zm104 6 1-5c1-3 1-4-2-4-4 0-5 2-4 7 1 2 5 3 5 2zm85-1-1-1-1 1 1 1 1-1zm-356-8c0-4 0-4-1-3l-1 7c0 3 0 4 1 2l1-6zm76 2c0-6-1-8-3-5-1 2 1 11 2 11l1-6zm180 1c-2-2-3 0-2 2s2 2 2 0v-2zm152 1c-1-2-1-1-1 0 0 2 0 3 1 2v-2zm-474-3c0-3 0-3-2-1-3 4-3 5 0 5 1 0 2-1 2-4zm177-5-1-7c-1-1-3 3-2 5l1 6c0 2 0 4 1 3l1-7zm99 5c0-2-4-7-6-7s-1 5 1 7c2 3 5 2 5 0zm81-1c-1-3-3-2-2 1l2 2v-3zm21-4c-1-13-3-19-7-19-3 0-6-4-6-9l-1-2-2 2-1 2-1 4c0 3 1 4 6 3 1 0 2 1 2 3s1 2 2 2c4 0 4 1 5 13 0 5 1 9 2 9l1-8zm51 6c0-2-4-7-5-6s2 8 4 8l1-2zm-304-2-1-2-2 2 2 2 1-2zm97-2c-1-1-4 0-4 3h2l2-3zm22 2c0-2-3-4-4-2-1 1 1 4 2 4s2 0 2-2zm54 1v-1l-2 1 1 1 1-1zm-48-5c-2-4-3-3-2 2 1 2 2 3 3 2l-1-4zm151 1c0-4-2-6-3-4-1 1 0 8 2 8l1-4zm-271-2c0-5-2-8-5-8-2 1-2 6 0 6l1 3 1 3c2 1 3-1 3-4zm62-1c0-3 0-5 2-6 3-1 2-3-1-5-3-1-3-2-4-10l-1-8c-2 0-2 17 0 21 1 2 2 5 1 8l1 6 2-6zm18 1-3-2c-2 0-2 1-1 1l2 3c0 2 0 3 1 2l1-4zm136 3v-3l-2-2-2-13c-1 0-2 17 0 19 1 1 3 1 4-1zm44-5c1 0 1-1-1-3-3-3-4-3-4 3s2 8 3 4l2-4zm-352 3-1-2-1 2 1 2 1-2zm55-5c1-7 0-10-2-8-1 2-1 15 1 15l1-7zm17-2 2-12c1-3 1-3-1-2-3 1-5-1-5-6l-1-4c-3 1-2 12 1 14l1 8c-1 8 0 11 2 11l1-9zm-77 4c-1-1-1 0-1 1 0 2 0 3 1 2v-3zm87 2v-5c0-6-3-4-3 2 0 3 1 5 2 5l1-2zm30 0-2-2v2c2 3 2 3 2 0zm17 0c1-1 0-2-1-2l-2 2c0 3 3 2 3 0zm113-6c0-3-1-4-2-4-2 0-3 4-1 9 1 4 3 1 3-5zm38-2c-1-7-2-8-5-5-1 2-2 13 0 14l3-1c2-2 2-4 2-8zm146 7c2-5 1-12-1-12s-4 10-3 13c2 3 3 3 4-1zm-231-2-1-2-2 3c0 2 1 3 2 2l1-3zm63 2-1-1-2 1 1 2 2-2zm10-2c0-4 0-4-3-4-4 0-4 1-2 5s5 3 5-1zm170 1v-7c0-5-1-6-2-6-2 0-2 1-2 4 0 4-1 5-2 5l-2 2c0 2 0 2 1 1 3-2 4-2 4 1 0 2 1 3 2 2l1-2zm-218-1-3-2c-2 0-2 1-1 2 2 2 5 2 4 0zm-40-3-2-1c-1 0-2 1-2 3s1 2 2 1l2-3zm73 3c0-1 0-2-2-2l-3 2 2 1 3-1zm67-1 2-2v-6c0-4-1-5-2-3l-1 5-2 4v2c1 3 3 2 3 0zm11 1-1-2-2 2 2 1 1-1zm64-1c1-1 0-2-1-2l-2 2 2 2 1-2zm-282-1-1-1-2 1 1 2 2-2zm34 0c1-2 0-8-1-7-2 1-2 9 0 9l1-2zm-123-2c0-3-2-4-3-2s0 4 2 4l1-2zm353 0c2-2 2-3-1-3-3-1-4 0-4 3s2 3 5 0zm67 1-2-1-1 1c-1 1 0 1 1 1l2-1zm-448-3-1-2-1 3c0 1 0 2 1 1l1-2zm177-3c0-3-1-4-3-4-3 0-4 1-3 3 0 3 4 7 6 6v-5zm235 3-1-3-1 3 1 3 1-3zm-268-3-1-3-1 4c0 5 0 5 2-1zm228-3c0-6 0-6-2-4-1 1-2 3-1 7 1 6 3 5 3-3zm33 7h-2c-1 0-1 1 1 1l1-1zm-171-2c2-2 0-3-2-1v2l2-1zm59 1h-2 2zm-194-5c0-4 0-4-1-3-2 3-2 7 0 7l1-4zm107 0c-2-3-6-3-6-1s4 5 6 4v-3zm56 2-2-2c-1 0-2 1-1 2l1 2 2-2zm135-2c-2-1-2-1-2 1 0 3 0 3 2 2s1-2 0-3zm-175-2c0-1-1-2-2-1l-1 3c0 3 0 3 1 1l2-3zm-56-4c-1-7-1-9-3-9v13c0 1 1 3 3 3v-7zm188 6v-1l-2 1 1 1 1-1zm36-2 1-8-1 4-2 5v2c1 0 2-1 2-3zm29 1-1-2-2 2 2 2 1-2zm-327-8c2-3 2-14 0-14l-1 5c0 6-1 7-4 2-1-3-1-3-1 5 1 9 3 14 3 8l3-6zm294 1v-5c-1 0-4 9-3 12 1 2 2-1 3-7zm19 4v3-3zm-274-9c0-8-1-15-3-15l-1 10v11l-1 4c2 4 5-2 5-10zm-21 6 1-7c1-2 1-4-1-6-2-5-6-3-3 1v15c0 1 0 2 1 1l2-4zm237-2-1-5c-1 0-2 2-2 5l2 6 1-6zm65 4c0-3-1-4-3-2-1 1 1 4 2 4l1-2zm-354-35 1-24c2-4 1-4-2-2a45982 45982 0 0 1 0 55l1-29zm133 36-3-2-3 1 6 1zm90-8-2-15a625 625 0 0 0 0 22c3 0 3-2 2-7zm-159 3v-11c-2 0-3 4-3 10s2 6 3 1zm152 1c1-3 0-7-2-7-1 0-2 7-1 9s2 1 3-2zm27-1 4-5h-1c-4-1-8 2-8 6s3 3 5-1zm21-1c-1-6-2-14-3-12v14c1 5 3 3 3-2zm108 3-2-1-1 1 1 2 2-2zm10 0c0-3-3-4-5-2-2 1-2 1 0 2 3 2 5 2 5 0zm-325-2-1-2-2 2 2 2 1-2zm175 1-4-1c-2 0-1 0 0 1 4 2 6 2 4 0zm-188-3-2-1-1 1 1 2 2-2zm139 1-2-4c-3-3-5 0-2 3 3 2 3 2 4 1zm158-3-1-1-2 3c0 1 1 2 2 1l1-3zm-259-9c0-5-1-6-3-5s-2 12-1 15 4-4 4-10zm268 7h-2l-2 3h2l2-3zm-306-5c0-6-2-9-4-3-1 4 1 10 3 9l1-6zm156 0-2-3c-2 0-3 5-2 8 1 2 1 2 3 0l1-5zm-64-1c0-3-1-4-2-4-2 1-3 6-2 9 2 3 4 0 4-5zm-46 2c0-2-1-3-2-3-2-1-3 3-2 5s4 0 4-2zm27-2c1-4 0-7-3-5-1 1-2 6-1 9 0 3 3 0 4-4zm36 2c-1-2-1-3-1-1l2 4-1-3zm82 0c-1-4-2-4-3-3-2 2-1 6 2 6 1 0 2-1 1-3zm-225-22 1-23-1-3c-3-2-4 2-3 14 0 10 0 12-2 13l-1 10c2 21 5 16 6-11zm325 21-1 1 1 1v-2zm-210-1c0-2-3-1-4 1 0 1 1 2 2 1l2-2zm183-1-2-2-1 3 1 2 2-3zm-293-5c1-4 0-6-1-6v12l1-6zm8 0-2-4c-1 0-2 7 0 9 1 2 3-2 2-5zm122 4c0-3-3-2-4 0l2 2 2-2zm39-5c1-7 0-11-2-8l-2 8 1 7c2 0 3-2 3-7zm191 6h-2c-1 0-1 1 1 1l1-1zm-53-8-1-6-1 2-3 3c-3 3-3 3-1 4l2 3 2 1c2-1 2-3 2-7zm-292 2c1-3 0-3-2-1s-2 6 0 5l2-4zm183 3-1-2-2 2 2 1 1-1zm49-1-2-2-1 2 2 2 1-2zm23 0-2-4c-1 0-2 0-2 3 0 2 1 3 2 3l2-2zm100-2c-2-1-3 1-2 3h2v-3zm-192-3-2-4v4l2 4v-4zm173 3c1-1-3-3-5-2l-1 2c1 2 5 2 6 0zm28-1v-5c1-4-2-4-6-1-2 1-2 1 1 3l3 4 2 1c2 0 2 0 0-2zm-300-2c0-1-1-1-1 1l1 2v-3zm54 1v-2l-2 2 1 2 1-2zm93 1-1-2-2 2 1 1 2-1zm-196-23c1-3 0-3-3-4-4 0-6 2-7 9-1 4-1 5 1 3 3-2 4-1 4 4l1 9c2 2 2 1 3-8l1-13zm44 13c0-10-1-13-4-7-2 3 0 17 2 17s2-2 2-10zm125 7c1-2-2-2-3 1 0 1 0 2 1 1l2-2zm40 0c0-1-1-1-1 1 0 1 0 2 1 1v-2zm39 0c-1-3-5-6-6-5v4c1 5 6 5 6 1zm-182-1-2-7c-1 0-3 7-2 8 1 2 3 2 4-1zm49 1-2-1v1l1 1 1-1zm101-16-1-6c0-2-1-3-2-3-2 0 0 22 2 25s3-12 1-16zm-224 14-1-4c-1-2-1-2-2 2l2 4 1-2zm118 0 1-6c0-2-1-3-2-1l-2 5c0 4 2 5 3 2zm-106-1-1-4c-1-3-1-2-2 1v4c1 1 3 1 3-1zm7-1c2-2 2-2-1-4l-3-3v5c0 5 1 6 4 2zm154 0-2-3c-2 0-2 1-1 4s3 2 3-1zm163 1c3-4 0-4-3-1-2 2-2 3-1 3l4-2zm-346-2-1-3-1-1c-1 0-2 4 0 6 1 1 3 0 2-2zm145-2c2-5 0-6-2-2v6c1 0 2-1 2-4zm-152-12-1-16c-2-2-4 0-5 5-1 3-1 4 1 3s3 2 2 12c0 4 2 11 3 11v-15zm116 14-2-2-1 2 1 1 2-1zm106-3-1-4-1 4 1 4 1-4zm89-1v4-4zm-78-2c1-5 0-6-3-6-2 0-2 0-1 4l1 6c1 3 3 0 3-4zm24 4c-1-2-4-3-4 0-1 1 0 2 2 2l2-2zm-136-3-2-2c-1 0-2 1-2 3l2 2 2-3zm79 1-2-2-1 2 1 2c1 0 2 0 2-2zm65 0-1-3-2-1c-3 0-3 0-1 4 2 3 5 3 4 0zm-138 0-1-2-1 1c0 2 1 3 2 1zm19-2-2-2c-2 0-2 3-1 4s3 0 3-2zm66-1c-1-7-2-8-3-5-1 4 0 9 2 9s2-1 1-4zm-138 0c0-1-1-1-1 1 0 1 0 2 1 1v-2zm90 0c0-5-2-6-4-2-1 3-1 5 2 5l2-3zm-126-2-2-2v3l2 2v-3zm337 2c6-3 3-6-4-4-5 0-6 3-3 5 3 1 3 1 7-1zm-243-2-1-2-1 2v2l2-2zm40 0v-2l-2 2 1 2 1-2zm127-3c4-3 3-5-2-3-1 1-3 2-3 4 0 4 2 3 5-1zm-171-8-1-7c-3 0-5 14-2 17 1 1 3-4 3-10zm-122 7v-2c-2-1-2 0-2 1 0 4 0 4 2 1zm73-4c0-2 0-5-2-6-2-3-6-3-5-1l2 7c2 7 4 7 5 0zm35 4-2-1c-1 1 1 3 3 3l-1-2zm-59-1c-1-1 0-3 1-4v-3l-2 2v7l1-2zm115 0c-1-2-4-3-4-1l4 3v-2zm31-4c-1-6-4-9-4-2 0 4 1 8 3 8l1-6zm-64 4c0-2-3-2-3-1-1 1 0 1 1 1h2zm169-1-1-1-1 1 1 1 1-1zm-142-1-2-2-1 2 1 1 2-1zm58-1-1-2c-2 0-3 2-2 3 2 2 3 1 3-1zm98 0c0-2-3-5-5-5v6c2 2 5 1 5-1zm19 0-2-2-1 2 1 2 2-2zm18 1c2-1 1-2-1-2s-3 1-3 2h4zm-324-5c0-6-3-18-4-18-2 0-4 3-4 6s1 3 2 3c2 0 3 1 3 7 1 7 3 9 3 2zm5 3-1-1-1 1 1 2 1-2zm116-3c-2-2-2 0-1 3 1 2 1 2 1 0v-3zm-140 1-1-2c-1-1-1 0-1 2l1 2 1-2zm55 1-1-1-2 1 2 1 1-1zm112-3c-1-1-1 0-1 2s0 2 1 1v-3zm34 0-1 1 1 2v-3zm-165-1c0-1-1-1-1 1 0 1 0 2 1 1v-2zm48 0-1-3-1 3 1 3 1-3zm17 2h-2c-1 0-1 1 1 1l1-1zm61-4c0-3-3-2-4 0-1 3 1 6 2 3l2-3zm170 2c0-4-4-5-4-2s1 5 3 5l1-3zm-282-1-2-2-2 2c0 2 0 2 2 2l2-2zm261 0c0-3-6-10-7-9-2 2-1 4 2 8 2 3 5 4 5 1zm53 0-2-2-1 2 2 1 1-1zm-422-13c-1-9-3-5-2 5 1 7 1 8 2 4v-9zm17 8c-1-3-1-2-1 1l1 2v-3zm132-1c-1-1-1-1-1 1v2l1-3zm60-2c0-3-1-6-3-8l-3-4 1 4c1 3 0 5-1 6-3 3-1 7 3 7 3 0 3-1 3-5zm31 3-2-4c-1-2-1-2-1 2l1 4 2-2zm134 1-1-2-1 2 1 1 1-1zm-320-2-1-2-1 1 1 1h1zm128-7-4-2c-2 0-2 1-1 1l3 5c1 4 2 4 2 1v-5zm-77 2c0-3-2-3-3-2s2 6 3 5v-3zm57 3-1-2-1 2 1 1 1-1zm220-2c0-3-3-7-4-6v5c1 5 4 6 4 1zm-301-2v-3l-2 4c-1 4 1 3 2-1zm33-1c0-3-2-6-3-4v5c1 4 3 4 3-1zm15-10c-1-3-3-3-5 2s-2 9-1 11c2 1 6-10 6-13zm-86 7c-2-1-3-1-3 1-1 2 3 5 4 2l-1-3zm51 5-2-3c-1-1-2-1-1 1s3 3 3 2zm39-1-1-2-2 2 2 1 1-1zm-116-3-1-3-2 3 2 3 1-3zm145 1c2-1 2-1 1-3-2-3-4-3-4 1-1 4 0 4 3 2zm235 0-1-2-2 2 2 2 1-2zm-411-4-1-2-1 3 1 2 1-3zm169 2c1-2-1-3-4-1-2 2-2 2 0 2l4-1zm15-2-1-2-1 2 1 2 1-2zm-141-3c0-2 0-2-3-2-1 1-3 0-4-1-1-2-1-2-1 1l1 5c2 1 6 0 7-3zm13 0c0-2-1-2-4-1-4 1-3 4 1 3 2 0 3-1 3-2zm368 2-4-2c-4 0-6 1-4 3 1 1 7 1 8-1zm-271-6h1l-2-4c0-4-3-14-4-13v22l2-2 3-3zm235 2c0-2-3-4-8-4-3 0-3 4 1 5 5 2 7 2 7-1zm12 1-1-1-1 1v2l2-2zm-386-6c-1-1-2 1-1 3 1 3 1 3 2 0l-1-3zm148 3-2-2-1 2 1 2 2-2zm24-3c0-5-2-8-4-6-1 2 1 11 2 11s2-2 2-5zm-80-3c-1-1-2 1-1 4 1 2 1 2 2 0l-1-4zm28-1-2-2v5c1 1 3-1 2-3zm29 1-4-4c-5-1-5 1 0 3 4 3 4 3 4 1zm224-1c0-1-2-2-6-2-8 0-8 3 0 3l6 1v-2zm-323-2c0-2-3-2-3 0-1 1 0 2 1 2l2-2zm76-1c0-3-1-3-3-2-1 1 1 5 2 5l1-3zm-129-4v2c0 3 1 3 1 2l-1-4zm76-1v-5c0-2-1-2-1 0-2 4-2 7 0 7l1-2zm-70-5v4-4zm22 1c-2-3-3-1-2 2 1 2 1 2 2 1 2-2 1-2 0-3zm36 1c3-3 3-5 0-6-2-1-9 1-9 3 0 1 4 6 6 6l3-3zm57 1-1-2-1 2 1 2 1-2zm-125-1-1-1-1 1 1 1 1-1zm108-1c0-2-6-6-8-5l7 7 1-2zm-104-4c2-2 4-3 5-2l4-1-1-2-5-4c-3-3-6-3-5 0l-1 3c-2 2-3 8-2 8l5-2zm19-1c1-3 2-3 5-3 3 1 3 1 1-1-4-4-10-4-12 0-1 2-1 3 1 5 4 3 4 3 5-1zm121-1-1-1-2 1 2 2 1-2zm-69-2c0-2-1-3-2-3-2 0-3 3-1 5 1 1 3 0 3-2zm-83-6c0-9-1-12-3-10l-4 1c-2-1-5 1-5 4 0 2 2 3 5 5 3 1 4 2 4 4s1 3 2 3c1-1 2-3 1-7zm138 5c0-3-6-4-6-2 0 3 1 4 4 4 2 0 3-1 2-2zm-19-1c3-1 3-1-1-1l-3 1c0 2 1 2 4 0zm277-3c-1-1-1 0-1 2s0 3 1 2 2-2 0-4zm-288-2-2-4-3-3-3 1c0 2 9 10 9 8l-1-2zm-44-4c0-3-3-8-5-8l2 12c1 2 3 0 3-4zm32 2-1-3c-2 0-2 4-1 6 2 1 2 1 2-3zm-63-3-1 2 1 2v-4zm-25 0c1-2 0-3-1-3-3 0-4 3-2 5 1 1 3 0 3-2zm21-2-1-4-1 5c0 4 0 4 2-1zm100 1c0-1 0-2-2-2-1 0-2 1-2 3 0 3 3 3 4-1zm11 3h-3 3zm-50-5-2-6c0-4-1-5-3-5l-4-1c-1-2-5-2-5 0l2 2c4 2 5 3 4 8-1 3-1 3 2 2 2 0 3 0 4 2s2 2 3 1 1-2-1-3zm-69-1c0-3-2-5-3-4v4c1 4 3 4 3 0zm-6-3c-1-1-2 1-1 3h2l-1-3zm-30 0c-1-1-1-1-1 1 0 1 0 2 1 1v-2zm115 1c0-2-1-3-2-3-1-1-2 0-1 2 1 3 3 4 3 1zm-54 0h-2 2zm87-4-3-1c-5 1-8-12-4-17 3-3 2-3-5-5l-4 1 2 3 2 6 1 8c1 2 0 3-2 3-3 0-4 2 0 3s13 0 13-1zm7-3-3-3v5c1 2 2 3 3 2v-4zm-77-1c0-2-1-2-2-2l-1 3 1 1 2-2zm50 1c0-2-7-6-10-5s-2 3 2 4l6 2c2 1 2 1 2-1zm-92-3-1-2-1 2 1 2 1-2zm6-1-3-7-3-6c-2 0-1 8 2 11l2 4 2 1v-3zm34-10h-1c0 2-1 2-2 2s-1 0 0 0l1 3 1 3c2 1 2 1 2-3 1-2 0-5-1-5zm73 8-1-2c-3-1-4 0-3 2s3 2 4 0zm-22-4-1-1-2 1c-1 1 0 1 1 1l2-1zm3-1c0-2-1-3-2-3v3c1 3 3 3 2 0zm-73-2c2-1 2-1 1-2-2-3-6-1-6 3l1 1 4-2zm10-5-2-7-2-12-1-11h-4c-5-1-6 2-2 5 3 3 6 12 6 18 0 5 3 14 5 13v-6zm41 2c-2-5-1-10 3-11 2 0 2-1 2-7-1-4 0-7 1-7 1-1 2-5 0-5l-4 2c-2 1-2 2 0 7 1 6 1 6-2 10l-7 4c-2 0-2 0-1 3 2 3 7 9 9 9l-1-5zm14 3-1-6-2-8-1-4-2 7c0 5 0 6-2 7-2 0-3 1-3 3s1 2 4 0c2-1 3-1 4 1 0 2 2 2 3 0zm-27-7-1-1c-2 1-2 3 0 3 1 0 2-1 1-2zm-4-5c-2-3-5-4-7-2-1 1-1 2 2 4s6 1 5-2zm-42-8c0-8 0-12-1-11-1 0-2 4-1 9l1 13 1-11zm6 8-2-3c-1 1 1 6 2 6v-3zm-11 0-1-2-1 2 1 2 1-2zm27-8c-2-2-5 1-3 4 2 2 2 2 3 0v-4zm58 1c-1-2-5-3-5 0 0 2 3 5 5 4v-4zm-29-1c-2-3-2-3 0-5 5-5 8-20 3-24l-3-4-1-5c-2-4-3 2-1 7 3 7 3 8-1 12-4 3-4 3-2 8v7c0 3 2 7 5 7v-3zm-16-3-1-3c-3 0-4 2-3 6 1 2 2 1 4-3zm21-2c-1-1-2 1-1 3h1v-3zm21-1c4-3 3-6-1-5-3 0-4 1-4 4-1 4 1 5 5 1zm-52-2c0-2-1-3-2-3l-1 3 1 3c1 0 2-1 2-3zm18-7c-2-7-4-7-4-1 0 4 0 4 2 4s2 0 2-3zm-18-2-6-4-8-4c-1-2-9-3-9-1 0 3 9 8 14 8l5 1c2 2 4 2 4 0zm8-1-2-2-1 2 1 1 2-1zm-63-6c0-4-6-7-8-4l3 5c4 3 5 3 5-1zm76-1c0-2 0-3-1-2l-1 3c1 3 2 2 2-1zm-69 0-2-1-2 1 2 1 2-1zm8 0c2-3 0-3-3-1-2 2-2 2 0 2l3-1zm42-2c1-3-1-11-2-11l-1 2c1 2 0 3-1 4-2 1-3 5-1 6 1 2 4 1 5-1zm11-4c0-2 0-3-2-3-3 0-3 1-2 5s3 3 4-2zm6-2-1-7-1-7-1 4c-3 6 0 15 3 10zm13-9 3-1v-1c-1-3-5-3-7 0v8l2 5v-5l2-6zm-44 2c0-6-1-6-2-5-2 2-3 1-3-1l-2-3c-2 0-2 5 0 6l1 4c0 3 1 5 4 5 1 0 2-2 2-6zm5 3-1-5c-1-2-1-2-2 2l2 4 1-1zm31-8c-1-1-2 1-1 3h2l-1-3zm-10 0-1-2-1 3 1 2 1-3zm-13-4c2-4 2-5-1-6s-6 2-6 7c0 3 1 4 3 4l4-5zm29-2-1-3c-1-1-3 2-2 4s3 1 3-1zm6-7-1-8c-2-2-2 14-1 16 1 3 2 0 2-8zm-19 5c-1-1-1-1-1 1v1l1-2zm-6 0-1-2-1 1c0 3 1 3 2 1zm-29-5-1-2-1 3c0 1 0 3 1 2l1-3zm4 1c-1-1-1-1-1 1 0 1 0 2 1 1v-2zm44-2-2-5c-2-4-2-4 0-3h2l-2-2-2-4c0-2 0-2-1 0-3 5 0 15 4 15l1-1zm-19-6-3-4c-2 0-2-1-1-5v-4c-2 0-3 3-3 7 0 5-4 4-4-1-1-7-4-3-4 5 0 4 0 4 5 4 3-1 5 0 7 1 2 3 3 2 3-3zm10 3c-2 0-3-2-3-3l-1-2c-1 3 1 6 4 6 2 0 2 0 0-1zm-41-2-2-3-1-6-1-8c-2-2-2 8-1 15 1 4 5 6 5 2zm35-3c-1-7-2-7-2-1l1 6 1-5zm-78-4-2-3c-1 0-2 1-2 5 0 6 0 6 2 3l2-5zm36 6-1-1-2 1 2 1 1-1zm14-2 4-4c4-2 4-2 1-3h-4c-1 1-2-1-2-4-1-3-2-4-3-3v5l1 8c-1 5 1 6 3 1zm-41-3c1-3-2-6-4-3l-1 4c0 2 4 2 5-1zm24-2-1-1-1 1 2 2v-2zm-3-11c-1-2-2 1-1 3s1 2 1 0v-3zm25 2-2-1-1 1 1 1 2-1zm-13-4v3-3zm-17-1-1-4-1 4 1 4 1-4zm41-5c0-6-1-9-2-10-1-2-2-1-1 4v5c-2 0-2 2 0 7s2 3 3-6zm17 3-2-7c-1-1-1 0-1 4l1 7 2 2v-6zm-65-1v4-4zm58 1c-1-1-1-1-1 1v2l1-3zm-6-7-1-11v-1c2 2 2 2 4 1 1-2 2-1 3 0 0 2 1 2 2-1v-5c-2-1-2-3-2-8v-7c-1-1-1 2-2 6-1 7-1 7-5 6s-4-1-4 4l3 10 1 11v3c1-1 2-4 1-8zm-13 5-2-2c-2 0-2 2-1 4 2 1 3 1 3-2zm-26-5c-1-2-2-2-2 1s1 4 2 3v-4zm20 2 1-5c-1-3-1-3-3 1s-2 5 1 5l1-1zm-6-15-2-12c-2-5-2-8 0-8l3-5c1-5-1-9-3-4l-2 3c-3 1-2 13 1 25l1 10-1 5c2 4 3-5 3-14zm31 12-1-2-2 3 2 2 1-3zm-40-8c-1-8-3-12-5-12s-2 3 1 9l3 7c0 3 1 5 2 4l-1-8zm23 3-2-8c-2-6-1-8 2-5h2l-2-4c-2-1-3-3-3-6l-1-4-1 26c1 4 1 5 3 5 2-1 2-2 2-4zm-7-3-1-3c-1 0-2 0-2 2s1 3 2 3l1-2zm31 0-2-2-1 2 1 2 2-2zm-97-2c3-3 2-5-2-3-2 1-4 5-2 5l4-2zm27-7c0-2-1-4-4-7-4-4-5-11-2-16v-4c-2-4-4-2-4 7v8c-3 0-4-3-3-8l-1-10-1-5-1 5c-1 3-2 7-1 8l-1 5c-2 2-2 3 0 5s3 6 3 11c-1 3-3 3-4-1l-5-8c-2-3-4-8-4-13-2-15-3-17-4-17-2 0-2 2-1 6 0 5 0 7-2 9-3 2-3 4 1 6l2 6c0 3 1 4 4 6 3 1 5 3 6 8 2 10 11 9 9-2 0-6 2-8 3-3 1 1 2 3 4 3l2 4 1 5c1 2 1 1 2-2l1-6zm12 8c0-3-2-8-4-7l-2-1c-1-2-2-2-3 0-2 3-2 6 0 7 1 1 2 0 3-2s1-2 3 0v3l1 1 2-1zm-47-6v4-4zm46-12c0-3-1-5-3-6s-2-1-2 1l1 2 1 5c0 3 1 4 2 3l1-5zm12 2c0-3 0-4-1-3s-2 3-1 4c1 4 2 4 2-1zm35-7c0-3-1-5-2-5l-1-4c1-3 0-4-2-4s-2 1-1 6l2 8c1 5 4 4 4-1zm-55-10c0-5-1-7-2-7l-2 1v15c3 2 4-1 4-9zm45 6-1 2c0 2 1 2 1 1v-3zm40 1c0-2-2-3-3-1s1 5 2 4l1-3zm-134-7c1-7 1-10-1-6-2 3-4 15-2 14l3-8zm67 6c0-2-1-3-2-3-1-1-1 0-1 3l1 3 2-3zm45-2-2-2c-1-1-3 2-1 4 1 1 3 0 3-2zm-87-3-1-5-2 2v5c-1 1-1 2 1 2 1 0 2-1 2-4zm36 2c1-2 0-3-2-2-1 0-1 4 1 4l1-2zm82-1c-2-5-4-7-5-5-1 1-1 2 1 3l2 3 1 2 1-3zm6 0-1-2-1 3c1 1 2 1 2-1zm-179-3c0-1 0-2-1-1l-1 2c2 2 2 1 2-1zm22-3c3-1 3-4 0-5-2 0-3-1-3-4l-1-7-3-10c-2-8-3-9-5-5l-3 1-4 2c0 2 0 3 3 2 5-1 8 4 8 13 0 6 0 7-3 7s-3-1-4-7c-1-7-1-7-2-6-3 4-1 13 4 18 4 3 5 3 13 1zm17-7-1-8c-2 0-3 3-2 10 1 10 3 8 3-2zm139 0-2-1c-2 0-2 0-1 3 1 1 2 2 3 1v-3zm-117-9 1-3c0-4-2-2-5 5-1 3-2 7-1 8 0 2 1 1 2-3l3-7zm110 10-1-2-2 2 2 2 1-2zm-121-5c-1-1-2-1-2 1 0 3 2 5 3 2l-1-3zm-18-1-1-2-1 2 1 2 1-2zm142 1-2-1-2 1 2 1 2-1zm-184-2c0-3-2-6-3-5-2 1-7-1-11-4l-6-2-4-2c-2-4-8 2-7 8 1 2 2 2 6 3l8 1c6 3 17 4 17 1zm8-2c-1-2 0-6 1-9 2-8 2-8-1-8-1 0-2 1-2 3l-1 4c-2 1-2 6 1 10 2 5 3 5 2 0zm27 1h-2l-1 2h2l1-2zm86-2-1-4c-2 0-2 5-1 7 2 1 2 1 2-3zm56-1c0-2 0-3-2-3l-2 4c0 3 0 4 2 3l2-4zm-63-1c0-3-2-3-3-1s1 4 2 3l1-2zm22 1-1-2-1 2v2l2-2zm-82-1-1-2-1 2 1 2 1-2zm-5-3-1-2-2 2 2 2 1-2zm-50-4c1-2-4-4-6-3v3c1 3 5 2 6 0zm252-7c0-2 0-1-1 0l1 2v-2zm-55-5c0-2-4 1-4 4s0 3 2 0l2-4zm-139 1c0-4-2-6-3-3-1 2 0 7 2 7l1-4zm131-5 2-5c2-2 2-3 0-5-4-4-5-2-4 4 1 5 1 6-2 5-3 0-4-1-3-7 0-8-1-8-8-5-4 1-6-4-4-12v-7c-1-1-5 2-6 5 0 1-1 1-3-1l-4-1-4 1c-2-1-7 2-7 3l2 2 4 3c3 2 3 2 6 0 2-2 3-2 5 2 3 5 7 8 9 7 3 0 7 5 6 10 0 4 0 4 6 4 5 0 5-1 5-3zm-14 1c0-2-4-10-5-9-2 1-2 2 0 7 1 3 5 5 5 2zm-162-3-2-1-1 3h1l2-2zm153-2c0-5-3-8-7-5h-3c-3-6-6-6-6 0 0 4 2 6 7 6l4 2c2 4 5 2 5-3zm38 1c3-2 1-4-3-2-1 1-4 2-5 1l-2 1c0 3 6 3 10 0zm0-16v-7l5 2c3 2 4 4 4 6 0 5 3 5 3-1 1-2 0-4-4-8l-6-4c-3 0-8 7-7 10s-4 4-7 0c-2-2-2-2-4-1-4 3 2 7 16 9v-6zm-21-3-1-4c-2-2-2-5 0-5l6 3c5 4 6 4 8 2s0-9-2-9l-3-3c0-2-2-4-3-5-4-1-5-4-2-5 4-1 1-5-4-7-6-2-7-2-7 0s2 2 4 2l3 2c1 2 0 2-4 3-7 0-7 0-9-6-1-4 0-4 2-4 2 1 3 1 4-1l3-2c3-1 3-1 1-2l-4 1h-4c-2-2-3-1-4 0-3 4-7 3-12-1-3-2-4-4-3-6s0-2-2-2c-3 0-4 3-1 5 3 1 5 7 5 12-1 3-1 4-4 4h-4l2 6 3 7 14 1-3-3c-2-3-1-7 1-7s2 1 4 7c1 5 2 5 5 0 2-5 5-6 9-4s6 6 2 5l-4 3c-2 3-2 4-1 10 2 6 3 7 5 3zm-32-20 2-1 1 1-1 1-2-1zm24 20-1-1-1 1 1 1 1-1zm51-10c1-1 0-1-1-1-2 1-3 0-3-4l-4-8c-5-2-6-1-3 3 2 2 3 4 2 6 0 2 0 4 2 5 3 2 7 1 7-1zm-27-9c0-1 0-3-2-3-3-1-3 0-2 3 1 4 3 3 4 0zm10-2-2-2v2l1 1 1-1zm-14-10-2-1-2 1 2 2 2-2zm-8-4-1-2-1 1 1 1h1zm7-3-1-1h-2l2 2 1-1zm-30-7c2-1 2-2 1-3-2-2-9 1-8 3 1 3 4 3 7 0zm6-6-1-1-2 1 2 2 1-2zm-12-2-1-2-2 2 2 1 1-1zm18-2-2-1-1 1 2 2 1-2zm-27-2c0-2-1-3-2-3s-2 4-1 5 3 0 3-2zm-17-5c-2-3-3-3-5-2-3 3-3 4 1 4 6 2 6 2 4-2zm-19 1-3-2c-2 0-2 1-2 2l3 1 2-1zm41-2-2-2c-1 0-2 1-1 2l2 2 1-2zm11 0-2-1-2 1 2 2 2-2zm-48-5v-1l-2 1v1l2-1zm-23-4-1-1-1 1 1 1 1-1zm-27-11-1-1-1 1 2 2v-2zm11 0-1-1-2 1 2 2 1-2zm-65-1-2-1-2 1 2 1 2-1zm21 0c1-1-2-9-4-9s-3 2-1 6c1 4 4 6 5 3zm11-5-3-2c-3 0-3 1-1 2 1 2 4 2 4 0zm19-2h-2v3c2 2 2 2 2 0V9zm772 1275-2-8c1-4 1-5 5-5 3 0 4 1 4 5l-2 8-3 3zm-51-8c-3-3-3-9-1-11 4-6 10 3 6 10-2 3-3 3-5 1zm93-6c0-4 3-7 5-5s0 8-3 8c-1 0-2-1-2-3zm-107-4v-9l1-12v-7l3-2c5 0 7 20 3 30-2 4-6 5-7 0zm-46-12c0-2 0-3 2-5 3-2 3-2 2-3-3-1-3-27 0-27 2 0 6 23 4 27l-1 5c0 4-1 4-3 5l-4-2zm167 0-1-8c0-6 0-8-3-11-4-4-4-5-1-10 4-4 6-4 6 1l1 7 2 10 1 8c0 3-3 5-5 3zm-99-11v-16l-3 1c-4 4-11 0-11-7l-2-8c-4-7-5-15-3-16s3-3 3-11c0-12 2-27 4-29s3 3 1 11c-1 8 1 53 2 56a876 876 0 0 1 6-52c3 0 3 1 2 8-2 21-2 40-1 41 2 1 3-1 4-14 0-11 2-19 4-19v23c-1 16 0 24 1 27 1 4 1 5-1 7-2 3-3 2-6-2zm-98 1c-8 0-9-3-10-21 0-16 1-21 3-13 2 3 2 3 5 3h3l4 2c3 0 5 3 4 6-1 1 0 3 2 4 3 2 3 5 0 8-2 2-3 4-2 7 0 5 0 5-9 4zm-3-3-1-1-1 1 1 2 1-2zm7-11-1-10-1 10 1 10 1-10zm-7-3c-1-9-2-9-2 0l1 7 1-7zm117 11-4-10 1-7a534 534 0 0 0-5-69l3-1c2 0 3 2 4 12a4818 4818 0 0 0 5 24c2 2 2 4 1 13l1 23c2 11 2 14 5 14 2 1 3 4 1 5l-5 1c-3 1-4 0-7-5zm32 2c-5-2-6-3-4-9v-6c-1-1-2 0-2 3 0 4-2 6-3 4-2-3-1-43 0-44 3-3 6 1 5 5-1 3 0 3 1 3 4-1 7 8 4 11v29l1-6c1-8 3-17 6-17 2 0 2 3 0 11-1 5 1 5 6 0l5-4 3 3 4 8c0 4 1 4 1 2 1-5 3-6 6-3 5 5 2 12-4 9-2-1-5-1-8 1h-13c-3 2-4 2-8 0zm11-7v3-3zm11-1-1-3-1 4c0 2 0 3 1 2l1-3zm-183-3c-2-4-2-23 0-23 2-1 4 18 2 23l-1 3zm142-1-2-9a577 577 0 0 0-1-17c1 0 3 2 4 5l2 6v16l-3-1zm57-33c-7-4-7-10 0-10l6-1c2-2 3-2 4 1 2 2 2 3-2 7l-5 4-3-1zm29-11c-1 0-2-1-2-3l-1-8c-1-4 0-6 3-9 4-4 8-14 7-17-1-1-2-2-8-1-6 0-8 0-11-3-8-7-5-9 12-8 7 1 11 1 13 3s3 2 6 2c4-1 4-1 4 1 0 1-2 3-5 4-5 2-3 5 3 3 5 0 8 2 4 4-6 1-9 4-9 7 1 2-1 5-5 9-4 3-6 7-6 9l-2 4v3c2 1 1 2-3 0zm7-15c0-2 0-3-2-5s-2-2-2 0v5c-1 1-1 2 1 2l3-2zm-116 14v-2c1-1 2 0 2 1 0 2-1 3-2 1zm85-9c1-1 2-2 1-3l-4 1c-2 4-6 2-6-3s3-8 8-8c2 0 3 0 2-2s0-3 2-2c1 0 2 2 1 3l4 3c5 1 8 5 6 7-1 3-9 6-13 6-3 0-4 0-1-2zm-61-6-1-3c0-3 4-3 5 1 0 2-3 4-4 2zm19-5 1-2 1 2-1 1-1-1zm-32-4c0-3 3-5 5-3s0 5-2 5-3-1-3-2zm68-12-8-7-5-3c-7-4-13-6-16-5l-3-1c0-2-8-4-14-4l-7-1c-1-2-15-2-26 0-17 2-18 2-20 1-3-3 2-5 12-7l14-2c8-3 52 4 60 9 3 3 8 5 9 5 2 0 1-3-1-6-2-1-3-3-2-3l-1-3-1-3c1-1 9 7 9 9l2 3 5 10c4 9 4 10 2 11-4 3-5 2-9-3zm-97-2-3-4c-3-1-4-4-1-4 2 0 8 8 8 10s-3 1-4-2zm84-34c-2-2-6-5-8-5l-10-3-9-2c-4 0-9-4-8-7h14c3-2 4-2 7 1 1 1 5 3 9 3 7 1 9 3 8 6-1 2 0 3 3 3 2 0 3 0 3 3l-2 4c-3 1-2 1-7-3zm20-2c-2-1-3-4-3-5 0-2 1-3 3-3l32-5a1377 1377 0 0 0 18-2c2-2 7-3 7-1l-2 2-2 6c0 6-3 9-10 8-15-2-21-3-23-1-3 3-17 3-20 1zm-334-3-4-5c0-3 5-6 8-6 7 0 9 9 4 12-4 3-5 3-8-1zm184 0 2-2 2 2-2 2-2-2zm215 0c-3-3-1-6 3-6 2 0 2 1 2 4 0 4-3 5-5 2zm-179-4c-5-1-8-4-5-6 2-2 32 0 33 2v3l-28 1zm42-2c-1-2 2-4 4-3l2 2c0 3-4 3-6 1zm-276-1c-4-1-4-5-2-11l2-19c1-13 1-16 4-15v17l1 20c2 6-1 10-5 8zm-46-4c-4-2-9-12-9-16 0-5 2-7 7-7 3 0 4-1 4-2v-9l1-7-3 5c-2 4-4 6-6 6-4 1-4-2-1-5 1-1 2-3 1-5-1-4 2-5 6-3 3 1 3 1 4-5 0-4 1-6 3-5 2 0 2 0 1 26l1 18v6c-3 4-5 5-9 3zm76-2c-1-3 2-5 4-3l1 3c-1 2-4 2-5 0zm-58-6c-2-4-1-6 2-6 4 0 5-9 2-11l-3-4c-1-3-1-4 3-8l5-5 4 3 3 3-4 3c-4 3-4 3-1 6s3 5 0 9c-1 2-2 4-1 6 0 2 0 3-2 5-3 4-7 3-8-1zm360-2c-1-1-1-3 1-5s3-3 9-3l11-1 16-2 13-1 6 6c3 3 5 5 4 6-1 3-9 2-13-1s-19-4-22-1h-5l-5 1c-2 2-14 3-15 1zm-345-11 1-2c3 0 3 2 1 3-1 1-1 0-2-1zm-73-11c-3-3 0-8 8-12l9-4c2 0 8 9 7 11-1 4-7 4-8 1 0-2-2-3-3-3-2 0-3 2-1 3 3 2-2 6-6 6-2 0-5 0-6-2zm290 1c-10-2-11-2-11-5s0-3 6-2l32 1c20-1 27 0 28 1 2 3-2 4-18 5a599 599 0 0 0-37 0zm65-4c-2 0-3-1-2-2 0-3 9-4 10 0 0 2-4 3-8 2zm126-7-7-10c-2-5-5-7-14-7-5 1-9 0-14-2-6-4-8-6-6-9s8-2 18 0l14 3c8 2 12 4 14 10 1 2 3 6 5 7 6 6 5 12-2 12-2 0-5-1-8-4zm-38 2-10-3c-11-2-11-2-11-5 0-5 5-6 16-4 11 1 14 3 12 9-1 4-4 5-7 3zm-62-3c0-3 1-3 8-4 5 0 7 0 7 2 0 3-3 5-9 5s-7-1-6-3zm138 2-1-5-2-5-1-3c1-5 6 4 5 9l-1 4zm-57-5c-2-1-2-1 1-1l2 1c-1 2-1 2-3 0zm-439-2c-2-2-1-4 1-4l2 2c0 2-2 4-3 2zm-6-8c-1-4 0-6 3-6 4 0 5 4 2 7-4 3-4 3-5-1zm-68-6-9-5-1-2c0-1-1-2-3-2-2-1-3-5-1-6s2-5-1-4c-2 1-2 0 0-3v-6c-3-5-1-9 7-11 3-2 3-1 2 0 0 1 0 2 2 2l2-2 3-2c4 0 4 4 1 8-3 3-3 3-1 7l2 6 2 2c2 0 2-1 2-3 0-5 3-12 5-12s3 6 1 13l-2 12-1 8 2-5c2-4 2-4 4-2 2 3 2 4 3-15 0-17 1-20 4-17 1 1 2 4 2 9l2 11c3 6 2 9-3 11l-7 8c-3 7-7 7-17 0zm-3-29c0-3-2-5-4-3-1 2 0 6 2 6 1 0 2-1 2-3zm569 31c0-2 4-4 5-2 1 0-2 4-4 4l-1-2zm-484-6c-4-3-8-8-6-10l3-1c2 1 2-3-1-6-2-2-2-3 0-3s3-1 3-3c1-41 2-65 4-65v60c-1 11 0 15 1 14v-6l1-6c3 1 4 9 4 19 0 9-2 10-9 7zm-27-7 2-2c3 0 2 3 0 4l-2-2zm-25-14 1-6 1-16c1-12 2-18 5-16v20c-1 16-1 19-3 19l-4-1zm299 0c-10-1-14-2-16-4l-1-3c1-1 40 1 43 3 2 1 3 2 2 3-1 3-6 3-28 1zm-286-3c-2-2-1-41 0-43l4-3c3 0 3 1 3 10l1 21c1 10 0 11-2 14-3 3-5 3-6 1zm4-20c0-12-2-12-2-1 0 7 0 11 1 10l1-9zm234 21c-2-1-2-3 0-8 2-3 2-6 2-8-1-4 3-16 5-18 3-3 5 0 3 5l-1 11-3 12-4 7-2-1zm191-2c-9-4-18-6-29-6-6 0-9-1-10-2-1-2-2-2-6 0-3 2-9 3-16 4l-16 1c-12 1-21-2-17-6l9-2h17c4 0 5 0 5-2l3-1 13-1a142 142 0 0 1 57 6c4 1 7 7 5 10-2 2-7 2-15-1zm22-4c-3-6 2-11 7-5 3 2 3 3 0 5-3 3-5 3-7 0zm-470-13c-2-3-2-19 0-20 1-1 5 3 5 6 0 11-2 18-5 14zm-44-4c-4-15-5-23-1-28l1-12v-12l3-9-1-6c-1 1-2 3-2 7-1 9-5 8-5-1l-1-4c-2-1-2-7 0-12s4-3 3 3c-1 4 0 4 2 3 2 0 4-2 4-3 2-5 3 0 3 20l2 23c1 4 0 6-1 8-3 4-3 8 0 8 2 0 3 1 3 7 0 5-1 8-3 9-3 2-6 2-7-1zm318-1c-2-1-3-6-3-10l-2-9c-2-3-7-27-8-38l-3-12-3-14-4-19-2-19-2-21c-2-7-2-7-4-5l-4 2-1 26c1 21 1 25-1 26h-3l-1-31a247 247 0 0 0-3-49l-1-11c-2-2-1-6 1-6s3 3 3 7a2274 2274 0 0 0 2 10c1-1 2-6 1-13 0-11 0-13 2-13 1 0 2 3 3 10l3 11c2 2 5 12 7 21l1 5 11 1c6 0 10 1 11 2 0 2-6 3-15 3l-6-1 1 10c0 13 1 14 6 14 6 0 6 3 1 5-4 2-5 7-3 14 2 4 3 4 10 4 8 1 12 3 10 6-2 1-5 1-14-1h-3l3 7c4 10 6 18 7 29l2 10 2 7c0 5 0 7-2 8-3 3-2 5 1 6 3 0 4 2 6 8s2 7 0 9-2 3-1 6c1 7 1 8-1 8s-3-1-4-3zm0-23-1-1-1 2c1 2 2 2 2-1zm-12-57c-1-2-1-2-1 0 0 3 1 6 2 4l-1-4zm-291 77c-1-2-1-3 2-6 3-2 4-3 7-1 3 1 2 5-1 6l-2 2c0 2-4 1-6-1zm348 0-20-1c-9 1-12 0-8-4 1-2 6-3 33-3 26 0 32 1 32 2 2 3-3 6-9 5l-6 1c-4 2-10 2-22 0zm-348-20c-1-1 4-11 7-12 2-2 3-1 4 0 2 3 1 6-2 7l-5 4-4 1zm-51-3c-2-3-4-11-4-14l3-4c2 0 3-2 4-8 1-5 2-10 4-13 1-4 2-5 4-4 4 2 4 5 1 7-4 2-5 10-2 14 2 2 2 3 1 5v8c0 5 0 6-3 8-3 3-7 3-8 1zm7-14c0-2 0-2-1-1-2 3-2 4 0 4l1-3zm458 4a3403 3403 0 0 0-35-8c-1-5 10-5 34-1l19 2c8 0 13 6 7 9l-3 1-22-3zm-395-3c-2-2-1-4 1-4s3-1 3-4c1-5 4-8 4-3l2 5c3 5 2 7-4 7l-6-1zm299 0c-4-2-3-6 1-6l14 1c9 0 11 0 11 2s-1 3-6 3h-20zm-665-6c-2-4-2-4 2-8l8-4c4-1 5-1 6 2l2 7c0 2 0 2 3 0 1-1 3-2 4-1h1l-4-10-3-2-1-2c3 2 9-6 11-12 1-6 12-18 17-18 3 1 6 3 7 7 1 5 4 5 4 0 0-2 1-5 4-8l4-6 3-6c3-4 4-4 5-2 2 3 3 2 4-6 0-3 1-5 3-5s2 0 1 5l-1 11c-1 6-1 7 1 6 3 0 3-2 4-13 1-12 2-18 4-15v11c-1 10-1 13 1 11l1-12c0-8 1-11 2-11 1 1 2 3 1 5l1 10c2 6 1 7-2 12-3 4-4 6-6 5-3 0-8 4-8 7s-14 16-25 23l-14 12c-5 6-8 8-15 8l-14 1c-8 1-9 1-11-2zm12-6h-2c-1 1-1 1 1 1 1 0 2 0 1-1zm33-10-2-1-1 1 1 2 2-2zm-4-6 2-6c0-5 0-5-1-4-3 3-5 11-3 11l2-1zm16-8-2-4-1 2v4c-1 1-1 2 1 2 1 0 2-1 2-4zm8-4-2-2-1 2 1 1 2-1zm10-18-1-3-1 6c0 3 0 4 1 3l1-6zm766 52c0-2 2-3 4-1 1 1-1 4-3 4l-1-3zm-624 0c-11-2-14-6-11-10 3-3 7-2 8 2l3 4c1 0 3-7 2-15 0-12 0-17 2-16l1-2c0-3 4-6 5-4l3 19a110 110 0 0 0 3 23c-1 1-11 1-16-1zm73-2c-3-3-2-9 1-12 4-5 6-3 5 5s-3 11-6 7zm399-5c-5-2-7-5-5-6 2-2 16 5 16 7 0 3-5 3-11-1zm-24-4c-7-2-11-4-11-7s2-3 8 0l8 3 6 1c3 1 3 1 0 2-3 2-4 2-11 1zm-58-4c-2-3 0-18 3-19s6 9 4 15-4 7-7 4zm80-3c-13-4-22-9-22-11s0-2 10 1c5 1 11 3 13 5 4 2 6 2 17 2l18-2c3-1 6 0 8 1 3 3 2 4-9 6-14 3-23 2-35-2zm-484 2c-2-2-1-6 2-6s4 3 2 5-3 2-4 1zm592-4c0-1-2-2-9-3l-11 1c-2 1-12-8-12-12 0-2 3-2 5-1 2 2 24 2 28 0l4-2 2 8c0 6 0 7-2 7l-4 2c0 2 0 2-1 0zm-519-5c-1-8-1-15 1-15l3 3c1 6 2 13 1 14-1 4-4 2-5-2zm-296-7c-3-5-2-9 4-13s6-4 8-2c1 2 2 2 7-3l25-23c1 0 2 1 2 3l1 4c1 0 4-9 4-13l3-4c1-1 3-3 3-5s4-6 4-4v8c0 6 0 7 1 4l2-10c0-5 2-9 3-10 3-2 3 1 1 12-1 5-2 11-1 12 0 2 0 4-2 5-2 2-2 2-4-1s-2-2-2 4c0 3-4 7-10 9l-4 5c-3 5-8 9-12 9-3 0-5 1-6 3-2 4-10 9-12 9v-3c0-1 0-2-2-2l-2 2c0 2-4 7-7 7l-4-3zm56-36-1-1-1 1 1 2 1-2zm697 30c-4-3-1-5 7-6 12-2 17 1 14 6-2 2-18 2-21 0zm-59-4c-6-2-7-5-5-7 2-1 3-1 6 1l12 2c8 1 13 3 10 4-4 2-18 2-23 0zm-83-16a404 404 0 0 1 2-52c4 0 6 8 4 17l-1 22c0 12 0 14-2 14l-3-1zm142-1-18-1c-20-1-20-1-20-3l2-4h20a2027 2027 0 0 0 44 4c4 6-6 7-28 4zm-754-3-6-2-7-1c-2-2-2-2 0-6 2-5 9-10 12-9s10-6 11-11 10-14 13-13c2 0 3-1 3-2 0-2 1-3 2-3 1-1 2-2 1-5-1-5 4-11 6-9v5l-1 16c0 13-2 17-4 10-1-5-3-3-3 2 0 4-2 8-4 8v-7c0-5 0-6-1-1l-2 6v2c2 0 2 4-1 7l-3 3-6 6c-5 5-9 6-10 4zm1-9c2-3 3-5 0-5l-3 4c-2 3 0 4 3 1zm13-5-2-1-1 1 1 2 2-2zm1-14-1-1-2 2 2 1 1-2zm699 17c-5 0-7-2-3-4h7c6 1 7 2 6 4h-10zm-33-5c-13-2-12-8 2-6 9 1 11 2 10 5-1 2-2 2-12 1zm67 0c-2-1-1-5 1-6 6-2 13 1 9 4-2 2-9 3-10 2zm-634-10 1-1 1 1-2 2v-2zm642-4-9-2h-10l-5 1c0 2-8 0-10-2-2-1-2-2-1-4 2-2 27-4 33-2l10 3c5 1 6 2 5 4 0 4-6 5-13 2zm-45-8c-1-3 1-4 3-3 1 2 0 5-2 5l-1-2zm-20-4c0-2 1-2 3-2 4 1 5 5 0 5-2 0-3-1-3-3zm-756-8c-3-1-6-7-5-10s10-7 21-9c7-1 10-2 12-5 1-2 2-2 5-2 4 1 9-1 10-5l10-8c9-4 13-4 10 0-1 2-1 18 1 21s-3 9-7 9l-7 2-9 2-8 2c-3 1-4 1-6-4s-5-6-4-1c2 6-3 9-13 9-4 1-9 0-10-1zm48-8-1-2-2 1 2 1h1zm-21-10-2-2-1 2 1 2c1 0 2 0 2-2zm644 16a78 78 0 0 1 6-28l1-5c-1-1-5-20-5-26 0-4 1-4 3-4 2 1 3 0 3-4l2-10 1-10v-6c2-1 1-6-1-8-1-2-3-2-6-1-3 0-5 0-6-2-2-3-9-7-12-7-2 0-2 1-2 4 1 4-1 7-3 4-2-2-4-15-2-17h3c1 1 1 0 1-3l-3-5c-4-1-10-9-14-18l-4-10c0-1-1-3-4-5l-4-8c0-2-1-5-3-6l-3-3-1 3-1 7-2 7v6c1 2 0 41-1 43l-5-1c-2 0-4-2-6-5-3-5-2-7 2-6l5 1-1-11a582 582 0 0 0-2-36c1-1 1 0 2 1 1 5 3 4 3 0 0-5-3-10-7-10l-3-2-3-7-2-14c-1-9-1-10 1-11 2 0 3 0 4 2a425 425 0 0 1 40 0c31 0 37-1 34-3-2-2-35-4-57-4-6 0-8-1-8-3a668 668 0 0 0 71 1v7c-1 5-6 6-41 6l-33 1 2 6 1 10 1 4 1-2c-1-2 0-3 2-3l3 1c1 2 0 2 41 2 24 0 28 1 28 2 0 2-4 2-25 3-34 0-34 1-35 2l3 6 9 17c9 17 16 27 23 34 7 6 12 7 41 6 16-1 21-1 23 1s2 2 0 4c-2 3-3 3-11 2a1133 1133 0 0 0-48-5l-2-2c-4 0 3 5 10 7 10 3 13 7 16 19 2 7 3 8 6 8s3 0 3 4c-1 4 1 16 4 21v7c-5 9-8 6-9-9l-1-13c-2-6-4-3-4 5l-2 10c-3 3-4 19-3 29v13c-2 6-4 7-5 5-2-3-4 0-4 4 2 7-3 14-5 8zm17-77c0-1-1-2-2-1l-2 2c0 2 3 1 4-1zm-81-116c0-2-3-5-4-4s1 5 2 5l2-1zm184 195-6-2c-4 0-5-1-5-3l2-3c2-1 15 0 18 2 3 1 4 5 2 5l-11 1zm-69-7c-2-2-1-6 2-6l6-1c3-2 5-1 9 0 5 3 6 4 3 6-2 1-19 2-20 1zm128-7h-6c0-2-4-2-5 0h-1l-2-2-3-2c-1-1-4-2-9-2-10-1-13-6-5-10 4-3 24-1 28 2 3 2 3 6 1 8l-1 3c2 1 6-2 6-6l1-4 1 4c1 3 3 6 5 7l3 1-3 1c-7 2-7 2-10 0zm-898-3-3-4c0-5 13-8 17-5 3 2 3 2 0 5l-5 3-3 1c-1 2-3 2-6 0zm19-4c-2-3-2-7 1-10s6-2 8 1c3 7-5 13-9 9zm797-2c-3-3-3-5 0-8s7-3 6 0c-1 1 2 1 9 1 9 0 11 0 13 2 2 1 3 3 2 4 0 2-2 2-14 2l-16-1zm-15-5c-3-2-3-5 1-6 5-1 8 1 7 4 0 3-4 5-8 2zm-36-5c-9 0-10 0-10-3 0-2 0-2 12-2 10-1 10-1 10 3l-1 3-11-1zm130-3-5-4c-3-2-3-3-2-5 2-3 13-10 14-9 2 2 2 10 0 10l-3 5c-2 5-2 5-4 3zm2-9v-1l-2 1 1 1 1-1zm-941 1-3-2c-3 0-8-6-9-11 0-4 0-5 3-7 6-3 14 6 11 11l-2 5c0 2 2 2 3 0 1-1 2 0 4 1 2 2 2 3 0 4-3 3-5 2-7-1zm845 1-4-2 7-2c14-3 20-3 21-1 2 2 2 2 0 4l-8 2h-8c-3 1-6 0-8-1zm-17-2c-2-1-1-5 1-5l2 2c0 3-2 5-3 3zm-22-1v-2h3c1-1 2 0 2 1 0 2-4 3-5 1zm142-8-1-5v-4l3 5c3 6 2 9-2 4zm-132 0c-13 0-15-1-11-4 2-2 42-2 45 1 2 1 2 1-1 3l-11 1-22-1zm42-11-6-2c-1-4 4-6 13-6s12 2 9 7c-2 2-4 3-16 1zm-46-4c0-3 4-4 13-4l11-1c2 0 3 0 3 2 0 3-5 4-16 4l-11-1zm-797-6-3-4c0-5-11-13-18-13H2v-14l2 4c3 5 6 8 7 8v-2l2-1 5-5c3-5 6-6 7-2 0 3 1 3 6-1l9-5 4-3 5-4c4-3 5-3 6-1 2 1 2 3 1 8-1 7 0 8 3 3 1-3 1-3 3-2l1 12c0 10-1 11-3 11s-3-1-3-5c0-5-2-8-3-5l-1 5-2 6c-1 2-3 3-6 2-2-1-4 0-7 3-6 6-8 7-11 5zm21-11-1-2-1 2 1 1 1-1zm-6-3c0-1-1-1-1 1l1 1v-2zm7-4c-1-1-1-1-1 1 0 1 0 2 1 1v-2zm848 11c-2-2-2-8 1-13 1-3 2-1 3 7 0 8-1 10-4 6zm-39-2-24-2c-23-1-27-1-24-5 3-2 12-2 37 0 19 1 20 2 20 4s-1 3-4 3h-5zm-102-3c-2-1-2-10 0-13 2-2 4 0 5 7v7c-2 1-3 1-5-1zm106-11-17-1-17-1v-3c1-2 6-2 27-1 13 1 13 1 13 4 0 2-1 3-2 3l-4-1zm-63-4c0-3 3-4 12-3 6 0 8 1 7 3 0 1-2 2-10 2-6 0-9-1-9-2zm51-11c-2-2 2-5 8-7 5-1 7 1 7 5 0 3 0 3-6 3l-9-1zM1 709l-1-12c0-9 0-10 2-10s3 2 4 9c1 10-2 16-5 13zm894-12v-28c1-1 2 0 4 1 2 2 2 3 1 5l-2 12c0 6-1 10-2 10h-1zm-54-4a2022 2022 0 0 1-78-7l32-1a1686 1686 0 0 0 85 1c7 3 0 9-11 8l-28-1zm-33-16-32-1c-15 0-19-1-14-3a441 441 0 0 1 78 3c-2 2-12 3-32 1zm-60-12-1-3c3-2 44 0 45 2l-18 1-21 1c-2 1-4 0-5-1zm48 0c0-2 4-3 9-3 6 2 4 5-3 5-4 0-6-1-6-2zm95-3 1-2c2-1 2-1 0-3v-3c1-2 2-1 4 1 4 6 4 8 0 8l-5-1zm-90-5c-11-1-16-2-16-3 0-3 8-4 25-4 13 1 16 1 18 3s2 2-1 4c-2 2-3 2-26 0zm-49-2-3-2c0-3 2-3 19-2 13 0 18 1 15 3-2 1-24 2-31 1zm53-11c0-1 0-3 2-4 3-3 3-2 0 3-1 2-1 2-2 1zm9-4c-1-5-1-9 1-10 4-2 5 1 4 7-2 6-4 7-5 3zM5 639l3-8c2-3 2-3 4-1 2 3 2 5-1 6l-5 3c-2 3-2 3-1 0zm859-7-1-1-1-1v-1l3-1c2-2 5 2 4 4s-5 2-5 0zm-70-3-10-2-9-2c-3-1-1-3 3-3l10-1c8-2 11 0 11 5s-1 5-5 3zm-48-3-21-1-4-1c-1-2 0-3 4-3h5l19 1 19 2c2 0-1 4-2 4l-20-2zm80-8v-7l6 1 6 1c1 1-3 7-5 8-8 4-8 4-7-3zm34 5-1-3 1-3c2 0 3 4 2 6h-2zm-63-17 2-2 1 1-1 2c-1 1-2 0-2-1zm-774-4-3-4 3-3c4-3 4-3 7-1 4 3 6 6 4 8-3 4-8 4-11 0zm44 1-3-4c0-2 8-10 10-10 4 0 9 4 10 7 2 5 1 6-5 7l-7 2c-2 0-3 0-5-2zm10-6-1-1-1 1 1 2 1-2zm31-3c0-5-1-8-3-4-1 1-2 2-3 1-2 0-2-2-2-6 1-4 1-5-2-7l-3-1 4-4c3-3 5-4 8-3l6-1c2-2 3 14 1 16l-1 8c0 5-1 6-3 6-1 0-2-1-2-5zm0-13c-1-1-1-1-1 2 0 2 0 3 1 1 2-1 2-2 0-3zm-87 6c1-4 1-5 2-2v5c-1 2-2 2-2-3zm688 2c-1-1 0-3 1-3l23-1a620 620 0 0 0 29 1c0 3 0 3-31 4-18 1-21 1-22-1zm-614-3 2-2 1 2-2 2-1-2zm-67-4c-2-3 0-7 4-8s9 4 7 7-9 4-11 1zm-5-3c0-5 5-21 9-31 4-8 10-15 13-15l2-1c0-1 2-1 5 1 4 2 5 3 5 7v8l-1-2c0-3-4-2-5 1l-2 4-1 1h3c4-2 5-2 6 3l2 4 1-4c2-5 4-6 9-3 8 4 9 6 8 13-1 4-1 6 1 5l1-5c0-7 3-8 9-2 6 5 6 7 3 11-4 5-8 5-11 2s-4-3-5 1c-2 4-4 4-12-2l-8-6c-1 0-2 0-3-2l-4-2-6-3c-5-3-7-4-7-2l-2 1c-1-1-2 1 0 2 2 2 1 5-2 7l-6 7c-2 5-2 5-2 2zm35-15-2-1-1 3h2l1-2zm-17-18c0-2 0-2-2 0l-3 4c0 2 0 2 3 0l2-4zm3-5-1-2-2 2 2 2 1-2zm710 38-27-1h-25l1-3c1-1 6-2 21-2l21-1c2-1 7 0 11 3s3 5-2 4zm-52-12c-1-2 3-3 17-3 10-1 12 0 12 1 0 2-2 2-14 3l-15-1zm-592-11 1-1c1 1 2-1 3-6 1-6 2-7 4-7l5 4c2 3 2 4-3 7-5 4-9 5-10 3zm607 0c-11 0-20-1-19-2 3-1 42-3 45-2 3 2 2 5-3 5l-23-1zm-615-8c-3-4-3-4-10-3-6 0-7 0-7-2 0-3-2-5-3-3 0 1-3 1-8-1-9-3-12-7-13-15 0-5 4-8 12-8 5 0 6 1 8 5 2 2 3 6 3 8 0 3 3 4 5 1l3-2c2 0 5 4 5 8 0 3 0 3 3 1 3-3 5-2 5 2 0 2 1 2 3 2 3 0 3 0 3 5s0 5-3 6c-2 0-3-1-6-4zm597-2c0-2 10-3 31-4 15 0 17 0 18 2 0 2-3 2-25 3l-24-1zm-579-16c-1-4-1-6 1-8 3-5 5-2 4 6 0 6-1 7-2 8-2 0-3-1-3-6zm9 2c0-6 2-11 4-10s2 6 0 10c-2 5-4 5-4 0zm550-5c0-2 6-3 22-3l23 1c6 0 8-1 4-3l-25-2-23-1c-5-4 49-1 59 3 11 5 7 6-28 6l-32-1zm-568-2c-2-2-2-4 0-5 3-1 5 0 5 4 0 3-2 4-5 1zm-17-6c-5-2-9-5-9-7s6-7 9-7l9-2c5-3 5-3 7-1 2 1 3 4 3 6-1 3-1 3-4 3-2 0-3 1-4 4-1 5-5 6-11 4zm6-10c-2-2-4 0-3 2h2l1-2zm649 8a523 523 0 0 0-51-4l2-2c2-1 2-2-1-2l-4 2c-2 3-24 3-22 1l3-1 5-2c2-2 7-3 23-2 9 0 11 0 11 2s1 3 11 3c11 1 26 1 34-1 4 0 6 0 7 2 3 6-1 7-18 4zm-42-6-2-2c-2 0-2 1-2 2l2 1 2-1zm-17-1h-2c-1 0-1 1 1 1l1-1zm-574-2 1-6 2-5c2-5 6-2 7 4 1 7 0 8-6 9-5 1-5 1-4-2zm609 2c-9-1-5-3 8-4 14 0 20 1 13 3-3 2-9 2-21 1zm26-3 3-2 3 2-3 1-3-1zm6-3-18-1c-23 1-22-2 2-3l19-1-1 4c-1 2-1 2-2 1zm-64-9-7-1-6-2 31-1c31 1 38 2 37 3-2 2-51 2-55 1zm55-6c-10-1-12-2-10-3h29c2 1-2 5-5 5l-14-2zm38 1c-1-2 2-4 3-3 2 1 1 4-1 4l-2-1zm-691-2c-4-2-5-5-3-8 3-5 7-5 12-2 3 2 4 3 2 4l-2 3-3 3c-3 2-2 2-6 0zm26 0c-6-3-10-6-12-10-2-3-2-3 1-4 8-3 10-3 13 0l7 5c2 1 3 2 3 4 0 7-3 8-12 5zm566-1c-7-1-5-3 2-3s11 2 8 3l-4 1-6-1zm17 0c0-2 8-3 17-2 13 1 10 3-4 3l-13-1zm-643-4-3-6c1-1 13-1 17 1 3 2 2 5-3 7-5 3-6 2-11-2zm709 3c-3-3 3-7 9-7 3 0 5 4 2 6s-9 2-11 1zm-633-4c-1-2 0-10 2-14v-4c-1-1-1-2 2-4l5-3 4-2h4c3 2 2 6-1 8-2 1-3 1-5-1l-3-2-4 19c0 5-3 7-4 3zm8-4c-1-4 1-9 4-8 1 1 2 2 1 5-1 6-3 7-5 3zm11 2c-2-3-1-9 1-9s4 8 2 9h-3zm518 0c-6 0-4-2 3-3 8-1 8-4 0-4a992 992 0 0 1 82-1c0 2-14 2-37 2-27 0-36 0-36 2-1 1 2 1 10 2 19 0 25 0 27 2 1 1-5 1-22 1l-27-1zm53 0c1-1 20-3 24-2 6 2 0 3-12 3l-12-1zm-564-1c-1-2 1-4 2-4l2 2c0 3-2 4-4 2zm8 0v-12c2-2 4 2 4 6 0 5-2 8-4 6zm1006-4c-2-2-1-3 4-6l6-4 8-4c2 0 4-1 6-4 5-4 8-5 10-1 2 5 0 8-9 12l-9 5c-2 2-15 3-16 2zm-1053-7c2-4 7-3 6 1l-4 2c-3 0-3-1-2-3zm592-2c-4-1-7-1-6-2 0-1 10-2 27-2 24 0 28 0 28 2s-4 2-21 2h-28zm-42-2c-6 0-9-1-9-2 0-2 2-2 11-2 15 0 28 2 28 3-1 2-12 2-30 1zm-511-5c0-3 4-12 6-13l3-2 3-1c3 0 3 2 3 7l-1 8c-1 2-14 3-14 1zm547-2c-12-1-14-2-14-3 1-2 0-3-3-3-4 0-6-1-4-3l31-1h31c4-2 14 0 14 2s-5 2-32 2l-32 1c-1 1 4 1 17 2 39 0 40 0 40 2s-3 2-17 2l-31-1zm-28-2c-1-2 2-3 6-2 6 1 6 3 0 3l-6-1zm89-5 2-3c2-2 4 0 2 2-1 2-3 2-4 1zm-656-3-7-4h-3c-5 6-7 0-3-10l2-5 9 1 18 1c8 0 9 1 12 4 5 4 4 9-2 9-2 0-4 0-3 1l2 1h-12c-1-1-3 0-4 1l-3 2-6-1zm6-14-2-1c-2 0-2 0 0 1 2 2 2 2 2 0zm29 12 1-4 1-5c-1-3 5-3 7-1l4 2c4 0 3 3-2 5-7 3-10 4-11 3zm614-1-26-1c-48 0-58 0-58-2s2-3 19-2h20c1-2-4-2-32-2l-9-1c1-4 62-2 63 1 1 2 14 2 14 0l1 1c1 2 3 2 8 1s6 0 5 2c0 4-2 5-5 3zm-35-5c0-1 0-2-2-2s-2 1-2 2l2 1 2-1zm409 6c-3-1-2-6 0-6s2-1 1-6c-2-3-2-4-4-2-2 1-2 1-4-1-2-3-2-8 0-9l1-4c-1-4 2-6 5-4 2 1 2 5 0 7s0 5 3 6c2 0 3 1 4 3l-1 3c-2 0-2 4 1 7v4c-2 2-3 3-6 2zm19-2c-2-2-1-6 2-6 2 0 4 4 3 6h-5zm8-2c0-6 4-8 8-5 2 1 2 2 0 4-3 3-8 4-8 1zm-992-4h2l1 1-1 1-2-2zm-9-5-2-3c-3 0-2-3 1-3 1-1 2 0 2 1s1 2 3 2c3 0 3 3 0 4-2 2-3 2-4-1zm592 2c-9-1-11-1-10-3 0-2 2-2 12-3l15-2c5-1 9 2 8 6 0 2-5 3-25 2zm433-1c0-3 4-5 6-3v3c-1 2-6 2-6 0zm-458-1-29-1c-22-1-29-1-30-3l8-1c6 0 8-1 8-2l-6-2c-8 0-15-2-15-4l18-1h64c13 0 18 1 18 5l-39 1-38 1c-2 1 2 2 25 2 23 1 28 2 26 5-1 2-8 2-10 0zm423-3c-3-3-3-4 1-8 4-5 10-8 14-7 3 1 7 6 7 10 0 3-7 7-9 5h-13zm14-6c0-1-1-2-2-1l-3 2c0 1 0 2 2 1l3-2zm-964 1v-7c0-9 0-9 1-8l2 8c0 5-1 8-2 8l-1-1zm-53-2c-2-1-2-2 0-4s8-1 8 3c0 3-6 4-8 1zm-34-6c-2-1-4-4-4-6s0-3-2-3c-3 0-2-4 1-6l7-9c3-3 5-6 6-5l3 1c2 0 3 1 3 5v5l2-4c3-2 4-3 6-2h4c2 0 4 3 3 5-3 4-7 4-16 2-7-1-9-2-11 0-3 2-2 6 1 4h8c2 0 3 1 3 2l2 2c3 1 5 7 3 10-2 4-15 4-19-1zm107 2c-1-3 1-6 3-5v7l-3-2zm924-3c-2-1-2-2 0-2l3 2h-3zm32-4c0-2-1-3-3-4-4-1-6-4-6-7 0-4 3-5 8-1l6 2c5 0 6 8 2 11-4 2-7 2-7-1zm-37 0c-1-3-2-9 0-10s11 1 12 3c2 2 2 1 3-1 1-3 3-4 3-1 0 5-6 9-12 9h-6zm-995-2c-1-2 4-6 7-6 2 0 2 1 2 3s-1 3-4 4l-5-1zm434-2c-2-3-3-3-17-3-9 0-16-1-16-2l4-1 6-1h6c4 2 12 2 14-1 1-2 6-2 9 0l1 5c0 6-4 7-7 3zm-392-7c-2-3-5-4-7-4l-4-2-3-1c-3 1-4-3-2-6 1-2 2-2 6 0l4 5h2c3-2 7 0 8 5 0 2 2 3 3 3l2 2c0 4-6 2-9-2zm345 3 2-2 4-2c3-2 6-1 6 1 0 1-2 2-9 4l-3-1zm656-5-2-3-4-5c-2-3-4-5-3-6 1-3 4-4 7-3 4 2 6 2 5 0v-4l2-5c2-8 9-2 7 6-1 10-2 14-4 16-3 5-6 6-8 4zm-52-2c-1-3 4-5 13-5 7 0 10 0 10 2 1 3 0 4-12 4-8 1-11 1-11-1zm31-4-2-3c0-3 3-3 4 0l4 2 3 1c0 2-6 2-9 0zm-660-6c-5-10-5-26-1-26l3-1-3-1c-3 1-3 1-1-1 3-3 51-5 51-2l-12 1c-16 0-30 2-28 3l18 1c25 0 54 2 53 3-2 1-9 2-46 1l-33-1v4l2 9c3 9 1 18-3 10zm-382 0c-3-1-3-4 0-10 3-5 9-6 12-1 1 5 0 8-4 8s-3 3 1 4c3 1 3 1-1 1l-8-2zm392-3a380 380 0 0 1 63 0c2 1-8 1-30 1l-33-1zm168-1c-9-2-7-4 2-4 8 0 9 0 9 2 0 3-1 3-11 2zm460-1c-2-1-2-1-1-3 2-2 4-3 14-3 12 0 16 2 12 6-2 2-3 2-10 0h-15zm-498-1c-9-1-3-3 10-2 7 0 11 1 12 2 0 2-12 2-22 0zm456 0 1-3c2-3 2-3 2 1 0 3-1 5-3 2zm-589-2c-3-3 4-3 27-3a1513 1513 0 0 0-28 3zm-327-2c-1-3 1-8 2-8 2 0 3 3 2 6-1 4-3 4-4 2zm-18-3v-5c1-3 2-3 6-3 6-1 6-1 8-7 2-5 4-6 5-1 1 3 0 4-2 7l-4 6c0 4-3 5-5 2l-2-3-2 3c-2 3-3 4-4 1zm281 1-1-7-1-15-2-15c0-3-2-10-5-15-4-9-4-12-1-17 2-3 5-2 4 1h4c3 1 4 0 4-4 0-6 3-5 3 1 0 14-2 39-3 40l2 10c1 10 1 20-2 21h-2zm-294-2-3-3-2-4c-2-2-2-3 1-6s4-3 4-1l1 2 1-1c-2-3 3-2 5 1 2 2 3 10 2 11-2 2-6 2-9 1zm326-2c-2-2-1-19 0-20 2-1 3 0 4 7 1 10-1 16-4 13zm692-1-16-1c-13 0-16 0-17-2v-3c1-1 26-2 35-1 10 1 12 1 12 4 0 2-1 2-4 2-2-1-3 0-4 1 0 2-5 2-6 0zm-68-2-2-3c-3-2 0-5 4-3 3 0 3 1 2 4-2 5-4 6-4 2zm14-7c-2-2-2-5 0-7l31-2a1041 1041 0 0 0 49 1l-1 3-37 2a496 496 0 0 0-38 3c1 2-2 2-4 0zm-555-4-6-1c1-2 28 0 29 1h-23zm-185-5 2-1c2 1 1 3-1 3l-1-2zm27-3c-2-6-2-13-1-16 4-7 9 0 8 10l-1 8c0 2-5 1-6-2zm98-1c0-2 7-3 15-2l36 1c34 1 33 0 33 2l-42 1c-31 0-42-1-42-2zm-9-1-2-6c0-4-3-12-5-12s-2 5 0 11v7c-3 3-5-3-5-11 0-6-1-9-4-12-1-3-4-8-4-12-2-8-7-29-11-39-2-8-2-9 2-10 2-1 3-3 2-4 0-2 2-2 22-1 13 0 23 1 24 2s-2 1-6 1l-9 1-10 1c-8 1-9 0-9-1v-2l-1 2c0 1-2 2-6 2-6 0-6 0-6 2a1000 1000 0 0 1 91 6l-82-2c-5 0-5 0-5 3 0 4 2 16 4 20 1 2 3 2 14 2h18c5 1 3 2-11 3-14 0-17 1-17 3l2 1 6 2c3 2 11 2 42 2 25 0 39 1 40 2s1 1-36 2c-41 0-48 0-48 2 0 1 42 3 90 3 36 1 46 1 46 3a983 983 0 0 1-138-6c-3-3-3-3-3 0l3 7c3 4 4 5 10 5a1532 1532 0 0 0 134 3c7 3-4 3-46 3-84-2-83-2-83 0s3 3 13 3c7 0 13 1 13 2l-13 2c-14 1-13 0-12 8 1 5 0 5-4 2zm604 1c-5-2-4-6 2-8l51-1c46 0 52-1 54-4l1 4c0 3-1 4-2 4h-3l-30 1a292 292 0 0 0-48 1c-13 0-16 0-17 2-2 2-4 2-8 1zm-566-11-1-2a691 691 0 0 1 65 2h-64zm656-3c-1-1-22-4-34-4l-14-2c-3-3 3-3 19-2l28 1c11 0 14 2 13 5-1 2-3 2-6 2h-6zm-96-4c0-4 2-6 4-5h20c15 0 18 0 17 2 0 1-3 2-35 5-5 1-6 0-6-2zm-888-8c-5-5-1-10 5-7 4 1 5 2 4 4 0 3-7 5-9 3zm204 0 2-1 1 1-1 2-2-2zm-4-2c-1-2-1-30 1-32l1-8 2-10c2-4 1-5 0-8-2-3-2-3-1-5 2-1 3 0 5 2 3 2 3 2 2 8l-3 11-1 8c-1 1-2 7-1 12 0 7 0 9 3 9 3 1 5 3 3 5h-2c-2-3-3-2-3 2 0 5-4 9-6 6zm690-1 1-3a523 523 0 0 1 104-1c2 2-1 5-6 4a530 530 0 0 0-99 0zm-510-8-13-1c-5-2 7-3 32-4h31c5 0 6 0 6 2 0 3-1 3-22 3h-34zm-433-5c-2-3 1-8 5-10 6-1 11 6 7 10-3 2-10 2-12 0zm413-4c0-3-1-3-6-3-8 1-24-1-24-2l14-1 16-2h4c0 1 12 2 32 2l33 1c1 2-2 2-31 2-35 1-34 0-35 3-1 4-2 4-3 0zm640-1c-1-1 0-4 1-6 1-3 2-4 1-6v-3h4c1 1 1 13-1 15s-4 2-5 0zm-16-1a567 567 0 0 0-89-4c-8 1-11 0-7-3 2-2 10-2 44-2 45 0 56 1 58 5 2 3 0 5-6 4zm-760-4c-3-4-3-8 0-9 1-1 7 8 7 11s-4 2-7-2zm90 1c-1-2 5-3 10-2 3 1 4 1 3 2-3 2-12 2-13 0zm-80-5c-1-2-1-4 1-8l3-7c0-2 1-4 4-7 4-4 4-5 0-11l-1-6c1-4 3-5 6-2l13 1c7 0 11 0 10 1l-10 1c-12 0-13 2-8 9 3 5 3 9 0 4l-3-2c-4 6-8 16-9 22-2 7-4 9-6 5zm207-1c-1-2-35-3-93-4-64-1-59 0-58-2h157c0 2-5 7-6 6zm-457-7c-2-2-2-3 0-5s2-2 5 0c1 1 3 3 3 5s0 2-3 2l-5-2zm292 1h5l-3 1c-3 0-4 0-2-1zm708-3-8-1c-5-1-7-1-7-3 0-1 2-2 12-2l13 1c0 4-7 7-10 5zm-712-2c-2-2 0-3 4-3h15c12-2 35 0 29 2l-10 1a739 739 0 0 0-38 0zm99 0h-26l-14-1a602 602 0 0 1 78 0l-38 1zm519 0 1-2 54-3c19 1 18 0 18 3a2167 2167 0 0 0-73 2zm-502-9c-2-2 1-3 14-2 8 0 12 1 12 2 0 2-24 2-26 0zm554 0-51-1c-47 0-51 0-52-3 0-2 1-2 10-2a2531 2531 0 0 1 144 4c0 2-4 2-25 2h-26zm-564-5a276 276 0 0 1-45-4l-12-1c-1-1 11-1 27-1 25 0 27 0 27 2s0 2 1 0h8c2-2 7-2 26-2 24 1 29 2 25 5-2 2-16 2-57 1zm-345-2-2-5-2-2c-2-1-4-8-2-9l2 2 3 2c2 0 3 3 3 7 0 3 0 3 5 0 3-2 3-2 4 0 1 4 0 7-5 7-3 0-4 0-6-2zm414 1c-6 0-8-1-8-2 1-2 20-4 24-3s5 5 2 5h-18zm-483-3 2-2 2 2-2 2-2-2zm953-5c-1-2 2-4 7-3l11-2c6-1 9-2 15 0l23 2c11 1 15 2 15 3 0 2-70 3-71 0zm-922 0c-2-2-2-9 0-10 1-1 2 0 3 1h1c2-4 3 0 2 4-2 6-3 7-6 5zm25-1c0-2 1-3 2-2l1 2-1 2-2-2zm192 1c-1-1 1-3 3-2 1 1 1 3-1 3l-2-1zm163-2c-5 0-8-1-8-2h23l27-1c9-1 5-3-8-3-63 0-156-2-163-3-5-1-6-2-7-5-2-6 0-8 8-7l7-1 8-1c5 0 6 0 6 2 0 1 2 2 7 2 7-1 7-1 2-1-3-1-5-2-4-3a1803 1803 0 0 1 138 3 4248 4248 0 0 0-108 0c-9-1-5 2 5 3l51 1c43 0 52 0 52 2l-32 1h-33c-1 2 8 3 44 4a3203 3203 0 0 1 41-1l-7-1c-6 0-8-1-7-2l31-1c31 0 35 1 33 6-1 3-4 3-15 0s-15-3-15 0c1 2 2 3 8 3l8 3c0 2-4 2-38 2a838 838 0 0 0-54 0zm71-5 1-3c2-2-1-3-8-3-6 0-7 1-4 3 1 2 1 2-2 2l-3 1c0 1 3 2 8 1l8-1zm-104-7c0-2-14-3-58-4-38-1-39-1-38 2 0 2 2 2 26 3 42 1 70 1 70-1zm-48-7-6-2c-3 0-5 1-4 2l5 1 5-1zm582 20h-20l-18-2 17-3c16-1 21-2 15-4a426 426 0 0 0-75 4c-2-1-4-2-9-1-7 2-36 1-38-1-1-1-1-2 1-4s4-3 18-3c9 1 17 0 19-1h9c2 1 9 2 15 1l48 1c32 1 34 1 34 3 0 1-3 2-8 2l-10 1c-1 2 8 3 10 2 3-1 20 1 20 3 0 1-2 2-11 1l-12 1c-1 1-4 2-5 0zm-571-1c-2 0-3-1-3-2 0-2 54-1 58 0 1 1-4 1-14 1a740 740 0 0 0-41 1zm180 0 1-5c3-6 7-4 6 2-1 4-5 5-7 3zm-207-2 11-1 11 1-11 1-11-1zm-324-1c-1-2 2-5 4-4 1 1 2 2 1 3 0 2-3 3-5 1zm32-2-7-3c-4 0-5-1-5-3-1-4 2-5 10-3 6 2 8 6 6 10-1 2-1 2-4-1zm203 1v-6c1-3 2-5 5-5 2 0 2 0 2 4-2 8-3 9-4 9-2 0-3-1-3-2zm707-3c-3-2 4-4 19-5 14-1 16-1 17-3 1-6 0-6-31-5a7098 7098 0 0 1-102 4c-1 2-2 2-4 0l-1-4c1-2 1-2 2-1 1 2 2 2 3 0 2-2 5-3 48-3a4663 4663 0 0 0 112 0c17-2 33 0 33 2s-4 2-29 2h-29v5c-1 5-1 6-8 7-8 2-27 2-30 1zm-167-1 1-3 2 1-1 2h-2zm257-1-26-1c-22 1-29 0-22-2a162 162 0 0 1 55 0c1 4-1 5-7 3zm-767-1 1-4c1-1 2-1 2 1v3h-3zm-291-10c-4-4-4-8-2-12 4-6 9-3 11 7v7c-1 2-6 2-9-2zm34 1c-1-3 3-6 6-5l2 4c0 3-1 3-4 3l-4-2zm210-4c-1-2 0-10 2-14 2-3 5-1 5 4 0 7-5 14-7 10zm59-5c-3-4-3-6-6-30-1-10 1-11 10-10l6 2-4 1c-10 2-4 3 27 2 34 0 45 0 44 3l-12 1-12 1c0 1 19 2 41 2a517 517 0 0 1-60 1c0-1 1-2 4-2 14-3-10-4-30-1h-5v8l2 10 2 5c0 2 1 2 6 2 4 0 6 0 6-2 0-3 14-2 17 1 2 2 4 3 8 3 8 0 12-3 4-3-6 0-6 0-2-1 6-2 39-2 39 0l-6 1-5 1c0 1 5 2 11 2l10-2-4-1-4-1c0-1 2-2 6-2l8-1c1-1-25-3-50-2l-22-1c-1-1-7-1 77-2a740 740 0 0 1 64 2 22956 22956 0 0 1-56 2h-4l5 1h10l9 1c2 1 2 2-2 2-22 0-27 1-29 4s-3 3-47 2c-41 0-45 0-48 2-3 3-4 3-8-1zm31-6-3-1v2c2 2 5 1 3-1zm30 1-3-1-3 1 2 2 4-2zm10 0-4-1-4 1 4 2 4-2zm141 6-52-1c-35 0-51-1-52-2l6-1h8a9453 9453 0 0 1 106-1c2-2-5-2-39-2-35 0-43 0-42-2s82-2 87-1c6 1 6 3 0 3-5 0-6 2-3 4 3 1-5 4-12 4l-7-1zm342-2h-6l-8-1c-2-1-2-2 1-3 2-2 5-2 19-2h17l-2-2c-2 0-3-1-3-2 0-2 6-3 15-3a698 698 0 0 0 52 1c0 2-6 3-16 3l-9 1c-1 2 2 2 17 2 10 0 15 1 12 4-2 1-45 1-45-1l1-2 5-1c3 0 5-1 5-2h-6l-14 1c-8-1-8-1-7 2s0 4-6 4h-6c-1-1-10 0-11 2-1 1-4 1-5-1zm156-1h-30c-27 0-33-1-30-4a2519 2519 0 0 1 101 1c5 0 7 0 7 2 1 2-1 2-23 2l-25-1zm-975-3-4-1c-2 0-3-1-3-3l-1-2c-1 0-2 1-2 3l-1 3c-5 0-12-3-14-5-3-3-3-3 1-6s4-3 7-1l5 1 3 1c0 2 1 2 4 0l5-2c2 0 4 6 4 11 0 3-2 4-4 1zm789 1c-1-1 1-8 2-10l1 5c0 5-1 7-3 5zm-264-5-10-2a69518 69518 0 0 0-44-3l13-1c18 0 31 0 30-1l-19-1c-16-1-20-1-18-3l32-2c13 0 19 0 18-1l-7-1c-4 1-6 0-7-1-3-3-6-3-7-1 0 2-1 1-4-1-2-2-3-2-7 0-5 3-5 3-24 3l-11 2 5 1 4 2-34 1-34-1c0-2 11-3 27-2h20c2-1 1-2-7-2-6-1-11-1-10-2a248 248 0 0 0 42-3c-5-1-9-2-7-4a1273 1273 0 0 1 89 1c1-2-5-3-21-4-28-1-34-2-36-4-1-2-2-3-4-3-3 0-3 2-1 3 5 2-2 3-20 2l-67 1c-3 2 4 3 18 3 9 0 16 1 16 2 2 2-6 3-19 2-16-1-16-1-20-3-2-2-3-2-4-1-2 3-50 3-53 0l7-1c11 0 9-2-3-3-6 0-10-1-10-2h22c14 0 18 0 16-1-4-2-60-4-58-2l6 1c3 0 5 1 5 2s-39 0-50-2c-10-2-13-4-10-6s7-2 10 0c2 2 3 2 5 0 4-2 21-3 23-1l3-1h2l110 2c59-1 92 0 99 1 2 0 1 4-1 4l-2 1c0 1 40 4 41 3l2-7c0-5 1-6 3-6l3 2c1 2 2 3 3 2l4 1c1 2 3 2 4-2s4-4 10 1l6 5-3 3c-5 5-4 9 1 10 3 0 4 1 4 4 0 2-1 4-3 4-2 1-2 3-2 5 1 4-2 6-6 4-2-2-3-2-5-1-2 2-11 0-14-3-2-2-2-2-5 0-2 2-5 3-5 1l-4-5c-1-2-3-4-2-5s-2-1-6-1a129 129 0 0 1-14 0c2 0 4 2 4 3s1 2 5 1c4 0 6 1 7 2l-1 2c-3 1-1 3 2 2 3 0 4 2 1 5-1 3-3 3-11 3l-12-1zm15-1c1-1 0-1-2-1s-3 0-1 1c2 2 2 2 3 0zm-15-7-2-1-2 1 2 2 2-2zm13 0-4-1-2 1s1 2 3 2 3-1 3-2zm-50-11h-6c-5 0-5 0-2 1s8 0 8-1zm-107-7h-3c-1 1-1 1 1 1l2-1zm9 0h-3c-1 1 0 1 1 1l2-1zm16-6c1-1-1-1-14-1-9 0-12 2-7 3 4 1 19 0 21-2zm34 0c3-1 2-1-1-1h-30a209 209 0 0 0 31 1zm-127-1c-1-2-20-3-20-1l9 1 10 1 1-1zm291 33c-1-1-2-3-1-4 0-2 3-2 14-2s13-1 13-2c0-2-1-2-12-1-13 1-15-1-10-6 2-2 3-3 4-2l30 1c25-1 28-1 28 1 0 3-4 6-9 6l-14-1c-11-2-14-2-13 2 0 2 2 2 5 1 6-1 9 0 9 4s-6 5-24 5c-12 0-18-1-20-2zm68-1v-11c2-4 4-5 8-5 5 0 5 6 0 9-3 2-4 4-4 5 0 3-3 4-4 2zm-220-2-3-2c0-2 14-2 15 0v1l-12 1zm459-2c0-2 4-2 25-2l25-2-3-1a1557 1557 0 0 1-71-6 573 573 0 0 0 60 0c30 2 36 2 38 4s1 2-2 2l-3 1 13 2c12 0 16 1 14 3a1011 1011 0 0 1-96-1zm60-3h-4 4zm42 4c0-2 1-2 4-2l4-1c0-2-14-3-24-3-5 0-7-1-6-2 0-2 30-3 35-1 6 3 2 9-7 10l-6-1zm-293-2h-5c-2 1-2 1-3-1 0-1-2-2-5-2s-5-1-5-2c-2-4 2-6 12-6 23 0 23 0 20 6-1 1-2 2-4 1-3-1-9 1-8 3l3 1 2 1c-1 2-3 2-7-1zm34-1c-4-2-5-5-2-7a726 726 0 0 1 105 1h12l1 3-49 1a557 557 0 0 0-67 2zm-547-4v-6l3-16c1-14 2-17 6-17 2 0 2 0 2 3l-2 14c-2 15-4 24-7 24l-2-2zm70 1c-4 0-7-1-7-2h47a17321 17321 0 0 0 56 2h-96zm103 0c0-2 1-2 4 0 3 1 3 1-1 1l-3-1zm9-1h2l-1 1c-2 0-2-1-1-1zm-389-6c0-3 1-4 6-3 5 2 5 5-1 5-4 1-5 0-5-2zm1027 0c-5-2-16-2-109-3a3540 3540 0 0 0-154-1c1-2 12-4 35-4 21 0 30-1 30-3a453 453 0 0 0-99 2h-12c-1-2-4-1-19 3-3 1-8-2-7-5l4-3c5-3 4-4-3-4-7 1-9 2-9 5s-4 2-4-1c0-2-2-3-7-4-8 0-11-2-11-7 0-3 4-5 5-2 2 3 15 4 13 1-1-3 7-4 11-1h12a943 943 0 0 0 119 2c3 2 6 2 8 2a322 322 0 0 1 67-2h9a14123 14123 0 0 0 100 1c12 1 16 3 14 8l1 3 1 2c0 1-4 2-31 1-31-1-32-1-34-4-2-2-3-2-4-1l-7 2-5 1h5c2 0 4 0 5 2 2 3 4 3 40 3h39l1 5v4l-4-2zm-99-7-3-1-2 1c1 2 5 1 5 0zm-26-1h-7c-2 1-1 1 3 1s6 0 4-1zm48 0h-3c-3 1-3 1 1 1l2-1zm-77-3 13-3h-16l-17-1c-3-4-11-3-15 2l-4 4 13-1 26-1zm56 0c13-2 4-3-17-3l-22 1a211 211 0 0 0 39 2zm83-4-5-1-25-1c-21-1-30 0-21 2h51zm-280-1c2-2 2-1-10-2s-17 0-17 2 24 2 27 0zm90 0c2-1-8-3-20-3-13 0-10 2 3 3a878 878 0 0 1 17 0zm10-1h-3c-1 1-1 1 1 1s3 0 2-1zm-60-1h-3c-1 0-1 1 1 1l2-1zm17 0h-3c-1 0-1 1 1 1l2-1zm-515 18 5-1c5 0 5 0 2 1-5 2-7 2-7 0zm-284-1c-5-1-6-5-4-8 1-2 2-2 4-1l5 2c1 0 2 1 2 4-1 4-2 4-7 3zm629-3c-10 0-10-1-9-5l4-3 1 1c-1 2 17 3 37 2l19 1c2 4-2 5-24 5l-28-1zm-655-3c-6-6-4-7 8-7 6 0 7 1 8 4 1 4-1 6-8 6-4 0-6-1-8-3zm482 2c0-1 2-2 5-2l5 2-5 1-5-1zm84-11c-1-1-1-2 1-3 2-2 5-2 11-1 12 1 13 1 11 3s-20 3-23 1zm78-1c0-5 5-5 27-6 17 0 19 0 19 2l-1 4-23 2-23 1zm66 2h3-3zm-553-28c4-3 6-2 5 0l-6 2h-4l5-2zm-3-8c-2-1 0-4 2-3v5l-2-2zM82 139c-1-1-1-7 1-7l1 4c0 4 0 5-2 3zm153-5v-1 3-2zm-9 0-1-4c0-4 3-4 4 0 1 3-1 5-3 4zm52-1-1-4-2-7c-2-1-4-5-4-6-2-6-4-5-5 3-1 7-2 9-4 8v-5c0-5 0-5-2-3-2 1-4 3-4 5 0 4-3 3-4-1 0-4-3-3-3 1-1 8-4 7-6-1 0-5-2-8-4-6l1 6c3 8 2 10-2 7l-5-4c-3-1-3-4 0-9l1-6v-4h7c2-4 2-6-1-6-2 0-3-1-4-3s-1-2-1 0-3 4-4 3l-1-3 2-5c2-6 8-4 8 3 0 2 0 2 2 2 3-1 5 2 4 9-1 8 1 8 3 0 0-4 1-6 3-5 2 0 2 1 0 9l1 6c1 2 1 2 2-2 0-5 1-6 4-3 4 3 5 0 2-5v-6c1-1 2-1 4 1l4 2 3 3 2 4 2-3 2-3 2 3c1 3 1 3-1 4-3 0-4 2-2 3 2 2 5 17 5 18h-4zm-60-3c-1-2 4-10 6-10 3 1 3 4 0 5-2 0-2 1-2 4 1 4-3 5-4 1zm-8-1c-1-1 0-4 2-4l1 3c0 3-2 4-3 1zm59-2 2-2 2 2-2 1-2-1zm-163-6-3-2c-3 0-3-6-1-8 3-4 5-4 9 2 3 5 4 6 2 8s-4 2-7 0zm108-2v-17c1-5 3-6 8-1l5 3 2 7c-1 1-2 2-5 1-3 0-4 0-5 3-2 4-4 5-5 4zm-43-2c-1-2 0-4 2-4s3 1 3 2c0 2-3 3-5 2zm36 0c-1-2 0-5 2-5 1 0 2 1 2 3s-2 3-4 2zm-87-6c-4-4-3-9 1-9 2-1 3 0 5 3 4 6-1 10-6 6zm57-2c-4-2-4-3-3-9 1-8 2-10 3-9l2 8c0 5 0 6 2 7 2 0 3 1 3 2-1 3-3 3-7 1zm-23-3c-3-1-5-3-5-4l-1-4c0-3 0-3 5-5l5-2 1 16-5-1zm-19-2c-2-3-1-5 3-5 3 0 6 4 4 6-1 3-5 2-7-1zm49-6c-1-3 3-6 4-5 2 2 0 7-2 7l-2-2zm-20-4c-4-3-3-7 2-7 2 0 3-1 3-3 0-5 13-7 14-3s0 6-2 5c-3-2-8 1-10 5-2 6-3 6-7 3zm54-2-3-5c0-2-1-2-3-2-3 1-5-2-2-4l2-5c0-6 4-11 10-12 8-1 8-4-1-7-3-1-5-2-5-4 0-4 5-4 11-1 4 3 6 3 9 3 2-1 3-1 3 1s-1 3-2 3l-4 1v5c3 4 1 7-3 5l-7-1c-5 1-5 2-5 5 1 5 2 6 4 2 2-3 2-3 4-1 2 3 0 7-4 9s-3 4 2 4c3 0 4 1 4 3 0 3-6 4-10 1zm32 0c-1-2 0-4 1-5 1-2 2-2 3 0l-1 5c-2 2-2 2-3 0zm-107-2c-2-2-4-7-4-11 0-3 0-5 3-6 4-2 8 1 6 4v3c1 2 1 1 1-1 0-3 2-5 5-3 3 1 2 5-1 7l-4 4-2 3h-4zm99-2c-1-4 1-6 2-3v3h-2zm-11-3c-1-2 0-5 2-5s3 4 1 5c-2 2-2 2-3 0zm29-6 1-2 2 2-2 2-1-2zm15 0 1-3c1-2 1-2 2 0 2 2 1 4-1 4l-2-1zm-73-2-1-4c0-4 5-2 5 1s-2 4-4 3zm-31-4c-3-3 0-6 4-6 2 0 2 1 2 3 0 5-4 6-6 3zm18 0c-1-3 0-5 3-5 2 0 3 1 3 3 0 4-5 5-6 2zm51-1 1-1 2 2h-2l-1-1zm-32-9v-2c1-2 4 0 4 2 0 3-3 3-4 0zm58-4v-3h3l-1 3h-2zm-78-5c-1-4-5-4-9-1l-4 3c-2 0-7-7-7-9 1-1 0-1-1-1-2 1-6-1-6-4l5-3c4-1 5 0 7 2 3 4 6 4 6 0 0-5 4-5 5 0l3 3 1 4c0 2 0 3 3 2 3 0 6 3 4 5-1 4-6 3-7-1zm17 0c-1-1-1-2 1-3 2-2 5-1 5 2s-3 4-6 1zm29-4c-3-1-2-6 0-7l3 1 5 1c3-1 3-1 3 2s-2 3-3 1h-4l-4 2zm-21-7c1-3 4-4 4 0l-2 2c-1 0-2 0-2-2zm-62-7-5-1c-5 1-7 0-5-4 0-3 4-3 7 1 1 1 2 2 3 0 2-2 5-2 5 1s-4 5-5 3zm25-5 2-2c2 0 2 3-1 4l-1-2zm12 1 1-1 2 1-2 1-1-1zm13 0 1-2c1-2 2-2 2 0 1 3-2 5-3 2z"/>
</svg>
