<?xml version="1.0" encoding="utf-8"?>
<svg xmlns="http://www.w3.org/2000/svg" version="1.2" viewBox="0 0 2126 847">
	<title>Sixteen measures of musical notation on the treble clef, with a ⁶⁄₈ time signature, in the key of F.</title>
	<path d="M0 61v2h2126v-2zm0 24v3h2126v-3zm0 25v3h2126v-3zm0 25v3h2126v-3zm0 25v3h2126v-3zm0 223v3h2126v-3zm0 25v3h2126v-3zm0 25v2h2126v-2zm0 24v3h2126v-3zm0 25v3h2126v-3zm0 223v3h2126v-3zm0 25v3h2126v-3zm0 25v3h2126v-3zm0 25v3h2126v-3zm0 25v2h2126v-2z"/>
	<path d="M802 444c30 31 98 43 136 25-40 26-108 14-136-25"/>
	<path d="M802 443a1 1 0 0 0 0 1c14 20 38 33 64 37 25 5 52 2 73-12a1 1 0 0 0-1-1c-19 9-46 11-71 6-26-4-50-15-64-31a1 1 0 0 0-1 0zm6 7c15 13 37 22 59 26s45 3 63-3c-19 9-42 11-64 7s-44-14-58-30zm1144 44c27 20 78 18 102-5a71 71 0 0 1-102 5"/>
	<path d="M2055 489a1 1 0 0 0-1 0 81 81 0 0 1-50 18c-19 0-38-4-51-14a1 1 0 0 0-1 0 1 1 0 0 0 0 1c27 28 78 26 103-4a1 1 0 0 0 0-1zm-6 5a71 71 0 0 1-91 4c13 7 30 11 46 10 17-1 33-5 45-14zm-184 318c26 15 104 15 130 0-26 23-104 23-130 0"/>
	<path d="M1865 811a1 1 0 0 0 0 1c13 12 39 18 65 18s52-6 65-18a1 1 0 0 0-1-1c-12 8-38 12-64 12s-52-4-65-12zm6 4c14 6 36 9 59 9 22 0 45-3 59-9-14 9-36 14-59 14s-46-5-59-14z"/>
	<path d="M1271 422c0-3-3-6-6-6s-5 3-5 6 2 5 5 5 6-3 6-5m0 24c0-2-3-5-6-5s-5 3-5 5 2 6 5 6 6-3 6-6"/>
	<path d="M1282 383v102m-2-102v102h4V383zm20 0v102m-7-102v102h14V383zm519 322v102m-2-102v102h4V705zm286 0v102m-6-102v102h13V705zm29 0v102m-7-102v102h14V705zm12-644v102m-2-102v102h4V61zm-730 0v102m-2-102v102h4V61zM294 61v102m-2-102v102h5V61zm1079 644v102m-2-102v102h4V705zm755-322v102m-2-102v102h4V383zm-1128 0v102m-2-102v102h4V383zM660 61v102m-2-102v102h5V61zm308 644v102m-3-102v102h5V705zm-403 0v102m-2-102v102h4V705zM1758 61v102m-2-102v102h4V61zM547 383v102m-2-102v102h4V383zm1152 0v102m-2-102v102h4V383zM1026 61v102m-2-102v102h4V61zM817 418v-64m-1 0v64h2v-64zm69 76v-70m-1 0v70h2v-70zm69 82v-76m-1 0v76h2v-76zm-630 76v-76m-1 0v76h2v-76zm-97-263v77m-1-77v77h2v-77zm836 352v-83m-1 0v83h3v-83zM360 145V62m-1 0v83h2V62zm1011 356v-65m-1 0v65h2v-65zm103 89v-76m-1 0v76h3v-76zM447 145V62m-1 0v83h3V62zm1095 405v-83m-2 0v83h3v-83zM518 145V62m-1 0v83h3V62zm1126 380v-76m-1 0v76h2v-76zm121 89v-71m-2 0v71h3v-71zM606 132V50m-1 0v82h2V50zm1226 405v-68m-1 1v67h2v-67zM726 120V43m-1 0v77h2V43zm1174 424v-76m-1 0v76h2v-76zm69 76v-83m-1 0v83h2v-83zM813 120V44m-1 0v76h3V44zm1257 411v-83m-1 0v83h2v-83zM884 120V43m-1 0v77h2V43zM220 790v-83m-1 0v83h2v-83zm108 70v-82m-1 0v82h2v-82zm646-550V62m-2 0v83h3V62zM398 765v-77m-1 0v77h3v-77zm695-568V43m-2 0v77h3V43zM506 790v-83m-2 0v83h3v-83zm122 70v-83m-2 0v83h3v-83zm555-562V50m-1 0v82h2V50zM733 765v-77m-2 0v77h3v-77zm519-568V43m-1 0v77h2V43zM804 752v-70m-1 0v70h2v-70zm108 95v-82m-1 0v82h2v-82zm428-587V31m-2 0v77h3V31zm-305 734v-77m-1 0v77h2v-77zm428-593V31m-2 0v64h3V31zm-318 721v-76m-1 0v76h2v-76zm43 72v77m-1-77v77h2v-77zm366-653V19m-1 0v76h2V19zm-227 746v-77m-2 0v77h3v-77zm301-593V31m-1 0v64h2V31zm-178 746v-70m-2 0v70h3v-70zm73 83v-80m-1 0v80h2v-80zm196-615V19m-1 0v76h3V19zm-123 771v-77m-1 0v77h2v-77zm245-630V25m-1 0v58h3V25zm-171 765v-83m-2 0v83h3v-83zm109 83v-83m-1 0v83h2v-83zm154-624V6m-1 0v77h2V6zm-32 784v-83m-2 0v83h3v-83zm106-649V0m-1 0v58h2V0zm32 790v-83m-1 0v83h3v-83zm57-624V6m-1 0v77h2V6zM220 418v-65m-1 0v65h2v-65zm171 114v-83m-1 0v83h3v-83zm104 71v-83m-2 0v83h3v-83zm122 70v-82m-2 0v82h3v-82zm70 58v-62m-2 1v61h3v-62zm70 61v-65m-1 0v65h2v-65z"/>
	<path d="M189 798c0 4 3 9 11 9 10 0 21-9 21-17 0-6-5-9-11-9-9 0-21 8-21 17m1431 0c0 4 3 9 11 9 10 0 21-9 21-17 0-6-5-9-11-9-10 0-21 8-21 17m316-323c0 5 3 9 11 9 11 0 21-8 21-17 0-6-5-9-11-9-9 0-21 8-21 17M786 426c0 4 3 9 11 9 10 0 21-9 21-17 0-6-5-9-11-9-10 0-21 8-21 17M223 103c0 5 3 9 11 9 10 0 21-8 21-17 0-6-5-9-11-9-10 0-21 8-21 17m106 50c0 4 3 9 11 9 10 0 21-8 21-17 0-6-5-9-11-9-10 0-21 8-21 17m253 298c0 4 3 9 11 9 10 0 21-9 21-18 0-5-5-9-11-9-10 0-21 8-21 18M416 153c0 4 4 9 12 9 10 0 21-8 21-17 0-6-5-9-11-9-10 0-22 8-22 17m71 0c0 4 3 9 11 9 11 0 22-8 22-17 0-6-5-9-12-9-9 0-21 8-21 17m393 632c0 5 3 9 11 9 11 0 21-8 21-17 0-6-5-9-11-9-9 0-21 8-21 17M575 141c0 4 3 9 11 9 10 0 21-9 21-18 0-5-5-9-11-9-10 0-21 8-21 18m120-13c0 4 3 9 11 9 10 0 21-8 21-17 0-6-5-9-11-9-10 0-21 8-21 17m1032 670c0 4 3 9 11 9 10 0 21-9 21-17 0-6-5-9-11-9-10 0-21 8-21 17M782 128c0 4 3 9 11 9 11 0 22-8 22-17 0-6-5-9-12-9-9 0-21 8-21 17m71 0c0 4 3 9 11 9 11 0 21-8 21-17 0-6-5-9-11-9-9 0-21 8-21 17m588 323c0 4 3 9 12 9 10 0 21-9 21-18 0-5-5-9-11-9-10 0-22 8-22 18M941 153c0 4 3 9 11 9 10 0 21-8 21-17 0-6-5-9-11-9-10 0-21 8-21 17m120-25c0 4 3 9 11 9 10 0 21-8 21-17 0-6-5-9-11-9-10 0-21 8-21 17m786 670c0 4 3 9 11 9 10 0 21-9 21-17 0-6-5-9-11-9-10 0-21 8-21 17m-699-657c0 4 3 9 11 9 11 0 21-9 21-18 0-5-5-9-11-9-9 0-21 8-21 18m71-13c0 4 3 9 11 9 10 0 21-8 21-17 0-6-5-9-11-9-9 0-21 8-21 17M368 773c0 4 3 9 11 9 10 0 21-8 21-17 0-6-5-9-11-9-10 0-21 8-21 17m939-657c0 4 3 9 11 9 10 0 21-9 21-17 0-6-5-9-11-9-10 0-21 8-21 17m120-13c0 5 3 9 11 9 10 0 21-8 21-17 0-6-5-9-11-9-10 0-22 8-22 17m556 695c0 4 3 9 12 9 10 0 21-9 21-17 0-6-5-9-11-9-10 0-22 8-22 17m-468-695c0 5 3 9 11 9 11 0 21-8 21-17 0-6-5-9-11-9-9 0-21 8-21 17m71 0c0 5 3 9 11 9 10 0 21-8 21-17 0-6-5-9-11-9-10 0-21 8-21 17M296 785c0 5 3 9 11 9 11 0 21-8 21-17 0-6-5-9-11-9-9 0-21 8-21 17m1376-682c0 5 3 9 12 9 10 0 21-8 21-17 0-6-5-9-11-9-10 0-22 8-22 17m120-12c0 4 3 9 12 9 10 0 21-8 21-17 0-6-5-9-11-9-10 0-22 8-22 17m-282 384c0 5 3 9 11 9 10 0 21-8 21-17 0-6-5-9-11-9-10 0-22 8-22 17m371-384c0 4 3 9 11 9 10 0 21-8 21-17 0-6-5-9-11-9-10 0-21 8-21 17m71-25c0 4 3 9 11 9 10 0 21-8 21-17 0-6-5-9-11-9-10 0-21 8-21 17m87 397c0 4 3 9 11 9 11 0 22-8 22-17 0-6-5-9-12-9-9 0-21 8-21 17M718 426c0 4 3 9 11 9 10 0 21-9 21-17 0-6-5-9-11-9-10 0-21 8-21 17m-68 0c0 4 3 9 11 9 10 0 21-9 21-17 0-6-5-9-11-9-10 0-21 8-21 17M2038 91c0 4 3 9 11 9 11 0 22-8 22-17 0-6-5-9-12-9-9 0-21 8-21 17M475 798c0 4 3 9 11 9 10 0 21-9 21-17 0-6-5-9-11-9-10 0-21 8-21 17m-13-335c0 4 3 9 11 9 10 0 21-8 21-17 0-6-5-9-11-9-10 0-21 8-21 17m460-12c0 4 3 9 11 9 11 0 21-9 21-18 0-5-4-9-11-9-9 0-21 8-21 18M595 785c0 5 3 9 11 9 10 0 21-8 21-17 0-6-5-9-11-9-10 0-21 8-21 17m1017-334c0 4 3 9 11 9 10 0 21-9 21-18 0-5-5-9-11-9-10 0-21 8-21 18M702 773c0 4 3 9 11 9 10 0 21-8 21-17 0-6-5-9-11-9-10 0-21 8-21 17m71-12c0 4 3 9 11 9 10 0 21-9 21-18 0-5-5-9-11-9-10 0-21 8-21 18M359 475c0 5 3 9 11 9 11 0 22-8 22-17 0-6-5-9-12-9-9 0-21 8-21 17m-68-24c0 4 3 9 11 9 11 0 21-9 21-18 0-5-4-9-11-9-9 0-21 8-21 18m563-13c0 4 3 9 11 9 11 0 21-8 21-17 0-6-5-9-11-9-9 0-21 8-21 17m146 335c0 4 3 9 11 9 10 0 21-8 21-17 0-6-5-9-11-9-9 0-21 8-21 17m732-310c0 4 3 9 11 9 10 0 21-8 21-17 0-6-5-9-11-9-10 0-21 8-21 17m-625 298c0 4 3 9 11 9 11 0 21-9 21-18 0-5-5-9-11-9-9 0-21 8-21 18m72-13c0 4 3 9 11 9 10 0 21-8 21-17 0-6-5-9-11-9-10 0-22 8-22 17m690-273c0 5 3 9 11 9 10 0 21-8 21-17 0-6-5-9-11-9-10 0-21 8-21 17m-840-12c0 4 3 9 12 9 10 0 21-8 21-17 0-6-5-9-11-9-10 0-22 8-22 17m258 310c0 4 3 9 11 9 10 0 21-8 21-17 0-6-5-9-11-9-10 0-21 8-21 17M189 426c0 4 3 9 11 9 10 0 21-9 21-17 0-6-5-9-11-9-9 0-21 8-21 17m1611 37c0 4 3 9 11 9 10 0 21-8 21-17 0-6-5-9-11-9-10 0-21 8-21 17m-394 322c0 5 3 9 11 9 10 0 21-8 21-17 0-6-5-9-11-9-10 0-22 8-22 17m-66-359c0 4 3 9 11 9 11 0 21-9 21-17 0-6-5-9-11-9-9 0-21 8-21 17m138 372c0 4 3 9 11 9 10 0 21-9 21-17 0-6-5-9-11-9-10 0-21 8-21 17m71 0c0 4 3 9 11 9 11 0 22-9 22-17 0-6-5-9-12-9-9 0-21 8-21 17"/>
	<path d="M31 832c0 7 5 15 18 15 5 0 9-1 12-3 6-4 7-10 7-17l-1-14-2-8c10-4 17-14 17-24 0-15-11-25-25-25l-3-17c11-11 18-24 18-40 0-9-3-16-4-20-3-5-6-8-8-8l-7 5c-6 7-8 20-8 29l2 21-7 7c-9 8-21 20-21 40 0 19 16 33 34 33h8l3 21c0 11-5 16-15 16h-5v-1c5-1 10-5 10-11 0-5-4-11-12-11-7 0-11 6-11 12m21-132c0-4 5-15 10-15 2 0 4 5 4 12 0 10-8 18-14 25l-2-12 2-10m8 102h-5c-15 0-27-10-27-25 0-12 9-23 17-30l5-4 3 14c-10 2-16 12-16 21 0 7 6 17 14 17l1-2-2-2c-4-2-6-5-6-10 0-6 5-11 11-12l5 33m14-19c0 7-3 15-10 17l-5-32c9 0 15 6 15 15M31 510c0 6 5 15 18 15 5 0 9-1 12-3 6-4 7-11 7-17l-1-14-2-9c10-3 17-13 17-23 0-15-11-25-25-25l-3-18c11-11 18-23 18-39 0-9-3-16-4-20-3-5-6-9-8-9l-7 6c-6 7-8 20-8 28l2 21-7 7c-9 9-21 21-21 41 0 18 16 33 34 33l8-1 3 22c0 10-5 16-15 16l-5-1c5-1 10-5 10-11s-4-12-12-12c-7 0-11 6-11 13m21-133c0-4 5-14 10-14 2 0 4 5 4 12 0 10-8 18-14 24l-2-12 2-10m8 102-5 1c-15 0-27-10-27-25 0-12 9-23 17-31l5-4 3 14c-10 3-16 12-16 22 0 7 6 16 14 16l1-1-2-2c-4-3-6-5-6-10 0-6 5-11 11-12l5 32m14-18c0 7-3 14-10 17l-5-32c9 0 15 6 15 15M31 187c0 7 5 15 18 15 5 0 9-1 12-3 6-4 7-10 7-16l-1-14-2-9c10-3 17-14 17-24 0-15-11-25-25-25l-3-17c11-11 18-24 18-39 0-9-3-17-4-20-3-5-6-9-8-9l-7 5c-6 8-8 20-8 29l2 21-7 7c-9 8-21 21-21 40s16 33 34 33h8l3 22c0 10-5 15-15 15h-5v-1c5-1 10-5 10-11 0-5-4-11-12-11-7 0-11 6-11 12M52 55c0-4 5-15 10-15 2 0 4 5 4 12 0 11-8 18-14 25l-2-12 2-10m8 102h-5c-15 0-27-9-27-24 0-13 9-23 17-31l5-4 3 14c-10 2-16 12-16 21 0 7 6 17 14 17l1-1-2-3c-4-2-6-5-6-10 0-6 5-10 11-12l5 33m14-19c0 8-3 15-10 18l-5-32c9 0 15 6 15 14"/>
	<path d="M119 96c-5 0-8 3-9 4l1-32-2-1h-1l-1 1v60l2 1h1c8-4 17-13 17-23 0-5-2-10-8-10m-9 28v-19c1-1 2-4 6-4s4 3 4 6c0 8-3 12-10 17m9 617c-5 0-8 3-9 4l1-32-2-2h-1l-1 2v59l2 2h1c8-5 17-13 17-23 0-5-2-10-8-10m-9 28v-19c1-1 2-4 6-4s4 3 4 5c0 9-3 13-10 18m9-350c-5 0-8 3-9 3l1-32-2-1h-1l-1 1v60l2 1h1c8-4 17-12 17-22 0-6-2-10-8-10m-9 28v-20c1-1 2-4 6-4s4 4 4 6c0 9-3 12-10 18"/>
	<path d="M175 83c-6 0-8 1-9 3l-1-5c0-6 2-13 9-13l5 1c-2 1-4 4-4 6 0 4 3 7 6 7 4 0 7-3 7-7l-1-3c-1-4-5-9-15-9-9 0-15 9-17 13-1 2-3 7-3 13s2 13 8 18c5 4 9 5 13 5 3 0 16-5 16-16 0-10-8-13-14-13m-4 24c-3 0-5-4-5-10 0-5 2-10 5-10s7 5 7 10c0 6-3 10-7 10m11 27c4-2 6-5 6-9 0-7-8-13-17-13-10 0-18 6-18 13 0 4 1 7 6 10-5 3-7 7-7 11 0 8 8 15 19 15 10 0 18-7 18-15 0-4-1-9-7-12m-5-2c-7-2-14-6-14-10s3-6 8-6c6 0 10 3 10 8s-2 7-4 8m-6 23c-7 0-12-3-12-9s5-8 5-8c7 2 16 6 16 11 0 3-3 6-9 6"/>
	<path d="M1181 450h-1l-11-14v-2l10-15v-2l-16-22-1-1-1 1-1 1 1 1 7 10 1 1-1 1-10 16v2l11 14h-2c-5 0-9 4-9 9l1 4 10 12 1 1 1-2-4-7v-3c0-3 2-6 5-6l3 1 4 3h1l1-1v-2"/>
	<path d="M1217 639c-9-10-17-11-22-11-6 0-14 1-23 11-5 5-8 16-8 21l1 3c3 0 2-8 10-17 7-7 17-7 19-7h1c2 0 12 0 19 7 9 9 7 17 10 17l1-3c0-5-3-16-8-21m-29 19a7 7 0 1 0 13 0 7 7 0 0 0-13 0"/>
	<path d="m1435 701 145 6v12l-145-6v-12M611 353l139-6v13l-139 6v-13m1150 25 139 6v13l-139-6v-13m-945-31 138 13v12l-138-12v-13"/>
	<path d="m731 711 1 1c4 1 13 7 19 18 2 3 5 7 5 15a63 63 0 0 1-5 23l1 1 2-1c4-8 6-17 6-26 0-13-8-22-8-22l-12-17-5-11-1-4-1-1-2 1v23m81-645 1 1c4 1 13 7 19 18 2 3 5 7 5 15a63 63 0 0 1-5 23l1 1 2-1c4-8 6-17 6-26-1-13-8-22-8-22l-12-16c-4-6-5-12-5-12l-1-4-2-1-1 1v23M321 388l1 1c4 2 13 7 19 18 2 3 5 8 5 16a63 63 0 0 1-5 23l1 1 2-1c4-8 6-17 6-26-1-13-8-23-8-23l-12-16-6-12-1-4h-1l-1 1v22M970 85l1 1c5 1 13 6 20 17 1 3 4 8 4 16a63 63 0 0 1-5 23l2 1 1-1c4-8 6-17 6-26 0-13-8-22-8-22l-12-17-5-12-1-3-1-1-2 1v23m208-13 1 1c4 2 13 7 19 18 2 3 5 7 5 16a63 63 0 0 1-5 23l1 1 2-1c4-8 6-18 6-27-1-12-8-22-8-22l-12-16-6-12-1-4-1-1-1 2v22m158-18 1 1c4 1 13 6 19 17 2 3 5 8 5 16a63 63 0 0 1-5 23l1 1 2-1c4-8 6-17 6-26-1-13-8-22-8-22l-12-17-5-12-1-3-1-1-2 1v23M910 717l1 1c4 1 12 7 19 18 2 3 5 7 5 15a63 63 0 0 1-5 23l1 1 1-1c5-8 7-17 7-26-1-13-8-22-8-22l-12-16-6-12-1-4-1-1-1 1v23m634-676 1 1c4 2 12 7 19 18 2 3 5 7 5 16a63 63 0 0 1-5 23l1 1 1-1c5-8 6-18 6-27 0-12-7-22-7-22l-12-16-6-12-1-4-1-1-1 2v22m158 0 1 1c4 2 13 7 19 18 2 3 5 7 5 16a63 63 0 0 1-5 23l1 1 2-1c4-8 6-18 6-27-1-12-8-22-8-22l-12-16-5-12-1-4-2-1-1 2v22m208-12v1c5 1 13 7 20 18 2 3 4 7 4 15a63 63 0 0 1-4 23l1 1 1-1c5-8 6-17 6-26 0-13-7-22-7-22s-10-12-12-17c-4-5-6-11-6-11l-1-4-1-1-1 1v23M326 717l1 1c4 1 12 7 19 18 2 3 5 7 5 15a63 63 0 0 1-5 23l1 1 1-1c5-8 7-17 7-26-1-13-8-22-8-22l-12-16-6-12-1-4-1-1-1 1v23m1145-329 1 1c4 2 13 7 19 18 2 3 5 8 5 16a63 63 0 0 1-5 23l1 1 2-1c4-8 6-17 6-26-1-13-8-23-8-23l-12-16c-4-6-5-11-5-12l-1-4h-2l-1 1v22M504 729l1 1c4 2 13 7 19 18 2 3 5 8 5 16a63 63 0 0 1-5 23l1 1 2-1c4-8 6-17 6-26 0-13-8-23-8-23l-12-16-5-12-1-4h-1l-2 1v22m1253 0v1c5 2 13 7 20 18 1 3 4 8 4 16a63 63 0 0 1-5 23l2 1 1-1c4-8 6-17 6-26 0-13-8-23-8-23l-11-16-6-12-1-4h-1l-1 1v22m-620-31 1 1c4 2 12 7 19 18 2 3 5 8 5 16a63 63 0 0 1-5 23l1 1 1-1c5-8 6-17 6-26 0-13-7-23-7-23l-12-16-6-12-1-4h-1l-1 1v22m505-310v1c5 2 13 7 20 18 1 3 4 8 4 16a63 63 0 0 1-5 23l2 1 1-1c4-8 6-17 6-26 0-13-8-23-8-23l-11-16-6-12-1-4h-1l-1 1v22M223 180l1 1 1-1 1-4 5-10 15-18c5-7 7-13 7-22s-2-17-7-26l-1-1h-1l-1 1 1 1c4 9 5 15 5 22 0 8-3 12-4 15-7 11-17 17-21 18l-1 1v23m268 215 1 1c4 1 13 6 19 17 2 3 5 8 5 16a63 63 0 0 1-5 23l1 1 2-1c4-8 6-17 6-26 0-13-8-22-8-22l-12-17-5-12-1-3-1-1-2 1v23m1577 0 1 1c4 1 13 6 19 17 2 3 5 8 5 16a63 63 0 0 1-5 23l1 1 2-1c4-8 6-17 6-26-1-13-8-22-8-22l-12-17c-4-5-5-11-5-12l-1-3-2-1-1 1v23M446 85l1 1c4 1 13 6 19 17 2 3 5 8 5 16a63 63 0 0 1-5 23l1 1 2-1c4-8 6-17 6-26-1-13-8-22-8-22l-12-17-5-12-1-3-1-1-2 1v23m159-13v1c5 2 13 7 20 18 1 3 4 7 4 16a63 63 0 0 1-4 23l1 1 1-1c5-8 6-18 6-27 0-12-8-22-8-22l-11-16-6-12-1-4-1-1-1 2v22m710 639 1 1c4 1 13 7 19 18 2 3 5 7 5 15a63 63 0 0 1-5 23l1 1 2-1c4-8 6-17 6-26-1-13-8-22-8-22l-12-17-5-11-1-4-1-1-2 1v23m753-682 1 1c4 1 13 7 19 18 2 3 5 7 5 15a63 63 0 0 1-5 23l1 1 2-1c4-8 6-17 6-26-1-13-8-22-8-22l-12-17c-4-5-5-11-5-11l-1-4-2-1-1 1v23"/>
	<path d="m142 326 3 1h19l2-1c0-2-8-1-9-4l-1-4v-1l1-9v-4c0-8 2-7 4-8l3-1-2-1h-19l2 2c5 0 6 0 6 7v10l-1 8c-1 4-8 2-8 5m30-4 3 3 3 3 3-3 3-3-3-3-3-3c-2 0-2 2-3 3l-3 3"/>
	<path d="M126 271v56h2v-54h1152v54h3v-56z"/>
	<path d="m1322 326 2 1h25l2-2 4-8h-1l-4 4-11 1-4-1 5-5c4-3 10-9 10-14 0-6-5-9-11-9-10 0-13 7-13 9 0 1 3 3 6 3l1-1-2-5c0-2 1-3 5-3 3 0 8 2 8 7s-5 12-17 20l-5 3m39-4 3 3c1 1 1 3 3 3l3-3 2-3-2-3-3-3c-2 0-2 2-3 3l-3 3"/>
	<path d="M1306 271v56h2v-54h816v-2z"/>
	<path d="M1073 446c0 3 2 5 5 5s5-2 5-5-2-5-5-5-5 3-5 5m818 348c0 2 2 5 5 5s5-3 5-5-2-5-5-5-5 2-5 5"/>
</svg>
