<?xml version="1.0" encoding="utf-8"?>
<svg xmlns="http://www.w3.org/2000/svg" version="1.1" viewBox="0 0 2381 1132">
	<title>Twenty-nine measures of musical notation on the treble clef, with a ⁶⁄₈ time signature, in the key of D.</title>
	<path d="M0 42v3h2381v-3zm0 25v3h2381v-3zm0 25v2h2381v-2zm0 24v3h2381v-3zm0 25v3h2381v-3zm0 138v3h2381v-3zm0 25v2h2381v-2zm0 25v2h2381v-2zm0 24v3h2381v-3zm0 25v3h2381v-3zm0 138v3h2381v-3zm0 25v2h2381v-2zm0 24v3h2381v-3zm0 25v3h2381v-3zm0 25v3h2381v-3zm0 138v2h2381v-2zm0 24v3h2381v-3zm0 25v3h2381v-3zm0 25v3h2381v-3zm0 25v3h2381v-3zm0 138v2h2381v-2zm0 24v3h2381v-3zm0 25v3h2381v-3zm0 25v3h2381v-3zm0 25v3h2381v-3z"/>
	<path d="M1424 173c12 6 51 6 64 0-13 14-52 14-64 0"/>
	<path d="M1424 172a1 1 0 0 0-1 0 1 1 0 0 0 0 1c7 8 20 11 33 11s26-3 32-11a1 1 0 0 0 0-1c-7 3-19 5-32 5s-26-2-32-5zm2 3c7 2 18 3 30 3 11 0 22-1 29-3-6 5-18 8-29 8-12 0-23-3-30-8zm-292 659c17 9 68 9 85 0-17 17-68 17-85 0"/>
	<path d="M1220 833a1 1 0 0 0-1 0c-8 5-25 7-42 7s-34-2-43-7a1 1 0 0 0 0 1c8 9 26 13 43 13s34-4 43-13a1 1 0 0 0-1-1zm-83 3c10 4 24 5 40 5s30-1 39-5c-9 7-24 10-39 10-16 0-31-3-40-10zm987-438c12 5 51 5 64 0-13 13-52 13-64 0"/>
	<path d="M2124 397a1 1 0 0 0-1 0 1 1 0 0 0 0 1c7 7 20 11 33 11s26-4 33-11a1 1 0 0 0-1-1c-6 3-19 4-32 4s-26-1-32-4zm2 2a114 114 0 0 0 60 0c-7 5-19 8-30 8-12 0-23-3-30-8zm-605 248c13 6 54 6 67 0-13 14-54 14-68 0"/>
	<path d="M1521 646a1 1 0 0 0-1 0 1 1 0 0 0 0 1c7 8 21 11 34 11s28-3 35-11a1 1 0 0 0-1-1c-7 3-20 5-34 5s-27-2-33-5zm2 2c8 3 19 4 31 4s24-1 32-4c-8 6-20 9-32 9s-24-3-31-9zM701 995c13-20 51-20 64 0-13-12-51-12-64 0"/>
	<path d="M733 980c-13 0-26 5-33 15a1 1 0 0 0 0 1 1 1 0 0 0 1-1c6-5 19-8 32-8s25 3 32 8a1 1 0 0 0 1 0c-7-10-20-15-33-15zm0 1c11 0 22 4 29 11-7-4-18-6-29-6s-22 2-29 6c7-7 18-11 29-11zm1489 140c13 5 51 5 64 0-13 13-51 13-64 0"/>
	<path d="M2222 1120a1 1 0 0 0-1 0 1 1 0 0 0 0 1c7 7 20 10 33 10s26-3 33-10a1 1 0 0 0-1-1c-6 3-19 4-32 4s-26-1-32-4zm3 2a112 112 0 0 0 59 0c-7 5-18 8-30 8s-23-3-29-8z"/>
	<path d="M1052 42v102m-3-102v102h5V42zm1022 237v102m-2-102v102h4V279zM1371 42v102m-3-102v102h5V42zm24 711v102m-2-102v102h4V753zm236-711v102m-3-102v102h5V42zm-948 0v102m-2-102v102h4V42zm-317 0v102m-3-102v102h5V42zm1461 474v102m-2-102v102h4V516zM679 753v102m-2-102v102h4V753zm404 0v102m-2-102v102h5V753zM2379 42v102m-2-102v102h4V42zm-375 0v102m-2-102v102h4V42zM666 516v102m-2-102v102h5V516zm-96-237v102m-3-102v102h5V279zm1814 0v102m-2-102v102h4V279zM1008 516v102m-2-102v102h4V516zm325-237v102m-2-102v102h4V279zm384 0v102m-2-102v102h4V279zm175 474v102m-3-102v102h5V753zm496-237v102m-2-102v102h4V516zM863 279v102m-2-102v102h4V279zm1518 474v102m-2-102v102h4V753zm-909-237v102m-3-102v102h5V516zM645 990v101m-2-101v101h4V990zm334 0v101m-2-101v101h4V990zm333 0v101m-2-101v101h4V990zm404 0v101m-3-101v101h5V990zm462 0v101m-2-101v101h4V990zm185 0v101m-7-101v101h13V990zm29 0v101m-6-101v101h13V990z"/>
	<path d="m472 344 1-1v-6l-2-1h-3v-14h-3v15l-9 2v-14h-2v14l-4 1-1 2v5l1 2 4-1v16l-4 1-1 2v5l1 2 4-1v15h2v-16l9-1v14h3v-15l4-1 1-1v-6l-2-1h-3v-16l4-1m-16 3 9-1v16l-9 2v-17m524 471 2-1v-6l-2-2-3 1v-15h-3v16l-9 1v-14h-3v15l-4 1-1 1v6l2 1h3v16l-4 1-1 1v6l2 1h3v14h3v-15l9-2v14h3v-14l3-1 2-1v-6l-2-2-3 1v-16l3-1m-15 3 9-2v17l-9 2v-17"/>
	<path d="M1571 101V25m-1 0v76h2V25zm566 351v-83m-1 0v83h3v-83zM1691 89V19m-1 0v70h2V19zM927 837v-83m-1 0v83h3v-83zm829-677V12m-1 0v65h2V12zm5 563v-76m-1 0v76h3v-76zm61-435V6m-1 0v58h3V6zm-137 569v-76m-1 0v76h2v-76zm204-422V12m-2 0v65h3V12zm325 364v-83m-1 0v83h2v-83zM836 800v-77m-1 0v77h2v-77zm1113-622V25m-1 0v76h2V25zM732 600v-83m-1 0v83h2v-83zm14 258v-58m-2 0v58h3v-58zm1535-379v-64m-1 0v64h2v-64zM2132 77V12m-1 0v65h2V12zM1074 612v-82m-1 0v82h2v-82zM2196 64V6m-1 0v58h2V6zm-588 619v-83m-1 0v83h2v-83zm654-465V12m-1 0v65h2V12zm79 326v-64m-1 0v64h2v-64zm-13-173V25m-1 0v76h3V25zM1285 625v-83m-1 0v83h2v-83zM617 812v-76m-2 0v76h3v-76zm-181 51v-76m-1 0v76h2v-76zM251 376v-83m-1 0v83h3v-83zm93 469v-54m-2 0v54h3v-54zm-3-370v-76m-2 0v76h3v-76zm88 64v-70m-1 0v70h2v-71zM2068 89V19m-2 0v70h3V19zM251 762v-58m-1 0v58h3v-58zm260-353v-83m-1 0v83h2v-83zm1040 532v-77m-1 0v77h2v-77zm-90 77v-71m-2 0v71h3v-71zM301 101V25m-1 0v76h2V25zm121 126V68m-1 0v83h2V68zm213 270v-76m-1 0v76h2v-76zm901 363v-83m-1 0v83h2v-83zm246-216v-70m-1 0v70h2v-71zM719 338v-76m-1 0v76h3v-76zm612 550v-76m-2 0v76h3v-76zM485 151V68m-1 0v83h3V68zm322 270v-76m-2 0v76h3v-76zM251 625v-77m-1 0v77h3v-77zm297 77v-80m-1 0v80h2v-80zm10-394V68m-1 0v83h2V68zm373 233v-58m-1 0v58h3v-58zM806 538v-76m-1 0v76h2v-76zm1497 51v-76m-1 0v76h2v-76zM1015 301v-55m-1 0v55h2v-55zm865 267v-58m-1 0v58h2v-58zm-777-92V249m-1 0v114h2V249zM325 625v-77m-1 0v77h3v-77zm863-222v-70m-1 0v70h2v-71zm52 556v-77m-1 0v77h2v-77zm959-197v-58m-1 0v58h2v-58zm-921-154v-77m-2 1v76h3v-76zM399 625v-77m-1 0v77h2v-77zm222-409V56m-1 0v83h3V56zm1220 258v-77m-2 0v77h3v-77zm-440 101v-76m-2 0v76h3v-76zM880 575v-76m-1 0v76h2v-76zm1212 39v-77m-2 0v77h3v-77zm-606-98v-83m-1 1v82h2v-82zM473 625v-77m-1 0v77h2v-77zm1097-185v-83m-1 0v83h2v-83zM740 126V50m-1 0v76h3V50zm1246 463v-55m-1 0v55h2v-55zm-329-120v-76m-1 0v76h2v-76zm-263 363v-83m-1 0v83h2v-83zm-211 83v-83m-1 0v83h3v-83zm462 233v-58m-1 0v58h2v-58zm93 70v-64m-2 0v64h3v-64zm93 77v-71m-1 0v71h2v-71zM804 126V50m-1 0v76h3V50zm1106 251v-58m-1 0v58h3v-58zm43 569v-77m-1 0v77h2v-77zM869 126V50m-2 0v76h3V50zm1237 696v76m-1-76v76h2v-76zm92 0v76m-1-76v76h2v-76zm93 0v76m-2-76v76h3v-76zM621 612v-70m-1 0v70h2v-70zm313-441V25m-1 0v76h2V25zm65 101V44m-1 0v82h2V44zM222 995v89m-2-89v89h3v-89zm72 13v79m-1-79v79h2v-80zm71 12v70m-1-70v70h2v-70zm72-12v76m-2-76v76h3v-77zm72 12v70m-1-70v70h3v-70zm72 12v64m-2-64v64h3v-64zm1398-694v-89m-1 0v89h2v-89zm-852-110V56m-1 0v83h2V56zm-435 964v83m-2-83v83h3v-83zm72 0v82m-1-82v82h3v-82zm101 29v-77m-1 1v76h3v-76zm72 76v-77m-1 1v76h3v-76zm33-373v-83m-1 0v83h2v-83zm228-366V68m-1 0v83h2V68zm-138 944v-58m-1 0v58h2v-58zm72 95v-77m-2 1v76h3v-76zm931-161v-76m-1 0v76h2v-76zm-787 325v-82m-1 0v82h2v-82zm777-616V255m-1 0v108h2V255zm-777-104V68m-1 0v83h2V68zm123 981v-64m-1 0v64h2v-64zm71 64v-61m-1 0v61h2v-61zm72 111V991m-2 0v108h3V991zm72 70v-83m-1 1v82h2v-83zm71 107v-83m-1 1v82h2v-82zm-338-853V68m-1 0v83h2V68zm-168 744v-77m-1 0v77h2v-77zm629 339v-77m-1 0v77h2v-77zm72 64v-70m-1 0v70h2v-70zm71 58v-64m-1 0v64h2v-64zm72 89v-83m-2 0v83h3v-83zm72 83v-80m-1 0v80h2v-80zm72 92v-89m-2 0v89h3v-89zm-690-846V68m-1 0v83h2V68zM525 812v-77m-1 0v77h3v-77zm1711 364v-83m-2 0v83h3v-83zm72 83v-83m-1 0v83h2v-83zm-797-865V68m-1 0v83h2V68zm-487 756v-82m-1 0v82h2v-82zm165 295v-71m-1 0v71h3v-71z"/>
	<path d="M368 633c0 4 3 9 11 9 11 0 21-8 21-17 0-6-4-9-11-9-9 0-21 8-21 17m74 0c0 4 3 9 11 9 11 0 21-8 21-17 0-6-5-9-11-9-9 0-21 8-21 17m74 0c0 4 3 9 11 9 11 0 21-8 21-17 0-6-5-9-11-9-9 0-21 8-21 17m74-12c0 4 3 9 11 9 11 0 21-9 21-18 0-5-5-9-11-9-9 0-21 8-21 18m111-13c0 4 3 9 11 9 10 0 21-8 21-17 0-6-5-9-11-9-10 0-21 8-21 17m74-62c0 4 3 9 11 9 10 0 21-8 21-17 0-6-5-9-11-9-10 0-21 8-21 17m74 37c0 5 3 9 11 9 10 0 21-8 21-17 0-6-5-9-11-9-10 0-21 8-21 17m74 25c0 4 3 9 11 9 10 0 21-8 21-17 0-6-5-9-11-9-10 0-21 8-21 17m120 13c0 4 3 9 11 9 10 0 21-9 21-18 0-5-5-9-11-9-10 0-21 8-21 18M479 359c0 4 3 9 11 9 10 0 21-9 21-17 0-6-5-9-11-9-9 0-21 8-21 17m669 274c0 4 3 9 12 9 10 0 21-8 21-17 0-6-5-9-11-9-10 0-22 8-22 17m106 0c0 4 3 9 11 9 11 0 21-8 21-17 0-6-5-9-11-9-9 0-21 8-21 17m106 0c0 4 3 9 11 9 10 0 21-8 21-17 0-6-5-9-11-9-10 0-21 8-21 17m142 0c0 4 3 9 11 9 11 0 21-8 21-17 0-6-5-9-11-9-9 0-21 8-21 17m74 0c0 4 3 9 11 9 11 0 21-8 21-17 0-6-5-9-11-9-9 0-21 8-21 17m74-50c0 5 3 9 11 9 11 0 21-8 21-17 0-6-5-9-11-9-9 0-21 8-21 17m78 0c0 5 3 9 11 9 11 0 22-8 22-17 0-6-5-9-12-9-9 0-21 8-21 17m120-62c0 5 3 9 11 9 11 0 21-8 21-17 0-6-5-9-11-9-9 0-21 8-21 17m106 0c0 5 3 9 11 9 10 0 21-8 21-17 0-6-5-9-11-9-10 0-21 8-21 17m106 25c0 4 3 9 11 9 10 0 21-8 21-17 0-6-5-9-11-9-10 0-21 8-21 17m105 0c0 4 3 9 11 9 11 0 22-8 22-17 0-6-5-9-12-9-9 0-21 8-21 17m106-25c0 5 3 9 11 9 10 0 21-8 21-17 0-6-5-9-11-9-9 0-21 8-21 17M220 771c0 4 3 9 11 9 11 0 22-9 22-18 0-5-5-9-12-9-9 0-21 8-21 18m92 0c0 4 3 9 11 9 10 0 21-9 21-18 0-5-5-9-11-9-10 0-21 8-21 18m91 24c0 5 3 9 11 9 10 0 21-8 21-17 0-6-5-9-11-9-10 0-21 8-21 17m91 25c0 4 3 9 11 9 11 0 22-8 22-17 0-6-5-9-12-9-9 0-21 8-21 17m92 0c0 4 3 9 11 9 10 0 21-8 21-17 0-6-5-9-11-9-10 0-21 8-21 17m128-37c0 4 3 9 11 9 10 0 21-8 21-17 0-6-5-9-11-9-10 0-21 8-21 17m91 25c0 4 3 9 11 9 10 0 21-9 21-17 0-6-5-9-11-9-9 0-21 8-21 17m91 37c0 4 3 9 12 9 10 0 21-8 21-17 0-6-5-9-11-9-10 0-22 8-22 17m92-12c0 4 3 9 11 9 10 0 21-9 21-18 0-5-5-9-11-9-10 0-21 8-21 18m128-13c0 4 3 9 11 9 10 0 21-8 21-17 0-6-5-9-11-9-10 0-21 8-21 17m91 0c0 4 3 9 11 9 11 0 21-8 21-17 0-6-5-9-11-9-9 0-21 8-21 17m92 0c0 4 3 9 11 9 10 0 21-8 21-17 0-6-5-9-11-9-10 0-22 8-22 17m129-12c0 4 3 9 11 9 10 0 21-9 21-17 0-6-5-9-11-9-10 0-22 8-22 17m92 0c0 4 3 9 11 9 10 0 21-9 21-17 0-6-5-9-11-9-10 0-21 8-21 17M270 110c0 4 3 9 11 9 11 0 21-9 21-18 0-5-5-9-11-9-9 0-21 8-21 18m1339 673c0 4 3 9 11 9 11 0 21-8 21-17 0-6-5-9-11-9-9 0-21 8-21 17M390 159c0 4 3 9 11 9 11 0 21-8 21-17 0-6-5-9-11-9-9 0-21 8-21 17m1311 636c0 5 3 9 11 9 10 0 21-8 21-17 0-6-5-9-11-9-10 0-22 8-22 17M454 159c0 4 3 9 11 9 11 0 22-8 22-17 0-6-5-9-12-9-9 0-21 8-21 17m1338 649c0 4 3 9 11 9 10 0 21-9 21-17 0-6-5-9-11-9-10 0-21 8-21 17M525 159c0 4 3 9 11 9 11 0 21-8 21-17 0-6-5-9-11-9-9 0-21 8-21 17m64-12c0 4 3 9 11 9 11 0 22-9 22-17 0-6-5-9-12-9-9 0-21 8-21 17m120-13c0 5 3 9 11 9 11 0 22-8 22-17 0-6-5-9-12-9-9 0-21 8-21 17m1211 686c0 4 3 9 11 9 10 0 21-8 21-17 0-6-5-9-11-9-10 0-21 8-21 17M773 134c0 5 4 9 12 9 10 0 21-8 21-17 0-6-5-9-11-9-10 0-22 8-22 17m1238 686c0 4 3 9 11 9 11 0 22-8 22-17 0-6-5-9-12-9-9 0-21 8-21 17M838 134c0 5 3 9 11 9 10 0 21-8 21-17 0-6-5-9-11-9-10 0-21 8-21 17m1265 612c0 4 3 9 11 9 10 0 21-9 21-17 0-6-5-9-11-9-10 0-21 8-21 17M902 110c0 4 3 9 11 9 10 0 21-9 21-18 0-5-5-9-11-9-10 0-21 8-21 18m1292 636c0 4 3 9 11 9 10 0 21-9 21-17 0-6-5-9-11-9-9 0-21 8-21 17M966 134c0 5 3 9 11 9 10 0 21-8 21-17 0-6-5-9-11-9-9 0-21 8-21 17m1319 612c0 4 3 9 11 9 11 0 22-9 22-17 0-6-5-9-12-9-9 0-21 8-21 17M1086 147c0 4 3 9 11 9 10 0 21-9 21-17 0-6-5-9-11-9-9 0-21 8-21 17m64 12c0 4 3 9 11 9 11 0 21-8 21-17 0-6-5-9-11-9-9 0-21 8-21 17m71 0c0 4 3 9 11 9 10 0 21-8 21-17 0-6-5-9-11-9-9 0-21 8-21 17m64 0c0 4 3 9 11 9 11 0 21-8 21-17 0-6-5-9-11-9-9 0-21 8-21 17M220 995c0 4 3 9 11 9 11 0 22-8 22-17 0-6-5-9-12-9-9 0-21 8-21 17m1185-836c0 4 3 9 11 9 11 0 21-8 21-17 0-6-5-9-11-9-9 0-21 8-21 17M291 1008c0 4 3 9 11 9 10 0 21-9 21-18 0-5-5-9-11-9-10 0-21 8-21 17m1185-848c0 4 3 9 11 9 10 0 21-8 21-17 0-6-5-9-11-9-10 0-21 8-21 17M361 1020c0 4 3 9 11 9 10 0 21-9 21-17 0-6-5-9-11-9-9 0-21 8-21 17m1179-910c0 4 3 9 11 9 10 0 21-9 21-18 0-5-5-9-11-9-9 0-21 8-21 18M431 1008c0 4 3 9 11 9 11 0 22-9 22-18 0-5-5-9-12-9-9 0-21 8-21 17M1660 97c0 4 3 9 11 9 10 0 21-8 21-17 0-6-5-9-11-9-10 0-21 8-21 17M502 1020c0 4 3 9 11 9 10 0 21-9 21-17 0-6-5-9-11-9-9 0-21 8-21 17M1724 85c0 4 3 9 11 9 11 0 21-9 21-17 0-6-5-9-11-9-9 0-21 8-21 17M572 1032c0 5 3 9 12 9 10 0 21-8 21-17 0-6-5-9-11-9-10 0-22 8-22 17M1788 72c0 5 3 9 11 9 11 0 22-8 22-17 0-6-5-9-12-9-9 0-21 8-21 17m65 13c0 4 3 9 11 9 10 0 21-9 21-17 0-6-5-9-11-9-10 0-22 8-22 17m65 25c0 4 3 9 11 9 10 0 21-9 21-18 0-5-5-9-11-9-10 0-21 8-21 18M679 1020c0 4 4 9 12 9 10 0 21-9 21-17 0-6-5-9-11-9-10 0-22 8-22 17M2037 97c0 4 3 9 11 9 10 0 21-8 21-17 0-6-5-9-11-9-10 0-21 8-21 17M750 1020c0 4 3 9 11 9 11 0 21-9 21-17 0-6-5-9-11-9-9 0-21 8-21 17M2101 85c0 4 3 9 11 9 10 0 21-9 21-17 0-6-5-9-11-9-10 0-21 8-21 17M821 1057c0 4 3 9 11 9 10 0 21-8 21-17 0-6-5-9-11-9-10 0-21 8-21 17M2165 72c0 5 3 9 11 9 10 0 21-8 21-17 0-6-5-9-11-9-9 0-21 8-21 17M891 1057c0 4 3 9 11 9 11 0 22-8 22-17 0-6-5-9-12-9-9 0-21 8-21 17M2229 85c0 4 3 9 11 9 11 0 21-9 21-17 0-6-5-9-11-9-9 0-21 8-21 17m64 25c0 4 3 9 12 9 10 0 21-9 21-18 0-5-5-9-11-9-10 0-22 8-22 18M220 384c0 4 3 9 11 9 11 0 22-9 22-17 0-6-5-10-12-10-9 0-21 9-21 18m791 636c0 4 3 9 11 9 11 0 22-9 22-17 0-6-5-9-12-9-9 0-21 8-21 17M307 346c0 5 3 10 11 10 10 0 21-9 21-18 0-6-5-9-11-9-10 0-21 8-21 17m775 711c0 4 3 9 11 9 10 0 21-8 21-17 0-6-5-9-11-9-10 0-21 8-21 17M393 334c0 4 3 9 11 9 10 0 21-8 21-17 0-6-5-9-11-9-10 0-21 8-21 17m759 711c0 4 3 9 12 9 10 0 21-9 21-17 0-6-5-10-11-10-10 0-22 9-22 18M602 346c0 5 3 10 11 10 10 0 21-9 21-18 0-6-5-9-11-9-9 0-21 8-21 17m621 724c0 4 3 9 11 9 10 0 21-9 21-18 0-5-5-9-11-9-10 0-21 8-21 17M688 346c0 5 3 10 11 10 11 0 22-9 22-18 0-6-5-9-12-9-9 0-21 8-21 17m87 0c0 5 3 10 11 10 10 0 21-9 21-18 0-6-5-9-11-9-10 0-21 8-21 17m122-37c0 5 4 9 12 9 10 0 21-8 21-17 0-6-5-9-11-9-10 0-22 8-22 17m446 748c0 4 3 9 11 9 10 0 21-8 21-17 0-6-5-9-11-9-10 0-21 8-21 17M984 309c0 5 3 9 11 9 10 0 21-8 21-17 0-6-5-9-11-9-10 0-21 8-21 17m429 748c0 4 3 9 11 9 11 0 21-8 21-17 0-6-5-9-11-9-9 0-21 8-21 17m-343-686c0 5 3 9 11 9 10 0 21-8 21-17 0-6-5-9-11-9-9 0-21 8-21 17m414 736c0 4 3 9 11 9 10 0 21-9 21-17 0-6-5-10-11-10-10 0-22 9-22 18m-327-773c0 4 3 9 11 9 11 0 22-8 22-17 0-6-5-9-12-9-9 0-21 8-21 17m398 736c0 4 3 9 11 9 10 0 21-9 21-18 0-5-5-9-11-9-10 0-21 8-21 17m-311-735c0 4 3 9 11 9 10 0 21-8 21-17 0-6-5-9-11-9-10 0-22 8-22 17m382 760c0 5 3 9 11 9 11 0 21-8 21-17 0-6-5-9-11-9-9 0-21 8-21 17m-258-748c0 5 3 10 11 10 10 0 21-9 21-18 0-6-5-9-11-9-10 0-22 8-22 17m87 25c0 5 3 9 11 9 10 0 21-8 21-17 0-6-5-9-11-9-10 0-21 8-21 17m86 0c0 5 3 9 11 9 10 0 21-8 21-17 0-6-5-9-11-9-9 0-21 8-21 17m206 711c0 4 3 9 11 9 11 0 21-9 21-17 0-6-5-9-11-9-9 0-21 8-21 17m-120-736c0 5 3 10 11 10 11 0 21-9 21-18 0-6-5-9-11-9-9 0-21 8-21 17m191 724c0 4 3 9 11 9 10 0 21-9 21-18 0-5-5-9-11-9-10 0-21 8-21 17m-68-735c0 4 3 9 11 9 11 0 21-8 21-17 0-6-5-9-11-9-9 0-21 8-21 17m138 723c0 4 3 9 11 9 11 0 21-8 21-17 0-6-5-9-11-9-9 0-21 8-21 17m-77-735c0 4 3 9 11 9 10 0 21-9 21-17 0-6-5-10-11-10-10 0-21 9-21 18m148 760c0 4 3 9 11 9 10 0 21-9 21-17 0-6-5-9-11-9-10 0-22 8-22 17m-77-773c0 5 3 9 12 9 10 0 21-8 21-17 0-6-5-9-11-9-10 0-22 8-22 17m148 773c0 4 3 9 11 9 11 0 21-9 21-17 0-6-5-9-11-9-9 0-21 8-21 17m-87-736c0 5 3 10 11 10 10 0 21-9 21-18 0-6-5-9-11-9-10 0-21 8-21 17m158 748c0 5 3 9 11 9 10 0 21-8 21-17 0-6-5-9-11-9-10 0-22 8-22 17m-97-723c0 5 3 9 11 9 11 0 21-8 21-17 0-6-5-9-11-9-9 0-21 8-21 17m106 13c0 4 3 9 11 9 11 0 22-9 22-17 0-6-5-10-12-10-9 0-21 9-21 18m71 0c0 4 3 9 11 9 10 0 21-9 21-17 0-6-5-10-11-10-9 0-21 9-21 18m28 723c0 4 3 9 11 9 10 0 21-9 21-17 0-6-5-10-11-10-10 0-21 9-21 18m43-761c0 5 3 10 11 10 10 0 21-9 21-18 0-6-5-9-11-9-10 0-21 8-21 17m27 761c0 4 3 9 11 9 11 0 22-9 22-17 0-6-5-10-12-10-9 0-21 9-21 18m33-761c0 5 3 10 11 10 11 0 21-9 21-18 0-6-5-9-11-9-9 0-21 8-21 17M220 633c0 4 3 9 11 9 11 0 22-8 22-17 0-6-5-9-12-9-9 0-21 8-21 17m74 0c0 4 3 9 11 9 11 0 22-8 22-17 0-6-5-9-12-9-9 0-21 8-21 17"/>
	<path d="M31 406c0 6 5 15 18 15 5 0 9-1 12-4 6-3 7-10 7-16l-1-14-2-9c10-3 17-13 17-23 0-15-11-26-25-26l-3-17c11-11 18-23 18-39 0-9-3-17-4-20-3-5-6-9-8-9l-7 5c-6 8-8 21-8 29l2 21-7 7c-9 9-21 21-21 41 0 18 16 33 34 33l8-1 3 22c0 10-5 16-15 16l-5-1c5-1 10-5 10-12 0-5-4-11-12-11-7 0-11 6-11 13m21-133c0-4 5-14 10-14 2 0 4 5 4 11 0 11-8 19-14 25l-2-12 2-10m8 102-5 1c-15 0-27-10-27-25 0-12 9-23 17-31l5-4 3 14c-10 3-16 12-16 22 0 7 6 16 14 16l1-1-2-2c-4-3-6-5-6-10 0-6 5-11 11-12l5 32m14-18c0 7-3 14-10 17l-5-32c9 0 15 6 15 15M31 169c0 6 5 15 18 15 5 0 9-1 12-3 6-4 7-11 7-17l-1-14-2-9c10-3 17-13 17-23 0-15-11-25-25-25l-3-18c11-11 18-23 18-39 0-9-3-16-4-20-3-5-6-8-8-8l-7 5c-6 7-8 20-8 28l2 21-7 8c-9 8-21 20-21 40 0 18 16 33 34 33l8-1 3 22c0 10-5 16-15 16l-5-1c5-1 10-5 10-11s-4-11-12-11c-7 0-11 5-11 12M52 36c0-4 5-14 10-14 2 0 4 5 4 12 0 10-8 18-14 24l-2-12 2-10m8 102-5 1c-15 0-27-10-27-25 0-12 9-23 17-30l5-5 3 14c-10 3-16 12-16 22 0 7 6 16 14 16l1-1-2-2c-4-3-6-5-6-10 0-6 5-11 11-12l5 32m14-18c0 7-3 14-10 17l-5-32c9 0 15 6 15 15M31 642c0 7 5 16 18 16 5 0 9-2 12-4 6-3 7-10 7-16l-1-14-2-9c10-3 17-13 17-24 0-15-11-25-25-25l-3-17c11-11 18-24 18-39 0-9-3-17-4-20-3-5-6-9-8-9l-7 5c-6 8-8 21-8 29l2 21-7 7c-9 9-21 21-21 41 0 18 16 33 34 33l8-1 3 22c0 10-5 15-15 15h-5v-1c5 0 10-4 10-11 0-5-4-11-12-11-7 0-11 6-11 12m21-132c0-4 5-14 10-14 2 0 4 4 4 11 0 11-8 18-14 25l-2-12 2-10m8 102-5 1c-15 0-27-10-27-25 0-12 9-23 17-31l5-4 3 14c-10 3-16 12-16 22 0 6 6 16 14 16l1-1-2-3c-4-2-6-4-6-9 0-6 5-11 11-13l5 33m14-18c0 7-3 14-10 17l-5-32c9 0 15 6 15 15M31 879c0 7 5 16 18 16 5 0 9-2 12-4 6-4 7-10 7-16l-1-14-2-9c10-3 17-14 17-24 0-15-11-25-25-25l-3-17c11-11 18-24 18-39 0-9-3-17-4-20-3-5-6-9-8-9l-7 5c-6 8-8 20-8 29l2 21-7 7c-9 8-21 21-21 40s16 34 34 34l8-1 3 22c0 10-5 15-15 15h-5v-1c5-1 10-5 10-11 0-5-4-11-12-11-7 0-11 6-11 12m21-132c0-4 5-15 10-15 2 0 4 5 4 12 0 11-8 18-14 25l-2-12 2-10m8 102h-5c-15 0-27-9-27-24 0-13 9-23 17-31l5-4 3 14c-10 3-16 12-16 21 0 7 6 17 14 17l1-1-2-3c-4-2-6-5-6-9 0-7 5-11 11-13l5 33m14-18c0 7-3 14-10 17l-5-32c9 0 15 6 15 15m-43 285c0 7 5 15 18 15 5 0 9-1 12-3 6-4 7-10 7-17l-1-14-2-8c10-4 17-14 17-24 0-15-11-25-25-25l-3-17c11-11 18-24 18-40 0-9-3-16-4-19-3-6-6-9-8-9l-7 5c-6 8-8 20-8 29l2 21-7 7c-9 8-21 20-21 40 0 19 16 33 34 33h8l3 21c0 11-5 16-15 16h-5v-1c5-1 10-5 10-11 0-5-4-11-12-11-7 0-11 6-11 12m21-132c0-4 5-15 10-15 2 0 4 5 4 12 0 10-8 18-14 25l-2-12 2-10m8 102h-5c-15 0-27-10-27-25 0-12 9-22 17-30l5-4 3 14c-10 2-16 12-16 21 0 7 6 17 14 17l1-2-2-2c-4-2-6-5-6-10 0-6 5-11 11-12l5 33m14-19c0 7-3 15-10 18l-5-32c9 0 15 6 15 14"/>
	<path d="m130 33 1-1v-6l-1-2-4 1V10h-3v16l-8 1V13h-3v15l-4 1-1 1v6l2 1h3v16l-4 1-1 1v6l2 1h3v14h3V61l8-2v14h3V59l4-1 1-1v-6l-1-2-4 1V34l4-1m-15 3 8-2v17l-8 2V36m42 34 1-1v-6l-1-1h-4V47h-2v16l-9 2V51h-3v14l-4 1-1 1v6l2 2 3-1v16l-4 1-1 1v6l2 2 3-1v15h3V98l9-1v14h2V96l4-1 1-1v-6l-1-1h-4V71l4-1m-15 3 9-1v16l-9 2V73m-12 434 1-2v-5l-1-2-4 1v-15h-3v15l-8 2v-14h-3v15l-4 1-1 1v6l2 1 3-1v17l-4 1-1 1v6l2 1 3-1v15h3v-15l8-2v14h3v-15h4l1-2v-5l-1-2-4 1v-17h4m-15 3 8-2v16l-8 2v-16m42 34 1-1v-6l-1-2-4 1v-15h-2v16l-9 1v-14h-3v15l-4 1-1 1v6l2 1h3v16l-4 1-1 1v6l2 1h3v14h3v-15l9-2v14h2v-14l4-1 1-1v-6l-1-2-4 1v-16l4-1m-15 3 9-2v17l-9 1v-16m-12 197 1-2v-6l-1-1-4 1v-15h-3v15l-8 2v-14h-3v15h-4l-1 2v6l2 1 3-1v17h-4l-1 2v6l2 1 3-1v15h3v-15l8-2v14h3v-15h4l1-2v-6l-1-1-4 1v-17h4m-15 3 8-2v16l-8 2v-16m42 34 1-2v-5l-1-2-4 1v-15h-2v15l-9 2v-14h-3v15l-4 1-1 1v6l2 1 3-1v17l-4 1-1 1v6l2 1 3-1v15h3v-15l9-2v14h2v-14l4-1 1-2v-5l-1-2-4 1v-16l4-1m-15 3 9-2v16l-9 2v-16m-12-514 1-2v-5l-1-2-4 1v-15h-3v16l-8 1v-14h-3v15l-4 1-1 1v6l2 1h3v16l-4 1-1 1v6l2 1h3v14h3v-15l8-2v14h3v-14l4-1 1-2v-5l-1-2-4 1v-16l4-1m-15 3 8-2v17l-8 1v-16m42 34 1-1v-6l-1-2-4 1v-15h-2v16l-9 2v-14h-3v14l-4 1-1 1v6l2 1h3v16l-4 1-1 1v6l2 1h3v15h3v-16l9-2v14h2v-14l4-1 1-1v-6l-1-2-4 1v-16l4-1m-15 3 9-2v17l-9 2v-17m-12 670 1-1v-6l-1-1-4 1v-15h-3v15l-8 2v-14h-3v15h-4l-1 2v5c0 2 1 2 2 2l3-1v17h-4l-1 2v5c0 2 1 2 2 2l3-1v15h3v-15l8-2v14h3v-15l4-1 1-1v-6l-1-1-4 1v-17l4-1m-15 4 8-2v16l-8 2v-16m42 34 1-2v-6l-1-1-4 1v-15h-2v15l-9 2v-14h-3v15l-4 1-1 1v6l2 1 3-1v17l-4 1-1 1v6l2 1 3-1v15h3v-15l9-2v14h2v-15h4l1-2v-6l-1-1-4 1v-17h4m-15 3 9-2v16l-9 2v-16"/>
	<path d="M206 64c-6 0-8 2-9 3l-1-5c0-6 2-13 9-13 3 0 4 1 5 2-2 1-4 3-4 6s3 6 7 6c3 0 6-3 6-6v-4c-2-3-6-9-16-9-9 0-15 9-17 14-1 2-3 7-3 12 0 6 2 13 8 18s9 5 13 5c3 0 16-4 16-16 0-9-7-13-14-13m-3 25c-4 0-6-5-6-10 0-6 2-10 6-10s6 4 6 10c0 5-3 10-6 10m11 27c3-3 5-6 5-10 0-7-8-13-17-13-10 0-18 6-18 13 0 4 1 8 6 11-4 2-7 6-7 11 0 8 9 14 19 14s19-6 19-14c0-5-2-10-7-12m-6-3c-7-2-14-5-14-10 0-4 4-5 8-5 6 0 10 3 10 7 0 5-2 7-4 8m-6 24c-7 0-12-4-12-9 0-7 5-9 5-9 7 3 17 6 17 11 0 3-4 7-10 7"/>
	<path d="M1593 943c-10-10-18-11-23-11s-13 1-23 11c-4 5-8 16-8 21 0 2 1 3 2 3 2 0 1-8 9-17 8-7 17-7 20-7s12 0 20 7c8 9 7 17 9 17 1 0 2-1 2-3 0-5-3-16-8-21m-30 19a7 7 0 1 0 14 0 7 7 0 0 0-14 0m579-269c-10-10-18-11-23-11s-14 1-23 11c-5 5-8 16-8 21l1 4c3 0 2-9 10-17 7-8 17-8 20-8 2 0 12 0 20 8s6 17 9 17l2-4c0-5-4-16-8-21m-30 19a7 7 0 1 0 14 0 7 7 0 0 0-14 0"/>
	<path d="m1639 711 185 12v12l-185-12v-12M220 1078l143 6v12l-143-6v-12m73-16-27-1v13l27 1v-13m1585-613 214 6v13l-214-7v-12M250 542h150v12H250v-12m1123 436 143 7v12l-143-6v-13m317-966 131-12v12l-131 13V12m376 0 131-12v12l-131 13V12M739 43h131v13H739V43M431 1078l144 12v13l-144-13v-12m74-13-28-2v12l28 3v-13m-33-523 150-6v12l-150 6v-12m1436-305 123 12v13l-123-13v-12m-981 0 175 6v12l-175-6v-12m847 754 143-13v13l-143 12v-12m73 12-27 3v12l27-2v-13m138-18 144 6v12l-144-6v-12m73 22-27-2v13l27 1v-13m45-190h185v12h-185v-12m93-19h-27v13h27v-13M250 698l185 6v13l-185-6v-13m2027-430h62v12h-62v-12"/>
	<path d="m1837 259 1 2c4 1 13 6 19 17 2 3 5 8 5 16a63 63 0 0 1-5 23l1 1 2-1c4-8 6-17 6-26-1-13-8-23-8-23l-12-16-5-12-1-4h-1l-2 1v22M619 78l1 1c4 2 13 7 19 18 2 3 5 8 5 16a63 63 0 0 1-5 23l1 1 2-1c4-8 6-17 6-26-1-13-8-23-8-23l-12-16c-4-6-5-11-5-12l-1-4h-2l-1 1v22m929 668v1c5 1 13 6 20 17 1 3 4 8 4 16a63 63 0 0 1-4 23l1 1 1-1c5-8 6-17 6-26 0-13-8-22-8-22l-11-17c-4-5-6-11-6-11l-1-4-1-1-1 1v23m-220 12 1 1c4 1 13 7 19 18 2 3 5 7 5 15a63 63 0 0 1-5 24h1l2-1c4-8 6-17 6-26-1-13-8-22-8-22l-12-16-5-12-1-4-2-1-1 2v22M484 91l1 1c4 1 13 7 19 18 2 3 5 7 5 15a63 63 0 0 1-5 23l1 1 2-1c4-8 6-17 6-26-1-13-8-22-8-22l-12-17c-4-5-5-11-5-11l-1-4-2-1-1 1v23m1196 430 1 1c4 2 12 7 19 18 2 3 5 7 5 16a63 63 0 0 1-5 23l1 1 1-1c5-8 6-18 6-27 0-12-7-22-7-22l-12-16-6-12-1-4-1-1-1 2v22M300 47l1 1c4 2 13 7 19 18 2 3 5 8 5 16a63 63 0 0 1-5 23l1 1 1-1c5-8 7-17 7-26-1-13-8-23-8-23l-12-16-6-12-1-4h-1l-1 1v22m953 954v1c5 1 13 7 20 18 1 3 4 7 4 15a63 63 0 0 1-4 24l1 1 1-2c5-7 6-17 6-26 0-13-8-22-8-22l-11-16-6-12-1-4-1-1-1 2v22M615 758l1 1c4 1 13 7 19 18 2 3 5 7 5 15a63 63 0 0 1-5 24h1l2-1c4-8 6-17 6-26 0-13-8-22-8-22l-12-16-5-12-1-4-1-1-2 2v22m1591-443v1c5 2 13 7 20 18 2 3 4 7 4 16a63 63 0 0 1-4 23l1 1 1-1c5-8 6-17 6-27 0-12-7-22-7-22l-12-16-6-12-1-4h-1l-1 1v22m117-268 1 1c4 2 13 7 19 18 2 3 5 8 5 16a63 63 0 0 1-5 23l1 1 2-1c4-8 6-17 6-26-1-13-8-23-8-23l-12-16-5-12-1-4h-2l-1 1v22m-841 256v1c5 1 13 7 20 18 1 3 4 7 4 15a63 63 0 0 1-5 23l2 1 1-1c4-8 6-17 6-26 0-13-8-22-8-22 1 0-9-12-11-17-4-5-6-11-6-11l-1-4-1-1-1 1v23m88-256 1 1c4 2 12 7 19 18 2 3 5 8 5 16a63 63 0 0 1-5 23l1 1 1-1c5-8 6-17 6-26 0-13-7-23-7-23l-12-16-6-12-1-4h-1l-1 1v22m-459 948 1 1c4 1 13 7 19 18 2 3 5 7 5 15a63 63 0 0 1-5 23l1 1 2-1c4-8 6-17 6-26 0-13-8-22-8-22l-12-17-5-11-1-4-1-1-2 1v23m543 31 1 1c4 1 12 7 19 18 2 3 5 7 5 15a63 63 0 0 1-5 23l1 1 1-1c5-8 7-17 7-26-1-13-8-22-8-22l-12-17c-4-5-5-11-6-11a312 312 0 0 1-2-5l-1 1v23m-382-754 1 1c4 1 13 7 19 18 2 3 5 7 5 15a63 63 0 0 1-5 23l1 1 2-1c4-8 6-17 6-26-1-13-8-22-8-22l-12-17-5-11-1-4-1-1-2 1v23M953 540v1c5 1 13 7 20 18 1 3 4 7 4 15a63 63 0 0 1-5 23l2 1 1-1c5-8 6-17 6-26 0-13-8-22-8-22 1 0-9-12-11-17-4-5-6-11-6-11l-1-4-1-1-1 1v23m1348-81v1c5 2 13 7 20 18 2 3 4 7 4 16a63 63 0 0 1-4 23l1 1 1-1c5-8 6-18 6-27 0-12-7-22-7-22l-12-16-6-12-1-4-1-1-1 2v22M835 746l1 1c4 1 12 6 19 17 2 3 5 8 5 16a63 63 0 0 1-5 23l1 1 1-1c5-8 6-17 6-26 0-13-7-22-7-22l-12-17c-4-5-6-11-6-11l-1-4-1-1-1 1v23M1947 47v1c5 2 13 7 20 18 1 3 4 8 4 16a63 63 0 0 1-5 23l2 1 1-1c4-8 6-17 6-26 0-13-8-23-8-23l-11-16-6-12-1-4h-1l-1 1v22m94 711 1 1c4 1 13 7 19 18 2 3 5 7 5 15a63 63 0 0 1-5 24h1l2-1c4-8 6-17 6-26-1-13-8-22-8-22l-12-16-6-12-1-4-1-1-1 2v22M804 284l1 1c4 2 13 7 19 18 2 3 5 7 5 16a63 63 0 0 1-5 23l1 1 2-1c4-8 6-18 6-27-1-12-8-22-8-22l-12-16-5-12-1-4h-1l-2 1v22m802 281 1 1c4 1 12 6 19 17 2 3 5 8 5 16a63 63 0 0 1-5 23l1 1 1-1c5-8 7-17 7-26-1-13-8-22-8-22l-12-17-6-12-1-3-1-1-1 1v23m152-44 1 1c4 2 13 7 19 18 2 3 5 7 5 16a63 63 0 0 1-5 23l1 1 2-1c4-8 6-18 6-27-1-12-8-22-8-22l-12-16c-4-6-5-12-5-12l-1-4-2-1-1 2v22m-104-237 1 1c4 2 13 7 19 18 2 3 5 7 5 16a63 63 0 0 1-5 23l1 1 2-1c4-8 6-18 6-27-1-12-8-22-8-22l-12-16-6-12-1-4h-1l-1 1v22m-636 480v1c5 2 13 7 20 18 1 3 4 7 4 16a63 63 0 0 1-5 23l2 1 1-1c4-8 6-18 6-27 0-12-8-22-8-22l-11-16-6-12-1-4-1-1-1 2v22m-268 338 1 2 2-1 1-4 4-10 15-18c5-7 8-14 8-22 0-9-2-17-8-26l-1-2-1 1v2c4 9 6 14 6 22s-3 12-5 15c-6 11-17 16-21 18l-1 1v22m55-618v1c5 1 13 7 20 18 1 3 4 7 4 15a63 63 0 0 1-4 23l1 1 1-1c5-8 6-17 6-26 0-13-8-22-8-22l-11-16-6-12-1-4-1-1-1 1v23M509 290l1 2c4 1 12 6 19 17 2 3 5 8 5 16a63 63 0 0 1-5 23l1 1 1-1c5-8 6-17 6-26 0-13-7-23-7-23l-12-16-6-12-1-4h-1l-1 1v22m341 705 1 1c4 1 13 7 19 18 2 3 5 7 5 15a63 63 0 0 1-5 23l1 1 2-1c4-8 6-17 6-26-1-13-8-22-8-22l-12-17-5-11-1-4-1-1-2 1v23M336 284l1 1c4 2 13 7 19 18 2 3 5 7 5 16a63 63 0 0 1-5 23l1 1 2-1c4-8 6-18 6-27-1-12-8-22-8-22l-12-16-5-12-1-4h-1l-2 1v22m979-193 1 1c4 1 13 7 19 18 2 3 5 7 5 15a63 63 0 0 1-5 23l1 1 2-1c4-8 6-17 6-26-1-13-8-22-8-22l-12-17c-4-5-5-11-6-11l-1-4-1-1-1 1v23m-135 0 1 1c4 1 12 7 19 18 2 3 5 7 5 15a63 63 0 0 1-5 23l1 1 1-1c5-8 7-17 7-26-1-13-8-22-8-22l-12-17c-4-5-5-11-6-11l-1-4-1-1-1 1v23M921 995l1 1c4 1 13 7 19 18 2 3 5 7 5 15a63 63 0 0 1-5 23l1 1 2-1c4-8 6-17 6-26-1-13-8-22-8-22l-12-17c-4-5-5-11-5-11l-1-4-2-1-1 1v23m75-929 1 1c4 1 12 7 19 18 2 3 5 7 5 15a63 63 0 0 1-5 24h1l1-1c5-8 6-17 6-26 0-13-7-22-7-22l-12-16-6-12-1-4-1-1-1 2v22m394 499v1c5 1 13 6 20 17 1 3 4 8 4 16a63 63 0 0 1-5 23l2 1 1-1c4-8 6-17 6-26 0-13-8-22-8-22l-11-17-6-12-1-3-1-1-1 1v23m-212 0 1 1c4 1 13 6 19 17 2 3 5 8 5 16a63 63 0 0 1-5 23l1 1 2-1c4-8 6-17 6-26-1-13-8-22-8-22l-12-17c-4-6-5-11-5-12l-1-3-2-1-1 1v23"/>
	<path d="M265 979c0 2 2 4 5 4s5-2 5-5-2-4-5-4-5 2-5 5m459 24c0 3 2 5 5 5s5-2 5-5-2-5-5-5-5 3-5 5m-77-661c0 3 2 5 5 5 2 0 5-2 5-5s-3-5-5-5c-3 0-5 3-5 5m1503 25c0 3 2 5 5 5s5-2 5-5-2-5-5-5-5 2-5 5m-700-212c0 3 2 5 5 5s5-2 5-5-2-5-5-5-5 2-5 5m-974 848c0 3 2 5 5 5s5-2 5-5-2-5-5-5-5 3-5 5m1772 100c0 2 2 4 5 4s5-2 5-4-2-5-5-5-5 2-5 4m-101-360c0 2 2 5 5 5s5-3 5-5-2-5-5-5-5 2-5 5m-147 336c0 2 2 5 5 5s5-3 5-5-2-5-5-5-5 2-5 5m-453-449c0 3 2 5 5 5s5-2 5-5-2-5-5-5-5 2-5 5m242 449c0 2 2 5 5 5s5-3 5-5-2-5-5-5-5 2-5 5m-629-262c0 3 3 5 5 5 3 0 5-2 5-5s-2-5-5-5c-2 0-5 2-5 5"/>
</svg>
