<?xml version="1.0" encoding="utf-8"?>
<svg xmlns="http://www.w3.org/2000/svg" version="1.1" viewBox="0 0 1294 937">
	<title>Sketch of a winding path going up and around a small embankment, with two trees at the top.</title>
	<path d="M13 936a62 62 0 0 1 18-18l5-4 6-4 4-3 3-4 7-4 7-5 6-6c3-3 5-4 4-2l-3 4-2 4-4 3-7 6-8 10c-4 3-5 4-6 1 0-2 0-1-2 1 0 2-3 5-5 6l-5 3-2 2-4 2-11 9-1-1zM3 924l-1-4c0-2 1-2 2-1 1 2 4 1 4-1 0-3 19-21 22-21l2-4-2-4-1 1c1 1-1 3-4 4l-14 10c-8 7-10 8-11 7 0-2 1-4 6-9 4-4 10-8 13-9l5-5c1-1 2-2 3-1l8-1c3-1 7-3 10-7 3-3 5-6 5-8l5-9c3-6 4-6 7-6 3 1 3 1 3-3l-4-17c-1-1-2 0-4 1l-4 2-1-5-2-6c-3-1-4 2-3 5 1 1 0 2-1 2l-4 1c-3-1-4-2-4-5l-1-6c-1-3-2-3-5-2l-5-1 1-4c3-2 9-1 15 3 3 2 6 4 7 3 1 0 5 2 8 6l8 7 2 2c0 2 2 4 4 2v-3l-1-4 7-1c3 0 5 0 6-2 2-4 3-10 2-12h-4l-4 1-1-3c0-1 1-2 2-1 2 1 3 0 4-3l1-7c1-2 1-3-1-3l-3 4c0 2-1 3-2 3l-2-1 2-5c2-3 3-4 8-4l10 2c5 2 17 1 18-1 0-1-1-2-3-2l-7-2-5-1c-1 2-5-2-5-5l2-6c1-3 3-4 7-4 7 0 7 0 4 9-1 2 0 3 2 3 4 0 7-2 7-5l-2-4-1-3c0-2-1-3-3-3-1 0-3-2-4-6-2-5-2-5-7-5s-5 0-6 4c0 3-2 5-3 5-1 1-2-1-4-6v-12l-1-11c-1-4-2-6-6-7-4-2-5-3-5-5s1-4 3-5 3-3 3-6c0-4-1-5-4-6l-4-4-2-4-2-5c-1-2-3-6-6-8-3-4-4-5-3-8 0-2 2-3 3-3l7 8 4 9c1 1 2 0 4-1 4-1 4-1 5 3 0 3 1 4 3 4s3-1 3-2a1956 1956 0 0 1 3-6l1 5c-1 3 0 6 1 8s2 4 3 3 1-6-1-13c-1-2 0-3 1-3l1 4 1 4c2 1 2-1 2-4 0-1 0-2 2-1l5 2c3 0 3 1 3 5l2 4 1-2 2-4c3-2 2-7-1-8-3 0-6-5-11-19l-3-3c-2 1-6-1-6-3l-3-4c-4-3-4-3-1-5 3-3 1-5-3-5-3 1-5 0-7-1l-3-5-2-2-3-6-5-18-5-13h2c3 0 5 5 6 11l1 6 7 12 6 11h3l4-1 5 6c1 3 3 5 4 5l5-4c2-3 4-4 6-3l11-3c6-3 8-4 9-3l1 4 1 1v-3l-1-6-8-10c-7-7-9-11-5-11l4 2 4 2c2 0 2-1 2-5v-3a2547 2547 0 0 1 11 4c0-2-3-5-6-8-4-3-6-6-6-7l-4-1-4-2v-9c0-4 0-5 1-4l1 6 2 5c2 1 2 1 2-3 0-2 1-4 2-3l2 5c1 5 2 6 4 3l-1-3v-3l2-1 1 5 2 9c2 3 4 4 5 3v-5l-2-5 3-1c2 0 2 1 2 3-1 3-1 4 1 4l4 2c3 1 2-2-1-5-2-2-2-2 1-5l2-3-2-4-4-8-1-13-2-15-2-10 4-3c3 0 3 1 3 10-1 7 0 11 1 12l7 14 3 4c4 0 4-4 0-9-3-5-5-12-6-26v-5l2 7c0 7 4 19 7 19h2l-3-7c-2-4-2-7-2-12 1-3 0-8-1-13l-3-9c-2-2-2-1-4 6 0 2-1 3-2 3l-1-10c0-10 0-11 3-10l2 2 2 3 3 1 1-3c0-1 1-1 2 2 0 2 2 4 3 4l4 2 1-7c0-4-1-7-2-7-1-1-2 0-2 1s-1 2-2 1l-3-1 1-2 2-5v-3l-4 6-3 5 1-9c2-1 2-4 0-4s-7 5-6 7v2l-2-1c0-2-4-2-7-1l-2 3c0 1 1 2 3 0 2-1 3-1 2 1l-2 10c-2 7-3 11-3 6l-3-4-3-6-1-4-2 4-3 5c-2 0-3 0-3-2l2-13 3-11c1-6 1 1 1 3l1 2 2-3c0-1 0-2 1-1l2-1 2-1h4c2 0 4-2 4-4 1-3-1-7-3-7l-3 3-2 2c-1-2-4-1-5 2v-1l-2-4-2 3c-1 3-1 3-2 1l-1-7c0-3-1-5-2-5l-2 1-2 2-2 2c0 4-2 7-5 8-2 1-3 1-4-2l-2-5-1-2-2 2-1 2-1-5c0-4-2-6-4-4l-2 1h-2l2 3c2 0 2 2 1 8-1 7-1 7 3 9 3 2 4 1 7-1l3-3 1 3 2 5 3-1c1-1 2-2 1-4l1-4 4-1c2 2 1 5-1 5l-2 11c0 7-1 11-2 12l-2 4-1 2-1-3 1-10c1-5 1-7-1-7-1 0-2 1-2 3v6l-1 4c0-1-2-3-2-7l-3-6-3 2c-1 4-3 1-3-4 0-4-1-6-2-5l-2 4c0 1-1 4-3 4-3 2-3 1-1-2 2-2 0-4-3-3h-2l1-4c1-3 1-3 1-1 1 7 7-2 7-9 1-3 0-5-1-5-1-1-2 0-2 1 0 3-6 7-8 6-1-1-3 0-4 2l-1 3 3 2c2 1 2 1 1 2l-5-2c-3-2-3-3-1-5l2-5c0-2 0-2 2-1 2 2 2 2 4 1l3-7c0-4 1-6 2-6l2-1-1-1-1-2 2-1c3 0 1-3-3-4-2 0-3 1-4 3l1 5-2 3c-4 2-4 2-4 0l2-4c2-2 2-4 2-9-2-9-2-26-1-27 0-1 2-2 5-2s4-1 5-6c0-4 2-7 3-8 3-2 3-3 2-6l-2-6-6-6-4-9c0-4 4-5 6-2 2 2 2 2 5-1 3-4 4-4 10-3l12 2h9c3-1 3-2 2-3l-3-1-5-2c-2-1-2-2 4-4l8-3 1 2c0 1 1 2 3 2 1 1 2 2 1 4l-2 5c-1 2-2 3-1 4l4 1c2 0 3-1 4-3l3-3 3-1c2-1 2 0 2 1-1 3 4 8 7 8l4-1c1-1 0-5-4-8-2-2-2-2 1-5l3-3-6-6-3 4-3 4-3 1-2 1c0-3 3-9 4-9l5-4 7-5c2 0 1-3-1-5h-5c-3 1-4 1-6-1l-2-6c0-5 3-11 6-12l7-1c4 0 5 0 5 2l2 4c2 0 3-1 5-3 3-4 3-4 5-1v6c-1 3 0 4 4 3 3 0 5 0 7 2l3 5c-1 2 0 2 4 1 3-1 5 0 7 1 2 2 3 5 3 7 0 5 0 5 4 5 5 0 5-1 4-3l-1-4-2-3-5-7c-1-3-5-5-6-5s-4-1-5-4l-5-4-4 3c-1 2-2 3-3 2l2-5c1-3 3-5 5-5 3 0 8 5 8 8s3 1 3-2c1-2 0-4-1-5-1-2 0-5 2-4l1 3c0 2 1 3 3 3l4-2c0-1 1-2 2-1l3-1-2-2c-2 0-1-1 1-1 3 0 5 1 7 3l2 3 2 3h3l2-4c0-2 10-12 13-12 1 1 1 1-1 2l-3 3v4c0 2-1 3-3 4l-2 2 3 1c3 0 9-5 8-8l4-2c3 0 3 0 3 2l2 4c1 0 2 3 2 7l-1 6-1 5-1 8c-1 1 0 3 2 5l3 4v1l2-4c2-2 2-6 2-10v-5l-2-13-1-5v-3c2 0 9 7 9 9l-2 5c-2 5-1 10 2 10 2 0 3 1 3 3l1 4c0 3 2 5 4 5 1-1 2-3 1-7 0-3-2-6-4-8l-3-4c1-1 2 0 2 1 1 2 4 0 4-2l2-4c2-3 2-3 4 0 2 2 2 2 4 1l2-3c-2-2 1-2 4 0 2 2 2 2 0 3l-6 4c-1 1-3 2-4 1l-2 2 1 3c2 2 9-1 13-5l3-3 2 6c0 4 1 5 4 6l3 1 2 2c2 0 3-1 3-2l-3-3c-2-2-3-2-1-3l5 1c1 1 2 3 1 6l1 3 4-6 4-4c2 0 3 3 0 5l-2 3 2 2 5-2c2-2 4-3 5-2 2 0 3 2 4 4l3 3 2-2c0-1 1-1 4 1 4 3 4 3 1 8l-1 6 4-1 3-3 5 3 5 6c0 1-1 2-3 2-3 0-8 6-7 8 0 1 0 2-1 1l-2-1c-1 0-2 1-2 3l-2 5c-2 3-2 3-1 4l5 1 2 3c1 3 1 3 8 3l8 2-1 2c-1 0-2 1-1 2l-1 3-1-2-1-2-7-1c-5 0-6 0-6 3-1 2-2 2-2 0l-5-1c-3 1-7 3-7 5l2 1 2-2h3c2 0 3 1 3 2l3 4 3 4c1 2 3 2 5 2 3 0 4 1 6 6s3 6 5 5c1-1 2-1 4 1l5 7 6 7 4 4 2 1 4 3 5 4c1 2 3 4 5 4l3 1 4 1 6 2c1 2 1 3-1 4-1 1-2 3-1 4l2 1 5-3 3-3 3 3 4 6c2 2 3 3 6 1 4-2 4-4 0-4-3 1-4 1-2-1 1-1 7-2 18-2 12 0 18-1 24-3l10-3h3c1-1 5-2 11-1h9l5-1 5 1v4c-2 2-3 2-5 1-1-2-2-2-4 0h-1l-2-3-1 2c0 2-2 2-8 2l-12 2c-3 2-4 2-6 1s-3-1-4 1c-1 1-1 2-2 0l-2-1-4 2c-2 1-3 2-5 1l-3-1-8 2-8 1-7 2-5 2-5 2-7 1c-1 0-4 3-7 3l-7 2-4 1c-4 0-4 0-3-2l1-4-2 1-4 2c-2 1-2 1 0 3 2 1 2 2-3 2l-7 3c-1 1-4 3-7 3s-6 2-8 3c-1 2-4 3-6 3l-12 1c-7 1-9 1-10-1l-3-1c-1 2-9 5-12 4s-8 3-7 4h10c17-3 18-3 18-2l-1 1-15 2c-12 1-21 3-23 5l-7 4c-5 3-18 5-22 5s-16 2-20 4l-5 2a88 88 0 0 0-26 9c-1 2-4 4-6 4l-11 6c-5 3-7 5-9 9l-3 6v-1l1-3c0-2-3-1-9 4l-8 4c-2 0-3 1-3 2l2 2 1 2c0 3 3 3 7 1l5-1c2 1 2 1 0 3l-10 5c-4 1-8 4-9 5l-6 3c-2 0-6 1-8 3l-7 5-4 4-3 5c-4 4-5 7-2 4h3c1 2-4 7-7 7-1 0-3 2-4 5l-6 8-9 6c-3 2-6 5-6 7l-1 12 2 10 2 10c1 6 1 8-1 9-2 2-2 2 0 4 3 3 3 5 2 22-1 19-1 20-5 22-2 0 0 5 3 6l3 2v19c0 11-1 20-2 21 0 2-3 4-5 5-5 3-12 10-12 12 0 3-8 10-16 17l-11 10-7 8c-2 2-5 6-5 8-2 4-13 13-20 16l-7 6-9 6c-4 2-6 4-7 6-1 4-7 9-10 8-1 0-3 1-3 3-2 3-5 5-7 3zm49-40-2-2-1 2 1 2 2-2zm18-20-1-4c-1-1-3-2-4-1s-2 7-1 9c2 1 6-2 6-4zm10-11c1-1 1-2-1-2-2-1-7 1-7 4 0 1 0 2 3 1l5-3zm9-8c0-1-1-2-2-1l-3 2 2 1c2 0 3 0 3-2zm5-7-2-2c-1-1-2 0-2 2s1 3 2 2l2-2zm4-1-1-2-1 2 1 2 1-2zm-3-9c-1-1-3 1-3 2h3v-2zm3-6 1-4-4-1c-2 0-4 1-5 4l-2 5c1 2 9-1 10-4zm17-3 2-3h-3c-2 0-3 1-3 2-1 3 2 4 4 1zm-11-5c2-2-3-6-5-4-1 2 0 5 3 5l2-1zm15-4h-2l-1 3h3v-3zm-24-1-2-1c-1 1-2-1-2-2-1-4-5-3-5 1l1 3c1 2 8 1 8-1zm23-13-1-2-1 2 1 2 1-2zm-13-2-1-1-2 1 2 1 1-1zm-2-5c1-1 0-2-1-3h-2c-2 1-1 4 1 4l2-1zm9-19-2-1-1 1 1 1 2-1zm-1-9-2-1-1 2 2 1 1-2zm-21 0-1-1-1 1 1 1 1-1zm16-15c0-14 0-16 3-19l3-7c1-2 1-3-1-3l-2-2h-1c-1 0-2 2-1 4l-1 3-1-3-1-3-4 1c-2 2-2 2 0 6s2 9 2 20v17l2 2c2 0 2-3 2-16zm-11 12c1-1-2-3-3-2-2 1-1 3 1 3l2-1zm18-6c-2-1-4 1-3 2h2l1-2zm-15-1-1-3-2-4c0-6-1-7-3-7l-2-2c0-2 1-2 5-1 4 0 5 0 5-3l-2-6c-3-3-7-4-8-1-1 1-1 0-2-2 0-1-1-3-3-3s-3 4-2 6l2 5 2 7 2 8c0 3 1 4 3 4l3 2c1 2 3 2 3 0zm15-4-1-2-2 1 2 1h1zm-3-10-1-3-1 3 1 2 1-2zm6-8-2-2c-2 0-3 2-1 3 1 2 3 0 3-1zm4-11-2-1-1 1 1 1 2-1zm-35-5-1-2-2 2 2 2 1-2zm19-1-2-1h-1l1 2 2-1zm-24-4-2-2v4c1 2 3 0 2-2zm28 1-2-1v2c1 2 2 2 2-1zm8-28c0-2-1-2-3 1-2 2-3 3-2 5s1 2 4-1c1-1 2-3 1-5zm1-5-1-2c-2 0-3 2-2 3 1 2 3 1 3-1zm1-5-1-2-1 2 1 2 1-2zm-24-2c0-2-1-3-3-2-1 1 0 3 2 3l1-1zm48-19-2-7c-1-4-2-5-4-5l-3 3 3 6c2 3 4 4 5 4l1-1zm16-21c0-1 0-2-1-1l-2 2c-1 1 0 1 1 1l2-2zm-7-3-1-1-1 1 1 1 1-1zm15-2 4-3-2-3-3 2-4 2c-3 0-3 2-2 3l2 1 5-2zm3-11-3-3-4-1-1 2c0 1 2 3 6 3l2-1zm15-3-2-1c-2 0-3 1-1 3 1 1 3 0 3-2zm-11-2-3-3c-3-1-4-1-5 1 0 2 2 4 5 4l3-2zm-15-2c0-3-3-6-4-4s1 7 2 7c2 0 2-1 2-3zm7-3-3-4c-4-4-5-1-3 4 2 4 2 4 4 3l2-3zm-7-10-4-2-2-1 2-3 1-2-4-2c-3 0-3 1-3 4l2 9 2 5 3-4 3-4zm22 7c0-2-11-11-13-11-1 0-2 0-1 1l-1 3c-2 3-1 5 2 2 2-1 3-1 6 2 3 4 7 5 7 3zm10-3-4-3-4 1 2 2 2 1 2 1c2 0 2-1 2-2zm7-4c0-1-1-2-3-2s-3 2-2 3c2 1 5 0 5-1zm-18-4-5-4c-2 0-1 4 1 6l5 2h3zm11 1-3-2c-2-1-2-1-1 1 2 3 5 3 4 1zm11-7 1-4-1-2c-3 1-7 11-6 12s6-4 6-6zm-31 3c0-2-2-3-4-2v2c1 2 4 2 4 0zm11-6-4-3c-2 0-1 3 2 6 2 2 3 3 4 2s0-3-2-5zm14 2-1-1-1 1 1 1 1-1zm12-1c0-1 0-2-2-2l-3 2 2 1 3-1zm-38-2-1-1-2 1 2 2 1-2zm23 1 3-1 1-3-1-3c-1-1-6 4-6 6s2 2 3 1zm-19-3v-2l-3-5c-2-3-2-4 0-3s2 0 1-4v-4a10627 10627 0 0 0 8 16c2 0 2 0 2-2-1-2 0-5 1-7 2-2 3-3 1-6l-2-5-2-4-2-4-3 3-4 5c0 2 0 2-1 0l-1-3v-1l-2 5c0 3 0 5-2 5s-2 1-1 5a19 19 0 0 0 9 13l1-2zm39-2-2-3c-1-1-4 3-3 5 1 1 5 0 5-2zm-27-1-1-1-1 1 1 1 1-1zm7-4 1-3-5-1-4 2c0 2 2 5 5 5l3-3zm34 0 2-3h-5c-1 1-2 2-1 4l2 2s2-1 2-3zm-18-3h1-3c-1 0-2 1-1 2h1l2-2zm10-3c0-2-2-3-3-1s1 5 2 4l1-3zm26 1c4-1 2-3-2-3-5 0-6 1-4 3h6zm-10-3-2-1c-2 0-2 1-1 3 1 1 3 0 3-2zm-32-1c0-3-2-4-3-2s0 4 2 4l1-2zm-15-2v-4l3 3c2 3 3 3 7 1l5-5v-3l-2 2-2 1-3 2c0 2 0 2-2 0v-3h3l-1-3-2-9c0-3-1-5-3-5-1 0-2 2-1 7 0 6 0 6-2 4-2-3-2-3-3 0-1 4-1 11 1 13l2 2v-3zm26 2-2-3h-3l-2 3 4 1 3-1zm13-1-2-2c-3 0-4 1-2 3 1 1 3 1 4-1zm25-1-1-5-1-1-1 4c0 3 1 5 2 5s2-1 1-3zm-34 0-1-4c0-2-3-2-4-2h-2l2 4 3 2h2zm51-7-2-2-3 1 1 4c1 3 1 3 2 2l2-5zm-37 3-2-1-1 1 2 2 1-2zm31-1-1-1-1 1 1 1 1-1zm15-3c0-2-4-6-5-5l1 5c1 2 2 3 3 2l1-2zm11 2c0-1-3-4-5-4l1 2c1 3 4 4 4 2zm-70-2-2-1-1 1c-1 1 0 2 1 2 2 0 2-1 2-2zm18 0-2-2c-1 0-2 2-1 3s3 1 3-1zm20 0-2-1-1 1 1 2 2-2zm6-1-2-1-2 1 2 1 2-1zm43-3c3-3 3-4 0-5-1-1-1-1 2-1 2 0 3 1 4 3s1 2 2-1c0-5-2-8-4-5-1 1-1 1-2-1l-1-3-3 3c-2 3-3 5-3 9 0 3 1 5 2 5l3-4zm-137 1c0-3-3-4-4-2l-1 3c1 2 5 1 5-1zm62 0c0-1 0-2-2-3h-2v3c1 2 3 2 4 0zm-48-3c0-1 0-2-2-2-1 0-2 1-2 3s3 1 4-1zm97-2-2-1c-2 2 0 5 2 5 1-1 2-2 0-4zm-77 2-1-2-2 2 1 1 2-1zm39 0c0-1-4-6-6-6s-1 4 2 6h4zm-73-3c-1-2-4-2-4 0 0 1 3 3 4 2v-2zm45 0c0-3-3-6-6-7-3 0-2 4 0 6 2 0 2 1 1 1-3 0 0 3 2 3s3-1 3-3zm-35 0 1-10 2-10 1 6c-1 5-1 6 2 7 3 0 5 0 6-2l4-2c2 0 3 0 3-2l2-1 2-2c0-2-1-3-3-3-3 0-4 1-5 4s-2 3-3 1l-3-2-1-1 3-2 3-1 2-1 2-1c0-2 3-2 6-1 2 1 3 1 4-2v-5c-1-1-1-1-2 1-2 2-8 3-8 1l-2-1h-2l-2-2-1 3c0 3 0 3-2 1-2-1-2-1-2 1 0 3-2 3-4 0l-2-2-2 1 2 3c2 2 2 2 0 2s-3 1-2 3c0 2-1 1-2-1l-2-4-1 5 1 4 1 8c-1 7-1 8 1 8l3-1zm7-9 1-2c1-1 1 0 1 1-1 2-2 3-2 1zm6-14-1-3h2l1 3h-2zm100 22-2-1c-1 1-2-1-3-3l-3-3-1 3c0 3 1 4 4 5 4 1 6 1 5-1zm-32-2c2-3-1-5-3-2l-2 4c0 2 3 1 5-2zm-36-2c-1-1-3 1-3 3h3v-3zm-57 1-2-1-2 1 2 1 2-1zm88-6c-1-5-4-10-4-6l-1 3-5-4v-3l-3-3-2 4v6l4 5c1 1 2 1 1-1l2-1 1 2 1 1c2-1 2 0 2 1s1 2 3 2c1 0 2-1 1-6zm65 3v-4l4 4c2 2 4 3 5 2l-1-3-1-5-3-1-4-2c-2-2-6 0-6 2l1 2 2 1v4c0 2 1 3 2 3s2-1 1-3zm-166-2-1-1-2 3c0 1 1 2 2 1l1-3zm140 1-1-3c-2 0-3 3-2 4 1 3 3 2 3-1zm59 1-1-2h-5l-2 3h3l5-1zm-138-2-3-3-3-3c0-3-2-3-4-1 0 1 1 3 4 5 4 4 6 5 6 2zm7 1-5-4c-1 2 1 5 3 5l2-1zm5-2-1-2-1-2-2-2-2 1 2 3 2 2 1 2 1-2zm116-1c2-4 0-4-4-2-1 1-2 2-1 3l2 2 3-3zm-138-1-2-1-1 1 1 1 2-1zm69 0-2-1-2 1 2 1 2-1zm58 0-2-1-1 1 2 1 1-1zm-53-1-1-2-1 2 2 1v-1zm26 0-2-2-1 2 1 1 2-1zm4 0v-2c-1-1-2 0-2 1-1 2 1 3 2 1zm42-2-2-1c-3 0-4 1-2 3 1 1 4 0 4-2zm-220 0-1-2-1 2 1 2 1-2zm9 0 1-9v-7l-1 2-1 2c-2 0-3 5-1 11 0 3 2 4 2 1zm76-3c1-3 0-3-2-3s-3 1-4 4c0 2 0 3 3 2 2 0 3-1 3-3zm88-1c0-1 2-2 3-1l2-1-2-2c-3-1-9 4-9 6 0 3 5 1 6-2zm25 3c0-2-2-4-5-4-4-1-4 2 0 4 3 1 5 2 5 0zm32 0-2-1-1 1 1 1 2-1zm10 0-1-4c-1-1-2-2-3 0v3l3 2 1-1zm-89-3-1-2-2 2c0 2 1 3 2 3l1-3zm5 1-1-2-1 2 1 2 1-2zm-66-1-2-1-1 1 1 2 2-2zm37 0-1-1-2 1 2 2 1-2zm58 0h2c1 1 1 0 2-1 1-2-2-3-5-2-2 0-4 2-4 3 0 2 4 2 5 0zm39 0v-2h-2c-1 1-2 1-2-1l-5-2c-3 0-4 1-4 3s1 2 2 2h3c1 2 7 2 8 0zm-220-6-1-2c-2 0-4 4-3 7 0 2 1 2 2-1l2-4zm104 4-1-1-1 2 1 1 1-2zm59 0c1-3 1-4-1-6l-5-4 1 11 2 1 3-2zm60-1v-2c2-1 2-1 0-3h-3c-1 1-1 2 1 4l2 3v-2zm-88-1-2-1-2 1 2 2 2-2zm105-2c0-2 0-3-2-2l-4 2c-1 2 1 4 3 3 2 0 3-1 3-3zm-152 0-1-1-1 2 1 1 1-2zm14 0-2-1-1 1 1 2 2-2zm92 0-2-2-1 2 1 1 2-1zm6 0 1-3c1-2 0-3-1-3-2 0-2 1-2 2 1 2 0 2-1 2l-2 2 3 1 2-1zm44 0-1-1-1 1 1 1 1-1zm12-2-2-2-2-2-2-1-1-2c1-1 2-2 3-1 2 0 3 0 3-2 0-1-1-2-3-2l-2 2c0 2-4 1-6-2-2-1-2-2-1-2h3c2-2 7-1 11 2 1 1 2 2 3 1l-1-3-2-4-3 1h-3l-2-2c-3-1-3-1-3-3 1-2 0-3-2-4l-3-2-1 2 2 3c3 1 3 6 0 6s-4 4-2 6 2 2 0 2l-2 2h2l4 1h2v2c0 1 0 2 3 2l4 2c0 2 1 3 2 3l1-3zm28 2-2-2c-2 0-3 1-3 2l3 1 2-1zm-168-2-2-1-3-1 1-3v-4l-2 2c-2 3-2 4 0 6l4 3 2-2zm39-2-2-2c-2 0-5 4-4 5s6-2 6-3zm74 2c1-1 0-2-1-3l-2-2-3-2c-2 0-4 1-4 3s0 2 2 1c2 0 3 0 4 2 0 3 3 4 4 1zm-253-2v-2l-2 2c-1 1 0 2 1 2l1-2zm232 0 2-4-2-2c-3 0-6 5-4 7l1 1 3-2zm7 1-1-1-1 1 1 1 1-1zm53 0-1-1-4-3h-4c-1 1-1 2 2 3l5 2 2-1zm-227-2-2-2c-2 0-3 1-3 2l2 2c2 0 3-1 3-2zm143 1 4-2c2-1 3-2 3-5 0-2-1-3-2-2l-3 1-4 8 1 1 1-1zm-95-4c-1-1-2 1-1 3h1v-3zm39 0c0-2-2-2-3 0-1 1 0 4 2 3l1-3zm11 3h1v-4c0-2-2-3-2-3l-1 2-2 1c-2-1-3 0-3 1 0 3 3 4 5 2 1-1 2-1 2 1zm59-1 2-6-1-4-1 3c1 3 1 4-1 2l-2-1c-3 5-4 6-3 7s3 1 6-1zm-169 0 3-2c0-1 0-2-1-1l-4-2c-1-2-1-2-1 0s-1 3-2 3l-1-5c1-3 0-4-2-4-2-1-3 0-4 3-1 6 4 10 12 8zm38-1-1-1-2 1 2 1 1-1zm219 0c0-1-2-3-3-2-2 1 0 3 1 3l2-1zm9 1-1-3c-1-3-3-2-3 1l2 2h2zm-221-2-2-2-1 2 2 1 1-1zm34-1c2-2 2-5 0-4l-2-1 2-2 1-2c-1-1-7 3-7 5l3 6 3-2zm127 1-1-2-2 2 2 1 1-1zm-77-2-2-2-1 2 1 2 2-2zm114-2c0-2-3-2-5 0v3c2 0 5-2 5-3zm-209 1c0-1-3-3-4-2s1 3 3 3l1-1zm16 0-1-2-2 1 2 2 1-1zm20-1-2-2-2 2 2 2c1 0 2 0 2-2zm21 0-1-1-1 2 1 1 1-2zm27 0 1-4c-1-2-6 2-6 4 0 3 3 3 5 0zm-98-1-2-2-1 2 1 2 2-2zm122-1c0-2 0-2-2-2l-2 3c0 2 0 2 2 2l2-3zm55 2-2-2v2l1 1 1-1zm-66-5c-2-2-2-2-2 0l1 3h2c1-1 0-2-1-3zm74 1-2-3c-2 0-2 1-2 3s0 4 2 3c1 0 2-1 2-3zm-168-8-3-3-1 2c0 2 1 3 2 2l1 3c-1 2-1 2-4 1l-3-1v3l4 2c2 1 3 0 5-2 1-3 1-4-1-7zm141 8v-2l1-2c-1-1-2-1-4 1s-2 3-1 4c3 2 4 2 4-1zm11 1-2-1v1l1 1 1-1zm-87-2 1-2v-3c-1-3-1-3-1 0 0 2-1 3-2 2-1 0-2 0-2 2s1 3 2 3l2-2zm-84-3c3-3 4-4 2-4l-5 1c-3 0-4 1-4 3l1 4 6-4zm27 2-1-1-2 1 1 2 2-2zm45-1c3-2 4-6 1-4-3 1-6 1-6-1l-2-1v2l2 4 1 3 4-3zm72-2c0-1-1-2-3-1-2 0-3 1-3 3-1 2 0 3 2 2l4-4zm75 3-2-1-1 1 1 2 2-2zm-260-1-2-1-1 1 1 1 2-1zm33-1c0-1-1-2-2-1l-3-1c-1-1-4 0-4 2l2 1h4c1 2 3 2 3-1zm107 1-2-3c-2-2-2-3-1-4 1-2 3-2 6-2 3 1 3 1 3-2l-2-5-2 1c-1 2-4 1-4-2l-1-2c-2 0-2 0 0 0l1-2-1-2c-2 0-5 6-4 8l2 2c2 0 2 0 0 3s-2 4-1 5l2 4 2 2 2-1zm34 0-1-3c-2-1-2-1 0 0l7-3c4-4 5-7 2-7l-1 1h-3c-2-1-3-1-5 1l-2 3-1 1c-2 0-5 6-4 8 1 1 8 1 8-1zm60-5-4-2-3 3 1 2 2 2c0 2 1 2 2-1l2-4zm-23 1c0-3 0-4-1-3-2 0-2 0-2-2l-2-2-1 3c0 2-1 2-2 2-1-1-2 0-2 1 0 3 3 4 4 2 1-1 1-1 2 1 2 4 4 2 4-2zm12 1 1-3h-2l-2 3 1 3 2-3zm-246-1c0-2 0-3-1-2s-2 2-1 3l1 2 1-3zm113 1-1-3c-2-1-3 2-2 3 1 2 3 2 3 0zm57 0c1-2-5-5-7-4-1 1 4 6 5 5l2-1zm17-1-3-3c-4-1-7 1-7 4 0 1 2 2 5 2 4 0 5-1 5-3zm-169 0 1-4c1-2 1-1 1 0 0 2 2 3 3 4l5 1 1-2c0-2 1-2 2-2 3 0 3-2 0-3-2 0-4 0-4 2-1 2-2 1-2-3l-1-5-3 3c0 3-1 3-2 0l1-3 1-5 2-5v4c0 4 0 5 1 4 1 0 3-1 3-3l3-3 1-3-2-2-4-2c-2-3-7-2-8 2-1 3-1 3-1 0 0-2-1-3-2-3l-1 6-2 6-3 2c-3 2-5 9-3 9l2-2 2-4c2-1 2-1 1 1-2 1-2 2 1 5 2 3 2 3 4-4 1-1 0-2-1-3l-1-1 2-4c0-2 0-3 1-2v10l1 10c1 0 2 0 1-1zm17 1-2-2-1 1 1 1h2zm-43-3-1-2-2 2 2 2 1-2zm57 0-1-2c-2 0-3 2-2 3 2 2 3 1 3-1zm191 1-1-1-2 1 1 1 2-1zm-181-2-1-3-5 2-3 3h4c3 0 5-1 5-2zm117 0-2-1-2 1 2 2 2-2zm32 0-1-1-1 1 1 2 1-2zm-101-1-1-1-1 1v1l2-1zm108 1-1-3c-1-2-5-3-5 0l1 3h5zm-163-4-2-3-6-2-6-2h-3c-2 1-2 7 0 8l3-1h5c4 2 7 3 8 2l1-2zm11 2-2-2-1 2 2 1 1-1zm22 0-1-2-1 2 1 1 1-1zm65-4 2-5-2-1c-2 0-2 0 0-4 2-2 2-4 2-5l-5 3c-2 3-3 5-2 7l2 6v4l3-5zm-59 0c-1-1-2 1-1 3h2l-1-3zm46 0c0-2 1-3 2-3l1-1-2-2-2 2-2 1c-2-1-2 0-2 3s1 4 2 3l3-3zm39 2c0-3-3-8-6-10h-5c-2 1 0 4 2 3 1-1 2 0 2 1l2 4c0 2 2 4 3 4l2-2zm67 1h2c1-1 1-2-2-4-2-1-4-2-5-1v4c0 2 1 2 3 0 1-1 2-1 2 1zm-112-5c0-3-2-3-4-1-1 2 1 4 2 3l2-2zm105 2-2-2c-2-2-7-3-7-1l7 4 2-1zm-244-2-2-3h-3v3c1 2 5 2 5 0zm89-2v-8c2-1 2-3 0-3s-2 1-2 2v3c-1 1-2 10 0 10l2-4zm46-1h-3l-4 1 1 2h3l3-3zm-145-1c-2-1-2-1-2 2 0 2 0 3 2 1v-3zm233 3v-3c0-2-1-2-2-1l-2 1h-2v3h6zm5-1-2-3-1 3 2 2c2 0 2 0 1-2zm-157 0v-2l-2 2 1 1 1-1zm51-3 2-4-2-1-2 2-1 5c-2 2-2 2 0 2l3-4zm92-3c-2-2-1-5 1-4l3-1h3l3-2c0-2 1-3 2-2 1 0 2-1 2-3l-1-6c-2-3-5-1-4 2 1 4-4 10-9 10-3 0-3 0-3 3l-1 7-1 4 4-4c2-2 3-3 1-4zm53 6-2-2-1 2 1 1 2-1zm-67-2c1-2 1-3-2-7-3-2-5-5-5-6 0-3-4-7-7-8-1-1-3 0-5 1l-2 1c3-3 1-9-2-10-2-1-3-1-1-1s3-1 3-2-2-1-5 1c-4 3-5 6-4 9s2 4 3 3l5 2c1 3 3 3 7 2l4 1h-1l-5 2-3 4 1 3h4l4-3 1 3c-1 3-1 3 2 2l4-2v2c-2 2-1 5 1 5l3-2zm-27-22v-2l4 1c1 2 2 2 0 2l-4-1zm80 22-2-2-2 2c-1 1 0 2 2 2l2-2zm-245-1-1-1-2 1c-1 1 0 1 1 1l2-1zm224 0-2-1-2 1 2 1 2-1zm-215-1c2-1 3-12 1-15h-3c-2 0-2 0-1-2l1-4 1 1h5c1 2 3 2 4 2 2 0 4-1 5-4l2-4v2l-1 4v2c-2 1-1 3 1 3l1-2c0-2 2-4 4-4 3-2 3-5-1-5-2 0-1 0 1-2l6-2c5 0 10-3 8-4l-8-1c-6-1-7 0-12 4l-6 4-3 2c-1 2-1 2-2 1l-5-1c-5 1-5 2-5 7-1 3 0 7 1 8v6c0 4 0 5 2 5l4-1zm79-1-2-2c-2 0-3 2-1 3s3 1 3-1zm19 1-2-2-2 2 2 1 2-1zm-129-4 1-3c1-2 1-1 1 1s1 3 3 4l4-1h2c0 2 1 3 2 3 4 0 9-3 9-6 1-3 0-8-2-7s-8-6-7-7l3-3 1 3c0 5 3 4 4-2 1-4 2-5 4-5l5-2 4-2 4-2c0-3-5-2-6 0-1 1-2 2-4 1l-5-1-4 4c-1 2-1 4-2 3l1-8 1-9c-1-2-2-3-4-3l-3 4-2 4 4-19 9-1c7 1 8 0 10-2 0-2 2-3 4-3s4 1 5 3 1 2-1 3l-3 2c0 2 2 2 3 0l5-1c7 2 16 2 17 1l3-1c3 0 3 0 1 1v3l4-2c3-2 4-4 4-6 0-4 0-4-4-4h-3l2-2-8-1c-6 1-7 1-8 3 0 3-3 3-3 0l-3-3-11-1c-6 1-12 0-19-3-3-2-10 0-12 2s-2 3 0 4 2 3 1 14l-2 15-2 4-1 2 4-3c3-2 4-3 5-1v6l-2 8-2 6-2 3c-2 0-1-6 1-11l1-5c0-2-3-1-4 1l-1 6-2 7-3 8c-1 5-1 5 1 4s2-3 2-3zm6-4 1-1 2 1-2 1-1-1zm52 4-2-3-2 3c0 3 0 4 2 4s2-1 2-4zm25 2-2-1-2 1 2 2 2-2zm-15 0c1-1-3-8-5-8l-2 6c1 2 5 3 7 2zm95-1-2-3c-1-2-2-2-2-1v3c-1 2-1 2 2 2l2-1zm90 0c0-2-1-2-4-2l-3 2 3 1 4-1zm13-1-1-1-2 1 2 1 1-1zm-85-4c-1-1-2 1-1 3h2l-1-3zm7 0c-1-1-2 1-1 3h1v-3zm70 2-1-1-2 1 2 2 1-2zm-163-3 1-4c1-3 1-3-1-3l-2 6v4l2-3zm-8 1-1-2-1 2 1 1 1-1zm70-2-2-2-1 2 1 2 2-2zm64-5c-1-1-1 1-1 5l1 4 1-4-1-5zm29 7h-3c-1 1-1 1 1 1l2-1zm-124-2-1-1-2 1 2 2 1-2zm148 0-1-1-2 1 2 2 1-2zm-26-1c2-1 2-1 1-2-2-1-6 0-5 2s2 2 4 0zm11-1 2-4-4 1-2 4 1 1 3-2zm-188-2c-1-2-4 0-3 2h2l1-2zm37 0c-1-2-1-2-2-1-2 1 0 4 1 3l1-2zm35 2h2c3 2 4 1 3-2l-5-1-4 2 2 2 2-1zm19-1c-1-3-3-3-4 0l2 2 2-2zm18-2-3-1c-1 1 2 5 4 4l-1-3zm-121-1-1-2h-3v4c2 2 4 1 4-2zm-60-4c-1-2-1-2-2 0v5c1 2 1 2 2 0v-5zm40 5-2-1c-1 0-3 0-2 1l2 1 2-1zm4 0-1-1-1 1 1 1 1-1zm187-1-1-2c-2 0-3 2-2 4 1 1 3 0 3-2zm39-1c0-2-2-3-4-1-1 2 1 5 2 4l2-3zm-56-3 1-3c2-1 2-1 0-3l-1-5c0-3 0-3-2-1s-2 4-2 5c1 1 0 1-1 1-3-1-4 1-1 4v3c-1 0-1 1 1 2 2 2 3 2 4 0l1-3zm-146 2c0-2-1-2-2-2l-3 2c0 1 1 2 3 2l2-2zm100 0-2-1c-2-1-3 0-3 1l3 1 2-1zm16 1c0-2-3-5-5-4s-2 3 1 4h4zm45-1 2-4 1-4-2-3h-6c-2 1-3 2-3 4l1 3 2-3c1-3 1-3 3-2 1 2 1 3-1 5-3 3-4 6-1 5l4-1zm33 0 2-1 2-2c0-2-4-3-5-1-1 3-3 2-3-1 0-2-1-3-3-2l-2 2c-1 2 5 7 7 6l2-1zm-104-1 2-3c2-1 3-1 2-2l-1-1-3 2c-3 0-6 2-5 4s5 2 5 0zm61-1-2-2-2 2 2 1 2-1zm-161-2-2-1-1 1 1 2 2-2zm88-4-1-2c-2 0-5 5-4 7 1 1 5-2 5-5zm57 3-1-1-2 2c0 1 1 2 2 1l1-2zm33 1-2-2-2 2 2 2 2-2zm-138-1-2-2-1 1 1 2 2-1zm77-5c3-2 4-7 1-7-1 0-3 2-3 4l-2 4-1 4c1 2 1 2 2-1 0-2 2-4 3-4zm-65-3c-1-1-3-1-5 1-4 2-4 5 0 5 1-1 2 0 2 1l2-2 1-5zm7 1c-1-2-5 3-4 5s1 1 3-1l1-4zm37 6-2-2-2 2 2 1 2-1zm30-1c2-1 2-2 0-3-1-1-3-2-4-1-3 1-3 6-1 6l5-2zm-125-1-1-1-2 1 2 2 1-2zm27 0c4 0 2-3-2-4-3-1-4-2-4-4 0-4-2-7-3-6v9c2 5 3 7 5 6l4-1zm166 0 1-2-3 2-1 2 3-2zm-6-1c0-2-2-2-3 0l1 1 2-1zm-26-3-2-2-2 2 2 3 2-3zm-32-4 2-2v-4c0-2-1-3-2-3l-2 6-1 5-1 2c0 2 1 2 2 0l2-4zm48 2c-1-2 0-2 2-2s3-1 3-3c-1-3 0-4 4-5 3-1 5-3 4-4l-3-1c-4 0-12 7-12 9l-2 2-2 3 1 3c3 2 5 0 5-2zm-105 0c2-3 1-7-1-7l-2 3-1 4-1 1 2 1 3-2zm34 1c0-3-3-3-3-1l2 2c1 0 2 0 1-1zm-75-1-2-2-2 2 2 1 2-1zm133 0v-3l-1-5h3c2 1 2 1 3-2 2-4 4-5 4-2l1 2 1-2 2-5c1-3-1-9-3-9-1 0-2 1-2 3l-1 4c-2 2-2 1-1-3s0-5-1-5c-1 1-2 0-2-1l-1-3c-1 0-2 1-2 4l1 3 2 1c1 1 0 3-2 4l-2 5c0 2-1 3-3 5v7c2 3 3 4 4 2zm-116-3-1-3-2 3 2 3 1-3zm47 2c0-2-4-5-5-4s2 5 3 5l2-1zm42-1c0-2-2-4-3-3s0 5 2 5l1-2zm8-1-2-1c-3 0-4 2-1 3 2 1 3 0 3-2zm25 0c1-1 0-2-2-2l-3 1c0 4 5 5 5 1zm-196-1c3-1 3-2 2-4l-3-2c-2 0-6 6-6 7l2 1 5-2zm16-1c1 0 2-1 1-2l-5-2c-4-1-5-1-3-3 0-2 2-3 4-3 4-1 5-4 1-4l-3 1-2 2c-2 0-3 1-3 5v5l1 3 4 1 5-3zm123 0-2-3c-2 0-3 3-2 5s4 1 4-2zm38 0-2-4c0-1-1-2-3-2s-2 0-1 2l4 4v2l2 1v-3zm-125-1c0-2 0-2 2-1l3 1v-3c0-3 0-4 2-2l1 4c-1 2 2 3 4 1v-2l-1-3c0-2 0-3-3-3-3-1-4-1-6 2-2 2-3 2-3 1l-1-3-3 1c-1 1 3 10 5 10v-3zm-12 0-1-1h-3c-3 0-2 2 1 2 2 0 4 0 3-1zm41 0v-1l-2 1 1 2 1-2zm46 0-1-1-1 1 1 2 1-2zm-36-3c-1-3 1-4 4-1l3 1c1-1 0-5-2-5v-3l-1-3 1-2c3-1 3-2 2-3h-2c-1 1-2 2-3 1-1 0-2 0-1 3v2c-2-2-3-1-7 1s-6 6-2 6l2-1 2-2v1c0 2-2 3-3 3l-2 2c1 1 7 3 8 2l1-2zm57 1 2-2 5-3c2-2 3-3 2-4-2-1-8 3-8 5l-4 2-3 3c0 2 5 2 6-1zm34 0-1-1c-1-1-2 0-2 1 0 2 1 2 2 2l1-2zm-103-1c2-2 2-2-1-2h-3c-1-1 1-3 3-4l5-4c2 0 3-4 2-6 0-1-1-2-3-2l-1-1c1-1 0-2-1-2-2 0-2 1-2 2 1 2 0 3-2 4-4 1-5 4-1 4l-1 2-2 1-2-1-1 4c1 4 4 7 7 7l3-2zm44-5-1-4-1-2c0-2-1-3-2-3l-4 3c-2 1-2 2-1 3h4c2-1 3 0 3 3s-1 4-2 4h-2c0 2 1 3 4 1l2-5zm-125 2 4-1c2 1 3-1 1-3l-3 1-5 1-5 1-1 3c1 2 6 1 9-2zm17 1-2-1-2 1 2 1 2-1zm17-1c3-3 3-4 2-4h-4l-5 3-4 2c-1 2 6 2 11-1zm6 1-2-1-2 1 2 1 2-1zm73-3v-5c2 0 6-9 5-10l-2 2-1 3-2-3-2-6-2-2 2-1 4 1c2 2 9 3 11 2 1-1 2-2 1-3l-4-3h-11l-4-1c-1-2-2-2-3 0l1 3c1 2 1 2-1 2l-1 1 4 5c4 4 4 5 2 9l-4 4c-2 0-2-1 0-3 3-3 3-7 0-6l-2 3-1 2c-2 0-2 3 0 6 2 2 3 2 3 1 1-2 2-2 3 0l4 2v-3zm27 2c0-2-4-5-5-4-1 2 1 5 3 5l2-1zm48 0 1-3v-3l2-1-3-1-2 2-1 3-2 3h5zm37-2c1-1 2-3 1-4-1-3-5-3-6 0l2 6 3-2zm-82-3-1-5-1-3-2-1c-3 0-3 5-1 8l2 3 1 1c1 0 2-1 2-3zm-82 1 1-6-1-5-4 2c-3 2-3 3-3 6v4h3l4-1zm-4-5h3l-2 1c-2 0-2-1-1-1zm77 4c2-2 2-6-1-7l-1 2v2h-3l-3-1c-1 1 4 6 5 6l3-2zm34-1-1-2-2-2-1-2-1-4-2-4-1-4-1-3-3 3v3c1 1 3 3 3 5 1 4 1 4-1 3l-1-4c0-2 0-2-1-1l-1-1c0-2-1-3-2-3-1-1-8 1-8 3l2 1 2-1 2-1 2 6c0 3 2 5 3 6 2 1 3 1 5-1h3l1 4c0 1 1 2 2 1l1-2zm5-1 4-3c2 0 3 1 3 2l2 2c2 0 2 0 2-3v-3l2 1c2 1 2 1 3-2l2-4-5-1c-3 0-5 0-5-2l-3-1-3 4-3 5-2 5c-1 3 0 4 1 4l2-4zm-127 2-1-3c-2-2-6 0-4 2 1 2 4 2 5 1zm107-2-2-1c-2 0-3 1-3 2s1 2 2 1l3-2zm-153 0c0-3-9-5-11-3s0 4 6 4l5-1zm70 0c2-2 2-2 1-3-2-2-6 0-6 2l1 2 4-1zm147-1v-4c2-1 2-4 1-4l-6 4c-2 2-4 4-3 5l4 1c4 0 4 0 4-2zm-167-3c-1-2 0-3 1-3 2 0 6-3 6-5s-5-1-7 1l-3 6 1 3 1 1 1-3zm99-1c0-2-3-2-3 0-1 2 0 2 1 2l2-2zm-26-2-1-1-1 1 1 2 1-2zm88 0-2-2c-2 0-3 1-1 3 1 1 3 1 3-1zm-117-3c1-4 1-5-1-5-1 0-4 6-3 7 1 2 3 1 4-2zm46-1v-3c0-1-4-1-4 1h-1c-2-1-3 2-2 4 1 1 6 0 7-2zm-75-2c0-2-1-3-2-3-2 0-3 1-3 3l1 3h2l2-3zm66 2-2-1-2 1 2 2 2-2zm38-1c-1-2 0-3 2-3 3-1 3-5 0-5l-4 4-2 6 2 1c2 0 2-1 2-3zm32 1-1-1-1 1 1 2 1-2zm5-4-2-2-1-2 2-2 2-2-4-1c-4 0-6 4-3 6l3 4 1 3c1 1 3-2 2-4zm9 2c1-2 2-3 3-2 2 2 3 2 3 0l3-3 5-6 1-6c-1-1-8 3-12 6l-2 3-3 3c-4 2-5 7-2 7l4-2zm5-8 1-2 2 2-2 1-1-1zm-117 8-2-1-1 1 1 1 2-1zm89-1c-1-3-3-3-4 0l2 2 2-2zm-109-1 2-4-2-1c-2 0-3 1-3 3l1 4 2-2zm102 1-1-4v-4l2 1h2v-4l-1-3-6 3-5 5c0 2 2 4 4 5 3 2 5 2 5 1zm-48-2h2c3 1 3-2-1-4h-4c-1 2-2 3-1 4 1 2 3 2 4 0zm-46-2c0-2-3-2-4 0 0 1 0 2 2 2l2-2zm13 1-1-1-2 1 1 1 2-1zm-33-2 2-3c0-1-6-1-9 1l-2 2c1 2 6 2 9 0zm124 0-2-2c-1 0-3 2-1 3 1 1 3 1 3-1zm-97-4c-1-4-3-5-3-1 0 2 2 6 3 5v-4zm55-2c-1-6-4-9-4-5l-2 5-3 3s2 2 5 2h5zm-100 1 1-5c1-3 0-4-3-2l-2 4c0 1-1 2-3 2-4 0-4 0-1 2l5 2c3 0 3-1 3-3zm87-1-1-5-4 2-2 4 6 3 1-4zm-56-3-2-1v3c1 2 1 2 2 1v-3zm20 1-2-2c-2 0-3 1-2 3 1 3 4 2 4-1zm15 2-2-2-1-2-1-2-1-2c1-1-1-4-3-6s-4-3-5-1c-2 0-3 2-3 3l3 4 3 1h-6l2 4c3 3 3 3 5 1 1-2 2-2 2-1l2 1 2 2 1 1 2-1zm41-1-1-2-2 2 2 2 1-2zm32 0-1-3-2 2c0 2 1 3 2 3l1-2zm7 1-2-2-1 2 1 1 2-1zm14-4c1-2 3-2 4-2l2-1c2-2-2-3-8 0l-9 3-1 2c1 2 8 0 12-2zm-57 0-1-2c-1-1-2 0-2 2l2 2 1-2zm-112-1-1-2-2 2 2 2 1-2zm17-1c1-4-1-8-4-8s-3 4-1 5l1 4c-1 1-1 2 1 2l3-3zm105 1v-3l-3 1h-2l2-3c2 0 2-1 0-2-3-1-3-1-4 1-2 3-2 4 1 6l4 2 2-2zm-82-2 4-4-1-3-8 5c-2 2-2 5 0 5l5-3zm95 2v-3c-1-2-6-2-6 0l1 3h5zm-51-3c0-1-1-2-3-2l-2 2c0 2 1 2 2 2l3-2zm13-1c0-2 1-3 2-3s5-4 5-6l-3-1-6 3c-2 4-2 8-1 10 2 1 3 0 3-3zm58 2c0-1-2-3-3-2-2 1 0 3 1 3l2-1zm9-1c0-1 0-2-1-1l-3 2 1 1 3-2zm-140-2-2-1-2 1 2 2 2-2zm26-1c0-3-4-2-4 1-1 1 0 2 2 2l2-3zm80-1c2-3 1-8-1-8-1 0-2 1-2 3l-2 4c-3 1-3 3 1 3l4-2zm-100 0v-3c-2-2-5 1-4 3h4zm55-3c1-2 1-3-2-5-2-2-3-3-4-2v3l-1 2v4c0 2 1 2 3 1l4-3zm24 1-1-2-2 3c-1 2 0 2 1 2l2-3zm6 0 2-5-2-1-3 1-1 5 1 3 3-3zm57-1c0-2 0-3-2-1-2 1-2 1-2-2 0-4-3-7-5-6-2 2-2 5 0 6l2 2c0 2 5 5 6 4l1-3zm6 0h-2l-1 3h3v-3zm-170 0c2-2 1-3-1-5l-3-3-4 3-4 6c1 1 3 2 6 1l6-2zm17-1 5-1c3 1 3 1 3-5 0-4 0-5-3-5-2 1-3 2-2 4 0 2-1 3-3 3-3 0-7 3-6 5l2 1 4-2zm117 0c1-2 0-4-2-4l-1 3c0 4 2 5 3 1zm6 0-1-2-2 2 2 2 1-2zm16 1-3-2-3 2c-1 1 0 1 3 1l3-1zm-39-1-1-1-2 1 1 1 2-1zm11-3h-3v3h2c2-2 2-2 1-3zm-117-1c3-4 3-10 0-12-4-2-15-2-16 0l3 5 3 4c0 2 4 7 6 7l4-4zm-6-7v-1l2 1v1l-2-1zm42 9v-1l-2 1 1 2 1-2zm98 0-1-1-1 1 2 2v-2zm-89-2-6-11c-1 0-5 8-4 9l3 1c2 2 7 3 7 1zm12-3-3-1c-3 0-4 0-4 2 0 1 1 2 3 1l4-2zm55-3-1-2c-3-1-4 0-3 2s3 2 4 0zm-60-3v-5c-1-1-2 0-4 2-1 2-2 4-1 5 2 3 5 1 5-2zm7-1 2-6c0-2-3-2-5 0s-2 8-1 10h1l3-4zm-25-1c-1-2 0-4 1-5 3-2 1-4-3-3l-3-1s1-2 3-2l3-3c1-1 0-2-3-2-2 0-3 1-4 3l-2 2c-2 0-1 10 2 13l4 2c2 0 2-1 2-4zm-53-3 1-2-2-3h-8c-4 2-5 4-3 6 1 1 10 1 12-1zm66-6c-2-3-3-4-4-3s0 2 1 4l3 3c2 0 2-1 0-4zm-22-3c0-2-3-3-4-2-2 1 0 5 2 4l2-2zm42-5-4-2c-1 0-2 1-2 3l2 3c2 1 5-1 4-4zM78 879l6-4c12-6 20-12 23-19l3-5s2 1 2 3c1 1-1 4-7 9l-14 12-8 6-4 1c-4 0-4 0-1-3zm24-5 3-3c6-3 12-8 12-11l4-4c5-3 12-10 18-18l6-9c2-2 3-2 3 0l-4 6c-4 5-5 8-3 8l2-1 3-1v2l-3 3-9 7c-8 7-29 22-31 22l-1-1zm21-1c2-1 6-3 16-13 5-4 7-8 7-10l2-2c2 1 9-5 10-9 1-2 2-4 4-4s2 1 2 2l-6 8-5 7c0 2-5 7-15 15-5 4-9 6-13 6h-2zm123-11c-1 0-4-3-5-7-3-5-3-7-2-9 2-2 2-2 4 2 0 3 2 5 2 5l1 2 2 4 2 3c0 2 0 2-4 0zm-87-1 2-2c2 0 7-5 7-6s1-2 3-2 4-1 7-5c1-3 4-6 6-7l4-5c2-4 2-4 1-5-3-2-5-2-7 0v-2l1-7 2-3 1-3c0-2 1-3 3-4 1-2 3-2 3-1l2 1c1 0 2-1 1-4 0-2 1-3 2-3 2 0 2 1 2 7 0 9-3 20-6 26s-16 17-23 21-12 6-11 4zm35-41v-6l-2-1-3 6-2 7c1 2 5-1 7-6zm-21 39 2-2 2 1-2 2-2-1zm-121-5h-3l-2-1c-1-1 6-5 7-4 2 1 2 6 1 6l-3-1zm62-7c0-2 14-16 15-15l-6 9c-5 5-9 8-9 6zm-90-10c0-2 8-3 10-1v1a298 298 0 0 0-10 0zm302-6 5-3 2 1c0 1-6 4-9 4-1 0-1-1 2-2zm-261-7-2-4 2-3c0-3 3-3 5 2 3 4 3 8 1 8l-6-3zm103-1 1-10c1-6 1-6 3-5l2 5c0 6-3 13-5 14-1 1-2 0-1-4zm151 1c-2-3-2-4-1-6 2-3 7-3 9 0l2 4-4 3c-4 2-4 2-6-1zm-300 0c1-1 1-2 2-1 2 1 0 3-1 3l-1-2zm136-9c0-7-1-10-3-13-1-2-2-4-1-5 2-2 5 2 7 8s1 13-2 17c-1 2-2 1-1-7zm-15-11 1-18c3 0 4 5 3 18 0 14-1 18-3 18l-1-18zm-81 14 1-2c2-1 2 0 1 2h-2zm185-12 3-1 2 1-3 1-2-1zm61-5-3-6c0-2 1-4 3-4l4-5c1-4 3-5 5-3 0 1 0 3-2 4l-2 3 4 5c3 4 3 5 2 7l-5 2c-2 1-4 0-6-3zm-259-1c2-2 4-3 5-2l3-2 2-1c0 3-7 8-10 8s-3 0 0-3zm190 1-2-4-2-3-2-6c-1-2-1-4 1-6 2-1 2-1 6 3l4 6 2 5c2 2 2 3 1 4l-3 3c-1 0-3 0-5-2zm-172-5c-2 0-3-2-3-2l4-2c5-1 13-7 14-11l3-3 2 2c0 3-5 10-8 11-2 0-4 2-5 4l-3 3-4-2zm128-7 2-3c1 0 2 1 2 3l-2 2c-2 0-2-1-2-2zm24-9c-2-2-3-4-2-5l-1-2-2-1-1-12c0-7 1-10 2-10 3 0 4 2 5 5 0 6 3 17 5 21 2 3 2 6 2 7-2 1-5 0-8-3zm-2-10-1-1-1 1v1l2-1zm-163 4v-7c2-4 2-4 3-2 2 3 1 11-1 11 0 1-2 0-2-2zm133-16v-4l-1-6-4-8v-3c1-1 3-2 4-1l5 9 3 12c1 3 0 4-2 4l-5-3zm421-1c-2-1-3-3-2-5l2-3 5 2c2 2 2 7 0 8l-5-2zm-382-1c-2-2-2-2 1-4l5 1c2 2 1 5-2 5l-4-2zm-50 0-5-6c-3-3-4-7-5-10l-3-7c-2-2-2-2-3 0l-3 2c-2-1-2-3-2-6l-2-6v-1l1-15 2-19 6-16c3-5 5-9 6-8l2 2-8 20-3 12c-2 5-2 7 0 9l1 8v10c0 4 1 5 4 5 3 1 4 2 5 7l4 8c3 4 5 9 4 11h-1zm453-10-2-4c0-3 2-5 6-5s8 2 8 5-4 7-7 7c-2 0-4-1-5-3zm-36-4v-1l2 1-1 1-1-1zm19-9c-2-2-1-6 2-6l4 2c3 2 2 6-2 6-1 0-3 0-4-2zm-25-3c-1-2 2-4 4-3l1 2c0 1-4 2-5 1zm-336-7c-2-2-3-4-2-5 0-2 1-2 4-1h6l4 2v4l-6 2c-2 1-4 0-6-2zm276 0c-3-3-4-5-4-7 0-3 1-4 4-4 2-1 5 1 8 3 4 4 4 4 2 6l-4 4c-2 1-3 0-6-2zm195-13-2-7c-1 0-2-1-1-2s6 3 8 7c1 3 0 7-3 7-2 0-2-1-2-5zm-455-1 3-3 8-3c5-1 5-1 4 2l-2 5-7 1c-3 0-5 0-6-2zm240 1c-1-1 0-3 2-3l2 2c0 1-2 3-4 1zm-278-3c-2-2-2-3-1-5l4-1 4 2 1 2-3 3c-3 2-3 2-5-1zm130 2c-1-2 1-11 4-13 2-2 2-2 2 4s-1 10-4 10l-2-1zm355-4c-1-3-3-4-5-3l-4-2v-3l2 1c0 1 1 2 2 1l-1-3c-2-2-3-5-3-8l-1-7c-2-1-2-3 0-3 1 0 3 5 3 12l1 3c2 0 4 3 8 9 3 7 2 9-2 3zm-282 1 1-1 2 1-2 1-1-1zm9-1v-5c1-2 2-3 4-3l2 4c0 3 0 5-3 5l-3-1zm-140-6c-1-2 0-4 1-5 2-1 3-2 4 0 2 0 3 2 3 4 0 1-1 2-4 2-2 1-4 0-4-1zm18-8h2c2 1 2 2 0 2s-2-1-2-2zm9-2c0-2-1-3-3-3-3 0-3-4 0-5l6 3c3 4 3 5 1 7l-3 2-1-4zm-269-8c-2-3-2-10 0-13 0-1 2-2 3-1 1 0 2 2 2 8l-1 8-4-2zm129-1c-2-1-2-6 0-6l3 2c2 1 2 2 2 3-1 2-4 2-5 1zm48-7c-2-1-2-4 0-6 5-6 8-9 10-9l2 2c0 3-9 14-11 14l-1-1zm7-7-2-1-1 1 1 1 2-1zm-38 3v-2l2 2v1l-2-1zm454 0-4-4 1-4 5-2 4 2 8 2 6 1v3c-1 2-3 2-9 3l-11-1zm45 0-6-3c-1-1-2-2-1-3l1-5c-1-2 0-2 2-2l5 4c2 1 3 4 3 6v4l-4-1zm-396-8c0-5 1-7 2-7 2 0 7 5 7 7 0 1-3 4-7 6-1 1-2 1-2-6zm-8 2c0-2 2-3 3-3 3 0 2 5-1 6-2 0-2 0-2-3zm156-2-6-9-5-8 2-3c2-2 3-2 5 1 2 2 8 15 8 18l-2 3c-1 1-2 1-2-2zm-108 0 1-3c2 0 2 1 0 4-1 2-1 1-1-1zm-167-5c0-3 9-15 18-24 8-8 12-10 12-8l-6 6c-7 5-14 14-18 21-2 5-6 7-6 5zm16-3 22-26c4-4 5-5 7-4 1 1-1 4-8 11l-14 14c-4 6-7 7-7 5zm494 0c-2-1-2-2-1-3h6c2 1 3 2 2 3h-7zm-388-2c0-3 2-4 4-3v3l-3 2-1-2zm332 1-2-3c0-2 2-3 4-4l5 1c2 1 2 1-1 4l-3 3-3-1zm-523-5 1-3 2 3-2 4-1-4zm562-2c-1-1 0-3 1-4h4c2 1 2 3 2 4-1 1-6 2-7 0zm-327-3 4-2c3-1 4 0 4 2s-1 3-4 3c-4 0-4-1-4-3zm-80 0c0-3 7-8 10-7l2 2-11 6-1-1zm329-1c-2-2-1-6 1-6l4 3c2 3 1 5-2 5-1 0-2 0-3-2zm-409-6c12-13 26-25 30-25l1 1-8 7c-5 2-13 9-18 14l-11 10 6-7zm146-1v-3l4-1c3 0 4 1 4 2 0 2-2 3-5 3l-3-1zm307-1c0-2 1-4 3-4l3 2c2 2 2 2 0 3-2 2-5 2-6-1zm-35-5c-9-5-9-5-8-7 1-1 2-4 1-5-1-2-1-2-5 1-3 3-4 4-7 3-3 0-5-2-7-3-1-2-4-3-6-3l-7-4-4-3-6-3c-4-2-6-3-10-2h-5l-2 1c-1 2-2 1-2-2 0-4-2-8-3-6l-2 2c-2 0-6-8-5-9s0-2-1-3l-2-7 2-8c2-3 3-9 4-14 0-5 1-9 2-9l2-5 8-10c8-7 8-7 6-11-1-2-2-4-1-5 1-2 3-3 5-3s3-1 4-3l1-7 1-4h-8l-7-1c0-2 12-4 14-1h3c4-1 10-8 11-11l5-5c4-3 6-5 8-10l2-8c-1-2 4-9 5-7v2l-2 4c0 2 1 3 5 2l6-2 1-4c-1-2-1-2-3 1-2 2-2 2-2-2v-9l-1-3c-3 0-2-5 2-8l6-3c3 0 4 0 4-5 0-3 0-5 2-5 2-1 3-2 2-3l3-5c2-3 2-5 2-8l1-7c0-3 1-3 2-2 2 2 2 2 2-1l-1-2 2-3 5-5c0-2 4-5 8-5l4-3c0-2 1-3 2-3l3 2 4 3 5-6c2-5 3-8 2-12l-1-7 2-6v-69a102 102 0 0 0-5-34 334 334 0 0 0-3-21c2-2 0-4-3-4s-3-1-5-8-2-8 1-11l6-6c3-1 3-2 3-12v-11l-5-5c-3-2-5-5-5-6h1l1 2c2 0 2-7 1-7h-4l-4-2-6 2-8 4c-3 1-5 1-6-1-1-1-2-2-3 0l-8 1c-7 0-9-2-3-3 2 0 4-1 4-4l1-5-4-3-7 2c-1 2-5 3-7 3-3 0-4 1-6 4-2 4-3 5-6 5l-4-2 6-6c4-3 9-5 11-5 5 0 10-3 11-6h-1c-2 2-2 2-1 0 0-2 1-3 2-3 2-1 3 0 2 2s0 3 3 4c2 1 4 3 4 5l1 5 7 1c4 1 7 0 9-1 3-3 2-7-4-12-3-2-7-4-12-4l-8-2-3-1c-2 0-3 0-3-3 0-2-1-2-4-2-3 1-6 2-6 4-2 1-4 2-9 2l-8 1-3 1-2 2-2 3-4 1c-3 0-3 0-2-3 0-3 0-4-2-4a2182 2182 0 0 0-4-4c1-1 2-2 3-1 2 2 4 1 6 0l4-5c0-2-8-6-10-5-1 1-3 2-3 4-1 2-4 3-13 5-10 2-13 4-11 6 1 1 8-1 17-3 1-1 2 0 2 1 0 2 0 3-6 3l-2 2c0 3-4 5-9 4-2 0-4-2-4-4-1-5-3-6-4-1-1 3-2 4-5 3-3 0-4 1-4 3s0 3 2 4 3 3 3 5l-1 6c-2 2-7 4-11 4s-4 0-3-1c2-1 2-2 0-3-1-1-2-1-3 1l-4 2c-2 0-2-1-1-4 0-2 0-3-2-3s-3 1-3 3l-3 2c-3-1-3-6 0-8h6l10 1c5-1 6-1 5-4-1-6-5-13-7-14-3-1-8 1-9 4l-3 3-3 2c-1 4-6 7-8 6-2 0-3-2-3-3 0-2 2-3 7-5 6-2 9-5 5-6h-15l-6-2c-4 0-6 0-8 3l-5 5c-1 3-2 3-5 1l-3-3 4-2c5-2 9-5 8-7s-7-1-9 1l-3 1-2-3c0-3-4-5-7-6-2 0-5 3-8 6-3 4-6 6-8 6h-3l3-1 3-1-2-2c-1-1-3 0-4 1-1 2-3 3-7 2-1 0-1-1 1-3l1-3-6-2c-5-1-7 0-8 5-1 1-3 4-7 6l-8 4v-3c0-2 0-3-2-3-3 0-4 2-1 4 1 0 1 0 0 0l-7-2c-3-1-4-2-4-4s2-2 7-2l7 1-5-5c-3-3-5-4-8-3-2 0-3 1-3 2l-1 3-3-3c-2-1-2-3-2-5 1-1 3-2 7-2 5 0 8 1 10 4l6 3c4 0 6-2 5-5 0-1-1-2-2 0-2 1-4 2-4 0l4-4c4-2 5-2 7 0 3 3 12 6 16 5l4-1-2-2-10-5-10-4c-3 0-13-4-13-5s1-2 3-2c4 0 5-2 2-5l-3-4-2-4-9-1c-6 0-8-1-8-2l5-2c5 0 5-1 5-5s4-11 6-11l5 3 3 5-3 2-3-2-4-3c-1 0-1 5 1 8 0 2 2 3 3 3l5 8c4 8 4 8 5 5 1-2 2-2 4-2h10c4 0 5 0 5 2s0 3 2 2l3-1v-1l-1-2c1-1 2 0 3 1 2 2 2 2 0 4-3 2-2 6 2 6 2 0 3 2 4 4l2 3 3-3c1-3 8-8 12-8 2 0 2 1-1 3-2 2-2 3-1 5 0 2 3 4 4 5 4 3 8 2 7-1 0-2 0-2 2-2l9-2c5-2 5-3 2-4l-8-2-7-2-4-2h-2a360 360 0 0 1-6-2l1-3c2-1 3-2 6-1l9 4 7 3c1 0 3-1 3-3l2-4 1 4 2 4 2 3 5 11 4 2 6-3 5-3-1-2-7-1-6-1c-2-1 0-1 6-1s9 1 10 2c2 3 9 5 13 5 2 0 3 0 2-2-1-3 1-4 3-1l8 1c6 0 8 0 8-2l-2-3c-2 0-3-2-3-3 1-3 0-3-5-4-5 0-6 1-9 3l-6 3c-1 0-2-1-2-6s0-5-5-5l-7-2c-1-2-3-2-5-2l-5 2c-3 0-4 0-5-4v-5c1-1 2 0 3 2 2 2 3 3 7 2 3 0 5 0 7 2s5 3 11 4h10c3-2 2-5-1-5l-8-1c-4 0-5-1-5-2 0-2-2-2-5-2l-5-1 4-3c1-1 4-2 6-1 2 0 4 2 4 3 1 2 2 3 6 3l5-2c1-2 2-1 5 3l4 6-4 3c-3 1-3 1-1 2l4 1 6 2c2 2 5 2 8 2s3-1 4-6c0-5 0-6-3-6-2-1-4-2-4-4s0-2-3-1l-3 1c-1-1 0-2 2-3l3-4c0-4-6-8-10-8l-8-2c-1-2-4-2-6-2l-5 3c-1 1-2 0-3-1s0-2 3-3c5-1 5-2 4-5l-2-4c-2-1-2-3-2-5l-2-6c-1-3-1-4 1-3 1 0 2 1 2 3 1 1 4 4 8 5l6 2c1-2-1-5-4-6-3-2-3-3-3-8l-1-9-4-4c-4-1-5-4-2-4s9 5 10 9c0 2 1 3 3 2 2 0 2 0 1 2l-1 4c-1 1 0 2 5 2 6-1 6 0 8 4 2 3 3 4 8 4l7-1c3-1 3-1 4 2s2 3 3 2c2-2 8-2 8 0l4 4c2 2 4 3 3 4h-4l-4 1c-1 2 11 9 14 8 1-1 3 0 5 2 3 3 4 3 7 3l4-3-5-3c-5-1-16-8-14-8l7 2 5 3c1-4 4-6 7-7h4l-3 2-3 3c0 1 1 3 3 3s5 3 7 6l7 4 3 5c1 4 2 6 5 7 4 2 9 1 9 0 0-3-11-14-14-14-2 0-2-2-1-3l6 4c4 5 8 6 8 3l-5-7c-4-3-6-4-9-4h-4c-2-3 3-4 8-1 8 3 9 2 10-3v-6l-5 1c-5 1-6 0-7-2 0-3-6-5-12-3-5 2-19 1-20-1l2-2 2-2c1-1 0-2-2-3l-4-2 3-6c1-3 5-6 8-8 4-2 4-2 7 1l8 2c4 0 6 0 7 2v5c0 1-2 2-6 1-3 0-7-1-9-3l-8-1-5 3 2 3c4 1 6 2 5 3l2 4 4 3 3-2-3-2c-4-2-1-3 6-1 6 1 8 1 13-1 7-2 8-4 4-8l-2-6c0-2 1-2 4 2s3 4 5 1 2-3 5 1c4 5 3 7-2 3-2-2-3-2-4-1-1 2 0 3 1 4l3 2 4 2c2 0 5 0 7-2 3-1 4-2 3-4s-2-3-1-4l3 2c2 3 2 3 0 6l-7 4h-9l-5-1c-1 1 0 6 2 8 1 1 8-1 10-3l7-1 9-2c4-1 5-1 4-5l-1-7c-1-3 2-3 4 0l1 6 2 7 2 5c0 2 1 3 3 4 2 2 2 2 3-6 0-8 3-11 3-3s3 26 4 26c3 0 3-5 2-15V53v1l1 3c1 1 1 0 1-1l2-5 2-3 2-3c2-1 2-4 3-15l1-16c3-2 6 0 6 3l1 3 2 1 2 1 2-2-2-2c-3 0-2-3 2-6l7-2c2 0 5 1 6 3l4 2h4c1 2 2 1 5-2l6-3 4 3 3 3-7 1-8 2c-2 0-2 1 1 2 1 2 4 2 5 2 2 0 3 1 3 2l-3 1-6 2c-2 1-2 1 0 2l1 1-6 1-7-1-5 11 3 2h6l3-2v2c-1 2 3 5 6 4l3 1c2 3 5 3 6 1l-2-7c-2-3-3-5-2-6 1-2 11-1 13 1h-9l1 5c0 5 0 5 6 5 3 0 7-1 9-3 3-2 5-5 5-6 1-3 2-3 5-3 3 1 4 1 4-1s-1-2-3-2l-5 2-3-1 2-1c4 0 2-4-3-7l-7-3-1 2 4 4 2 2-5-1h-4l-4 1 1-2 2-5c0-2 1-3 5-4 4 0 5 0 8 3l6 4c3 1 4 0 8-4l4-6 1-2c2 0 1 5-1 8l-3 4c0 1 1 2 4 2s3 0 1 2l-2 3c0 2 1 2 6 1 3-1 4-4 1-4-2 0-2-4 1-8l2-3 5 5 6 4 3 1c0 2 1 2 5 0l8-1 4 2 5 2 3 2c1 1 2 2 4 0 3-1 6 0 2 2-1 1-3 3-3 6l-1 5h7c3 0 6-1 5-2l-3-2c-2 0-3 0-2-1l3-1 3-2c0-1 2-3 5-4 6-3 13-5 13-4l-6 3c-3 2-6 4-5 5l5 1c4 0 4 0 2 2l-2 3 2 3c1 1 2 1 4-2 2-2 3-2 5-1 5 2 10 1 11-2 1-2-3-7-6-7l-2-2h8c7 0 7 0 8-3l1-5c-1-2 0-3 2-4l2-4c-2-2-6-1-11 3-6 4-15 6-15 3l6-3 8-4c2-3 7-5 11-5 1 0 2 1 2 3 1 2 1 2 3 1 0-1 4-2 9-2 6 0 8 1 8 3 1 1 0 3-2 4s-2 3-2 5v3l-3-3c-1-1-4-3-7-3-5-1-5-1-5 3l-1 3-3 5c-1 2-3 5-5 5-2 1-2 1 1 2 4 2 5 1 7-2l4-3c3 0 3 2 0 3-1 1-2 1 0 4l2 3 9-4c9-5 14-5 8-1-1 2-4 3-6 4-5 2-2 4 6 4l9 2 5 2 7 2 7 2 9-3c4-3 7-4 12-3 6 0 8 0 11-3 3-2 4-3 2-4l-9-3c-7 0-8 0-11 4-5 4-9 4-22 3-5 0-8-1-8-3l-3-4c-2-1-2-1 0-3l7-2 7 2c3 2 4 2 12-1 6-1 11-4 13-5 2-2 4-3 6-2 3 0 6 0 9-2l4-4-1-2-1 2h-4c-3 0-4-1-4-2s4-4 10-6c4-2 6-2 8 0l2 6c0 3-1 4-3 4l-10 4c-4 2-8 3-9 2h-2c-3 2 1 5 4 5l4 1h6c3-1 4-1 5 1s2 2 6 0 6-7 1-6c-1 1-2 0-2-1l2-2 3-3c1-2 7-3 7-1l-3 2-3 2c0 1 1 2 3 2 1 1 3 2 3 4s-2 3-7 5c-7 2-10 5-6 5l2 2h-4c-5-1-12 2-12 4l-5 7-6 6c0 2 3 2 6-1 2-2 2-2 2 1s5 5 8 2l8-2c5 0 6-1 7-3l-3-4c-3-1-5 0-8 1l-4 1c0-2 8-6 13-6 4-1 6 0 8 2 4 3 4 6 1 5-2-1-8 3-7 5 2 2 7 2 9 0l7-4c4-1 5-2 5-4s1-2 4-2l7-2 11-6c6-2 11-3 18-3 9-1 10-1 16-7 6-5 7-6 12-6 4 0 7-1 9-3 1-1 5-3 8-3 4-1 5-1 4 1l-2 3 6 2c6 1 7 3 5 4-3 2-2 5 2 7l3 2c0 1-1 2-3 2-2 1-3 0-6-2l-5-4c-3 0-7 5-7 8 0 1 0 2 2 2v3l-1 5c1 3 15 4 19 2h4v3c-3 2-14 2-16 1-2-2-11-2-14-1l-1 4c0 3 1 4 3 5h8c2-1 5 0 7 1 3 2 4 2 8 1l12-2c4 0 7-1 11-4l7-4c1 0 1 1-1 2l-2 2 5 2c4 2 6 2 8 1h4c1 1 2 0 5-2 3-4 14-9 16-8s1 3-2 3l-6 3-4 2-4 4c-2 2-4 3-6 2-3-1-4 2-2 3l7 4c4 1 7 2 7 4l4 3c2 0 3 1 3 2 0 2-1 2-3 2-2-1-4 0-6 2l-5 2-5-2c-1-2-3-3-6-3l-4-1c1-2 11-2 12 0l4 1c3 0 4 0 2-3l-5-4c-4-2-6-2-12 0h-7l4-3 6-2 1-1c0-2-3-4-6-4-5 0-10 2-11 6-2 3-3 3-12 3-7 0-11 0-13 2l-3 3 3 3 6 2c1 1 3 1 7-1l8-1 5-1 4-1c1 1 0 2-2 3l-3 4c0 2 0 3 2 4 2 0 3 2 3 3 0 2-1 2-4 2l-4-4c-1-4-4-6-10-5l-8-1c-3-1-4-1-6 3-2 3-2 4-1 5l2 4 3 1 7 2c4 2 4 2 1 4l-3 2c0 1 1 2 3 2s3 1 3 2c1 2 0 2-3 1-3 0-6-2-7-3-2-4-9-4-13 0-2 2-4 3-7 3l-11-1c-5 0-7 0-7 2-1 3 7 7 12 6 2-1 5 0 8 1l8 2c2 0 4 1 3 2l-5 3h-16l-5-1c0-2-2-4-5-5s-7-2-12-1l-7-1 6-3c3-1 7-2 8-1 2 0 3-1 4-4 2-4 2-4 10-3 7 0 10-1 15-3l7-2c2 0 2-4 0-6l-27-4-14-1c-2-1-2 0-2 2 0 5 1 7 5 7l6-2 4-2-2 2-6 3c-1 0-2 1-2 5 0 3-1 4-2 5l-4-1v-1c1 0 2-1 2-3l-1-2-2-2-1-2c-2 0-8 4-8 5l4 2 4 2c0 1-3 4-7 6l-6 7c0 1 2 2 6 2l6 1-4 1c-2 0-3 1-3 3l3 4c3 2 17 2 17 0l2-1 2 2-7 3-10 2-6-2c-3-1-4-2-4-4l-1-5-10-2c-5 0-8 0-9-2s-2-2-6-1-5 2-5 5l-3 4-4-3c-1-2-3-3-4-2l-7 2c-3 2-4 2-7-1-2-2-3-2-7-1-3 2-4 2-7 0s-3-2-6 0l-2 4 2 2c3 0 11 5 10 7s-7 1-8-1c-1-1-2-2-5-1-4 1-5 1-5 5l-1 3-2-1c-2-1-2-1-4 1s-2 2-2 0l1-3c1-1 2-2 1-3-1-2-3-2-3 1l-2 4c-2 1-2 1-3-2l-1-4 5-3c4-1 4-2 3-4l-2-4-8 2c-6 1-7 2-6 4 0 2 0 3-4 3-6 1-10 0-10-2l3-1 4 1 3-3c1-3 1-3-2-5-6-2-14 0-19 5-2 3-5 5-6 5v3c1 2 0 2-7 3l-9 3-6 1c-3-1-5-2-6-4s-3-4-6-5c-5-1-6-1-10 1l-7 3c-2 1-4 3-7 11l-5 23-2 11-3 15c-1 5-1 7 1 10 3 4 3 8 3 40l1 40 1 5 5-3c3-3 4-4 2-8-1-3-2-5-1-6l1 1 3 5 4 2v-7l1-8c1-1 1-1 1 2 0 2 1 3 4 4 2 0 4 0 6-2 3-3 3-4 2-8l-1-5c1-2 6-2 6 0h-1l-1 1 2 2c2 2 3 2 3 0l5-1c4 0 7 1 9 3 3 3 4 3 5 1l2-5c0-2 0-3-2-2-2 0-3 0-3-2l-1-4-4 1c-4 3-4 3-5 0l-2-2-2 3v4l-1-4c-1-2-1-4 2-7 2-3 4-4 6-3 3 0 3 0 3-5 0-4 0-5 2-3 1 1 2 3 4 3l2 4c0 1-1 2-3 1-2 0-2 0-2 2l2 3 6 2c3 1 4 0 5-2l3-3c1 1 2 0 2-1 0-2-1-4-4-5s-3-4-1-4l6 2c4 1 5 3 5 5 0 3-1 4-4 5l-6 5c-2 4-2 4 0 5s2 2 0 5v4c3 1 5-2 6-8 1-4 2-6 4-7 4-2 8-1 8 1l-3 3-4 1c-2 1-6 11-5 13l3 1 2 2c0 2 0 2-2 1l-3-2-3 4v5c1 1 2 0 4-1l4-1-1 7c-2 4-2 7-1 8h3l2-4c0-3 3-7 6-7s2 2-1 3c-2 0-3 2-3 6v7l2-1c1-2 2-2 3-1l-3 3c-2 0-3 1-3 2l-2 4c-2 1-2 3-1 4v6l-3 4-3 2c-1 2-2 2-3 1v-5c2-2 2-3 1-4l-3 1c-2 2-5 9-4 10l4 1 4 2c0 2 1 3 3 3s2 1 3 11l1 16c1 5 1 5 2 3 2-3 2-3 2 0l1 4 3-1v-5l-2-7c-2-4-1-11 1-11l1 3v5l2 7c1 8-2 13-6 12-2-1-4 0-6 1-2 3-2 4-1 9l3 6 7-9c5-8 8-10 8-7l-2 3-2 5 3 1 2-1 3-3c3 0 4-2 5-7l1-10-3-4c-1 0-2 2-2 6l-1 9c-2 2-2 1-1-7l2-14 4-3 2 2c0 4 3 3 3 0a205 205 0 0 0-1-15l2 8c1 4 2 7 3 6l2-4c1-4 1-4 2-2l3 2c2 0 2 1 1 6 0 5-1 8-4 11l-4 4-2-4-2-5c-2 0-2 2-1 10l2 14c1 3 2 4 4 4s3 0 3 2c1 1 0 2-3 3-2 0-3 2-3 3l2 1 2 4c0 2 0 3 3 2l2 1c0 1-10 5-11 4l-1-13-2-12c-1-2-2-1-2 2-1 3-2 3-6 3-3 0-5 1-5 3-1 1-2 2-4 1l-2 1 1 2 2 6c0 4-1 5-2 2-3-3-5-1-4 3 0 3 0 4-1 3l-4-4-3-4-1 4-1 3c-1 0-2-1-2-3-1-5-6-4-6 1 0 3-1 3-3 3-2-1-3 0-3 1 0 3-4 10-6 11s-3 1-5-2c-3-3-4-3-9-4h-7l1 7v7l-2-3-2-2c-1 0-2 1-2 3l-1 2-1 4v3c-2 0-4-3-4-6s-5-7-8-7l-4-2-14-6c-2 0-2 0-2 2l1 4 5 2c4 0 8 2 8 4h-7l-8-2c-1-2-3-2-4-2-1 1-2 2-1 5 1 5-2 9-5 7l-4-1c-2 1-3 0-3-5l-1-6-3 3v6c2 4 0 6-4 4-2-2-3-2-4 1-2 2-2 2-4-1-1-3 0-9 3-11 2-2 1-10-1-9l-4-1-7-1c-4 0-4 0-4 4v5l-2-8-2-8-5-2c-3-1-5 0-6 1-2 1-2 3-2 4l4 2c3 0 3 1 2 2l-1 7c-1 6-1 6-4 7l-6-1c-2-2-2-2-3 0l-2 3-1 2-1-2-2-2c-1 0-2-5-1-8 1-1 1-1 1 2v4l3-4 6-3c4 0 7-2 7-4 0-1-2-2-8-2-7 0-7 0-4-1 4 0 5-1 5-3 1-3 0-4-4-6-2-1-5-3-5-5-1-2-2-2-4-2h-3c0-2-3 0-3 1l2 2c1 0 2 1 2 4 0 2-1 4-4 5-4 2-3 5 2 6 4 1 4 1 3 6l-1 5-5-4c-3-3-4-5-4-9 0-5-2-6-8-7-4 0-5 3-4 7h2l3-1 1 2c0 1-5 4-9 4l-5-2c-2-2-2-2-3 1v3l1 3-6 1c-3 0-5 0-6-2s-3-2-6-1l-5-1c-1-2-1-2-2 0l-1 4c1 1 0 2-1 2l-1-1c0-1-1-3-3-3-2-1-3-2-3-5 1-3 0-4-1-4l-2 2-2 4-2 2 3-9c3-4 4-7 3-7l-1 1c0 1-1 2-3 2l-6 6-3 7c-1 0-1-1 1-4l2-5-3-2-3-1-2-1c-1 1-2 0-2-2l4-4 3-3c0-1-1-2-5-2l-6 2-1 8v3c0-1-1-2-4-2-2 0-4 1-5 3-1 1-1 2 1 4 1 1 2 1 3-1 2-3 2-3 2 0 0 2 1 3 2 3l2-2c0-1 1-2 2-1l2-1 2-1c3 0 3 4 0 4-1 0-2 0-1 1 3 1 2 4-1 5s-3 3 1 2c2 0 3 0 3 4l1 5c1 1 5-3 6-6s1-3 1 0l2 5 2 3 2 3c2 2 3 2 4 0 2-1 3-1 2 2l2 2 4-1c1-2 4-2 7-2 6 0 7 1 5 4l-4 3c-3 2-14 0-16-3l-2-2-1 4-1 3c-1 0-2-1-2-3 1-4 0-5-1-5l-1 7c0 5 0 6-2 6l-3-1-2-5c1-3 0-5-1-6-1 0-2 1-2 3s0 2-2 2c-2-1-3-1-3 2 0 2 1 2 2 2 3-1 3 0 4 3 1 4 0 7-2 7l-1-3c1-4-1-6-2-4l-2 7-1 4v-9c1-3 0-5-1-5l-1 4-1 4c-1 0-2 2-1 4l-1 3-2-3 1-5c1-1 3-4 3-7 1-4 0-5-1-5l-2 4-2 5c-2 1-2 3-2 8 0 6-1 7-3 7l-4 2c-1 1-1 1-1-3v-6l-2 1-2 6c0 6-4 13-7 13-1 0-2 2-2 7s0 7 2 8l2 6c0 4 0 5 2 6 3 0 4 3 2 7-2 1-2 1-3-1 0-2-1-3-2-3l-2 7c-1 6-4 11-6 9s-1-7 3-15c3-5 4-9 4-11l-3-4c-2 0-2 0-1-3v-5c-1-1-2-1-3 1l-1 5-1 2-4 1c-2 2-3 2-3-2-1-3-2-4-4-4-1 1-2 2-1 3 0 3 0 3-1 0l-2-5-2-1-2 10-1 11-1 7c0 5-1 6-2 4l-5-2c-4 0-10 3-9 6l4 2c2 0 3 2 3 3l2 4c1 1 12-6 13-9v-13c-1-10-1-10 1-11 3-1 3 0 3 5l-2 13c-1 8-1 9 1 11 3 2 3 2 5 0l2-4 1-1 3 4v16c1 1 5-2 5-6 1-2 1-1 1 3v8l-1 10v10c2 3 2 22 0 24s-4 12-4 15c1 2 2 3 6 3l6 1c1 1 0 2-1 3-3 3-19 4-22 2zm4-5-2-4h-4c-1 3 1 6 4 6l2-2zm-12-13-1-2c-1-1-1 0-1 1l1 2 1-1zm17 0-1-1-1 1 1 1 1-1zm-36-4c-1-2-5-2-5 1 0 2 3 3 5 2v-3zm33 1-2-1c-2 0-2-1-1-5l1-5c-1-1-1 0-1 1l-2 1c-1 0-2 1-2 3 0 3 4 9 5 8l2-2zm-24-5-1-7-1-7c-2-2-3 4-4 11l1 7h3c2-1 3-2 2-4zm7 3c1-3 0-6-2-6-1 0-4 7-3 8 2 1 4 0 5-2zm-16-7c3-2 2-5 0-5l-5 2c-2 3-2 3 0 4h3l2-1zm-30-5c0-2-1-3-5-3h-6l2 4c3 4 8 3 9-1zm23 1v-3c0-2-1-2-5 0l-5 2 1 2c1 2 8 1 9-1zm30 1c2-2 2-6 0-6s-5 6-4 7 2 1 4-1zm11-5c2-7 3-13 1-14-1-1-2 0-3 2l-2 9c-1 5 0 7 1 7l3-4zm8-7c0-2-1-2-2-2-2 0-3 2-4 6v6c1 2 6-7 6-10zm-37 0 4-7c2-1 1-7-1-7l-4 2-8 3c-5 2-17 9-17 11l6 1c4 0 6-1 9-4l5-4v3l-1 6c0 2 1 3 3 3 1 0 3-2 4-7zm-27 3-1-1-2 1 2 1 1-1zm17 0-1-1-1 1 1 1 1-1zm28-1 4-2c2 0 2-3 0-4-1-1-9 5-9 7s3 2 5-1zm-11-3c1-4-1-5-3-2-1 4 0 6 1 6l2-4zm-38-3-1-2-2 2 2 2 1-2zm52-5 8-10 1-7c-1-1-2-1-7 4-3 3-7 6-8 5-2 0-3 2-1 3v5l-2 5c0 4 4 1 9-5zm-74 2c-1-1-4 1-3 2h3v-2zm63-1v-4l-1-2c-1 0-3 6-2 7s4 0 3-1zm-52-2c0-1 0-2-2-2-1 0-2 1-2 3s3 1 4-1zm-10-3c-1-1-2 1-1 3h2l-1-3zm23 2c1-2 0-3-3-3l-2 2c0 3 4 4 5 1zm13 0c3-1 4-2 4-8l2-7 1-1-3-1-6 7-3 9 2 2 3-1zm-22-8-1-2-1 3 1 2 1-3zm11-3 4-7c0-2-5-3-5-2l-4 7-3 6c0 4 4 2 8-4zm4 4c0-1-1-2-2-1-2 1-3 3 0 3l2-2zm27 0c0-3-3-5-6-3-2 2 0 5 3 5 2 0 3 0 3-2zm-48-3v-3h-3c-2 2-1 4 1 4l2-1zm65-2c0-1 0-2-2-2l-2 3 1 2 3-3zm-54-4c-1-2-1-2-2-1l-1 4c1 2 1 2 2 1s2-3 1-4zm51 0-1-2-1 2 1 2 1-2zm-62-3c0-2 2-3 4-1 2 1 3 1 4-1l-1-5-4-4c-2 0-5 5-4 7l-2 2c-3 1-4 3-2 5 1 1 5-1 5-3zm56 2 3-4c0-2 1-3 2-3 1 1 3 0 3-2v-4c-1-1-2 0-3 1l-4 1-4 1c-4 4-4 12 0 12l3-2zm12 0-1-4-1 3v3l2-2zm-40-2c3-3 3-11 0-11-2 0-6 7-6 11l2 2 4-2zm17-2c3-1 3-6 1-7-1-1-3 0-4 2-3 4-3 7-1 7l4-2zm-24-3-1-1-1 2c1 2 2 1 2-1zm16 1c0-2-2-3-4-2l-1 2h5zm38-4-1-5c-1-1-4 4-3 7s3 2 4-2zm-57-1c3-1 4-3 4-4l-2-4-2-6c0-3 0-4-2-4-2 1-2 2-2 7l-1 9v3l1 1 4-2zm23 0-2-2c-1-1-2-2-1-5l-1-5c-2 0-3 0-4 2-2 1-2 2 0 4v4l1 3c3 2 7 1 7-1zm-31-3-1-4-2 4c-1 3 0 4 1 4 2 0 2-2 2-4zm19-7c0-2 2-3 4-4l4-2-4-3c-3-2-5-2-6 0-2 1-2 0-1-4v-5c-1-1-6 6-6 9 0 2 1 2 2 2 3 0 4 2 2 4l-2-1h-1c-2 2 0 4 2 3 1 0 1 0 0 0-1 2 2 5 4 5l2-4zm14-5 6-3c4-1 5-1 6-7 2-6 2-7 0-8l-2-4c0-3-4-5-5-4l-2 5c0 3 1 5 3 7 3 1 3 2 1 5-1 4-1 4-3 2-1-3-6-3-9-1v5l3 4 2-1zm-24-7-1-2-1 1c0 3 1 3 2 1zm-3-4h-2v3h2v-3zm14 1-1-1-1 1 1 2 1-2zm3-6c-2-2-2-2 0-1l2 3c1 2 2 3 5 3l6-1c2-1 2-2-1-5l-3-3-1-6-1-6-3 2-2 1c-2-1-2 0-2 5 0 3-1 5-2 5-2-1-1 5 1 8 1 2 2 2 2 0l-1-5zm-11 3c3-4 6-8 6-11s-4-1-4 2l-3 4-3 4 1 3 3-2zm35-16-2-2c-2 0-4 2-3 4 2 2 4 1 5-2zm-7-1c1-2-1-8-3-8l-3 2c-1 1 2 8 3 8l3-2zm16 1-1-1h-1l1 2 1-1zm-8-7-1-2c-2 0-3 2-2 4 2 1 3 0 3-2zm24 0-1-2-1 2 1 2 1-2zm-42-3v-4c-2 0-4 3-4 6s3 2 4-2zm25 0a21 21 0 0 0 0-13l-3 1c-2 2-3 2-1 3l2 3c-1 2-1 2-3 0l-2-5c0-4-4-2-5 1 0 5 2 9 5 8 2 0 2 0 2 3-1 2 0 3 1 3 2 0 3-2 4-4zm22-5 2-3c2-1 2-15 1-15s-2 1-2 3l-1 5-1 3c0 2 0 2-2 2-1-1-2 0-2 1l-1 1v-6l-1-8h-2v11l1 10 4-1c3 0 4-1 4-3zm-35-7 2-5c3-2 4-6 2-6l-4 1-3 3-1 4c-2 1-2 7-1 9 1 1 5-3 5-6zm24 0v-2l-2 1c0 3 1 3 2 1zm-4-1v-2l-2 2 1 1 1-1zm-2-3c2-2 2-5 0-5l-2 1-1 3c-1 3 1 3 3 1zm15 0-1-1-2 1 2 1 1-1zm-19-4 2-3-3-1c-2 0-5 2-5 4s4 2 6 0zm36 0c0-2-2-2-2 0l1 1 1-1zm-17-3-1-2c-2 0-3 2-2 4s3 1 3-2zm13-1c0-2 1-3 3-2s3 0 3-2l-2-3-2 1c-1 2-2 2-2 0l-1-3-1 6 1 6 1-3zm-28-4v-7l1-5 3 4c1 2 2 3 3 2 2-2 1-2 0-3v-2l3 3c1 2 1 2 0 0l2-4c2-2 4-1 4 2h1l1-4 1-6-1-2c-1 0-3 1-3 3 0 3-1 3-3 3-1-1-2 0-2 1l-2 2v-1l-1-3-4 1h-4c-1-1-2-1-3 1l-2 7 1 7c0 3 3 3 5 1zm15-3-1-2-2 2c0 2 1 3 2 3l1-3zm6-2 4-2c1 0 2-1 1-2-1-2-2-1-5 0l-3 4h3zm-29-5c1-3-2-2-3 1l1 2c1 0 2-1 2-3zm41 0-2-5-2 1c-1 1-1 3 1 5 2 4 4 3 3-1zm-11-2-2-1-1 1 1 1 2-1zm19-2c0-3 0-4 3-4l2 2c0 2 1 3 2 3l1-6c1-5 0-6-2-8h-5l-2 1-3 1c-2 0-3 3-4 6l1 6c0 1 1 1 2-2l1-3 1 4c0 2 0 3 2 3 1 0 2-1 1-3zm16-2h-4c-2 1 2 3 4 2s2-1 0-2zm-64 0-1-1-1 1 1 1 1-1zm34-3-2 1c0 1-1 1-1-1l-1-2v6l3-1c1-1 2-2 1-3zm-13-3-1-4-4 3c-1 3-1 3 1 4l2 1 2-4zm-15 2-1-1-1 1 1 1 1-1zm-3-2 4-3c-2-2-9-2-10 0-1 1-2 3-1 4l1 1 6-2zm10 0-2-2c-1 0-3 2-1 3 1 2 3 1 3-1zm23-1c-1-2-3-3-3 0l2 2c1 0 2-1 1-2zm161-1-2-1-1 2 1 1 2-2zm-167-2-2-2c-1 0-2 1-2 3l2 2 2-3zm9 1-1-2-1 2 1 1 1-1zm162 0-3-6c-2 0-2 5 0 6h3zm15-3h-2l-1 3h3v-3zm-201-1c0-1 1-2 3-2l4-3 3-3 1 1v4c0 2 1 3 2 2 2 0 2-1 2-2l3-6 8-6 6-5-1-3-1-3c0-1 2-2 4-1 2 0 4 0 4-2l3-1h2l-2-4c-2-2-2-3-4-1l-9 5c-5 3-7 5-11 11-4 7-5 8-5 5l2-4c3-1 3-5 0-5-2 0-4 2-5 4l-4 4-5 6c-3 6-3 13-1 12l1-3zm243 1 2-4c2-1 2-1 0-3l-8-2c-3 0-5 0-6 2l1 3 5 4 5 3 1-3zm-217-3-2-5c-2-2-3-4-4-3v7c1 2 2 2 4 2l2-1zm124 0-2-2-1 2 1 2 2-2zm-154-4c0-1 0-2-2-2h-2l-1 3c0 2 0 2 2 2l3-3zm43 2-1-2-2 2 2 1 1-1zm50 0 1-4 1-2 3-1c0-1-5-5-7-5l-10 5c-2 2-3 5 0 5l3-2c3-2 3-2 4 2l3 3 2-1zm37 0-2-2-1 2 1 1 2-1zm73-2 1-5 1-2h-2l-6 2c-5 0-6 0-6 3 0 2 1 3 4 4l7 1c2 0 2-1 1-3zm9-1 1-5c-1-2-5-2-6 1-2 3-1 8 1 8l4-4zm13-2c2-1 1-2-1-5-2-2-2-3-4-1l-2 4 2 3 3 1 2-2zm11-3c1-4-3-6-6-2l-2 4c0 1 2 2 4 1 3 0 4-1 4-3zm16 1-1-3-3 2c-2 1 0 4 2 4 1 0 2-1 2-3zm-172-3 1-5h-3c-1 1-2 1-2-1l2-4c1-2 0-3-1-4l-2-4c0-1-1-2-3-2l-3-1-3 6c-3 5-3 6-1 7 1 0 4 0 6-2h4l-2 1-2 1 1 2c1 0 2 1 1 3 0 1 0 4 2 5l3 2 2-4zm100 3-1-1-1 1 2 1v-1zm96-1-1-2-1 2 1 2 1-2zm-170-2c2-3 3-6 1-6l-3 1 1-1c2-3 3-4 2-6-1-1-2-1-4 1-3 3-10 3-11 0-1-1-2-2-4-1-2 0-2 0-2-2l3-4c3-3 3-4 2-6l-3-2-1 2-3 9c-1 4-4 6-4 6l2 1 11 5 10 5 3-2zm70-2c0-2 0-3-3-3l-4 1c-2 3 0 6 4 6 3 0 3-1 3-4zm94 3-2-1h-1l1 2 2-1zm-51-2v-3c-2-2-5 0-5 2 0 3 3 3 5 1zm-163-1c0-2-3-4-5-4l-1 2c0 2 1 3 3 3l3-1zm14 0v-2l-2 2 1 1 1-1zm181-1c0-2-4-4-6-2v3c1 2 5 1 6-1zm14 1c1-2-5-10-7-10-3 0-3 5-1 8s6 4 8 2zm-81-4-1-3c-3 0-5 3-5 5 0 1 1 2 3 1 2 0 3-1 3-3zm12 0c3-5 3-6 5-4h2l-1-8-8 6c-5 5-6 6-4 8 1 1 2 2 3 1l3-3zm14 2c5-2 7-5 2-5l-4-1-5 2-3 4 2 2 8-2zm32 1-1-2c-1-4-5-3-5 0 0 2 1 3 3 3l3-1zm34-4-1-5c-3 0-5 3-5 7 0 2 0 3 3 2 2 0 3-1 3-4zm-215 1c0-3-4-3-4 0-1 2 0 3 1 2 2 0 3-1 3-2zm66 0c-1-1-2-3-5-3h-5c-1 2-2 3-1 4l6 1c4 0 5 0 5-2zm42 0-3-6c-3-3-4-3-5-2s-2 3-1 5c0 3 1 4 4 4l5-1zm65-2c-2-3-6-3-6 0l1 2 4 1c2 0 2 0 1-3zm-89 0-1-3 1-5c1-2 2-5 1-6l-2-2c-1 0-2 0-2-2s-1-2-2-2l-4 6 2 1c2-1 2 0 2 2l1 4v4c1 3 2 4 4 3zm-30-3-2-2-2 2 2 2 2-2zm38-1 1-3 4-6c7-10 1-10-8 0-5 5-5 9-1 9 1-1 1 0 1 1s0 2 2 2c1 0 2-1 1-3zm-143-1v-3c-2 0-4 3-4 5l1 1c1 0 3-1 3-3zm219 1 3-4c0-3-3-4-7-1l-2 5 2 2 4-2zm68 0c1-3-2-4-3-2-2 2-1 4 1 4l2-2zm5 0-2-3-1 2 1 3 2-2zm-280-3 6-3c2 1 3 0 4-1l-1-3c-2-1-1-2 3-6 3-2 5-5 5-6h-3l-6 2c-2-1-3 0-5 4l-4 6v-2c1-1 0-2-1-2l-1 1-2 4-1 1 2 3v5l4-3zm39-2-1-5-3 4c0 3 0 3-1 2l-2-2c-2 0-3 3-2 5l5 1c5 0 5 0 4-5zm35 4 3-1c3 0 4-4 0-5-2 0-7 3-7 6l2 1 2-1zm62-1-2-2-1 2 1 2s2 0 2-2zm18 1c2-1 3-3 3-5l1-3 1-1h-3l-2 4-4 1-4 1 3 3 2 1 3-1zm16-1c2-1 2-2 0-4l-4-2c-3 0-8 4-8 6l6 2 6-2zm26 1c2-1 2-2 1-3-2-2-8-1-8 1s1 3 3 3l4-1zm47-2c1-1 0-2-1-3h-3v4c1 3 4 3 4-1zm-144-1c1-1 2-3 1-4l-5 1c-3 2-3 3-2 4l3 2 3-3zm134 2-3-4c-2-2-2-3-1-5l4-3c3 0 5-3 2-4l-5 2c-2 3-4 3-8 3h-5l2 6c3 5 3 5 12 6l2-1zm-163-3-3-1v3h2l1-2zm18 1v-4c0-2-1-2-3-1-4 3-5 7-2 7l5-2zm128 0-2-2c-1 0-3 2-1 3 1 1 3 1 3-1zm54 0-1-2-1 2 1 2 1-2zm-84-1c2-1 1-4-2-4-1 0-2 1-2 3l1 2 3-1zm74-2c0-2-3-3-4-1s1 5 2 4l2-3zm-199 1-1-5c-1-1-3-4-6-5-4-1-6-1-6 2 0 2 8 9 11 9l2-1zm175-1c0-2-4-4-5-3s2 5 4 5l1-2zm31-4c-1-3-3-1-3 2s0 3 2 1l1-3zm-252-4h-2v8l2-4v-4zm16 6c1-1 0-2-1-4h-4c-3 3-3 5-1 3l1 1c0 2 4 2 5 0zm77 0-3-4c-4-3-11-4-11-1 0 2 1 3 3 3l4 2c2 1 7 2 7 0zm70 0c1-1 1-2-1-4l-3-3c-2 0-4 3-4 7 0 2 6 2 8 0zm-159-3c-1-2-4 0-3 2h3v-2zm63 2c0-2-1-3-3-2-1 1 0 3 2 3l1-1zm11-1-2-2-2 2 2 2 2-2zm51 0-2-2-2 2 2 2 2-2zm105 1-1-2c-1-1-2 0-2 1l2 2 1-1zm5-4c0-3 0-4-2-4-3 0-4 4-1 6l3 3v-5zm-53 2c3-1 3-1-1-5-5-4-6-8-2-7 3 1 3 0 3-4l-2-5-2-2c0-1 0-3-2-3l-4 2c-2 2-2 4 0 12 1 2 0 2-1 1h-4l1 5 1 6c1 2 9 2 13 0zm-125-2-2-2c-2-1-4 1-3 3s5 2 5-1zm38 0 3-3-3-1c-2 0-4-1-5-3s-1-2-4 0c-2 2-2 3 0 6l5 3 4-2zm-74 0h5c2-2-1-8-4-8-2-1-2-2-2-13l3-17c2-3 2-7 2-13-1-6 0-10 1-13 2-2 2-5 2-6l-2-2c-2 0-4-9-6-24a2912 2912 0 0 0 0-16c1 2 3 4 4 3l1-5v-2l2 2c1 0 2-2 2-5 1-4 0-8-1-12s-3-7-4-7v17l-3-3-2 2-1-3-1-13-1-10c1-3 1-2 2 5 0 5 1 9 2 9s2-3 3-10l-1-12a471 471 0 0 1-2-25c0 3 2 5 3 4 2 0 2-1 2-5l1-7 1-6-3-5v2l-1 3-2-5-1-7-3-1c-1 1-2 0-2-3l2-5v-9l-1-15c0-6 0-7 2-7s3-1 3-3l-2-3-1-9c0-6 1-9 4-15 2-5 4-10 3-12 0-5-4-6-6-2l-1 3-1-3-2-3c-2 0-1 5 1 8l2 5c0 2-1 5-3 7l-2 5v-5l-2-26-2 2c0 2-1 3-2 3l-4-20c-1-9-2-12-3-10l-1 11-2 16c-2 6-2 7 1 11l4 8 2 4 3-4 1-3v12c1 4 1 4 3 4s2 1 3 5c0 3 0 5-1 4l-1-3-2-4-1 5 2 8 3 1c2-1 2 0 1 2l-3 2c-2 0-3 2-3 9 1 12 1 13 2 9 1-2 1-2 2 0s1 3-1 4l-1 6c0 5 0 5-1 1l-3-39c0-6-1-10-2-11l-2-4-2-4-2-1c-1 1 2 12 4 16 1 2 1 2-1 2l-6-4-7-6c-2 0-3 0-3 2s2 5 5 7 6 6 8 10c2 3 3 10 4 17l5 25c3 13 4 17 2 15l-3-12-5-11-2 2v13l3 13c2 1 3 4 3 6l1 9 1 5-3-5c-2-6-8-9-10-7v1c2 0 3 3 4 13l1 15c-1 2 0 5 1 7 2 2 3 6 3 12l1 13 2 7c0 5 2 9 3 9l1-2 2 4v7-2c0-2-1-3-4-3h-4v41a768 768 0 0 0 4 45c0-1 0-3 2-4l2-7a233 233 0 0 1 2-22l3 6 1-10c0-9 0-10-2-8l-3 4c-2 5-2-8 0-15 2-4 2-5 4-4s2 4 2 17l1 16-3 4c-3 3-3 4-2 12l1 12c1 3 1 4-2 5l-4 3c0 1 5 4 8 4l2-1zm-10-110c0-2 1-2 1-1v2l-1-1zm0-29-3-13-2-4c0-2 0-2 2-1l3 2 1-13-2-15 1-3 2 3 1 15c1 10 1 13-1 13l-1 9 1 12v5s-2-4-2-10zm55 137-2-1c-2 0-3 2-1 3 1 1 3 0 3-2zm70-1c2-2 4-6 4-9s1-8 3-10c2-4 2-10 0-11l-1-22-1-23-2 2c-2 2-2 1-2-7l-1-11v-16c1-3 1-3 3 0l2 2a8327 8327 0 0 0-1-66l-3-14-1-22c0-10 0-11-3-11l-5-3c-1-3-2-3-5-3-3 1-6 0-9-2l-4-5c0-2-1-2-15-3l-10-3-4-3-6 4c-5 4-6 4-6 2s-2-4-3-5c-2-2-5-3-11-3-7 0-7 0-5-2s3-3 2-4c0-2-9-7-10-6v3l2 12 1 11 1 45 1 44c2 1 10 18 10 21 0 1-1 4-3 5l-2 7a835 835 0 0 0 0 62l6 18 8 12c4 4 5 4 9 3l4-4c0-1 6-1 10 1 2 0 4 2 4 4l2 2 4 2c2 2 7 3 7 1l1-2 1 2c-1 2 0 2 1 2l4-3c1-2 2-3 5-3l4-2 1-4h-11c-8 0-10 0-10-2l1-2 4-3v-6c-1-2-1-3 1-6 1-2 3-3 5-3l3-2c1-1 0-2-1-3v-3l1-4c-1-2 2-8 4-8l2 2 3 2 2-3c0-2 1-2 2 1l3 7 3 1c1 0 2-2 2-9l1-11 1 10v12l-5 1-6-2c-1-2-2-2-3-1l1 4 4 16c0 3-1 5-3 7l-3 7c0 5-1 6-5 7l-5 3c0 1 1 2 3 2l8 2 7 3 4-4zm-1-15 1-2 1 2v2l-2-2zm-9-57a1974 1974 0 0 1 0-47l2-13c0-7 0-12-2-17l-2-23c0-13 0-18 2-18 2-1 2-5 0-7l-4-5-3-5-2-4c-2-3-2-4 0-5l4-1 5 6c4 5 4 6 2 8-1 3-1 3 1 5l2 7-1 8v13c-1 1-1 8 2 31v11l-1 7-1 6-1 21c0 11-1 20-2 21l-1 1zm-24-152c-3-2-5-6-2-5l3 1 3 3v2l-4-1zm-31 225-1-1-1 1 1 2 1-2zm153 1-2-5-3-3-2 2c-1 2 4 7 7 7v-1zm-148-3v-7c-2 0-5 7-4 8 1 2 3 2 4-1zm87 0c0-1 0-2-2-2-1 0-2 1-2 3s3 1 4-1zm78-1c0-3-3-4-4-1s-1 4 2 4l2-3zm-200-3c-3-2-6-2-7 1l2 1 4 2h2c1-1 1-2-1-4zm20 3 2-3c-1-2-6-2-7 0-1 1 0 2 1 3l2 2 2-2zm23-1-1-3c-1-1-6 3-5 4 2 2 5 1 6-1zm-30-1-2-4c-1-1-7-2-7 0 0 1 5 7 7 7 1 0 2-1 2-3zm-23-2c-1-1-3 0-2 2l2 1v-3zm204-1-1-7-3-5c-1 0-2 14 0 16 1 1 4-2 4-4zm12 2c0-2-3-2-4 0 0 2 1 2 2 2l2-2zm5-7v-8l-3 6c-1 9-1 12 1 11 1 0 2-4 2-9zm-103 7-2-2-1 2 1 1 2-1zm109-2v-4l-2-4c-1 0-2 2-2 5 0 4 0 5 2 5l2-2zm-256-3c0-1-2-1-3 1l2 1 1-2zm40 0v-3l-7-2-5 1v4c1 3 11 3 12 0zm199-2h-3c-2 1-2 2 0 3 3 1 5-1 3-3zm-74 1-2-2-2 2 2 2 2-2zm-22-3-2-2-1 2 1 2 2-2zm4 1v-2l-2 2 1 1 1-1zm60-4-1-4h-3c-2 1-2 6 0 7 3 1 4 0 4-3zm27 1c0-1-1-1-1 1l1 1v-2zm-191-2c0-3-1-3-4-3l-3 1 2 1 2 2 1 2c1 0 2-1 2-3zm148 3c3-1 3-7 1-8l-2-1-2 9h3zm-163-4v-5c-1-2-4 0-4 2l-2 2-2 2c0 1 1 2 3 2 3 0 4-1 5-3zm137 2c0-2-5-3-6-2-3 1-2 3 2 3l4-1zm-48-4c0-3 1-3 4-2 4 1 4 0 4-3 0-4-3-9-6-9-1 0-2 1-1 3l-1 5-4 2c-2 0-2 1-2 3v4l4 1c2 0 2-1 2-4zm82 2 1-2c-1 0-2 0-3 2-3 2-2 2 2 0zm48-3 1-5v-3c-1-1-2 0-3 1l-2 7c0 3 0 5 2 5 1 0 2-2 2-5zm-99 2-1-1-2 1 2 1 1-1zm93-2c0-2 0-2-1-1l-1 3 2 1v-3zm-16 0c-1-2-4-2-4 0l2 2c2 0 2-1 2-2zm-70 0-2-3c0-1-2-2-3-1-3 1-3 1 0 3s5 2 5 1zm24-3-2-1v2c1 2 2 2 2-1zm13 0c4-2 3-5-1-3l-4 2h-2c-2-1-2 0-2 1 0 3 1 3 9 0zm58 1-1-1-1 1 1 1 1-1zm-205-2v-3h-3c-1 1-2 2-1 3l2 2 2-2zm210 1-2-2-1 2 1 1 2-1zm-231-3c0-2-1-3-2-2-1 0-2 1-2 3l2 2c1 0 2-1 2-3zm206-3-1-4-3 3c-2 2-2 3-1 5l3 1 2-5zm7 3-1-4c-1-1-2-1-3 1-1 3-1 6 2 6l2-3zm-64 0 2-3c2-2 2-3 1-4l-4 2-3 4 3 2 1-1zm-136-4 2-5 2-4 2-6-1-5c-2 0-5 6-4 8l-1 5c-1 3-2 4-3 3h-2v5l2 3 3-4zm207 2-1-3-3-1-1 3c0 4 3 4 5 1zm-35-1-1-1-1 1 1 2 1-2zm-161-4v-3l-1-3c-2 0-3 9-2 10l1-1 2-3zm100-2-4-3c-2 0-3 6-2 8l5-1 4-2zm10 4c1-1 0-2-2-2s-3 1-3 3l2 1c2 0 3-1 3-2zm34 0-1-1-2 1c0 2 1 2 2 2l1-2zm-149-2v-1l-2 1 1 2 1-2zm126 1 1-2c1-2 0-3-1-3-2 0-5 4-4 5h4zm42-1-2-1-1 1 1 2 2-2zm-11-1c0-1-3-3-4-2s1 3 3 3l1-1zm48-3c0-2 0-2-2-2l-2 4c0 2 0 3 1 2l3-4zm-32-3c0-1-2-1-3 2-2 3-1 5 1 2l2-4zm24-2 1-9v-6l-3-4c-2 1-3-3-3-6 0-1 0-3 2-4 1-2 2-1 2 2 0 2 0 3 2 3 3 0 2-6-1-8l-6-1c-4 0-4 1-4 6l3 8c2 3 2 3-2 7l-3 7c1 1 2 2 5 2 4 0 4 0 4 4l1 6h2v-7zm-5-9 1-3c1-1 1-1 1 2v3l-2-2zm-52 12-2-2c-2 0-3-2-4-6s-3-6-5-7-3-1-4 2v5c2 1 2 1 3-1 0-2 1 0 4 5s4 7 6 7l2-3zm27 2-1-2-1 2c0 2 1 2 2 0zm16 0c3-2 2-8 0-9-1-1-3 0-4 3-2 4-2 8 1 8l3-2zm-51-2-2-4c-2-1-4 3-2 5l2 1 2-2zm-26-3-2-7c-1-1-3-2-4-1-2 0-2 1 0 2l2 5 1 4c2 2 3 1 3-3zm11 3-2-2-2 2 2 1 2-1zm43-1-2-2-1 2 1 2 2-2zm-34-2-2-2c-1-1-2 0-2 2s1 3 2 2l2-2zm63 1-1-2-1 2c1 2 2 2 2 0zm-39-3c0-2-3-2-3 1-1 1 0 1 1 1l2-2zm8-2-2-1c-2 0-3 3-2 4s4-1 4-3zm16 2c2-2 2-3-1-5l-5-2-3 3c-1 2-1 3 1 4l4 2 4-2zm-60-1-3-1-3 1c0 1 1 2 3 2s3-1 3-2zm-110-1-2-1-1 1 1 1 2-1zm137-3v-6l-4-5-3-2-1 3c-1 2 0 3 1 3l2 2a37 37 0 0 0 1 7l1 1 3-3zm38 0h-2l-1 2h2l1-2zm-102 0-1-2-2 2c0 1 1 2 2 1l1-1zm45 0-2-1-2 1c-1 1 0 2 2 2l2-2zm31-1-3-1-4 2 4 1 3-2zm12-1c0-1-1-2-2-1l-3-1c-2-2-4 0-3 2l4 2c3 0 4 0 4-2zm-180 0-1-2-2 2 2 1 1-1zm191-1c1-2 0-11-2-12s-3 4-3 9l3 5 2-2zm36-2v-9c0-5-1-7-2-7l-3 6 1 7c1 0 2 2 1 3 0 1 0 2 1 1l2-1zm-217-1-1-2-1 2 1 1 1-1zm117-1-2-2-1 2 1 2 2-2zm10-1-3-1c-4 0-5 2-2 3 2 1 5 0 5-2zm31 2-1-2-2 2 2 1 1-1zm36-2c1-2 1-3-1-3-2-1-3-2-2-3 0-1 0-2-2-2-1 0-2 1-1 3 0 2 0 3-2 3l-3 2c0 3 9 2 11 0zm12-5-6-3c-3 0-3 1 0 2 1 1 3 3 3 5 1 2 2 3 4 1 3-2 3-2-1-5zm-53 3v-3h-3c-2 1-1 4 1 4l2-1zm10-1 3-3c2-1 2-2 1-3s-2-1-4 2c-2 2-4 4-3 5 1 2 3 1 3-1zm-184-1-1-2-1 2c0 2 0 2 2 0zm154 0 2-2-2-2-2 2-1 1-2 1c-1 2 1 2 5 0zm40 0h-4c0 1 1 2 3 2s2-1 1-2zm12 0-2-2-1 2 1 2 2-2zm-38-3 1-7h4c2 0 2-1-1-2-2-2-3-2-5-1l-4 3c-1 2-1 3 1 6l3 4 1-3zm-22-3h-2v2c0 1 1 2 2 1v-3zm50 0c0-1 0-2-1-1l-5-1c-2-2-2-2 1-2 2 1 3 0 3-1l-3-2c-3 0-3 0-2-3l-1-4c-3 0-3-3-1-4l1-5c0-3 0-3-2-1-3 3-5 13-2 12l1 4c0 3 2 6 4 8l5 3c1 0 2-1 2-3zm35 3c1-1 0-5-2-5l-1 3c0 3 2 4 3 2zm-51-6v-3l2-1-2-1c-2 0-4 6-3 8s4 0 3-3zm23 3-2-2c-1 0-2 1-1 2l2 1 1-1zm9 0-2-2-1 2 1 1 2-1zm-198-4-2-1-1 1 1 2 2-2zm123 1-2-1-1 1 2 1 1-1zm17-1c1-1 0-2-1-2l-2 2 1 1 2-1zm50-2c0-2-1-3-3-3-1-1-2 0-2 2l1 3c1 2 4 0 4-2zm28 0c2 0 3-2 3-3l-2-3h-3c-2 2-2 8-1 8l3-2zm-102-1-2-1-1 1 1 1 2-1zm34-1c0-1 0-2-1-1l-2 2c-1 1 0 1 1 1l2-2zm-6 0 2-3-1-3h-7c0 1 1 2 2 1l2 1c0 1-1 2-3 2-2 1-2 1 0 2a483 483 0 0 1 5 0zm-150-9c0-6-1-9-2-10-1 0-2 1-2 4 0 7 2 15 3 15l1-9zm6 7c2-6 0-15-3-12-1 1 0 14 1 14l2-2zm110-6 3 1c2-1 2-23 1-26-2-4-4-2-4 6l-1 11h-3l-1 7 1 8 1-4c1-4 1-4 3-3zm51 6-2-2h-2l-3 1 1 1 3 1c1 1 3 0 3-1zm21-2-1-6c-1-1 0-2 3-5l5-4 3-5 1-6-2-1c-2 0-8 9-7 11l-3 1c-4-1-5 0-5 3-1 5 2 16 5 16l1-4zm11 0c0-2-1-3-2-3-2 0-2 1-2 2l1 4 1 1 2-4zm6 1c0-2-3-2-3 1 0 1 0 2 2 2 1 0 2-1 1-3zm-69 0-1-1-1 1 1 1 1-1zm36-3-1-1-1 1 1 2 1-2zm55-2-1-1-1 2c1 2 2 2 2-1zm-9-2-2-1c-2 0-3 2-2 3 2 1 4 0 4-2zm-14-3 2-4-3-1c-3 0-7 5-6 7s4 1 7-2zm-68-1-1-2-1-2v-3c-1-2-1-2-2 1-1 4 1 8 3 8l1-2zm77 0 2-3-6 1c-1 1 0 4 1 4l3-2zm-37-4c0-1-3-3-5-2-1 1 1 4 3 4l2-2zm-173-5-2-4c-2 0-2 5 0 7 1 2 2 2 3 2l-1-5zm199 1h-2v2h2v-2zm6 0-2-2c-2 0-2 3-1 4s3 0 3-2zm-66-4-2-2c-1 0-2 3-1 4s3 0 3-2zm-8-2c-1-1-6-2-8-1-1 1 3 3 6 3l2-2zm54 1-1-1-1 1v1l2-1zm-180-3c1 0 2-1 1-2s-5 1-5 3c0 1 2 1 4-1zm210-2-2-3c-2-1-2-1-2 2v4c2 1 4 0 4-3zm-94-2-1-2-1 2c0 1 0 2 1 1l1-1zm16-3c0-1 0-2-1-1l-1 3c0 2 0 1 1 1l1-3zm9-1-3-1v4h3v-3zm-14-2-1-1-2-1-2-1c0 1 0 2 2 3l1 2-2 2h2l2-4zm-16-1 2 2 2-1 2-2c2 0 3-2 3-13-1-12 0-13 2-12 2 0 2 0 2-5l-2-7-2-1-1 4c0 3-1 3-2 3h-2c1 1 0 3-1 5-1 3-2 3-2 2-1-3-3 0-3 6l-1 6c-1-1-1 0-1 1l2 2 2 2-1 1c-2-1-4 6-2 8h2l1-1zm4-5-1-8v-6c2 2 3 16 2 16l-1-2zm23 6c2-1 3-4 1-4l-1 2c0 1-1 2-2 1l-2 1h4zm-132-2-2-2c-1 0-3 2-1 3 1 1 3 1 3-1zm-8-6-2-4v6c1 3 3 2 2-2zm133 2c0-2-2-4-4-3 0 1 1 5 3 5l1-2zm5-4v-3l-2 3-1 5c1 2 4-1 3-5zm-12 2-1-1c-1-1-1 0-1 1l1 2 1-2zm-120-1 1-2h-1l-3-1c-2-2-2-2-2 1 0 2 1 4 3 4l2-2zm12 1-1-2-1 2 1 1 1-1zm178 0-2-1-1 1 1 1 2-1zm-70-6-1-1-1 2c0 1 0 2 1 1l1-2zm-117-3-1-2-2 2 2 2 1-2zm131-3h-2v2c0 1 1 2 2 1v-3zm-6 1c0-2-2-2-2 0 0 1 0 2 1 1l1-1zm-4-7-1-2-1 3c0 1 0 2 1 1l1-2zm8 2-2-2-2 2 2 1 2-1zm-134-6-4 1c-2 2-2 2 0 3h4v-4zm108 2 2-1h2l-2-3c-2-2-2-2 0-5 3-2 3-4 2-11v-16c0-7-1-7-4-7-2 1-3 0-3-2l-2-4c-2 1-1 8 1 9s2 6 3 17 1 16-1 17c-1 1-2 7 0 7l2-1zm28-5c0-2-3-3-4-1s1 5 2 4l2-3zm4 1-2-2-1 2 1 2s2 0 2-2zm-147-5-2-4-1 3 2 5c3 1 4-1 1-4zm10 1-1-2-1 1c0 2 1 3 2 1zm126-3-1-1-2 1 2 1 1-1zm-141-2c0-1-1-2-2-1v2c1 2 2 1 2-1zm138-5h-2l-2 4c0 2 1 2 3 0s2-3 1-4zm-134-1v-11l-2 4-1 3-1-2-2-2c-3 0-3 3-1 5l1 3c0 2 1 3 2 3l4-3zm127-1-2-1v2h3l-1-1zm-2-5c0-2-2-4-4-3-1 1 1 5 3 5l1-2zm12-4-2-3-2-4-1-2-3 2c-1 1-2 1-2-1l-2-2c-2 0-2 4 0 4v2c-2 0-3 1-3 2l2 1 2-1 3-2 3 1c0 2 2 5 4 5l1-2zm-130-2c-1-2-5-2-5 0s2 3 4 2l1-2zm134-4-1-1-2 1 2 1 1-1zm-141-2-2-2-1 2 1 2 2-2zm113 0-1-2-2 2 2 2 1-2zm-143-2c-1-2-6-3-6-2 0 2 1 3 4 3l2-1zm161 0c1-1 0-2-1-4-2-2-2-2-2 2 0 3 1 5 3 2zm-9-6-2-3-2-3c-1-3-3 0-2 3 1 2 2 3 4 3h2zm12-5c-2-2-4-1-4 2 0 2 1 2 2 1l2-3zm-7-3-3-3c-1 1-2 0-3-1s-1 0-1 2c0 4 2 5 3 2v2l2 3c1 2 3-1 2-5zm-116 0c1-1 0-2-1-2l-2 3 1 2 2-3zm101-3-2-4-1 3 1 3 2-2zm-107-2-1-1-3 3 1 1 3-3zm114-1-1-13-1-2-1 8 1 8 2-1zm7-9 1-10 2 2 3-4c2-4 2-5 1-6-2-2-1-3 3-3l2-2-4-2c-4 0-4 1-4 3l-1 3-1-3c0-2-1-2-4-2-2 1-3 0-4-2 0-2-1-2-1-1l-3 1h-2c0 1 1 2 3 2 2 1 3 2 3 8 0 5-1 6-2 6-2-1-2 0-2 1s0 2 2 2 2 0 3 3c1 12 2 14 3 14 2 0 2-1 2-10zm0-15 1-2v4l-1-2zm7 23-1-2c-2 0-3 2-2 4 1 1 3 0 3-2zm-143-5-1-2-1 2 1 2 1-2zm122 0-2-2-1 2 1 2 2-2zm-116-9-3-5-1 5 2 6h2v-6zm15 4c0-1-1-1-1 1l1 2v-3zm131-1-2-4c-1 0-2 1-2 4s1 4 2 4l2-4zm-168-1c1-2-2-6-4-6v6h4zm140-4 2-5c1 0 2-2 1-3 0-2-1-3-2-3l-6-4-7-4c-2 1-2 1-1 4l2 7c0 3 3 5 4 1v1c1 2 0 3-1 3l-1 2 3 1c2 0 3 1 3 2 1 5 3 3 3-2zm-101-5c0-2 0-2-2-2h-2l-1-2c-1-1-2 0-2 1 0 3 3 6 5 6l2-3zm-12 1-1-2-2 2 2 1 1-1zm-28-2-1-1-2 1c-1 1 0 2 1 2l2-2zm121 0-1-2-2 1c-1 1 0 1 1 1h2zm47-3c1-2 0-3-1-3l-1 3v3c1 0 2-1 2-3zm-143-5c0-5 3-14 6-15 2-1 1-5-2-8l-2-4-3 6c-2 4-3 7-3 13l1 10c1 4 3 3 3-2zm90 2-2-2-1-2-3-3-1 1c0 2 4 7 6 7l1-1zm-82-1-1-1h-1l1 2 1-1zm-51-4c-1-2-2 0-1 2s1 2 1 0v-2zm10-6c-1-2-3-3-8-3s-7 1-6 2l6 5c4 1 7 3 7 4 2 3 3-5 1-8zm183 7c2-1 4-3 4-5v-4c-1-1-6 3-7 6l-4 3-1 1 2 1 6-2zm12 1-2-1-2 1 2 1 2-1zm-154-3-1-2-1 2c1 2 2 2 2 0zm82-2c-1-4-3-7-5-7l-2 2 3 5 4 4v-4zm24 2-2-1-1 1 1 2 2-2zm94-2 11-3 2-2c1-2-12-5-16-4h-5l-11-3-9 1c-2 3 1 9 4 10l5 3c3 2 6 2 19-2zm6 2-2-1-2 1 2 2c1 0 3-1 2-2zm-118-3c0-2 0-2-1-1l-1 3 2 1v-3zm35 1-1-2c-2-1-1-11 1-12h3c1 0 2-1 1-3 0-2-2-4-4-5l-3-1-1-1-3-3c-2-1-3-1-4 2v5c1 2 1 2-1 3l-4 2c0 2 0 2 3 2l5-3c1-2 1-2 3 5 1 1 0 1-1 1l-2 2 1 1 1 4v4l3 1c2 0 3 0 3-2zm-3-18h2l1 1-1 1-2-2zm34 18c-1-2-3-1-3 1l2 1 1-2zm-23-8-3-2c-2 0-3 7-2 9s2 2 5-1c3-4 3-4 0-6zm4 8-1-2-2 2 2 1 1-1zm-92-5c0-2-1-2-4-1-7 1-7 2-5 4l5 1 4-4zm8 4-1-1h-2l2 2 1-1zm49-1-1-3h-2c-1 2-1 2-3 1-2-2-2-2-3 0v3h4l5-1zm12 0c0-2-1-4-3-5-2-3-4-3-7-3-3 1-4 2-2 4l2-1c2-1 2-1 3 1 1 3 3 6 5 6l2-2zm156-1c-1-2-3-2-4 1l2 2c2 0 2-1 2-3zm-97-1c0-1-1-2-3-2s-3 2-1 4c1 1 3 0 4-2zm-143-1c0-1-2-1-2 1-1 1 0 1 1 1l1-2zm113-2c1-3 0-4-1-4-2 0-2 1-2 4l1 4 2-4zm-66 1v-3h-8c0 1 3 5 5 5l3-2zm84 0-2-1-2 1 2 2 2-2zm-97-2c1-2 1-2-1-4l-5-2-6-3c-3-2-6-4-11-4-4-1-10-2-13-4l-6-3-3 4c-2 2-3 5-3 7 0 3 1 4 5 5l6 3 11 1 14 1c5 2 10 2 12-1zm22 0c0-3-2-5-3-3s0 5 2 5l1-2zm73-1 6-4 3-3 2-4c0-1-1-2-3-2-3 1-17 13-16 15l1 1 7-3zm-212-3c-1-3-7-6-9-5-1 1-1 7 1 7l4 1c3 2 5 1 4-3zm152-1c-1-2-3-3-8-3-4 0-5 1-5 2 0 2 1 3 3 3l5 2c2 2 2 2 4 0 2-1 2-3 1-4zm-149 0c-1-1-1-1-1 1 0 3 2 4 2 2l-1-3zm263 3-1-2c-2 0-3 2-2 3s3 1 3-1zm40-1-3-1c-2 0-3 1-1 3 1 1 3 0 4-2zm49 1-2-2c-3 0-4 1-2 3 1 1 4 1 4-1zm-471-1c1-2-2-5-5-5s-3 2-1 5c2 2 5 2 6 0zm457 0-2-1-2 1 2 1 2-1zm-20-6c0-2-9-5-16-5-3 0-4 1-4 2s2 4 6 5c6 3 7 4 10 2l4-4zm-371 2-3-1c-3 0-4 1-5 2 0 1 1 2 3 2l5-3zm34 0-2-1-1 3h2l1-2zm61-3c0-6-3-11-5-10v4l2 11h1l2-5zm197 3-2-1-2 2c0 2 3 2 4-1zm39 1c0-2-6-2-7 0 0 1 1 2 3 2l4-2zm90-1 6-3h4c5 2 14 2 16 0s2-3 1-6l-1-4 4-3 9-5c4-3 4-4 3-6-2-2-3-2-10 1l-11 4c-2 1-2 2-2 4 1 2 0 4-4 7-5 4-7 5-14 6l-10 2c-2 1-2 4 1 5l3 1 5-3zm72 1 2-1-4-1c-4 0-5 1-3 3h2l3-1zm-547-5c0-4-1-5-4-5-2 0-3 0-3 2l2 2c2 0 2 0-1 1l-3 3c0 1 4 2 7 1 2 0 2-1 2-4zm230 3c0-1-1-2-3-2-3-1-4-2-2-3l1-3-4 1c-2 1-3 2-1 4 2 3-1 2-4-1-2-2-3-3-6-3h-4l-2-1-2 1 2 1 4 2 6 2 4 2 4 1 5 1 2-2zm31 0-4-6c-5-5-16-10-18-8l-1 4 8 5 9 5 4 2c1 0 2 0 2-2zm40 1-2-1-1 1 1 1 2-1zm36-6c2-2 2-4 2-5h-3l-5 5c-2 3-4 5-3 6h4l5-6zm1 7-1-2-2 1c-1 1 0 1 1 1h2zm64-1-2-1c-1 0-2 0-1 1l2 1 1-1zm40 1-1-2-2 1c-1 1 0 1 1 1h2zm-489-2c0-1 2-2 6-1 6 1 7 1 8-2 0-1 2-3 4-3l3-3c-1-2-3-3-6-3l-7-2-5 1c-2 1-3 2-3 6l-1 5c-2 1-3 3-1 3l2-1zm88-1-3-2c-3 0-4 1-2 3s5 1 5-1zm40 0-2-2-1 2 1 2 2-2zm161-2-3-4c-3-2-4-2-6-1-2 2-2 6 0 4v-2l1-1 1 2 2 4c2 2 5 1 5-2zm72 2c-1-1 0-3 2-4s2-2 1-3l-7-1c-6 0-6 0-6 4-1 2 0 3 1 3l1-2c0-2 1-2 4 0l1 3c-1 1-1 2 1 2l2-2zm78-1 3-2c5 0 15-5 15-8l-10-1h-10l3-1 3-1-3-3c-3-2-3-2-8 0-3 1-7 3-8 5l-7 4c-3 2-5 2-9 1h-10c-2 2-4 3-3 4l7 2 11 1c2 1 6 0 10-1 5-2 6-2 9 0l4 2 3-2zm41 2-2-2-2 2 2 1 2-1zm-339-1c1-2-7-10-9-10s-2 1-2 3c-1 3 1 5 7 7h4zm350-2c1-1 0-1-2-1-3 0-4 1-2 3 1 1 4 0 4-2zm19 0 7-4c0-1-14-3-16-2-1 1-3 7-2 8 2 1 4 1 11-2zm-523-1 3-3-2-1-4-2-6-3c-4-1-7 0-10 2l-8 3-2 1 2 3h6l6-2 4 2c1 3 4 2 11 0zm43 2 4-4c0-2 2-4 4-4l3-3h-6c-4 0-8 2-10 4l-4 6c0 1 4 2 9 1zm454-1c0-1-7-5-12-5-1-1-2 0-2 1s2 3 5 3l7 2 2-1zm-365-7c-4-3-5-4-3-6s2-2 0-5-2-3 1-3l3-1-2-3c-1-1-1-2-2-1-1 0-2 0-2-2-1-3 2-5 3-2l8 7c4 3 7 4 10 4l4-1-5-4-9-7c-5-5-9-6-9-3h-2c-2-2-3-1-8 1-6 2-6 2-10 0-4-3-11-3-12-1-1 3 1 4 3 2h2l2 1c2 0 8 6 8 8-1 2 5 3 7 1 2-1 4 0 5 4 0 2 0 4-3 6l-3 3-4-4c-3-4-8-5-12-3h-4c-1-2-2-1-3 1l-2 3 12 5c1 0 3 0 4-2h4c2 2 4 2 6 2l4 2c2 3 10 4 12 2l-3-4zm-16-17c-2-2-2-2 1-3l5-2 2 2c1 4-2 5-3 2l-2-2-1 2 1 2-3-1zm24 16c0-3 0-4-2-5h-5l-2 3h1c1-1 2-2 4 0 1 1 2 1 1 2-2 1-1 6 1 5 1 0 2-2 2-5zm27 4c0-1-5-5-7-5-3 0-2 3 0 5 3 2 7 2 7 0zm195-3 3-8c0-2-1-2-5-2s-4 1-4 6c-1 5 0 8 2 8l4-4zm210 3c2-2 2-2 1-3-2-1-6 1-6 3s2 2 5 0zm-613-1c0-2-6-5-9-4-2 1-2 3 1 4h8zm319 0-1-2-2 2 2 1 1-1zm72-1c2-2 2-4 2-5 0-3-2-5-4-5s-2 0-1 1v2h-6l4 3c3 1 3 2 2 3l-2 2c0 2 3 1 5-1zm151 1c1-1 0-3-1-4-3-4-14-11-16-11l-4 3c-1 3-1 4 1 6s14 7 17 7l3-1zm47-2c6-6 4-9-4-6-2 2-6 2-8 2l-4 2c-2 2 3 5 8 5 3 0 6-1 8-3zm-479 0 4-2-5-4-7-1c-2 1-4 0-5-2-2-2-2-2-3 0l1 4c3 3 8 7 10 7l5-2zm159-4c1-5-1-7-2-2-1 2-2 2-3 2h-2l1 3c1 2 2 3 4 2 1 0 2-2 2-5zm35 1c3-5 3-5 1-7-3-2-6-2-6 0l-2 1-7 2-4 5c0 2 2 3 10 4 3 0 5-1 8-5zm-180 2-1-1-2 1v1l3-1zm248-1c0-1 2-2 4-1l4-1-3-1h-4v-2l-1-5c-2-2-3-2-10-1s-9 1-9 3l-1 2-1 1c1 1 2 0 4-1s3-1 6 1l5 5 3 2 3-2zm51 1 10-7 11-7c3-1 4-3 4-5 0-1-1-2-3-2l-1-1c2-1 2-3 0-3s-3 1-3 2l-5 2-6 2-5 3c-2-1-6 2-4 4l3-1 2-1-2 2c-2 1-7 10-6 12l2 1 3-1zm13 0c1-2 5-3 7-3 3-1 6-2 7-4s2-2 6-2c4 1 5 0 9-3l3-5-6-1c-9 2-15 5-16 8l-4 3-4 2-3 1-5 3c-2 2-2 2 0 2l6-1zm83-2c0-2-4-4-6-2-1 1-1 2 1 3 1 2 2 2 3 2l2-3zm33 2-2-1-2 1 2 1 2-1zm56-1c0-1 0-2-1-1l-2 2c-1 1 0 1 1 1l2-2zm-393-1-2-2-2 2c0 3 3 2 4 0zm108 0c6-2 8-7 5-9-3-1-15 0-17 3l-1 3 4 3 4 2 5-2zm13 0c1-2-2-5-3-4-2 1-1 6 1 6l2-2zm78 0c1-2 0-3-2-3l-1 2c0 3 2 4 3 1zm40 0c2-1 2-2 2-3-2-3-5-2-6 2v3l4-2zm-467-3c0-2 0-3-3-3l-4 1v4l3 2 4-4zm564 2 1-2c0-1-1-2-3-2l-3-2 10-4-1 1-3 3c0 2 12 8 16 8 3 0 6-3 5-5l-3-1c-2 0-10-5-14-9-2-2-2-2 6-4l8-4-3-1c-2 0-3-1-3-3l-1-3-1-4c0-2 0-3-4-3l-4 2 3 3 1 1-6-2c-2-2-5-2-11-1l-9-1c-2-2-11-2-13 0l-1 3 5 1 13 4c7 4 8 4 10 2 3-2 3-2 4 0 0 2-2 5-5 8l-5 9 2 5c1 2 2 3 4 2l5-1zm-363-2-1-2c-2-1-3 1-2 3s3 2 3-1zm18-2c-2-2-4 0-2 3h3l-1-3zm260 0-2-2-2 2-2 4 3-1 3-3zm-270-3h-1l-1 4c-1 3-1 3 2 0 1-1 2-2 0-4zm63 2c5-5 7-10 4-11-1-1-2 0-3 2s-3 2-5 2l-3 2-1 5c0 3 0 4 2 4l6-4zm-127 1-1-2-1 2c2 2 2 2 2 0zm80-3-4-8c-5-5-8-5-8-1l3 4 3 4c0 2 4 6 5 5l1-4zm137 1c0-3-1-4-3-4s-3 0-3 2c0 3 2 6 5 6 1 0 2-2 1-4zm163 2 4-2c2 0 3-1 3-2 0-2-2-2-9-2l-15-2h-2c-1 2 5 8 8 9 5 1 10 1 11-1zm-398-1c-2-2-8-3-8-2 0 3 1 3 5 3 3 0 4 0 3-1zm227-1c1-1 0-2-1-3-2-2-7-2-8 0-1 1 1 2 3 3l4 2 2-2zm134 0h2c1-1 2-3 1-5l-1-5c-1-1-2 0-3 1-2 1-2 1-1-2 2-2 2-3-1-3l-4-1 5-1h7l2-3c0-3-1-3-7-2l-10 1c-6 2-11-1-13-6l-3-4c-2 0-4 2-5 3l-8 4c-4 1-6 3-6 5l1 3c1 1 3 1 7-1 4-1 6-2 9 0l12 1 7 1 2 5c3 2 3 3 2 3-1 1-2 2-1 3s2-1 3-2c2-3 2-3 2 0l-2 4c-2 0-2 1-2 2h3l2-1zm105 1 1-3c-2-1-7-1-8 1-1 1 1 3 4 3l3-1zm-601-2c1-2 1-2-2-3l-5-2-1 2c0 2 3 5 5 5l3-2zm146-1 3-3c2 0 3-1 3-2l-4-8-5 3c-4 3-5 3-6 1l-1-6-2-6-6-2c-4-1-6 0-6 2-1 1 0 2 1 3l5 7 5 9c1 2 6 5 11 5 1 0 2-1 2-3zm50 1-1-2-2 2 2 2 1-2zm46-2-2-12c-1-7-2-8-5-8s-3 1-3 3c1 1 0 3-1 3-1 1-1 2 1 7l4 8c1 2 2 3 4 3 3 0 3 0 2-4zm175 1c0-2-1-2-4-2l-4-1 5-1 5-1v-3l-3-2c-1 0-2-1 0-2l1-3-2-1-2 2c0 3-6 8-11 9-4 0-6 1-6 2l1 3 6-1c4-1 5-1 5 1 0 1 1 2 5 2 3 0 4-1 4-2zm14 0-1-2c-3-1-4 0-3 2s3 2 4 0zm78-1c1-3-2-3-5-1l-1 2c2 3 6 1 6-1zm-527-1-1-2-2 2 2 1 1-1zm312 0c3-1 5-3 5-4l3-5c4-3 4-3 1-4-1-1-2 0-3 1l-2 1-4 3c-1 2-3 4-5 4s-2 2-2 3l1 2 6-1zm34 0-2-2-2 2 2 1 2-1zm230 0c2-1 5-6 5-8h-3l-6-3c-3-3-4-3-6-1l-4 2-4-3c-2-3-3-3-5-2l-3 3 4 3c6 3 2 3-6 0-4-1-8-2-11-1l-11 1-8 3c0 2 1 2 8 1l10 1 17 1c11 0 15 1 16 2 1 2 5 3 7 1zm36 0c4-1 4-5 0-6-1-1-5 0-8 1s-4 3-4 4l5 2 7-1zm27 0c3 0 4-1 4-2 0-2-1-2-4-2-2 0-4 0-5-2-2-2-2-2-6 1-3 2-4 4-4 5h15zm-458-3c0-1-1-2-3-2-2-1-3 0-3 2s1 3 3 3l3-3zm191 2 5-2-3-3-7 1c-2 0-4 2-4 3 0 2 3 2 9 1zm24-1-2-1-1 1 2 2 1-2zm9 0c7-3 7-6 1-6l-6-1c-2-1-5-1-6 1 0 2 1 4 3 5l3 3 5-2zm-79-2c0-2-4-2-5 0v1c2 2 5 0 5-1zm29 1-1-1-2 1 1 1 2-1zm34 0c0-3-3-9-5-9l-1 1v3l2 3c1 4 4 5 4 2zm68 0-2-1-1 1 1 1 2-1zm-107-7v-5l-2-4h-5l-4 3-1 2-2 1c-1 3 1 2 4-1 4-3 6-3 3 0v3l3 1-1 2c-1 1-2 3-1 4s2 1 3-1c2-1 3-3 3-5zm101 6-1-2-1 2 1 1 1-1zm175-1c3-2 4-6 1-8-1-1-13 1-13 2 0 2 6 8 8 8l4-2zm25-1c0-1 0-2-2-2s-4 2-2 4c1 2 4 1 4-2zm-204-1c5-2 10-6 10-9 0-1-1-2-3-2s-2 0 0-1l7-1c3 1 5 0 8-2 2-2 3-2 1-4-3-2-10-1-15 2-6 3-10 3-8 1 1-2-1-5-3-4l-1 1-2 3-2 4c0 2 3 2 5 0h2l3 1 3 1-3 2c-7 4-10 8-9 9l2 2 5-3zm46 1 3-1 4-1c1-2-6-2-8 0l-2 3 1 1 2-2zm185 0c0-1 0-2-2-3-1-2-2-2-5-1l-2 4c0 2 1 2 4 1l5-1zm26-3 3-4c-1-2-6-2-7-1l-4 2c-4 0-5 2-4 6l5 1c2-1 6-2 7-4zm-469 2-14-7c-3 0-2 3 1 4l3 3 6 1 4-1zm185-1 1-4-2-1c-1-1-1 0-1 1 1 1 0 3-1 3s-2 1-1 2c1 2 3 2 4-1zm47 2-4-5-1 3c0 2 1 2 3 2h2zm200-1-1-1-1 1 2 1v-1zm-334-2v-3c-1-2-8 0-8 3 0 1 0 2 3 2l5-2zm28-4c-3-4-5-5-6-4-1 2-1 2 1 3l2 3c0 2 5 4 7 3 1 0-1-3-4-5zm330 1c2-5 2-6 0-8l-4-2c-2 0-4 1-5 3-2 1-3 3-3 5 0 3 4 7 7 7l5-5zm-516 2-1-2c-2 0-3 2-2 3 2 1 3 1 3-1zm219 0c0-2-5-4-6-3s0 2 1 3l4 2 1-2zm272-1 5-3 3-1-2-5-1-5-1-2c-3 0-4 2-3 3s0 3-1 6c-3 4-4 4-6 4h-4c-1 2 2 6 4 6l6-3zm-503-2-1-2-3 3c0 2 1 2 2 2l2-3zm142-6v-4c-1-2-5-1-7 1-3 4-5 10-5 11 1 2 10-4 12-8zm69 8-1-1-2 1 2 1 1-1zm40 1-3-1c-1 1-1 1 1 1h2zm120-6c2-5 4-7 6-8l3-1c-1-1 0-2 1-3v-3l-4-1c-2 1-2 2-1 4 0 2 0 2-2 2l-2-1c0-2-7-2-8 0v4h2l4-1-5 5c-4 2-6 5-6 7s1 2 5 2 5 0 7-6zm116 3 9-3c3 0 7-4 7-6l-6-3-12 1c-15 5-15 5-19 3s-4-2-9 2c-3 2-4 4-3 5s4-1 3-2 9 0 11 2l11 4 8-3zm-244 1-2-2-2 2 2 1 2-1zm21 0-1-2-1 2 1 1 1-1zm33-2h-2l-1 2h2l1-2zm-211-5 2-5c0 1 1 2 3 2l1-3-3-5-11-2-9 1c-1 1 0 2 1 3 1 2 2 2 5 2 2-1 3-1 2 1 0 1-1 2-3 2l-6-1c-3-2-4-3-3-4 0-2 0-3-1-2l-1-2-2-2c-2 0-3 5-1 6l2 4-1 3c1 3 12 8 21 9 1 0 3-2 4-7zm120 6-2-1h-2c0 1 0 2 2 2l2-1zm178-3c0-1-1-2-2-1-1 0-3 1-3 3s0 2 3 0l2-2zm-210 0c1-1 0-2-2-3h-14c-2 0-3 1-3 2l4 2c4 1 13 0 15-1zm89 0c3-3 3-3 1-5s-2-2-4 2c-2 3-2 5 0 5l3-2zm189-2c4-4 5-5 3-8-1-3-2-4-4-3-8 3-10 3-9 6l2 6c0 2 1 3 2 3l6-4zm-411 1c1-2-4-5-7-4-2 1-2 4-1 5l4 1 4-2zm111 1 2-2-3-4c-3-1-3-1-2 1l-1 3v3l4-1zm60 0v-3c-2-1-2-1-3 1l-2 1-1 1h6zm164-3h-2l-1 3c1 2 3 0 3-3zm-157 1-1-1-2 1 2 2 1-2zm28-7 1-4c-1-1-1 0-1 1l-2 1-3 3-2 4c-1 1-1 1 1 1 1-1 2 0 3 1 1 2 1 2 1-1l2-6zm9 7c2-1 3-2 3-4s-1-2-3-2l-6 1c-2 0-3 1-3 2l2 3 3 2 4-2zm86 0c0-1-7-4-8-3v3l4 2 4-2zm197-2c0-2 0-3-4-3-3 0-4 1-4 3l1 3h4l3-3zm-539 1c3-1 3-2 3-9 0-6 0-7-3-7l-2 2-2 2v-3c0-1-1-3-4-4-2-1-4-3-4-5-1-3-3-4-13-8l-7-6c-2-3-4-5-6-5l-4 2c-1 0-1 1 1 5l4 5c2 0 3 2 3 4l2 6h5c1-1 2-2 3-1l6 5c3 1 6 4 6 5l4 3 4 1-1 4-1 4 2 1 4-1zm13-2c1-1 0-2-1-2-2 0-2 1-2 3l1 2c1 0 2-1 2-3zm18 1c0-1-1-3-4-5l-5-3-1 3 1 4-2-3c-2-2-3-3-4-2-2 1-1 7 1 7l7 1c4 0 6 0 7-2zm79-3-1-11-2-6c-1 0-1 13 1 19 0 2 1 3 2 3v-5zm8 3c0-2-1-2-2 0l-2 2h2l2-2zm245 0-2-1-2 2c0 2 3 1 4-1zm27-2c-1-1-2-1-2 2s1 3 2 1v-3zm-260-3v-6c0-2-3-2-3 1l-2 2v3l2 4c0 4 2 1 3-4zm68 5v-2l-2 1c0 2 1 3 2 1zm38-1c1-1 2-2 1-3l1-3 3-2c1 1 2 0 3-1s-5-4-7-3c-4 2-8 1-9 0-2-2-3-2-7-1-3 0-5 1-5 3s1 3 5 3c6 0 7 0 9 2 1 1 2 3 1 4 0 2 0 3 2 3l3-2zm149 1c1-1 0-2-1-3h-3c-1 1-2 2-1 3 1 2 4 1 5 0zm-211-4c0-2-2-2-4 0-1 2 1 4 2 3l2-3zm4 2-2-1v1l1 2 1-2zm17 0c0-2-6-4-9-3l-2 3c0 1 2 2 5 1l6-1zm33-1c0-1-1-2-3-2-1-1-2 0-2 2s1 3 3 3 2-1 2-3zm288 1-2-2c-2 0-2 1-1 3 2 1 3 1 3-1zm-529-2-2-2c-1 0-2 1-2 3s3 1 4-1zm232 0v-2c-4-2-11-2-13-1-4 3-1 5 8 5 3 0 5 0 5-2zm57-1 6-5 2-3-4 1-7 4c-5 3-6 6-3 6l6-3zm76 1c4-1 8-4 11-6 4-4 4-4 5-2l3 2 1-2-1-2c-3 0-1-2 3-4s5-6 2-7l-2-2c2-2-2-3-7-1l-13 4 3-3c2-1 2-1 1-2-2 0-6 1-10 4-8 5-10 9-5 9l3 1c0 1-8 4-14 5-4 1-5 3-2 5 1 1 2 0 3-1s2-1 7 1l6 3 6-2zm14-18 5-2-2 2-5 3 2-3zm107 20c4-1 4-2 5-8 1-4 2-7 4-8 2-2 3-4 1-6-2-1-24 2-26 4l4 3c5 2 7 5 5 5l-7-3c-3-2-6-2-10-2h-8c-4-2-10 0-10 3 1 2 3 3 8 3l11 1c4-1 5-1 6 1s4 4 7 5l5 2h5zm-435-4c0-2-1-3-3-3h-6c-2 1-2 1-1 3 2 2 6 3 9 2l1-2zm5 1-1-2-2 2 2 2 1-2zm81 1c0-2-2-3-3-2-1 0 0 3 2 3l1-1zm79-2 3-2s-3-2-7-2l-9-1c-3-1-3-1 1-1s5-1 5-2l-1-3h2c2-1 3-1 4-4v-5c-1-2-5-1-8 2l-2 4c1 2 0 2-3 3-2 0-4 2-5 3-1 3-1 4 1 5 1 1 5 3 8 3l7 1c1 1 1 1 4-1zm61 0-1-2c-3 1-3 4-1 4l2-2zm156 0 9-2c0-1-1-3-4-5-3-3-5-3-8-3-5 1-11 5-11 7s2 5 4 5l10-2zm147-1 2-3v-2c-1-1-5 3-5 6l2 2 1-3zm-421-3c2-3 2-4 0-4-1-1-3 0-4 1-3 2-3 2-3-3s0-6-2-4-3 6-1 7l3 4c1 4 4 3 7-1zm11 2 6 1 6 1 4-1 1-1-2-2-16-1c-4 0-4-1-2-2 6-4 7-4 5-6-1-1-2-1-5 2-3 2-4 4-4 5v3c-3 2-2 3 2 3l5-2zm23 1-1-1-1 1 1 1 1-1zm93-5c0-3-4-5-7-4-2 1-2 6 0 9 1 1 2 1 5-1 1-1 3-3 2-4zm228 4-4-4-9-1c-5 1-10 4-9 5h16c2 3 6 2 6 0zm30 2c2-2-1-5-3-4s-1 4 1 4h2zm8-1-2-1c-1 0-2 0-1 1l2 1 1-1zm12 0c0-1-2-3-3-2s0 3 2 3l1-1zm7-2 2-4c-1-1-4 1-4 3l-1 2-1 1c0 3 2 1 4-2zm-575-1c3 0 4-2 1-3-4-1-13-1-13 1l3 3c2 1 3 2 4 1l5-2zm271 2-2-2-1 2 1 1 2-1zm149-1-2-2c-2 1-3 4 0 4l2-2zm-89-1-2-2-1 2 1 1 2-1zm81 0 6-2c3-2 4-4 4-5l-4-2c-4 0-12 6-13 9 0 2 1 2 2 1l5-1zm129 0c2-2 2-2-2-6l-6-5-2-2 2-1 3 1 1 1 1-2c-1-3-1-3 3-2 2 0 3 0 4-2l-1-3v-5c0-5 0-6-2-5l-1 5c0 4-1 5-3 6-1 0-3 0-5-2l-2-1 1 3c2 2 0 4-7 6l-5 2 1 6 2 6c1 2 14 2 18 0zm-426-1-1-1-1 1v1l2-1zm81 0 1-2v-3c2-1 2-3 0-3l-1 2-2 3c-2 2-3 4-1 4l3-1zm376 1-1-2-2 1c-1 1 0 1 1 1h2zm-547-4h-2l-1 2h2l1-2zm296 2c2 0 3-1 3-2 0-2-1-2-4-2l-7 1c-2 1 0 5 3 3h5zm14-3c-1-1-2 1-1 3h2l-1-3zm217 3-1-2-2 2 2 1 1-1zm-323-2c2 0 5-2 5-4 1-2 2-2 4-1 6 1 9-4 6-9-1-2-2-1-6 1l-6 3c-3-1-10 3-11 6-2 4-1 6 1 6l7-2zm124-1c2-3 2-3 0-5l-7-1-7 2c-3 3-2 5 2 6 8 1 9 1 12-2zm48-2 4-1 2 2 1-3-1-3s-3-1-4-4l-4-4c-1 0-2 2-2 5l-4 8c-2 1-2 2-2 3 1 2 2 2 10-3zm111 3 8-1-1-2c-1-1-4-3-7-3-4 0-8 0-10 2-3 1-5 3-5 4s1 2 4 1l11-1zm-420-2 5 1 3 1c1 0 2-2 2-5 1-3 0-4-2-4l-1 3v2l-5-3c-3-3-4-3-9-3l-7 3v3c1 2 6 4 9 4l5-2zm96-1 1-3c-2-1-6 2-6 4s0 3 2 2c1 0 3-1 3-3zm4 2c0-2-2-2-2 0-1 1 0 2 1 1l1-1zm60-1-2-2-3-1v3c1 3 4 3 5 0zm14 2c2-1 3-2 3-4s-1-2-4-2l-10 3c-1 1 2 3 5 3h6zm44-1c3-2 8-3 11-3l9-2c3-1 3-2 2-3l-10-2c-8 0-9 0-13 4-2 2-4 3-5 2l-5-2c-3-1-3-1-3 2l2 2 4 2 2 1 6-1zm-199-2 2-5c1-2 2-3 0-5-1-3-2-3-2-1l-3 5c-1 2-3 5-2 6 1 3 5 3 5 0zm221 1-1-2-1 2 1 1 1-1zm-352-2c1-2-8-11-10-9l-3-1c-1-1-2-2-3-1v4c1 2 2 3 4 3l4 3c2 3 7 4 8 1zm63 1c0-2-2-3-3-2-2 0 0 3 1 3l2-1zm102-2-1-3-1 3 1 3 1-3zm18 0v-2l-2 1c0 3 1 3 2 1zm113 0-2-1-2 1 2 1 2-1zm13-2 1-2-3 2v2l2-2zm178-2h-2v3h2v-3zm-282 0c2-3 2-3 0-5l-4-2-2-3-7-6c-5-3-7-4-8-3l-1 5 6 6 8 6c1 3 3 5 4 5l4-3zm16 1 3-3c0-2 2-4 4-6l4-5-2-2c-2-1-3 0-5 3l-5 6c0 2-1 3-3 3-4 0-8 3-7 4 1 2 6 2 11 0zm53 0-2-2-2 2c-1 1 0 2 2 2s3-1 2-2zm18-1c2-1 2-3 2-5v-5l-2 4-3 3-4 2c-3 2-3 2 1 2l6-1zm7-2c-2-1-4 0-2 2l2 1v-3zm77 2c0-2-2-2-3 0 0 1 1 2 2 1l1-1zm107 0-2-1-1 1 1 1 2-1zm50 1-1-2-1 1 1 1h1zm-416-2v-2l-2 2 1 1 1-1zm43 0-1-1-2 1 2 1 1-1zm33-1c0-2-8-5-13-5-2 0-3-1-3-4-1-2 0-5 1-7 3-4 2-11-1-11-1 0-3 2-4 5-3 4-4 12-3 18l4 5c4 1 19 1 19-1zm54-1-5-1-1-3-1-4c-2 0-1 6 1 9 1 1 3 2 4 1l2-2zm75 1c1-1 2-3 1-4l3-3 6-3 5-1c3 0 2-3-1-4l-4 1-3 1-5 2c-2 1-3 1-3-1l-2-2c-3-1-16 0-17 1v4c1 2 4 5 8 7l8 4 4-2zm50 0c1-2-1-4-3-3-2 2-1 5 1 5l2-2zm130-2c1 1 1 0 2-1l-4-1c-3 0-4 0-4 2 0 3 2 4 3 2l3-2zm-172 1v-2h-3l-1 3c1 1 3 1 4-1zm104-1 2-4-4-3c-3-2-5-2-7-1l-2 3c0 3 4 8 6 8s4-2 5-3zm-323 0c2-2 0-3-2-2-2 0-2 1-2 2 1 2 3 2 4 0zm164-1 5-5-2-4-6-1c-5 0-5 0-5 5l-1 7c2 1 3 0 9-2zm11 1-1-1-1 1 1 1 1-1zm78 0 3-2 2-3c2-1 2-4-1-4l-4 2h-4c-1-1-7-1-11 1h-2c1-1 0-2-1-2l-2 1 1 4c1 2 3 3 7 3h12zm128 0-1-2-2 1 2 2 1-1zm-260-2-1-1-2 2 2 1 1-2zm23-3c0-5-3-7-7-6l-4 2c0 2 8 9 10 9l1-5zm146 4-1-3h-3c-1 1 0 4 2 4l2-1zm121-6-1-7-4-1c-3 0-16 8-16 10l6 2 8 2 4 1c2-1 3-2 3-7zm23 3c4-3 7-4 9-4 3 1 4 0 4-2 1-1 0-2-3-3-3 0-4-1-4-2h2l3-1 6-2c4-1 10-5 10-7 0-1-1-2-3-2-3-1-3-1 0-3 2-1 2-2 0-2-2-1-5 0-8 4-5 3-7 4-10 4-3-1-5 0-6 1v8l2 3c1 1 1 1-1 1-3 0-3 0-3-2 1-2 1-3-1-3l-16 4-1 5c0 3 2 5 3 6 6 2 11 1 17-3zm-330 1 4-4c0-3-6-3-9 0-2 2-2 2-1 4l3 2 3-2zm168 0c3-1 3-2 2-3l-3-2c-3 0-6 4-5 6l2 1 4-2zm-291-1 1-2c-1-2-7-2-8-1s1 4 3 4l4-1zm35 0-2-1-1 1 1 1 2-1zm135-1c3-1 3-8 0-12l-6-3h-3l-2 3-2 3 4 1c4 0 4 0 4 4 0 3 1 5 2 5l3-1zm74 0-1-2-2 2 2 1 1-1zm-50-2v-4c-1-1-5 1-5 4 0 2 4 2 5 0zm6-3v-6c0-3-1-4-3-4-4 0-8 4-7 6h3l2 1 2 5c1 2 4 1 3-2zm-88 1-1-2-1 2 1 1 1-1zm-40-4c0-2 0-3-2-3l-2 4c0 2 0 3 2 2l2-3zm193 2 4 1-1-3c-1-3-11-4-14-1l-2 3h13zm-133-1 4-1c2 0 4-1 3-2-1-2-5-1-8 2l-1 2 2-1zm147 0-2-1-2 1 2 1 2-1zm-99-4-2-1-2 1 2 1 2-1zm148 0-5-1-4 1 4 1 5-1zm33 0-1-1-1 1v1l2-1zm-46-2-2-3c-2-1-4 2-3 4s5 1 5-1zm-162-1h4l-2-3c-2-2-3-2-6-1l-7 2c-2 0-3 1-1 3 1 1 11 1 12-1zm-75-2c0-2-3-2-3 0l1 2 2-2zm254 0-2-2c-1 0-2 1-2 3s3 1 4-1zm-137 0 1-2-8-1-8-2c-2-1-4 0-4 3l4 2h15zm-27-4c0-2-4-2-7-1s-1 3 3 3c3 0 4 0 4-2zm33 0-2-2-2 2 2 2c1 0 2 0 2-2zm284 1-1-1-1 1 1 1 1-1zm-290-4c0-3-4-5-6-3s0 6 3 6c2 0 3-1 3-3zm-102-2 5-3c3 0 2-4 0-5-4-1-8-1-10 1-2 3-2 10 0 10l5-3zm-15-5v-4c-1-1-2 0-3 1-2 2-1 5 1 5l2-2zm19-8c0-2-4-3-5-1l-1 3c1 1 7 0 6-2zM561 628c-6-1-7-1-6-3l-2-2c-2 0-3-1-2-2 0-1 1-2 3-2 3 0 4-1 3-3l1-2 2 4c1 3 2 4 8 6l8 3c1 2-2 2-15 1zm-329-2c0-1 2-5 6-9l11-12 14-12c7-7 11-8 11-6 0 1-1 3-17 18l-11 11-4 5-6 4c0 3-4 3-4 1zm-137-1c-2-2-1-3 3-3l3 1c0 2-5 3-6 2zm444-1-3-2-4-3c-3-4-4-10-1-10l3 2 3 3c3 0 10 9 9 11-2 2-5 1-7-1zm-218-7c-1-2-1-3 1-3 2-1 9 2 8 4l-4 1-5-2zm-12-3c0-2 1-3 3-3 3 0 4 1 3 3 0 1-1 2-3 2-2 1-3 0-3-2zm141 1c-2-3 4-13 8-13 1 0 2 1 2 3s-6 11-8 11c-1 1-2 0-2-1zm50-9c-3-5-4-10-2-13 1-2 2-2 3 0 1 0 3 3 3 5l2 8-1 4-5-4zm-392-9c-2-4-3-6-2-7s3 0 6 3l4 7c0 1-1 2-3 2l-5-5zm200 3 12-8c9-4 13-7 12-8v-2l4 3c2 3 2 3 0 5l-4 3-4 2-6 2-6 2-5 2c-2 1-3 1-3-1zm314-10 2-8 1 1 2 2 4 2c2 5 1 7-4 9l-5 3zm-487 3c1-3 0-5-1-6l-5-2-5-4-5-6-2-5 1-3a21 21 0 0 1 10 10c1 2 1 3 2 1h2c1 1 2 1 3-1l4-2c1 1 2 5 2 11 1 7 1 9-1 8l-4 1c-1 2-2 1-1-2zm5-7c0-3-3-4-3-1-1 2 0 4 1 4s2-1 2-3zm-41 6c0-2-1-3-4-3-4 0-6-4-7-9 0-3 0-3 4-1l5 5c1 1 2 2 4 1 1-1 2 0 1 2l-1 5-1 3-1-3zm318-5c0-1 2-4 6-7l10-6c3-1 4-1 5 1 2 2 2 2-1 4l-6 3-3 2-6 4-5 2v-3zm-75-6-2-4c0-1 7 1 9 3v3l-3 2-4-4zm291 1c-3-3-3-3 1-3l5-3 3-2c2 0 3-1 4-3l3-2 4-3c1-3 1-3 2-1s0 4-2 6l-3 4-1 2-6 4-6 4-4-3zm-11-20c0-14 0-15 1-14 2 1 1 25 0 25l-1-11zm-510 5 1-2 1 3-1 2-1-3zm524 0c0-2-1-2-3-2-2 1-3 1-3-2l-1-4-1-4 1-5v3c-1 6 2 4 5-4 3-5 4-6 5-5 0 1 1 2 2 1l1-4 1-2 1 9c0 8-1 10-3 11s-3 4-3 6l-1 4-1-2zm0-13c-1-1-2 1-1 4 1 2 1 2 2 0l-1-4zM81 567l-1-11c0-9 0-10 4-11l3-1-3-1-3-3c0-2 3-5 4-4l2 5c1 4 4 4 4 0-1-2 0-3 2-3l3 2-2 4c-3 4-6 12-6 17 1 2 0 3-1 3l-1-4c0-6-2-5-3 2l-2 5zm7-16c1-1-3-6-4-5s1 7 2 7l2-2zm16 14c0-3 3-3 3 0 1 2 0 2-1 2-2 0-2 0-2-2zm207 0 34-11c2 0 2 3 0 3a5839 5839 0 0 1-34 10h-4l4-2zm-221-2 2-5v3l-1 5-1-3zm409 2c-2-1-2-2-1-5l2-5c2-1 5 0 5 2 0 3-3 9-4 9l-2-1zm-368-2v-9c1-5 1-5 2-3 2 3 2 11 0 13-1 1-2 1-2-1zm517-12 2-10c1-4 2-4 2-1l1 3c2 0 5-5 5-9 0-2 1-3 3-2l4 2c2 2 0 8-4 12-5 5-5 5-5 9l-4 2-4 1v-7zm-522 5-1-6v-6l1 6 1 6h-1zm-11-4c-1-3 0-6 1-7l3 4c0 4 0 5-2 5l-2-2zm357 1c0-2 2-3 4-2 1 0 1 1-1 2h-3zm-56-3v-3c2-1 11-4 13-3 3 2 0 5-8 7l-5-1zm90-5c0-4 1-4 3-4l5-2c1-1 2-1 2 1 1 1 0 3-3 5l-5 4-2-4zm-70 0c-1-2 5-6 8-6l2 2c0 2-4 5-7 5l-3-1zm-332-3 1-2 1 1c0 3-1 3-2 1zm296-7 1-1 6-2c6-1 6 1 0 3-5 2-7 2-7 0zm210-10-2-4c-1 0-2-2-2-5 1-3 1-3 1-1 1 4 4 3 4 0l2-4v4l-1 9-1 5-1-4zm-525 1-3-1c-2 0-2-1-2-3 0-3 0-3 4 0 4 4 5 5 2 5l-1-1zm553-4v-12c0-7 1-12 2-12v25l-2-1zm10-11c1-3 0-4-1-6-2-1-2-2-2-5l3-3 1 5 1 4c2 0 3 4 1 6-2 3-4 2-3-1zm-17 1c-1-2-1-10 1-10l1 5v6l-2-1zM70 502c-1-2 0-3 1-3s2 0 1-1c0-1-1-1-3 1s-5 2-5 1l2-4c1-2 3-3 4-2l3-1c0-2 0-1 1 0l4 2 2 2c0 2-6 8-8 8-1 0-2-1-2-3zm52-1v-4c1-2 1-2 2 1v5c-1 0-2 0-2-2zm405-2c-1-2 2-5 5-5 2 0 6 3 4 4l-5 2-4-1zm-476-6-2-1-4-1c-2 0-2-2-2-4l3-4c1-1 3 0 5 2l5 2c0-1 3 0 4 2 4 4 4 7 0 4-2-2-2-2-4 0l-3 2-2-2zm-21-5-10-2-5 1v-5l2-7 9 2c9 4 14 8 14 11 0 1-1 2-3 2l-7-2zm46-5c0-3 0-4-2-5-2 0-3 1-4 3-1 3-1 3-1 0l1-4c2-1 2-8 0-10-2-1-2-4-2-9l1-9c1-2 1-4-1-7l-3-4-2 2-1-3-3-6c-3-3-7-3-7 0 0 2 4 10 6 11l2 4 2 4c2 1 3 2 2 6l-2 7c-2 2-1 6 1 6 1 0 2 1 2 3l-1 4c-1 2-2 2-3 0l-2-5-2-4-1-10c0-5-1-8-2-9l-5-12c-2-8-2-11-1-12 2-2 8-6 10-6 1 0 2 1 2 3l9 12 5 4c4 4 4 5 4 9-1 4-1 5 1 5 1 0 2 2 2 8l-1 16-2 4-1 6c-1 1-1 1-1-2zm-15-23 1-5c0-4 0-4-2-1-2 2-2 7 0 7l1-1zm17-4c-1-3-5-4-5-1 0 1 2 3 4 3l1-2zm644 26c-1-1 5-5 6-4l1 3c0 2-1 2-3 2l-4-1zm-693-9 1-4c1-3 6-3 6-1 0 1-1 2-2 1l-3 3c-1 3-2 3-2 1zm731-2-3-5 1-5c2-3 2-3 6-1l5 2 1-2c0-2 1-3 4-4 2 0 3 0 4 2l-1 5-5 2c-3 0-4 1-3 3 0 2-1 4-3 5s-3 1-6-2zm-714-5-2-5-3-1-4 1c-2 3-2 0 1-6l3-6c1 0 3 2 3 4l3 4c1 0 2 2 2 5l-1 5-2-1zm-21-3c0-2 0-2 1-1v2c-1 1-1 0-1-1zm757-4c0-3 1-4 2-3l2 3c0 2 0 3-2 3-1 0-2-1-2-3zm-403-1c2-2 6-2 7-1s-1 2-4 2-4 0-3-1zm13-1c0-2 4-6 6-6l2 3v3c-1 2-8 1-8 0zm12-3 1-4 5-1 11-4c6-2 8-3 10-2 3 1 3 2 2 4-1 3-3 4-11 5l-9 3c-5 3-9 2-9-1zm14-3-1-2-1 1 1 1h1zm432 3 2-3c2-1 2 0 2 2 0 4-4 5-4 1zm-8-4v-4l3-1c2 1 2 6 0 7-1 0-2 0-3-2zm-17-1c-2-2-1-4 2-4l3 2c2 2 2 2 0 3l-3 1-2-2zm-265-4c1-2 1-2 0 0h-4c-1-1-3-2-3-4s1-3 3-4 4-1 6 1l3 4c1 3-1 5-4 5l-1-2zm9 1c-1-1-1-2 1-4s6-1 13 1c2 1 3 2 2 3h-11l-2 1-3-1zm-130-2c-1-3 1-5 5-5 1 0 2 1 2 3s-1 4-3 4l-4-2zm-349-6-2-5-2-4c0-2-2-3-4-2-2 2-2 1-2-2s0-5 2-5c1-1 3 0 5 1 2 2 3 4 4 10l1 9v2l-2-4zm363 2 2-3c2-2 6-2 6 0l1 1 2-2 1-2c4 2 2 4-4 6l-7 2-1-2zm84 0v-4c0-3 1-3 4-3s5 2 7 5l3 4h-7l-7-2zm-177-1-1-2 2 2 1 2-2-2zm111-6v-7l3 4c1 2 2 3 4 2l3-1 1-1-1-1h-1l2-2c1-1 3 0 4 1 2 2 2 2 0 5l-8 3c-5 0-5 0-7-3zm52 3c-1-2 1-7 3-7l3 2c2 2 1 6-1 6l-1-2-1-1-1 2h-2zm149-2-2-2c2-1 6 1 6 2 0 2-2 2-4 0zm97-3v-5l2 5-1 4-1-4zm-272 0c-5-4-7-6-4-6 2 0 3 1 3 2l4 2c3 0 3-2 1-3h3l5 1 1 3c-1 2 1 2 2 0 1-1 1-1 1 1-1 2-2 2-5 3l-11-3zm284-3c0-2 0-2 1-1v3l-1-2zm-709-9c-1-3-2-4-4-3-3 1-4-2-1-4l4-2 1 2 2 4c1 1 2 3 1 4-2 3-2 2-3-1zm282-1c-1-1-1-1 1-1l3 1c0 2-1 2-4 0zm574-2c-2-4-2-13 0-13l1 3 1 3c2 1 2 7 0 8l-2-1zm-567-3 2-2 2 2-2 1-2-1zm599-2 1-4h3c2 2 2 3 1 4l-3 2-2-2zm13-11c0-2 3-5 4-4l1 4-2 2c-2 0-3-1-3-2zm-27-13 1-5 3-3v3c1 4 0 7-2 7l-2-2zm8-7c0-5 6-19 7-19v3l1 4c0 3 1 3 2 0 2-2 2-2 2 0 0 3 1 3 3 3 4 0 3 5-1 8-3 3-3 3-6 2h-5c-1 4-3 3-3-1zm8-7-1-2-1 2 1 2 1-2zm19 1-4-1c-4 0-4-1-3-2h3c3 1 8-3 9-7l2-4 1 4 1 5c1 1 2 0 3-2 2-4 4-5 4-2l1 1 2-2c0-3 3-2 3 2 1 2 0 3-2 3l-7 2c-6 3-13 5-13 3zm-846-5c-3-5-3-6-2-8l3-2 4 7 2 7-1 1c-1 0-4-2-6-5zm871-8c0-2 1-3 2-3l2 3-2 2-2-2zm-90-30c0-3 0-5 3-6h4l-3 5-4 5v-4zm-2-38v-3h2v3h-2zm15-9c1-2 3-3 4-1l-2 2c-2 1-2 0-2-1zm-5-9h1l1 1-1 1-1-2zm-23-118v-3c1-1 3-3 5-3 3 0 5 3 3 4-1 2-8 3-8 2zm-448-3c0-2 8-6 9-4l-4 3-4 2-1-1zm9-10c-2-1-2-2-1-2l2 1 2 1 1 1-1 1-3-2zm632-14c-1-1-1-1 1-1l3 1c0 2-1 2-4 0zm-806-14 1-3c2 0 2 2 0 5-1 2-1 1-1-2zm27-2c-1-3 2-8 5-8l3 2c1 2-3 7-6 7l-2-1zm106-8 1-1 1 1-1 1-1-1zm-119-1-2-5 2-4c2-1 2-1 0-3-2-1-2-2-2-4 1-1 1-1 4 1h5c1-1 1-2-1-4l-4-3c-3 0-3-2-1-7 2-3 3-5 6-5l7 3 3 3-5-1-6 2 1 1c2 0 2 1 2 2v2l2-1h4c3 0 4 0 5-4s2-4 7-3l6 1c1 0 2 3 1 8-1 6 0 7 2 9 2 1 4 2 5 1l2-3c0-3 1-4 2-4 3 0 6 3 6 5s-11 10-14 10c-2 0-3-1-2-3 0-1 0-2-2-2l-3 2c-1 2-1 2-3 0s-2-2-4 0c-1 2-3 3-4 2-2 0-3-1-2-3s0-3-1-4c-2-2-5 0-5 3 0 2-2 5-4 6l-4 3-3-1zm29-14c1-4-1-8-4-8l-4 3c-3 3-3 3 1 5 1 2 4 3 5 3 0 0 2-1 2-3zm-71 10-8-4 1-2c2 0 3 0 3-2s-4-2-4 0c0 1-1 1-2-1-2-2-2-6 1-10h3c2 2 2 1 1-1 0-3 1-4 5-4l11-2c3 0 5 1 5 2h1c1-2 2-2 4-1 1 1 3 3 3 5 2 3 4 3 5 1s2-1 3 0c2 2 2 3 1 6l-3 3c-1 0-2-1-2-3-2-3-2-3-5-3-7 3-11 3-16 0-4-2-4-2-6 1l-3 4 3 1 6 3 2 7-1 4-8-4zm100-1c0-2 1-3 4-3l5 2c0 1-1 2-3 2l-4 1-1 1-1-3zm829-6 3-1 4 1-4 1-3-1zm-791-4-6-3c-3 0-3 0-3-4s1-5 3-2l5 1c3 1 3 1 3 4-1 2 0 3 5 3s5-1 5-3c-2-4 1-3 3 1l3 3 3 2c1 1 0 1-8 1-9 1-10 0-13-3zm39-1 3-3 12-1c8 0 9 0 7 2-1 1-3 2-7 1s-6 0-7 1c-3 3-8 3-8 0zm738 1-5-2c-2-2-1-2 2-1l6 1 3 2-1 1-5-1zm-753-3 2-4 3-2-5-4c-2-2-4-4-3-5 1 0 4 1 7 4 3 2 4 5 4 6-2 3-7 7-8 5zm782-1-1-2c1-1 6 1 6 2 0 2-3 2-5 0zm-846-5-9-1c-7 1-7 1-6-2 0-3 1-3 4-4 4 0 5-1 6-5l3-5c2-1 6 3 6 5l-1 3v6l1 5-4-2zm86 0c-2-1-7-5-7-7l10 1 10 4c0 1-1 2-3 2h-10zm730-2-2-3c1-1 4 0 9 1h10l3 1-6 3-9 1-5-3zm43 1-6-1-8-1c-2-2-1-2 5-2l9 2 1 2h-1zm-812-2-6-2-3-4v-2l11 5c2 2 3 4 1 4l-3-1zm826 0v-2c1-1 3 1 3 2 0 2-2 2-3 0zm-76-1c-4-1-2-3 2-3l7-2 4-2 4-1c0-1 1-2 3-2l4-1 3-6c1-2 1-3 2-2l6-2 7-3-3 4-10 9-12 6-10 4-5 2-2-1zm84-3-2-3 3-1 3 3v2l-4-1zm-55-2c0-2 8-4 12-4 1 1 5 0 9-1 7-3 15-3 17-1l-7 1-10 2-8 2-10 1h-3zm-719-2-8-3c-4-1-5-2-4-3s3 0 6 1c5 3 10 3 10 1l-2-2v-4c2-2 9-1 8 2-3 6-3 6 0 4 5-2 7-1 3 2s-11 4-13 2zm823-3 1-3c2-2 5-3 5-1l-2 4h-4zm-866-2c-1-1 0-3 3-6 2-2 4-4 3-5h-4c-3 0-4-1-1-4 2-2 6-2 12-1l6 1 7 3c6 3 6 3 11 1 4-2 5-2 7-1l2 2-4 1-11 2c-5 0-7 0-9-2l-7-2-4 3c0 4-7 10-9 10l-2-2zm723-2 1-2 1 2c-1 2-2 2-2 0zm53-1 2-1 2 1c1 1 0 1-2 1l-2-1zm49 0 1-1 3 1-1 1-3-1zm-29-3c-1-1-5-2-9-1h-6l4-2 8-3c4 0 5 0 5 2 1 3 6 4 6 1l2-2 3-1 2 1-2 1-3 3-4 3-6-2zm-121-1 2-1 4-4 3-5 6 1 4 1h-4c-3 0-5 1-6 3-1 3-5 6-8 6l-1-1zm23 0-5-1c-4 1-5-1-1-2h7c0 2 9 2 15 1l6-4 3-5c2-1 1-1 0-1l-16-3c-14-2-14-2-19 0-5 3-6 3-6 0l2-1 3-3c1-2 2-2 5-2h10c6 0 6-1 5-4 0-3 0-3 3-3 5 0 12-3 12-6 0-1 1-3 3-3h3l-1 3c-5 5-7 7-10 7s-9 6-8 8l4 2c3 0 5-2 9-6 3-4 6-6 7-6l-4 5-5 6c0 1 5 1 9-1 2-1 4-3 4-5 1-3 3-4 7-5l8 1 7 1c5 0 13 4 13 6s-6 10-9 12c-2 1-4 1-8-1s-5-3-4-4c1-2 2-2 4 0l5 2 6-3c4-4 4-4 2-6-2-1-5-2-12-2-7-1-11 0-15 2l-9 5c-2 2-2 3-1 3 1 1 0 2-2 4l-3 2 4 2 3 2-27 4-4-1zm-7-19-1-1-2 1 2 2 1-2zm47-6-2-2-1 2 1 1 2-1zM405 57l-3-3-4-3 2-2c3-1 12 2 14 4l-1 2-4 2h-4zm72-2-1-4c0-2-2-2-3-3-2 0-3-1-3-2 0-2 1-3 4-3l5 2 2 5 1 3 2 2c0 2-5 2-7 0zm686-3h3l-2 1-1-1zm36-1 5-2c2 0 5-3 4-5l-5-1c-3 0-6-2-4-3l9 1h10c2 0 3-1 3-3 1-1 3-3 5-3h4l-2 3-3 4 6 2c3 0 7 2 8 3l2 3h-7l-5-3c-5-3-15-2-18 1l-5 2-6 2c-2 1-2 1-1-1zm-662-2c-2-1-2-3-2-5 1-3 2-3 5-3l18 8-7 1-9 1c-2 0-4 0-5-2zm582 0c1-2 3-2 5-1 3 2 3 2-2 2-3 0-4 0-3-1zm-736-3-4-2 5-1c5-1 9 1 6 4l-2 2-5-3zm874 2c-5-1-5-4 0-4 1-1 3 0 3 1l1 3h-4zm-737-5-5-5-3-3c0-3 2-3 3 0 0 1 2 2 3 1 2 0 4 1 5 3l2 6c0 4-2 3-5-2zm464 3 9-1c7 0 8-1 10-4l3-4 3-4c2-5 7-10 9-10 1 0 2-1 2-3l1-3 1 3-1 6v3h3l5-5c3-1 4-3 4-6v-3l2 3c0 1 2 3 3 2l2 1 3 1c1 1 1 1-2 1-4 0-8 2-13 6l-9 5-14 7-1 4c1 2 0 2-10 2l-10-1zm30-1c1-2 15-6 16-5s-1 3-6 4l-8 2c-3 0-3 0-2-1zm-547-5c1-2-1-2-8-1-8 0-9 0-9-2s2-3 5-3c6-1 12 1 14 5 1 3 1 3-1 3l-1-2zm-70 0-1-3c0-2 2-4 6-6l6-3 1 4-2 5h-6c-3-1-3 0-2 2v2l-2-1zm638-2 5-3 2 2-2 1-5 2c-2 1-2 1 0-2zm203 1 2-1 1 1-1 2-2-2zm-754-1c-1-1-2-1-1-2 2-1 7 0 7 2s-4 2-6 0zm778 0v-2l4-2 6-1 3-1c0 1 0 2-2 3-2 3-8 5-11 3zm-267-2v-3l2 2v2c-1 1-2 0-2-1zm-440-1c-1-2-1-5 1-5 1 0 2 1 2 3s-1 3-3 2zm367-1-2-1h-3v-2c1-1 3-2 5-1l6-3c3-2 6-3 11-3l7 1c0 2-2 3-8 3-5 0-7 1-11 4l-5 2zm366-5c0-5 1-7 3-4 1 2-1 10-2 10l-1-6zm-809 4c-2-1-3-6-1-6l3 2v4h-2zm768 0-2-2 4-1c3 1 5 1 4 2 0 2-2 2-6 1zm-424-2-8-1c-5-1-5-1-6-5-1-3-1-4-7-4l-11 2h-8c-2-1 1-5 6-6 2 0 4-1 4-3h2l6 1c3-1 5 0 8 2s5 2 7 1c3-1 4-1 4 1l-4 4-4 3c0 2 5 3 7 1l6-1 5-3c1-1 4-3 7-3l7-3c2-2 4-1 3 2l-8 4-8 3-2 4c1 2 0 3-2 3l-4-2zm227 0-1-4-2-3h1c2-1 2-1 2-3-1-1 0-2 1-1l1 4 2 5-1 2h-3zm56-3 5-2c5 0 2 2-3 3s-5 1-2-1zm-688-2c-2-2 0-4 4-4l8-3 6-4c2 0 6 6 4 8h-6l-6 2-7 2-3-1zm93 0c-1-2 0-4 3-4 1 0 2 1 1 2 0 3-3 4-4 2zm585 0 4-4 6-3v2l-4 4-5 2-1-1zm21-2-5-5c-1 0-2-1-1-3 1-3 2-3 6-3s6 0 7 2l3 3 5-2c2-1 3-1 4 1l1 3-7 3c-4 0-7 1-7 2l-2 2-4-3zm94 0c0-2-1-3-10-2-7 0-10 1-12 2l-4 2 2-3c2-2 2-2 0-5-2-2-4-2-13-2s-11 1-12 2l-3 3 1-2v-4c-1-1-6-1-8 1h-3c-2-1-2-5 1-5l4-2c2-2 4-3 6-2 6 2 15 2 18 0 2-1 3-1 6 1l4 2h5l17 7 2-4 3-3 3 3-2 6-3 3 3 1 6 2c2 2 2 2-4 2-5 0-6-1-7-3zm-18-6-1-2-2 1 2 2 1-1zm-11-7c-1-2-4-3-4 0l2 2 2-2zm-22-3c-2-1-4 0-2 2l2 1V8zM458 23h-5l-3-1c0-2 3-3 7-4 4 0 6 1 6 2v3h-5zm189-1c-1-1 0-2 1-3 1-2 2-2 3-1 2 1 2 2 0 4l-2 1-2-1zm351 0-7-2c-4 0-5-1-6-2 0-2 1-2 8-2 8 0 8 0 8 3 0 4-1 5-3 3zm-8-4-1-1-1 1 1 1 1-1zm183 4 1-1 2 1-2 1-1-1zm72-1c0-2 3-4 6-3l2 1-4 3c-3 1-4 1-4-1zm-177 0c-7-1-7-1-5-5 0-2 2-3 2-3l6 3c4 3 5 4 7 2 3-1 4 0 1 2-1 2-3 2-11 1zm-449-2 1-2c1-1 1 1 1 2 0 2-1 2-2 0zm606 0c-2-2 1-6 4-6 4 0 5 4 2 6l-3 2-3-2zm38 1c-1-1 4-5 7-5l3 1c0 2-5 5-7 5l-3-1zm-351-3c-1-2-1-3 1-5l6-2c3 0 3 1 3 3s-2 3-5 4c-4 2-4 2-5 0zm130 1c0-1-1-2-3-2-2-1-3-1-2-2 1-2 7 1 7 3l-1 2-1-1zm-554-4 1-2 1 3-1 2-1-3zm-38-1c-1-3 2-6 5-5 2 1 4 4 3 5l-4 2c-3 0-4 0-4-2zm294 1c-2-1-1-7 2-7l3 2v4c-1 2-2 2-3 2l-2-1zm353-1 1-2 2 2-2 2-1-2zm-685-1 1-6c1-3 3-4 5-5l5-1 3 1c2 1 1 2-4 7l-8 6-2-2zm6-7-1-2c-2 0-3 2-2 4 2 1 3 0 3-2zm238 8 2-4c2-3 3-3 5-2 1 2 1 2-2 4-4 3-5 4-5 2zm180 0c0-1 1-2 3-2s3 1 3 2l-2 1-4-1zm412-2 1-5 3-2c4-1 9 4 7 6l-6 2-5-1zm27-1c-2 0-3-1-2-2l-1-2-2 2c-1 3-1 3-1 0s3-4 6 0l3 3-3-1zM496 6V4c1-1 3 0 2 2 0 2-1 2-2 0zm186 0-4-2h2l16-1c7-1 8-1 6 1l-8 2-9 1-3-1zm34 0-8-2c-2-2-2-2 0-2l3 1 5 1c3-1 6 0 8 1 3 2 4 2 2 2l-10-1zm382 0 2-2c1-1 1 0 1 1l-1 2-2-1z"/>
</svg>
