<?xml version="1.0" encoding="utf-8"?>
<svg xmlns="http://www.w3.org/2000/svg" version="1.1" viewBox="0 0 2126 1466">
	<title>Twenty-four measures of musical notation on the treble clef, with a ⁶⁄₈ time signature, in the key of G.</title>
	<path d="M0 35v2h2126v-2zm0 24v3h2126v-3zm0 25v3h2126v-3zm0 25v3h2126v-3zm0 25v2h2126v-2zm0 223v3h2126v-3zm0 25v2h2126v-2zm0 25v2h2126v-2zm0 24v3h2126v-3zm0 25v3h2126v-3zm0 223v3h2126v-3zm0 25v3h2126v-3zm0 25v3h2126v-3zm0 25v2h2126v-2zm0 25v2h2126v-2zm0 223v2h2126v-2zm0 25v2h2126v-2zm0 24v3h2126v-3zm0 25v3h2126v-3zm0 25v3h2126v-3zm0 223v3h2126v-3zm0 25v3h2126v-3zm0 25v2h2126v-2zm0 25v2h2126v-2zm0 24v3h2126v-3z"/>
	<path d="M1765 1418c37 24 148 24 185 0-37 32-148 32-185 0"/>
	<path d="M1765 1417a1 1 0 0 0-1 0 1 1 0 0 0 0 1c19 17 56 25 93 25 38 0 75-8 94-25a1 1 0 0 0-1-1c-18 12-55 19-93 19s-74-7-92-19zm8 6c20 9 52 14 84 14s65-5 85-14c-19 12-52 18-85 18-32 0-65-6-84-18z"/>
	<path d="M845 1002v102m-2-102v102h4v-102zm1267-645v102m-2-102v102h4V357zm16 0v102m-2-102v102h4V357zm-941 645v102m-2-102v102h5v-102zm945-323v102m-2-102v102h4V679zM750 1324v102m-2-102v102h4v-102zm-90-967v102m-2-102v102h4V357zm542-322v101m-2-101v101h4V35zm-884 0v101m-2-101v101h5V35zM177 679v102m-7-102v102h14V679zm25 0v102m-2-102v102h5V679z"/>
	<path d="M217 718c0-3-2-5-5-5s-5 2-5 5 2 5 5 5 5-2 5-5m0 25c0-3-2-6-5-6s-5 3-5 6 2 5 5 5 5-2 5-5"/>
	<path d="M1657 357v102m-2-102v102h4V357zm441 967v102m-6-102v102h13v-102zm29 0v102m-7-102v102h14v-102zm12-322v102m-2-102v102h4v-102zm2-967v101m-2-101v101h4V35zM518 1002v102m-2-102v102h4v-102zm283-323v102m-3-102v102h5V679zm845-644v101m-3-101v101h5V35zm74 1289v102m-2-102v102h4v-102zM335 679v102m-2-102v102h4V679zM755 35v101m-2-101v101h4V35zm907 644v102m-2-102v102h4V679zm138 323v102m-2-102v102h5v-102zm-636-645v102m-3-102v102h5V357zm136 967v102m-2-102v102h5v-102z"/>
	<path d="M1435 1040c0-3-2-5-5-5s-6 2-6 5 3 6 6 6 5-3 5-6m0 25c0-3-2-5-5-5s-6 2-6 5 3 5 6 5 5-2 5-5"/>
	<path d="M1446 1002v102m-2-102v102h4v-102zm20 0v102m-6-102v102h13v-102zm-229-323v102m-2-102v102h4V679zm-477 47v-64m-2 0v64h3v-64zm116 40v-58m-1 0v58h2v-58zm118 82v-76m-2 0v76h3v-76zm79 76v-70m-1 0v70h2v-70zM258 144V61m-1 0v83h2V61zm918 665v-76m-1 0v76h2v-76zM378 106V24m-1 0v82h2V24zm918 678v-58m-1 0v58h2v-58zm-818 727v-70m-1 0v70h3v-70zM499 94V18m-1 0v76h2V18zm913 708v-76m-1 0v76h2v-76zM580 82V11m-2 0v71h3V11zm911 715v-70m-1 0v70h2v-70zm117 46v-77m-1 0v77h3v-77zM701 106V24m-2 0v82h3V24zm1026 690v-64m-1 0v64h3v-64zM821 94V17m-2 0v77h3V17zm1023 709v-76m-1 0v76h2v-76zm79 89v-64m-2 0v64h3v-64zM942 119V36m-2 0v83h3V36zm1057 752V681m-1 0v107h2V681zm-974-550V48m-1 0v83h3V48zm1054 740V687m-1 0v101h2V687zM224 1074v-83m-1 0v83h2v-83zm920-897V18m-1 0v76h3V18zM302 1061v-76m-1 0v76h2v-76zm962-879V24m-1 0v82h3V24zM373 1049v-71m-1 0v71h2v-71zm53 83v-80m-1 0v80h2v-80zm960-862V36m-1 0v83h3V36zM477 1074v-90m-1 0v90h2v-90zm989-853V48m-1 0v83h2V48zM583 1061v-76m-1 0v76h2v-76zm70 64v-77m-2 0v77h3v-77zm936-878V18m-1 0v76h2V18zM722 1036v-64m-1 0v64h3v-64zm70 89v-76m-2 0v76h3v-76zm917-866V36m-1 0v83h2V36zM911 1049v-71m-2 0v71h3v-71zm70 71v-77m-1 0v77h2v-77zm849-841V49m-1 0v82h2V49zm-776 1000v-71m-1 0v71h2v-71zm46 58v-64m-1 0v64h2v-64zm814-828V61m-1 0v83h2V61zm-766 963v-58m-1 0v58h2v-58zm107 83v-71m-1 0v71h2v-71zm743-834V61m-2 0v83h3V61zm-672 1000v-76m-1 0v76h2v-76zm72 89v-83m-1 0v83h2v-83zm684-847V61m-1 0v83h3V61zm-533 988v-71m-2 0v71h3v-71zm70 58v-76m-1 0v76h2v-76zm72 64v-58m-2 0v58h3v-58zM224 416v-76m-1 0v76h2v-76zm1519 709v-77m-1 0v77h2v-77zm121 64v-64m-1 0v64h2v-64zM363 404v-76m-1 0v76h2v-76zm1568 696v-76m-1 0v76h2v-76zM455 392v-65m-1 0v65h3v-65zm1547 685v-58m-1 0v58h2v-58zm69 58v-77m-1 0v77h3v-77zM594 466v-83m-1 0v83h3v-83zm-369 963v-58m-1 0v58h2v-58zm501-859v-83m-2 0v83h3v-83zM375 1371v-76m-1 0v76h3v-76zm203 89v-80m-1 0v80h2v-80zm286-888v-76m-1 0v76h3v-76zM678 1396v-89m-1 0v89h2v-89zm278-903v-70m-1 0v70h2v-70zM816 1384v-77m-2 0v77h3v-77zm153 52v-77m-1 0v77h2v-77zm128-903v-76m-1 0v76h2v-76zm-25 1118v-83m-1 0v83h2v-83zm156-959v-58m-1 0v58h2v-58zm-3 1063v-77m-1 0v77h3v-77zm139 126v-83m-1 0v83h2v-83zm6-946v-76m-1 0v76h2v-76zm188 1080v-82m-1 0v82h2v-83zm-94-922v-70m-1 0v70h3v-70zm324 1062v-83m-1 0v83h3v-83zm193 83v-83m-1 0v83h2v-83zm-375-934v-76m-1 0v76h2v-76zm130 101v-70m-1 0v70h3v-70zm94 70v-67m-1 0v67h2v-67zm94 79v-76m-2 0v76h3v-76zm94 89v-83m-1 0v83h2v-83zM280 726v-76m-1 0v76h3v-76zm121 52v-58m-1 0v58h2v-58zm118 82v-76m-2 0v76h3v-76zm79 76v-64m-1 0v64h3v-64zm79 89v-89m-1 0v89h2v-89z"/>
	<path d="M1353 127c0 4 3 9 12 9 10 0 21-9 21-17 0-6-5-9-11-9-10 0-22 8-22 17m617 893c0 4 3 9 11 9 10 0 21-9 21-17 0-6-5-10-11-10-9 0-21 9-21 18m-1628 37c0 4 3 9 11 9 10 0 21-9 21-17 0-6-5-9-11-9-10 0-21 8-21 17m1696-37c0 4 3 9 11 9 11 0 22-9 22-17 0-6-5-10-12-10-9 0-21 9-21 18M227 152c0 4 3 9 11 9 10 0 21-9 21-17 0-6-5-10-11-10-10 0-21 9-21 18m120-38c0 5 3 10 11 10 10 0 21-9 21-18 0-6-5-9-11-9-10 0-21 8-21 17M193 1355c0 4 3 9 11 9 11 0 21-9 21-18 0-5-5-9-11-9-9 0-21 8-21 18M468 102c0 4 3 9 11 9 10 0 21-8 21-17 0-6-5-9-11-9-10 0-21 8-21 17m81-12c0 4 3 9 11 9 10 0 21-9 21-17 0-6-5-10-11-10-10 0-21 9-21 18m1145 632c0 4 3 9 11 9 11 0 22-8 22-17 0-6-5-9-12-9-9 0-21 8-21 17M670 114c0 5 3 10 11 10 10 0 21-9 21-18 0-6-5-9-11-9-10 0-21 8-21 17m120-12c0 4 3 9 11 9 10 0 21-8 21-17 0-6-5-9-11-9-10 0-21 8-21 17M344 1379c0 5 3 9 12 9 10 0 21-8 21-17 0-6-5-9-11-9-10 0-22 8-22 17M911 127c0 4 3 9 11 9 10 0 21-9 21-17 0-6-5-9-11-9-10 0-21 8-21 17m80 12c0 5 3 9 11 9 11 0 22-8 22-17 0-6-5-9-12-9-9 0-21 8-21 17m273 571c0 4 3 9 11 9 10 0 21-9 21-17 0-6-5-10-11-10-10 0-21 9-21 18m-152-608c0 4 3 9 12 9 10 0 21-8 21-17 0-6-5-9-11-9-10 0-22 8-22 17m120 12c0 5 3 10 11 10 11 0 22-9 22-18 0-6-5-9-12-9-9 0-21 8-21 17M445 1379c0 5 3 9 11 9 11 0 22-8 22-17 0-6-5-9-12-9-9 0-21 8-21 17m-21-979c0 4 4 9 12 9 10 0 21-9 21-17 0-6-5-10-11-10-10 0-22 9-22 18m1010-261c0 5 3 9 11 9 11 0 21-8 21-17 0-6-5-9-11-9-9 0-21 8-21 17M394 1069c0 5 3 9 11 9 10 0 21-8 21-17 0-6-5-9-11-9-9 0-21 8-21 17m1161-967c0 4 3 9 11 9 11 0 21-8 21-17 0-6-5-9-11-9-9 0-21 8-21 17M546 1392c0 4 3 9 11 9 11 0 21-9 21-17 0-6-4-10-11-10-9 0-21 9-21 18M1675 127c0 4 3 9 11 9 11 0 21-9 21-17 0-6-5-9-11-9-9 0-21 8-21 17M647 1404c0 4 3 9 11 9 11 0 21-8 21-17 0-6-5-9-11-9-9 0-21 8-21 17M1796 139c0 5 3 9 11 9 11 0 21-8 21-17 0-6-5-9-11-9-9 0-21 8-21 17m173 298c0 4 3 9 11 9 11 0 21-9 21-17 0-6-5-9-11-9-9 0-21 8-21 17m-92-285c0 4 3 9 11 9 10 0 21-9 21-17 0-6-5-10-11-10-10 0-21 9-21 18M446 1082c0 4 3 9 11 9 10 0 21-9 21-17 0-6-5-10-11-10-9 0-21 9-21 18m1512-930c0 4 3 9 11 9 10 0 21-9 21-17 0-6-5-10-11-10-10 0-21 9-21 18M785 1392c0 4 3 9 11 9 10 0 21-9 21-17 0-6-5-10-11-10-10 0-21 9-21 18M2038 152c0 4 3 9 11 9 11 0 22-9 22-17 0-6-5-10-12-10-9 0-21 9-21 18M936 1367c0 4 3 9 11 9 10 0 21-9 21-17 0-6-5-9-11-9-9 0-21 8-21 17M833 710c0 4 3 9 11 9 11 0 21-9 21-17 0-6-5-10-11-10-9 0-21 9-21 18M193 424c0 5 3 10 11 10 11 0 21-9 21-18 0-6-5-9-11-9-9 0-21 8-21 17m844 1005c0 4 3 9 11 9 10 0 21-9 21-17 0-6-5-9-11-9-9 0-21 8-21 17M332 412c0 4 3 9 11 9 10 0 21-8 21-17 0-6-5-9-11-9-10 0-21 8-21 17m1126 322c0 5 3 10 11 10 10 0 21-9 21-18 0-6-5-9-11-9-10 0-21 8-21 17m-270 658c0 4 3 9 11 9 11 0 22-9 22-17 0-6-5-10-12-10-9 0-21 9-21 18M563 474c0 4 3 9 11 9 11 0 22-8 22-17 0-6-5-9-12-9-9 0-21 8-21 17m130-37c0 4 3 9 11 9 10 0 21-9 21-17 0-6-5-9-11-9-10 0-21 8-21 17m1184-13c0 5 3 10 11 10 10 0 21-9 21-18 0-6-5-9-11-9-10 0-22 8-22 17m-1045 0c0 5 3 10 11 10 11 0 22-9 22-18 0-6-5-9-12-9-9 0-21 8-21 17m93-12c0 4 3 9 11 9 10 0 21-8 21-17 0-6-5-9-11-9-10 0-21 8-21 17m860 0c0 4 3 9 11 9 10 0 21-8 21-17 0-6-5-9-11-9-9 0-21 8-21 17m-721-25c0 5 3 9 11 9 10 0 21-8 21-17 0-6-5-9-11-9-10 0-21 8-21 17m129 0c0 5 3 9 11 9 10 0 21-8 21-17 0-6-5-9-11-9-9 0-21 8-21 17m-640 682c0 5 3 9 11 9 11 0 21-8 21-17 0-6-5-9-11-9-9 0-21 8-21 17m779-657c0 4 3 9 11 9 10 0 21-8 21-17 0-6-5-9-11-9-10 0-21 8-21 17m92 0c0 4 3 9 11 9 11 0 22-8 22-17 0-6-5-9-12-9-9 0-21 8-21 17m-97 1029c0 5 3 9 11 9 10 0 21-8 21-17 0-6-5-9-11-9-10 0-21 8-21 17m192-24c0 4 3 9 11 9 10 0 21-9 21-18 0-5-5-9-11-9-10 0-21 8-21 18m-827-372c0 4 3 9 11 9 11 0 22-9 22-18 0-5-5-9-12-9-9 0-21 8-21 18m1000-633c0 4 3 9 12 9 10 0 21-8 21-17 0-6-5-9-11-9-10 0-22 8-22 17m198 335c0 4 3 9 11 9 10 0 21-9 21-17 0-6-5-9-11-9-10 0-22 8-22 17M760 1069c0 5 3 9 11 9 10 0 21-8 21-17 0-6-5-9-11-9-10 0-21 8-21 17m-41-335c0 5 3 10 11 10 10 0 21-9 21-18 0-6-5-9-11-9-10 0-21 8-21 17m-78 25c0 5 3 9 11 9 10 0 21-8 21-17 0-6-5-9-11-9-9 0-21 8-21 17m1170-25c0 5 3 10 11 10 10 0 21-9 21-18 0-6-5-9-11-9-10 0-21 8-21 17m-931 323c0 4 3 9 11 9 10 0 21-9 21-17 0-6-5-9-11-9-10 0-21 8-21 17m866 347c0 4 3 9 11 9 11 0 22-8 22-17 0-6-5-9-12-9-9 0-21 8-21 17m-366-670c0 5 3 10 11 10 11 0 21-9 21-18 0-6-5-9-11-9-9 0-21 8-21 17m-432 323c0 4 3 9 11 9 10 0 21-9 21-17 0-6-5-9-11-9-10 0-21 8-21 17m1018-261c0 5 3 10 11 10 11 0 21-9 21-18 0-6-5-9-11-9-9 0-21 8-21 17m-947 261c0 4 3 9 11 9 10 0 21-9 21-17 0-6-5-9-11-9-10 0-21 8-21 17m-398 0c0 4 3 9 11 9 10 0 21-9 21-17 0-6-5-9-11-9-10 0-21 8-21 17m953-347c0 4 3 9 12 9 10 0 21-9 21-17 0-6-5-10-11-10-10 0-22 9-22 18m-510 335c0 4 3 9 11 9 11 0 21-9 21-18 0-5-5-9-11-9-9 0-21 8-21 18m980-249c0 5 3 10 11 10 10 0 21-9 21-18 0-6-5-9-11-9-10 0-21 8-21 17m-934 236c0 4 3 9 11 9 10 0 21-8 21-17 0-6-5-9-11-9-10 0-21 8-21 17m828 372c0 4 3 9 11 9 11 0 21-8 21-17 0-6-5-9-11-9-9 0-21 8-21 17M563 734c0 5 3 10 11 10 11 0 22-9 22-18 0-6-5-9-11-9-10 0-22 8-22 17m464 0c0 5 3 10 11 10 11 0 22-9 22-18 0-6-5-9-12-9-9 0-21 8-21 17m189 323c0 4 3 9 11 9 10 0 21-9 21-17 0-6-5-9-11-9-10 0-21 8-21 17m346-670c0 5 3 9 11 9 11 0 21-8 21-17 0-6-5-9-11-9-9 0-21 8-21 17M950 734c0 5 3 10 11 10 10 0 21-9 21-18 0-6-5-9-11-9-10 0-21 8-21 17m334 335c0 5 3 9 11 9 11 0 21-8 21-17 0-6-5-9-11-9-9 0-21 8-21 17m71 13c0 4 3 9 11 9 10 0 21-9 21-17 0-6-5-10-11-10-9 0-21 9-21 18M486 734c0 5 3 10 11 10 10 0 21-9 21-18 0-6-5-9-11-9-10 0-21 8-21 17m1018 323c0 4 3 9 11 9 10 0 21-9 21-17 0-6-5-9-11-9-10 0-22 8-22 17m-359-323c0 5 3 10 11 10 10 0 21-9 21-18 0-6-5-9-11-9-10 0-21 8-21 17m428 311c0 4 3 9 11 9 10 0 21-9 21-18 0-5-5-9-11-9-10 0-21 8-21 18m-1379 37c0 4 3 9 11 9 11 0 21-9 21-17 0-6-5-10-11-10-9 0-21 9-21 18m1450-50c0 4 3 9 11 9 10 0 21-8 21-17 0-6-5-9-11-9-10 0-21 8-21 17m68 25c0 4 3 9 11 9 10 0 21-9 21-17 0-6-5-9-11-9-10 0-21 8-21 17M369 710c0 4 3 9 11 9 11 0 21-9 21-17 0-6-5-10-11-10-9 0-21 9-21 18m-120 24c0 5 3 10 11 10 11 0 22-9 22-18 0-6-5-9-12-9-9 0-21 8-21 17m1582 311c0 4 3 9 11 9 10 0 21-9 21-18 0-5-5-9-11-9-10 0-21 8-21 18m-1560 24c0 5 3 9 11 9 11 0 21-8 21-17 0-6-5-9-11-9-9 0-21 8-21 17m1628-37c0 4 3 9 11 9 11 0 21-8 21-17 0-6-5-9-11-9-9 0-21 8-21 17"/>
	<path d="M31 484c0 6 5 15 18 15 5 0 9-1 12-4 6-3 7-10 7-16l-1-14-2-9c10-3 17-13 17-23 0-15-11-26-25-26l-3-17c11-11 18-23 18-39 0-9-3-16-4-20-3-5-6-9-8-9l-7 5c-6 8-8 21-8 29l2 21-7 7c-9 9-21 21-21 41 0 18 16 33 34 33l8-1 3 22c0 10-5 16-15 16l-5-1c5-1 10-5 10-12 0-5-4-11-12-11-7 0-11 6-11 13m21-133c0-4 5-14 10-14 2 0 4 5 4 11 0 11-8 19-14 25l-2-12 2-10m8 102-5 1c-15 0-27-10-27-25 0-12 9-23 17-31l5-4 3 14c-10 3-16 12-16 22 0 7 6 16 14 16l1-1-2-2c-4-3-6-5-6-10 0-6 5-11 11-12l5 32m14-18c0 7-3 14-10 17l-5-32c9 0 15 6 15 15M31 806c0 7 5 15 18 15 5 0 9-1 12-3 6-4 7-11 7-17l-1-14-2-9c10-3 17-13 17-23 0-15-11-25-25-25l-3-18c11-11 18-23 18-39 0-9-3-16-4-20-3-5-6-8-8-8l-7 5c-6 7-8 20-8 28l2 22-7 7c-9 8-21 20-21 40 0 19 16 33 34 33h8l3 21c0 11-5 16-15 16h-5v-1c5-1 10-5 10-11s-4-11-12-11c-7 0-11 5-11 12m21-132c0-4 5-15 10-15 2 0 4 5 4 12 0 10-8 18-14 25l-2-12 2-10m8 102h-5c-15 0-27-10-27-25 0-12 9-23 17-30l5-5 3 15c-10 2-16 12-16 21 0 7 6 17 14 17l1-2-2-2c-4-2-6-5-6-10 0-6 5-11 11-12l5 33m14-19c0 7-3 14-10 17l-5-32c9 0 15 6 15 15M31 161c0 7 5 15 18 15 5 0 9-1 12-3 6-4 7-10 7-17l-1-14-2-8c10-4 17-14 17-24 0-15-11-25-25-25l-3-17c11-11 18-24 18-40 0-9-3-16-4-19-3-6-6-9-8-9l-7 5c-6 8-8 20-8 29l2 21-7 7c-9 8-21 20-21 40 0 19 16 33 34 33h8l3 21c0 11-5 16-15 16h-5v-1c5-1 10-5 10-11 0-5-4-11-12-11-7 0-11 6-11 12M52 29c0-4 5-15 10-15 2 0 4 5 4 12 0 10-8 18-14 25l-2-12 2-10m8 102h-5c-15 0-27-10-27-25 0-12 9-22 17-30l5-4 3 14c-10 2-16 12-16 21 0 7 6 17 14 17l1-2-2-2c-4-2-6-5-6-10 0-6 5-11 11-12l5 33m14-19c0 7-3 15-10 18l-5-32c9 0 15 6 15 14M31 1451c0 6 5 15 18 15 5 0 9-1 12-3 6-4 7-11 7-17l-1-14-2-9c10-3 17-13 17-23 0-15-11-25-25-25l-3-18c11-11 18-23 18-39 0-9-3-16-4-20-3-5-6-8-8-8l-7 5c-6 7-8 20-8 28l2 22-7 7c-9 8-21 20-21 40 0 18 16 33 34 33l8-1 3 22c0 10-5 16-15 16l-5-1c5-1 10-5 10-11s-4-11-12-11c-7 0-11 5-11 12m21-133c0-4 5-14 10-14 2 0 4 5 4 12 0 10-8 18-14 24l-2-12 2-10m8 102-5 1c-15 0-27-10-27-25 0-12 9-23 17-30l5-5 3 14c-10 3-16 13-16 22 0 7 6 16 14 16l1-1-2-2c-4-3-6-5-6-10 0-6 5-11 11-12l5 32m14-18c0 7-3 14-10 17l-5-32c9 0 15 6 15 15m-43-274c0 7 5 16 18 16 5 0 9-2 12-4 6-4 7-10 7-16l-1-14-2-9c10-3 17-13 17-24 0-15-11-25-25-25l-3-17c11-11 18-24 18-39 0-9-3-17-4-20-3-5-6-9-8-9l-7 5c-6 8-8 20-8 29l2 21-7 7c-9 9-21 21-21 40s16 34 34 34l8-1 3 22c0 10-5 15-15 15h-5v-1c5 0 10-4 10-11 0-5-4-11-12-11-7 0-11 6-11 12m21-132c0-4 5-14 10-14 2 0 4 4 4 11 0 11-8 18-14 25l-2-12 2-10m8 102-5 1c-15 0-27-10-27-25 0-12 9-23 17-31l5-4 3 14c-10 3-16 12-16 21 0 7 6 17 14 17l1-1-2-3c-4-2-6-5-6-9 0-6 5-11 11-13l5 33m14-18c0 7-3 14-10 17l-5-32c9 0 15 6 15 15"/>
	<path d="m130 348 1-1v-6l-2-2-3 1v-15h-3v16l-8 1v-14h-3v15l-4 1-1 1v6l2 1h3v16l-4 1-1 1v6l2 1h3v14h3v-15l8-2v14h3v-14l4-1 1-1v-6l-2-2-3 1v-16l4-1m-15 3 8-2v17l-8 1v-16m15-326 1-1v-6l-2-1-3 1V3h-3v15l-8 2V6h-3v15h-4l-1 2v5c0 2 1 2 2 2l3-1v17h-4l-1 2v5c0 2 1 2 2 2l3-1v15h3V54l8-2v14h3V51l4-1 1-1v-6l-2-1-3 1V26l4-1m-15 4 8-2v16l-8 2V29m15 964 1-2v-6l-2-1-3 1v-15h-3v15l-8 2v-14h-3v15l-4 1-1 1v6l2 1 3-1v17l-4 1-1 1v6l2 1 3-1v15h3v-15l8-2v14h3v-15h4l1-2v-6l-2-1-3 1v-17h4m-15 3 8-2v16l-8 2v-16m15-326 1-1v-6l-2-1h-3v-14h-3v15l-8 2v-14h-3v14l-4 1-1 2v5l2 2 3-1v16l-4 1-1 2v5l2 2 3-1v15h3v-16l8-1v14h3v-15l4-1 1-1v-6l-2-1h-3v-16l4-1m-15 3 8-1v16l-8 2v-17m15 642 1-1v-6l-2-2-3 1v-15h-3v16l-8 2v-14h-3v14l-4 1-1 1v6l2 1h3v16l-4 1-1 1v6l2 1h3v15h3v-16l8-2v14h3v-14l4-1 1-1v-6l-2-2-3 1v-16l4-1m-15 3 8-2v17l-8 2v-17"/>
	<path d="M179 56c-6 0-8 2-9 4l-1-6c0-5 2-13 9-13l5 2c-2 1-4 4-4 6 0 4 3 7 7 7 3 0 6-3 6-7l-1-3c-1-4-5-9-15-9-9 0-15 8-17 13-1 2-3 7-3 13s2 13 8 18c5 4 9 4 13 4 3 0 16-4 16-15 0-10-8-14-14-14m-3 25c-4 0-6-4-6-10 0-5 2-10 6-10s6 5 6 10c0 6-3 10-6 10m11 27c3-2 5-5 5-9 0-7-8-13-17-13-10 0-18 6-18 13 0 4 1 7 6 10-5 3-7 6-7 11 0 8 8 15 19 15 10 0 18-7 18-15 0-5-1-9-6-12m-6-2c-7-3-14-6-14-10s3-6 8-6c6 0 10 3 10 8 0 4-2 7-4 8m-6 23c-7 0-12-3-12-9 0-7 5-8 5-8 7 2 16 6 16 11 0 3-3 6-9 6"/>
	<path d="M2009 910c-10-10-18-10-23-10s-13 0-23 10c-4 6-8 16-8 22 0 2 1 3 2 3 2 0 1-9 9-17 8-7 18-8 20-8 3 0 12 1 20 8 8 8 7 17 10 17l1-3c0-6-3-16-8-22m-30 19a7 7 0 1 0 14 0 7 7 0 0 0-14 0"/>
	<path d="M593 656h158v12H593v-12m456 316 93-12v12l-94 13v-13m870-304 158 13v12l-158-12v-13M372 972l106 6v13l-106-6v-13m1349-645 188 7v12l-188-6v-13M475 1295l204 6v12l-204-6v-12"/>
	<path d="m2068 83 1 1c4 2 13 7 19 18 2 3 5 7 5 16a63 63 0 0 1-5 23l1 1 2-1c4-8 6-17 6-27-1-12-8-22-8-22l-12-16c-4-6-5-11-5-12l-1-4h-2l-1 1v22m-685-25 1 2c4 1 13 6 19 17 2 3 5 8 5 16a63 63 0 0 1-5 23l1 1 2-1c4-8 6-17 6-26-1-13-8-23-8-23l-12-16c-4-6-5-11-5-12l-1-3-2-1-1 1v22M362 350v1c5 1 13 7 20 18 1 3 4 7 4 15a63 63 0 0 1-4 23l1 1 1-1c5-8 6-17 6-26 0-13-8-22-8-22 1 0-9-12-11-17-4-5-6-11-6-11l-1-4-1-1-1 1v23m231 56 1 1c4 1 13 6 19 17 2 4 5 8 5 16a63 63 0 0 1-5 23l1 1 2-1c4-8 6-17 6-26-1-13-8-22-8-22l-12-17c-4-5-5-11-5-11l-1-4-2-1-1 1v23m268-44 1 1c4 2 13 7 19 18 2 3 5 7 5 16a63 63 0 0 1-5 23l1 1 2-1c4-8 6-18 6-27-1-12-8-22-8-22l-12-16c-4-6-5-11-5-12l-1-4h-2l-1 1v22m232-37v1c5 2 13 7 20 18 1 3 4 7 4 15a63 63 0 0 1-5 24l2 1 1-2c4-7 6-17 6-26 0-13-8-22-8-22l-11-16-6-12-1-4-1-1-1 2v22m268 25v1c5 1 13 7 20 18 1 3 4 7 4 15a63 63 0 0 1-5 23l2 1 1-1c4-8 6-17 6-26 0-13-8-22-8-22 1 0-9-12-11-17-4-5-6-11-6-11l-1-4-1-1-1 1v23m231-25 1 1c4 2 12 7 19 18 2 3 5 7 5 15a63 63 0 0 1-5 24l1 1 1-2c5-7 7-17 7-26-1-13-8-22-8-22l-12-16-6-12-1-4-1-1-1 2v22m12 322 1 2c4 1 13 6 19 17 2 3 5 8 5 16a63 63 0 0 1-5 23l1 1 2-1c4-8 6-17 6-26-1-13-8-23-8-23l-12-16-5-12-1-3-2-1-1 1v22m-815 360 1 1c4 1 13 7 19 18 2 3 5 7 5 15a63 63 0 0 1-5 24l1 1 2-2c4-7 6-17 6-26 0-13-8-22-8-22l-12-16-5-12-1-4-1-1-2 2v22m189-12v1c5 1 13 6 20 17 1 4 4 8 4 16a63 63 0 0 1-4 23l1 1 1-1c5-8 6-17 6-26 0-13-8-22-8-22l-11-17c-4-5-6-11-6-11l-1-4-1-1-1 1v23m336 12 1 1c4 1 13 7 19 18 2 3 5 7 5 15a63 63 0 0 1-5 24l1 1 2-2c4-7 6-17 6-26-1-13-8-22-8-22l-12-16-6-12-1-4-1-1-1 2v22m96-335 1 1c4 2 13 7 19 18 2 3 5 7 5 16a63 63 0 0 1-5 23l1 1 2-1c4-8 6-18 6-27-1-12-8-22-8-22l-12-16-6-12-1-4h-1l-1 1v22m431 0v1c5 2 13 7 20 18 1 3 4 7 4 16a63 63 0 0 1-4 23l1 1 1-1c5-8 6-18 6-27 0-12-8-22-8-22l-11-16-6-12-1-4h-1l-1 1v22m-1326 0 1 1c5 2 13 7 20 18 1 3 4 7 4 16a63 63 0 0 1-5 23l1 1 2-1c4-8 6-18 6-27 0-12-8-22-8-22l-12-16-5-12-1-4h-1l-2 1v22M257 83v1c5 2 13 7 20 18 1 3 4 7 4 16a63 63 0 0 1-4 23l1 1 1-1c5-8 6-17 6-27 0-12-8-22-8-22l-11-16-6-12-1-4h-1l-1 1v22m1811 874 1 2c4 1 13 6 19 17 2 3 5 8 5 16a63 63 0 0 1-5 23l1 1 2-1c4-8 6-17 6-26-1-13-8-23-8-23l-12-16c-4-6-5-11-5-12l-1-3-2-1-1 1v22M498 40v1c5 1 13 7 20 18 1 3 4 7 4 15a63 63 0 0 1-4 23l1 1 1-1c5-8 6-17 6-26 0-13-8-22-8-22 1 0-9-12-11-17-4-5-6-11-6-11l-1-4-1-1-1 1v23m468 1265 1 1c4 1 12 6 19 17 2 4 5 8 5 16a63 63 0 0 1-5 23l1 1 1-1c5-8 6-17 6-26 0-13-7-22-7-22l-12-17c-4-5-6-11-6-11l-1-4-1-1-1 1v23m13-633 1 1c4 2 13 7 19 18 2 3 5 7 5 16a63 63 0 0 1-5 23l1 1 2-1c4-8 6-18 6-27 0-12-8-22-8-22l-12-16-5-12-1-4h-1l-2 1v22m-700 0 1 1c4 2 13 7 19 18 2 3 5 7 5 16a63 63 0 0 1-5 23l1 1 2-1c4-8 6-18 6-27-1-12-8-22-8-22l-12-16c-4-6-5-11-5-12l-1-4h-2l-1 1v22m939 657 1 1c4 2 13 7 19 18 2 3 5 8 5 16a63 63 0 0 1-5 23l1 1 2-1c4-8 6-17 6-26-1-13-8-23-8-23l-12-16c-4-6-5-11-5-12l-1-4h-2l-1 1v22M699 46l1 1c4 2 13 7 19 18 2 3 5 7 5 15a63 63 0 0 1-5 24l1 1 2-2c4-7 6-17 6-26 0-13-8-22-8-22l-12-16-5-12-1-4-1-1-2 2v22m241 12 1 2c4 1 13 6 19 17 2 3 5 8 5 16a63 63 0 0 1-5 23l1 1 2-1c4-8 6-17 6-26 0-13-8-23-8-23l-12-16-5-12-1-3-1-1-2 1v22m202-18 1 1c4 1 13 7 19 18 2 3 5 7 5 15a63 63 0 0 1-5 23l1 1 2-1c4-8 6-17 6-26-1-13-8-22-8-22l-12-17-5-11-1-4-2-1-1 1v23m443 0 1 1c4 1 12 7 19 18 2 3 5 7 5 15a63 63 0 0 1-5 23l1 1 1-1c5-8 7-17 7-26-1-13-8-22-8-22l-12-17c-4-5-5-11-6-11l-1-4-1-1-1 1v23m241 31 1 1c4 1 12 7 19 18 2 3 5 7 5 15a63 63 0 0 1-5 23l1 1 1-1c5-8 7-17 7-26-1-13-8-22-8-22l-12-17c-4-5-5-11-6-11l-1-4-1-1-1 1v23M650 995l1 1c4 1 13 6 19 17 2 4 5 8 5 16a63 63 0 0 1-5 23l1 1 2-1c4-8 6-17 6-26-1-13-8-22-8-22l-12-17-5-11-1-4-1-1-2 1v23m-276 322 1 1c4 1 13 7 19 18 2 3 5 7 5 15a63 63 0 0 1-5 24l1 1 2-2c4-7 6-17 6-26-1-13-8-22-8-22l-12-16-5-12-1-4-2-1-1 2v22M1907 83v1c5 2 13 7 20 18 1 3 4 7 4 16a63 63 0 0 1-4 23l1 1 1-1c5-8 6-17 6-27 0-12-8-22-8-22l-11-16-6-12-1-4h-1l-1 1v22m-733 589v1c5 2 13 7 20 18 1 3 4 7 4 16a63 63 0 0 1-5 23l2 1 1-1c4-8 6-18 6-27 0-12-8-22-8-22l-11-16-6-12-1-4h-1l-1 1v22m428 310v1c5 2 13 7 20 18 1 3 4 7 4 16a63 63 0 0 1-4 23l1 1 1-1c5-8 6-18 6-27 0-12-8-22-8-22l-11-16-6-12-1-4h-1l-1 1v22m327-12 1 1c4 1 12 7 19 18 2 3 5 7 5 15a63 63 0 0 1-5 23l1 1 1-1c5-8 7-17 7-26-1-13-8-22-8-22l-12-17c-4-5-5-11-6-11l-1-4-1-1-1 1v23m-188 25v1c5 1 13 6 20 17 2 4 4 8 4 16a63 63 0 0 1-4 23l1 1 1-1c5-8 6-17 6-26 0-13-7-22-7-22l-12-17c-4-5-6-11-6-11l-1-4-1-1-1 1v23m246-912 1 1c4 2 13 7 19 18 2 3 5 7 5 16a63 63 0 0 1-5 23l1 1 2-1c4-8 6-17 6-27-1-12-8-22-8-22l-12-16-5-12-1-4h-1l-2 1v22M301 1007l1 1c4 1 13 7 19 18 2 3 5 7 5 15a63 63 0 0 1-5 24l1 1 1-2c5-7 7-17 7-26-1-13-8-22-8-22l-12-16-6-12-1-4-1-1-1 2v22"/>
	<path d="m863 927 2 1h19l2-1c0-2-8-1-9-4v-18c0-8 2-7 5-8l2-1-1-1h-18l-2 1 2 1c5 0 6 0 6 7v11l-1 8c0 4-7 2-7 4m29-3 3 2 3 3 3-3 3-2-3-3-3-3-3 2-3 4"/>
	<path d="M846 872v56h3v-53h596v53h3v-56z"/>
	<path d="m1486 927 3 1h25l1-1 4-8v-1l-5 4-11 1-4-1 5-4c4-4 10-10 10-15 0-6-4-9-10-9-11 0-14 7-14 9s3 3 6 3l1-1-1-4c0-3 1-4 4-4s8 2 8 7-4 13-17 20l-5 3m39-3 3 2 3 3 3-3 3-2-3-3-3-3-3 2-3 4"/>
	<path d="M1470 872v56h3v-53h651v-3z"/>
	<path d="M1371 1437c0 3 2 5 4 5s5-2 5-5-2-5-5-5-4 2-4 5m420-49c0 2 2 4 5 4s5-2 5-4-2-5-5-5-5 2-5 4m-229 25c0 3 3 5 5 5s5-2 5-5-2-5-5-5-5 3-5 5"/>
</svg>
