<?xml version="1.0" encoding="utf-8"?>
<svg xmlns="http://www.w3.org/2000/svg" version="1.1" viewBox="0 0 2126 821">
	<title>Sixteen measures of musical notation on the treble clef, with a ⁶⁄₈ time signature, in the key of F.</title>
	<path d="M0 35v2h2126v-2zm0 24v3h2126v-3zm0 25v3h2126v-3zm0 25v3h2126v-3zm0 25v2h2126v-2zm0 223v3h2126v-3zm0 25v2h2126v-2zm0 25v2h2126v-2zm0 24v3h2126v-3zm0 25v3h2126v-3zm0 223v3h2126v-3zm0 25v3h2126v-3zm0 25v3h2126v-3zm0 25v2h2126v-2zm0 25v2h2126v-2z"/>
	<path d="M1952 467c27 21 78 18 102-4a71 71 0 0 1-102 4"/>
	<path d="M2055 463a1 1 0 0 0-1 0 81 81 0 0 1-50 18c-19 0-38-4-51-14a1 1 0 0 0-1 0 1 1 0 0 0 0 1c27 28 78 26 103-4a1 1 0 0 0 0-1zm-6 5a71 71 0 0 1-91 4c13 7 30 11 46 10 17-1 33-5 45-14zM802 418c30 31 98 43 136 25-40 26-108 14-136-25"/>
	<path d="M802 417a1 1 0 0 0 0 1c14 20 38 33 64 37 25 5 52 2 73-12a1 1 0 0 0-1-1c-19 9-46 11-71 6-26-4-50-15-64-31a1 1 0 0 0-1 0zm6 7c15 13 37 22 59 26s45 3 63-3c-19 9-42 11-64 7s-44-14-58-30zm1057 361c26 16 104 16 130 0-26 24-104 24-130 0"/>
	<path d="M1995 785a1 1 0 0 0-1 0c-13 8-38 12-64 12s-52-4-65-12a1 1 0 0 0-1 0 1 1 0 0 0 1 1c13 12 39 18 65 18s52-6 65-18a1 1 0 0 0 0-1zm-124 4c14 6 36 9 59 9 22 0 45-3 59-9-14 9-37 14-59 14-23 0-46-5-59-14z"/>
	<path d="M1271 396c0-3-3-6-6-6s-5 3-5 6 2 5 5 5 6-3 6-5m0 24c0-3-3-5-6-5s-5 2-5 5 2 6 5 6 6-3 6-6"/>
	<path d="M1282 357v102m-2-102v102h4V357zm20 0v102m-7-102v102h14V357zm120-322v101m-2-101v101h5V35zm685 644v102m-6-102v102h13V679zm29 0v102m-7-102v102h14V679zm12-644v101m-2-101v101h4V35zM294 35v101m-2-101v101h5V35zm1079 644v102m-2-102v102h4V679zm443 0v102m-2-102v102h4V679zm314-322v102m-2-102v102h4V357zM672 35v101m-2-101v101h4V35zm324 322v102m-2-102v102h4V357zm-26 322v102m-3-102v102h5V679zm806-644v101m-3-101v101h5V35zM560 679v102m-2-102v102h4V679zm-11-322v102m-2-102v102h4V357zm1152 0v102m-2-102v102h4V357zM1050 35v101m-3-101v101h5V35zM749 392v-65m-1 0v65h2v-65zm69 65v-65m-1 0v65h2v-65zm69 77v-70m-1 0v70h2v-70zm69 82v-76m-1 0v76h2v-76zM224 77v77m-1-77v77h2V77zm99 339v-76m-1 0v76h2v-76zm39-221V36m-1 0v83h2V36zm700 393v-83m-1 0v83h3v-83zm312 46v-65m-1 0v65h2v-65zM453 119V36m-1 0v83h3V36zm1020 380v-76m-1 0v76h3v-76zM524 119V36m-1 0v83h2V36zm1018 405v-83m-2 0v83h3v-83zm104 58v-76m-1 0v76h2v-76zM618 106V24m-2 0v82h3V24zm1147 405v-71m-2 0v71h3v-71zM737 94V17m-1 0v77h3V17zm1095 412v-68m-1 0v68h2v-68zm69 80v-77m-1 0v77h2v-77zM831 94V18m-1 0v76h2V18zm1137 423v-83m-1 0v83h2v-83zM902 94V17m-2 0v77h3V17zm1169 412v-83m-1 0v83h3v-83zM220 764v-83m-1 0v83h2v-83zm776-562V36m-1 0v83h2V36zM327 751v-82m-1 0v82h2v-82zm789-575V17m-1 0v77h2V17zM398 739v-77m-1 0v77h3v-77zm109 102v-83m-2 0v83h3v-83zm704-575V24m-1 0v82h3V24zM626 751v-83m-2 0v83h3v-83zm655-574V17m-1 0v77h2V17zM733 739v-77m-2 0v77h3v-77zm73 64v-70m-1 0v70h2v-70zm540-566v76m-1-76v76h2V90zM911 751v-82m-1 0v82h2v-82zm539-592v77m-1-77v77h2V77zm-417 662v-77m-1 0v77h2v-77zm108 64v-76m-1 0v76h2v-76zm405-573v77m-1-77v77h3V77zm-361 645v77m-1-77v77h2v-77zm426-645v77m-1-77v77h2V77zm-287 662v-77m-2 0v77h3v-77zm122 89v-70m-2 0v70h3v-70zm263-604v77m-1-77v77h2V77zm-189 687v-80m-1 0v80h2v-80zm72 80v-77m-1 0v77h2v-77zm226-622v83m-1-83v83h2V65zm-152 699v-83m-2 0v83h3v-83zm109 83v-83m-1 0v83h2v-83zm141-616v82m-2-82v82h3V65zm-18 699v-83m-2 0v83h3v-83zm84-641v83m-1-83v83h2V40zm54 724v-83m-1 0v83h3v-83zm41-616v82m-1-82v82h3V65zM220 392v-65m-1 0v65h2v-65zm171 114v-83m-1 0v83h3v-83zm104 71v-83m-2 0v83h3v-83zm122 70v-83m-2 0v83h3v-83zm70 59v-62m-2 0v62h3v-62z"/>
	<path d="M582 424c0 5 3 10 11 10 10 0 21-9 21-18 0-6-5-9-11-9-10 0-21 8-21 17m1038 348c0 4 3 9 11 9 10 0 21-9 21-17 0-6-5-10-11-10-10 0-21 9-21 18m107 0c0 4 3 9 11 9 10 0 21-9 21-17 0-6-5-10-11-10-10 0-21 9-21 18m-217-323c0 5 3 9 11 9 10 0 21-8 21-17 0-6-5-9-11-9-10 0-22 8-22 17M223 77c0 5 3 9 11 9 10 0 21-8 21-17 0-6-5-9-11-9-10 0-21 8-21 17m106 50c0 4 3 9 11 9 10 0 21-9 21-17 0-6-5-9-11-9-10 0-21 8-21 17m146 645c0 4 3 9 11 9 10 0 21-9 21-17 0-6-5-10-11-10-10 0-21 9-21 18m-53-645c0 4 3 9 11 9 11 0 22-9 22-17 0-6-5-9-12-9-9 0-21 8-21 17m71 0c0 4 3 9 11 9 11 0 21-9 21-17 0-6-5-9-11-9-9 0-21 8-21 17m948 297c0 5 3 10 12 10 10 0 21-9 21-18 0-6-5-9-11-9-10 0-22 8-22 17M587 114c0 5 3 10 11 10 10 0 21-9 21-18 0-6-5-9-11-9-10 0-21 8-21 17m119-12c0 4 4 9 12 9 10 0 21-8 21-17 0-6-5-9-11-9-10 0-22 8-22 17m1230 347c0 5 3 9 11 9 11 0 21-8 21-17 0-6-5-9-11-9-9 0-21 8-21 17M800 102c0 4 3 9 11 9 10 0 21-8 21-17 0-6-5-9-11-9-10 0-21 8-21 17m71 0c0 4 3 9 11 9 10 0 21-8 21-17 0-6-5-9-11-9-10 0-21 8-21 17m976 670c0 4 3 9 11 9 10 0 21-9 21-17 0-6-5-10-11-10-10 0-21 9-21 18M964 127c0 4 3 9 11 9 11 0 21-9 21-17 0-6-5-9-11-9-9 0-21 8-21 17m120-25c0 4 3 9 11 9 10 0 21-8 21-17 0-6-5-9-11-9-9 0-21 8-21 17m898 670c0 4 3 9 12 9 10 0 21-9 21-17 0-6-5-10-11-10-10 0-22 9-22 18m-805-658c0 5 3 10 12 10 10 0 21-9 21-18 0-6-5-9-11-9-10 0-22 8-22 17m71-12c0 4 3 9 11 9 11 0 22-8 22-17 0-6-5-9-12-9-9 0-21 8-21 17M189 772c0 4 3 9 11 9 10 0 21-9 21-17 0-6-5-10-11-10-9 0-21 9-21 18M1342 90c0 4 3 9 11 9 10 0 21-9 21-17 0-6-5-10-11-10-10 0-21 9-21 18m106-13c0 5 3 9 11 9 10 0 21-8 21-17 0-6-5-9-11-9-10 0-21 8-21 17M368 747c0 4 3 9 11 9 10 0 21-9 21-17 0-6-5-9-11-9-10 0-21 8-21 17M1541 77c0 5 3 9 11 9 11 0 21-8 21-17 0-6-5-9-11-9-9 0-21 8-21 17m63 0c0 5 3 9 11 9 10 0 21-8 21-17 0-6-5-9-11-9-10 0-22 8-22 17M718 400c0 4 3 9 11 9 10 0 21-9 21-17 0-6-5-10-11-10-10 0-21 9-21 18m979-323c0 5 3 9 11 9 10 0 21-8 21-17 0-6-5-9-11-9-10 0-21 8-21 17M922 424c0 5 3 10 11 10 11 0 21-9 21-18 0-6-4-9-11-9-9 0-21 8-21 17m881-359c0 4 3 9 11 9 10 0 21-9 21-17 0-6-5-9-11-9-9 0-21 8-21 17M296 759c0 5 3 9 11 9 11 0 21-8 21-17 0-6-5-9-11-9-9 0-21 8-21 17M1896 65c0 4 3 9 12 9 10 0 21-9 21-17 0-6-5-9-11-9-10 0-22 8-22 17m63-25c0 4 3 9 11 9 10 0 21-8 21-17 0-6-5-9-11-9-10 0-21 8-21 17M462 437c0 4 3 9 11 9 10 0 21-9 21-17 0-6-5-9-11-9-10 0-21 8-21 17m1576 0c0 4 3 9 11 9 11 0 22-9 22-17 0-6-5-9-12-9-9 0-21 8-21 17M359 449c0 5 3 9 11 9 11 0 22-8 22-17 0-6-5-9-12-9-9 0-21 8-21 17m291-49c0 4 3 9 11 9 10 0 21-9 21-17 0-6-5-10-11-10-10 0-21 9-21 18m-55 359c0 5 3 9 11 9 10 0 21-8 21-17 0-6-5-9-11-9-10 0-21 8-21 17m1017-335c0 5 3 10 11 10 10 0 21-9 21-18 0-6-5-9-11-9-10 0-21 8-21 17M702 747c0 4 3 9 11 9 10 0 21-9 21-17 0-6-5-9-11-9-10 0-21 8-21 17m71-13c0 5 3 10 11 10 10 0 21-9 21-18 0-6-5-9-11-9-10 0-21 8-21 17m107 25c0 5 3 9 11 9 11 0 21-8 21-17 0-6-5-9-11-9-9 0-21 8-21 17M291 424c0 5 3 10 11 10 11 0 21-9 21-18 0-6-4-9-11-9-9 0-21 8-21 17m495-24c0 4 3 9 11 9 10 0 21-9 21-17 0-6-5-10-11-10-10 0-21 9-21 18m214 347c0 4 3 9 11 9 10 0 21-9 21-17 0-6-5-9-11-9-9 0-21 8-21 17M854 412c0 4 3 9 11 9 11 0 21-8 21-17 0-6-5-9-11-9-9 0-21 8-21 17m253 322c0 5 3 10 11 10 11 0 21-9 21-18 0-6-5-9-11-9-9 0-21 8-21 17m625-297c0 4 3 9 11 9 10 0 21-9 21-17 0-6-5-9-11-9-10 0-21 8-21 17m-553 285c0 4 3 9 11 9 10 0 21-8 21-17 0-6-5-9-11-9-10 0-22 8-22 17m370 50c0 4 3 9 11 9 11 0 22-9 22-17 0-6-5-10-12-10-9 0-21 9-21 18m-262-25c0 4 3 9 11 9 10 0 21-9 21-17 0-6-5-9-11-9-10 0-21 8-21 17M189 400c0 4 3 9 11 9 10 0 21-9 21-17 0-6-5-10-11-10-9 0-21 9-21 18m839 37c0 4 3 9 12 9 10 0 21-9 21-17 0-6-5-9-11-9-10 0-22 8-22 17m378 322c0 5 3 9 11 9 10 0 21-8 21-17 0-6-5-9-11-9-10 0-22 8-22 17m395-322c0 4 3 9 11 9 10 0 21-9 21-17 0-6-5-9-11-9-10 0-21 8-21 17m-323 335c0 4 3 9 11 9 10 0 21-9 21-17 0-6-5-10-11-10-10 0-21 9-21 18m-138-372c0 4 3 9 11 9 11 0 21-9 21-17 0-6-5-10-11-10-9 0-21 9-21 18m713-335c0 4 3 9 11 9 11 0 21-9 21-17 0-6-5-9-11-9-9 0-21 8-21 17m-184 384c0 5 3 9 11 9 10 0 21-8 21-17 0-6-5-9-11-9-10 0-21 8-21 17"/>
	<path d="M31 806c0 7 5 15 18 15 5 0 9-1 12-3 6-4 7-11 7-17l-1-14-2-9c10-3 17-13 17-23 0-15-11-25-25-25l-3-18c11-11 18-23 18-39 0-9-3-16-4-20-3-5-6-8-8-8l-7 5c-6 7-8 20-8 28l2 22-7 7c-9 8-21 20-21 40 0 19 16 33 34 33h8l3 21c0 11-5 16-15 16h-5v-1c5-1 10-5 10-11s-4-11-12-11c-7 0-11 5-11 12m21-132c0-4 5-15 10-15 2 0 4 5 4 12 0 10-8 18-14 25l-2-12 2-10m8 102h-5c-15 0-27-10-27-25 0-12 9-23 17-30l5-5 3 15c-10 2-16 12-16 21 0 7 6 17 14 17l1-2-2-2c-4-2-6-5-6-10 0-6 5-11 11-12l5 33m14-19c0 7-3 14-10 17l-5-32c9 0 15 6 15 15M31 161c0 7 5 15 18 15 5 0 9-1 12-3 6-4 7-10 7-17l-1-14-2-8c10-4 17-14 17-24 0-15-11-25-25-25l-3-17c11-11 18-24 18-40 0-9-3-16-4-19-3-6-6-9-8-9l-7 5c-6 8-8 20-8 29l2 21-7 7c-9 8-21 20-21 40 0 19 16 33 34 33h8l3 21c0 11-5 16-15 16h-5v-1c5-1 10-5 10-11 0-5-4-11-12-11-7 0-11 6-11 12M52 29c0-4 5-15 10-15 2 0 4 5 4 12 0 10-8 18-14 25l-2-12 2-10m8 102h-5c-15 0-27-10-27-25 0-12 9-22 17-30l5-4 3 14c-10 2-16 12-16 21 0 7 6 17 14 17l1-2-2-2c-4-2-6-5-6-10 0-6 5-11 11-12l5 33m14-19c0 7-3 15-10 18l-5-32c9 0 15 6 15 14M31 484c0 6 5 15 18 15 5 0 9-1 12-4 6-3 7-10 7-16l-1-14-2-9c10-3 17-13 17-23 0-15-11-26-25-26l-3-17c11-11 18-23 18-39 0-9-3-16-4-20-3-5-6-9-8-9l-7 5c-6 8-8 21-8 29l2 21-7 7c-9 9-21 21-21 41 0 18 16 33 34 33l8-1 3 22c0 10-5 16-15 16l-5-1c5-1 10-5 10-12 0-5-4-11-12-11-7 0-11 6-11 13m21-133c0-4 5-14 10-14 2 0 4 5 4 11 0 11-8 19-14 25l-2-12 2-10m8 102-5 1c-15 0-27-10-27-25 0-12 9-23 17-31l5-4 3 14c-10 3-16 12-16 22 0 7 6 16 14 16l1-1-2-2c-4-3-6-5-6-10 0-6 5-11 11-12l5 32m14-18c0 7-3 14-10 17l-5-32c9 0 15 6 15 15"/>
	<path d="M119 70c-5 0-8 3-9 4l1-32-2-1h-1l-1 1v60l2 1h1c8-4 17-13 17-23 0-5-2-10-8-10m-9 28V79c1-1 2-4 6-4s4 3 4 5c0 9-3 13-10 18m9 617c-5 0-8 3-9 4l1-32-2-2h-1l-1 2v59l2 2h1c8-5 17-13 17-23 0-5-2-10-8-10m-9 28v-19c1-1 2-4 6-4s4 3 4 5c0 9-3 13-10 18m9-350c-5 0-8 3-9 3l1-32-2-1h-1l-1 1v60l2 1h1c8-4 17-12 17-22 0-6-2-10-8-10m-9 28v-20c1-1 2-4 6-4s4 4 4 6c0 9-3 12-10 18"/>
	<path d="M175 56c-6 0-8 2-9 4l-1-6c0-5 2-13 9-13l5 2c-2 1-4 4-4 6 0 4 3 7 6 7 4 0 7-3 7-7l-1-3c-1-4-5-9-15-9-9 0-15 8-17 13-1 2-3 7-3 13s2 13 8 18c5 4 9 4 13 4 3 0 16-4 16-15 0-10-8-14-14-14m-4 25c-3 0-5-4-5-10 0-5 2-10 5-10s7 5 7 10c0 6-3 10-7 10m11 27c4-2 6-5 6-9 0-7-8-13-17-13-10 0-18 6-18 13 0 4 1 7 6 10-5 3-7 6-7 11 0 8 8 15 19 15 10 0 18-7 18-15 0-5-1-9-7-12m-5-2c-7-3-14-6-14-10s3-6 8-6c6 0 10 3 10 8 0 4-2 7-4 8m-6 23c-7 0-12-3-12-9 0-7 5-8 5-8 7 2 16 6 16 11 0 3-3 6-9 6"/>
	<path d="M1181 424h-1l-11-14v-2l10-15v-3l-16-21-1-1h-1l-1 1 1 2 7 10 1 1-1 1-10 15v3l11 14-2-1c-5 0-9 5-9 10l1 4 10 12 1 1 1-2v-1l-4-6v-3c0-3 2-6 5-6l3 1 4 3h1l1-1v-2"/>
	<path d="M1217 613c-9-10-17-11-22-11-6 0-14 1-23 11-5 5-8 16-8 21l1 3c3 0 2-8 10-17 7-7 17-7 19-7h1c2 0 12 0 19 7 9 9 7 17 10 17l1-3c0-5-3-16-8-21m-29 19a7 7 0 1 0 13 0 7 7 0 0 0-13 0"/>
	<path d="m611 327 139-6v13l-139 6v-13m205-6 138 12v13l-138-12v-13m619 354 145 6v12l-145-6v-12m326-323 139 6v13l-139-6v-13"/>
	<path d="m731 685 1 1c4 1 13 6 19 17 2 4 5 8 5 16a63 63 0 0 1-5 23l1 1 2-1c4-8 6-17 6-26 0-13-8-22-8-22l-12-17-5-11-1-4-1-1-2 1v23M321 362l1 1c4 2 13 7 19 18 2 3 5 7 5 16a63 63 0 0 1-5 23l1 1 2-1c4-8 6-18 6-27-1-12-8-22-8-22l-12-16-6-12-1-4h-1l-1 1v22M452 58l1 2c4 1 13 6 19 17 2 3 5 8 5 16a63 63 0 0 1-5 23l1 1 2-1c4-8 6-17 6-26-1-13-8-23-8-23l-12-16c-4-6-5-11-5-12l-1-3-2-1-1 1v22m164-12 1 1c4 2 13 7 19 18 2 3 5 7 5 15a63 63 0 0 1-5 24l1 1 2-2c4-7 6-17 6-26-1-13-8-22-8-22l-12-16-5-12-1-4-1-1-2 2v22m214-6v1c5 1 13 7 20 18 1 3 4 7 4 15a63 63 0 0 1-4 23l1 1 1-1c5-8 6-17 6-26 0-13-8-22-8-22 1 0-9-12-11-17-4-5-6-11-6-11l-1-4-1-1-1 1v23m164 18 1 2c4 1 12 6 19 17 2 3 5 8 5 16a63 63 0 0 1-5 23l1 1 1-1c5-8 7-17 7-26-1-13-8-23-8-23l-12-16-6-12-1-3-1-1-1 1v22m213-12 1 1c4 2 13 7 19 18 2 3 5 7 5 15a63 63 0 0 1-5 24l1 1 2-2c4-7 6-17 6-26-1-13-8-22-8-22l-12-16-5-12-1-4-2-1-1 2v22m135 120 1 1h1l1-4c0-1 1-5 5-10 4-7 10-11 15-18s7-14 7-23-2-16-7-26l-1-1h-1l-1 1 1 2c4 9 5 14 5 21 0 8-3 13-4 16-7 11-17 16-22 18v23m199-12 1 1 2-1 1-4 4-10 15-18c5-7 8-13 8-22s-2-17-7-26l-2-1-1 1v1c4 9 6 15 6 22 0 8-3 12-5 15-6 11-17 17-21 18l-1 1v23m156 0 1 1 1-1 1-4 5-10 15-18c5-7 8-13 8-22s-2-17-8-26l-1-1h-1v2c4 9 5 15 5 22 0 8-2 12-4 15-7 11-17 17-21 18l-1 1v23m199-7 2 2 1-1 1-4 4-10 15-18c5-7 8-14 8-22 0-9-2-17-7-26l-2-2v1l-1 1v1c4 9 6 14 6 22s-3 12-5 15c-6 11-17 17-21 18l-1 1v22m-759 525 1 1c4 2 12 7 19 18 2 3 5 7 5 16a63 63 0 0 1-5 23l1 1 1-1c5-8 6-18 6-27 0-12-7-22-7-22l-12-16-6-12-1-4h-1l-1 1v22m620 31v1c5 2 13 7 20 18 1 3 4 7 4 16a63 63 0 0 1-5 23l2 1 1-1c4-8 6-18 6-27 0-12-8-22-8-22l-11-16-6-12-1-4h-1l-1 1v22m-286-341 1 1c4 2 13 7 19 18 2 3 5 7 5 16a63 63 0 0 1-5 23l1 1 2-1c4-8 6-18 6-27-1-12-8-22-8-22l-12-16c-4-6-5-11-5-12l-1-4h-2l-1 1v22M504 703l1 1c4 2 13 7 19 18 2 3 5 7 5 16a63 63 0 0 1-5 23l1 1 2-1c4-8 6-18 6-27 0-12-8-22-8-22l-12-16-5-12-1-4h-1l-2 1v22m-178-12 1 1c4 1 12 7 19 18 2 3 5 7 5 15a63 63 0 0 1-5 23l1 1 1-1c5-8 7-17 7-26-1-13-8-22-8-22l-12-17c-4-5-5-11-6-11l-1-4-1-1-1 1v23m584 0 1 1c4 1 12 7 19 18 2 3 5 7 5 15a63 63 0 0 1-5 23l1 1 1-1c5-8 7-17 7-26-1-13-8-22-8-22l-12-17c-4-5-5-11-6-11l-1-4-1-1-1 1v23m732-329v1c5 2 13 7 20 18 1 3 4 7 4 16a63 63 0 0 1-5 23l2 1 1-1c4-8 6-18 6-27 0-12-8-22-8-22l-11-16-6-12-1-4h-1l-1 1v22m-1151 6 1 2c4 1 13 6 19 17 2 3 5 8 5 16a63 63 0 0 1-5 23l1 1 2-1c4-8 6-17 6-26 0-13-8-23-8-23l-12-16-5-12-1-3-1-1-2 1v22m1577 0 1 2c4 1 13 6 19 17 2 3 5 8 5 16a63 63 0 0 1-5 23l1 1 2-1c4-8 6-17 6-26-1-13-8-23-8-23l-12-16c-4-6-5-11-5-12l-1-3-2-1-1 1v22m-753 317 1 1c4 1 13 6 19 17 2 4 5 8 5 16a63 63 0 0 1-5 23l1 1 2-1c4-8 6-17 6-26-1-13-8-22-8-22l-12-17-5-11-1-4-1-1-2 1v23M223 154l1 1 1-1 1-4 5-10 15-18c5-7 7-13 7-22s-2-17-7-26l-1-1h-1l-1 1 1 1c4 9 5 15 5 22 0 8-3 12-4 15-7 11-17 17-21 18l-1 1v23m1829-7 1 2 2-1 1-4 4-10 15-18c5-7 8-14 8-22 0-9-2-17-8-26l-1-2-1 1v2c4 9 6 14 6 22s-3 12-5 15c-7 11-17 17-21 18l-1 1v22"/>
	<path d="m1347 317-1 2-1 3-4 1h-11l6-4 11-8 3-8c0-6-6-11-14-11-7 0-13 5-13 11 0 4 2 7 5 7s5-2 5-5c0-2-1-4-3-5l-1-1c0-2 3-4 5-4 4 0 6 3 6 7s-1 8-7 14l-11 13v2h27l1-14h-3m13 5a5 5 0 1 0 0 10 5 5 0 0 0 0-10"/>
	<path d="M1306 275v56h2v-53h816v-3z"/>
	<path d="M158 292h-2c-3 3-7 4-14 4v3h3c5 0 5 0 5 5v19l-1 4-4 1h-2v3h22v-3h-2l-4-1-1-4v-31m20 30a5 5 0 1 0 0 10 5 5 0 0 0 0-10"/>
	<path d="M126 275v56h2v-53h1152v53h3v-56z"/>
	<path d="M1891 768c0 2 2 4 5 4s5-2 5-4c0-3-2-5-5-5s-5 2-5 5m-818-348c0 3 2 5 5 5s5-2 5-5c0-2-2-5-5-5s-5 3-5 5"/>
</svg>
