<?xml version="1.0" encoding="utf-8"?>
<svg xmlns="http://www.w3.org/2000/svg" version="1.1" viewBox="0 0 340 153">
	<path d="M185 151.7v-.3h1.3v-1l.2-1 1.1-.7.3.4.2.4-.1.7c-.2.7-1.6 1.8-2.4 1.8h-.6zm-1.7-.6-.2-.3h.4c.3 0 .6.1.7.3l.2.3h-.5l-.6-.3zm1.3-2.4-.2-.6.6-.7.4.5-.3.7-.3.7zm-8.7-.8v-.8l.2-.5h-.4c-.2 0-.7.2-1 .5-.8.5-1.5.6-2.1.2l-.5-.3.4-.6.5-.5.4.2h.9l.5-.2v-1.2h1.3l-.2-.5-.1-.5.8-.3 1-.3v1.4l-.5.5-.5.6.5.5.6.8c0 .3-1.1 1.3-1.4 1.3l-.4-.3zm6.6-.8v-.9l.5.1.6.1v.8l.2.7h-1.3zm-12.2-.5-.4-.3.4-.7h-.3l-.4.4-.1.4-1.4-.4c-.7-.2-1.4-.5-1.5-.7l-.2-.4 2.3.4.2-.3c0-.2.4-.3.8-.3h.6l.6.7.7 1v.5h-.4a2 2 0 0 1-.9-.3zm10-.6c-.5-.9-.5-1 .2-1h.6l.2.4c.1.5-.1 1.2-.5 1.2l-.6-.6zm-18.8-2.3-2.6-.6h-.6l1.3-.8h1.7l2.3-.2.5-.1.2 2.4h-.5l-2.3-.7zm11.4-.3c0-.2.1-.4.3-.5s.3-.5.3-.8.2-.7.4-.8l.3-.2.5.5c.5.8.5 1.2 0 1.2h-.6l-.2.4c-.2.6-1 .7-1 .2zm-16.5-1 1-.4.7-.1v.9h-2zm-7.1-.7c-.6-.2-1-.5-1-.6 0-.3 1.5-.6 3-.5h1.4l.2.5v.7c-.2.3-2.4.2-3.6-.1zm22.4-.5-.2-.4.2-.3c.3-.4 1.5-.4 1.5 0 0 .3-.7 1-1 1-.2 0-.3-.2-.5-.3zm-169.5-1h-.5l.1-.3c.1-.2.6-.3 1.2-.3h1v1l-.7-.1a7.3 7.3 0 0 1-1-.2zm3.8-.4-.2-.3-.6.2-.6.1-.4-.4a3 3 0 0 0-1.4-.6l-1-.2-.3-2-1.5-.3.2-.7.2-1c0-.8.5-.5.8.2l.2.8.2-.5.1-.4-1-1.5.4-.3.8-1 .5-1-.4-.5-.3-.6v2H1v-2.4l1-.2h1l-.3 2-.4 3.2v1.3H3v-1.6h.7v3.1l-1.1.5.5.3c.2.1.9.3 1.4.3a9 9 0 0 1 2.2.2l1.3.3v.3l.2.3-.8.4c-1 .5-1 .5-1.3 0zm164 0a1 1 0 0 1 .6-.5l.3-.1v1h-1zm-2-.4-.3-.5.2-.5.2-.6.4.6c.3.3.6.5.8.5h.4v1h-.6c-.4 0-.8-.2-1-.5zm-2.4-1-1.3-.8-.8.4-.8.4-.8-.5c-.4-.3-1.2-.6-1.8-.7l-1.6-.6-.4-.3v-1.5h.3c.2 0 .7.3 1.1.8l.8.8.5-.2.6-.2.4.3c.2.1.7.4 1.2.4l.9.2v-.3l.2-.3.6.3 1.5.5.8.2.2.8v1l-1.6-.7zm-152.1-.6c0-.1.3-.3.7-.4l.7-.3.2-3.7.7-.8-.8-.5.2-1.7.2-1.7-.6-.4-.7 2.3.3 1.6-.3.2-.2.1.3 2.6h-.6l-.2-1v-2l.1-1.2h-.6v-1.7l-.6.8.2 2 .1 2.1H12v-.7l-.2-.7-.1 2H11v-.7c0-.5.2-1.1.3-1.4.2-.3.5-1.8.7-3.4l.4-2.8-.2-.2-.2-.2v.7c0 .4-.1 1-.3 1.3-.2.3-.4 1.4-.6 2.4l-.2 2-1 .2.3-1a19.1 19.1 0 0 0 .3-3.9c0 .5-.3 1.1-.4 1.5-.2.3-.4 1.3-.5 2.1l-.2 1.6-.6.6c-.8.7-.8 1-.2 1H9v2l-.3-.3-.4-1-.2-.6v2.2l-.6-.6-.1-2.3v-2.3l-.3.1c-.2.1-.3.6-.3 1v.8H6v-1.6h-.3c-.4 0-1 1-1 1.8v.7l1 .8v2.4h-1l.2-1 .2-1.1-1-.4v-2.5l.5-.4c.3-.2.5-.6.5-.9v-.5l.6.2h.7c0-.4-1.1-2.3-1.4-2.3v2.2h-.7l.2-4.2.5-.3v.5c0 .2.1.6.3.7l.4.2-.2-1c-.2-.4-.5-1-.7-1.1l-.5-.3v-1.2H4c-.2 0-.3.2-.3.5v.4l-1-.3-.1.3-.5.4h-.3v-1l.3-2 .3-1.2H3l-.5 3.4.3-.3c.2-.1.5-.8.7-1.6l.6-2 .2-.7-1.4.3v-1l-.1-2a24.4 24.4 0 0 0-.1-1.4v-.4H1l-.2-.8-.2-.8.7-1.3v-4.2h.4c.1 0 .4.4.5.8l.2.9.5-.9-.3-1.4.7-.4V105l-.5.4c-.7.5-1 .2-.6-.5.2-.3.4-1 .5-1.6v-1l-.4-.5-.4-.6 1.4-1.9h-1l-.2.5c-.1.3-.4.5-.6.5H1v-.9l1.3-.8 1.3-.9v-.4l-.4-.8-.3-.3 1.6-1.7-.9-.3-.6.3-1 .4h-.2v-2.3l.7-.6.8-.6-.4-1h-.6C.7 90.6.6 90 2 89.2c.5-.3 1-.7 1-1v-.3H1.1L1 86.5h.6c.4 0 .8.2.9.4s.3.3.5.3h.3v-2.6h-1v-1l1.3.3-.2-1-.3-1.5v-.5l1.3.2 1.2.9c.7.6 1.4 1.1 1.6 1.1h.3l-.2-.5a3.3 3.3 0 0 1-.2-1v-.5l-.9.4-1-1.1v-.8c0-.4-.1-1-.3-1.2a4 4 0 0 0-1.5-.8l-1.3-.4L2 76l3.3.3V76c0-.7.7-.5.9.2l.1.7.7-.3v-.8l-.2-2.3v-1.6l-1 1.3.4 1.7H6c-.2 0-.6-.4-.9-.8l-.5-.8.7-.9-2-.4v-1.4l1.4-1.2-.5-.5c-.7-.8-.6-1 .1-1 .8 0 .8-.4 0-1.1-.6-.6-1.3-.7-1.3-.2 0 .3-1.2.8-1.5.5L1 65.5.8 64h.9v1.4l1.2-.4v.6l2-1 1.1 1 1.3-1.1V63H7c-.1 0-.4.1-.5.3l-.2.3-1-1H4.1c-1.9.2-2 .1-2.6-.8L1 61l.4-2 .8.4.7-.7.7.5-.1 1.2v.7l.1-.4 2.6.5-.1-.5-.2-.4-1.4-.2v-.6c0-.4.2-.8.5-1s.5-1 .6-1.7l.3-1.2-1.7-.7.4-.5c.2-.2.5-.4.8-.4h.4L7 56l.3-.4.2-.3.3.2c.3.1.1-.1-.2-.6a30.8 30.8 0 0 1-1.4-1.8l-.7-1 .7-.5.7-.5h-.6c-.4 0-.8.2-1 .4l-.3.3-.9-1-1-1s-.2.4-.2 1l-.2.8-.2-.6-.3-.6.3-.5c.2-.3.5-.5.7-.4h.4v-1h-.7l.4-.6 2.8 2.3 1-.3 2 2v-.4l-.4-1-.3-.6h-.6c-.3 0-1-.3-1.4-.7l-.8-.6-.4-1.2c-.2-.7-.3-1.8-.3-2.3v-1h-.4l-1-.5L3 43l-1 1-.3-.8-.3-.8 1.2-1 .2.4c.3.7 1 1 2 .7l.7-.2v-3.8h1l.1-1.7h.6c.2 0 .8-.3 1.1-.6l.8-.5.3.6c.1.3.4.7.7.8l.6.2.4-.4-.5-.3-.4-.2.2-1.2V34l-1 .3-.8.3-1-.4-1.8-1-.9-.7 1.3-.8 1.2 1 .4-2 .9 1.1.4-1.1-.4-.4c-.3-.2-1-1-1.4-1.8-.8-1.4-1-2.5-.6-3L8 26.7 9.3 28v1.5l.7-.4v-1L9.8 27l-1.2-.6-.8-1.9-.8-2.3c0-.5 1.1-1.7 1.6-1.7.2 0 .3-.1.3-.3s.2-.3.4-.3h.3l-.2 2-1.5.4L9.6 24l1.3-.3.4-2.5-.7-1c-.3-.5-.8-1-.9-1l-.6.4-.4.4-1.3-1.3-.1-1.8.7-.3.4 2 1.4-.2.1-.8c0-.5.3-1 .5-1.2l.5-.4.1 1.3c.1.8.4 1.5.5 1.7l.3.3 1.1-2.1.5.6c.2.3.4.7.4 1l1 1 1 .8.3-1-1.4-2H14l-.4-1.6a5 5 0 0 1-.1-2l.8-.2h.6l-.1 1.7v1c0-.5.3-.8.4-.8h.3v2h.3c.4 0 .6-.7.8-2.9 0-.8.2-1.5.3-1.6h.7l.4.2-.4 1.8c-.6 2-.4 2.8.2 1.3l.4-1 .3 1.6-1.3 1.3-.2 1.2-.4 2.1-.2 1h1.4l-.1-1-.2-.9.3-.8.3-.8h1.3v-2.5H21l-.2-.6-.4-1.4-.1-.8.7-.5.5.4c.2.2.4.7.4 1 0 .5.6 1.1.8.8L22 14c-.5-.8-.8-1.8-.8-2.2V11l-1.3-1V8.6l.6-.1c.4-.1.7-.4.8-.7l.2-.5-.5-.5c-.2-.3-.6-1-.8-1.7-.2-.6-.6-1.2-.7-1.3l-.4-.3.6-.4.9-.5s.3.4.4 1c.1.5.4 1 .5 1l.3.3v-1c0-.4 0-1.4-.2-2L21.4.7l-.9.4L21 0l2 .2.2 2.7.9-.3.2.3.2.3-.5 1.4-.5 1.4.5 1 .9 1.4.4.6-.6.5-.5.6-.4 3.6.4 1h1v-1.5l.8-1.6 1.4-2.8.5-1.2.6.3-.1 1.3-.1 1.2-.6.7c-.3.3-.8 1-1 1.5l-.3 1 .4.6.5-.6c.2-.3.4-.8.4-1.1v-.6l.8-.5c1-.6 1.2-.6 1 0l-.2.5.6.3.1-.5.2-.4-.7-2 .5-.5.8 1.2.3-.4.5-1c.1-.3.4-.6.6-.6h.4l-.3 1a4 4 0 0 1-.6 1.3c-.9 1-.8 1.3.1.4l1-1 .2-1c.2-1 1-2.3 1.4-2.3h.3l-.2 3-.9.8A9.4 9.4 0 0 0 31 14l-.2.8h.3l1.2-.4.9-.3-.2.6-.1.6.5-.1a4 4 0 0 0 1-.5l.3-.3-.4-.7a23.1 23.1 0 0 1-.4-.8l-1.2.6-1.2.7v-1l.6-.2c.4-.1 1-.5 1.5-.8l.8-.7v-1.2l.5-.2 1.4-1.6 1-1.4-.4-1.3 2-2 .4.2c.2 0 .4.3.4.5V5l-1-.1-1.1 1.5h.2l1-.4.8-.5c.7 0 0 .8-2 2.7l-2.2 2.1v1.8c0 1 0 2-.2 2.4l-.2.7 1.6-1 .4.5-2 1.1-.3 1.4-1.4.7-.8 2h.3c.2 0 .4-.2.5-.3s.5-.4.9-.4h.7l.8-.8a9 9 0 0 0 1.2-1.6l.4-.8h1l-.2 1c-.1.4-.4.9-.6 1-.2 0-1 .6-1.6 1.3l-1.2 1.2-2-.2-.4.4c-.3.2-.5.5-.5.6l1 .2c.5 0 1 0 1 .2l-.7 1.6-.7 1.4h-1.2v1l-1.5-.4-1.2 1.2c-.6.6-1 1.2-1 1.3l.4-.1c.2-.2.7-.5 1.2-.6a23 23 0 0 0 4.3-1.8l.5-.2V24c0-1.2.4-1.9.8-1.9h.3v.6a9.5 9.5 0 0 0 0 1.2v.7l3-.3.6-.5c.4-.3.6-.7.6-1v-.5l.4.6.5.6.8-.6c.5-.3.9-.7.9-.8 0-.3.6-.3 3-.3h1.7l1-.8c.5-.4 1.1-.8 1.4-.8s.6-.1.7-.3.5-.3 1-.3.8-.2 1-.4.4-.3.7-.3c.7 0 .8-.1 2-1.7l.7-.9.2.4.2.4 1.6-1 1.1.3-.1.4c0 .2-.6.6-1.2.9l-1.2.8c-.1.1-1 .6-2 .9l-1.9.6.2.2c0 .2.6.3 1.1.3h1l.8-.6c1-.7 1.4-.6.7.1l-.4.5h1.7v1h-1a5 5 0 0 0-1.7.3l-.8.4-.2-.2-.3-.2 1-.7-4.7.3-.1-.6-1.2.4v1.6h-3.1l-.4-.7-1.2.8c-.6.4-1.7.9-2.3 1l-2 .8-1.1.6-1-.4-2 1.1.2 1.3.3 1.5.5-.1.3-.2-.3-.6 1-1.7 2.8.2 2-2.2.3.8h1.8l.4.5.5.6-1-.2h-1.8l-.9.1v1.2h-.4c-.6.1-.6.1-2-.1l-1.2-.2.4 1.3-.7 1.3h1.3l1.2-1.7.4.1.4.1-2 2.8-2-.4-1.6.9v1l-.7.6c-.4.3-.8.7-.8 1v.4l.6-.2 1.5-1 .9-1 .1.5c.3.6.8.5 1.6-.4.4-.4.9-.8 1.1-.8h.4l-.7 1-.7 1.4.6.2h.6l.4-1.5 2-.2v.3c0 .2-.5.5-1 .8-1 .4-1.3.9-.5.9h.5l-.2.3c-.3.5-1.4.4-3.1-.2l-1.6-.5-2.4 1.3h-1.7v.3c0 .4 1.5.7 2.7.5l1-.1 1 .6-.5.4h-4.8l-1.9-.8-1.7 1.1.7.7 2-.8.4.4-.7.6c-.8.7-2.3 1.4-2.6 1.2-.2-.1-1.2.7-2.3 1.9l-2 2h.3c.2 0 1.1-.7 2-1.6 1.4-1.5 2.3-2 2.3-1.3 0 .2-.5.6-1 .9l-1 .6c0 .2 2.3 0 2.3-.1l.3-.7.3-.4.5.5c.3.3.7.5 1 .5h.4l.2-.6.2-.6-.4-.9-.3-.9.6-.5c.3-.3.9-.7 1.3-.8l.7-.2v.4c0 .1-.4.6-.9.9l-.9.5.2 1.4 1-.3v.3c0 .2-.3.5-.5.7l-.5.4.2.6.1.6-2-.4.3.3.4.3-.8 1.7-1 .4v.4c0 .3 0 .5.2.5.3 0 2.3-1.7 4-3.4l1.4-1.4H35l1.4-1.4.4.2.4.1-1.7 1.5v1.1l-2.2.4-1.6 1.1-1.7 1.4h.6l.6-.2 1 .6h-.6c-.5-.1-2 .4-3.7 1.3a6 6 0 0 1-1.6.6c-.7 0-.5.6.3 1l.7.4 1.2-1.7H30v1.2l.6.2 1.5.2h1l2-1 .8.4-.5.3c-.2.2-.7.3-1.1.3h-.8l.2.4.3.3 1.1-.2a6 6 0 0 0 2-.4l.6-.2v.7L36 50v.6c0 .3-.1.7-.3.8l-.4.2-.4-.4a6.8 6.8 0 0 0-.9-.9l-.5-.4-4.7-.3.5.3c.2.2.8.4 1.2.4h.7v.3c0 .2-.2.4-.5.5l-.5.2-.7-.3-1.3-.2-.5.2v1l1.9-.5v.7l.6-.3.9-.3h.2l-.4 2.5h.3c.2 0 .3-.2.3-.6V53l1.6-1.4.4.2.4.3-1.2.8.2.3.3.4-.7 1.3h-.7c-.7 0-.8.4-.2.8l.4.4 2-.4 1.1-1.2h-1.3v-.6h.6c.3 0 .8.2 1 .5l.6.5 2.6-2.6h1l-.8.7c-.5.4-.9.9-.9 1s.3.2.7.2h.6l.7-.7c.7-.7 1.2-.5.6.2l-.4.5h.3c.2 0 .4-.1.4-.3v-.3H42l.4.8.6-.7.8-.8c.1 0 .2.3.2.7v.6h1.2l.2.5c.3.7.3.9-.2.6l-1.4-.2h-1.1l-.8.7a3 3 0 0 1-1.5.7h-.6l.4-.5c.2-.3.6-.5.8-.5.2 0 .4-.1.4-.3v-.3l-4.6.2-1.3 1.1a12 12 0 0 1-2.3 1.6c-1 .5-2 1.2-2 1.6 0 .3 1.6 0 2.5-.6l1-.3c.3.3-.4.8-1.6 1.2l-1.3.3.2.6.2.7h-1.6v-.4c0-.1-.3-.3-.5-.3h-.5v1h.5c.2 0 .5.1.5.3v.3h-1.8l-1.1 1-1 1c.2.2.7.1 1.3-.1l1-.4 3.9.3.9 1.3.5-1 3.6.9v.6l-2.9-.3.2 1 .2.8H35c-.2 0-.5-.2-.6-.4a6 6 0 0 0-1.4-1.3l-1.2-.8-2.5-.4-.4 1.4-.7-.2a17 17 0 0 0-1.6-.4l-.9-.2-1.3.7.4 1.3 1.6.4 1.2-.7.5.3c.2.2.4.6.4.9v.5l1.2-.3c.7 0 1.6-.2 2-.3l.7-.2v1l-1.8.2c-1 0-1.7.3-1.7.4 0 .2.3.5.8.7s1.2 1 1.6 1.5l.8 1.1-.4.3a2 2 0 0 1-.6.3l-.6-1-.3-1-1.8-.9-.5.8 1.4 1-.2.3-.3.3-.5-.4c-.3-.2-.5-.5-.5-.6l-.5-1-.7-.5-2.8-.4-1.3.5-.4 2.1-1.1 1c-1.2 1.3-1.4 1.7-.6 1.7h.4l1-2h1v-.6l-.2-.7.8-.3v1.4l.7-.2c.4-.1 1-.5 1.2-.8.2-.4.6-.6.8-.6h.4V73h-.4c-.2 0-.4.1-.4.3 0 .5.4.4 1.2-.2l.7-.5.4 1.3.7.2c.5.1 1.2.1 1.6 0l.8-.2v.6l-3.8.5v.3c0 .1-.3.4-.7.6l-.7.3-.8-.7-.5.2c-.7.3-.7.8.1 1 1 .3.8.7-.5 1l-1.1.2-1 1.3-.6-.3-.6-.4-.8.9c-.9.8-1 1.6-.5 1.6.2 0 .3-.2.3-.4s.3-.7.7-1l.7-.7.1.4.2.4H24v.3c0 .2.2.5.5.8l.5.5-.7.7-.7.8h.7l.6-.2v.9l-.9.5a11 11 0 0 0-3.2 3.7l-.4 1 1 1 1.2-.4 1.3-.4.5.4.5.4v1.5h.3c.2 0 .4-.1.4-.3s.2-.3.4-.3h.4l1.2 1.5 1.2 1.7.1.3 3.5-.7 2.1 2.3h.6l2.4.4 2 .4 1 .7 1 .8 1.2-.8 1.8.6c1 .3 2 .8 2.3 1.1l.7.6 1.4.2c1.6.3 3.1 1 3.5 1.7l.3.6 1.7.5c1 .3 2 .6 2.5.6h.7v.6h.7c.5 0 1.2.2 1.7.4a64.1 64.1 0 0 0 6.4 2.3l2.6 1c.4.2 1 .5 1.4.5s1 .2 1.2.4l.4.4 4.4-.2v.3c0 .2.4.4.8.4l.7.1 1.3 2.6.2-1.8 1 .2c.5.1 1 .4 1.1.5 0 .2.3.3.5.3h.4l.8 2 1.7-.2a201.3 201.3 0 0 1 1.8-.3h1.9l.2 1.5.1-1.7h.5l1-.2.4-.2.4 2 .5-.5.5-.5h2l.4 1.7.2 1.7.1-1.9.1-1.8h.3c.1 0 .3 0 .5.2.2.3.8.4 3.4.5l1.9.2.2-.3c0-.2.3-.3.4-.3h.3l.1 2 .2-.7.3-.8h.4c1.4.2 3 .8 3.5 1.3l.6.5 1.3-.4v2.3h.7v-.8c0-.4.1-.9.3-1.2l.3-.4.3.3c.1.2.6.4 1.1.4h1l.4.5c.2.3 1 .7 1.5.9l1.2.4v1.5h.6v-1.3h2.5l.5.7-.8 3.8-.6-.2-.6-.2v.3c0 .4.6.8 1 .9h.4l-.1.6c0 .3-.2.7-.4.7-.2.1-.3.3-.3.5s-.3.6-.7.8l-.7.4.3 1.6.2 1.6h-.3c-.2 0-.5-.2-.6-.5-.2-.2-.6-.5-1-.5l-.6-.2.1-.7.1-.7h-.3c-.2 0-.4.3-.5.7s-.3.6-.5.6h-.4l.2-.7.4-2c.1-.6.4-1.2.5-1.3.2-.1.3-.6.3-1v-.9l-.5.6-.4.6-.2-1.7-.3-1.6.4-.4c.4-.4.4-.9 0-.9-.2 0-.3.2-.3.5 0 .2-.2.5-.4.6h-.3l.4 2.6.4 2.4-.4 1.3-.4 1.3-1-.4-.9.8v-1c0-1.1-.5-2.6-1-2.6h-.2l.1-1.4v-.8c0 .2-.3.6-.5.6h-.3v-2h-.6v.8l.4 2.4c.3.9.4 1.7.3 1.7l.2.4.4.5-.2 1a10.3 10.3 0 0 0-.2 2.2v1.1l-1-1 .4-1.9.3-1.9-.3-.3c-.2-.1-.3-.6-.3-1v-.8l-.7.5.1 1.3v2.7l-.1 1.3h-1v-1.9l.4-.2c.2 0 .3-.4.3-.7v-.5l-1 1.2v-1.9l.7-1 .6-1V121l-.6-.4v.6c0 .7-.7 2.3-1 2.4l-.1 2.7v2.7l-.7-.2v-2.2l.1-2.7.3-2v-1.5h-.8v.6c-.1.4-.3.8-.5.9h-.4l.2-2.1v-2.3l-.6-1.1.2 1.4.2 1.4-.5 1.5-.5 1.9v.5l.5-.9.4.7.5-.2.5-.2v1.4l-1-.3v1.6h-.6v-1.7l-.8.3-.1.8-.1.9h-.7l.3-3.9h-.6v1.3h-.9l.3-1 .5-2 .2-.8h-.7v1.9h-1l.1 1 .2 1-.9-.1-.8-.1-.1-1c0-.5-.2-1.1-.4-1.3l-.3-.3v1.3c0 .7 0 1.4-.2 1.5l-.2.2-.8-1-.5 2.7.3.3.3.3-.1 1-.1.9h-.9l-.1.9v1.2l.1.5.3-.2c.2-.1.3-.6.3-1v-.9l.7.7-.1.9-.1.9h-1c-.4 0-.9 0-1-.2l.6-4.4a30.2 30.2 0 0 0 .6-5.4l.3-.7h1l.1-1.1.3-1.1-.3-.6-.3-.5-.3 2.5h-1.3l-.1.8c0 .5-.2 1-.4 1.1l-.3.3v-3h-1l-.2-1.7v1.8h-1l.2-.5.1-.5-.3-.6-.3-.6v4.8l.3-1.7h.7l-.2 2.3-.2 2.3.5-2.5.5-2.4h.7L93 120l-.5 2.7-.1 1.4h.7v-2.6l.8.2v1.2l.2 1.2-.5.2-.5.2v1.8c0 2-.3 3.2-.7 3.2h-.3l.1-2v-1c0 .5-.4 1.3-.7 1.7l-.6.8-2.1-.6-.1-.5-.1-.5 1-1v-1.3h1l-.2.3-.2.3.2 1.2.2 1.2.3-1 .3-1-.2-.8c-.2-1-1.2-2.2-1.8-2.2H89l.2 1.2.2 1L88 127v1.5l-.5-.4-.5-.4-.5.6-.4.6-.8-.8 1-.8.5-4.4.6-1 .6-1v-2.4h-.7l.4 2.6h-1.3v1c0 1-.3 1.9-.7 1.9h-.3v-1.6h-.6v1.9h-.7v-2h-.7l.1 2.6.1 2.6-1-1 .1-1c.3-1 0-3.1-.5-3.1H82l.1 2 .2 2.1h-.7l-.2-1.2-.2-2.5v-1.4l-.2.1c-.2.1-.4.8-.5 1.4l-.2 1.2.3.4c.2.2.4 1 .4 1.7v1.4l-.3.1-.4.2v-2.6h-.7v1.2H79l.2-1 .1-.9-.9-.3-.2.5-.2.5.7 3.5-.3.2c-.3.2-.5-.2-.7-2.3l-.3-1.9-.2.3c0 .2-.5.5-.8.7-.4.1-.8.6-1 1l-.3.7-.6-.2v-.6c.1-.4.3-.7.5-.8.1 0 .3-.3.3-.5v-.4l-1 .3v-1.8l-.2.3-.3.9v.7h-.6l-.1-1-.1-.9 1.3-1-.2-.5c-.3-.8-.7-.7-.8.1l-.1.8-.8-.2-.4 1.7.4.3.3.4v1c0 .6-.1 1-.2 1-.2 0-.5-.3-.7-.8l-.4-.9v-4.6l.6-1.6h-.6V117l-.3-.2c-.2-.1-.3-.5-.3-.8s-.2-.7-.3-.8l-.4-.2v2.3l.8-.2.1.8v3.8l-.3 3h-.6v-3.1l-.4.5-.6.6c-.4 0-.3-1.2 0-1.4l.4-.2v-3.8h-.6v2.1l-.8.4h.8v.7c0 .3-.3 1-.6 1.4l-.5.8.5 1.4c.6 1.4.7 2.4.3 2.4-.1 0-.5-.8-.8-1.9l-.6-2 .2-.6.2-.6h-.4a.8.8 0 0 1-.7-.4l-.1-.4-.2 1.1-.5 1.5c-.2.1-.4.8-.5 1.5L65 126l.4-.2.4-.1.3-2 .3-2h.3c.3 0 .3.6-.1 3.2l-.4 2.3h-.9v1.7l1-.8.2.7c0 .4.1.7 0 .8 0 0-.5 0-1-.3l-.8-.4v-1c0-3 0-4.3-.3-5l-.3-.7-.2 1.9-.2 1.8.4 1 .4 1-.7.7-.6-1.5-.4 1.5-.3-.5a6 6 0 0 1-.6-2l-.2-1.5h.8v1c0 .5 0 1 .3 1l.2.3.2-1.6v-1.6h-.7v-.8c0-.5-.2-.9-.3-1l-.3-.2-.1 1-.1 1.1-.7-.3.1-.8.1-.7-.3.2c-.2.1-.4.5-.4.8 0 .8-.4 1-1.4.8l-.8-.2-.2-1.4-.1 1.5h-.7v-.7c0-.3-.1-.7-.3-.8l-.3-.2v1.7l-1 .3v2.5h-.6v-1c0-.6.1-1.2.3-1.4l.3-.3.2-2.6.1-2.7h-.2c-.4 0-1 2-.8 2.3v1.9l-.3 1.6h-2.2v1.4c0 2 0 2.2-.5 2.3l-.3.2v-2.9l.2-2.8-.7 2-1 .5-.2-.4-.3-.4-.4 1.6 1 1.9v-1.8h.3c.6 0 1 2.3.3 2.7l-.3.2v2.2H50v-1a8 8 0 0 0-1-3.4l-.4-.7.2-.7.2-.8-1-.4v2.4l.4.3c.3.3.5 1.6.4 3.3l-.1 1-.3-.2-.4-.2v-1a22.1 22.1 0 0 0 .1-2v-1h-.8l.2 1.4.2 1.4-.8-.2v-1.4l-.2-1.4.4-.3.3-.3v-1.3c0-.7.2-1.5.3-1.7l.3-.6-.2-1.9-.2-1.9-1 1.2.4.1.4.2v2l-1 .9.3 1.6.2 1.7-.7.4.3 1.3h-.7v3l-.6-.5v-2.8h-.3c-.4 0-1.2 1.3-1.4 2.3l-.1.7-.6-1.2.6-.9c.6-1 .7-2.4.2-2.7-.2 0-.3-.4-.3-.8v-.6h1.1l.9-1.5-.3-.7c-.2-.9-.7-.9-.8 0l-.1.8-.4-.1-.7.6-.4.7.2 1.5.2 1.5-.4 1.5c-.2.8-.6 1.5-.7 1.5h-.3l.2-1 .3-2.2v-1.1l-.8-.3.1.8.1.7-.6.2-.1-1.2c0-.7-.3-1.3-.4-1.5l-.3-.3-.2 1.9-.2 1.8-.6-.8c-.7-.8-.8-1.6-.3-2l.3-.4-.5-.2-.4-.2-.2.8a9 9 0 0 0 .3 3.8l.2.8h-.2c-.2 0-.6-.7-1-1.6-.3-.9-.7-1.7-.9-1.8l-.2-.2-.5.8-.4-.2-.4-.2v-2.7l-.3.5c-.1.3-.3 1-.3 1.6a13.5 13.5 0 0 1-.2 2.2l-.2 1-1.8-.4-.4 1.7.7.7v-1l.3.1c.2.1.3.6.3 1v.7l-.9-.2-.8-.3v-1l.2-2.7.3-1.5H31v2.6h-.3c-.4 0-.6-1.2-.7-2.8v-1.4h-.6l-.2 1.3-.2 1.2-1.3.4-1-1 1-4.5-.5.2-.5.2c-.1 0-.2.3-.2.7s-.1.9-.3 1l-.4.4.7.5v2.8h1v.7l.6-.4v1.4c.2.7.1 1.9 0 2.6l-.1 1.3-.8.2-.8.2-.8-.6v-1.9h.3c.1 0 .3.3.4.7v.7l.9.3v-.6c0-.3.1-.8.3-1l.4-.3-.7-.7-.7-.6-.5.1c-.4.2-.7 1.2-.8 2.3v.7l-.7.5.4-4.7-1.2.7-.2-.4-.1-.4-.6.9-.2-.3c-.1-.2 0-.9.1-1.6l.3-2v-.8l-.5 1.4c-.2.8-.5 2.8-.6 4.3s-.3 2.7-.4 2.5l-.4-.4h-.3v.6c0 .4-.2.8-.4.9l-.4.2.2-1.4c.1-.7.3-1.4.5-1.5l.3-.2.4-4.2-.3.5c-.2.3-.4 1.2-.5 2l-.2 1.5H19l-.2.5c0 .3-.3.5-.5.5h-.4l.2-1 .3-1-.8-1 .3-2.8h-.2c-.2 0-.4.7-.5 1.4L17 129l.3.6.4.7-.2 3.3-1.1-2.2v1.8l.2 1.9-.5.3v-1.6h-.7l.2 1.8.2 1.7-.9.3c-.9.4-1.4.4-1.4.2zm-4.7-6.2.2-.8-.7-.9.2-1.2a4 4 0 0 0 0-1.3l-.6-.2-.5-.2.4 2.4-.7-.4v1.3l1.1-.2v1.4L8 133l.3-.2c.2 0 .4-.6.5-1zm10-4.4v-1l-.2 1-.2 1.6v.7l.2-.7c.2-.3.3-1 .3-1.6zm7.7 1-.1-.3v1.6l.1-.4c.1-.2.1-.6 0-.8zm-.5-2v-.8l-.7.4v1.4l.1 1.3.3-.8.3-1.5zm63.7 1.4-.4-.3v.3c0 .2.1.4.3.5 0 .2.2.2.3 0l-.2-.5zm-57.4-.1-.2-.2v.8l.2-.2.2-.2zm-7.8-1.3.3-1H24v.7l-.2 1.4-.2.6.3-.3c.2-.2.4-.8.5-1.4zm9.2-.4v-1.6h-1V123l-.3.6c-.2.4-.3 1-.3 1.5v.8l.2-.4c0-.3.3-.4.4-.4h.3v2.6l.7-.4v-1.6zm53.6 1-.2-.2v.9l.2-.2.2-.2zm-41.5-.1.2-1.2.2-.8-.5.8c-.6.9-.7 1.6-.2 1.6.2 0 .3-.2.3-.4zm-1-.5-.3-.2v.9l.3-.3.2-.2zm-37.2 0 .2-.4-.4-.2-.3-.2v.5c0 .6.2.7.5.2zm107.7-.7v-.6l-1.1-.9.2.6.2 1.2v.7l.3-.2c.2-.1.4-.5.4-.8zm-104.2.3.2-.3-.4-.2-.3-.2v.5c0 .6.2.7.5.2zm77-.2c.2-.3.3-1 .3-1.4v-1l.3-.1c.2-.1.3-.5.3-.9v-.6l1 .3v-.2c0-.4-1.2-.7-1.4-.5l-.4 1.8c-.1.8-.3 1.6-.5 1.7-.4.2-.4 1.4 0 1.4.2 0 .4-.2.5-.5zm23.8 0 .2-.5-.4-.5-.3-.4.4-2.7-.7 1.2c-.7 1.4-.8 2-.4 3 .2.6 1 .6 1.2-.1zm-98.5-.3-.2-.3v.9l.2-.2.2-.2zm-8-.4-.2-.2v.9l.2-.2.2-.2zm3.6 0v-.4H8v1h1zm35.1-.1-.1-.4v.6c0 .3 0 .5.1.4v-.6zm1.2 0 .1-.6-.2.2c-.2 0-.3.4-.3.6 0 .7.2.6.4-.2zm-27.1-.2-.2-.2v.9l.2-.3.2-.2zm2.6-.8c0-.1 0-.2-.3-.2h-.3v1.7l.3-.6.3-1zm8.2.9.2-.5h-.3c-.2 0-.4.2-.4.5l.2.5.3-.5zm-11.8-.6-.1-.4v.6c0 .4 0 .6.1.4v-.6zm2.4.2v-.5l-.3.2-.4.5c0 .2.2.3.4.3s.3-.2.3-.5zm16.8-.5-.1-.4v.6c0 .3 0 .5.1.4v-.6zm39.9-.6h.6v1.5l.2-.7c0-.3.3-.8.5-1l.3-.4L79 124l1-1.2-.4-.5-.3.1-.3.2v-1a18 18 0 0 0-.6-4.6l-.3-1 .2 2.9.1 2.8-.4.3a2 2 0 0 1-.8.3h-.4v-.6c0-.3.1-.7.3-.9.3-.3.4-1.1.3-2.1v-.5l-2-.5v-2.6l-.2 1.6-.2 1.6.4.4.4.8v.3l1-1.2v1c-.1 1.3-.5 2.4-1 2.6l-.3.1.2-1 .2-1h-.7v.6l-.2 2.2v1.6l.6-1.6zm40.6.8c0-.2-.2-.4-.4-.4s-.3.2-.3.4.2.5.3.5.4-.2.4-.5zM8 124a.3.3 0 1 0-.7 0 .3.3 0 0 0 .7 0zm2.8-.5v-.5l-.3.2-.3.2.2.3c.3.4.4.3.4-.2zm38.4.3-.3-.3-.4-.3.2.4c.3.4.5.5.5.2zM6.1 123c-.2-.3-.5-.6-.7-.6l-.2.6v.7h1.3zm12.4.1-.2-.2v.9l.2-.3.2-.2zm5.9.2c0-.1 0-.3-.2-.3l-.3.3-.2.4h.3c.2 0 .4-.2.4-.4zm5.7 0c0-.1-.1-.3-.3-.3s-.3.2-.3.3.1.4.3.4.3-.2.3-.4zm23.7-.5c-.1 0-.3.1-.4.4l-.3.6.4-.4c.3-.2.4-.5.3-.6zm61.6.4-.2-.5h.7l-.2-.3c-.2-.5-.7-.4-.9.2-.2.5 0 1 .5 1h.3zm-76.2-1.3.5-1.4-.5-.4-.5-.4.1.8c0 .4 0 1.2-.3 1.7-.4 1-.4 1.1-.1 1.1.1 0 .5-.6.8-1.4zm20-1.7h-.5l-.2.2.6 3 .1-1.5v-1.7zm51.6 1V120l-.5 1a7 7 0 0 0-.4 1.9v.6l.9-1.2V121zm-69.4 1.6.4-1.2.2-1-.4.4-.3.4-1-.4v2h.5c.3 0 .6 0 .6-.2zm10-4.3.2-.3h-1v2.5l.1 2.5.3-2.2.4-2.5zm1.9.3c-.1-.2-.5-.2-.9-.2h-.7l.5.1.5.2v2.1l-.1 2.2.4-2.1.3-2.3zM14 121.9l-.1-.4v.6c0 .3 0 .5.1.4v-.6zm6.4 0-.1-.4v.6c0 .3 0 .5.1.4v-.6zm3.6-.1-.2-.2-.4.2-.3.2.2.3.2.4.7-.7zm7.3-.7-.1-.6v2.3l.1-.6V121zm3.1.7c.2-.5.2-1 0-1-.2-.3-.3-.1-.5 1l-.2.8h.2c.2 0 .4-.4.5-.8zm2.5 0v-1l-.4.5c-.4.6-.4 1.3 0 1.3h.4v-.9zm26.4-.3c-.1-.5-.3-.8-.4-.7s0 .5 0 1l.4.7v-1zm27.6.6v-.5l-.4.5-.2.5h.3c.2 0 .3-.2.3-.5zM54 121l.2-1.1-.5.9-.4.8.2.4c.2.4.3.3.5-1zm18.8.8c0-.3-.1-.5-.3-.5s-.3.2-.3.5.1.5.3.5.3-.2.3-.5zm-42.3-1-.2-.6v2l.2-.5v-1zm12.8-.2c0-.1 0-.2-.3-.2h-.3v1.7l.3-.6.3-1zm42 .4v-.6h1l-.2-.4a.8.8 0 0 0-.6-.3H85l-.1.6-.4 1.1-.3.6 1-.3zm13.1-1.4-.1-2.4c-.4-.4-.5.3-.3 2.5 0 1.2.2 2.2.3 2.1l.1-2.2zM26 121v-.5l-.3.2-.4.5c0 .2.2.3.4.3s.3-.2.3-.5zm34.5-1v-.7h-.8l.1 1.1.2 1.2.3-.4.2-1.2zm5.2.9v-.7l-.7.4-.7.4.4.2c.7.5 1 .4 1-.3zm50.4-.9v-.5l-.6 1 .5 1.2.1-.6a2.9 2.9 0 0 0 0-1zm-64.3-.3-.1-.6v2.3l.1-.6v-1.1zm30.9 1.3.2-1.9V117l-.3.7-.5 2.1-.2 1.5h.4c.2 0 .3 0 .4-.2zm-70-.6-.2-.3v.9l.3-.2.2-.2zm49.3-.2-.1-.4v.6c0 .3 0 .5.1.4v-.6zm12.5.4.1-.3-.3-.2-.3-.2v.5c0 .6.2.6.5.2zm9.7-2v-1l-.3.7-.3 1.8v1l.3-.7a4 4 0 0 0 .3-1.7zm6.2 1V118l-.1-.5-.3.1-.3.2v3.2h.5l.2-1.2zm12-1.4-.2-.5-.7.6c-.8.8-.8 1-.2 1h.5v1.8l.4-1.2.3-1.3zm-96.7 1.2-.1-.6v2l.1-.5v-1zm11.4.2-.4-.4v1.5l.8-.8zm15.6-.5c0-.8 0-1.5-.1-1.4l-.3 1.5-.2 1.4h.6zm3.5 1.2-.1-.4-.4.4-.1.3h.3c.2 0 .3-.2.3-.3zm1.7-1c0-.3-.3-.6-.5-.6h-.3l.2.5.2 1v.5l.6-.6zm7.5.6-.2-.4v.6c0 .3 0 .5.2.4v-.6zm3.6-.1c0-.3-.1-.5-.3-.5h-.3v1.3l.3-.2c.2 0 .3-.4.3-.6zm1.3-1.5.5-2.8.2-1.6h-.7v3.4l-.6.2v1.3c-.1 1.6 0 2.2.2 1.3l.4-1.8zm6.7 1.9.2-1.1.2-.8h-.6l-.2 1.2v1h.2c.1 0 .2-.1.2-.3zm-37.2-.5-.2-.2v.9l.2-.3.2-.2zm22.5-1c0-.2-.1-.4-.3-.4-.3 0-.7 1.3-.4 1.7l.2.4.2-.6.3-1zm37.9.3c-.1-.1-.3 0-.4.3l-.3.4.2.4.2.3.2-.6c.1-.4.1-.7 0-.8zm-54.6.4-.3-.2v.8l.3-.2.2-.2zm48-1.3v-.7h.5c.3 0 .5-.2.5-.3v-.4l-1.4.3v1.5l-.1 1.6.2-.6c.2-.4.3-1 .3-1.4zm8.2-.2.1-1.2h-.3c-.1 0-.3.2-.3.5s-.2.6-.4.7l-.5.3.3 1 .4.9.2-.5c.2-.3.4-1 .5-1.7zm7.1 1.5-.2-.2v.8l.2-.2.2-.2zm8.4 0c0-.2-.1-.4-.3-.4s-.3.2-.3.5.2.4.3.4.3-.2.3-.4zM66.5 118l-.1-.7v2.6l.1-.6V118zm8.3 1-.1-.4v.6c0 .3 0 .5.1.4v-.6zm-55.5-.3c0-.1-.2-.3-.4-.3s-.3.3-.3.5v.5l.3-.2c.2 0 .4-.3.4-.5zm14.9-.3-.2-.4v1.6l.2-.4v-.8zm1.4-1.1v-1l-.3-.3-.3-.2v3.7l.3-.6c.1-.4.3-1 .3-1.6zm4.5 1.3c0-.3-.2-.5-.4-.5h-.3v1.3l.3-.2c.2 0 .4-.4.4-.6zm24.1.5.2-.3h-.3c-.2 0-.4.1-.4.3l.2.3.3-.3zm41-.7-.1-.4v1.6l.1-.4c.1-.3.1-.6 0-.8zM4.1 115.3h-.4l-.2.2.3 1.9.3 1.8v-3.9zm2.6 2.9c-.4-.3-.6.2-.4.6l.3.4.1-.4v-.6zm1.7.6c0-.2-.2-.4-.3-.4s-.3.2-.3.4.1.3.3.3.3-.2.3-.3zm11.8-.4v-.6l-.3.2c-.2 0-.3.4-.3.6 0 .3.1.5.3.5h.3zm24 0c0-.2-.2-.3-.4-.3-.5 0-.7.4-.3.8.2.2.7 0 .7-.5zm14.6-.1v-.8l-.2.2c-.3.2-.4 1.4 0 1.4l.2-.8zm40.4-.7-.2-.6v2.2l.2-.5v-1.1zm-73.2 0v-1l-.3.7c-.4.9-.4 1.1 0 1.1h.3zm23.3-.7.5-1.3-.3-.9-.3-1-.2 1.7c-.1.9-.3 2-.5 2.4l-.2.7.3-.2c.2 0 .5-.7.7-1.4zm11.6 0h.5v-1.5l.1-1.6-.6 1 .2.8.2 1h-.7v-.9c0-.4-.2-.8-.3-1l-.4-.1v2l.1 2 .4-1.6zm1.7.5c.2-1.7-.3-1.7-.6 0l-.2 1h.6zm9.7.5-.2-.2v.8l.2-.2.2-.2zm17-.7v-1.3h-.2c-.4 0-.6 1.2-.5 2 .1.3.3.5.5.5h.3zm20.2 1c0-.3-.1-.4-.3-.4s-.3.1-.3.3.1.3.3.3.3-.1.3-.3zm-93.1-.4v-.3l1 .4v-.6c0-.6-.2-.6-1-.1-.7.3-.9 1-.3 1 .2 0 .3-.2.3-.4zm6.6-.2-.2-.2v.8l.2-.2.2-.2zm57-1.3v-.8l-.6.4v2.4l.4-.7.3-1.3zm-53-1.1-.3-.8v3.6l.7-2.1zm16 1.8.4.1v-1l-.5.1a3 3 0 0 1-.8.2h-.3v1.5l.4-.6.4-.5.4.2zm3.3.2c0-.2-.2-.5-.4-.5s-.3.3-.3.5.2.5.3.5.4-.2.4-.5zm19-.2c.3 0 .6-.3.7-.5l.1-.4h-1.3v-1.7c0-.9 0-1.5-.2-1.4l-.3 2.5-.2 2.4.3-.4c.1-.2.5-.4.9-.5zm22-.3.1-1h-.5v1l.1 1 .3-1zm-67 .4c0-.2-.1-.4-.3-.4s-.3.2-.3.4.1.3.3.3.3-.2.3-.3zm2.3 0c0-.2-.2-.4-.3-.4s-.4.2-.4.4.2.3.4.3.3-.2.3-.3zm5.8-2-.2-.6-.4.5.3 2.5.2-1c.1-.5.2-1.1 0-1.5zm24.6.9.1-1-.8-.2v2.7l.3-.3c.2-.2.4-.7.4-1.2zm1.9.8c0-.3-.7-1-1-1-.2 0-.3.3-.3.7v.8l.7-.2c.3 0 .6-.2.6-.3zm-43.6-.3-.2-.2v.9l.2-.3.2-.2zm7.4.3c0-.2-.1-.4-.3-.5l-.3-.2v.5c0 .2.1.5.3.5s.3-.2.3-.3zm12.4-.3-.2-.2v.9l.2-.3.2-.2zm13 .2c.2-.1.2-.3.1-.3l-.3.3c-.1.1-.2.4 0 .4s.2-.2.3-.4zm23.6-.8-.1-1.2-.2.8c0 .4-.2 1-.4 1.2l-.3.4h1.2zm5-.5.4-1.3-1 .8.1 1.2c0 1.2 0 1.1.6-.7zm4.2-.8c0-1-.2-1.7-.3-1.7h-.2v4.2l.3-.4.3-.4-.1-1.7zm8.6 1.8-.2-.5v.6c0 .4 0 .6.2.5v-.6zm-73-.5c-.3-.4-.6.1-.3.6l.2.4.2-.4v-.6zm20.8.3-.2-.2v.8l.2-.2.3-.2zm26-.9.2-1.8.2-.5-.8-.3c-.7-.4-1.1-.3-1.1.2 0 .2.3.4.7.5l.6.2-.3 3.1h.6zm9.2.4-.1-.4v1.6l.1-.4c.1-.2.1-.6 0-.8zm-63 .4.2-.3h-.4c-.2 0-.3.1-.3.3l.1.3.4-.3zm20.6-1v-1.4l-.3.6a4.5 4.5 0 0 0-.3 1.4v.7h.6v-1.3zm71.2.8-.2-.2v.8l.2-.2.3-.2zm-90.4-.6c0-.3-.1-.5-.3-.5h-.3v1.3l.3-.2c.2 0 .3-.4.3-.6zm17.8.3-.2-.3v.9l.2-.2.2-.2zm18-.2v-.3l-.3.2c-.2.1-.3.3-.3.5v.3l.3-.2c.2 0 .3-.3.3-.5zm41 .2v-.5l-.3.2-.4.2.2.3c.3.4.5.4.5-.2zm-75.3-.4-.2-.2v.9l.2-.2.2-.2zm14.3 0c.3-.6 0-1-.5-.4-.3.6-.3 1 0 1 .2 0 .4-.3.5-.6zm18.8.4-.4-.3-.3-.2v.3c0 .2.2.4.3.4l.4-.2zm33.1-.4-.2-.2v.9l.2-.2.2-.2zm-39.8-.4.2-.6h-.6v.6l.1.7.3-.7zm61.6.1-.2-.2v.9l.2-.3.2-.2zm-56.9-.6v-.8h-.6v1.6h.6zm7 .1-.2-.4v.6c0 .4 0 .6.1.4.2 0 .2-.3 0-.6zm17.2-.6.2-1-.9-.7c-.8-.8-1.4-1-1.4-.5 0 .2.2.3.4.3h.5l-.2 1-.1 1h1v.6l-.2.6.2-.1.5-1.2zm2.7 0 .3-.4.4.4c.6.6 1 .5 1-.3v-.7l-1.7.3v-.3a.3.3 0 0 0-.3-.2h-.2v2.7l.1-.6c0-.4.3-.8.4-1zm3.5.3v-.3l-.3.2c-.2.1-.3.5-.3.8v.5l.3-.5c.2-.2.3-.6.3-.7zm12.7-.5c-.3-.3-.5.1-.3 1l.3.7v-1.6zm3.9 1-.2-.2v.8l.2-.2.2-.2zm-54-.1c0-.2-.1-.3-.3-.3s-.3.1-.3.3.1.3.3.3.3-.1.3-.3zm1.4-.5.1-.8-.3.1c-.2 0-.5.4-.5.8l-.1.7h.3c.2 0 .4-.4.5-.8zm7-.2c0-.2-.2-.3-.4-.3H40v1.5l.3-.5.3-.7zm1.2.2c0-.3-.1-.5-.3-.5h-.3v1.4l.3-.2c.2-.2.3-.5.3-.7zm3.4-.8v-1h-.8v2.7l.4-.4.5-.4zm8.6 1-.2-.1v.8l.2-.2.3-.2zm1.4-1v-.6h-.6v2.4l.3-.5c.2-.3.3-.8.3-1.2zm24.7 1v-.3l-.5.2c-.3 0-.5.3-.5.4v.3l.5-.2c.3 0 .5-.3.5-.4zm-77.1 0c0-.2-.2-.3-.4-.3h-.4l1.7-1.4.3.2c.2.1.4.4.4.7v.5h1v-.4c0-.2-.3-.5-.6-.8l-.4-.5.4-2-.5-.3-.7-.8-.1-.5-.4.9c-.2.4-.5.8-.7.8-.5 0-.3.9.2 1.1l.5.2.2-.8c0-.4.3-.8.4-.8h.3v1.6l-.7.3c-1 .4-1.8 1.2-1.8 2v.6H3zm20.9-3V108l-.2.3c-.2.3-.4 3-.3 5 0 2.3.4 1 .5-2.1zm6 1.6v-.6l-.7.4v2l.3-.6c.2-.3.3-.9.3-1.2zm8.3 1.6-.4-.4-.3-.2v.4l.3.3.4-.1zm5.7-.8v-.9l-.3.5c-.4.6-.4 1.3 0 1.3h.3zm25.1.4.2-1.8V111l-.3-.2-.3-.2.3-1 .3-1-.4.2-.4.2v2.7c0 2.7.2 3.4.6 2.3zm9-.1.1-.7-.6-.3v.8c0 1 .2 1 .4.2zm-64.2 0c0-.2-.1-.4-.3-.4s-.3.2-.3.4.1.3.3.3.3-.2.3-.3zm6.7-.8c0-.1 0-.2-.3-.2H20v1.4l.3-.4.3-.8zm10.2 0-.2-.4v1.6l.2-.4v-.8zm17.4.3v-.8h-.6v1.6h.6zm-23-.3v-1l-.1-1.8v-1.6l-.6.4v4.8h.6v-.8zM7 112v-1.3l-.6-.7v1a7 7 0 0 1-.2 1.8l-.2 1 .9-.4zm28 .6v-.4 1.6-.4c.2-.2.2-.6 0-.8zm17.5.7c0-.2-.1-.3-.2-.3l-.3.3-.2.3h.3a.3.3 0 0 0 .4-.3zm-44.3-1.5-.1-.6-.5 1.2.5 1 .1-.5a2.9 2.9 0 0 0 0-1.1zm7.7.9.2-.4-.5.1a1 1 0 0 0-.5.6l-.2.4.5-.1a1 1 0 0 0 .5-.6zm3.2 0-.2-.1v.8l.2-.2.2-.2zm21.4-.2v-.8l-.6.6.2.5c.3.8.5.6.4-.3zm1.8.3.2-1.1v-.7l1.3-.3-.2-1-.2-.9h.3c.2 0 .5.2.5.4l.2.4v-1.1h-.2a3 3 0 0 0-.8.2l-.5.2.3.6H43c-.3 0-.7 1-1.1 3l-.2.8h.3c.1 0 .3-.2.4-.5zm37.6-.2-.2-.4v.6c0 .3 0 .5.1.4.2 0 .2-.4 0-.6zm-66.6-.5-.2-.2v.9l.2-.2.2-.2zm14.4-1.2.3-1.4c-.4 0-.5.3-.8 1.9l-.2 1.4.2-.2c.2-.2.5-1 .7-1.7zm19.2 1-.2-.3v.6c0 .3 0 .5.2.4v-.6zm4 .3v-.5l-.4.2c-.1 0-.3.3-.3.5l.3.3c.1 0 .4-.3.4-.5zm5.7.3-.3-.3-.3-.2v.3c0 .2.1.4.3.4l.3-.2zm-30.5-.7-.2-.2v.9l.2-.3.2-.2zm7.5-.1v-.7l-.3.2c-.2.1-.4.4-.4.7 0 .2.2.5.4.5h.3zm38.7.3v-.3H71l.2.3c0 .2.4.4.6.4.3 0 .5-.2.5-.4zm3.5.1-.3-.9-.3-.6v1.8h.3c.2 0 .3-.2.3-.3zm1.8-.3-.2-.2v.9l.2-.3.2-.2zM39.1 110l-.3-.3v1l.2 1.2.3.2v-.9l.2-.8zm13.6.8.2-1h-.3c-.2 0-.4.4-.5.8l-.2.8.2.3c.3.5.3.4.6-.9zm14 .4v-.8l-.6.4.1.6c.3.9.4.8.4-.2zM32 111v-.8h-.7v1.6h.7zm4.8-.3v-.8l.5-.5c.3-.3.5-.5.4-.6l-.8-.2-.6-.1v2H36c-.5 0-.5.4 0 1 .5.4.9.1.9-.8zm22.3 0-.2-.6v1.9l.2-.4v-1zm1.6-.9v-2l-.2 1.5c0 .7-.2 1.5-.4 1.7-.4.4-.3.8.2.8h.5zm-34 1.4.2-.3h-.3c-.2 0-.4.1-.4.3l.2.3.3-.3zm3-.5v-.8l-.5-.2-.5-.2-.2.2-.2.3.8.3v1.2h.6zM49 110v-.7l-.2.3-.6 1.2-.2.7 1-.8zm5.7 1.2-.2-.2-.2.2-.3.2h.9zM38.2 110l-.4-.2h-.3v1.4l.3-.4.4-.8zm9.2.8c0-.6-.4-1.3-.6-1.3h-.3v1.6h.5c.2 0 .4-.2.4-.3zm2.5-.4-.2-.4v.6c0 .3 0 .5.2.4v-.6zm20.5.5-.2-.3-.3.3-.2.2h.9zm-48.6-1c-.5-.2-.7.1-.4.5l.2.4.3-.4.2-.4zm12.4-.2-.2-.4v1.6l.2-.4c.1-.2.1-.6 0-.8zm7.6 0c-.1-.5-.3-.9-.5-.9H41v.8c0 .8.3 1.2.7 1l.2-.2zm12.4.7-.2-.3-.3.3-.2.4h.3c.2 0 .4-.2.4-.4zm2.2-.3-.1-.3-.4.3-.2.3h.4c.1 0 .3-.1.3-.3zm-50.6-1.7v-1.6l-.6 1v-.4c0-.2-.2 0-.3.5l-.2.8.5.7.6.7v-1.7zm20.2 1.2-.1-.4-.3.4-.2.5h.3c.2 0 .3-.2.3-.5zm36.8.2c0-.2-.1-.3-.3-.3s-.3.1-.3.3.1.3.3.3.3-.1.3-.3zm14-.2-.2-.2v.8l.2-.2.2-.2zm-64-.5-.2-.4v.6c0 .3 0 .5.1.4.2-.1.2-.4 0-.6zm53.4 0-.2-.4v.6c0 .3 0 .5.2.4v-.6zm-27.5-.3-.2-.4v.6c0 .3 0 .5.2.4v-.6zm19 0v-.6H57v1.3h.7zm1.5 0-.2-.4v.6c0 .3 0 .5.1.4.2-.1.2-.4 0-.6zm12 .2v-.5l-.4.2c-.2 0-.3.3-.3.5 0 .1.1.3.3.3s.3-.3.3-.5zm-38.5-.7v-1l-.7 1.2.2.3c.4.6.5.4.5-.5zm2.8-.2.1-.9h-.3c-.2 0-.3.1-.3.3l-.3 1-.2.7 1-.3zm-23.6.4c0-.2-.1-.3-.3-.3-.2 0-.4.1-.5.3l-.2.3h.5c.3 0 .5-.1.5-.3zm7 .1-.3-.2-.2.2-.2.2h.9zm-3.1-.8v-.3l-.4.1a1 1 0 0 0-.5.5l-.2.4.5-.2c.3 0 .6-.3.6-.5zm4.8.2.6-.2v-1.2h-.4c-.5 0-1.5 1.1-1.5 1.6v.4l.4-.2a12.5 12.5 0 0 1 1-.4zm13.7-.1c0-.2-.2-.3-.5-.3-.5 0-.6.3-.2.7.2.2.7 0 .7-.4zm14.4.3c0-.2-.1-.3-.3-.3s-.3.1-.3.3.1.3.3.3.3-.1.3-.3zm1.3-.2-.1-.4-.3.4-.2.5h.3c.2 0 .3-.2.3-.5zm1.3.2c0-.2 0-.3-.2-.3l-.3.3-.2.3h.3c.2 0 .4-.1.4-.3zm-21.9-.7-.2-.4v.6c0 .3 0 .5.2.4v-.6zm-25.2-.3v-.8l1.3-1.5.5.4c.3.2.5.6.5 1v.4l.6-.6-.6-1.7h-.6c-.4 0-.8-.2-.9-.4-.4-.6-.7-.3-.9 1a32 32 0 0 1-.4 2.2l-.2.7h.7zm36.3 0-.4-.4-.8.5.6.3c.8.2 1 0 .6-.4zm3.4-.1c0-.3-.1-.5-.3-.5s-.3.2-.3.5.1.5.3.5.3-.3.3-.5zm1-1.3-.1-1.2-.5.9.3 2.1.3-.3.3-.2zm2.9 1.4c0-.1-.2-.3-.4-.3s-.3.2-.3.3l.3.4c.1 0 .4-.2.4-.4zm4.7-.3-.2-.5v.6c0 .4 0 .6.1.5v-.6zm-21-.1v-.5h-1.3v1h1.2zm25-.2.3-.7-.4-.4-.3.5a2 2 0 0 0-.3.8c0 .7.5.5.8-.2zm-36.6-.2c0-.2-.1-.4-.3-.4s-.3.2-.3.4.1.5.3.5.3-.2.3-.5zm3.2 0v-.5l-.5.1c-.3 0-.6.3-.7.5l-.1.4H23v-.5zm13.3-.3-.4-.5v.5c0 .2 0 .5.2.5h.3zm4.7-2.3-.3-.9v3.9l.3-1 .3-1-.3-1zm-16.6 1.5-.4-.4v1.5l.7-.8zm-16.3.2.2-.5H8c-.2 0-.3.2-.3.5v.5c.2 0 .3-.3.4-.5zm32.2-1-.3-.1h-.3v1.7l.3-.6.3-1zm1.8 1-.2-.3v.9l.2-.3.2-.2zm7 .2-.2-.2-.2.2-.2.3h.9zm3.4-.5.2-.8h-.6v.8c0 .4 0 .8.2.8l.2-.8zm-35.7-.8h-.7l-.4.3v1l.6-.5c.4-.4.6-.7.5-.8zm2.6.2c.2-.5.4-1 .3-1.1 0 0-.3.1-.5.5l-.4.7h-.6c-.3 0-.7.1-.8.3l-.1.3.4.1.7.2h.4l.6-1zm1.3.8-.2-.2-.3.2-.2.2h.9zm25-.5-.2-.4v.6c0 .4 0 .6.1.4v-.6zm7.6.2-.2-.2v.8l.2-.2.2-.2zm-24.2 0c0-.4-.7-1-1-1-.2 0-.3.2-.3.6v.6h.7l.6-.2zm4.8-1v-1h-.6v2.2h.6zm1.3.7v-.5l-.3.2c-.2.1-.4.3-.4.5s.2.3.4.3.3-.2.3-.5zm1.9-.7V103l-.3.7c-.2.3-.3.8-.3 1.2v.5h.6v-1.2zm6.5 1 .2-.4-.3-.2-.3-.2v.5c0 .6.2.7.4.2zm11-.1c0-.2 0-.3-.2-.3s-.3.1-.3.3.1.3.3.3.3-.1.3-.3zm-31.6-.3c0-.2-.1-.3-.3-.3-.2 0-.4.1-.5.3l-.2.3h.5c.3 0 .5-.1.5-.3zm-2-.6-.2-.2v.9l.2-.2.2-.2zm17.4-.4v-.6h-.7v1.6l.4-.2c.1 0 .3-.5.3-.8zm9.6.3c0-.2-.2-.3-.3-.3s-.4.2-.4.5v.5l.4-.2c.1 0 .3-.3.3-.5zm3.2.5-.4-.3-.4-.3.3.4c.2.4.5.5.5.2zM27 104c0-.1-.3-.3-.5-.3s-.5.2-.5.3.2.4.5.4.5-.2.5-.4zm19.7-.5-.2-.2v.8l.2-.2.2-.2zm-38.6 0c0-.3-.2-.5-.3-.6l-.4-.2-.3.2-.3.2.2.3c.2.4 1 .4 1 0zm15.3-.6c.4-1 .4-1.7 0-1.7h-.3v1.5l-.6.1c-.4.1-.7.4-.7.6v.3h1.3zm12.8.5c0-.2-.1-.3-.3-.3h-.3l.2.3c0 .2.2.3.3.3l.1-.3zm-31.4-1 .4-.8.7-.1c.4-.1.7-.3.8-.5l.1-.3-1.8-.8-1 .3-.8.4.2 1 .2 1.4v.4H4l.8-1zm25 .5-.3-.3v.9l.2-.2.2-.2zm-1.2-.2c0-.3-1-.7-1.2-.5-.3.3.2.9.7.9.2 0 .5-.2.5-.4zm-10.5-.5c.3-.8.3-1-.3-1h-.4v1.6h.2c.2 0 .4-.3.5-.6zm28.7.2-.1-.3-.4.3-.2.4h.4a.3.3 0 0 0 .3-.4zm-21.8-.8c0-.2-.1-.4-.3-.4h-.3v1.3l.3-.2c.2-.1.3-.4.3-.7zm6.4.2c0-.2-.1-.3-.3-.3s-.3.1-.3.3.1.3.3.3.3-.1.3-.3zm18.7 0h.4l-.6-.5c-.7-.5-1.2-.4-1.2.4v.5l.5-.2.9-.2zm-9.7-.5c0-.2-.1-.5-.3-.5s-.3.3-.3.5.1.5.3.5.3-.2.3-.5zm-32.7-.5-.2-.4v.6c0 .3 0 .5.1.4v-.6zm1.5.4c-.1-.2-.3-.4-.5-.4s-.3.2-.3.4.2.3.5.3h.5zm34.7-.7c0-.2-.2-.3-.5-.3s-.4.1-.4.3.2.3.4.3.5-.1.5-.3zm-21.2-.5-.2-.2v.8l.2-.2.2-.2zm11.6.2c0-.4-.4-.6-.7-.5l-.3.2.2.3c.3.4.8.4.8 0zM16 100l-.2-.2-.3.2-.2.2h.9zm2.5 0-.2-.2-.2.2-.2.2h.8zm22.2-.4-.1-.4-.4.4-.2.3h.4c.2 0 .3-.2.3-.3zm-9.3-.4c0-.1-.1-.3-.3-.3s-.3.2-.3.3.1.4.3.4.3-.2.3-.4zm12.8 0-.3-.4-.3-.2v.5c0 .2.1.5.3.5s.3-.2.3-.3zm1.6 0c0-.1-.1-.3-.3-.3s-.3.2-.3.3.1.4.3.4.3-.2.3-.4zm-27.5-1v-.6l-.4.1c-.2 0-.4.4-.5.7v.5h1zm18.6 0c0-.1 0-.2-.2-.2l-.3.3-.2.3h.3c.2 0 .4-.1.4-.3zm-7.4-.2-.1-.4-.4.4-.2.3h.4c.2 0 .3-.2.3-.3zm-23-.6s0-.3-.3-.4l-.3-.4-.7.4c-.3.2-.6.5-.6.7v.3l.8-.2 1-.4zm18.1 0-.2-.2v.9l.2-.3.2-.2-.2-.2zm1.6-.1-.2-.5v.6c0 .4 0 .6.2.5v-.6zm7.7-.5-.2-.2-.2.2-.2.2h.8zm-23-.8a.3.3 0 0 0-.3-.3l-.3.3.3.4a.3.3 0 0 0 .4-.4zm19.9 0c0-.1-.1-.3-.3-.3s-.3.2-.3.3.1.4.3.4.3-.2.3-.4zm1.2-.2h-.6l-.4.2h.6c.3 0 .5 0 .4-.2zm-.3-1-.3-.2v.9l.3-.2.2-.2zm-24-.7c0-.1-.2-.4-.6-.6l-.6-.4v1l.5.1.7.2v-.3zm-1-3.2.2-.3-.4-.4-1.1 1h.5c.3 0 .6-.1.8-.3zM6 89.4 3.8 86v.8c.1.6.4 1.2.6 1.4.3.2.5.5.5.6v.3H3.3v.4l.5 1 .5.5.9-.7.9-.8zm6.5 0c0-.2-.2-.5-.4-.6l-.4-.2-.2.4c-.5.7-.4 1 .3 1h.7zm-3.2-.3L8.8 88l-.5-1-.1.6c-.2.6.4 1.8.8 1.8.2 0 .4 0 .4-.2zm-3-2.6c0-.2-.2-.5-.6-.9l-.6-.5v.6c0 .3 0 .7.2.8.3.3 1 .3 1 0zm2.5-.3-.2-.2v.9l.2-.3.2-.2zm-4.4-1.8-.3-.3-.4.4.5 1.1.6-1zm1.9 0-.6-.7c0-.2-.3-.7-.8-1.1l-.8-.8-.2.3-.2.2 1.4 1.4c.8.8 1.5 1.4 1.6 1.3 0-.1-.1-.4-.4-.6zm3.2.2-.2-.2v.9l.2-.3.2-.2-.2-.2zm10-.9V83H19v1.6h.6zm-1.8-.5c0-.1-.3-.3-.5-.3l-.3.3c0 .1.3.4.5.4h.5zm5.3-.8-.2-.6h-.3l-.4.6v.5h1zm-10.7-1-.6-.4-.2.3v.4l.3.3.5.2.6-.3zm-2.6-1.6-.5.1-.3.4.5 1.5.2-1c.2-.5.2-1 .1-1zm14 1c0-.2-.2-.4-.4-.4H23v1.3l.3-.2c.2-.1.4-.4.4-.7zm-6.1-1.3v-1.4l-.7.4v2.9l.7-.4zm-5.6.3a3 3 0 0 1-.2-.8c0-.1-.2-.2-.5-.2H11v.4c0 .4.6 1.2 1 1.2h.3zm-3.9 0 .2-.4-1-1-.2.3c-.3.9.6 1.8 1 1zm11-1.4c0-.1 0-.3-.2-.3s-.4.2-.4.3.2.4.4.4.3-.2.3-.4zm-13-.3-.4-.5-.3-.2v.5c0 .3.2.5.3.5s.4-.1.4-.3zm2.6-.5c0-.5-.2-1-.3-1l-.6.1-.5.3.5.7c.3.4.7.7.8.7H9zm1.8.4-.4-.5-.5-.4v1h.5l.4-.1zm7.2-.5.2-.3-.6-.4v.5c0 .6.1.6.4.2zm-6.5-.3c0-.2-.2-.4-.4-.4h-.3l.2.4.3.3.2-.3zm11.2-1.7c.3-.6.5-1.1.4-1.2-.2-.2-1 .7-1 1.1 0 .2-.4.6-.9 1l-.8.5.4.6.7-.4c.4-.3 1-1 1.2-1.6zm-9.8 0c-.3-.3-.8-.6-1-.6h-.5l.6.7c.3.3.8.6 1 .6h.5zm6.6-1v-.6l-.3.2c-.4.2-.7 1.7-.4 2 .2.2.6-.8.7-1.6zm-10 .6v-.5l-.5-.3c-.4-.2-.7-.2-.8-.1-.3.2.5 1.4 1 1.4h.4zm16-.6c-.1-.2-.5-.4-.8-.5h-.7v1l.8-.1.8-.2zm-12.1-.8-.5-.9-.4-.6v.7c0 .3 0 .7.2.8.2.3.7.3.7 0zM7.9 73l.2-.3-.7-.4v.5c0 .6.2.7.5.2zm12.2-1.2.5-.8-.2-.2-.2-.2-.6.7a3 3 0 0 0-.6 1c0 .6.5.4 1-.5zm1.4-.1v-.3l-.3.2c-.2 0-.3.3-.3.5v.3l.3-.2c.2-.1.3-.3.3-.5zm-14-1.2-1.1-1-.5.1c-.3.1-.4.3-.3.3l1.3 1.2 1.3 1 .1-.3c0-.2-.3-.8-.9-1.3zm4-.4-.4-1v.5l-.2.5.4.5.5.5-.3-1zm10-.8.7-1.3-1 .5a6 6 0 0 1-1.8.8l-1 .2v-1.3h-.7v2l2.5-.3.2.2.3.3.8-1.1zm6.7 0-.1-.6-2.3-.2-.5-.5c-.7-.7-1-.4-.8.5l.3.7h1.7l.6.4 1 .5h.2zm-20-.4c-.1-.4-.6-1-1.1-1.5l-1-1v.4c0 .5 1.8 2.6 2.2 2.7l-.1-.6zm7 0c0-.2-.3-.5-.6-.7l-.4-.4v.5c0 .2 0 .5.2.6.3.3.7.3.7 0zm-6-1-.2-.1v.8l.5-.4zm11.4-1.3v-.4l-.4.2-.3.6v.3l.3-.2.4-.5zm-8.7-.3c0-.2-.1-.4-.3-.5l-.3-.2v.5c0 .3.1.5.3.5s.3-.1.3-.3zm8.1-1 1-.3-.7-.7-1.2.8c-1.2 1-1.5 1.4-.5.9l1.4-.7zm2-.2c.2-.7-.1-1-.5-.4s-.4 1 0 1c.1 0 .4-.3.5-.6zm-6.7-.8c-.3-.4-1.1-.4-1.1 0s.7.7 1 .5l.2-.2zm-2.7-.3c0-.1-.2-.3-.4-.3s-.3.2-.3.3l.3.4c.1 0 .4-.2.4-.4zm13 0c0-.1 0-.3-.2-.3s-.4.2-.5.3l-.2.4h.5c.3 0 .5-.2.5-.4zm-12-1-.4-.2c-.2 0-.3.1-.3.3s.1.3.3.3.3-.1.3-.3zm7.4-.3-.2-.3-.3.2c-.1.1-.3.3-.3.5v.3l1-.4zm-9.4-.2c0-.4-1.1-1.7-1.4-1.7h-.5l.2.8c0 .4.2.8.3 1v.4l.7-.1c.4-.1.7-.3.7-.4zm15.6-.6-.2-.2-.3.2c-.2.2-.4.5-.4.8v.5l1.1-1zm-11.6-.3-.2-.2v.8l.5-.4zm-8-.3-.2-.3v.9l.5-.4zm17.6-1-.2-.8.4-.4.3-.5.6.3-.3 1 .7.4-.1-1.5-.2-1.5 1.2-1 .3.4c.2.2.3.6.2.8l-.1.4.7.3-.8 1.7h1.3l.2-1.3c.1-.7.3-1.4.5-1.5l.3-.2.6.6.6.5.6-.2c.4 0 .9-.5 1.2-.8l.6-.6-.4-.5v.8h-2.2l-.4-.5-.4-.5-1.5.4v-1l-1-.3-.6.3a7 7 0 0 1-2.2.4h-1.5l-.2 1.2h2.3v.3l-2 1.2-1.7 1-.5 1.3h1.2l.2-.4.1-.4 1 .7 1.1.7h.3zM8.9 60H8h.6c.4 0 .6 0 .4-.1zm-.8-1.8-.8-.7-.8-.5-.4 1.9.4.7.8-.6.8-.8zm2.6-1.3-.4-.3-.4.4.9 1.7.2-1.5zm6.2 1-.1-.4v.6c0 .3 0 .5.1.4V58zm1.3 0-.2-.4v.6c0 .3 0 .5.2.4V58zm2.6.2-.2-.3v.9l.4-.4zm1.4-1.5v-.3l-.4.2-.3.5v.4l.3-.2c.2-.2.4-.4.4-.6zm-12-2.2-.3-1.2-1-.3-.8-.2c0 .2 2.2 3 2.4 3l-.3-1.3zm2 .6-.2-.4v.6c0 .3 0 .5.1.4V55zm18.5-.5-.2-.2-.4.5h.8zm-1.2-.5a1.6 1.6 0 0 0-.2-.7L29 53l-2.6-.2-.8 1 .4.4.4-.3c.2-.3.7-.4 1-.4h.8l.4.4c.5.6 1 .7 1 .1zm-9-1-.2-.3v.6c0 .3 0 .5.1.4v-.6zm2.3-.4.8-.8-1.2.2-1 1.5h.3c.2 0 .7-.4 1.1-.9zm7.5.6.2-.4h-1l.2.4.3.3.3-.3zm-16.1-.5v-.5l-.7.4.2.3c.3.4.5.3.5-.2zm5.7-1.2c0-.4-.8-.3-1.2.1l-.4.8v.4l.8-.5c.5-.3.8-.6.8-.8zm-7.4-.3c-.2-.4-.4-.6-.5-.5-.3.3.2 1.2.6 1.2h.3zm3.1-.8.2-.8-.2-.2-.2-.2-.3.4c-.2.3-.3.8-.3 1v.6h.3c.2 0 .4-.3.5-.8zm6.6.2v-.3l-.7.2c-.3 0-.6.3-.6.4v.3l.6-.2c.4 0 .7-.3.7-.4zM27 50c0-.2-.1-.3-.3-.4l-.4-.1v1h.4c.2-.1.3-.3.3-.5zm-5.6-1 .2-.4-2-.4-.4-1 .7-1.5H19l-.4 2.5.2.4c.1.1.4.3.7.3h.5l-.3.4-.4.6v.2l1-.4c.6-.2 1-.6 1.1-.7zm2.2.2.2-.3h-2v.6h.8c.4 0 .9-.1 1-.3zm2 0c0-.1-.1-.3-.4-.4l-.5-.2-.3.6.4.1c.6.3.9.3.9 0zm-14.5-.8c-.1-.2-.5-.5-.8-.6l-.7-.1.2-2-1.8-2H6.8v-.2a.3.3 0 0 0-.3-.4h-.3l.3 1h-1l.5.8c.2.4.5 1 .5 1.3s.1.5.3.5c.3 0 .5-.7.4-1.7v-.6h.7l.4 1 .4 1.8v.8l.6.1a6 6 0 0 1 1 .5l.7.3h.3zm2.5-.7.2-1.2-.3-.3c-.2-.2-.3-.8-.3-1.3v-1l-2-.5-.7-1.2-.4.5-.3.6-.6-1c-.3-.7-.6-1.8-.7-2.7L8.3 38H8c-.1 0-.2.3-.2.7v.6h-1V39c0-.2 0-.3-.2-.2 0 .1 0 .7.3 1.3l.5 1.2.7.2.7.2-.2.7-.1.8.5.2 1.2.2h.8l-.3 1.2 1.2-.6.7.4v1.1c-.2 1.4.2 3.3.6 3.3.1 0 .3-.5.4-1.2zm-5.3-1c-.4-.3-.6.2-.4.6l.3.4.1-.4v-.6zm12.8.3c.2-.2 1-.5 2-.6s2.3-.4 2.8-.6l1-.4.7-1.6h1v-1l-1.6-.4-1.2.2c-.6.1-1 .3-1 .4l.7 1c.5.4.8.9.8 1v.4h-1v-1l-1.8-.3-2.6.7v.7c0 .5-.2.9-.3 1-.4.2-.5.8-.1.8l.6-.3zm2-1.7.2-.4h.6c.3 0 .5.1.6.3v.3l-1.5.2zM21.8 42l.5-1.4.3-.6h-.3c-.5 0-1 .5-1 1.3a9.1 9.1 0 0 1-.5 1.4l-.2.5 1-.4zm-2.3.3v-.7c-.4 0-1.4.7-1.4 1v.3h1.2zm-6.2 0c0-.2-.2-.4-.5-.5l-.5-.2v-1.2h-1V42l.8.3c1 .4 1.2.4 1.2 0zM34 42l-.1-.4-.4.4-.2.3h.4a.3.3 0 0 0 .3-.3zM9.5 38.2l-.4-.5-.3.2-.2.3.8.3v.9c0 .5 0 1 .2 1l.2.3.1-1 .1-1zm4.9 2-.2-.3v.9l.4-.4zm1.4.2c0-.2-.2-.4-.4-.4h-.3l.2.4.3.3.2-.3zm8.5-.3.2-.4-.6.2c-.2.1-.5.3-.5.5v.3l.4-.1a1 1 0 0 0 .5-.5zM19 38.6l.1-.6-.5.4c-.3.2-.5.6-.5.7v.3h.4c.2-.2.5-.5.5-.8zm-4.6-.2a30.3 30.3 0 0 1-1-1.6l-.6-1-.6.3v.9l.1.9 1.1 1.2H15zm3 .1-.3-.2v.9l.5-.4zm7.6 0-.2-.2v.9l.4-.4zm2-1.7v-.6h.5c.3 0 .5-.2.5-.3 0-.6-.5-.4-1.6.6l-1 1H27zm-9.4-.6 1.2-.4c.5-.2.9-.4.9-.6V35h-1.5l-.3-.7c-.1-.4-.4-.7-.6-.7H17l-.2 1c-.1.7-.3 1.5-.5 1.8l-.2.5.6-.2c.3 0 .7-.3 1-.4zm6.1-.3.2-.3h1.8l.2-.6.1-.6-1 .2-1.9.5-.9.1.5.5c.4.6.7.6 1 .2zM14.4 34l-.4-.5.4-.1c.5-.2.5-.7 0-.7-.3 0-.7-.3-.8-.5l-.3-.6-.4.6 1.7 3.5.3-1.1zm14.8 0v-.4l-.3.2c-.2.1-.3.3-.3.5s.1.3.3.3.3-.2.3-.5zm-10-.8c0-.3.2-.5.4-.5h.3l-.4-1.3H19c-.3 0-.6.2-.8.3l-.2.4.4.8c.5.8 1 1 1 .3zm2.9.2-.3-.2-.4.4h.9zm-9.9-1.1c0-1.3-.2-1.7-1.2-2l-.7-.2v1.3h.3c.2 0 .6.4.8 1s.6 1 .7 1l.1-1.1zm14.5 0 .6-1v-.2l-.6.2c-.7.3-2.3 1.4-2.3 1.7v.2l1.7-.3zm1.2.5c.6-.7.2-.9-.5-.1l-.5.6h.3c.2 0 .5-.2.7-.5zm4.7-.1c.3-.6 0-.7-.5-.2l-.4.5h.3l.6-.3zm-2.1-.7.6-.7-.3-.4c-.2-.1-.3-.5-.3-.7v-.4l1.3-.4v-.9l-1 .2c-.7.1-1.3.3-1.4.5l-.4.3 1 .6-.4.8c-.8 1.7-.3 2.3.9 1zm3.4-2 .4-1.2-.3-.7c-.6-1-.6-1-1.1-.4l-.5.5h.4c.3 0 .6.1.7.3l.2.3-.8.9c-.5.4-.8 1-.8 1.1s.3.3.6.3h.7zm-19.2-1 .4-.5-.2-.5c0-.2-.4-.4-.6-.4h-.5v1.9h-1v-2.6h-.6v.6l.2 1.6.2 1 1-.3.2.6.2.5.1-.8c0-.4.3-1 .6-1.2zm8.1 1c0-.3-.1-.6-.3-.7l-.3-.2v1.3h.3c.2 0 .3-.2.3-.4zm-2.9-.2-.1-.3-.4.3-.2.3h.4c.2 0 .3-.1.3-.3zm5-.3.2-.4-.4.1a1 1 0 0 0-.6.6l-.1.4.4-.1a1 1 0 0 0 .6-.6zm-5.7-.4 1-.7c0-.1 0-.4-.2-.7l-.2-.5h-.5a2 2 0 0 0-1 .6l-.6.5v.7c0 .5 0 .8.2.8l1.3-.7zm2.3-2.5v-1h-.3c-.3 0-.7 1.3-.4 1.7l.4.3h.3zm-3.3-.3.5-1-.2-.3-.2-.3-1 .4v1c0 .6.1 1.1.2 1.1l.7-1zm9-.4.7-.6v-.6c0-.4-.1-.7-.3-.8l-.3-.2-.8 1.2-.8 1.4c0 .5.8.3 1.5-.4zm-11.5-.2-.1-.5h-.3c-.2 0-.4.3-.4.6l-.1.5h1zm-4.1 0 .4-.3-1-1.4-.2.2c-.2.3-.2 1.8 0 1.7.2 0 .5 0 .8-.2zm13.1-1c0-.2-.1-.3-.3-.3s-.3.2-.3.5v.5l.3-.2.3-.5zm-11.2-.2c0-.5-.6-1-.8-.7-.3.3.1 1.2.5 1.2.2 0 .3-.2.3-.5zm6.7-.6V23h-.4c-.3 0-.6.1-.7.3l-.2.3h.7v.5c0 .3.1.5.3.5h.3zm2.3.4a3 3 0 0 0-.6-1.2l-.6-.8-.5 1.5.6.4c.7.6 1 .6 1 0zm7-.8-.3-.2v.8l.2-.2.2-.2zm2.4-.1.2-.3h-.8c-.8 0-1.3.4-1 .7.3.2 1.4 0 1.6-.4zm-5.6-.5c0-.3-.1-.5-.3-.5h-.3v1.4l.3-.2c.2-.2.3-.5.3-.7zM13 21l.3-1.8-.5-1-.3.8a3 3 0 0 1-.8 1.4l-.6.4h1l.3.5v1l-.2.5h.6l.3-1.8zm16.3.5c.4-.2 1.3-.9 2-1.6l1.1-1.3v-2.2h1v-.7l-.8.2a10.4 10.4 0 0 0-1.4.5l-.8.4-.9 1.8h1v.5c0 .2-.1.5-.3.5-.1 0-.4.3-.6.7l-.4.8-.8-.3-1.6 1.4.9-.2a13.6 13.6 0 0 0 1.6-.5zm-6.8-.6c0-.6-.2-1-.3-1.2l-.3-.1-.9 1 .4.2c.3 0 .4.3.4.5 0 .3.2.5.4.5h.3zm-2.9.1c0-.2-.1-.5-.3-.6l-.3-.2v1.3h.3c.2 0 .3-.2.3-.5zm6.9.2c0-.2.1-.4 0-.4l-.3.4c-.1.2-.2.3 0 .3s.2-.2.3-.3zm-2.2-1.4-.2-.4v.6c0 .3 0 .5.2.4v-.6zm4-.4c.3-.4.6-.8.6-1l-.8-.2-.7-.1v1c0 .6.1 1 .2 1s.5-.3.8-.7zm-4.5-1.2c0-.1-.3-.2-.7-.2h-.6v.4c0 .2 0 .5.2.6l.2.2.4-.3c.3-.2.5-.5.5-.7zm-1.9-1.6-.4-.4v1.6l.8-.8zm7.2.5-.2-.2-.2.2-.3.2h.9zm5.4-1-.2-.2-.4.5h.8zm-6.3-2v-.3l-.3.2c-.2 0-.3.5-.3.9v.7l.3-.5c.2-.3.3-.7.3-1zm1.8-.9s-.3 0-.5.2l-.4.3.5.8.3-.5c.2-.3.2-.7.1-.8zM23 11v-.6l-1.3-.2.4.4c.2.3.4.7.4 1v.7l.7-.7zm-.3-1.9-.2-.2-.2.2-.3.2h.9zm123.6 128.2v-.7l.5.4.5.4-.2.3-.5.2h-.3zm10.3-.1v-.5h1l-.2.3a1 1 0 0 1-.5.6h-.3zm-145.7-.3c0-.7.1-1.3.4-1.7l.3-.3v2.4h-.3a.4.4 0 0 1-.4-.4zm5.4-.1a1 1 0 0 1-.2-.7v-.4h1.3v-.8c0-.4.1-.8.3-1l.3-.1v2h.3c.4 0 .7-1 .7-2.5v-1.4l.5-.4v4.8l-.7.2c-.4.2-1 .2-1.2 0l-.5-.1-.6.6zm134.2-.3v-.5h.3c.2.2.4.3.4.5s-.2.4-.4.4l-.3.1zm4.5.2c0-.2 0-.4.2-.5l.3-.2.2.5.2.5h-.5c-.2 0-.4-.1-.4-.3zm-134.8-1v-.8l.8.8-.8.8zm122.8 0-.6-.6.2-.3c.3-.5.8-.4.8 0 0 .3.2.6.4.7l.4.1-.6.8zm4.3.4c0-.2-.3-.4-.6-.5l-.7-.1.3-1.1.3-1.3c0-.1-.3-.3-.7-.3h-.8l-.7-1v.7l-.6-.2-.7-.5-.2-.3-.2.5-.2.5.8.3.8.6c0 .2.3.5.8.7 1 .5 1 1 0 .9h-.7l-.7-.8-.7-.8-.3.2c-.2.1-.3.4-.3.7 0 .2-.2.4-.4.4h-.3v-1.5l-.9.3.3-1.2.3-1.7v-.5l-1 1.4-.6-.5-.7-1-.2-.5v3.7l-.7-.4v-1.9l-.7-.4.2-1.1.2-1.2-.4.8c-1.3 2.9-1.5 3.6-1.5 4.1v.7h-.7v-1.9l.7-.4v-2.3l-.3.6c-.2.3-.2.7-.2.9.2.3-.6 2.1-.8 2.1-.2 0-.5-.3-.8-.6l-.6-.6.2-1 .2-.8-.4.8-.5 1c-.2.2-.7-.9-.7-1.7v-1h-.3l-.4.6-.2.5-.7-.4.7-.7V125l-.3.3-.2.8v.5l-1.7-.2-.2 1.5c-.3 2.2-.3 2.3.6 3l.8.8v1.5l-.9-.6c-1.1-.7-1.4-1-1.3-1.9v-2.6h-1l.2 1.4.2 1.5-.3-.2c-.3-.1-.4-.5-.4-.8s-.2-.7-.3-.8l-.4-.2v1.6h-.5l-.2-1.7V126l.2-1.2h.3c.1 0 .2.2.2.5v.5l1-.4v.7c0 .3-.1.7-.3.8l-.3.2-.1-.4-.2-.4-.4 1 .1.6.2.5.6-.6c.4-.4.7-1 .8-1.6l.2-.9-.4-.5-.4-.5-.8.3v-1.4h-.2c-.4 0-.6.6-.9 2.4l-.2 1.5-.6-.4.4-2.6-.7.4v2.4l-.7 1 .2-3.2.1-3h-.6v1a27.6 27.6 0 0 1 0 1.6 41.7 41.7 0 0 0-.2 1.7v1h-1l.4-2.3-.4.3-.4.2v-2h.4c.2 0 .3 0 .2-.1h-.7l-.5.2v1.5l-.9.5-.1.8-.1.8.8.2V126l.2.2c.1.2.3 1.1.3 2.2v2l-.4-.3-.6-.1s-.2-.4-.2-.9v-.8l-1-.8.3-2.6.3-2.6h-.3c-.3 0-.3-1.6.1-1.8l.3-.2v-1.8l.6-.5c.3-.3.7-.5.9-.5l1.6.6 1.6.6c.2 0 .4.2.4.4s.3.3.5.3h.5v2.8l.3.2.3.2-.4-2.4.5.4.4.4.6-.5c.3-.3.6-.5.7-.4l.2 1.3.1 1.1.3-.1.2-1v-.8l.7.5-.2 1c-.1.7-.4 1.6-.7 2l-.5.7.1 1.5.1 1.6.3-1.7.5-1.7c.1 0 .4-.8.5-1.8l.2-1.7h.3c.2 0 .3.2.3.5v.5l1 .3v1.7l.2-.7.1-.6 1.6.7v2.5l.2-1 .1-1 2.7.1.2 1 .2 1 .4-1.2.6.4-.1.4-.2.5 1.1-.4-.2.8-.2.9h.3c.2 0 .3-.2.3-.5s.2-.5.3-.5c.4 0 2.6 2.6 2.6 3v.2l1.9-.4.6.7.6.6.7-.3v1.5l.7-.7c.3-.4.7-.7.8-.7s.1.4 0 1v1h.5l.5-.1-.3 1.4-.3 1.5.5.4.1-.4c0-.2.3-.4.4-.4h.3l-.2.8c0 .5-.3.8-.4.8a.3.3 0 0 1-.3-.2zm-5-5 .2-.8h-.3c-.3 0-.7 1.5-.4 1.7.2.2.2.2.5-.8zm-7.8-.5.2-1-.3-.4-.2-.4v.8a7.7 7.7 0 0 1-.3 1.6l-.2.8.4-.2c.2-.1.4-.7.4-1.2zm5.7-.5.4-.5h-.3c-.2 0-.4.2-.5.5v.5l.4-.5zM139 129c0-.2 0-.5.2-.8l.2-.6-.5.2-.4.1-.2.8-.2.9.4-.2c.3 0 .5-.3.5-.4zm-3.6-2v-2l-.3.7-.2.7.1 1.3.3 1.3.1-2zm1.4-.4-.2-.3-.5 2.2.4.6.5-2.2zm-4.3 1.2-.3-.4-.3.2c-.2 0-.3.3-.3.6v.4l1.3-.3zm1.9-.1-.2-.5v.6c0 .4 0 .6.2.5v-.7zm-2.3-3.4-.1-.6v2l.1-.5v-1zm-12.4-.5-.2-.4v.6c0 .3 0 .5.1.4.1 0 .2-.4 0-.6zm2.2-.1-.2-.3v.9l.2-.2.2-.2zm2.5-1 .1-.4h-.3c-.1 0-.3.2-.3.5l.1.4.4-.4zm-4.2-1.5.1-1.5-.2.2c-.3.4-.7 2.6-.4 2.8l.2.1.3-1.6zm1-.3-.1-.4v.6c0 .4 0 .5.1.4.1 0 .2-.3 0-.6zm2.6-.6-.1-.4v1.6l.1-.4c.1-.2.1-.6 0-.8zm-1.3-1-.1-.4v.6c0 .4 0 .5.1.4v-.6zm26 16.8c0-.2.3-.4.6-.5l.5-.2-.2.4a1 1 0 0 1-.5.5l-.3.1zm4.9-.6c0-.4-.3-1-.5-1.2-.5-.7-.7-1.8-.3-1.8 0 0 .8.3 1.5.8 1.4.7 1.6.8 2.1.8h.4v.8c0 .4-.2.9-.3 1l-.4.2-.3-1.5H154v1.4h-.6zm3.5 0c0-.3.3-.6.5-.7l.4-.1v1.3h-1zm-123-.7v-1.4l.1-.6.6.4v2.5h-.2c-.2 0-.4-.4-.5-.9zm1.8.2c0-.2.3-.4.5-.4s.5.2.6.4l.1.4h-1.4zm103.6 0v-.6h-.9v-1h.4c.3 0 .6.4.8.7l.4.7-.7.7zm-2.7-.6-.6-.6.4-1 .6.7c.7.6 1 1.6.4 1.6-.1 0-.5-.3-.8-.7zm14 0-.1-.3.4-1.6h-.8l.2-.3.3-.4.4.5.5.4.1 1.8-.4.2a.5.5 0 0 1-.5-.2zm-120.4-1.3v-1l.3.3c.2 0 .3.5.3 1v.7h-.6zm1.5.8c-.1 0-.1-.4 0-.8l.1-.6.9.7-.2.5c-.2.4-.5.5-.8.2zm9.2 0-.2-1v-.7h.3c.2 0 1 1.4 1 1.8 0 .2-.8.1-1-.1zm107.8-.2-.6-.4v-.7l.2-.7h-1v-1.3h.4c.2 0 .7.3 1 .6l.8.6.2 1.1.2 1.2h-.3l-.9-.4zm.5-1c-.5-.6-.7-.5-.5.2l.2.6.7-.4zm-120.3.6v-.5l.3.2c.2.1.3.3.3.5s-.1.3-.3.3-.3-.2-.3-.5zm-6.3-.3-.3-1c-.1-.5.1-1.4.5-1.4.2 0 .3.2.4.6l.2.5v-1.4h.7v2.3l-.5.4c-.6.6-.8.6-1 0zm16.2-.5v-1l.4.1.4.2.1.8.1.9h-1zm-2.9-.5v-1l.7-.4v2.6h-.7zm-33.1.5c.1-.2.3-.3.4-.3v.3c0 .2-.3.3-.4.3v-.3zm35 .1c-.2-.1-.3-.5-.3-.8v-.6h.7v.8c0 .9-.1 1-.5.6zm20.2-.5c0-.3 0-.7-.2-1l-.2-.5h1v2h-.3c-.2 0-.3-.3-.3-.5zm2 0-.5-.6.4-.4.4-.3.3.4c.7 1.1.1 1.8-.7.8zm35.4.2h.6c.1.1 0 .2-.4.2H95zm2.3-1.4v-1.6h.6v1l.2 1.5v.5l-.8.3v-1.7zm39 1c0-.4.2-.7.3-.8l.4-.2v1.6h-.7zm-80.7 0h-.5l-.1-.8c-.2-.8 0-1.5.4-1.5h.3v2.1l.9-1.6.2.6c.3.6 0 1.5-.4 1.5l-.8-.2zm6.2-.2c0-.3.3-.6.6-.7l.4-.2-.1.6c0 .3-.3.6-.6.7l-.4.2zm38-.4.1-.7H99v-1h1.6v1.3h.6v-1.3h.6v2.5H100zm6 .6-.2-.4 1-.3 1.7 1h-2.3l-.2-.3zm3.9-.5-.6-.8V129h.6l.4 1.3.4 1.3.7-.8-.4-.1c-.2-.1-.4-.4-.4-.6v-.5l.4.1c.2 0 .6.5.8 1 .2.5.6.9.8.9h.4l-.6.3-1.3.3h-.7l-.5-.8zm-76 0-.5-.5.2-.3.3-.4.6.6.6.8c0 .4-.9.3-1.3-.2zm79-.4c-.1-.5-.2-1-.1-1.3l.1-.4 1.2 1v1.6h-.8zm5.5.6-.2-.4h2.2l1-1.4.6.8h.5c.2-.1.5 0 .6.1l.1.4-1.2.3-2.3.4h-1zm-88.7-.7-.1-.6-.9 1v-2.6h.3c.2 0 .3.1.3.3s.2.3.5.3h.5v1.1c0 1.3-.3 1.5-.6.5zm22.7-.8v-1l.3-.3c.5-.3.6 0 .4 1.2l-.2 1.2h-.5zm1.2 0v-.8h1v.7l-.2.7-.8.3zm36.3.4.2-.9c0-.2.2-.3.3-.3.6 0 .4.9-.2 1.3l-.5.5.2-.6zm-38.8-1.2v-1h.3c.2 0 .3.3.3.5l.2 1 .2.5h-1zm23 .8a1 1 0 0 1-.3-.7v-.4h1v.6c0 .7-.4.9-.8.5zm21.8-.5v-.7l.4.2c.2 0 .4.3.5.6v.6h-1zm-35.2 0v-.3h1.6v.7h-1.6zm6-.1v-.5h1v1h-1zm62.1.1.4-.4.3-.2v.5c0 .2-.2.5-.3.5s-.4-.2-.4-.4zm-69.6-.5v-.6c.3-.3.8.2.8.7 0 .6-.6.6-.8 0zm13.3 0v-.5l.4.1c.2 0 .3.3.3.5s-.1.3-.3.4h-.4zM3.3 129c0-.2-.3-.6-.6-.9l-.5-.5-1.2.3v-.9l1.8-.8.5.8v-.5c0-.4.1-.6.3-.6h.2l.2 1c.2 1.2 0 2.5-.4 2.5-.2 0-.3-.2-.3-.4zm32.8.2c-.3-.3-.2-1.4.1-1.4.3 0 .7.8.7 1.3 0 .4-.5.4-.8.1zm22.2-.9v-1.1h.7v1.9l-.7.3zm58.8.6-.2-1.8v-1.2h.6v2h.7l-.1.6c0 .4-.3.8-.5.8l-.3.1zm-82.6-.4-.1-.7h.8l.3 1.3h-.8zm21.7-.7a20 20 0 0 1 .5-3l.4-.2h.3l-.2 1c0 .6-.3 1.6-.4 2.1 0 .6-.3 1.2-.5 1.3l-.3.2zm15.2 1v-.4l-1 .2-.2-.9v-.8h-.7l.4 1.6h-1v-1.8l.8-.9.7-.8.2 1.2.2 1.3 1.3.7v.4c0 .3-.2.5-.3.5l-.4-.3zm31 0a5 5 0 0 1-.1-2.9c.1-.2.3-.3.5-.3h.3l-.1 1.2-.2 1.2.2-.6c0-.3.3-.5.5-.5h.3l-.1 1-.1 1-1 .2zm-45.4-1v-1h.7v1.6c0 .2-.1.2-.3.3l-.4.1zm72 .4c0-.4.6-1.2.8-1 .3.3-.1 1.3-.5 1.3l-.3-.3zm-53.4-.5c0-.3.1-.5.3-.5s.3.2.3.5-.1.4-.3.4-.3-.2-.3-.4zm9-.4v-.5l.3.2c.2.1.3.3.3.5s-.1.3-.3.3-.3-.2-.3-.5zm14.9 0-.2-1.3c0-.5-.2-.8-.3-1l-.4-.1v2.3h-1v-2h.7v-.6l.2-.6s.5.2.8.6l.7.6.2 1.3.1 1.3h-.3c-.2 0-.4-.2-.5-.5zm1.4-.4v-1h.6v1.5c0 .1 0 .3-.3.3l-.3.2zm-48-.6V125h1.6v2.3l-.3-.3-.5-1-.1-.6v.9c0 .4-.2 1-.4 1l-.3.2zm43.2-.7v-2h1.6v1h-1v1.3l.2 1.4-.8.2zm-29.1.8v-.8h.6v1.6H67zm-6.6 0-.2-1.3v-.8h.7v.8c0 .4 0 1 .2 1.2l.2.6h-.4c-.1 0-.4-.3-.5-.6zm25.1-.7v-.8h.7v.7c0 .3-.2.7-.4.8l-.3.2zm-27 .3-.5-.2v-1.5h.3c.2 0 .3.2.3.4v.3l1-.8v.8c0 1-.2 1.2-1 1zm25.7-.6v-.8h.7v1.6h-.7zm90.6-.8v-.6h-.3c-.2 0-.4.1-.5.3-.4.6-.7.3-1-.6l-.1-1h-1.6v-1h1.5l.4.5c.2.3 1 .7 1.5 1l1.1.4-.2 1.4-.8.3zm-106-.6c0-.7.4-.9.8-.5.3.3 0 1.1-.4 1.1h-.3zm120.2-1c-.7-.3-1-1-.6-1 .7 0 2.7.8 2.7 1v.3h-.7a5 5 0 0 1-1.4-.3zM.9 122.6l-.2-.4.2-.2.2-.2.6.7-.6.4zm211.4-2.5h1l.4.2h-2l.6-.2zM.7 119.2l.3-.6.4-.2v1.3H1c-.1 0-.3-.2-.3-.5zm174.5.1.1-.3 1.6-.6c1.8-.6 2.7-.7 2.7-.3 0 .3-2 1-3.6 1.4l-1 .2zm9.3-.6c-.4-.1-.7-.4-.7-.6v-.3h.6c.4 0 1.1-.2 1.7-.5l1-.5 4.3.4.7-.4c.9-.4 1.2-.2.5.5l-.6.9-.2.4-.6-.4c-.3-.2-1.5-.4-2.5-.6l-2-.2-.5.8c-.3.5-.7.9-.8.9a6 6 0 0 1-1-.4zm-49.5-2a34 34 0 0 1 1.9-1.8c.2-.2 1-.5 1.9-.7l1.5-.3.3.4.2.4.4-.3c.2 0 1.5-.3 2.8-.3a33 33 0 0 0 4.4-.6l2-.5.6.7-.5.3a4 4 0 0 1-1.6.3c-.7 0-1.3 0-1.4.2s-1.2.3-2.4.3a15 15 0 0 0-3.1.4l-1 .4-3.2-.4-1.4 1.2a132.1 132.1 0 0 0-1.9 1.6c-.2.3-.5.4-.7.4h-.4zm-134.1.1-.2-.3.2-.3c0-.2.3-.3.5-.3h.3v1.3h-.3c-.2 0-.4-.2-.5-.4zm171.3-.8a74.8 74.8 0 0 0-5.6-2.7l-2.7-1.3-1.2.3c-.6.2-2.6.4-4.3.5l-3.1.2v-.2c0-.2.4-.5.9-.6l.8-.4-3.6-.5v-.5l3.9.4 3.7.5 1.2-.4 1.1-.3 3 1h1.5l1.8-.4.4-.3 1.7.4 3.5.5 1.8.2v.6l-2.5-.2c-1.4 0-3-.3-3.4-.5l-1-.1c-.3.3.6.8 1.8 1 .6.1 1.5.5 1.9.8a5 5 0 0 0 1.7.8c1 .2 1.3.8.4.8h-.4l-.2.8-.2.8h-.4l-2.5-1.2zm2.7-.4c.8 0-4.3-2.4-7-3.2l-.6-.2.3.4c.1.2 1.5 1 3.1 1.8l3 1.5.4-.2a2.8 2.8 0 0 1 .8-.1zm29.7 1c-.9-.2-.9-.6 0-.9l.6-.2.5.4c.3.2.5.5.5.6 0 .3-.3.3-1.6.1zm-23.4-.4v-.3h1.3v.6h-1.3zm-3.3-.5c-.3-.1-.5-.3-.5-.5v-.3l1.7.2.1.4.1.4h-.4a7.3 7.3 0 0 1-1-.3zm24.3 0c-.4-.4-.2-.8.4-.8h.7v1h-.4a1 1 0 0 1-.7-.2zm-2.5-.9c-.5-.2-.9-.4-.9-.6 0-.4.6-.6 1.4-.3l.8.4v.4c0 .6 0 .6-1.3.1zm27.4 0-.2-.6.4-.4.8.8-.8.7zm-33-.2c0-.2.2-.5.6-.7l.6-.3.5.2.6.2-.3.2c-.2.2-.7.4-1.2.5l-.9.2zm-64.7-.6-.5-.3.2-.3.2-.2.8.2c.5.2.9.4.9.6v.3h-.6a2.3 2.3 0 0 1-1-.3zm62.3-.1.4-.4.8.8h-1.6zm-56.2-.2-1.3-.1v-.6h1c.6 0 1.6 0 2.1.2l1 .2-.2.3-.7.2-1.9-.2zm43.5-.3v-.4h.8c1.2-.1 1.7-.1 7.6.3l.2.3v.4l-8.6-.2v-.4zm-56.2-.1c-.9-.2-1.8-.5-2-.7l-.4-.3.6-.6 1.2.3 2.6.7 1.4.3v.6h-1l-2.4-.3zm29.8-.2c-.3-.3.1-.7.8-.7.7 0 .8.4.1.7-.6.3-.6.3-.9 0zm-6.6-1-1.9-.5a16 16 0 0 0-2.6-.5c-2.2-.3-2.8-.5-2.5-.8.3-.3 5.1.5 6.2 1l1 .3 4-.1v.7h-1.4a27 27 0 0 1-2.8-.2zm5.1-.8v-.5h1v.3a1 1 0 0 1-.6.5l-.4.2zm66.8 0c.2-.2 1.5-1 3-1.7l2.5-1.2.2-.8c.1-.5.5-1.2.8-1.7l.7-1h1.5l.2.6.2 1v.4h-1v-1.7l-.6.7a4 4 0 0 0-.8 1.4 4 4 0 0 1-.9 1.5c-.7.8-4.8 3-5.6 3h-.5zm-18.8-.5c0-.8 1.4-3 2.1-3.4a35.3 35.3 0 0 0 1.8-1l1-.7 2.8-.2v.6l-2.9.5-.6.6c-.4.4-.9.7-1.1.7s-.9.4-1.3.8l-.8.9-.2.9c-.2 1-.8 1.2-.8.3zm17 .3c0-.2.1-.4.3-.5l.3-.2v.5c0 .3-.1.5-.3.5s-.3-.1-.3-.3zm-22-1v-.5c.3-.3.6 0 .5.6l-.2.4zm-64.3-1.6-.7-1.2-1-.2c-.5-.1-1.1-.4-1.3-.7l-.4-.4.2-.5c.1-.3.4-.6.7-.7l.5-.2.4.5-.4.1c-.5.2-.5.8.1.8.3 0 .8.2 1.1.6s.8.6 1 .6c.2 0 1.3 1.8 1.3 2.3 0 .2-.2.3-.4.3h-.4l-.7-1.3zm115.3 1c-.4-.3-.2-.7.3-.7h.4v.5c0 .5-.3.6-.7.3zm4.3 0c0-.2.2-.3.4-.3.3 0 .6 0 .7.3l.2.3h-1.3zm-20.6-.5-.2-.4-2.4-.2-.1-.5-.2-.4 1.4.2 2 .2 1.9-.1h1.5l-.1.5-2.5.2-.3.5c-.4.6-.8.6-1 0zm11.7 0a1 1 0 0 1 .5-.4l.4-.1v1h-1zm-2.3-.5v-.6h.3c.2 0 .3.2.3.4s-.1.6-.3.7l-.3.2zm-106.6-.1-.4-.5.2-.3.2-.2.4.4c.2.2.3.5.2.7l-.1.4zm111-.1-.3-.2.4-.4.3-.4-.5-.2-.5-.2.2-.3c.2-.4 1.3-.4 1.6 0l.2.3-.2.8-.2.8h-.4a1 1 0 0 1-.7-.2zm-1.7-.3-.9-.3h-.7l-.2-.8h.5c.2 0 .5.1.6.3l.2.3 1.3-.3v.5c0 .5-.4.7-.8.3zm-29.6-.9v-.4l.5-.2c.8-.3 1 0 .3.6-.6.6-.8.6-.8 0zm44.2-.3-2-.7v-.8l.6.1 2.5.7 2 .6-.3.4c-.2.3-.5.4-.6.4l-2.2-.7zm-80.2-.4c-3.4-.4-6.9-1-7.8-1.3l-.5-.1.7-.7 1.4.4 6 .9 4.6.5.1.4.2.4h-.6l-4.1-.5zm52.6.2.6-.8.6-.5h.9c1 0 2.7-.8 2.7-1.3v-.3l-1-.2c-.9-.2-1.1-.4-.7-.8l1.6.1 1.4.3.6-.4 2.6-1.8 2-1.2 1.4.1c.7 0 1.3.2 1.4.4l.7.6.5.4 1-.8c.8-.9 1.3-1 1.6-.3v.4l-.9.2-1 .2v.8l-1.3.5-.3-.4-.2-.4-1.3.8-.3-.2-.2-.3 1.5-1.2h-.4l-2 .5-1.7.4-.7.8-.7.9-.2-.4-.1-.4-.6.6a35.6 35.6 0 0 1-1.8 1.6l-1.2 1v.5c0 .3-.1.6-.3.7l-.3.2-1.6-1-.7.2c-.3.1-.6.3-.6.5s-.2.3-.5.3-.5-.1-.5-.3zm18.8 0-.2-.3.8-.5.8-.5.3.2.4.2-.8.6c-.8.7-1 .7-1.3.3zm4.3-.2v-.4h1v1h-1zm-14.2 0c-.4-.4-.3-.8.2-.8h.5v.5c0 .5-.4.6-.7.3zm-90.1-.6.4-.5 2.9-.2c3.5-.2 5.6-.2 7.4 0l1.4.2v.6h-3.3l-6.2.1-3 .2.4-.4zm47.8.1c-.1-.2-.2-.4-.1-.5.2-.2 2.2.3 2.2.6v.3h-2zm3 .1c0-.4.8-.7 2.2-.7h1.1l-.3.3c-.1.2-.9.4-1.6.5l-1.4.3zm-13-.4-.1-.3h1.3v.3c0 .2-.2.4-.5.4-.2 0-.5-.2-.6-.4zm16.5-.1v-.5l.7-.2c.8-.2 1 0 .8.7l-.2.5H201zm33.3-.2v-.6h.7v1.3h-.7zm11.2.5c0-.4 1.4-2.4 1.7-2.4.3 0 1.8-2.4 1.8-2.9l1.6-1.9 1.6-1.6h2.3v.3l-1.4.7-1.4.4-.7 1.2h.2l1.7-.5c1.5-.6 2.2-.6 2.2-.3 0 .4-2.8 1.4-3.8 1.4-.5 0-1 .1-1.2.3l-.5.2.2 2.4-1 .5c-.5.2-1.1.6-1.2.8-.4.6-2 1.7-2 1.4zm-33.7-.5c0-.2.3-.3.5-.3.1 0 .3.1.3.3s-.3.3-.5.3h-.5zm-118-.3-.6-.4.2-.3c0-.1.5-.3.9-.3h.8l.1.5c.3.8-.4 1-1.4.5zm2.1-.1-.6-.5.2-.2.2-.3 1 .3 1 .3.2.4.2.4h-.8c-.4 0-1-.2-1.4-.4zm21.5.1-.2-.3.6-.4v.5c0 .6-.2.7-.4.2zm7.2 0c0-.2.2-.3.4-.3s.5.1.5.3-.2.3-.5.3-.4-.1-.4-.3zm96.8-.2c-.1-.2-.1-.6 0-.8l.1-.5-1.2-.4-2.8-.5-1.5-.1-.7.4-1.5.6-1 .2v-.3c0-.2.2-.3.4-.3l1.4-.7 1-.7 3.3-.2.6.6.5.7h1.8l.2.3.2.3-.4.6-.3.7h1.8l-.5.3c-.7.4-1.2.4-1.4-.2zm22.4.3v-.8l.2-.6h.6c.7 0 .7.1.3 1-.4.6-.7.8-1 .4zm-157.4-.3-.2-.8v-.5l-3.2-1.7-1.8.4-.5-.6-.4-.5.4-.3c.3-.1 1.1-.3 1.8-.3h1.3l1 1.6.6-.2.4-.2 1.2.5c.6.3 1 .7 1 1v.3l-1.2-.4-.2.3c0 .1 0 .4.2.5.2 0 .3.4.3.6 0 .5-.4.6-.7.3zm25.2-.1c-.9-.2-2.6-.3-3.7-.3-1.2 0-2.6-.1-3.1-.3l-1-.2.2-.7.6.1 3.5.2 4.9.6 2 .3v.6h-1l-2.4-.3zm75.2 0c-.3-.3.3-.7 1.3-.7h1.1v1l-1.1-.1-1.3-.2zm22.3-.4v-1h.2c.6 0 .7.6.2 1.2l-.4.7v-1zm29 .3c.5-.6 1.3-.8 1.3-.2 0 .1 0 .3-.3.3-.1 0-.5 0-.8.2l-.6.2zm21.5 0v-.6h1l-.1.4a1 1 0 0 1-.5.5l-.4.1zm-75.5-.2c0-.2.2-.5.5-.7l.5-.4.2.2.2.2-.5.5c-.4.5-1 .6-1 .2zm19.4 0c-.3 0-.5-.2-.5-.4v-.3h1.6v.5c0 .5-.1.5-1 .3zm32.1-.2c0-.3.1-.5.3-.5s.3.1.3.3c0 .2-.1.4-.3.5l-.3.2zM90.4 104l-1-.3v-.8h1.5l1 1-.2.3-.2.2-1.1-.4zm45.7 0v-.5h1.3c.8 0 1.3 0 1.2.1l-1.3.5-1.2.3zm56.3.1v-.3h2v.7h-2zm5.8 0-.5-.3 1.3.2c1.6.3 1.8.5.6.4a3 3 0 0 1-1.4-.3zm28.8 0c0-.3.3-.8.7-1.2l.8-.7.6.1.6.2-1.4.4-.4.8c-.4.8-1 1-1 .3zm12.8-.1c0-.3.1-.5.3-.5s.3.2.3.5-.1.5-.3.5-.3-.3-.3-.5zm-170.6-.3c0-.3.1-.5.3-.5s.3.2.3.5-.1.4-.3.4-.3-.2-.3-.4zm6 .2-.9-.1v-1h1.8l.9-2.5h.6c.3 0 .9.1 1.2.3l.6.4v1l-1-.4-.4.2c-.2.1-.5.7-.8 1.3l-.4 1h-.4a96 96 0 0 1-1.2-.2zm25.7-.2v-.6l.7.1.7.1v.7h-.7l-.7.2zm106.2.2c0-.2.3-.5.5-.7l.5-.5.3.5c.5.7.4 1-.5 1h-.8zm-19.8-.4c.2-.4.6-.5.6-.1l-.3.4h-.4zm2 0-.1-.3.6-.4.4.2c.1.1.3.3.3.5 0 .4-.9.4-1.1 0zm-44.6-.6v-.7h1.3v1.3h-1.3zm55.3-.4-.2-1 .4-1-.5.2-.4.1-.2.8-.2.8-.3-.6-.2-.6.5-1 .5-1.1 1.4.3a5 5 0 0 1 1.6.5l.4 1.1.2.9h-.3l-.6-.8-.4-.8h-1.2l.2 1.3c.2.8.2 1.5.1 1.6-.3.6-.6.3-.8-.7zm58.2.7-.3-.4.9-.6.1.4c0 .2 0 .5-.2.6l-.3.3zm5.2 0c0-.2.9-.7 1.9-1.2l1.8-.8 2-.3c1.2-.2 2.2-.2 2.3-.1.4.3-.5.7-2.4 1l-3 .8-1.8.7-.8.2zm-144.8-.3-.1-.4v-.3h5.7l.4.7h-5.9zm22-.3.1-.5.7-.2h.8v.2c0 .2-.4.5-.9.7l-.8.4zm2.5.3c0-.2.2-.4.3-.4.2 0 .4.2.5.4l.2.3h-.5c-.3 0-.5-.2-.5-.3zm31.5 0c-.7 0-1.4-.2-1.5-.4l-.3-.3h1.9c2.3 0 4 .3 4 .7v.3h-1.4a53.7 53.7 0 0 1-2.7-.3zm20-.3-1-.5.6-.6 1.7.7v.5c0 .6-.2.6-1.4 0zm2.6.3v-.4h2v.7h-2zm-6.5-.3c-.3 0-.5-.2-.5-.4v-.3h.6c.3 0 .7.1.8.3l.2.3-.3.1h-.8zm2-.2c0-.3.2-.5.3-.5s.4.1.4.3c0 .2-.2.4-.4.5l-.3.2zm10.5.3c-.1-.1 0-.6.1-1.2l.4-.9.3.3 3.2.2h2.7l.5.5-.2.2a8 8 0 0 1-2.5.2h-2.2l-.3 1-.5-.7-.4-.6v1.2h-.5l-.6-.2zM69.8 102v-.5h-.7l-.7-.2-.1-.6-.1-.6 1 .1 1.1.2.2 2h-.3a.4.4 0 0 1-.4-.4zm63.7 0c0-.3.2-.5.3-.5s.4.2.4.5-.2.4-.4.4-.3-.2-.3-.4zm55.1-.1c0-.3.3-.6.5-.7l.4-.1v1.3h-1zm57 0c0-.2.1-.4.4-.5l.5-.2v-1h.6l.7.2v.6l-.5-.1-.5-.1.2.4.1.5-1.6.7zm27.1 0v-.4l1.2-.5a12.7 12.7 0 0 1 2.4-.7l1.2-.2v1l-.6-.3-1.8.8c-1 .5-2 .8-2.1.8s-.3-.2-.3-.4zm4.8.2v-.5l1.3-.6 1.3-.6.2.2.2.2-.6.7c-.3.3-1 .7-1.5.8l-.9.2zm-149-.3-.1-.3h1.3v.3c0 .2-.2.3-.5.3-.2 0-.5-.1-.6-.3zm67.7-.3c0-.2.3-.3.5-.3s.5 0 .5.3-.2.3-.5.3-.5-.2-.5-.3zm57.6-.4v-.6l.6-.3.7-.3.3.4c.2.3.4.7.3.9l-.1.4h-1.8zm-117.6-.1-.6-.5h1.8v.3c0 .6-.6.7-1.2.2zm44.8 0v-.3l1.7-.1a86.7 86.7 0 0 1 2.9-.2h1.4l.9 1h-7zm53.3.2.3-.7.3-.5.2.3.3.2-.2.5c-.2.5-.9.7-.9.2zm-41.6-.2.5-.5.5-.4v1h-1zm-73.2-1-.4-.4-.5.2-.4.1v-.7l1.5.2c1.7.2 2 .4 2 .8v.3h-1.9zm136.6 0c0-.3.3-1 .8-1.6l.8-1h.5c.5 0 .6-.6 0-.8l-.3-.1.2-.4.3-.4 1 1 4.2-.8.7-.7 1-.8h.5l-.2.7v.6c.5 0 1.4-.8 1.9-1.6l.5-1-2.7.3-.6.6-.6.5-.5-.4.7-1.1 1.4-.2-.1-.4-.2-.4-1.5.2-.5.6c-.3.4-.7.7-1 .7h-.4l-.4-1-.3-.8-.3.8-.4.8.5.4c.2.3.4.7.4 1v.4l-1-.2-1.2-.1.2-.4.4-.4v-1.8h-1.3a31.7 31.7 0 0 0-2.2 0 8 8 0 0 1-2.3-.5l-1.5-.5-5.3-.3-.7.5a25.8 25.8 0 0 1-11.7 1.2l-1.8-.2-.8.2-.9.2v.5c0 .4-.6.8-1.1.8-.1 0-.1-.4 0-.8v-.8h-1.7l-.4-.6h1.6v-.7h1.2l.2-.5.2-.4h.8c.5 0 1.2-.2 1.5-.4l.6-.3-.4-1h1.3l.2.6.2.6c0 .2-2.3 1.1-3 1.1h-.5v.6h2.2l1.2-.8a5 5 0 0 1 1.7-.8h.6v.4c0 .1.3.3.5.3h.5l-.4-1.3h.7c.3 0 .7-.1.8-.3l.2-.3h-.9a14 14 0 0 0-1.6 0h-.7v-1h.4c.4 0 1.8-1.3 1.8-1.7l-.6-.3-.7-.2v1.3l-1.6.6v1h-2.7l-.9.4c-.5.3-1.1.5-1.4.5h-.4l.4 1h-.7c-.3 0-.7.1-.8.3-.2.3-1.7.6-2 .4 0-.1.2-.5.6-.8l.7-.5-1.6.1-1.7.2v-1.5l-1.9.2c-1 .1-2 .3-2.4.5l-.5.2v-.7h-1v.7l.2.7-1.5.2.7-1.3-.8-1.3H217v-1l-5 .1c-5.1 0-8.4-.3-8.4-.7 0-.1.3-.3.8-.4l.8-.2 3 1 1-.3 8-.2h7.2v.6l-1.2.2h-5.1l.8.3c.4.1.7.4.7.6v.3l2 .3 2.2-1 .6.9v-1l1-.3a87 87 0 0 1 2-.4l1.1-.1.2-.6.1-.7h.5c.3 0 .5.2.5.4s-.1.3-.3.3-.3.1-.3.3v.3l2.7-.2V86l.2-.3-1.4-.7c-.8-.4-1.8-.7-2.1-.7h-.7l-.2.8-.2.8h-.5l-.8-.2-.2-.2.5-.6c.3-.3.5-.7.4-.8l-2.7-.7-2.5-.5-5.1.6-2.6-.5-.8-1v1.3l1.2.4 1.2.4h3.4c3.5.1 5.4.4 5.4.8 0 .2-.6.4-1.3.5l-1.3.2-.2-.3c-.3-.3-2-.7-2-.4 0 .1-.8.2-1.8.1h-1.9l-1.4-.5a8 8 0 0 0-2.3-.5h-1v.8l-.8.4c-.5.2-1 .4-1.4.4h-.5v-2h1.5V83l-3.2.4-2.6-1-10.6.3-.6.3c-.3.2-1 .3-1.4.3h-.8v-.6h.6l1.7-.5 1-.4h2.4a63 63 0 0 0 4.6-.2l2.3-.2 2-1 7-.8 3.7.3-.2.7-7 1.1-.2-.3-.1-.2-1.7.1c-1 .1-1.7.3-1.7.4 0 .4 1.3.8 3.4.9l2.8.1h.9l.3-.3.4-.3-2.5.3.6-.3c.4-.2 1.3-.3 2.1-.3h1.5l.3.7h2.4c1.3 0 3-.1 4-.3l1.6-.3-3.2-.5-4.4.4.2-.4c0-.1.4-.3.7-.3h.4v-1.3h.3c.2 0 .4.2.4.5v.4h3.2V80l-2.1.1.6-.4.6-.5h2.2l1.6-.8 1.5-.8.7.6c1 .7 2.3 1 3.7.6l1-.2v1.2h-2.3l.7.7 4.2-.4.8-1h-2l-.2-.2-.2-.3 1.3-.7a20 20 0 0 1 2.8-1.1l1.4-.5 3.3.6 1.8-.4c1-.1 3.1-.3 4.8-.3h3.1l.4.3c.6.5 3.5 1.1 3.9 1l.3-.3.5.7c.3.3.8.6 1 .6s.7-.3 1-.7l.6-.6 1.2.4-.6.3c-.3.2-.5.5-.5.7v.3l2.4-.2v-.9c0-.5 0-1 .2-1 0-.1 1.2-.3 2.6-.4l2.4-.2.4-.9 2.8.4.2-.3c.1-.2.5-.4.8-.4h.6l-.3 1 2.1-.4.3-.5c.3-.5 1-.5 1.2 0l.2.4 2.9-1.5 3.1.3.4-.6.4-.6h1.2l.2.6.2.6 1.8-.3.4 2 1.3-.4v.7c0 1 .5.8 1-.4l.3-1.1 3.3-.4.9.7 1.5-.8.5.5c.3.3.5.6.5.8v.3h1.5v.6l.2.7.6-.4c.4-.2.9-.5 1-.8l.4-.4 1.4.4.1.6.2.7 3-.4v1l1.9-1.1.2-1 .2-.8 2 .4.3-.5 1-.8.7-.4v1l2-.4.1.5.2.4 1.8-.2.4 1.4.7-.7c.8-.7 1.2-.9 1.2-.4 0 .1.3.3.7.4l.6.2.1-.4.1-.3 1.7.7.8-1 1.2.4.2-.6c0-.4.2-.6.4-.6l1 .6c1 .7 1.2.8 1.2.2v-.5h1l.2.8c0 .4.3.8.5.8s1-.6 2-1.3l1.8-1.3.5.4.5.4.3-.5.3-.6c0-.1 2.3-.2 5.1-.2h5.1v.2c0 .1-.3.5-.8.8l-.8.5-1-.2-1.2-.2-1.3.4.3.5.4.4h1.5v.4c0 .2-.3.4-.6.5l-.7.2.2.8.2.9-2.4.7c-1.3.4-2.4.9-2.4 1 0 .2.3.5.7.7l.7.4.3-.6c.5-.6 1.2-.7 1.2-.2v.4l.3-.2.4-.3-.2.5c0 .2-.5.6-.9.8l-.7.4.5.2.6.3.6-.4a6 6 0 0 1 1.9-.6l1.3-.2v1h-1.2l-.4 1-1.5-.1-2.2-.6-.6-.3-3.4 1.7-2-.4-1.8.7-.5-.3-.5-.4-3.6.4.4.2.3.2-.2.4-.3.4-1.5.3c-1 .2-2 .6-2.7.9l-1 .5v.4c0 .6.3.6.8.2.3-.3 3.4-1.5 5.7-2.2 1.7-.5 5-1 5.3-.8 0 0-.1.4-.5.7l-.6.7-2-.4-1.2.8a8 8 0 0 1-2 1.2 21 21 0 0 0-1.5.5l-.6.2.2-.7.2-.7-1.9 1v.9l-1 .2c-.6.1-1.4.5-1.9.8-.8.5-3 1.6-3.3 1.6l-1.7.7-1.5.7h-2.6c-2.3.2-6.3.8-8 1.3l-.8.3v-1h-2.6v1l-2 .3-.2.6-.3.6h-2l-.3-.7-.3-.6-3.3.4-.4.4c-.1.2-1.1.6-2.2 1a196.8 196.8 0 0 0-2.4.6c-.2.1-.5.5-.6.8-.2.8-.7.8-1 0v-.6h-.5a.9.9 0 0 1-.7-.4l-.2-.4 1.8.4.8-.5 1-.4.5.1.7-.6.7-.6-3-1.5-2.4.4v-1h.8c.5 0 1.4-.2 2-.5l1.2-.5 3.3.4.2-.5.2-.5-.3-.8c-.4-1-.9-1-1.1-.2-.2.4-.4.7-.6.7h-.3l.3-1.7-.5.2a3 3 0 0 1-.6.2v.5l.3.4-1 .2c-.4.2-1 .5-1.2.8l-.4.5-3.6-.2-.2.5-.2.5H274V92l-.6-.4-.7-.2-4.6 2.6-.2 1.4 1.7-.5c1-.2 1.9-.6 2.2-.9s.8-.5 1.2-.6l.7-.2v.4c0 .1-.5.5-1.1.8-.7.3-1.2.7-1.2.8 0 .5.6.5 1.6 0a69.3 69.3 0 0 1 2.2-1.1l1-.5 1 .2c.6 0 1.3.2 1.6.3l.4.1-1.4 1-.3-.2-.3-.2-1.1.7a5 5 0 0 1-1.7.6l-.9.3-1 .5-.7.2v-.9l-.8-.2c-1.2-.3-3-.2-4.4.3l-4.1.8-2.7.3-.8.8a18.7 18.7 0 0 1-2.8 2.4l-.1-.5zm18.5-5-.1-.2s-.2 0-.3.3l-.2.3h.3a.3.3 0 0 0 .3-.3zm16.2-1.5c-.1-.2-.4-.3-.7-.3-.2 0-.4 0-.4.3v.3h1.3zm-2-.3v-.3l-1.8-.4-1.8-.4-.6.2-.6.2-1.5-.5-2 .4.5.2c1.1.4 3.5.8 5.6.8h2.1zm2.7-1h.7v-.7l-1-.2c-.5 0-1-.3-1-.4-.2-.2-.6-.3-1-.3h-.8v1l-.7-.6c-.3-.4-.8-.7-1-.7h-.5v1.3h.4l2 .7 1.6.4.3-.2c.1-.2.6-.3 1-.3zm-23.8-.2.5-.6h3l.3-.8h-3l-1.2.6-1-1.3-.4.2-.5.2v.9l.6.1.7.2-.2.5-.2.5h.4l1-.5zm-30.5-.3v-.5h-.5c-.5 0-.6.4-.2.8.3.3.7.2.7-.3zm7.1-.5c.5 0 1.4-.2 1.9-.5l1-.4v-.4c0-.5-1.2-1.3-1.5-1l-.2.8v.6h-2.2l-.1.4-.2.4-1-1.3-.6.8-.7 1c0 .4 1.1.4 2 0 .4-.2 1.1-.4 1.6-.4zm-4.7.4c.3 0 .5-.2.5-.4V91l-.7.2a3 3 0 0 0-1 .5l-.4.4.6-.2c.3-.2.8-.2 1-.2zm24.4-.2c.4-.1.7-.3.7-.5v-.3h-.6c-.9 0-2 .5-2 1v.3l.6-.1 1.3-.4zm35 .3c.4-.1.6-.4.6-.6v-.5l-1 .4-1 .4.5.2c.5.3.4.3 1 0zm9.7-.8 1.3-.6 1-1.5-.4-.4-.6-.4-.7-.5-.4-.6V88h-2.3l.3-1h-.9l.4 1.1-.8-.2-1-.5c-.2-.2-.6-.3-.9-.3h-.5l-.4-1h1.1l-1.4-1.4-.5.2c-.3.1-.5.4-.5.6v.3l.7-.4.3.9.3 1c0 .2-2.4-.3-2.7-.6l-.9-.3h-.5l.3 1 1-.3.1.4.2.5h.6c.3 0 .6-.2.6-.4v-.3l.5.4c.3.2.5.6.5.9v.5l6.3-.5 1.3.4-.2.5-.1.5-1.6-.4-1 .5c-1.3.5-3.9 1-5.3 1h-1.1l-.7.8 7.3-.4zm-47.9 0 .1-.3h-.8c-.4 0-1 0-1.4.2l-.5.3 1 .2c1.1.2 1.4.2 1.6-.3zm35.8.4-.2-.2-.2.2-.2.3h.8zm-39.5-1.5 1.5-1.4-1.6-.4-2.4-.5-.7-.1.3 1 .6-.2.6-.2v.8l-1.2.6c-.7.4-1.3.7-1.3.9 0 .1 1.7.8 2.4.9.2 0 1-.6 1.8-1.4zM275 91a2 2 0 0 0-.8-.3h-.2l.2.3c0 .2.4.3.7.3h.5zm20.4 0v-.2l-1.2-.3a44.4 44.4 0 0 1-1.9-.3l-.7-.2v1l.6.1 1.9.2h1.3zm-21.7-1v-.7l.5-.4.5-.4h-2l-2.3-.2c-.1-.1-.8 0-1.4.2l-1.2.4-2.7-.2-.2.3-.2.3 1.8.2h2.2l.5-.2.4.4c.4.3 2.5.9 3.5 1h.6zm-1.5 0c0-.1-.5-.3-1-.3h-.7V89h.8c1 0 1.7.3 1.7.8s-.5.6-.8.2zm25.7.2v-.3h-1.2a4 4 0 0 1-1.7-.5 3 3 0 0 0-1.4-.4h-1v-1.5h-.5c-.6 0-1.1.7-1.1 1.4v.6l.3-.2c.2 0 1.6.2 3 .6 2.7.8 3.4.8 3.6.3zm-45.5-.5c0-.7-.3-.8-.7-.3l-.2.4-.9-.8-.8.4-.8.6v.4h3.4zm11.3.1-.3-.2v.9l.3-.2.2-.2zm11.5-.2.2-.6-.6.4c-.2.2-.5.5-.5.7v.3l.4-.1c.2 0 .5-.4.5-.7zm1.4.6-.3-.3-.3-.2-.2.3-.2.4h.5c.2 0 .5 0 .5-.2zm25 0a1.2 1.2 0 0 0-.8 0l-.4.1h1.6zm2.5-.1v-.4H302l.6.4c1 .3 1.5.3 1.5 0zm-55.4-.4c0-.1-.1-.3-.3-.3l-.5.3-.2.4h.5c.3 0 .5-.2.5-.4zm13.1 0-.6-.4c-.9-.2-2.6 0-2.6.5v.3h3.2zm44.5.2-.3-.3-.3-.2v.3c0 .2.1.4.3.4l.3-.2zm6.2-.3a4 4 0 0 0 1.3-.8l.2-.3h-.3c-.6 0-2.6 1-2.6 1.3 0 .3 0 .3 1.4-.2zm-31.3-.7.4-.6 4.5.4.4-.5-.7-.2-2.5-.2h-1.8l-.3.3-1 .5-.8.2v-1h1.5l-1.2-.7-.4.4a4 4 0 0 0-.6 1.3l-.2.8 2.2-.1.5-.6zm21 .2-.5-.5-.5-.1-.7.4-.6.5h1.1c.7 0 1.2-.2 1.2-.3zm-74.4 0 .2-.4.8.2.7.2v-.3c0-.2-.2-.3-.5-.3-.5 0-.6-.6 0-.8a8.1 8.1 0 0 0-3.8.1l-.6.3 3.1-.1.3.8h-1.4v.3c0 .4.9.4 1.2 0zm15.5 0v-.3h1.5l.3-.4.2-.3-.8-.5-1 .3c-1.5.6-2 1.5-.9 1.5h.7zm34.2-.1v-.5l-1.7.4.6.2c1 .4 1.1.4 1.1-.1zm11.9 0-.3-.2c-.2 0-.4.1-.5.3l-.2.3h.5c.2 0 .5-.1.5-.3zm-41.4-.6c0-.2-.3-.4-.5-.5l-.4-.1V89l.5-.2.5-.2zm-16 0c0-.1-.1-.3-.4-.3s-.5.2-.5.4.2.3.5.3.5-.2.5-.3zm56-.2-.2-.2v.9l.2-.2.2-.2zm10.1.2-.2-.3-.7.2-.8.2V87h-.4c-.7 0-.8.2-.7 1l.2.6h2.9zm-56.3-.3-.6-.3-.6.3-.2.4h1.6zm8.1-.4.4-.8h-.4c-.4 0-.9.6-.9 1.3 0 .5.6.2 1-.5zm2.5.4c.4-.6 0-.6-.7-.1l-.6.4h.6c.3 0 .6-.1.7-.3zm10.5-.4a5 5 0 0 0 1.5-.9c0-.1-.6 0-1.4.3l-1.3.4H260l-1.7-.2v.3c0 .3 1.3.8 2.2.8h.8l1.6-.7zm4.6.2-.2-.2v.9l.2-.3.2-.2zm-27.7 0c0-.3-.3-.4-.5-.4s-.5.1-.5.3.2.3.5.3.5-.1.5-.3zm38.4-.3c.2 0 .2-.3.1-.4l-.2-.3-.8.3a5 5 0 0 1-1.4.3h-.6v-1.1l-.3.5a2 2 0 0 0-.4.8v.4l1.7-.2c1 0 1.8-.2 2-.3zm34.2.2c0-.1-.2-.3-.5-.4l-.5-.2v1h.5c.3 0 .5-.2.5-.4zm-82.2-.3c0-.2-.1-.3-.2-.3l-.3.3-.2.3h.3c.2 0 .4-.1.4-.3zm4.8-.5c.5-.3.3-.7-.5-1l-.8-.1-.8.7c-.5.4-.8.8-.8 1v.1l1.3-.3 1.6-.4zm36.1.5c0-.2-.1-.3-.3-.3h-.4l.2.3c.1.2.3.3.4.3l.1-.3zm18.6-1V86l-.9.3-1.2.6-.3.2.8.2.8.2.4-.5.4-.7zm-36.2.4-.1-.4-.4.4-.2.3h.4a.3.3 0 0 0 .3-.3zm16.7-.4 1.6-.7 2.2.8.7-.5-.6-.6h-3.4l-1.9.8-.3-.4-.3-.5v1.4l-1.9-.3v.7h2.3l1.6-.7zm14.3.5h-.6l-.5.1h.7c.3 0 .5 0 .4-.1zm7-.1.6-.3-1-.2c-1-.2-1.3-.1-1 .4.3.4.4.4 1.3 0zm-44-.3c0-.2-.4-.4-.7-.5l-.6-.1v-1.4h-1.4l.2-.4.1-.4 2 .1-1-2-.2.5-.1.6-1.4.2v.7l-.2.9c-.2.1-.3.4-.3.5v.3l1-.4.5.6c.8.9 2 1.3 2 .8zm8 0c0-.2-.2-.4-.4-.4s-.3.2-.3.3.1.4.3.4.3-.2.3-.4zm5.4 0a2 2 0 0 0-.3-.7l-.3-.5-.2.2-.3.3.2.5c.2.5.9.7.9.2zm21.7-.4c-.4-.1-1.2-.2-1.6 0h-.9l-1.6-.3-1.7-.4-.3.3-.2.3h.8l3 .4h3.3zm13.5.2h.4l-1.1-1.1h-1.9v.7l-1-.8-.4.4 1 1.1h1.3a63.2 63.2 0 0 0 1.7-.3zm1.9-.2v-.6h-.6v1.2h.6zm13-.8c.2-.1-.8-2-1-2v.9l.2 1h-1l-.7-1.6-1.2.6v2l.5-.4.4-.4v1.3l1.4-.7 1.5-.7zm2.3 1 .4-.5v-.3h-.7c-.8 0-2.8.6-2.8 1 0 .2 2.6.1 3-.2zm7.5 0a4 4 0 0 0 1.4-.8l.2-.4-1.3.5c-1 .5-2 1.2-1.6 1.2l1.3-.5zM243 86l.4-.5-2.5.2-.1-.7c0-.4-.2-.7-.4-.7-.3 0-.6.8-.6 1.5v.6l2.8.1.4-.5zm1 .2.3-.3h-.4c-.1 0-.3.1-.3.3l.1.3.4-.3zm14.2-.4.3-.2h-1.1v1l.2-.3a4 4 0 0 1 .6-.5zm42.7-.2v-1h-.7v2h.7zm-14.7 0v-.8l-.8.7.3.4c.3.5.5.4.5-.4zm1.6 0c0-.2-.2-.4-.4-.4s-.3.3-.3.5v.5l.3-.2c.2 0 .4-.3.4-.4zm1.2 0c0-.2-.1-.4-.3-.4s-.3.3-.3.5v.5l.3-.2c.2 0 .3-.3.3-.4zm17.3.3c0-.2-.1-.3-.3-.3s-.3.1-.3.3.1.3.3.3.3-.1.3-.3zm-69.8-1.4.1-1.1.8.2 1.1-1.6-.1-.4-.2-.5h-1v1.3h-2.6v-.5l-2.3-.2.3.3c0 .2.4.4.6.4.3 0 .5 0 .5.2v.3h-5.5l.1-.5.1-.5h.6l1.8-.4c1.9-.2 1.5-.4-1-.4h-2.5l-.2.3-.2.3-.4-.2-.5-.2.2.5.2.5-1.2.3 3.5 1 2.6-.2a80 80 0 0 1 3 0h1.6v1l-4.7-.3 1.5 1.2 1.6-.3.7.4c.4.3.9.4 1 .4l.4-.1.1-1.2zm12 1c0-.1-.4-.3-.8-.3h-.6l.2.4c0 .1.5.3.8.3h.7zm56.9-.4v-.5l-.4.2c-.1 0-.3.3-.3.5l.3.3c.1 0 .4-.3.4-.5zm-66 0-.3-.3-.3-.2v.3c0 .2.1.4.3.4l.3-.2zm3-.5c0-.2-.3-.3-.6-.3-.5 0-.6.4-.2.7.2.3.7 0 .7-.4zm23.3-.4c0-.1-.3-.2-.7-.2-.7 0-.8.1-.2.7l.4.5.2-.4.3-.6zm3.4.7h2v-.4l-5.1-.2v1l.5-.2 2.6-.2zm16.4-.1.4-.5-1 .4-.7-1.4-.3.2c-.5.3-.4.8.2.8h.5v.5c0 .6.4.6 1 0zm28.2.1c0-.1-.2-.3-.4-.3h-.3l.2.3.3.4.2-.4zm1.1 0 .2-.3h-.3c-.2 0-.4.2-.5.3l-.2.4h.3c.2 0 .4-.2.5-.4zm-62.7-.3.2-.3h-.4c-.1 0-.3.1-.3.3l.1.3.4-.3zm23 .1-.1-.2-.3.2-.2.2h.9zm6-.6v-.8h-.7v.6c0 .5.3 1 .5 1l.1-.8zm1.9 0v-.4l-.7.2c-.6.1-.8.4-.4.8.3.3 1-.1 1-.6zm4.2.3.2-.5-.3.2c-.2.1-.3.4-.3.5 0 .5.2.4.4-.2zm9.2.2c0-.2-.1-.3-.3-.3s-.3.1-.3.3.1.3.3.3.3-.1.3-.3zm1.3 0c0-.2-.2-.3-.4-.3h-.3l.2.3.3.3c.1 0 .2-.1.2-.3zm1.6-1.3V82l-.7.4V85l.7-.4zm19.5 1.3v-.3h1.3V84c0-.4-.1-.4-1.1 0-.8.4-1.1 1-.5 1a.3.3 0 0 0 .3-.4zm-109.3-.3V84l-.3.3v.3l.3-.3zm48.8-.3c0-.2-.1-.3-.3-.3s-.3.2-.3.4v.5l.3-.1.3-.5zm5.4 0-.3-.1v.8l.3-.2.2-.2zm8.7.1c0-.2-.1-.4-.3-.4s-.3.2-.3.4.1.5.3.5.3-.2.3-.5zm31.6-.7-.2-.5v1.9l.2-.4v-1zm-29.8.4-.2-.3v.9l.2-.2.2-.2zm18.2-.2c.3-1 0-1-.4-.1l-.4.8h.3c.2 0 .4-.3.5-.7zm2.6-.4V82h-.5v2.2h.5zm7.2.8c0-.2-.1-.3-.2-.3 0 0-.2 0-.3.3l-.2.3h.3c.2 0 .4-.2.4-.3zm-62.8-.3v-.4h-1l.4.4c.6.3.6.3.6 0zm11.1 0 .3.2 1.6-.7-3-.5-.7.3-.6.6v.3l2.2-.5.2.3zm19-.3-.3-.2v.9l.2-.2.2-.2zm8.5-.3c-.1-1.3-.1-1.3-.5-.7-.2.2-.3.7-.3 1v.6h.8zm1.1.2v-.6h-.6V84h.6zm39 .4.9-.2-.4-.2h-1.3l-1 .1v.3c0 .3.7.3 1.9 0zm-74.2-.4-.3-.4-.3-.2v.5c0 .2.1.5.3.5s.3-.2.3-.4zm11.5 0c0-.1-.1-.3-.3-.3s-.3.2-.3.3.1.4.3.4.3-.2.3-.4zm51.9 0-.3-.3-.4.3c0 .1.2.4.4.4s.3-.2.3-.4zm-65.4-.7.1-.5h-.4c-.3 0-.6 0-.7.3l-.2.3.2.3c.3.5 1 .2 1-.4zm14.8.4-.1-.3-.4.3-.2.3h.4c.2 0 .3-.1.3-.3zm14.4-.5c0-.5-.5-.6-.8-.1l-.2.3.2.3.2.3.3-.1c.2-.1.3-.4.3-.7zm34.7.5.2-.3h-.3c-.2 0-.3.1-.3.3l.1.3.3-.3zm7.4 0 .2-.3-.7-.4v.5c0 .6.2.7.5.2zm-65.6-.3.2-.3h-.3c-.2 0-.4.1-.4.3l.2.3.3-.3zm15.7-.2-.2-.2v.8l.2-.2.2-.2zm37.3.2c0-.2-.2-.3-.4-.3s-.3.1-.3.3.2.3.3.3.4-.1.4-.3zM240 82v-.7h-.3c-.2 0-.4.2-.5.3l-.2.4.2.3c0 .1.3.3.5.3h.3zm53.7.3-.1-.4-.3.4-.2.3h.3a.3.3 0 0 0 .3-.3zm3.8-.2-.2-.3v.9l.2-.2.2-.2zm14.5.2c0-.2-.2-.4-.3-.4s-.4.2-.4.4.2.3.4.3.3-.2.3-.3zm-52.8-1v-.8l-.2.4c-.1.2-.4.4-.6.4h-.5v1h1.3v-1zm9.1.7.2-.4h-.7v-1H266l.7.9c.8.8 1.4 1 1.7.5zm7-1.3c.3 0 .5-.2.5-.4s-.2-.3-.5-.3h-.5l-.1.5c-.1.3-.4.5-.7.5-.5 0-.5.4 0 .9l.4.4.2-.8.3-.8zm0 1-.1-.2v.9l.2-.2.2-.3-.2-.2zm-30.6-.3-.2-.2v.9l.2-.3.2-.2-.2-.2zm4.2 0c0-.2-.1-.4-.3-.4s-.3.2-.3.5.1.4.3.4.3-.2.3-.4zm7 .2c0-.1 0-.3-.2-.4l-.4-.2v.5c0 .2.2.5.4.5s.3-.2.3-.4zm23.1 0c0-.1-.1-.3-.3-.3s-.3.2-.3.3.1.4.3.4.3-.2.3-.4zm3.4-.8c-.3-.4-.5 0-.3.7l.3.6v-1.3zm21 .8c0-.1-.2-.3-.4-.3s-.3.2-.3.3.1.4.3.4.3-.2.3-.4zm-51.6-.3.8-.2-3-.1v.6h.7a7 7 0 0 0 1.5-.3zm8.7.2-.4-.3-.3-.2v.3c0 .2.2.3.3.3l.4-.1zm25.4-1c0-.3-.3-.5-.5-.5-.4 0-.4.8.1 1.3l.4.4.1-.4v-.8zm43.5.9v-.5c-.3-.3-1.1 0-1.1.4s.9.4 1 0zM278 81c-.1-.2-.4-.3-.7-.3h-.5l.2.3c.1.2.5.3.7.3h.5zm14.1-.2-.2-.2v.8l.2-.2.2-.2zm31.4 0 .2-.4h-1v1l.3-.2a1 1 0 0 0 .5-.5zm1.7 0 .4-.4h-1v.9c.1 0 .4-.2.6-.5zm-100.6-.1h1.4v-.3c0-.5-.7-.6-2.6-.4l-1.8.1-.2.5-.2.5 1-.2 2.4-.2zm12.5-.5 1.7-.7-.2-.2-1-.2h-1l-.5.6a8.5 8.5 0 0 1-1.3.9l-.6.4h.6a9 9 0 0 0 2.3-.8zm5.6.1-.1-.4h-1.3l-2.2.4-.8.2 1.3.2c.7 0 1.7.2 2.3.1h1l-.2-.5zm4.2 0-.2-.5.8-.5.8.8.5-.7.9 1.1V80h5.9l.5.6.7-.7.7-.7-3.7.2-.2-.3-.1-.2h.3c.2 0 .4-.2.4-.3v-.2H252a20 20 0 0 0-8.4 2l-.5.5.8-.3a6.5 6.5 0 0 1 1.6-.2h.8l.1.3c0 .2.3.4.4.4h.3zm-35.3 0c0-.1-.2-.3-.5-.3-.2 0-.5.2-.6.4l-.2.3h1.3zm49.3-.3v-.3l-.3.2c-.2 0-.4.3-.4.5v.3l.4-.2c.1-.1.3-.3.3-.5zm23 .5-.3-.3-.2.3-.2.2h.8zm21.5-1.2-1-.3h-1l.4.7.3.6.6-.4c.4-.2.7-.4.7-.6zm-78.3.4c0-.2-.4-.3-.7-.3h-.4l.2.3c0 .2.4.3.6.3h.5zm62.1 0c-.1-.2-.4-.3-.7-.3-.2 0-.4.1-.4.3v.3h1.3zm3 0c0-.2-.1-.3-.3-.3-.1 0-.4.1-.5.3l-.2.3h.5c.3 0 .5-.1.5-.3zm8.3.1-.3-.2-.2.2-.2.2h.9zm-19.5-.7v-.7h-.6v1.3h.6zm15.4.3c0-.4-.6-.8-.9-.5-.2.2.2.8.6.8a.3.3 0 0 0 .3-.3zm10.2-.2-.4-.1c-.2 0-.5.1-.5.3v.3l.5-.2.4-.3zm5 .2.2-.3h-.5c-.2 0-.6.1-.7.3l-.2.3h.5c.3 0 .6-.1.7-.3zm19-.6c-.3-.2-1 .3-1 .6v.4l.6-.4c.2-.2.4-.5.3-.6zm-86.4.3.5-.3h-1.4v.3c0 .4.3.4 1 0zm24.3-.2-.3-.3v.9l.3-.2.2-.2zm2.2-.8-.3-.3-.3.2c-.1 0-.3.5-.3.8v.7l.6-.5.5-.5zm-46 .8-.3-.3-.2.3-.2.2h.8zm53.7 0h-.6l-.4.1h.6c.3 0 .5 0 .4-.1zm1.4 0-.4-.3-.4-.3.2.4c.3.4.6.5.6.2zm35.8-.2-.1-.3-.4.3-.2.4h.4a.3.3 0 0 0 .3-.4zm16.3 0-.1-.3-.4.3-.2.4h.4a.3.3 0 0 0 .3-.4zm-95.8-.5.2-.5 3.2.3.1-.2.2-.3-3-.3-1.4.5c-.8.3-1.4.7-1.4.8s.4.2 1 .2h.9zm52 .2c0-.1-.2-.3-.5-.3s-.5.2-.5.3.2.3.5.3.5 0 .5-.3zm20.1 0c0-.1-.1-.3-.3-.3s-.3.2-.3.3a.3.3 0 0 0 .6 0zm-66.5-.1-.3-.3-.3-.2-.2.3-.2.3h.5l.5-.1zm3.5-.4-.6-.1h-.7v.6l.7-.2c.3 0 .6-.2.6-.3zm17.8.2c0-.2.5-.3 1-.3h.7v-.6l-2-.3-.2.6-.3.7c0 .4.6.2.8 0zm3.5-.2-.2-.2v.8l.2-.2.2-.2zm5.9 0-.1-.4-.3.4-.2.5h.3c.2 0 .3-.2.3-.5zm34.9.2c0-.2-.2-.3-.3-.3s-.4.1-.4.3.2.3.4.3.3-.1.3-.3zm27.2-.6c.5-.3 1-.6 1-.8l-1-.2h-.9l-.3.4c-.5.4-.5 1.2-.1 1.2a4 4 0 0 0 1.3-.6zm-88.3 0-.2-.4-.3.4-.2.3h.3a.3.3 0 0 0 .4-.3zm36.8 0c0-.2-.3-.4-.5-.5l-.6-.2-.7.5.7.2c.8.3 1 .3 1 0zm-33.3-.2-.3-.3-.4-.2v.3c0 .2.2.4.4.4l.3-.2zm23.6-.7h-.6l-.5.2h.7c.3 0 .5 0 .4-.2zm35-.3a1.2 1.2 0 0 0-.8 0l-.4.2h1.6zm-17.2 23.9-.2-.3.4-.2 1-.3h-4l-4.3.2-.8-.2c-.5 0-.9-.3-.9-.5v-.3h10.9v.3c0 .2.2.3.5.3h.5v1h-.4l-1.5.1-1 .1zm-158.6-.2-.9-.2v-.6h2v.5c0 .3-.1.5-.2.4l-1-.1zm110 0c-.3-.4-.2-.8.3-.8.3 0 .5.2.5.3 0 .4-.5.7-.8.5zm-120.8-.6c0-.3.1-.5.3-.5s.5-.4.7-.9l.3-.8-.7-.6-.6-.5.3-.2c.2-.1.3-.4.3-.6V95l-.7.2-.8.2-.4-.5c-.2-.3-.7-.5-1-.5-.3 0-.7-.1-.8-.3l-.2-.3-.4.3-1 .4-.6.2-1.2-1.9h-1.7l-2 1.3h-1.7l.2-.8 2.1-.5-.2-.3c-.1-.2-.6-.3-1-.3l-2.1-.3-1.2-.4v-.7l.9.3 2.4.4 1.6.1.1.6.2.7 1.2-1.1 2.6-.2 1.5.6 1.5.6c.4 0 2.4-7.1 3-10.4l.6-3.1.3-.1.4-.2.1 1.6a364.3 364.3 0 0 1 1 10.5l.3 1h-.6l-.4-2.1c-.2-1.3-.4-3.2-.4-4.3v-2l-.2.4-.3.3v12.4l.5.1.5.1-.5-.3-.4-.3.4-.5c.2-.3.6-.5.9-.5h.4l-.2-.8-.2-.8.8-.4c.5-.2.9-.5.9-.6 0-.4 3.2-2 3.4-1.8.3.3-.9 1.5-1.4 1.5-.3 0-.8.3-1.2.8l-1.2.9-.4.1.8 1.4h-.8l1.8 1.6-.4 1.3h.3c.2 0 .4-.2.5-.3s.4-.4.7-.4.7-.3 1-.6l.6-.7.4.2c.5.3.4.8-.2.8h-.6l.6.4c.3.2.6.4.6.6v.3h-1.6v-.6l-2 1-.7-.2-.7-.2-.4.4c-.2.2-.5.3-.6.2-.3-.4.2-1 .9-1 .3 0 .6 0 .6-.2 0-.4-1-1.6-1.3-1.6h-.3l.4 1h-1l-1.2 1c-.6.7-1.2 1.2-1.3 1.2l-.1-.5zm-4-6.6v-.5l-.8.2c-1 .1-1.1.2-.8.6l.2.4 1.4-.2zm20.5 6.7.6-.3c.2 0 .5.2.5.3v.4H138zm122.4 0 .6-.7.7-.5.7.4-.8.6c-.9.6-1.2.7-1.2.3zm-45.5-.4c0-.3.2-.5.3-.5s.4.1.4.3-.2.4-.4.5l-.3.2zm-94.4-.7c0-.2.2-.5.3-.5s.4.2.4.4-.2.3-.4.5l-.3.1zm106.5.3c-.7 0-1.2-.3-1.2-.4V98l6-.4.7-.4c.5-.3 2-.7 3.3-1l2.5-.4v.8l-5.2.8-1 .8h2.3l.1-.3.2-.4.4.4-.4 1h-2.5l-.4-.7-1.2.2-1.8.3h-1.8zm42.3-.2V98l3.6-.7 3.9-.6s.2.1.2.3v.3l-1.8.3-5.5 1.2-.4.2zm-50.1-.1c-.4-.1-.8-.3-.8-.5v-.3l6.1.2v.3l-.2.3h-5.2zm47.9-.3c0-.2.1-.5.3-.5s.3.2.3.3c0 .2-.1.4-.3.5l-.3.2zM145.7 98c0-.1.2-.3.5-.3s.4.2.4.3-.2.4-.4.4-.5-.2-.5-.4zm159.7 0c0-.3.1-.6.3-.8.5-.2.4-.8-.2-.8-.2 0-.5 0-.5-.2 0-.5 1-.7 2.6-.7.9 0 2-.1 2.4-.3l.8-.3.4.6-.3.4c-.2.1-1.1.4-2.1.5l-1.8.1v.6c0 .6-.6 1.3-1.2 1.3h-.4zm-229.5-.5-.4-.6-.6.1-.6.2v-.4l.2-.8.2-.5 1 .9c.7.5 1.2 1 1.2 1.3 0 .5-.6.4-1-.2zm163.9.4c0-.4 1.4-1.4 1.8-1.4.4 0 .5.3.2 1l-.2.5h-1l-.8-.1zm-154-.7c.1-.3.4-.6.6-.7l.5-.1-.2.5c0 .4-.3.7-.5.8l-.4.1zm109.3.2.2-.3h3.8v.6H195zm9.3 0-.2-.4-2.6.2-.2-.4-.1-.3h3l.6.3.6.6c0 .4-.9.4-1.1 0zm3.7 0c.1-.3.4-.5.8-.6h.5l-.1.3c0 .3-.4.5-.7.6h-.6zm36.5 0c0-.6.6-1.4 1.6-2l.9-.5 3 .4-.4.2c-.1.2-1 .4-1.9.5l-1.6.2-.2.8-.2.7h-1.2zm48.2.2c-.4-.5.1-.8 1.2-.8l1.6-.2.5-.2-.4-.6-2 .4.2-.4.1-.5 2.4-.2 1.9 1 1.2-.3a20 20 0 0 0 3.4-1.2l2.1-1v.9l-1.5.7-2 1.1c-.4.5-1.2.7-4.3 1l-3 .3-1.2.2zm-229-.6v-.5h1l-.2.3a1 1 0 0 1-.5.5l-.3.2zm51.8 0v-.2h.6c.4 0 .7.1.8.3l.2.3h-1.6zm2.9.1c0-.2.1-.4.3-.5l.3-.2.7.2c.3.1.6.3.6.5v.3h-2V97zm66.9 0v-.4l.4.1c.2 0 .8 0 1.3-.3.5-.2 1.4-.4 2.1-.4h1.2l.2.3.2.3 3.2-.3v.6l-4 .4-1.6-.5-.6.2c-.4.2-1 .3-1.6.3h-.8V97zm27.5-.2v-.5l.3.2.3.2-.2.3c-.2.5-.4.4-.4-.2zm70.2.2c.4-.4 3.5-1 5-1h1.3v.6l-2.9.3-3.2.4h-.5l.3-.3zm-169.3-.4v-.5c.2-.2.8.2.8.6 0 .4-.5.4-.8 0zm117.8.1-.2-.3 1-.8.9-.8 2.4-.3 4.1-.4h1.6l-.1.4c0 .2-.6.5-1 .6l-1 .3-.1-.3-.1-.3-1.4.2-1.3.2-.5.4-.9.4h-.3l.3-1h-.2a6 6 0 0 0-2.3 1.4l-.7.6zm36.5 0a.8.8 0 0 1-.2-.4V96h2.4l-.6.5c-.7.5-1.2.6-1.6.3zm-187.6-.4v-.5c.2-.2.9.2.9.6 0 .4-.6.4-.9 0zm138.1 0V96h.7c.3 0 .7.2.8.4l.2.3h-1.7zm-13.4-.2c0-.2.4-.4 1-.5s1-.4 1-.6v-.2h1.8v1l-1.2-.5-.8.5c-.7.6-1.8.7-1.8.3zm8.7 0-.4-.1.4-.6h3.5l-.3.8H214zm-80.4-.3c0-.1.7-.6 1.5-1l1.6-.6.8.1c.5.1 1 .3 1 .5v.3h-2.5l-.8.5c-.9.5-1.6.6-1.6.2zm118.5-.3V95l1.2-.2-.3.7c-.2.3-.5.6-.7.6h-.3zm63.2.3c-.3-.3.1-1 .6-1h.5l-.1.5c-.1.6-.7.9-1 .5zm-206.4-.5c-.6-.5-.8-1.2-.3-1.2.2 0 .5.2.8.5.6.5.7 1.1.3 1.1l-.8-.4zm88.7.1v-.3h1.1l-.4-.3c-.3-.2-.4-.4-.4-.5.2-.2 5-.8 5.1-.7.3.3-.4.8-1 .8h-.6v1h-1.2c-.6 0-1.5 0-1.9.2l-.7.2v-.4zm12.2-.3a3 3 0 0 1-.4-.8l1-.2h1l.1.4.2.4.2-.4c0-.2.4-.4.6-.4h.5v.8l.2-.4.3-.4 1.3-.2 1.2-.2-.5.4c-.2.2-.7.3-1 .3h-.5l-.7 1.3h-3zm10.5 0v-.3h3.5l.2-.4c.1-.1.4-.3.7-.3h.4v1l4.5-.4v.7h-1.4l-4.6.1h-3.3v-.3zm-159 0c0-.2.1-.3.3-.3.2 0 .4 0 .5.3l.2.3h-.5c-.3 0-.5-.2-.5-.3zm129.1-.2.2-.5h1.2v1h-1.5zm2.4.2v-.3h2v.6h-2zm-107.2-.3v-.4h1.3l-.2.4-.6.3c-.3 0-.5-.2-.5-.3zm103.1-.1c.1-.2.4-.5.7-.5l.5-.1v1h-1.3zm55.3 0 .6-.4 1.2-.8.5-.7h1.2v1h-1.2l-.4.6-.4.7h-1.5zm10-.4v-.5h.5l2-.5 1-.2.3.3.3.5-1.6.3-2 .4-.6.2zm-109-.5-2-.5V93c-.1-.2 0-.4 0-.4.6 0 4.7 1.5 4.7 1.7 0 .3-.5.3-2.7-.4zm10.2.3c.1-.2.3-.3.5-.3s.3.1.3.3-.2.3-.5.3h-.5zm-22-.6c-.8-.4-1.7-.7-2-.7h-.8v-1l1 .2 1.4.7c.2.2.6.5.8.5.3 0 .7 0 1 .2l.4.3-.3.2a5 5 0 0 1-1.6-.4zm93.4 0 .2-.5-.7.5-1.3-.7-.4.5-.7.5-.2-.8V92l-1 .8-3.5-.3-.1.3c-.3.3-1.1.3-1.1 0a11 11 0 0 1 3.8-1.8l1-.3.6-.3 1 1.2-.3.3-.2.3 1.4-.4 2 .5 1.9.7c0 .3-1.6 1-2.2 1h-.4l.2-.5zm-5.1-1.5-.2-.2v.8l.2-.2.2-.2zm.6 0-.2-.2v.8l.2-.2.3-.2zm12.5 1.8-.3-.4.4-.3c.5-.5.8-.1.4.5l-.3.6zm14.8 0c0-.4.8-1 1.5-1h.7l.8-.6.8-.6.2.5c.3.6 0 1-.6 1-.2 0-.5.2-.5.4l-.2.4-2.7.1zm-141.8-.5-.2-.5h-.5c-.3 0-1-.3-1.8-.7l-1.3-.6 1-1 .7.6c.4.4 1.1.8 1.6 1l1 .4c.2.2.5.3.9.3.8 0 .8.6-.1.8-1 .3-1.1.2-1.3-.3zM48 93.1c0-.2.3-.3.4-.3s.4.1.5.3v.4h-1zm167.7-.2-.4-.1.2-.3c.2-.4 1.4-.4 1.4 0 0 .3-.7.6-1.2.4zM67 92v-.7l.4.1c.3 0 .5.4.5.7l.1.5h-1zm66 .4c0-.4 1.4-1 2.2-1 .9 0 .8.5 0 .7-.5 0-1.1.2-1.5.4l-.7.2zm4.1 0V92l.7-.2 1.8-.2 1.1-.1.3.6h-1l-1.8.3-1 .3zm11.8 0h.6c.1.1 0 .2-.4.2h-.6zm-46-.6v-.5l.4.1c.2 0 .4.3.5.5l.1.4h-1zm47.5.2c.1-.2.3-.3.5-.3s.3 0 .3.3-.2.3-.5.3h-.5zm61.4-.2-.2-.5.9-.6v.3l.2.3h1.2c.6 0 1.6-.1 2.2-.3l1-.3v.4c-.2.4-1.2.7-3.5 1l-1.6.2zm102.5 0v-.5c.4-.7 5.8-2.5 7.4-2.5h1v.9l-.6-.2-.6-.2-2.4.7-3.5 1.3-1.1.7zm-133-.7.2-.6.6.1c.8.2.9.3.6.7 0 .2-.5.4-.8.4h-.7zm2.8.3a1 1 0 0 1-.3-.6v-.4h1.1a4 4 0 0 0 1.7-.3c.3-.2 1.4-.5 2.4-.7l1.7-.3 2.5.5 2.7.5.1.3v.3l-.6-.1-2.8-.4-2.4-.2.4 1h-.7v-1a75 75 0 0 0-5.6 1.6l-.2-.3zm17.2 0 .2-.4h1.7l-.5.3c-.2.2-.7.3-1 .3h-.6zm23 0-.1-.3.5-.2 1.6-.2h1v.3c0 .2-.1.3-.4.3l-1.4.2-1 .2zM46 91c-.3-.4-.2-.7.3-.7h.5v.5c0 .5-.4.6-.8.2zm50.3-.6-.9-.8-3 .4.3-.9c.2-1 .4-1.2 1.4-1.5l.7-.3v.8l-.7.2c-.3 0-.6.3-.6.4v.3H96l1.5 1.3 5.3-.3-.4.4-.4.4-4.7.3zm107 .5v-.3h2.6l-.4.6h-2.2zm-43-.2c0-.5.8-1 1.4-1h.6v.2c0 .4-1 1-1.6 1-.2 0-.3-.1-.3-.2zM36 90.3V90h1.6c.1 0 .2 0 .3.2v.4h-2zm18.4 0-.2-.3.3-.2h.8l.5.2-.1.3c-.3.4-1 .4-1.3 0zm152.3 0a14 14 0 0 0-2.4-.3h-1.4l.5-.5c.3-.2.6-.6.6-.8v-.3h1.3v.2c0 .2-.2.4-.4.5l-.4.1 1.7.3a60.5 60.5 0 0 1 3 .4h.6v.7h-1a11.5 11.5 0 0 1-2-.3zm3.5 0-.2-.3h1.4v.3c0 .1-.2.3-.5.3s-.6-.2-.7-.3zM88.4 90v-.3l2.9-.5.4.4-.2.2-1.7.4-1.4.2zm126 0v-.4h3.5l.4.7h-3.8zm6.1 0c0-.3 1.4-.8 1.6-.5.2.2 0 .3-.8.6l-.8.2zm-142.9-.4-.2-.4-2.7.5L72 89l-1.7-1.6h-1.4l-.5-.5c-.3-.3-.5-.7-.5-1v-.4h.5c.2 0 .5.1.6.3l.2.3h1.9l1.8 2h1.2l2.8-2.4 4.4-1 .4.2 1.3.2h1l-.5.8-2.5-.4-2 .5-2 .5-.4.6c-.2.3-.6.6-.9.6a.9.9 0 0 0-.6.4l-.3.4 3-.5 2.6 1-.1.4-.1.4-2.3.2zm6.5-.2-1.2-.6V88h.4c.3 0 .8.2 1.1.5.4.3 1.3.6 2 .7l1.3.2v.6l-2.4-.1-1.2-.5zm79.2 0V89h1.9v1h-2zm4.8.2v-.3h-1.2l-1.2.2-.3-.8h1l2.1-.2 1.2-.2-.1.4c-.1.2-.3.4-.5.4l-.4-.1v.5c0 .2-.1.5-.3.5s-.3-.2-.3-.4zm3.6 0v-.4l2.4-.2v.3c0 .3-.8.7-1.8.7h-.8zm40.5 0c0-.4 1.4-1 2.6-1h1v.3c0 .2-.4.3-.8.3s-.7.2-.8.4l-.1.4h-1.9zm-59.5-.4v-.5l1.3-.7c1.4-.6 2.5-.8 2.5-.3 0 .2-1.4 1-3.6 1.9 0 0-.2-.1-.2-.4zm28.5.1-1.9-.5-2.2-.6-.9-.5H173v-.3c0-.4.1-.4 2.5-.3h1.8l.8.5c.5.2 2 .7 3.4 1 1.4.2 2.6.6 2.8.8l.3.2h-1.4a5 5 0 0 1-2-.3zm-120.3-.8V88l.3.1c.2 0 .5.3.5.5l.2.4h-1zm99.5.2c-.3-.2-1-.3-1.5-.3h-1v-1h.3l2 .4 1.6.4.2.8h-.6a2.4 2.4 0 0 1-1-.3zm37-.5-.3-.5.4-.6h2v-.8l-4.6.4v-.3c0-.4 1-.6 3-.6h2l.5 1.6 2.3-.2.1.4.2.3-1.6.2-2.7.4-1.2.2zm1.3-.4-.2-.2-.3.2-.2.2h.9zm8.3.6-.2-.3.2-.2h1.6l1.4.2v.6h-3zm-14.6-.3c0-.5.8-.7 2.2-.5l1.3.2v.6h-3.5zM43 87.6c-.5-.5-.5-.8 0-.8.3 0 .6-.2.7-.4l.1-.5.4.5-.2.8c-.2 1-.4 1-1 .4zm278.8 0-.2-.2.4-.2c.8-.2 3.3-.8 4-.8h.5l-.1.4-.1.4-4.4.7-.1-.3zm-268.4-.1c-.4-.4-.2-.8.3-.8h.4v.5c0 .5-.3.7-.7.3zm3.8-.1-.3-.4.7-.6.4.7-.6.7zm39.3-.5.4-1 .2-.5-1 .2-1.2.3-.7 1-.5-.5.4-.4.4-.4-3.6-.5-3 1-.3-.4.4-.1c.2-.1.4-.4.4-.6 0-.5.5-.7.7-.2v.3l2.9-1 .4.4.4.4h6.5v.4c0 .5-.6 1-1.2 1-.3 0-.7.3-1 .6-.6.6-.9.6-.6 0zm3.7-.8c0-.1 0-.5-.2-.8l-.2-.6.7.2.8.2 1.1-.6 1.2-.5 4.3.3v.2c0 .2-.2.3-.3.3h-.4l.4 1.3h-1l.1-.5.2-.4-.9-.2-1.4-.3-.6-.1-1.6.9c-1.6 1-2.2 1.1-2.2.6zm13.1 0c0-.5 1.3-1 2.7-1.1h1.2l-.1.3-.1.3-1.1.1a3 3 0 0 0-1.4.4c-.4.4-1.2.4-1.2 0zm14.8 0c0-.2.3-.5.7-.6l.7-.3.3.3c.4.4.2.5-.9.8l-.8.2zM202 86v-.5l-4.3-.8-6.1.1-1.8-.3-2.8-.4h-1.1l-.2-.5-.1-.4h1.5c.9 0 2 0 2.3-.2l.7-.2v1h.4l1.4.2 1 .2.7-.7.8.2c.4.2 1.6.3 2.6.3s2.8.3 4 .5l2 .4-.2.5-.2.7c0 .2-.1.3-.3.3s-.3-.2-.3-.4zm-137-.2-2.5-.9-1.8-.4-4.8-.3-1.2-.5-1.5-.5h-.4l.4 1.3-.5-.2c-.3 0-.5-.4-.5-.6v-.4l-.8-.2c-.4-.1-.8-.3-.8-.5v-.3h1.2c.7 0 2 .2 3.1.5 1 .2 2.8.5 4 .5l2 .1.3-1 1.6-.5-.7-.6c-.8-.7-1.5-.8-1.6-.3l-.2.4-3.7-1.8-2 .7L53 79l-4.6-.7-1.7.7.1-1 .1-.8h.7c3 .4 5.6 1 6.3 1.3l1 .5 3-.4.2.5.2.6 1-.4 3.2.7.7.7.8.7h2.5l4.6.5 2 .4.5.4.4.8v.3l-.6-.2-2.2-.6-1.7-.5H67a25 25 0 0 0-3.9.1l-1.2.3v.8l1.1.2c1.3.2 3.4 1.4 3.4 1.8 0 .4-.7.4-1.4 0zm20.7-.3-.3-.4.6-.2c.7-.2.9 0 .3.5l-.4.4zm24 0c-.3 0-.5-.2-.5-.4 0-.4 1-.3 1.9.2l.8.5h-.8l-1.4-.2zm-84.7-1V84l1.3.1v.8H25zm109.3.1-.2-.3.5-.2c.6-.2 1 0 .7.5-.3.4-.8.4-1 0zm35.3-.4v-.5l.6-.2a5 5 0 0 1 1.4-.2h1v-1h1.2l-.4 1h4l-.4.6-2.5.2c-1.3 0-3 .3-3.6.4l-1.2.2zm-16.4-.8.2-1-.8-.5a3 3 0 0 0-1.4-.5h-.7l-.3-.4c-.2-.3-.9-.6-1.4-.7l-1-.2-3.4.6v-.4c0-.3.1-.5.3-.6l2.3-.3h2l1.3.6 1.8.6c.3 0 1 .4 1.5 1l.9.8h.7l2.3.3 1.6.4v.6l-1.5-.2a41.4 41.4 0 0 0-2.6-.3l-1-.1-.2.6c-.1.3-.3.6-.5.6h-.3zm28.3.3v-.3l-1.4.3.3-.3.4-.4 3.6.2.1.6-3 .2zm-104-.3V83l1.4-.2a6 6 0 0 0 2.1-.4l.8-.2-1.6 1.3h-2.7zm60.5-.1a1 1 0 0 1 .6-.5l.3-.2v1h-1zm-112.7-.5v-.4h.5c.3 0 .5-.2.5-.3s-.2-.4-.5-.5l-.5-.2v-1.6h.3c.2 0 .4.3.5.7.2.8.7.8 1.1-.2.5-1 .5-1.1-.1-1.1-.3 0-.5-.2-.5-.3v-.3l3 .1.2.6v.5h-.6c-.6 0-1 .4-1.4 1.4l-.2.5 1-.4v1l-.6.3a5 5 0 0 1-1.6.5l-1 .2zm114.5.3a.7.7 0 0 1-.2-.5v-.2h1.6v.3c0 .3-1.2.6-1.4.4zm-55.6-.3v-.3l1-.2c.6-.2 1.4-.2 1.8-.2h.9l-.3.2a6 6 0 0 1-1.9.6l-1.5.2zm19.9-.2V82h.7l1.9-.3 1.2-.2v.7l-1.4.2c-.7 0-1.6.2-1.9.3l-.5.3v-.5zm-15.3-.3c-.5-.5-.5-.9 0-.9s2-1.3 2.2-2l.2-.5h.8c.5 0 1-.2 1-.4s.6-.3 1-.3.8.2 1 .3l.1.4h-.7c-1 0-2.8.8-2.8 1.3 0 .1-.2.3-.5.3h-.5l-.5 1c-.2.7-.6 1.2-.7 1.2l-.6-.4zm45.5-.1-.9-.5-.8.2-2 .2h-1l-.2-.3-.1-.4h.8c.4 0 1.2-.1 1.6-.3l.9-.3 1.3.4c.7.3 1.6.5 2 .5l2.3-.7 1.9-.8 3.7-.2.2.3v.4l-4.3.4-1.9.8-2.2.8-1.3-.5zm8.7.3c-.4-.4-.2-.8.3-.8.2 0 .4.2.4.3 0 .4-.5.7-.7.5zm18.3-.1-.8-.3-2.4.4v-.7l2.8-.4 3 .7.4-.4h-1v-1.2h1.2l1.7-.2.5-.2 1.5 1.5 3.3-.2.9 1-2-.3-2.3.6-2.6-.6-.2.3-.2.3h-1.5a13 13 0 0 1-2.3-.3zm4.8-1.2a2.6 2.6 0 0 0-1.2 0l-.5.1h2.2zm-56.4.8.4-.3 1.5-.2 1.5-.1-.2.4-.1.4-3.5.2zm6.4-.2-1.2-.1v-1.3h.6l-.2-.6-.1-.7.3.2c.2.1.4.4.4.7v.5l1.1.4c.6.3 1.5.5 2 .5h.8l-.2.3-.2.3h-1a49.2 49.2 0 0 1-2.3-.2zm67.2 0-3-.2v-.7h.6l3 .2 4 .2 1.6.2v.6L188 82l-4.7-.3zM95.1 81v-.8l.8.8-.8.8zm-55.8 0c-.6-.4-.7-1 0-1h.4l.2.6c.2.6.1.7-.6.4zm115.3 0v-.3l1.4-.2 3-.2 1.7-.1.2.6-1.6.2c-1 .2-2.3.3-3.2.3h-1.5zM93 80v-.6h1v.4c0 .3-.3.6-.6.7l-.4.2zm88.2.5s-1.2-.2-2.6-.2l-2.6-.1-.2-.7 1.5-.4a21 21 0 0 0 2.9-1 45.7 45.7 0 0 1 2.3-1l1-.6v-.3h1.5l2.8-2.3.4-1.2.3-1.1 2.2-1.2 1.5.4v-.4c0-.1 0-.3.3-.3s.3.2.3.5v.4l1-.3a12.6 12.6 0 0 0 2-1l1.8-1 2.3-1c.8-.4 1.7-.8 2-.8s1.5-.6 2.8-1.3l2.3-1.3 2.8-.6 4.2-1c2.9-.5 9.4-1.2 12-1.2a72 72 0 0 0 10.5-.7 67.4 67.4 0 0 0 15.3-1c6.1-.5 10.5-1 14-1.4l7.3-.8 3.7-.2 3.3-1.2.2-1.6 2.3-1 1.9-.1c1 0 3.4.1 5.2.4l3.3.4.6 1.1v1.2l-.2 1.2h1.8a315.2 315.2 0 0 1 30 3c1.1.2 3.3.3 4.8.3 1.4 0 3.2.2 4 .4l3.3.5 1.9.3.2 1.7h-1.6l-2.3-1.2-4.8-.5v.6c0 .7-.5.6-.7-.1l-.2-.6-1-.2-3-.2h-2l-.5-.6H322a109.3 109.3 0 0 0-26.5-2.1l-4-.3-5.7.7-.2.4-.3.5v-.7l-3.5-.8h-13.3l-3.5.6a105.3 105.3 0 0 1-7 1 468.2 468.2 0 0 0-8.9 1c-1.5.2-4.4.3-6.5.3-2.2 0-5.8.1-8 .3l-8.8.5a52.4 52.4 0 0 0-10.7 1.2l-3.3.5-1.5.7-3 1c-1.8.3-6.6 2.3-9.7 4l-2 1.2h-2.2l-2.4.2c-.3 0-.4.1-.4.3v.3h1.6v.3c0 .2-.4.4-.7.5l-.7.3-.2-.4-.3-.4-.2.4-.3.4.8.3v1.2h.6l-.2.5c-.1.2-.4.4-.6.4h-.5l-.2-.8c0-.4-.3-.8-.4-.8-.1 0-.4.3-.6.7-.2.3-.5.6-.7.6a8 8 0 0 0-1.9 1l-1.5 1.1.1.5c.1.3.4.6.7.8l.5.3-1 .2-2.3.3h-1.3v-.6l1.2-.2c.7 0 1.4-.3 1.5-.5l.2-.3-.3-.1c-.1-.1-1 .2-2.1.7l-2.4 1-.5.3h1l2 .2.6.2-.1.3c-.2.3-1 .4-1.2.1zm106.6-22.4c.2 0 .4-.3.4-.4v-.3l-2.4-.3-1.4.3c-.8.2-1.4.5-1.4.6 0 .5 3.4.5 4.8 0zm2-.8.1-.7 1-.3-.3.5-.2.5h.3c.5 0 .4-1-.2-1.5l-.5-.5-.3.4-.4.3-4.8-.4.5.7 3.8.4.4 1-.9.6 1.3-.2zm-8 .4a1.7 1.7 0 0 1-.8-.6c-.3-.5-1-.6-1.3-.1-.4.6 0 .8 1.3.9h1.2l-.4-.2zm10.7-.9.5-1.1-.2-.2-.2-.2-.4.6c-.5.6-.7 2-.4 2l.7-1zm-8.3-.4-.7-.4h-.5v-.4l.4-.8c.8-.7 0-.7-1.1.1-1.1.8-1.5 1.4-.9 1.4.2 0 .4-.2.4-.4s.1-.5.3-.5h.3v1.3h2zm4.8-1.2h-.6l-.4.1h.6c.3 0 .5 0 .4-.1zm-3.8-.5c0-.2-.2-.3-.4-.3s-.4.1-.4.3l-.1.4h1zm2 0v-.3h-1.3l.2.4.6.3c.3 0 .5-.2.5-.3zm-99.5 25.7V80h4.4l.4.7h-4.8zm-144-.5c0-.3.1-.5.3-.5s.3.2.3.5-.1.5-.3.5-.3-.3-.3-.5zm89.7 0-1.9-.2-.9-.6-.8-.7H126v-.6h.8c.4 0 1.4-.2 2.1-.5s2-.5 2.6-.5h1.3v.7h-1.1c-.6 0-1.2 0-1.3.2l-.2.2L132 79l2.9-.3v.3l.6.5.7.2-.2.3-.4.2a209 209 0 0 0-2.2-.3zm36.9 0a171.4 171.4 0 0 0-6.7-.6c-4.1-.3-6-.5-7.8-1l-1.6-.5-2.7.2-6.5-.8-6.2.4-3.6-.5v-.7l7.2.5 3-.6 2.5.4 2.7.4c.2 0 .3-.2.3-.4v-.5l1 .5.9.5 1.7-.2-2.2-1.5c-1.2-.9-2.4-1.5-2.6-1.5s-.4-.2-.4-.4-.4-.5-1-.7-1-.6-1.2-1c-.2-.3-.6-.5-.7-.5-.2 0-1-.4-1.7-1-.7-.5-1.4-1-1.6-1s-.9-.4-1.5-.9l-1-1H139v-1l-3.4-1.7a36.3 36.3 0 0 0-10.2-4.1c-1.2-.5-2.8-1-3.5-1.1a48.8 48.8 0 0 1-2.5-.7c-5.3-1.5-12.1-2.7-20.5-3.5-10-1-15-1.2-38.5-1.3H47.1l-.3-.6.8-.6 16 .1a368.2 368.2 0 0 1 31.2 1 122.4 122.4 0 0 1 36.1 7.7 54.6 54.6 0 0 1 12.3 6.2c.6.3 1.3.8 1.4 1l1.1.9c.5.2 1.5.9 2.1 1.4a41.3 41.3 0 0 0 5.9 4c.5.7 2.6 2 3.5 2.3.6.2 2.7.4 4.6.6l7.5.6 4.8.5.7.2-.1.4c0 .2-.3.4-.4.4l-4.1-.4zM1.8 79.5l-.2-.5.4-.7h2.3l-.5.7.9.7-2.3-.4-.2.4-.2.4zm94-1 .3-.5H98l.4-.6h1.4l2.4-.3 1-.3 3 .3-.5.3-2.5.4-2 .2-.4.5-.4.5h-1.2l.8-.4c1-.4.6-.6-.7-.3l-2.4.5-1.4.1.4-.4zm41.5.2v-.4h6.2l-.4.7h-5.8zm51.6 0a1 1 0 0 1 .6-.6l.4-.2-.1.5a1 1 0 0 1-.6.5l-.4.2zm-164-.4-.2-.2.5-.2c.7-.3 1-.3 1 0 0 .2-.2.4-.5.5l-.7.2zm88.4-1-2.4-.6-4 .3v-1h3v-.5l-2 .2c-2.8.2-4.7.1-10.2-.1l-4.5-.2v1.3l-1.3-.4v-.9h-3.5l-8-2.2H79l-3.3.4-1.9.4-7 .2.3-.8 4.2.2 3-.6 4.3-.7 1.4-.1 2.2.7 4.6 1.3 2.4.7h5c7.5.3 13.1.3 13.3 0 .1 0 0-.3-.4-.6l-.6-.4h1.4l.2.4.2.5h2.3c4.3 0 12.5.2 13.7.5l1.2.2v.7l-6.2-.4-2.2.5-.2.4-.1.4h.3c.1-.1.5-.1.8 0h.6l-.2.3-.7.2c-.3 0-.9 0-1.2.2l-.7.2-2.4-.7zm2.6-.7v-.4l-1.6-.4-2.6-.3h-1v.6h2.8l.8.5 1.2.4h.4zm70 1-.4-.2h.5l1.8-.2h1.4v.2c0 .3-1.2.6-2.1.6-.4 0-.9-.1-1.1-.3zm-59.7-.4c-.4-.2-.5-1.1-.1-1.1.3 0 1 .7 1 1 0 .3-.3.3-.9 0zm-80.7-.5c0-.1.2-.3.5-.3s.5.2.5.3-.3.4-.5.4-.5-.2-.5-.4zm50.7 0-1-.1.7-.4.7.2.7.5v.1l-1-.2zm91-.4v-.5l.8-.1c1.6-.5 2.1 0 .7.7-1 .4-1.4.4-1.4-.1zM253 76v-.4h1.3l-.4.4c-.2.3-.5.5-.7.5s-.2-.2-.2-.5zm2.6 0-.4-.2.2-.3c0-.1.4-.3.8-.3h.6v1h-.4a3.1 3.1 0 0 1-.8-.2zm-253-1.3c-.4-.4-.7-.8-.6-.9h1l.9.2v.6c0 1-.4 1-1.3.1zm189.4 0c0-.2.7-.6 1.5-1l1.4-.7v-.8l-.2.3c-.3.4-1.9 1.1-2.3 1.1-.2 0-.4-.1-.4-.3V73l3-1.3.4.6.5.7c0 .2-.6.6-1.4 1-1.4.9-2.5 1.1-2.5.7zm-156.8-.8v-.3h1.3v-1H38l-1 .9c-1 .8-1.8 1-1.8.4zm67.2 0a15 15 0 0 1-2.8-.6l-1.1-.3h-2.3c-1.2 0-2 .1-1.7.2s.6.3.6.5v.2h-.6c-.4 0-3-.7-5.7-1.6l-5-1.6-4.2.2c-2.3 0-4.7.2-5.3.4l-1.1.2.7-.8 2-.3c2.6-.3 7-.4 9-.1.7.1 1.9.5 2.5.8l3.6 1.3 2.5.7.5-.7 4-.3 1.5.4c.8.3 2 .5 2.7.5 1.4 0 2.8.5 2.8 1 0 .3 0 .3-2.6 0zm191.8-.1-.7-.5c0-.4.8-.6 1.2-.3l.5.2-.2.5v.4l-.8-.3zm-172.9-.4V73l.4.2c.2 0 .4.3.5.5l.1.3h-1zm134.6-.1c-.1-.2-.2-.4 0-.5.1-.2 1.1.2 1.1.5 0 .4-.9.4-1.1 0zM70.8 71.7l-2.4-1h-3.9a32.7 32.7 0 0 1-2 0l-1.7.5c-.6.2-1.8.6-2.7.7l-1.7.2-.2-.4-.2-.3-3.6.1-4.5.4-.9.2-.9-.4c-1.6-.6-1-1.4.6-1l1 .3 1.4-.3c.7-.2 2.3-.3 3.5-.3h2.2l2.2.7 1-.3c1.3-.5 3.1-.8 6.4-.9h3l1.6.4c1.6.5 4.6 2 4.6 2.2 0 .3-.4.1-2.8-.8zM33 72c0-.1.2-.3.5-.3s.5.2.5.3-.2.4-.5.4-.5-.2-.5-.4zm253.8-.7v-.8l-.5-.2a3.7 3.7 0 0 0-1.2-.2h-.6l-.4.7c-.5.8-.9.8-.8-.1v-.8l1.8-.5 2.2-.6h.5l-.1 1.5-.1 1.5-.8.3v-.8zm2.4.2-.2-.5.5-.5.5-.5v2h-.3c-.2 0-.4-.2-.5-.5zm-168-.2c-.2-.3-.2-.7-.1-1l.1-.3.4.7.4.7-.7.4zm199.2-.2c0-.2.2-.3.4-.3.3 0 .6 0 .7.3l.2.3h-1.3zM32 70v-1l1.3.2.7 1.1-.2.3-.3.2-.3-.6c-.2-.3-.4-.5-.6-.5h-.3l.4 1.3H32zm3.5.3.3-.5.3-.1v.5c0 .2-.1.4-.3.4s-.3 0-.3-.3zm3.3-.3c-.3-.6 0-.7.5-.2l.4.5h-.3c-.2 0-.5-.1-.6-.3zM254 69v-.6h1.4l-.2.4c0 .2-.3.5-.6.5l-.6.1zm70.7-.1c0-.3.2-.5.4-.5s.3.2.3.5-.2.5-.3.5-.4-.2-.4-.5zm-.8-1.6-.6-.4.8-.8.5.4c.5.4.7 1.3.2 1.3l-.9-.5zM212.6 67l-.6-.5h1.7v.3c0 .5-.5.6-1.1.2zM29.9 67l.2-.3-.5-.2c-.5-.3-.6-.9 0-.9.2 0 .7.2 1 .5l.6.4-1.5.8zm13.3-1.4c0-.3.2-.7.3-.7l.3-.2.2.5c.2.5 0 1-.4 1h-.4zm197.3.2-.2-.5.4-.4.8.7-.4.4-.4.4zM42 65.6c0-.1.1-.3.3-.3l.5.3.2.4h-.5c-.3 0-.5-.2-.5-.4zm182 0 .3-.4.3-.2.2.3.2.3 1-.4v.8h-2zm18-.2.1-.6h1v1l-1.2.2zm-11.9-.3c0-.2.2-.4.3-.4s.4.2.4.4-.2.5-.4.5-.3-.2-.3-.4zm-182.6 0c-.2-.1-.4-.3-.4-.5 0-.3.9-.3 1.1 0l.2.3-.3.2h-.6zm188-.1-.4-.3.5-.2.6-.2.3.2c.5.3.4.8 0 .8a2 2 0 0 1-1-.3zm42.8-.4-.2-.6.2-.2.2-.2.5.6c.5.8.5 1.1 0 1.1h-.5l-.2-.7zm-34 0v-.5c.2-.2.9.2.9.6 0 .4-.6.4-.8 0zm-6.8-.2V64l1.3-.1c1.3-.1 1.8 0 1.3.5l-1.4.2h-1.2zm36.8-.2v-.5l.3.2c.2 0 .3.3.3.5 0 .1-.1.3-.3.3s-.3-.3-.3-.5zm23.5.1-.2-.3.4-.4.3.3.4.4-.7.4zM281 64c0-.1.2-.3.5-.3s.5.2.5.3-.2.4-.5.4-.5-.2-.5-.4zm22.4 0 .3-.4.3-.2v.5c0 .2 0 .5-.3.5s-.3-.2-.3-.3zM35 63.4l-.8-.2.6-.6.7.1c.7.2 1 .6.5.9-.2 0-.6 0-1-.2zm2.2 0 .2-.4h1.4v.7l-1.7.2.1-.5zm2.2-.2v-.7h.3c.2 0 .4.3.5.5.3.8.2.8-.3.8h-.5zm251.7 0-.2-.4.6-.7.7.3c.7.2 1 .8.4.8-.2 0-.5 0-.8.2l-.5.1zm-259.8-.3-.2-.4.2-.3c0-.2.4-.3.8-.3h.6v.3c0 .2-.3.5-.6.6l-.6.4zm94.5-.4c-.2-.1-.4-.3-.3-.4.3-.3 1.6.1 1.6.5 0 .3-.7.3-1.3 0zm-74.6-.8-.6-.2v-.9h1.5l.2-.5.5-.4c.2 0 .4.2.4.4v.5h-1l.2 1-.3.1h-1zm68.9-.1c0-.2.1-.4.3-.5l.3-.2v.5c0 .3-.2.5-.3.5s-.3-.1-.3-.3zm-86.2-.9-.4-.5 1.5.3.2.4.1.4h-.5c-.2 0-.6-.3-.9-.6zm5.1-.1-.5-.6h-1.2c-.7 0-1.5-.2-1.7-.3l-.5-.3 1.3-1.8 1.7-.2v.3l-.8.7-1 .4 2.3.4 1.9 1.3-.3.4c-.3.5-.5.4-1.2-.3zm2.7 0 .2-.5h.5c.3 0 .6.2.6.4v.3l-1.4.2zm.1-1.9-.2-.3.4-.2h.5c.1 0 .4 0 .6-.2.3-.2.5-.2.5-.1 0 .3-1 1-1.4 1.1l-.4-.3zm2.4-.5-.4-.5h1.7v1H45c-.3 0-.7-.2-.9-.5zm-3.7-.1c0-.2-.5-.4-.8-.4-.8 0-2.4-.9-2.7-1.5l-.1-.4 1.3.4.4-.4.5-.4.2.2.2.2-.8 1 2.3.4.1.4.2.4-.3.2-.3.2zm-38-1.5-.5-1 .2-.6.2-.5 1 .2.1 1.5.1 1.5H3zm33-3.5c0-.3.2-.5.4-.5s.3.2.3.5-.1.5-.3.5-.3-.2-.3-.5zm1-.8c.2-.4.7-.5.7-.1l-.4.4h-.3zm2.5-2.1c-.3-.4 0-.8.8-.8h.6l-.1.4c-.2.5-1 .7-1.3.4zm10.8-.3-.1-.5h.3c.2.2.5.4.5.6l.2.4h-.3c-.2 0-.4-.3-.6-.5zm-7.8-.3.4-.5.3.2.2.4v.3h-1.3zm-3.7-.8c.1-.2.3-.4.5-.4h.3l-.2.4c0 .1-.3.3-.5.3h-.3zm-6.9-.5v-.5H33v.3c0 .2-.1.3-.3.3a3 3 0 0 0-.8.2l-.5.2zm9.2.3c-.4-.4.1-.8 1-.8.6 0 1 .1 1.2.3l.1.3-.5.2c-.6.2-1.5.2-1.8 0zm-1.4-1.2c0-.2.3-.4.6-.5l.6-.1-.4 1h-1zm-37-.6-.3-.3h1.4v.3c0 .2-.3.4-.5.4s-.6-.2-.7-.4zm33.7 0-1.4-.6c-.2-.2-.8-.3-1.3-.3h-1l1.1-.7-.2-.4-.2-.5h.4c.2 0 .4.1.5.3l.2.4 2.9-.5v.8l-1.3.3.2.3c0 .2.5.3 1 .3h.7v.3c0 .5-.4.6-1.6.3zm5-.3-.2-.3.5-.2c.6-.2 1 0 .6.5-.2.4-.7.4-1 0zm-37.2-.8c-.3-.1-.4-.4-.4-.7v-.5l.5.5c.6.6.5.9-.1.7zm33.8-.6v-.4l.7-.2 1.3-.2h.6v.9l-2.6.2zm-1-3.3c0-.3 1.4-.8 1.6-.6l-.1.5c-.3.4-1.5.5-1.5 0zm9.6-.3c0-.3 0-.7-.2-1l-.5-1.4-.3-1.2h.7v2.4l.5.6c.6.7.6 1.1.2 1.1H46zm-5.7-.5a1 1 0 0 1 .6-.5l.3-.1v1h-1zm-37-1.5V39c0-.1.2 0 .3.3.2.6 0 .7-.3.2zm-.6-2-.2-.3.5-.2c.6-.2 1 0 .6.5-.2.5-.7.5-1 0zm1.4-2.3c0-.7.1-1.5.3-1.7l.2-.4v1.8l.1 1.7h-.6zm36.5 1.1c0-.4.4-.6.8-.4.3 0 .5.3.5.4v.3h-.7c-.3 0-.6-.1-.6-.3zm-6-1 .1-.5H36l.3.8h-1.7zm7.4-.7-.8-.6c0-.1.8-.2 1.8-.2h1.8v.2c0 .5-.8 1-1.5 1-.3 0-1-.2-1.3-.4zm7.6-1V33l.3.2c.2 0 .3.2.3.4s-.1.3-.3.4l-.3.1zm-8.8-2.3c.2-.5 1.4-1.2 1.6-1 .3.3-1 1.5-1.5 1.5h-.3zm3.3-.1c0-.2.2-.3.5-.3s.5 0 .5.3-.2.3-.5.3-.5-.2-.5-.3zm1.8-.7c-.3-.5 0-.8 1-1l.7-.2.4.6-2 1zm-5.8-1.3-.2-.3.4-.3c.6-.4 1.6-.4 1.6 0l-.8.5-.8.4zm2.4-.9.8-.8.8-.5.2.4.2.3-.6.5c-.6.5-1.4.5-1.4.1zm4.2-1.2v-.3l1-.4a5 5 0 0 1 1.6-.3h.5l-.3-1.3h1l-.2 1.3h.9v1h-1a17 17 0 0 0-2.3.1l-1.2.2V27zm-41.6-.7c.2-.4.6-.5.6-.1 0 .1-.1.3-.3.3l-.4.2zm41.9-.8V25l.7-.3c.9-.5 1.1-.2.4.6-.7.8-1.1.8-1.1.2zM44.5 24c0-.4 1.6-1 2-.8.2.3-1 1.2-1.5 1.2-.3 0-.5-.2-.5-.4zm-9.2-1.2c0-.2.4-.6.9-1l1-.7-.2-1-.2-1 2-1.8v-2.2l.4-.4c.3-.3.6-.9.7-1.4l.2-.8h1l-.5 1.4.6-.4 1.3-1.1.8-.6.4.4-3.3 3.4-.4 1.3-.5 1.3.9-.4c1-.5 1.8-1.6 2.5-3.1.2-.5.5-1 .7-1h.3l-.4 1.5.6-.3 1.1-.4.6-.1.2-1.1c.1-.6.3-1.1.5-1.1h.3v1.6h.4c.7 0 1-.5 1.4-1.9l.4-1.3.8-.5c.5-.3.8-.7.8-1l.8-1.1.8-1h.5l.5.2c0 .3-1 2-1.5 2.2l-.3.3 1-.2C54 9 56 7.4 56.5 6.2l.3-.8-1.2.4-1-.7 4.2.2.3 1 .3.8-1.3 1-1.4-.3V9l-.6.2c-.3 0-.9.3-1.3.5l-.7.2.4.7.3.6 1.3-.7.6.6-.9.8-2.3.3c-1.3.2-2.4.2-2.5.1-.3-.2.6-.7 1.5-.7h.7L53 11l-.1-.5h-1l-1 .2-.3.7c-.1.3-.5.9-.8 1.1l-.5.4.2.8.2.8-1.5-.4-1.4 1.4-1.3-.4-1.2.6a10 10 0 0 0-2.3 1.7l-1.1 1.2h-1.4l-.2.5a3 3 0 0 0-.2.8v.3l.9-.2 1.7-.7.9-.5 1.1-2 .7-.5c1.3-.6 1.2 0 0 1.1L43 18.6h.9c.4 0 .9.1 1 .3l.2.3-2.7.5-1.6 1.5-1.6-.4-.2.3-1.8 1-1.8.9c-.1.1-.2 0-.2-.2zm3-3.4.2-.5-.4-.5-.3.5c-.4.6-.4 1 0 1 .2 0 .4-.3.5-.5zM57.5 7v-.3s-.2 0-.3.3v.3l.3-.3zM44.8 20.8a8 8 0 0 0 1-1.7l.5-1 1.3-.2-.7.8c-.4.4-.8 1-.8 1.2 0 .6-1 1.6-1.6 1.6h-.4zm-2.8 0c0-.1.2-.3.5-.3s.4.2.4.3-.2.3-.4.3-.5 0-.5-.3zm15-.8c-.4-.1-.6-.3-.6-.5 0-.4.8-.3 1.3.2l.4.5h-.3a9.4 9.4 0 0 1-.9-.2zM8.8 17.4c-.2-.3-.2-.5 0-.6.2-.3.5 0 .4.6l-.2.4zm-1.5-2.7-.4-.6.4-.5c.2-.2.5-.5.7-.5h.3v2.3H8c-.2 0-.5-.3-.7-.7zm2.8-.5a11 11 0 0 1-.7-2.6l-.2-1.3h.3c.5 0 1.3 1.6 1.3 2.4 0 .3 0 1 .2 1.7l.2 1H11c-.1 0-.5-.5-.8-1.2zm27.8 1-.2-.4.4-2.6 1.3-1.6 1 .3 1.3-.6c.8-.4 1.5-.8 1.6-1l.3-.4.2.4.3.5.7-.7c.9-.8 1.2-1 1.2-.4 0 .5-1 1.2-1.7 1.2-.4 0-.8.2-1 .3l-1.6 1-1.2.7-.2-.3c0-.2-.2-.4-.3-.4-.4 0-1.4 2-1.5 3-.2 1.1-.3 1.4-.6 1zm13.4-.9-.6-.4.3-.2a4 4 0 0 1 1.2-.3h.8v1.4h-.5c-.3 0-.8-.2-1.2-.5zm6.3 0c.1-.2.4-.4.7-.5h.6l-.1.4c-.1.2-.4.4-.7.5l-.6.1zm-42-3v-.4H18v.6h-2.3zm9-.2c0-.4.9-1.3 1-1.1.1 0 0 .4 0 .8-.4.8-1 1-1 .3zm-17.8-.7-.2-.8 1-1 .3.2c.2.1.4.5.4 1v.6l-1.3.8zm4.9.6a1 1 0 0 1-.2-.6v-.5h.5c.5 0 .6.3.2 1l-.3.3zm25.4-.5.4-1 .5-.7.5.5-.5.8c-.4.9-1 1-1 .4zm20.3-.2-.2-.4.4-.4.3.4.4.3-.7.4zm-16.8-1c0-.5.2-1 .4-1.4l.5-.6.4.7-.3.8c-.2.4-.5.9-.7 1l-.3.2zm18.4.4V8.4h.5c.2 0 .6.3.8.5l.4.5-.2.3c-.2.4-1 .5-1.3.1zM42.8 8.4c-.2-.3.7-1.5 1-1.3v1c-.3.6-.7.8-1 .3zm2-1.8v-.5h1v.4a1 1 0 0 1-.6.5l-.3.1zm-3.1-1.8c0-.3.1-.7.3-1l.3-.4.7.7-.2.5-.2.6h-1zM17.4 4l.1-.6 1.1-.2v1.3h-1.3zM29 3.2v-1l.1-.3.9.3c.4 0 1 .3 1 .5l.3.4-.5.4c-.3.2-.8.4-1.1.4h-.6zm2.8.5a.8.8 0 0 1-.2-.5v-.3h1.6v1h-.6l-.8-.2zm-5.4-2.4-.7-.5 1.5.2h1v.5c0 .2-.2.4-.3.4l-1.5-.6z"/>
</svg>
