<?xml version="1.0" encoding="utf-8"?>
<svg xmlns="http://www.w3.org/2000/svg" version="1.1" viewBox="0 0 1033 836">
	<title>Sketch of a straight path of rectangular stones passing through a low wall. In the distance, the path passes a brick building on the left, and a low bushy tree the right.</title>
	<path d="M86 835c0-1 0-2 1-1v2l-1-1zm11-10c0-1 0-2 1-1v2l-1-1zm0-7c-1-2 0-6 2-8 2-1 2-1 3 2l1 5c1 2 1 2-2 2l-4-1zm11-7c-1-4 0-6 2-5v7c-1 1-1 0-2-2zm12 0c-2-2-2-3-1-6 2-1 2-1 3 2 0 5 0 7-2 4zm138-11 2-1v1l-1 1-1-1zm-124-2c-2 0-1-8 1-19 2-8 2-9 3-5l3 3 1 2 1 6v3l-5-5-1 4v7c2 3 2 3 1 4h-4zm242 0 2-5c3-6 4-4 2 1s-4 6-4 4zm-256-5-1-3c0-2 0-2 1-1l1 3-1 1zm145-4 7-13 8-13 4-5 4-5h16l-9 3c-8 3-9 4-11 7a408 408 0 0 1-19 26zm-117-3 1-4c3-2 2-5 0-5l-2-2-2-5c-2-1-3-3-3-9l-2-9c-1-4-3-2-3 3 0 4 0 5-2 4-1-1-1-1-2 1-1 3-4 7-5 6-2-1-1-13 1-17l2-8 1-9c1-6 2-8 1-14s1-4 2 3c1 4 1 6-1 9l-1 13c0 8 0 9 1 8 3-2 5-9 7-19l1-9-1 11c0 12 1 15 4 10 2-2 3-3 2-6l3-12 4-2c3-2 3-3 2-5-1-4-3-4-5-1l-1 3-2-2-2-6c0-3 0-3 2-3 4 2 5 2 5-2 0-3 0-4-2-4l-4 1c-2 3-1 1 1-6l2-6-3-2-5-3c-2 1-3 9-2 16l1 11c0 4 0 4-1 2l-2-8c0-4-1-7-3-9s-2-4-2-21c-1-19-2-26-5-26s-10-8-12-12l-3-3c-2-1-2-2-2-6s-1-6-2-7c-1-2-1-4 1-4l2 2c1 2 1 1 1-4l2-9c2-5 1 8-1 15-1 7-1 12 1 12l3-3c2-3 2-3 2 0s3 2 4-1 1-11-1-10l-1-3c0-2 0-3 2-2 4 1 6-7 1-11l-2-3-3-3-2-4c0-3-2-4-8-4-8 0-1-1 12-2 23-2 32-4 32-7 0-1-2-2-9-3l-7 1-9 3h-8l-1-3c-2-4-2-5 2-5 2 0 3-1 3-2 0-2 1-3 4-3 2 0 3 0 4 4 2 3 2 4 3 3v-3c-2-2-1-2 5-3 5 0 12-3 11-4l-8-1h-17c-9 2-10 2-8 3 3 1 2 2-2 4l-4 1 1 4c0 5 0 5-8 7-3 1-4-1 0-2 3-1 4-4 3-5l-6-2c-5 0-6-2-1-2l4-2 5-2c4-1 4-1 5-3 1-4 0-5-4-3h-12l-9-2 3-1 16-1 13 1 4-5c4-4 4-4 2-5h-12c-3 1-4 0-1-3l2-7v-5l-5 4c-5 4-5 4-4 1 2-2 2-2 0-4l-3-2h3l7-2c5-1 5-1 6 7 0 7 1 8 7 9 5 1 5 3 0 7-4 4-4 6 0 7 6 0 10-1 12-5 1-2 3-3 5-3s2 0 1 1c-2 2-1 4 1 4s3-1 4-4c1-6 3-8 11-10l14-1c10 1 11 0 11-3l3-4c4-2 3-2-1-2s-5 0-6 2c-1 3-2 4-4 5-2 0-2 0-1-2 2-3 0-4-5-1l-5 2-3-2c-4-3-8-4-8-2l-3 7-2-3c0-4-3-4-9-1-4 2-7 2-4 0l9-10c-1-3 10-9 13-7 1 1 4 0 4-2l3-3c5-2 6-4 3-6-3-4-9-1-11 4-1 1-2 2-3 1l-9-1c-3 1-4 3-1 3s3 1 1 3h-6c-5 0-5 0-9 3-5 5-3 7 3 4 5-1 6-1 6 2 0 2 0 2-8 2h-9l2-4 3-8v-3l26-9-10 1c-8 0-11 1-17 3-8 4-9 4-6 7 2 2 1 2-3 5-2 1-2 1-2-2 0-4-2-8-4-8v-2c0-2 0-3-2-4-3-2-3-2-6 0-5 4-7 4-7 2 1-1 0-2-1-2-7-2-16 0-17 4-2 3-4 2-4-3 0-2-1-2-8-3a734 734 0 0 1-20-3c2-2 3-2 18-2 16 0 19-1 16-3 0-1-9-2-19-2l-20-2a1224 1224 0 0 1 117-1l53-2c42 0 46 0 46-2v-3c1-1 5 0 9 3 2 2 12 5 13 4l8-1c12-1 20-3 21-4s1-1-1-1c-3 1-3 1-3-2l6-8 6-5c3-3 5-4 6-3l-2 3-2 3 8 1h7l5 5c4 5 5 6 6 4l3-1c2 2 3 4 0 3-2 0-2 0-3 3v7c1 3 1 4-3 7s-5 6-3 8c1 1 1 1-2 3l-3 2 3 4c2 3 2 5 4 18l4 17c3 3 2 5 0 7l-2 3 2 7a2655 2655 0 0 0 4 18l-9 5c-8 4-11 4-9-1v-3c-1 0-6 2-9 5l-6 4-5 3-4 1c-2-1-3 0-4 3l-6 8-3 4-1-2c-2-3-3-2-4 6s-3 10-3 4-2-8-4-5c-3 3-4 5-3 8l-1 2c-1 1-2 0-3-3-1-4-2-5-4-5-1 0-2 1-1 4l1 7c0 2 0 2-2 1-2-2-2-2-4-1-2 2-1 3 2 7s3 4 1 5c-2 2-2 2-2-1s-2-5-5-5-3 2 0 4c3 1 3 2-1 7l-2 2-1-2-5 7c-2 5-3 4-4-4l1-10 2-2 1 2c1 3 4 4 5 1l-4-9c-3-5-5-6-5-3l-2 3c-2 0-3-5-2-10 1-7 0-9-6-13-6-5-7-6-7-10 0-3 0-4 1-3l1 3c0 2 2 3 3 3l2-13c-1-1-8 2-9 4-2 2-2 3-1 9l-1 6-2-5c-1-8-2-9-4-3-1 4-1 4-4 3-2 0-2 1-4 4-4 6-4 8-1 9l2-2c1-2 1-2 2-1 3 2 3 16 0 18v4l1 7 1 8 2-2 4-4c3-3 4-4 4-6 0-4-1-7-2-5-3 4-4-2-2-11 2-11 2-11 3-9 2 3 5 2 7-1l1-3 1 4c2 4 2 9 1 12s-3 2-4-1-1-3-2-2v15c1 2 1 4-1 6-3 3-4 5-2 5l3 3c0 1 1 4 3 5 5 6 5 12 0 16-4 5-6 5-6 1 0-2 1-3 4-3s3 0 2-7l-5-8c-5-4-7-4-8 1 0 4-1 4-1 2l-3-4h-4c-2 1-3 1-4-1s-2-2-4-1c-5 3-5 11-1 11 3 0 3 0 3 4l1 4 4-3c4-5 5-5 8-2s3 3 3 12l-1 10-2 2c-5-6-7-14-4-15 4-1 3-6 0-6-2 0-8 5-8 7l2 2c2 0 1 3-2 4l-3-2c-1-3-4-5-6-4-2 0-2 1-1 4v2c-3-2-3-8-2-10 2-3 2-7 1-8l-3-4c-3-4-4-2-5 9l1 20 1 19-2-3c-1 1-1 0-1-4l-1-6c-2 0-2-1-1-5 0-5 0-5-3-8l-4-9c-1-6 0-7 2-2s4 4 5-2c1-3 1-4-3-7-4-4-5-4-7 1l-3 5-2 1 2 9 3 10c2 1 2 4 3 10 0 8 1 9 2 10 2 1 2 1 1 2h-3c-3-2-4-7-4-15l-1-5-3-6c-1-6-2-7-5-5l-1 6-1 7c-2 4-1 8 2 4 1-2 2-1 3 6 1 9 3 12 6 13 3 0 4 2 4 8v4l-2-3c-1-3-1-4-3-2-1 2-1 2-2-4l-6-14c-1 0-3 7-3 11l-1 9c-1 6-1 6-4 5-2 0-2 0-2 2s1 3 2 3c2 0 2 1 3 8v10l-1-2-1-4c-2-3-3 0-4 11-2 16-2 16-6 18l-4 1zm7-16-1-2c-1-1-1 1-1 2l1 2 1-2zm-4-15c0-3 1-3 2-2 3 3 6-7 3-12-2-2-4-1-5 3l-3 4c-3 0-3 5-1 9 2 2 3 1 4-2zm3-18c4-1 5-8 2-8l-3 2c0 2-2 3-2 3l-2 2c0 2 2 3 5 1zm11-32c0-12 0-16-2-18-1-2-1-2-2 0-3 3-3 9-2 12 1 2 1 2-1 4s-2 3-2 7l2 9c1 7 2 8 5 5 2-3 2-4 2-19zm-10-9c0-2-1-3-3-1 0 1 1 4 2 3l1-2zm67-3-1-1-1 1 1 1 1-1zm-80-10 3-11c0-6 0-7 2-6v9c-2 12-2 12 2 13 3 0 3 0 4-3 2-4 0-19-2-24l-4-9c-1-5-6-11-9-11-2 1-3 8-1 8s3 2 3 6 0 4-2 3c-3-2-4 0-3 7l1 15c0 7 0 8 2 8l4-5zm28 1 2-4c0-3 0-3-2-4-6-1-8 2-4 7 1 2 2 2 4 1zm36-4-1-1-1 1s0 2 1 1l1-1zm-44-6 3-10 3-8-2-6c-2-4-2-6-1-10 0-5 1-6 5-8 5-3 6-3 8 0 2 2 2 2 3 1l1-5c0-3-6-19-8-19l-1 5-1 6c-1 1-1 0-2-6-1-2-1-2-2-1v13l-3-1c-2 0-2 0-1-4 1-5 0-12-1-15-1-1-1-1-2 2-1 4-2 4-3-2-1-4-2-5-4-5h-3v18l-1-3c0-4-2-3-4 1-1 2-2 3-2 1l-5-15-4 1c-3 2-4 4-4 6l-2 9-1 17c1 16 4 17 6 4l3-7c1-1 2 0 4 1l5 2c3 1 3 1 3-3l4-8 4-7c0-3 0-3 1-2 2 4 1 10-1 11-1 0-3 4-4 9-3 6-3 8-3 13 1 13 5 16 5 4l1-8c3-3 4-3 4 1 1 3-2 16-4 18v7c2 4 4 5 6 3zm-4-38c1-4 3-4 3 0 0 2 0 3-2 3l-1-3zm-23-11c-1-4 0-13 2-14l1 8c0 8-1 11-3 6zm9-1 1-1 1 1-1 1-1-1zm32 48-1-9c0-7-1-11-3-8-1 1-1 16 1 18l2 1 1-2zm7-9c1-4 1-8-2-10l-1-7-1-7-5-2c-2 1-1 9 1 12l3 10 1 7c0 2 2 1 4-3zm9 1c3-3 3-11 0-14-2-2-2-2-1-4 2-2 2-2 1-5v-18l2-17c0-2 0-2-2-2-1 0-2 2-3 7-2 6-4 6-4 1 0-2-1-3-2-3-2 0-4 4-3 9 1 3 2 4 4 4h2l-1 10 1 19a296 296 0 0 1 3 16l3-3zm8-1-2-4c-1 1 0 5 1 5l1-1zm5-9c1-4 0-19-1-19s-2 3-3 13c0 8 0 11 2 10l2-4zm-6 1-2-1-1 1 1 2 2-2zm17-3c0-2-3-5-4-4s-1 4 1 5c1 2 3 2 3-1zm-45-10c-1-5-3-5-4 1 0 3 0 5 2 7l1 2 1-3v-7zm-12 7-1-1-1 1 1 1 1-1zm39-2v-1l-2 1c-1 1 0 1 1 1l1-1zm-72-2-1-2-1 2 1 2 1-2zm86 0-2-1-1 1 1 1 2-1zm-13-5-2-2c-2 1-2 4-1 5 2 3 3 1 3-3zm-78 2-1-1-1 1 1 1 1-1zm96-2c3-2 2-4-1-5-8-3-11 0-7 4 3 2 5 2 8 1zm49-6c2-1 2-2 1-4l1-5c4-5 1-6-7 0-5 4-6 7-3 7l3 2h5zm-47-3-1-2-1 2 1 2 1-2zm-22-1 2-5c0-3 1-3 3 0 1 4 3 5 6 3 2-2 2-2 1-5l-3-9-1-6c-2-1-3 1-3 4 0 4-2 5-4 2-2-2-3-1-4 8s0 13 3 8zm57-2v-5c-2-3-4 1-4 5 0 3 0 4 2 4l2-4zm6-9c2-8 1-17-2-17-1 0-2 3-2 11l1 11 3-5zm23 2c0-3-1-5-3-4l-1 3c0 3 3 4 4 1zm-69-9c1-6 1-7-1-8h-2c-2 4-2 16 0 16l3-8zm37 4c0-1-1-2-3-1-4 0-4 2-1 3 3 2 4 1 4-2zm39 0 2-5c2-1 3-5 1-8-1-2-2-1-3 3l-2 7c-3 5-3 7 0 7l2-4zm-21 1-1-1-1 1 1 1 1-1zm7-2v-3c-1-3-3-3-3 0-1 5 1 6 3 3zm-54-6-2-6-2 7c1 1 3 1 4-1zm46 0c2-2 0-3-3-3-1 0-2 0-2 2 0 3 3 4 5 1zm-15 0-1-2c-1-1-1-1-1 1l1 2 1-1zm21-5c0-2-2-5-4-4s-1 4 1 6 3 2 3-2zm30 1c1-3 0-5-2-5s-2 2-2 5c1 4 4 4 4 0zm-173-3 3-6 2-2h-13v4c1 5 4 9 5 9l3-5zm149 1-1-3c-2 0-3 3-2 6 1 2 3 0 3-3zm34-1-1-1-1 2c0 1 0 2 1 1l1-2zm-126-1-2-1-1 1 1 2 2-2zm-25-2c-1-2-2-1-2 2h2v-2zm16-3h-5l1 2c1 2 2 2 3 1l1-3zm54-2c5-3 0-5-7-3-8 3-9 4-6 5s10 0 13-2zm-46 1c1-1 0-1 0 0-2 0-3 1-1 1l1-1zm-36-1-1-1-1 1 1 1 1-1zm113 0-2-1-1 1 1 1 2-1zm14 0-1-1-1 1 1 1 1-1zm30-1 3-2c0-2-1-1-5 1-5 3-4 4 2 1zm-18-4c1-1 1-1-2-1s-5 1-4 3 4 1 6-2zm47 2-2-1v1c1 2 2 2 2 0zm9-1c0-2 0-2-2-2-1 0-2 1-2 3s0 2 2 2l2-3zm-184-4c2-2 3-3 0-3-2-1-6 1-6 2 0 3 2 4 6 1zm26 0 3-2c0-2-4-2-8-1-4 2-4 4 1 5l4-2zm31-2c7-2 6-5-1-3-4 1-5 2-5 4 1 1 2 1 6-1zm18 1-1-1-1 1 1 1 1-1zm-36-2v-2c-1-2-6 0-7 2 0 2 0 2 3 2l4-2zm-72-1c3-1 1-2-2-2-2 0-3 1-1 2h3zm46-3c0-1-4-2-4 0l3 2 1-2zm81 1v-1l-2 1c-1 1 0 1 1 1l1-1zm32-1-2-1-1 1 1 1 2-1zm-141-2c1-1-4-2-6-2l-2 2h8zm21 0-2-1-3 1 2 1 3-1zm114 0v-2c-2-1-4 1-4 2h4zm34-1h-1c0 1 1 2 2 1l-1-1zm-101-4c4-2 4-3 2-3-3 0-11 3-11 5 0 3 4 2 9-2zm17 2 1-2c0-2-4-1-5 0-2 3 2 4 4 2zm64-1c-1-2-2-1-2 1h2v-1zm49-7c-1-6-3-11-4-11-2 0-1 15 1 18l1 2 1-2 1-7zm-143 6-1-1-2 1c0 2 2 2 3 0zm105-1c0-3-1-3-4-1-3 3-3 4 1 4 2-1 3-1 3-3zm-124 0h6c2-1 2-1 1-2-3-2-16-2-19-1-6 2-2 4 5 3h7zm60-2v-2c-2 0-5 2-4 3 0 1 3 1 4-1zm46 1 3-3h-9c-2 1-2 1-1 2 3 2 3 2 7 1zm47-1 1-2c-1-1-4 0-4 1 0 2 3 2 3 1zm-73-3c0-2-3-3-4-1l-1 2c1 1 4 1 5-1zm14 0v-2c-1-1-5 0-5 2h5zm-122-2-2-1-2 1 2 2 2-2zm135-1v-2c-1-1-4 2-3 3 0 1 2 1 3-1zm-120 0c0-3-3-4-4-4-2 1-3 3-1 4h5zm88-3-1-1-1 1 1 1 1-1zm-62-3 9-4c0-2-10-3-17-1-5 2-8 4-7 6 1 3 5 2 15-1zm51-2 7-5-1-1-19 11c0 1 6-1 13-5zm-86 3v-1l-3 1v1l3-1zm67-1v-1l-2 1c-1 1 0 1 1 1l1-1zm51-4 9-6 5-4 2-1v-1l-1-2c1-3-1-3-6 0l-4 5c-1 3-1 4-6 5-9 3-15 9-8 7l9-3zm20 2 3-3c0-1-5 0-8 2-2 2-2 3-1 3l6-2zm-78-2h-6v2c1 1 6-1 6-2zm69 2v-1l-2 1c-1 1 0 1 1 1l1-1zm34-4c0-4-1-5-3-3v7c1 2 3 0 3-4zm-144 2-1-1-1 1 1 1 1-1zm83-2 4-3c0-3-2-3-7 0-4 2-4 3 0 5l3-2zm-34 0v-1l-2 1c-1 1 0 1 1 1l1-1zm80-1c3-2 3-4 0-4s-7 3-6 5c1 1 3 1 6-1zm-115-1c1-1-1-2-2-2-1 1 0 3 1 3l1-1zm148-8c-1-3-3-4-5-1l2 9c2 2 3-3 3-8zm-9 5c0-1-2-5-4-5s-2 3 0 5 3 2 4 0zm-92-1c4-2 4-3-1-2l-3 2h4zm13-1v-1l-2 1 1 1 1-1zm-52-1c3-2 6-4 5-5 0-2-9 2-10 4 0 2 1 2 5 1zm31-5c1-1 1-1-2-1l-5 2c-3 1-3 1-2 3s1 2 4 0l5-4zm37 4c2-2 1-3-1-3s-3 1-3 3h4zm48-4c-1-1-2 1-1 2h1v-2zm-74 1 1-1c0-2-3-1-6 0-1 2-1 2 1 2l4-1zm12 0c0-2-1-2-3-2l-1 2h4zm54-4-1-1-2 2 1 1 2-2zm20-10 3-4-5-2-4-2c-1-2-2-2-3-1s-1 1 1 3 2 2 1 6c0 2-2 4-3 5-2 2-1 2 1 5l2 2 2-4 5-8zm5 10c2-1 1-7-1-7s-4 5-3 7 2 2 4 0zm-67-1v-2c-1-1-9 1-7 3 0 1 7 1 7-1zm9 0v-1l-2 1c-1 1 0 1 1 1l1-1zm-110-2 6-6 5-5c2-1 3-2 2-3-1-2-2-1-6 4l-9 7c-5 1-7 3-7 4 0 2 5 1 9-1zm71-2 1-2c-3 0-10 3-9 4 1 2 6 0 8-2zm-50 1 2-1c0-2-5-1-6 1h4zm79-3c5-3 6-5 4-5-4 0-13 6-13 8 0 1 4 0 9-3zm32 3v-1l-3 1c-1 1 1 1 1 1l2-1zm-48-2v-1l-3 1v2l3-2zm-46-2c-1-1-5-2-5 0 0 1 4 3 5 2v-2zm78 0c3-2 3-3 1-4-2 0-8 4-9 6 0 2 5 1 8-2zm-61 1v-1l-2 1c-1 1 0 1 1 1l1-1zm95-2v-7l-3 2c-2 3-2 3-1 5 3 2 4 2 4 0zm-88 0-1-1-1 1 1 1 1-1zm18-2c0-1-2-3-4-2-1 1-1 2 1 3 1 2 3 2 3-1zm59 0 4-6c3-3 3-4 2-5-3-1-5 0-6 3l-2 3c-3 0-3 3-1 5 1 2 3 2 3 0zm-164-2-1-1-1 1 1 1 1-1zm46-1-1-1-1 1 1 1 1-1zm32 0c4-1 4-3 1-3s-6 2-5 3h4zm43-2c2-3 1-4-2-2s-4 3-2 4c1 2 3 1 4-2zm-62 0c3-2 3-3 0-3s-6 2-5 4c1 1 2 1 5-1zm82 0c2-2 1-4-2-2-2 1-3 4-1 4l3-2zm-52-1-2-1-1 1 1 1 2-1zm21-2c4-2 4-3 1-5-2-1-2-1-5 1l-3 3c0 2 2 4 3 4l4-3zm37 2v-1l-1 1v1l1-1zm-12-3h6c3 1 5 1 5-1 1-2 1-1-4-3-4-1-7-1-10 2-2 1-3 4-2 4l5-2zm-153-1c2-2 2-2 0-3-3-1-5 0-5 3 0 2 3 2 5 0zm92 0c2-2 0-3-3-1-2 3-2 3 0 3l3-2zm51-4h-2c-4 0-6 2-6 4 1 2 1 2 4-1l4-3zm-31 4c3-1 2-2-1-2-2 0-3 1-1 2h2zm-29-2c1-1-1-2-2-2-1 1 0 3 1 3l1-1zm-37-1-3-2-3 2 3 1 3-1zm58-1-1-1c-1 0-2 1-1 2s2 1 2-1zm75 1-1-1-2 1c-1 1 1 1 1 1l2-1zm30-4c3-2 1-3-7-3h-7l3 3c3 2 4 3 6 2l5-2zm-203 1 8-2c2 0 4-2 4-4-1-2-8-2-23-1-14 0-16 1-16 2 0 3 1 4 5 3s4-1 6 1c1 2 6 3 16 1zm-10-3 1-1 1 1-1 1-1-1zm32 3-1-1-1 1 1 1 1-1zm148-2c6 0 6-1 8-3l2-4c0-2-6-2-11-1s-5 1-3 3c3 2 0 2-7 1h-8c-2 0-1 2 2 4 3 1 5 2 7 1l10-1zm17 1-1-1-1 1 1 1 1-1zm-154-1c1-2 12-2 30-1 14 1 14 1 14-1s0-2 2-1c3 1 7 1 10-1s4-4 1-5c-6-2-64 4-67 7l2 2h8zm79-1 9-3c7 0 7 0 5 1-1 2-1 2 1 3 5 1 7 1 10-2 5-5 4-6-19-6-15 0-20 1-21 2-2 1 0 3 5 5s7 2 10 0zm102-2-2-2c-1 0-4 1-3 3 1 1 5 1 5-1zm-24-4c0-2-2-5-3-5v6c1 1 3 1 3-1zm16 1v-6c-1-3-1-3-3-2-1 2-2 3-1 5 0 2 0 2-2 2l-4 1h10zm-8-4-1-1-1 1 1 1 1-1zm-4-4-1-1-2 1c-1 1 1 1 1 1l2-1zm58 292 5-9 4-14v-5h6l9 1c2 0 2 1 0 1l-5 1c-5 1-6 3-13 16-5 9-6 11-6 9zm-252-1-1-8v-5c2 2 3 10 3 12s-1 2-2 1zm-48-6-1-11 3 10-1 3zm-15-3-1-5v-3l5 2c4 1 4 1 1 2-2 0-3 1-3 2l-1 2h-1zm22-6v-4c1 0 2 2 2 6 0 2-1 2-2-2zm31 2v-5l1-7 1-7c2-3 2-3 2 0l-3 20-1-1zm-60-3 1-1 2 1-2 1-1-1zm37-5c1-1 2-2 2 0l-1 1-1-1zm480-1v-9l1 3c0 5 1 5 6 2 5-2 6-2 6 2l1 3-2-2c-2-3-3-3-6 0-4 3-6 4-6 1zm-524 0c-2-1-1-4 0-4 2 0 3 2 3 4h-3zm51 0 1-1v1l-1 1v-1zm461-4c-4-4-7-10-6-15 1-4 3-2 3 4 1 7 2 8 3 6s2-1 4 4l1 5-5-4zm-396-2c-1-4 0-21 1-22l1 5c1 6 0 22-1 22l-1-5zm326 3 1-1 1 1-1 2-1-2zm-379-3 1-6c1-1 1-1 1 1l-1 6c-1 3-1 3-1-1zm340 2 3-4c5-3 5-8 2-10l-2-4-2-5c-2-2-2-3-2-12v-9l3 7c2 3 3 9 3 11l3 11c3 6 3 7 1 8l-1 3-3 3c-4 2-5 2-5 1zm2-29-1-1-1 1 1 1 1-1zm27 29-3-12c-2-12-3-14-6-14s-3 1-2 6l1 20c-1 0-3-7-4-15 0-6-1-7-2-7-2 0-2-1-2-5 0-5 0-6 3-4 2 2 5 2 5-1v-6l-1-9c0-4 0-4-2-4-3 1-4 0-5-12l1-16c2-9 2-19 1-20l-2 6c-1 2-1 2-2 0-1-4-1-6 2-10 1-2 2-5 2-11l2-9c1-1 1 0 1 5-1 5 0 6 1 7 2 1 2 2 2 12v11l3-14 2-8c5-5 5-6 4-8-1-3-3-2-3 2-2 6-3 4-3-5-1-7-1-9-3-13-3-4-3-8 0-4 2 2 5 2 5 0l2-1c3-1 2-3-4-8l-3-2h4c3 1 3 1 5-5 1-4 2-7 4-8 3-2 4-1 1 1v4h4c2-3 3-9 1-10-4-1-13 4-13 8l-1 4c-1 4-2 2-2-5-1-7 0-8 4-8 2 0 2-1 2-15 0-11 0-15 2-21 2-5 2-7 1-13l-1-12-2-10-2-12v-7l5-5c5-5 7-6 12-8 4-2 9-9 9-16v-6c-2-1-1-5 1-6l2-1 1 4c0 4 1 4 6-1 4-4 4-4 4-9v-6l9 4-2 2c-3 2-2 4 3 5l4 1-3 1c-5 0-5 0-2 3 1 3 1 3-2 6l-3 3 1-2 2-3-2-2c-3-2-3-2-5-1-2 2-3 3-3 6l-1 2c-2 0-1 3 1 3 3 0 4 3 3 6-1 1-1 1-4-1-2-2-2-2-3-1-1 3 1 5 4 7 3 1 3 1 5-1 1-2 3-3 3-1l2 2 5 3 3 4 1-2c1-3 2-3 4 0 2 2 3 3 5 3l5-1c1-2-2-4-4-4-2 1-3 0-4-3l-2-4h3l5 1c1 0 1-3-1-5l-1-4c0-2 0-2 2-1l4 5c1 3 1 3 4 1 2-1 2-1 2 1 0 3 0 3 3 3l3-1-1 5c0 6 1 7 6 7 7 0 10-1 11-4 1-2 3-2 3 1s2 3 4 0c1-3 1-3 2-1 1 3 3 3 6 2h11c4 1 5 1 6-2l1-3 3 2c4 3 6 4 6 2 0-1 1-1 1 1l4 2 7 1c3 0 3 0 3-2 0-5-1-6-9-10l-8-5 6 2 8 4c3 1 4 2 5 4l3 3 4 2c1 2 2 2 7 2 8 0 12 1 12 3l3 2c2 0 3 0 4-3 1-5 1-6 2-4 2 2 4 2 38 2 28 0 37 1 39 2h10a542 542 0 0 1 94 1c-7 1-7 1-6 3l21 2c16 0 20 0 19 1-1 2 4 3 14 3 6 0 7 0 5 1l-17 1-14 1-6 7-10 10c-6 4-6 7-1 7l3 1c1 1-18 20-26 25l-10 10-6 5c-1-1 2-4 5-7l7-7 3-3c4-1 14-12 19-18 2-4 0-5-6-2-4 3-4 3-7 1l-2-2 5-2c3 0 5-1 8-4l4-6 3-3c7-3 14-15 8-14-12 1-12 1-14 4l-1 6 1 4h-4c-4 0-5 0-9 3s-4 3-5 1l-8-1-8 1c-3 1-3-1 1-2l6-1 8-1h4c1 2 4 0 7-5 3-4 4-6 1-10-1-3-1-3-3-2l-6 4c-3 3-3 3-11 0-2-2-12-3-13-2l-4 5-3 4v-3c0-3-1-3-3-3l-5 1c-2 2-2 2-4 0s-4-2-9 0c-3 2-3 2-6 0l-2-3-3 4c-3 3-4 4-4 1-1-3-7-5-11-3-3 1-10 8-10 9 0 2 2 3 5 3 2 0 2 0 0 2s-3 2-5 0h-6c-3 1-4 1-5-1-2-3-3-6-1-6l2 2 2 3 6-5c4-5 4-5 1-5l-4 1c-2 1-2 1-2-1 0-4-1-4-5-3-5 1-6 1-4-2 1-3 3-3 9-1 5 1 6 1 7-4 1-4-3-4-32-4l-30 1-3 4c0 3 2 3 4 1l3-3 2 2c3 4 5 4 11 3h5c0 2 2 1 2-1 1-3 4-4 6-2v2l2 1c7 2 7 1 4 8-4 8-3 10 3 5 4-4 7-5 3-1-1 2-1 2 1 5l2 2-2-1-9-1h-6l6-10-2-1-3-2-5 4-3 5 5 6-2 3c-5 8-3 10 3 5l4-2c-3 3 0 4 6 1 3-1 3 2 0 4-3 3-17 20-17 22l3 1c1 0 3-1 5-5 5-8 11-14 11-10l-6 7c-7 6-8 9-3 9 3 0 4 1 4 3l-2 6c-4 3-4 5 0 5h4l-4 5-3 6c1 1 7-2 10-6l3-3-4-3 3-4c2-4 2-5-1-7-2-1-3-2-3-5 0-4 3-4 4-1 1 4 4 5 11 4l9-1h2l-1 3-6 1c-6 0-10 2-12 5-1 2 0 3 4 3h3l-4 5-5 6 2 2c4 3 7 2 15-5 10-10 12-11 5-4s-9 11-5 9h2l4-3c3-2 3-2 4-1 1 3-1 5-5 6-3 0-4 1-5 4l-2 7-1 7c-1 8-2 3-1-6v-9c-1-1-1-1-3 1s-2 7-1 10-2 8-3 7l-1-4c-1-4-3-6-6-6s-9 6-9 8c0 3-2-1-2-4-1-4-3-5-4-1a2800 2800 0 0 0-4 2c-1-4-4-4-5 0 0 4-2 3-2-2-1-4-1-4-3-2l-4 5c-1 3-3 3-3 0l-1-1c-2 0-4 5-5 11v5h4l8-3 4-3 1 2 2 3 1 3c1 0 3 0 7-3l5-3 2 3c0 2 1 3 2 3l5-3 4-3 2 3c2 3 3 3 9 1 7-2 6 0-1 2l-6 3-6-5-3 2c-4 3-6 3-9-1h-3c-2 2-9 4-15 4l-6 1h-6l-8 1c-3 2-6 7-6 12 0 3 1 4 3 6s2 2 4 0l3-6c1-5 3-6 3 0-1 5-4 8-9 10-9 2-13-1-13-12l-2-9c-1-3-1-3 1-7 1-4 1-4 3-2 1 2 2 2 6 1 5-2 8-5 8-10 0-2 0-3-2-3l-2 2-2-5-3-5c-2 0-4 5-4 11l-3 4c-2 0-2-1-1-5 0-5 0-5-2-5-3 0-4 2-2 7 1 4-2 14-4 14l-1-1 1-9 2-12 2-7c0-5 2-11 3-11l2 2c1 4 5 4 14 1l6-1 4 1c2 0 3-2 0-7-1-3-2-4-5-4l-5 1c-3 1-3 1-1-2 2-2 2-2 7-1l5 1 5-5 5-6-5-1-16-1 1-3c1-2 1-2-1-5l-3-3-5 6 2 1c3 2 3 2 1 5-2 4-1 5 2 5l3-1-4 4c-3 3-5 4-8 4l-5 2-18 7-1-3-2-3s-2 1-2 3-2 3-3 4v3c1 1 5 1 18-3 2 0 2 0 2 6s0 6-2 4c-2-3-3-2-3 4s-1 7-3 6c-3-2-5 0-3 3l2 3c0 1 1 1 3-1v3l-1 8v2l-6-5v3l-1 13c1 11 1 11 3 11 1 0 2 0 2-4l1-10c0-5 0-5 2-4s2 3 0 7c-1 3-1 3 1 7 2 5 2 5 0 5l-9 2c-7 3-9 3-11-1v-17c1 0 2 6 1 12 0 5 0 6 2 7l3-2c2-2 2-4 2-14v-12l-3 1c-2 1-3 1-4-1-2-2-2-2-4 1-2 2-3 3-4 2l-4-1c-3 0-3 0-3-3 1-4 0-7-2-7l-2 2-3 26c0 3-1 6-3 8-2 4-2 5-2 10 1 7 0 11-1 7l-1-5c0-5-3-12-4-11-2 2-3 8-3 15 0 5 0 7-2 8-3 3-5 2-7-1-2-4-4-4-7 0-2 3-4 4-6 4-3 0-4-1-4-2-1-1-1-2-2-1l-4-2c-3-2-4-1-3 5 1 5 6 14 8 13l1-4 1-3c2 1 1 7-1 10-2 2-2 4-2 9s0 6-1 5l-1-6-2-8-2 2c-2 1-2 3-2 9l-1 9c-3 2-2 7 1 9 2 2 2 2 3 0l3-5 1-4c2-1 2 3 1 7l-3 11c0 5 0 6 2 8l3 3c0 2-2 1-4-1s-3-3-2-8c0-5 0-5-3-6h-4c-2 1-2 0-2-4l1-15 2-20c0-8 0-10-2-11-2-2-5-3-5-1l2 2v14c-1 16-1 16-4 17-2 1-3 3-5 7l-2 5v-3c-1-4-2-3-4 1l-1 3-1-2c0-2-1-3-2-3l-5 4-4 3v25l-1 8 6-1 1-9c0-14 2-13 2 0 0 10 0 11-2 11l-4 1c-4 3-4 0-4-22v-20l-4 3c-5 4-5 6-2 13l1 5c-1 1-1 1-4-6-1-4-3-6-5-7s-3-3-1-4c2 0 6-12 6-17l-3-6c-2-2-3-2-3-1l1 3v3c-1 2-1 2-2 0l-2-10c0-6 0-8 2-9 1-1 1-1-1-3-1-1-1-1 1-6l3-5-3-4c-3-3-3-3-5-1v5c1 5 1 5-2 5-2 0-3 0-3 2l2 1c2 0 2 0 2 9-1 9-2 15-4 15l-1-1c0-2-2-1-3 2 0 2-1 3-3 4-2 0-3 3-1 5l-1 2-3 2 1-7c0-7 0-7 3-7 1 0 2-1 3-5 2-6 2-8 0-8l-2-2c0-1 1-2 4 0h3l1-4c0-1-1-2-6-2h-6v12c0 4 0 4-2 2l-1-4-1-2c-1 0-2 2-3 10a73 73 0 0 0 1 32c0 3 0 4 2 4s3 1 4 3c1 3 1 4 3 3l2-5c1-4 2-4 2-2v16c-1 2-4 0-4-2 0-3-2-3-4 0-2 2-2 4-1 7 0 2 0 2 3 0s3 0 0 4c-2 2-3 3-4 2zm1-20-1-1-1 1 1 1 1-1zm35-25 4-8v-13c-1-6-3-9-5-8-2 2-3 13-2 15v8c-1 8 0 10 3 6zm13-3c2-2 2-2 3-1 2 1 2 1 3-2l2-7c0-5 0-5-3-5s-4 1-4 7c0 2 0 2-1-1-2-5-5-5-6 0v10c1 2 4 2 6-1zm15-7c3-3 4-10 2-12-3-3-9 8-7 13 1 2 2 2 5-1zm-76-7-1-1-1 1 1 1 1-1zm7-3-1-2-1 3c0 2 0 3 1 2l1-3zm-6-3-1-3-1 3c0 2 0 3 1 2l1-2zm58 1-1-2h-3l-1 3c0 1 4 1 5-1zm12-2-2-10c-3-1-4 5-2 10 1 4 3 4 4 0zm-28-1 1-4 2-7c2-6 2-11 1-16s-3-5-4-1l-1 30 1-2zm33-2v-17l-2 15c0 4 1 5 2 2zm-64-7-4-7-2 1-2 2c-2 0-1 1 2 4 4 2 5 2 6 0zm42-4v-3c-1-2-2-1-3 3 0 5 1 5 3 0zm-32-1 1-6-1-3-3 5c-3 3-4 5-3 5 3 1 5 1 6-1zm48-5-1-4c-2-1-2-1-2 3 0 6 2 6 3 1zm53 0-1-2-2 2c0 2 2 2 3 0zm-37 0-1-1-1 1 1 1 1-1zm-74-3 2-5c2-2 2-2 0-5-4-5-5-4-5 4s1 10 3 6zm95-3c2-2 2-2 0-5-3-3-5-2-5 2s2 5 5 3zm-48-3c0-4-1-7-3-4l-1 4c0 4 3 4 4 0zm55 0c2-5 0-21-3-22v24c0 2 2 1 3-2zm9-2 1-6h-3c-2 1-3 3-3 6 0 6 2 7 5 0zm-70 1v-5h-3c-2 2-1 8 1 8l2-3zm-34 0-1-1-1 1 1 1 1-1zm57-2 2-9-1-7c-3 0-4 3-4 8 0 9 2 14 3 8zm21 1-1-1-2 1c0 2 3 2 3 0zm-11-3v-1l-2 1c-1 1 0 1 1 1l1-1zm-65-3-1-1v2h1v-1zm22-2-4-5c-4-3-4-4-4-10 0-8-2-14-2-7l-2 9v6c0 2 4 5 7 6 4 2 5 2 5 1zm-16-3-1-1-2 2 1 1 2-2zm74 0 2-3-2-9-3-9c-1 0-3 3-3 8-1 3-1 4 2 6 2 1 3 4 1 5v4l3-2zm22 0-3-5c-2 1-2 3-2 5 1 2 4 2 5 0zm-106-3c2-3 3-8 0-8h-1l-3 10c0 2 2 1 4-2zm48 0-1-5c-2-1-2-1-2 3l1 5 2-3zm70-1 1-13-2-12-4 14v10c1 3 3 4 5 1zm65-5c0-6-1-8-4-3v6c3 6 4 5 4-3zm-109 4-1-12v-11h-4l-4 1 4 17c2 6 3 7 5 5zm34-2c1-1 3-7 3-12 0-3 0-4-2-4s-4 2-4 9c-1 7 0 9 3 7zm-66-5c0-4-1-6-2-6v10c1 1 2 0 2-4zm13 2c3-1 2-4 0-5l-3-3c-1-3-3-5-5-4l1 3 2 6c1 4 2 4 5 3zm37 0c2-2 1-5-2-7l-2-3-1-3c-1-1-1 0-1 5l1 8h5zm-66-2-1-1-1 1s0 2 1 1l1-1zm76-1 1-9c0-6-1-7-3-7-1 0-2 1-2 9v9c0 2 2 0 4-2zm-39-2c0-2-1-3-3-1 0 1 1 4 2 3l1-2zm-68-8-2-3c-2 1-2 6-1 9l1 3 1-2 1-7zm36 7-1-1-1 1 1 1 1-1zm-25-1-2-1-1 1 2 1 1-1zm179-4c0-2-5-7-6-6-2 1-1 4 1 4s3 1 3 3 2 2 2-1zm-173-6-2-2v7c0 2 0 2 1 0l1-5zm19 1c0-3-1-5-2-3-2 3-1 7 1 7l1-4zm27-3c3-8 3-13 2-17l-1-3-1 3-1 6-2 7c-1 5-1 9 1 9 1 0 2-2 2-5zm133 3-1-2-2 2c0 2 2 2 3 0zm7-2-3-1c-2 0-3 1-1 2 1 1 4 1 4-1zm9 1-1-1-1 1 1 1 1-1zm-128-2-1-3-1 2 1 3 1-2zm15 1-2-8c-1 0-2 6-1 8h3zm-76-8c0-5 0-5-2-5s-2 1-2 3c0 4 2 9 3 8l1-6zm119 6-1-1-1 1 1 1 1-1zm14-3c2-2 3-8 1-11 0-1-1-1-3 1-3 2-4 6-2 11 0 3 1 2 4-1zm-79 0c0-2-1-5-3-5s-2 3-1 4c1 2 3 2 4 1zm31-2c1-2 2-4 1-6l-6-11v10c0 8 0 10 2 10l3-3zm33 0c3-3 3-4-1-10l-2-6 4 5c3 8 5 9 8 4l2-3c2 0 1-3-2-5l-2-4-2-1-7 1h-4v8c0 7 1 13 3 13l3-2zm-94 0v-1l-2 1c-1 1 0 1 1 1l1-1zm-37-5-1-4c-2 1-3 5-3 7 1 3 3 1 4-3zm6 4-3-2 2 3 1-1zm114-7h-2l-1 3h3v-3zm72 1c-1-2-3 0-2 2h2v-2zm-109 0c0-2-1-3-2-3l-1 3 1 2 2-2zm31-3-1-2c-1 0-3 4-2 6 0 2 3-1 3-4zm-52 2c2-1 0-5-1-5-2 0-3 4-2 5h3zm44-3-1-1-1 3h1l1-2zm-96-1-3-3v4l3-1zm61-1-1-1c-1 0-2 0-1 1l1 2 1-2zm17 0c-1-2-2-1-2 1h2v-1zm85 0-1-2c-1-2-2-1-2 1 1 2 3 3 3 1zm14-3-1-4h-3l-1 4c0 3 4 2 5 0zm-65-2 4-5c2-3 2-3 4-2l5 2c2-1 3-1 4-5l2-6c1-1 0-1-1-2-3 0-21 6-22 8l3 13 1-3zm78 0c0-2 1-2 2-1l3 2 3-8-5 1c-6 1-7 3-7 6 1 3 3 3 4 0zm-125 0-1-1-1 1 1 2c1 0 2-1 1-2zm118-2c0-3-1-5-3-4l2 8 1-4zm39-1c0-4 0-4-3-4-2 0-3 1-3 3 0 3 2 6 4 6 1-1 2-2 2-5zm-171 3-1-1-1 1 1 1 1-1zm5 0v-1l-1 1v1l1-1zm79-1c-1-2-3-3-3 0l2 2 1-2zm10 1-1-2c-1-1-1 0-1 1l1 2 1-1zm22-2-1-1-2 2 1 1 2-2zm45-1-1-3c-2 0-3 2-3 4 1 3 3 2 4-1zm16-2c0-1-2-2-2 0-1 1 0 3 1 2l1-2zm-23 0c-1-2-3-3-3 0l2 2 1-2zm-155-2-1-1-2 1 2 1 1-1zm31 0-1-1-1 1 1 1 1-1zm-86-6-1-10-1-5-1 6v14c1 2 2 1 3-5zm80 4c0-2-1-2-2-2-3 0-5 2-3 3s4 1 5-1zm27 1-1-1-1 1 1 1 1-1zm-66-2c7 0 10-2 10-4l-9-1c-13 1-15 2-15 4s1 3 4 2l10-1zm57 1-1-1c-1-1-1 0-1 1l1 1 1-1zm119-5c3-3 3-3 1-4h-4l-6 7c0 2 7 0 9-3zm-150 2-1-1-1 1v1l2-1zm36-1-1-1-2 1c0 2 2 2 3 0zm98 1c2 0 5-5 5-7l-1-2c-1-1-1-1-4 1l-4 2c-3 1-2 7 2 7l2-1zm-111-1v-2l-4 1v2l4-1zm-7-5c0-2-4-1-6 0v3c2 1 6-1 6-3zm-22 2-1-1-1 1 1 1 1-1zm-21-2-1-1-1 1 1 1 1-1zm25-1-2-1v1l1 1 1-1zm47-2c5-2 9-7 7-8-1-1-3-1-8 1-10 5-13 7-9 8 3 1 6 1 10-1zm20-1c2-3 3-3 4-2l2 1c1-1-3-5-6-5-5 0-15 6-12 8s8 1 12-2zm21 1 7-6c5-3 8-4 8-2l-3 2c-3 0-1 2 4 2 3 0 5-2 3-4l-1-4c-1-2-1-2-3-1l-5 1-8 4c-3 2-5 3-7 2-6-1-8 4-3 6 4 2 4 2 8 0zm-66-1c1-1 1-1-1-1l-3 2c0 1 3 1 4-1zm-37-1-2-1-3 2 2 1 3-2zm170-8c-1-3-11-1-13 3l1 4 2 3 5-4 5-6zm-139 6c1-2-1-3-4-2s-4 3-2 4 5-1 6-2zm-49 0c0-1-3-3-4-1l-1 2c1 1 4 1 5-1zm37-1c3-2 3-3-1-4-6-2-12 2-9 5 2 2 6 2 10-1zm27 0-1-1c-1-1-1 0-1 1l1 1 1-1zm7-2-1-1-1 1v1l2-1zm42-4v-1l-1 1v1l1-1zm-1-4c8-4 10-4 10-1v3c1 1 2 1 6-1l6-2c3 0 8-5 8-7 0-3-1-3-4 0l-2 2-1-2c-1-2-2-2-4-2l-7 2h-4l2-2c2-3 5-4 7-2 1 2 2 0 1-5 0-4 0-5 2-6l6-7c3-4 3-5 1-6-2-2-4-1-6 1l-4 1-6 3c-5 4-7 4-3-1l3-4 4-4 5-4v-4c-2-2-2-2-7 2-3 2-5 5-5 7l-5 6c-4 3-4 3-4 1 0-3 3-9 6-13s3-5 0-6l-3 2-18 19 1-3 13-15c-1-1-3 0-5 2l-6 3-3 4c-2 4-2 4-5 3-2-1-2-1 1-5l7-4c3-1 4-2 3-3l-5-3-3-1-6 6c-6 6-9 10-9 14 0 2-1 3-2 3-2 0-6 4-5 4l5 2c3 0 5 0 7-3l4-2 1 2c1 3 2 3 11 1h22c2-1 2-1 1 1l-4 4c-2 3-3 3-3 2 0-2-3-3-4-1 0 1-1 1-1-1-1-2-3-3-6-1-2 1 0 5 5 7 5 4 5 6 1 8-2 0-3 0-4-2-2-3-4-3-4 0 2 6 2 7 1 7a13269 13269 0 0 0-4 3c2 3 4 2 12-2zm-29-33 2-2 1 1-2 3-1-2zm-17 35-3-1-4 1 2 1 5-1zm28-3c5-2 6-3 6-5l-2-4c-2 0-11 4-14 7-2 2-2 3-1 4 2 2 3 2 11-2zm-35-3c3-1 3-3 0-3l-16 8 16-5zm-40 2c2-2 3-3 1-3s-5 3-5 4 2 1 4-1zm56-1 6-2c3 0 7-3 7-5l-2-1-9 2c-6 1-12 3-13 5l6 4 5-3zm100 1 3-3 6-8 6-7c0-2-3-2-6-1-2 1-4 2-6 1-3 0-6 1-5 3l3 1h3l-5 6-6 5 1-2v-2c-1-2-3-1-6 1l-3 3v-2c0-2 0-3-2-3l-5 2c-2 2-2 2-1 4 2 3 3 3 10 3l9 1 4-2zm-143-3 7-7c6-3 7-6 2-5-3 1-3 1-2-1 2-2 2-3-1-2-1 1-2 2-1 3l-2 3c-6 3-13 10-12 12 2 2 6 1 9-3zm12 2c2-2 2-3 1-4l-7 3c0 3 3 4 6 1zm-32 0c4-1 9-6 7-6l-6 1c-5 1-6 2-9 1-5-2-7-1-7 1 0 1 1 2 5 3h10zm-39-6c-1-1-1-1-1 1s1 4 2 1l-1-2zm63 3-1-1-1 1 1 1 1-1zm117-6c2-1 4-2 8 0 2 1 2 1 5-2 4-5 4-6-2-6l-6-1c0-1-2 0-5 4-4 5-4 7-2 7l2-2zm-140 0-1-1-1 1v1l2-1zm136-3c2-4 2-4 1-5-2-1-2-2 0-5 1-2 2-4 6-5 4-2 5-3 5-5l3-7c3-3 4-3 9-3s7-1 5-4l-4-1c-2 1-4 0-7-1-5-3-5-3-5 1 0 1-1 4-3 5-3 3-3 4-2 6 1 4 0 4-5 2h-7c-3 2-4 5-2 6l2-1h3c1 1 1 1-1 3l-2 4c0 2-1 3-3 4-4 2-8 5-7 6h8c1-1 1-1 1 1 0 4 2 4 5-1zm-79 1c0-3-2-3-5 0l-2 2h3l4-2zm10 0c5-1 8-4 8-6l-4-1-8 5c-3 3-4 4-2 4l6-2zm-29-1-2 1c-1 1-1 1 0 0l2-1zm11-1c2-2 2-2 1-4-2-1-3-1-5 2-2 2-3 3-2 4 2 1 2 1 6-2zm35 1c2 0 3-2 3-3l-5-1c-5 1-9 4-7 5s5 1 9-1zm-71-3c1-1 0-2-2-4-2-3-4-2-2 0v4c-3 2-2 4 1 3l3-3zm-28 1c1-1 0-2-2-1l-1 2c0 1 2 1 3-1zm34 1h-2v1l2-1zm105-5c2-1 3-5 1-5l-6 6c0 2 2 2 5-1zm-130 0-1-2c-2 0-4 2-3 3s3 0 4-1zm-39-5c0-4 1-5 3-5 3-1 4-4 2-6-1-1-3 0-6 2-4 3-5 4-5 6 0 3 0 4-2 3l1 2 4 3 3-5zm210-2 5-5-3-2c-3-2-5-3-5-1l-2 3c-2 2-2 2-2-3 0-3-1-5-2-5l-2 1-4 7-3 7 4 1c3-1 4 0 4 1 1 2 5 1 10-4zm-189 2c0-2-4-3-7-2v2c2 2 7 2 7 0zm61 0-1-1-2 2 1 1 2-2zm10 0c2-1 6-7 6-9s-3-1-7 4c-5 5-5 7-3 7l4-2zm-46 0c3-1 5-4 4-5s-6 3-7 5h3zm27-1-1-1-2 2 1 1 2-2zm30-1c3-3 14-16 14-19l-2-2c-3-2-3-2-4 0l-3 6-8 11c-3 5-4 6-2 6l5-2zm-43 0 2-1c0-2-3-1-6 0-1 2-1 2 1 2l3-1zm22-2 6-3 3-3 1-2-6 1c-5 2-11 7-10 9 1 1 2 1 6-2zm-46-1c3-3 2-5-2-2-2 2-3 5-1 5l3-3zm9 0v-2c-2 0-5 2-5 3 0 2 3 1 5-1zm28-2c5-3 5-4 1-4-3 0-7 3-7 6l6-2zm-44 0-2-1-2 1c0 2 3 2 4 0zm-37-4-1-3c-2 1-2 3-2 6 1 2 3 0 3-3zm71 1v-2c-2 0-5 1-4 3 1 1 3 1 4-1zm-32-6c1-4 0-6-3-4-3 3-3 8 0 8l3-4zm5 3-1-1-1 1v1l2-1zm56-5c5-7 4-7-6-7-7 1-9 2-12 4-4 2-7 6-5 7 1 2 9-1 13-4 4-4 7-5 7-4l-2 4c-1 3-1 7 1 5l4-5zm76 3c2-2 2-2 4-1 2 2 2 2 6-1 5-4 5-5 2-6-4-1-4-2 1-4 3-2 4-5 1-7-2-1-2-1-5 1-2 1-4 2-9 2l-8-1-1-1c3 0 1-2-1-2-4 0-6 1-5 2 1 3-3 3-5 0-1-2-2-2-7-2-13 0-17 3-8 6l38 4c1 0 0 2-3 5-4 4-5 8-3 8l3-3zm16-2c-2-1-3 2-2 3 0 1 1 1 2-1v-2zm-132-2c0-2-2-1-4 1-3 2-2 4 1 2l3-3zm9 2 3-4c1-2 1-2-1-1-4 2-6 4-6 6 0 1 1 1 4-1zm45 0c4-3 4-4 0-6-5-2-7-2-7 2 0 3 1 6 3 6l4-2zm84-5c1-1 0-2-3-2-2 0-3 1-2 3 2 1 5 1 5-1zm-193-1-1-1-1 1 1 1 1-1zm291-3c0-2 2-3 6-1l15-1 20-1c8-1 9-1 10-3 2-2 2-1 2 2l1 3c2-1 2-6 0-8-1-2-2-2-15-2l-41 2-26 1-3 3c-2 3-2 5 1 6l3-3c2-2 2-2 4-1l8 2c5 1 6 1 6-1 0-4 3-3 4 1l3 3 2-2zm-294-1c2-2 2-2 0-4v-4c1-1 1-1-1-1l-8 3 3 3c3 1 3 1 2 2-2 0-2 1-1 2s4 1 5-1zm42-1 11-4c3 0 4 0 5 2s2 2 5 2l6-3c3-4 1-7-3-3-2 2-2 2-7 0h-11c-14 2-19 5-16 7 1 1 2 1 10-1zm350 1-1-1-1 1v1l2-1zm-265-2 2-3v-4l-20-1c-25 1-30 2-30 4s3 2 11 1c8-2 13-1 7 1-4 1-5 3-2 3l8-1h12c7 2 11 2 12 0zm-9-2 2-1v1h-2zm-92-5-2-1v1l1 1 1-1zm8-2 4-2c-1-1-7-3-8-2-2 0-3 3-2 4h6zm33-5c0-5-1-6-5-4-2 1-3 2-3 4 0 3 1 4 4 4 3-1 4-1 4-4zm-47 0-1-1-1 1v1l2-1zM268 756c-10-2-9-2 2-2 10 0 13 1 9 2h-11zm87 0c-1-1 3-1 12-1h14c-1 1-25 2-26 1zm198-1-1-7c0-5 2-3 3 3 0 5-1 7-2 4zm-220 0c-2-1-2-1 0-1 1 0 3-2 6-8s5-9 8-10l2-1c0 2-2 3-3 5l-3 3-3 4c-1 2-2 4-1 5 1 3 3 2 4-2 2-5 3-5 5 0l2 4-6 1h-11zm174-6c-2-14-2-16-1-16s1-1 2 9l1 11v2l-2-6zm11 4v-2c1-1 3 1 3 2 0 2-2 2-3 0zm27 1-1-3c0-2 0-2 1-1v4zm-302-2-8-1c-8 0-12-1-11-2l3-1c5 0 11-4 18-11l8-7-2 3-6 9-5 5 3 3c2 2 3 4 0 2zm-47-2h5l4 1h-5c-3 0-5 0-4-1zm-20-1-1-4v-5c2-1 2-1 2 4 0 6 0 7-1 5zm150-2 10-10 3-2-2 3c-2 4-11 11-11 9zm216-6 1-7v9c-1 3-1 2-1-2zm-432 3-2-2c-2-1-3-2-3-5-1-5-1-6 1-2 1 3 2 4 4 5s3 3 1 4h-1zm8-3c-1-3 0-9 1-7v10l-1-3zm5 2 2-9 1-2c0 5-3 14-3 11zm473-1-2-7c0-3-3-6-3-7-1 0-3 1-5 4-5 5-5 5-6 3-2-2-3-9-1-8l1 4 1 3 5-5c7-7 7-7 9 4l3 8 7-6c0-3 2-2 4 2 3 6 3 7-1 3l-3-2-3 3c-4 3-5 4-6 1zm-81-2-1-3c1-1 3 2 3 3 0 2-1 2-2 0zm107-2c-3-2-1-2 4 0 3 2 3 2 1 2l-5-2zm-168-1c0-1 0-2 1-1v2l-1-1zm-363-2c0-1 0-2 1-1v2l-1-1zm6 1 3-2c1 0 0 3-2 3l-1-1zm539 0 1-1 1 1-1 1-1-1zm-82-1 2-2v1c-1 2-2 3-2 1zm-483-3 1-1 2 1c1 1-1 1-1 1l-2-1zm117-2c-1-2-1-3 1-4l2-3v5c0 4-1 5-3 2zm352-1-1-3h2c2 2 3 4 1 4l-2-1zm70 0c-1-1 0-3 1-3v3h-1zm-61-6c0-2 0-3 1-1v4c-1 1-1 0-1-3zm-432-1c-2 0-2-1 0-3l2-1v5l-2-1zm82-7-1-8c-2-3 1-2 2 1 2 4 3 4 4 0l2-2c2-1 3-1 3-5s1-4 1-2l1 7c0 3 0 4-2 5s-3 3-3 5 0 2-2 1c-1 0-2 0-3 3 0 2-1 1-2-5zm294 4 3-7c2-5 2-5 3-3 0 3-2 11-4 12l-2-2zm-385 0-1-3c0-3 2-2 3 0 0 2-1 4-2 3zm360 0c-1-2 0-7 1-7v4c0 4-1 4-1 3zm-343-4c0-4 0-4 1-3v7l-1-4zm-42 2 1-1 1 1-1 1-1-1zm421-1 1-3 2-5c1-5 3-3 2 2-1 4-5 8-5 6zm-157-1 6-8 8-3-1 2c0 1-1 2-2 1l-7 4-4 4zm113 0 1-2c1-1 1-1 1 1l-1 2-1-1zm-343-3v-3l2-1v5c-1 1-1 1-2-1zm149 0 3-3-1 2c-3 3-4 4-2 1zm313-5c-2-6-3-13-1-14l3 10v9l-2-5zm-525 2h3c1 1 1 1-1 1l-2-1zm19-1v-1l1 1v1l-1-1zm518 0c-4 0-5-1-3-3h6c1-1 1-1 1 1v3l-4-1zm14-2v-3l2 2 2 3-2 1c-2 0-2-1-2-3zm12 1c-2-1-1-2 3-2 3 0 4 1 3 2h-6zm-158-2-1-9c0-8 2-6 3 3 0 6-1 10-2 6zm-244-3-1-3c0-1 0-2 2-1l1 3c0 2-1 3-2 1zm-11-1 1-2c1-1 1 0 1 1l-1 1h-1zm-153-3v-2h4c2 0 2 0 0 2s-2 2-4 0zm236-13 16-20c1 1-5 11-12 18a1320 1320 0 0 0-4 2zm309 7 1-12c1-4 1-5 1-2a932 932 0 0 0 4 10c2 0 2-1 3-6 0-8 2-8 2-1 0 5 0 6-3 9l-5 3-2 4c-2 3-2 3-1-5zm-9 6 1-4c1-2 1-2 2-1v3c-1 3-3 4-3 2zm-487-1 1-2c1-1 1 0 1 1l-1 2-1-1zm-41-1c1-1 6 0 6 1h-3l-3-1zm55-2c-1-2-1-3 1-3s4 2 4 4c0 1-5 1-5-1zm255 0-1-1c2 0 4 2 3 2l-2-1zm248 0c-3-3-3-4-2-4l1 1 2 3 1 1-2-1zm-513 0 1-3h2v3h-3zm503 0 1-2-1 2c-1 1-1 1 0 0zm15-2 3-6c2 0 1 6-1 7l-2-1zm-243-8 2-4c3-3 5-1 2 2-2 3-4 4-4 2zm80-5c-4-5-4-9-1-5l5 3c2 0 3 1 1 4-1 3-2 2-5-2zm-384 0c1-2 2-2 3 0l-1 2-2-2zm44-5c0-9 1-17 2-17l1 6c0 6 1 8 3 3l3-3c1 1 0 2-1 4l-1 8c0 5 0 6-2 4-2-3-3-3-4 0-1 2-1 1-1-5zm-9 2-2-7c-1-5-3-7-6-7-2 0-2 0-1-1l4-1c4 1 5 5 7 13 0 5 0 6-2 3zm119-1c-1-3-1-3 1-3s2 0 1 3c-1 2-1 2-2 0zm146-2-2-1 2-3c3-3 4-2 3 2 0 2-1 3-3 2zm-130-4c-3-6-4-14-1-20 1-5 3-5 3-2 1 2 0 3-2 5-3 3-3 5 1 7l2 7v5l-3-2zm369-2-2-4 1 1c4 6 5 6 7 5 3-2 4-1 2 0-2 3-5 2-8-2zm15-1-2-3c0-2 0-2 2 0l2 2 8-5 1 3 1 2c-1 1-11 2-12 1zm-246-2c0-1-2-2-9-4-15-3-15-3-4-2l15 1c5 1 6 0 8-1 2-2 5-3 5-1 1 1-12 9-14 9l-1-2zm-77-1-1-3c0-2-1-2-2-2l-4-1c-1-1 0-1 4-1 6 0 8 1 7 5-2 2-3 3-4 2zm-221-3c-1-1-1-1 0 0l2 2-2-2zm203-2 1-1 1 1-1 1-1-1zm28 0 7-1 5 1-6 1-6-1zm296 0 1-3c1-2 1-2 1 1l-1 2h-1zm-200-1 3-1c5 0 10-4 13-9 2-4 3-5 5-5 3 0 3 1 0 4-3 5-3 8 1 8l6 1h2l-2 1-28 1zm-299-4c2-4 1-5-5-4-6 0-8-1-6-4l1-9c0-8 0-8 3 1 2 6 2 6 9 8l1 5c0 5 0 6-2 6s-2 0-1-3zm228 1c0-1 8-10 10-10l-3 7c-3 4-6 6-7 3zm-265-3c0-2 0-2 1-1v3c-1 1-1 0-1-2zm-20-3 1-1 1 1-2 1v-1zm11-2-1-2 4 3c0 1-2 1-3-1zm555 1c-4-1-6-4-6-8v-3l1 4c1 3 5 6 10 6l2 1h-7zm-528-1-2-7-2-7 2 1c3 2 6 8 5 11 0 3-3 4-3 2zm184-3 1-1 1 1-1 1-1-1zm382-1c-2-5 0-14 2-14l-1 4v8c0 4 0 5-1 2zm-586 0 1-1 1 1-1 1-1-1zm635-4c-3-2-3-2-6-1l-4 2c-2 0-3-4-2-6s1-2 1 0c0 3 2 3 6 1l4-2 1 2c2 2 3 3 6 2h4l-3 2c-3 2-3 2-7 0zm13 0-2-2h11c4-1 4 0-1 2-4 2-5 2-8 0zm-98-3c0-1 0-2 1-1v2l-1-1zm-542-3 1-2 1 2-1 2-1-2zm664 0 2-1v1l-1 1-1-1zm-649-2h1v2l-1-2zm6-7c1-5 0-8-1-11-3-3-7-5-9-3-2 1-3 1-6-3l-3-4c0-1 6-2 7-1l1 2c1 3 2 2 3-1s1-4-1-6l-2-5 4 1c3 1 3 1 3 5s0 4 2 5l5-3c4-4 7-3 9 3 0 2 0 3-3 3-2 0-2 1-2 3v5c1 1 1 2-1 3-3 1-3 2-4 7l-2 3v-3zm9-22-1-1-1 1 1 1 1-1zm-21 21 1-1c1 1 1 2-1 2v-1zm-25-3 1-1 1 1-2 1v-1zm306-4c0-2 11-13 11-11l-5 6c-3 4-6 6-6 5zm391-3 1-1 1 1-1 1-1-1zm-681-3v-3l1 2c0 3-1 4-1 1zm645-5 1-2v3c-1 1-1 1-1-1zm30 0 1-1 1 1-1 1-1-1zm-6-2c-1-2 1-10 3-12 1-1 1-1 1 1 0 5 2 3 8-4s8-8 8-6 3 2 8 0c3-1 4-1 3 1l-3 2-2 4c0 4 2 5 3 2 2-3 3-3 3 1a643 643 0 0 0-6 5c-2 0-2 0-2-3 0-4-1-6-3-6s-2 1-2 3l-1 4c-1 1-1 0-1-3s0-4-2-4l-3 3-6 7c-4 2-5 4-4 5 0 2-1 3-2 0zm15 0 1-1 1 1-1 1-1-1zm-692-2c1-2 3-2 3-1l-2 2-1-1zm744 0-1-2h1l1 2h-1zm-440-3-6-1-8-1c-2-1-2-1 2-1 7 0 17 2 17 3 0 2-3 2-5 0zm386-1h1v2l-1-2zm20 0 1-1 2 1c1 2 1 2-1 2l-2-2zm-378-1 4-1c3 0 3 0 2 1h-6zm29 0 4-1c3 0 4 0 3 1h-7zm367-2-2-6 1-5 3 1c2 2 4 1 8-3 5-3 6-4 6-2l3 6c2 4 2 6-1 3-2-1-2-1-3 1l-2 2v-2c-1-2-1-2-2-1l-1 5c0 2 0 3-2 3l-2-4c0-2-1-3-2-3-3 0-4 3-2 5s2 3 0 3c0 0-2-1-2-3zm-10 1c-2-2-2-10-1-10s4 4 5 8c0 2 0 3-2 3l-2-1zm-375-1c-2-1-1-2 3-6 4-5 6-5 3-1-2 4-6 8-6 7zm419 0 1-2c1-1 1-1 1 1s-1 2-2 1zm2-10c3-2 9-3 11-1s0 3-3 1h-5c-3 3-5 2-3 0zm-7-3c1-2 4-5 4-3l-3 3c-2 2-2 2-1 0zm-44 1 2-2c1-1 1-1 0 0l-2 2zm-18-8-6-1c-1 0 1-3 4-5l3-2c-3 3-2 4 2 4 2 1 4 1 7-1l3-1-3 3-4 4-6-1zm39 0c-3-2-1-3 2-3l6-2 3-1c4 3-7 8-11 6zm-18-2-4-1 5-3c3-2 5-3 7-2l2 1-5 6-5-1zm-45-1 1-1 1 1-1 1-1-1zm93 0c-3-1-3-3 1-3s7 1 6 3h-7zm-16-8v-7l1 1 3 2c2 0 2 0 1 1-2 2-6 5-5 3zm-468-8c0-8 1-11 3-6 0 5 0 12-2 13l-1-7zm406 6c0-1 7-3 8-2 3 1 0 3-4 3l-4-1zm-318-1c0-2 4-3 14-4l12 1c1 1-2 1-9 1l-13 1c-3 2-4 2-4 1zm333-3c0-3 0-3 3-1 1 1 2 1 1 3-2 2-4 1-4-2zm24 1 3-1c2 0 3 0 2 1l-3 1-2-1zm10 0c0-2 2-3 5-3 2 0 1 1-2 3h-3zm-421-1 1-1 2 1-2 1-1-1zm10-1c-2-2 0-2 4-2 3 1 4 1 3 3-2 1-5 1-7-1zm-317-1 2-3c2-2 2-2 1 1-1 2-3 4-3 2zm24 0v-1h4c0 1-2 2-4 1zm33-2c-1-1-1-2 1-3 2 0 9 2 8 3h-9zm287-1 2-6 2-8c-1-1 0-1 1-1 2 0 3 1 4 3s0 2-1 2c-4 0-5 2-3 5 1 2 1 2-1 4s-3 2-4 1zm-63-6c0-5 0-6 6-13 5-5 7-8 7-10s0-3 2-2c2 0 3-1 5-3l2-5c0-2 0-2 2-1h4c3-1 4-4 2-4v-3c1-2 2-4 1-6 0-4 2-4 3 0s0 14-1 15l-4 2-6 5c-2 1-3 2-3 4s0 2-1 1c-2-1-2-1-4 3l-3 4-3 5-2 4-4 5-3 4zm398 3-1-2h-4c-4 3-4 2-1-2l4-4 2 2c1 3 4 4 5 2 2-2 4-1 3 0-1 3-8 6-8 4zm26 0-4-2-2-1c2-2 9 0 8 3h-2zm19-1-6-3c-1-2-3-3-4-2-2 0-2 0 0-3v-4c-1-1-2 0-5 2-4 3-4 1 1-3 3-4 3-4 4-3l3 2c4 0 10-6 10-9l2-4 2-3v4l-1 3c-2 2-11 14-11 16l1 3c2 1 2 1 5-2l10-10c3-1 4 2 1 3s-8 5-10 8c-1 3-1 3 2 4 5 2 2 3-4 1zm11-1c-2-2 1-4 5-2 2 1 2 1 1 2-2 2-4 2-6 0zm13 0 1-1 1 1v1l-2-1zm10-1 2-3c2-1 2 0 0 3l-3 2zm-102-2c4-2 6-6 4-7v-1a1995 1995 0 0 0 14-3l3-3 1 2 3 4c1 2 0 3-2 1h-11c-2 0-5 1-5 3l2 1c2 0 4 2 2 3l-8 1-7 1 4-2zm-389-5 1-9c0-4 1-4 2-3 2 3 2 8-1 12l-2 3v-3zm478 0-1-3c-1-2 0-3 2-5 3-2 4-2 2 1v4c0 2-2 5-3 3zm-739 0 20-8-3 4c-4 4-4 4-10 4h-7zm644-3 5-7v2c0 3-4 8-5 8v-3zm39-1c-3-3-3-5 1-2l4 1c3-1 7-6 11-12l4-2c2 0-9 14-13 16s-4 2-7-1zm-705 1-3-1 3-1c4-1 11-1 12 1 2 2-6 2-12 1zm290 0 1-4c3-5 1-10-5-10-2 0-3-1-3-2 0-2 3-2 7 0 7 3 9 10 4 14-3 3-4 4-4 2zm479 0 3-1v1l-2 1-1-1zM96 525l-12-1c-7 0-7 0-4-2l12-2 12-1h6l2 3h-6c-1-1-6 0-6 1l1 2h-5zm-35-2v-2c2-1 3 1 1 2h-1zm-22-1 7-1 6 1-7 1-6-1zm331 0v-4c2-4 2-4-1-5l-2-2 6-2c5-1 5-2 7-5 1-4 3-5 6-3 1 1 0 2-3 6l-6 5-4 6-3 4zm408-3 3-2-4 5 1-3zm-12 1c-1-2 0-3 2-3s3 1 1 3h-3zm33-1c-1-1-1-1 2-3l5-2c1 1 1 1-1 3-2 3-3 4-6 2zm18-2c1-3 3-5 4-5 2 0-1 4-3 5h-1zm-355-1c0-2 5-3 7-2s2 1 1 2h-8zm-47-3-2-3 22 2-7 1-9 1c0 2-1 2-4-1zm-350 1 2-1c1 0 2 0 1 1l-1 1-2-1zm288-1c-3 0-4 0-3-2 1-4 2-5 5-5l4 2 3 2 1 2c-1 2-3 2-10 1zm88 0 4-1c2 0 2 0 1 1h-5zM5 510l-3-2c0-2 8-2 19-1 5 1 5 1 3 2-2 2-14 2-19 1zm36 0-1-3 2-2c2 0 2 0 2 3-1 2-2 4-3 2zm413 0c0-1 2-3 3-2l-1 2h-2zm-53-7 2-3 2-2-2-3-8-5-6-3 2-6 2-5 2 3c0 2 1 3 2 3l4-3c3-3 3-3 2-5v-7c2 1 5 5 6 9 0 4 0 4-7 6l-2 3c0 2 0 3 3 3 4 0 6 1 3 2s-4 3-1 5c3 1 3 4 0 7-3 2-4 2-4 1zm328-2 1-1 1 1-1 1-1-1zm-694-3-1-2-5 2-16 2c-11 0-13-1-13-3l8-2a690 690 0 0 0 28 0c6 1 7 2 5 4-2 3-5 2-6-1zm322 2c-2-1-1-3 2-3l2 1c0 2-4 3-4 2zm540 0h2l-2 1v-1zm-429-1 4-6c2 0 1 2-1 4l-3 2zm-95-1v-5c0-5 0-6-2-8-3-3-8-4-12-2-3 2-6 2-6 0s7-3 17-4l11 1-3 2h-2l3 3c2 1 2 2 1 3-2 2-1 3 4 3 6 0 6 0 6 3v3l-3-2c-5-2-10-2-12 1l-2 2zm1-16-1-1-1 1 1 1 1-1zm37 12 1-3c2-2 3 0 1 2l-2 1zm48 0 1-2c2-1 2-1 2 1l-2 2-1-1zm428 0 4-1c2 0 3 0 2 1l-3 1-3-1zm-601-5c-3-3-3-4-2-5s2-1 5 3 4 6 2 6l-5-4zm77 2 1-1 2 1-1 1-2-1zm-303-2 1-1 2 1-2 1-1-1zm32-1 2-1c2 1 3 3 0 3l-2-2zm22 1c-1-1 1-3 3-3l3 1v2h-6zm128 0 3-2c2 1 1 3-1 3l-2-1zm-111-2 1-1 3 1c1 2 1 2-1 2s-3-1-3-2zm71 0c1-3 0-4-3-4-4 0-2-2 3-3h11v3c-1 3-5 4-5 1l-3 2c-3 3-5 4-3 1zm30-2 8-3-3 3c-3 3-4 4-8 4h-4zm44 3c-1-1 0-3 2-3s3 2 0 3h-2zm138-2v-3c1-1 4 1 4 3 0 3-2 3-4 0zm155 1 1-2 1 2-1 2-1-2zm-421 0c-2 0 0-2 2-2l2 1c0 2-1 2-4 1zm150 0c-2-2-2-2 1-5 6-6 8-5 4 2-2 4-3 5-5 3zm-249-1c-2-1-1-3 2-3s4 2 1 3l-1 1-2-1zm128 0h2l-2 1v-1zm-140-1 1-1 2 1-1 1-2-1zm30 0c-2-1-1-2 2-2l3 1c-1 2-4 2-5 1zm186 0 2-1 2 1-2 1-2-1zm-174-1c1-2 3-3 6-2v2h-6zm20-1v-2l3 2h-3zm557 0 1-2c1-1 1-1 1 1s-1 2-2 1zm-542-1c0-2 3-3 4-1l-1 1h-3zm419 0-1-2-2-1c-3 0-3-1 1-6 2-4 5-5 6-2 2 4 1 10 0 11h-4zm40 0h8c1 1 0 1-3 1l-5-1zm-149-4c1-5 2-5 5-5h2l-3 4c-3 6-4 6-4 1zm-365 2v-2h2c2 1 0 3-2 2zm13-2 1-2 3 1c1 2 0 3-2 3s-2-1-2-2zm194 0c3-2 5-3 5-1s-2 3-5 3v-2zm-171-1c0-2 0-2 2-1v2c-1 1-1 0-2-1zm53 1h3l-2 1c-2 0-2 0-1-1zm99 0v-2l3 2h-3zm203 0-6-1h14l-8 1zm19-1c-2-2-2-3 2-8 3-4 5-4 1 1l-2 4c0 1 3 3 6 3l2 1c0 2-7 1-9-1zm134 1c-3 0-3-1 1-5 2-2 4-3 9-4l7 1c1 3-5 6-8 4-2-1-5 0-5 2s-1 3-4 2zm-311-2c-1-2 2-4 3-2l2 3c0 1-4 1-5-1zm49 1v-6c2-2 3-1 6 1l3 3-2 1c-5 2-7 2-7 1zm76-1c-1-1-1-5 1-6 1 0 3 6 2 7 0 1-2 1-3-1zm221 1 1-1 1 1-1 1-1-1zm-66-3c0-2 0-4 2-4v6c-1 1-1 0-2-2zm75 1c-4-3-4-4 1-4 3 0 4 0 3 1l-1 3c0 2-1 1-3 0zm11 1v-3c2-2 4-1 4 2 0 2-2 2-4 1zm-470-1 3-2c3 0 3-1 3-4s0-3 2-3c4 0 5 2 3 5l-3 4h-8zm34 0 12-2c4 2 2 3-6 3-5 0-7 0-6-1zm-14-1c0-1 5-5 7-5s1 3-1 4c-3 2-6 2-6 1zm103-1h1v2l-1-2zm24 1h2l-2 1v-1zm477 0h2l-1 1c-1 0-2 0-1-1zm-775-1c0-1 4-2 5-1 3 1 2 2-2 2l-3-1zm17 0-1-1h1l1 1h-1zm10-1 4-1c2 0 3 0 2 1l-3 1-3-1zm44 0 1-1 1 1-1 1-1-1zm258 0h6l5 1h-6c-4 0-6 0-5-1zm18 0v-2l5-1h3l-2 2c-3 2-4 2-6 1zm175 0v-2l2 1c1 1-2 2-2 1zm31 0 1-1 1 1v1l-2-1zm-509-1 1-1 1 1-1 1-1-1zm162-1v-3a1470 1470 0 0 1-4-3c2-2 4-1 8 0 4 2 4 4 1 4l-3 2-2 2v-2zm25 0c-1-1 1-2 3-3l4-4c0-2 1-3 3-2 2 2 1 5-4 7l-6 2zm86-3c-1-4 0-5 1-3 3 4 9 1 9-4 0-4 3-4 6-1l6 3c7 2 5 3-3 2h-7l-3 3c-4 5-8 5-9 0zm-255 2c-1-3 0-4 2-3s2 2 1 3h-3zm214 0c1-2 5-2 5-1s-1 2-3 2l-2-1zm118-2c0-1-1-2-3-2l-4-1c-3-2-9-2-11 0s-4 2-4 0l3-3c4-1 15 0 21 1l6 2c2-1 2 0 0 3-4 4-7 4-8 0zm-289 1c0-1 3-2 13-3l7-1c1-1 2 0 2 1s-6 3-14 3h-8zm-12-1 1-1 1 1-1 1-1-1zm99 0 2-1 1 1-1 1-2-1zm105 0c1-2 4-4 5-3v2c-1 2-5 2-5 1zm-256-1 1-1 1 1-2 1v-1zm131 0 6-6c2-2 3-3 2-4-1-3 1-4 4-2 1 2 3 2 6 2l5-2 2 1-9 4-11 5c-3 2-4 3-5 2zm47 0 1-2c2 0 2 0 2 2h-3zm39-1c-3-4-3-5 5-5l12-1c6 0 14 1 12 3l-12 2-14 2c-1 1-2 0-3-1zm33 1v-2c1-1 1 0 1 1 0 2-1 2-1 1zm61-4c-1-2-3-3-5-3l-6-3c-1-1-1-1 2-2 3-2 4-2 6 1 1 2 3 4 5 4 3 2 4 4 2 5-1 1-3 0-4-2zm72 2-1-2c1-1 2 1 2 2h-1zm101 0 1-1 1 1-2 1v-1zm12-1 2-4 1-2 1 3-1 4-3 1h-2zm40 1 1-1 1 1-1 1-1-1zm-526-2c-1-2 2-4 3-2l1 2c-1 2-3 2-4 0zm31 1c-1-1 2-2 3-1 2 0 1 2-1 2l-2-1zm60 0c0-2 2-2 6-2 4 1 4 3-1 3l-5-1zm407 0 2-1 1 1-2 1-1-1zm-301-1v-1l2 1-1 1-1-1zm411 0h3c2 1 2 1-1 1s-3 0-2-1zm16 0 2-1 2 1-3 1-1-1zm-444-2c-1-2-1-3 1-3l1 2c0 2 0 2-2 1zm85-1-2-2 3-2h3c2 0 1 4 0 5-2 1-2 1-4-1zm-204 0 1-1 1 1-1 1-1-1zm184 0c-3-1-1-2 3-2 3 0 5 1 2 2h-5zm-230-1c-2-1-1-3 1-3 3-1 5 0 4 2s-2 2-5 1zm63-1 1-2 1 2-1 2-1-2zm233 1v-2l2 1c1 1-1 2-2 1zm36-1-3-5c-2-2-2-2-3-1-1 3-3 4-6 5-2 1-2 1-1-2s1-3-2-3l-3-1c-1-1 3-4 6-4l12 3 2 5c3 3 3 4 1 4-2 1-3 1-3-1zm12 1 1-1 1 1-2 1v-1zm111-1v-1c3 0 5 1 5 2s-2 1-5-1zm-74 0-2-1c0-2 2-1 3 0l1 2-2-1zm63 0v-5c0-2 0-2 2-3l4-3 2-4c2-2 3-2 6-1 2 0 3 1 3 4 0 4 0 4-3 4l-6 2c0 2-2 3-3 3l-2 2c-1 2-3 2-3 1zm14-11c1-2-2-4-3-2-1 1-1 3 1 3l2-1zm30 11v-1l2 1-1 1-1-1zm13 0c-2-1-1-2 2-2l2 1c-1 1-2 2-4 1zm-510-1c-1-1-1-2 1-2l1 1-2 1zm38 0c-1-1 0-1 2-4 4-2 5-2 5 2-1 3-4 4-7 2zm273 0 4-1 3 1-5 1-2-1zm62 0 2-1 1 1-2 1-1-1zm150 0 2-1 3 1-2 1-3-1zm19 0 1-1 1 1-1 1-1-1zm-185-2c-1-1 0-2 1-2v4l-1-2zm-335 0 1-1 1 1-1 1-1-1zm133 0 1-1 3 1c1 1-1 1-2 1l-2-1zm-127-1 1-1 1 1-2 1v-1zm182 0c-1-1 2-2 4-1v1h-4zm347 0 1-1 1 1-1 1-1-1zm-479-1c1-2 4-3 4-1l-2 2-2-1zm14 0c-2-1-1-2 3-3s5-1 1 2c-2 2-3 2-4 1zm326 0c-2-2 0-10 2-11 2-2 2-1 1 4l-3 7zm58 0v-6c0-4 0-4 1-2l1 6c0 3-1 3-2 2zm113 0 3-1 5-2 2-2 1 2v3h-11zm-536-1 4-1c3 0 4 0 3 1h-7zm173 0c-2-1-1-2 1-2l4 1c1 2 1 2-2 2l-3-1zm261-1v-2c1 0 4 2 3 3 0 1-2 1-3-1zm133 1 1-1 1 1-1 1-1-1zm-373-1 2-1 2 1-3 1-1-1zm9-1h2l1 2h-1l-2-2zm378 1 3-2 23-2-2 2c-1 2-4 2-13 3l-11-1zm-341-1c-2-1-1-2 3-2 2 1 3 1 4-1 0-2 2-1 3 1 1 3 1 3-4 3l-6-1zm152 0-1-3c0-2-1-3-6-5-2 0-2 0-1-2l4-2 2-4c0-3 3-4 8-4l8 2c2 2 6 3 8 3 4 1 5 1 4 2h-7c-5-2-7-2-8 0-1 1-2 1-5-1h-4v8l4-1c3-1 4-1 1 2-2 3-7 6-7 5zm62-2-4-4c0-2 6 1 8 3 3 4 1 4-4 1zm28 1c-1-1 0-2 1-2l1 1c0 2-1 2-2 1zm-522-1c-1-1 0-3 3-3l2 2c0 2-3 2-5 1zm94-1 5-1c2 0 2 0 1 1l-4 2c-3 0-3 0-2-2zm443 1c-1-1 0-3 1-3v4l-1-1zm35 0c-1-2-1-4 1-4l1 1 1 2c0 2-1 2-3 1zm-561-2c-1-1 0-2 4-2 2 1 2 1 1 2-2 2-3 2-5 0zm169 0 1-1v1l-1 1v-1zm7 0 1-2c2 0 2 0 2 2h-3zm167 0-4-1c-3 0-3 0-2-2l5-2c2-1 3-1 3 1 2 4 1 6-2 4zm-326-2c0-2 1-3 5-1 3 1 2 3-2 3-2 0-3-1-3-2zm29 1c-1-1 0-2 1-2l1 1c0 2-1 2-2 1zm152 0 1-2h2l1 2h-4zm21 0c-2-1-3-4 0-4 2 0 5 3 3 4h-3zm12-1c-2-1-1-4 1-4l1 2c0 3-1 4-2 2zm-136-1 1-2c1-1 1 0 1 1l-1 2-1-1zm118 0 1-1v1l-1 1v-1zm101 0-5-2-5-1 5-6 2 4c3 3 6 4 8 2l2-1-2 3c-2 2-4 2-5 1zm-210-1 1-1 1 1-1 1-1-1zm12 0c-1-1-1-2 1-2l1 1-2 1zm127 0-1-4c0-4 0-4-2-3s-3 1-6-1c-4-3-7-3-9 0h-2c0-2-4-1-7 0h-7c-5-1-9 0-10 3-1 2-1 2-3 1-3-2-3-2-4 0l-1 2-5-6-2 3-2 2-2-2c-3-2-6-2-6 0s-6 2-9 0l-5-1c-3 0-4 0-5 3l-1 2-3-3-6-3c-3 0-3-1-3-2-1-3-3-5-4-4l-1 4c0 3 1 4 3 5s3 1 0 2c-3 2-5 0-5-3 0-2 0-2-5-2-5 1-15 0-13-1l7-2 8-2-6-2-9-2-3-1 4-1 4-3c-1-3-4-4-7-2-2 2-2 2-5 0s-9-3-13-1c-5 2-3 3 2 3h4l-15 3c-5 0-6 0-6-2-1-3-4-3-14 0-9 2-22 2-38 1a46 46 0 0 0-21 1h-3v-5l-5 2-9 1c-5 0-5 0-8-4-3-3-3-4-2-7 0-2 2-4 3-5 3-2 4-2 2-5-1-1-1-1-4 1l-3 2-4-5-3-4 2-3c3-3 6-4 7-2 1 1 3 0 3-2l-6-12c-2-1-2-1-4 1v4c2 2 2 2 0 6l-3 4-3-5c-2-4-2-5 0-8 0-2 2-4 4-4 3-2 4-4 2-7-1-1-1-1-3 2-3 4-4 4-3 0v-5c-2-1-2-1 0-4 3-4 1-5-3-2l-5 3v3c1 0 1 1-1 3l-1 3 5-1-2 3-3 3-5-3c-4-3-5-4-6-8v-13l12-2h11l3 3c4 4 8 5 15 1l4-2 2 2c2 2 2 2 8 1h12c5 0 6 0 8-3l3-4c0-2 2-1 2 2l5 5 6 3h3c1-2 6-3 13-2l15 1 9 1v-2l-1-4v-9c0-2-1-2-4 1-5 4-9 5-12 2-3-2-2-4 1-6 2-2 3-3 3-6l1-5c3-2 14-3 29-3 21 0 22 1 25 13 0 3 1 3 4 3l5 1c2 0 2 1-2 4-10 7-12 6-15-5l-3-7h-6l-8 1c-2 1-2 1 5 3 8 2 9 3 10 12l1 6h5c3 0 6 0 9 2l8 2c5 0 5 1 8 9 3 9 4 18 4 29l-2 12-2 3h43c4-1 3-4-1-4s-4 0-3-2l4-7 2-6c2-1 1-2-3-6l-8-6-2-2h5c3 2 3 2 6 0 3-3 5-7 3-8l-2-1c-4-1-3-3 0-9l4-8-3-6-4-4 4-4c3-4 3-6-1-5-2 1-3 0-4-5l-2-7 4-3c5 0 5-2 1-6l-4-3v-16c0-13 0-16 2-17s1-2-1-7-2-7 0-10 2-3 1-6l-2-5c0-2 0-2-8-2l-9-1h7c6 0 7 0 9-2s2-2 1-4l-1-7c0-3 0-4 4-7 5-4 5-6 2-5a492 492 0 0 1-41 7c-3-2-10-3-10-1l3 4c5 3 3 4-9 3-8 0-12-1-13-2-3-2-1-3 5-3 7 0 12-2 10-4l-10-1h-10l-4 4-7 6-3 1 4 2c3 2 6 3 8 2 4-1 9 5 9 10l2 5c3 3 2 4-5 3h-7l1 18 1 25c1 9 1 10-1 11-3 2-23 4-28 3l-4-1-2-10c-2-15-3-15-5-3l-2 6-2-9-3-10c-2-2-2-3-1-7l1-8c-1-2-2-3-4-3s-2 0 0-3l1-4-11-1c-10-1-15-2-9-3l7-1 6-1c2-1 4-8 4-12 0-3 1-4 3-6l4-2 6-2c4-3 7-2 5 1l-5 3c-2 0-3 1-3 2h10c2-1 3-12 1-13-2-2-7-1-7 0l-1 3c-1 1-2 0-5-2-3-3-4-3-10-3l-9 1c-2 0-3 0-5-2-3-2-4-2-7-1-7 3-29 4-65 3H77l-2-5-1-5 10-2 9-2c1-1-2-2-6-2s-6-2-2-2a401 401 0 0 0 46-3c2 2 3 2 8 1 5 0 6-1 8-3 1-4 3-4 13-6h11c6 1 8 1 11-2l3-2 4 2c4 1 7 2 12 1l7-1h3c1 1 0 2-2 3-5 2-32 3-39 2-6-1-10 0-10 3s3 4 12 4l14-2h9c5 2 8 2 12 0 3-1 5-1 5 1l-4 2c-5 1-5 2-2 4 2 2 2 2 4 0 2-3 2-3 6-2h5l-2-2-3-3c0-2 0-2 3-1l6 4 4 3 3-4c2-4 3-5 4-3l8 1c7 1 8 1 11-1 4-3 5-3 5 0s0 3 7 2l8-1-4-4-4-4h-7a1740 1740 0 0 0-20 1l2-2c1 0 2-1 1-2 0-2 1-2 2-3 3-1 3-1 6 1 2 3 3 3 5 2h13c2 1 3 0 6-2s3-2 4 2c0 2 1 2 6 3 4 0 5 0 7-3s4-3 4 0c1 2 0 3-2 3l-17 3 2 3c2 2 3 3 5 2 1 0 2 0 2 2 1 2 6 3 9 2 2-2 2-2-1-2h-4l2-2c5-4 7-4 12-1 3 1 5 2 7 1l-1-1-2-1 3-5c2-3 3-5 6-6s6-5 4-7c0-1-1-1-2 1-2 4-3 1-1-3 2-3 3-4 5-4 3 0 5-2 8-10l5-14 2-8c-1-2-3-1-3 3-1 4-5 7-8 7-2 0-3-1-3-2 0-3 0-3-30-5l-11-1 6-1c8-1 9-2 11-7l2-4h6c8 0 11-1 12-4l-9-1c-9 1-11 1-13 3l-2 2-3-2c-4-5-9-3-6 3 2 3 2 3-1 4l-3 1-4 3c-2 3-2 4-5 4-5 0-6 1-3 6 1 4 1 4-1 6-4 4-6 2-6-6 0-5-2-7-9-6l-6 1 1 6v8c-1 3-11 1-17-3-2-1-2-1-4 4-6 14-6 13-8 10l-4-2c-5 0-6 1-4 4 2 2 2 2-3 3s-7 0-3-2c3-3 2-6-2-5-4 0-5 0-3-3 2-4-4-6-7-2-2 2-2 3-2 7s0 5-2 7l-2 4c0 2-2 3-6 4l-7 3h-2c-1-2 0-3 5-6 5-2 5-2 2-5-3-2-3-3 1-3 3 0 6-3 6-5h-17l3 5 2 3h-6c-6 1-8 1-10 3-1 2-5 4-7 4-5 2-15 3-17 2-2-2-1-9 1-10l5 3c6 5 9 5 14 0l6-12 3-9c2-1 2-1 3 3l1 4h7l8-2 5-9c4-10 4-9 1-10s-3-2 0-4c2-2 3-2 6-1h8l5-2-1 6-1 7-8 2c-6 1-6 2-7 4 0 3 0 3 2 2l13-1 10 1-3 2c-5 0-6 1-6 2 0 3 11 3 16 0l2-1-2-6c-2-6-2-9 2-10 2 0 3-1 3-2l3-3 3-3 4 2 8 3c2 0 11-5 11-7l-3-2-3-2-7 7-1-2c-1-3-1-3-6-3h-14l2-2c3-3 2-4-4-5-4 0-4 0-5 4v4h-32l-2 3c-5 6-5 7-3 11 1 2 1 2-1 3s-10-4-10-6c0-4 1-6 4-6l5-2 3-2-4-4c-5-5-5-5-12-5-11 1-11 3-1 4l7 1-7 2-9 3 3 3c4 2 5 7 1 9-2 2-2 3-1 6 2 4 0 5-6 6-10 1-13 5-4 5 4 0 5 1 3 2l-8 2-8 3-2 2-1-2-3-3c-3 0-4-2-1-2l5-4c4-3 5-4 11-4 10-1 10-2 8-5-1-4 0-7 4-8 3-1 2-3-2-5-3-2-5-2-9-1-9 2-10 2-11 4l-2 4c-2 1-2 3 0 5 1 2 1 2-2 5-3 4-4 4-10 4-7 0-11-2-6-2l7-2c6 0 7-1 7-4 0-2-1-3-4-3-7-1-7-3 0-4l7-2v-4l-2-3h11c10 0 10 0 10-2l3-7 2-6-14 3a780 780 0 0 1-10 4c5-1 11-1 9 1l-8 2c-9 1-10 0-9-4 0-2 0-2-11-1l-12 3c-3 2-3 2-4 0s-3-2-7-2-5 0-6-2l-3-2c-2 0-2 0-1 3l2 4c1 2 2 3 4 3s6 3 6 5-2 2-3-1c-1-2-1-2-8-2l-9 1c-2 1-2 1 0 2l6 1 6 1c2 1-12 2-15 1-2 0-6-6-5-7l6-1c9-3 9-6 0-6-3 0-4 0-4-2 0-4 2-5 8-5s8-1 9-8c0-4 1-5 3-6s2-2 2-6l-2-6 8-1 9 2c2 3 2 2 2-3 0-4 0-5 2-6s3 1 2 4c-1 2-1 2 2 3s8 0 17-2c5-1 4-3 0-3-5 0-5-1-3-4l2-2-3-1c-5-1-5-1-4-3v-6c-1-3-2-4-6-5-4 0-6-2-3-2s3-2 2-4c-2-1-2-2-2-3 1-2 0-4-2-7l-4-4c-1 0-8 5-8 7l-1 1c-2 0-2 0-1-4v-6c2 1 2 0 5-3l3-5h-3c-2 0-3-1-3-4-1-2-1-4 1-5 1-2 1-2 3 0l2 2 3 6 7 13c5 11 13 23 21 34 8 10 18 25 19 29l2 4h168l3-6c2-5 4-6 10-7 3-1 12 3 15 7 2 3 2 4-2 13-2 5-2 8-2 16 0 9 0 12 5 30l6 24c1 3 2 5 7 8 5 4 6 5 7 4l17-4c3 0 3 0 3-4 0-3 1-4 4-7 4-4 6-4 8 2 1 5 3 7 3 3 0-2 2-2 4-1 1 2 1 2-1 8-2 5-2 7-1 9l4 11v12c-1 3-1 3 1 5l4 11 4 10 2 8c1 10 3 15 8 23l4 7-2 4c-3 6-3 52 2 83 2 18 0 16 18 16h15l2-4 4-3c5 0 8 6 6 11-4 4-2 6 3 3l10-2c14-1 14-1 18-6s6-5 12 0l4 4h56a2018 2018 0 0 0 116-1c1 2 2 2 5 1l24-2c21-1 22-1 23-3l2-3 3 4 3 3-10 1a2852 2852 0 0 1-30 4c1 3-3 3-4 0 0-2-1-3-4-3s-3 0-3 2c1 2 0 2-7 2-8 0-8 0-9-3-1-2-1-2-6-2l-10 2c-4 2-8 2-12 0h-7c-3 1-3 2-2 4 2 2 2 2 14 2s13 0 14 2c1 3-1 4-4 2-2-1-4-2-9-1a3276 3276 0 0 1-33 5c-2 0 0 2 4 4l4 1-5 2-7 4c-2 2-3 3-2 0l-2-3c-2-2-2-2 0-2l2-4 3-4 11-3 10-2-2-2-2-4c0-2 0-2-5-1-4 1-4 1-3 3s1 2-1 2l-9 2-7 3 2-3c2-4 0-6-8-6l-12 2c-5 1-5 2-5 4s-4 3-9 2c-5 0-4-2 0-2 3 0 5-4 3-5h-13c-5 0-6 4-2 8 3 3 3 4 1 6-2 5-2 5-7 3l-4-2 2-4c2-4 2-6-1-6v-4c-3-1-37 1-39 2s-2 1-4-1l-4-3c-2 0-4 8-2 16l1 8c0 2-4 1-7-2l-4-2-4-3c-2-2-4-2-11-3l-13-1c-2 1-3 1-4-2-1-6-4-4-4 3 0 2 1 3 2 3 2 1 2 1 1 2-2 3-4 2-4 0 0-3-3-4-7 0-4 3-7 4-4 1l3-3c3-1 1-2-2-2s-5 1-8 4c-4 5-11 9-12 7-1-1 4-5 8-7 3-2 4-2 2-5s0-6 3-6l5-2c1-1 0-1-10-1-9 0-11 0-7-1 6-2 7-2 5-4l-12-3-11-1v-10l-1-11c-2-2-4-1-4 3 1 4 0 5-3 6s-4-1-5-11l-2-12c-1-4-1-5 1-7 2-3 2-4 1-6l-2-3-5 7-5 7 2 1c3 1 3 1 3 9l2 11 1 4-5-2c-4-2-5-3-6-7l-1-15c-1-11-1-13-4-10h-3c0-2-4-1-4 0l1 5c2 3 2 4 0 6l-4 4c-1 3-4 4-6 1-1-2-1-1-3 0-2 4-1 6 4 7 4 1 4 1 4 6 0 3 1 5 4 9l4 5c2 0 2-4 1-7-2-4-3-14-1-14l2 4c4 19 3 18 15 19l10 2c1 1 1 1-1 1a333 333 0 0 0-40 2c-3-2-4-2-14-1l-20 1c-8 0-9 0-9 2 0 3-3 3-6 1-2-2-4-2-9-2-7 0-7 0-7 2 1 2-1 3-7 3-3 0-4-1-5-2-1-2-4-3-5-2v5c-2 1-3 1-4-2s-1-3-11-3c-9 0-10 1-10 2s1 2 7 2c7 1 8 1 10 3l2 3 9-1c8-1 9-1 11 1 1 3 2 3 8 3l6-1-1-3-2-2 2-1h5l3 3c0 3 0 3 4 3l9-2c5-3 6-3 11-1l9 1c4-1 4-1 4 1s-1 3-3 4-3 2-3 5-2 5-3 4zm-78-11 2-4c0-2-3-3-10-3-4 0-5-1-7-3s-4-3-9-4c-12-1-19 3-11 7 2 0 4 2 5 3 2 1 2 1 5-1 3-3 7-3 9 0 2 2 2 3-1 3-4 0-1 2 3 2l6 2c0 1 6 0 8-2zm237 1-1-1-1 2h1l1-1zm-158-2 4-1h-5l-5 2c0 1 2 1 6-1zm114-4-2-1v1l1 1 1-1zm16 0-1-1s-2 0-1 1l1 1 1-1zm16 0v-2a739 739 0 0 1-9 0c-1 0-2 1-1 2h10zm-19-5c0-1-1-2-3-2s-3 2-1 3c1 1 4 0 4-1zm-320-2c-1-2-2-1-2 1h2v-1zm11 1-1-1-1 1 1 1 1-1zm294-1-1-1-2 1c0 2 2 2 3 0zm-5-3c0-1-5-3-8-3-2 1-3 4 0 4 3 1 7 0 8-1zm51 1-1-1-2 1v1l3-1zm-411-6c0-2 0-3-2-3l-3 1v4c3 2 5 1 5-2zm68 3-1-1-2 1 2 1 1-1zm62-2c-6-3-6-3-3-11 4-11 2-12-3-2l-3 11v4h14l-5-2zm121-1 1-24 1-33c1-9 1-12-1-12-2 1-3 4-3 10l-2 10c-3 5-3 5-1 15l1 11c-2 2-6-7-10-23-2-8-4-11-6-8v13c3 18 3 23 2 23l-1-4-1-6c-2-1-2-1-3 1s-3 3-3 2l-3-10c-3-10-5-23-5-37 0-10 0-11-3-15-5-9-2-14 4-9l6 4c4 2 4 2 5 7 1 3 1 3 10 3 7 0 9 0 10-2l1-30 1-42c0-10-4-26-10-37a253 253 0 0 1-12-28c-2-10-4-13-5-13-2 0-5 7-9 16l-3 9 2 4c2 4 2 5 1 6l-4 2c-2 0-2 0-2 3l2 4 9 8c7 5 8 6 9 11 1 4 1 4-1 6s-3 3-2 5l1 7 1 4-3-2c-2-2-3-2-4-1-2 1-2 2-2 17 0 9 0 15-1 13l-2-21c-1-17-3-31-4-32l-2 1c-2 1-3 0-5-1-1-2-1-2-4 0-4 2-3 4 2 5 3 1 4 2 4 5s0 4-3 6c-5 4-5 5-1 9l3 3v33l1 33-5 6 2 1c3 1 3 2 5 27 1 21 1 21-1 22-2 0-3 1-3 2-1 1 2 3 5 3l2 1 1 9c2 13 1 12 21 12l17-2zm-29-16v-1l2 1h-2zm-10-64 1-1 1 1-1 1-1-1zm27-32c-2-5-1-10 1-12l3-4c2-5 3-4 3 2s-1 8-3 7c-1-1-1-1-1 2l-1 5c-1 2-1 2-2 0zm-2-23c-1-5 0-13 2-15 2-1 2-1 4 3 3 5 4 5 2 7l-2 3c0 3-1 4-4 5-1 1-2 0-2-3zm-12-3v-3c1-2 1-2 2 0 0 2-1 5-2 3zm14-15-5-3c-2-3-2-3 0-6l2-1 5 6c6 5 5 6-2 4zm170 153c1-3 1-3-1-3l-2 3c0 2 1 2 3 0zm-300-2h-1v2l1-2zm-37-3c0-2-1-1-3 0-2 2 0 4 2 3l1-3zm205 3c1-1 1-1-2-3l-3-2-3 2-3 3h11zm-183-1-1-1-1 1 1 1 1-1zm56-3c-1-2-3-3-4-1 0 2 3 5 4 4v-3zm112 2-1-4c-2-3-2-3-3-2v5c1 2 2 2 4 1zm-247-2-4-3c-4-3-6-2-4 2 1 3 2 3 4 3l4-2zm50 0c2-2 3-5 1-5l-5 6c0 1 1 1 4-1zm48 0c2-2 3-5 0-6l-4 7c0 1 1 1 4-1zm91-1c0-1-2-3-4-2-1 1-1 2 1 3 1 2 3 2 3-1zm-67 1-1-1-2 1 2 1 1-1zm-88-4-3-2v2h3zm221-1 2-2c-1-2-4-1-5 2-1 2-1 2 3 0zm-131 0v-2l-6 2h6zm-100-3c2-1 3-3 1-3s-5 3-5 4 1 1 4-1zm-28-1c1-2 0-3-5-3-4 0-5 0-5 2l1 2c2 1 8 0 9-1zm110 0-1-2c-1-1-1 1-1 2l1 2 1-2zm-42-6c3-3 5-8 5-12 0-2 0-2-1 0l-4 5c-3 3-5 10-3 10l3-3zm-31 1h-2v1l2-1zm62 0-1-1-1 1 1 1 1-1zm-76-3-4-1c-3 0-3 0-2-3v-12c-2-1-5 14-4 15 1 3 9 4 10 1zm34-1v-2c-1-1-4 2-4 3 0 2 3 1 4-1zm22 0-1-1-1 1v1l2-1zm49 0-1-1-1 1 1 1 1-1zm-37-2v-5c0-4 0-5 2-6v-2h-2c-2 1-5 11-5 13 1 2 3 2 5 0zm31 1v-6c-1 0-4 3-4 5s2 2 4 1zm-120-3 2-3c0-3-2-7-5-9-2-2-2-2 1-7 3-3 3-4 2-5-1-2-3-1-7 7l-3 6 2 1c3 1 4 4 2 6s-5 1-7-3c-1-3-3-4-4-2l1 4 2 6c0 2 0 2 6 2l8-3zm308 1-3-9-3 3-2 4 2 2c3 2 5 2 6 0zm-59-5 1-5c1-2-1-7-3-6-1 1-3 11-2 14 0 3 0 3 2 1l2-4zm-199 2-1-2-1 2c0 2 0 3 1 2l1-2zm143 1v-3c-2-2-4-1-4 1 0 4 2 5 4 2zm-99 0-1-1-1 1 1 1 1-1zm12 0v-2c-1-1-4 1-3 2h3zm-62-3c0-1-4-3-9-3-4-1-5 2-1 3h10zm54-4-1-2c-2 0-3 2-3 5 1 2 1 2 3 1l1-4zm32 4c1-2-2-4-3-2-1 1-1 3 1 3l2-1zm-25-3h-1c0 1 1 2 2 1l-1-1zm157-1 3-2-4-5-2 4c-2 4-2 6-1 6l4-3zm-237-1 4-4c3 0 3 0 2-1l-7-1c-4 0-4 0-4 2 0 3 2 7 3 7l2-3zm94-1c0-3-2-3-3-1v3c2 1 3 0 3-2zm-69 0c2-3 0-5-2-3l-2 4c0 2 3 1 4-1zm166-4c0-3 0-4-2-4-4 0-5 4-2 8 3 3 4 2 4-4zm-210 0c0-2-2-4-2-2-1 1 0 4 1 4l1-2zm39-2c2-2 2-2 1-4-2-2-3-1-7 4l-3 4h3c2-1 5-2 6-4zm22 2-1-1-2 1c0 2 2 2 3 0zm5 1-1-1c-1-1-1 0-1 1l1 1 1-1zm235-2c0-3-2-3-3 0l1 2 2-2zm-207-1 1-2c-1-1-3 1-3 2 0 2 2 2 2 0zm201-4c0-2-1-4-3-2 0 1 1 6 2 5l1-3zm-311 1c1-1 0-6-2-6l-3 4c-1 4-1 4 1 3l4-1zm84 0-1-1-1 1 1 1 1-1zm118-2-1-2c-2 0-4 3-3 4 1 2 3 1 4-2zm-174 0c1-1 1-1-3-1l-4 1h7zm267-5 8-2h3l-2-3c-2-2-2-5-3-17l-1-16h3c3 3 5 2 5-3 0-2 1-3 5-4 4-2 4-2 3-5-1-1-2-2-3-1l-3-1c-2-3-3-2-4 2s-1 4-2 3v-7c0-5 0-5-3-5-2 0-6-3-6-4l3-5 2-3h-2c-4 0-4-2 0-5l2-3h-3c-4 0-4-1-2-4 1-2 1-2-1-4-2-1-2-1 0-5s1-5-1-5-3-1-3-4c-1-4-5-10-6-10l-2 7-2 5c-1-2 0-5 1-11 2-10 3-13 0-15-1-2-1-2 1-2 1 0 3-2 4-6l3-6-3 1-10 1-7 1 1 3 3 2h-4c-3-1-3 0-4 1l2 3 5 3 6 3h3l-4 2c-4 3-6 2-7-1s-1-3-2-2-1 1-3-1l-4-2-3-1v-1c2 0 1-3-1-3-2-1-3-3 0-3 2 0 1-3-3-4l-3-3-1-2v10c0 8 0 9 3 13 3 5 3 6 4 14 0 8 1 9 3 12l3 3h-2c-4 1-6 1-7-2 0-3-1-3-3-3s-2 0-2 4l2 7 2 2 9-5 3 3c5 4 10 1 13-8 3-6 4-5 3 2l-3 18-2 13c0 2 0 2 4 1 4 0 4 0 10 5 8 7 9 7 6 9-2 1-3 2-3 8v12c1 4 0 6-2 11l-3 5c-1 0-3-7-3-12 0-3 0-4-2-5l-2-7c0-6-1-7-4-5-3 3-2 5 0 10 2 4 2 4 0 7v8l3 10c1 4 1 4 5 4l10-2zm-27-90c-1-1 0-6 2-7l5 3-7 4zm-5-7-1-2 3 1c2 2 0 2-2 1zm6-13c2-3 5-4 6-1 0 1-3 3-7 4l-2 1zm-5-3 2-1 2 1-2 1-2-1zm13-19v-2c1-1 4 0 4 1s-3 2-4 1zM221 355v-3h-2l-2 3c0 2 3 3 4 0zm-137-1c3-2 3-3 1-3-3 0-7 2-7 3 0 2 1 2 6 0zm124 0c-3-2-5-3-5-1-1 2 0 3 3 3s3 0 2-2zm220-1-2-2c-2-1-3-1-3-5l-2-4c-4-1-2 5 2 10 3 4 5 4 5 1zm-89-2c0-2-3-5-4-3v3c1 3 3 3 4 0zm42 0-1-1-2 2 1 2 2-3zm-7-2-1-2-1 2c0 2 0 3 1 2l1-2zm-30-6c1-5-1-8-4-7-1 1-1 4 1 11 2 4 3 3 3-4zm24 6-1-1-1 1 1 1 1-1zm-56-5c0-1-2-3-4-2-1 1-1 2 1 3 1 2 3 2 3-1zm-75-3-1-2-2 3 1 3 2-4zm-47-2-1-1-1 1 1 1 1-1zm193-1c0-3-3-5-4-3v2c2 2 4 2 4 1zm-175-3c1-1 1-1-2-2-4 0-12 1-11 2l9 2 4-2zm215-3c4-3 2-7-3-4-2 1-3 4-1 5 1 1 1 1 4-1zm-226-2c0-2-5-2-8-2-2 1-2 1-1 3 1 1 1 2 5 1l4-2zm116-2c0-2-1-3-3-3-3 0-4 1-1 3 2 3 4 2 4 0zm-101 0-2-1-2 1 2 1 2-1zm157-3-2-2c-1 1 0 3 1 3l1-1zm22-12-1-1v1l1 1v-1zm-80-3-3-1c-2 0-2 0-1 1 1 2 3 2 4 0zm-105-2c1-1-1-2-2-2-1 1 0 3 1 3l1-1zm18 0c1-1 0-6-1-6l-1 3c0 4 1 5 2 3zm-9-1-1-1-1 1 1 1 1-1zm168-3-1-1-1 1 1 1 1-1zm-182-3h-2v2h1l1-2zm13 0-1-1-1 1s0 2 1 1l1-1zm92 0-1-1-1 1 1 1 1-1zm64-1-1-1-1 1 1 1 1-1zm55-4c-2-6-4-10-5-8l2 7c3 7 6 7 3 1zm-214-2 1-3c-1-1-4 2-4 4s1 1 3-1zm-20-10v-4c2-1 1-5-1-5-3-2-3-1-3 4l2 7c1 3 2 2 2-2zm22-1c2-2 2-2 1-4l-10-1c0 2 5 8 6 8l3-3zm206-8c-1-2-1-2-2-1l-1 3c1 2 1 3 2 2l1-4zm-220 0c1-4 0-7-2-7s-3 1-3 3c0 3 1 7 3 7l2-3zm23-2-1-1-1 1 1 1 1-1zm89-3-2-2c-2 0-3 2-1 3 1 1 3 0 3-1zm104-2-1-2c-1-1-1 0-1 1l1 2 1-1zm-229-3-1-3-1 2 1 3 1-2zm30-11-1-1c-2 0-2 1-1 2s2 1 2-1zm-29-7c-1-2-4-3-7-1-2 1 0 4 3 6 2 2 3 2 3 0l1-5zm8 3v-1l-3 2c0 1 2 1 3-1zm36-1c0-2-1-3-2-3-3-2-4 0-3 3 0 3 5 2 5 0zm179 1c-1-2-3-2-3-1l2 2 1-1zm-104-3-2-2c-2 0-3 2-1 4s3 1 3-2zm-98 1c0-2-1-2-3-2v2h3zm12-1-3-2v2c2 2 3 2 3 0zm93 0-2-1v1l1 1 1-1zm-104-11c1-1 1-1-2-1-6 1-8 3-4 3l6-2zm123-1-4-3 6 6-2-3zm74-3-2-5c-3 0-3 2-2 4s3 2 4 1zm-196-2 5-2 6-1c4-2 1-4-6-4-5 0-6 1-8 3l-2 1c-1-1-5-2-5 0 0 1 5 5 7 5l3-2zm103-7h-2c-1 1-1 1 1 2 1 2 2 2 2 0l-1-2zm-200 1-1-1-1 1 1 1 1-1zm8-1-1-1c-2-1-3 0-2 1h3zm84-3c-2 0-2 0-2 3 1 1 1 1 3-1 1-1 1-2-1-2zm75 2 2-2c0-1-10-2-11 0-2 2 6 4 9 2zm9-1-1-1-1 1 1 1 1-1zm-39-1-2-1v1l1 1 1-1zm-155-1c1-1-2-2-10-2-6 0-8 0-6 2h16zm49-3h-6l4 1c3 0 3 0 2-1zm31-1-1-1c-2 0-2 1-1 2l2-1zm12-4c-1-3-4-4-4-1l1 5c0 2 0 2 2 0l1-4zm127 4-5-2c-1 1-1 2 1 3s3 1 4-1zm-198-2c-1-1-2 1-1 2h1v-2zm47 2-1-1-1 1 1 1 1-1zm35-2c0-2-4-4-5-2-1 1-1 1 1 3s4 2 4-1zm71 1-2-1-3 1 3 1 2-1zm34-1h-17c-4 0-4 0 2 1l13 1h6zm-158-1c0-1-6-3-8-2-4 1-2 3 3 3l5-1zm7-1-2-1v1l1 1 1-1zm4-5v-4c-1 0-2 1-2 3 0 3 1 4 2 1zm162-9-1-1-1 1s0 2 1 1l1-1zm27-11v-4c-2 0-4 5-3 6 1 2 2 1 3-2zm-101-24c2-1 3-4 1-6s-4-1-5 3c-2 4 0 5 4 3zm-5-7c3-2 2-4-2-4-2 0-3 0-4 2l-1 3 7-1zm-36 0c1-2-1-5-4-5-4 0-4 1-2 4 1 2 4 3 6 1zm129-10c-1-3-7-6-12-4l-8 1-5 1c-2 0-3 3-1 4l13 1h13zm-59 1c2 0 3-3 0-3h-10v2c2 2 6 2 10 1zm62-9c2-2 2-2 0-3-3-2-5-1-8 1l-2 2 3 1c5 2 4 2 7-1zm-59-1c2-2 0-3-5-3-4 0-6 2-6 4s9 0 11-1zm-85-1c2-1-1-2-5-2-5 0-7 1-5 3l10-1zm18 1c4-2 3-3-1-3-5 0-7 1-5 3h6zm34-1 2-1h-10c-2 0-2 0 0 1h8zm99-4-1-1-1 1 1 1 1-1zm-220-3c-1-1-3 1-2 2h1l1-2zm126 2c1-1 0-1-1-2-2 0-3 0-3 2h4zm-158-6c2-3 2-3 3 0s3 2 6-2c2-4 2-4 1-6-2-2-2-4 1-4s5-1 5-3-2-2-7-1c-4 2-5 2-5 4s-1 3-4 3c-2 1-3 2-3 5-2 8-1 9 3 4zm44 1c1-2 1-2-1-2s-3 0-3 2l1 2 3-2zm10-2-4-2c-2 0-1 2 1 4 3 2 5 1 3-2zm-37-1c2-4 3-7 1-7s-7 8-7 10 3 0 6-3zm7-2 3-6-4 5-4 6c0 2 3 0 5-5zm7 3c3-3 3-4 3-8l-1-6-1 2-3 8c-4 5-4 7-2 7l4-3zm11-9-2-2-2 4c-5 7-5 8-4 9l6-4 5-5zm213 10c2-3 0-7-3-7-5 0-6 4-3 7 2 2 5 2 6 0zm-230-13v-2h-4c-2 2 1 4 4 2zm23-1-1-1-1 1v1l2-1zm-17-4-1-1-1 1 1 1 1-1zm347 335 1-3v3h-1zm-263-2c-1-2 0-5 5-8l4-3 5 2c2 2 6 3 7 3 4 0 4 1 0 3l-9-1h-7l-2 3c0 3-2 3-3 1zm175 1 7-7 1 2-3 4c-4 2-5 2-5 1zm203 0c-2-1 6-6 10-6l4-3c3-2 3-2 3 0 0 1 1 2 3 2s3-1 3-2l4-1 3 1v5c1 4 1 5-3 2-2-2-3-2-6-1h-14c-3 3-7 4-7 3zm-504-1-2-1 2-1h14v1c-3 1-11 2-14 1zm25 0-3-2c-1-2-1-2 1-2l9 3-4 2-3-1zm268-1v-6c4-7 5-7 17-7 10 0 12 0 13-2h2c1 1 3 2 13 1 12 0 12 0 12 2s-2 3-2 1c-1-2-6-2-8 0-1 2-2 2-2 1-3-3-7 1-6 5l-1 2-1-2c0-2-1-2-3-2l-5-1h-3c-1 0-1 1 1 4l2 5c-1 2-1 2-7-6-4-6-7-7-10-4l-5 2c-3 0-4 1-4 4-1 5-2 6-3 3zm485 0c-5-3-5-3-2-10v-7c-1-2-2-1-5 1l-5 7-3 3c-1 0-5-8-5-11 0-1-1-3-4-4l-4-1c-2 1-1 9 2 14 1 3 2 5 1 6-1 2-5 1-9-4l-5-5v-9l-1-8-3-2c-2-4-3-1-4 13l-2 13h-11c-10 0-11 0-10-3l-1-3c-2-1-3-1-8 1s-9 2-13-2c-2-1-3-1-22 1l-4 3c-2 3-5 4-5 1l-3-5c-3-2-5-2-9-2l-6-1c-1-1 4-2 8-2l7-2c3-2 7-3 13-4l22-2-2-2c-2-1-3-2-3-6 0-2-1-3-4-5-5-2-6-4-6-7 1-4-3-4-11-1-4 2-8 3-13 3-6 0-7 0-10-2l-2-3-7 2c-6 1-6 1-9-1l-7-2-6-1c-1-2 2-4 6-5 2-1 5-2 6-4 3-2 3-4-1-6-3-2-20-1-25 0h-5l7-7c7-6 8-7 19-11l13-4-1 3c-4 5-2 6 6 3 5-2 7-2 7 1l3 2c2 1 4 2 6 7s2 5 5 4c4-1 5-2 5-7-1-6-2-7-9-8-5-1-6-1-6-4 0-2-1-2-7-3l-10-2-11-3c-7 0-7 0-15 4l-9 4c-1-1 0-3 4-4 7-4 7-8 1-12-4-2-5-3-5-1 0 4-2 4-10 2l-8-3 4-4 5-5-3-2c-4-3-7-3-12 1-3 3-6 4-11 5l-8 3 2 4c4 5 4 6 2 11-1 2-2 4-1 5 2 2 0 4-6 6l-7 4c-3 2-4 0-2-2 1-2 4-3 6-4 7-3 7-3 5-7l-3-3 6-4-4-5c-3-4-5-5-6-5-4 0-4-2 0-3l3-1-4-5c-4-4-4-5-3-5l5 2c4 4 9 7 14 7 4 0 8-2 8-4l-6-4-7-4 6-3h8l12 5c5 1 5 1 6-2 2-4 4-6 10-7 5-1 11-5 10-7l-4 1h-10c-3 0-3 0-4 3-2 4-6 6-10 6-3 0-7-4-7-6 0-3 0-3 5 0 3 3 5 3 5 0l5-7c3-2 5-5 4-5h-7l-12 4-1-2c0-2 0-2-2-1l-4 2c-3 1-1-2 2-3 4-1 4-5 0-13l-3-8-7-15-3 2c-5 4-6 2-1-3 5-7 6-9 4-11h-4l-2 3-3 6-5 6c-1 1-1 1-1-2l-1-4c-2-2-2-2 1-2l5-4c1-2 1-2-1-4-3-3-4-2-5 1l-3 3c-3 1-3 1-3 6 1 3 1 5-1 10s-5 7-5 3l-2-4h-6c-4 3-5 5-2 5l4 3c1 3 2 4 7 4 6 1 7 1 7-2 1-2 2-2 3 1 0 1 1 2 4 2 5 1 6 1 5-1 0-2 0-2 2-2l6 2c3 0 4 2 4 2l-4 2-4 2 2 2c2 1 3 3 2 3l1 2 3-3c0-3 3-3 3 0 0 5-5 7-11 5-3-1-4-5-2-5l-3-2-4-3-4-1c-2 0-2 0 2 5l9 9c11 7 11 6 9 9-1 3-1 3-5 2-4 0-4 0-7 4-2 5-4 6-5 4-1 0 0-3 2-5 3-4 3-5 0-8l-2-2h2l4 1h3c1 0-2-3-4-3l-3-2c-2-4-5-7-7-7l-1 2-1 5c-1 1-1 2 1 3l2 3 1 2 1 2h-10c-4 0-4-1 0-5 3-3 3-3 2-5-4-3-12-1-12 3l-2 3-3 1-9 4c-9 4-13 7-16 12-2 4-6 8-7 6l1-3c6-10 6-9 4-11-2-1-2-1-5 2-4 4-5 2-2-2 2-3 2-3 9-3s8 0 12-3l9-3c4-1 5-1 5-3 0-3-4-4-11-2l-4 2v-3l3-9 3-7 4 2h5c2-1 0-6-3-8-3-1-3-1-6 1-4 2-7 2-8 0 0-2 2-3 5-3 4 0 4-2 2-6l-2-6-2-6c-3-3-1-4 7-4 5 1 8 0 11-1h6v3l-4 3c-3 2-4 2-5 1-3-2-4-1-7 1-5 6 1 11 7 8l8-4c4-2 5-2 6-7 1-6 3-9 6-9l3-2c1-4 4-5 5-3 3 3 7 3 11 1 4-1 6-5 4-7-1-1-2 0-5 2-4 3-6 3-6-2h-1l-6 1 1-4c2-4-1-7-6-9-4-1-5-2-7-4-1-3-1-4 2-8l2-2 5 3 5 3c2-1 1-3-1-4s-4-3-6-7c-4-8-4-9-7-7s-3-1 0-3l4-3 4 3c7 4 8 5 8 9 0 3 0 5 2 6l3 3 6-4c6-4 6-5 5-8v-6c0-2 0-3 4-3l6-2c0-2 6-4 9-4 5 0 9-4 8-7l-5-16-5 1c-3 2-4 2-5 0l-2-1-4-3-3-3-5 3c-5 3-8 3-4 0 3-2 2-5-2-7s-4-3-1-4c2-1 3-5 1-5l-12 10a454 454 0 0 0-2 16c-2 1-2 3-2 9l1 7-3-6-5-7-4 3c-3 4-5 3-7-4-3-9-2-12 2-5l3 4 5-5c1-3 4-3 4 0 0 5 3 3 4-2 1-4 1-9-1-10l-5 2c-3 2-3 2-5 0-3-2-6-7-6-8l3 1c4 3 5 2 6-3 1-4 1-5-1-7l-6-2c-3 0-4-1-9-5-4-5-6-9-4-9l5 4c5 4 8 5 8 1 0-2 2-1 3 2 0 2 2 3 3 4 3 1 5 3 5 6 0 2 0 2 7 2l11-2h5l7 7a75 75 0 0 1 9 12c2 0 6-3 10-6l7-5v-3l-5-3-4-2 3-2c5-2 7-1 8 2l3 4h6l4-4c0-6 1-6 4-4 4 3 5 4 6 1 0-3-1-6-5-11l-5-7c0-3-2-3-2 0-1 3-4 2-4-2l-2-6c0-1 1-1 5 1s6 4 8 7c2 5 4 6 9 5 7-1 7-1 2-5-3-3-7-8-9-13l-5-8-6-1-7-3c0-2 4-6 6-6 2-1 2-1 2 2l-1 3 12-1v4c-1 5 0 7 3 4l5-2c3 0 4-1 4-6 0-2-1-2-3-2-3-1-4-1-5-6 0-5-1-6-6-10l-5-4-4 3c-1 2-4 3-5 3-2 0-3 1-3 4-1 4-6 9-10 10-3 1-8-1-10-3l-2-6c-1-6 1-6 4 0 1 4 2 5 4 5 3 0 7-2 9-5 2-2 2-2 1-6s-3-6-3-4l-3 1c-2 0-2 0 0-3 1-4 2-4 5-1s7 3 10 2l3-1-3-2c-4-1-7-6-5-7l7-1 6-1c2-2 4-1 4 3 1 4 3 4 6 0 2-2 2-3 2-10-1-7-1-8 1-8s4 6 4 12c0 5 0 6-2 6-2 1-3 2-3 4 0 3-1 4-7 1-5-2-6-1-6 1l6 4 9 2c2 0 3-2 5-12 1-6 2-7 6-6 4 2 6-6 4-13l-2-4c2 0 5-2 6-5 3-6 4-4 6 9 1 11 3 13 5 3 2-9 3-13 4-11v6l-1 6c1 1 1 1 3-1l3-6c3-6 7-12 7-10l-1 5-4 12c-3 8-5 9-10 10-6 1-7 2-5 5 2 2 2 3 0 5-1 1-1 2 1 6l3 4c2 2 4-1 5-5 0-5 2-6 3-3l3 2 4 1c2 0 2 1-1 3-2 2-2 3-1 5l6 1c5 0 6-1 8-3l8-6c5-3 6-5 4-15l-1-8 7 4 8 6 3 5c3 7 4 8 10 8l4 1-2-5c-1-5-1-12 2-13l2 3c0 2 1 3 3 3l3 2c2 2 2 2 4-2 3-5 3-6-1-6-2 1-3 1-5-2l-2-4-1-3c-2-2-2-2-4 1-5 4-4 1 0-4l5-6c0-2-3-1-5 0-1 1-1 0-1-7s0-8-3-11c-5-7-3-9 3-2 2 2 3 4 3 7s1 5 3 8c2 2 3 4 3 7s1 5 3 7c4 4 5 4 5-1l-1-7-1-16c0-9 0-10 2-13l3-4v19c2 3 4 3 7 0 2-3 5-3 5-1 0 3 6 14 8 14 1 1 4 0 5-3 1-2 0-3-2-7l-3-5 2-5c1-5 3-6 5-4 1 0 1 2-1 5-2 4-2 4 0 6l3 6 3 3c2-1 3-1 3-7s1-6 2-5l4 1h2l1 5c0 2 0 3-4 5l-8 4-11 5c-8 3-10 2-10-4s-1-8-4-8l-3 2-4 6-2 4h3c8 3 6 16-4 27-3 4-4 6-1 7l3 2c2 2 2 2 4 0l4-6 4-6c4-5 5-8 2-10l-3-2-1-1 8-4 1 4c0 6 2 11 4 11 1 0 4-6 4-9s9-12 11-12c3 0 3 3 0 5-2 1-2 1 0 4l1 4 1 4c1 1 1 1-1 1-5 0-5 1 0 7 4 6 7 7 9 5l-1-4c-1-2-1-4 2-9l3-6 3 3 3 4-2 3c-2 3-4 3-4 0l-1-2v8l5 3c5 3 6 3 8-2 1-3 1-4-1-8-2-3-2-5-1-7s5-4 4-1l-2 3c-1 2-1 2 1 5l3 5-1 5c-1 3-2 4-5 5l-4 4-2 3c-2 1-2 2-1 3 2 2 6 0 9-5 2-4 4-5 6-5s4-1 7-5c5-6 11-10 12-7l1 1c1 0 2-3 0-7l-1-4 4 1c3 0 3 0 4-5l2-7c1-3 1-3 1 0l-1 9c-1 7-1 10 1 8l6-1c4-1 4-1 2 1l-3 2-2 2-2 3c-3 1-1 3 2 2 3 0 8-4 10-8 1-1 4-5 8-7l6-4 1 3c2 3 2 4 0 5-2 2-2 2-4 0s-2-2-12 10l-8 7c-4 1-4 3 0 5h6c3-2 4-4 7-11l2-5 5 3 3 3 3-2c2-2 4-4 4-6l4-7 6-9 4-4c2 1 2 5-1 12-3 9-4 15-2 16 3 0 4-1 4-7 1-4 4-8 9-10 2-1 2-1 2 2 0 4-1 5-7 11-2 1-3 2-2 3 0 2 1 2 6 0 6-2 8-2 9 2l4 4c3 0 3 2 0 4-2 2-2 3-1 5 0 3 0 3-3 3l-4 1c0 1 2 3 5 4 5 3 6 5 2 6-8 1-15 8-13 11 2 2 3 1 6-2 4-3 6-3 6 1 0 3-3 7-10 11-4 2-7 6-7 10 0 3 4 2 8-3 3-5 7-8 12-8 4-1 4 1 0 3-2 0-3 3-4 6-2 6-2 8 3 6 4-1 4-1 1 10l-2 11c1 1 1 1 4-1l2-1-1 3-9 11c-2 0-2 1 0 3l1 3c0 2-1 2-7 2-7 0-10 1-7 3l2 3c0 3 2 3 4 0 2-2 3-2 4 0h2c1-2 3-1 3 1l2 3 2 2c0 2-1 2-6 0l-7 10h3c3-1 7 1 9 4 1 3 1 3-3 8l-4 6-4 6c-3 4-6 6-8 6l-3 3c-1 4 0 5 3 3 6-4 11-9 13-13 3-5 3-5 5-2 1 2 0 4-3 10-3 3-3 3-1 6v4c0 2 0 2 3 1l3 1c0 2-4 5-6 5-3 0-9 3-9 4 0 2 5 2 8 0 4-1 8-2 8 0l-2 3-1 2c2 0 1 5-1 10-2 4-2 4 0 7 2 2 2 2 0 5-2 2-3 6-1 6s4-2 5-4c1-3 2-4 3-2 1 3 4 1 10-5l6-4c1 1-13 13-17 14-4 2-5 4-2 4 4 0 3 2-1 4l-3 4 8 6v7c1 1 0 3-3 7-2 5-3 7-3 11v5h3l4 1-3 5-4 6c-1 2-1 2 1 2l3 1 2 2c2 0 1 1-2 5l-3 4 5 4c4 3 4 3 6 1 3-2 3-1 1 2-2 2-3 3-7 2-6-2-7-1-6 1 0 2 0 4-2 6s-2 3-1 4c2 1 4 0 5-2 2-2 4-1 5 2 1 1 2 3 4 3l3 1-4 4c-5 4-6 4-3 0 1-3 1-3-1-3-4 0-8 3-8 6l2 6 2 3-3 3c-4 4-3 5 1 2s4-2 2 3l-2 4 6-2c6-3 5-2-5 5-6 5-9 9-6 9l8-5c10-5 11-4 2 2l-2 2c1 1 7-2 9-4 3-3 2 0-1 4-4 4-7 5-7 4-2-2-5-1-6 2-3 6-17 20-17 17l6-7 6-8c-1-3-7-2-17 1l-12 5c-3 2-3 1-5-1l-2-2 3-2c4-3 6-7 5-8l-9 5a95 95 0 0 1-17 14c-2-1-1-3 6-7 4-4 7-7 4-7l-9 5c-6 4-10 6-11 5l-5 2-4 3c-2 0-2 0 0-3l3-6 2-6v-3c-1-2-9 8-9 11s-1 4-3 6c-2 1-2 1-1-2l1-3c0-1-4 0-8 3l-6 4-1-3-2-6c-2-1-2-1-6 1l-6 7-6 6-4-2zm10-11c0-2-4-1-6 2l-3 4c1 2 2 1 5-1l4-5zm-69-5-3-3h-6c-2 2-2 4 2 4 1 0 2 0 2 2l1 2 4-5zm8 3c0-2-5-2-6 0 0 2 0 2 3 2l3-2zm88-1 4-5c0-3-4-10-5-12-2-1-2-1-3 2l-2 9-2 8c0 2 4 1 8-2zm-156-1c1-2 1-4-1-3s-3 6-1 6l2-3zm35-1c1-2 1-2-1-2-1 0-2 1-2 3 0 3 1 2 3-1zm109 1-1-1-1 1s0 2 1 1l1-1zm36 1-1-1-1 1 1 1 1-1zm-133-2c1-1 1-1-1-1s-3 0-2 1l2 2 1-2zm-33 0 3-2c0-3-11-2-13 0-1 3 4 4 10 2zm118-2c3-4 1-6-2-4s-4 5-3 6c1 2 3 1 5-2zm8-1v-3l-3 6c1 2 3 0 3-3zm-116 1-1-1-1 1 1 1 1-1zm163-2 1-3c-2 0-5 4-5 5 2 2 3 1 4-2zm34 2-1-1-1 1v1l2-1zm-153-2c1-2-2-4-3-2-1 1-1 3 1 3l2-1zm-22-4c0-1-3-3-4-1l-1 2c1 1 4 1 5-1zm59-1c4-3 5-5 4-7h-3c-3 2-4 2-3 0s1-2-1-4c-2-1-3-2-3-5 0-4-1-5-3-2-2 1-2 3-1 10 0 7 1 8 3 9 3 2 3 2 7-1zm21 0c2-3 0-5-3-4-2 1-3 3-1 5 2 1 3 1 4-1zm76 0-1-1-1 2 1 1 1-2zm-135-1-3-2c-2 0-3 2-1 3 1 1 4 0 4-1zm100 0c2-2 3-4 1-4l-5 4c0 2 2 2 4 0zm18 0-1-1-1 1 1 1 1-1zm-9-1-1-1-1 1 1 1 1-1zm41-1-1-2c-1-2-5 1-4 3 1 1 4 1 5-1zm-164-1-1-1-1 1 1 1 1-1zm130-2c3-4 3-4 0-4-4 0-6 3-5 5 1 3 3 2 5-1zm-38 0c0-2-4-6-5-6-2 1-2 4 0 6s5 3 5 0zm-108-3c6-4 6-4-3-8l-5-2-3 2c-1 2-2 2-1 6 2 7 5 8 12 2zm133-3c1-1 0-2-3-2-7-2-8-1-8 2l2 5 1 2 3-3 5-4zm22 2c-1-2-3 0-3 3v2l2-2c2-2 2-2 1-3zm-149 2c0-2-1-2-2-2l-2 1c0 3 3 4 4 1zm8-1c4 2 6-2 1-5-3-2-4-3-4-6 0-4-1-5-3-2-2 2-2 4-1 8 1 7 2 8 4 5h3zm15-2-3-16-2 3-3 5c-2 2-1 8 1 10l4 2c2-1 3-1 3-4zm15 2 4-2c0-2-6-4-8-4v6c0 2 0 2 4 0zm34 1v-2c-1-1-4 1-3 2h3zm119-1v-3c-2-2-4-1-4 1 0 4 2 5 4 2zm8 0-1-1c-2 0-2 1-1 2l2-1zm-27-1c2-1 3-4 1-5s-6 5-5 6c0 1 1 1 4-1zm7 1-1-1-2 1 2 1 1-1zm-44-2v-2c-3-1-5 0-5 2s2 2 5 0zm-24 0c0-1-2-2-5-2-2 0-3 1-1 2h6zm-83-1c1-1-1-2-2-2-1 1 0 3 1 3l1-1zm57 0c0-2-3-5-6-5s-3 1 0 4c2 2 6 3 6 1zm71-1v-2h-3c-3 3-1 5 3 2zm-125-6v-4l-3-2c-2 1-1 9 1 9l2-3zm71 0-1-2-2 3 1 2 2-3zm68 1c3-2 3-3 0-3-3 1-5 3-4 4 0 1 1 1 4-1zm22-1h-1c-2 1-3 3-1 3l2-3zm-180-1v-6c0-4-1-5-4-6-5-3-7-3-10 0-3 1-1 3 4 3 3 0 5 1 6 6 1 7 2 8 4 3zm54-2-2-1v5c1 1 2-2 2-4zm88-2c-2-2-4 0-5 4v3l3-3 2-4zm31 4c2-3 3-4 0-4-2 0-5 3-5 5s2 1 5-1zm-237-2c3-2 3-5 0-6-2 0-4 0-10 3l-3 1 3 3c3 2 7 2 10-1zm50 2-3-2 2 3 1-1zm140 0-2-3c-3-2-4-5-4-10s-2-5-5 0l-3 3 6 6c5 5 6 6 8 4zm-157-3-1-2-1 2c0 2 0 3 1 2l1-2zm101-1-1-3h-4c-2 2-2 5 1 5 2 1 3 0 4-2zm29-6-3-3c-1 0-2 7 0 10 1 2 1 2 2 0l1-7zm13 8-1-1-1 1 1 1 1-1zm-197-2 2-7c0-5 0-5-2-5-5 2-7 4-8 9v4l4 1c3 0 4-1 4-2zm65-5c0-3-2-4-5 0-4 5-2 8 2 5 2-1 3-3 3-5zm179 4c4-3 5-6 3-6l-8 8c1 1 2 1 5-2zm-110-2c2-3 2-3 1-5h-13l-2-4-2-4-1-3c-2-1-3 1-2 6 1 4 2 6 5 9s4 4 8 4c3-1 5-1 6-3zm-103-3 1-4c2-2 4-9 4-10-1 0-3 1-5 4-2 2-4 4-6 4l-3 2c-2 2-2 2 1 3l4 4c3 2 4 1 4-3zm79 1c0-5-1-10-3-11l-2 3v5l2 5c1 3 4 1 3-2zm107 3-1-1-2 1 1 1 2-1zm39-5c-1-1-3 1-3 4 1 1 1 1 3-1v-3zm-214 2 6-1h6l-3-2c-2-2-3-2-6-2-3 1-4 1-4-1 0-3-1-3-3-2s-2 1-1 4l2 5c0 1 2 1 3-1zm59 1-1-1-1 1 1 1 1-1zm60 0c1-1 0-1-1-2-2 0-3 0-3 2h4zm79-1c0-2-1-2-2-2l-2 1c0 3 3 4 4 1zm-93-3c-2-1-2-1-2 1l1 2h1v-3zm83 2c-2-1-7-1-7 1h5c4 0 4-1 2-1zm-225-1-1-1-1 1 1 1 1-1zm93-1-2-5c-4-4-7-4-8 0 0 2 0 2 3 2 2 0 2 0 1 1l-1 3c0 1 6 1 7-1zm71-1c0-2-1-3-3-4-2 0-2 0 0-2 2-3 1-4-2-2-6 6-5 8 5 11v-3zm50 2 3-3c0-3-1-3-6 0s-2 5 3 3zm-26-2-3-1c-2 1 0 3 2 3s2 0 1-2zm-122-3 4-2c1-1 1-1-1-2-4-2-6-1-7 1-3 3-2 5 0 4l4-1zm69-2-1-1-1 2c0 1 0 2 1 1l1-2zm-58-3-3-3c-3-2-3 2 0 5 2 2 3 3 4 2s1-2-1-4zm164 4c0-2-2-2-4-2-3 1-2 3 1 3l3-1zm-113-2c0-1-3-1-4 1l2 1 2-2zm54 1v-4c-1-2-2-2-4-2-4 0-4 0-1 4 3 3 4 4 5 2zm-187-2c1-2 2-2-5-4-5-1-5 1-2 4 3 2 4 2 7 0zm51 0c-2-3-5-4-6-3-4 1-1 5 5 5 3 0 3 0 1-2zm147 1-1-1-1 1 1 1 1-1zm40 0-1-1-2 1 1 1 2-1zm-224-1c0-3-8-12-11-11-2 1-1 2 4 7s7 6 7 4zm42-3c-1-2-6-3-6-1 0 1 6 4 7 3l-1-2zm93 0-1-1-1 1 1 2 1-2zm71 1c1-2-1-6-3-6-3 0-4 3-1 5 2 2 3 2 4 1zm-127-1c3 0 3 0 3-3s-2-4-6-1-5 6-2 5l5-1zm110-2c-1-4-2-5-3-2s-1 5 2 5c2 0 2-1 1-3zm-132 1-1-1-1 1 1 1 1-1zm192 0-1-1-1 1 1 1 1-1zm-274-2c2-2 2-6 1-5l-6 1c-15 4-15 4-12 5l9 1c5 0 7 0 8-2zm132-1c0-3-2-2-3 0l1 2 2-2zm15 1c1-1-3-6-4-6-2 1-1 5 1 6h3zm112-2c1-4-6-10-8-7s-1 5 2 7c4 2 5 2 6 0zm-250-1-1-1-2 1 2 2 1-2zm83-2c-2-2-3-1-3 2 0 2 0 2 2 1l1-3zm88-1h-2l-1 2c1 2 1 2 2 1l1-3zm18-1c0-4 0-4-2-4-7 2-7 3-6 5s3 3 6 3c1-1 2-1 2-4zm-136 2c3-1 3-2 0-3-3 0-10 1-11 3h11zm21 0-1-1-1 1 1 1 1-1zm20-2c2-2 2-2 0-2-3 0-7 2-7 4s3 1 7-2zm123 0-1-2c-2 0-3 2-1 3 1 1 2 1 2-1zm-152-4c0-5-2-6-5-6-4 1-4 3-1 8 3 4 5 4 6-2zm69-2c0 3 0 3 3 2l4-1-4-7c-3-6-3-6-5-5l-1 3-4 6c-4 4-5 5-4 7s1 2 6-3 5-5 5-2zm105 6-1-1-1 1 1 1 1-1zm-130-6c0-2-7-11-8-11-2 0-2 2 1 5l3 6 1 3c0 3 3 0 3-3zm-36 1-1-1-2 2 1 2 2-3zm18-3-2-2c-2 0-3 2-3 4 1 2 1 2 3 1l2-3zm168-1c-2-2-4-2-4 0 0 3 3 5 4 4v-4zm-72 1c0-2 0-2-2-2s-3 1-3 3 0 2 2 2 3-1 3-3zm31-1c-1-1-5-2-5 0-1 1 4 4 5 3v-3zm-68 2-1-1-1 1 1 1 1-1zm97 0c2 0 2-4 0-5s-4 2-4 4c1 2 2 2 4 1zm-223-2-2-2c-2 0-3 2-1 3 1 1 3 0 3-1zm12 0h2c3 3 6 2 7-1 3-4 2-5-2-5-3 0-4 0-5-3-1-5-1-5-4-5s-3 0-4 6v8c1 2 4 3 6 0zm170-3c3-4 4-5 1-7-1-2-1-2-4 4-4 8-2 9 3 3zm69 3c1-1-1-3-3-3v3h3zm-191-7-2-4c-1-3-2-3-4 0-1 2-1 3 1 7l2 4 5-5zm11-3c-1-2-3-1-3 3-1 1-1 3 1 4 1 2 2 2 2-2v-5zm-75 3c0-1 0-2-2-3l-4-2c-2-2-2-2-4-1-4 1-4 2 1 6 4 4 8 4 9 0zm107 1c-1-2-1-3 1-4l4-3 2-1-2-2c-6-4-14 5-9 10l3 2c2 0 2 0 1-2zm-121-2c-1-2-5-4-8-4-2 0-2-1-2-4s0-3-2-3c-3 0-7 3-7 5l4 2a306 306 0 0 1 15 6v-2zm213 1-2-3h-2c0 2 2 4 3 4l1-1zm23-3v-5c-2-2-3 0-3 4 0 6 2 6 3 1zm15 0-1-3c-2 0-2 1-1 5 1 3 2 2 2-2zm17 3c1-2-2-4-3-2-1 1-1 3 1 3l2-1zm-118-1-4-4c-4-3-5-4-7-3-4 1-5 3-2 6 1 1 3 2 7 2l6-1zm20-3 2-7-1-4c-3 0-4 4-5 11-1 4-1 4 1 4l3-4zm-121 1-2-1c-3 0-3 0-2 1 3 2 4 2 4 0zm6-1-1-2c-1-1-1 0-1 1l1 2 1-1zm29 0-1-1-1 1 1 1 1-1zm27 0c1-2 0-3-2-3l-1 2c0 2 1 2 3 1zm73-2c2-3 3-4 2-5l-2-1c-1 0-5 7-4 8 1 2 1 1 4-2zm79-1c4-4-1-8-5-4l-2 2 2 2c3 2 3 2 5 0zm-222 0c2-2 1-5-1-5s-4 3-4 5h5zm29-2c2-2 1-4-3-5-3 0-5 1-3 4 1 3 4 4 6 1zm148 1c-1-2-3-2-3-1l2 2 1-1zm-205-1-1-1-1 1 1 1 1-1zm12-3 2-3h-3c-4 0-8 5-5 6s4 0 6-3zm79 2c2-1 0-2-4-2h-3l1-6v-6l-4-1h-6c-2 2-1 3 1 5 2 1 3 3 3 5 1 6 3 7 7 6l5-1zm148-2c1-4 4-7 7-7 2 0 2-1-1-4-1-3-3-4-4-4s-6 9-7 14c-1 2 1 5 3 5l2-4zm-252 0v-7h-5c-4 0-4 0-4 2 2 8 5 10 9 5zm-23 0c6-3 6-5 2-7-4-1-4-1-9 3l-4 3 2 2c3 1 5 1 9-1zm77 0v-2c-1 0-4 1-3 2h3zm176 0-1-1-1 1 1 1 1-1zm-218-5 6-6c0-3-2-4-4-2l-4 2c-4 2-7 11-4 11l6-5zm76 4c2-1-5-8-7-8-4 1-3 3 1 6 5 3 5 3 6 2zm23-2c2-4 1-5-1-5l-3 2c-1 5 2 8 4 3zm87 2-1-1c-1-1-1 0-1 1l1 1 1-1zm21-1c1-2 1-2-1-3-1 0-3 2-2 4 0 1 2 1 3-1zm-10-3c0-2-2-3-3-1 0 2 1 5 2 4l1-3zm-55 1c0-4-1-6-3-6-3 1-3 2-1 5s4 4 4 1zm48 0c2-4 0-16-3-16h-2c-2 1-2 2-1 8l2 9c2 1 4 1 4-1zm-59-3-1-2c-1 0-2 4-1 5 1 2 2 0 2-3zm35 1c0-3 0-3-2-3l-2 2c0 5 3 5 4 1zm7-1c0-3-2-7-4-7l1 9c1 3 4 2 3-2zm-226-8-2-3c-2 1-1 10 1 12 1 2 2 2 2-2l-1-7zm83 10-1-1-1 1 1 1 1-1zm11-2c0-4-3-12-4-15l-7-4-5-2-5 4c-8 6-3 9 8 4l7-2-1 3c-2 3-1 9 2 12 3 4 5 4 5 0zm18 2-1-1-1 1 1 1 1-1zm95-1-1-2-2 2c0 2 2 2 3 0zm-199-6 2-8c1-3 1-4-1-2-3 2-5 8-5 13 1 6 3 5 4-3zm60 2c3-3 3-3 2-5l-2-2-3 2c-3 2-4 6-2 7 1 1 2 1 5-2zm-41-2-2-2-3 2c0 1 1 2 3 2s2-1 2-2zm87 0c0-2-8-6-9-5l-1 3c0 2 0 3 4 3 5 1 6 0 6-1zm73-1c-1-2-2-1-2 2h2v-2zm48 2-1-1-1 1v1l2-1zm-217-2c3-2 3-3 3-6 0-4-2-9-3-8l-1 2-3 6c-6 7-3 10 4 6zm145-1c1-2-3-4-4-3s1 4 3 4l1-1zm-6-4 3-4c2-3 1-4-2-2-4 2-6 6-5 8 0 1 2 1 4-2zm-97-3 3-5-2-1c-4-4-8-2-10 5l1 4c3 2 4 2 8-3zm148 4c4-1 4-4 1-5-4-2-6-1-6 2 0 4 1 5 5 3zm15-2-1-4-2 1c-1 5-1 6 1 6l2-3zm71 2c-1-2-4-3-4-1l2 2 2-1zm-264-2c0-3-2-5-4-5s-2 2 0 4c4 4 5 4 4 1zm17-1c2-6 2-6-5-6-5 0-5 1-8 5l-2 4h7c7 0 7 0 8-3zm258 2-1-1-1 1 1 1 1-1zm-110-2-1-1-1 1 1 1 1-1zm-71-1 2-1-3-3-3-3-4 4 4 4 4-1zm-24-1c2-2 2-3-1-3l-2 2c0 2 1 2 3 1zm174 0v-1l-1 1v1l1-1zm-137-2-1-1-1 2h1l1-1zm45 0c0-2-1-2-2-2-3 0-5 2-3 3 3 2 5 1 5-1zm51-3-1-3-2 4c1 2 3 1 3-1zm19 2-1-1-1 1 1 1 1-1zm-84-2c2-3 0-5-3-3l-2 4c0 2 4 1 5-1zm121 1-1-1-1 1 1 1 1-1zm-182-3c3-2 2-7-1-10-2-2-2-2-4 5-1 6 1 8 5 5zm-34-1c1-1-1-3-5-4l-4 1c0 3 8 5 9 3zm9-2c0-2-4-1-4 0l1 2c1 1 4-1 3-2zm36 0-1-1c-2 0-3 2-1 3 1 1 2 0 2-2zm22 2v-3c-2-2-5-1-5 2 0 2 2 3 5 1zm-95-2c0-1-2-1-3 1l1 1 2-2zm108 1h-2v1l2-1zm-150-1c3-1 6-6 6-9 0-2-6-2-8 0s-3 7-2 9h4zm15 0-1-2c-2 0-3 0-3 2h4zm15-1 1-3 1 3c1 2 1 2 3 0 2-1 2-1 0-5l-2-5-4 5-4 5c0 3 4 2 5 0zm61-4c-1-3-2-3-7-1-4 2-3 4 3 4 2 0 3 0 4 2 0 1 1 1 1-1l-1-4zm131 3c1-4 0-8-1-8-3 1-4 5-3 8 2 4 3 3 4 0zm58 2-1-1-1 1 1 1 1-1zm23-1-1-2c-1-2-5 1-4 3 1 1 4 1 5-1zm-119-1c0-2 0-2-2-2-3 0-5 2-3 3s4 1 5-1zm52 0c-1-2-2-1-2 1h2v-1zm29-7c4-6-2-6-8-1-4 3-4 3-2 7l1 3 4-3 5-6zm26 4c5-4 5-5 2-6-3-2-6 0-8 3-4 7-1 9 6 3zm-267-1 4-7-1-2h-4c-2-2-16-4-17-2-2 2 2 5 8 6 5 1 6 2 6 4l1 5 3-4zm151 3c0-2-2-5-3-5-2 0-2 2 0 4 1 2 3 2 3 1zm-116-3-4-1h-2l2 2c2 2 5 1 4-1zm97-1 1-3c-2 0-6 3-6 5 0 3 3 2 5-2zm87 0c0-3 0-3-2-3-3 0-4 2-2 5s3 2 4-2zm65 3-1-1-1 1v1l2-1zm-77-2-1-2c-1 0-3 2-2 3 1 2 3 1 3-1zm-155-2c6-3 6-5 2-6-5 0-14 5-12 8 1 2 6 1 10-2zm-21-6-2-3h-6l-4 4c-2 2-2 2 1 4l3 3 4-4 4-4zm130 6-1-1-1 2h1l1-1zm14-1-2-3-2 3c0 2 0 3 2 3s2-1 2-3zm-277-1h7l4 1c1-1 3-9 2-11-1-1-10 1-14 4l-6 2-5 3c-2 1-2 1 0 2 4 1 6 1 12-1zm194-2c2-2 3-4 3-7 0-7-1-11-3-11-1 0-2 4-1 7s1 3-3 7c-3 3-3 4-2 5 2 3 3 2 6-1zm-129-2v-3c-1-2-7-1-9 2-3 3-2 4 4 2l5-1zm165 1c2-2 2-5 0-5-1 0-4 5-3 6s2 1 3-1zm85 1 1-5c-1-5-3-6-5-1-3 5-2 7 0 7l4-1zm-243-3-1-3c-2-2-2-1-3 1v4c2 1 4 0 4-2zm131 1c2-2-1-3-3 0l-2 2h2l3-2zm86 0 2-3-11-6c-1 1 1 7 3 9 3 2 3 2 6 0zm-44-1v-3c-1 0-3 2-3 4s2 1 3-1zm24-6c0-3-5-7-8-6-1 1-1 5 1 7l2 4 1 2 3-2c2-2 2-3 1-5zm100 6c2-1 3-4 1-5-1 0-5 3-5 5h4zm-252-1c1-1 0-2-3-6l-5-4c-2-1-1 4 2 8 2 3 4 4 6 2zm52-3c0-3-1-4-5-4l-5 1c-1 1 0 2 3 4l6 3 1-4zm-16 2c-1-2-3-2-3-1l2 2 1-1zm36-2c0-3-4-4-7-2-1 1-1 1 1 3 3 3 6 2 6-1zm163 1-1-1-2 1 2 2 1-2zm-299-1c2-2 1-5-1-5-4 0-6 2-4 4s3 2 5 1zm87-1-1-1v1l1 1v-1zm182-6c-1-2-1-2-3-1v6l1 2 1-2 1-5zm42 6 7-5 6-4c0-4-7-5-13-3-3 1-5 4-5 9 0 3 0 4 2 4l3-1zm17 0-1-1-1 1 1 1 1-1zm-315-4c4-4 6-4 6-1 0 2 0 2 4 2l4-2c2-2 0-6-3-9l-3-4-8 9-3-1-3-3c-2-2-4-1-5 1 0 4 2 8 4 10 3 2 3 2 7-2zm268 2c-1-2-4-3-4-1l2 2 2-1zm-235-1c0-2-5-4-6-2l-1 2h7zm191-2c2-3 0-5-4-3-3 2-3 2-1 4 2 3 4 2 5-1zm-171-1c0-3-2-4-4-2v3c2 3 3 2 4-1zm11 1 7-3c3-2 4-2 6-1 7 2 7 1 1-4l-4-4-3 3c-2 3-4 4-9 5l-7 2c-1 2 1 4 3 4l6-2zm99-3c0-3-1-5-3-3-1 1 1 7 2 7l1-4zm77 2-3-12-3 1v6c2 6 4 9 6 5zm-216-3v-4h-2v7l2-3zm269-5c1-2-1-3-4-1-2 1-3 0-3-1-1-4-3-2-4 4v5l5-3 6-4zm-252 3-2-1-2 2c0 2 0 2 2 1l2-2zm229-1 3-2h-4c-5 0-7 1-5 3s2 2 6-1zm-239 1-1-1-1 1 1 1 1-1zm86 0-1-1-1 1 1 1 1-1zm25-6c0-4-1-6-4-6-2 0-2 1-1 5l1 6c2 3 4 0 4-5zm31 4c-2-3-4-4-5-1 0 1 2 4 5 4 2 0 2 0 0-3zm33-7c-1-5-2-5-3-2-1 4-1 4 1 7s3 3 3 1l-1-6zm44 6c0-2-2-3-3-1l2 3 1-2zm-249-1c0-2-2-5-7-7a795 795 0 0 1-9-4c-1 1 2 4 4 6a3271 3271 0 0 0 12 5zm-15 0-1-1v1l1 1v-1zm63 0-1-4c-2-3-2-3-4-2v6h5zm77-2-1-1-1 2c0 1 0 2 1 1l1-2zm102 1c0-2-2-1-3 0l1 2 2-2zm84-2c0-6-4-5-4 1 0 3 0 3 2 3 2-1 2-1 2-4zm-292 1c0-3-2-9-4-10-4-2-4 0-2 4l3 6c0 3 2 2 3 0zm11-1-1-1c-2 0-2 1-1 2s2 1 2-1zm136 1c1-2-2-3-3-1-2 2-2 2 0 2l3-1zm76 0-1-1-1 1 1 1 1-1zm26 0v-2h-2c-3 2-1 4 2 2zm30-1c0-2-2-5-4-4v5c1 2 4 1 4-1zm-263-1c-1-2-2-1-1 1h1v-1zm35-1c5-3 2-6-6-6l-9-2c-5-3-7-3-10 0-1 1-1 2 2 3l5 3 6 2c3 3 7 3 12 0zm33 2c-1-2-3-2-3-1l2 2 1-1zm-123-2c1-2 1-3-1-5l-2-2 2-3c2-2 3-2 10-2l8-1-4-2c-4-2-12-3-15-1-6 3-8 10-3 15 2 3 4 3 5 1zm242 0v-10c-2-1-3 3-3 7 1 5 2 6 3 3zm26-1c1-1-1-2-2-2-1 1 0 3 1 3l1-1zm56-1-2-2c-2-1-3 2-1 3s3 1 3-1zm-211-1c1-3 1-3-3-4-6-2-7-1-3 2 4 4 5 5 6 2zm104-3h-2l-1 2c1 2 1 2 2 1l1-3zm88 1 1-9-6 3c-5 2-6 3-6 4 0 2 1 3 3 3l3 1c2 2 4 1 5-2zm-285 1c0-2-2-3-5-3-2 0-2 0 0 2s5 3 5 1zm151 0-1-1-1 1 1 1 1-1zm39 0c1-2-1-6-2-6-2 0-4 4-3 6l3 1 2-1zm68-1c-1-3-4-4-6-2v2l5 2c2 0 2 0 1-2zm-224-3 5-3-13-4-1 4 4 7 5-4zm7 1-1-1-2 2 1 1 2-2zm201 0-2-7c-1-4-1-5-2-4-1 3-1 9 1 11 1 2 3 2 3 0zm72 1-1-1-1 1 1 1 1-1zm-17-2 1-4c0-2 1-4 4-7l3-4-4-2c-8-3-9-3-11-1-2 4-1 4 4 4h3l-1 3-2 6-2 3-2 3h3l4-1zm-288-2 7-4c3-2 2-3-1-3-7 0-12 4-12 8 0 2 0 2 6-1zm139 2v-8h-4c-3 1-3 4-1 7 3 2 3 2 5 1zm155 0-1-1-1 1 1 1 1-1zm-126-2c1-2 1-2-2-5s-5-3-7 0l2 4c3 3 4 4 7 1zm31 0-3-1-3 1 3 1 3-1zm107 0-1-1-1 1v1l2-1zm-51-4c2-5 2-7-1-7-2 0-3 1-3 6 0 6 1 7 4 1zm11-1c4-4 4-4 4-8-1-2 0-5 1-8 3-6 5-16 4-17-1 0-7 10-7 12l-5 11c-5 8-5 9-4 12l2 3 5-5zm-120 3-1-1-1 1 1 1 1-1zm-36-1c2-3 0-10-3-10-2 0-4 5-3 6l4 5 2-1zm131 0c2 0 3-3 1-3l-3 2-1 2 3-1zm-243-10c-2-2-6-1-8 1l-3 2 4 7 4-4c3-3 4-5 3-6zm55 9-1-2c-2 0-3 0-2 2h3zm25-1-1-1-1 1 1 1 1-1zm114 0 4-2c5-2 2-4-2-3s-7 3-5 5h3zm-32-5 3-5-2-3c-2-2-2-2-4 0-3 3-6 11-5 12 2 2 4 1 8-4zm-112 0c0-1-1-2-3-1v2c1 2 3 2 3-1zm12-3c0-2 0-2-4-2-5 0-5 2-1 6 2 2 2 2 4 0l1-4zm-20-7-3-7c-2-3-6-3-8 0-2 2-2 2 0 6l6 8c3 4 3 4 4 2l1-9zm84 6 2-5c-1-1-5 1-6 4-3 4-2 5 0 5s3-2 4-4zm120 2c2-3 1-7 0-8-2-1-5 2-5 4l3 6 2-2zm-274 0-1-1-1 1 1 1 1-1zm113 0v-1l-1 1v1l1-1zm147-2c-1-1-3 1-2 2h1l1-2zm-139-1c0-2-1-3-2-3-3 0-4 4-2 5 3 2 4 1 4-2zm108-2c9-7 8-9-2-4-6 3-8 4-8 6 0 3 4 2 10-2zm-174 1c0-3-5-6-6-6-2 1-2 3 0 5 3 3 6 3 6 1zm23 0c-1-3-3-5-4-5-1 1-1 4 1 5 2 3 3 2 3 0zm35-1v-4c-2-2-5 0-6 3-2 4 3 6 6 1zm19-1c3-3 4-5 2-7s-4-1-6 3c-3 8-1 10 4 4zm78 1c-1-1-1 0-1 1l1 1v-2zm25 2-1-1c-1-1-1 0-1 1l1 1 1-1zm-194-1c0-1-3-3-4-2 0 1 1 3 3 3l1-1zm243 0-1-1-1 1 1 1 1-1zm-277-2c2-1 3-6 1-8-3-2-14 5-11 7 2 2 7 2 10 1zm8-1-1-1-1 1 1 1 1-1zm316 0c-1-2-3-2-3-1l2 2 1-1zm-180-2v-2c-2 0-4 1-3 3 0 1 2 1 3-1zm-163-1c0-2 0-2-2-2-2 1-3 4 0 4l2-2zm186-1c-1-2-4-3-4 0l2 2 2-2zm141 0c0-2 0-2-2-2s-2 1-2 2c0 3 3 2 4 0zm-271-1-1-1c-3 0-5 1-4 2 0 1 5 1 5-1zm156 1v-3h-3c-2 1-3 3-2 3h5zm81-1-1-1-2 1 2 2 1-2zm-253-2c3-2 2-7 0-9l-4 2-3 5c0 3 4 4 7 2zm70 0c1-4-5-13-7-11-1 2-1 5 1 9 2 3 5 4 6 2zm177-8c0-6-2-17-4-18l-3 3-3 5c-2 3-2 3 0 4s2 2 2 5c-1 4-1 4 2 3 2-1 2-1 1 2-1 4 0 5 3 3 1-2 2-3 2-7zm-284 6 3-3c0-2-9 2-10 4 0 2 3 1 7-1zm123 0-1-1-3 2 2 1 2-2zm93-2c2-4 1-6-2-5s-5 5-4 7c1 3 3 2 6-2zm18 3c1-2-2-4-3-2-1 1 0 3 1 3l2-1zm55-1-1-1c-1-1-1 0-1 1l1 1 1-1zm-223-5 6-4 6 4 6 4s2-1 2-3c1-2 1-2-4-7s-6-5-8-4l-4 1-6 4-5 4c-3 0-3 3-2 4 2 3 3 2 9-3zm240 2c3-3 3-4 2-7-1-2-4-1-6 3s-2 7 0 7l4-3zm-324-4c0-1-5-3-6-2l1 3c2 3 2 3 4 2l1-3zm255 3c2 0 3-3 1-4-1 0-3 2-3 4h2zm12-1-1-5-1-3-1 4-1 4c1 3 4 2 4 0zm-231 0-1-3c-1-2-1-2 1-3 4-1 7 0 7 3s2 4 3 3c3-1 7-9 7-11l2-4 3-5 2-2 1 2c1 3 1 3 3 2 5-3 1-8-6-8-3 0-4 0-5 2 0 3-2 2-3-2l-2-4c-2 0-4 2-4 4l-4 5c-3 4-3 4-4 2l2-7c2-5 1-7-2-3-1 2-2 3-6 3l-5 1 2 4 2 10c0 5 0 5-2 4-4-1-2 3 3 6 4 2 5 2 6 1zm9-18v-1l1 1v1l-1-1zm121 18c2-1 1-4-2-4-2 0-4 2-4 4h6zm183-1c0-1-1-2-3-2s-3 2-1 3 4 0 4-1zm-217-3-2-4c-3-1-3 3-1 7 2 1 3 0 3-3zm24-1c3-4 4-4 7-4h4l-4-5c-4-4-4-4-6-2-6 5-10 13-7 15 1 1 2 1 6-4zm68 3c2-2 2-3 3-7 0-5-1-6-2-6-2 0-2 1-3 4l-1 7-2 3c0 2 3 1 5-1zm25 0v-3c-3-2-5-1-6 2 0 2 0 3 2 3l4-2zm90-1c0-2-1-3-2-1-1 1 0 3 1 3l1-2zm-23-1 1-5c0-2 0-3-2-3s-4 4-2 7c1 3 3 4 3 1zm-243-1v-8l3 1c2 2 4 2 7 0 1-2 1-2-1-8l-2-7c0-3-1-3-4-3-3 1-4 3-1 5 2 2 1 4-2 5-4 1-9 5-11 10-1 4-1 4 1 6 2 1 8 1 10-1zm69-2c4-4 4-5 0-3-3 1-6 4-5 6s2 1 5-3zm73 1v-2h-3l-3 3c0 1 3 1 6-1zm61-1c2-1 3-6 1-8h-2v4l-3 1-1 2c0 2 2 2 5 1zm-156-4h-2v2h1l1-2zm72 1-1-1-2 1 1 1 2-1zm152 0-2-2c-1 1 0 3 1 3l1-1zm-4-4c6-3 7-5 8-9 0-3 0-3-3-4s-3-1-6 4c-1 3-2 0 0-3 2-6 2-8-2-8l-4 1c-2 1-2 2-1 6 1 3 2 6 4 7 3 2 3 3-1 3-4 1-5 2-3 4s2 2 8-1zm-230 0c2-3 3-7 1-7s-6 4-6 5c0 2 2 4 3 4l2-2zm69 0-1-1-1 1 1 1 1-1zm142-1-1-1-1 1 1 2 1-2zm40 0c2-2 2-7 0-7-1 0-2 2-2 5-2 4-1 5 2 2zm-245 0-1-1-1 1 1 1 1-1zm15-2c3-3-2-7-7-4-2 1-3 5-1 6 1 1 6 0 8-2zm7 0c0-2-2-4-2-2-1 1 0 5 1 4l1-2zm116 1-2-1v1l1 1 1-1zm98 0-1-1s-2 0-1 1l1 1 1-1zm-166-3-1-1-1 1 1 2 1-2zm-37-1c0-2 0-2-1-1-2 0-3 3-1 3l2-2zm171 0v-2c-1-1-4 1-5 3 0 1 4 1 5-1zm-177-2v-5c-2-3-2-4-5-4-5 0-5 2-1 6s5 5 6 3zm39-1-1-2c-3-1-3 0-2 2 0 2 2 2 3 0zm41-1c0-2 0-2-3-2s-4 1-1 3c2 2 3 2 4-1zm47 2-2-1-2 1 2 1 2-1zm-175-2c0-1-1-2-3-2l-2-2c0-3-2-6-4-6s-3 4-1 9c1 3 2 3 5 3l5-2zm138 0v-4c-2 0-4 3-4 4 1 2 3 2 4 0zm65-2-1-2c-1 0-2 4-1 5 1 2 2 0 2-3zm-188 0c1-2 1-2-1-4-1-2-2-2-3-1-2 1-3 6-2 7 0 1 4 0 6-2zm199-1c0-3 0-3-3-2l-3 1 6 5v-4zm-136 1c4-2 3-4-1-4l-5-1v4c1 3 2 3 6 1zm-52-1 2-4 3-1-9-7 2-3 2-4c-1-1-1-1-3 1-4 2-5 5-5 10 1 7 8 13 8 8zm145 1c2-2 1-3-1-3-3 0-4 2-2 3h3zm56-2c3-1 3-2 2-6-1-5-4-8-5-8v15c1 1 1 1 3-1zm-130 0-1-1-1 1v1l2-1zm60-2c1-2 1-2-1-5-1-3-1-3-3-2l-1 5c0 5 2 6 5 2zm-37 0c-1-2-2-1-1 1h1v-1zm-33-1-1-2c-1-1-1 1-1 2l1 2 1-2zm-119-2c2-3 1-5-3-5-7 0-9 2-4 6 3 3 5 2 7-1zm159 1c1-2-2-4-3-2-1 1-1 4 1 4l2-2zm76 0-1-1c-2 0-2 1-1 2l2-1zm-228-1c0-2-2-5-4-5v4c1 3 4 4 4 1zm31 0c2-1 3-5 1-5l-4-1c-5-1-6 1-3 5 3 3 4 4 6 1zm48 1-1-1-1 1 1 1 1-1zm166-2c0-2-2-4-2-2-1 1 0 5 1 4l1-2zm-70-2c0-3-2-6-4-5v8c2 2 4 1 4-3zm36 0c2-5-3-9-5-4-1 2-2 3-5 3-5 0-4 2 1 4 7 1 8 1 9-3zm-106 0c-1-2-3-3-3 0l2 2 1-2zm123-9-2-4v10c1 4 2-1 2-6zm6 7-1-1-2 1 1 1 2-1zm-118-1-1-1-1 1 1 1 1-1zm-44-1-1-1-1 1 1 1 1-1zm194-1c0-1-3-1-4 1l2 1 2-2zm10-2c2-4 2-4 0-7s-4-2-5 3c0 9 2 11 5 4zm-272 1c0-2-1-2-2-2-3 0-4 1-2 3s4 1 4-1zm128-3c0-1 1-3 3-3 3-1 2-4-1-3-7 1-8 1-8 5l1 5c1 1 4-2 5-4zm28 3-2-2-1 2 1 2 2-2zm80-5c2-8 2-9 4-6l2 5c1 3 1 3 2 2 1-2 1-2 4 0 2 2 2 2 4 0l3-6c3-6 2-7-4-3l-5 3-1-2c-3-5-3-7 0-8l2-3c0-2 0-2-6-1-7 2-11 5-13 7v8l2 7c0 2 3 4 4 3l2-6zm-246-2c2-4 2-5 1-11l-2-7-4-3-4-2-6 3c-7 4-7 6-3 10l7 8c5 10 7 11 11 2zm35 5c0-2-3-2-4 0 0 2 0 2 2 2l2-2zm53 0v-4c-3-5-9-2-6 3 1 3 3 4 6 1zm16-1-1-1-1 1 1 1 1-1zm-82-3c3-2 5-7 4-10l-5-1c-3 0-4 0-5 2 0 2-1 2-3 0s-3 0-2 4l2 5c2 3 5 3 9 0zm5 2-2-1v1l1 1 1-1zm45-1c5-6 6-12 2-16l-9-5c-2 0-1 4 2 7s4 6 2 11c-2 4 0 7 3 3zm-28-2c0-3 0-3-2-3l-2 2c0 5 3 5 4 1zm179 0-1-1-1 1 1 1 1-1zm-108-1-1-1-1 1 1 1 1-1zm79-1-1-1v1l1 1v-1zm-84-4c-1-1-3 1-2 2h1l1-2zm71 1v-4c-2-1-2-2 0-5 1-4 1-5-2-5-2 0-3 4-2 7l1 5c-1 4 1 5 3 2zm35 1 1-3c0-4-4-2-5 1 0 3 2 4 4 2zm69-4c0-3 0-3-3-2l-3 1 2 3c3 3 4 3 4-2zm-129-3c0-7 0-10-2-7v13c2 2 3 0 2-6zm70 2c-1-3-4-5-6-3-1 1 0 3 1 3l4 2c2 2 2 2 1-2zm46 3-1-1-1 1 1 1 1-1zm-185-2-1-1-1 2h1l1-1zm51 1c2-1 0-3-2-3s-3 2-1 3h3zm-99-3c-4-2-5-3-6-1-2 2 1 4 5 4h4l-3-3zm222 0 8-11c-1-1-7 3-9 6-3 3-4 8-2 8l3-3zm32 2c3-1 2-3 0-3s-3 1-2 3h2zm-86-2c3-4 2-5-1-4-4 3-4 3-3 4 2 2 3 2 4 0zm-157-1c0-2-7-4-8-3s4 5 6 5l2-2zm189-2 5-5-3-5c-3-4-3-4-4-3l-1 6-2 6c-1 1-2 2-1 3l1 2 5-4zm-92-2-2-1v4c2 1 3-1 2-3zm133 2c4-4-1-10-6-7-2 2-5 7-3 8s7 0 9-1zm-271 0 3-4 1-3-8-9-6 5 2 1c3 1 3 1 3 6 0 4 0 5 2 5l3-1zm285-2 1-5c-1-1-1-1-4 1-4 2-5 4-2 5 2 2 3 2 5-1zm-104 0c-1-2-3-3-3 0l2 2 1-2zm25 0-1-1-1 2 1 1 1-2zm-87-1-1-1-2 1 1 1 2-1zm-101-2c2-2 0-4-4-4-3 0-3 2-1 4s4 2 5 0zm176 0-2-1-2 1c0 2 3 2 4 0zm-246-3-1-1-1 1 1 1 1-1zm121 0c3 0 3-2 0-5-3-2-5-1-5 3 0 3 1 3 5 2zm-20-5 6-6c2-1 2-2 1-3l-7 2-10 4c-3 0-4 1-4 2 1 1 6 5 9 5l5-4zm207 2 2-3-3-2c-4-2-6-2-6 2-2 5 1 7 7 3zm-136 0c0-2-1-1-2 0l1 1 1-1zm76-1 1-2-3 2c-3 2-1 2 2 0zm-100-1-2-1c-2 0-3 1-1 2 1 1 3 1 3-1zm82 0c1-2 1-2-1-2s-3 2-2 3 2 1 3-1zm36 1c3-1 3-4 0-4s-5 2-5 4h5zm63 0-1-1s-2 0-1 1l1 1 1-1zm-261-3c4-3 4-4 4-8 0-5 3-10 6-10 2 0 2-1 2-3s-2-3-4-5c-5-2-7-5-5-9 1-2 2-3 4-3s3-1 4-3c2-2 2-2 0-2l-7 3c-6 3-6 5-3 13 3 5 3 5 1 7l-2 4c1 1 0 2-2 3-2 0-2 1-2 4 0 4 0 4-4 3-3-1-4 0-4 4l2 4c4 1 5 1 10-2zm61 1-1-1-1 2 1 1 1-2zm165 0-1-4h-2v5c1 2 3 1 3-1zm27 0h-2l1 1c1 0 2 0 1-1zm-182-1-3-1-1 1 2 1 2-1zm26-2c3-3 2-4 0-4s-3 1-3 4c0 4 1 4 3 0zm133 2-1-1-1 1 1 1 1-1zm20-2c2-3 2-4 1-4l-3-1c-2 0-1-1 2-5 4-4 7-12 6-13l-2 1c-6 9-8 11-12 13l-8 2c-4 0-7 2-6 3h6c5 0 6 0 9 3l4 4 3-3zm-113-3-2-1-2 5h3l1-4zm135 4c1-2-2-4-3-2-1 1 0 3 1 3l2-1zm-79-2c1-2 0-2-2 0l-1 2 3-2zm-137-2-4-4c-1 0-1 1 1 4 1 2 3 3 3 0zm147 1h4c2 1 2 1 2-2 0-4-1-6-2-6l-3-2c-2-2-4-1-7 1l-3 2 3 3 3 4h3zm17-3c2-3 2-3 1-4-4-1-7 3-6 7 1 2 3 1 5-3zm43 2-2-1-2 1 2 2 2-2zm-183-3 2-3-3-1-8-3c-6 0-6 0-6 2l1 5c1 3 2 3 6 3l8-3zm11 2-1-1-1 1 1 1 1-1zm165-2-1-1c-2 0-2 1-1 2l2-1zm-233-4c4-4 7-10 6-14-1-2-1-2-5 0-6 2-8 4-8 10 0 9 2 10 7 4zm37 1-1-1-1 1 1 2 1-2zm112 1c2-2 1-5-2-3l-2 2c0 2 1 2 4 1zm20-1 2-3-6-4v7c1 2 2 2 4 0zm-78-1-1-1-1 1 1 1 1-1zm47-2-1-1-1 2h1l1-1zm79 1c2 0 4-7 3-9-2-2-3-2-7 3-5 4-5 8 1 6h3zm-249-2c0-1-2-3-3-2l2 4 1-2zm65 1v-2h-2c-3 2-1 4 2 2zm163 0 3-1 4-2v-3l-4-1c-3 0-6 3-6 5 0 3 1 4 3 2zm-171-1-1-1s-2 0-1 1l1 1 1-1zm82-4c0-3-2-3-3 0l1 3 2-3zm-12 0c0-2-2-1-3 0l1 2 2-2zm46-1c2-4 5-4 4 0l1 3c2 0 6-4 6-6s-4-3-7-3c-4 1-8 5-8 7 1 3 2 2 4-1zm48 0c1-3 1-4-1-4s-3 2-3 4c1 4 3 4 4 0zm-171-1 3-5c2-2 2-3 1-4-1-2-4-3-6-1l-2 7 1 6 3-3zm59 1c0-2-2-2-3 0-2 2-2 2 0 2s3-1 3-2zm104 1c2-1 0-3-3-3s-6 1-6 3h9zm-150-3c8-1 9-1 10-4l1-4-6-1-5-2c-2-2-5 2-5 5 1 1 0 2-2 3-3 1-3 5 0 4l7-1zm139-1c2-3 3-6 1-7l-10 3c-1 1 0 4 4 5 2 1 2 1 5-1zm-116 0v-2c-1-2-4-1-5 2h5zm155 0c0-3-3-4-3-3-1 1 0 4 2 4l1-1zm-104-2c3-2 5-14 2-14-1 0-3 3-5 9l-2 6c0 1 2 1 5-1zm9 1-1-1c-1 0-2 0-1 1l1 1 1-1zm-45-4-1-2-2 3 1 3 2-4zm71 0 3-2h-4c-3 0-4 0-4 2s2 2 5 0zm49 0 4-2c1-2 1-3-1-5l-3-1c-2 5-2 5-3 1l-3-4c-3 0-7 4-7 7 0 4 2 5 6 4h7zm32-1-3-2c-1 1 0 3 1 3l2-1zm12 0c3-2 2-5-1-6-4-1-9 4-6 6h7zm-77-4c4-3 5-6 3-6l-11 8 1 1c1 2 4 1 7-3zm55 1c0-1-3-2-3 0v2c0 1 3 0 3-2zm-220 0c0-2 0-2-2-2l-2 2c0 2 0 2 2 2l2-2zm-21 0c3-1 2-3 0-4-2 0-3-1-3-3s-1-3-2 0c-1 1 0 5 1 7h4zm33-2-1-1-1 2 1 1 1-2zm95-1 2-5c3-4 1-4-2 0-4 4-5 7-3 8 1 1 3-1 3-3zm-34 0-1-2c-1-1-3 1-2 3 0 1 3 1 3-1zm80 1 3-4c2-3 3-3 5-3h3l3-5c3-4 3-4 0-6-3-1-3-1-6 1-6 3-13 15-10 17h2zm-129-2c2-2 2-2 0-3-4-2-8 0-5 3 2 2 3 2 5 0zm119 0c0-2-2-4-4-3l4 5v-2zm-60 0-1-1-1 1 1 1 1-1zm130-1 3-2h-3c-3 0-5 2-4 3s2 1 4-1zm-164-2c0-2-5-5-6-4l1 3c2 3 4 3 5 1zm18-2c0-3-7-18-8-19l-2 1c-1 0 0 4 6 17 2 4 5 5 4 1zm63 1c0-2 0-2-3-2l-3 2c0 2 0 2 3 2 2 0 3-1 3-2zm110 1c3-1 2-2 0-1l-2 1h2zm-256-3-1-1-1 2h1l1-1zm244-1c2-2 3-7 1-7l-6 9c0 2 2 1 5-2zm-125 1-1-1-2 1v1l3-1zm14-2-1-3c-2-1-4 1-3 4 0 3 3 2 4-1zm-96-1c2-5 0-10-3-11l-4-4c-1-2-2-3-4-2-4 0-5 3-5 9 0 9 3 11 8 7l2-2 1 3c0 2 1 3 2 3 2 0 3-2 3-3zm154 2c3-1 3-4 0-4-2 0-4 2-4 4h4zm-143-1-1-3c-1-2 0-3 3-6l3-4c0-2-5-4-8-4-3 1-3 1-3 8s1 10 4 10l2-1zm163-5-3-6c-2-3-3-3-5-3-3 1-3 1-3-1a2151 2151 0 0 1 5-18c-1-1-4 3-6 6-1 2-2 2-4 1s-5-1-5 1l4 8c4 6 5 7 7 7v2l-2 3c0 2 3 1 5-1s3-1 3 3l1 3c1 2 3-3 3-5zm14 4 6-2c4-1 7-5 5-7-1-1-3-1-9 2s-7 4-8 6c0 3 0 3 2 2l4-1zm-120-1c0-2-3-3-4-1v2c2 1 4 1 4-1zm165 1c3-2 3-3 0-4-4-1-7 0-7 3 0 2 4 3 7 1zm-261-2c0-3-3-2-4 0l2 2 2-2zm60-3-3-4c-1-2-3-1-3 1l3 4c4 5 7 4 3-1zm-8 3c2-2 1-4-2-7-5-3-7 2-4 7h6zm101-1c2 0 3-2 4-3s0-2-5-3l-6-1c-1 1-1 5 1 7s2 2 6 0zm-146-4c3-7 3-9 2-9-2 0-6 8-6 11s2 2 4-2zm99 3-1-1-1 1 1 1 1-1zm11-3 2-5c0-2-1-4-4-4-3 1-4 4-3 9 0 3 1 4 2 4 2-1 3-2 3-4zm13-3c-1-5-3-5-3 0l1 5c0 2 0 2 1 0l1-5zm76 3-1-1v1l1 1v-1zm-81-1c1-2-2-4-3-2-1 1 0 3 1 3l2-1zm93-3c2-2 2-2 1-3s0-1 2-3c5-4 7-10 4-10s-9 8-9 11l-2 4c-3 2-3 4 0 4l4-3zm-217-1 2-3 1-3 4-5c1-4 1-4-1-8l-3-4 2-4c4-7 1-10-3-4l-4 4c-2 0-4 2-4 4l-1 5v5l2 3 2-6 1-2c3 0 2 11-2 16-4 4-4 5 0 4l4-2zm207-2c0-2-3-1-4 0-2 3 0 4 2 2l2-2zm34 2 1-3c-1-1-4 1-5 3 0 3 3 2 4 0zm-91-2c2-3 2-3 1-4-2 0-7 2-7 4 0 4 3 4 6 0zm25-1 2-4h-3c-4 0-6 2-7 6-1 2-1 2 2 2 3-1 4-1 6-4zm-36-1c3-4 3-5-1-11s-4-6-6-4c-1 2-1 2 2 3 1 1 2 1 2 3l-1 6c-1 8 1 9 4 3zm118-3c-1-2-3-2-5 1l-2 4c1 2 1 2 4-1l3-4zm-268 4c2-1 2-2 0-4-2-4-3-5-5-4-1 1-1 6 1 9 2 1 2 1 4-1zm60 0-1-1-1 1 1 1 1-1zm186-1c2-3 1-6 0-6-5 0-7 4-5 7 2 1 4 1 5-1zm-113-2-1-2c-2 0-2 2-1 3s2 1 2-1zm-39-2-4-4-3 1c-2 1-2 2-1 3 2 2 7 2 8 0zm47-1v-4c-1-1-2-3-1-6v-4h-4c-6 0-7 2-3 9 4 9 6 10 8 5zm-63 0c4-1 4-4 1-5l-5-7c-3-7-5-10-5-6l-1 4-2 6c-1 4-1 4 4 7l5 3 3-2zm29-1c0-1-3-2-3 0-1 1 1 3 2 2l1-2zm58-4-2-1v4c1 1 2-1 2-3zm-38 1v-8l-3 4-2 5c0 1 4 1 5-1zm-26-7-1-2c-2 0-2 2-1 3s2 1 2-1zm99-1c-1-1-3 1-2 2h1l1-2zm-54-14-1-1c-2 0-2 1-1 2s2 0 2-1zM117 438c-1-1 2-2 7-2 2 0 2 0 1 1l-8 1zm297 0 1-1 2 1c1 1-1 1-1 1l-2-1zm-284-1c0-2 23-3 24-1l-4 1h-20zm29 0c0-1 2-2 15-3h24c0 1-2 2-13 3h-26zm163-1 1-1 1 1-1 1-1-1zm341 0v-2c3-2 12-3 14-3 2 1 0 3-6 3l-7 2h-1zm-13-2 1-1 1 1-1 1-1-1zm47-1 7-3 7-2 4 2 3 3h-21zm-165-6c-1-1 3-3 6-2l1 2h-7zm-85-1v-2l5 2h-5zm244-1c-4-2-2-6 3-5 2 1 2 2 2 3 0 3-2 3-5 2zm-351-2c-1-2 1-3 9-4 9-2 12-2 12-1l-10 4c-9 2-11 2-11 1zm369 1 1-1 2 1c1 1-1 1-1 1l-2-1zm292 0-1-3v-3l-3 2c-5 3-6 2-1-2l3-4 3 2c2 2 3 2 10 2h10c2-1 3 0 3 2s-2 3-5 1c-1-1-3-1-6 1-3 3-10 4-13 2zm-391-1h3c1 1 1 1-1 1l-2-1zm-241-1 3-1 2 1-2 1-3-1zm63-2c-2-1-1-2 1-2 4 2 5 3 2 3l-3-1zm-369-1 8-2c4 2 2 3-3 3l-5-1zm30 0 1-1v1l-1 1v-1zm323 0c-2-1-2-1 1-2l6-1c2 0 4 2 3 3h-10zm-138-13 2-1 2 1-2 1-2-1zm-10-11 2-1 2 1-2 1-2-1zm27-1 1-2h1l-1 2h-1zm701-2 9-8c10-7 10-6-1 3-6 6-8 7-8 5zm11 0 4-4c6-5 7-6 6-4v3c1 2 1 2 4 0l3-1-3 2c-1 2-2 2-4 1-1-1-2-1-5 1-4 3-5 3-5 2zm-18-4 19-14-10 9c-6 5-9 7-9 5zm-334-3 4-3c4-3 5 0 0 3-3 2-4 2-4 0zm-380 0h7l-4 1c-3 0-4 0-3-1zm369-3c-1-1 0-2 1-3 3-1 6-2 6 0l-7 3zm38-4c2-1 5-2 6 0l-6 2c-2 0-2 0 0-2zm-243 0c0-2 4-4 17-11 18-9 53-30 63-37 8-7 15-15 21-24l4-5-2-4-1-4h4c5 2 6 1 5-5-1-4-4-7-8-7a222 222 0 0 0-62 39l-6 6a98 98 0 0 1-34 18c-1 0 4-4 13-8 5-3 14-8 19-13 24-19 31-24 50-35 15-7 17-9 17-14 0-4 2-5 3-2 1 4 3 4 11 3 10-2 12-3 12-5 0-6-4-8-10-4-4 3-4 3-6 1l-4-3h-2l3-5 4-5c2-1 3 0 2 2 0 2 0 3 2 4 3 1 6 1 7-1 2-1 3-1 3 2 0 1 1 2 4 2s5 1 3 3c-1 1-2 2-1 4 0 2 0 3-7 5l-10 3-5 2 3 4c4 4 8 5 11 2l8-5a942 942 0 0 0 7-1l-2 2c-3 0-5 3-6 7 0 3-1 4-7 6l-10 3-8 9c-7 10-22 24-35 33a596 596 0 0 1-70 38zm585-1c2-3 7-7 8-6s-2 3-6 6l-3 2zm-758 0c-1-1 1-2 2-2 1 1 0 3-1 3l-1-1zm387-3v-1l1 1v1l-1-1zm368-3c0-2 5-6 6-4v2c-2 2-6 3-6 2zm-2-8c4-5 9-8 10-7s-8 9-10 9-2 0 0-2zm-746-2h9c1 1 0 1-5 1l-4-1zm375-9v-6l-3-2c-5-2-4-3 4-3 12 1 17 4 10 7l-6 4c-6 7-6 7-5 0zm7-6-1-1-1 1 1 1 1-1zm364 10 5-6c5-4 6-4 6-3 2 3 1 5-3 5l-5 3-3 1zm-8-4 1-2 1 1-1 1h-1zm-820-1 1-1 1 1-2 1v-1zm68 0h8l-5 1c-4 0-5 0-3-1zm735-4c4-5 6-7 6-5l-5 5-5 5zm-716 3 1-2 1 1-1 2-1-1zm-20-6v-2l3 1c1 2 1 2-1 2l-2-1zm15 0c-1-1 0-1 2-1l2 1-2 1-2-1zm745 0 2-2c3-1 3-1 1 1s-3 2-3 1zm-726-2 1-1v1l-1 1v-1zm-127-1c-1-1 2-3 3-2l1 2h-4zm438-2c-3 0-2-3 1-2l9 1c10 0 10 2 0 2l-10-1zm406 0 5-8c4-4 4-2 1 2-3 5-6 8-6 6zm-757-1c-1-1-1-1 1-2h3l1 2h-5zm23 0c-2-1-1-2 3-2l4 1c-1 2-6 2-7 1zm752-2c1-2 3-2 3-1l-1 2-2-1zm-39-3 3-4c2-2 3-2 3-1l-3 3-3 2zm17 0 2-3h2l-2 2-2 1zm-719-2c0-2 2-4 5-4s3 1 0 4c-3 2-4 2-5 0zm-135 0c-2-1 0-2 5-2 6 0 11 1 11 2h-16zm447 0c-2 0-4-5-2-6 1-2 8 1 9 3 2 3-2 5-7 3zm-349-1c-1-1-1-1 1-1h7c1 2-5 3-8 1zm15 0 5-1-2 1h-3zm764-1v-4c2-2 2-3 0-5v-7c1-6 1-7-1-9s-2-3-1-4 2 0 4 4c3 5 3 6 3 13-1 8-3 13-5 12zm-754-2c-1-3 0-4 2-2v4l-2-2zm729-5c1-2 3-4 4-3l-3 3c-2 2-2 2-1 0zm-854-1 1-1 1 1-1 1-1-1zm17 0v-2h8c4 1 4 1 1 2h-9zm13 0 2-1 1 1-1 1-2-1zm8-4-1-5h-5c-3 0-5 0-4-1h10c4 0 4 0 4 3s-2 8-3 8l-1-5zm-49 3 1-1 1 1-1 1-1-1zm857 0 3-5c3-3 3-3 2-1-2 4-5 7-5 6zm-754-2 5-2 6-3c2 0 2 0 2 2s0 3-4 3h-9zm24 0 1-3c3-3 4-3 4 1 0 2-2 3-5 2zm-106-3-3-3c-4-2-3-3 2-3 4 0 4 0 4 3 0 4-2 6-3 3zm118 0c-1-1-1-1 2-1l2 1c-1 2-2 2-4 0zm12-2 6-1c4 1 1 3-4 3h-5l3-2zm726-2v-2c2-1 3 1 1 2h-1zm-752-4c-1-1 0-2 2-2l2 1c-1 2-3 2-4 1zm15-1 1-1 1 1-1 1-1-1zm-36-2h2l-1 1c-2 0-2 0-1-1zm45-1-1-2c1-1 4 2 4 3s-2 1-3-1zm725 0 2-2h1c0 2-3 4-3 2zm-850-3h3c0 1-1 2-3 2s-2 0 0-2zm98 0c-3-1-2-2 1-2l3 1c0 2-2 2-4 1zm9-1 1-1v1l-1 1v-1zm21-3c-1 0 0-2 2-2l2 1c-1 1-2 2-4 1zm-48-2 5-1v1l-5 1h-3zm766-1 3-3h2c1 2 0 4-3 4-2 1-3 0-2-1zm-856 0c-1-1 2-9 3-9 3 0 4 1 3 5-2 4-5 6-6 4zm18-1c2-2 5-3 6-1l-1 1-4 1c-2 0-2 0-1-1zm832-2 2-2v1c-1 2-2 3-2 1zm-770-5c1-1 3-2 7-2 7 0 6 2-2 3l-5-1zm762 0 4-4-1 3-3 1zm-723-1h4c2 0 1 1-2 1l-2-1zm15 0c-1-1 1-1 4-1s4 0 3 1h-7zm-169-6c-2-1-2-1-1-2 2 0 5 2 5 3-1 1-2 1-4-1zm156 0c-1-1 1-3 3-3l2 1v2h-5zm-139-2-1-2 4-1c4 1 6 1 5 2s-7 2-8 1zm36 0c-1-1-1-1 1-1l3 1h-4zm85 0h3l-2 1c-2 0-2 0-1-1zm37 0 1-2h1l-1 2h-1zm712-2c1-2 4-3 4-1l-4 3v-2zm-851-1 1-1 1 1-1 1-1-1zm103-4c0-2 7-4 11-3 1 1 1 1-1 2l-6 1h-4zm26-1 1-1 1 1-1 1-1-1zm338 0c-1-1 1-2 1-1v2l-1-1zm-90-3 1-1 1 1-1 2-1-2zm-10-1 2-2 1 2c-1 2-3 2-3 0zm-290-1c-1-2 1-3 8-3s8 1 4 3h-12zm30-2 1-1 1 1-2 1v-1zm-132-2c-1-1 2-1 6-1 5 0 7 0 6 1h-12zm164 0 1-1 1 1-1 1-1-1zm242 0 2-2 2-4c1-2 1-2 2-1 2 2 1 4-1 6s-5 3-5 1zm-279-3c-3 0-2-3 0-3s4 2 2 3h-2zm270-1-1-2 3 2h-2zm-281-2 2-5c3-2 3-4 0-6l-3-2 7-2c5-1 6-1 7 1 1 1 0 3-3 3l-2 1-7 12-1-2zm754-2 1-3c2-3 1-4-2-2-3 1-2 0 1-4s5-4 6-1-4 12-6 10zm-838-2c-1-1 0-2 3-2l3 1c0 1-5 3-6 1zm-45-2 8-2c3 0 4 1 2 2h-10zm30 0v-2c2-1 4 0 3 2h-3zm124-3c-1-2-1-5 1-6l5 3-3 3h-3zm327-4 8-6 4-2-5-2-6-2-6 4c-7 5-9 5-5-1l3-5c0-2-3-2-6 0l-2 2-1-3c0-3-2-4-8-2s-8 1-3-2c4-2 5-4 3-5-3-1-2-2 2-4 4-1 5-2 5-4 1-4 4-4 5 0 0 2 4 5 7 4l1-4c-1-8-4-9-23-11-12-2-13-2-11-5 4-5 1-7-8-4-6 2-12 2-10 0v-9c-2-3 1-3 5 0s4 3 8 2l5-2c2 0 2 0 3 2 1 4 5 3 5-1 0-5 1-5 2-4s2 3 1 8c0 9 1 10 7 10 4 0 5 0 5-2 0-3 1-3 4-2 2 2 4 2 4-1 0-2 3-5 7-6 4 0 4 1 3 6-1 4-2 4-5 4h-4l2 4 4 5c2 2 7 1 8-2 1-2 1-2 2-1v2l-2 2-3 4-4 7 1 7c0 3 1 3 3 3l4-2c1 0 2 0 2 2 1 2 2 2 4 2 4 0 5 1 2 4l-21 14 4-4zm-14-23 1-2c0-2-4-2-6 0s1 4 5 2zm-447 25 1-1v1l-1 1v-1zm432-2 2-3 2-4h-5c-6-1-6-1-6-4 1-1 6-2 12 0 4 0 4 3 1 7-2 3-6 6-6 4zm-452-3c-5-2-6-2-4-3h13l-4 5-5-2zm26-1 4-1c2 1 0 3-3 3-2 0-2 0-1-2zm19 1-4-1-3-1 7-1h9c1-1 1-1-1-2-2-2-2-2 4-2 5 0 6 0 3 2l-2 3c0 2-1 2-6 3l-7-1zm832-3 3-2-2 2-3 3 2-3zm-722-1 2-2 6 2h-8zm285-9-2-4v-3l3 4c4 4 4 6-1 3zm438-2 2-2c1-1 1-1 0 0l-2 2zm8-5 3-3c2 0 1 2-1 3h-2zm-11-3 7-9v2a490 490 0 0 0-7 7zm-931-1c-1-1 0-3 2-3 1 0 2 1 0 3h-2zm13-2c-1-2 0-2 2-2l1 2h-3zm912-3 7-8c2-2 1 0-2 5-3 4-5 5-5 3zm-903-7c-2-1-1-3 1-3s3 1 2 3h-3zm133-1 2-1 3 1-2 1-3-1zm13-1c-1-1 5-5 6-5 2 0 1 3-1 4-3 2-5 2-5 1zm-130-1h3c2 1 2 1-1 1-2 0-3 0-2-1zm40 0c-1-1 3-3 7-3 2 0 2 0 2 2s-6 3-9 1zm491-4c0-3 0-4-3-5-4-2-4-3 1-3 5-1 5-2 1-4-2-1-2-2-3-6 0-5-1-6-2-4h-2c-1-2 1-9 3-12 2-1 4 3 5 9 1 8 2 9 4 5 1-3 2-5 7-7l6-2-5 3c-3 2-4 3-5 7l-3 9-2 7-1 5c-1 2-1 1-1-2zm-327 0 1-2 1 1-1 2-1-1zm-210-2-4-1h3c7-2 21-2 22-1 2 3-12 3-21 2zm34 0v-2h2l-1 2h-1zm39-1c-1-2-1-3 1-3l2 2c0 2-1 2-3 1zm34 0c-1-2 0-2 2-4s2-2 5-1c3 2 4 2 11 0 4-1 7-2 8-1s-3 4-9 5c-13 2-15 2-17 1zm799 0c1-2 3-3 3-1l-1 1h-2zm-766-3c-2 0-2 0 1-8 2-8 5-11 7-11l18 4 5-2 2-1c2 1-1 6-4 7-4 1-20 0-21-1-2-1-2-1-3 2-2 5-2 5 1 6l6 1 6-2c2 0 3 1 1 3l-15 3-4-1zm54-1c-3-2-2-3 2-2l4 2h-6zm-24-2 5-1c6 1 4 2-2 3-5 0-5 0-3-2zm-187 0c-2-1-1-2 2-2l2 1c-1 1-2 2-4 1zm225 0c-3-1-5-2-5-4s5-1 9 1c4 3 1 5-4 3zm9-3v-5c2 0 3 1 3 5v4zm-220 1c1-2 13-3 16-2 1 1 1 1-1 2l-10 1c-5 0-6 0-5-1zm188-1 1-1 1 1-1 2-1-2zm308 1c-1-1 0-2 2-3 3-2 9-4 8-2l-2 1-4 2-4 2zm-464-2 4-1 4 1-4 1c-2 0-5 0-4-1zm483-1v-2l2 1v2l-2-1zm-533-3c0-1 4-2 10-2 4 0 5 0 4 1l-14 1zm213-2-7-3c-3 0-4-1-3-2l10-1c8 0 9 0 8 2 0 3 4 2 6-1 1-2 2-2 3-1s0 3-4 5c-5 3-9 3-13 1zm701 1 5-9c1-1 2 0 1 3 0 4-2 7-5 7l-1-1zm4-2-1-1-1 1 1 1 1-1zm-889 1c-1-1 1-1 3-1l5 1-4 1-4-1zm17-2 1-2 1 1-1 1h-1zm205-3c0-4-1-5-4-3-2 2-11 3-11 2l2-2c2-2 1-3-2-3l-2-2 1-4c0-3 1-3 3-3 5 0 7 1 5 3s-1 3 3 3l8 1c3 0 3 0 3 3-2 7-6 10-6 5zm258 1c-3-1-2-3 2-3s5-2 2-4l-2-3c1-2 1-1 4 1 4 3 4 4 3 7 0 2-1 2-4 3l-5-1zm-522-2c-2-1 1-3 9-4l12-2h4c1 2-4 4-12 5-10 2-11 2-13 1zm509-1v-2c1-2 4-1 5 0s1 2-1 3-2 1-4-1zm-475-1c-2-1-2-1 3-1a507 507 0 0 0 7 1H91zm85-2c-2-1 1-2 3-2 2 1 2 1 1 2h-4zm81-3v-7c1 0 3 3 3 7s-2 4-3 0zm20 1c-2-5 3-8 6-5 1 2 2 2 6 2l7-1 2 1c0 1-5 3-14 3h-7zm-234-4-1-5-1-8c-1-5 1-6 8-5l5 2-4 1c-5 2-5 3-1 4s5 2 2 3c-2 1-3 1-3 4l-1 4h-4zm38-1v-2l4 2h-4zm58 0 5-4c1 0 1 1-1 3s-4 2-4 1zm74 0c-1-1-1-2 1-4 3-3 5-2 4 2-1 2-4 3-5 2zm-155-1c0-1 2-2 8-3 5 0 8 1 6 2-2 2-14 2-14 1zm43-2 3-1 2 1-3 1-2-1zm10-5c1-4 1-4 6-5l4 1-2 1c-2 0-4 1-5 3-3 4-4 4-3 0zm885 0 3-2-2 2-3 3 2-3zm-898-1 3-4c2-2 3-3 2-4s-1-1 1-1c3 0 4 1 2 4-1 3-8 7-8 5zm117 0c-1-1 0-2 1-4 4-3 5-3 7 0l1 4c0 2-8 1-9 0zm358-3c-1-1 2-6 4-7h13l-4 2-8 3-5 2zm-513-8-6-2c-12-1-12-1-12-3 0-5 1-5 10-5h9v5c1 4 0 7-1 5zm-6-5-1-2c-2 0-3 0-2 2h3zm520 2-7-1-6-1 2-4 4-6c2-3 5-4 7-2l-2 4c-2 3-2 3 4 4 10 2 11 2 4 5l-6 1zm99-3-3-2c-3 0-8-4-8-6l-3-1c-7 0-7-1-4-4l4-5c1-2 3 0 5 4 2 5 3 6 4 3 1-2 6-1 8 2 2 1 2 2 1 5-1 6-2 7-4 4zm336 0 1-1 1 1-1 1-1-1zm-385-3c20-7 25-7 19-1-3 3-3 3-13 3s-10 0-6-2zm373-5c3-2 3-3 3-1l-2 2c-2 1-2 1-1-1zm-7-2 4-2c1 1-3 4-4 4v-2zm-382-1c1-2 3-2 3-1l-1 2-2-1zm12-1c-5-4-10-8-10-10s1-1 4 1l8 2c6 1 7 0 3-7-3-4-3-4-7-4-3 0-4-1-8-4l-3-4c2 0 4-7 5-18 1-9 1-11 3-14 2-2 2-3 1-7s-1-8 1-7l2 5c1 4 1 6-1 9l-2 5 3-1c3 0 3 0 0 5-4 7-4 17 0 16 2-1 3-4 1-8-1-2-1-3 2-6 5-4 5-3 2 2l-3 4 5 3c6 4 11 9 10 9l-3 1c-2 1-3 0-5-3l-3-3-4 2c-7 3-7 4-6 7 2 3 3 4 5 1 2-1 2-1 4 1 2 1 3 4 4 6l5 8c6 7 6 8-4 9l-5 1c-1 1-3 0-4-1zm369-3 2-3v2l-2 2v-1zm-926-2-2-4c-3-2-2-4 2-8h10l9 2c2 1 2 1-1 3l-6 6c-3 3-5 4-8 4-2 0-3-1-4-3zm13-6 2-3H65l-2 1 4 2c6 3 5 3 9 0zm503 8c-1-1-3-6-2-8 0-3 3-3 4 0 2 3 0 9-2 8zm-14-4c-1-1 0-3 1-3l1 2c0 3-1 4-2 1zm26-2c-1-4-2-9 0-9l2 9v3zm53 0-2-1 2-1 6-7 4-5c2 0 9 7 9 9s0 2-4 2c-5-1-7 0-7 3 1 2 0 2-2 2l-6-2zm27-9c-8-4-7-7 2-4 4 3 5 3 4 4-1 2-2 2-6 0zM69 96c0-2 3-3 6-1 3 1 3 3-2 3-3 0-4-1-4-2zm20-1 2-2v-3c-1-2-1-2 2-2 2 0 3 0 3 2 2 5 1 6-3 6l-4-1zm-15-5-4-1 3-6c2-3 4-7 4-10 0-5 1-6 3-6a829 829 0 0 1 1 9l-1 6 3 1 4 1c1 1-4 2-6 1h-4c-1 1 0 3 2 3 1 0 2 2 0 2h-5zm507-1-1-4-1-4c1-1 7 7 7 8-1 2-5 2-5 0zm17 0-5-2h4l8 2c-1 2-2 2-7 0zm42-3c-5-5-6-8-3-8 4-1 4-1 4 1-1 1 0 2 2 3s4 4 3 7l-6-3zM98 84c-3-2-2-3 1-3s5 2 3 3h-4zm13-2 1-1 1 1-1 2-1-2zm486 0 1-2c2 0 3 0 2 2h-3zm86-5-2-3c2 0 6 3 6 5s0 2-4-2zM95 76c-1-1 3-2 4-2l1 2h-5zm494 0 3-3v2c-1 2-3 3-3 1zm15-4-8-6-4-3 6 1c5 0 5 0 8 6l2 6-4-4zM89 70v-2h4v2l-2 1-2-1zm11 0 3-2 2 1-3 2-2-1zm651-2 1-2v1c0 2-1 2-1 1zm134-5 1-4c1-1 1-1 2 1v4c-1 3-3 2-3-1zM82 63c-3-5-2-9 3-9h3l-2 2-2 5c0 3-1 3-2 2zm672-2c-1-2 0-6 1-6v7l-1-1zm-101-1c-1-1 0-2 2-4s2-2 4-1c1 2 1 2-1 4-3 2-4 2-5 1zm91-5c4-4 6-5 5-2s-5 7-7 7l2-5zm237-3c-2-6 0-8 2-2 2 4 2 6 0 6l-2-4zm-93-1c2-11 1-13-2-10h-1l6-6 2 2c1 1 1 3-2 9-3 8-5 10-3 5zm-106-5-5-7c-1-3-1-3 1-9 2-4 3-5 5-5s2 0 0 3l-2 7c0 4 0 5 3 9 4 4 4 6 2 6l-4-4zm-99 1-2-3c1-2 1-2 4-1l3 4c0 2-2 2-5 0zM86 44c-5-5-6-9-5-12l1-2 2 2 5 2c2 0 2 0 1 2-2 2-2 2 0 5 2 2 2 4 1 5-2 1-2 1-5-2zm838 0c-1-2 0-7 2-9l5-1c3 1 3 3-1 4-4 0-5 2-3 3s2 2 1 3h-4zm-52-7 2-6 2-1c-3 12-4 13-4 7zm-122 0 1-1 1 1-1 1-1-1zm130-4 4-5c2 0 1 2-3 5l-4 4zm-118 0c-2-1-2-1 0-3 2-3 1-5-1-8-2-2-2-3 0-3l3-2 4-2c3 0 5-2 7-8l2-3c1 1-2 11-5 14l-2 6-2 8c-3 3-4 4-6 1zm5-6h-1l1 2v-2zm91 7c-1-1 0-5 2-5l1 1c0 2-3 5-3 4zM92 29l1-1 1 1-1 1-1-1zm660-3c-2-1-2-2-2-4 1-1 1-1 4 1l2 3h-4zm117 0 1-2v1c0 2-1 2-1 1zm13-7-1-2c1-1 2 1 2 2h-1zm-154-5c-1-1-1-2 1-2l1 1c0 1-1 2-2 1zm27 0c-1-2 0-5 2-5v5h-2zm8-5 2-6c2 1 1 3 0 5s-2 2-2 1zm37 0c0-3 3-5 4-5 2 1 2 1 1 3-2 2-5 3-5 2zm21 0 2-2h1c0 2-3 4-3 2z"/>
</svg>
