<?xml version="1.0" encoding="utf-8"?>
<svg xmlns="http://www.w3.org/2000/svg" version="1.1" viewBox="0 0 434 311">
	<title>Sketch of a large tree trunk that splits into a Y shape about three quarters of the way up, fading at the top before most of the smaller branches. A small forest is behind to the left, and open fields to the right.</title>
	<path d="m190 310-2-2-4-1h-10l-4 2-2-2v-5l2-1 2 1-1-2-1-2h1l1 1 3 4 2 1h4l4 1c1 0 5 2 6 4l1 1 1 1h-2l-1-1zm-20-3-1-1 1 1c1 0 1 0 0 0zm10-1-1-1h-2l-1 1h4zm-8-3h-1c-1 0 0 0 0 0v1l1-1zm-40 8c-1-1 0-1 1-1l2-1 1-1-3 3h-1zm6-1 1-2 1-2-1-2 1 1 2 1h3l1 1h-3l-2 1-2 1-1 1zm-12-1 1-1v-1l1-1 1-1-1-1-1-1 2-1 3-1 3-1 1-2-1-2-3-2-2-2-2-1-4-1v-2l-1-2-2-2-3-2c-2 0-2 0-3-2l-2-2-1-1v-2a5148 5148 0 0 1 4-14h-1l1-1 2-4 1-1v2l-1 4 2-1 2-1v-4l1-2v2l1-3 1-2v1h1c1-4 1-5 2-4l1-1v-1l1-2v-3c1-2 2-2 3-1v6l1-1v-9l1 1 1 1-1-4v-2l1-1v-3c-1-2-2-7-1-8h1v2l2 6v1l-1 15v8l-2 6-1 4-2 2-1 2 1-1 3-1 3-9v-1l-1 5c0 3-1 5-2 5l-5 3h-3l1-1h2-4l-1 1-2 2-1 2-6 6h-1v-1l1-7-1 3-2 3v3h1l1 1 1 2 2 1 2 1 1-2 3-6 4-1 2-2 2-1 5-3 6-5c1 0 1 0 0 0l-1-1 1-4 1-3-1-1v-4l-1-6 1-2v1l1 2h2l-1 2-1 1h1l1 4c-1 5-1 5 1 8l1 4a468 468 0 0 1-2 5l-1 3c-2 1-3 4-3 7l-1 3 2 2 1 1v-2l-1-4 1-4 2-2v5l1 2h-1l-1-1 1 3v1c0 1 0 0 0 0v1l1 1h2l2 2c2 0 2 0 3 2v3l-1-2-1-2h-1v2l1 3h7c0-1 0-1 0 0l1 1 2 1 1 1v3l-1 1v2l-1 1-1 1v1l2 3-2-1-1-2v1l1 3 2 1h-2l-1-1-1-1-1-1v-4h-1l-1 1-1 2-2-1h-3v-1l-1-2v3l-1-1-1-1 1-3 1-2 2-2 1-2a306 306 0 0 1-1-5 711 711 0 0 1-6 0l4 2 1 1-4 2c-4 2-6 4-6 5l1 1 2 1 1 2v3l-1-2v-2l-3-1-3 1-1 2h1l1-1h1l-3 2-2-1c-1-2-1-2-2-1-2 0-2 0-1 3l-1 1 1 1v1l-2 1-2 1v-1zm32-4v-1l-1 1h1zm-4-2v-2h1l-2 1v2l1-1zm5-1c0-1 0 0 0 0v1-1zm-2-3-1-1-1-2 1 1 2 1 2 1-1-2v-1l1 1h2v-1l-2-2-2-1-3 1h-2v1l1 1 2 4 1-1zm-19-1 1-3v-1l3-2h-1l-3 2h-3v1l2 3v1l1-1zm15-2-1-1v2l1-1zm-8-4h-1l-2 1h1l2-1zm-11 0h-3l2 1 1-1zm13-1-2-1-3-2-1-2-3-4 1-3v-2l-2 4v1l-1-2 1-4v-1l-1 2-2 2 1-2v-1l-2 4 1 1 1 1v2l1 1 2 1c1 1 2 3 1 4s-1 1 1 1h7zm-9-2v-1l-2-2c-2-1-3-1-3-3l-1-2v1h-1v-2l1-1 1-3 5-4 2-2c0-2 1-2 3-3l2-2v-3l-1 1-2 2v1l-1 1h-1l-1 2-3 2-5 3-1 2-1 2c0 2 0 2 1 1v2l-1 2v4h-2l-1 1c-1 1 0 1 2 2 3 1 3 1 4-1l1-1-1-1-1-2 2 1 1 2-1 1v1h4l1-1zm-11-5 1-4v-3h-1v-1l-1 1-1 4h1l-2 2v3l1-1 2-1zm16 0h-1v1h1v-1zm-21-2h-1l1 1v-1zm0-3v1-1zm19-4 1-1-1-1v2l-1 1 1-1zm-13-1h-1c-1 0 0 0 0 0v1l1-1zm-10-5c1-2 0-2-1 1l-1 2 2-3zm5-2 1-2-2 1-1 2v1l2-2zm-4-1-1-1v1h1zm27-6v-1h-1l1 2v-1zm-2-1c1 0 1 0 0 0l-1 1 1-1zm-21-2v-1 1zm3-2v-1h-1v2l1-1zm2-4 1-2-1-1-1 4 1-1zm4-6-1-1v3c-1 1-1 1 0 0l1-2zm0-5v-1l-1 1v2l1-2zm112 69-2-1-3-3h-1l-2-2-3-1-2-1h-2 1l-1 1-1-1-3-1h-2l-2 1 2 1 4 1 4 1c2 0 3 0 1 1-1 1-4 0-6-1l-4-1h-5l-1 1h4l5 1 1 1-2-1h-9l-2 1-5 2h-5l-1-1 2-1h5l-3-1h-2l2-1 6-1v-1l-2-1-2 1-5 1c-2 0-5 2-4 3l-1 1h-1v-1l1-1 1-1-1-1-2 1v1h-2c-1 0-2 0-3-2l-3-2h-5l-5-1-2-2 1-3 1-3-3-6-1-1-2-2h-2l-1 1v-1h-2c-2 0-2 0-1-1l-2-5c0-2-2-4-3-5l-1-4v-4l-1-1-1 2v-1l-2-3h1v1h1l-2-6-3-3-2-8v-2h1v2l1 2v1l3 3 1 1h2l3 1 2 1 4 7 1 1 1 2 1 2v3l3 5 4 4 2 3 1 1 1 1v-1l4 3 3 3c1 0 1 0 0 0h4l3 1 1 2 1 1 1 2h3l-1 1 2 2 3 2 2 1-2-2-3-1-1-2 2 1h3l1-1 2 1 3 2 3 2h2l2-1c2-1 3-1 12 1l4 2 2 2 3 1 4 3h1v2l-2-1zm-31-4 2-2v-1l-2 2-1 1h-2l1 1 2-1zm-19-2h-1l1 1v-1zm4-2h1l-3-1-1-1-2-1v-2l-1-1-2-2h1l2 1 4 2c1 0-2-3-5-4h-2l-2-2-1-1 1 2v4l1 4h1l-1 1-2-1-1-4-1-3-2-1-2-1h1c2 0 2 0 1-2l-2-1-2 1h1v1h-1v1c0 2 0 2 2 3l1 3c0 1 0 2 2 3l2 1h2l2 1v-2h2l1 2h5zm5 0 1-1h-1l-3 1 1 1 2-1zm14 0-2-1-2-1-1 1 1 1 2 1h1c1 0 2 0 1-1zm-10-1h-1l1 1v-1zm-28-1-1-2h-1l1 2 1 1v-1zm18 0h-1c-1-1-1-1 0 0l1 1v-1zm2-1h-3 1l2 1v-1zm11 0-1-1h-2 1l2 1zm-11-3-2-2-4-3 3 3 3 3v-1zm-20-1v-1l-1 1h1zm9-1-2-2-1-1 2 4 1-1zm-2-6-4-2 4 3v-1zm-6-1-2-3-3-4-1-1v3l-6-4-1-2-2-2 3 2 1 2 4 2-1-2-2-2-1-1-2-2-2-1-1-2h1l2 1v-1l-1-1-2-1h-2c-2 0-2 0-1 1l1 3 3 5 1 3 2 2 4 1 3 2 3 3 2-1zm-3-6v1-1zm-5-4 1 1-1-1zm-1-2v-1 2h1l-1-1zm77 35c-1 0-1 0 0 0h1-1zm-140 0v-2l1-1h1v-2l1-2 2-1 2-2 5-1a406 406 0 0 0-1-2l-4-1h-3l-2 2-2 3-1 2-3 3h-3c0-1 1-2 3-2l2-1 1-3 3-3 1-1c0-1 0-1 0 0l-6 5-1-1 3-4c3-2 4-3 3-4l-2 1h-1l-1 2c-2 2-5 3-7 3-1 1-1 1 0 0l2-1 2-2v-1l1-1 2-5 1-1v-2l1-2v2l1 2c0 1 2 2 5 2l2-1-1-2-1-1h2v3l1 3 2 1h2l2 1 1 1h-1l-1 1-1-1-1-1c-2-1-3 1-1 2l4 1h4c2 0 4 2 4 3l-5 2-2 1-1 1 1 2 1 2v3l-1-1-1-2-1-2v-1h-1l-2 2h-3l-1 1-1 3v-4l-2 2-3 2h-1zm13-8h-1l1 1v-1zm-6-1-2 1h1l1-1zm2 0-1-1v1s0 1 0 0h1zm-12-8v1-1zm11 1-1-1v1h1zm-7-3-1-1 1 1zm4-1h-1v1l1-1zm-2 0v-1h-2c-1-1-1-1 0 0l2 1zm140 20 1-1-2-1-2-1-2-1-2-2-4-3-4-2-6-2h-8l-2 1-2-1-2-1-6-2-2-1-3-1-2-2c-2-1-3-2-3 0h1l2 1-1 1h-1l-2-2-3-4-1-2 3 3h1v-1l-2-2-5-3c-3-1-4-1-5-3l-3-4c-2-1-2-2-2-3l-1-2-1-1-1-5v2l-1-2v-4l-3-5v-2l-3-3-2-1-2-1-4-3-4-5 1-1 1 2v1-8l1 1c0 2 2 4 3 4h1l-1-2-1-1 5 3 1 2h1v-1l-1-1 3 2c3 3 2 2-1-2l-2-2 2 1 3 3 1 3 2 4 2 8 1 5v7l1 1v2-1a149 149 0 0 1 1-1l1 1-1-1v-4l1 1v4l1 2v1l3 4 3 4h2l-1-1v-2l-2-4-1-1-1-1v-3l-1-5-1-5-1-4v-4h-1l-1-2v-1l1 1-1-6a227 227 0 0 1-9-19l-2-4-1-2-2-3-1-3-1-8h1l2 9v-2a45 45 0 0 0-1-6v-2l1 1v1l1 5 1 5v2l1 1v-1l-1-4-1-5-1-7-1-3 1 1v-4l-1-6-1-2v1l1 3-1 2-1 4v2l-1-4 1-4-1-5v-9a44 44 0 0 1 0-10h1v17l1 1v-22l-1-2v-7 3l1 3v-4l-1-6v-8l-1-2-1-2-1-2v-3l1-2 1-2 1-4 1-11 1-14v-2l1-10 1-2h-1l2-2 2-5 2-5 1-2a314 314 0 0 0 2-15l2-3v-2l1-4 2-5v-3c0-2 2-6 3-5v2l-1 3-1 3-1 4a178 178 0 0 1-1 5v2l2 3 5 6h1v-1l-2-4v-2h-1l-1 1v1-3l1-2v-1l1 3 2 6 1 2v2-1l-1-5-1-4-2-5-1-6-1-2c1-1 1 0 1 1h1v-4l1-4v7l1 3 1 3-1-2-1-1v2l1 3v-1 1l1 2v-1l1-1v9l1 3 2 6v3l1 2v1l2 1h1l-1-8-2-8-1-4v-4l1-3 2-2-1 3-2 2c0 1 1 1 1-1l1-1v10l1-4 1-3v21l2-4 1-4 1-3c0-2 1-2 2-3l2-1 2-1 1-1-1 1-1 2-3 2v1c1 0 5-4 5-6l2-1a302 302 0 0 0 0 1v1l-1 1-2 2-1 1-2 2-3 3-1 6 2 4h2l2-1-1-3v-2h1l2-3 2-5 2-3v-2l1-1 1-1v-2l1-2h1l-1-2-2-2-1-1-2-1h3l2 1 2 1h-2l1 1h1l-1 1h3l1-2h2l1-2-1 1c0 1 0 0 0 0l-1-1 2-1 2-2-1-1-2 1-3 1-3-1-2-3-2-2v-1l3 3 1 2 3 1c3-1 4-1 4-3l1-1v1l1 1 1 1 1-1v-2l1 2v1l1 3h1v-2l-1-1 1 1 1 3c-1 0-1 0 0 0l1 1h-4l-2-2-1-1-1 3-4 3-3 4-1 1-1 2 4 1h1l-1 1-2 1h4l1-1v-1l-2-1-2-1h3l-1-2v-1h1c0 1 0 1 0 0l1-2v1l1 2 1 1 2-1h1l-1 1v1c1 2 0 4-1 4l-5 5v1l2 2v2l1 1 2-1 6-3 1-1h-2l-1-1 2-1 2-1-1-1h-1v-1h-3l-1-2h4l-2-2-1-3 2-4 2-1h1v-1h-1l1-1 2-2 2-1 2 1c1 1 2 1 1 2h-1a85 85 0 0 1-3-2l-2 4 1 2 1-1 1 1h-1l-2 1-2 1 1-2c0-1 0-2-1-1l-1 4 1 4 3 1 3-2v-1c0-2-1-1-2 0l-2 2 1-3 3-1 2-1 1-1-1 2v1l2 1h2v1h-3l-3 1-3 2-1 1v1l1 2-1 1h-1v1l3-2 5-4 3-1 2 1v1l2-2h1l3-4 1-2-1 3c-1 2 0 2 2 0l4-3v-1l-3 1-1 2 1-3a822 822 0 0 1 4-5h-4l-4-1-1-1-1-3 1-1v1l2 1 2 2 1 1 2-1h2l2 1h1l3-1 2 1h1l1-1 2 1h2l1 1c0 1 0 0 0 0h-5l-6 1h-2l-2 1-1 1 3 1 3 1 3 1 1 1h2l3-1 3-1v2c1-1 3 0 3 1h-3l-2-1v-1l-3 1-1 1h-3l-1-1c0 1-2 1-3-1h-3l-4 2-3 3h1l4 2h-1l-2-1-3 1-3 2 1-1 2-2h-2v1l-3 1c-1 2-4 3-5 2l1-1h2l-1-1h-4l-1 1h2l2-1c0 1-4 3-5 2l-1 2-3 2-2 2h-1l-6 6-1 2-3 3-1 1 2 1 1-1c0-1 0-1 0 0h-1c0-1 0-2 2-3l2-2 3-3 3-3h3l1-1 3-3 1-2h9l1-1a192 192 0 0 0 0 2h-4l-3 1-2 1c-2 0-2 0-3 2l-4 3-3 1-1 1-1 1-2 3-3 3 4 1 5 1h1l3 2 4 2c1 0 4 1 5 3l2 1 3 4h3l-1-1v-3l2-1h2l1-2h1l2-1h2l-3 2h-2v1l-2 1-2 1-1 1h6l2 1h-5l-1 1 1 2 2 1 2 1h-2l-5-2h-1l4 4 1 1 1 2h7l4 1v-2l3-2h3l1-2 1 1h1l-1 1-1 1h-4l-2 2v2c-2 0-1 1 1 1l1-1 4-1 4 1-3 1-4 1h-2l-2 1 1 1h3l6 1-1 1h-1v1l2 1h2v1h-1l1 1h3l-3 1h-2 1l3 1-1 1h-3v1h5l2 1-1-1v-3l2-3 1 2c0 3 1 3 2 1 2-2 2-4 2-6 0-1 0-2-1-1v1l1-5 2-1 1-1 1-4v-3h4l2 1h-5v3l-1 4-2 2-2 1h3l2-1 2-1h1c0 1-1 2-3 2h-2l2 2a7 7 0 0 0 4 2l1-7 1-4c1-2-1-1-1 0l-2 2 1-2v-1h1l1-1h3l2-1 2-1 2-3 3-2 2-2h4l-2 1-4 1-2 3-1 1-1 1v1l-1 2-3 2-1 2-1 2v1l1 1 1 1h1c0-1 2-3 4-3h1l-2-1-2 1-1 1c-1-1 0-2 1-3l2-1 1-2v-1l4-1-1 1-2 1v2l1-1h2l-1 1-1 2 2-1 3-2 6-3 1-3c-1 0-2-2-1-3l2-2v2l-1 1 1 1 5-1-1-1v-1l1-2-1-3v-3l1-2h1v2l-1 2 1 3c0 2 1 2 1 1l1-1v2l-1 1-1 1-1 2 1 1h2l2-2v1l2-1 8-2h3l2-1 3-1 4-2 1 1h-1l-2 1-2 2s0 1 0 0l-2 1-1 1h1l1 1 5-2 2-1-1 1h1c2 0 3-1 3-2l2-1v1l-1 1-2 2h-1l4 1h2l1 1h1c-1 1-1 1 8 1l4-1h5l-1 1h-4l-6 1-3 1-1 1v-2h-4l-4 2-4 1-5 1h-3l1-1 2-1h-3l-4 3 1 2h12l11-2c1 1 0 1-3 1l-5 1-3 1 1 2v2h2c2 0 3 0 7-3l2-1h1l1-2v-2l3-2 3-1-2 2-2 2-1 2-1 1a25 25 0 0 0 8-8v2l-3 3-2 3h4l3-1 3-1-2 2-6 1h-7l-1 1-2 1-2 2-1 1-1 1 1 2-2 2c-2 0-4 2-4 3h-2l-4-1h-2l-4 2-2 2-2 1h6c1 0 1 0 0 0l-1-2 1-1v-1h4l2 1 1 1h3l3-1 3-1 2-1-6 1 2-1 4-1 3 1h8l2-1 2-1h5l-5 1-3 1v2l1-1 1 1h6l2 2h-2l-4-1-6-1h-6v-1l-2-1-1 1v1h-2l-1 1h-2l-2 1h-1l-1 1-1 1 3-1 6-1c3 0 3 1-1 1l-4 1h3l-2 1h-4l-2-1-1-1-1 1-1 1h-1l2 1h4l4 2h-2l-2-1 1 1h-3l-1-1h-7l-3 1-3-1h-2l-4 2h-2l1 1 1 2 1 1h3l-1-1h-1 4c0-1 1-2 4-2h1l-1 2-1 1h3l1-3v-1h-1c0-2 1-1 2 0l2 1h2-1l-1 1v1l4-1h1l1 1h-1l-1 1h4l1-1 4-1c2 0 2 0-1 1-2 0-3 1-1 1l3 2h11l2 1s1 0 0 0h-10l-2 1v2l-1-1-1-1-4-1-2-1-2-1h-2l-3-1h-3l-1 1-2 1h-4l2 5-2-3-2-1h-3 1c3 0 2 1-1 1-1 0-2 0-1 1l2 2c3 1 5 1 6 3l3 1 2 1 2 2 6 2 1-1-2-1h-2v-1l4 2h7c2 0 2 1 2 2l1 1h1l2 1h1l-4 1a9 9 0 0 1-4-1l-2-1h-3l2-1 4 1 2 1h1l-1-2-3-1h-4l-3 1v1l2 1 2 1c-1 1-4 0-4-1l-1-1-1 2 5 4 4 1 3 1v2l-1 1v-2l-2-1h-9v1l-1 1v-2l1-1h3l-1-1-1-1-2-1v-2l-2-3c-2-3-3-3-4-3a192 192 0 0 0-3 0l2-1 1-1h-4l-1-1-3-1-2-1-2-1-1-1-1-2h-5l1-1h2v-1l-1-1-3 1-4-2-4-2v4l1 1 2-1 2 1h-1 2c2 0 3 1 1 1h-7 1l4 2v1l-2-1-3-1h-2l1-1-2 2-2 1-2-1-2-1-3 1h1l3 2 3 1v-1h1l2 1 1-1 1-1 4 1 2 1 3 2 5 1h-3l-3 1 1 1 1 1h-3l-3-1-2-2h-5l2 1 3 1v3l-1-2-2-1h-1l-3 1-2 1-1 1-1 1h2l3 2 1 2 2 3h1v1h-1l-3-2-1-4h-1l-4-1 1-2 1-3v-2l-1-1-1 2 1 2-1 1h-2l1-2 1-1-1-1-1 1v1l-1-1-2-1h-2l-1-1-3-4-1 1h1l1 1h-7c-1 0-1 0 0 0 2 0 1 1-1 1l-2 1-2 1 1 2 1 1v1l-2-2-1-1h-6l-1-1-1-2-2 1-2-2-1-1-4 1 2 2 1 1-5 1h-2l3 1 2 1-1 1h-3l-1-1-1-2-1-1-1 1-2 1h-2l-3 1-1 1v-1l2-1 3-1 2-1 1-2-1-1v-2l1-1-3 1-2 1-3-3-3-3c0-2 0-2-2-2l-11-1 1 1 1 1 1 1 4 2 1 1 4 1 2 1h-7c-1 0-2 0-1-1v-1l-1-1h-5v1c1 0 1 0 0 0l-1 1h4l-2 2-2 1-1 1h-1 5-1l-1 1 1 1h1-4l-2 1 2 1h3l3-1h2l2-1-1 1v1a77 77 0 0 0 7-3h1l-1 1h2l-3 1h-3c-1 1 0 1 2 1l2 1-1 1-3-1h-6l-2-1-1 2h-1l-2-1-3 1h-1v-2l-1 1v2h2v1l3 1h1l-1 1h-3l-1-1h-3l-4 1h-1l-1 2-1 1h3l3 2 2 1h3l1 1h-4l-3-1-2-2c-1 1-4 0-5-1h-4l-1-5-1 1v1l1 1-1 1-1-1-2-2-3 1-1 2v4c-1 0-1 0 0 0l1-1h5l3 1h3l-3 1h-3l-2 1-1-1h-3l-1 1h-2l-2 1v2l-4 5-1 3-1 2-1 2v1l2 1v3l-1 5v1l1-1h2l4-1h3l3-1 1-3h5l2 2 2 1c1 1 1 1 3-1l2-1h1-2l-2-1-2-1-3-1-1-2 2 1 1 1 2-1h2l-1 1 1 1h5l1 1h3l2 1 2-1v-2l-2-1-2-1h-1v-3l2-2 2-2 1-1 1-1c1 0 2 2 1 3l-1-1s0-1 0 0v3h-1l-1-1-1 1-1 1-1-1v3l2 1h4l1 1h3l2-1 1-1v-1c0-1 0 0 0 0l-1 1v-4h-2l-2-1h3l2-1-1 1 1 1 3-2h-1l-1-1h4l-1 1 1 1c1 0 0 0 0 0h-1l-1 1v1l-2 2h2l3 1h-1v1h1l2-1c1-2 2-2 3-2h2l1 1c1-1 2 0 1 1h-1l4-1 2-1h2l1 1h-2l-1 1v1l-1 1-1-1-2 1-1 1-1-1-1-1-2-1c0-1 0-1 0 0l-1 2h1l-2 2-5 2h3l5-1 2 1c3 0 7 2 7 3h-3l-3 3c-1-1 0-1 1-2l1-2h-5l-3 1h-1v1h1l6 3 1 1 1 1h3l5-1h2v1l5-3 3-1c1 0 1 1-1 1l-2 1-1 3v2l-1 1c-1 1 0 2 1 1l2-1v-1l1-1 1-2c1-2 1-3 5-6 2-1 2-2 1-3v-2h1v1l1 1 1-3v-3l1-1h1v2l-1 1-1 1h3l1-2-1-2v-2l1-1v2h1l4-1-1 1c-2 0-2 0-2 2v3h-1l-4 2h6l1 1 1 1h-1l-2 1-1-1c1-1 0-1-1-1l-3 1-2 1-2 2-2 3-1 3v-4l-1 3v2h1l-1 1-2 1-2 1v1s2 0 3-2l3-1h2l-1-1 1-1 5-3 1-2h2l-1 1-2 2-1 1-1 2h3v-2l3-3c2 0 1 1 0 2l-2 1 1 1 2 1h1l2 1h4l-3 1-2 1v1l1 1h-4l-4-1-1-1 1-1 1 1 1-1v-1h-6l-3 1-3 1 1 1h1l-6 1-1-1h-3v1l1 1 2 1h1l-1 1h-2l-1-2-1-1h-8l-4 3-2 1-5 1h-1l-1-1-1-1-1-1-3-1h-2v1l-6 2-4-1-1-1-2-1-1-1h-1l-1-1h-2l-1-1-2-2-2-1-3-1-1-1-1-1-2-1-2 2-1 2-3 1-2 1-3 1-4 2-1 1 1 8a249 249 0 0 1 1 14l2-2 1-1h2l-1 1-1 1h1l1-1 1 1 1 1v1h-2v2l-1-1-2-1-1 1v10l-1 2-2 1c-1 2-2 1 0-1l1-2-1-6-1 1v1l-1 1h-1c0-1 0-1 0 0l-2 3-1-2v-1l-1 1 1 1-1 1-1 1-1 1-1-1-4-4h-1c0-2 0-2-2-1h-2l-1-1h-2l-1-2-2 2v2l2 2v1l2 5 2 4 1 5 1 4v2l1 5 1 5 1 4 2 4 2 4v1l6 7 1 2h1l2-1 4 1 3 2 1 1 2-1 3-1 5 1 4 4 2 3 3 1h5l-1 1h-1l1 1h2l3-1h5l1 1 1 1 2 1-2 1-3-1 1-1-1-1-1 1-1 1h-2c0-1-1-2-2-1v1h2l1 1 2 2 3 3 2 1c1 1 4 2 6 1h1v1c0 1 0 0 0 0l-2 1-2 1zm-27-14-1-1-1-2h-1l-2 1c-2 1-2 1-1 2h6zm5 0-1-1v1h1c1 0 0 0 0 0zm-2-1-1-1v1h1zm-3-1-1-1 1 1zm-6-1 1-1v-1l-1 2-1 1 1-1zm-2 0h-1v1l1-1zm-2-1 2-1h1l1-1 3 1 3 1h1v-2h-2l-1-1-2-1-3-1-4 2-3 2h-2v1l3 1 3-1zm-3-2v-1l-2-1-3-2-2 1h-1l-1-1v2l3 1 2 1h4zm-15-9h-1v1l1-1zm-12-8v-1h-1l1 1c1 0 0 0 0 0zm-5-16v-1l-1-1v2l1 1v-1zm-1-3c0-1 0-1 0 0 0 0 0 1 0 0zm-2-3v1-1zm2-1-2-4-1-3h-1l1 3a36 36 0 0 1 3 6v-2zm-4-3-1-3-2-2 2 4 1 1zm3-2v1-1zm-6-4-1-1v1h1zm24-9h-1l1 1v-1zm3-4-1-1v2l1-1zm-19-2 1-1 3-1v-5a140 140 0 0 1 0-21l1 2a184 184 0 0 0 1 15l1-8a218 218 0 0 1 0-9l-3-1-4-1 1 1 1 1-1 6-1 5v13l1-1v-14h1v11l1 3-1 3h-1c-1-1-1-1-2 1 0 1 0 2 1 1zm18-2v1-1zm3-3c0-2 0-3-1-2l1 6v-4zm-22-2h-2v2l1 3v-2l1-3zm26-1a98 98 0 0 0-1-16l-1-2-2 5h1l1-1v3a130 130 0 0 0 2 18v-7zm-10 4v1-1zm8-1c0-1 0 0 0 0v1-1zm-17-5-1 2 1 2v-4zm7 2v2-2zm2 1v1-1zm8-1-1-3v2l1 1zm-24-1a27 27 0 0 0 0-6v2l-1 3v2l1-1zm22 0-1-2v3l1-1zm-24-2v-3h-1v3l1 2v-2zm22-1-1-1v1h1zm-22-3-1-2v-5a88 88 0 0 0 0-9c1-1 1-1-1-1l-2 1v2a132 132 0 0 1 2 11l1 3h1zm1-4v-4 7-3zm-1-2v-1l-1 1h1zm23-1v-1c-1 0 0 0 0 0h-2l-1 1 1 1 2-1zm-20-2-1-1v2l1-1zm21-2-1-1 2-1 2-2 2-2h5l-1-1h-1l1-1 2-1-3 1-4 2-1-1 5-2 6-3h-1l-2-1h2l3-1 2-2 2-1-3 3-4 4h-1c0 1 2 1 3-1l2-1 1-1 2-1h2-1l-1-1h4l-3-3h-2l-2 1-1 2-3 1-5 2h-1l-4 3-2 2c-1-1 0-2 1-2l1-1 2-2v-1l-2 1-2 3-2 1-1 2 1 2 2-1h2l-4 2-1-1h-1v1l-1-1-1-2v-2l1 1 1 1v-2l-1-4-2-2-3-1-1 1-1 1v1h-2l1-1c1 0 0 0 0 0l-1-1h-2 2l2-1 2-1c1 0 1 0 0 0l-3-1-4-2-3-2-4-4h-1l-2-1 1-1h1l-2-2-2-2-1 4-1 5 1 9 1-3v-2 1l1 1v-2l-1-1 1-1 1 3 2 3c1 2 3 3 3 2h3l2 1c0 1 1 2 3 2h1l1 1 3-2h2v-1l-1-1h-1l2-1 2 2v1c0 1-2 2-3 1l-1 1-2 1h-9l1 1h9l1 1 1 1a420 420 0 0 0 2 1c1 4 1 4 2 3l1 1h2v-1zm-19-13-3-2-2-1 2 1c3 0 6 2 6 3h-1l-2-1zm-1-3-3-2-1-1v-1l2 1 2 2 2 1v1l-2-1zm2-2-3-2-2-1h-1l-2-1-1-1 5 1 3 2 2 2 1 1-2-1zm-5 19v-1 2-1zm83 0v-1h-1l-1-2-1-1 1-1-1-1-2 2 1 2 1 1 2 2 1-1zm5-1h-1l-1 1h1l1-1zm-16-2 3-1-1 1v1l1-1 1-1h1-5l-1 1 1-2 4-1h3v-1h-3l-1-1v-3a80 80 0 0 0 2-2v4h1l3 1 4 2 4-1v-1l-1-2-4-1-3-1-1-1-2-2h2v1-2h-8l-5 2-5-1-2-1-2 1-1 1-2 1h-1c-1 1-3 1-5-1l-2-1v1l3 2 2 1 2 2 3 1 6 5 3 2h3l3-2zm-7 0-2-2-2-2-2-2 4 1v2l5 2 2 1h-5zm-9-7-1-1v-1l3 2h-2zm13-1h1-1zm18 9h2l2-1c2-1 2-2 1-3l-1-1-2 1c-1 2-3 2-3 1h-1l-1 1h-1l1 3 3-1zm-62 0v-1l-1 1h1c1 0 0 0 0 0zm74-3 2-2 3-2v-1l-3 1h-7l1 1 2 2-3-1h-1v1l2 1s1 0 0 0v1l4-1zm0 1h-1 1c1 0 0 0 0 0zm-88-1c1-1 1-1 0 0h-2l-2 1 4-1zm114 0v-1h-1l-1 1v1h1l1-1zm-124 0c0 1 0 1 0 0l-1-1v1c0 1 0 1 0 0h1zm27 0v-1l-1 1h1zm27-2h-2l3 2-1-2zm-48 1h-2l1 1 1-1zm7 0h-2l1 1 1-1zm111-2v1c0 1 0 1 0 0v-1zm-124 0h-1v1l1-1zm34 0v-1l-1 1h1zm57-1c1 0 0 0 0 0h-1l1 1v-1zm-93 0h-1c-1 0 0 0 0 0h1zm4-1-1-1-1-1h-1l1 1 3 2-1-1zm36 1v-1l-2 1h2zm12 0-3-1 3 1zm-29-3-1-4-2-1h-3c-1 0-1 0 0 0l2 1 3 3v3c1 2 1 1 1-2zm67 2v-1l-1 1h1zm-91-1v1-1zm7-1h-1l1 1v-1zm42 0-2-1h-1l2 2 1-1zm38 0h-1 1zm-89-2v2-2zm86 1v1-1zm-58-3v-2 5-3zm28 1v-1l-1 1c-1 1 0 1 1 1v-1zm-3-1h-1v1l1-1zm6 0h-1 1zm16 0h1-3v1l2-1zm-10-1h-1c-1 0 0 0 0 0v1l1-1zm5 0h2c0 1 0 1 0 0l-1-1h-1v-3 1l-2 2h-2l1 1 2 1 1-1zm12-1h-1c-1 0-1 0 0 0v1l1-1zm5 0v-1l-2 1 1 1 1-1zm-27 0h-1c-1 0-1 0 0 0h1zm18 0h-2 2zm-2-1 2-1 2-1 3-1-2-2-2 1-2 1-1 1-2 1v2l2-1zm-13 0c1 0 1 0 0 0h-1 1zm-40-1-1-1v2l1-1zm3 1v-2l-1-2v4h1zm46-1h-1l1 1v-1zm-57-6v-7l-1-3c-1-1-1 0-1 1l-1 1v-1l1-5 1-3v-2c-1-2-2-1-2 2a98 98 0 0 0-2 16l1-1v2l-1 1-1-1v-1 2l1 4v-1l1-3 1-4c0-3 0-4 1-3v5c0 8 0 7 1 7l1-6zm13 2-1 1v1l1 1v-3zm46 3v-1l-1 1h1zm-52-2v1-1zm64 0 1-1h-1l-1 1 1 1v-1zm-61-2-1-2v4l1-2zm1 1v1h1l-1-1zm-7-5v-4 5l1 4-1-5zm8 1 1-5-1-16a131 131 0 0 1-1-29v-5l1-1v1l3-6 2-4v1l1-1 2-3 2-4 1-1h1l-4-4-1 1c1 1 0 3-1 4l-1 3h1l1-2h1l-1 2-1 1-3 4-1 2c-1 1-1 0-1-1v-1l-2 3v1h1l-1 5-2 3-2 6v3c-1 1-1 0-1-1l-1-3v-2l2-2 1-2v-2l1-4v-5l-1-4c-1-3-3-7-6-8l-1-1-3-2-1-1-3-2-6-8v-1l1 1 4 6 5 3 1 1h1l-1-2-1-8-1-3-1-1-1-1-1-2-4-2-1 3-1 3a103 103 0 0 0-3 7l1-1h1l3 4v1l2 2 2 2 1 3 3 3-2-3-1-2 2 1 1 1-1-2-1-1h1l4 6 1 2 1 3h1l-1-3v-1l1 1v2l1 3 1 3v1c1 1 0 4-1 4v-3l-1 2v7l-1 7v4l1 3 1-1v-1 2c0 2 0 2 1 1v3l1 3 1 5 1 5 1 3a55093 55093 0 0 0 2 14v1l-1-1-1-5v-2l-1 4a27 27 0 0 1 2 8v1-1l1-2zm-8-42v1-1zm1-9v-3 3zm-10-35-1-2-1-3-1-1-2-2 1-1 1 1 2 1h1l1 2h-1l-1-1v2l2 1v3l-1 1v-1zm18 88v-1l-1 1h1c1 0 0 0 0 0zm-6-2-1-4-1-5v6a1006 1006 0 0 0 2 3zm2-1-1-3v2l1 3v-2zm-15-1 1-8-1 4a252 252 0 0 1 0 4zm-4 0-2-6-2-2-3-5c-1-1-1-1-1 3l1 6c0 2 0 2 1 1l3 3 3 2v-2zm17-5v-1 4-3zm1 1v-2 1l1 3-1-2zm12-4h-1c-1 1-2 3-1 4l2-4zm-29 2v-2 3-1zm13 0-1-1v2l1 1v-2zm11 1v-1 1c-1 0-1 0 0 0zm1-3v-2l-1-2h-1v3c0 2 0 3 1 2l1-1zm1 0 2-1v-1h-1l-2 3h1v-1zm-23-4-2-8v2l1 4v5c0 2 0 2 1 1v-4zm8 3h-1v2l1-2zm1 0v1c0 1 0 1 0 0v-1zm2 0v1-1zm4 0-1-1-1-1-1-4v1l-1 1v-2l-1-5a42 42 0 0 0 0 10l1-1v-2l1 2 1 2h1v1l1-1zm-20-1-1-1 1 1 1 1-1-1zm4 1-1-1v1h1zm2-1v-1 2-1zm8-1c0-1 0 0 0 0v1-1zm7 0h-1l1 1v-1zm-1 0h-1c0-1 0 0 0 0h1zm-18-2-1-5v-6l-1-3-2-1v11l2 2 2 4v-2zm28 1-1-2v-1l2 1c0 2 1 2 1 1v-3l1-2v-3l-3 1-4 2-1 1-1-2v-2 4l1 1 2 1 1 3 1 1 1-1zm4 0s0-1 0 0h-1v1l1-1zm7 0v1-1zm-43-3-3-4-1-1-1 1 2 3 2 2 2 2-1-3zm9 1 1-3 1-4h-1l-1 2v3c-2 2-2 3-1 3l1-1zm14 1-1-1v1h1zm14-2v1l1 1-1-2zm-22 0-1-2-1 1v1h1v1l1-1zm13 0h-1v1l1-1zm-7-2a37 37 0 0 0-3-13v-2c-1-2-1-1-1 1l1 9 1 5v-1l-1-9h1v6l2 6v-2zm1 0v2-2zm14 2v-1 1c0 1 0 0 0 0zm-28-6a20 20 0 0 0-1-6l-1-2v8l1 4c0 1 0 2 0 0l1-4zm46 5v-1c-1-1-2 0-2 1h2zm-16-2-1-1a327 327 0 0 0 1 1zm15 0 2-1v-3l1-3-1-1-1-1v2l1 1c-1 0 0 0 0 0v1l-2 1-2 1h-2l1-1c1 0 3-1 2-2l-4 3 1 2v2h1l3-1zm8-2 1-1h-1l-2-2-3 2 1 2 4-1zm-62-3v-3h-1l-1 2v2l-1-2 2-3 1-2-1-1-2-2-2-2c-1-1-1-1-1 1a158 158 0 0 1 2 11l2 1 2 2v-4zm-3-6-1-2h1l1 2v1l-1-1zm45 9 4-1c2 0 3-1 2-2h-1c0-1-2-1-3 1h-2l-2 1v2l2-1zm-26-1v-2l-1 1a112 112 0 0 1 1 2v-1zm22 0c0-1 0-1 0 0zm-20-1h-1l1 1v-1zm11-2 1-1 3-1 1-1-2-1-3-3h1l1-1h2c1 2 2 2 6 2h1l-1 1-1 1v2l1-1 2-2 1-1 1-1-1-2-2-1-1-1h1l1-1h-3l-2 1c-1-1-2-1-4 1l-4 4-1 4v4l1-1 1-1zm1 2 1-1 2-1-3 1-1 1h1zm-19-3v-2l-1-2-1-2v5l1 3h1v-2zm25 2v-2 1h-2l1 1h1zm3-1-1-1v2l1-1zm3 0 2-1 6-1-1-1-2-1h4l-3-1-2 1-3 2-2 1c-2 3-1 3 1 1zm-36 0v1-1zm45 1v-1l-2-1v1l2 1zm14-1h-1l-1-1c-1 0-2 1-1 2l3-1zm-50-1-1-2v3h1v-1zm134 1-2-2-1-1 1-1-1-1-1 3c0 2 0 2 3 2h1zm-136-3-1-2v2l1 2v-2zm41-1 1-1h1l-1 1h4v-6l2-1-1-1c0-1 0-1 0 0h-1v-5h1l1 1h1l-1 1v3h1l1-1 1-1 1-1c2 0 2 0 1-1l-2-2-2-2-2 1-2 1-2 1 1 1v6l1 1-2 2c-1 1-2 2-3 1l-1 4 1 1 1-3zm3-2v-1h1v1h-1zm9 5v-1l-1 1h1zm93-1-1-1-1-1-1-1h-2v-1h-2l1 1 2 1 1 1 1 1 1 1 1-1zm-99 0h1l1-1 1-1v-1l-2 1-1 1-2 1h2zm58 0 1-1h-1l-4-2-2-1h-1l2-1h2c1 0 2 0 4 3l1 1 2-1 1-1c1 0 1-1-1-1l-2-1-2-1-4-2h1l4 1v-1l-2-1h-3l-2 1-1 1-2 2c-2 2-1 3 2 3l3-1-1 2v2h2l3-1zm38 1v-1 1s1 0 0 0zm-53-1v-1h-1c-1-1-1-2 1-3l2-1h3v-2l-2-1-1-1-2-3-2-1-3-1-5 1c-2 0-2 1-2 2-1 2 0 3 3 2l4-1 4 1 1 1h-1l-1 1 1 1h2-3l-4 1c-2 0-3 1-1 2l1-1h1l-1 2-1 1 1 1h6zm-36-2 2-1v-1h-2l-2 3h1l1-1zm84 1h1l1-1h-2v-1h-1l-1 1h-1v1h3zm-9-1v-2l-2-1-2-1 1-1h-3l-3 3 1 1 1 1 2 1h3l2-1zm-139-2-1-3-1-1-3-3-3-5h-1v3l3 4 7 8-1-3zm2-1h-1l1 2v2-4zm11 3v1-1zm27 0s0-1 0 0h-1 1zm101 0h-1v1l1-1zm-108 0v-1a50 50 0 0 1-3-1l3 2zm80-1-1-1 1 2v-1zm-70 0h-1c-1 0 0 0 0 0h1zm-19-2v-1l-1 2h1v-1zm17 2v-1l-1 1h1c1 0 0 0 0 0zm7-1h-1l1 1v-1zm13 0v-1l-1 1h1zm-51-2v1s0 1 0 0v-1zm4-1v-1 3-2zm33 1h2l1-1v2l2-1c1 0 2-2 1-3h-1l-1 1 1-2-1-1c0 1-1 1-3-1l-3-1-1 1-3 2-3 1 2 2 2 1 1 1 1-1-2-2-2-1h2l2 1 1 2c-1 1 0 1 0 0h1v1h1v-1zm1-3v-1h1l2 1h-3zm11 4h3l2-1c1-1-1-2-2-2l-4 2-1 1v1l2-1zm63 0-2-1-2-1 1 2 3 1v-1zm3 0h-2l1 1 1-1zm-116-1-2-3v3l2 1v-1zm-6-2-2-3-1-1 3 7v-3zm-3 2zm127 0h-1l2-1h3l2-1h3l1 1v-1l-1-2h2l1-1h-1l-2 1-4 1-2 1c-1 1-1 0-1-1v-1h-2l-2 1-1 2-1 1h4zm-121-1-2-1v1l1 1 1-1zm139 1-1-1v1c0 1 0 0 0 0h1zm-87-1v-1l-1 1h-1 2zm8 0a1 1 0 0 0-1 0 1 1 0 0 0 1 0zm22 0h1l-1-1h-1v-2l-1-2h-1v5h3zm35 0 1-2c0-1 0-2 2-2h4v-2l-1-2h-1l-2 1-3 1-4 1-3 1-1 1 2 1h1v1c-1 0-1 0 0 0l2 1 1 1 2-1zm-26-1-1-1h-1l-2 1h-2l3 1a317 317 0 0 1 3-1zm10 1v-1l-1 1h1c1 0 0 0 0 0zm32-1v-1 2-1zm7 0 2-2v-2l-1-3h2l-1-2h-4l1 1v1l-1 1-3-1-3 1v1l1 1 6 2h-4v1l1 1h1v1l3-1zm-137-1v-3c0-3 0-5-2-7l-2-1-4-2-4-2-2-2-2-1v1l1 3 4 3 1 1 6 5v1l1 1 2 2 1 2v-1zm-6-8-3-2-2-2h1l2 1c2 1 3 3 2 3zm103 8h-1v1l1-1zm-79 0 2-1h2l4-1 2-1h-2l-7-1v-2l-1-2-1-2v3l1 2 1 2-1 2-1 1h1zm35 0-1-1-1 1h2zm22-1v-1l-1 1v1c1 1 1 0 1-1zm-16 0 1-2h-4l-1 1-2 1h3l2 1 1-1zm126 0-2-1h-1l3 2v-1zm-169 0v-1l-1 1h1zm108 0 1-2-3 1v1h2zm-108-7 1-7 1 3 1 3 1-1v4l2 1 2 1h2l1-3 1-2v2l1 2v-2l1 1-1-2v-1l-3-5-1-2h1l2 1h-1v1l1 1 1 1 1 2v1l1-2 3-2c1 0 1 0 0 0v-1l3-1v2a522 522 0 0 1-5 4l-1 4h-1l1 1h-1l-1 1h1l2-2 2-2a17 17 0 0 1 6-4v2l-1 1-1 2v1l1 1 2 1h2l1-1v-1l-1-1 1-1 3-1v-1h-1v-2l1-1-4-3-6-9c-1-2-1-2-3-2l-2 1-1 1-1 4 1 4 1 2v1h-1l-1-2-2-1-1-1v-1l-1-2h-2l-1-1v-2 1l1 1v-3l2 2 2 3v-2l1-3v-2l-1-1-2-1v-3a190 190 0 0 1 0-4l-1 1-1 1-2 4-2 5a207 207 0 0 1-1 5v2l1 1 3 1h1l1 2 1 1v2l-2-2-2-2h-1c-1-1-1-1-1 1l-1 2-1-6c0-1 0-1 0 0l-1 1-2 5c-1 2-2 6-1 8v2l1-2 2-1zm24-2 4-3v1l-2 2h-2zm4-1h1s1 0 0 0l-1 1v-1zm-12-9v-2 3-1zm-43 17-1-1-1-1 1 2 2 1-1-1zm5 0c0-2-4-5-4-5h-1l-2-1-1-1 3 5v-1h1l2 2 2 2v-1zm109 1-1-1-1 1h2zm24-1h-1c-1 0 0 0 0 0v1l1-1zm22 1-1-2-4-1-1-1h-2s-1 0 0 0l1 1 3 1 2 2h2zm6-1v-1l-2-2-2-1-1 2 1 2 4 1v-1zm6 0v-1l-1 1h1zm-180 0v-1l-1 1 1 1v-1zm117-1-1-2-2-1h-5l1 1 2 1 2 1 3 1v-1zm-62-2 1-2-4 2 1 1-1 1 3-2zm69 1h3l4-2h-4l-3 1h-3l-2 1h-1 6zm4 1h-1c-1 0 0 0 0 0h1zm40-1-1-1v1l1 1v-1zm16 0v-1h-2v1l1 1 1-1zm-162-2v-2 4-2zm66 2-1-1v1h1zm60-1 2-1h2c0-1 0-1 0 0h2l-1-1h-2l-2-1-3-1-4 1c-2 1-2 2-1 2v2h3l4-1zm-69 1v-1h-2l2 1zm19 0-1-1v1c-1 0 0 0 0 0h1zm11-1-1 1 1-1zm-23 0-1-1-1 1 1 1 1-1zm4 0 1-1h-4v1h3zm12 0-1-1-2 1h3zm19-1 3-1 2-1c-1 0 0 0 0 0h1l2-1c2-1 2-1 1-2l-1-1-6 3-4 2-3 1 2 1 3-1zm48 0 1-1-4 1h3zm-73-1 3-1c2 0 2 0 0-1h-3l-1 1h-3l-2 1 1 1h2l3-1zm-23 0-1-1v1h1zm6 0v1-1zm5 0h4-1l-3-1h-3l-2-1h-1l4 3 2-1zm-80 0-1-1v1h1c1 0 0 0 0 0zm74 0v-1l-1 1h1c1 0 0 0 0 0zm32 0v-1l-1 1h1zm26-1 2-1 8-2 3 1h3l-2-2h-10l-7 4v1l3-1zm28 0 2-2v-1l2-2-1-1h-4l-3 1-4 1c-3 0-3 0-1 1l2 2 1 1h2l1 1 3-1zm0-4h-1 2-1zm-156 4-1-2-3-1-1-2-1 1v2h2-1l-1-1h1l3 2 2 2v-1zm162 0v-1l-1 1h1zm-77-1 3-2h-2l-3-1h-1l-1 1-2 1h-4v1h10zm27 0h-1l1 1v-1zm54 0h-3l2 1 1-1zm-105-1v1-1zm7 1v-1l-2-1h-2l2 1 2 1zm78-1-2 1h1l1-1zm-44 0 1-2-3 1-2 1-2 1h3l3-1zm35 0h-2l1 1 1-1zm-22 0h-1 1zm25 0h-2 2zm30 0h6v-1l1 1 3-1h-11v1h1zm-75 0-1-1h-1l1 1h1zm17-1-1-1v-1l-1 1v1h-3l4 1 1-1zm50 1 1-1-1-1-1 1-1 1h2zm-72-1h-1l1 1v-1zm15 0 1-1h-1l-1 1v1l1-1zm26-2 2-1-2-1-2 1h-1c1-1 1-1-1-1-1 0-1 0 0 0l1 1h-3l-2 1h1l1 1 2 1 4-2zm51 1h-1v1h1v-1zm-174-2-2-2-2-1-4-5-2-1h-2v3l-1 2 2 1a78 78 0 0 0 11 6v-3zm-11-4-1-1h1v1zm78 7 3-1h2l-1-2-1-2 2-1h2l-1-1h-1v-2l-2-1-1-3v-3l-1-1-1-2-3-1-1-1-2-1-2 2-2 1h-2 1l2 1v2l-1-1-1-1-3 2-2 1v-1l1-1 2-2v-1h2l2-1v-1l-1-2h-2l-1 1-5 2-2 1-2-1h-1l1 2v3l2 3 5 3v-1c0-2 0-2 1-1h1l1-1v2l-1 3v1l3 3 3 1 1-1 2-2-1 2v3-2l5-1h2v1c-1-1-6 0-6 1h1v1c-2 0-2 0-1 1h4zm0-6h2-2zm-7-2h-3l-2-1 2-1 4 2h-1zm4-1v-2l1 2h-1zm-4-3h2l-1 1-1-1zm2-5-1-1v-1l-1-1h1l1 1 1 2h2-3zm29 16 3-1 3-2v-4l-1-1-4 1-5 1h-2l1 2 3 2-1 3 3-1zm15 0h-2l1 1 1-1zm2 0h-1c-1 0 0 0 0 0v1l1-1zm8 0h-2c0-1 0-1 0 0l2 1v-1zm-60 0-2-1 1 1h1zm26 0-2-1 1 1h1zm6 0-1-2-1-1-2-2-3-1h-1l1 1v3l4 1a64 64 0 0 0 3 1zm70 0 1-1 1-1h1l1 1 3-2 3-3 2-1-2-1-1-1-1-1h-2l-1 1 2 1 1 1h-5a117 117 0 0 1-6 4v1h1v2h2zm-140-1h-1v1l1-1zm57 0 2 1-1-2-2-2h-1l1 1h-1l-1 1v1h3zm36-1 1-1 2 1-1-1h-3l-5 2h3l3-1zm16 1h1-2 1zm49 0h-1l1 1v-1zm-124-3-1-2-1 1 1 1 1 2 1 1-1-3zm6 3-2-1v1h2zm45-1v-1l-3 1h3zm35 0v-1l-1-1-3 1 2 1 2 1v-1zm6 0a169 169 0 0 0 5-2l3 1 4-1 2-2 2-1 1-2 1-1c1 0 2 0 1-1l-3 1h-5l-1-2-2-1-3 1v1l2 1h1l2 3-2-1-2-2h-1l-2 1-1 2v1h7l1 1h-3l-1-1-2 1h-2l-1-1-4-1v1l3 3-2-1-5-2 2 1 3 1-1 1-2 1 2 1 3-1zm10-4h3l-1 1-2-1zm26 4h-2l1 1 1-1zm-6 0 1-1h1v-1h-3c-2 0-2 0-1 2h2zm-169-2h-1v1h1v-1zm3 0v-5l-1 2v4l1-1zm12-1-1 1v1l1-2zm26 1h-1l1 1h1l-1-1zm9 1h-1 1zm63 0h-2 2zm12 0h-2 2zm-54 0v-1 1c0 1 0 0 0 0zm24 0v-1l-1 1h1zm27-1-1 1h1v-1zm-25 0h-1v1l1-1zm20 0s-1 0 0 0v1-1zm46 0h-1v1l1-1zm-35 0v-1c0-1 0-1 0 0l-1 1h-1 2zm-13-1-1-1-2 1h3zm76 0h-1v1h1v-1zm-82 0-1-1-1-1-1 2h3zm13 0v-1l-1 1h1zm-94-3v-2l-1 4v1l1-3zm92 2h1l2-1 3-1 4-2-4-1-2-1h-1v2l-1 1-1 2-3 1h-1l1 1 2-1zm6 0h-2l1 1 1-1zm49 0 2-2 2-1 1-1v-2l-1-1-2 1-3 1-1 1-4 2-1 1h1l2 1h4zm-159-1v-2l-1 1v2l1-1zm25-1-1-2-2-3-1-1 1 2v2l2 3 2 1-1-2zm29 1v1-1zm-78-2-2-3a797 797 0 0 1 2 4l1 1-1-2zm8 2v-2l-1 2 1 1v-1zm102 0h-1v1l1-1zm-57 0v-1l-1 1h1zm36 0h-3 3zm30 0h-1 1zm16 0-1-1-1 1h2zm10-1h1l-1-1-3 1v1l3-1zm-147 0-1-1v1l1 1v-1zm98 0 1-1 1-1 1-1h-3l1-1 2-1h-7l1 1v1l1 1v1h-2c-1 2-1 2 4 1zm32-1 1-1-1-1-3 2v1l2 1 1-2zm-44 1v-1l-1-1-1 1 1 1h1zm38 0v-1l-2 1h2zm17 0-1-1v1h1zm-120-1h-1v1l1-1zm73 0v-2l-1-1-1-1v-1l1-1-1-2-3-1h-3l-2-1c-1 1 0 4 1 5 2 2 3 4 2 5h1l2-1h2v2l2-1zm27 0h1l2-1v-2l-3-2c-1-1-2-1-2 1l1 1v1l-1 1-1 1h3zm57 0c1 0 1-1-1-1h-1l2-1h3l3-2h2v-1l-1-3-1-2h-6c-2 1-2 1-2 3l1 2v1l-2-1h-2l1-1c1 1 1 0 1-1s0-2-2-3l-2-3-1-1-5 3h-2l-1 1 2 1 2 1-3-1-1-1-1-1-1 1h-1l-2 1-2 2h-2l-3 1-1 2h2l2-1 6-3v3l3 4 3-1 3-1h1l1 1 5 2h3zm0-4h3-3zm-9-2 2-1h2l-2 1h-2zm13-2 1-1v1h-1zm-170 5v-5l-3-5v2l1 2 1 1v5l1 2v-2zm91 2h-2 2zm48 0 1-1-4 1h1l1 1 1-1zm-124-1c0-1 0-2-1-1v2l1-1zm-17 0v-1c0-1 0-2-1-1v2h1zm4 0-1-5v3c0 3 1 4 1 2zm133-1v1c-1 0 0 0 0 0v-1zm-1 0v-1l-1 1h-2l-1-1c-1 1 0 2 2 2l2-1zm3 0v1-1zm-154 0v-1h-2s0 2 1 1h1zm82-1h-1v1l1-1zm7 1v-1h-1l1 1zm53-1-1-1-2 1 3 1v-1zm-137-1-1-3-3-2-2-2-1-1v3l1 3 3 1 2 1 1 1v-1zm3 1v-1 1zm37-3-2-2c0-2-3-5-3-5v4h1c0-1 0-1 0 0v2h-1v1l1 1h2v2l1-1 1-2zm88 3v-2l-1 1c1 0 0 0 0 0v1h1zm13 0v-2l2-1-1-3-1 1-2 1c-2 1-1 2 0 2l1 1 1 1zm-120-7v-5l1-2-2 1-1 3v6l1 4v-1l1-6zm136 6h1-2v1l1-1zm-163 0v-1h-1l-1 1h2zm15-1v-4l-2 5 2-1zm33 1h-1 1c1 0 0 0 0 0zm92 0v-1h-1v1h1zm15-1v-1l-3 2 3-1zm-100 0-1-1v1l1 1v-1zm31-1 1-2-1-2-1-2v-2h-2l-2-3-1-3-1-1-4-3h-1l-5-2-2-1-3-3-3-1h-2l-7-1-4 1h-1l-3-1h-3l-3-1-4-2-3-2-3-1h-2l-1-1c-1 1 1 3 3 4l3 1 1 2 3 1h1-1l-1-1 1-1 3 1 2 2 7 1h7l7 2 4 1h2l5 3 1 1c0 1 1 2 2 1l1 1c2 2 2 3 0 2l-1-1c-1 1 2 4 3 4l3 1 1 2-1-1h-1v1l2 2 1 1 3 5v-2zm-1 0v-1 2-1zm-25-22-4-2-2-1h1l5 2 4 1h-4zm-29 22c0-2 0-2-1-1l-1 2 2-1zm120 1 2-1 2-1h-2l-3-1-1-1 1 1v3l1 1v-1zm-62-1h-1c-1 0 0 0 0 0v1l1-1zm75 1v-1l-1 1h1c1 0 0 0 0 0zm-115-3h-1l1 2v-2zm3 0v-1l-1-2-1-2-1-2-1-1-1 1v-1l-1-1-1-1v-1 3l-1-1v1l1 1 2 2 6 6-1-1zm-4-6v-1l1 1h-1zm94 7h-2l1 1 1-1zm-132 0-1-2-1 1 2 1zm44-2h-1l1 2v-2zm104 1c1 0 1 0 0 0l-2 1h1l1-1zm4 0h-2l1 1 1-1zm-134-1v-1l-1 1 1 1v-1zm4 0h-1v1l1-1zm15-2h-1l1 1c0 1 0 1 0 0v-1zm32 1v-1l-1 1 1 1v-1zm14 0h-1l1 1v-1zm72-1h3c2 0 3 0 4-2l5-2 4-1 3-1 2-1 1-1h-2l-2 1h-3l1-1 2-1h-1l-3-1-2 1h-1v3l-1-1-2-2h-3l-2 2-1 1h-6l-3 2-2 3 1 1 2-1h2l-3 2h-2l-3-1h-2l1 1h2l5 1 6-2zm1-4h-3c-2 0-3 0-1-1h11l-2 1-3 1-2-1zm-154 4 1-1h-1l-2-1c-1 0-2 0-4-3l-1-1v1l1 1 4 5 2-1zm-7 1-1-1s-1 0 0 0l1 1zm26-1 2-4 1-2-3-2-2 1v4l1 4 1-1zm28 1-1-1-1 1h2zm-52-1-1-2v2l1 1v-1zm142 0h-1c-1 0 0 0 0 0v1l1-1zm-148 0v-1c-1-1-1-1-1 1h1zm55-1h-2l1 1 1-1zm16 0h-1c-1 0 0 0 0 0v1l1-1zm-27-1-1-1 2 2-1-1zm16 1c2 0 1-1 0-1l-2 1h2zm-59-2-1-1 1 3v-2zm2-2-2-4-1-2-1-2-1 3v4l1 1v-2c0-1 0-2 1-1l1 2 3 5-1-4zm55 3 1-1 1-2 2-1a105 105 0 0 0 5-1h-3l-3-1-1-2h-4l-2 1h-2l-1-1h-1l-4-2v4l3 2 4 2 3 1 1 1h1zm12-1-2-1h-2l1 1c1 2 3 2 3 0zm-55 1-1-1v1c0 1 0 0 0 0h1zm-7-2v-2l-1-1c0-1 0-1 0 0l1 3c1 1 2 1 0 0zm55 0h-2l1 1 1-1zm75 0-1-1-1 1h2zm56-1 2-2h1l-2-1-5-1-4 2-1 2 6 1 3-1zm-121-1-2-1v1l2 1v-1zm-48-1v-2h-1v3l1-1zm-8 0zm-12 0-1-1v1h1c1 0 0 0 0 0zm22-1h-1c-1 0 0 0 0 0v1l1-1zm10 0h-2l2 1v-1zm6 0-1-2-2-1-2-2-2-1h-1 1l1-1h-1l-7-4 1-1-1-1-1-1-2-2-7-8-6-5 1 1 1 2 7 11-1-3-2-2h1l3 5 2 2 5 4 5 5 2 2 2 1 2 1 1 1 1-1zm-26-23 1-1v1h-1zm1 21v-5h-1l-2-3-1-1 1 3 1 1 1 2 1 5v-2zm9 0h-1l1 1v-1zm-5-1-1-1h-1v1c1 2 2 1 2 0zm152 1-1-1-1 1h2zm-139 0-2-1h-1l2 1h1zm9-2c-1-1-1 0-1 1h1v-1zm24 0-2-1h-1l1 1h2zm-10 0-1-1-1 1h2zm-43-2c-1-2-1-3-1-1l1 3v-2zm25 1h-1l1 1v-1zm14 0h-2 2zm-6 0h-2c-1 0-1 0 0 0h2zm7 0c0-1 0-1 0 0 0 0 0 1 0 0 1 0 1 0 0 0zm8 0h-1 1zm-32-1-2-1 3 2-1-1zm25-1c-1-1-4-2-5-1l1 1h4zm2-1-2-1v1l1 1a669 669 0 0 0 1-1zm-31-1h-1l1 1v-1zm20 1v-1l-1 1c0 1 0 0 0 0h1zm-24-2h-1l1 1v-1zm16 0-3-1 1 1 1 1 1-1zm-20-2-1-2v1l1 3v-2zm6 0h-2l3 1-1-1zm-11-1v-1 1c1 1 0 0 0 0zm32 0h-1c-1 0 0 0 0 0h1zm-33-3-1-1v1h1zm2 1v-1l-1 1h1zm2-1-1-2-2-2 1 2 1 2 1 1v-1zm28 1 1-2 2-3-1-3-1 1-1 1v-1l1-1h-1l-1 1h-1l-1 1-2 4-2 2h7zm4-1v-2 3-1zm-10-1 1-2h-1l-2 3 2-1zm12-2-1-1c0-1 0-1 0 0l1 1zm-34-2c-1-1-1-1 0 0v1-1zm12 1v-3l-1 1-1 2h2zm25-1-1-2-1 1v2h1l1-1zm-12-2c2-1 2-1 1-3l-1-2-1 2-1 3-1 2 3-2zm-21-1-2-4c-2-1-2-2-2-3l-2-3-3-2h-1v1c0 1-1 1-2-1l-1-1-1 2 1 4v-3h1l1 1 2 2 6 4 2 3 2 2-1-2zm35 1h-1l-1 1h1l1-1zm-18-1 1-1h-1l-1 2v1l1-2zm13-2c0-1 0-2-2-3-2-2-3-1-1 2l3 3v-2zm6 0h-1v1l1-1zm-12 0c0-1-1-2-2-1l1 1 1 1v-1zm-23-2-1-1v2h1v-1zm17 1h-1 1zm2-2 2-4-2 1-1 4 1-1zm-31 0-1-1 1 1zm34-1h-1v1c0 1 0 0 0 0l1-1zm2 0 1-1-3-5v-2l-1-1v2l1 2v2l1 4 1-1zm24 0v-1l-1 1h1c1 0 0 0 0 0zm-23-4-1-2v1l1 2v-1zm4 1 2-2v-2 1l-2 1-1 1 1 1c1 0 0 0 0 0zm12-3h-1c-1 0-1 0 0 0v1l1-1zm-17-1v-1l-1 1 1 1v-1zm9-1v-1l-1-1v2l1 1v-1zm-2 0v-1l-1-1 1 2s0 1 0 0zm6-3 1 1-1-1zm-14 0h-1 1c1 0 0 0 0 0zm2-2v-1c0-1 0-1 0 0l-1 2 1-1zm48-7h-2l1 1 1-1zm-36 0v-1l-1 1h1c1 0 0 0 0 0zm24-1-1-1-1 1h1l1 1v-1zM121 308l1-1v1h-1zm-4-1v-1h2v2h-1l-1-1zm47 1 1-1 1 1h-2zm-33-1 1-1v1h-1zm108-4-1-2 3 3-2-1zm11-2h-1l-1-1h1l2-1h2v1h-1l-1 1h-1zm5-1h3l-1 1-2-1zm-186-1c-2-2-2-2-1-4l-1-2h-1l-2 5v-3l1-2c-1-2-1-2 1-2l3 2 2 1-1-2v-1l-2-1h-1l-1-1h-2l-1-1h3v-1h-2c-1 0-1 0 0 0v-1l-2-1-1 2-1 2-2 2-1 2-1-1a15 15 0 0 1 3-5l1-1-2 2-2 2-1 1c0 1 0 2-1 1v-3c1-1 1-1 0 0l-1 2h-1l1-3a19 19 0 0 1 10-4h5l1 1 2-1 3-1c1 1 4-1 6-3l2-3 2-2 1-2 1-3h-1l-3 3-3 2 1-1-1-1v1l-1 1-1 2-2 2-1 1-4 4v-3l-1 1h-2l-1-1-2 1-2 1-5 2h-1l1-2 2-1 1-1-1-1h-1l2-1h3l1-1-5-1c-1 0-1 0 0 0v-2h3l-1-1h-3l-2-1v2h-2l-6 2v1h2l2 1h-7c-2 0-4 2-4 3l2-1h2-1l-4 3c0 1 0 1 0 0v-3c1-1 1-2 3-2l1-1-7 3h-2l-2 1-1 1h1l2 1h-1l-1 1-1 1h-2l-1-1h1l1-1 1-3 3-1h1l-1-1h-3l-1 1-1 1h-2l1-1 2-1c0-1 1-2 3-2l3-1 2 1c0-1 0-1 0 0l1 1 1-2c1-1 0-2-3-1h-2c0-1 0-2 1-1l2-1 3-1 1-2h8l2 1c2 0 2 0 3-2l2-2 2-1 2-2h5l3 1 2-1h3l3-2 2-4 1-4 3-3 2-1 2-4 2-4v-10l1-5-1-2h-1l1-1 1-1a669 669 0 0 1-2-7l-1 1v1h1l1 2v1h-1c-1-2-2-1-2 0 1 1 0 1-1 1h-1v-1c-1 1-2 0-2-1h-1v1h1l-1 1h-2v-1l1-3v-12l1-5c-1-1-2 4-2 7l-1 3 1-8v-3l-1-1v-1l-1 3v5l-1 5 1 5 1 4v2l1 1v1h-3v-1l1-1-1-1-1-1-2 4a25 25 0 0 0 0 10v1l-1-2v-8l-1-11a244 244 0 0 1 0-46v-5l1-2 1-3h-1l-3 1-1 2h1v1l-1 4c-2 3-2 3-2 7v4l-1 11a125 125 0 0 1-1 18v5l1 4v4l-2 7v3-30a140 140 0 0 1 2-26l-1 2-1 9a770 770 0 0 0-2 47l-2 5v-4l-1 2-2 2-3 1-3 1-2 2-1 1-1-1v-1l3-2 3-1 1-1 2-2 2-7h-2l-2 1-1 2-2 1h-1l-2 1-2 1 4-3 2-1-1-1-1-1v-1h-2l-1 1h-4l1-1 1-1 1-1 2-1 1-1v1h2c1 1-1 1-2 1-2 0-2 1 0 1l2 1 1 1 2-1 1-1h2c2-1 2-2 0-4l-2-2h2v1l1-4v-6l2-29-1-9h-1l-1 1-1 1v-2l1-1c1 1 3-1 3-4l1-3c-1-1 0-5 1-7l1-2-1 1h-1l1-2 1-1-2 1-1 1v-1l-2 1-3 2c-1 2-2 4-1 6l1-1 1-1-1 2h-1l-1-1-1-1-3 3-1 4 1 2 1-4v-2l1 1c0 1 0 1 0 0v30l1 4v22h1l1-2v-3l1 2v2l2 3c0 2-1 2-1 1l-2-1h-2l-3-3-2 2-2 1-1 1h-5l1 1v1c-1 1-1 1 0 0h1l-1 2-1 6 1 4 1 1c0 2 1 3 2 3l3 1 2 1 2 1 2 2 3 2 1 2 1 1 2 2v1h-4l-4-1v-1l-2-1h-3l-1-1-4-2-3-3-2-2-3 1 1 1c0 2 1 2 2 2l3 1 1 1 4 2h-3l-1-1-2 1-1 1v1l-1-1-2-3-1-2-1-2-1-1-1-1-2 1-1 1 1 1 2 2 1 1h1v3l-1-1-2-1h-3l-1-1v-3l1-2v-2c0-2 0-2 1-1l1-1v-3l-1-1-1 2-1 1-1-2v-1h2l1-2-1-2-1-1-1 1-1 2h-1l-1 1h-1 2c2 0 2 1 1 2l-1 1-2 2-2 3-1 1-1 1-2 5h-1l-2-1-1 2-1 1-1-1 1-2c-1-1-1 0-1 1l-1 1 1 1H7l-1-1v-1l-1 1-1-1v-1l2-1 1-1H6l-2 1-1 1H2c-1 0 0 0 0 0l1-2 3-1 3-1 1-2 3-4c5-4 6-6 7-9l1-6-1-4-1-1h2l1-5v-7l-1-2h-1l1-1 2-1v-3l-1-1-2-1-1-1-1 2-2 1 1-2 1-2-1-1-1-1-2-1h-1v-1l1-1 1 2 2 1h2l2-1h-2l-2-1-2-2-1-1a158 158 0 0 0 2 0v1l1 1h3l2 1v1l1-1-1-3v-1l-2-2-2-3c-2-1-2-1-1-2v-1c0-1 1-1 2 1v2l2 1 1 3 1 1 1-1v-1h-1l-1-2-2-2v-1l-1-2-1-3-1-1v-2l-2-1-1-1v-1c0-1 0 0 0 0l1 1 2 1 2 2v2l1 3 1 1 2-1-1-1h-1l1-1c2-2 2-3 0-3l-2-1-2-3-4-5-1-3v-3h-2v1l-1-2 2-1h1l-1-2v-2l-2-4-2-4v1l2 1v-1h1l3 10 1 4 1 2c1 0 1-3-1-7l-1-6 1-2 1 2h-1v2l1 3 1 1v-3l-1-2 2 3 2 1 2-1v1l-2 1c-2 0-2 0-2 2v3l2 2 2 1 1-1v-3l-1-2-1 1-2 1 2-3 2-1h1v-4l-1 1h-1v-4 3l1-1v-2c0-1 0-1 0 0l1-3-1-4v-5l1 2v2-7l-1-1h-7l-5 2-2 1H8l1-1 3-2 4-2 1-2 3 1 3 1h2v-1h-2l-3-1-4-1-3 3-3-1h2l2-2 2-1 4 1c3 2 3 1 2-3l-2-3-3-4a71 71 0 0 0-3-7l4 1 3 2 2 1v-1l1-1h1c1 1 2 0 3-1l2-1 1-1h1c1 0 2 1 2 3l1 2 1 1v-1l-2-8-1 1-1 1v-2l-1-1v2l-1 2h-7l-2-1v-1h1l2 1 1-1v-1l-3-1-3 1h-1l1-1 3-1h7l3-1h2l2 2h1l-2-2-1-1-1-1-5 2h-8l-1 1-1 1-2 1-4 2 4-1h1l2 1 3 3v1l-1-2-2-1h-8l-1-1H8l-3-1v-1l1 1h4l3-1 2-1 1-1-5-2-3-1v-1l7 1 1 2h2l1-1-1-1v-1s0-1 0 0h1l1-1 3 1h4l-1 1v1l2-1 2-2-2-1h-1l-1-1v-1l-3 1h-2l1-1 2-1h-2l-1-1v-3 1l-1 2-1 1v1h-1l1 1v1l-2-2-3-1v-2l-3 1-3-2-2-2v-1l2 2 3 2 3-1 1-3v-1l1 2 1 3v2h1v-3l1-3 2 1 2 2v1h1l2-1 1-2h3v-2h1l1 1c1-1 1-1 0 0l1 1 2 1h2l1-1 1-1-1-5-1-3-1-6v-3l-1-3v-2l-1-1v4l-2-1-1-2-1 1 1 2h1l1 2 1 2 1 7v3l-1-6v-2l-1 1v2l1 5-3-1h-7v1h1l1 2 3-1 2-1h3l1 2v1l1-1v2h-2c0-1 0-1 0 0h-2l-1-1h1l1-1h-2l-1 1-3 1-5 1-3-1c-1 0-2 0-3-2h-2l-2 3-2 2-1-1-1-1h1l1 1 2-3h-1l-1-1h1l2-1 1-3 2-1 1-1v-1h-6l-6 2-1-2h5l-1-1-5-1 1-1 3 1h3l1-1v-3l5 3h3l1-1 1-1h-2v-1h4c1 1 1 0 1-1l1-1v1l1 1 1 1 1 1c-1 1 0 1 1 1h1l-2 1-3 3-1 1 2-1 3-1h2l-1-1h-1l1-1 2-1-1-1-1-1-2-4-2-1-2-2-2 1-2 1h-1 1v1h-3l-2-1H6c-1 1-1 0 0 0l1-1 1-1h3l2-1 3 1h3l4-1h3c1 0 2 0 3 2l1-1-1-2-3-2-2 1-2 1h-3l-1 1-3-1-2-1h-2l-1-1H9l-1-1v-1l4 2h1l2 1 3 1 1-1c0-1 0 0 0 0l2-1h-1l-2-2-3-6 1-1 2 1h1l1-4-1-4-1-1c0-2-1-2-2-2l-2-1-1 1h-2c-1 0-2 1-1 2v1l-1-1c-2 0-1-1 0-2l2-1h2l1-1-1-1-4-1H6l2-1a153 153 0 0 0 5 1l2 1 1 1 2 2 2 3 2 5v-3l-2-4c0-2-2-4-3-4h-1l-2-1-1-2H9l2-1h3l3 1 1 2 3 1h1v-1l-1-1 2 2 2 1 2-1 3-2h6l1 2 2 1 1 1h1l-1-3-2-2h-3l-4-1h-4l-8-3-2-1h1l2-1 2-1 1-1 1 1v-1l1-1h2l1 1h6l-2-1-3-2h2l4 2 6 2h2v1l2 1h3l-1-1-3-2-9-2-2-1 1-1 4 2 4 1-1-1a112 112 0 0 0-9-5h3l2 1 1 1 2 1 8 3 4 1 2 1v-1c0-1 0-1 0 0h-2l-1-2-3-1-5-1-4-1-1-1h1l4 1 5 1 7 3h1l1-1-2-1-3-1-2-1-13-4h3l12 3 3 2h1l3 1 2 1-2-1-2-2h1c1 0 1-1-2-2l-3-1 1 1h-1l-5-1-5-1-3-1-1-1h1l3 1a54 54 0 0 0 8 1h1l-1-1h-1v-1l7 2h1l-1-1a97 97 0 0 0-19-5l-2-1h2l3 1 14 4 7 2 3 2 3 2 1 2c2 1 2 0 0-1l-1-2v-1a328 328 0 0 0-6-3l-7-2v-2 1h1v-1l-3-1-5-1-7-2-6-1c1-1 8 0 11 1l3 1-3-2-3-1 5 1a738 738 0 0 0-5-4l5 1a659 659 0 0 0 16 5h2l-2-2-3-6 1-1v1l1 1v1l2 3 3 3v-1l-1-2-1-2 2 2 1 1V9l-1-2 1 1 1 1 1 1v1l2 3 2 4c0 2 2 4 2 3l-2-4-2-4 1-3 1 3 2 5 2 3 3 6-1-5-3-4-1-4 4 7 3 5 1 3v7l-1 5v2l1 3 1 4v2l-2-8v-1l-2-7-1-4v3a80 80 0 0 0 0 5l-1-2v-2l-1 1 1 3v1h-1l2 6h1l-1-4 1 4 2 6 1 1 1 2 2 5 1 4h-1l-2-5c-1-4-2-6-7-13-1-2-2-3-3-2v4l1 2 1 3 2 5 4 13 5 16a49 49 0 0 1 5 10l1 4 1 3-1-4-1-4v-2l-1-1 1-1v1l1 1v-1l-1-2-2-4-2-4v-3l1 1v1-2c0-2 0-4-2-6a31 31 0 0 1-3-8l1-1 1 3 2 4 1 1v2l1 3 2 3 1 4 1 2 1 2c1-1 1 1 3 5a59 59 0 0 0 3 9l2 4 1 2-5-8-1-2c-1 1-1 1-1-1 1-2 0-3-1-6l-2-3v2l1 5v5l1 3 3 9v6l1 10c0 1 0 2 1 1v1l1 2v-5l-1-4v-2c1 0 2 2 2 7l1 6 1 9v12l1 1v-1c0-1 1-1 1 2a71 71 0 0 1-3 21l1-3c0-3 0-5-1-2v6l-1 8-1 8v2l-1-2v-2l-1 2-1 4-1 2v1c-1 0-2 2-2 5l-1 2 1-7 2-3c1-1 1-2-1-1v-2l-1-1-3 5-1 2-1 5v8c0 4 0 4 1-1l1-2v4a842 842 0 0 0 0 14h1l1-4v-4l1 3-1 4v1l1-2 1-5 1-2a113 113 0 0 1-1 10c0 2 1 1 2-2v-5l1-10a64 64 0 0 1-1 17c1 2 0 4-1 4v1l1 1v-1l1-1v1l1 1v2l-2 6-1 3-1 2-1 3-1 1v3l-6 8-1 1h3l4-3 2-3 1-2 1-1 2-3 2-2 1-1 1-1h1v-1l-2 7v-4 1l-2 1-3 5-3 4-1 3 2-2 2-1-2 3-3 2c0-1 0-1 0 0l-1 1-1 1-1 2-1 1-7 7-2 3 1-2 1-2-1-1c0-1 0-1 0 0l-1 2-1 1v2l-2 2-3 1-3 1 1 2 2 2 1-1v-1h1l2 1h1l-1 1h-6l-1-3-2-2v-3l-1 1h-4l1 3h2l1 1v1l1 2 1 4h-1v-1l-1-1v1h-1l-1-1-1 2 2 2 2 1-1 1-2-2zm7-12h-1 1c1 0 0 0 0 0zm4-2v-1 2-1zm-3-1-1 1 1-1zm3-2c1-1 0-2-1-1v1h1zm-6-3h-2v1l-1 1 1-1 2-1zm-37-1v1-1zm34 0 2-2 3-3h-1l-2 2-3 1v3l1-1zm-28-2v-1l-2 2h1l1-1zm24 1 2-1h-4l-1 1 1 1 2-1zm16 0c0 1 0 1 0 0zm-8 0h-1 1zm-12-1h-1s-1 0 0 0v1l1-1zm-13-1v-1l-1 1h1zm16 0-1-1v1h1zm-20-1c3 0 4-1 4-2h-1l-3 1-3 1v1l3-1zm33-2 1-2-3 3v1l2-2zm-18 0 1-1v-1c1-1 1-1 0 0l-2 1v2l1-1zm-2-1v-2l-1 1-1 2 2-1zm21-2 2-1h-1l-2 1-1 1v1l2-2zm-11 1-1-1v1c0 1 0 0 0 0h1zm6 0 1-2 1-2 2-2 2-2-2 1-2 3-1 1-1 2v1zm-8-1h-1v1l1-1zm22 0h-1c-1 0 0 0 0 0v1l1-1zm-6-1v1c0 1 0 0 0 0v-1zm2 0c1-1 1-1 0 0l-1 1 1-1zm-23 0 3-1 1-1 2 1 1 1h3l-3-2-2-1c-1-1-4 0-6 1l-1 2v1l2-1zm29-4 2-2 1-1-1-1 1-1 1-2 2-1 1-7-1 2-2 5v-2h-2l-1 1c-1 0-2 0-1-1v-1c-1-1-3 0-3 1v3l1 1h2l1-2 1-1v-1 2l-1 3-1 1 1 1c1 1 0 0 0 0l-2 2-3 2-2 1-1 1 4-1 3-2zm-1 2h1l1-1-5 2h1l2-1zm-15 0v-1h-1l-2 1 2 1 1-1zm10-2h1l-2-1v1h1zm4-1 1-1 1-2h-1l-1 2-1 2 1-1zm-6-1h-1 1c1 0 0 0 0 0zm2-1 2-2 1-1h-2l-3 3h1v1l1-1zm-2-1 1-2h-2l-1 3 2-1zm13 0h-1v1l1-1zm-10-4h-1v1l1-1zm0-1v-1h-1l-1 1-1 1 3-1zm-31-3h-1l-1-1-1-1c0-1 0-2-2-2l-1-1h-2l1 1c2 0 3 1 3 3l1 1h3zm34-2 1-3c-1-1-1 0-2 1l-1 3v1h1l1-2zm-41 0h-1v1l1-1zm7 0h-1l1 1v-1zm-1 0-1-1v1h1zm-17-1v1-1zm13 1-1-1v1h1zm-21-3h-1v2h1v-2zm67-1 1-2v1l-1 1-1 1v1l1-2zm-53 1-1-1 1 1zm56-2v-2l-1 1v2l1 1v-2zm-4 0v-1l-1 2 1-1zm-83 0 1-2-1-1-1 1v2h1zm37 0-1-1-2-1-4-1-2-1-1-2-1-7v-9l1-4 1-10a3167 3167 0 0 0 7-44c1-6 1-7 3-8l1-3c-1-1 0-2 2-4l3-3 4-1h2l-1 1c-1 0-1 0 0 0l3 1h3v2l-1-1-1-1v2l2 1 1-1c1-1 5 0 7 1l3 1c1 0 1 0 0 0-1-1-1-1 1-2l2-1h-5 1l2-1 2-1 1 1 1 1-1 1v1l2-1 2-1 2 1 3 1h3l2-1 1 1v1h-1l-4 2v15-2c1-4 2-3 2 4v6-1h1l-1 3v6l1-1v7h1l2-7v-8l1-10v-7l1 5v2-9l-1-12-2-11-1-3-1 1-2 2 1 1h1l1-1v3l1 1-2-1-2-1h-1l-3 1-2 1-2 1-9 5h-1l-5 2h-2l-1-1v1h-1l-2-1h-5c-3 0-4 1-5 2l-2 1-2 2-1 3-2 4-1 4v2l-1 2-1 2v-5l2-10v-5l1-2v5l1-1 1-5v-5l-1-1c-1 1-1 0-1-2a1045 1045 0 0 0 1-10l1-2-1 1-1 2v1c-2 0-1-4 1-6l1-1 1-3v-3l1-5 1-5v-3l1-5 1-6h-3l-1-1v-1h-1c-2 0-2 0-1 1l-1 4-1 2 1-1 1-1v3l-1 4v4l1 7-1 8v1l-1 1-1 1-1 2-1 3a82 82 0 0 1-3 12l1 3h1l1 1-1 2-1 6v11l-1 3v-4l-1 2-1 8-1 8c0 1 0 2 1 1v-1l1-3v-1 1a424 424 0 0 0-4 34l-4 15 1 13 2 3h1v-5l2 2 4 4 3 1 2 1h1l2 1v-1zm-16-12v-1 1zm0-6v-3l1-4 2-12 1-1v1l-1 3-1 4v5l-1 4v2l-1 3v-2zm2-1v-1l1 1h-1zm4-32v-3l1-4v1l-1 6zm2-15v-4l1-5 1 1-1 5-1 4v-1zm54-11 1-4v6c-1 1-1-1-1-2zm-54-8v-1l1-1v1l-1 2v-1zm54 0v-2l-1-4 1 1 1 1v-1l1-2h1l-1 2-1 4v2l-1-1zm-53-7 2-5v1l-1 5c-1 1-1 0-1-1zm31-3-3-1-2-1h3c3 0 4 1 4 2h-2zm17 0-1-1h4l-1 1h-2zm4-1-2-1-4-1-2-1h-7l-2 1v-1l5-2 1-1 5-4 4-1 5 1-1 1c-1 1-2 2-1 5l2 2 1 1h-2l-1 1h-1zm1-3-1-2v1c0 2-1 1-1-1v-3l1 1v-1l-1-1h-3l-1 2v4l3 1h3zm-5 0c0-1 0-1 0 0h1-1c-1 0 0 0 0 0zm-3-2v-2l-1 1-1 1 1 1 1-1zm-40-2 1-3v5l-1-2zm-6-2 1-2v3l-1-1zm2-4a45 45 0 0 1 2-7v1a29 29 0 0 1-2 6zm59 109v-5 1l-1 2-1 2h2zm-62-1v1h1l-1-1zm-24 0 1-1 1-1 1-2-1-1-2 2c-2 2-2 4-1 4l1-1zm74 0v1-1zm4-5v-1l-1 4 1-1v-2zm-63 2h-1v1l1-1zm67-1v-5l1-3-1 3-2 4 1 3 1-2zm-68-2-1-1v2l1-1zm0 1c0-1 0-1 0 0 0 0 0 1 0 0zm-13-1 1-1h1-3l-1 2 2-1zm78-1v1-1zm-74 0h-1c-1 0 0 0 0 0h1zm70-1v-1 2-1zm-71-2-1 1h1v-1zm10 0-1-2v3l1-1zm27 0v1-1zm-28-5v-2l-1 1v2l-1 1v2c1 1 1 1 1-1l1-3zm-7 1 2-8 2-6 2-11a110 110 0 0 0 1-18v-5l-2-5v-8 9l-1 3v3l1 1c0 1 0 1 0 0l1-2v7l-1 8v-2l-1-2v8l-1 7v-1l-1-1v10l-1 5-3 10 1 1 1-3zm38-1v-1l-1 2v1l1-2zm-29-4a249 249 0 0 0 4-26v-11l2-11-1 1-1 2v9a97 97 0 0 0-2 14h1v1c1 0 1 0 0 0a95 95 0 0 0-4 19h-1l-1 1v2l-1 2 2-2 2-1zm29 1 1-3-1-2v2l-1 2v2c1 1 1 0 1-1zm-13-2-1 2v-1l1-1zm-3-3h-1l1 1v-1zm-16-2v-1 3-2zm32 2-1-1v1h1zm27-4v-1l1-8a627 627 0 0 0 1-53c-1-2-2-3-4-3h-3l-2 1v1l-2 3-3 3-1 2-1 1h1l2 1a67 67 0 0 1 3 8l2-8v-1l-1 2v1l-4-6 1 1 1 1h1l1 1v-4l1-5v-1h1v8l-1 10-1 12a80 80 0 0 0 0 12v2l1-1v-1 2l1 1v-1l1-1c1 0 0 0 0 0v5-1l1-3v4l-1 8v8l-1 1h1l1 1v2l2-2 1-2zm-3-23 1-2v1l-1 2v-1zm-1-4 1-2-1 4v-2zm-2-4 1-10v13l-1-3zm5 1 1-3v-4l-1 1v3l-1 1-1-1v-8l1-1v1l1 1 2 2-2 9v-1zm0-8v-1l-1 1h1zm-2-9a177 177 0 0 0 1-16h1l-1 8a154 154 0 0 0-1 10v-2zm-37 49h-1l1 1v-1zm-6-3a368 368 0 0 1 1-16 345 345 0 0 1-1 16zm3 3-1-1v1h1zm16-1-1 1h1v-1zm1 1v-1 1zm16-2v-2 1l-1 2v-1l-1-1v2l1 1 1-2zm-3 0 1-3-1-1v1l-1 3 1 1v-1zm-31 0v-6l-1 7 1-1zm8-3v-11 4a82 82 0 0 1-1 10c0 2 1 1 1-3zm-3 0v-13l-1 6v8l-1 2 2-3zm-2 1v-11 3l-1 6-1 1 1 2 1-1zm16-2v2-2zm14 1h-1l1 1v-1zm6-1v1s0 1 0 0v-1zm-21-6v-4l-1-1v6a159 159 0 0 0 1 3v-4zm15 4v2-2zm-2 0v-3a265 265 0 0 0-1-42v14l-1 13 1 20 1-2zm-29-9v-10l1-1 1 1c1-2 0-3-1-4l-2-1-1 4v7l1 8 1 5v-9zm31 4v-1 2-1zm-14-2v1-1zm15-1v2-2zm-44-4v-1l-1 4v1l1-4zm60 2-1 1h1v-1zm-47-3v-5l-1 3a86 86 0 0 1 1 6v-4zm-21 3h-1v1l1-1zm53-4c0-2 0-4-1-3v7l1-4zm-53-3c-1-1-1 1-1 4v2l1-3v-3zm25 2v-2l-1 2 1 3v-3zm-2-1v-2l-1 3 1 2v-3zm43 2v-13c1-1 1 0 1 2v2-9l-1-1v6l-1 15 1-2zm11-1v-4 1l-1 1-1 1 1 4 1-3zm-80 2 1-3c0-1 0-2-1-1l-1 1-2 1 1 1 1 1h1zm14-3v1c0 1 0 1 0 0v-1zm43-2v-3 6-3zm-16 1-1-1v3l1-2zm-2-7v-7 6a86 86 0 0 1 0 8v-7zm-28 6v1-1zm18-3-1-5-1 3 1 4 1-2zm53 0v-2l-1 4v1l1-3zm-77 2-1-3-1-2v4l1 2 1-1zm-2-1v-1l-1 1c0 2 0 2 1 1v-1zm51 0h-1l1 1v-1zm18 0h-1 1zm-15-3v-9l-1-5-1-3v1l1 8c0 10 0 10 1 9v-1zm20 1v-1c0-1 0 0 0 0v2-1zm-22-2v1-1zm25 0 1-5v-5 2l-1 2-1 3 1 4v-1zm-54 0c0-1-1-3-3-3h-1l1 1 2 1 1 1zm-17-7 2-20c1-8 1-11-1-17l-1-2-1-1 1-2 1 2v1l1-1 1-1-1-1-2-3v-2l1 2c1 2 2 3 3 2h1c0-2-2-4-4-5l-3-1v1c1 1 1 1 0 0l-2 1h-2v2h1c0-1 1-1 1 1v23l1 3v-7 6l1 20v-11l1 9c0 8 0 9 1 1zm-1-16a44 44 0 0 1 0-9l1-1v10h-1zm-2-11zm0-13v-4 1h1l1 1h-1v2c0 2-1 2-1 0zm75 45v1-1zm2-4a65 65 0 0 1 1-11l-1 1a83 83 0 0 0 0 15v-5zm-55-1-1-3v3l1 3v-3zm-4 2c-1 0-1 0 0 0 0 1 1 1 0 0zm2-3v-3l-1 6h1v-3zm-2 0v-4h1l1-1v-2l-1-2-1 2c-1 3-2 8-1 9l1-2zm18-3zm-38 3h-1 1zm35-1v-1 2-1zm-27 0h-1c-1 0 0 0 0 0v1l1-1zm59-1c0-4-1-5-1-1l1 3v-2zm-67-11v-7 1l1-3-1-3v2l-1 1v17l1-8zm77 7-1-5v9l1-4zm-68-3v-3l-1 8v1l1-1v-5zm26 4v-1l-1 2c0 1 1 1 1-1zm15-1v-1l1 3-1-2zm-26-2-1-1v1l1 2v-2zm55-2-1-12v15l1-3zm-44 2-1 1h1v-1zm32 0-1 1h1v-1zm14 0v1-1zm-83 0h-1c-1 0 0 0 0 0h1zm13 0h-1 1zm14-1h-1 1zm13-1v1c-1 0 0 1 0 0v-1zm2-1v2-2zm-5 0c0-1 0-1 0 0v2-2zm-38-1-2-4h-2l-1-1 1 2 2 2c0 2 0 3 1 2l1-1zm85 0h-1v-4l-1 2c1 2 1 4 2 3v-1zm-89 1v-1l-1-2-1-2-1 1 1 2 2 2zm20-6v-9l-1 1v3l-1 5v5l2-5zm26 5v-1c0-1 0 0 0 0h-2v1l1 1 1-1zm-3-3s0-1 0 0l-1 1 1 1v-2zm6 1 1-3-1 1-1 3 1-1zm7 1-1-2 1 2zm-40-1v1-1zm0-2c0-1 0 0 0 0v1-1zm-20 0-1-1v2l1-1zm12-1h-1l1 1v-1zm39 0v1-1zm2-2h-1l-1 1 2-1zm-18 0 2-1v-1l2-3 2-2 1-1 5-2-2 1-1 1 5-2-1-1h-4l-2 1-5 4v2l-1 2-1 1-1 2 1-1zm57-1v2-2zm-1-2-1-2v2l1 3v-3zm-25 1v1-1zm10-1h-1v1l1-1zm12-2v-2l-1 2 1 2v-2zm-67 1 1-2h-1v3-1zm5-3v-1l-1 1v2c0 2 1 1 1-2zm34 3v-1l-1 1h1zm16-1-1-1v1c0 1 0 0 0 0h1zm-66-2v-2 3-1zm50 0c1 0 1 0 0 0l-1 1 1-1zm-9-1h-1v1h1v-1zm5 1v-1l-1 1h1zm19-1-2-1 4 2-2-1zm14-1v-3h-1l1 5v-2zm2 0v2-2zm-79-1-1-1v3l1-2zm43 1h-1v1l1-1zm-30-1-1 1h1v-1zm47 1-1-1-1 1h2zm-31-1-1-1v1h1zm-19-2h-1v1l1-1zm4 1v-1 1c0 1 0 1 0 0zm18-1v-1l-2 2h1l1-1zm47-1v-2l-1 1h-1l1 2v1l1-2zm-66-1v-1l-1 3h1v-2zm-14-1v2-2zm13 1v-6l-1 2v5l1-1zm11-2-1 2h1v-2zm-9 2v1-1zm11 0v-2l-1 3 1-1zm52-3-1-1v4l1-3zm-48 0v-6l-1 1 1-4a119 119 0 0 0 2-8h1l1-4h-2v2l-3 6h-1v-6l-1 1-1 4-1 3v-1l1 1v2l1 4v4l1 1c0 2 1 2 2 0zm16 1-1-4c0-1 1-1 1 1v1l1 1c1 2 1 1 1-2 1-2 0-3-1-5l-1-4v-2l1 2v2h2l1-4v-6l2-2-1 2-1 2h1l1-2 1-1 1-2 3-5 2-2 1-4c1-3 1-1 1 2-1 3-1 4-3 5l-3 4-2 4-2 3c-1 2-1 5 1 7l1 4-1 1-1-3-1-2-1 5 1 3 3-2 1-2 1-2v-4h-1l-1-6 1 2 1 3 1 1 2-5v-7l1-2 1 1v5l-1-1-1-1 1 3 1 4-1 1-1 2v2l1-1 2-3 1-1-1-2 1 1h1l3-2c1-2 2-1 1 0l-1 2h-1l-3 3-3 5 1-1 5-4v-1l1-1 2-2v2h1v-2l-3-12-1-2-2-3-2-3a52 52 0 0 1-4-8l-2-6v-2l-1-1-1 2-1 4 1-1h2l-1 1c-2 0-2 1 0 1l1-1 1 1-3 1-3 1-1 1-5 2c-2 0-5 1-7 3l-3 2-2 2-3 2-2 3-2 5c-1 2 0 2 2 0l2-3 1-2 1-2c1-1 1-1 0 0h-1l1-1a234 234 0 0 0 4-1v1l1-1 1-1v-1l1-1 2-1h1c1 1 1 1 1-1v-1l1 1 1-1 3-1 2-1 2-1h5l1 1v1l-1 4-2 3a46 46 0 0 0-4 8l-1 2-1 3-2 2c0 2 0 1-3-5l-3-7-1-1-2 1-3 2-1 3h1v-3l1 3 1 4v-2l1-3v4l1-1v-1l1 1v2l1 2 3 8v-4l2 6-1 1v4a1664 1664 0 0 1 2 4zm2-14v-3l1 4-1-1zm7-4 1-1-1 2v-1zm9 0-2-8-1-1v-2l1-2v4h2v7l1-1h1l-1 3h-1zm-11-5 2-5-1 3-1 2zm4-9v-4l2-2-1 4-1 3v-1zm-46 32v-2l-1 1v1h1zm22 0 2-1-1-5v-6l-1-5-1 2-1 7v8h2zm9-2h-1c0 1 0 2 1 1v-1zm38 0v2-2zm-43 0v-1l1 1 1 1v-9l-1-5-2-2-1-2v3a226 226 0 0 1 1 15h1v-1zm0-9v-1 1c0 1 0 1 0 0zm-37 8v-2 3-1zm26 1h-1l1 1v-1zm17-2v-2 4-2zm33-1-1 1v1c1 1 1-1 1-2zm-66 1v1-1zm3-2a1906 1906 0 0 1-2-1l-1 2 1-1c1-1 1-1 1 1v1l1-2zm43 1v-1l-1 1h1zm-14-1v-4l-1 1v-3l-1-2v-1 2a190 190 0 0 1 1 8l1-1zm-16-2-1 1 1 1v-2zm31-1c0-1 0-2-1-1v2l1-1zm5 0-1 1h1v-1zm2 0h-1v1l1-1zm-53 0v-1h-1v1h1zm64-3v-3 5-2zm-59-1-1-1v2c0 1 0 1 0 0l1-1zm56-1-1-2c0-1 0-1 0 0v1l1 2v-1zm-77 1-1-1h-3l3 1h1zm5 0v-1l-1 1h1zm10 0v-1l-2-2h-8v1l3 1h3l4 1zm15-5 1-3 2-2 1-2-4 5-1 6v-1l1-3zm-9 1 1-2v-1l-2 5c1 1 1-1 1-2zm23 0v1-1zm-29-1v-1h1l1 2h1v-2h-1l-2-1h-2c0 2-1 3-2 1l1-2 1-1-2-1-2-1v1l2 5 3 2 1-2zm-12 1v-1l-1 1h1s1 0 0 0zm3-2-1-2-1-2-2-3-3-3-1-2-4-2 1 1 2 3 3 4 1 1h1v2l1 3 2 2h2l-1-2zm4 2v-1l-2-7v-3l1 1 2 3v-2l-1-3v-1l1 1 1 1v1l1 1 2 5 1-2v-2h-1l-1-2-1-2-1-3-1-2h-1l-1 1h-1v3h-3l-2-1 1 1v1h-3v1l1 1 1-1 3-1 1 1h-2l-1 2 1 1 3 5v3h2zm25-2v-1l-1 2v1l1-2zm-15 1v-2 1l-1 2 1-1zm60-3-3-10v-4l-1-1h-1v2-2l-2-3-2-4-2-4 6 14 1 4 1 1 3 10c0 1 0 1 0 0v-3zm-3 1-1-2v1l1 2v1-2zm-25-1 3-6-3 3-2 2 1 2 1-1zm26 0c0-1 0 0 0 0v1-1zm-59-1v1-1zm18-1v-1h-1l-1 1 1 1 1-1zm-15 0c1 0 0 0 0 0v1-1zm29-1 1-3a89 89 0 0 0 2-6l-1 1-2 1-1 1v7l1-1zm-32-1v1-1zm4 0v1-1zm26-1c0-2 0-2-1-1l1 3v-2zm-23-2v-4a442 442 0 0 0-6-17l1-1h1l-1-1h-2l-1 1h-1c-1 0-1 0 0 0l3-2 2 1h2l1-1 1-1-1-1-1 1-1-1h-3l-2 1h-2l-2 1-4-1-4 1-1 2-1 1 3-1 5-1 1 2 2 2h1l-1 1-1 1 1 1 1 2v-1h1l1 1 1 1 2 2 2 3v4l1 2 1 3v2l1-3zm-9 2-1-1h-1l1 1h1zm20-2 1-1c-1 0-3 2-2 3l1-2zm18-3v-1l-1 2-1 3 1-1c2-2 2-2 1-3zm-37 3h-1 1c1 0 0 0 0 0zm13 0h-1 1c1 0 0 0 0 0zm16-1h-1l1 1v-1zm-10-1h1l4-2 4-3h1v-1l-6 4-2 1-2 1-1 1 1-1zm-19-3c0-2-1-4-2-3l1 1v3l1 2v-3zm-2 0-1-4v-1 1l1 6v-2zm-8 2h-2 2zm52-5v-4l-2 2-2 2h2v1l-1 2v2l1-2 2-3zm-41 4c0-1 0-1 0 0 0 0 0 1 0 0 1 0 1 0 0 0zm28 0v-1c-1-1-3 1-3 1l1 1 2-1zm10-2-1-1v4-2l1-1zm-36 2v-2l-1 1 1 1zm12 0v-2h-2v1l1 1h1zm18 0 3-3 2-3v-1l-3 3-4 2-1 1 1 1h2zm23-1v-1l-1 1 1 1v-1zm-2-1h-1l1 1v-1zm-36-1 2-2 1-1h-1l-2-4c1 0 2 0 3 2l1 1 2-1 2-1c1 0 2-1 1-2l-2-1v-5l-2-3v-2l4 7 2 3v-2l-1-4-1-3-1-1v-2h-1l-1 1-2 1-1 1 1 1 1 2v2l-2 3-4 3-2 2 1 1 3 1h-2l-2-1-1 4 2 1 2-1zm0-4-1-1h-1 3l-1 1zm4-3 1-1 1-3h1l-2 3-1 2v-1zm-21 6v1-1zm2-1-1-1-1 1 1 2 1-1v-1zm5 1v-1l-1 1 1 1v-1zm25 0c2-1 1-1 0 0l-1 1 1-1zm-42-2v-2l-1 1-2 1h-1l1 2h2l1-2zm60-2c-1-1-1 0-1 2h1v-2zm-18 1h-1v1l1-1zm7-1h-4l1 1 3-1zm-25-1 1-2h1l2-1 1-1 2-4-1-2-1-2-2-1-2 2-1 1h2l1 1 1 1 1 1v1l-2 2c-1 0-1 0 0 0v-1l-1 1-2 2-1 2h1zm34-2v1c0 1 0 1 0 0v-1zm-66 1-2-3 1 2 1 1zm3 0-1-1-1 1h2zm46-2h-1v1h1v-1zm3 0 1-1 1-6a129 129 0 0 1 1-10l-3-8-1-2-3 2-7 8 1 2 1 1v-3l1 1 2 4h3l-1-2-1-1h-1v-4l1-3 1 1c1 2 2 2 2 1l-1-3v-2c1 0 2 1 1 2l1 5v2l1 2c1 0 0 0 0 0v11-4l-1-3v1l-1-2v3h1v1l-1 4 1 4 1-1zm0-21v-1 2-1zm16 22-1-2v1l1 1zm-46-2-1-1v3l1-2zm-12-2-1-3v6l1-3zm1 3v-3 3zm9-2-1-2-2 1 1 2 2 2v-3zm14-1h1v-1l-1-1c-1-1-1 0-2 2l-1 3 2-1 1-2zm36 0-2-6-3-5-2-3h1l-1-1-1-1v2l2 5 3 7-1-2v-4 1a88 88 0 0 0 5 10l-1-3zm-6 2v1-1zm-40-3-1 2v2-2l1-2zm-16-1-1-1-1 1v1l1 1 1-2zm49-4v-3l-1-1v-1l-1 2v5l-1 3c1 1 1 1 1-1l2-4zm-35 4h-3l2 1 1-1zm25-4 2-1-1-1h-4v1l1 2h1l1-1zm25-3-1-1 1 3v-2zm-34 1h-2 2zm-13-2-1-1v2l1 1v-2zm7 2-1-1-1 1h2zm-30-2-1-1h-2v1l1 1h2v-1zm16-5-1-1 1 4v3l1-2-1-4zm18 5 1-3 1-2 2-3v2l-1 1h1l3-5 3-2 1-1 3-1v-2l-2-5-1-2-1 2-1 3v1h-1c0 2 1 2 2 0l2-1-1 2-3 2-4 2-3 5-1 2-1 2-1 4 2-1zm4 1v-3c0-2-1-1-3 1l1 2h2zm-7-1v-7l1-16v-3l1-3V47l1-1 1-1v3l-1 5 1 2h1v-3l1-4 3 8-3-5v2l2 4 2 1 1 1h-1l-3-1-3-2-1 1 2 1 2 1 1 1 2 1 2 1h-1l1 1-1 1v1l-1 1v1l1 1 1-3 1-3-1-5-1-5-1-3-1 1-1-1-1-1h1l1-1-2-2-4-1-4-1-2-1h-3l-1 1 1 3 1 3 1-3 1-3 1 1v7l1-3 1-3v3l-1 4-1 1-1 2 1 1h1v5-2l-1-1-1-1-1-2v-3l-2-4-5-8-1-1h-3l1 1 1 3c0 3 0 3 1 2v-1l1 4 2 3c0 1 0 0 0 0l1-1v1l1 3 2 6c0 3 1 4 1 2l1-2v2l1 2 1 1a1113 1113 0 0 1-2 2c-1-1-1 0-1 1l-1 1v-2c0-2 0-3-1-1 0 2 0 2 0 0l1-2-1-2a325 325 0 0 1-2 19l1 4h1l-1-1v-2l1-1 1 2v3l1 1 2-3s0-1 0 0v1l-1 2 2 1h1v-1zm-4-6-1-2c-1 1-1 1 0 0a119 119 0 0 0 2-9v-1 9l-1 5v-2zm-3-2 1-1v1l-1 1v-1zm1-3v-3l1-2v3l-1 3v-1zm0-7v-1 3-2zm16-13v-1c1-1 1 0 1 1h-1zM50 87h-2l1 1 1-1zm-6 0-1-1h-1l2 1zm-25-2h-1l1 1c0 1 0 1 0 0v-1zm5 0-2-1-3-2h-2l-1 1v1h1v1-3l1 1 6 3v-1zm53 0v-1 2-1zm-5-2v-1l-2-1-1 1 1 1v1l2-1zm-27-1-7-9v3l3 3 4 4v-1zm-17 0 2-1-1-1-2 1-2 1h3zm4-1v-1l-1 1v1l1 1v-2zm-9 1-1-1-1 1h2zm-3-1-1-1v1h1zm2-2h-1l-1-1-7-1h-2v1l9 2c2 1 3 1 2-1zm63 1a903 903 0 0 1-12-37l-1 1 1 2 1 2v1l1 2 2 6v2l2 7 2 6v-3l1 2a136 136 0 0 0 3 9zM73 45v-1 1zM45 77v3-3zm38 1-1-2 1 2v1-1zm-58 0v-1l-2-1h-3v1l4 2 1-1zm35 0 1-1h-2l-1 2h1l1-1zm-17-1-2-9-1-2-2-1-1 2c0 1 0 1 0 0l1-1 1 1-2 3 2 3 3 3 1 1zm3-1v1-1zm13-2v-3l1-4v-3l1-1v1l1 4v1l1 1 1 2c-1 0 0 0 0 0h1l-1-5-1-3-2-2-3-1-1 4 1 10v2l1-3zm-13-2v-5l-1-3-1-3v1l-1 3 1 1v4l1 3c0 2 0 3 1 2v-3zm16 2v-3h-1l-2 2 1 2 2-1zm-30 0-1-1v1h1zm46-6-1-8-2-5a150 150 0 0 0 4 19l-1-6zm-1 2v2-2zm-59-1-1-1v1h1zm-2 0c0-1-1-2-3-2h-1l2 1 1 1h1zm12 0v-1 1c0 1 0 0 0 0zm48-5-1 1 1 2v-3zm-23 2c0-1 0-1 0 0zm-16-1v-3l-1-2 1 1 1 2 1 1v-3l-3-2-1 2v4l1 1 1-1zm11-2-1-4-2-1v1l1 2v4h1l1-2zm17 1v-1l-1 1v1l1-1zm-35 0v-3l-1-3h-2l-3-2-3-1h-1l-2 1h-2l5 4 1 1 3 1h4v2h1zm-6-5-1-1c1-1 2 1 2 1h-1zm10 3-1-3c0-1 0-1 0 0v1l-1-2v-3l-1 3 1 3v1l1 1 1 1v-2zm39 0h-1l1 2v-2zm-30-1v-2h-1l-1 1 1 2 1 2v-3zm-23 1v-1l-1 1h1zm29-3-2-5 1 3 1 4v-2zm26 0v-1l-1 1 1 2v-2zm-16 1-1-1v1c0 1 0 0 0 0h1zm12-1-2-4v3l1 2 1-1zm2-2v-1 3-2zm-38 1-1-1v1h1zm9-1h2l-1-1-1-1H33v1l2 1 7 1 2-1zm-14-2h-2l-3-1h-1l2 1c2 1 2 2 3 1l1-1zm41-3-1-3 1 5v1-3zm-43 1v-1l1 1 1 1v-2l-1-2-1-3-1-2h-1l-1 1 1 1 2 1h-1l-1 1-1-1-1-1h1v-1l-2-2h-1l1 5 1 2v1l1-1 2-1-1 1v2l1 1h1v-1zm12 0 1-3 1-2h-1c-1 0-2 1-2 3l-2 3h1l2-1zm3 0c-1-2-1-2-2-1v1l1 1h2zm-21 0v1-1zm14-1 2-3 1-2-3-2-2-1-2-1c0-1 0-2-1-1l-2 1h-1l1-1 2-1v-1l-4 2-3 1h-1v1h2l3 1h2v1l-1 1h3l1 2v1l-1-1-2-1-1 1 1 1c2 1 2 2 1 2v1h4c0 1 1 1 1-1zm-2-2 1-1 1 1h-2zm39 3c1 0 0 0 0 0zm-21-6v-2 7-5zm6 1-1 1h1v-1zm13-3-1-1 1 2 1 1-1-2zm-30 0v-1h-3 1v2l1 1 1-2zm28-2v1c0 1 0 1 0 0v-1zm7-2-1-2-1 1 1 3h1v-2zm-54 2-2-1 1 1h1zm13 0-1-1-1 1h2zm1-1-1-2h-1v2l2 1v-1zm12-1-1-1v1l1 2v-2zm20 0c-1-2-4-4-7-5l-2-1 1 1 6 4 3 2-1-1zm-9-1h-1l1 1h1l-1-1zm4 1-1-1v1h1zm7-1h-1l1 1h1l-1-1zm3-1-2-2-3-2-1-1v1l6 5v-1zm12-5-2-7c0-1 0-1 0 0v2s0 1 0 0l-1 2 1 2v7c1 1 2-4 2-6zm-36 4-1-1v1c0 1 0 0 0 0h1zm18-2-4-3a140 140 0 0 0-6-2l4 2 5 4 2 1-1-2zm-12 1h-1 1c1 0 0 0 0 0zm3-1h-1l1 1v-1zm-17 0-1-1v1h1zm8 0-2-1c-1 1 0 1 1 1h1zm2 0zm-5-1-4-2h-1l3 2h2zm9 0-2-1-3-1 2 1 2 1h1zm-22-1-1-1-1 1h2zm5 0h1l-2-1-2 1h3zm40-1h-1 1zm-1-3-1-1v3h1v-2zm-53 2h-1c-1 0 0 0 0 0v1l1-1zm5 0h-1c-1 0-1 0 0 0l1 1v-1zm29 0h-2 2zm-17 0-5-2-1 1h1l2 1h3zm23 0-5-3 3 2 3 1h-1zm-30 0-1-1v1h1zm46-1h-1l1 1v-1zm-53-1h-2l2 1v-1zm36-1v1-1zm9-1-1-2-1-1 1 1 1 3v1-2zm10 1h-1c-1 0 0 0 0 0v1l1-1zm-29 0h-1c-1 0 0 0 0 0h1zm21-1-1-1v1l1 1v-1zm2-3v-2l-1-1-1-1v1l1 2 1 3 1 2v-2l-1-2zm2 2v1-1zm2-1c0-1 0 0 0 0v1-1zm-19-1h-2 2zm17-2c-1-1-1-1 0 0v1c0 1 0 1 0 0v-1zm-7 0-1-1-1-1-2-1-2-2-3-1-1-1h2c0 1 1 0 0 0l-1-1h-2v1l1 1 1 1 2 1 3 2 3 2h1zm-14-1-4-1 2 1h2zm15 0-1-1 1 1zm1-4-1-1 1 2 1 1-1-2zm-13 1v-1h-2l-1-1 3 2zm9-1-4-2-1 1h2l2 1h1zm-2-3v-1 1zm-10-1-2-1h-3v1h2l3 1v-1zm-6-1-1-1v1h1zm192 287 1-1v2l-1-1zm-149-1v-1l2-1c2-3 8-8 8-6l-4 3-4 3-2 3v-1zm140 0c-1-1-2-1 0-1 0 0 2 0 1 1h-1zm20 0-1-1 1-1 3 1-1 1h-2zm-180-1v-3l1 1 1 1v1h-2zm140-1-1-1v-1c2 0 3 2 3 2h-2zm-122-1v-1l3-3 2-2-1 1-1 3-2 3-1-1zm-33-1 1-1v-1c0-1 0-1 0 0l-1 1 2-5 1 1-1 2v3h-2zm111 1v-1l-2-3v2l-2-1-1-4-1-2h6l1 2 1 4v3h-2zm-3-6h-1l1 1v-1zm-79 3v-1h1l-1 1c0 1 0 1 0 0zm60 0h1v1l-1-1zm-63 0v-1l2-2v-1l-2 1-3 1-2-1h2l3-1 2-1 1-1-1 4-2 2zm118 0v-1 1c-1 1 0 0 0 0zm-124-3v-1l1 1h-1zm2-2 1-1 2-1 1-1-4 4v-1zm10-1 1-1 2-3v-2l2-2 4-5 3-5c-1-1 0-2 1-4l2-3 1-2a36 36 0 0 0 6-12v-3l1 1 1-2 1-3 1-2 2-1-1 1-2 6h1l1-1-1 3v2h1l-1 1v1l-3 3-4 2v3l-1 1-3 7 1-2 2-3c1-1 1 0 1 1l-3 5a81 81 0 0 0-2 4l1-1h1l1-1 1-2v1l-1 1h1l-1 2-1 2-1 2-1 3h-1l-4 4-1 2 2-4 1-3 2-3-5 4c-5 7-7 8-8 8zm8-9 1-2-2 2-3 3v1h1l3-4zm6-2 1-3-1 2-2 2 1 1 1-2zm-2-3-1 1-1 1h1l1-2zm2-2v-1h-1l1 1zm-1-3 1-2h-1l-1 3h1v-1zm2 0h-1c-1 0 0 0 0 0v1l1-1zm10-17v-1l-1 1v1c0 1 0 1 0 0l1-1zm-2-4v1-1zm78 38-4-4h2l2 2 3 2h-3zm-156 0v-1h1v1h-1zm-13-1 1-1 1 1-1 1-1-1zm4 0v-1h1l1 1-1 1-1-1zm14 0 1-1v1h-1zm115 0-3-1h-2l-1-3 1-2 1-2-1-3v-4h1l1 1c-1 1-1 1 0 0l1-1v-1 2l-1 2 1 2 2 2v3l1 3 3 1 2-1v-2a110 110 0 0 0-2-7s1 2 2 4l2 5-2 2h-6zm-4-4-1-1 1 3v-2zm-109 4 1-1v1c0 1 0 0 0 0h-1zm105-1v-5l1-1v6l1 1-2-1zm-102 0v-1 1zm5 0v-2l1 1-1 1zm-4-1 1-1v2l-1-1zm2 0 1-1v2l-1-1zm4-1v-1 1c0 1 0 1 0 0zm2 0v-1l1-1 1 1-1 1h-1zm50 0 1-1-1 2v-1zm-81-1 1-1h1l-1 1h-1zm-4-1c-1-1 1-3 2-3h8l3-2 2 1-2 1-2 1h-1l-1 1h-2l-1-1-3 1-2 1-1 1v-1zm376-1-5-2a110 110 0 0 0-21-6h-1l-1-1h-3l-1-1h-3l-2-1h-2l-1-1h-3l-1 1v-1l1-1h-1l-7-1 1-1h4a75 75 0 0 0 7 2h1l4 1 3 1 4 1 11 3 4 1 5 2 3 1 4 1 3 1 1 2-4-1zm-343-1h-1l1-1 2 1 1 1h-1l-2-1zm66-1a15 15 0 0 1 3-5l1-1v1l-3 4-1 2v-1zm58-2-2-3-1-3 2 4 2 3-1-1zm1 0v-2h1c0 2 0 3-1 2zm-53-3 2-3c2 0 2 0 0 2l-2 2v-1zm33 0v-1 2-1zm119 1-1-1 1-1 1 1-1 1zm-18-1-1-1h2v1h-1zm11 0 1-1v1h-1zm-6 0 1-1c2 0 3 1 1 1h-2zm-88-2-1-3-1-3h-1l1 1v2l-1-1-1-3-1-4-1-3-1-1 2 1 1 2v3l2 2 3 8-1-1zm23 0a1 1 0 0 1 1 0h-1c-1 0 0 0 0 0zm-67-1 2-2 4-3 1-4h1l-3 7-4 2h-1zm152-1 1-1v1h-1c0 1 0 0 0 0zm36 0 1-1h2l1 1-2 1-2-1zm-164-2-1-3 1 2 1 3-1-2zm107 1h1l2 1-3-1zm10 1v-1l1 1h-1zm42-1h1l-1 1v-1zm27 0h2-2zm4 0v-1l1 1h-1zm-54 0 1-1h1l-2 1zm56-1h1s1 0 0 0v1l-1-1zm-124-1v-2l1 2-1 1v-1zm35 1h1-1zm18 0v-1l1 1c0 1 0 0 0 0h-1zm48-1h2l-1 1-1-1zm-116 0 1-1v2l-1-1zm3 0 1-1 1 1-1 1-1-1zm118 0h1-1c0 1 0 0 0 0zm-130-1 1-2 3-2 1 1-1 1-2 1v1l-1 1-1-1zm70 1-1-1 3 1h-2zm-158-1c0-1 1-2 2-1l-1 2-1-1zm150 0h1l-1 1v-1zm50 0h1v1l-1-1zm28 0a61 61 0 0 1-9-2l-1-1h4l2 1h3l5 2h-4zm-60 0v-1l1 1h-1c-1 0 0 0 0 0zm7 0v-1l1 1h-1c-1 0 0 0 0 0zm4-1h1v1c1 0 0 0 0 0l-1-1zm8 1v-1 1zm31-1h1l-1 1v-1zm-72 0v-1l1 1h-1zm14 0h1-1zm-87-2-1-8h1a93 93 0 0 0 1 10l-1-2zm140 2 1-1v1c0 1 0 0 0 0h-1zm-85-1v-1h1v1h-1zm51 0 1-1v1h-1c-1 0 0 0 0 0zm27 0 2-1v1h-2zm-104-1 1-1v2l-1-1zm38 0h1-1zm18 0 1-1v1h-1zm4 0-1-1v-1h2v1l-1 1v1-1zm3 0h1l-1 1v-1zm-29 0h1c1 0 0 0 0 0h-1c-1 0 0 0 0 0zm7 0v-1h1l-1 1zm12 0 1-3v2c0 1 0 2-1 1zm58 0a125 125 0 0 1-10-3h1a1250 1250 0 0 0 9 3zm-68-1v-1l2 1 1 1h-1l-2-1zm6 0h2l-1 1h-1v-1zm23 0h2l-1 1-1-1zm15 0 1-1v2l-1-1zm-133-1-1-3-2-1-1-1-2-1-3-2-2-2c0-1 1-1 3 1l2 2-2-3-2-4 1 2 2 3 4 2 1 1h-2l2 1 2 3 1 1 1 2-2-1zm25 0v1-1zm33 0 2-1-1 2-1-1zm56 0h1v1l-1-1zm-223 0 1-1v2l-1-1zm148 0 1-1 1 1-1 1-1-1zm-136 0v-2l1 1-1 1zm176-1-1-1h1l2 1h-2zm14 0h2l-1 1-1-1zm45 1-3-1 5-1h4c1 1 0 2-1 2h-5zm-28-1 1-1v1c0 1 0 0 0 0h-1zm11 0-2-1-5-1 2-1h1l2 1h5l1 1 1 1h-5zm7 0-1-1 5-1 1 1v1h-5zm-275 0v-1l1-1h3l-3 2h-1zm77-1 1-1 5-9 1-6 1-4-2-7 1-1 1-1-1-8v-4l1 1h1v-2l1-3 1-2v1l1 3v-4a657 657 0 0 0 2 2v-3l1-3 1-1v7l1 1v1l-1 4-1 5v1l1-1h1l-1 2-1 2v2l-1-1v-1l-1 7-1 2-1 1a933 933 0 0 0-2 9l-4 5-1 3-3 4-1-1zm8-11c2-3 2-5 2-7v-2l-1 5-1 2-1 3-1 1v1l2-3zm4-15v-1l-2 5 1-1 1-3zm-1-10h-1c0 2 1 2 1 0zm-3-2c0-1 0-1 0 0zm2 0v-1l-1 1h1c1 0 0 0 0 0zm4-4v2-2zm-3 1h-1l1 1v-1zm158 42-2-1h4v1h-2zm-114-2-1-1h1l1 2-1-1zm43 1 1-1v2l-1-1zm75-1c-1-2-1-2 2-2l4 1-3 1h-3zm-257 0-3-1v-3l1 2 3 1 1 1h-2zm185 0h1l-1 1v-1zm80 0h2-2zm-249 0-2-1h2l1-1v2h-1zm187 0-2-2v-1l1 1 2 1h2l-1 1h-2zm34 0-1-1h-2l2-1h2c1 0 1 0 0 0l-1 2zm3-1v-1h3l-2 2-1-1zm-235 1v-2l-1-1h-4 1v-1l1-1v-1h1l1-1 1-3 1-3 2-2h1v3-1l1-1v1h1l-2 2-1 4-1 2h-1l1 1h4v2h-2l-2 1-2 1zm2-2 2-1h1l-2-1c-2 0-2 1-2 2v1l1-1zm-2-2v-1h-2l1 1h1zm2-8h-1 1zm214 12c-1-1 0-3 1-4s2 0 1 1v1l-1 1-1 1zm23-1 3-1-2 1h-1zm6 0 1-1 2 1h-3zm-237-1 1-1-1 2v-1zm6 0h2l-1 1-1-1zm160 1v-1h2l1 1h-3zm51 0v-1h1l-1 1zm-180-1v-1h4v1h-4zm14-1h1v1l-1-1zm-77 0-1-1h2l1 1H1zm200 0 1-1v1h-1zm28 0v-1l1 1h-1c-1 0 0 0 0 0zm20-1-1-1h-5l3-1 3 1h2v1l-1 1-1-1zm-215 0c-2 0-2-1-1-1l3 2-2-1zm41 0h1l-1 1v-1zm123 0 1-2h2v1l-2 1h-1zm19 0v-1l1 1h-1zm24-1-1-1h-2 2l2 1-1 1v-1zm-160 0 1-1 2-1s1 0 0 0l-1 1-1 1v1l-1-1zm26 0 1-3h1l-1 2-1 2v-1zm-40 0 4-1h2l1-1 2 1h-3l-3 1h-3zm158-1v-2l3-1h1l-1 1 1 1c2 0 2 1 0 1l-2-1h-1v2l-1-1zm-3 0 1-1v-1 2l-1 1v-1zm13 0 1-2 1-1v-1l1 1-3 3zm-25-1v-2l1 1-1 2v-1zm-11 0 2-2-1 1-1 1zm4-1v-1h1v1h1-2zm13-1-1-1 2-2h2l1 1c-2 0-3 1-3 2v1l-1-1zm14 0v-2 2zm-24 0v-1l1-1 1-1v2l-1 1h-1zm-26-3-1-3c1-1 1 0 1 2l1 3v1l-1-3zm45 2h-1l-2-1 1-1 2-1-1 1 1 1 2 1h-2zm8-1-1-1h1l1 1v1l-1-1zm-155 0 1-1v-1h-2l-2 1-1-1-1-1-1 1c-1 2-2 2-2 1v-1l-1 1-1 1 1-4h1l2 1h5l-2-2-1-2v-1l2 2 3 3 1 2v1h1-3zm113 0h2l-1 1-1-1zm37 0v-1l1 1h-1zm-170-1 1-2c0-2 1-2 2-2h1l-1 2-1 1-2 1v1-1zm2-2h-1l1 1v-1zm59 3v-1h1l-1 1zm-38-1v-2l-1-3c0-2 0-2-1-1v2l-1-2 1-2 2-1-1-1-1-1 1 1 2 1v1l-1 2 1 6h-1zm101-2c-2-4-4-9-6-10l-2-5-1-5 1 1 2 8h1v-1l2 4 4 10-1-2zm11 1v-1h2c1 0 1 0 0 0l-2 1v1-1zm-139 0 3-2-1 1-1 1h-1zm172 0 1-1v1h-1zm5 0-1-1h-1l1-1 1 3v-1zm-166 0v-1h1l-1 1zm134 0 2-2v2h-2zm5 0v-2l1-2h2l-1 1c-1 0-2 1 0 1v1l-1 1h-1zm-152-1c0-1 2-3 4-3h3l-1 1-5 2v1l-1-1zm97 0v-3c1-1 1 0 1 1l1 1c1 2 0 2-2 1zm60 0v-1c1-1 1 0 1 1h-1zm-145-1v-1l2-1 1 1v1h-1l-1-1-1 1v1-1zm161 0h1l1 1-2-1zm-10-1 1-2v2h-1zm3 0v1-1zm-131 0s1-2 2-1v1h-2s0 1 0 0zm109 0 2-1-1 1h-1zm14 0v-2l1 2h-1zm10 0v-2h1v2h-1zm3-1v-1l1 1-1 1v-1zm-81 0-1-1h1v1zm70-1v-1 2-1zm5 1v-1l1 1h-1zm-152-1 1-1v1h-1zm3-1v-1h1v2l-1-1zm16 0h3v1h-2l-1-1zm32 0v1-1zm74 0-1-1h-1c0 1 0 1 0 0l1-1 2 2h-1zM7 236c0-1 1-2 2-1v1H7zm35 0v-1l1 1h-1c-1 0 0 0 0 0zm151-1h1l-1 1v-1zm14-1 1-3 1 1 1 2c1 1 0 2-1 2h-2v-2zm-161 1h-1l-2-1c-2-1-2-2-1-2l1 1h3l1 1c0 1 0 2-1 1zm167 0v-1l2 1h-2zm-188 0v-1l1 1h-1zm160 0v-1 1zm16 0-1-1v-2h1c1 0 0 0 0 0v2l1 1h-1zm-114-1h2-2zm115-1v-1h1v1l1 1-2-1zm-187 0h1v1c-1 0-2 0-1-1zm-3-1-1-1 1-1c1 0 2 1 1 2h-1zm32 0zm141-1h2v1l-2-1zm-144-1h2l-1 1-1-1zm-36 0 1-1h2-1l-1 1H5zm61-2 1-4v-4l1-8a76 76 0 0 1-2 18v-2zm117 2 1-1-1 1zm-129-1h1l1-1 1 1-2 1-1-1zm28 0 2-2 2 1 1 1h-1l-1-1-2 1-1 1v-1zm-37 0-2-1h-1c-1-1-1-1 1-1l2 1v1zm126 0-2-5-1-6v1a53 53 0 0 0 4 10h-1zm-95-1 2-2-1 3-1-1zm76 0-2-7 1 2 1 3 1 2v1l-1-1zm77 0h-5a139 139 0 0 1-16-1c-1-1 0-1 2-1a327 327 0 0 0 43-1l11-1a118 118 0 0 1 15-2l8-1a1045 1045 0 0 1 51-1l20-3c9-2 11-3 17-3l19 2a448 448 0 0 0-2 2h-1l-3-2-11-1-14 1a211 211 0 0 1-55 6 432 432 0 0 0-79 6zm-215 0 1-1 1 1h-2zm3-1v-2h2v2l-1 1-1-1zm62 0h1v1l-1-1zm88-1-1-4v-1l1 1 1 2v3l-1-1zM8 226l1-2 1-1 4-1 3-1c0-1 0-2 1-1l-1 3h-2l-4 1-1 1-2 1c0 1 0 1 0 0zm78 0 1-1v1c1 0 0 0 0 0h-1zm18-2v-4l1 2v4l-1-2zm-19 0h2-2zm79-5 1-2v2h-1zm-8 0-1-3-1-4-1-4c0-2 0-3 1-2v2l1 2 1 5a173 173 0 0 1 1 4h-1zm4-2a106 106 0 0 1-1-5l1 3 1 3-1-1zm-25-3c0-1 0-2 1-1v2l-1-1zm-81-7v-28l1-4 1-1v2l-1 25v13l-1-7zm0-16-1 1 1 2v-3zm41 22 1-7v7h-1zm39-3 1-4v2l-1 2zm129 0v-1h1v1h-1zm7 0 1-2v-1l1-1 1 1-1 1-1 1v1h-1zm-146-1v-1 1zm154 0-1-1 1-1 1 1h1l1 1h-3zm-211-3zm98 0-1-3 1-1 1 1v-2l1 3v3l-1 1-1-2zm102 2 1-2 1-2 3 1h-2l-2 1-1 2zm-5-1v-1h2v-1 2h-2zm16 0-2-1h-1l1-1 2 1 1 1h-1zm-153-2a99 99 0 0 0 2-8v6l-1 3-1-1zm160 0h-5l2-1h3l1 1h-1zm-7-1-5-1-3-1-2-2h1l1 1 3 1h4l2 1 1 1h-2zm-163-1v-1 1zm-103-1 1-1-1 1zm8 0v-1l2 1h-2zm114 0 1-2 1-1-1 3h-1zm168 0-2-2-1-1h-2l-1-1h1c1-1 3 0 4 1l2 1 2 2h-3zm-7-1 2-1c2 0 2 0 1 1h-3zm12 0 1-1 1 1c0 1 0 0 0 0l-2 1v-1zm-15-2-1-3 2 2v2l-1-1zm-129-2v-1l1 1-1 2v-2zm107 1h1v1l-1-1zm-111-3-1-3 1 1 1 5-1-3zm146 3 1-1h1v1h-2zm6 0 2-1h2l-3 1h-1zm-167-4 1-1v1h-1zm166 0 2-1-1 1h-1zm4 0 1-1v1h-1zm-181-1v-1 2-1zm-24 0 1-2 1-8a176 176 0 0 1 1-10v9l-2 11h-1zm54 0v-2l-1-4v-5l1 5 1 5-1 1zm2 0v-1l-1-4v-3l1 1v1l1 3v3h-1zm145-2 1-3 1-2v5l1-2 2-1-1 2a8 8 0 0 1-4 3v-2zm-172 0 1-2v3l-1-1zm-23 0v-11l1-5v8l1-2v-1l1 1-2 5v3l-1 2zm189 0c-1-1 0-1 1-1l-1 1zm3-2-1-1-1-2 2 1 1 2v1l-1-1zM9 189l1-1v1H9zm145-1v-2l1 2c0 2-1 2-1 0zm-136 0h1l-1 1v-1zm252 0 2-1 2-2v-2h-1l1-1v1h3l2-1h-3l2-1h1l-1-1h-1l-1-1v-1 1l-1 1c-1 2-2 2-2 1l1-1 1-2-1-1h-1l1-1h2l-1-1v-1c1-1 2 0 2 1l1 1h-2l3 1v1l-1 1 2 1h3l2-2v-1l1 1-1 2c-1 1-2 2-3 1l-2 1c-1 1-1 2-3 2h-2v2l-2 2-3 1v-1zm22-2h4l-2 1c-2 0-3 0-2-1zm-239-4a104 104 0 0 0 0-4v7-3zm259 2s0-1 0 0h1l-1 1v-1zm-28-1 1-1v2l-1-1zm12 1 1-1 1 1h-2zm7 0v-1l1 1h-1zm7-1v-2l1-1v3h-1zm-188 0c-1-1 0-6 1-6v2l-1 4zm183-1h1l2-3 2-2v1l-1 2-3 3-1-1zm-292 0-1-1 3 1h-2zm152 0v-7l1 3-1 4zm-152-3h4l-3 1-1-1zm291 1 2-2-1 1-1 1zm-167-1 1-2v2h-1zm130 0h2-2zm44 0h1-1zm-202-3a270 270 0 0 0 2-11v10l-1 1v3l-1-3zm-93 1-1-2 2 2 1 1-1 1-1-2zm272 0c-1-2-1-3 1-1v2l-1-1zm18 0 1-1v1h-1zm-26 0 3-2v1l-3 1zm23-1v-1l1 1-1 1v-1zm13 0v-1h2l2-1-3 2h-1zm-154 0-1-1v-4l1 2 1 3h-1s-1 0 0 0zm68-1v-1l1 1v1l-1-1zm2 0-1-1v-1h1l1 1 1 1h1l-2 1-1-1zm11 0 2-1h1l-1 1h-2zm3-1-1-2h2v3h-1v-1zm34 0 1-1 1 1-1 1-1-1zm-157-1a147 147 0 0 0 2-13v11l-1 2v2l-1-2zm97 1h1v1l-1-1zm6 1v-1h2v1h-2zm83-1 2-1v1h-2zm-90 0v-1 1zm21 0 1-1v1c0 1 0 0 0 0h-1zm-123-1v-3l1 2v2l-1-1zm32 0 1-2v2h-1zm86-1v-2l1 2-1 2v-2zm32 1 1-2v2h-1zm38 0c-1 0-1 0 0 0l1-2h1v2l-1 1-1-1zm-49-1-1-1 2 1c2 1 1 2-1 0zm60 1 1-1v1h-1c-1 0 0 0 0 0zm-152-1v-3l1 2c0 2-1 2-1 1zm156 0 4-1c1 0 1 1-1 1h-3zm-57 0-2-1c-1 0-1-1 1-1l1-2 1-2h1l2-2v1l-1 1c1 1 0 1-1 2v2c0 1 0 1 0 0h-2v1h2l1 1h-3zm-32-1-1-2v-3l1 2v4-1zm-176-1v-2h-1v1-3l2-2 2-2v-3l1-2 1-1-1 9-2 3-1 2-1 1v-1zm3-4 1-3-1-1-3 5c1 1 2 0 3-1zm220 5 1-1 1 1h-2zm21 0 1-1c0-1 0-1 0 0v1h-1zm19-1h1v1l-1-1zm-164 0v-6l1-1v8l-1-1zm69 0h1c1 0 0 0 0 0v1l-1-1zm43 0h1c1 0 0 0 0 0v1l-1-1zm2 0 2-1c1 0 2 0 2-2l2-1-1 2-1 2h-4zm40 0 3-3c1 0 1 1-1 2l-1 2-1-1zm-91-1v-1l2 2-2-1zm64 1v-1h1l4-3 1 1h2l-1 1h-2l-2 1-3 1zm30 0 4-2v1l-1 1h-3zm-36-1 2-1h1l-1 1h-2zm-131-1-1-3 1-1 1 2v3l-1-1zm115 0-1-1v-4l-1-1h2l1 2 1 3v1h-2zm9 0v-1l1 1h-1zm-45 0h1-1zm2 0 1-1 3 1h-4zm80 0 1-1 2 1h-3zm-59-1v-4l1 2 1 1v2h-1l-1-1zm-115 0 1-3v1c0 2 0 3-1 2zm18 0v-1h1v1l-1 1v-1zm89 0v-1c-1-1 1-2 2-2v2l-2 2v-1zm-5-1 2-1 2 2h-2c0-1 0-1 0 0h-1l-1-1zm18 0v-1h1v1h-1zm28 0 1-1h1v1h1l-2 1-1-1zm-154-2 1-4v6l-1-2zm100 2v-2l1 1v1h-1zm29-1v-1l1 1-1 1v-1zm14 1v-1 1c0 1 0 0 0 0zm6-1v-2l1 1v1h-1zm-5-1v-2 1h2l2 1-2 1-2-1zm-142-3 1-4v-6l1-5a42 42 0 0 1-1 17l-1 1v-3zm40 2v-1 2-1zm76 0v-1l1 1-1 1v-1zm9 0v-1l2 1h-2zm9-1h1l-1 1v-1zm-140 0v-3l-1-1 2-3v3c0 3 0 5-1 4zm33 0v-1l1 1h-1zm-39-4 1-6v-2 11l-1-3zm232 2c-1-1-1-1 1-1l3 1h-4zm-11-1 1-2v1l-1 1zm12-2-1-3 1 1 1 2h-1zm-239-2v-6l-1-8a215 215 0 0 1 2 10c0 6-1 8-1 4zm53 1v-6l1 4v3l-1-1zm153 0v-1h1v2l-1-1zm39 0-2-1-2-2h1l2 1 2 2h-1zm-234-1-1-2v-5a31 31 0 0 1-1-11l1 8 1 2 1 3-1 5zm0-3v1-1zm46 3v-2 3-1zm166 0v-1l-1-1-2-1h2l2 2h1l2 1-3 1-1-1zm46-1-1-1 2 1v1l-1-1zm-251-1-1-8v-2l1-1h1l-1 1v1l1 10h-1v-1zm212-1-2-2v-2l1 2 2 1 2 1-1 1-2-1zm-214-2v-3l1 2-1 3v-2zm257 1c-2 0-2-1-1-1h2l1 1 1 1h-1l-2-1zm-270 0h1l-1 1v-1zm179 0 1-2v-3l1 1v2l-1 2v1l-1-1zm-271 0-1-2 1-2c1-1 1 0 0 0v5-1zm133 0a81 81 0 0 1 1-17v17h-1zm5-1 1-1v2l-1-1zm140 0v-1h2l3-1 2-1-1 1-1 1c2 0 1 1-1 1l-3 1-1-1zm-175-1v-2l-1-3v-2h1v2l1 4v2l-1-1zm190 0h1l-1 1v-1zm35 0h4-4zm-182-4v-4h1a286 286 0 0 1-1 4zm119 3-1-1h-1l-1-1 4 1 1 1v1l-2-1zm101 0h2l-1 1-1-1zm-7 0h-3l-1-1h1l1-1 1 1h2l2 1h-3zm-218 0a22 22 0 0 1 1-8v8h-1zm229-1h-2c-2-1-2-2-1-2l2 1h4c2 0 2 1 2 2l-5-1zm-42 0h-9l-1-1h8l-1-1v-2l1 1 2 2 2 1h-2zm-327-1 1-1v1h-1zm-7-1 1-1 1-1v1l-1 2-1-1zm357 0-2-1-3-1h-5l-2-1h2c2-1 8 0 9 1l3 1c1 0 2 1 0 1h-2zm-256-1a190 190 0 0 0-2-6l1 1v-3l-1-4 1-1 1 10v3zm2-1-1-3-1-11v-3l1 3 1 15v-1zm260 1 3-1 6 1h-9zm-123-1 1-1h1l-2 2v-1zm-143-1v-4l-1-6-1-4h1a64 64 0 0 1 2 15l-1-1zm225-1-1-2h1l1 2v1l-1-1zm20 0-4-1h-2l3-1 2-1v-1l2 2 3 1 2-1 1 1h-1l-3 1h-3zm30 0v-1l1 1h-1zm-375-1 1-1v1l-1 1v-1zm110 0v-2l-2-9a1064 1064 0 0 0 2 11zm2-1-1-9a1050 1050 0 0 1 1 9zm261 0-10-1h-3l9-1 4 1 2 1v1l-2-1zm-225-1v-2 3-1zm-34-1a31 31 0 0 1 0-8l1 3v6l-1-1zm3 0v-10c1-3 1-2 1 1v6l-1 4v-1zm119-1h1l-1 1v-1zm115 0h2-2zm-6-1h-1 4l-2 1-1-1zm-226-2v-2l1 2-1 2v-2zm258-3-1-1v-2l2 2 1 1-1 1-1-1zm-11-1h4l-2 1-2-1zm-253-1-1-4 1-3 1 5c0 3-1 4-1 2zm1-1v-3l1-3-1-6a120 120 0 0 0-2-12h1l1 3v3l1-2 1-4 1-3-2-8-1-3 1 2 1 1 1-10v-5h1s0 1 0 0l-1-8-1-1v2l1 3v2a339 339 0 0 0-6-19v-5l1 2 2 6v-7l1 1 1 2-2-8-1-2-2-3-1-2-2-4-1-4-1-5h-1v2-1l-1-3-2-3-1-2h-1v2l-2-3-5-13 5 8c0 3 1 4 2 3l2 4 3 4-1-2-2-5-3-5-1-3-1-2 3 4 2 5 2 3a177 177 0 0 0 7 14l1 2c1 1 2 1 2 3l3 9v3l1 2v2-2l2-2 2-1 2-2 1-3 1-3v-2c-1-1-1-1 2-9l1-2 2-5v-3l1-2 1-1v-2l1-2 2-1v2l1 1c-1 1 0 1 0 0h2l-1 1-3 9-1 3 1 1 1-3 1-4 1-3v2l1 2c0-1 0-1 0 0l-1 2v4l-1 3 1 1 1-5 2-5-3 11v3l-1 3-1 3-2 9a301 301 0 0 0-5 15h-1 1l-1 3-2 16-1 5v2l-1 4-1 3v2l-3 9-1 2-1 3-2 6-1 4h-1zm2-8-1-1v1c0 2 0 2 1 0zm-1-5v-1l-1 1 1 1v1-2zm1-4v-3 6-3zm4 0v-3l-1 4c-1 3 0 2 1-1zm-2-5-1 5c0 2 0 1 1-1v-4zm1 1v1s0 1 0 0v-1zm3-6 1-3 1-3 1-4v-3h-1v1l-1 2-2 12-1 4 1-2 1-4zm-3 4c0-1 0-1 0 0v1-1zm1-3-1-1v2l1-1zm1-6c0-1 0-1 0 0v1-1zm-4-1v-2l-1 2 1 2v-2zm1-7-1 1h1v-1zm7-4 1-6-2 6v4l1-4zm-7-3v2-2zm3 2v-1l-1 2h1v-1zm4-5-1-1v1h1zm-5-1h-1l1 1v-1zm0-4-1-2v4c1 1 1 0 1-2zm7-1v1c0 1 0 0 0 0v-1zm-9-8-1-5-1-1-1 2v1l1 3 1 3v1l1-4zm2 3-1-7-1-1 1 3v5h1zm10-1v-2l1-2 2-8v1l-1 1 1-4v-2l1-10v-4l-2 2v2l1 1-1 2h1v4l-1 2-2 7-1 8v3l1-1zm0-6 1-2h1l-1 2-1 1v-1zm1 5h-1v1l1-1zm-8-3 1-6-1-1-1 5-1 3v1l2-2zm-2-3-1 1h1v-1zm8-2v-3c0-2 0-2 0 0l-1 5 1-2zm-12 0c0-1-1 0 0 0 0 1 0 1 0 0zm6-2 1-2c0-2-1-1-2 1l-1 3 2-2zm4 0-1-1c0 1 0 2 1 1zm-10-2v1-1zm14-1h-1v1c0 1 0 1 0 0l1-1zm4-5 2-10-1-3-1 5v4l-1 4v6l1-6zm-5 4-1 1h1v-1zm-16-7-2-4v2a221 221 0 0 1 2 2zm17-1v-2 1l-1 2v1l1-2zm-4 0c0-1 0-1 0 0v2-2zm2-2v-1 2-1zm-19-2-1-2-1-1v1l2 3 1 1-1-2zm2 0h-1c-1 0 0 0 0 0l1 1v-1zm18-2v-1l-1 2h1v-1zm3-2h-1v1l1-1zm-24-1-1-1 1 1v1-1zm26-1v-1 1l-1 1 1 1v-2zm2-3-1 1h1v-1zm-2-11c0-1 0-1 0 0v1-1zm-39 107a22 22 0 0 1 0-6l1 6h-1zm24-2v-1 1c-1 2-2 2-1 0v-2h1l3-11 2-7v3a116 116 0 0 0-4 19l-1-2zm26 1 1-4 1 2-1 2h-1zm222 0 3-1c2-1 5 0 5 1h-8zm10-1h-1l-2-1v-2l1 1 3 1h2l-1 1-2 1v-1zm7 0-2-1 2-1h3l1 1-4 1zm-288 0-1-3v-6 1l1 3 1 4-1 1zm56-3 1-7 2-3 1 1-2 3v4c0 3-1 4-2 2zm-42-2a129 129 0 0 1-3-13l2 5 1 2v-7l1 1v13l-1-1zm24 0 1-2 1-2h1l-1 2-1 2h-1zm-43-1-1-3-3-9v-2c1 1 3 5 3 8l1 5v1c0 1 0 1 0 0zm7-3-1-1 1-2v3zm40-1 1-2v2l-1 2v-2zm-7 0 1-1h1l-1 2-1-1zm261 1-4-2v-1l5 1 1 2h-2zm-24-1-3-2c-1 1-3 0-3-1h5l-3-1-5 1-1-1 3-1h1l1-1v1h3l2 1v3h6l3 1h-9zM4 113v-1l2-1 3-1 2 1H7l-1 1-2 1zm144-2v-3c1-2 0-2-1-1l-1 1-1-1v-4l1-2 1-1v-3c-1 1-1 0-1-1l1-1v-1l2-3 3-3c1-1 2-2 3-1l1 1 1-2 1-1v1c-1 1 0 2 1 2l3 5v5l-1 6-1 5v-4l-1-1c1 0 1 0 0 0v1l-2 5v-3 1h-1l-2 1-1 1v-3l-1 1h-1l-2 2v3l-1-2zm9-5-1-1v1h1zm0-3 2-3 1-1 1-2v-1h-1l-1 1-1 2h-2c0 1 0 1 0 0l1-3v-2l1-1 1 1 1 1v-4c0-2-1-3-2-2h-3l-3 1-1 2-1 2-1 3v3l1 2 1 2 3 1c2 0 2 0 3-2zm-4 0h2l-1 1-1-1zm-1-4v-3 1l1 2 1 1-2-1zm-2-1v-3 3zm4-1-1-1 1-2v2h1c0-1 0-1 0 0v2l-1-1zm-2-3-1-1 3-3h2v1c-2 0-3 1-3 2-1 0 0 0 0 0l1-1 1 1-1 1h-2zm7 9v-2l-2 2 1 1 1-1zm-11 0h-1v1l1-1zm1-1v-1 1c0 1 0 0 0 0zm9-6 1-2-1 1v2-1zm214 16h2l-1 1-1-1zm-348-2h1c1 0 0 0 0 0h-1zm262 0 1-1v1h-1zm-179-3-2-6-2-6v-1l1 2 1 4 3 8v1l-1-2zm283 1-2-1h-10v-1h4l4-1h3l2 2v1h-1zm19 0-2-2h3l-1-1v-2l1 1 3 1h1c1 1 0 2-1 2h-2l-1 1h-1zm-125-2 2-1 2 1h-1l-2 1h-1v-1zm108 0v-1h2l3-1 2 1-2 1h-5zM8 105h2v-1l-4-2h3l2 1 3 1-1 1h-2l-3 1H7zm5-1h-2l1 1 1-1zm127-1v-5l1-3v-1l-1-1v1h-1l1-3 1-3v3l1-4v-5l3-9a56 56 0 0 1 1-9v-2l1 5-1 6-1 2v2l-1 6-1 6v2l1-1 1-1v1l-1 5c-1 5-1 7-2 6l-1 1v3l-1-2zm2-4v-1 1zm1-6h-1v2c0 1 0 1 0 0l1-2zm0-9v1-1zm0-2v1-1zm144 22h2l-1 1-1-1zm-121 0a278 278 0 0 1 3-17l1-2v1l-2 10v4c0 3 0 4-1 3v-1c1 0 0 0 0 0v1l-1 1c-1 0 0 0 0 0zm-29-2 1-3v3h-1zm149-1h-2l3-1 3 1-2 1-2-1zm-163-2v-4l1 2 1 3-1 1-1-2zm173-1h1a1 1 0 0 1-1 0zm117 0v-2l3 3h-1l-2-1zm-293 1a183 183 0 0 0-3-10c0-2 1-2 1 0l2 6 1 3v1h-1zm287-1-3-4v-1l2 2 1 2 1 1h-1zM11 97v-1l1 1h1l-1 1-1-1zm95-3 1-4v7l-1-3zm290 3-3-1h-3l7-1 1 1-2 1zm-101-2v-1 2-1zm28 0v-2l1-1 1-1c1 0 1 1-1 3l-1 1zm-5-1 3-2-3 3v-1zm-180 0v-2c0-2 0-2 0 0v2zm155-1-1-2 3 2h-2zm103 1v-1l5-1c1 1-1 1-4 2h-1zm-90-2-2-1h-2l-3-1c-1 0-2 0-1-1h2l2 1v-2l2 2 1 1 5 1h-4zm-195-2zm264 1 1-2 4-3 4-1 2-1h1l-1 1-1 1 3-1h2l-4 2h-5l-4 2-2 2zm9 0v-1c1 0 0 0 0 0h-1 4l3-1h1v-1l2-1h2l2-1-1 1-2 1-2 1c2 0 0 1-2 2h-6zm10 0 1-1h4l3-1 2-1-1 1-4 2h-5zm-81-1c0-1 0 0 0 0 0 1 0 1 0 0zm-191-1v-3l2 3-1 1-1-1zm24 0a106 106 0 0 1 3-9v1a79 79 0 0 0-2 8h-1zm194 0v-1l-1-1h1v-1c0-1 1-3 2-2l-1 2 1 2h1l-1 1-2 1v-1zM38 89l-1-2h1v2zm51-4c-2-4-3-9-2-9l-1-3v-3l-3-5-2-7 1 1 2 4 2 6a210 210 0 0 0 3 10l1 6 1 3-2-3zm217 3c0-2 3-4 4-2h1l2-2 2-1-3 4h-4l-1 1v1l-1-1zm20 0h2l-1 1-1-1zm82 0-1-1 1-1 2 1v1h-2zm-63-1 1-2 2-3 1-2v2l-2 4-2 1zM97 86l-1-2 1 1v2-1zm52 1v-1l1-1 1-1-1 3h-1zm167-1v1-1zm-176-1 1-2v1l-1 2v-1zm210 1 3-3-1 1-1 2h-1zm48 0 3-1h2l-2 1h-3zm-34-1 1-2h-1l-1 1h-1l3-3 1-1h2v1h-1l-1 1 2 1h2l-2 1-3 1-1 1v-1zm-240 0v-6c0-1 0-1 0 0v7-1zm207-1v-2l1 3h-1v-1zm42 1 1-1 1-2 3-1 3 1h-3l-1 1c-1 0 0 0 0 0l1 1-4 1h-1zM36 84h1v1l-1-1zm266-1 1-1v2c-1 1-1 0-1-1zm56 1 1-1 1-3 2-3 1-1 1-1v1l-1 2-2 3-2 4-1-1zm33 0 3-1h2v1h-5zm-239-2a100 100 0 0 0 0-6l-1 1v2-3l1-5 3-12c1-1 1 0 1 2l-1 2h1v-1 2l-3 10h1c0-1 0-2 1-1l3-9v-1 1l-1 6-3 5-1 2-1 7v-2zm6 1v-3h1v4l-1-1zm185 0 1-1 1-2v1l-1 2h-1zM98 80l-2-5-4-11a107 107 0 0 1-1-4l1 4 3 6a454 454 0 0 0 5 11l1 2h-1l-2-3zm7 2v-1l-1-2-2-6-4-10-1-1v-1l-1-1-1-6v-3l1 2 3 10 1 3 2 4a189 189 0 0 1 4 13l-1-1zm34 0zm244 1 1-1c1 0 1 0 0 0l-1-1c1-1 4 0 4 1v1h-4zm-263-4-2-3v-4l2 4a101 101 0 0 1 1 6l-1-3zm5 1 1-3v5l-1-2zm216 1-1-1 1-1h1c0-1 1-2 2-1l-1 2-1 2-1-1zM95 81l-2-3-1-3-1-3v-2l2 4 2 5 1 2h-1zm274 0 3-1h2l-2 1h-3zm-203-1 1-4 1-3-2 7zm220-1 4-1h2l-4 1h-2zm-18-1v-1h2l-2 2v-1zm8 0 6-2-2 2h-4zm-4 0v-1l2-1h1l-1 1-2 1zm-214-3 1-2v4l-1-2zm142 1v-1l1 1h-1zm-62-1v-1l1 1h-1zm59 1v-1h1v1h-1zm79-1h1-1zm-236-2 1-3-1 4v-1zm111 0-1-1-4-3c-1 0 0-1 0 0h2l2 1 2 1v2l1 1-2-1zm-2-2v-1 1c0 1 0 1 0 0zm37 2v-1h4l2-1 2-1-1 2-2 1h-3l-1 1-1-1zm-112 0v-3c1-2 2-2 1 0v2l-1 2v-1zm60 0 1-1 2-2h2l-1 1c-2 0-2 1-1 1l-3 2v-1zm5 0 1-1 1-1v1l-1 1h-1zm40 0-1-1h-2c-4 1-5 1-5-2l-1-1h-1l1 1-1 1-1-1-1-1h-2l2-1 2-1 1-1-1-1h-2l2-1h4l2 1h-3l-1 1 1 2v2l1 1c1 1 4 0 6-1h4l2 1h-5v1h1l-2 1zm-22 0c-1-1 0-1 1-1h1l-2 1zm-135-1a221 221 0 0 0-2-11l1 3a7157 7157 0 0 1 1 8zM9 71l1-1v2l-1-1zm-3 0h1c1 0 0-1 0 0H6zm166 0 1-2 1-1-1 3h-1zm83-1 2-1h2l1 1h-5zm8 0v-1l1-3v-1l-1-1-1-2-1-1h1l1 1 2 2 1 2v1c-1 0-2 1-2 3v1l-1-1zm34 0v-1l1 1v1l-1-1zm8-1v-1h1v2l-1-1zm-145-1 1-3v-1l-1 1v-2l3-6 1-1v-1l-1 5a111 111 0 0 0-2 9l-1-1zm3-10-2 3 1-1 1-2zm91 11 1-1h1l-1 1h-1zm-148-1v-3l1 1c1 2 0 2-1 2zm206 0 1-1c2 0 2 0 1 1h-2zm-51-1v-1l2 1h-2zm-20 0 2-1h3l-1 1h-4zm60 0-1-1c1 0 3 0 2 1h-1zm-158-1 1-6a237 237 0 0 0 0 5l-1 2v-1zm31 1a172 172 0 0 1 2-11l1-1 2-4 1-1v2l-1 2-2 6-3 7zm112 0v-3h-1l2 1 1 1-2 1zm21-1 2-1c1 1-1 2-2 2v-1zm-49 0v-1l-2-1-1-1-1-2h2c1 2 1 2 4 2h2l-2 1-1 1-1 1zM5 65h2l1-1H5l-1-1h3l3 1-3 1H5zm81-1v-1l-2-3a156 156 0 0 1-4-10v1h1l1 2 4 8 1 4-1-1zm121 0 1-2h2l-2 1-1 1zm21 0 1-1v1h-1zm59 0v-1l2 1h-2zm8 0-2-1h1l4 1h-3zm-13-1h-1v-1h2l1 2-2-1zm-16-1v-1h1l1 1h2-4zm36 0-1-2h1l3 1-3 1zm4-1h2l-1 1-1-1zm-32-1-1-2 2 1c1 2 2 2 3 1v-1l1-1 2-1h3l-1 1h-1 1c1 0 1 1-1 2l-3 1h-2l-3-1zm15 1 3-1h1l1 1h-5zm-185-1a1 1 0 0 1 1 0 1 1 0 0 1-1 0zm212 0h2l-1 1-1-1zm-88 0h2-2zm-27-1 1-2 1-1v1l-1 2v1l-1-1zm87 1 1-1v1h-1c-1 0 0 0 0 0zm20 0c-1-1 0-1 2-1v1h-2zm-162-1 1-1 2-6 1-4v-1 6l-2 5v1l-1 1-1-1zm113 0-2-2 2 1h3l2-1h6l-1 1-2 1h-4l-2 1-2-1zm10-1v-1l-2 1h2zm-97 1c-1-1 1-8 2-10l2-2v2l-1 1-2 8-1 1zm-63-1v-3l1 3h-1zm165-1h-1l-2-1h1c1-1 4 0 4 1h-2zM87 57v-1h1v1h-1zm208 0v-1h3l3 1h-6zm-31-1h-3l1-1h2l1 1h-1zM12 55l-1-1v-2c-1-1-2-2-1-3l1 1 1 2c0 2 1 2 2 3h1-3zm192 1v-2h2l1 1h-1l-1 1h-1zm86 0 1-1h1l-1 1h-1zm18 0 2-1c2 0 1 1-1 1h-1zm-13-1 3-1-3 1zm6 0v-1 1zm-200-1v-3l2 1-1 3-1-1zm177 0 1-1v2l-1-1zm39 0 2-1 1 1-2 1-1-1zM10 54v-1 1zm198 0 1-1c2-1 2 0 1 1h-2zm75 0c-1-1-1-1 1-1l3-2h-2l-2-1v-1l1-1v-1h2v2l1 1h1v-1 2l-1 1-1 2h-3zm11-1h1v1l-1-1zM6 53l1-1h2l-2 1H6zm305 0 1-1h1l1-1h1l1-1 2 1-2 1h-2l-2 1h-1zm-46-1v-1l1 1v1l-1-1zm24 0 3-2-1 2-2 1v-1zm-166-1-1-3c1-1 1 0 2 1v3l-1-1zm84 0h2l1-1c0-1 0 0 0 0h1l-2 2-2-1zm39 1 1-1-1 1zm4 0 1-1 1 1h-2zm53 0 1-1-1 1zm-195-2v1-1zm104 1 1-1v1h-1zm37-1h1l-1 1v-1zm-48 0 2-5h4l2-1h1l-1 1-2 1h-3l-2 3-1 1zm27 0h-1 2-1zm-22 0v-2l2-1-1 2-1 1zm89 0 2-1c1 1 1 1-1 1h-1zm-54-1 1-1h1l-2 1zm49 0 1-1h3l-2 1h-2zm20 0v-1l1 1h-1c-1 0 0 0 0 0zM12 48v-3l2 1v1l-1 1-1 1v-1zm175-1-1-3 2 4c0 1-1 1-1-1zm101 1v-2l1 2v1l-1-1zM91 48v-3l-2-12-1-4 2 3 1 4 1 3 1 5v2l-1-1v-1 1l-1 3zm57 0v-2l1 1-1 1zm31 0 2-7 3-8c0-1 0-2 1-1l-1 3-5 13zm-25-1 1-3c0-3 1-4 1-2l-1 5h-1zm93-1s-1 0 0 0l-1-1v-1l2 1 1 1c0-1 0-1 0 0h-2zm-52-1h1l-1 1v-1zm15 0 2-1v1h-2zm32 0h3l-2 1-1-1zm8 0 1-1 1 1h-2zM83 44h1l-1 1v-1zm21-1-1-3-3-5-1-1-1-2-1-1v-1l2 2 2 3 2 4 2 4v2l-1-2zm78 1 2-5v2l-1 2v1h-1zm40 0v-1h1l-1 2v-1zm-106-2-1-3-3-6 5 7 1 2-1 2-1-2zm34 1 3-5v-1c1 0 1 1-1 3l-1 2c0 2-1 2-1 1zm-53-2zm109 2c-1-1 0-1 1-1h3l1-2h1v2l-2 1h-4zm73-1c0-1 4-5 6-5l2-2h2-1l-1 2-2 1v1l-1 1h-2l-1 1-1 1-1 1v-1zm-43-1 2-2 3-1-2 2-2 2c-1 1-2 1-1-1zm-59 0 1-2-1 3v-1zm98 0h-1l1-1h2v2l-2-1zm15 0h1l-1 1v-1zm-5 0 2-1v1h-2zm-90 0h1-1zm97 0 1-1v1h-1zm-95-1 2-1 4-1 3-2h2v-4l1-2v4l1 4 1 1h-2l-1-1-2-1-3 2-2 1h-4zm-41-1 1-3 1-2-1 4c0 2-1 2-1 1zm94 0v-2l1-1-1-1h-3l-3-1-1-1-1-1h3l8 2 3-1 1-1v2l-2 1-3 1-1 3h-1zm12 0 1-1 2 1 2-1 2-1h1v1l-2 1-3 1-3-1zm-41 0 2-1-1 1h-1zm-61-2 1-2v-3l1-1c1-2 1-1 1 1l-3 6v-1zm97 1v-1h1l1 1h-2zm40 0 2-1 1 1-2 1-1-1zm-98-1h-5l2-2 1-1 1-1h1v2l2 1 2 1h-4zm21-1v-1l1-2v-2l1-1 1 1v1l-1 3 1 1-2 1-1-1zm55 0h-1v-1h2l2 1h1l-2 1-2-1zm16 0 2-1v2l-2-1zm-140 0 1-4a394 394 0 0 0-1 4zm73 0v-1l1 1h-1zm31 0h1c1 0 0 0 0 0h-1zm13 0v-1h1v1h-1zm3-1h1l-1 1v-1zm-118-1v-1l1 1-1 2v-2zm52 1v-2l-2-1-2-1v-1h2l3 3v2h-1zm30-1v-1l1 1-1 1v-1zm27 0-1-1c-2 0-3-1-3-2h2l1 1h1l1 1 1 1h-2zm17 0 1-1h2l-3 2v-1zm-62 0v-1l3 1h-3zm54-1h2l-1 1-1-1zm-33 0c-1-1 0-2 1-2v2h-1zm40-1s2-2 3-1l-3 2v-1zm5 1 1-1 1-1 1-1v3h-3zm-65-2v-1l1 1h-1zm45 0c-1-1 1-1 3-2l2 1h-1a262 262 0 0 0-4 1zm-22-1v-1l1 1h-1zm-86-1 2-4v1l-1 2c0 2-1 3-1 1zm84-1h-1l-1 1v-1h2l1 1-1-1zm-126-2-1-2h1l1 2v1l-1-1zm-9 0-3-5-2-6c-3-5-5-11-3-11l1 3 3 8a85 85 0 0 1 3 8l1 3zm-9 0v-1l1 1h-1zm65-2c0-1 1-2 2-1l-1 2-1-1zm-57-6-1-4 3 7-2-3zm5 3-4-9-4-9V2l2 3 3 7a191 191 0 0 1 4 9h-1zm-16 0-1-4v-3l3 6-2 1zm59 0v-2l1-1-1 2v1zm3 0 1-2v1l-1 1zm-58-2-1-4-3-5-3-8 1 1 4 9 3 7h-1zm-47-3-4-1h5l2 2-3-1zm104 0c0-2 1-2 1-1l-1 2v-1zM106 6l-1-2 2 3-1-1zm-4-4V0l2 2h-2z"/>
</svg>
