<?xml version="1.0" encoding="utf-8"?>
<svg xmlns="http://www.w3.org/2000/svg" version="1.1" viewBox="0 0 334 334">
	<title>Sketch of a central clearing in a thick woods, with a small hut in the left rear, and trees all around.</title>
	<path d="m159 332-1-1v-6h-1v2c-1 3-1 4-3 4l-2-1h-1l-1-1v-1l1-8v-3l-1 1v3a1350 1350 0 0 1-3 6l-1 1-1-2-2-1h-1l-2-1-2-1-2-1-1-1v-1l-1 1-1-1-2-2c-2-1-2-1-1-2v-12l-1 3v3l-1 4v2h-1l-1 1-3-1-5-3 1-1h1v-7 3l-1 3h-1l-1 1-1 1h-2v-5a70 70 0 0 1 1-6l-1 3v4h-1l-1 1-1 1h-3l-2-3-2-2-1-1v-2l-1 1h-1c-1 0 0 0 0 0l-1-1-2-2-1-1v-4l1-3c0-1 0-2-1-1v3l-1 3c1 2 0 3-1 3v-3c0-4 0-4-1-1v2h-5l-1-1v-1h-2v1l-2-1-1-2-1-2v-1h-4l-2-2v-3h-1v-1l-2 1-1 2-1-1-1-1-1-1-1-1-1-1h-2v1l-1 1-2-1v-1l1-2c0-2 0-2-1-1h-1l-1 1v1l-2 1-2-1-1-2v-3l-2 1-2 2-1 1v-4l1-1h-1c-1 1-1 0-1-2l-1-2h-1l1 3-1 1v-1l-1-2h-1l-1 1v1h-2l-1 1v-4l-1-4-1-1 1 6v2h-2l-3-1v-1l1-2v-1h-2v-5l-1 2-2 1-1-2-1-1 1 3v1l-2 1-1-2-1-1-2-1-1-2v-2l-1 1-1 1-1 1-2-1-5-4-1-2-2-2c0-1 1-2 3-2v-2l1-2v-3l-2-1v1l-1-1-1-1-1 1H7v-5c2-2 2-2 2-5v-18a318 318 0 0 0-1-28v-14l-1-3v-2l1-3-1-2-1-2 1-1v-1l-1-2v-12a105 105 0 0 0-1-13l1-2v-6l-4-2H1l-1-3 1-3 1-1 1 2h1l-1-2-2-1-1-1 1-2h1l2 1 1-2v-6l-2-1c-1 1-2 0-2-2l1-1h3v-1l-1-2v-1H3v-1h1l-1-1-1-1 1-2 1-2 1-3v-7a245 245 0 0 0 0-6v-1l-1-2v-1l1-3a474 474 0 0 1 0-35l-1-4v-3l-1-3V10l1-2 1-2 2-1v2l1 1 1 5v2l2-1 2-1-3-2-1-2 1-2 3-2h2l1-1 3-1 3 1v5-1l2-3 1-2h3l3 1h-1l-3 1-2 2c-1 2-1 2 1 1l2-2h2l1 1v1l-2 1-3 2-1 3 3-2h1l1-1 2-1 1-3c0-2 1-3 3-3h4v4c0 1 0 2 1 1h2l2-1 2-1 1-2 2-1h3v2l-1 3-2 2 2-1 4-2 3-2c0-1 1-2 3-2h3v1c0 3 0 3 2 3l1-1 1-2 2-3 2-1h2l-2 3-2 2v2l1-1 1-1 2-1 3-1 2-1 2-1h3l2-1h3l-1 1-4 3h1l3-1 2-1-1 1v2l1-1 5-4h1v1l-1 1-2 2-1 1h4l1-2 2-2 2-1 1 1-1 2-2 2v2l1 1V5l1-1 1 2v1l2-1 2-2 2-1c2 0 2 0 1-1V1l2-1 2 1-1 2-2 1-2 2-1 2v4l1-1 1-1 1-2 1-2 1-2 3-1 4-2v1l-2 2-2 3v1l2-1 2-2 1-1 3-2 3-2 1 1-1 1c-1 1-4 3-3 4l2-1 4-3c1-2 1-2 3-2h2c1 1 0 1-1 1l-5 4 2 1 1-1 2-1 2-2 3-1 1 2 1 1 1-2 1-1h6l-1 1-2 1-6 4 3-1 2-2h1l3-1 1-1v2l-2 1-1 2-1 1v2l1 1 1 1 2-1v-1h-1l-1-1V8h1l3-1 2-1V5c-1 0 0 0 0 0l1-1 1-1 3-1 2 1-1 1-1 2-3 2-2 2 4-1 4-2 2-2c1-1 2-1 2 1l-1 1-1 1-1 1v1h1l2-2 2-1h2l1-1 1 1h1l2 1 1 1 1-1h2l1 1c0 1 0 1 0 0l1-1 1 1 1 1 2-1 2-1 1 1-1 1v1l2-1 2-1h3l2-1 1 1-1 1v2l2-1 3-3h4l-1 1-2 2-2 1v2l1-1h3l1 1v-1c1-1 2 0 2 1l1 3 2-2a86 86 0 0 1 2-2h-3l-1-1 1-1h3l1 1h1v-1l1-1 1 1 1 1-2 2-2 2-1 1h-2l1 1h1l1-1 7-5h4v1l1 1 2-1 1-1 2 1-1 1-2 3-2 1h-2l-2-1v1l3 1h2l1-2 3-3h1l2-1 2-1c2 1 2 2 1 2l-2 1 1 1v2l1 1 1-2 1-1h2l1 1v1l-1 3 1 3 1 1 2-2v-1h-1l-1-2 1-4v-1h4l1 1v1l2-1 2-1c1-1 3 0 3 1l-1 1-1 2 1 1h1l1-3v-3h1l2 1-1 1-1 4 1-1 1-1 1-2 2-1h3v1l-1 1-2 3-1 1 1 1 2 1 1-1-1-1v-1l1-1 2-1h2l1-1h4v2h2v1h1v-1h2l2 2 1-1 1-1h1l2 2c1 0 2 1 2 3l1 2-1 2-1-1v-2l-1 2-1 2-1 1h2l1-1 1 1-1 2 1-1 2-1 1 1v2l-1 1-2 2 2 1 2 1v1l-2 1 2 1 2 1 1 1h6v2l2-1 2 2 1 1-1 1-1 2v1l1-1c2-1 2-2 3-1l1 1h1v2l-4 2h1l3-1 1-1 1 1-1 2 1 1h2v2l-1 1h-1l-1 1-3 2-1 4 3-2a266 266 0 0 1 6-5c1 1 1 1-1 2l-1 2h2l1-1 2-1-1 2c-1 0-1 0 0 0h1l3-1 1 1h2l5 4v1l-3 1-4 2-1 2v2l2-1c1-2 4-3 5-3l1 1 1 1-2 1h-3l-1 1-2 1-3 2-1 1h1l3-1 1-1 2-1 1-1h2l-1 2-1 1 1 2v1l-1 2c-1 0 0 0 0 0l1-1 2-1 1 3v2l-1-1-2-1-2 1h1l1 1v2h-2l-2 2-3 1-1 1-1 2v2l1-1c1-2 4-3 5-3l1 1-2 1-1 1h1l4-1 1-1 1 1 1 2-1 1h-1l-1-1-2 1v1l1 1-1 1h1l2 1-4 3h5l1 2-1 1-1 1-1 1v1h1l1-1 1 2-1 4-1-1-1-1v3h-2l-1 1c-1 0-1 0 0 0v2c0 1 2 0 3-2l1-1 1 2c0 2-1 2-2 2v1c0 1 0 0 0 0v1l-1 1h-1v1h2l1 2v3h-2v2h2v4l-1 3-1 2 1-1h2v1l-1 3-2 2 1 1 1-1v2l-1 2-2 2v1l1 1 2 2v4l-1 1v1l-1 1-2 1-1 1h1l2-1v2l1 1v1l-1 2v1c-1 0-1 0 0 0l1-2 1-1 1 1v4l-2 1c-1 0-1 0 0 0h3l1 2-1 2-1 1h-3l1 1 2 1v2h-1l-2 1h2l3 1 1 2-1 2-1 1-3 3v1l2-1 2-1v1l-1 1v1l1 1h1l1 1-1 1-1 1-1 1v1c0 1 0 1 0 0l-2 1v1h2l1 1v3h-1l-1 1-1 1v1l1 2-1 1 2 2-1 2h-2v1h1v2l-1 1h1l1 1v2h-1l-2 1 2 4 1 6 1 3-1 1v7l-1 2v2l-1 1-2 2h1l2 2v3l-1 1v1l-1 1h-1l-1-1v5l-3 4h-1l-2 2-1 2-1 3-5 4-1 1-6 3h-1l-2 1h-1l-1 1-1 1h-1l-3 1-4 1h-4l-1-1h-1v2l-1 2c0 1 0 2-2 2l-2 1-3 1-2-1v-3l-1 1-1 1h-1l-1 2-2-1v-3l-1 4v1h-1v2l-1 2h-3l-3 2-3 2-1-1 1-3v-2l-1 3v4h-1c-1 0-2 0-1-1v-1l-1 1v2l-1 1h-2l-1 2-1 2-1 1h-3l-2 1h-2l-2-1v-1l2-1 2-2h-2l-2 2-2 1-1-1v-1 1l-1 1-1-1-1 1c-1 2-2 1-1-1v-4l-1 4-1 2-1-2v-1l-1 2-1 1h-2l-1 1-2 3-1 1-2 1-2 1-2 2v1l-1 1-1-1 1-2v-1l-1 1-1 2v2h-2l-1 1-3 2-1-1-2-2a33 33 0 0 1 4-9l2-1v-1l-3 1-1 2-1 5-1-3v-1l-1 1c0 1 0 0 0 0l-1 2v2l1 2v3l-1 1h-1l-1 1-2 1h-3l-2 1-1 1-1-2-1-1-1 1v1h-2l-1 1v1c-2 0-2-1-2-3l1-3v-3c0-1 0-2-1-1v4l-1 4-1 1-1-1v-1h-3l-2 1h-6v-6l-1 1v2l-1-3c0-2 0-3-1-2a320 320 0 0 1 0 5v4l-1 1-3 1h-2zm4 1v-1l-1 1h1c1 0 0 0 0 0zm23-6 1 1c1 1 2 1 2-1v-1h-2v-3c-1-1-2 2-2 4l-1 3 1-2 1-1zm-24 2v-8l-1 8h1zm18-1-1-2v3l1-1zm-25 0h-1v1l1-1zm18-1-1-3v5l1-2zm19-1 1-5-2 5 1 3v-3zm-22 2v-2h-1v2h1zm6 0v-1l-1 1h1zm-2-1c0-1 0 0 0 0zm-11-1a102 102 0 0 0 0-3v4-1zm-11 0c0-1 0-1 0 0 1 0 1 0 0 0zm45 0v-1l-1 1 1 1v-1zm-20-2v-3c0-1 0-1 0 0l-1 3v2l1-2zm4 2v-1 1zm18-1-1-1v1l1 1v-1zm-43-1v-1l1-3v-3l-1 1a273 273 0 0 1 0 6zm-8 0v-4 5-1zm6-1v-3l-2 4 1 1 1-2zm5 1v-1l-1 1 1 1v-1zm16 0h-1v1l1-1zm-7-2v-1l-1 3h1v-2zm2 1v-1 2-1zm21-2 2-7h-1l-1 1-1 5v4l1-3zm-16 1v1c0 1 0 0 0 0v-1zm31 0h-1c-1 1 0 1 1 1h1zm-62 1v-1l-1 1h1zm35-1h2l-1-1v-2c0-2-1-2-1-1v2l-1 2v1l1-1zm-32 0-1-2v2h1zm26-1v-2l-1 1v2l1-1zm12 1-1-2v1l1 1zm25 0-1-1v1h1zm-21-1-1-1v1l1 1v-1zm8 0h1v-3l-1 1-1 1v2l1-1zm-57-2v-2 4-2zm20 1 1-3 1-3-1-1-1 2-1 3v4-1l1-1zm-15 0h-1v1l1-1zm21 0-1 1h1v-1zm17-2v-2 4-2zm-45 1v1-1zm69 0v-1l-1 2 1-1zm-65-1v1s0 1 0 0v-1zm69-1v-3 1l-1 1h-1v2c-1 1 0 1 1 1l1-2zm-75 1a36 36 0 0 0 0-7v3l-1 4v1l1-1zm57-1v-1l-1 3 1-2zm-7 1c0-1 0 0 0 0s0 1 0 0zm-41-1h-1v1h1v-1zm23 0h-1v1l1-1zm2 0v-1l-1 1v1l1-1zm-37-1 1-1v-2l-1-1c-1-1-1-1-1 1v4l1 1v-2zm6-5v-2h-1v9-3l1-4zm15 6c1-1 0-1-1-1l1 1zm42-2v-4c1-2 1-2-1-1l-1-1 1-1v-1l-2 2 1 1v5l1 1v1l1-2zm-32 0a117 117 0 0 1 0-2l-1 4 1-2zm9 2v-1h-1l1 1zm-30-1v1-1zm55 0v-1 2-1zm19 0v1-1zm-60-3v-5c0-1 0-1 0 0l-1 2v4c0 2 0 3 1 2v-3zm56 3 1-2-2 2h1zm-27-2-1 2h1v-2zm-42 1v-1l-1 1h1zm5-1a110 110 0 0 0 0-8l-1 3a561 561 0 0 1 1 5zm28-1-1-2v4l1-2zm3 0v-1l-1-1v4l1-2zm37 1 1-1v-1c0-1 0-1 0 0l-1 1h-2v2l2-1zm-66 0 1-1c0-2-1-1-2 0l1 2v-1zm36 0c1 0 1-1 0 0v1-1zm-64-6v-2l-1 8v1l1-2v-5zm32 5v-2h-1v4l1-2zm15 1h-1 1zm-28-3 2-5v-8l-1 2v2l-1 2-1 3v7l1-3zm67 3c0-1 0-1 0 0 1 0 1 0 0 0zm11 0zm-74-1h-1v1l1-1zm37 0v-2l-1 1v2l1-1zm18 0-2 1 2-1zm-35 0v-1l-1 1h1zm27-1-1-1v2h1v-1zm10 0v-1 2-1zm11-2-1-1v4l1-3zm-43 0v-3 1l-1 1h-1v1l1 2c0 1 0 1 0 0l1-2zm2 2v-1 2-1zm34 0 1-2 2-2 1-1h-2l-1 2c0 1-1 2-1 0h-1l-1 2a133 133 0 0 0 0 2l2-1zm-48-1v1-1zm63 0v-2l1-1v-5 1h-2l-1 4v4l2-1zm-76 0h-1 1zm7-3v-2l-1 3 1 2v-3zm33 3-1-1v1h1zm-18-1h-1v1l1-1zm21-1v1c0 1 0 1 0 0v-1zm13 1v-3l-1 1v3l1-1zm14-1v-1l-1 2 1 1v-2zm-55-1-1 2h1v-2zm2 1h-1v1l1-1zm1 1v-1 1zm82-1-1 1h1v-1zm-71-2v-3l1-4 1-1h-2l-1 1v9l1 1v-3zm2 1v-1 3-2zm21 1v-1 2-1zm28 0 1-5v-2a417 417 0 0 0-1 7zm-110 0a51 51 0 0 0 1-9v1l-1 8c-1 0 0 1 0 0zm9-3v-2 5-3zm22 0v-2l-1 3v2l1-1v-2zm33 1-1-1-1-2v-3l-1 1v3l1 2 1 1v1l1-2zm4 1-1-1v2l1-1zm4-2a297 297 0 0 0 1-9l1-1-1 1c0 2 0 4 1 3v-2l2-5 1 1v1-5l1-3-1 1v2h-1v-1l-1-3-1 5v2l-1-1v-3h-1v4l1 1-1 1-1 1-1 1v11l1 1 1-3zm48-1c-1-1-1 0-1 2v2-2l1-2zm2 2v-2l-2 3h1l1-1zm-102 1a36 36 0 0 0 0-10v6l-1 2v2h1zm30-1v-3h1-1v4-1zm39 0v-1h-1v2l1-1zm28 0 1-3 1-2 3-1c2-2 2-3 1-3l-1 1-1 1h-1l-1 1h-2l-1 1-1 1h1l1 2v3-1zm-121 0v1-1zm39-1 1-4v-6l-1-1v6a447 447 0 0 0 0 5zm41-1v-1h-1l-2 1v2l1 1 1-1 1-2zm7 2h-1v1l1-1zm15-1v-3l-1 1-1 1v3l2-2zm-105-1a75 75 0 0 0 1-4l-1 2v4-2zm2 0v-2 4-2zm51 0v-2l1-4 1-2-2 1-1 3-1 4v2l1-1 1-1zm68 0v-4l-1 1v5l1-2zm-102 0v-3l-1 1a185 185 0 0 1 1 4v-2zm79 1 1-1-1-1h-1l1 3v-1zm40 0h1l1-1h-2v-1l-1 3 1-1zm-140 0v-1c0-1 0 0 0 0l-1 1h1zm76-1 1-2c0-1 0 0 0 0h-2v2l-1 1c1 1 1 0 2-1zm15 0-1 1 1-1zm43 0-1-1v2c-1 0 0 1 0 0l1-1zm-46 0 2-1 1-1 1-1h-2l-3 3v1l1-1zm-57 0v1-1zm79-3-1 1-1 2 1-1 1-2zm-104 1c0-2 0-1-1 0v2l1-2zm56 1v-2h-1v3h1v-1zm34 1h-1 1zm8-1-1-2-1 2v1h1l1-1zm-78 1 1-2v-3s0-1 0 0c-2 1-2 0-2-4v-5 4l-1 5-1 3 1-1h1l1 1-1 1v1h1zm67-1-1 1h1v-1zm43-2-1 2h1v-2zm-103 2v-1 2-1zm-21-1v-1 2c0 1 0 1 0 0v-1zm38 1c0-1 0-1 0 0zm15-1v-1l-1 1c0 2 0 2 1 1v-1zm-65 1-1-1v1h1zm47-3a106 106 0 0 1 0-5v3l-1 3v1l1 1v-3zm11 0 1-3 1-2v-2l-1 1-1 2v2l-1 2 1 3v-3zm54 1 1-2h-1l-1 4 1-2zm19 2v-1l-1 1h1zm13 0v-1h-1v1h1zm-128-2-1-2v1l1 3v-2zm3 0v-1 3-2zm119 0v-1l-1 2c0 1 1 1 1-1zm-121 0c0-1 0 0 0 0v1-1zm32 0v-1 2-1zm35 0h-1v1l1-1zm12 1v-1l-1 1h1zm-55-3h-1v2c0 1 0 1 0 0l1-2zm1 2v-1l-1 1 1 1v-1zm59 0v-1l-2 1h2zm6-1 2-1c0-2-3 0-3 2v1l1-2zm-103 1c0-1 0-1 0 0zm56-1c0-1 0-2-1-1v2l1-1zm15 0v1c0 1 0 0 0 0v-1zm-41 0v-1l-1 1v1l1-1zm53-2 1-2h1v4l1-3 1-3 1-5-1 4-2 1 1-3v-2h-1l-1 1v3l-1 2-1 3v3l1-3zm28 3v-4 2l-1 1v1h1zm-115-2v-1h-1v3l1-2zm94 1v-1l-1 2 1-1zm52-2h-1v2c0 1 0 1 0 0l1-2zm-72 2v-5 2l-1 2-1 1h2zm60 0v-1l-1 1h1c1 0 0 0 0 0zm-128-1h-1v1l1-1zm25 0v1-1zm46 0v1-1zm19 0 1-1h-1l-1 2 1-1zm51 0v1-1zm-151-1v-2 4-2zm57 1h-1v1l1-1zm51 0-1-1v1s0 1 0 0h1zm32 0s0 1 0 0zm-115 0v-1h-1l1 1zm81-1v-1h-1l1-2 2-2 1-4 1-3v-4l1-2 1-1 1-3 1-3-2 1-1 2v2l-1-1-1-1v3l-1 5-1 5-1 4v-5l1-3v-4l1-3v-2h-1l-1 3-1 3v-3l-1 4-1 1v3l-1 3-1-1 1-6 1-3v-2l-1 1-1 2a93 93 0 0 1-3 15v1l1-2 2-4v5l1-3 1-3 1-3v-4h1v7l-1 5-1 1 1 1v2l2-1zm23 0v-2 3c0 1 0 0 0 0v-1zm17 0v1-1zm-149-1v-4l1-2-1-1-1 4 1 5v-2zm19 1v1-1zm5 0v-1l-1 1 1 1v-1zm46 0-1 1h1v-1zm29-1v-1l-1 2 1 1v-2zm13 1-1 1h1v-1zm-97-1v-1l-1 1v2l1-2zm68 0 1-2 1 1-1 1h1a1254 1254 0 0 1 1-8l-1-2v2l-1 3-1 1v3l-1 3 1-2zm52-1v-2l-1 4c-1 1-1 1 0 0l1-2zm12 1v-1h-1l-1 2h1l1-1zm4 0 1-1h-1v1l-1 1v1l1-2zm-111 0v-2c-1-1-1-1-1 1v2l1-1zm18 1 1-1v-1l-1-1v1l-1 2h1zm67-1v-1l-1 1v1l1-1zm5-3-1-2-1 1-1 3-1 2 2-1 2-3zm13 3 1-2v-1l-3 3v1l2-1zm17 1v-2c0-1 0-1 0 0l-1 1v1h1zm-138-2v-2 3-1zm34 0 2-5 1 1c0 2 0 2 1 1l2-2v1h1v-1l-1-6 1-5 1-2-1-3 2-1v5c0 1 0 3 1 2v-1c1-2 1-3 2-1v2l-1 2v3l1-2 1-2v1l-1 4v1c0 1 0 2-1 1l-1-3-1 4-1 2-1 2 1 1 1-1 1-1 2-1 2-2h1v-8l1-1v5l1 2v2l-1 2v2c0 1-1 1-1-1v-2l-1 2v2c0 1 0 0 0 0l1 1 1 1 1-1 1-1v2l1-2c0-2 0-2-1-1h-1l1-2v-7l-1-4 1-5 1-3-1-1v-8l1 3 1 2 1 3-1 2 1 3 1-4 1-3 1 2v3l-1 1 1 1 1-5 1-3v11l-1-2v-1l-1 3c0 2 0 3 1 2v-1l1-1 2-1v-8l1-3 1 1h2l-1 2-1 1-1 7v6h1v-11h1v2l1-2 1-4v-2h-1v-2l1-2v2l1 1v-1l1-1-1 8-1 2h1l1-2 2-4v4l1-1 1-1 1 1v1l1-1 1-1v2l-1 1v1l-1 3 1 3v-3l1-1v-2a227 227 0 0 0 2-1l2-2v-3l1-1v-2l-1-4 2 1 1 2v4l1 2 2-1c2-1 2-2 2-3v-2l-2 3v1-8l1-5v-1l1 2a260 260 0 0 1 1-1v-8l-1 1-1 1v-1l-1-1-1 1-1 1-2 2-1 1-2-1h1l1-1v-2l1-4 2-1 2-1 2 1h1l1-2 1-3 1-1 1 1v1l1-1v-5l-1-6v-1l1-2v-3l1-2v-3a104 104 0 0 1 1-11l-1-1v1l-1 2v2l-1 2v5l-1 4v2l-1 2-1 2v2l-1 3v2l1 2h-1l-1 1v3l-1 2c0 1 0 0 0 0l-3-1-1-1h-1l1-3 1-1c-1-1 0-3 1-4l1-3-1-2v2l-1 2v1l-1-3c0-1 0-2-1-1l1 3v5l-2 1v6l-2 2v4l-2 1-1 1h-1l-1-1-1 1v1h-1l-1-1 1-2 1-1h4v-2l-1-1-1-1 1-1 2-1v-1h-1c-1 1-1 1-1-1v-2l-1-1 1-1h2l1-1v1c0 1 0 0 0 0l1-1 1-1v-2l-1 1v-6l-1-5-1-3v-2l-1-1v7h1l1-1v4a213 213 0 0 0-1 6l-1 1v1h-1l-2-1-1 1v7h-3l1 1 1 3h-1l-1-1v-1l-1-3 1-1h2v-6l-1-4v-4 1l-1 2v4l-1 5v-2l-1-2h-1v4c-1 1-1 0-1-2l1-3v-3l-1 1h-1l1-2v-3l-1 1v2l-1 2c0 1-1 2-1 0l1-3v-2l-1-2v-2l-1 1h1v4a49 49 0 0 1-1 7l-1 2-1-1h-1v3h1l1-1v2l-2 1-1-1-1-2-1-1 1-1 2-1-1-1v-4l-1 2v2h-2v1l-1 1v2l-1 1v-4l-1-1h-1v-2l-1-3v-1l-2 6-1 2v-5l1-3h-1v2l-2 4 1 1v1l1 1 1 1-2 1-1 1h-1l1-2 1-1-1-1-1-3 1-2v-1l-1-3v-1l-1 1v8l-1-1-1-1v2l-1 3v1l1 1 2 1v1l-1 1h-1l-1-1v2c-1 0-2-2-1-3v-5l1-3v-7 1l-1 1v-1l-1-1-1 1 1 1-1 3-1 2v1l1 1-1 3-1 2h-1v-1l1-3-1 1v-4l-1-2-1-4v13l-1 2v-3l-1-8v-1l-1 1h-1v-3l-1-1-1-1v4l-1 1h-2v-7 1l-3 2v1l-1 2 1 2v4h-4v-7h2v-2h-2l-1 1h-1v-3c-1 0-2 2-1 3l-1 1v1c0 2-1 1-1-2l-1-2-1-1 2-3 1-1-1-2v1l-2 2-1 2-1 2v2l-1 1-1-2-1 1h-2l-1-2-1-1h-3v1h-1v-1l-1-1-1-1-1-2-1 1v2c-2 1-4 1-4-1h1l1-1h-1v-2l1-1v-4l-1 1-2 2v3l1 3-1 2h-3l-4 1h-3l-1 2v1l1-1 1-1 2 2v1-2l1-1h1v1l1-1 1-1 1 1h1l1 1s0 1 0 0l1-1v-1l1 1-1 2-1 1 1 2 1-1v2l-1 3v3l1 3-2 2-1 2v4l1-2 1-4v5h1v-7l1-3v-2l-1-2 1-1v-4l2-1v3l1 2v1l1-1 1-1-1-2c0-2 2-1 2 1l1 1v1l1 3h1v-3l1-3 1 3a28 28 0 0 1 0 10h1v-3l2-7v16l-1 3h-4v2a83 83 0 0 1-1 6h1l1-2 1-3v-1l1 1-1 3-1 3v2l-1-1-1 5-1 3v3h1l1-4v-3l1-2v7l1-1h1l1 1-1 2-1-1h-1l-1 2v2c0 1 0 1 0 0l1-2h1l1 1v1l2-2v3-1l1-4-1-3-1-2 1-4 1-4 1-2v1a150 150 0 0 0-1 9l1 1 1 1v2l-1 2v3l-1 3-1 4 1 1 1-5 1-4v7l1-7v-3l1-2v-6l-1-3v-2l-1-1v-11 1l-1 1v-15l1 1 1 4v6h1v-4l1-5 1-2 1-1v8l-1 1-1-2v-1 7l-1 4v3h1l1 1-1 1v5l1-1v15h-1v-2c0-1 0-2-1-1v2l1 3v12l1-2v-1l1-5 1-3v-1c-1 0-2-2-1-4v-2l1-1 2-3 1-5 1-3 1-1 1 1-1 2-1 5-1 3-1 2h1l1 2-1 2v1l-1 6h1v-1l1 2v4l1-2 1-2v5l-1 3v2c0 1 0 2 1 1l1-7a303 303 0 0 1-1-11v2l-1 2v-3l1-2v-3l1-4 1-4 1-2v10l-1 4v1l1 2v2-3l1-3 1-2v2a117 117 0 0 0 0 7l-1 1-1 1v1l-1 4-1 6 1 1 1-5 1-4 1-5 1-4h1v1l-1 7-1 6 1 1v-3l1-3c0-2 1-1 1 1v2-5l-1-1v1h-1v-1l1-1 2-3 1-5-1-1h-2v-5l1-5-1-4-1 1h-1v-1l-1-1v-3l1-2 1 1-1 1-1 2 6 2 2-1 2-1 1 1v1l2 2v1l-1 1-1 2v4-1c0-1 1-2 2-1l-1 1-1 2-1 3v4c0 2 0 4 1 3v-6l1-2v2l-1 9v-1l-1-1h-1l-1 1-2 1v1l1-1 1 1 1 2 1 2-1 2 1 2v-5h1v5a67 67 0 0 1 0 5v-1zm3-7 1-1v2l-1-1zm-1 0-1-3a3297 3297 0 0 0 2-3h1c1 1 0 3-1 4v1l-1 1c0 1 0 1 0 0zm1-4v1c0 1 0 0 0 0v-1zm0-1s0-1 0 0zm1-4 1-6 1-2 1-1-1-1v-4h3l-1 3-1 4-1 4v4l-1 1-1-2zm3-12c0-1 0 0 0 0v1-1zm7 10v-5l1 2v1l1-1v-1c1-1 1-1 1 1l-1 3v2l-2-2zm-12-3 1-3v-3h-1l2-1h1l-1 3-1 6-1-2zm7-3v-1l1-3v-3l1 1v3l1-1v-1c1-1 1-1 1 2l-1 2h-1c0-2-1-1-1 0v1h-1zm-21-2 1-2v-5l1-2 1 1v2l-1 3-1 4-1-1zm51-2v-3l1-2h1v6l-2-1zm-23 0v-2 2zm5 0v-3l1 1-1 2zm23-1v-1h1l1 2-2-1zm-65 0v-4l-1-5c0-4 1-6 2-6v-8h1v8l-1 6v8l-1 1zm5 0v-5c1-1 1 0 1 3l-1 2c-1 0 0 0 0 0zm41-1v-2l1 1-1 1zm2-1 1-3 1-3v3l-1 2v2l-1-1zm3 0 1-2v3l-1-1zm7 1v-1l-1-1v-1c-1-1 0-1 1-1v1h1v1l-1 2zm-36-1h1l1-1 1-1h3v-1l1-1h1l-2 3h-2l-1 1h-3zm43 0v-6l1-3h2v-1 5h-2v2l1 2c-1 1-1 2-2 1zm-33-2v-1l1 1-1 1v-1zm2 0 1-1h1l-1 2-1-1zm7 0 1-3 1 2-1 2-1-1zm-3 0v-2h1v1c0 1 0 2-1 1zm7-1v-2l2 1-1 1h-1zm26-2v-3l-1 1h-1v-1c1-2 1-2 2-1v-4l1-1 1 1v2l-1 4-1 4v-2zm-19 0v-3l-1-1 1-2 1 2v5l-1-1zm-62-1v-2l1-1 1-2 1-2v1l-1 3-1 1-1 3v-1zm41 1 1-3 1 1-2 2zm25 0 1-2 1 2h-2zm-32-1v-2h2l-1 3-1-1zm4 0 1-2 1 1-1 2-1-1zm6 0 1-2v1c0 2-1 2-1 1zm6 0v-2l1-1v4l-1-1zm22 0v-2l1-3v-1h1v3a77 77 0 0 0-1 3h-1zm-25 0 1-2c1 1 0 3-1 2zm7-2-1-1 2-1 1 1-1 2-1-1zm16 1v-2l-1-1h2v3h-1zm-13-1 1-2h1v2l-1 1-1-1zm-45-1v-1h1v1l-1 1v-1zm5 1v-1l1 1h-1zm49 0v-3h1v2l-1 1zm-24-2v-2h1v3h-1v-1zm-27 1v-4h2c1 0 1 0 0 0l-1 2-1 2c0 1 0 0 0 0zm8-2-1-3 1-1 1-1v6l-1-1zm14 0v-1h1v2l-1-1zm8 1 1-2 1-1-1 3h-1zm3 0v-3l1-3c-1-2 0-2 1-3l1-1 1 1-1 2h-1v4l-1 2v1h-1zm-14-1 1-4h1v3l-1 2-1-1zm-3 0v-4l1 1v3h-1zm20 0 1-1v1h-1zm5 0 1-2 1-1h3v1l-1 1h-2l-2 1zm-29-1-1-1h-1v-1h2l1 1v1h-1zm36-1 1-1 1 1-1 1-1-1zm-55 0 1-4v2l-1 2zm30-1v-2h1v1l-1 1zm-20-1v-1l1-5 1-6 1 1v1l-1 6-1 4v1l-1-1zm-4-1 1-2 1-1 1-2v-2l1 2-2 5-1 1-1-1zm30-1v-1l1 1-1 2v-2zm-22 1-1-3 1-3c0-2 1-1 1 3l-1 4v-1zm10-1v-7l1 1v7c-1 1-1 1-1-1zm-7 0-1-2v-5l1 1v2l1 2v2l-1 1v-1zm16 1v-3l1 2-1 1zm-34-1v-1h1l-1 2v-1zm22-1-1-1v-4h1l1 2v5l-1-2zm32 1v-1l1 1-1 1v-1zm5 0-1-1-1-1v-1l-1-2v-4c1 0 2 1 1 3l1 1v1l1 3 1 1h-1zm-8 0v-2l1-1v3h-1zm-3-1v-2l1 1-1 2v-1zm-20 0v-2l1-1v3h-1zm-22-1v-7l2-1v2l-1 1 1 1v3h-1l-1 1zm26-1v-2l2 1-1 2-1-1zm-31-1 1-1h1l-1 2-1-1zm36-1v-2l1-2 1 5-1 1-1-2zm4 1 1-2 2-2 1-2 1-1v2l1 1v3h-1v-2l-1-1v1l-1 1v2h-3zm11-1-1-1 2-2v4l-1-1zm-48-3-1-4v-2l1-1v1l1 2v5l-1 1v-2zm45 2 1-2v1l-1 1zm-40-1 2-3-1 2-1 2v-1zm25 0v-1l1-1 1 1c0 1-1 2-2 1zm-17-1v-2h1v1l-1 1zm23 0v-2l-1-3v-1h1l1 3v3h-1zm13-2 1-2v2h-1zm-42-2v-6l1-1 1 2v5h-2zm34 0v-2h1v1l-1 1zm-38-1v1-1zm25 0v1-1zm21 0v-2l1-1v2c0 1 0 2-1 1zm-55 0v-1h1l-1 1zm30-1v-2l1 1v1l-1 1v-1zm-13-1h2l-1 1-1-1zm3 0v-2h1v1c0 2-1 2-1 1zm-26 0v-3h1v3h-1zm3-2v-1l2-1-2 2zm3-2v-1h1v2l-1-1zm-10 0v-2h1v3l-1-1zm28 0 1-2v3l-1-1zm-25-1v-1 2-1zm-11-3 1-2v4l-1-2zm2 0 1-1v2l-1-1zm107 71 1-1 2-1 2-1-1-1-2 1-2 1-1 1c-2 1-2 1-1 2l2-1zm35-1v-2h-1l-1 2v2l2-2zm-147 1-1-1 1 2v-1zm17 0h-1l1 1v-1zm36 0-1-2v-1 4l1-1zm16-1 1-1 2-7 1-4h-1l-2 7v3l-1 2v1-1zm2 1v-1 2-1zm-63 0h-1 1zm19 0h-1 1zm-45-1 1-3v-2l-1 1v5-1zm29 1-1-1v1h1zm25-1-1 1h1v-1zm32 0v-2l-1 3 1-1zm34 1v-1l-1 1h1zm52 0 1-1h-2v1h1zm-160-2h-1l-1 1h1l1-1zm27 0h-1v1c0 1 0 1 0 0l1-1zm4-1-1 1v1h1v-2zm4 2v-3l-1 1 1 3v-1zm79 0h-1 1zm-70-1-1-1c-1 0-1 0 0 0v2l1-1zm111 0 2-2v1l1-1v-2l-3 2-1 2v1l1-1zm-130 0-1-2v-3l-1-3v5h-2v-1l-1 2 1 1 1-1v-1l1 1 1 2 1 1v-1zm113-1 1-3h1v-2h-1l-2 4-1 3 2-2zm6 2v-4l-1 4h1zm-161-1v-3 1l-1 2v1l1-1zm8-3h-1v4-2l1-2zm11 1-1-2v5l1-3zm7 0v-1l-1 2 1 1v-2zm29 2v1-1zm65 0v1-1zm27-3v-9l-1 1h-2l-1 1-1 1v2l-1 3v2l2-1 1-1-1-2 2-5v4l-1 1h2v1l-1 3v2h1l1-3zm17 3h1c1 1 2 0 2-1h-1l-3 1v1l1-1zm-129-1v-3l-1 2v2l1-1zm98 0-1 1h1v-1zm-104-1v-2 3-1zm99 0 1-3h1c1 1 1 0 1-5v-2l-1 1-2 3-1 5v2l1-1zm53 0v-2l-1 2v2l1-2zm-159 1v-3l-1 2 1 1zm2-1v-1 2-1zm141 0 2-2 1-3-2 1-3 3v2l2-1zm-44 0h-1v1l1-1zm38 0 1-2 1-1 2-1v-1l1-3v-7l-1 3-1 2a285 285 0 0 0-2 5h-1v3l-1 1h-1v2l2-1zm10-1v2-2zm-166-1v-1l-1 3 1-2zm7 1-1-2v4l1-2zm54 1v-2l-1 1v2l1-1zm1-1v1-1zm2 0v-1l-1 1 1 2v-2zm69 1v-4l1-5 1-6 1-2h1l-2 8v7h1l1-2v-1l-1-2 1-3v-3l2-7v-1c0-1 0-1 0 0l-1 1-1-1-1-3v-5l-1-1-1 1v2l-1-1 1-5 1 1c0 1 0 0 0 0l1-2-1-1v-2l1-2-1-1v1l-1 2v1l-2 2-1 2v1h1l1-2-1 7h-1v-2h-1v2l-1 5v2l-1 3-1 3v2l1-1 1-1 1-6v-6h1v12l1-1 1-2v-8l1 4a20 20 0 0 1-1 9l-1 1v-1h-2v7l1 1v-1l1-1v5h1zm13 0v-3l1-4-1-2-1 2 1 1v3l-1 3v1l1-1zm-57-1v1-1zm61 1-1-1v1h1zm-121-1v-3 2l-1 1h1zm21-1v-2l-1-2-1 4 1 2 1-2zm62-1 2-5v-9l-1 2v5l-1 5v5-3zm77 1h-1v1c0 1 0 1 0 0l1-1zm-102 1v-3 1l-1 2h1zm6-1 1 1 1-4-1-4v1l-1 6h-1l1 1v-1zm76 0-1-1-1 2h1l1-1zm13-1c0-1 0-1 0 0l-1 1v1l1-2zm-34 1 2-4-1-2v-3l2-2v1h1v-5a206 206 0 0 0-1-5l-1 3v4h1l-1 1-1 1-1 1v11-1zm-108 0v-1l1-1v-2l-1-1 1-1-1 1v1h-1v3c0 1 0 2 1 1zm6-1 2-5h-1l-1 1v2l-1 2v1h1v-1zm-15-1v-1 3-2zm12 2v-1l-1 1h1c1 0 0 0 0 0zm87-1v1-1zm55-1v-2l3-3 1-2v-4l-1 1h-1l1-2s0-1 0 0l-1 3-1 4-2 2v3l-1 2 2-2zm-15 1c1 0 0 0 0 0v1-1zm-179-2v-1 3-2zm5-4v-2l-1 3-1 3v2l1-2 1-4zm1 6v-5l-1 5h1zm21 0-1-1v1h1zm46-2-1 1h-1 1l1 1v-2zm125 1h-1l1 1v-1zm-185-2-1-2v4l1 1v-3zm19 1v-2h-1v3l1 1v-2zm144 1c0-2 0-3-1-1v2l1-1zm13 0v-2h-1l-1 1v1h2zm-91 0v-1l-1 1h1zm62 0h-1 1zm23 0 4-3h-2l-1 1-1 1-2 1v1l2-1zm-139 0v-1l-1 1h1zm40-1v1-1zm34-1c1 0 2 0 2-2v-1l-1 1c0 1-1 1-1-1l-1-1-1 1v3l-1 2h1l2-2zm83 1c-1-1-1 0-1 1l1-1zm-193-1-1-2v4l1-2zm12 1v-1l-1 1h1zm158-1v-2l-1 2 1 2v-2zm-153 0-1 1h1v-1zm5 1c0 1 0 1 0 0zm12-1v-1 3-2zm121 0 1-3v-3c-1 0-2 1-2 3v4l1-1zm10 0 1-1 1-1 1-3 1-2-1-1-1 2-1 3c0 2-1 3-2 2l1-5v-1l-1 1v3l-1 4 2-1zm-163 1v-1l-1 1h1zm6-1v-1 2-1zm12 0 1-1-1-1h-1l1 3v-1zm8 0c0-1 0-2-1-1l1 2v-1zm145-1v-3l-1 3v2l1-2zm11 0-1-1v2c0 1 0 1 0 0l1-1zm5 1-1-1v1h1zm7-1v-1l-2 2 2-1zm-207 1v-2l-1 1 1 1zm101-1 1-1-1-1v-1h-1v-2c0-2-1-2-2 1v3h1v2l2-1zm69-1-1-1v3-1l1-1zm32 1 1-2h-1l-1 2c-1 2 0 1 1 0zm-89-1v-1l-2 1v1h2v-1zm51-1-1-1v4l1-3zm-138-1v4-4zm12 1-1 1v2-2l1-1zm5 2v-1l-1 1h1zm45 0 1-1-1-1-1-1-1 1v2h2zm-39 0v-1l-1 1h1zm137-2 1-2h-2v3c0 2 1 1 1-1zm29 1v-2a68083 68083 0 0 0 0 2zm-213-1h-1v2l1-2zm2 0h-1v1h1v-1zm9 1h-1v1l1-1zm103 0 1-2v-3c-1-1 0 0-1 1h-1v4l1 1v-1zm89-1 1-3-3 4 1 1 1-2zm12 0-1 1h1v-1zm-221 0v-1l-1-1v3l1-1zm46 0 1-2v-3c-1-3-1-2-1 1l-1 3-1 1 1 1 1-1zm109-1 1-3 1-6-1 1-2 4 1 1-1 2v3l1-2zm42 2v-1l-1-1v1l-1 1h2zm-199-1-1-4v5l1-1zm12 0v-1 2-1zm8 0 1-1h-1v2-1zm8 1v-1 1zm22-1v1-1zm170 1h-1c-1 0 0-1 0 0h1zm-179-2v-1l-1 2c0 1 1 1 1-1zm-37 1v-1 1zm113-3v4-4zm78 1v-5 1l-1 3v3l1-2zm20 1 1-1s0-1 0 0l-1 2v-1zm12-1 1-1h1v1l1-1v-3l-1 1-1 1v-1l-1 2-1 1v2l1-2zm-203 1-1-2v3l1-1zm6 1v-1 1zm22-1v-3h-1v3l1 1v-1zm136-1 1-2v-2l1-2 1 2a117 117 0 0 0-1 3l1-2 1-3v-3l-1 1h-1l-1-1v-1l-1 1v4l-1 6v1l1-2zm26-1 1-3h-1l-1 1v3l-1 2 1-1 1-2zm3 2v-1 2-1zm-199 0-1-1c0-1 0 0 0 0v2l1-1zm184 0 1-3v-2l-1 2v2h-1l-1 1 1 1 1-1zm-175 0 1-2-1-1v3zm10 0-1-1v1h1zm23 0c0-1 0-1 0 0zm104-1v-1l-1 1 1 1v-1zm-129 0h-1v1l1-1zm8 0v-1l-1-1 1 3v-1zm70 0h-1l1 1v-1zm62 1 1-1 1-2-1-1-2 3v1h1zm45-1v-1h-1v2l1-1zm5-1v-2 4-2zm-222-1v1l-1 1c1 1 1 0 1-2zm157 2v-2l-1 2v1l1-1zm-144 0v-1l-1 1h1zm14-1v-1l-1 1 1 1v-1zm50 1v-1 1zm29-1h-1v1l1-1zm10 1 2-4h-1l-1 2-1 2h1zm90 0 1-1h-1l-1 1h1zm-189-2v-2 4-2zm11 1v1-1zm99-3c0-2 0-2 0 0l-1 2h-1 1l1 1c0 1 0 1 0 0v-3zm-93 3h-1 1zm160 0v-1l-1 1 1 1v-1zm2-1 1-2 1-1 1-1 1-2v-2 1l-1 2-1 1h-2a4955 4955 0 0 0-1 2v4l1-2zm-210 0h-1l-1 1h1l1-1zm20-3v-6l-1-1v10c1 2 1 1 1-3zm36 2-1 1h1v-1zm59 0v-1l-1 2 1 1v-2zm-108 1v1-1zm69 0v-1l-1 1 1 1v-1zm98 0 2-8v-1l-1 1v2l-1 3-1 4 1-1zm-140 0v-1l-1 1h1zm11-1c0-2-1-3-1-1v1l1 1v-1zm5 1v-1 1c0 1 0 0 0 0zm128-3-1-2v2l-1 3v1l1-1 1-3zm56 3v-1 1zm-169-1h-1v1l1-1zm27 0v-1l-1 1c0 2 1 1 1 0zm37 0v-1l-1 1v1l1-1zm55 1 2-6v-3l1-5v-5l-1 2-2 2-1 2-1 7v5c1 1 1 2 2 1zm-1-3v-7l2-3v4a124 124 0 0 1-1 6h-1zm-174-2v-1 6-5zm39 3-1-1v2c0 1 0 1 0 0l1-1zm46 0v-2 4-2zm128 0 1-2v-1c-1-1-1 1-2 3 0 2 0 2 1 1v-1zm-210 1 1-1h-2l1 1zm12-1v1-1zm13 1h-1c-1 0 0 0 0 0h1zm96-1-1 1h1v-1zm71 1v-1 1zm25 0v-1l-1-1v-1 3h1zm15-1v-1l-1 1 1 1v-1zm-239 0a135 135 0 0 1 0-1l-1 1h1zm130-1 1-2h-1l-1 2v2l1-2zm58 2v-3l1-3 1-1 1-1-1-1-1 1v1c0 1-1 1-1-1h-1v8h1zm-166-2c0-1 0 0 0 0v1-1zm14 1v-1l-1 1h1zm16 0h-1l1 1v-1zm115-1 1-1v-1l-1-1v-1l-1 1v5l1-2zm-173 0v-1l-1 1 1 1v-1zm2-1h-1v2l1-2zm187 1 2-1h1a231 231 0 0 0-1-7l-1 2v3h-1c-1-1-1-1-1 2v2c-1 0-1 0 0 0l1-1zm59 1h-1 1zm-239-1h-1v1l1-1zm224-1h-1l-1 1v1l1-1 1-1zm-202 0h-1v1s0 1 0 0l1-1zm13 1v-1 1s0 1 0 0zm10 0v-1 2-1zm93-2v1h2l1 1v-6 1l-2 1-1 1-2 2v1l1-1 1-1zm52 0v-4l1-1 1 1c0 1 0 1 0 0l1-2c1-1 1 0 1 2l-1 2 1-2v-3h-2l-3 1v8l1-2zm-160 2v-1 1c0 1 0 0 0 0zm13-2v-3l-1 1v4l1-2zm144 1v-1 2-1zm-192 0v-1l-1 1h1zm13-1v-2c-1-1-2 0-2 1l1 3 1-2zm20 1v-1h-1v2l1-1zm40-1c0-1 0-1 0 0v1c0 1 0 1 0 0v-1zm17-1 3-10v-3l-1 1-1 3-1 3-1-1v-1h-1v-1l1-1 1-2 1-1h-2l-2 1v7l1 1 1-2v9l1-3zm112 2v-1l-1 1 1 1v-1zm-160-1v-1l-1 1 1 1v-1zm12 1v-2c0-1 0 0 0 0l-1 2h1zm161-1 1-3-1-2h-1v6l1-1zm34 0 1-1h-2l1 2v-1zm-245 1v-1l-1 1h1c1 0 0 0 0 0zm232-1v1-1zm-247 0c0-1 0 0 0 0h1-1zm34-1h-2c0 1 1 2 2 1v-1zm3 1c0-1 0 0 0 0s0 1 0 0zm196-1 1-2-2 3h1v-1zm-176 1-1-1-1 1h2zm26-2v-1 3-2zm-62 1c0 1 0 1 0 0zm29-1v-3 5-2zm12 1v-2l2-3-1-1-1 2-1 1v4l1-1zm98 0 1-2v2l1-1 1-2v-2l1-1v-1l1-1h1v-2h-1l-1 1v-2l1-3v-1l-1 1-1 3v2l-1 2v2l-1-1v-2l-1 1-1 2v6l1-1zm58-3v-1c-1 0-2 4-1 5v-2l1-2zm-204 1v-1 3-2zm168 1 1-1h-1v2-1zm75 1zm-257-2v2-2zm47 2v-2l1-3 2-1v-1c0-1-4 2-4 4v3h1zm193-1v-1l-1 1h1zm8 0-1-1h-1v2h1l1-1zm-242-1v-1 1l-1 1h1v-1zm198 1h-1v1l1-1zm-213-1-1-1v1l1 1v-1zm196 1v-4h-1v4h1zm-130 0-1-1v1c0 1 0 0 0 0h1zm-32-1v1-1zm23-1v1s0 1 0 0v-1zm50 0c0-2 0-2-1-1v3l1-2zm-66 1v-1 1zm12 0v-1l-1 1h1zm170-1h-1v1l1-1zm46 1v-1l-1 1h1zm-263-3v-1 1l-1 2v1l1-1v-2zm7 3-1-1v1h1zm35-1h-1l1 1v-1zm14 1-1-1v1h1zm12 0 1-3h-1v3zm114-1c1 0 2 0 2-2l1-2-1-2-1-1v-4l1-4 1 1v1l1 1v3l-1 2c0 2 1 2 1 0l1-3v-5l-2-1-1-3v-2l-1 2-1 7-1-1v3h-1v-2l-1-1v2l-1 1v-2l1-3v-3l-1-3v1l-1 4a19 19 0 0 0 0 6l1 1v2l1-1 1-2v2l1 1-1 1-1 1-1 4h2l1 1v1l1-1zm-3-3 1-1v1h-1zm74 3v-2l-1 1v2l1-1zm-255 0-1-1 1 2v-1zm5-3v-1l-1 3v2-2l1-2zm18 2h-1v1c1 1 1 0 1-1zm5 0-1-1v2l1-1zm7 1-1-1c0 1 0 2 1 1zm6-1c-1-1-1 0-1 1l1 1v-2zm24 0h-1v1h-1 1l1-1zm105 0v-1l-1 2v1l1-2zm52-2-1 1-1 2 1-1 1-2zm-162 3v-1l-1-1v1c0 1 0 2 1 1zm-43-1c1 0 0-1 0 0v1-1zm7 0c0-1 0 0 0 0v1-1zm24-1c0-1 0-1 0 0v2-2zm14 0 1-3v-10h-1l-1 4v3l1 1v1l-1 1v5l1-2zm177 1v-1l-1 1 1 1v-1zm6-5v-2l-1 2-1 5h1l1-5zm-9 4c0-1 0-1 0 0v1-1zm-240 0v1-1zm25 0v1-1zm24-1 1-2-2 1-1 1 1 1v1-1l1-1zm-37 1h-1 1zm23 0h-1v1l1-1zm5 0v1h1l-1-1zm21 0v1-1zm133-2v-5l-1 2v2l-1 2 1 1 1-2zm19 2v-1l-1-2v-2l-1 1v3l1 2 1-1zm-144-1 1-2v-2l1-1v4l2-1 1-1 1-1 1-3v-12 3l-1 3v4c0 3-1 4-2 3h-1v-1l-2-2v3h-1v-2l-1-1v7l1 3v-1zm-32 0-1-1v2l1-1zm17-1v1c0 1 0 1 0 0v-1zm-49 0v-1l-1 1h-1c0-1 0-1 0 0v1l2-1zm58 1h-1 1zm169-2h-1v1l1 1v-2zm11 1-1-1v2c0 1 0 1 0 0l1-1zm-223-2-1-1h-1l-1 1-1-1v-2l-1 2 1 1 2 1v2l1-1 1-2zm3 2h-1c0-1 0 0 0 0v1l1-1zm16-1-1 2h1v-2zm2 0h-1l1 2v-2zm33 1v-1 1c0 1 0 1 0 0zm154-1h-1l1 1v-1zm-185-1v-2 4-2zm154 0v-4h-1a4652 4652 0 0 1 1 4zm12 0v-4h-1l-1 1-1 3 1 1 1 1 1-2zm15-1c0-1 0 0 0 0l-1 2v2l1-2v-2zm1 1v2-2zm35 2v-1l-1 1h1zm-271-1v-2l-1-2v5l1-1zm23 0-1 1h1v-1zm18 1-1-1v1h1zm2-1-1-1v2l1-1zm27 0 1-3 1-5-1-3v1l-2 1-1 1-1 1h1l1-1h1v3l-1 4h-1v2l2-1zm158-1v-1l-1 2v1l1-2zm4 1c1 0 0 0 0 0v1-1zm14-1v-1h-1v3l1-2zm1 1v1-1zm-212 0v-1l-1 1h1zm31 0c0-1 0-1 0 0zm144 0v-2l-1-1v3h1zm-173-1h-1v1l1-1zm3 0v-3l-1 3v1l1-1zm18 0-1-1v2h1v-1zm5 0h-1v1h1v-1zm163 0h-1v1l1-1zm40-2v-1 3c-1 1-1 1 0 0v-2zm17 2c-1-1-1 0-1 1v-1h1zm-259 0v-1 2-1zm50-1 1-4 1-5-1-3v2l-2 8v2l1 1v-1zm178 0-1 1h1v-1zm-259 0v-1l-1 1v1c1 1 1 0 1-1zm40 0v-1h-1l1 2v-1zm14 1 1-1h-2l1 1zm-29-1v1-1zm214 0-1-1-1 2 1-1h1zm25 1v-1l-1 1h1c1 0 0 0 0 0zm-248-2c0-1 0-1 0 0v1c0 1 0 0 0 0v-1zm43 1v-1l-1 1 1 1v-1zm13 0v-1 2-1zm148-1v-3l-1 2-1 2h1l1-1zm42 0v-1 3-2zm13 1s0 1 0 0zm-261-1c0-1 0-1 0 0v1-1zm174 1-1-3-1 2 1 1h1zm91 0h-1 1zm-256-1v-3l-1 2v2l1-1zm45 0h-1v1l1-1zm8-1c0-1 0-2-1-1v3l1-2zm156-1v-2l-1 2v3l1-3zm4 2c0-1 0-1 0 0v1-1zm-217-1h-1v1c0 1 0 0 0 0l1-1zm26 1c0-1 0-2-1-1l-1 1h2zm254 0h-1v1l1-1zm-303-1v-5l-1 2-1 2v1l1 1 1-1zm14-1c-1-1-1 0-1 1v1l1-2zm18 1h-1v1l1-1zm22 0h-2l1 1 1-1zm139-2v-3h1l1 1c0 1 0 1 0 0h1l2-2v-2l-1 1h-1v-2l-1-1v3h-1l-2 1-1 2 1 2 1 2v1-3zm65 2v1-1zm22 0-1 1h1v-1zm6 1-1-1v1h1zm-244-1v-4h-1v5l1-1zm26 0 1-1v-1h-1l-2 3 1-1h1zm130 0h-1c-1 0 0 0 0 0h1zm-190 0v-1 1zm55 0 1-2v-1l-1 2v1h-1 1zm15 0h-1 1zm168-2-1 1v1-1l1-1zm42 2h-1 1zm-61-1v1-1zm-231 0h-1v1l1-1zm39 0v-2l-1 2h1zm-6-1v-1 2-1zm19 1-1-1v1h1zm23 0-1-1v-1 1c0 1 0 2 1 1zm6 0v-2l-1 1-1 1h2zm157 0v-1l-1-1v2h1zm-224-1v1-1zm11 0c0-1 0 0 0 0v1-1zm24-1v-3l-1 1v4l1-2zm175 2v-1h-1l1 1c1 0 0 0 0 0zm19 0v-3 3zm11 0-1-1v-1l-1 2h2zm17-3v-2l-1 4v1l1-1v-2zm-227 2v-1l-1 1 1 1v-1zm12 0v1-1zm176-1-1 1 1 1v-2zm13 1v1-1zm-190-1v1c0 1 0 0 0 0v-1zm15-1v-1l-1 2h1v-1zm6 2v-1h-1l1 1zm23-1v-2 3-1zm103 1h-1 1zm20 0-1-2v2h1zm11 0c0-1 0-1 0 0zm-202-2v2-2zm11 2 1-1h-2v1h1zm216-1v-1h-1l1 2v-1zm16 1v-1l-1 1h1zm-250-2v-1l-1-1-1 2v2l2-2zm36 1v-1l-1 1 1 1v-1zm12 0-1-1v2l1-1zm7 0v-3l-1 2v2l1-1zm182 0v-1 2-1zm7 0v1-1zm-205 0zm140-1v-1l-1 1c0 2 1 1 1 0zm-188 1-1-1c0-1 0-1 0 0v1h1zm211-1v-1l-1 1h-1l2 1v-1zm4-1v-2l1-3v-2l-1 2v7-2zm5-2-1-2v-1l-1 1 1 1-1 1v3h1l1 1v-4zm-182 3-1-2h-1l-1 1 1 1h2zm5 0h-1c-1 0 0 0 0 0v1l1-1zm5-2h-1v3-1l1-2zm-63 1h-1l1 1v-1zm11 0v1-1zm228-1-1-1v3l1-2zm16 1h-1v1l1-1zm-249 0h-1l1 1v-1zm32 0h-1l1 1v-1zm5 0h-1l1 1v-1zm31 0v-2h-1v3l1-1zm154 0c0-2-1-2-1-1v2l1-1zm14 1v-1l-1 1h1c1 0 0 0 0 0zm-203-1v-1 2-1zm7-2c0-2-1-1-1 1v1l1-2zm50 2 1-1-1-7v-2l1-4v-6h-1l1 1-1 2v3l-2 7-1 4 1-2 1-1v6h1zm-29-1 1-2v-3l-1-2-1 2v6l1-1zm15 0 1-2h-2v3l1-1zm16 1 1-1v-2l-1-2 1-2v-4l1-2v2l1 2h1l-1-7v-6h-1v2l1 2c-1 1-2 0-2-1v-2l-1 3a1001 1001 0 0 1 0 18zm106-3v-2 1l-1 3v1h1v-3zm21 2h-1v1l1-1zm52 1v-1 1zm-55-1-1-2v2c0 1 0 1 0 0h1zm-207 0h-1 1zm20 0v-1l-1 1h1zm19 0v-1l-1-1v2h1zm22-1-1 1v1l1-1v-1zm-68 1v-1l-1 1h1zm10 0v-1l-1 1h1c1 0 0 0 0 0zm12 0v-1l-1 1h1c1 0 0 0 0 0zm30-1-1-1-1 2h1l1-1zm154 0-1-1v1l1 1v-1zm36 0v1-1zm-162-2v-2 5-3zm200 2s0-1 0 0h-1l1 1v-1zm-261-1v-1 2-1zm37 1v-2l-1 2h1zm160 0h-1c0-1 0 0 0 0h1zm-211-1v1-1zm20 1v-7l-1 1a98 98 0 0 1 0 4v2h1zm4-2h-1v2h1v-2zm33 1 1-1c0 1 0 1 0 0l-1-1-1 2 1 1v-1zm188 1v-1l-1 1h1zm-179-1s0-1 0 0h-1l1 1v-1zm127 0c0-1 0 0 0 0zm-165 0h-1 1zm8-2v2-2zm8 2-1-1v1h1zm185-1-1 1 1-1zm-212-1c0-1 0-1 0 0v2-2zm30-1v-3l-1 1v5l1-3zm17 2h1-3l1 1 1-1zm8 0v1-1zm185 0-1-1v2l1-1zm26 1v-1l-1 1h1c1 0 0 0 0 0zm-214-2h-1l-1 1h1l1-1zm-63 0h-1l1 1v-1zm25 1v-1l-1 1h1zm7-1v1c0 1 0 0 0 0v-1zm150 0v1-1zm22-1h-3c0 1 0 2 1 1v1l1-1 1-1zm-225 1v1-1zm76-1h-1v2l1-2zm13 0v-2h-1v3l1 1v-2zm13 0c0-1 0-1 0 0v2-2zm96 0v-2l1-2-1-1v1l-1 1 1 4h1l-1-1zm64 2v-1 1c0 1 0 0 0 0zm-238-1c-1 0 0 1 0 0zm85 0 1-2v-2h-1l-2-4v-5l-1-1-1 1v9l1 2v1l1-1 1-2v2c0 3 0 3 1 2zm96-2 1-1v-2l1-1v1h1l-1-2h-2l-1 2v5l1-2zm64 1v1c0 1 0 1 0 0v-1zm18 1h-1v1l1-1zm-250 0h-1 1zm44-1v-1 2-1zm6 0v1-1zm172 1zm-233-2v-1h-1v3l1-2zm17 1h-1 1zm24 1-1-1v1h1zm143-1v-1c-1-1-2 0-2 1h1l1 1v-1zm27 0 1-1h-1v2-1zm19-1-1-1v3l1-2zm5 1-1 1h1v-1zm-201 0v-4l1-2h-1v1l-1 1v5l1-1zm219 0h-1v1l1-1zm-240-1v-1l-1 1 1 1v-1zm14-1v-3l-1-1 1-2v-1l-1 1-1 1v3l1 2v2h1v-2zm18 1c0-1 0 0 0 0v1-1zm8-1v-1l-1 1-1 1 1 1 1-2zm7 2-1-1v1h1zm115-2v-2h-1v4l1-2zm27 2-1-1-1 1h2zm18-1v1-1zm-197 0h-1l1 1v-1zm6 0v-1l-1 1h1v1-1zm9-1 1-1 1-1 1 1 1-3-2 1-1 1h-1l-1 2 1 2v-2zm-23 1h-1 1zm16-1v-1 2-1zm27 0 1-2v-3h-1l-1 6h1v-1zm123 1h-1 1zm67 0v-1l-1 1h1c1 0 0 0 0 0zm-224-1h-1l-1 1h2v-1zm165-2h-1v3l1-1v-2zm-140-1-1-2v1l-1 3v2l1-1 1-3zm157 3 1-1-1-1-1 1 1 1zm-145-4 2-7v-2l1-3-1-1v1l-1 4h-1v-1l-1 1v1l1 1v2a147 147 0 0 0-1 8l1-4zm5 3v-4h-1l1-4v-10 1l-1 1-1 3 1 3-1 3-1 3-1 3h1v-1h1l1-1v4l1-1zm110-2 2-6v-2l1-2v-1l-1 2-3 5-1 1 1 1 1 4v1-3zm15 1v-1h-1v3l1-2zm40 2v-1l-1 1h1c1 0 0 0 0 0zm-238-2c0-2-1-2-1-1l1 3v-2zm30 0-1-2v4l1-2zm-3 1h-1 1zm164 0c0-1 0-1 0 0zm-128-1v-1l-1 1h1zm139 0 1-4-1-2v2l-1 2v3l1-1zm-179 0v-1 2-1zm39-1-1 1c-1 1-1 1 0 0l1-1zm-4 1v-1l-1 1h1zm117-1h-1v1s2 0 1-1zm-148-1v-1c0-1 0-1 0 0v3-2zm10 1v-1l-1-1v2l1 1v-1zm-18-3c0-2-1-3-1-1v4l1-3zm12 3v1-1zm20-1v-2l-1 2v1l1-1zm40 1v-1h-1l1 2v-1zm178 0h-1l1 1v-1zm-265-1h-1v1l1-1zm39 0v1-1zm17 0c0-1 0 0 0 0l-1 1 1-1zm131 0v1-1zm24 0h-1v1l1-1zm4 1v-1l-1 1h1c1 0 1 0 0 0zm-209-1v-1 2-1zm206 1v-1 1c1 1 0 0 0 0zm-35-2h-1v1l1-1zm113 1-1-3-1 1-1 2h3zm-249-1 1-2-1-3h-2v3l1-1 1 2v2-1zm154 1-1-3v3h1zm-212-2v-1l-1 1 1 1v-1zm26 1-1-1v1h1zm27-1v-1h-1v2l1-1zm14 1v-4 1l-1 2-1 1h2zm4-1c1-1 0-1 0 0v1-1zm174 1v-1 1c0 1 0 0 0 0zm-209-1v1-1zm9 1-1-1v1h1zm160 0v-2l1-1v2l1-1v-2l-1-6-1-2v4l-1 4-1 1 1 3h1zm92 0v-1l-1 1h1zm-253-2h1v-2h-2v4l1-2zm155 1v-1h-1v2l1-1zm-202-1v-1l-1 1 1 1v-1zm22 1zm19-1v-1 2-1zm23 0-1-1v2l1-1zm13-1-1 1v2-2l1-1zm3 1c0-1 0-1 0 0l-1 1 1-1zm11-5-1-3-1 2v2l1 2v3-1l1-5zm176 6c-1 0-1 0 0 0zm-269-1v-2l-1-1-1 2v1l1-1v1h1zm23 0-1-2v3l1-1zm51 0zm132-1v1c0 1 0 1 0 0v-1zm-166 0v-1h-1v2l1-1zm27 0v-1 2-1zm18 0-1-1v2l1-1zm3 0v1-1zm98-1v-2c-1 0-2 3-1 4l1-2zm41 1v-2l-1 1v2l1-1zm-208-1 1-2h-1v3-1zm61 0v1c0 1 0 1 0 0v-1zm-55 1v-1l-1 1h1zm10-1 1-1h-1l-1 1-1 1h1l1-1zm233 0h-1l1 1v-1zm-215-1-1-1v2c0 1 0 1 0 0l1-1zm3 2v-1l-1 1h1c1 0 0 0 0 0zm20-2v-2 3-1zm217 2-1-1 1 1zm-287-1h3c2 0 2 0 1-1h-5l-1 1 1 1 1-1zm23 0v-1h-1c0 1 0 2 1 1zm16 0v-1 2-1zm25-2v-2l1-1-1-1-1 2v5l1-3zm161 2v-1l-1 1v1l1-1zm3-1v-3l-1 2v2l1 1v-2zm-220 1h-1 1zm18 0v-2l1-1h-1l-1 3h1zm26-1v-1h-1v2l1-1zm20 0v-2 1l-1 2h1v-1zm5 1v-1l-1-1v2h1zm6 0-1-1v1h1zm95-1-1-1v1l1 1v-1zm8-1 1-2 1-1-2 1-1 2 1 2v-2zm-169 1v-1l-1-1v2l1 1v-1zm43-1-1-1-1 1 1 2 1-2zm6 1h-1v1l1-1zm-31 0v-1h-1l-1 1h2zm188 0v-1 1zm54-1v1c-1 0 0 0 0 0v-1zm-286-1h-1v1c0 1 0 1 0 0l1-1zm30 1v-1 2-1zm190 0v-1h-1l-1 1 1 1 1-1zm96 1c1-1 0-1-1-1s-2 0-1 1h2zm-86-1-1-2-1-3-1-3v3l1 3v2h2zm40-1v1c0 1 0 0 0 0v-1zm-241 1v-1l-1 1h1c1 0 0 0 0 0zm55-3h-1l-1 2h1l1-2zm0 2v1-1zm177 0v1c0 1 0 0 0 0v-1zm-214 0 1-2h3l-1-1-1-2c0-1-1-2-2-1l1 1v2l-2 2h-1l2 2v-1zm24 0-1-2v3l1-1zm141 0v-1l-1 1h1zm79 0h-1c-1 0 0 0 0 0l1 1v-1zm-233 0h-1 1zm7 0v-4h-1v1l-1 2v1h2zm10 0c1 0 0-1 0 0zm-34-1-1-1v1a290 290 0 0 0 1 0zm8 1-1-1v1h1zm30-2-1 1v1l1-1v-1zm222 2-1-1v1h1zm-288 0v-1 1zm4-1h-1v1l1-1zm11-2v-2 1l-1 3h1v-2zm15 2v1-1zm43 0v-2l-1-1v4l1-1zm34 0v1-1zm-88 0v-6l-1 3v3h1zm27-1v-1 2-1zm28 1c0-1 0-1 0 0 1 0 1 0 0 0zm14 0h1l-2-1-2 1h3zm-101-1-1-4v5l1-1zm62 0v-2l1-1-1-1-1 2v3l1-1zm5 0h-1v1l1-1zm-44 0-1 1 1-1zm13 0h-1v1l1-1zm8-1v-2 1l-1 3 1-2zm10 1 3-2 3-2h-1l-1 1-2 1-1-1-1-1v2l-1 1v1h1zm-34 0v-2l1-3 1-1v-1h-1l-1 1-1 6h1zm56-1-1-1v2l1-1zm162 1-1-1v1h1zm16 0v-1l-1 1h1zm9 0h-1 1zm-31-1h-1v1l1-1zm14 0v1-1zm12 1h-1 1zm-189-1c0 1 0 1 0 0zm58 0 1-1v-1l-2 1v1c0 1 0 1 0 0h1zm69 0 1-2-1-2-1 2v2h1zm119 0-1-1v2l1-1zm-301-1v-1l1 1v1-1l-1-2-2 1 1 2h1v-1zm12 0v1-1zm9 0-1 1h1v-1zm17 1v-1l-1 1h1c1 0 0 0 0 0zm16 0-1-1v1h1zm4 0v-1h-1l-1 1h2zm8 0h-1 1zm2-1 2-1h1l-1-1-2 1-1 2 1-1zm7 0-1-2-1-1h-1l1 1v1h1l1 1v1-1zm160 1-1-1v1h1zm-232-2v-2 4-2zm61 1h-1c-1 0 0 0 0 0v1l1-1zm132 1v-1 1zm-180-1h-1l1 1v-1zm12 0v1-1zm59 0h-1v1l1-1zm111-1s0-1 0 0v1c0 1 0 1 0 0v-1zm51 1h-1l1 1v-1zm-216 0v-1l-1 1h1zm21-1v-1h-1l-1 1 1 1 1-1zm168 0 1-1v-2l-1 1-1 1v2l1-1zm-72 0-1-4h-1l-1 1 1 1v2l1 1 1-1zm14-1v-2l-1 2 1 2v-2zm7 1-1-1v2l1-1zm-16 0v-1l1-3 1-3-2 3v1l-1 2c0 2 0 2 1 1zm14-1-1-2-1 2 1 1 1-1zm-144 1-1-1-1 1h2zm4-1-1-1-1 1h2zm38-1-1-1v3l1-2zm106 2-1-1v-1l1-2-1-2-1 2 1 4h1zm84-1v1-1zm14 0c1 0 1 0 0 0v1-1zm-258-2-1-1v3l1-2zm44 2h-1 1zm8 0h-1v1l1-1zm91 0v-1 2-1zm50 1 1-1h-2l1 1zm14-1h-1v1l1-1zm16-1-1-1-1-1v1h-1l-1 1v1h2l2 1v-2zm46 0-1 1h1v-1zm-273 1v-1h-1v1h1zm12-2 1-3v-1h-1v6-2zm39 1h-1v1l1-1zm77-1-1-1v3l1-2zm-117-1v-2l-2-1v1l1 1v4l1-3zm31 2-1-1v2l1-1zm12-1h1l2-1 1-1 1-1 1-1v-1l-2 2c-1 1-3 2-4 1l-1 4 1-2zm5 1v-1h-1v1l1 1v-1zm62 0v-3l-1 2 1 2v-1zm170 0h-1v1l1-1zm-286-1 1-1 1-1 1-1-1-1h-1l-1 1v4-1zm23 1h-1 1zm202 0-1-2 1 2zm-228-1v-1l-1 1h1zm37 1-1-1-1 1h2zm9 0-1-3-1-2v4l1 1h1zm95 0v-1l-1 1h1c1 0 0 0 0 0zm43-1c-1-1-1 0-1 1l1-1zm-204 0c1 0 1 0 0 0v1-1zm42 0-1-1v1h1zm37 0h-1l1 1v-1zm62-1-1 1h1v-1zm-102 1-1-1v1h1zm8 0v-1h-1l1 1zm114-1v-3h-1v3l1 1v-1zm116 1-1-1v1c0 1 0 0 0 0h1zm-215-1h-1v1l1-1zm110-2v-2l-1-3v-2 10l1-3zm7 2v-1l-1 1 1 1v-1zm80-1v-1l-1 2 1-1zm-257 0v1-1zm58 1 3-5-1-1h-1l1-1v-2l1-1 1-1-2 1-1 4-1 3-1 2-2 1h3zm127-1v-1h-1v2h1v-1zm15 0-1 1h1v-1zm28 1v-1l-1 1h1zm50 0v-1l-1 1h1zm-272-1-1-1c-1 0 0 0 0 0l1 2v-1zm183 0-1-1v2l1-1zm96 0v-1l-1-1-1 1 1 2 1-1zm-276 0 2-1h3c1-1 0-1-3-1-4 0-4 1-4 2l1 1 1-1zm27 0h-1l1 1v-1zm15 0h-1v1l1-1zm81 0v-1 1zm43 0h-1l1 1v-1zm-143 0v-1h-2l1 1h1zm129 0v-2 2zm11-1 1-2 1-2v-1l-1 1v1l-2 4 1-1zm59 0v-10h-1l-1 1 1 10 1-1zm-86-2-1-3v-4 2l-1 2h-1v1h2v5l1-3zm-126 2h-1 1zm50 0v-1l-1 1h1zm58 0v-2 1l-1 1h1zm-74 0 1-2v-2l-2-1-2 1 1 1h1v3h1zm151-1v1-1zm43 1v-1h-1v1h1zm-190-1h-1l1 1v-1zm211 0v-2 3-1zm24 0v-1l-1 1h1zm-294 0zm106-2 1-2h1-6v1h3l1 1a61 61 0 0 1 0 2v-2zm34 2v-1h1c0-1 0-6-1-5v2l-2 2v1l1 1c0 1 0 0 0 0h1zm72 0h-2 2zm68 0-1-1v1h1zm-260 0v-1l-1 1h1zm173 0v-2l1-1v-1l-1 1-2 1-2 1v-2 1l1 2h3zm12-1v-1l-1 1 1 1v-1zm68 1v-1 1zm-203 0-1-1v1h1zm12-1 1-1 1-1h-1v-3l1 1h2v1l-1 3 1-1 1-2 5-6 1-4 1-3v-6l-2-10-1-3-1 1-3 5-3 5v-2l1-1 3-6 1-2v-1a29 29 0 0 0-7 12l1 4v-1l2-2 2-3 2-3 1-2 1-1v3l-2 2-3 4-2 4-1 3 3-3 3-4 1-1v1l-3 4-3 5-1 2v2l2-2 5-7 2-2-1 1-3 7-3 3-1 3-1 1-1-3-1-8v-6l-1-7v-4c-1-1-1 0-1 1l-1 1 1 4v26l1 1 1 1h1zm4-7 2-4 4-4-1 2a435 435 0 0 0-5 6zm24 7h-1l1 1v-1zm15-2 2-4h-1l-1 2-2 4c1 1 2 0 2-2zm11 1-1-1v2h1v-1zm19 1v-1l-1 1h-1v-3l-1-1v3l1 1h2zm62 0h-1l1 1v-1zm-203 0-2-1c-2 0-3 1-1 1h3zm36 0-1-1v1h1zm38-2-1 1v1h1v-2zm33 2v-1l-1 1h1zm57-2v-1l-1 1 1 2v-2zm94-1v-6h-2v1l1 2v2l1 4v-3zm-264 3v-1l-1 1c0 1 0 0 0 0h1zm18 0-1-1-2 1h3zm139-1h-1 1zm80 0v-2 3-1zm-112 0v-2l-1 1-1 2h1l1-1zm-24 0h-1 1c1 0 0 0 0 0zm-108-1-1 1h1v-1zm22 1 2-1h-2l-4 1h4zm138-2v-2l1-1-1-1v-3l-2 7 1 2 1-2zm-149 1h-1v1l1-1zm106 0h-1s0 1 0 0h1zm2 0 1-2v-1l-1 1-1 2h1zm53 0v-3l-1-3c-1 0-2 1-1 2h1l1 3v1zm29 0v-1 1c-1 0 0 0 0 0zm79 0v-1h-2l1 1h1zm-285-1v-1l-1 1v1l1-1zm47 1v-1l-1 1h1zm17-3v-4l-1 5v2l1-3zm160 2c0-1 0 0 0 0v1-1zm-220 0h-1c-1 0 0 0 0 0l1 1v-1zm12 0-1-1-2 1h-2 5zm78 0h-1l1 1v-1zm13-1 3-1v-1l-3 1h-3l-1 2v1l1-1 3-1zm27 1c0-1 0 0 0 0s0 1 0 0c1 0 1 0 0 0zm33 0-1-1v1h1zm2-1 1-1-1-1v3-1zm15 1v-1 1zm64-1 1-1v-4l-1-1-1 3a4861 4861 0 0 1 1 3zm-132 0 1-2-2 2c0 2 0 1 1 0zm15 0v1-1zm42 1-1-3v2l1 1zm22-1-1 1h1v-1zm-147 1s0-1 0 0c-1 0 0 0 0 0s1 0 0 0zm94-1v-1l-1 1 1 1v-1zm50 0 1-1-1-1v3-1zm35 0v1-1zm5 0-1 1h1v-1zm-93-2v-1l-1 2 1 1v-2zm69 1v-2l-2 1 1 2 1-1zm-168 0v-1l-2 2 2-1zm5 0 2-1h-2l-2 1-1 1 3-1zm221-1v-1l-1 1 1 2v-2zm-236 1v-2l-2 2h2zm20 0h-1c0 1 0 0 0 0h1zm172 0h-1c-1 1 0 0 0 0h1zm-186 0v-1l2-1v-1l-1 1-2 2h1zm153 0-1-1v1c0 1 0 0 0 0h1zm22 0v-2l-1 1-1 1h2zm-189-1H26l5 1 5-1zm58 0-1-1-1 1 1 1 1-1zm47 0c0-1 0-1 0 0v1-1zm132-1h-2v1h1l1-1zm-15 1-1-1v1h1zm-122-1h-1l1 1v-1zm163 1v-1l-1 1h1zm12-1h-1l1 1v-1zm-298 0h-1l1 1v-1zm28 0h-2l1 1 1-1zm78 0h-1v1l1-1zm94 0v1-1zm94 0h-1 1zm-231 0-1-1v1h1zm57-2-1-2v4l1-2zm17 1v-1l1-2v-2l-1-1-1 1v6l1-1zm7 1v-1 1zm140-1v1-1zm-241 1-1-1v1h1zm119-3v-3l-1 1v2l1 3v-3zm20 2h-1v1l1-1zm-166 0h-4l2 1 2-1zm2 0h-2 2zm176 0h1v-1l-1-1c0-1 0-1 0 0l-2 1v2l1-1h1zm30 0v1-1zm39 0c1-2 0-2-1-2v3l1-1zm-140-1v-2l-1-1v-1l-1 1v4l2-1zm48 1h-1 1zm-168-1h-1l1 1v-1zm148 0h-1c0-1 0 0 0 0l1 1v-1zm39 0v1-1zm-165 0h-1s-1 0 0 0v1l1-1zm49 0v1-1zm37 0c-1-1 0-1 1-1l1-1v-2l-1 1-2 1-1 1v1h2zm102 0h-1 1zm9 0h-1l1 1v-1zm64-3h-1v3c1 1 1 1 1-1v-2zm-238 2h-1v1l1-1zm12 0v-3h-1v4l1-1zm93 1-1-1v1h1zm35 0v-1h-1l1 1zm58-1v-1h-1v2l1-1zm-165 0-1-1-1 1 1 1 1-1zm130 0v-1l-3-1v1h1l1 1v1l1-1zm-196 0h1-4 3zm7 0h-3 3zm112-1v-1l-1 1v2l1-1v-1zm12 0v-3l-1 1v3l1-1zm34 1h-1 1zm3 0v-2l-1 1c0 2 1 2 1 1zm-65-2-1-3v-1l-1-1 1 6v1l1-2zm68 1-1 1h1v-1zm-136 0v1-1zm-50 0v-1 1c0 1 0 0 0 0zm158 0v-1 1zm2-2v-1l-1 2 1 1v-2zm78 1-1 1h1v-1zm60-1h-2v1l1 1v1l1-1v-2zm-143 1h-1v1c0 1 0 0 0 0l1-1zm156 0v1-1zm-277-1 1-1 1-1 1-1h-3v2h-1l-2 2 1 1 2-2zm10 1c1 0 1 0 0 0h-1 1zm24 0v1-1zm120 0 1-1-1-1v1l-1 1 1 1v-1zm87 0h-2l1 1 1-1zm-251 0h2l2-1 1-1h-5l-6 1h-2c-2-1-5 0-4 1h12zm12 0h-1 1zm5 0h-2 2zm183 0h-1 1zm25 0h-1 1zm-58-1v-1l-1 1 1 1v-1zm-47 0h-1v1l1-1zm27-1-1-4v6l1-2zm-3 1-1-1v-1l-1 2h2zm28 0-1-1v1h1zm13-1v-3 1l-1 1 1 2v-1zm76 0v-3l1-2h-1l-1 3 1 3v-1zm-217 0h-1l1 1v-1zm67-1-1-1-1 1v1c1 1 2 0 2-1zm65 1h-1l1 1v-1zm64 0h-1v1l1-1zm-150-1v-1l-1 2c1 1 1 0 1-1zm154 1h-1 1zm-211-1h-2l1 1 1-1zm123 0s0-1 0 0l-1 1 1-1zm-129 0 3-1h-6l-2 1c-1 1-1 1 0 0h5zm22 0-1-1-4 1h5zm71-3-1-4v7h1v-3zm-112 3v-1h-2l-2 1h4zm8 0v-1l-3 1h3zm159 0v-1l-1 1h1c1 0 0 0 0 0zm3 0h-1 1zm65 0-1-1v1h1zm-267-1h-1v1l1-1zm125 0v-1l-1 1 1 1v-1zm29 0v-3l-1 1 1 3v-1zm24 0v1-1zm3 0c0-1 0 0 0 0v1-1zm4 0-1-1v2l1-1zm41 0h-1v1l1-1zm12 0c0-1 0 0 0 0v1-1zm7 0h-1l1 1v-1zm10 0v1-1zm19 0h-1l1 1v-1zm24 0h-1l1 1v-1zm-194 0h-1 1zm159 0h-1 1zm-243 0v-1h-8l2 1h6zm119-1v-8l-1-2-1-3v-1 7l1 1v7l1-1zm21 1v-1l-1 1h1c1 0 0 0 0 0zm14-1h-1v1l1-1zm19 0v-2l-1 2 1 1v-1zm31 0-1-2v3l1-1zm29 1-1-1v1h1zm-141-2h-1v1l1-1zm6 1-1-4v-2l-1-1 1 6v1h1zm154 0h-1 1zm42 0 1-2 1-1h-1l-2 2 1 1zm-157 0v-2 2zm-37-1h-1 1zm2 0h-1l1 1v-1zm42-1v-2 4-2zm26 2-1-1v1h1zm11 0-1-2v2h1zm51-3-1 1-1 1 2-2zm47 2v1-1zm-261 0h1v-1h-5l2 1h2zm87 0v-6l-1 4 1 2zm134 0v-5l-1 1v2l1 2zm-233 0c-1 0 0 0 0 0s1 0 0 0zm15 0v-1 1zm23-1 1-2v-1h3l1-1h1-7l-1 2 1 2v1l1-1zm13 1-1-1-1 1h2zm69-1v1-1zm86 1-1-1v1h1zm31-1 1-2-1-2h-1v1l1 4v-1zm2 1-1-1 1 1zm12-1-1-1v-1l-1-3v4l1 2h1v-1zm-95 0v-1l-1 1h1zm21-1v-2 2l-1 1v1l1-2zm35 1v-1h-1c0 2 1 2 1 1zm57-1v-1l-1-1v3l1-1zm-279 0h1l1-1h-2l-3-1-2 1v1l1 1 4-1zm175 1-1-1v1h1zm35-1v1-1zm-123 1v-1 1zm2 0v-1l-1 1c0 1 0 0 0 0h1zm4 0v-1l-2 1h2zm77-2-1-1v3l1-2zm24 2v-1h-1l1 1c1 0 0 0 0 0zm-97-1-1-2v1l-1 1 1 1 1-1zm59 0-1-1c0 1 0 2 1 1zm11 0v1-1zm63 0h-1l1 1v-1zm41 0-1-1v1h1zm-287-1v1-1zm101 0h-1l1 1v-1zm-80 1 1-1h-2v1h1zm18-1h-4l1 1 3-1zm129 0v-4l-1 3-1 2 2-1zm25 0h-1l1 1v-1zm60 0v1-1zm-219 0h-3 3zm81 0v-1l-1 1h1zm37 0v-1l-1 1h1zm43 0h-1l1 1v-1zm10 0v1-1zm47 0h-1v1l1-1zm-251 0v-1 1zm263-1v1h1l-1-1zm-48 0-1-1v2l1-1zm8-1v-1 3-2zm-48 0v-1l-1 1c0 1 0 2 1 1v-1zm15 0v-2l-1 1v2l1-1zm48 0 1-2v-1h-1v1l-1 2-1 1h1l1-1zm15 1v-1 1zm31 0c0-1 0 0 0 0s0 1 0 0zm18-1v-2l-1 2 1 1v-1zm-92 1-1-1v1h1zm41 0-1-1-1 1h2zm6 0-1-1v1h1zm-112-7v-7l-1-6v-5l-1-3a96 96 0 0 0 1 13l1 14c1 1 1 0 1-1l-1-5zm61 5v-1l-1 1-1 1h1l1-1zm90-4v-5l-1 2-1 6v1l1 1h1v-5zm-276 4h-5l1 1h2l2-1zm7 1 4-1-1-1h1l1-1h-6c-1 0-3 0-2 1h4l-4 1-3 1h6zm29 0-1-1-3 1h4zm67-1v-2l-1 1-1 2 2-1zm149 0 1-1 1-1v-1c0-2 0-2-1-1l-1 2v2h-1 1zm-198-1v1-1zm32 1h-2 2zm50 0-1-1v1h1zm5-1-1-1v1l1 1v-1zm54 1v-3l-1 1-1 2h2zm68 0-1-1v1c0 1 0 0 0 0h1zm-226-1h-1 1zm11 0h-3l1 1 2-1zm44 0-1-2h-1v2l1 1 1-1zm175 0c0-1-1 0 0 0 0 1 0 1 0 0zm-83 0v-1l-1 1h1zm6-1v-2h-1v3l1-1zm54 1-1-1v1h1zm-227-1h2l-2-1-3 1v1h1l2-1zm26 1-1-1 1 1zm56-2-1-2v3l1 1v-2zm130 1-1-3v2l1 2v-1zm-227 0h-3l1 1 2-1zm50 0v-1l-2 1h-1l2 1 1-1zm94-1h-1v1c0 1 0 1 0 0l1-1zm12 1v-5 5c0 1 0 1 0 0zm-135 0 1-1-2 1h1zm208 0 1-1-1-1-1 1v1h1zm59 0h-1 1zm-258-1h-3 3zm49 1-2-1h-1l1 1h2zm-90-1-1-1 1 1zm2 0-1-1v1h1zm50-1v-4h-1l-1 3v2l2-1zm53 0h-1l1 1v-1zm90 1v-9c0-1 0 0 0 0l-1 3-1 4 1 2h1zm18 0v-1 1zm31-1v1-1zm-169 0 2-4 2-3h-1l-2 3-2 4 1 1v-1zm27-2c0-4 0-4-1-3l1 5v1-3zm43 2-1-2v3l1-1zm34-1v-2l-1 2v2l1-2zm36 1h-1v1l1-1zm76 0h-1l1 1v-1zm-178-2v-3h-1v5l1-2zm39 1zm122 1v-1l-1 1h1zm-263 0-1-1-1 1h2zm34 0 1-1-2 1h1zm12-1h7l1-2-1-3v-3l2-4h1-5l-2 1h-2c-1 1-1 0-3-1l-2-1-2 2v4l1-2v-2h1v9l1 2 2 1 1-1zm117-1v-1 3-2zm52 2v-2h-1v2h1zm-134-1 2-1h2l1 1 1 1 1-1-1-1v-1l1-2-1-4v-4l1-1-2-1-3-1v2h-2l-2 1v2l1 4v6l1 1v-1zm5-13h1l-1 1v-1zm-77 13h-1 1zm7 0h-2 2zm2-1h-1v1l1-1v1-1zm-42 0-1 1 1-1zm167 0h-1v1l1-1zm-121 0h1l-2-1-1 1h2zm128 0v-1l-1 1 1 1v-1zm21-1-1-1-1 2 1 1 1-2zm7 1-1-1v2l1-1zm50-1-2 1h1l1-1zm13 1h-1v1l1-1zm-143-1-1-2v1l1 2v-1zm54 1v-1l-1 1h1zm-150-1v1-1zm24 0h-1v1c-1 0-1 0 0 0l1-1zm4 1-1-1v1h1zm25-3v-2 5-3zm147 3v-1h-1l1 1zm18 0v-1l-1 1h1zm23-1v1-1zm13 1h-1c-1 0-1 0 0 0h1zm-266-1 2-1 2 1c1-1 1-1-1-1l-3-1h-2v3l2-1zm22 0-1-1h-1l-1 1h3zm5 0-2-1-1 1c0 1 0 0 0 0h3zm201-1h-1v1c0 1 0 1 0 0l1-1zm11 1v1-1zm-136-1v-1l-1 1 1 1v-1zm23-4v-3l-1 2v4l1 1v1-5zm23 5-1-1v1h1zm50-1-1 1 1-1zm-189 1-2-1c-1 0-2 0-1 1h3zm1-1-1 1h1v-1zm6 1v-1l-1 1h1zm70-2v-2h-1l-1 4h1l1-2zm128 1v1-1zm53-1-1-1v3l1-2zm-237 1c0-1-1 0 0 0 0 1 0 1 0 0 0 0 1 0 0 0zm-16 0h-1 1zm15 0h-1 1zm44-1 1-1-1-1-1 3 1-1zm93 1 1-1-1-2-1-5v-3 3l-1 3v3l1 2h1zm45 0v-1 1zm15 0h-1 1zm-237-1v1-1zm182-5v-3h-1v9l1-2v-4zm5 5-1 1h1v-1zm72 0v-2l-1-1v4l1-1zm-11 0h-3l1 1 2-1zm-241 0v-1l-1 1h1zm35 0-1-1v1h1zm91-2v-1l-1 1 1 2v-2zm31 1h-1l1 1v-1zm26 0v-2 3-1zm59 1v-1c0-1 0-1 0 0v1zm-232-1h-1l1 1v-1zm98 0h-1l1 1v-1zm-66 0v-1h-2v1h2zm64 0 1-3 2-2v-1l1-1 1-1v-2l-1 1-1 1h-1l-1 2v1l-1-2v-1h-1l-1 2h1v4l1 2zm41 0v-1 1zm43 0-1-1v1h1zm4 0zm-169 0-1-1 1 1zm193-3-1 1v1h1v-2zm73 2h-1v1l1-1zm-111-2 1-2-1-1-1 3v2h1v-2zm36 1v-4l-1 3-1 2h-1 1l2-1zm29 0v-1l-1 1v1l1-1zm-231 1v-1l-1 1h1c1 0 0 0 0 0zm127 0v-3 3zm146-1v1-1zm-208 0h-2l1 1 1-1zm31 0-1-1v1h1zm85-4-1-5v-1l-1 3v7h1l1-4zm32 4v1-1zm13 0 1-1 1-1-1-1-1 1-1 2h1zm-76-2-1-2-1 3v2l1-1 1-2zm79 2-1-1v1h1zm-87-1-1 1h1v-1zm46 0h-1l1 1v-1zm30-1h-1v2l1-2zm-162 0v-1h-2v3l2-2zm57 0-1 1h1v-1zm58 0c0-1 0 0 0 0v1-1zm85 0c0-1 0-1 0 0v1c0 1 0 1 0 0v-1zm38 0-2 1h2v-1zm-161 0v-18h-2l-1 1 1 1 1 2v4a46 46 0 0 0 0 11l1-1zm147 0c0-1 0-1 0 0v1-1zm-254 0v-1h-2l-3-1h-7v1h3l4 1h5zm104-3-1-3v6c0 1 0 1 0 0l1-3zm-100 3h-2 2zm70-2 2-3 1-2h-1l-2 4-1 3 1-2zm83 1-1-2v1l1 2v-1zm57 1v-1 1zm-242 0v-1l-2 1h2zm76 0 1-1h-3v1h2zm164-1-1-1v2l1-1zm-140 0v1-1zm59-1v-1l-1 2 1 1v-2zm58 0v-1 2-1zm-203 1v-1l-3-1-4 1-1 1 6-1 1 1h1zm100-2-1 1 1 1v-2zm26-1-1-5v8l1-3zm66 2v1-1zm70 0c0-1 0-1 0 0v1-1zm-273 0c1 0 1 0 0 0h-1c-1 0-1 0 0 0h1zm60 1h-1 1zm115-1h-1v1l1-1zm38 0-1-1v2l1-1zm-144 0h-1 1zm57 0v-2 2c0 1 0 1 0 0zm16 0s0-1 0 0h-1 1zm136-1h-1v1c0 1 0 0 0 0l1-1zm-177 1v-1l-1 1h1zm83-3zm17 1v-2l-1 2 1 1v-1zm26 1v-1 1zm13-1v-1 2-1zm-247 0v1-1zm156-2v-5a77 77 0 0 1-1-12l-1 1v11l1 4v3l1 1v-3zm16 2v-2l-1 2 1 1v-1zm69 0h-1v1l1-1zm46 1v-1l-1 1h1c1 0 0 0 0 0zm-212-1-1 1 1-1zm6 0-1-1h-2l-1 1h2l1 1 1-1zm151 0h-1l1 1v-1zm-193-1h-1v1l1 1v-2zm124 0v-1 2-1zm18-1-1-2v4h1v-2zm79 2v-1 1c0 1 0 0 0 0zm-174-1h-2l1 1 1-1zm63 0h-1l1 1v-1zm-29-1-1-2v3l1-1zm26 1-1-1 1 1zm21 0v-2l-1-1v3h1zm43 0 1-2h-1v2zm57 0-1-1h-1 1v1h1zm12 0c0-1 0-1 0 0zm-161-1v-1l-1 1 1 1v-1zm127-1h-1v1l1 1v-2zm-180 1h-1v1l1-1zm157-1v-2l1-1h-1l-1 1-1 1v2l1 1 1-2zm36 1h-1 1zm-254 0v-1 1zm5 0v-1c-1 0 0 0 0 0h-1v1c0 1 0 0 0 0h1zm42-1h1a65 65 0 0 0-8 0l4 1 3-1zm205 0v-1h-1l1 2v-1zm-242 0-1-1v2l1-1zm134-1v-1 3-2zm58 1h-1l1 1v-1zm26-1v1c0 1 0 1 0 0v-1zm3 0-1-1v2h1v-1zm-178 1h-1 1zm77-1-1-1v1h1zm39 1v-1h-2v1h2zm76 0v-1 1zm28 0v-1l-1 1h1zm-238-1h-1v1l1-1zm190 0h-1v1l1-1zm58 0v-2l-1 1v2l1-1zm-184 0h-1 1zm59 0v-1 1c0 1 0 1 0 0zm132 0h-1 1zm-210 0 2-1h-4l-1 1h3zm6 0v-1l-1 1h1zm15-1h1l-1-3h-2l-2 2h2l1 1v1l1-1zm78 0v-1 2-1zm25 1a93 93 0 0 0-1-6v6h1zm40-1h-1v1l1-1zm-229 0-1-1v2l1-1zm13 0h-1c-1 0-1 0 0 0h1zm3 0h-1v1l1-1zm45 0c1 0 1 0 0 0h-2 2zm-43-1h-1c-1 0-1 0 0 0l1 1v-1zm124 0c0-2 0-3-1-2v3l1-1zm-166 1v-1l-1 1h1zm102-1h-1l1 1v-1zm48 1 1-1-1-2v3zm27-1v-1h1l1 1v-2l-1-4-1-1-1 3 1 5v-1zm61 0v-1 2-1zm22 1v-1 1zm26-3-1-2v5l1-3zm-276 2c1 0 1 0 0 0h-2v1l2-1zm9 0h1l1-1h-4l-2 1h1l2 1 1-1zm172-1 1-3v-1h-1v6-2zm108 1v-1l-2 2 2-1zm-247 0-2-1-1 1h3zm74 0v-1l-1 1h1c1 0 0 0 0 0zm12 0v-2c0-1 0-1 0 0l-1 2h1zm4 0-1-1v1h1zm-80-1h2l-2-1h-2l-1 1s0 1 0 0h3zm12 0-2-3-4-2h-2l-1-1 2 2 2 2 2 1v1h-2l3 1 2-1zm18 0-3-1-2-2-2-4-1 1 3 5 3 1 1 1 1-1zm48 0v-1 2-1zm9 0a78 78 0 0 0-1-7l-1 5 1 3 1-1zm38 0v-1l1-2v-2l-1 1-1 4h1zm48 0h-1l1 1v-1zm7 0s-1 0 0 0v1-1zm-243 0h-1 1zm31 0h-2 2zm48 0h-2 2zm18 0h-1 1zm76-1v-1l-1 2 1-1zm69 0-1-1v2c1 1 1 0 1-1zm-210 0h-1l1 1v-1zm62 1-1-2-1-1-1 1 2 1 1 1zm20-2v1c0 1 0 1 0 0v-1zm11 1 1-2-1-3h-1l1 6v-1zm29 1-1-1v1c0 1 0 0 0 0h1zm63-1h-1l1 1v-1zm-227 0h-1 1zm9 0v-1l-1 1h1zm58 0h-3c-1 0-1 0 0 0h3zm28 0-4-3h-2l2 2 3 2 1-1zm-8 0-1-1v1h1zm106 0v-1c-1 0-2 0-1 1h1zm46 0h-1 1zm-182-1-2-1 1 1h1zm3 0v-2h-1v3h1v-1zm47 1-1-1v1h1zm10-1h-2l1 1 1-1zm62 1v-1l-1 1h1zm83 0v-1h-2l1 1h1zm-221-1h-1v1l1-1zm205 0h-1v1l1-1zm34 0h-1l1 1v-1zm13 0v-1 2-1zm-249 0-1-1 1 1zm4 0v-1l-1 1h1zm178-1h-2l1 1 1-1zm-213 1h-1 1zm51 0-1-1-1 1h2zm24 0-1-2c-1-1-3-3-2-4h1l1-1-1-2-2-2v4l-1 1 1 2 2 3 2 1zm35-1h-1l1 1v-1zm28 1v-1h-1v1h1zm131 0-1-1v1c0 1 0 0 0 0h1zm-149-2-1 1h1v-1zm-18 1v-1 1zm5-1-1-1-1 2h1l1-1zm42 1v-1 1c-1 0 0 0 0 0zm77 0v-1 1zm7 0v-1 1zm-248-1h-1v1l1-1zm70 0v1-1zm81-1-1 1h1v-1zm78 1 1-1h-1l-1 2h1v-1zm-212 0zm35 0c0-1 0 0 0 0zm129 0v-1l-1 1h1zm14-1h-1v1l1-1zm59 0v-1l-1 1 1 1v-1zm-207 0h-1l-1 1h1l1-1zm162 0v1-1zm57 1v-1l-1 1h1zm-192-1h-1 1zm51 0h-1 1zm18 0v1-1zm42 0 1-1v-2l-1 1v3-1zm19-1 2-1c0-1-1-2-2-1l-1 1-1 2 1 1v-1l1-1zm59 0 1-1-1 1-2 1 1-2v-1l-1 1-1 1v1l2 1 1-2zm14 1c0 1 0 1 0 0zm-236 0h-1 1zm77 0v-2l-1-1h-2v-1 1l1 3h2zm3 0 1-1-1-1-1-1h-1v1l1 2h-1 2zm-68 0-1-1-1-1-2-1v1l1 1 3 1zm6-2-1-1v-1h-1l-1 1 1 1v2l1-1 1-1zm107 1v-1l-1 2 1-1zm13-1h-1l1 2v-2zm-180 1v1-1zm13 0 1-1h-4l1 2 2-1zm123 0h-1l1 1v-1zm149 0v1-1zm14 0v1-1zm-59 0v-1 1zm64 0h-1 1zm-286-1-2-1v1l1 1 1-1zm7 0v-1h-1l1 2v-1zm18 1-1-1c-1-1-1-1 0 0l1 1zm67-2-2-1h-1l1 2h1l1 1v-2zm116 1v-2 3-1zm87-1h-1l-2 2 1-1 2-1zm-275 1-1-1v1h1zm100 0v-1 1s0 1 0 0zm62-1 1-1-2 2c0 1 1 1 1-1zm-95 1-1-1h-1l1 1h1zm60 0zm142 0-1-1c0-1 0-1 0 0s0 2 1 1zm-308-2h-1v2l1-1v-1zm72 1h-2l1 1h1v-1zm55 0-1-1c-1 0-3 0-2 1h3zm56 0v-2l-1 3h1v-1zm28 1v-1l-1 1c0 1 0 0 0 0h1zm-133-1-1-1v1h1zm23-1-3-2-4-5-3-3 1 2a294 294 0 0 0 9 9v-1zm52 0-1-1v2l1-1zm91 1v-1l-1-1-1 1 1 1h1zm9 0-1-1 1 1zm-198 0v-1 1zm100 0-1-1v1h1zm100-1s-1 0 0 0v1-1zm13 1v-1l-1 1h1zm8-1v-2l-1 2 1 1v-1zm-264 0-1-2v3l1-1zm100 0s0-1 0 0v1-1zm46-2v-3l-1 3 1 2v-2zm83 1v-1 1c0 2 0 2 0 0zm62 0c-1-1-1 0-1 1h1v-1zm-288 1-1-2-1-2h-2l1 2 1 1v1h2zm16 0-1-3v1h-2c0-1 0-1 0 0l2 2h1zm7-1v-2l-1-1-1 1-1 1-1 1h3v1h1v-1zm44 0-2-2h-1l1 2h2zm114 0v1-1zm90 0-1 1h1v-1zm7 1v-1l-1 1h1zm-287 0c0-1 0-1 0 0-1 0-1 0 0 0zm51-1h2l-1-2-2-3h-1l1 1v1l-1-1a237 237 0 0 0-9-7l4 4 2 2 2 2v2h1l1 1h1zm37 0c0 1 0 1 0 0zm45-1-1-2v3h1v-1zm8 0 1-2-1-3v-4l-1-3-1-1-1 1a152 152 0 0 1 0 5l1-1v3l1 4v3l1-2zm113 0v-1l-1 1 1 1c0 1 0 1 0 0v-1zm24 1 1-2 1-1h-1l-1 1v3-1zm26 0h-1v1l1-1zm-288 0-1-1v1h1zm53 0-1-2-2-1 1 1v1l1 1h1zm35 0c0-1 0-2-2-2h-1l2 1 1 1zm31-1h-1l1 1v-1zm69 0h-1l1 1v-1zm24 1-1-1v1h1zm-215 0h-1 1zm21 0c0-1 0-2-1-1l1 1zm88-1v-2l-1-1-1-1 1-2-1-2v2l-1 1v5h-1l2 1 2-1zm77 0v1-1zm3 1-1-1v1h1zm-87-1 1-1h-2l-1 2 2-1zm34-4-1-3v1a381 381 0 0 1 1 2zm12 3v-5l-2 4 1 3 1-2zm15 1v-3l-1-2-1 3 1 3 1-1zm11-1 1-3-1-1h-1v1c1 1 0 1-1 2l-1 1 1 1 1 1 1-2zm9 0h-1l-1 1h1l1-1zm53 1v-6 1h-1l-1 3v2h2zm-210 0h-1 1zm6 0-2-2 2 2zm13 0-4-4-1-1-1-1-2-3-3-2h-1l-1-1v1l2 1 2 2 5 7 3 1h1zm-40 0v-1 1c0 1 0 0 0 0zm245-1h-1l1 1v-1zm39 0h-1v1l1-1zm-298 0h-1 1zm75 0-2-1 1 1h1zm181-1-1 1 1-1zm45 1 2-1h-3v1h1zm-284-1h-1v1l1-1zm200 0v1-1zm16 0v-1h1-2v2l1-1zm32 0h-1c-1 0 0 0 0 0v1l1-1zm1 0 1-3-1-3v1l-1 2v4l1-1zm26-1-1-1-1 2h1l1-1zm-260 1v-2h-1v1l1 1zm132 0v-3h-1v3h1zm135 0-1-1v1h1zm-243-1-2-2-3-3c-1-2-2-2-3-2v1l5 5 3 2v-1zm21 0-2-3-2-2-4-5v1l2 2 2 4 4 4v-1zm124 0-1 1h1v-1zm-179 0h-1v1l1-1zm76 0 1-2-2 1-1 1v1l2-1zm54-2 1-2 1-1v-2l1 1h2l-1-1c-1-1-2-2-3-1l-1 2v2c-1 0-2-1-1-3h-1v2l1 2v2l1 2v-3zm35 1-1-1v2c0 1 0 1 0 0l1-1zm10 0v-2l-1 2 1 1v-1zm62 1h-1v-1l-1 1 2 1v-1zm-157-1-1-1v2l1-1zm-29 1-2-2-2-2 1 2 2 2h1zm35-1 2-1 2-1 2-2c2 0 3-1 2-2l-2 1-3 2c-1 2-2 2-2 1l-1 1v2-1zm131 1-1-1v1h1zm-221-2-2 1h1l1-1zm50 1v-1 2-1zm80 0v-1l-1 1 1 1v-1zm73 0-1-1v2l1-1zm-195-1v-1l-1 1 1 1v-1zm11 1-5-5 2 3 3 2zm93-1c0-1 0-1 0 0v1-1zm12 0v-2 3-1zm-126 0c1-1 0-1-2-1l-1 1h3zm81 0v-1h-1v2l1-1zm-30 0-1-2-1-2-2-2-2-1 2 3 2 3 1 1h1zm79 0c0-1 0-1 0 0zm44 0v-4l-1 1-1 2 1 1h1zm66 0v-1 1zm-201-2-2-1v1l3 2-1-2zm59 2v-1 1c-1 0 0 0 0 0zm9 0-1-1v1h1zm116 0v-1l-1 1h1zm-41-1c0-1 0 0 0 0zm3 0-1-1v1l1 1v-1zm-171-1v-1l-1 1 1 1v-1zm95 1v-1 1zm41-1v-1l-1 1 1 1v-1zm93 0-1 1h1v-1zm-253 0v-2l-1 1v1c0 1 0 1 0 0h1zm121 0v-1l-1 1 1 1v-1zm48-1v-2l-1-1v5l1-1v-1zm68 1v-1 1c0 1 1 1 0 0zm57 0h2v-1h-3l-1 1 1 1 1-1zm-68-2v-1h-1l-1 1 1 1v1l1-2zm-139 1v-1l-1-1h-2l1 1 1 2 1-1zm6 1v-1l-1 1h1zm3-4-1-3-1 2 1 2v1l1 2v-4zm69 3h-1l1 1v-1zm25 1-1-1v1c0 1 0 0 0 0h1zm39-1h-1v1l1-1zm55 0-2 1h1l1-1zm-166-1v-1l-2 2h1l1-1zm22 1-1 1 1-1zm72-2-1-1v3l1-2zm24 2h-1 1c1 0 0 0 0 0zm-112-1-1-3-1-2h-1v3h1l1 3 1-1zm-119 0h-1v1l1-1zm266 0h-1v1l1-1zm-180 0v-2l-1 2h1zm50 0h-1 1zm55-3-1-2v5h1v-3zm32 2-1-1c0-1 0 0 0 0l-1 1 1 1 1-1zm-229 0v-2l-1 2h1zm14-1-1-1h-1l1 1 1 1 1 1-1-2zm93 1c1 0 1 0 0 0l-1 1 1-1zm70 0s0-1 0 0v1-1zm-55 0v-1l-1 1 1 1v-1zm174 0c2-1 2-1 1-2h-1c-2 0-3 2-3 2h3zm-192-1h-1v1l1-1zm62 1v-1h-2l1 1h1zm28-1-1-2h-2v2h1l2 1v-1zm58 1v-1h-1l-1 1h2zm-211-2-4-3 2 3 2 1v-1zm98 1h-1l1 1v-1zm21 0h-1 1zm-76 0-1-1v1h1zm52-3-1-2h-1v3l1 2c0 1 0 1 0 0l1-3zm-63 0h-1l1 2h1l-1-2zm37 3v-1l-1-1v2h1zm48-2-1 1h1v-1zm-57 1-1-2v3l1-1zm-81 0s1 0 0 0zm123 0h-1 1zm-62-1h-1v1l1-1zm-37 0-1-1-2-1 1 1c1 2 2 2 2 1zm43 0h-1v1l1-1zm7 0v-1l1-1v-1h-1l-1 2c0 2 1 2 1 1zm9 0v-1l-1 1 1 1v-1zm16-3h-1v3c1 1 1 1 1-1v-2zm60 3-1-2-1-1h-1l1 2c1 2 2 2 2 1zm35 0h-1l1 1v-1zm-228 0v-1 1zm127 0v-1l-1-2-2-1-1 1v1l1 1 1 1h2zm38 0v-1l-1 1h1zm2 0-1-1v1h1zm34-1-1-1-1 1v1h1l1-1zm75 1c0-1 0-1 0 0zm-260 0-1-1v1h1zm49-1h-1v1l1-1zm190-1-1 1h1v-1zm-210 1c0-1 0-1 0 0 1 0 1 0 0 0zm56-1v1h1l-1-1zm5 1c0-1 0-1 0 0zm50-1v-2h-1l-1 2 1 1 1-1zm-143 0s0-1 0 0v1-1zm64 0-3-3 1 3 2 1v-1zm20 0h-1l1 1v-1zm23 1-1-1v1h1zm43 0v-2l-1 1 1 1zm17 0v-1 1zm87 0v-1l-1 1h1zm45-1-1-2h-1v2l1 1 1-1zm-265 0h-1 1zm128 0h-1 1zm52-1-1-2v4l1-2zm-216 1h-1 1zm19 0h-1 1zm64 0v-1 1zm20 0h-2 2zm93 0h-1c-1 0 0 0 0 0h1zm71-1h-1v1h1v-1zm-225 1-1-1v1h1zm84-2-1-1v1l1 1c0 1 0 1 0 0v-1zm2-1v-2l-1-1h-2l1 3 1 2h1v-2zm110 2v-1l-1 1h1zm-181 0-1-2-2-2-1-2-2-2-1-1h-1l1 1 1 2 2 2 1 2 3 3v-1zm109 0h-1 1zm-159 0v-1l-1 1h1zm4 0v-1l-1 1h1c1 0 0 0 0 0zm158-2 1-1 2 1h1v-2h-1l-3 1h-1v1l1 2v-2zm-172 0 1-3v-1l-1 1v1l-1 2v1l1-1zm20 1 2-1v-1l-1-1-1-1h-2l-3-1h-1l2 2 2 1 1 1v1h1zm43 0-1-1h-1l2 1zm36 0v-1l-1 1h1zm145-2h-1v3-1l1-2zm2 2v-1l-1 1h1zm54 0h-1 1c1 0 0 0 0 0zm6 0zm-293-2-1-1-1 1 1 1 1 1v-2zm13 2-1-2-2-2-1 1h1l1 2 2 1zm60-1-1-1h-1l1 2 1-1zm2 0h-1v1l1-1zm59 0v-1l-1 1v1l1-1zm9 0s0-1 0 0v1-1zm107 1h-1 1zm25-1h2v-1l-1-2-1 1-1 2h1zm-104 0-1-3h-1l-1 1v2h3zm48 0v-1l-1 1h1zm-119 0v-1 1c0 1 0 0 0 0zm36-1v1-1zm71 0-1-1v1h1zm-183-2-1-2-1-1-1 1h-1l-5 1 1 2 1 1 1-1 1-1h2v-1l1 1 1 2h1v-2zm38 2-2-1 1 1h1zm35 0v1-1zm69 0v-1c0-1 0 0 0 0v1c0 1 0 1 0 0zm23-3v-3l-1 6 1-3zm-194 3v-1h-2l1 1h1zm88 0-1-1v1h1zm11-1 1-3-1-2-1 1v5l1-1zm29-1h-1v2l1-2zm19 2-1-1v1h1zm8 0v-2l-1 1 1 1zm73 0h-1 1zm5 0-1-2-1 1 2 1zm18 0v-1l-1 1h1zm-170-1v1-1zm26 1c-1 0 0 0 0 0s1 0 0 0zm78 0v-4l-2 3 2 1zm35-1-1-2c0-1 0-1 0 0l-1 1 1 2 1-1zm73 1 1-2v-1l-1 1-1 2h1zm-303-1c-1 0-1 0 0 0v1-1zm93 0v-1c0-1 0-1 0 0l-1 1h1zm8 0-1-1v1s0 1 0 0h1zm45 0-1-1v2l1-1zm16 0h1l1-1v-4l-1 1-3 2v2h2zm91 0h-1l1 1v-1zm37-1v-1l-1 2 1-1zm-260 1-1-1c0-1 0-1 0 0l1 1zm73 0v-2l1-2-1-2h-2l1 1h1l-1 1-1 2 1 2h1zm204-1v-1h-1l-1 2 2-1zm-258 1-2-1v1h2zm71 0-1-1v1h1zm112 0v-1l-1 1h1zm45-1h-2l1 1h1v-1zm-190 0v-1l-1-2v-1l-1 2v2h2zm9-1-1-1-1 1 1 1 1-1zm18 1c1 0 0 0 0 0v1-1zm180 0h-1v1l1-1zm-203 0-1-2-1-1-1 2 2 1h1zm53-1-1-1v2l1-1zm55 1v-1l-1 1h1c1 0 0 0 0 0zm36-1v-1 2-1zm11 1v-1l-1-1h-1l-1 1h1l2 1zm6 0-1-2-1 1c0 1 1 2 2 1zm28-1-1 1h1v-1zm-188 0v-1l-1 2 1-1zm27 0-1-1c0-2-1-2-2 0v1h3zm58 0v-1h-2v1h2zm-172 0v-1 2-1zm78-4v-1l-1-1-1-1-2 2h1l2 1 1 2v2c1 1 1 0 1-1l-1-3zm15 4-1-2v1l1 2v-1zm37 0v-1h-1v1h1zm87 0-2-2-1 1 2 2 1-1zm9 0v-1 2-1zm-60 0v-1l-1 1h1zm105-1v-1l-2 2 2-1zm-194-1-1-2v1l-1 1h-1l2 2 1-2zm39 1v-1l-2-3h-2l3 4h1zm31 0v1-1zm97 0h-1l1 1v-1zm-197 0h-1 1zm87-2-1-1v2l1 1v-2zm50 1-1-2v3h1v-1zm72 1v-1l-1 1h1zm2 0h-1 1zm15 0zm-235 0h-1c-1 0 0 0 0 0h1zm52-2h-1l-1 1v1h1l1-2zm53 1 1-2-1-2-2-3v7c-1 2 0 1 2 0zm-78 0h-1l1 1v-1zm86 0v-1l-1 1h1zm-28 0h-1 1zm35-1v-2h-2l-1 1v2h1l2-1zm4 1v-1 1zm-139 0v-1 1zm44-1h-1v1h1v-1zm43 0-1 1h1v-1zm-63 1v-1h-1l1 1c1 0 0 0 0 0zm196-1v1-1zm-251 0v-1l-1 1h1zm35 0v-1l-1 1h1zm29 0v-1l-2-1-1 1 2 1h1zm32-2 3-4 1-1-5 3-3 3c-1 0 0 0 0 0l2 1 2-2zm8 1h-1v1l1-1zm86 0-1-1c-1 1 0 2 1 2v-1zm72 1h-1 1zm-216 0-1-1v1h1zm148-2v1c0 1 0 1 0 0v-1zm4 1-1-1v1l1 1v-1zm-182 0 1-1h-4c-1 1 0 2 1 2l2-1zm17 0h-1c-1 0 0 0 0 0l1 1v-1zm4 0h-1 1zm7-1v1c0 1 0 1 0 0v-1zm73 1v-2l-2 2v1l2-1zm85 0 1-2 1-1v-1h-1l-2 5 1-1zm20 0v-1 2-1zm80 0 1-2v-4l-1 2a2499 2499 0 0 0 0 4zm5 0v-2l-2-2v2l1 2v1l1-1zm-268-1v1-1zm14 1-2-1 1 1h1zm29 0-1-1v1c0 1 0 0 0 0h1zm19 0-2-3-1 2 1 1h2zm30 0v-1l-1 1h1zm27-1v-2l-1 1v2l1-1zm28 0-1-2-1-1-1 1h-1l1 1 1 1 1 1 1-1zm20 0v1-1zm29 0h-1v1h1v-1zm45 0h-1v1h1v-1zm-239 0h-1l1 1v-1zm99 0 4-3h-1l-2 1-2 1h-1c0 1 0 2 1 1h1zm98 0-1-1v2l1-1zm30 0v-1l-1 1h1zm-140 0c1 0 0 0 0 0zm184-1 1-1v-1l-1 1-1 1-1 1h1l1-1zm-289 1h-1 1zm1 0v-1h-1l1 1zm6-1 1-1h1l-1-1-2 2h1zm5 0v1-1zm55-1v-3l-1-1h-1v5l1 1 1-2zm20 0-1-2-1-1v1l-1 2 1 1h1l1-1zm4 1 1-2v-1h-2l1 4v-1zm33 0v-1h-1l-1 2h1l1-1zm77-2-1-1v3l1 1v-3zm7 2v-2c1 0 1 0 0 0l-1 2v1l1-1zm19 1v-1 1zm13-1h-1v1l1-1zm-229 0h-1v1l1-1zm4 0c0-1 0 0 0 0s0 1 0 0zm14 0v1-1zm19-1-1-1-2 1v1l3-1zm8 1h-1v1l1-1zm52 0h-1l1 1v-1zm106 0h-1v1l1-1zm57 0v-2l-1 1 1 1zm-247 0h-1 1zm12-1c-1 0-2 0-1 1l1-1zm117 1v-1l-1 1h1zm20-1h-1v1h1v-1zm70 0v-2l-1 2 1 1v-1zm11 0v-1l-1 2 1-1zm-196 1v-1 1zm53-1v-1l-1 1h1zm45 0h-1l1 1v-1zm28-1-1 1h1v-1zm-184 1h-1c-1 0 0 0 0 0h1zm133 0-1-1v1h1zm10 0zm-46-1 1-1-2-1-1-4-1-1v4l1 2 1 2 1-1zm114 0v-1l-1 1 1 1v-1zm50 1-1-1v1h1zm5-1c-1 0-1 0 0 0v1-1zm-235 0h1l2-1h-2l-3 1 1 1 1-1zm9 0h1l-1-1-2-1-1 2h3zm174 0-1-1v1h1zm25 1v-1 1zm-182-2-2-2-1 1v2h2l1-1zm-82 0c0-1 0 0 0 0v1-1zm37 0-1-1v1c-1 0-1 0 0 0h1zm40 1-2-1 2 1zm-36-1v1-1zm175 0h-1v1l1-1zm-204 0 1-1h-2l1 1zm22 0h-1 1zm39 0v-2l-1-1v1c0 2 0 3 1 2zm65 0 1-1h1-3l-1 1h2zm16 0h-1 1zm11 0v-1 1zm9-1-1-1v-1l-1-1v4h1l1-1zm24 1v-2h-1l-1 2h2zm67 0-1-1v1h1zm17 0v-1 1zm5 0c0-1 0-1 0 0zm-59-1h-1v1l1-1zm-179 0h-3 3zm48 0-1-1h-1v1l1 1 1-1zm3 0-1-2h-1v2h2zm76 0-1-2v1l1 1c0 1 0 1 0 0zm16-2h-2v3l1-1 1-2zm11 2v-1 1h-1l1 1v-1zm31-2 1-1v-2l-2 4-1 2 1-1 1-2zm44 2-1-1v1l1 1v-1zm-141-2c1 0 1 0 0 0v-3h-1l-2 5h2l1-2zm171 0-1 1v1l1-1v-1zm4 0 2-2 1-1h-1l-2 1-2 3-1 1h1l2-2zm-237 1 2-3v-1h-1l-1 1-1 1v3l1-1zm34 0c0-1 0-1 0 0v1-1zm99 0h-1v1l1-1zm18 1-1-1v1h1zm43-1a81 81 0 0 1 1-8l-1-1v1l-1 4-1 2v2h2zm-173-1 1-2v-1l-2 1-2 2v1h1l2-1zm15-2v-3l-1 3v3c1 1 1 0 1-3zm-34 3 1-1h-1l-1 1h1zm53 0v-1h-1v1h1zm36-1c-1-1-2 0-2 1h1l1-1zm87 1h-2 2zm-224-1 1 1-1-1zm58 0 1-1h-2v2l1-1zm153 1v-1h-1v1h1zm56-1v-1c0-1 0-2-1-1v2h1zm-117 0-1-1-1 1h2zm71 0v-1 2-1zm-148-1v-2l-2 2 1 1 1-1zm5 0 1-1-1-1-1-1h-1l-1 1v2l2 1 1-1zm64 0 1-1-3 1v1l2-1zm35 1v-1l-1 1h1zm73-2c1-2 0-3-1-3l-1 4 2 1v-2zm-258 2-1-1v1h1zm21-1h-1v1l1-1zm8 0c1 0 0 0 0 0v1-1zm74 0h-1 1zm61 0v-1l-1-1v3l1-1zm-71 0-1-1v1h1zm-42-1h-1l1 1v-1zm76 1c2-1 2-2 2-3l-3 2v1h1zm-118-1h-1 1zm65-1 2-3 1-3v-2l-1 1-1 2v3l-2 1v1l-1 1h1l1-1zm22 1h-1v1l1-1zm39 0-1-2-2 2 1 1 2-1zm32 0-1-1v1h1zm122 0v1-1zm-258-2 1-2-1-5v4l-2 2-1 2 1 1h2v-2zm157-3v-4l-1-1a37 37 0 0 0 1 10v-5zm20 5h-1 1zm-148-1 1-2v-1l-1 1v3-1zm51 0h-2l1 1 1-1zm10 1v-1l-1 1h1zm39-1-1-2v-1l-1 1c-2 1-2 2-1 2l1 1h1l1-1zm19 1 1-2v-1h-2v2l1 1zm54 0-1-1v1h1zm35 0v-1l-1 1h1zm17-1h-1v1l1-1zm2 1v-1s-1 0 0 0v1zm-308-1h-1l1 1v-1zm23 0-1-1h-1v1l2 1v-1zm20 0h2l1-1h2v-2l-1-1-1-1-2 2-2 2-1 1v1l2-1zm17 0v1-1zm132 0v-1l-2-1-1 1h1l1 1h1zm13 0-1-1v1h2-1zm45 0 1-1h-1l-1 1v1l1-1zm-162-1-1 1h1v-1zm4 0v-1h-1l-1 1-1 1 3-1zm30 1h-1 1zm8 0v-1h-1c0 1 0 2 1 1zm-124 0-1-1 1 1zm24 0v-1 1zm133-1 1-1h-2l-1 1 1 1 1-1zm96 1-1-1v1h1zm-233-1-1-1-1-1v2l1 1 1-1zm48 0h-1l1 1v-1zm36-2v-2h-1l-1 2-1 2h2l1-2zm14 2v-3l-1-2-1 2-1 1 1 2 2 1v-1zm49 0h-2l1 1 1-1zm87 0-1-1 1 1c1 0 0 0 0 0zm15-1 1-3v-1l-1 1-1 1 1 3v-1zm13 1v-3l-1 3h1zm-111 0-1-1v1h1zm90 0-1-1 1 1c1 0 0 0 0 0zm-183-1-1-1v1c0 1 0 1 0 0h1zm65-1 1-2-1-1-1 2-1 2v1l2-2zm34 1v-1l-1 1h1zm31 0-1-1v2l1-1zm-143 0h-1 1c1 0 0 0 0 0zm32-1-1 1 1-1zm3 1v-1 1zm12 0h-1 1c1 0 0 0 0 0zm24-1 1-3h-1l-1 2v2l1-1zm108 1 1-2v-1h-2l-1 1 1 2h1zm2-1v1-1zm12-1v-3l-2 3v1l1 1 1-2zm40 1v-1l-1 1v1l1-1zm-117 0v-1h-1l1 2v-1zm55 0v-1l-1 2 1-1zm-226 0-1-1c0 1 0 2 1 1zm59-1h-1v1l1-1zm46 1-1-1c-1 0 0 2 1 1zm106 0v-1 1zm3 0v-1 2-1zm69 0c2-1 2-1 1-2v1h-2l-1 1v1l2-1zm-302 0-1-1 1 1zm23 0h-2 2zm16-1v-1l-3 2h1l2-1zm43 0-1-1-1 1 1 1 1-1zm109-1v1l1 1-1-2zm4 1h-1l1 1v-1zm48 1-1-3v3h1zm18 0h-1 1c1 0 0 0 0 0zm-164-1v-3l-2 1-1 2h1l1 1h1v-1zm6 0v1-1zm35-2 3-4 1-2-1-2-1 2-3 6-1 2v1c0 1 0 0 0 0l2-3zm19 2h-1 1zm11 0v-1l-1-1v3l1-1zm3-1v-4c-2-2-4-1-5 1v2l2-1h1v3h1l1-1zm10 1h-2l1 1 1-1zm24 0 3-7h-1l-1 1v2l-1 2-1 2v1l1-1zm-151 0v-1h-1l-1 1h2zm65 0-1-1v1h1zm56 0h-1 1zm26 0 1-1v-4l-1 1-2 1v3h2zm56-1 1-2-1-1h-1l1 1v1h-1c-1-1-1-1-1 1s1 2 2 0zm25-1h-1l-1 2h1l1-2zm-250 1 3-3h-1l-3 1-2 2h-1l3 1 1-1zm43-1v-1l-2 2v1h1l1-2zm133 1h-1l-1 1h1l1-1zm41 1v-3 3zm64-2 1-1-2-1-2 3 1 1 2-2zm-242 1v-2h-1v-1h-1l-3 2 4 2h2zm38 0h-1v1l1-1zm24-1v-3c-1-1-1 0-1 1l1 4v-2zm28 0v-1l-1 1v2l1-2zm115 1h1l2-2v-1h-1l-3 3h1zm15-1 1-2-1-1v1l-2 2-1 1 1 1 2-2zm-205 0v-1l-4-1v1l1 1h1v1h1l1-1zm103 0h-1v1l1-1zm81 1c1-1 0-2-1-2v2h1zm-244-1-1-1v-3h-1l-1 2 1 1v1l1 1 1-1zm170 0h-1c-1 0 0 0 0 0v1l1-1zm39 0-1-1-1 1h2zm-170 0-2-2-1 1h-2l2 1h3zm41 0zm124 0-1-1h-1l1 1h1zm-208-2-1-2-2 2-1 1h2l1 1 1-2zm94 2v-1l-1 1h1zm66 0v-1l-1-1h-1l2 2zm12-2-1-1v3l1-2zm-183 1-1-1v1h1zm48 0v-1h-1v2l1-1zm19-1c-1-1-1-1-1 1 0 1 0 1 0 0l1-1zm14 1c0-1 0-1 0 0zm3 0 1-1 1-1v-1l-1 1-2 1h-1l1 1h1zm17-1h-1l1 1v-1zm97 1h-1 1zm-196 0v-1 1c0 1 0 0 0 0zm110-1 1-1-1 1h-1 1zm121 0c1 0 1 0 0 0v1-1zm57 0s1 0 0 0h-2 2zm-284 0h-1l1 1v-1zm146-1v-1l-4 2 4-1zm66 1v-2h-1c0 1 0 3 1 2zm22 0c0-1-1 0 0 0zm-248 0h-1 1zm140 0 2-2-1-1-2 2-1 1h2zm-29-1c1 0 0 0 0 0v1-1zm-112 0h-1v1l1-1zm11 0h-1l1 1v-1zm16 0h-2l1 1 1-1zm33 0h-1l1 1v-1zm27 0-1-1v2l1-1zm65 0v-1l-1 1h1zm30 0-1-1v1h1zm-118 0v-1h-1v1h1zm92-2 2-2h-3l-1 4 2-2zm151 2-1-1 1 1zm-267-1h-1v1l1-1zm5 0-1-1-1 1h1l1 1v-1zm13 0 1 1-1-1zm136-1-1 1h1v-1zm86 1c1 0 0 0 0 0h-1l1 1v-1zm-223 0h-1 1zm11 0zm10 0h-1 1zm40-2v-1l-1 2 1 1v-2zm55 2h-2 2zm82 0 1-1-1-1h-3l1 1v1h2zm16-1h-2l1 1 1-1zm17 1 1-2h-2l-1 1v1h2zm-275 0h-1c-1 0 0 0 0 0h1zm25 0v-1l-1 1h1zm86 0-1-1-1 1h2zm22-1h-1v1l1-1zm122 0h-2v1l2-1zm-159 0 1-1v-1l-1 1-2 1 1 1 1-1zm-110 0-1-1v1h1zm51 0v-1 1c-1 0 0 0 0 0zm13 0v-1 1zm97-1v-1l-2 2 2-1zm33-2h-1l-2 1v2l1 1 1-2 1-2zm23 3-1-1v1h1zm24 0-1-1h-1l1 1h1zm2-1v-2h-1v3l1-1zm62 0-1-1v2l1-1zm-279 1c0-1 0-1 0 0 0 0 1 0 0 0zm10-1v-2l-1 2-1 1 2-1zm6 1v-1 1zm36-1 2-2h-1l-2 1h-2l-1-1v2h1l1 1 2-1zm15 0v-1h-1l-1 1 1 1h1v-1zm16 0 1-2h-2l-1 1v2l2-1zm13 0-1-1-1 2 2-1zm48 1v-1l-1 1h1zm15-1h-1c-1 0 0 0 0 0v1l1-1zm3 0h-1l1 1v-1zm59 0h-1v1h1v-1zm51 1v-2c-1-1-2 0-2 1l1 1h1zm-259-1h-1c-1 0 0 0 0 0v1l1-1zm22 0-1-1-1 1 1 1 1-1zm167 0v-1l-1 1 1 1v-1zm-217-1 2-1 1-3-1 1-1 2v-1h-2l-1 1-1-1c0-1 0-2-1-1v4h1l3-1zm11 1-1-1v1h1zm19 0zm62 0v-1h-1v1h1zm3-1c1 0 1 0 0 0l-1 1 1-1zm44 1h-1 1zm18-1v-2l-1 3 1-1zm-45 1v-1 1c0 1 0 0 0 0zm13-1 2-3v-3l-3 4v3l1-1zm143 0v1-1zm-33 0v-1l-1 1h1zm5 0 1-1h-1l-1 1h1zm-226-1v-2h-1v1-3l-1-1v5h2zm22 0v-2l-1 2h1zm12 0v1-1zm27 0-1-1v2l1-1zm122 0h-1c-1 0 0 0 0 0v1l1-1zm27 0v-4l-1-2-1-2-1-1v2l1 3c-1 1 1 5 1 5l1-1zm20 0c0-1 0-1 0 0s0 1 0 0zm61 0-1-1h-1v1l1 1 1-1zm-202 0 1-1v-2l1-2h-1l-1 2v3zm35 0zm-93-1v1-1zm96 0h-1l1 1v-1zm14-1 1-3h-1l-1 1-1 2v2l2-2zm45 2-1-2v2h1zm56 0-1-1c0-1 0-1 0 0v1h1zm35 0c1-1 0-1-1-1v1h1zm8-1v1c0 1 0 0 0 0v-1zm-267 0h-1c-1 0 0 0 0 0v1l1-1zm35 0-1-1-2 1h3zm66-2 1-2 1-3h-2l-1 2v5l1-2zm33 2-1-1c0-1 0-1 0 0v1h1zm4 0-1-1v1h1zm117 0-1-1v1h1zm-295 0c1-1 0-1-1-1v1h1zm27-1v-2l-1-1h-2v4h1l2-1zm54 1h-1 1zm8 0-1-1v1h1zm25-1h-1l1 1v-1zm73 1v-2l-2 1 2 1zm13-1v1-1zm74-1v-2l-1 1v2l1 1v-2zm14 2-1-1-1 1h2zm-226-1h-1l1 1v-1zm25-1-1-1v2h1v-1zm194 1v1-1zm-283 0zm33 0v-2l-1-1-2 3h3zm71 0h-1c-1 0 0 0 0 0h1zm4 0h-1 1zm98-1v-5h-1l-1 2v3l-1 1h1l2-1zm45 1-1-1v1h1zm-178 0v-1l-1 1h1zm13 0v-1 1zm113-1v1-1zm45 0v-1l-2 2h1l1-1zm-162 0-4-2h-1v1h2l1 1h2zm70 0-1-1-3 1 2 1 2-1zm42 0h-1v1l1-1zm18-1v-1 3-2zm-163 1 1-1-1-1-1 1v1h1zm51-1h-2l1 1 1-1zm3 1h-1c-1 0 0 0 0 0h1zm84 0v-1h-1v1h1zm-143-1v-1l-1 1v1l1-1zm176 1h-1 1zm92 0v-1l-1 1h1zm-200-2 1-1-1-2-1-1-1 1-1 3v1h1l2-1zm134 1v1-1zm21 1-1-1v1h1zm-112-1v-1h-1v1h1zm16-1v-1l-1-1v3c-1 0-1 0 0 0l1-1zm30-1-1-2-1 2 1 2 1-2zm38 2v-1l-1 1h1zm-203-1 1-2-1-3v1h-3l1 2 1 1h-1v2l2-1zm99-2 2-2v-2l-1 1-2 1-1 1v2c0 2 1 2 1 1l1-2zm23 1-1-1-2-2-1-1v2l2 2 1 1 1-1zm24 2v-2h-1v2h1zm13-1v-2l-1 2 1 1v-1zm8 0c0-1 0-1 0 0 0 0 0 1 0 0zm36-1v-1h-1l-1 2v1l1-1 1-1zm16 1c0-1 0-1 0 0 0 0 0 1 0 0zm19-1 1-1 3-2 1-1h-2l-2 1-1 1-1 1h1c1-1 1-1 0 0l-2 1h-1v1h2l1-1zm11 1v-1l-1 1h1zm-159 0v-2l-1-1-1 1v1l2 1zm43 0-1-1v1h1zm88 0h-1 1zm-218-1h1-1c-1 1-1 1 0 0zm8 0 2-1v-1h-1l-1 1-1 1-1 1h1l1-1zm7 0 1-2-1-1h-2l1 1v3l1-1zm42 1c-1 0 0 0 0 0zm4-1v-2l-3 2 2 1 1-1zm91-1 1-1-1-2-1 1-1 2-1 1v1l1-1 2-1zm78 1 3-2h-3l-2 1 1 2 1-1zm-258 0-1-2-2-1v1l-1 1c-1 0 0 0 0 0l3 2 1-1zm5 0h-1 1zm58 0h-1v1l1-1zm78 0-1-1v1h1zm40 0v1-1zm114 0h-1l1 1v-1zm4 0h-1l1 1v-1zm-187-1h-1v1l1-1zm40 1-1-1-1-1v1l2 1zm-81-1h-1v1l1-1zm39 0h-2l1 1 1-1zm108 0h-1l1 1v-1zm86 0-1 1 1-1zm-230 0h-1 1zm-62-1h-1l1 1v-1zm16 1h-1 1zm50-1-1 1h1v-1zm79 0 1-1-1-1-1 1v2l1-1zm9 0h-1c-1 0 0 0 0 0v1l1-1zm85 1v-2l-1 1 1 1zm43-1c1 0 1 0 0 0h-1l-1 1h1l1-1zm-154 0v-5h-1l-1 5h2zm29-1c-1-1-2 0-2 1 1 1 2 0 2-1zm30 1-1-1v-1l-1 2h2zm31 0h-1 1zm59-1v-1h-1v2l1-1zm12 1v-1l-1 1h1zm-284-1v-1l-1 1h1zm65 1v-1l-1 1h1zm92 0v-1 1zm-120-1v-1h-3l1 2 2-1zm55 0-1-3h-1c-1 1-2 1-1 2v1l1 1 2-1zm82 0v1-1zm108 0v-1h-2l1 2 1-1zm-292 0-2-3-1-1 1 2 1 2h1zm28 0v-2h-2v1l1 1h1zm28 0h-2 2zm48 0v-1h-1v1h1zm182-1v-2h-2v3h1l1-1zm-178 0v-1h-1v2h1v-1zm69 0-1 1h1v-1zm35 1 1-1-1-1-1-1-1 1v2h2zm58 0-1-1h-2l-1 1h4zm-276-1h-1l1 1v-1zm30 0v1-1zm49 0-1-1h-1l1 1v1l1-1zm69 0v-2l-1-2-1-1c-2 0-2 0-1 2 0 2 2 3 3 3zm5-1-1 1h1v-1zm9 1v-1h-2v1h2zm81 0v-1l-2 1h2zm-161-2-1 1h1v-1zm7 1-2-1-2 1h4zm83 0v-1h-2l-1 1 2 1 1-1zm78 0-1-1v1h1zM33 98v-3l-1 1-1 1v4l1-1 1-2zm15 3 2-2v-1l-1 1-2 2-1 1 2-1zm41 1 3-1v-2l1-2v-2l-1 1-1 1-4 3-2 2h4zm7 0h-1 1zm59 0v-1h-1l-1 1c-1 0 0 0 0 0h2zm-95 0v-1 1c0 1 0 0 0 0zm38-2v-2h-1v4l1-2zm83 2v-1h-1l1 1zm20-1h2l1-1-1-1-2 1-1 2 1-1zm123 0h1l-4-1v1h3zm-221 0h-1 1zm25-1h-1v1l1-1zm90 0v-1h-1l1 2v-1zm-172 0v-1c-1 0-2 1-1 2s1 0 1-1zm23 0v-3l-1 1-1 1v1l1 1 1-1zm5-1 2-3-1 1-1 1-2 2-1 1 3-2zm61 0v-2l-2 1-1 1 1 1c1 1 2 1 2-1zm114 2h-1 1zm48 0-1-1h-2l1 1h2zm-80-3v-1l-1 1v2l1-2zm18 2-1-1v2l1-1zm16 0 1-1 1-1 1-2h-2l-2 2-1 2h2zM22 99v1-1zm151-1v-3l-1 1 1 4v-2zm18 2v-1h-1v1h1zM17 97l1-3v-1c0-1 0-2-1-1v8-3zm22 2v-1l1-3 1-1v-1l-2 1-1 2-1 2v1l1 1 1-1zm168 0v-1l-2 1 1 1 1-1zm8-3 1-3h-1l-2 3-1 3v1l3-4zM47 99zm13 0v-1l-1 1h1zm106 0-1-1 1 1zm15-1v-1l-1 1v1l1-1zm68 0 1-2v-1l-2 2-1 2h1l1-1zm7 1 1-1h-1l-1 1h1zM25 99v-1l-1 1h1zm108-2 2-3h-3l1-1v-1c0-1 0-3-2-4l-2-1v1l1 1 1 2h1v1l-2 1v1l1 2-1 1-1-1h-1l-1 1 2 1 1 1 3-2zm143 2v-1h-2l1 1h1zm49-1v-1l-1 1v1l1-1zm-200 0-2-1v1h2zm149-2 2-2h1-2l-2 1-1 1v2h1l1-2zM29 97c0-2 0-3-3-3h-1v1l1 2 2 1 1-1zm34 1v-1l-1 1h1zm54-1h-2l-1 1h1l2-1zm197 0 1-2-2 2v1l1-1zm-102 0v-1l1-2-1 1-1 2v1l1-1zm23-1h-1v2l1-2zM48 97v-1h-1l-1 1h2zm3-1-1-2h-1v1l1 1-1 1h1l1-1zm27 1v-1 1zm24-2-1-4-1-1v2l-1 3v-1l-1-1-2 1-2 1h1l2 1 1 1h4v-2zm5 2v-1l1-1v-2l-2-2-2-1c-1 1 0 1 1 2l1 1v1l-1 2 1 1h1zm81 0v-1 1zm-38-1h1v-1l-2-1h-1l-1 3 3-1zm138 1 1-1h2v-1h-1l-1 1-2 1h1zM44 96v-1h-2v1l2 1v-1zm71 0 1-1v-1l-1 1-2 1v1l2-1zm47 0 1-1-2 1h1zm45 0h1v-1l-3 1h2zM75 96v-2h-1l-1 1-1 1h3zm83 0h-1 1zm19 0h-1c-1 0 0 0 0 0h1zm13-1 1-1v-2l-1 1-1 2v1l1-1zM59 96l-1-1v1h1zm66-1h-1l1 1v-1zm30 0v-1l-2 1 1 1 1-1zm21 0-1-1v2l1-1zm10-1 2-1 1-2v-1l-3 1-3 2 1 2 1 1 1-2zM64 95v-1h-1v1h1zm50-1v-3l-1-1-1 1v3l-1 1h1l2-1zm31-1 2-2v-2l-1-1v2l-1 1v-1h-1l-2 4 1 1 2-2zm2 1h-1l-1 1 2-1zm48 1h-1 1s1 0 0 0zm116 0 2-1h2l1-1h-2l-4 2c-1 0-1 0 0 0h1zM84 95v-1 1zm95-1v-2h-1v3l1-1zm124 0v-1l-1 1v1l1-1zm-133-1 1-2-1-1-2 3-1 1 2 1 1-2zm38 0-1 1h-1 1l1-1zM31 94l-2-1 1 1h1zm35 0v-1h-1l1 1zm61 0v-1 1c-1 0 0 0 0 0zm-58-1v-1l-1-1-1 2h2zm12 0 2-1-1-1-2 2v1l1-1zm122-1 1-2h-1l-2-1h-4l1 1 2 1h1l-1 1v1l1 1 2-2zm41 1h-1v1l1-1zm36 0 1-1h-3v1l1 1 1-1zM28 93zm29-1v-2l-3 3h1l2-1zm21 1 1-1 1-1 2-4h-1c-1 0-3 2-3 4l-2 1h-1l2 1h1zm83 0 1-2c0-2 1-2 1-1l1 1v-3l2-1 2-1v-3l-2 1-2 1-1 1-1 1-1 2-2 1-1 1 1 2h2zm34 0-1-1-1 1h2zm-19 0v-1 1zm129 0v-1l-1 1h1zM88 92h-1c-1 0 0 0 0 0v1l1-1zM8 92c0-1 0-1 0 0zm52 0-1-1v1h1zm34 0v-1l-1 1h1zm15-1 1-1h-1l-1 1v1l1-1zm107 1v-1h-1l-1 1h2zm23 0v-3l1-2h-1l-1 1v1l-1 2-1 1h3zm27 0v-1l-1-1-1-1h-1l-1 1-1 1 3 1a161 161 0 0 1 2 0zm-82-1 1-1h-2v2l1-1zM42 91v-2l-1 1v2l1-1zm32 0 1-1h-1l-2 1h2zm51 0 1-1v-1l1-2 1-1v-1l-1 1-2 3-1 3 1-1zm52 0h-1 1zm-59 0-2-1 2 1s1 0 0 0zm3 0v-1l-1 1h1zm133-1h-1l1 1v-1zm17 1 1-1h1l4-2 2-1 1-1c0-1-1-1-5 1l-4 3-1 1h1zm24-1h-1v1l1-1zM37 90v-2l-1-1-1 1v1h-1l-3-3h-2l1 1 4 3h2v1l1-1zm34 0-1-1-1 1h2zm17 0v-4c0-1-1-2-2-1v-1l1-2-1-1-1 3c0 2 0 3 1 2v2l-1 2h3zm125 0h-2l1 1 1-1zm65 1v-1h-1l1 1zM56 89l1-2v-1l-2 2-2 1v1h1l2-1zm80 1-1-2-2-1v1l3 2zm46-1h-1v1h1v-1zm10 1-1-1v1h1zm24 0v-1l-2 1h2zm26 0 1-2v-1h-2v2c-1 1 0 2 1 1zm74 0-2-1v1h2zm-208 0-1-1v1c0 1 0 0 0 0h1zm-45-1h-1 1zm93 0h-1c0 1 0 1 0 0h1zm138-1 2-1v-1l-1 1-2 1v2l1-2zM47 89l2-2v-3l-2-1v1h-1l-1 1-1 1-1 1 1 1h2v1h1zm65 0h-1 1zm6 0v-1c0-1 0 0 0 0l-2 1h2zm92-1v-1l-1 1v1l1-1zm36 1v-1c-2-2-2-1-1 0l1 1zm15 0v-2l-1-2h-1v1l1 3h1zm47 0h-1 1zm-156-1v-1l-1 1v1l1-1zM51 88v-1l-1 1v1l1-1zm42 0v-1l-2-1-1-3-1-1h-1l1 2v2l1 1 1 1 1 1 1-1zm17 0v-1l-1 1h1zm69 0h-1l1 1v-1zm28 0v-1l-1 1h1zm112 0-1-1c-1 1 0 2 1 1zM8 87l-1-1v2l1-1zm65 1v-1l-1 1h1zm142 0v-1a32 32 0 0 1-3-1v1l1 1h2zm33 0v-1l-1 1h1zm76 0v-1h-2v1h2zM10 87v1-1zm94 0h-1l1 1v-1zm21 0 1-2c0-1-1-1-3 1v2l2-1zm148 1h-1 1zm29 0s0-1 0 0c-1 0-1 0 0 0zm-164-1-1-1-1-4v-2h-3l-1-1-2 1v1l1 1 2 1 2 3 2 1h1zm50-1 1-1h-2l-1 1-1 1h1l2-1zm15 1h-1 1zm103 0v-1l-1 1h1zM15 87l2-2 1-1v-4c0-2-1-2-1-1l-1 1h-1a1534 1534 0 0 1 0 7zm47 0h-1 1zm57 0 1-1v-3l-4 3 2 1h1zm55 0 1-2-1-2-1-1-1 2c-2 1-2 1-1 2l1 1h2zm20 0v-2h-3v1l1 1h2zm45 0 1-2 1-1h-1l-1 1-1 2h1zM76 85v1c0 1 0 1 0 0v-1zm23 1-1-2h-2l2 3 1-1zm152 0h-1l1 1v-1zm6 0-1-2h-1l-1 1 2 2 1-1zM80 86l2-4-1 1h-4v1l1 2h2zm105-1 1-2h-2l-1 2-1 1h1l2-1zm78 1h-1 1s1 0 0 0zm11-1 3-2h-1l-5 3 3-1zm36 0v-5l-1 1-1 2h1l-1 1v2h1l1-1zM18 86v-1l-1 1h1zm22-2v-2l-2-1-1 1 1 1v3h1l1-2zm21 1-1 1h1v-1zm12 0 1-1h-2l-1 1v1l2-1zm166-2h-1l-2 1v1h1l2-2zm80 2h1l-1-2h-2l-1 1h1v2l2-1zm-196 0v-1h-1l-1 1h2zm89 0-1-1-1 1h2zm33 0v-1 2-1zm50 0 1-1-2 1v1l1-1zM59 85l-1-1-1 1h2zm82-1-1 1 1-1zm66 0v1-1zm42 0v-3l-1 1-1 2 2 1v-1zm36 1v-1l-1 1h1zM41 83l1-4v-4c0-1 0-1 0 0l-2 1v4l1 4v-1zm23 1-1-3-1-1v-2l-1-1-1 1 1 2 1 3v2l2-1zm51 0 1-1h-3l1 1 1 1v-1zm-83 0-1-1 1 1zm73 0 1-3v-1h-1l-1 2 1 2zm13-1 1-1h-1l-1 2 1-1zm37 0 1-1v-1l-2 1v2l1-1zm8 1 2-1c0 1 1 1 0 0v-2l1-1-1 1-1 1-3 2h2zm40-1-1 1h1v-1zm6 1c0-1 0-1 0 0 0 0 1 0 0 0zm43 0v-3l-1 1v2h1zm12-1v-1h-1v-1l-2 1-1 1h1l1 1h2v-1zm9 1v-2s0-1 0 0l-1-1v-1h-1v1l1 1-1 2h2zM11 83h-1l1 1v-1zm41 1 1-2-1-1h-1v3h1zm9 0-2-3-1 1 1 1 1 1h1zm9 0v-1 1zm189 0-1-1v1c0 1 0 0 0 0h1zm10-1v1-1zm15 0-1-1v-1h-1v2l1 1 1-1zM8 83H7v1l1-1zm172 0h1l1-2c2-2 3-2 2-3l-1 1-2 2 1-2 2-2-4 2-2 3v1h2zm16 0v-1h-1l1 1zm92 0h-1l1 1v-1zM57 81h1-2l-1 2 1-1 1-1zm93 1 1-2v-1h-4v4h1l2-1zm51 0 2-2-4 1-1 1 1 1 2-1zM25 82v-1h1l1-1v-2l1-1v-4l-1 1v2l-1 2-2 3-1 1v1l2-1zm69 1v-1 1zm150 0v-1l-1-1h-1v-1h-1l1 2 1 1h1zm54-1h-1l-1 1h1l1-1zM12 82v1-1zm34-1 1-2-1-1v-2l-1-1h-1v7s0 1 0 0l2-1zm21 0h-1v1s0 1 0 0l1-1zm5 1v1-1zm-24 0-1-1 1 1zm162 0-1-2-1-2h-3c-2 0-2 0-1 2l2 2h4zm7 0-1-1v1h1zM84 81h-1v1l1-1zm13 0h-1 1zm4 0-1-1-1 1v1h1l1-1zm75 0h1s1 0 0 0l-1-1-1 1h1zm15 0v-1l-1 1-1 1h1l1-1zm-32 0c1 0 1-1 0 0h-1 1zm11-1c1-1 0-1-1-1l-2 2h3v-1zm69 1 2-1-2-1h-2l-1 1v1h3zM65 80v-1l-1 1 1 1v-1zm17 1 1-1-3-1-1 2h3zm12-1v-1l-1 1-1 1 2-1zm51 0-1 1 1-1zM21 81h-1 1zm51-1v1-1zm43 1h-1 1zm11-1h-1l1 1v-1zm137-1-1-3 2-1v-1h-2l-2 1 1 2v3h1l1-1zm-100 1 4-2 1-1 2-2v-1h-3l-2 1c1 0 1 1-1 2l-2 2v1h1zm25 0h-1 1zm86 0v-1l-1-1v2h1zm36-1-1-1-1 2h1l1-1zm13 1h-1 1c1 0 0 0 0 0zM23 80l-1-1v1h1zm34 0-1-1v1h1zm52 0h-1 1zm187 0-1-1v1h1zM8 79v1-1zm71 0-1-1-1 1h2zm51 0v-2h-1l-2 1 2 2 1-1zm140 0v-4l-1 2v1l-1 1v1l2-1zM75 79v-2h-1v2h1zm49-1 1-1h-4v2h1l2-1zm66-2v-1h-2l-1 1c0 1-1 0 0 0v2c-1 1 0 1 1 1 2-1 2-1 2-3zm112 2v1-1zm23 1v-1l-1 1c-1 0-1 0 0 0h1zM64 78l2-1c0-2 1-2 2-2h1l-1-1c-1-1-1 0-3 1l-2 2h-1l1 2 1-1zm3 0v-1l-1 1h1zm34 1-1-2v-1l-3 2 1 1h3zm113 0h-1 1c1 0 1 0 0 0zm72-1h-1v1l1-1zM33 78h-1s0 1 0 0h1zm19-1v1h1l-1-1zm-29-1-1-2-2-1-1 1h1l1 2c0 3 2 3 2 0zm65-1 1-1-1-1-1 2-1 3 1-1 1-2zm15 3-1-2v2h1zm31 0-1-1v1h1zm143 0-1-2h-3 1l1 1 1 1h1zm4 0-1-1v1h1zM89 78l1-1v-1l-3 2h2zm3-1h-1v1l1-1zm3 0h1l3-2h-2l-1-1h-1l-2 1v1l1 2 1-1zm57 0 1-1h-3l-2 2 4-1zm43-1 2-1h2l-3-1h-3l-1 1 1 2h1l1-1zM30 76v1h2l1-1v-4h-3l-1-1v6c0 1 0 1 0 0l1-1zm19 1v-4l1-1v1l1 1v-4l-3 1-1 3v3l1 1 1-1zm-1-1v-1l1 1h-1zm9 1 1-3-1-2-1-1h-2v5l1 1h2zm241 0h-1c-1 0 0 0 0 0v1l1-1zm6 0v-1l-1 1 1 1v-1zm-195 0zm64 0-1-1v1h1zm7-1 1-3v-1l-3 1a620 620 0 0 1-4 4h5zm110 1v-1h-1l-1 1h2zM25 76v-1l-2-3v2l1 2v1l1-1zm46 0v-1l-1-1 1 3v-1zm36 0h-1l1 1v-1zm51 0 1-1-1-1h-3l1 3 2-1zm-39 0 2-1 1-2-1-1-1 1-1 2-1 2 1-1zm101-1-1-3-2-1-1 1v1l2 2 1 2 1-2zm23 1h-1 1zM37 76v-1 1zm47-1-1-2-2 1v1l2 1 1-1zm28 1-1-1v1h1zm5-1-1 1 1-1zm15 0h-1l1 1v-1zm81 1v-1l-1 1h1zm73-1 1-1-1-1c-1-2-2-2-2 0v2l-1 1 3-1zM16 75c-1-2-1-2-2-1v2h1l1-1zm113 0-1-1h-1l1 2 1-1zm35 0h-2l-1 1h2l1-1zm46 0-1-1 1 2v-1zm40 0 1-1-1-1h-4l-1 1 1 1h4zm18-1v-1c-1-1 0 0-1 1l-1 1c0 1 1 1 2-1zM65 73l2-2v-3l-2-1h-1l1 1v2-1l-3 1-1 4c1 0 2 0 2-2l1-1v3l-1 1h1l1-2zm139 2-2-2 1 2h1zm97-1v-1l-1 1 1 1v-1zm14 1v-1l-2 1h2zM47 74l-1-1h-1s-1 0 0 0v1h1l1 1v-1zm-11-1-1-1v2l1-1zm246 0h-1 1zM19 73h-1v1l1-1zm88 1 1-2-1-1-3 1 1 1 2 1zm79-1v-1h-3v1h3zm126 1 1-1-1-1-3 2h3zM38 73v-1h-1v1h1zm-23-1h-2l1 1 1-1zm58 0h1l1-1v-1l-1 1h-1l-2-2-1-1v3l3 2v-1zm39 1-1-1v1h1zm6-1-2 1 2-1zm71 0h-1v1l1-1zm100 0h-1 1zm15 0-1-1v2l1-1zm4 0h-1v1l1-1zM22 72h-1v1l1-1zm59 0c1 0 1 0 0 0 0 1 0 1 0 0zm54 0h-1c-1 0-1 0 0 0h1zm-66-1-1-1v2h1v-1zm45 1v-1l-1 1h1zm14 0h-1 1zm54-2 1-1h-1l-2 1-2 1-2-1-1 1h1l1 1h2l3-2zm29 2v-1l-1-1h-2l-2 2h5zm33 0v-1l-1 1h1zm38-1 1-1-3-1-1 1 1 2 2-1zM96 72h-1 1zm2 0-1-1v1c-1 0 0 0 0 0h1zm75-1-1-2-1 1 1 2h1v-1zm-87 0c2-1 2-2 1-2h-2l-2 1 1 2 2-1zm4 0h-1v1l1-1zm14 0v-2l-1 1h-2v-3l-1-3-1 1v5l1 1h4zm7 0 2-2h2v-2l-1-2-1-1-1 1-1 1 1 2v1l-1 1-1-1h-1v3l2-1zm41-1h1v1s-1 0 0 0l6-3 2-1-1-1-4 2-3 1-2-1-2 1-2 2 2 1 3-2zm-24 0h2l2-1v-1l-1-3-4 3c-2 2-3 3-1 3l2-1zm119 1-1-1v1h1zm4 0v-1l-1 1h1zm27 0-1-1h-1l1 1h1zm38 0 1-2-2 1-1 1h2zm5 0 4-4h-1l-1 1-2 2-2 1h2zM9 71l-1-1-1 1h2zm68-1h-1v1l1-1zm67 1v-1h-1l1 1zm72-1c2-1 2-1 0-1l-2 1 1 1 1-1zM28 70l-1-1v1l1 1v-1zm12-1-2 1h1l1-1zm41 1v1-1zm228 0v-1h-1l-1 1 1 1 1-1zM17 70h-1 1zm19 0v-1 1zm61-1h-2l1 1 1-1zm111 0 1-1h-1c-2-1-4 1-3 2h1l2-1zm47 0h-1v1l1-1zM21 69l-1-1 1-1 1-1v-3l-1 1v2l-2 1-1 2h3zm22 0-1-1v1h1zm40 0h-1c0-1 0 0 0 0h1zm11 0v-1l-1 1h1c1 0 0 0 0 0zm13 0 1-2-1-1h-1l-1 3h2zm57 0 2-1 2-1-1-1h-1l-3 1-1 2h2zm32 0 1-1h-2v-1l1-1h-3l-2 2 1 1 1-1v1h3zm6-1v-1l-3 1 1 1 2-1zm111 1h-1 1zM76 69h-1c0-1 0 0 0 0h1zm49-1 2-2h-1l-2 1-1 2 2-1zm89 0v-1h-1v2l1-1zm24 0 1-2 1-2-1-1-2 3c-1 1-2 2-1 3h1l1-1zM48 68l2-2v-1l-3 2-1 1 1 1 1-1zm172 1-1-2v2h1zM93 67l1-1 1-1h-1l-1-1-2 1-1 1-1 1-1-2v-2h-1l-1 1v1l2 1 1 2 4-1zm139 1-1-1v1h1zm8-1 1-1 1-1c-1-1-1 0-2 1l-1 2 1-1zM85 68v-1h-1v1h1zm121-1-1-2-1-1h-2l1 1 1 2-1 1h1l2-1zm46 0h-1l-1 1h1l1-1zm70-1 1-1-4 2v1h1l2-2zM39 67v1-1zm5 0h-1l1 1v-1zm230 0 1-1 3-3-1-1-2 1-4 3v1h3zm19 0v-1h-1v2l1-1zm9 0h-1l1 1v-1zM9 67H7h2zm130-1h1v-1l-1-2-1-1-1-1-1 1a2569 2569 0 0 1 3 4zm78 0-1 1h1v-1zm30 1-1-1h-2l2 1h1zm70-1h-2l-1 1h3v-1zM25 66l1-3v-3l-2 3v4h1v-1zm50 1v-1h4l-1-2-3-2-1-1-2 2v2l1 1 2 1zm7-1h-1v1h1v-1zm41 0 1-1-2 1c-2 0-1 1 0 1l1-1zm139 0v-1h-2v2h1l1-1zm25 1h-1 1zM62 66l1-1-3-5c-1 0-2 0-1 1l1 2v1l1 2h1zm87 0h-1 1zM29 66l1-1v-1l-2 1v1h1zm25-1 1-1 2-1v-2l-3 5v-1zm123 1h-1 1zm14 0h-2 2zm74 0h-1c-1 0 0 0 0 0h1zm31-1h-1l1 1v-1zm9-2-1 3 1-1v-2zM38 65h1v-2l-1-1-1 3 1 1v-1zm176 0v-1l-1 1v1l1-1zm75 1v-1h-2l2 1zm-177-2v-2l-2 1-1 2 3-1zm9 1v-2l-2-1v3s0 1 0 0h2zm65 0v-1h-2v1l1 1 1-1zM8 65H7h1c1 0 1 0 0 0zm60 0 1-2 1-2v-1h-1l-1 1-1 1-1 2v1h2zm149 0v-3l-2 2 1 1h1zm51-1-3-6-1 3 2 4 2-1zM40 65v-1 1c0 1 0 0 0 0zm4-1h-1l1 1v-1zm41-1 1-3-1-1-2 2 1 1v1l-1 1 1 1 1-2zm72-1 3-4v-1h-2l-1 1v2l-1 2-1-1-2 1-2 2h1a912 912 0 0 0 5-2zm103 2v-1l-1 2 1-1zM71 64v-1h-1l-1 1 1 1 1-1zm10 0c1-2 1-4-1-4h-1l-2-1c-2 0-2 0-1 1l4 5 1-1zm54-1-1-1v2h1v-1zm40 1c2-1 3-1 1-2h-1l-2 2c-1 1-1 1 0 0h2zM42 63l-1 1h1v-1zm194 0h-1l1 1v-1zm14 1-2-3v2l1 1h1zM15 64l-1-1v1h1zm17-2-1 1h1v-1zm77 1v-1l1-2 1-1-3 1-3 3h4zm63 0h-1l1 1v-1zm12 0 1-1-1-1-1 1-1 1 1 1 1-1zm5 0h-1v1l1-1zm4 0h-1l1 1v-1zm53 0h-1 1zm24 0 1-2 1-1-2 1-1 1v1h1zm30 0zM98 62l1-2v1h1l1-1 1-1h-1l-3-1-2 1-1 3v1h2l1-1zm32 0v-4l-2-2-2 1c-1 1-2 4-1 5h5zm150 1-1-2v2h1zM53 62v-2l1-2v-3l-1-1-1 1h-1c-1 0-1 0 0 0l2 3h-1l-1 1-1 2v1l2 1 1-1zm111 1-1-1v1h1zm47-1h-1 1zm48 0h-1l1 1v-1zM9 62l-1-1v1h1zm163 0 1-1-1-1h-1l-1 1v1h2zm19 0zm16 0h-1 1zm81 0v-1l-1 1h1zM38 62v-1l-1-1v1l1 1zm3 0h-1 1zm48 0v-1h-1l1-1 1-2-1-1h-2v2l1 2 1 1zm5-1-1-1h-1l-1 1v1l1-1h1l1 1v-1zm12-1-2-1v3l1-1 1-1zm94 1 1-1h-1l-1 2 1-1zm76 0h2v-3l-1-1v2l-1 1-2 1v1l2-1zM28 61c1 0 1 0 0 0 0 1 0 1 0 0zm3 0-1-1v1h1zm186 0v-1h-1l-1 1h2zM54 61c0-1 0-1 0 0zm12 0-1-2v2h1zm121 0s0-1 0 0h-1 1zm7 0 1-1-2 1h1zm64 0v-2c-1-2-1-2-2-1l-1 2v1h3zM12 60v-1l-1 1 1 1v-1zm34 1v-1h-1l1 1zm191-1 1-1-1-1-1-1-1 3h2zm46 0 1-1v-2l-3 3 1 1 1-1zM64 60c0-2-2-4-3-4v2l1 1 1 2 1-1zm100 0h-1v1l1-1zM18 59l2-2h-1l-2 1-1 1v1l2-1zm126 1zm39 0 2-1h2v-2l-6 1v2h2zm28 0h-1 1zm86 0-2-1 1 1h1zM8 59c1 0 0-1 0 0v1-1zm17 1-1-1v1c0 1 0 0 0 0h1zm166-1h-1v1l1-1zm3 1-1-1-1-1v1l2 1zm31 0v-2l-1 1 1 1zm22-1-1-1c0-2 0-2-1-1v1l1 1 1 1v-1zm58 1v-1h-1l-1 1h2zm2 0 1-1h-2l1 1zM14 59h-1v1l1-1zm16 0c1-1 0-1-1-1l-1 1 1 1 1-1zm93-1v-2l-1 1-1 1v1l1 1 1-2zm167 1h-1v1l1-1zM21 58l-1 1 1-1zm17 0 1-2-1-1c-1 0-2 1 0 1v1l-2 1-1 1h1l2-1zm56 1-1-1v1h1zm20-1h-1l1 1h1l-1-1zm-41 0 1-1 2 1v-2l-2-1h-1v1l-1 1v2l1-1zm23 0h-1c-1 0 0 0 0 0v1l1-1zm22 1c1-1 1-2-1-2-1 0-2 0-1 1l1 1h1zm36-1v-1l-1 1v1l1-1zm16 0 2-1-3-1-2 1v1l1 1 2-1zm46 0h1-3 2zm-108 0 2-1-1-1-2 1-1 1h2zm134 0v1-1zm12 0h-1l1 1v-1zm16-3 3-1 2-1h2l2-1-3-1-3 1a2014 2014 0 0 0-3 3zM42 57v-1h-1l-1 1 2 1v-1zm60 0-1-1-2-1h-1l-2 1v1h3l2 1c1 0 2 0 1-1zm23-1c-1 0-2 1-1 2h1v-2zm126 1h-1l1 1v-1zm38 0h-1v1l1-1zM12 57h-1v1l1-1zm53 0v1-1zm131 1-1-1v1h1zm10-1h-2 2zm57 0h-1v1l1-1zm8 0c1 0 1 0 0 0h-1l1 1v-1zM58 57h-1 1zm91 0 1-3h-1l-2 2-1 1h3zm35 0c2-1 2-2 0-2l-1 1h-1l-2 1h4zm16 0-1-1v1h1zm61-1 1-2h-2l-1 2c0 1 0 2 1 1l1-1zM35 57v-1l-1 1h1zm34-1h1l3-3v-2l-1 1v1l-1-1-2-1-1 1 1 1v1l-1 2-1 1 2-1zm11 1v-1l-1 1h1zm5 0-1-1-1 1h2zm20-2 2-1h1l1-2c-2-1-3 0-4 1-2 0-2 1-2 2v1l2 1v-2zm85 2-1-1-1 1h2zm116 0v-1l-1 1h1zM46 56v-2h1l1-1h-2l-1 1v2h1zm120-1 2-1h1l1-5v1l-3 3-3 3v1l2-2zm110 1h-1v1l1-1zm7 0v1-1zm-147 0-2-2h-2l-2 1 3 1h3zm7 0 1-2 2-2 2-1-2-1-2 1-3 1v4h2zm97 0 1-1 1-1v-3l-2 2-3 1-1 1h1l2 1h1zm25 0 1-1 2-1 2-2 1-1v-1h-1l-1 2-2 1-2 1-1 2h1zm30 0v-1 1zM15 55l1-2-1-2c-1-1-1-1-1 2v3l1-1zm45 1 1-1v-2h-1l-1 1-1 1 2 1zm145 0-1-1-1 1h2zm4 0v-1l-1 1h1c1 0 0 0 0 0zM23 55h-2l1 1 1-1zm44 0h1c1-1-1-2-2-2 0 1 0 0 0 0l-1-1-1 1 1 2h2zm54 0v-2l-1 1-2 1 2 1 1-1zm178 0 1-1h-1l-2 1h2zm2 1-1-1v1h1zM13 55l-1-1v1h1zm18 0-1-1v1c-1 0-1 0 0 0h1zm54 0 1-1-2-1c-2 1-3 0-2-1v-5h-1a401 401 0 0 0-3 7l1-1 3 1 2 1h1zm-5-4v1-1zm95 4 1-1 1-1 4-2h-2l-1 1-2-1h-2l-1 1c1 1 1 1-1 1l-1 1 1 1h3zm37 0v-1l-1 1h1zm73 0h-1 1zm20 0h-1 1zM35 55l-1-1v1h1zm5-1v-1l-1-1-2 1 2 2 1-1zm17 1v-1l-1 1h1s1 0 0 0zm35-1 2-3v-1l-1-1-1 1-4 5h1l3-1zm72 0 4-3 1-4-2 1c-1 1-1 2-2 1v2l-1 1h-2l-2 1-1 1 1 1a18 18 0 0 1 2 0l2-1zm17 1v-1l-1 1h1zm73-2 1-2h-3l-1 1 1 3 2-2zM8 54v-3l-1 1 1 3v-1zm25 0h-1v1l1-1zm157 0v-1l-1 1 1 1v-1zM24 54h-1 1zm4-1-1-1v1l1 1v-1zm91 0 1-2-1-1-2-1v1l-2 1-1 1 2-1h2v3l1-1zm61 1h-1 1zm69-1v1-1zM11 54v-1 1zm101 0h-2 2zm95-1v-2l-1 1-1 1h2zm96 0v1-1zM36 53h-1v1l1-1zm15 0v-2l1-2v-1l-1 1c-1 0-2 2-1 4h1zm106 0h-1 1zm25 0h-1 1zm29-1-1-1v1l-1 1h1l1-1zm74 1v-1l-1 1h1zm7 0-2-1v1h2zm7-1h1l2-2 1-3c-1-1-1 0-2 2l-2 2-1 2c-1 0 0 0 0 0l1-1zM32 53c-1 0 0 0 0 0s1 0 0 0zm10-1h-1c-1 0 0 0 0 0v1l1-1zm46 0h-1v1l1-1zm-63 0v-1l-1 1s0 1 0 0h1zm28 0-1-1v2l1-1zm70 0v1-1zm66 0 1-1-3 1h2zm118 0 1-1-1-1-1 1-1 1v1l2-1zm-109 0v-1l-2 1h2zm85-1 2-1h-1l-2 2 1-1zM37 50l-1 1h1v-1zm118 0 1-3-3 2-2 2 2 1 2-2zm59 1-1-1v2l1-1zM91 49h-2l-1 1v1l2-1 1-1zm66 2h1l1-1h-2l-1 1h1zm31 0v-1l-1 1h1zm16 0-1-1-1 1h2zm-90-1 1-1h1-4l-1 1h-1c-1 1 0 1 2 1l2-1zm81 0 3-2-3 1a136 136 0 0 1-4 2h1l3-1zm5 1-1-1v1h1zm96-1s0-1 0 0l-1 1h1v-1zm-166 0v1-1zm43-1c-1-1-1 0-1 1s0 1 0 0l1-1zM32 50l-1-2h-1l1 2h1zm32 0h1-1c-1 0-1 1 0 0zm43 0 1-1h2l1-1-4 1-2 1h2zm101 0 3-2h-2l-1 1-1 1c-1 0-1 0 0 0h1zm68-1h-1l-1 1h1l1-1zm15 1v-2l-1 1v1h1zM29 49l-1-2-1 2 1 1 1-1zm40 1-1-1-1 1c-1 0-1 0 0 0h2zm36-1 2-1 3-2h-1l-3 1-2 1-1 1h2zm-83-1-2-1v2h1l1-1zm62 1h-1l1 1v-1zm45 0h1v-1h-1l-1 1v1l1-1zm4 0h-2l1 1 1-1zm54 0 1-1h-1l-3 1 1 1 2-1zm18 0 2-1 1-1-1-1h-1c1 1 0 1-1 1l-2 1v1h2zM24 49v-1 1zm13-1-2 1h1l1-1zm24 1 1-1 2-2 2-3 2-2-2 1h-1v-1a22 22 0 0 0-5 2v6h1zm16 0v-4l-2 1-3-1v2l1 2h4zm20 0-1-1-1 1h2zm168 0v-3l-1 2v1h1zm4-2 1-2-2 2-2 2h1l2-2zm15 1 2-2 1-1v-1h-1l-2 1h-2l-1 2 1 2 2-1zM7 48H6v1l1-1zm12 0v-1h-1v2l1-1zm28 0-1-1-2-1v-2l-3-1v4h3l1 1 1 1 1-1zm103 0h-1 1zm43 0 8-3h-3l-5 1-3 1c-1 1 0 2 1 2l2-1zm29-1-2-1 1 1 1 1v-1zm66 1h-2l1 1 1-1zm9 0 1-1h-1l-1 1v1l1-1zM57 46l1-1-1-2v-4l-1 2-2 1-1 1 1 1 1 2v2h1l1-2zm10 2zm71 0h-1 1zm3 0-1-1v1h1zm41 0 1-1h-2v-2l-2-1-2 1 1 2 1 1h3zm77 0 1-2v-1h-4v2l2 1h1zm-138 0-1-1v1h1zm140-1h-1v1l1-1zM17 47l1-1 1-1h-1l-2 1v2l1-1zm53-1v-1l-2 1 2 2v-2zm73 1 1-1h-2c-1 2 0 2 1 1zm16 0h-1l1 1v-1zm93 0v-1h-1v2l1-1zm22 0 1-1h-2v1h1zM49 47zm79 0h-1 1s1 0 0 0zm115 0v-1h-1l1 1zM8 47l-1-1v1c0 1 0 0 0 0h1zm28-1h-1l2 1-1-1zm12-1 1-3c0-1 0 0 0 0l-3 4 1 1 1-2zm32 0-1 1v1-1l1-1zm36 1 1-1-1-1h2l2 2-1-2-2-2-2-1-1 1-2 2h-1v1l2 1 2 1 1-1zm38 0 1-1-1-2-1 2v2l1-1zm-70 0h-1l1 1v-1zm53 0v-1l-1-1a285 285 0 0 0-3-1l-1 1 1 2 2 1 2-1zm13 0v-2h-1a2332 2332 0 0 1 1 2zm141 0h-1c-1 0-1 0 0 0h1zm4 0 1-1v-1l-1 1-1 1h1zM87 44l-2 2 1-1 1-1zm11 1-1-3v4h1v-1zm53 1v-2 2zm36 0h-1 1zM29 45h-2c-1 0-2 0-1 1h1l2-1zm1 1v-1 1zm59 0v-1l-1 1h1zm13-1v-1l-1 1 1 1v-1zm27 0-1-2-1-2v-1l-3-2h-5v2l1-1 1-1h1l1 2 1 1v2l-2-2h-1l2 3 1 1h1v-1l1 1 2 1 1-1zm45 0v-1l-1 1v1l1-1zm16 1v-1l-1 1h1zm28-2v-1l-2-2h-2c-1 0-2 1-1 2l2 1 1 1h2l1 1-1-2zM13 45h-1c-1 0 0 0 0 0v1l1-1zm81 0 1-1 1-2v-2h-1l-3 3c-1 0 0 0 0 0h2v2zm-42-1v-1 2-1zm143 1 1-1-2-1h-2l1 1 1 1h1zm9 0-1-1-1-1 2 2zm-45-1 1-2 1-1-1-1h-2 1v1l-1 1h-2v2l1 1 2-1zm83 0-1-1v2l1-1zM14 44h-1 1c1 0 1 0 0 0zm94 0v-1h-1l-1 1h2zm57 0c2 0 3-1 2-2h-1v1-3l-1 1-2 1-1 2h3zm22 0h-1 1zm90-2h-1l-2 2 1-1 2-1zM22 44v-1 1c0 1 0 0 0 0zm258-1 2-3c-1-1-4 2-4 4h1l1-1zM75 44v-1h-1c-1 1 0 1 1 1zm111-1 1-2h-1l-2 1v1l1 1 1-1zm63 0v1-1zm17 0h-1v1l1-1zm24 0-1-1-1 1h2zM85 43v-1h-2l2 1zm4-1h-2l2 1v-1zm141 0v-2 1h-2v1l1 1 1-1zm38 0v-1l-1 1 1 1v-1zM33 42l-1-2-1-1-1 1v2l2 1 1-1zm44 0h1v-1l-2 1h1zm27 0v-1l-1 1h1zm3 0 1-1 1-1 4-4 1-1h-5l-3 1v1l1 1 1-1 1-1-2 4-1 2h1zm41 0v-1l-2-1h-1l-1 1 1 1 1 1 2-1zm26 0 1-1h-5l1 1 2 1 1-1zm18 0v-1h-3v1h1l1 1 1-1zm6-1-2-1h-2v1l2 1h3l-1-1zm75 1h1l-1-1-1 1h1zm14-1 2-2-3-1-2 2-1 2 1-1h1v2l2-2zm-136 1c0-1 0-1 0 0h-1 1zm91 0v-2l1-2h-1l-1 2v1l-1 1h2zm3 0h-1 1zm19-1h-1v1l1-1zM71 42v-1 1c0 1 0 0 0 0zm140-1c2-1 3-2 2-3h-1l-6 1-1 1 1 1h2l1 1 2-1zm-109-1 1-1 1-2v-3h-2l-1 1 1 1 1 1-1 1c-1-1-1 0-2 1v2h1l1-1zm-42 0h-1v1l1-1zm78 0v-2h-1l-2-1-2-1v2l2 2 2 1 1-1zm-45 0v-1l-1 1h1zm155 0h-1l1 1v-1zM50 40v-1l-1 1h1zm68-1v-2l-2 1v1l1 1 1-1zm25 0h-1v1l1-1zm27 1v-1h-3c0 1 2 2 3 1zm85 0v-1l-1 1h1zM22 39v-1h-2l-1 1 2 1 1-1zm157 0h-1s-1 0 0 0l1 1v-1zM39 39l1-1-1-1-1 1v2l1-1zm74 0v1-1zm35-1h-2l1 1h2l-1-1zm41 1h-2 2zm90-1 2-1-2-1-1 2v2l1-2zM72 39l2-3-1-1-1 2-1 1v1h1zm7-1c2 0 2-1 1-1s-3 1-2 2l1-1zm116 0-2 1h1l1-1zm9 1v-1l-1-1-1-1h-2l-1-3-2-2c-2 0-2 0-1 1v1l1 1 2 2 1 1 2 1 2 1zm12 0h-1 1zM55 38l1-1-1-1c-1-1-3 2-2 2v1l2-1zm97 0 1-1c-1-1-2 1-2 1l1 1v-1zm-56 0v-1l-2 1h2zm32 0-1-1 1 1zm30-1-1-1v2l1-1zm3 1h-1 1zm17 0h-2 2zm54 0 1-3h-2l-2 3h3zm21 0 1-2h-1l-1 1c0 1 0 2 1 1zm23 0v-1 1zM16 37h-1l1 1v-1zm20 1-2-1 1 1h1zm27-1h-2v1h1l1-1zm5 1 2-3 1-3h-1v1l-2 1-2 2v1l1 1h1zm177-1v-1h-1l1 2v-1zm6 0v-1l1-1c0-1 0-1 0 0h-2l-2 1-1 2 1-1 1 1 2-1zM13 37c0-1 0 0 0 0 0 1 0 1 0 0zm31 1v-1 1s1 0 0 0zm44-1h1l1-2-1-1-4 3 1 1 2-1zm83 0h-1c-1 0 0 0 0 0v1l1-1zm35 0-1-1v1l1 1v-1zm19 0v-1l-1 1 1 1v-1zM51 36l-2-1v2l2-1zm26 1-1-2h-1c-1 0 0 0 0 0l-1 1h1l1 1c-1 0-1 0 0 0h1zm54 0-1-2h-1l1 2h1zm20 0v-2l-2 1v1h2zm12 0-1-1h-1v1h2zm21 0-2-1-1-1-1 1c-2 1-1 1 2 1h2zm3 0c-1 0-1 0 0 0zm42 0v-2l-1-1h-1v3h2zm28-1 2-3-2 2-2 2h1l1-1zm-139 0h-1l-1 1 2-1zm97 0h-1v1h1v-1zm-70 0-1-1v2l1-1zm10 0h-1 1zm18 0h-1 1zm89 0h-1v1l1-1zM20 36v-1c-2 0-3 0-2 1h2zm169 0h-1 1zm23 0v-1h-4 1l2 1h1zm12-1 1-2-1-1s-2 3-1 4l1-1zM42 34l1-4-1-2-1 2v2l-1 2 1 2 1-2zm126 1 1-2v-2l-2 1-1 2v2h1l1-1zm10 1-2-1v1h2zm8 0-1-1v1h1zm83-2 1-3-2 1-1 3v1l2-2zM65 35v-1l-1 1h1zm206 0 1-2v-1l1-2h-1l-3 5 1 1 1-1zM27 35v-1l-1 1h1zm4 0v-1 1zm5-1-1 1h1v-1zm23 1 1-1v1h1l1-3-1-1h-1l-3 4h2zm21 0-1-1v1h1zm4-1 2-3 1-1-2 1c-1 0 0 0 0 0h-2v-1l-1 1v2l1 1v1l1-1zm52 1c1 0 0 0 0 0zm6 0v-3l-1-1h-1l-2-1v-1h-1l1 2 2 3 1 1h1zm17 0h-1c-1 0 0 0 0 0h1zm-31-1-1 1 1-1zm75 1-1-1v-1l-1 1 2 1c1 0 1 0 0 0zm53-1h-1 1zm-108 0c1 0 0 0 0 0v1-1zm116 0v-1h-1v2l1-1zm23 0-1-1-1-1h-1v2l1 1 2-1zM24 33l1-1c0-2-1-1-2 1l1 1v-1zm71 1v-1 1zm13 0 1-1-2-1v2h1zm24 0h-1c-1 0 0 0 0 0h1zM15 33l-2-3v3h2zm33 0 1-1v-1l-2 2v1l1-1zm6 1 1-3 2-3-1-1v2l-2 2-1 1 1 2c1 0 0 0 0 0zm98 0v-1 1c-1 0 0 0 0 0zm69-1 1-1 1-1-1-1h-1l-2 4h1l1-1zm-99 0v-2l-1-2-2 3 3 1zm23 0-1-1v2l1-1zm48 0v-1 1h1-1zm13 0-1-3v3h1zM44 31l1-3h-1l-1 5 1-2zm30 1-1 1 1-1zm42 0 1-2-1-1h-3l-1 2 3 2 1-1zm56 1 1-2v-1h2v-1h-3l-1 2v2h1zm107-1-1-1-1 1h-1l1 1 2-1zM7 32v1-1zm10 0 1-1 1-2h-1l-1 1-1 2v1l1-1zm16 0v1-1zm6 0v-3l-1 3v1l1-1zm50 0h-1c-1 0 0 0 0 0v1l1-1zm71 0 3-1 1-1h-3l-2 1-2 1 1 1 2-1zM30 32l-1-1v1h1zm62 0v-1l-1 1h1zm31-1v1c0 1 0 1 0 0v-1zm144 0c1 0 1 0 0 0v1-1zM78 32l-1-1v1h1zm53-1 1 1-1-1zm58 1 2-2 1-1v-1l-2 1-3 1-2 1 1 1h3zm13-1 2-2 2-1-1-1-1-1-1 1-1 3-1 2 1-1zm9 0 1-2-2-2h-3l1 1 1 1v2l1 1 1-1zm8 0v-2h-1v3l1-1zM51 31h-1v1l1-1zm15 0h-1v1l1-1zm32 0 1-1s1 0 0 0c0 0 0-1 0 0l-2-1h-1l1 3 1-1zm28-1 1-1-1 1-1 1 1-1zm26 0 2-1-1-1-1-2h-1l-2 3-1 1 1 1 1 1 2-2zm29 1h-1 1zm51 0-1-1-1 1 1 1 1-1zm4 0-1-1-1 1 2 1v-1zm-90 0-1-1 1 1zm-99 0 1-3h-1c1 1 0 2-1 3h1zm97-1h-1v1l1-1zM28 29v-2l-1 2c0 2 0 2 1 0zm9 1v-2h-1l-1 1 2 2v-1zm99-1h-2v1h1l1-1zm130 0v-1l-4 2 2 1 2-2zm9 1c1 0 0 0 0 0h-1l1 1v-1zM77 29h-1c0 1 0 2 1 1v-1zm-10 0 1-2-2 1-1 2h1l1-1zm-6 0v-2l1-2-2 1-1 1v2l1 1 1-1zm87-1 1-1h-1l-2 1v1l1 1 1-2zm8 1 1-1h-2l-1 1 1 1 1-1zm75 0h-1v1l1-1zm50 0 2-1h1l-1-1-1-1 1-1 1-2h-3l-3 1v-2h1l-3 2 1 2h2v3l2 1v-1zM50 29l1-3-1 2-1 1h1zm41 0h-2 2zm35 0 1-2h-3l-1 1 1 1h2zm58 0v-1h-1l-1 1h2zm43 0-2-1 1 1h1zm-27 0 1-1h-2l1 1zm40-2v-1l-1 3 1-2zM20 28v-2l-1 2 1 1v-1zm111 0 1-1h-1v2-1zm12 0 1-1v-1h-1l-1 1 1 2v-1zm25 0h-1v1l1-1zm-66 0v-2l-4 2h4zm39-1h-2v1h1l1-1zm31-1h-2v2l1-1 1-1zm17 2 1-2-2 2h1zm56 0h-1 1zM10 27v1-1zm5 0 1-2v-1l2-6-1-1-1 2a129 129 0 0 0-3 5v4l2-1zm93 0v-1l1-1v-1h-1l-2 3h2zm56 1v-1 1c0 1 0 0 0 0zm10 0v-1l-1 1h1zm20 0-1-1v1c0 1 0 0 0 0h1zm23-1v1-1zM54 27h-1l1 1v-1zm21-1 1-2h-1l-3 3 1 1 2-2zm147 1h-1 1zm53-1v-1l-2 2 2 1h1zM7 26v1-1zm98 0-1 1h1v-1zm51 1h-1 1zm5 0h-1 1zm82 0h-1 1zm-120-1h2-2l-1 1 1-1zm13 0 2-1h-3l-1 1v1l2-1zm44 0-1-2-1-2-1-1h-1c-1 1 0 2 1 3l1 2 1 1 1-1zm8 0 1-2-3-2h-1l1 1v3h2zm58 0h-1v1l1-1zm5-1c0-2-1-1-1 0v1l1-1zm21 0 1-2h2l-1-1-1 1h-1l-2 1v2c0 1 0 1 0 0l2-1zm-75 1h1l1-1h-1l-2 1h1zm61 0-1-1-1 1h2zm-137-1v-1l-3 2 3-1zm8 1v-1l-1 1h1zm66-1h-1v1h1v-1zm37 1-1-1-1-1h-1v1l2 1h1zM50 25v-1h-1v2l1-1zm118 0c1-1 1-1 0 0h-1 1zm48 1-1-1 1 1zm45 0v-2h-1v1c-1 1 0 1 1 1zM38 24v1-1zm7 1 2-2 2-3 1-2h-1l-1 1-1 1-2 1-2 4c-1 0 0 0 0 0h2zm20 0-1-1-1 1h2zm4-1h-1l-1 1h1l1-1zm48 0 3-1-1-1 1-1h1l-2-1-3 1-2 1-2 1c0 1 0 1 0 0l2 1 1 1 2-1zm-90 1-1-2-1 2h2zm6-1v1-1zm60 0 1-2v-2l-1 1-2 1c-2 1-2 2-1 3l3-1zm2 1h-1 1zm87 0v-1l-1 1h1zM41 23l-1 1h1v-1zm18 1h1l-1-1-2-1v2c-1 1 0 1 0 0h2zm106 0 3-1 1-1-1-2-2-2-1 1-1 2 1 1-2 1-2 1 2 1 2-1zm27 0-1-1v2l1-1zm44 0v-3h-1l-1-1-1 1v2l1 1 1 1 1-1zM88 24l1-1 2-2 3-3v-1h-1l-1 1-2 2-2 1-2 1c-1-1-1 0-1 1s1 2 3 1zm9 0-1-1v1h1zm28 0h-1 1zm24 0 2-1h3v-3h1l-7 3-1 1h2zm-95-1h-1v1l1-1zm104 0 2-1h-3l-1 2 2-1zM6 23v1-1zm98 0h-1l1 1v-1zm23-1h-1v1h1v-1zm79 0v-2l-2 1v1l1 2 1-2zM10 22H9v1l1-1zm72 1-1-1v1h1zm21-1 1-3 2-3c0-1-1-2-2-1l-2 1-1 3v4h1l1-1zm41 0h-1l-1 1h1l1-1zm64 1v-2l-1 1 1 1zm41 0h-1 1zM13 22l-1-1 1 2v-1zm16 0-1-1v2l1-1zm108 1 1-1h-4l-1 1h4zm3 0-1-1v1c0 1 0 0 0 0h1zm77 0v-2l-1-1-1 1v1l1 1h1zM40 22h-1v1l1-1zm12-1-1-1v2l1-1zm11 1-1-1 1 1zm69-1 1-2-3 1-1 1c-1 1 0 1 1 1l2-1zm97 1h-1 1zM61 21h-1v1l1-1zm87 0v-1l-1-1v-1l-1 1v2h2zm26 0 2-2-1-1h-2l-1 1-1 2 1 1 2-1zm77 1 1-2-1-1-1 1v2h1zm6-1v1-1zM27 20l2-3h-2l-2 1h-2l2 4 2-2zm72 1v1-1zm26 0c2-1 2-2 2-3l-1 1-1 1-1 1s0 1 0 0h1zm32 0v-1h-1v1h1zm66 0-1-1h-3l-1-1c-1 1 0 2 1 2h4zM34 20v-1l-1 1 1 1v-1zm20 1v-1h-1v1h1zm18 0h-1 1c1 0 0 0 0 0zm5-2h1c1 1 2-1 1-2l-1-1-5-1 2 1h2l-1 1-1 2v2l1-1 1-1zm1 2h-1 1zm124-1v-3h-1l-4 2h2c1-1 2 0 1 1v1h1l1-1zm37-1v-1l-1 1v2h1v-2zM82 20v-1l-1 1h1zm25 0h-1l1 1v-1zm6 0v-1h-1l-2 1h1l1 1 1-1zm28 0 2-3v-1l-2 1-2 2v2l2-1zm131 0s-1 0 0 0v1-1zM22 20l-1-1v1h1zm9 0c0-1 0 0 0 0-1 1-1 1 0 0zm37-1 1-3h1l1 1 1-1v-3l-1 1-3 3-2 3 2-1zm-53 1-1-1v1h1zm27 0v-1 1zm110-1 1-1h2l1-1-1-1-2-1-2 1c-2 1-2 2-2 3h3zm9 0-1-1-1 1 2 1v-1zm71 0 1-3h-1l-1 3v1l1-1zm17 0h-1v1c0 1 0 0 0 0l1-1zM7 19v-1 2-1zm51-1v-1h-2l-1 3 1-1 2-1zm13 1v1-1zm53 0h-2v1l2-1zm105 0-1 1 1-1zM37 18l-1-1 1 2v-1zm-26 1h-1c0-1 0-1 0 0h1zm74 0v-1 1zm25-1-1-1-1 1 1 1 1-1zm83 1 1-1 2-1 1-1c0-1-2-1-4 1l-2 2h2zm-76-1v-2h-2v2l1 1 1-1zM13 17h-1c-1 0 0 0 0 0v1l1-1zm54 0v-3l-2 2v2l2-1zm63 1-1-1v1c0 1 0 0 0 0h1zm89 0v-1l-1-1-2 2h3zM90 17l-1-1-1-1-1 2 1 1 2-1zm9 0h-1c-1 0 0 0 0 0s0 1 0 0h1zm25 0-1-2h-1v2l1 1 1-1zm61 0v-1h-1l-1 1h2zM43 16l-1-2v2l1 1v-1zm90 1v-1h-1l-1 1h2zm58-1 2-2-1-1-1 1-1 2h-1v1l2-1zM18 16v-1 1l1 1-1-1zm2 0v-1 1zm94 0h-1v1l1-1zm33 0v-1l-1 2 1-1zm17-1 1-3-3 2-1 2h1l2-1zm-4 1-2-1 1 1h1zm63-1h-1l1 1v-1zM15 15l-1-1v1c0 1 0 0 0 0h1zm7 0c0-1 0-1 0 0zm90-1-1-1v2l1-1zm8 0-1-1v-1h-2v2l2 1 1-1zm-29 0h2v-3l-1 1h-2v1l-1 1 1 1 1-1zm85 0h-1v1l1-1zm13 0h-1s-1 0 0 0c0 1 0 1 0 0h1zM47 13h-1l-1 1h1l1-1zm49 1zm3 0v-1l-1 1h1zm-47-1c0-1 0 0 0 0l-1 1h1v-1zm7 0h1l3-2v-1h-2l-4 4 2-1zm73 0 1-1v-1l-2 1v2l1-1zm7 0 1-3h-1l-1 1-1 2 1 1 1-1zm17 1-1-1-1 1h2zm-71-1h-1v1l1-1zm23 0-2-1v1h2zm-29 0 2-1h1l-1-1-2 1-1 1h1zm43 0h-1 1zm4 0 1-3-1 1-1 1h-1l1 1h1zM25 12v-2l-1 2h-1l-1 1h1l2-1zm46 0h-1v1l1-1zm100 0 3-2h-1l-1-1V8l-2 2-2 3 3-1zM39 9l-1-2-1 1-2 2h1l1 1 1 1h1V9zm58 3 1-1-1-1V9l-1-1-1 1v4l2-1zm6 0-1-1-1 1 1 1 1-1zm86 0h-1 1zM78 11l2-1 2-1-1-1h-1l-1 2-2 1h-1c-1 2 0 2 2 0zm80 1h-1 1zm17 0h-1 1zm10 0h-1 1zM45 10l-1 1h1v-1zm10 1h-1v1l1-1zm12 0h-1l1 1v-1zm87 0h-2 2zm10 0h-1v1l1-1zm-98-1c-1-1-1 0-1 1l1-1zm-8 0h-1v1l1-1zm47-1 1-1h-1l-1 1-1 1 1 1 1-2zM14 9V7c1 0 1 0 0 0l-1 1h-1v1l1 1 1-1zm4 0 1-2V6l-2 1-1 1-1 2h2l1-1zm72 1V9l-1 1h1zm28 0V9l-2 1h2zm6 0-1-1v1h1zm19 0 1-1-1-1-1 1v1h1zM47 9c1-1 1-1 0 0v1-1zm37 0h-1l1 1V9zm9 0h-1v1l1-1zm21 1V8l-1 2h1zm23-1h-1 1zM51 8h-1v1l1-1zm80 1-1-1-1-1-1-1-1 1v1l1 1h3zM61 8h-1v1l1-1zm17 0h-1 1zm29-1h-1l1 1V7zm29 0 1-1 1-3-1 1-2 1-2 2h3zM81 5h-1 1c1 0 0 0 0 0zm76 328-1-1h1l1 1h-1zM51 284l1-1 1 1h-2zm-4-4h1l-1 1v-1zm-4 0v-1h2v2l-2-1zm-4-2v-1l2 1h-2zm-16-8h1-1zM8 252l-1-1 2-2 2-1-1 3-2 1zM330 80v-2c1 0 2 1 1 2h-1zM54 7h1-1zM9 5V4h2l-1 2-1-1z"/>
</svg>
