<?xml version="1.0" encoding="utf-8"?>
<svg xmlns="http://www.w3.org/2000/svg" version="1.1" viewBox="0 0 2126 1699">
	<title>Twenty-nine measures of musical notation on the treble clef, with a ⁶⁄₈ time signature, in the key of D.</title>
	<path d="M0 42v3h2126v-3zm0 25v3h2126v-3zm0 25v2h2126v-2zm0 24v3h2126v-3zm0 25v3h2126v-3zm0 202v2h2126v-2zm0 25v2h2126v-2zm0 24v3h2126v-3zm0 25v3h2126v-3zm0 25v3h2126v-3zm0 201v3h2126v-3zm0 25v3h2126v-3zm0 25v3h2126v-3zm0 25v3h2126v-3zm0 25v2h2126v-2zm0 201v3h2126v-3zm0 25v3h2126v-3zm0 25v2h2126v-2zm0 25v2h2126v-2zm0 24v3h2126v-3zm0 202v2h2126v-2zm0 25v2h2126v-2zm0 24v3h2126v-3zm0 25v3h2126v-3zm0 25v3h2126v-3zm0 201v3h2126v-3zm0 25v3h2126v-3zm0 25v3h2126v-3zm0 25v3h2126v-3zm0 25v2h2126v-2z"/>
	<path d="M1805 1676c33 21 131 21 163 0-32 29-130 29-163 0"/>
	<path d="M1805 1676a1 1 0 0 0 0 1c16 14 49 21 82 21s65-7 82-21a1 1 0 0 0-1-1c-16 10-49 15-81 15s-65-5-81-15a1 1 0 0 0-1 0zm7 5c18 8 46 12 75 12s56-4 74-12c-17 11-46 16-74 16s-57-5-75-16zM638 762c22 13 91 13 114 0-23 21-92 21-114 0"/>
	<path d="M638 761a1 1 0 0 0-1 1c12 11 35 17 58 17s46-6 57-17a1 1 0 0 0 0-1c-12 7-34 10-57 10s-46-3-57-10zm4 4c13 5 33 8 53 8s39-3 52-8c-12 8-32 12-52 12s-40-4-53-12zm395-327c23 13 94 13 117 0-23 21-94 21-117 0"/>
	<path d="M1037 437a1 1 0 0 0-1 0 1 1 0 0 0 1 1c12 11 35 16 59 16 23 0 47-5 59-16a1 1 0 0 0-1-1c-11 7-35 10-58 10s-47-3-59-10zm5 4c13 5 33 8 54 8s40-3 53-8c-12 8-33 12-53 12s-41-4-54-12zm792 598c24 14 95 14 118 0-23 22-94 22-118 0"/>
	<path d="M1834 1038a1 1 0 0 0 0 1c12 11 36 17 59 17 24 0 48-6 60-17a1 1 0 0 0-1-1c-12 7-35 11-59 11-23 0-47-4-58-11a1 1 0 0 0-1 0zm5 4c13 5 34 8 54 8s41-3 54-8c-12 8-33 13-54 13-20 0-41-5-54-13zm-350-869c20 11 81 11 101 0-20 19-81 19-101 0"/>
	<path d="M1591 172a1 1 0 0 0-1 0c-10 6-30 9-50 9-21 0-41-3-51-9a1 1 0 0 0 0 1 1 1 0 0 0-1 0c11 10 31 15 52 15s40-5 51-15a1 1 0 0 0 0-1zm-98 4c11 4 29 6 47 6 17 0 35-2 46-6-11 7-29 11-46 11s-36-4-47-11zm245 1077c30-26 120-26 150 0-30-19-120-19-150 0"/>
	<path d="M1813 1233c-30 0-60 6-76 20a1 1 0 0 0 0 1 1 1 0 0 0 1 0c15-9 45-14 75-14s60 5 75 14a1 1 0 0 0 1-1c-16-14-46-20-76-20zm0 1c26 0 53 5 69 15-17-7-43-10-69-10s-53 3-69 10c16-10 42-15 69-15zM239 1075c23 14 94 14 118 0-24 22-95 22-118 0"/>
	<path d="M238 1074a1 1 0 0 0 0 1c12 12 36 17 60 17s47-5 59-17a1 1 0 0 0-1-1c-11 7-35 11-58 11s-48-4-59-11a1 1 0 0 0-1 0zm6 4c13 6 33 8 54 8 20 0 41-2 54-8-13 9-34 13-54 13-21 0-42-4-54-13z"/>
	<path d="M585 643v102m-2-102v102h4V643zm1155-300v102m-2-102v102h4V343zm388-301v102m-2-102v102h4V42zm-686 0v102m-2-102v102h4V42zm309 601v102m-2-102v102h4V643zM340 42v102m-3-102v102h5V42zm1032 601v102m-2-102v102h4V643zm757 0v102m-2-102v102h4V643zm2 602v102m-2-102v102h4v-102zm2-301v102m-2-102v102h4V944zm-1550 0v102m-3-102v102h5V944zm756-601v102m-2-102v102h5V343zm359 902v102m-2-102v102h4v-102zm101-301v102m-2-102v102h5V944zm317 601v102m-6-102v102h13v-102zm29 0v102m-7-102v102h14v-102zM700 42v102m-2-102v102h5V42zm1051 0v102m-2-102v102h4V42zm377 301v102m-2-102v102h4V343zm-722 601v102m-2-102v102h4V944zM598 343v102m-2-102v102h5V343zm479-301v102m-2-102v102h4V42zm88 1203v102m-2-102v102h4v-102zm593 300v102m-2-102v102h5v-102zM676 1245v102m-2-102v102h4v-102zm520 300v102m-3-102v102h5v-102zM946 643v102m-2-102v102h4V643zm42 301v102m-2-102v102h4V944zm-317 601v102m-2-102v102h5v-102zM984 343v102m-2-102v102h4V343z"/>
	<path d="m1689 1009 1-1v-6l-2-1h-3v-14h-3v15l-9 2v-14h-2v14l-4 1-1 2v5l1 2 4-1v16l-4 1-1 2v5l1 2 4-1v15h2v-16l9-1v14h3v-15l4-1 1-1v-6l-2-1h-3v-16l4-1m-16 3 9-1v16l-9 2v-17M891 408l2-1v-6l-2-2-3 1v-15h-3v16l-9 2v-14h-3v14l-4 1-1 1v6l2 1h3v16l-4 1-1 1v6l2 1h3v15h3v-16l9-2v14h3v-14l3-1 2-1v-6l-2-2-3 1v-16l3-1m-15 3 9-2v17l-9 2v-17"/>
	<path d="M1265 752v-79m-1 0v79h2v-79zm64 67v-70m-1 0v70h3v-70zm108 58v-83m-2 0v83h3v-83zm97 21v-77m-2 0v77h3v-77zM285 101V25m-1 0v76h2V25zm1309 678v-77m-1 0v77h2v-77zM405 151V68m-1 0v83h2V68zm1284 660v-83m-1 0v83h2v-83zm121 95v-83m-1 0v83h2v-83zM490 151V68m-1 0v83h2V68zM385 1605v-77m-2 0v77h3v-77zM561 151V68m-1 0v83h2V68zm1414 684v-82m-1 0v82h2v-82zm96 82v-82m-1 0v82h2v-82zM646 139V56m-1 0v83h2V56zm-394 997v-83m-1 0v83h3v-83zm516-844V50m-1 0v76h2V50zM376 1053v-83m-2 0v83h3v-83zm72 34v-77m-1 0v76h3v-76zm377-801V50m-1 0v76h3V50zm-304 954v-77m-1 0v76h2v-76zm363-801V50m-1 0v76h2V50zM637 941v-58m-1 0v58h2v-58zm300-782V25m-1 0v76h2V25zM703 941v-54m-2 0v54h3v-54zm67 79v-76m-1 0v76h2v-76zm254-764V44m-1 0v82h2V44zM833 966v-58m-1 0v58h3v-58zm309-769V56m-1 0v83h2V56zM931 941v-76m-1 0v76h3v-76zm121 89v-58m-1 0v58h2v-58zm176-745V68m-1 0v83h2V68zm-108 886v-55m-2 0v55h3v-55zm182-748V68m-2 0v83h3V68zm-113 911v-77m-1 0v77h2v-77zm66 102v-77m-1 0v76h3v-76zm136-776V68m-2 0v83h3V68zm-34 936v-77m-2 0v76h3v-76zm158-776V68m-2 0v83h3V68zm-35 898v-58m-1 0v58h3v-58zm145-757V68m-1 0v83h2V68zm-44 923v-76m-2 0v76h3v-76zm67 113v-83m-1 0v83h2v-83zm66-844V25m-1 0v76h3V25zm34 991v-83m-1 0v83h2v-83zm88-844V19m-1 0v70h2V19zm34 985v-77m-1 0v76h2v-76zm125 77v-77m-1 0v76h2v-76zm-99-850V12m-1 0v65h2V12zm199 992v-77m-1 0v76h2v-76zM1928 64V6m-2 0v58h3V6zM251 1292v-71m-1 0v71h3v-71zM1984 77V12m-1 0v65h2V12zM375 1292v-77m-1 0v77h2v-77zm83 52v-58m-1 0v58h3v-58zM2069 101V25m-1 0v76h2V25zM540 1279v-64m-1 0v64h2v-64zm83 77v-71m-1 0v71h3v-71zm121 83v-77m-2 1v76h3v-76zM251 390v-71m-1 0v71h3v-71zm615 985v-76m-1 0v76h3v-76zm54 10v76m-1-76v76h2v-76zM316 377v-64m-1 0v64h3v-64zm708 925v76m-1-76v76h2v-76zM381 365v-58m-1 0v58h3v-58zm698 931v76m-2-76v76h3v-76zM446 377v-64m-1 0v64h3v-64zm752 937v89m-1-89v89h2v-89zm106 13v80m-2-80v80h3v-80zM544 402v-76m-1 0v76h2v-76zm813 949v70m-1-70v70h3v-70zM664 439v-83m-1 1v82h2v-82zm776 906v76m-1-76v76h2v-76zm106 12v72m-2-72v72h3v-72zM761 402v-76m-1 0v76h3v-76zm839 962v63m-2-63v63h3v-63zM832 390v-71m-1 0v71h2v-71zm887 956v83m-1-83v83h2v-83zm158 0v83m-2-83v83h3v-83zM930 415v-83m-1 0v83h2v-83zm1058 972v-76m-1 0v76h2v-76zm83 76v-76m-1 0v76h2v-76zM1050 402v-77m-2 1v76h3v-76zM251 1568v-58m-1 0v58h3v-58zm224 82v-70m-2 0v70h3v-70zm701-1120v-77m-1 1v76h3v-76zM607 1617v-82m-1 0v82h2v-82zm127 70v-64m-1 0v64h2v-64zm539-1139v-76m-1 0v76h2v-76zM822 1605v-61m-1 0v61h2v-61zm570-1179v-58m-1 0v58h2v-58zM911 1654v-107m-1 0v107h2v-107zm90 70v-83m-1 0v83h2v-83zm457-1169v-55m-1 0v55h2v-55zm-322 1332v-83m-1 0v83h2v-83zm389-1132V313m-1 0v114h2V313zm-261 1317v-77m-1 0v77h2v-77zm328-1138v-83m-1 0v83h2v-83zm-213 1285v-72m-1 0v72h2v-72zm60 60v-64m-1 0v64h2v-64zm253-1151v-77m-1 0v77h3v-77zm-162 1317v-83m-1 0v83h2v-83zm284-1145v-77m-1 1v76h3v-76zm-169 1304v-79m-1 0v79h2v-79zm60 91v-89m-1 0v89h2v-89zm210-1126v-83m-1 0v83h2v-83zm-82 1310v-82m-1 0v82h2v-82zm155-1145v-83m-1 0v83h2v-83zm16 1310v-82m-1 0v82h2v-82zm83-1170v-76m-1 0v76h2v-76zM251 690v-70m-1 0v70h3v-70zm96 58v-76m-1 0v76h3v-76zm72 64v-58m-1 0v58h2v-58zm65 95v-86m-2 0v86h3v-86zm1424 135v-82m-1 0v82h3v-82zM544 728V626m-1 0v102h2V626zm107 114v-83m-1 0v83h2v-83zm122 83v-83m-1 0v83h2v-83zm72 46v-64m-2 0v64h3v-64zm65 64v-64m-1 0v64h2v-64zm107 113v-76m-1 0v76h2v-76zm65 76v-76m-2 0v76h3v-76zm65 76v-76m-1 0v76h2v-76zm65 76v-76m-2 0v76h3v-76z"/>
	<path d="M1578 159c0 4 3 9 11 9 11 0 22-8 22-17 0-6-5-9-12-9-9 0-21 8-21 17M386 674c0 4 3 9 11 9 11 0 21-9 21-17 0-6-4-10-11-10-9 0-21 9-21 18m190 951c0 5 3 9 11 9 11 0 21-8 21-17 0-6-5-9-11-9-9 0-21 8-21 17m575-638c0 4 3 9 11 9 11 0 21-9 21-17 0-6-5-9-11-9-9 0-21 8-21 17M254 110c0 4 3 9 11 9 10 0 21-9 21-18 0-5-5-9-11-9-9 0-21 8-21 18m120 49c0 4 3 9 11 9 10 0 21-8 21-17 0-6-5-9-11-9-10 0-21 8-21 17m69 1442c0 4 3 9 11 9 10 0 21-9 21-18 0-5-5-9-11-9-10 0-21 8-21 18m16-1442c0 4 3 9 11 9 10 0 21-8 21-17 0-6-5-9-11-9-10 0-21 8-21 17m71 0c0 4 3 9 11 9 10 0 21-8 21-17 0-6-5-9-11-9-10 0-21 8-21 17M354 1613c0 4 3 9 11 9 10 0 21-9 21-17 0-6-5-9-11-9-10 0-21 8-21 17M615 147c0 4 3 9 11 9 10 0 21-9 21-17 0-6-5-9-11-9-10 0-21 8-21 17m120-13c0 5 3 9 11 9 10 0 21-8 21-17 0-6-5-9-11-9-10 0-21 8-21 17M450 711c0 4 3 9 11 9 10 0 21-8 21-17 0-6-5-9-11-9-10 0-21 8-21 17m341-577c0 5 3 9 12 9 10 0 21-8 21-17 0-6-5-9-11-9-10 0-22 8-22 17m57 0c0 5 3 9 11 9 11 0 21-8 21-17 0-6-5-9-11-9-9 0-21 8-21 17m57-24c0 4 3 9 11 9 10 0 21-9 21-18 0-5-5-9-11-9-10 0-21 8-21 18m499 626c0 4 3 9 11 9 10 0 21-9 21-17 0-6-5-10-11-10-10 0-22 9-22 18M990 134c0 5 3 9 11 9 10 0 21-8 21-17 0-6-5-9-11-9-10 0-21 8-21 17m120 13c0 4 3 9 11 9 10 0 21-9 21-17 0-6-5-9-11-9-10 0-21 8-21 17M220 1576c0 4 3 9 11 9 11 0 21-9 21-17 1-6-4-10-11-10-9 0-21 9-21 18m975-1417c0 4 3 9 11 9 10 0 21-8 21-17 0-6-5-9-11-9-10 0-21 8-21 17m71 0c0 4 3 9 11 9 10 0 21-8 21-17 0-6-5-9-11-9-10 0-21 8-21 17m-180 803c0 4 3 9 11 9 10 0 21-8 21-17 0-6-5-9-11-9-10 0-21 8-21 17m265-803c0 4 3 9 11 9 10 0 21-8 21-17 0-6-5-9-11-9-10 0-21 8-21 17m120 0c0 4 3 9 11 9 10 0 21-8 21-17 0-6-5-9-11-9-10 0-22 8-22 17M711 1312c0 5 3 9 11 9 10 0 21-8 21-17 0-6-5-9-11-9-10 0-21 8-21 17M513 736c0 4 3 9 11 9 11 0 21-9 21-17 0-6-5-10-11-10-9 0-21 9-21 18m1150-626c0 4 3 9 11 9 11 0 22-9 22-18 0-5-5-9-12-9-9 0-21 8-21 18m120-13c0 4 3 9 11 9 11 0 21-8 21-17 0-6-5-9-11-9-9 0-21 8-21 17M619 748c0 4 3 9 11 9 11 0 21-8 21-17 0-6-4-9-11-9-9 0-21 8-21 17M1840 85c0 4 3 9 11 9 10 0 21-9 21-17 0-6-5-9-11-9-10 0-21 8-21 17m57-13c0 5 3 9 11 9 10 0 21-8 21-17 0-6-5-9-11-9-10 0-21 8-21 17m56 13c0 4 3 9 11 9 11 0 22-9 22-17 0-6-5-9-12-9-9 0-21 8-21 17m85 1227c0 5 3 9 11 9 11 0 22-8 22-17 0-6-5-9-12-9-9 0-21 8-21 17m0-1202c0 4 3 9 11 9 11 0 22-9 22-18 0-5-5-9-12-9-9 0-21 8-21 18M672 950c0 4 3 9 11 9 10 0 21-9 21-18 0-5-5-9-11-9-10 0-21 8-21 18m-452 111c0 4 3 9 11 9 11 0 21-8 21-17 1-6-4-9-11-9-9 0-21 8-21 17m0-663c0 4 3 9 11 9 11 0 21-9 21-17 1-6-4-9-11-9-9 0-21 8-21 17m1736 914c0 5 3 9 11 9 10 0 21-8 21-17 0-6-5-9-11-9-10 0-21 8-21 17M285 385c0 5 3 9 11 9 11 0 22-8 22-17 0-6-5-9-12-9-9 0-21 8-21 17m65-12c0 4 3 9 11 9 11 0 22-8 22-17 0-6-5-9-12-9-9 0-21 8-21 17m65 12c0 5 3 9 11 9 11 0 22-8 22-17 0-6-5-9-12-9-9 0-21 8-21 17m1458 890c0 4 3 9 11 9 11 0 22-8 22-17 0-6-5-9-12-9-9 0-21 8-21 17M513 410c0 5 3 9 11 9 10 0 21-8 21-17 0-6-5-9-11-9-10 0-21 8-21 17m120 37c0 5 3 9 11 9 10 0 21-8 21-17 0-6-5-9-11-9-10 0-21 8-21 17m387 515c0 4 3 9 11 9 11 0 22-8 22-17 0-6-5-9-12-9-9 0-21 8-21 17M730 410c0 5 3 9 11 9 11 0 22-8 22-17 0-6-5-9-11-9-10 0-22 8-22 17m71-12c0 4 3 9 11 9 11 0 21-9 21-17 0-6-5-9-11-9-9 0-21 8-21 17m916 877c0 4 3 9 11 9 10 0 21-8 21-17 0-6-5-9-11-9-10 0-22 8-22 17M899 423c0 4 3 9 11 9 10 0 21-9 21-17 0-6-5-10-11-10-10 0-21 9-21 18m1044 338c0 4 3 9 11 9 11 0 21-9 21-18 0-5-5-9-11-9-9 0-21 8-21 18m-924-351c0 5 3 9 11 9 10 0 21-8 21-17 0-6-5-9-11-9-10 0-21 8-21 17m578 878c0 4 3 9 11 9 11 0 22-9 22-18 0-5-5-9-12-9-9 0-21 8-21 18m-455-878c0 5 3 9 11 9 11 0 22-8 22-17 0-6-5-9-12-9-9 0-21 8-21 17m400 865c0 4 3 9 11 9 11 0 22-8 22-17 0-6-5-9-12-9-9 0-21 8-21 17m-302-865c0 5 3 9 11 9 10 0 21-8 21-17 0-6-5-9-11-9-10 0-21 8-21 17m120-37c0 4 3 9 11 9 10 0 21-8 21-17 0-6-5-9-11-9-10 0-21 8-21 17m139 301c0 4 3 9 11 9 10 0 21-9 21-17 0-6-5-10-11-10-10 0-21 9-21 18m-74-301c0 4 3 9 11 9 10 0 21-8 21-17 0-6-5-9-11-9-10 0-21 8-21 17m65 62c0 4 3 9 11 9 10 0 21-8 21-17 0-6-5-9-11-9-10 0-21 8-21 17m65-12c0 4 3 9 11 9 10 0 21-9 21-17 0-6-5-10-11-10-10 0-21 9-21 18m-117 840c0 4 3 9 11 9 10 0 21-9 21-17 0-6-5-10-11-10-10 0-21 9-21 18m215-865c0 4 3 9 11 9 10 0 21-9 21-17 0-6-5-9-11-9-10 0-22 8-22 17m120 12c0 5 3 9 12 9 10 0 21-8 21-17 0-6-5-9-11-9-10 0-22 8-22 17M900 950c0 4 3 9 11 9 11 0 22-9 22-18 0-5-5-9-11-9-10 0-22 8-22 18m970-515c0 4 3 9 11 9 10 0 21-8 21-17 0-6-5-9-11-9-10 0-21 8-21 17m71 0c0 4 3 9 11 9 10 0 21-8 21-17 0-6-5-9-11-9-10 0-21 8-21 17m-343 601c0 5 3 9 11 9 10 0 21-8 21-17 0-6-5-9-11-9-10 0-21 8-21 17m-243 239c0 4 3 9 11 9 11 0 21-8 21-17 0-6-5-9-11-9-9 0-21 8-21 17m-940-263c0 4 3 9 12 9 10 0 21-9 21-18 0-5-5-9-11-9-10 0-22 8-22 18m1281 12c0 4 3 9 11 9 10 0 21-8 21-17 0-6-5-9-11-9-9 0-21 8-21 17m-462-263c0 4 3 9 11 9 10 0 21-9 21-18 0-5-5-9-11-9-9 0-21 8-21 18m66 502c0 4 3 9 11 9 11 0 21-9 21-17 0-6-5-10-11-10-9 0-21 9-21 18m-129-502c0 4 3 9 11 9 10 0 21-9 21-18 0-5-5-9-11-9-10 0-22 8-22 18m26 489c0 5 3 9 11 9 10 0 21-8 21-17 0-6-5-9-11-9-10 0-21 8-21 17m620-238c0 4 3 9 11 9 10 0 21-9 21-18 0-5-5-9-11-9-10 0-21 8-21 18M802 974c0 5 3 9 11 9 11 0 22-8 22-17 0-6-5-9-12-9-9 0-21 8-21 17m1236-213c0 4 3 9 11 9 11 0 22-9 22-18 0-5-5-9-12-9-9 0-21 8-21 18m-98 251c0 4 3 9 11 9 11 0 21-9 21-18 0-5-5-9-11-9-9 0-21 8-21 18M740 748c0 4 3 9 11 9 10 0 21-8 21-17 0-6-5-9-11-9-10 0-21 8-21 17m-254 264c0 4 3 9 11 9 11 0 21-9 21-18 0-5-4-9-11-9-9 0-21 8-21 18m1552 0c0 4 3 9 11 9 11 0 22-9 22-18 0-5-5-9-12-9-9 0-21 8-21 18m-931-251c0 4 3 9 11 9 11 0 21-9 21-18 0-5-5-9-11-9-9 0-21 8-21 18m-63 0c0 4 3 9 11 9 10 0 21-9 21-18 0-5-5-9-11-9-10 0-21 8-21 18m-233-50c0 4 3 9 11 9 10 0 21-8 21-17 0-6-5-9-11-9-10 0-21 8-21 17m169 50c0 4 3 9 11 9 11 0 21-9 21-18 0-5-4-9-11-9-9 0-21 8-21 18m797-13c0 4 3 9 11 9 11 0 21-8 21-17 0-6-5-9-11-9-9 0-21 8-21 17m-700 490c0 4 3 9 11 9 10 0 21-9 21-17 0-6-5-9-11-9-10 0-22 8-22 17m-54 0c0 4 3 9 11 9 10 0 21-9 21-17 0-6-5-9-11-9-10 0-22 8-22 17m-801 62c0 4 3 9 11 9 11 0 21-9 21-17 1-6-4-9-11-9-9 0-21 8-21 17m517-326c0 5 3 9 11 9 10 0 21-8 21-17 0-6-5-9-11-9-10 0-21 8-21 17m825-263c0 4 3 9 11 9 11 0 21-8 21-17 0-6-5-9-11-9-9 0-21 8-21 17M344 1300c0 4 3 9 11 9 10 0 21-9 21-17 0-6-5-9-11-9-9 0-21 8-21 17m573-62c0 4 3 9 11 9 10 0 21-9 21-17 0-6-5-9-11-9-10 0-21 8-21 17m-491 37c0 4 4 9 12 9 10 0 21-8 21-17 0-6-5-9-11-9-10 0-22 8-22 17m1231-539c0 4 3 9 11 9 11 0 22-9 22-17 0-6-5-10-12-10-9 0-21 9-21 18M606 950c0 4 3 9 11 9 11 0 21-9 21-18 0-5-5-9-11-9-9 0-21 8-21 18m-97 338c0 4 3 9 11 9 10 0 21-9 21-18 0-5-5-9-11-9-10 0-21 8-21 18m325 24c0 5 3 9 12 9 10 0 21-8 21-17 0-6-5-9-11-9-10 0-22 8-22 17m-243-12c0 4 4 9 12 9 10 0 21-9 21-17 0-6-5-9-11-9-10 0-22 8-22 17m283-589c0 4 3 9 11 9 11 0 21-8 21-17 0-6-5-9-11-9-9 0-21 8-21 17m-559-25c0 4 3 9 12 9 10 0 21-8 21-17 0-6-5-9-11-9-10 0-22 8-22 17m387 927c0 4 3 9 11 9 10 0 21-9 21-17 0-6-5-9-11-9-10 0-21 8-21 17m514-601c0 4 3 9 12 9 10 0 21-9 21-18 0-5-5-9-11-9-10 0-22 8-22 18m-425 601c0 4 3 9 11 9 10 0 21-9 21-17 0-6-5-9-11-9-10 0-21 8-21 17m89 50c0 4 3 9 11 9 10 0 21-9 21-18 0-5-5-9-11-9-10 0-21 8-21 18m89-38c0 5 3 9 11 9 10 0 21-8 21-17 0-6-5-9-11-9-10 0-21 8-21 17m346-613c0 4 3 9 11 9 10 0 21-9 21-18 0-5-5-9-11-9-10 0-22 8-22 18m-212 638c0 4 3 9 11 9 11 0 22-8 22-17 0-6-5-9-12-9-9 0-21 8-21 17M220 699c0 4 3 9 11 9 11 0 21-9 21-18 1-5-4-9-11-9-9 0-21 8-21 18m1008 939c0 4 3 9 11 9 10 0 21-9 21-17 0-6-5-10-11-10-9 0-21 9-21 18m69-890c0 4 3 9 12 9 10 0 21-8 21-17 0-6-5-9-11-9-10 0-22 8-22 17m44 877c0 5 3 9 11 9 10 0 21-8 21-17 0-6-5-9-11-9-10 0-21 8-21 17m-996-564c0 4 3 9 11 9 10 0 21-8 21-17 0-6-5-9-11-9-10 0-21 8-21 17m1055 552c0 4 3 9 11 9 11 0 21-9 21-17 0-6-5-9-11-9-9 0-21 8-21 17m34-639c0 5 3 9 12 9 10 0 21-8 21-17 0-6-5-9-11-9-10 0-22 8-22 17m55 664c0 4 3 9 11 9 11 0 21-9 21-17 0-6-5-10-11-10-9 0-21 9-21 18m113 0c0 4 3 9 11 9 10 0 21-9 21-17 0-6-5-10-11-10-10 0-21 9-21 18m59 12c0 4 3 9 11 9 11 0 21-8 21-17 0-6-5-9-11-9-9 0-21 8-21 17m-128-651c0 4 3 9 11 9 10 0 21-8 21-17 0-6-5-9-11-9-10 0-22 8-22 17m255 664c0 4 3 9 11 9 10 0 21-9 21-18 0-5-5-9-11-9-10 0-21 8-21 18m85-902c0 4 3 9 11 9 11 0 22-9 22-18 0-5-5-9-12-9-9 0-21 8-21 18m84 902c0 4 3 9 11 9 11 0 21-9 21-18 0-5-5-9-11-9-9 0-21 8-21 18m82-1253c0 5 3 9 11 9 11 0 22-8 22-17 0-6-5-9-12-9-9 0-21 8-21 17"/>
	<path d="M31 770c0 7 5 15 18 15 5 0 9-1 12-3 6-4 7-10 7-17l-1-14-2-9c10-3 17-13 17-23 0-15-11-25-25-25l-3-17c11-12 18-24 18-40 0-9-3-16-4-20-3-5-6-8-8-8l-7 5c-6 7-8 20-8 28l2 22-7 7c-9 8-21 20-21 40 0 19 16 33 34 33h8l3 21c0 11-5 16-15 16h-5v-1c5-1 10-5 10-11 0-5-4-11-12-11-7 0-11 6-11 12m21-132c0-4 5-15 10-15 2 0 4 5 4 12 0 10-8 18-14 25l-2-12 2-10m8 102h-5c-15 0-27-10-27-25 0-12 9-23 17-30l5-5 3 15c-10 2-16 12-16 21 0 7 6 17 14 17l1-2-2-2c-4-2-6-5-6-10 0-6 5-11 11-12l5 33m14-19c0 7-3 15-10 17l-5-32c9 0 15 6 15 15m-43 350c0 6 5 15 18 15 5 0 9-1 12-3 6-4 7-11 7-17l-1-14-2-9c10-3 17-13 17-23 0-15-11-25-25-25l-3-18c11-11 18-23 18-39 0-9-3-16-4-20-3-5-6-9-8-9l-7 6c-6 7-8 20-8 28l2 21-7 7c-9 9-21 21-21 41 0 18 16 33 34 33l8-1 3 22c0 10-5 16-15 16l-5-1c5-1 10-5 10-11s-4-11-12-11c-7 0-11 5-11 12m21-133c0-4 5-14 10-14 2 0 4 5 4 12 0 10-8 18-14 24l-2-12 2-10m8 102-5 1c-15 0-27-10-27-25 0-12 9-23 17-31l5-4 3 14c-10 3-16 12-16 22 0 7 6 16 14 16l1-1-2-2c-4-3-6-5-6-10 0-6 5-11 11-12l5 32m14-18c0 7-3 14-10 17l-5-32c9 0 15 6 15 15m-43 650c0 7 5 15 18 15 5 0 9-1 12-3 6-4 7-11 7-17l-1-14-2-9c10-3 17-13 17-23 0-15-11-25-25-25l-3-18c11-11 18-23 18-39 0-9-3-16-4-20-3-5-6-8-8-8l-7 5c-6 7-8 20-8 28l2 22-7 7c-9 8-21 20-21 40 0 19 16 33 34 33h8l3 21c0 11-5 16-15 16h-5v-1c5-1 10-5 10-11s-4-11-12-11c-7 0-11 5-11 12m21-132c0-4 5-15 10-15 2 0 4 5 4 12 0 10-8 18-14 25l-2-12 2-10m8 102h-5c-15 0-27-10-27-25 0-12 9-23 17-30l5-5 3 15c-10 2-16 12-16 21 0 7 6 17 14 17l1-2-2-2c-4-2-6-5-6-10 0-6 5-11 11-12l5 33m14-19c0 7-3 14-10 17l-5-32c9 0 15 6 15 15M31 469c0 7 5 16 18 16 5 0 9-2 12-4 6-4 7-10 7-16l-1-14-2-9c10-3 17-13 17-24 0-15-11-25-25-25l-3-17c11-11 18-24 18-39 0-9-3-17-4-20-3-5-6-9-8-9l-7 5c-6 8-8 20-8 29l2 21-7 7c-9 9-21 21-21 40s16 34 34 34l8-1 3 22c0 10-5 15-15 15h-5v-1c5 0 10-4 10-11 0-5-4-11-12-11-7 0-11 6-11 12m21-132c0-4 5-14 10-14 2 0 4 4 4 11 0 11-8 18-14 25l-2-12 2-10m8 102-5 1c-15 0-27-10-27-25 0-12 9-23 17-31l5-4 3 14c-10 3-16 12-16 21 0 7 6 17 14 17l1-1-2-3c-4-2-6-5-6-9 0-6 5-11 11-13l5 33m14-18c0 7-3 14-10 17l-5-32c9 0 15 6 15 15m-43 950c0 7 5 16 18 16 5 0 9-2 12-4 6-4 7-10 7-16l-1-14-2-9c10-3 17-13 17-24 0-15-11-25-25-25l-3-17c11-11 18-24 18-39 0-9-3-17-4-20-3-5-6-9-8-9l-7 5c-6 8-8 20-8 29l2 21-7 7c-9 9-21 21-21 40s16 34 34 34l8-1 3 22c0 10-5 15-15 15h-5v-1c5 0 10-4 10-11 0-5-4-11-12-11-7 0-11 6-11 12m21-132c0-4 5-14 10-14 2 0 4 4 4 11 0 11-8 18-14 25l-2-12 2-10m8 102-5 1c-15 0-27-10-27-25 0-12 9-23 17-31l5-4 3 14c-10 3-16 12-16 21 0 7 6 17 14 17l1-1-2-3c-4-2-6-5-6-9 0-6 5-11 11-13l5 33m14-18c0 7-3 14-10 17l-5-32c9 0 15 6 15 15M31 169c0 6 5 15 18 15 5 0 9-1 12-3 6-4 7-11 7-17l-1-14-2-9c10-3 17-13 17-23 0-15-11-25-25-25l-3-18c11-11 18-23 18-39 0-9-3-16-4-20-3-5-6-8-8-8l-7 5c-6 7-8 20-8 28l2 21-7 8c-9 8-21 20-21 40 0 18 16 33 34 33l8-1 3 22c0 10-5 16-15 16l-5-1c5-1 10-5 10-11s-4-11-12-11c-7 0-11 5-11 12M52 36c0-4 5-14 10-14 2 0 4 5 4 12 0 10-8 18-14 24l-2-12 2-10m8 102-5 1c-15 0-27-10-27-25 0-12 9-23 17-31l5-4 3 14c-10 3-16 12-16 22 0 7 6 16 14 16l1-1-2-2c-4-3-6-5-6-10 0-6 5-11 11-12l5 32m14-18c0 7-3 14-10 17l-5-32c9 0 15 6 15 15"/>
	<path d="m130 1236 1-2v-6l-2-1-3 1v-15h-3v15l-8 2v-14h-3v15l-4 1-1 1v6l2 1 3-1v17l-4 1-1 1v6l2 1 3-1v15h3v-15l8-2v14h3v-15h4l1-2v-6l-2-1-3 1v-17h4m-15 3 8-2v16l-8 2v-16m42 34 1-1v-6l-1-2-4 1v-15h-2v16l-9 1v-14h-3v15l-4 1-1 1v6l2 1h3v16l-4 1-1 1v6l2 1h3v14h3v-15l9-2v14h2v-14l4-1 1-1v-6l-1-2-4 1v-16l4-1m-15 3 9-2v17l-9 1v-16m-12 260 1-1v-6l-2-1h-3v-14h-3v15l-8 2v-14h-3v14l-4 1-1 2v5l2 2 3-1v16l-4 1-1 2v5l2 2 3-1v15h3v-16l8-1v14h3v-15l4-1 1-1v-6l-2-1h-3v-16l4-1m-15 3 8-1v16l-8 2v-17m42 35 1-2v-6l-1-1-4 1v-15h-2v15l-9 2v-14h-3v15h-4l-1 2v5c0 2 1 2 2 2l3-1v17h-4l-1 2v5c0 2 1 2 2 2l3-1v15h3v-15l9-2v14h2v-15h4l1-2v-6l-1-1-4 1v-17h4m-15 3 9-2v16l-9 2v-16M130 334l1-2v-6l-2-1-3 1v-15h-3v15l-8 2v-14h-3v15l-4 1-1 1v6l2 1 3-1v17l-4 1-1 1v6l2 1 3-1v15h3v-15l8-2v14h3v-15h4l1-2v-6l-2-1-3 1v-17h4m-15 3 8-2v16l-8 2v-16m42 34 1-2v-5l-1-2-4 1v-15h-2v16l-9 1v-14h-3v15l-4 1-1 1v6l2 1h3v16l-4 1-1 1v6l2 1h3v14h3v-15l9-2v14h2v-14l4-1 1-2v-5l-1-2-4 1v-16l4-1m-15 3 9-2v17l-9 1v-16M130 33l1-1v-6l-2-2-3 1V10h-3v16l-8 1V13h-3v15l-4 1-1 1v6l2 1h3v16l-4 1-1 1v6l2 1h3v14h3V61l8-2v14h3V59l4-1 1-1v-6l-2-2-3 1V34l4-1m-15 3 8-2v17l-8 2V36m42 34 1-1v-6l-1-1h-4V47h-2v16l-9 2V51h-3v14l-4 1-1 1v6l2 2 3-1v16l-4 1-1 1v6l2 2 3-1v15h3V98l9-1v14h2V96l4-1 1-1v-6l-1-1h-4V71l4-1m-15 3 9-1v16l-9 2V73m-12 561 1-1v-6l-2-1h-3v-14h-3v15l-8 2v-14h-3v14l-4 1-1 2v5l2 2 3-1v16l-4 1-1 2v5l2 2 3-1v15h3v-16l8-1v14h3v-15l4-1 1-1v-6l-2-1h-3v-16l4-1m-15 3 8-1v16l-8 2v-17m42 35 1-2v-6l-1-1-4 1v-15h-2v15l-9 2v-14h-3v15h-4l-1 2v6l2 1 3-1v17h-4l-1 2v6l2 1 3-1v15h3v-15l9-2v14h2v-15h4l1-2v-6l-1-1-4 1v-17h4m-15 3 9-2v16l-9 2v-16m-12 260 1-1v-6l-2-2-3 1v-15h-3v16l-8 1v-14h-3v15l-4 1-1 1v6l2 1h3v16l-4 1-1 1v6l2 1h3v14h3v-15l8-2v14h3v-14l4-1 1-1v-6l-2-2-3 1v-16l4-1m-15 3 8-2v17l-8 2v-17m42 34 1-1v-6l-1-1h-4v-15h-2v16l-9 2v-14h-3v14l-4 1-1 1v6l2 2 3-1v16l-4 1-1 1v6l2 2 3-1v15h3v-16l9-1v14h2v-15l4-1 1-1v-6l-1-1h-4v-16l4-1m-15 3 9-1v16l-9 2v-17"/>
	<path d="M206 64c-6 0-8 2-9 3l-1-5c0-6 2-13 9-13 3 0 4 1 5 2-2 1-4 3-4 6s3 6 7 6c3 0 6-3 6-6v-4c-2-3-6-9-16-9-9 0-15 9-17 14-1 2-3 7-3 12 0 6 2 13 8 18s9 5 13 5c3 0 16-4 16-16 0-9-7-13-14-13m-3 25c-4 0-6-5-6-10 0-6 2-10 6-10s6 4 6 10c0 5-3 10-6 10m11 27c3-3 5-6 5-10 0-7-8-13-17-13-10 0-18 6-18 13 0 4 1 8 6 11-4 2-7 6-7 11 0 8 9 14 19 14s19-6 19-14c0-5-2-10-7-12m-6-3c-7-2-14-5-14-10 0-4 4-5 8-5 6 0 10 3 10 7 0 5-2 7-4 8m-6 24c-7 0-12-4-12-9 0-7 5-9 5-9 7 3 17 6 17 11 0 3-4 7-10 7"/>
	<path d="M1008 1499c-10-11-18-11-23-11s-13 0-23 11c-5 5-8 16-8 21l1 3c3 0 2-8 10-17 7-7 17-7 20-7 2 0 12 0 20 7 8 9 7 17 9 17 1 0 2-1 2-3 0-5-4-16-8-21m-30 19a7 7 0 1 0 14 0 7 7 0 0 0-14 0m-22-333c-10-10-18-11-23-11s-13 1-23 11c-4 5-8 16-8 21l2 4c2 0 1-9 9-17s17-8 20-8 12 0 20 8 7 17 9 17l2-4c0-5-3-16-8-21m-30 19a7 7 0 1 0 14 0 7 7 0 0 0-14 0"/>
	<path d="m1390 301 132 6v12l-132-6v-12M636 877l133 6v13l-133-6v-13M416 601l129 19v12l-129-18v-13m842 946 174-13v13l-174 12v-12m115 10-27 2v13l27-2v-13M840 632h66v13h-66v-13m973-620 116-12v12l-116 13V12M732 1534l180 7v12l-180-6v-13m-276-331 168 12v13l-168-13v-12m594-313 133 6v12l-133-6v-12M250 313l133-12v12l-133 13v-13M765 43h115v13H765V43m152 1265h162v12H917v-12m107-18h-27v12h27v-12m-14-620h129v12h-129v-12m186 663 162 6v13l-162-7v-12m107-15-28-1v13l28 1v-13m216 223 174 6v12l-174-6v-12m115 22-27-1v13l27 1v-13m-434-893 130-7v13l-130 6v-12m238 663 162 12v13l-162-13v-12m107-10-27-3v13l27 2v-12"/>
	<path d="m2068 1250 1 1c4 1 13 7 19 18 2 3 5 7 5 15a63 63 0 0 1-5 24l1 1 2-2c4-7 6-17 6-26-1-13-8-22-8-22l-12-16c-4-6-5-12-5-12l-1-4-2-1-1 2v22m0-1203 1 1c4 2 13 7 19 18 2 3 5 8 5 16a63 63 0 0 1-5 23l1 1 2-1c4-8 6-17 6-26-1-13-8-23-8-23l-12-16c-4-6-5-11-5-12l-1-4h-2l-1 1v22m-195 1311 2 1 1-1 1-4 4-10 15-18c5-7 8-13 8-22s-2-17-7-26l-2-1-1 1v1c4 9 6 15 6 22 0 8-3 12-5 15-6 11-17 17-21 18l-1 1v23M1693 47l1 1c4 2 13 7 19 18 2 3 5 8 5 16a63 63 0 0 1-5 23l1 1 2-1c4-8 6-17 6-26-1-13-8-23-8-23l-12-16c-4-6-5-11-5-12l-1-4h-2l-1 1v22m-313 44 1 1c4 1 13 7 19 18 2 3 5 7 5 15a63 63 0 0 1-5 23l1 1 2-1c4-8 6-17 6-26-1-13-8-22-8-22l-12-17-5-11-1-4-1-1-2 1v23m-155 0v1c5 1 13 7 20 18 1 3 4 7 4 15a63 63 0 0 1-5 23l2 1 1-1c4-8 6-17 6-26 0-13-8-22-8-22 1 0-9-12-11-17-4-5-6-11-6-11l-1-4-1-1-1 1v23m-205-25v1c5 1 13 7 20 18 1 3 4 7 4 15a63 63 0 0 1-4 23l1 1 1-1c5-8 6-17 6-26 0-13-8-22-8-22l-11-16-6-12-1-4-1-1-1 2v22M645 78v1c5 2 13 7 20 18 1 3 4 8 4 16a63 63 0 0 1-4 23l1 1 1-1c5-8 6-17 6-26 0-13-8-23-8-23l-11-16-6-12-1-4h-1l-1 1v22M489 91l1 1c4 1 12 7 19 18 2 3 4 7 4 15a63 63 0 0 1-4 23l1 1 1-1c5-8 6-17 6-26 0-13-7-22-7-22s-10-12-12-17c-4-5-6-11-6-11l-1-4-1-1-1 1v23m117 1466 1 1c4 1 13 7 19 18 2 3 5 7 5 15a63 63 0 0 1-5 23l1 1 1-1c5-8 7-17 7-26-1-13-8-22-8-22l-12-16-6-12-1-4-1-1-1 1v23M284 47l1 1c4 2 12 7 19 18 2 3 5 8 5 16a63 63 0 0 1-5 23l1 1 1-1c5-8 6-17 6-26 0-13-7-23-7-23l-12-16-6-12-1-4h-1l-1 1v22m90 946 1 1c4 1 13 7 19 18 2 3 5 7 5 15a63 63 0 0 1-5 23l1 1 2-1c4-8 6-17 6-26 0-13-8-22-8-22l-12-17-5-11-1-4-1-1-2 1v23m1528-301 1 1c4 2 13 7 19 18 2 3 5 7 5 16a63 63 0 0 1-5 23l1 1 2-1c4-8 6-18 6-27-1-12-8-22-8-22l-12-16c-4-6-5-12-5-12l-1-4-2-1-1 2v22m-558 257 1 1c4 2 13 7 19 18 2 3 5 8 5 16a63 63 0 0 1-5 23l1 1 2-1c4-8 6-17 6-26-1-13-8-23-8-23l-12-16-5-12-1-4h-1l-2 1v22m724-257 1 1c4 2 13 7 19 18 2 3 5 7 5 16a63 63 0 0 1-5 23l1 1 2-1c4-8 6-18 6-27-1-12-8-22-8-22l-12-16c-4-6-5-12-5-12l-1-4-2-1-1 2v22m-936 890 1 1c4 1 13 7 19 18 2 3 5 7 5 15a63 63 0 0 1-5 23l1 1 2-1c4-8 6-17 6-26-1-13-8-22-8-22l-12-17c-4-5-5-11-6-11l-1-4-1-1-1 1v23m-758-344 1 1c4 1 12 6 19 17 2 4 4 8 4 16a63 63 0 0 1-4 23l1 1 1-1c5-8 6-17 6-26 0-13-7-22-7-22l-12-17c-4-5-6-11-6-11l-1-4-1-1-1 1v23m1313-571 1 1c4 2 13 7 19 18 2 3 5 7 5 16a63 63 0 0 1-5 23l1 1 2-1c4-8 6-17 6-26-1-13-8-23-8-23l-12-16-6-12-1-4h-1l-1 1v22M345 624l1 1c4 1 13 7 19 18 2 3 5 7 5 15a63 63 0 0 1-5 23l1 1 2-1c4-8 6-17 6-26-1-13-8-22-8-22l-12-16-5-12-1-4-2-1-1 1v23m519 626 1 1c4 1 13 7 19 18 2 3 5 7 5 15a63 63 0 0 1-5 24l1 1 2-2c4-7 6-17 6-26-1-13-8-22-8-22l-12-16-5-12-1-4-2-1-1 2v22m-481 301 1 1c5 1 13 7 20 18 1 3 4 7 4 15a63 63 0 0 1-5 23l2 1 1-1c4-8 6-17 6-26 0-13-8-22-8-22 1 0-9-12-11-17-4-5-6-11-6-11l-1-4-1-1-2 1v23m887-1203v1c5 1 13 7 20 18 1 3 4 7 4 15a63 63 0 0 1-4 24l1 1 1-2c5-7 6-17 6-26 0-13-8-22-8-22l-11-16-6-12-1-4-1-1-1 2v22m798 601 1 1c4 2 13 7 19 18 2 3 5 8 5 16a63 63 0 0 1-5 23l1 1 2-1c4-8 6-17 6-26-1-13-8-23-8-23l-12-16c-4-6-5-11-5-12l-1-4h-2l-1 1v22m-540-338 1 2c4 1 13 6 19 17 2 3 5 8 5 16a63 63 0 0 1-5 23l1 1 2-1c4-8 6-17 6-26 0-13-8-22-8-22l-12-17-5-12-1-3-1-1-2 1v22m-758 69v1c5 1 13 7 20 18 1 3 4 7 4 15a63 63 0 0 1-4 23l1 1 1-1c5-8 6-17 6-26 0-13-8-22-8-22 1 0-9-12-11-17-4-5-6-11-6-11l-1-4-1-1-1 1v23m159-326v1c5 2 13 7 20 18 1 3 4 7 4 16a63 63 0 0 1-5 23l2 1 1-1c4-8 6-18 6-27 0-12-8-22-8-22l-11-16-6-12-1-4h-1l-1 1v22m633 583 1 1c4 1 13 7 19 18 2 3 5 7 5 15a63 63 0 0 1-5 23l1 1 2-1c4-8 6-17 6-26-1-13-8-22-8-22l-12-16-5-12-1-4-1-1-2 2v22m-632-50 1 1c4 2 13 7 19 18 2 3 5 8 5 16a63 63 0 0 1-5 23l1 1 2-1c4-8 6-17 6-26-1-13-8-23-8-23l-12-16c-4-6-5-11-5-12l-1-4h-2l-1 1v22m-485 62 1 1c4 2 13 7 19 18 2 3 5 8 5 16a63 63 0 0 1-5 23l1 1 2-1c4-8 6-17 6-26-1-13-8-23-8-23l-12-16-5-12-1-4h-2l-1 1v22m315-601 1 1c4 1 13 7 19 18 2 3 5 7 5 15a63 63 0 0 1-5 24l1 1 2-2c4-7 6-17 6-26-1-13-8-22-8-22l-12-16-5-12-1-4-2-1-1 2v22M516 949l1 1c4 2 13 7 19 18 2 3 5 8 5 16a63 63 0 0 1-5 23l1 1 2-1c4-8 6-17 6-26-1-13-8-23-8-23l-12-16-6-12-1-4h-1l-1 1v22m27-601v1c5 1 13 7 20 18 1 3 4 7 4 15a63 63 0 0 1-4 24l1 1 1-2c5-7 6-17 6-26 0-13-8-22-8-22l-11-16-6-12-1-4-1-1-1 2v22m1183 608v1c5 1 13 6 20 17 2 3 4 8 4 16a63 63 0 0 1-4 23l1 1 1-1c5-8 6-17 6-26 0-13-7-22-7-22l-12-17c-4-5-6-11-6-12l-1-3-1-1-1 1v23m174-589v1c5 1 13 6 20 17 2 4 4 8 4 16a63 63 0 0 1-4 23l1 1 1-1c5-8 6-17 6-26 0-13-7-22-7-22l-12-17c-4-5-6-11-6-11l-1-4-1-1-1 1v23m-218-31 1 1c4 1 13 6 19 17 2 4 5 8 5 16a63 63 0 0 1-5 23l1 1 2-1c4-8 6-17 6-26-1-13-8-22-8-22l-12-17-5-11-1-4-2-1-1 1v23m304 914v1c5 1 13 7 20 18 1 3 4 7 4 15a63 63 0 0 1-4 24l1 1 1-2c5-7 6-17 6-26 0-13-8-22-8-22l-11-16-6-12-1-4-1-1-1 2v22m82-902 1 1c4 1 13 7 19 18 2 3 5 7 5 15a63 63 0 0 1-5 24l1 1 2-2c4-7 6-17 6-26-1-13-8-22-8-22l-12-16c-4-6-5-12-5-12l-1-4-2-1-1 2v22"/>
	<path d="M1063 406c0 3 2 5 5 5s5-2 5-5-2-5-5-5-5 2-5 5m698 853c0 2 2 4 5 4s5-2 5-4-2-5-5-5-5 2-5 4M1515 155c0 3 2 5 5 5s5-2 5-5-2-5-5-5-5 2-5 5m346 852c0 3 2 5 4 5s5-2 5-5-2-5-5-5-4 3-4 5m-1596 50c0 3 2 5 5 5s5-2 5-5-2-5-5-5-5 2-5 5m975 177c0 2 2 5 5 5s5-3 5-5-2-5-5-5-5 2-5 5m-278 0c0 2 2 5 4 5s5-3 5-5-2-5-5-5-4 2-4 5m870 424c0 3 2 5 4 5s5-2 5-5-2-5-5-5-4 3-4 5m-298-24c0 2 2 5 5 5s5-3 5-5-3-5-5-5-5 2-5 5m-52-375c0 2 2 4 5 4s5-2 5-4-2-5-5-5-5 2-5 4M664 732c0 2 2 5 5 5s5-3 5-5-2-5-5-5-5 2-5 5m609 902c0 2 2 5 5 5s5-3 5-5-3-5-5-5-5 2-5 5"/>
</svg>
